<?xml version="1.0" encoding="utf-8" standalone="no"?>
<!DOCTYPE svg PUBLIC "-//W3C//DTD SVG 1.1//EN"
  "http://www.w3.org/Graphics/SVG/1.1/DTD/svg11.dtd">
<svg xmlns:xlink="http://www.w3.org/1999/xlink" width="864pt" height="432pt" viewBox="0 0 864 432" xmlns="http://www.w3.org/2000/svg" version="1.1">
 <metadata>
  <rdf:RDF xmlns:dc="http://purl.org/dc/elements/1.1/" xmlns:cc="http://creativecommons.org/ns#" xmlns:rdf="http://www.w3.org/1999/02/22-rdf-syntax-ns#">
   <cc:Work>
    <dc:type rdf:resource="http://purl.org/dc/dcmitype/StillImage"/>
    <dc:date>2024-11-10T20:33:14.199029</dc:date>
    <dc:format>image/svg+xml</dc:format>
    <dc:creator>
     <cc:Agent>
      <dc:title>Matplotlib v3.6.3, https://matplotlib.org/</dc:title>
     </cc:Agent>
    </dc:creator>
   </cc:Work>
  </rdf:RDF>
 </metadata>
 <defs>
  <style type="text/css">*{stroke-linejoin: round; stroke-linecap: butt}</style>
 </defs>
 <g id="figure_1">
  <g id="patch_1">
   <path d="M 0 432 
L 864 432 
L 864 0 
L 0 0 
z
" style="fill: #ffffff"/>
  </g>
  <g id="axes_1">
   <g id="patch_2">
    <path d="M 108 384.48 
L 777.6 384.48 
L 777.6 51.84 
L 108 51.84 
z
" style="fill: #ffffff"/>
   </g>
   <g id="matplotlib.axis_1">
    <g id="xtick_1">
     <g id="line2d_1">
      <defs>
       <path id="mccac5f5bd9" d="M 0 0 
L 0 3.5 
" style="stroke: #000000; stroke-width: 0.8"/>
      </defs>
      <g>
       <use xlink:href="#mccac5f5bd9" x="138.822857" y="384.48" style="stroke: #000000; stroke-width: 0.8"/>
      </g>
     </g>
     <g id="text_1">
      <!-- 2020-07 -->
      <g transform="translate(117.931451 399.078438) scale(0.1 -0.1)">
       <defs>
        <path id="DejaVuSans-32" d="M 1228 531 
L 3431 531 
L 3431 0 
L 469 0 
L 469 531 
Q 828 903 1448 1529 
Q 2069 2156 2228 2338 
Q 2531 2678 2651 2914 
Q 2772 3150 2772 3378 
Q 2772 3750 2511 3984 
Q 2250 4219 1831 4219 
Q 1534 4219 1204 4116 
Q 875 4013 500 3803 
L 500 4441 
Q 881 4594 1212 4672 
Q 1544 4750 1819 4750 
Q 2544 4750 2975 4387 
Q 3406 4025 3406 3419 
Q 3406 3131 3298 2873 
Q 3191 2616 2906 2266 
Q 2828 2175 2409 1742 
Q 1991 1309 1228 531 
z
" transform="scale(0.015625)"/>
        <path id="DejaVuSans-30" d="M 2034 4250 
Q 1547 4250 1301 3770 
Q 1056 3291 1056 2328 
Q 1056 1369 1301 889 
Q 1547 409 2034 409 
Q 2525 409 2770 889 
Q 3016 1369 3016 2328 
Q 3016 3291 2770 3770 
Q 2525 4250 2034 4250 
z
M 2034 4750 
Q 2819 4750 3233 4129 
Q 3647 3509 3647 2328 
Q 3647 1150 3233 529 
Q 2819 -91 2034 -91 
Q 1250 -91 836 529 
Q 422 1150 422 2328 
Q 422 3509 836 4129 
Q 1250 4750 2034 4750 
z
" transform="scale(0.015625)"/>
        <path id="DejaVuSans-2d" d="M 313 2009 
L 1997 2009 
L 1997 1497 
L 313 1497 
L 313 2009 
z
" transform="scale(0.015625)"/>
        <path id="DejaVuSans-37" d="M 525 4666 
L 3525 4666 
L 3525 4397 
L 1831 0 
L 1172 0 
L 2766 4134 
L 525 4134 
L 525 4666 
z
" transform="scale(0.015625)"/>
       </defs>
       <use xlink:href="#DejaVuSans-32"/>
       <use xlink:href="#DejaVuSans-30" x="63.623047"/>
       <use xlink:href="#DejaVuSans-32" x="127.246094"/>
       <use xlink:href="#DejaVuSans-30" x="190.869141"/>
       <use xlink:href="#DejaVuSans-2d" x="254.492188"/>
       <use xlink:href="#DejaVuSans-30" x="290.576172"/>
       <use xlink:href="#DejaVuSans-37" x="354.199219"/>
      </g>
     </g>
    </g>
    <g id="xtick_2">
     <g id="line2d_2">
      <g>
       <use xlink:href="#mccac5f5bd9" x="209.937662" y="384.48" style="stroke: #000000; stroke-width: 0.8"/>
      </g>
     </g>
     <g id="text_2">
      <!-- 2021-01 -->
      <g transform="translate(189.046256 399.078438) scale(0.1 -0.1)">
       <defs>
        <path id="DejaVuSans-31" d="M 794 531 
L 1825 531 
L 1825 4091 
L 703 3866 
L 703 4441 
L 1819 4666 
L 2450 4666 
L 2450 531 
L 3481 531 
L 3481 0 
L 794 0 
L 794 531 
z
" transform="scale(0.015625)"/>
       </defs>
       <use xlink:href="#DejaVuSans-32"/>
       <use xlink:href="#DejaVuSans-30" x="63.623047"/>
       <use xlink:href="#DejaVuSans-32" x="127.246094"/>
       <use xlink:href="#DejaVuSans-31" x="190.869141"/>
       <use xlink:href="#DejaVuSans-2d" x="254.492188"/>
       <use xlink:href="#DejaVuSans-30" x="290.576172"/>
       <use xlink:href="#DejaVuSans-31" x="354.199219"/>
      </g>
     </g>
    </g>
    <g id="xtick_3">
     <g id="line2d_3">
      <g>
       <use xlink:href="#mccac5f5bd9" x="279.892987" y="384.48" style="stroke: #000000; stroke-width: 0.8"/>
      </g>
     </g>
     <g id="text_3">
      <!-- 2021-07 -->
      <g transform="translate(259.001581 399.078438) scale(0.1 -0.1)">
       <use xlink:href="#DejaVuSans-32"/>
       <use xlink:href="#DejaVuSans-30" x="63.623047"/>
       <use xlink:href="#DejaVuSans-32" x="127.246094"/>
       <use xlink:href="#DejaVuSans-31" x="190.869141"/>
       <use xlink:href="#DejaVuSans-2d" x="254.492188"/>
       <use xlink:href="#DejaVuSans-30" x="290.576172"/>
       <use xlink:href="#DejaVuSans-37" x="354.199219"/>
      </g>
     </g>
    </g>
    <g id="xtick_4">
     <g id="line2d_4">
      <g>
       <use xlink:href="#mccac5f5bd9" x="351.007792" y="384.48" style="stroke: #000000; stroke-width: 0.8"/>
      </g>
     </g>
     <g id="text_4">
      <!-- 2022-01 -->
      <g transform="translate(330.116386 399.078438) scale(0.1 -0.1)">
       <use xlink:href="#DejaVuSans-32"/>
       <use xlink:href="#DejaVuSans-30" x="63.623047"/>
       <use xlink:href="#DejaVuSans-32" x="127.246094"/>
       <use xlink:href="#DejaVuSans-32" x="190.869141"/>
       <use xlink:href="#DejaVuSans-2d" x="254.492188"/>
       <use xlink:href="#DejaVuSans-30" x="290.576172"/>
       <use xlink:href="#DejaVuSans-31" x="354.199219"/>
      </g>
     </g>
    </g>
    <g id="xtick_5">
     <g id="line2d_5">
      <g>
       <use xlink:href="#mccac5f5bd9" x="420.963117" y="384.48" style="stroke: #000000; stroke-width: 0.8"/>
      </g>
     </g>
     <g id="text_5">
      <!-- 2022-07 -->
      <g transform="translate(400.071711 399.078438) scale(0.1 -0.1)">
       <use xlink:href="#DejaVuSans-32"/>
       <use xlink:href="#DejaVuSans-30" x="63.623047"/>
       <use xlink:href="#DejaVuSans-32" x="127.246094"/>
       <use xlink:href="#DejaVuSans-32" x="190.869141"/>
       <use xlink:href="#DejaVuSans-2d" x="254.492188"/>
       <use xlink:href="#DejaVuSans-30" x="290.576172"/>
       <use xlink:href="#DejaVuSans-37" x="354.199219"/>
      </g>
     </g>
    </g>
    <g id="xtick_6">
     <g id="line2d_6">
      <g>
       <use xlink:href="#mccac5f5bd9" x="492.077922" y="384.48" style="stroke: #000000; stroke-width: 0.8"/>
      </g>
     </g>
     <g id="text_6">
      <!-- 2023-01 -->
      <g transform="translate(471.186516 399.078438) scale(0.1 -0.1)">
       <defs>
        <path id="DejaVuSans-33" d="M 2597 2516 
Q 3050 2419 3304 2112 
Q 3559 1806 3559 1356 
Q 3559 666 3084 287 
Q 2609 -91 1734 -91 
Q 1441 -91 1130 -33 
Q 819 25 488 141 
L 488 750 
Q 750 597 1062 519 
Q 1375 441 1716 441 
Q 2309 441 2620 675 
Q 2931 909 2931 1356 
Q 2931 1769 2642 2001 
Q 2353 2234 1838 2234 
L 1294 2234 
L 1294 2753 
L 1863 2753 
Q 2328 2753 2575 2939 
Q 2822 3125 2822 3475 
Q 2822 3834 2567 4026 
Q 2313 4219 1838 4219 
Q 1578 4219 1281 4162 
Q 984 4106 628 3988 
L 628 4550 
Q 988 4650 1302 4700 
Q 1616 4750 1894 4750 
Q 2613 4750 3031 4423 
Q 3450 4097 3450 3541 
Q 3450 3153 3228 2886 
Q 3006 2619 2597 2516 
z
" transform="scale(0.015625)"/>
       </defs>
       <use xlink:href="#DejaVuSans-32"/>
       <use xlink:href="#DejaVuSans-30" x="63.623047"/>
       <use xlink:href="#DejaVuSans-32" x="127.246094"/>
       <use xlink:href="#DejaVuSans-33" x="190.869141"/>
       <use xlink:href="#DejaVuSans-2d" x="254.492188"/>
       <use xlink:href="#DejaVuSans-30" x="290.576172"/>
       <use xlink:href="#DejaVuSans-31" x="354.199219"/>
      </g>
     </g>
    </g>
    <g id="xtick_7">
     <g id="line2d_7">
      <g>
       <use xlink:href="#mccac5f5bd9" x="562.033247" y="384.48" style="stroke: #000000; stroke-width: 0.8"/>
      </g>
     </g>
     <g id="text_7">
      <!-- 2023-07 -->
      <g transform="translate(541.141841 399.078438) scale(0.1 -0.1)">
       <use xlink:href="#DejaVuSans-32"/>
       <use xlink:href="#DejaVuSans-30" x="63.623047"/>
       <use xlink:href="#DejaVuSans-32" x="127.246094"/>
       <use xlink:href="#DejaVuSans-33" x="190.869141"/>
       <use xlink:href="#DejaVuSans-2d" x="254.492188"/>
       <use xlink:href="#DejaVuSans-30" x="290.576172"/>
       <use xlink:href="#DejaVuSans-37" x="354.199219"/>
      </g>
     </g>
    </g>
    <g id="xtick_8">
     <g id="line2d_8">
      <g>
       <use xlink:href="#mccac5f5bd9" x="633.148052" y="384.48" style="stroke: #000000; stroke-width: 0.8"/>
      </g>
     </g>
     <g id="text_8">
      <!-- 2024-01 -->
      <g transform="translate(612.256646 399.078438) scale(0.1 -0.1)">
       <defs>
        <path id="DejaVuSans-34" d="M 2419 4116 
L 825 1625 
L 2419 1625 
L 2419 4116 
z
M 2253 4666 
L 3047 4666 
L 3047 1625 
L 3713 1625 
L 3713 1100 
L 3047 1100 
L 3047 0 
L 2419 0 
L 2419 1100 
L 313 1100 
L 313 1709 
L 2253 4666 
z
" transform="scale(0.015625)"/>
       </defs>
       <use xlink:href="#DejaVuSans-32"/>
       <use xlink:href="#DejaVuSans-30" x="63.623047"/>
       <use xlink:href="#DejaVuSans-32" x="127.246094"/>
       <use xlink:href="#DejaVuSans-34" x="190.869141"/>
       <use xlink:href="#DejaVuSans-2d" x="254.492188"/>
       <use xlink:href="#DejaVuSans-30" x="290.576172"/>
       <use xlink:href="#DejaVuSans-31" x="354.199219"/>
      </g>
     </g>
    </g>
    <g id="xtick_9">
     <g id="line2d_9">
      <g>
       <use xlink:href="#mccac5f5bd9" x="703.48987" y="384.48" style="stroke: #000000; stroke-width: 0.8"/>
      </g>
     </g>
     <g id="text_9">
      <!-- 2024-07 -->
      <g transform="translate(682.598464 399.078438) scale(0.1 -0.1)">
       <use xlink:href="#DejaVuSans-32"/>
       <use xlink:href="#DejaVuSans-30" x="63.623047"/>
       <use xlink:href="#DejaVuSans-32" x="127.246094"/>
       <use xlink:href="#DejaVuSans-34" x="190.869141"/>
       <use xlink:href="#DejaVuSans-2d" x="254.492188"/>
       <use xlink:href="#DejaVuSans-30" x="290.576172"/>
       <use xlink:href="#DejaVuSans-37" x="354.199219"/>
      </g>
     </g>
    </g>
    <g id="xtick_10">
     <g id="line2d_10">
      <g>
       <use xlink:href="#mccac5f5bd9" x="774.604675" y="384.48" style="stroke: #000000; stroke-width: 0.8"/>
      </g>
     </g>
     <g id="text_10">
      <!-- 2025-01 -->
      <g transform="translate(753.713269 399.078438) scale(0.1 -0.1)">
       <defs>
        <path id="DejaVuSans-35" d="M 691 4666 
L 3169 4666 
L 3169 4134 
L 1269 4134 
L 1269 2991 
Q 1406 3038 1543 3061 
Q 1681 3084 1819 3084 
Q 2600 3084 3056 2656 
Q 3513 2228 3513 1497 
Q 3513 744 3044 326 
Q 2575 -91 1722 -91 
Q 1428 -91 1123 -41 
Q 819 9 494 109 
L 494 744 
Q 775 591 1075 516 
Q 1375 441 1709 441 
Q 2250 441 2565 725 
Q 2881 1009 2881 1497 
Q 2881 1984 2565 2268 
Q 2250 2553 1709 2553 
Q 1456 2553 1204 2497 
Q 953 2441 691 2322 
L 691 4666 
z
" transform="scale(0.015625)"/>
       </defs>
       <use xlink:href="#DejaVuSans-32"/>
       <use xlink:href="#DejaVuSans-30" x="63.623047"/>
       <use xlink:href="#DejaVuSans-32" x="127.246094"/>
       <use xlink:href="#DejaVuSans-35" x="190.869141"/>
       <use xlink:href="#DejaVuSans-2d" x="254.492188"/>
       <use xlink:href="#DejaVuSans-30" x="290.576172"/>
       <use xlink:href="#DejaVuSans-31" x="354.199219"/>
      </g>
     </g>
    </g>
    <g id="text_11">
     <!-- Date -->
     <g transform="translate(430.849219 412.756563) scale(0.1 -0.1)">
      <defs>
       <path id="DejaVuSans-44" d="M 1259 4147 
L 1259 519 
L 2022 519 
Q 2988 519 3436 956 
Q 3884 1394 3884 2338 
Q 3884 3275 3436 3711 
Q 2988 4147 2022 4147 
L 1259 4147 
z
M 628 4666 
L 1925 4666 
Q 3281 4666 3915 4102 
Q 4550 3538 4550 2338 
Q 4550 1131 3912 565 
Q 3275 0 1925 0 
L 628 0 
L 628 4666 
z
" transform="scale(0.015625)"/>
       <path id="DejaVuSans-61" d="M 2194 1759 
Q 1497 1759 1228 1600 
Q 959 1441 959 1056 
Q 959 750 1161 570 
Q 1363 391 1709 391 
Q 2188 391 2477 730 
Q 2766 1069 2766 1631 
L 2766 1759 
L 2194 1759 
z
M 3341 1997 
L 3341 0 
L 2766 0 
L 2766 531 
Q 2569 213 2275 61 
Q 1981 -91 1556 -91 
Q 1019 -91 701 211 
Q 384 513 384 1019 
Q 384 1609 779 1909 
Q 1175 2209 1959 2209 
L 2766 2209 
L 2766 2266 
Q 2766 2663 2505 2880 
Q 2244 3097 1772 3097 
Q 1472 3097 1187 3025 
Q 903 2953 641 2809 
L 641 3341 
Q 956 3463 1253 3523 
Q 1550 3584 1831 3584 
Q 2591 3584 2966 3190 
Q 3341 2797 3341 1997 
z
" transform="scale(0.015625)"/>
       <path id="DejaVuSans-74" d="M 1172 4494 
L 1172 3500 
L 2356 3500 
L 2356 3053 
L 1172 3053 
L 1172 1153 
Q 1172 725 1289 603 
Q 1406 481 1766 481 
L 2356 481 
L 2356 0 
L 1766 0 
Q 1100 0 847 248 
Q 594 497 594 1153 
L 594 3053 
L 172 3053 
L 172 3500 
L 594 3500 
L 594 4494 
L 1172 4494 
z
" transform="scale(0.015625)"/>
       <path id="DejaVuSans-65" d="M 3597 1894 
L 3597 1613 
L 953 1613 
Q 991 1019 1311 708 
Q 1631 397 2203 397 
Q 2534 397 2845 478 
Q 3156 559 3463 722 
L 3463 178 
Q 3153 47 2828 -22 
Q 2503 -91 2169 -91 
Q 1331 -91 842 396 
Q 353 884 353 1716 
Q 353 2575 817 3079 
Q 1281 3584 2069 3584 
Q 2775 3584 3186 3129 
Q 3597 2675 3597 1894 
z
M 3022 2063 
Q 3016 2534 2758 2815 
Q 2500 3097 2075 3097 
Q 1594 3097 1305 2825 
Q 1016 2553 972 2059 
L 3022 2063 
z
" transform="scale(0.015625)"/>
      </defs>
      <use xlink:href="#DejaVuSans-44"/>
      <use xlink:href="#DejaVuSans-61" x="77.001953"/>
      <use xlink:href="#DejaVuSans-74" x="138.28125"/>
      <use xlink:href="#DejaVuSans-65" x="177.490234"/>
     </g>
    </g>
   </g>
   <g id="matplotlib.axis_2">
    <g id="ytick_1">
     <g id="line2d_11">
      <defs>
       <path id="mba20a454a3" d="M 0 0 
L -3.5 0 
" style="stroke: #000000; stroke-width: 0.8"/>
      </defs>
      <g>
       <use xlink:href="#mba20a454a3" x="108" y="369.392416" style="stroke: #000000; stroke-width: 0.8"/>
      </g>
     </g>
     <g id="text_12">
      <!-- 0.00 -->
      <g transform="translate(78.734375 373.191635) scale(0.1 -0.1)">
       <defs>
        <path id="DejaVuSans-2e" d="M 684 794 
L 1344 794 
L 1344 0 
L 684 0 
L 684 794 
z
" transform="scale(0.015625)"/>
       </defs>
       <use xlink:href="#DejaVuSans-30"/>
       <use xlink:href="#DejaVuSans-2e" x="63.623047"/>
       <use xlink:href="#DejaVuSans-30" x="95.410156"/>
       <use xlink:href="#DejaVuSans-30" x="159.033203"/>
      </g>
     </g>
    </g>
    <g id="ytick_2">
     <g id="line2d_12">
      <g>
       <use xlink:href="#mba20a454a3" x="108" y="313.337108" style="stroke: #000000; stroke-width: 0.8"/>
      </g>
     </g>
     <g id="text_13">
      <!-- 0.01 -->
      <g transform="translate(78.734375 317.136327) scale(0.1 -0.1)">
       <use xlink:href="#DejaVuSans-30"/>
       <use xlink:href="#DejaVuSans-2e" x="63.623047"/>
       <use xlink:href="#DejaVuSans-30" x="95.410156"/>
       <use xlink:href="#DejaVuSans-31" x="159.033203"/>
      </g>
     </g>
    </g>
    <g id="ytick_3">
     <g id="line2d_13">
      <g>
       <use xlink:href="#mba20a454a3" x="108" y="257.2818" style="stroke: #000000; stroke-width: 0.8"/>
      </g>
     </g>
     <g id="text_14">
      <!-- 0.02 -->
      <g transform="translate(78.734375 261.081019) scale(0.1 -0.1)">
       <use xlink:href="#DejaVuSans-30"/>
       <use xlink:href="#DejaVuSans-2e" x="63.623047"/>
       <use xlink:href="#DejaVuSans-30" x="95.410156"/>
       <use xlink:href="#DejaVuSans-32" x="159.033203"/>
      </g>
     </g>
    </g>
    <g id="ytick_4">
     <g id="line2d_14">
      <g>
       <use xlink:href="#mba20a454a3" x="108" y="201.226493" style="stroke: #000000; stroke-width: 0.8"/>
      </g>
     </g>
     <g id="text_15">
      <!-- 0.03 -->
      <g transform="translate(78.734375 205.025711) scale(0.1 -0.1)">
       <use xlink:href="#DejaVuSans-30"/>
       <use xlink:href="#DejaVuSans-2e" x="63.623047"/>
       <use xlink:href="#DejaVuSans-30" x="95.410156"/>
       <use xlink:href="#DejaVuSans-33" x="159.033203"/>
      </g>
     </g>
    </g>
    <g id="ytick_5">
     <g id="line2d_15">
      <g>
       <use xlink:href="#mba20a454a3" x="108" y="145.171185" style="stroke: #000000; stroke-width: 0.8"/>
      </g>
     </g>
     <g id="text_16">
      <!-- 0.04 -->
      <g transform="translate(78.734375 148.970403) scale(0.1 -0.1)">
       <use xlink:href="#DejaVuSans-30"/>
       <use xlink:href="#DejaVuSans-2e" x="63.623047"/>
       <use xlink:href="#DejaVuSans-30" x="95.410156"/>
       <use xlink:href="#DejaVuSans-34" x="159.033203"/>
      </g>
     </g>
    </g>
    <g id="ytick_6">
     <g id="line2d_16">
      <g>
       <use xlink:href="#mba20a454a3" x="108" y="89.115877" style="stroke: #000000; stroke-width: 0.8"/>
      </g>
     </g>
     <g id="text_17">
      <!-- 0.05 -->
      <g transform="translate(78.734375 92.915095) scale(0.1 -0.1)">
       <use xlink:href="#DejaVuSans-30"/>
       <use xlink:href="#DejaVuSans-2e" x="63.623047"/>
       <use xlink:href="#DejaVuSans-30" x="95.410156"/>
       <use xlink:href="#DejaVuSans-35" x="159.033203"/>
      </g>
     </g>
    </g>
    <g id="text_18">
     <!-- Volatility -->
     <g transform="translate(72.654687 239.752187) rotate(-90) scale(0.1 -0.1)">
      <defs>
       <path id="DejaVuSans-56" d="M 1831 0 
L 50 4666 
L 709 4666 
L 2188 738 
L 3669 4666 
L 4325 4666 
L 2547 0 
L 1831 0 
z
" transform="scale(0.015625)"/>
       <path id="DejaVuSans-6f" d="M 1959 3097 
Q 1497 3097 1228 2736 
Q 959 2375 959 1747 
Q 959 1119 1226 758 
Q 1494 397 1959 397 
Q 2419 397 2687 759 
Q 2956 1122 2956 1747 
Q 2956 2369 2687 2733 
Q 2419 3097 1959 3097 
z
M 1959 3584 
Q 2709 3584 3137 3096 
Q 3566 2609 3566 1747 
Q 3566 888 3137 398 
Q 2709 -91 1959 -91 
Q 1206 -91 779 398 
Q 353 888 353 1747 
Q 353 2609 779 3096 
Q 1206 3584 1959 3584 
z
" transform="scale(0.015625)"/>
       <path id="DejaVuSans-6c" d="M 603 4863 
L 1178 4863 
L 1178 0 
L 603 0 
L 603 4863 
z
" transform="scale(0.015625)"/>
       <path id="DejaVuSans-69" d="M 603 3500 
L 1178 3500 
L 1178 0 
L 603 0 
L 603 3500 
z
M 603 4863 
L 1178 4863 
L 1178 4134 
L 603 4134 
L 603 4863 
z
" transform="scale(0.015625)"/>
       <path id="DejaVuSans-79" d="M 2059 -325 
Q 1816 -950 1584 -1140 
Q 1353 -1331 966 -1331 
L 506 -1331 
L 506 -850 
L 844 -850 
Q 1081 -850 1212 -737 
Q 1344 -625 1503 -206 
L 1606 56 
L 191 3500 
L 800 3500 
L 1894 763 
L 2988 3500 
L 3597 3500 
L 2059 -325 
z
" transform="scale(0.015625)"/>
      </defs>
      <use xlink:href="#DejaVuSans-56"/>
      <use xlink:href="#DejaVuSans-6f" x="60.658203"/>
      <use xlink:href="#DejaVuSans-6c" x="121.839844"/>
      <use xlink:href="#DejaVuSans-61" x="149.623047"/>
      <use xlink:href="#DejaVuSans-74" x="210.902344"/>
      <use xlink:href="#DejaVuSans-69" x="250.111328"/>
      <use xlink:href="#DejaVuSans-6c" x="277.894531"/>
      <use xlink:href="#DejaVuSans-69" x="305.677734"/>
      <use xlink:href="#DejaVuSans-74" x="333.460938"/>
      <use xlink:href="#DejaVuSans-79" x="372.669922"/>
     </g>
    </g>
   </g>
   <g id="line2d_17">
    <path d="M 138.436364 283.67068 
L 138.822857 341.311152 
L 139.209351 343.993921 
L 140.755325 281.066455 
L 141.141818 308.418378 
L 141.528312 325.68617 
L 141.914805 337.667403 
L 142.301299 311.028696 
L 143.460779 316.663178 
L 143.847273 294.741878 
L 144.233766 318.712493 
L 144.62026 350.266819 
L 145.006753 353.447133 
L 146.166234 322.464048 
L 146.552727 359.988413 
L 146.939221 337.26919 
L 147.325714 299.904134 
L 147.712208 334.584089 
L 148.871688 328.091265 
L 149.258182 332.987658 
L 149.644675 300.154114 
L 150.031169 348.330747 
L 150.417662 326.559232 
L 151.577143 329.282811 
L 151.963636 349.182105 
L 152.35013 333.46567 
L 152.736623 333.477075 
L 153.123117 365.845073 
L 154.282597 354.041864 
L 155.055584 291.478327 
L 155.442078 357.905155 
L 155.828571 368.42884 
L 156.988052 354.222856 
L 157.374545 356.495545 
L 157.761039 344.648913 
L 158.147532 351.714508 
L 158.534026 350.136298 
L 159.693506 313.372898 
L 160.08 349.269123 
L 160.466494 312.529905 
L 160.852987 360.021952 
L 161.239481 331.779289 
L 162.398961 357.074962 
L 162.785455 327.368698 
L 163.171948 283.913395 
L 163.558442 168.952122 
L 163.944935 323.616078 
L 165.490909 211.603288 
L 165.877403 257.591446 
L 166.263896 269.943315 
L 166.65039 366.405059 
L 167.80987 298.418914 
L 168.196364 340.211223 
L 168.582857 343.440788 
L 169.355844 306.354989 
L 170.515325 304.152087 
L 170.901818 310.741657 
L 171.288312 234.81854 
L 171.674805 352.671087 
L 172.061299 280.542291 
L 173.220779 279.803747 
L 173.607273 342.349751 
L 173.993766 323.315836 
L 174.38026 339.801102 
L 174.766753 315.445837 
L 175.926234 269.540485 
L 176.312727 290.511026 
L 176.699221 272.71291 
L 177.085714 324.670298 
L 177.472208 320.31546 
L 178.631688 278.120192 
L 179.018182 333.926831 
L 179.404675 332.142699 
L 179.791169 360.821989 
L 180.177662 368.636171 
L 181.337143 277.099238 
L 181.723636 342.955639 
L 182.11013 357.070822 
L 182.496623 340.213645 
L 182.883117 350.110296 
L 184.042597 264.207585 
L 184.429091 352.406507 
L 184.815584 168.010683 
L 185.202078 302.81819 
L 185.588571 300.984126 
L 186.748052 300.764179 
L 187.521039 247.14966 
L 187.907532 261.355453 
L 188.294026 367.779244 
L 189.453506 304.188958 
L 189.84 361.540281 
L 190.226494 326.66295 
L 190.612987 313.176505 
L 190.999481 293.613775 
L 192.158961 304.476265 
L 192.545455 342.466538 
L 192.931948 304.193291 
L 193.318442 347.314014 
L 193.704935 331.186556 
L 194.864416 337.888646 
L 195.250909 279.522012 
L 195.637403 360.503883 
L 196.41039 355.972146 
L 197.56987 343.572576 
L 197.956364 306.564791 
L 198.342857 359.361047 
L 198.729351 365.892651 
L 199.115844 320.078033 
L 200.275325 358.53171 
L 200.661818 353.790763 
L 201.048312 324.65492 
L 201.434805 362.184026 
L 201.821299 362.297002 
L 202.980779 344.902995 
L 203.367273 297.425951 
L 203.753766 359.463764 
L 204.14026 337.210201 
L 204.526753 349.676052 
L 205.686234 347.452755 
L 206.459221 365.213307 
L 206.845714 349.602853 
L 208.391688 320.710095 
L 208.778182 356.892793 
L 209.164675 361.877372 
L 209.551169 333.414866 
L 211.097143 286.06748 
L 211.483636 329.830654 
L 211.87013 337.476725 
L 212.256623 286.776714 
L 212.643117 338.691825 
L 213.802597 332.528645 
L 214.189091 367.062236 
L 214.962078 348.312669 
L 215.348571 328.942959 
L 216.894545 323.968253 
L 217.281039 291.815115 
L 217.667532 367.617253 
L 218.054026 352.490882 
L 219.213506 349.160329 
L 219.6 361.04048 
L 219.986494 223.573973 
L 220.372987 314.944166 
L 220.759481 260.082438 
L 221.918961 280.128287 
L 222.305455 292.021844 
L 222.691948 363.740673 
L 223.078442 308.881519 
L 223.464935 347.587335 
L 224.624416 328.067855 
L 225.010909 363.147051 
L 225.397403 367.457134 
L 225.783896 360.08121 
L 226.17039 343.046578 
L 227.716364 366.20042 
L 228.102857 367.596119 
L 228.489351 344.58451 
L 228.875844 358.985095 
L 230.035325 325.877225 
L 230.421818 362.354531 
L 230.808312 306.119068 
L 231.194805 230.468399 
L 231.581299 342.701479 
L 232.740779 237.594156 
L 233.127273 323.910838 
L 233.513766 295.666692 
L 233.90026 293.672694 
L 234.286753 261.158934 
L 235.446234 339.270358 
L 235.832727 290.604498 
L 236.219221 335.690704 
L 236.605714 311.421037 
L 236.992208 363.703457 
L 238.151688 333.119441 
L 238.538182 360.586707 
L 238.924675 353.275223 
L 239.311169 286.035114 
L 239.697662 366.01287 
L 240.857143 330.150565 
L 241.243636 326.453343 
L 241.63013 338.661048 
L 242.016623 340.094681 
L 242.403117 276.932472 
L 243.562597 364.524704 
L 243.949091 351.662992 
L 244.335584 349.122998 
L 244.722078 303.494781 
L 246.268052 289.037194 
L 246.654545 363.932561 
L 247.041039 361.128923 
L 247.814026 326.284246 
L 248.973506 368.293142 
L 249.36 350.955435 
L 249.746494 346.431696 
L 250.132987 307.546116 
L 250.519481 349.199472 
L 251.678961 339.567191 
L 252.065455 331.131422 
L 252.451948 317.468241 
L 252.838442 317.522602 
L 253.224935 308.46366 
L 254.384416 359.410728 
L 254.770909 368.187685 
L 255.157403 364.650764 
L 255.543896 331.610958 
L 255.93039 328.916475 
L 257.08987 354.008949 
L 257.476364 331.831226 
L 257.862857 365.450633 
L 258.249351 323.806525 
L 258.635844 328.212528 
L 259.795325 310.587734 
L 260.181818 320.558403 
L 260.568312 247.848855 
L 260.954805 301.567432 
L 261.341299 286.386954 
L 262.500779 355.192104 
L 262.887273 321.444064 
L 263.273766 352.868706 
L 263.66026 310.537598 
L 264.046753 364.996699 
L 265.206234 314.107939 
L 265.592727 357.466424 
L 265.979221 358.881792 
L 266.365714 362.863944 
L 266.752208 365.084055 
L 268.298182 366.631845 
L 268.684675 361.287412 
L 269.071169 349.014639 
L 269.457662 320.090124 
L 270.617143 364.924516 
L 271.003636 368.411323 
L 271.39013 359.159285 
L 271.776623 343.37456 
L 272.163117 358.481119 
L 273.322597 359.226419 
L 273.709091 358.104392 
L 274.095584 339.096247 
L 274.482078 366.949509 
L 274.868571 295.335713 
L 276.028052 291.446652 
L 276.414545 340.740273 
L 276.801039 363.316744 
L 277.187532 336.91155 
L 277.574026 350.753621 
L 278.733506 356.430768 
L 279.12 367.838069 
L 279.506494 361.95231 
L 279.892987 340.198633 
L 280.279481 327.507355 
L 281.825455 358.047373 
L 282.211948 350.595056 
L 282.598442 321.196676 
L 282.984935 306.527339 
L 284.144416 350.08003 
L 284.530909 349.644097 
L 284.917403 362.866196 
L 285.303896 351.075957 
L 285.69039 326.973076 
L 286.84987 279.721864 
L 287.236364 285.035772 
L 288.009351 358.099216 
L 288.395844 312.8084 
L 289.555325 356.054758 
L 289.941818 342.91428 
L 290.328312 368.348126 
L 290.714805 345.8641 
L 291.101299 339.006486 
L 292.260779 359.052995 
L 292.647273 323.595505 
L 293.033766 343.365151 
L 293.42026 335.829432 
L 293.806753 360.009545 
L 294.966234 364.121282 
L 295.352727 363.830685 
L 295.739221 362.245698 
L 296.125714 346.197835 
L 296.512208 360.38987 
L 297.671688 354.720326 
L 298.444675 308.815339 
L 298.831169 362.352393 
L 299.217662 323.939409 
L 300.377143 321.814486 
L 300.763636 361.014279 
L 301.15013 356.961346 
L 301.923117 320.237137 
L 303.082597 345.303661 
L 303.469091 361.824877 
L 303.855584 367.645593 
L 304.242078 353.480464 
L 304.628571 367.514099 
L 306.174545 350.326019 
L 306.561039 361.996224 
L 307.334026 325.935255 
L 308.493506 356.646001 
L 309.266494 322.091286 
L 309.652987 360.690694 
L 310.039481 318.087022 
L 311.198961 273.408545 
L 311.585455 364.836787 
L 311.971948 316.282331 
L 312.358442 301.780224 
L 312.744935 361.208662 
L 313.904416 353.807695 
L 314.290909 254.06242 
L 314.677403 360.603172 
L 315.063896 302.231313 
L 315.45039 305.343889 
L 316.60987 296.122893 
L 316.996364 310.705284 
L 317.382857 346.441122 
L 317.769351 323.06804 
L 318.155844 358.654605 
L 319.315325 330.773442 
L 319.701818 355.828732 
L 320.088312 352.475175 
L 320.474805 274.551482 
L 320.861299 327.729258 
L 322.020779 350.506821 
L 322.407273 328.101304 
L 322.793766 348.891193 
L 323.18026 352.624 
L 323.566753 363.376936 
L 324.726234 342.839217 
L 325.112727 359.20084 
L 325.499221 341.00401 
L 325.885714 314.563159 
L 326.272208 358.475949 
L 327.431688 359.311147 
L 327.818182 348.799875 
L 328.204675 333.290052 
L 328.591169 345.999211 
L 328.977662 348.507081 
L 330.137143 364.418114 
L 330.523636 349.745525 
L 330.91013 323.091664 
L 331.296623 366.305026 
L 331.683117 329.05108 
L 332.842597 369.332205 
L 333.229091 347.767514 
L 333.615584 354.789899 
L 334.002078 350.450985 
L 334.388571 361.546759 
L 335.548052 351.441963 
L 335.934545 360.11094 
L 336.321039 356.54885 
L 337.094026 240.53795 
L 338.253506 295.882407 
L 338.64 262.083627 
L 339.026494 302.767599 
L 339.412987 290.384435 
L 339.799481 321.832569 
L 340.958961 304.017413 
L 341.345455 254.503655 
L 341.731948 352.124333 
L 342.118442 328.993381 
L 342.504935 316.118775 
L 343.664416 317.943973 
L 344.050909 327.358059 
L 344.437403 278.491575 
L 344.823896 320.165382 
L 345.21039 311.425803 
L 346.36987 305.19006 
L 346.756364 270.613076 
L 347.142857 312.615494 
L 347.529351 334.613486 
L 349.075325 292.349714 
L 349.461818 363.727152 
L 349.848312 361.539507 
L 350.234805 352.608121 
L 350.621299 354.651925 
L 351.780779 333.775839 
L 352.167273 365.861845 
L 352.553766 259.617897 
L 352.94026 363.987343 
L 353.326753 346.642723 
L 354.486234 361.308781 
L 354.872727 318.279563 
L 355.259221 353.619587 
L 355.645714 288.975323 
L 356.032208 364.79789 
L 357.578182 265.358822 
L 357.964675 314.812532 
L 358.351169 307.178057 
L 358.737662 262.349149 
L 359.897143 353.876766 
L 360.283636 300.74376 
L 360.67013 360.996719 
L 361.056623 339.130214 
L 361.443117 234.545989 
L 362.602597 264.513918 
L 362.989091 331.053093 
L 363.375584 316.821435 
L 363.762078 230.972327 
L 364.148571 340.559298 
L 365.308052 348.603812 
L 365.694545 322.495937 
L 366.081039 288.600708 
L 366.467532 266.913084 
L 366.854026 262.036996 
L 368.013506 347.822404 
L 368.4 281.701078 
L 368.786494 364.454881 
L 369.172987 249.431232 
L 369.559481 329.077588 
L 371.105455 312.24558 
L 371.491948 265.220669 
L 371.878442 286.17211 
L 372.264935 245.364 
L 373.424416 355.683528 
L 373.810909 281.977245 
L 374.197403 265.852489 
L 374.583896 339.859567 
L 374.97039 324.740548 
L 376.12987 201.436177 
L 376.516364 328.696081 
L 376.902857 227.159914 
L 377.289351 345.2827 
L 377.675844 296.261179 
L 378.835325 327.638633 
L 379.221818 250.652576 
L 379.608312 245.303179 
L 379.994805 300.600268 
L 380.381299 304.397321 
L 381.540779 366.955437 
L 381.927273 306.382314 
L 382.313766 300.1717 
L 382.70026 289.55828 
L 383.086753 341.065538 
L 384.246234 329.483629 
L 384.632727 301.105566 
L 385.019221 334.001402 
L 385.405714 280.957732 
L 385.792208 350.308839 
L 386.951688 324.220995 
L 387.338182 298.588089 
L 387.724675 314.6576 
L 388.111169 345.600443 
L 388.497662 354.512243 
L 389.657143 273.978801 
L 390.043636 350.202987 
L 390.43013 307.100438 
L 390.816623 300.901348 
L 392.362597 368.243906 
L 392.749091 280.095958 
L 393.135584 365.92442 
L 393.908571 211.69716 
L 395.068052 337.543149 
L 395.454545 209.354491 
L 395.841039 357.644024 
L 396.227532 232.361595 
L 396.614026 162.216741 
L 397.773506 337.66961 
L 398.16 342.34312 
L 398.546494 204.448486 
L 398.932987 165.907856 
L 399.319481 337.494755 
L 400.478961 186.867889 
L 400.865455 355.631583 
L 401.251948 276.339327 
L 401.638442 362.123212 
L 402.024935 237.162069 
L 403.184416 347.226955 
L 403.570909 257.456006 
L 403.957403 138.25498 
L 404.343896 336.595203 
L 404.73039 368.573229 
L 405.88987 266.334748 
L 406.276364 323.685221 
L 406.662857 316.664632 
L 407.049351 259.029806 
L 407.435844 232.386971 
L 408.981818 334.110491 
L 409.368312 327.289837 
L 409.754805 267.017403 
L 410.141299 276.999763 
L 411.300779 351.833064 
L 411.687273 316.261337 
L 412.073766 308.557644 
L 412.46026 234.375107 
L 412.846753 203.791446 
L 414.006234 147.750146 
L 414.392727 348.198928 
L 414.779221 288.184777 
L 415.165714 184.117207 
L 415.552208 357.068904 
L 417.098182 233.836885 
L 417.484675 362.09173 
L 417.871169 316.212322 
L 418.257662 200.634901 
L 419.417143 352.701924 
L 419.803636 255.327241 
L 420.19013 365.401389 
L 420.576623 320.0757 
L 420.963117 310.542681 
L 422.509091 360.519582 
L 422.895584 349.398612 
L 423.282078 286.12947 
L 423.668571 364.73642 
L 424.828052 304.39948 
L 425.214545 317.334563 
L 425.601039 344.353301 
L 425.987532 352.558298 
L 426.374026 262.779571 
L 427.533506 322.313028 
L 427.92 216.622046 
L 428.306494 336.440282 
L 428.692987 314.384897 
L 429.079481 316.833305 
L 430.238961 362.025058 
L 430.625455 304.310196 
L 431.011948 224.657278 
L 431.398442 301.787956 
L 431.784935 290.310854 
L 432.944416 353.545228 
L 433.330909 331.92111 
L 433.717403 282.40881 
L 434.103896 365.033291 
L 434.49039 360.271831 
L 435.64987 362.451104 
L 436.036364 345.525424 
L 436.422857 251.299836 
L 436.809351 365.436485 
L 437.195844 273.122744 
L 438.355325 347.185119 
L 438.741818 358.88803 
L 439.128312 328.673139 
L 439.514805 356.68473 
L 439.901299 296.610675 
L 441.060779 248.131448 
L 441.447273 356.834024 
L 441.833766 353.069631 
L 442.22026 290.952865 
L 442.606753 177.298863 
L 443.766234 331.898848 
L 444.152727 307.230344 
L 444.539221 325.401695 
L 444.925714 352.622054 
L 445.312208 308.883202 
L 446.858182 346.390273 
L 447.244675 267.512707 
L 447.631169 332.45778 
L 448.017662 284.434874 
L 449.177143 310.373666 
L 449.563636 121.632528 
L 449.95013 350.438451 
L 450.336623 305.588756 
L 450.723117 328.9875 
L 451.882597 331.085934 
L 452.269091 305.847419 
L 452.655584 272.614753 
L 453.042078 321.951224 
L 453.428571 271.952449 
L 454.588052 311.126417 
L 454.974545 357.494055 
L 455.361039 260.190262 
L 455.747532 249.698771 
L 456.134026 284.292811 
L 457.293506 226.145466 
L 457.68 200.523886 
L 458.066494 358.069317 
L 458.452987 311.667107 
L 458.839481 210.177434 
L 459.998961 327.235082 
L 460.385455 332.729346 
L 460.771948 350.915403 
L 461.158442 225.698759 
L 461.544935 235.156162 
L 462.704416 222.888904 
L 463.090909 305.698114 
L 463.477403 331.866394 
L 463.863896 324.645194 
L 464.25039 237.955232 
L 465.40987 303.180204 
L 465.796364 278.942889 
L 466.182857 327.826633 
L 466.569351 335.19196 
L 466.955844 233.020726 
L 468.115325 327.449971 
L 468.501818 346.355545 
L 468.888312 227.461187 
L 469.274805 309.736062 
L 469.661299 293.567476 
L 470.820779 315.758351 
L 471.207273 338.100697 
L 471.593766 251.694351 
L 471.98026 66.96 
L 472.366753 317.831014 
L 473.526234 319.07755 
L 474.299221 322.943318 
L 474.685714 352.048432 
L 475.072208 342.781346 
L 476.231688 347.57982 
L 476.618182 293.781529 
L 477.004675 336.335154 
L 477.777662 367.805568 
L 478.937143 282.143995 
L 479.323636 360.462139 
L 479.71013 198.543476 
L 480.096623 364.526814 
L 480.483117 362.691731 
L 481.642597 268.177503 
L 482.029091 288.090499 
L 482.415584 358.943088 
L 482.802078 327.386601 
L 483.188571 328.042027 
L 484.348052 289.915445 
L 484.734545 328.678256 
L 485.121039 335.360633 
L 485.507532 227.922912 
L 485.894026 306.609116 
L 487.053506 318.671723 
L 487.44 363.580606 
L 487.826494 286.662952 
L 488.212987 287.791977 
L 488.599481 336.594688 
L 490.145455 346.646001 
L 490.531948 301.602139 
L 490.918442 272.357209 
L 491.304935 355.132125 
L 492.850909 346.922251 
L 493.623896 303.729923 
L 494.01039 242.798002 
L 495.16987 365.087762 
L 495.942857 297.823413 
L 496.329351 350.277101 
L 496.715844 347.032511 
L 498.261818 357.998888 
L 498.648312 281.469799 
L 499.034805 326.411059 
L 499.421299 264.335402 
L 500.580779 303.183653 
L 500.967273 365.402655 
L 501.353766 368.373631 
L 501.74026 308.024786 
L 502.126753 355.424824 
L 503.286234 296.220147 
L 503.672727 287.908684 
L 504.059221 311.105742 
L 504.445714 287.594362 
L 504.832208 311.04671 
L 505.991688 334.865752 
L 506.378182 297.695667 
L 506.764675 306.93243 
L 507.151169 319.676859 
L 507.537662 357.100243 
L 508.697143 305.581571 
L 509.083636 367.8204 
L 509.47013 353.86883 
L 509.856623 291.561344 
L 510.243117 353.858166 
L 511.789091 255.909657 
L 512.175584 360.564766 
L 512.562078 339.597348 
L 512.948571 310.010325 
L 514.108052 352.192939 
L 514.494545 352.348111 
L 514.881039 342.842034 
L 515.267532 327.050521 
L 515.654026 279.598818 
L 516.813506 365.541845 
L 517.2 282.811689 
L 517.586494 361.467339 
L 517.972987 264.951022 
L 519.518961 360.922978 
L 519.905455 277.784698 
L 520.291948 330.123643 
L 520.678442 271.802496 
L 521.064935 307.279705 
L 522.224416 319.621605 
L 522.997403 276.339277 
L 523.383896 352.687465 
L 523.77039 337.867146 
L 524.92987 360.168012 
L 525.316364 360.563252 
L 525.702857 290.147667 
L 526.089351 337.446528 
L 526.475844 289.04648 
L 527.635325 348.69668 
L 528.021818 336.802715 
L 528.408312 355.403937 
L 528.794805 349.365177 
L 530.340779 363.810313 
L 530.727273 369.160502 
L 531.113766 346.166268 
L 531.50026 295.536773 
L 531.886753 357.780431 
L 533.046234 350.890204 
L 533.432727 364.600492 
L 533.819221 368.92006 
L 534.205714 335.925492 
L 534.592208 364.331822 
L 535.751688 364.620921 
L 536.138182 280.056118 
L 536.524675 347.819053 
L 536.911169 260.772972 
L 537.297662 323.318678 
L 538.457143 367.227617 
L 538.843636 304.066136 
L 539.23013 330.025259 
L 539.616623 328.780871 
L 540.003117 266.776677 
L 541.162597 366.858591 
L 541.549091 343.663366 
L 541.935584 344.313615 
L 542.322078 359.873888 
L 542.708571 360.510161 
L 543.868052 352.834822 
L 544.254545 333.527603 
L 544.641039 303.131205 
L 545.027532 316.696354 
L 545.414026 361.281728 
L 546.573506 368.523435 
L 546.96 306.13138 
L 547.346494 328.216842 
L 547.732987 320.51517 
L 548.119481 296.718512 
L 549.665455 369.299379 
L 550.051948 335.045377 
L 550.824935 288.505655 
L 551.984416 358.149983 
L 552.370909 356.213029 
L 552.757403 347.983218 
L 553.143896 334.808635 
L 553.53039 362.960608 
L 554.68987 317.384458 
L 555.076364 330.666198 
L 555.462857 364.801082 
L 555.849351 301.539817 
L 556.235844 348.773164 
L 557.781818 342.786689 
L 558.168312 339.912343 
L 558.554805 348.629914 
L 558.941299 326.295556 
L 560.100779 344.184653 
L 560.487273 305.541221 
L 560.873766 367.407268 
L 561.26026 344.371848 
L 561.646753 301.036536 
L 562.806234 362.834061 
L 563.579221 358.348098 
L 563.965714 324.805656 
L 564.352208 353.309017 
L 565.511688 355.927142 
L 565.898182 331.725557 
L 566.284675 328.001697 
L 566.671169 322.112766 
L 567.057662 363.647149 
L 568.217143 347.822526 
L 568.603636 329.637544 
L 568.99013 356.190678 
L 569.376623 331.387882 
L 569.763117 367.576022 
L 570.922597 346.824325 
L 571.309091 353.636748 
L 571.695584 368.520983 
L 572.082078 333.262621 
L 572.468571 314.293578 
L 573.628052 361.165517 
L 574.014545 354.433219 
L 574.401039 291.272545 
L 574.787532 355.091443 
L 575.174026 339.603741 
L 576.333506 319.034534 
L 576.72 345.696761 
L 577.106494 329.79711 
L 577.492987 367.987229 
L 577.879481 363.39298 
L 579.038961 337.250288 
L 579.425455 304.266643 
L 579.811948 326.879594 
L 580.198442 325.989868 
L 580.584935 368.558777 
L 581.744416 330.963019 
L 582.130909 353.801598 
L 582.517403 307.819363 
L 582.903896 293.441105 
L 583.29039 331.860582 
L 584.44987 334.385433 
L 584.836364 288.649997 
L 585.222857 347.946516 
L 585.609351 360.43366 
L 585.995844 359.316482 
L 587.541818 345.832434 
L 587.928312 330.176039 
L 588.314805 351.362531 
L 588.701299 361.401135 
L 589.860779 331.829934 
L 590.247273 337.372625 
L 590.633766 362.436775 
L 591.02026 322.336254 
L 591.406753 300.813502 
L 592.566234 365.350624 
L 592.952727 357.321861 
L 593.725714 276.694206 
L 594.112208 356.50963 
L 595.271688 346.88635 
L 595.658182 286.183063 
L 596.044675 368.107111 
L 596.431169 336.455045 
L 596.817662 354.183144 
L 597.977143 368.947579 
L 598.363636 291.815311 
L 599.136623 362.07781 
L 599.523117 303.551803 
L 600.682597 334.166822 
L 601.455584 345.379284 
L 601.842078 334.268062 
L 602.228571 341.188184 
L 603.388052 310.31773 
L 603.774545 368.841658 
L 604.161039 293.771515 
L 604.547532 321.638715 
L 604.934026 298.397591 
L 606.093506 359.93582 
L 606.48 328.81096 
L 606.866494 288.429241 
L 607.252987 302.669381 
L 607.639481 342.419457 
L 608.798961 302.47094 
L 609.185455 333.213819 
L 609.571948 310.807866 
L 609.958442 264.664656 
L 610.344935 316.981432 
L 611.504416 359.574485 
L 611.890909 353.494611 
L 612.277403 363.762162 
L 613.05039 282.530507 
L 614.20987 364.705174 
L 614.596364 263.473823 
L 614.982857 360.447441 
L 615.369351 362.723472 
L 615.755844 362.210435 
L 616.915325 328.118266 
L 617.301818 358.05249 
L 617.688312 346.673702 
L 618.461299 366.047653 
L 619.620779 358.427693 
L 620.007273 363.901097 
L 620.393766 364.085751 
L 621.166753 336.563268 
L 622.326234 338.992566 
L 622.712727 366.202704 
L 623.485714 324.903502 
L 623.872208 346.482194 
L 625.031688 347.436384 
L 625.418182 343.669992 
L 625.804675 293.390273 
L 626.191169 354.573784 
L 626.577662 368.964819 
L 628.123636 336.604236 
L 628.51013 286.468991 
L 628.896623 311.942508 
L 629.283117 360.094484 
L 630.829091 345.721737 
L 631.215584 361.379763 
L 631.602078 367.317798 
L 631.988571 353.526113 
L 633.534545 337.571719 
L 633.921039 324.275661 
L 634.307532 350.14136 
L 634.694026 359.167876 
L 635.853506 290.825369 
L 636.24 361.101917 
L 636.626494 337.721505 
L 637.012987 365.629485 
L 637.399481 365.184196 
L 638.945455 348.437268 
L 639.331948 337.817991 
L 640.104935 300.790339 
L 641.264416 357.10567 
L 641.650909 353.040346 
L 642.037403 364.842636 
L 642.423896 339.982965 
L 642.81039 365.737556 
L 643.96987 327.191885 
L 644.356364 366.024398 
L 644.742857 278.376601 
L 645.129351 299.792588 
L 645.515844 309.818033 
L 646.675325 351.502566 
L 647.061818 356.456187 
L 647.448312 323.384087 
L 647.834805 366.195016 
L 648.221299 337.295284 
L 649.380779 364.070524 
L 649.767273 292.211966 
L 650.54026 336.855673 
L 650.926753 342.401716 
L 652.472727 335.627981 
L 652.859221 362.310425 
L 653.245714 252.220613 
L 653.632208 367.442347 
L 654.791688 348.125396 
L 655.178182 359.836004 
L 655.564675 360.090316 
L 656.337662 324.683123 
L 657.497143 362.699427 
L 657.883636 311.961797 
L 658.27013 340.647481 
L 658.656623 311.927974 
L 659.043117 332.676537 
L 660.202597 363.098144 
L 660.589091 306.949621 
L 660.975584 358.593969 
L 661.362078 353.275361 
L 661.748571 332.934066 
L 662.908052 334.087837 
L 663.294545 337.814874 
L 663.681039 319.70108 
L 664.067532 351.278858 
L 664.454026 361.526475 
L 665.613506 352.241759 
L 666 353.675919 
L 666.386494 321.220918 
L 666.772987 363.137268 
L 668.318961 358.09391 
L 668.705455 328.666017 
L 669.091948 363.27962 
L 669.478442 299.822269 
L 669.864935 307.518161 
L 671.024416 367.291702 
L 671.410909 361.295531 
L 671.797403 316.128784 
L 672.183896 327.814865 
L 672.57039 287.228749 
L 673.72987 301.598395 
L 674.116364 357.852365 
L 674.502857 336.895269 
L 674.889351 357.000646 
L 675.275844 320.079988 
L 676.435325 320.6617 
L 676.821818 302.722338 
L 677.208312 368.198595 
L 677.981299 312.454946 
L 679.140779 351.603737 
L 679.527273 280.513616 
L 679.913766 350.101585 
L 680.30026 318.454883 
L 680.686753 299.443304 
L 681.846234 311.806036 
L 682.232727 361.86679 
L 682.619221 369.36 
L 683.005714 340.927516 
L 683.392208 360.154382 
L 684.551688 368.039888 
L 684.938182 342.339564 
L 685.324675 304.099868 
L 685.711169 357.711195 
L 686.097662 362.866959 
L 687.257143 364.257772 
L 687.643636 355.385886 
L 688.03013 354.20301 
L 688.416623 327.865653 
L 688.803117 330.284988 
L 690.349091 367.997738 
L 690.735584 327.943177 
L 691.122078 335.798937 
L 691.508571 324.571349 
L 692.668052 363.139815 
L 693.054545 360.974635 
L 693.441039 303.370326 
L 693.827532 368.272042 
L 694.214026 363.137243 
L 695.373506 354.943788 
L 695.76 354.219619 
L 696.146494 321.926311 
L 696.532987 356.265224 
L 696.919481 367.184324 
L 698.078961 326.593147 
L 698.465455 355.276626 
L 699.238442 355.215175 
L 699.624935 360.6288 
L 700.784416 352.184114 
L 701.170909 347.38549 
L 701.557403 360.585128 
L 701.943896 364.308925 
L 702.33039 346.454649 
L 703.48987 354.414349 
L 703.876364 334.771426 
L 704.262857 340.963876 
L 705.035844 338.932027 
L 706.195325 363.696331 
L 706.581818 365.239735 
L 706.968312 312.461056 
L 707.354805 320.054613 
L 707.741299 338.551606 
L 708.900779 353.572512 
L 709.287273 333.69049 
L 709.673766 290.772546 
L 710.06026 325.405365 
L 710.446753 329.223702 
L 711.606234 309.221588 
L 711.992727 360.651534 
L 712.379221 238.104279 
L 712.765714 340.490578 
L 713.152208 307.566538 
L 714.311688 364.835174 
L 714.698182 341.518934 
L 715.084675 281.553719 
L 715.471169 292.102285 
L 715.857662 265.393647 
L 717.017143 198.832676 
L 717.403636 311.650373 
L 717.79013 325.866835 
L 718.176623 241.692099 
L 718.563117 343.266269 
L 719.722597 369.151173 
L 720.109091 275.739543 
L 720.495584 347.999042 
L 720.882078 279.679013 
L 721.268571 358.249512 
L 722.428052 315.15707 
L 722.814545 358.256759 
L 723.201039 345.676995 
L 723.587532 319.094272 
L 723.974026 305.388543 
L 725.133506 351.686189 
L 725.52 360.457581 
L 725.906494 335.79305 
L 726.292987 369.171887 
L 726.679481 313.099056 
L 728.225455 249.557309 
L 728.611948 360.40246 
L 728.998442 352.448908 
L 729.384935 271.795071 
L 730.544416 304.852825 
L 730.930909 344.376834 
L 731.317403 309.925693 
L 731.703896 327.533827 
L 732.09039 339.161246 
L 733.636364 367.909902 
L 734.022857 353.132996 
L 734.409351 275.027278 
L 734.795844 358.50168 
L 735.955325 353.667048 
L 736.341818 355.333915 
L 736.728312 358.949808 
L 737.114805 346.799432 
L 737.501299 362.363255 
L 738.660779 345.694511 
L 739.047273 316.880633 
L 739.433766 368.616754 
L 739.82026 359.959364 
L 740.206753 319.333479 
L 741.366234 315.398351 
L 741.752727 315.33987 
L 742.139221 329.659271 
L 742.525714 357.776479 
L 742.912208 335.570819 
L 744.071688 326.352809 
L 744.458182 326.574519 
L 744.844675 343.224926 
L 745.231169 368.432889 
L 745.617662 347.173566 
L 746.777143 359.165446 
L 747.163636 366.72977 
L 747.163636 366.72977 
" clip-path="url(#p34f09b7e73)" style="fill: none; stroke: #000000; stroke-width: 1.5; stroke-linecap: square"/>
   </g>
   <g id="line2d_18">
    <path d="M 138.436364 275.522612 
L 138.822857 276.668051 
L 139.209351 281.350609 
L 140.755325 285.810172 
L 141.141818 285.57762 
L 141.528312 287.845931 
L 142.301299 294.635009 
L 143.460779 296.284513 
L 143.847273 298.219754 
L 144.233766 297.981479 
L 144.62026 299.914699 
L 145.006753 303.334447 
L 146.166234 306.616753 
L 146.552727 308.050694 
L 146.939221 311.16215 
L 147.325714 313.210066 
L 147.712208 311.637611 
L 148.871688 313.473988 
L 149.644675 316.155145 
L 150.031169 314.197792 
L 150.417662 316.536036 
L 151.577143 317.327859 
L 151.963636 318.261691 
L 152.35013 320.326583 
L 153.123117 322.163761 
L 154.282597 324.366619 
L 154.669091 326.151124 
L 155.055584 325.67306 
L 155.442078 320.815901 
L 155.828571 322.971722 
L 156.988052 325.1184 
L 157.761039 328.501941 
L 158.147532 329.463359 
L 158.534026 330.725921 
L 159.693506 331.80041 
L 160.08 329.116412 
L 160.466494 330.284041 
L 160.852987 327.751093 
L 161.239481 329.436253 
L 162.398961 329.279156 
L 162.785455 330.761123 
L 163.171948 329.990335 
L 163.558442 322.851734 
L 163.944935 291.410314 
L 165.490909 294.306894 
L 165.877403 282.171918 
L 166.263896 279.600584 
L 166.65039 278.877408 
L 168.196364 285.697123 
L 168.969351 293.821309 
L 169.355844 296.394969 
L 170.515325 297.499506 
L 170.901818 298.285332 
L 171.288312 299.584007 
L 171.674805 290.544478 
L 172.061299 294.73133 
L 173.220779 293.313994 
L 173.607273 291.995492 
L 173.993766 295.767266 
L 174.766753 301.464672 
L 175.926234 302.8454 
L 176.312727 298.76318 
L 176.699221 297.986474 
L 177.085714 295.118159 
L 177.472208 297.74963 
L 178.631688 299.855429 
L 179.018182 297.422695 
L 180.177662 306.548826 
L 181.337143 309.872329 
L 181.723636 305.694437 
L 182.883117 313.732224 
L 184.042597 316.210785 
L 184.429091 308.663578 
L 184.815584 311.577988 
L 185.202078 284.843283 
L 185.588571 286.779342 
L 186.748052 288.369979 
L 187.134545 289.781695 
L 187.521039 287.811825 
L 187.907532 282.994619 
L 188.294026 280.815049 
L 189.84 287.74532 
L 190.226494 292.232205 
L 190.612987 295.20425 
L 190.999481 296.989369 
L 192.158961 296.769012 
L 192.545455 297.652977 
L 192.931948 300.997624 
L 193.318442 301.399872 
L 193.704935 304.658922 
L 194.864416 306.887281 
L 195.250909 309.323887 
L 195.637403 305.606247 
L 196.41039 308.905198 
L 197.56987 311.893929 
L 197.956364 314.223283 
L 198.342857 313.288955 
L 199.115844 318.703121 
L 200.275325 318.664049 
L 201.048312 323.077928 
L 201.434805 322.97713 
L 201.821299 325.098331 
L 202.980779 327.066956 
L 203.367273 328.192739 
L 203.753766 323.705881 
L 204.14026 325.707867 
L 204.526753 326.423755 
L 205.686234 327.858459 
L 206.459221 330.592466 
L 206.845714 332.171569 
L 208.391688 333.090009 
L 208.778182 331.148618 
L 209.551169 333.853069 
L 211.097143 333.292676 
L 211.483636 325.586578 
L 211.87013 325.687917 
L 212.256623 326.424886 
L 212.643117 320.549318 
L 213.802597 321.872418 
L 214.189091 322.611713 
L 214.962078 326.642993 
L 215.348571 327.985426 
L 216.894545 327.717479 
L 217.281039 326.963518 
L 217.667532 321.83768 
L 218.054026 324.088563 
L 219.213506 325.8381 
L 219.986494 329.049146 
L 220.372987 308.847267 
L 220.759481 309.42465 
L 222.305455 300.020483 
L 222.691948 299.250651 
L 223.078442 303.049509 
L 223.464935 303.684885 
L 224.624416 306.809908 
L 225.010909 308.653452 
L 226.17039 317.41438 
L 227.716364 319.268482 
L 228.489351 323.959066 
L 228.875844 325.339502 
L 230.035325 327.211227 
L 230.421818 326.723776 
L 230.808312 328.56016 
L 231.194805 325.359201 
L 231.581299 308.233306 
L 232.740779 310.810341 
L 233.127273 299.623938 
L 233.513766 301.825378 
L 234.286753 300.508804 
L 235.446234 295.577129 
L 235.832727 298.970739 
L 236.219221 298.176991 
L 236.605714 301.197571 
L 236.992208 302.258447 
L 238.151688 305.835993 
L 238.538182 308.090466 
L 239.311169 313.990264 
L 239.697662 310.420638 
L 240.857143 313.460416 
L 241.243636 314.839535 
L 241.63013 315.796944 
L 242.403117 319.214836 
L 243.562597 313.230378 
L 244.335584 318.404031 
L 244.722078 320.467383 
L 246.268052 318.268364 
L 246.654545 314.402833 
L 247.427532 319.654972 
L 247.814026 321.459324 
L 248.973506 321.698324 
L 249.746494 325.647795 
L 250.132987 326.976076 
L 250.519481 324.271694 
L 251.678961 325.8577 
L 252.065455 326.727986 
L 252.451948 326.816202 
L 253.224935 324.260261 
L 254.384416 322.128654 
L 255.543896 328.192123 
L 255.93039 328.15485 
L 257.08987 327.861653 
L 257.476364 329.354913 
L 257.862857 329.20047 
L 258.249351 330.873715 
L 258.635844 329.665352 
L 259.795325 329.110446 
L 260.181818 326.474929 
L 260.568312 325.506663 
L 260.954805 312.204742 
L 261.341299 310.949831 
L 262.500779 307.912003 
L 262.887273 310.980361 
L 263.273766 311.91537 
L 263.66026 314.618596 
L 264.046753 314.078158 
L 265.206234 316.864145 
L 265.592727 316.429622 
L 266.752208 323.507457 
L 268.298182 325.613815 
L 269.071169 329.321024 
L 269.457662 330.463594 
L 270.617143 328.857188 
L 271.776623 333.473791 
L 273.322597 334.998443 
L 274.095584 337.022911 
L 274.482078 336.6081 
L 274.868571 337.701281 
L 276.028052 330.563888 
L 276.414545 324.546581 
L 276.801039 325.63226 
L 277.187532 327.564099 
L 278.733506 329.399726 
L 279.892987 333.785929 
L 280.279481 333.863903 
L 281.825455 332.650095 
L 282.211948 333.888077 
L 282.598442 334.684904 
L 282.984935 332.548846 
L 284.144416 328.654059 
L 285.69039 333.476341 
L 286.84987 332.258857 
L 287.236364 323.587219 
L 287.622857 318.005132 
L 288.009351 318.367043 
L 288.395844 320.751412 
L 289.555325 319.663117 
L 289.941818 321.890742 
L 290.328312 323.356453 
L 290.714805 325.498966 
L 291.101299 326.809555 
L 292.260779 327.545602 
L 292.647273 329.235072 
L 293.033766 328.230135 
L 293.42026 329.13177 
L 293.806753 329.365819 
L 294.966234 330.933587 
L 296.125714 335.105455 
L 297.671688 336.568294 
L 298.058182 337.322751 
L 298.444675 335.840197 
L 298.831169 331.622528 
L 299.217662 333.062002 
L 300.377143 331.539429 
L 300.763636 329.986024 
L 301.536623 332.830392 
L 301.923117 332.709177 
L 303.082597 330.773103 
L 303.469091 331.555313 
L 304.242078 334.382294 
L 304.628571 335.282504 
L 306.174545 336.485417 
L 306.561039 337.010283 
L 306.947532 337.983033 
L 307.334026 337.849303 
L 308.493506 335.809906 
L 308.88 336.718993 
L 309.266494 336.152236 
L 309.652987 333.887955 
L 310.039481 335.101998 
L 311.198961 332.464333 
L 311.585455 322.397056 
L 311.971948 324.607813 
L 312.358442 323.3936 
L 312.744935 320.463544 
L 313.904416 322.763458 
L 314.290909 324.681847 
L 314.677403 312.892673 
L 315.063896 315.742041 
L 315.45039 314.071318 
L 316.60987 313.011615 
L 316.996364 310.960802 
L 317.382857 310.888046 
L 317.769351 313.45729 
L 319.315325 316.983466 
L 319.701818 318.083072 
L 320.474805 322.482422 
L 320.861299 315.326463 
L 322.020779 316.34997 
L 322.407273 318.648197 
L 322.793766 319.359888 
L 323.566753 323.335505 
L 324.726234 325.446417 
L 325.112727 326.586631 
L 325.499221 328.367146 
L 325.885714 329.097854 
L 326.272208 326.988539 
L 327.431688 328.715883 
L 327.818182 330.327802 
L 328.204675 331.369003 
L 328.591169 331.108032 
L 328.977662 331.905494 
L 330.137143 332.779877 
L 330.523636 334.167786 
L 330.91013 334.894931 
L 331.296623 332.962196 
L 331.683117 334.356061 
L 332.842597 333.243533 
L 333.229091 334.628191 
L 333.615584 335.184644 
L 334.002078 336.075848 
L 334.388571 336.652323 
L 335.934545 338.12519 
L 336.321039 338.949684 
L 337.094026 339.559884 
L 338.253506 318.924219 
L 338.64 315.919104 
L 339.026494 308.00026 
L 339.412987 307.442217 
L 339.799481 305.474963 
L 340.958961 307.013471 
L 341.345455 306.71713 
L 341.731948 299.495193 
L 342.118442 303.115611 
L 342.504935 305.383099 
L 343.664416 306.450993 
L 344.050909 307.566153 
L 344.437403 309.315647 
L 344.823896 305.434078 
L 345.21039 306.836578 
L 346.36987 307.316547 
L 346.756364 307.109373 
L 347.142857 302.43682 
L 347.529351 303.501296 
L 349.075325 306.072464 
L 349.461818 304.556612 
L 350.621299 313.982325 
L 351.780779 316.60674 
L 352.167273 317.970902 
L 352.553766 320.514045 
L 352.94026 311.039298 
L 353.326753 314.045944 
L 354.486234 316.365065 
L 354.872727 318.957477 
L 355.259221 318.708898 
L 355.645714 320.935805 
L 356.032208 316.549614 
L 357.578182 319.171046 
L 357.964675 311.149343 
L 358.351169 311.470834 
L 358.737662 310.967322 
L 359.897143 304.237993 
L 360.283636 307.542607 
L 360.67013 306.821754 
L 361.056623 310.084158 
L 361.443117 312.350571 
L 362.989091 295.791371 
L 363.375584 298.787728 
L 363.762078 300.561895 
L 364.148571 290.600288 
L 365.308052 294.449255 
L 365.694545 298.296162 
L 366.081039 300.53494 
L 366.467532 299.323102 
L 366.854026 295.452958 
L 368.013506 291.516015 
L 368.4 295.545332 
L 368.786494 294.175004 
L 369.172987 298.331883 
L 369.559481 291.994287 
L 371.105455 295.178389 
L 371.491948 296.93039 
L 371.878442 293.209188 
L 372.264935 292.656988 
L 373.424416 286.726944 
L 373.810909 291.269545 
L 374.197403 290.486782 
L 374.583896 287.835539 
L 374.97039 291.846278 
L 376.12987 294.785708 
L 376.516364 280.686245 
L 376.902857 284.730025 
L 377.289351 277.400526 
L 377.675844 282.326058 
L 378.835325 283.987872 
L 379.221818 287.719457 
L 379.994805 279.052428 
L 380.381299 281.398212 
L 381.540779 283.824824 
L 381.927273 288.666807 
L 382.313766 290.565044 
L 382.70026 291.733344 
L 383.086753 291.724482 
L 384.246234 295.496266 
L 384.632727 298.419194 
L 385.019221 298.82639 
L 385.405714 301.735076 
L 385.792208 299.39687 
L 386.951688 302.942034 
L 387.338182 304.885723 
L 387.724675 304.254827 
L 388.111169 305.304645 
L 388.497662 308.259499 
L 389.657143 311.299187 
L 390.043636 306.371012 
L 390.43013 309.409858 
L 392.362597 308.232337 
L 392.749091 311.458309 
L 393.135584 307.446234 
L 393.522078 310.71322 
L 393.908571 307.688344 
L 395.068052 292.124236 
L 395.454545 295.71964 
L 395.841039 282.886196 
L 396.227532 287.720727 
L 396.614026 280.640563 
L 397.773506 262.363131 
L 398.546494 273.61683 
L 398.932987 264.686931 
L 399.319481 250.954005 
L 400.478961 257.489277 
L 400.865455 248.727833 
L 401.251948 255.787306 
L 401.638442 258.346318 
L 402.024935 264.836776 
L 403.184416 262.122316 
L 403.570909 268.142637 
L 403.957403 267.446831 
L 404.343896 247.887649 
L 404.73039 254.579499 
L 405.88987 261.325706 
L 406.276364 262.369282 
L 407.049351 271.979925 
L 408.981818 266.724406 
L 409.754805 276.667599 
L 410.141299 275.995567 
L 411.300779 276.485522 
L 411.687273 281.652439 
L 412.46026 287.35901 
L 412.846753 280.618836 
L 414.006234 270.170464 
L 414.392727 251.78384 
L 414.779221 258.497969 
L 415.165714 261.764125 
L 415.552208 251.78758 
L 417.098182 258.633586 
L 417.484675 256.348589 
L 418.257662 267.695968 
L 419.417143 259.270706 
L 419.803636 265.563461 
L 420.19013 264.936366 
L 420.963117 275.339566 
L 422.509091 278.753195 
L 423.282078 288.528914 
L 423.668571 288.519364 
L 425.214545 294.383734 
L 425.601039 296.621377 
L 426.374026 303.818094 
L 427.533506 298.440262 
L 427.92 300.666384 
L 428.306494 287.885529 
L 428.692987 291.751839 
L 429.079481 293.988394 
L 430.238961 296.204272 
L 430.625455 300.213885 
L 431.011948 300.727543 
L 431.398442 289.510977 
L 431.784935 290.923846 
L 432.944416 291.074173 
L 433.717403 298.347943 
L 434.103896 296.66075 
L 434.49039 300.654653 
L 435.64987 304.334227 
L 436.422857 310.566919 
L 436.809351 301.92791 
L 437.195844 305.565888 
L 438.355325 301.526211 
L 439.128312 308.170034 
L 439.514805 309.944384 
L 439.901299 312.907198 
L 441.060779 310.931697 
L 441.447273 301.671793 
L 442.22026 308.402177 
L 442.606753 306.370291 
L 443.766234 283.607175 
L 444.152727 287.573411 
L 444.539221 289.629251 
L 445.312208 296.813259 
L 446.858182 298.100183 
L 447.244675 301.586621 
L 447.631169 297.41631 
L 448.017662 300.327572 
L 449.177143 298.624494 
L 449.563636 299.857208 
L 449.95013 266.251308 
L 450.336623 272.02069 
L 450.723117 275.342905 
L 451.882597 279.758995 
L 452.269091 283.941267 
L 452.655584 286.2111 
L 453.042078 284.969302 
L 453.428571 288.264458 
L 454.588052 286.674013 
L 454.974545 289.096836 
L 455.361039 293.464102 
L 456.134026 284.831833 
L 457.293506 285.047643 
L 457.68 277.501273 
L 458.066494 267.192411 
L 458.452987 272.997968 
L 458.839481 276.632504 
L 459.998961 268.104016 
L 461.158442 282.693675 
L 461.544935 275.512915 
L 462.704416 270.954849 
L 463.090909 265.37588 
L 463.863896 274.216901 
L 464.25039 278.492776 
L 465.40987 273.857386 
L 465.796364 276.830033 
L 466.182857 277.396343 
L 466.955844 285.815948 
L 468.115325 279.204363 
L 468.888312 287.746048 
L 469.274805 279.893217 
L 469.661299 282.805788 
L 470.820779 284.13769 
L 471.207273 287.101604 
L 471.593766 291.045225 
L 471.98026 286.336986 
L 472.366753 244.800387 
L 473.526234 250.887228 
L 475.072208 272.662898 
L 476.231688 277.739026 
L 476.618182 282.614681 
L 477.004675 283.975224 
L 477.777662 288.054116 
L 478.937143 292.569331 
L 479.323636 291.607343 
L 479.71013 295.842834 
L 480.096623 280.946861 
L 480.483117 285.866973 
L 481.642597 290.463277 
L 482.029091 288.104157 
L 482.415584 288.324825 
L 482.802078 292.720419 
L 483.188571 295.682087 
L 484.348052 298.446823 
L 484.734545 297.632534 
L 485.507532 303.087805 
L 485.894026 292.047956 
L 487.053506 293.580417 
L 487.44 295.90288 
L 487.826494 299.851565 
L 488.599481 297.42649 
L 490.145455 300.502745 
L 490.531948 303.776804 
L 490.918442 303.588697 
L 491.304935 299.809897 
L 492.850909 303.370515 
L 493.237403 306.44823 
L 493.623896 308.242647 
L 494.01039 307.744765 
L 495.16987 298.374361 
L 495.556364 302.165456 
L 495.942857 304.524766 
L 496.329351 303.840352 
L 496.715844 306.990199 
L 498.261818 309.804 
L 498.648312 312.74318 
L 499.034805 308.743853 
L 499.421299 310.260882 
L 500.580779 304.073258 
L 500.967273 304.014666 
L 501.74026 310.637593 
L 502.126753 310.309729 
L 503.286234 313.147425 
L 503.672727 311.116193 
L 504.059221 308.302875 
L 504.445714 308.55546 
L 504.832208 306.090533 
L 505.991688 306.579689 
L 506.378182 308.836241 
L 506.764675 307.586004 
L 507.151169 307.504552 
L 508.697143 311.602843 
L 509.083636 310.893937 
L 509.856623 316.403598 
L 510.243117 313.246952 
L 511.789091 315.829683 
L 512.175584 306.980578 
L 512.562078 310.143148 
L 512.948571 312.367977 
L 514.108052 312.042274 
L 514.881039 317.085688 
L 515.267532 318.920065 
L 515.654026 319.488816 
L 516.813506 313.959243 
L 517.2 316.70027 
L 517.586494 312.22285 
L 517.972987 315.037087 
L 518.359481 307.992055 
L 519.518961 305.621425 
L 519.905455 308.878784 
L 520.291948 305.023982 
L 520.678442 307.117727 
L 521.064935 302.689394 
L 522.224416 303.188971 
L 522.610909 304.703332 
L 522.997403 303.917824 
L 523.383896 300.659905 
L 523.77039 304.086969 
L 524.92987 306.697727 
L 525.702857 312.829367 
L 526.089351 310.06014 
L 526.475844 312.171382 
L 527.635325 309.357622 
L 528.408312 313.952975 
L 528.794805 316.521205 
L 530.340779 318.701956 
L 531.113766 323.370546 
L 531.50026 324.861589 
L 531.886753 320.795939 
L 533.046234 322.931725 
L 534.205714 328.522771 
L 534.592208 328.824487 
L 535.751688 330.496102 
L 536.138182 332.044903 
L 536.524675 323.598758 
L 536.911169 325.14217 
L 537.297662 314.841449 
L 538.457143 315.51295 
L 538.843636 318.154901 
L 539.23013 316.396419 
L 540.003117 318.314938 
L 541.162597 310.870428 
L 541.935584 315.961308 
L 542.708571 320.332673 
L 543.868052 322.552999 
L 544.254545 324.39399 
L 544.641039 324.931299 
L 545.027532 321.997572 
L 545.414026 321.197919 
L 546.573506 323.369249 
L 546.96 325.456592 
L 547.346494 322.852991 
L 547.732987 323.100939 
L 548.119481 322.5721 
L 549.665455 319.130477 
L 550.051948 321.519615 
L 550.438442 322.46 
L 550.824935 321.34513 
L 551.984416 316.894279 
L 552.757403 321.505368 
L 553.143896 323.223765 
L 553.53039 323.979332 
L 554.68987 325.973369 
L 555.076364 324.721732 
L 555.462857 324.982636 
L 555.849351 326.92663 
L 556.235844 323.420781 
L 557.781818 325.019207 
L 558.941299 328.288587 
L 560.100779 327.714764 
L 560.487273 328.691226 
L 560.873766 325.456456 
L 561.26026 327.384739 
L 561.646753 328.402717 
L 562.806234 324.550794 
L 563.579221 326.499251 
L 563.965714 328.20581 
L 564.352208 327.487167 
L 565.511688 328.947431 
L 565.898182 330.386388 
L 566.284675 330.09757 
L 566.671169 329.472417 
L 567.057662 328.28555 
L 568.217143 329.965911 
L 568.603636 330.950201 
L 568.99013 330.385339 
L 569.376623 331.71615 
L 569.763117 331.231613 
L 571.309091 333.391398 
L 572.082078 335.615828 
L 572.468571 334.817324 
L 573.628052 331.745542 
L 574.401039 334.143627 
L 574.787532 327.368013 
L 575.174026 328.907875 
L 576.333506 329.45616 
L 576.72 327.909094 
L 577.106494 328.959491 
L 577.492987 328.657934 
L 577.879481 330.349172 
L 579.038961 331.8655 
L 579.425455 331.908789 
L 579.811948 327.884746 
L 580.584935 326.9317 
L 581.744416 328.753334 
L 582.130909 328.588604 
L 582.517403 329.976682 
L 582.903896 326.856038 
L 583.29039 322.124311 
L 584.44987 322.761734 
L 584.836364 323.532628 
L 585.222857 318.695529 
L 585.995844 322.830849 
L 587.541818 324.836158 
L 587.928312 326.16372 
L 588.314805 326.22358 
L 588.701299 327.704162 
L 589.860779 329.386549 
L 590.247273 329.229158 
L 590.633766 329.570728 
L 591.02026 331.130067 
L 592.566234 325.611378 
L 593.339221 329.104154 
L 593.725714 327.301129 
L 594.112208 319.571414 
L 595.271688 321.749986 
L 595.658182 323.392509 
L 596.044675 318.200289 
L 596.431169 320.645631 
L 596.817662 321.767577 
L 597.977143 323.70577 
L 598.363636 325.757052 
L 598.75013 321.005982 
L 599.136623 321.087017 
L 599.523117 323.267232 
L 600.682597 320.69329 
L 601.069091 321.646282 
L 601.842078 324.389487 
L 602.228571 324.985103 
L 603.388052 326.01992 
L 603.774545 323.908261 
L 604.161039 325.942705 
L 604.547532 321.470663 
L 604.934026 321.260806 
L 606.093506 318.309315 
L 606.48 320.64983 
L 606.866494 321.185264 
L 607.252987 316.79305 
L 607.639481 315.077831 
L 608.798961 317.036066 
L 609.185455 315.263209 
L 609.571948 316.653337 
L 609.958442 315.901272 
L 610.344935 308.693769 
L 611.504416 309.448462 
L 612.663896 317.628256 
L 613.05039 318.056892 
L 614.20987 313.346415 
L 614.596364 316.094045 
L 614.982857 308.652649 
L 615.755844 314.506636 
L 617.301818 317.976502 
L 617.688312 320.295757 
L 618.461299 322.040459 
L 619.620779 324.19708 
L 620.78026 329.640519 
L 621.166753 330.68114 
L 622.326234 330.800654 
L 622.712727 331.106755 
L 623.099221 332.604442 
L 623.485714 333.325215 
L 623.872208 331.91286 
L 625.031688 332.63742 
L 625.418182 333.351149 
L 625.804675 333.742526 
L 626.191169 327.467636 
L 626.577662 328.97573 
L 628.123636 331.331293 
L 628.51013 331.379446 
L 628.896623 324.44129 
L 629.283117 322.764603 
L 630.829091 324.793103 
L 631.215584 326.118642 
L 631.988571 329.657272 
L 633.534545 330.942407 
L 633.921039 331.115549 
L 634.307532 329.955427 
L 634.694026 331.06091 
L 635.853506 332.425365 
L 636.24 326.034181 
L 636.626494 327.834754 
L 637.012987 328.348745 
L 637.399481 330.039906 
L 638.945455 331.597839 
L 639.331948 332.463448 
L 639.718442 332.488788 
L 640.104935 330.64593 
L 641.264416 326.347175 
L 642.423896 331.024808 
L 642.81039 331.382032 
L 643.96987 332.841301 
L 644.356364 331.774284 
L 644.742857 333.205866 
L 645.129351 324.252243 
L 645.515844 320.993851 
L 646.675325 319.555523 
L 647.448312 323.590649 
L 647.834805 323.305843 
L 648.221299 325.369835 
L 649.380779 326.097935 
L 649.767273 327.9354 
L 650.153766 322.823943 
L 650.54026 321.851326 
L 650.926753 322.886063 
L 652.472727 324.183199 
L 652.859221 324.903853 
L 653.245714 326.802312 
L 653.632208 314.406529 
L 654.791688 317.09864 
L 655.951169 323.530386 
L 656.337662 324.626951 
L 657.497143 324.349113 
L 657.883636 326.289416 
L 658.27013 324.361911 
L 658.656623 325.414031 
L 659.043117 323.613358 
L 660.202597 324.160106 
L 660.589091 326.119563 
L 660.975584 323.566268 
L 661.748571 327.08628 
L 662.908052 327.28897 
L 663.294545 327.567319 
L 663.681039 328.113073 
L 664.067532 326.858194 
L 664.454026 328.270842 
L 665.613506 329.897872 
L 666.386494 332.262124 
L 666.772987 330.585903 
L 668.318961 332.065244 
L 668.705455 333.308241 
L 669.091948 332.344567 
L 669.478442 333.689453 
L 669.864935 328.616608 
L 671.024416 325.72468 
L 671.797403 329.28561 
L 672.183896 327.432248 
L 672.57039 327.129115 
L 673.72987 321.376969 
L 674.116364 318.858295 
L 674.502857 321.107232 
L 674.889351 322.212028 
L 675.275844 324.188454 
L 676.435325 323.495966 
L 676.821818 322.950784 
L 677.208312 320.340425 
L 677.594805 322.615268 
L 677.981299 324.004629 
L 679.140779 322.475632 
L 679.527273 324.251924 
L 679.913766 317.999797 
L 680.30026 320.063995 
L 680.686753 319.708901 
L 682.232727 316.47635 
L 683.005714 321.330943 
L 683.392208 322.670173 
L 684.551688 324.683536 
L 684.938182 326.645946 
L 685.324675 327.59644 
L 685.711169 324.404207 
L 686.097662 326.231646 
L 687.257143 328.032802 
L 688.03013 331.06371 
L 688.416623 332.251309 
L 688.803117 331.344757 
L 690.349091 330.807759 
L 690.735584 332.318822 
L 691.122078 331.412124 
L 691.508571 331.383995 
L 692.668052 330.233084 
L 693.441039 333.084218 
L 693.827532 328.731586 
L 694.214026 330.399226 
L 695.373506 331.890814 
L 696.146494 334.053004 
L 696.532987 332.193668 
L 696.919481 333.362737 
L 698.078961 334.670503 
L 698.465455 333.284775 
L 699.238442 334.324301 
L 699.624935 335.27138 
L 700.784416 336.320111 
L 701.170909 336.944956 
L 701.557403 337.219907 
L 702.33039 338.993083 
L 703.48987 338.98063 
L 703.876364 339.465812 
L 704.262857 338.308316 
L 706.195325 337.404967 
L 706.968312 339.23254 
L 707.354805 335.02701 
L 707.741299 332.763852 
L 708.900779 332.823174 
L 709.287273 333.838337 
L 709.673766 333.329878 
L 710.06026 326.741243 
L 710.446753 326.284432 
L 711.606234 326.25157 
L 711.992727 323.973638 
L 712.379221 325.91769 
L 712.765714 310.682362 
L 713.152208 312.910081 
L 714.311688 312.279277 
L 714.698182 315.114045 
L 715.084675 317.025728 
L 715.471169 312.366878 
L 715.857662 309.970908 
L 717.017143 304.102966 
L 717.403636 287.184754 
L 717.79013 289.577539 
L 718.176623 292.690097 
L 718.563117 286.299164 
L 719.722597 290.43671 
L 720.109091 294.736959 
L 720.495584 292.779849 
L 720.882078 296.608348 
L 721.268571 294.878554 
L 722.814545 300.38096 
L 723.587532 306.901316 
L 723.974026 308.025079 
L 725.133506 307.751156 
L 725.906494 313.558151 
L 726.292987 315.285801 
L 726.679481 317.956323 
L 728.225455 317.28756 
L 728.611948 306.961837 
L 729.384935 312.854319 
L 730.544416 307.445213 
L 730.930909 307.184851 
L 731.317403 309.853157 
L 731.703896 309.829355 
L 732.09039 311.322308 
L 733.24987 313.42052 
L 734.409351 320.889892 
L 734.795844 314.363064 
L 735.955325 316.960429 
L 737.114805 323.525241 
L 737.501299 325.024322 
L 738.660779 326.938133 
L 739.047273 328.084052 
L 739.433766 326.47631 
L 740.206753 329.952311 
L 741.366234 328.367576 
L 742.139221 324.972318 
L 742.525714 325.122532 
L 742.912208 326.921677 
L 744.071688 327.364664 
L 744.844675 326.550526 
L 745.231169 327.577347 
L 745.617662 329.353059 
L 746.777143 330.359018 
L 747.163636 331.786751 
L 747.163636 331.786751 
" clip-path="url(#p34f09b7e73)" style="fill: none; stroke: #1f77b4; stroke-width: 1.5; stroke-linecap: square"/>
   </g>
   <g id="patch_3">
    <path d="M 108 384.48 
L 108 51.84 
" style="fill: none; stroke: #000000; stroke-width: 0.8; stroke-linejoin: miter; stroke-linecap: square"/>
   </g>
   <g id="patch_4">
    <path d="M 777.6 384.48 
L 777.6 51.84 
" style="fill: none; stroke: #000000; stroke-width: 0.8; stroke-linejoin: miter; stroke-linecap: square"/>
   </g>
   <g id="patch_5">
    <path d="M 108 384.48 
L 777.6 384.48 
" style="fill: none; stroke: #000000; stroke-width: 0.8; stroke-linejoin: miter; stroke-linecap: square"/>
   </g>
   <g id="patch_6">
    <path d="M 108 51.84 
L 777.6 51.84 
" style="fill: none; stroke: #000000; stroke-width: 0.8; stroke-linejoin: miter; stroke-linecap: square"/>
   </g>
   <g id="text_19">
    <!-- Volatility Prediction with GARCH -->
    <g transform="translate(347.311875 45.84) scale(0.12 -0.12)">
     <defs>
      <path id="DejaVuSans-20" transform="scale(0.015625)"/>
      <path id="DejaVuSans-50" d="M 1259 4147 
L 1259 2394 
L 2053 2394 
Q 2494 2394 2734 2622 
Q 2975 2850 2975 3272 
Q 2975 3691 2734 3919 
Q 2494 4147 2053 4147 
L 1259 4147 
z
M 628 4666 
L 2053 4666 
Q 2838 4666 3239 4311 
Q 3641 3956 3641 3272 
Q 3641 2581 3239 2228 
Q 2838 1875 2053 1875 
L 1259 1875 
L 1259 0 
L 628 0 
L 628 4666 
z
" transform="scale(0.015625)"/>
      <path id="DejaVuSans-72" d="M 2631 2963 
Q 2534 3019 2420 3045 
Q 2306 3072 2169 3072 
Q 1681 3072 1420 2755 
Q 1159 2438 1159 1844 
L 1159 0 
L 581 0 
L 581 3500 
L 1159 3500 
L 1159 2956 
Q 1341 3275 1631 3429 
Q 1922 3584 2338 3584 
Q 2397 3584 2469 3576 
Q 2541 3569 2628 3553 
L 2631 2963 
z
" transform="scale(0.015625)"/>
      <path id="DejaVuSans-64" d="M 2906 2969 
L 2906 4863 
L 3481 4863 
L 3481 0 
L 2906 0 
L 2906 525 
Q 2725 213 2448 61 
Q 2172 -91 1784 -91 
Q 1150 -91 751 415 
Q 353 922 353 1747 
Q 353 2572 751 3078 
Q 1150 3584 1784 3584 
Q 2172 3584 2448 3432 
Q 2725 3281 2906 2969 
z
M 947 1747 
Q 947 1113 1208 752 
Q 1469 391 1925 391 
Q 2381 391 2643 752 
Q 2906 1113 2906 1747 
Q 2906 2381 2643 2742 
Q 2381 3103 1925 3103 
Q 1469 3103 1208 2742 
Q 947 2381 947 1747 
z
" transform="scale(0.015625)"/>
      <path id="DejaVuSans-63" d="M 3122 3366 
L 3122 2828 
Q 2878 2963 2633 3030 
Q 2388 3097 2138 3097 
Q 1578 3097 1268 2742 
Q 959 2388 959 1747 
Q 959 1106 1268 751 
Q 1578 397 2138 397 
Q 2388 397 2633 464 
Q 2878 531 3122 666 
L 3122 134 
Q 2881 22 2623 -34 
Q 2366 -91 2075 -91 
Q 1284 -91 818 406 
Q 353 903 353 1747 
Q 353 2603 823 3093 
Q 1294 3584 2113 3584 
Q 2378 3584 2631 3529 
Q 2884 3475 3122 3366 
z
" transform="scale(0.015625)"/>
      <path id="DejaVuSans-6e" d="M 3513 2113 
L 3513 0 
L 2938 0 
L 2938 2094 
Q 2938 2591 2744 2837 
Q 2550 3084 2163 3084 
Q 1697 3084 1428 2787 
Q 1159 2491 1159 1978 
L 1159 0 
L 581 0 
L 581 3500 
L 1159 3500 
L 1159 2956 
Q 1366 3272 1645 3428 
Q 1925 3584 2291 3584 
Q 2894 3584 3203 3211 
Q 3513 2838 3513 2113 
z
" transform="scale(0.015625)"/>
      <path id="DejaVuSans-77" d="M 269 3500 
L 844 3500 
L 1563 769 
L 2278 3500 
L 2956 3500 
L 3675 769 
L 4391 3500 
L 4966 3500 
L 4050 0 
L 3372 0 
L 2619 2869 
L 1863 0 
L 1184 0 
L 269 3500 
z
" transform="scale(0.015625)"/>
      <path id="DejaVuSans-68" d="M 3513 2113 
L 3513 0 
L 2938 0 
L 2938 2094 
Q 2938 2591 2744 2837 
Q 2550 3084 2163 3084 
Q 1697 3084 1428 2787 
Q 1159 2491 1159 1978 
L 1159 0 
L 581 0 
L 581 4863 
L 1159 4863 
L 1159 2956 
Q 1366 3272 1645 3428 
Q 1925 3584 2291 3584 
Q 2894 3584 3203 3211 
Q 3513 2838 3513 2113 
z
" transform="scale(0.015625)"/>
      <path id="DejaVuSans-47" d="M 3809 666 
L 3809 1919 
L 2778 1919 
L 2778 2438 
L 4434 2438 
L 4434 434 
Q 4069 175 3628 42 
Q 3188 -91 2688 -91 
Q 1594 -91 976 548 
Q 359 1188 359 2328 
Q 359 3472 976 4111 
Q 1594 4750 2688 4750 
Q 3144 4750 3555 4637 
Q 3966 4525 4313 4306 
L 4313 3634 
Q 3963 3931 3569 4081 
Q 3175 4231 2741 4231 
Q 1884 4231 1454 3753 
Q 1025 3275 1025 2328 
Q 1025 1384 1454 906 
Q 1884 428 2741 428 
Q 3075 428 3337 486 
Q 3600 544 3809 666 
z
" transform="scale(0.015625)"/>
      <path id="DejaVuSans-41" d="M 2188 4044 
L 1331 1722 
L 3047 1722 
L 2188 4044 
z
M 1831 4666 
L 2547 4666 
L 4325 0 
L 3669 0 
L 3244 1197 
L 1141 1197 
L 716 0 
L 50 0 
L 1831 4666 
z
" transform="scale(0.015625)"/>
      <path id="DejaVuSans-52" d="M 2841 2188 
Q 3044 2119 3236 1894 
Q 3428 1669 3622 1275 
L 4263 0 
L 3584 0 
L 2988 1197 
Q 2756 1666 2539 1819 
Q 2322 1972 1947 1972 
L 1259 1972 
L 1259 0 
L 628 0 
L 628 4666 
L 2053 4666 
Q 2853 4666 3247 4331 
Q 3641 3997 3641 3322 
Q 3641 2881 3436 2590 
Q 3231 2300 2841 2188 
z
M 1259 4147 
L 1259 2491 
L 2053 2491 
Q 2509 2491 2742 2702 
Q 2975 2913 2975 3322 
Q 2975 3731 2742 3939 
Q 2509 4147 2053 4147 
L 1259 4147 
z
" transform="scale(0.015625)"/>
      <path id="DejaVuSans-43" d="M 4122 4306 
L 4122 3641 
Q 3803 3938 3442 4084 
Q 3081 4231 2675 4231 
Q 1875 4231 1450 3742 
Q 1025 3253 1025 2328 
Q 1025 1406 1450 917 
Q 1875 428 2675 428 
Q 3081 428 3442 575 
Q 3803 722 4122 1019 
L 4122 359 
Q 3791 134 3420 21 
Q 3050 -91 2638 -91 
Q 1578 -91 968 557 
Q 359 1206 359 2328 
Q 359 3453 968 4101 
Q 1578 4750 2638 4750 
Q 3056 4750 3426 4639 
Q 3797 4528 4122 4306 
z
" transform="scale(0.015625)"/>
      <path id="DejaVuSans-48" d="M 628 4666 
L 1259 4666 
L 1259 2753 
L 3553 2753 
L 3553 4666 
L 4184 4666 
L 4184 0 
L 3553 0 
L 3553 2222 
L 1259 2222 
L 1259 0 
L 628 0 
L 628 4666 
z
" transform="scale(0.015625)"/>
     </defs>
     <use xlink:href="#DejaVuSans-56"/>
     <use xlink:href="#DejaVuSans-6f" x="60.658203"/>
     <use xlink:href="#DejaVuSans-6c" x="121.839844"/>
     <use xlink:href="#DejaVuSans-61" x="149.623047"/>
     <use xlink:href="#DejaVuSans-74" x="210.902344"/>
     <use xlink:href="#DejaVuSans-69" x="250.111328"/>
     <use xlink:href="#DejaVuSans-6c" x="277.894531"/>
     <use xlink:href="#DejaVuSans-69" x="305.677734"/>
     <use xlink:href="#DejaVuSans-74" x="333.460938"/>
     <use xlink:href="#DejaVuSans-79" x="372.669922"/>
     <use xlink:href="#DejaVuSans-20" x="431.849609"/>
     <use xlink:href="#DejaVuSans-50" x="463.636719"/>
     <use xlink:href="#DejaVuSans-72" x="522.189453"/>
     <use xlink:href="#DejaVuSans-65" x="561.052734"/>
     <use xlink:href="#DejaVuSans-64" x="622.576172"/>
     <use xlink:href="#DejaVuSans-69" x="686.052734"/>
     <use xlink:href="#DejaVuSans-63" x="713.835938"/>
     <use xlink:href="#DejaVuSans-74" x="768.816406"/>
     <use xlink:href="#DejaVuSans-69" x="808.025391"/>
     <use xlink:href="#DejaVuSans-6f" x="835.808594"/>
     <use xlink:href="#DejaVuSans-6e" x="896.990234"/>
     <use xlink:href="#DejaVuSans-20" x="960.369141"/>
     <use xlink:href="#DejaVuSans-77" x="992.15625"/>
     <use xlink:href="#DejaVuSans-69" x="1073.943359"/>
     <use xlink:href="#DejaVuSans-74" x="1101.726562"/>
     <use xlink:href="#DejaVuSans-68" x="1140.935547"/>
     <use xlink:href="#DejaVuSans-20" x="1204.314453"/>
     <use xlink:href="#DejaVuSans-47" x="1236.101562"/>
     <use xlink:href="#DejaVuSans-41" x="1313.591797"/>
     <use xlink:href="#DejaVuSans-52" x="1382"/>
     <use xlink:href="#DejaVuSans-43" x="1446.482422"/>
     <use xlink:href="#DejaVuSans-48" x="1516.306641"/>
    </g>
   </g>
   <g id="legend_1">
    <g id="patch_7">
     <path d="M 603.845312 89.19625 
L 770.6 89.19625 
Q 772.6 89.19625 772.6 87.19625 
L 772.6 58.84 
Q 772.6 56.84 770.6 56.84 
L 603.845312 56.84 
Q 601.845312 56.84 601.845312 58.84 
L 601.845312 87.19625 
Q 601.845312 89.19625 603.845312 89.19625 
z
" style="fill: #ffffff; opacity: 0.8; stroke: #cccccc; stroke-linejoin: miter"/>
    </g>
    <g id="line2d_19">
     <path d="M 605.845312 64.938437 
L 615.845312 64.938437 
L 625.845312 64.938437 
" style="fill: none; stroke: #000000; stroke-width: 1.5; stroke-linecap: square"/>
    </g>
    <g id="text_20">
     <!-- Absolute Returns -->
     <g transform="translate(633.845312 68.438437) scale(0.1 -0.1)">
      <defs>
       <path id="DejaVuSans-62" d="M 3116 1747 
Q 3116 2381 2855 2742 
Q 2594 3103 2138 3103 
Q 1681 3103 1420 2742 
Q 1159 2381 1159 1747 
Q 1159 1113 1420 752 
Q 1681 391 2138 391 
Q 2594 391 2855 752 
Q 3116 1113 3116 1747 
z
M 1159 2969 
Q 1341 3281 1617 3432 
Q 1894 3584 2278 3584 
Q 2916 3584 3314 3078 
Q 3713 2572 3713 1747 
Q 3713 922 3314 415 
Q 2916 -91 2278 -91 
Q 1894 -91 1617 61 
Q 1341 213 1159 525 
L 1159 0 
L 581 0 
L 581 4863 
L 1159 4863 
L 1159 2969 
z
" transform="scale(0.015625)"/>
       <path id="DejaVuSans-73" d="M 2834 3397 
L 2834 2853 
Q 2591 2978 2328 3040 
Q 2066 3103 1784 3103 
Q 1356 3103 1142 2972 
Q 928 2841 928 2578 
Q 928 2378 1081 2264 
Q 1234 2150 1697 2047 
L 1894 2003 
Q 2506 1872 2764 1633 
Q 3022 1394 3022 966 
Q 3022 478 2636 193 
Q 2250 -91 1575 -91 
Q 1294 -91 989 -36 
Q 684 19 347 128 
L 347 722 
Q 666 556 975 473 
Q 1284 391 1588 391 
Q 1994 391 2212 530 
Q 2431 669 2431 922 
Q 2431 1156 2273 1281 
Q 2116 1406 1581 1522 
L 1381 1569 
Q 847 1681 609 1914 
Q 372 2147 372 2553 
Q 372 3047 722 3315 
Q 1072 3584 1716 3584 
Q 2034 3584 2315 3537 
Q 2597 3491 2834 3397 
z
" transform="scale(0.015625)"/>
       <path id="DejaVuSans-75" d="M 544 1381 
L 544 3500 
L 1119 3500 
L 1119 1403 
Q 1119 906 1312 657 
Q 1506 409 1894 409 
Q 2359 409 2629 706 
Q 2900 1003 2900 1516 
L 2900 3500 
L 3475 3500 
L 3475 0 
L 2900 0 
L 2900 538 
Q 2691 219 2414 64 
Q 2138 -91 1772 -91 
Q 1169 -91 856 284 
Q 544 659 544 1381 
z
M 1991 3584 
L 1991 3584 
z
" transform="scale(0.015625)"/>
      </defs>
      <use xlink:href="#DejaVuSans-41"/>
      <use xlink:href="#DejaVuSans-62" x="68.408203"/>
      <use xlink:href="#DejaVuSans-73" x="131.884766"/>
      <use xlink:href="#DejaVuSans-6f" x="183.984375"/>
      <use xlink:href="#DejaVuSans-6c" x="245.166016"/>
      <use xlink:href="#DejaVuSans-75" x="272.949219"/>
      <use xlink:href="#DejaVuSans-74" x="336.328125"/>
      <use xlink:href="#DejaVuSans-65" x="375.537109"/>
      <use xlink:href="#DejaVuSans-20" x="437.060547"/>
      <use xlink:href="#DejaVuSans-52" x="468.847656"/>
      <use xlink:href="#DejaVuSans-65" x="533.830078"/>
      <use xlink:href="#DejaVuSans-74" x="595.353516"/>
      <use xlink:href="#DejaVuSans-75" x="634.5625"/>
      <use xlink:href="#DejaVuSans-72" x="697.941406"/>
      <use xlink:href="#DejaVuSans-6e" x="737.304688"/>
      <use xlink:href="#DejaVuSans-73" x="800.683594"/>
     </g>
    </g>
    <g id="line2d_20">
     <path d="M 605.845312 79.616562 
L 615.845312 79.616562 
L 625.845312 79.616562 
" style="fill: none; stroke: #1f77b4; stroke-width: 1.5; stroke-linecap: square"/>
    </g>
    <g id="text_21">
     <!-- GARCH Volatility Prediction -->
     <g transform="translate(633.845312 83.116562) scale(0.1 -0.1)">
      <use xlink:href="#DejaVuSans-47"/>
      <use xlink:href="#DejaVuSans-41" x="77.490234"/>
      <use xlink:href="#DejaVuSans-52" x="145.898438"/>
      <use xlink:href="#DejaVuSans-43" x="210.380859"/>
      <use xlink:href="#DejaVuSans-48" x="280.205078"/>
      <use xlink:href="#DejaVuSans-20" x="355.400391"/>
      <use xlink:href="#DejaVuSans-56" x="387.1875"/>
      <use xlink:href="#DejaVuSans-6f" x="447.845703"/>
      <use xlink:href="#DejaVuSans-6c" x="509.027344"/>
      <use xlink:href="#DejaVuSans-61" x="536.810547"/>
      <use xlink:href="#DejaVuSans-74" x="598.089844"/>
      <use xlink:href="#DejaVuSans-69" x="637.298828"/>
      <use xlink:href="#DejaVuSans-6c" x="665.082031"/>
      <use xlink:href="#DejaVuSans-69" x="692.865234"/>
      <use xlink:href="#DejaVuSans-74" x="720.648438"/>
      <use xlink:href="#DejaVuSans-79" x="759.857422"/>
      <use xlink:href="#DejaVuSans-20" x="819.037109"/>
      <use xlink:href="#DejaVuSans-50" x="850.824219"/>
      <use xlink:href="#DejaVuSans-72" x="909.376953"/>
      <use xlink:href="#DejaVuSans-65" x="948.240234"/>
      <use xlink:href="#DejaVuSans-64" x="1009.763672"/>
      <use xlink:href="#DejaVuSans-69" x="1073.240234"/>
      <use xlink:href="#DejaVuSans-63" x="1101.023438"/>
      <use xlink:href="#DejaVuSans-74" x="1156.003906"/>
      <use xlink:href="#DejaVuSans-69" x="1195.212891"/>
      <use xlink:href="#DejaVuSans-6f" x="1222.996094"/>
      <use xlink:href="#DejaVuSans-6e" x="1284.177734"/>
     </g>
    </g>
   </g>
  </g>
 </g>
 <defs>
  <clipPath id="p34f09b7e73">
   <rect x="108" y="51.84" width="669.6" height="332.64"/>
  </clipPath>
 </defs>
</svg>
