<?xml version="1.0" encoding="utf-8" standalone="no"?>
<!DOCTYPE svg PUBLIC "-//W3C//DTD SVG 1.1//EN"
  "http://www.w3.org/Graphics/SVG/1.1/DTD/svg11.dtd">
<svg xmlns:xlink="http://www.w3.org/1999/xlink" width="864pt" height="432pt" viewBox="0 0 864 432" xmlns="http://www.w3.org/2000/svg" version="1.1">
 <metadata>
  <rdf:RDF xmlns:dc="http://purl.org/dc/elements/1.1/" xmlns:cc="http://creativecommons.org/ns#" xmlns:rdf="http://www.w3.org/1999/02/22-rdf-syntax-ns#">
   <cc:Work>
    <dc:type rdf:resource="http://purl.org/dc/dcmitype/StillImage"/>
    <dc:date>2024-11-09T18:44:11.631655</dc:date>
    <dc:format>image/svg+xml</dc:format>
    <dc:creator>
     <cc:Agent>
      <dc:title>Matplotlib v3.6.3, https://matplotlib.org/</dc:title>
     </cc:Agent>
    </dc:creator>
   </cc:Work>
  </rdf:RDF>
 </metadata>
 <defs>
  <style type="text/css">*{stroke-linejoin: round; stroke-linecap: butt}</style>
 </defs>
 <g id="figure_1">
  <g id="patch_1">
   <path d="M 0 432 
L 864 432 
L 864 0 
L 0 0 
z
" style="fill: #ffffff"/>
  </g>
  <g id="axes_1">
   <g id="patch_2">
    <path d="M 108 384.48 
L 777.6 384.48 
L 777.6 51.84 
L 108 51.84 
z
" style="fill: #ffffff"/>
   </g>
   <g id="matplotlib.axis_1">
    <g id="xtick_1">
     <g id="line2d_1">
      <defs>
       <path id="md95ed06093" d="M 0 0 
L 0 3.5 
" style="stroke: #000000; stroke-width: 0.8"/>
      </defs>
      <g>
       <use xlink:href="#md95ed06093" x="138.822612" y="384.48" style="stroke: #000000; stroke-width: 0.8"/>
      </g>
     </g>
     <g id="text_1">
      <!-- 2020-07 -->
      <g transform="translate(117.931206 399.078438) scale(0.1 -0.1)">
       <defs>
        <path id="DejaVuSans-32" d="M 1228 531 
L 3431 531 
L 3431 0 
L 469 0 
L 469 531 
Q 828 903 1448 1529 
Q 2069 2156 2228 2338 
Q 2531 2678 2651 2914 
Q 2772 3150 2772 3378 
Q 2772 3750 2511 3984 
Q 2250 4219 1831 4219 
Q 1534 4219 1204 4116 
Q 875 4013 500 3803 
L 500 4441 
Q 881 4594 1212 4672 
Q 1544 4750 1819 4750 
Q 2544 4750 2975 4387 
Q 3406 4025 3406 3419 
Q 3406 3131 3298 2873 
Q 3191 2616 2906 2266 
Q 2828 2175 2409 1742 
Q 1991 1309 1228 531 
z
" transform="scale(0.015625)"/>
        <path id="DejaVuSans-30" d="M 2034 4250 
Q 1547 4250 1301 3770 
Q 1056 3291 1056 2328 
Q 1056 1369 1301 889 
Q 1547 409 2034 409 
Q 2525 409 2770 889 
Q 3016 1369 3016 2328 
Q 3016 3291 2770 3770 
Q 2525 4250 2034 4250 
z
M 2034 4750 
Q 2819 4750 3233 4129 
Q 3647 3509 3647 2328 
Q 3647 1150 3233 529 
Q 2819 -91 2034 -91 
Q 1250 -91 836 529 
Q 422 1150 422 2328 
Q 422 3509 836 4129 
Q 1250 4750 2034 4750 
z
" transform="scale(0.015625)"/>
        <path id="DejaVuSans-2d" d="M 313 2009 
L 1997 2009 
L 1997 1497 
L 313 1497 
L 313 2009 
z
" transform="scale(0.015625)"/>
        <path id="DejaVuSans-37" d="M 525 4666 
L 3525 4666 
L 3525 4397 
L 1831 0 
L 1172 0 
L 2766 4134 
L 525 4134 
L 525 4666 
z
" transform="scale(0.015625)"/>
       </defs>
       <use xlink:href="#DejaVuSans-32"/>
       <use xlink:href="#DejaVuSans-30" x="63.623047"/>
       <use xlink:href="#DejaVuSans-32" x="127.246094"/>
       <use xlink:href="#DejaVuSans-30" x="190.869141"/>
       <use xlink:href="#DejaVuSans-2d" x="254.492188"/>
       <use xlink:href="#DejaVuSans-30" x="290.576172"/>
       <use xlink:href="#DejaVuSans-37" x="354.199219"/>
      </g>
     </g>
    </g>
    <g id="xtick_2">
     <g id="line2d_2">
      <g>
       <use xlink:href="#md95ed06093" x="209.892293" y="384.48" style="stroke: #000000; stroke-width: 0.8"/>
      </g>
     </g>
     <g id="text_2">
      <!-- 2021-01 -->
      <g transform="translate(189.000887 399.078438) scale(0.1 -0.1)">
       <defs>
        <path id="DejaVuSans-31" d="M 794 531 
L 1825 531 
L 1825 4091 
L 703 3866 
L 703 4441 
L 1819 4666 
L 2450 4666 
L 2450 531 
L 3481 531 
L 3481 0 
L 794 0 
L 794 531 
z
" transform="scale(0.015625)"/>
       </defs>
       <use xlink:href="#DejaVuSans-32"/>
       <use xlink:href="#DejaVuSans-30" x="63.623047"/>
       <use xlink:href="#DejaVuSans-32" x="127.246094"/>
       <use xlink:href="#DejaVuSans-31" x="190.869141"/>
       <use xlink:href="#DejaVuSans-2d" x="254.492188"/>
       <use xlink:href="#DejaVuSans-30" x="290.576172"/>
       <use xlink:href="#DejaVuSans-31" x="354.199219"/>
      </g>
     </g>
    </g>
    <g id="xtick_3">
     <g id="line2d_3">
      <g>
       <use xlink:href="#md95ed06093" x="279.80323" y="384.48" style="stroke: #000000; stroke-width: 0.8"/>
      </g>
     </g>
     <g id="text_3">
      <!-- 2021-07 -->
      <g transform="translate(258.911824 399.078438) scale(0.1 -0.1)">
       <use xlink:href="#DejaVuSans-32"/>
       <use xlink:href="#DejaVuSans-30" x="63.623047"/>
       <use xlink:href="#DejaVuSans-32" x="127.246094"/>
       <use xlink:href="#DejaVuSans-31" x="190.869141"/>
       <use xlink:href="#DejaVuSans-2d" x="254.492188"/>
       <use xlink:href="#DejaVuSans-30" x="290.576172"/>
       <use xlink:href="#DejaVuSans-37" x="354.199219"/>
      </g>
     </g>
    </g>
    <g id="xtick_4">
     <g id="line2d_4">
      <g>
       <use xlink:href="#md95ed06093" x="350.872912" y="384.48" style="stroke: #000000; stroke-width: 0.8"/>
      </g>
     </g>
     <g id="text_4">
      <!-- 2022-01 -->
      <g transform="translate(329.981506 399.078438) scale(0.1 -0.1)">
       <use xlink:href="#DejaVuSans-32"/>
       <use xlink:href="#DejaVuSans-30" x="63.623047"/>
       <use xlink:href="#DejaVuSans-32" x="127.246094"/>
       <use xlink:href="#DejaVuSans-32" x="190.869141"/>
       <use xlink:href="#DejaVuSans-2d" x="254.492188"/>
       <use xlink:href="#DejaVuSans-30" x="290.576172"/>
       <use xlink:href="#DejaVuSans-31" x="354.199219"/>
      </g>
     </g>
    </g>
    <g id="xtick_5">
     <g id="line2d_5">
      <g>
       <use xlink:href="#md95ed06093" x="420.783849" y="384.48" style="stroke: #000000; stroke-width: 0.8"/>
      </g>
     </g>
     <g id="text_5">
      <!-- 2022-07 -->
      <g transform="translate(399.892442 399.078438) scale(0.1 -0.1)">
       <use xlink:href="#DejaVuSans-32"/>
       <use xlink:href="#DejaVuSans-30" x="63.623047"/>
       <use xlink:href="#DejaVuSans-32" x="127.246094"/>
       <use xlink:href="#DejaVuSans-32" x="190.869141"/>
       <use xlink:href="#DejaVuSans-2d" x="254.492188"/>
       <use xlink:href="#DejaVuSans-30" x="290.576172"/>
       <use xlink:href="#DejaVuSans-37" x="354.199219"/>
      </g>
     </g>
    </g>
    <g id="xtick_6">
     <g id="line2d_6">
      <g>
       <use xlink:href="#md95ed06093" x="491.85353" y="384.48" style="stroke: #000000; stroke-width: 0.8"/>
      </g>
     </g>
     <g id="text_6">
      <!-- 2023-01 -->
      <g transform="translate(470.962124 399.078438) scale(0.1 -0.1)">
       <defs>
        <path id="DejaVuSans-33" d="M 2597 2516 
Q 3050 2419 3304 2112 
Q 3559 1806 3559 1356 
Q 3559 666 3084 287 
Q 2609 -91 1734 -91 
Q 1441 -91 1130 -33 
Q 819 25 488 141 
L 488 750 
Q 750 597 1062 519 
Q 1375 441 1716 441 
Q 2309 441 2620 675 
Q 2931 909 2931 1356 
Q 2931 1769 2642 2001 
Q 2353 2234 1838 2234 
L 1294 2234 
L 1294 2753 
L 1863 2753 
Q 2328 2753 2575 2939 
Q 2822 3125 2822 3475 
Q 2822 3834 2567 4026 
Q 2313 4219 1838 4219 
Q 1578 4219 1281 4162 
Q 984 4106 628 3988 
L 628 4550 
Q 988 4650 1302 4700 
Q 1616 4750 1894 4750 
Q 2613 4750 3031 4423 
Q 3450 4097 3450 3541 
Q 3450 3153 3228 2886 
Q 3006 2619 2597 2516 
z
" transform="scale(0.015625)"/>
       </defs>
       <use xlink:href="#DejaVuSans-32"/>
       <use xlink:href="#DejaVuSans-30" x="63.623047"/>
       <use xlink:href="#DejaVuSans-32" x="127.246094"/>
       <use xlink:href="#DejaVuSans-33" x="190.869141"/>
       <use xlink:href="#DejaVuSans-2d" x="254.492188"/>
       <use xlink:href="#DejaVuSans-30" x="290.576172"/>
       <use xlink:href="#DejaVuSans-31" x="354.199219"/>
      </g>
     </g>
    </g>
    <g id="xtick_7">
     <g id="line2d_7">
      <g>
       <use xlink:href="#md95ed06093" x="561.764467" y="384.48" style="stroke: #000000; stroke-width: 0.8"/>
      </g>
     </g>
     <g id="text_7">
      <!-- 2023-07 -->
      <g transform="translate(540.873061 399.078438) scale(0.1 -0.1)">
       <use xlink:href="#DejaVuSans-32"/>
       <use xlink:href="#DejaVuSans-30" x="63.623047"/>
       <use xlink:href="#DejaVuSans-32" x="127.246094"/>
       <use xlink:href="#DejaVuSans-33" x="190.869141"/>
       <use xlink:href="#DejaVuSans-2d" x="254.492188"/>
       <use xlink:href="#DejaVuSans-30" x="290.576172"/>
       <use xlink:href="#DejaVuSans-37" x="354.199219"/>
      </g>
     </g>
    </g>
    <g id="xtick_8">
     <g id="line2d_8">
      <g>
       <use xlink:href="#md95ed06093" x="632.834149" y="384.48" style="stroke: #000000; stroke-width: 0.8"/>
      </g>
     </g>
     <g id="text_8">
      <!-- 2024-01 -->
      <g transform="translate(611.942742 399.078438) scale(0.1 -0.1)">
       <defs>
        <path id="DejaVuSans-34" d="M 2419 4116 
L 825 1625 
L 2419 1625 
L 2419 4116 
z
M 2253 4666 
L 3047 4666 
L 3047 1625 
L 3713 1625 
L 3713 1100 
L 3047 1100 
L 3047 0 
L 2419 0 
L 2419 1100 
L 313 1100 
L 313 1709 
L 2253 4666 
z
" transform="scale(0.015625)"/>
       </defs>
       <use xlink:href="#DejaVuSans-32"/>
       <use xlink:href="#DejaVuSans-30" x="63.623047"/>
       <use xlink:href="#DejaVuSans-32" x="127.246094"/>
       <use xlink:href="#DejaVuSans-34" x="190.869141"/>
       <use xlink:href="#DejaVuSans-2d" x="254.492188"/>
       <use xlink:href="#DejaVuSans-30" x="290.576172"/>
       <use xlink:href="#DejaVuSans-31" x="354.199219"/>
      </g>
     </g>
    </g>
    <g id="xtick_9">
     <g id="line2d_9">
      <g>
       <use xlink:href="#md95ed06093" x="703.131334" y="384.48" style="stroke: #000000; stroke-width: 0.8"/>
      </g>
     </g>
     <g id="text_9">
      <!-- 2024-07 -->
      <g transform="translate(682.239927 399.078438) scale(0.1 -0.1)">
       <use xlink:href="#DejaVuSans-32"/>
       <use xlink:href="#DejaVuSans-30" x="63.623047"/>
       <use xlink:href="#DejaVuSans-32" x="127.246094"/>
       <use xlink:href="#DejaVuSans-34" x="190.869141"/>
       <use xlink:href="#DejaVuSans-2d" x="254.492188"/>
       <use xlink:href="#DejaVuSans-30" x="290.576172"/>
       <use xlink:href="#DejaVuSans-37" x="354.199219"/>
      </g>
     </g>
    </g>
    <g id="xtick_10">
     <g id="line2d_10">
      <g>
       <use xlink:href="#md95ed06093" x="774.201015" y="384.48" style="stroke: #000000; stroke-width: 0.8"/>
      </g>
     </g>
     <g id="text_10">
      <!-- 2025-01 -->
      <g transform="translate(753.309609 399.078438) scale(0.1 -0.1)">
       <defs>
        <path id="DejaVuSans-35" d="M 691 4666 
L 3169 4666 
L 3169 4134 
L 1269 4134 
L 1269 2991 
Q 1406 3038 1543 3061 
Q 1681 3084 1819 3084 
Q 2600 3084 3056 2656 
Q 3513 2228 3513 1497 
Q 3513 744 3044 326 
Q 2575 -91 1722 -91 
Q 1428 -91 1123 -41 
Q 819 9 494 109 
L 494 744 
Q 775 591 1075 516 
Q 1375 441 1709 441 
Q 2250 441 2565 725 
Q 2881 1009 2881 1497 
Q 2881 1984 2565 2268 
Q 2250 2553 1709 2553 
Q 1456 2553 1204 2497 
Q 953 2441 691 2322 
L 691 4666 
z
" transform="scale(0.015625)"/>
       </defs>
       <use xlink:href="#DejaVuSans-32"/>
       <use xlink:href="#DejaVuSans-30" x="63.623047"/>
       <use xlink:href="#DejaVuSans-32" x="127.246094"/>
       <use xlink:href="#DejaVuSans-35" x="190.869141"/>
       <use xlink:href="#DejaVuSans-2d" x="254.492188"/>
       <use xlink:href="#DejaVuSans-30" x="290.576172"/>
       <use xlink:href="#DejaVuSans-31" x="354.199219"/>
      </g>
     </g>
    </g>
    <g id="text_11">
     <!-- Date -->
     <g transform="translate(430.849219 412.756563) scale(0.1 -0.1)">
      <defs>
       <path id="DejaVuSans-44" d="M 1259 4147 
L 1259 519 
L 2022 519 
Q 2988 519 3436 956 
Q 3884 1394 3884 2338 
Q 3884 3275 3436 3711 
Q 2988 4147 2022 4147 
L 1259 4147 
z
M 628 4666 
L 1925 4666 
Q 3281 4666 3915 4102 
Q 4550 3538 4550 2338 
Q 4550 1131 3912 565 
Q 3275 0 1925 0 
L 628 0 
L 628 4666 
z
" transform="scale(0.015625)"/>
       <path id="DejaVuSans-61" d="M 2194 1759 
Q 1497 1759 1228 1600 
Q 959 1441 959 1056 
Q 959 750 1161 570 
Q 1363 391 1709 391 
Q 2188 391 2477 730 
Q 2766 1069 2766 1631 
L 2766 1759 
L 2194 1759 
z
M 3341 1997 
L 3341 0 
L 2766 0 
L 2766 531 
Q 2569 213 2275 61 
Q 1981 -91 1556 -91 
Q 1019 -91 701 211 
Q 384 513 384 1019 
Q 384 1609 779 1909 
Q 1175 2209 1959 2209 
L 2766 2209 
L 2766 2266 
Q 2766 2663 2505 2880 
Q 2244 3097 1772 3097 
Q 1472 3097 1187 3025 
Q 903 2953 641 2809 
L 641 3341 
Q 956 3463 1253 3523 
Q 1550 3584 1831 3584 
Q 2591 3584 2966 3190 
Q 3341 2797 3341 1997 
z
" transform="scale(0.015625)"/>
       <path id="DejaVuSans-74" d="M 1172 4494 
L 1172 3500 
L 2356 3500 
L 2356 3053 
L 1172 3053 
L 1172 1153 
Q 1172 725 1289 603 
Q 1406 481 1766 481 
L 2356 481 
L 2356 0 
L 1766 0 
Q 1100 0 847 248 
Q 594 497 594 1153 
L 594 3053 
L 172 3053 
L 172 3500 
L 594 3500 
L 594 4494 
L 1172 4494 
z
" transform="scale(0.015625)"/>
       <path id="DejaVuSans-65" d="M 3597 1894 
L 3597 1613 
L 953 1613 
Q 991 1019 1311 708 
Q 1631 397 2203 397 
Q 2534 397 2845 478 
Q 3156 559 3463 722 
L 3463 178 
Q 3153 47 2828 -22 
Q 2503 -91 2169 -91 
Q 1331 -91 842 396 
Q 353 884 353 1716 
Q 353 2575 817 3079 
Q 1281 3584 2069 3584 
Q 2775 3584 3186 3129 
Q 3597 2675 3597 1894 
z
M 3022 2063 
Q 3016 2534 2758 2815 
Q 2500 3097 2075 3097 
Q 1594 3097 1305 2825 
Q 1016 2553 972 2059 
L 3022 2063 
z
" transform="scale(0.015625)"/>
      </defs>
      <use xlink:href="#DejaVuSans-44"/>
      <use xlink:href="#DejaVuSans-61" x="77.001953"/>
      <use xlink:href="#DejaVuSans-74" x="138.28125"/>
      <use xlink:href="#DejaVuSans-65" x="177.490234"/>
     </g>
    </g>
   </g>
   <g id="matplotlib.axis_2">
    <g id="ytick_1">
     <g id="line2d_11">
      <defs>
       <path id="mfcb6d0ac0c" d="M 0 0 
L -3.5 0 
" style="stroke: #000000; stroke-width: 0.8"/>
      </defs>
      <g>
       <use xlink:href="#mfcb6d0ac0c" x="108" y="369.36" style="stroke: #000000; stroke-width: 0.8"/>
      </g>
     </g>
     <g id="text_12">
      <!-- 0.00 -->
      <g transform="translate(78.734375 373.159219) scale(0.1 -0.1)">
       <defs>
        <path id="DejaVuSans-2e" d="M 684 794 
L 1344 794 
L 1344 0 
L 684 0 
L 684 794 
z
" transform="scale(0.015625)"/>
       </defs>
       <use xlink:href="#DejaVuSans-30"/>
       <use xlink:href="#DejaVuSans-2e" x="63.623047"/>
       <use xlink:href="#DejaVuSans-30" x="95.410156"/>
       <use xlink:href="#DejaVuSans-30" x="159.033203"/>
      </g>
     </g>
    </g>
    <g id="ytick_2">
     <g id="line2d_12">
      <g>
       <use xlink:href="#mfcb6d0ac0c" x="108" y="313.020999" style="stroke: #000000; stroke-width: 0.8"/>
      </g>
     </g>
     <g id="text_13">
      <!-- 0.01 -->
      <g transform="translate(78.734375 316.820217) scale(0.1 -0.1)">
       <use xlink:href="#DejaVuSans-30"/>
       <use xlink:href="#DejaVuSans-2e" x="63.623047"/>
       <use xlink:href="#DejaVuSans-30" x="95.410156"/>
       <use xlink:href="#DejaVuSans-31" x="159.033203"/>
      </g>
     </g>
    </g>
    <g id="ytick_3">
     <g id="line2d_13">
      <g>
       <use xlink:href="#mfcb6d0ac0c" x="108" y="256.681997" style="stroke: #000000; stroke-width: 0.8"/>
      </g>
     </g>
     <g id="text_14">
      <!-- 0.02 -->
      <g transform="translate(78.734375 260.481216) scale(0.1 -0.1)">
       <use xlink:href="#DejaVuSans-30"/>
       <use xlink:href="#DejaVuSans-2e" x="63.623047"/>
       <use xlink:href="#DejaVuSans-30" x="95.410156"/>
       <use xlink:href="#DejaVuSans-32" x="159.033203"/>
      </g>
     </g>
    </g>
    <g id="ytick_4">
     <g id="line2d_14">
      <g>
       <use xlink:href="#mfcb6d0ac0c" x="108" y="200.342996" style="stroke: #000000; stroke-width: 0.8"/>
      </g>
     </g>
     <g id="text_15">
      <!-- 0.03 -->
      <g transform="translate(78.734375 204.142215) scale(0.1 -0.1)">
       <use xlink:href="#DejaVuSans-30"/>
       <use xlink:href="#DejaVuSans-2e" x="63.623047"/>
       <use xlink:href="#DejaVuSans-30" x="95.410156"/>
       <use xlink:href="#DejaVuSans-33" x="159.033203"/>
      </g>
     </g>
    </g>
    <g id="ytick_5">
     <g id="line2d_15">
      <g>
       <use xlink:href="#mfcb6d0ac0c" x="108" y="144.003995" style="stroke: #000000; stroke-width: 0.8"/>
      </g>
     </g>
     <g id="text_16">
      <!-- 0.04 -->
      <g transform="translate(78.734375 147.803213) scale(0.1 -0.1)">
       <use xlink:href="#DejaVuSans-30"/>
       <use xlink:href="#DejaVuSans-2e" x="63.623047"/>
       <use xlink:href="#DejaVuSans-30" x="95.410156"/>
       <use xlink:href="#DejaVuSans-34" x="159.033203"/>
      </g>
     </g>
    </g>
    <g id="ytick_6">
     <g id="line2d_16">
      <g>
       <use xlink:href="#mfcb6d0ac0c" x="108" y="87.664993" style="stroke: #000000; stroke-width: 0.8"/>
      </g>
     </g>
     <g id="text_17">
      <!-- 0.05 -->
      <g transform="translate(78.734375 91.464212) scale(0.1 -0.1)">
       <use xlink:href="#DejaVuSans-30"/>
       <use xlink:href="#DejaVuSans-2e" x="63.623047"/>
       <use xlink:href="#DejaVuSans-30" x="95.410156"/>
       <use xlink:href="#DejaVuSans-35" x="159.033203"/>
      </g>
     </g>
    </g>
    <g id="text_18">
     <!-- Volatility -->
     <g transform="translate(72.654687 239.752187) rotate(-90) scale(0.1 -0.1)">
      <defs>
       <path id="DejaVuSans-56" d="M 1831 0 
L 50 4666 
L 709 4666 
L 2188 738 
L 3669 4666 
L 4325 4666 
L 2547 0 
L 1831 0 
z
" transform="scale(0.015625)"/>
       <path id="DejaVuSans-6f" d="M 1959 3097 
Q 1497 3097 1228 2736 
Q 959 2375 959 1747 
Q 959 1119 1226 758 
Q 1494 397 1959 397 
Q 2419 397 2687 759 
Q 2956 1122 2956 1747 
Q 2956 2369 2687 2733 
Q 2419 3097 1959 3097 
z
M 1959 3584 
Q 2709 3584 3137 3096 
Q 3566 2609 3566 1747 
Q 3566 888 3137 398 
Q 2709 -91 1959 -91 
Q 1206 -91 779 398 
Q 353 888 353 1747 
Q 353 2609 779 3096 
Q 1206 3584 1959 3584 
z
" transform="scale(0.015625)"/>
       <path id="DejaVuSans-6c" d="M 603 4863 
L 1178 4863 
L 1178 0 
L 603 0 
L 603 4863 
z
" transform="scale(0.015625)"/>
       <path id="DejaVuSans-69" d="M 603 3500 
L 1178 3500 
L 1178 0 
L 603 0 
L 603 3500 
z
M 603 4863 
L 1178 4863 
L 1178 4134 
L 603 4134 
L 603 4863 
z
" transform="scale(0.015625)"/>
       <path id="DejaVuSans-79" d="M 2059 -325 
Q 1816 -950 1584 -1140 
Q 1353 -1331 966 -1331 
L 506 -1331 
L 506 -850 
L 844 -850 
Q 1081 -850 1212 -737 
Q 1344 -625 1503 -206 
L 1606 56 
L 191 3500 
L 800 3500 
L 1894 763 
L 2988 3500 
L 3597 3500 
L 2059 -325 
z
" transform="scale(0.015625)"/>
      </defs>
      <use xlink:href="#DejaVuSans-56"/>
      <use xlink:href="#DejaVuSans-6f" x="60.658203"/>
      <use xlink:href="#DejaVuSans-6c" x="121.839844"/>
      <use xlink:href="#DejaVuSans-61" x="149.623047"/>
      <use xlink:href="#DejaVuSans-74" x="210.902344"/>
      <use xlink:href="#DejaVuSans-69" x="250.111328"/>
      <use xlink:href="#DejaVuSans-6c" x="277.894531"/>
      <use xlink:href="#DejaVuSans-69" x="305.677734"/>
      <use xlink:href="#DejaVuSans-74" x="333.460938"/>
      <use xlink:href="#DejaVuSans-79" x="372.669922"/>
     </g>
    </g>
   </g>
   <g id="line2d_17">
    <path d="M 138.436364 368.619716 
L 138.822612 368.091274 
L 139.20886 363.467582 
L 140.753853 363.113036 
L 141.140102 360.140563 
L 141.52635 369.357683 
L 142.298846 360.065972 
L 143.843839 363.85391 
L 144.230088 364.719782 
L 144.616336 369.343068 
L 145.002584 366.383738 
L 146.161329 367.884601 
L 146.547577 369.345448 
L 146.933826 369.168316 
L 147.320074 369.317914 
L 147.706322 368.776919 
L 148.865067 368.162049 
L 149.251315 365.965285 
L 149.637563 369.346429 
L 150.023812 368.80219 
L 150.41006 369.119965 
L 151.568805 368.739414 
L 151.955053 366.190829 
L 152.341301 361.392591 
L 152.72755 348.256318 
L 153.113798 368.391295 
L 154.272543 363.448522 
L 154.658791 350.254162 
L 155.045039 367.99092 
L 155.431287 369.132682 
L 155.817536 368.944529 
L 157.362529 369.236884 
L 157.748777 369.358344 
L 158.135025 368.394134 
L 158.521274 368.176736 
L 159.680018 365.935432 
L 160.066267 368.827366 
L 160.838763 368.961144 
L 161.225012 368.411709 
L 162.383756 368.209311 
L 162.770005 343.496904 
L 163.156253 366.395059 
L 163.542501 343.970464 
L 163.928749 367.84617 
L 165.473743 367.765824 
L 165.859991 366.064802 
L 166.632487 368.00745 
L 167.791232 363.133278 
L 168.17748 369.331769 
L 168.563729 369.156194 
L 168.949977 365.332976 
L 169.336225 365.81035 
L 170.49497 364.518441 
L 170.881218 369.352476 
L 171.267467 208.188959 
L 171.653715 362.337393 
L 172.039963 368.188573 
L 173.198708 369.279546 
L 173.584956 366.240585 
L 173.971204 365.105604 
L 174.357453 364.629206 
L 174.743701 364.592558 
L 175.902446 349.442806 
L 176.288694 368.700129 
L 176.674942 363.951046 
L 177.061191 369.319374 
L 177.447439 368.847817 
L 178.606184 368.625827 
L 178.992432 369.335052 
L 179.37868 369.170622 
L 179.764928 369.323639 
L 180.151177 368.807172 
L 181.309922 368.889313 
L 181.69617 368.722452 
L 182.082418 366.00849 
L 182.468666 368.84753 
L 182.854915 367.93927 
L 184.013659 366.887843 
L 184.399908 369.053017 
L 184.786156 356.738881 
L 185.558653 369.157859 
L 186.717397 361.136596 
L 187.103646 368.997415 
L 187.489894 358.517164 
L 187.876142 286.19307 
L 188.26239 347.877386 
L 189.421135 360.61311 
L 189.807383 368.77067 
L 190.193632 369.194968 
L 190.57988 369.358038 
L 190.966128 363.643378 
L 192.124873 354.565521 
L 192.511121 369.038641 
L 192.89737 368.668213 
L 193.283618 369.166197 
L 193.669866 367.830417 
L 194.828611 356.852714 
L 195.214859 366.224947 
L 195.601108 367.410025 
L 196.373604 366.752298 
L 197.532349 368.500339 
L 197.918597 369.35753 
L 198.304845 369.238324 
L 198.691094 365.419567 
L 199.077342 352.08304 
L 200.236087 369.18414 
L 200.622335 364.998509 
L 201.008583 368.82188 
L 201.394832 369.009456 
L 201.78108 367.139643 
L 202.939825 364.333957 
L 203.712321 367.956595 
L 204.098569 368.487783 
L 204.484818 368.765107 
L 205.643563 366.579956 
L 206.029811 364.46164 
L 206.416059 365.955887 
L 206.802307 369.341691 
L 208.3473 369.358391 
L 208.733549 366.207621 
L 209.119797 366.927625 
L 209.506045 368.558574 
L 211.051038 362.826916 
L 211.437287 345.333679 
L 211.823535 340.124114 
L 212.596031 369.358337 
L 213.754776 361.355844 
L 214.527273 368.217912 
L 215.299769 368.507198 
L 216.844762 364.95187 
L 217.231011 365.038912 
L 217.617259 366.827658 
L 218.003507 368.019771 
L 219.162252 367.471126 
L 219.5485 368.929387 
L 219.934749 361.248483 
L 220.320997 368.126519 
L 220.707245 366.49463 
L 221.86599 366.49463 
L 222.252238 367.700485 
L 222.638486 358.192655 
L 223.024735 358.415235 
L 223.410983 368.167568 
L 224.569728 365.084301 
L 224.955976 367.550009 
L 225.342224 367.774401 
L 226.114721 364.448667 
L 227.659714 368.103983 
L 228.045962 364.425419 
L 228.43221 304.594458 
L 228.818459 314.222314 
L 229.977204 369.336393 
L 230.363452 368.545784 
L 230.7497 360.430046 
L 231.135948 356.801775 
L 231.522197 366.111547 
L 232.680941 365.108195 
L 233.06719 369.217926 
L 233.453438 358.102866 
L 233.839686 361.197977 
L 234.225934 367.805781 
L 235.384679 366.527895 
L 236.157176 358.540735 
L 236.543424 350.908906 
L 236.929672 365.824048 
L 238.088417 368.818168 
L 238.474665 366.610973 
L 238.860914 369.28964 
L 239.247162 366.637361 
L 239.63341 369.106328 
L 240.792155 369.256738 
L 241.178403 361.204855 
L 241.564652 369.353284 
L 241.9509 367.995271 
L 242.337148 368.816486 
L 243.495893 365.287059 
L 243.882141 369.084637 
L 244.268389 369.222513 
L 244.654638 363.876872 
L 246.199631 369.292723 
L 246.585879 367.611309 
L 246.972127 347.709622 
L 247.358376 367.723643 
L 247.744624 369.013989 
L 248.903369 369.320621 
L 249.289617 369.165701 
L 249.675865 364.668598 
L 250.062114 367.926585 
L 250.448362 368.791146 
L 251.607107 362.320709 
L 251.993355 349.94349 
L 252.379603 364.274258 
L 252.765851 367.573256 
L 253.1521 362.747711 
L 254.310844 351.49345 
L 254.697093 369.229163 
L 255.083341 369.335999 
L 255.469589 368.731355 
L 255.855838 369.29954 
L 257.014582 368.400859 
L 257.787079 364.078966 
L 258.173327 324.297094 
L 258.559575 347.300538 
L 259.71832 367.081029 
L 260.104569 369.131003 
L 260.490817 361.457273 
L 260.877065 367.153534 
L 261.263313 361.192028 
L 262.422058 361.461727 
L 262.808306 368.814706 
L 263.194555 368.094958 
L 263.580803 369.128269 
L 263.967051 368.795076 
L 265.125796 369.359978 
L 265.512044 368.809341 
L 265.898293 365.519634 
L 266.284541 361.025788 
L 266.670789 368.921824 
L 268.215782 365.63822 
L 268.60203 369.139141 
L 268.988279 368.41686 
L 269.374527 363.793617 
L 270.533272 367.911963 
L 270.91952 364.233694 
L 271.305768 368.866276 
L 271.692017 360.997929 
L 272.078265 368.22349 
L 273.23701 368.694201 
L 273.623258 368.284399 
L 274.009506 369.244515 
L 274.395754 368.946451 
L 274.782003 361.784879 
L 275.940748 366.745403 
L 276.326996 369.353757 
L 276.713244 368.429455 
L 277.099492 368.262865 
L 277.485741 369.22973 
L 278.644485 368.321184 
L 279.030734 368.906443 
L 279.416982 369.191041 
L 279.80323 366.882425 
L 280.189479 368.994525 
L 281.734472 368.504473 
L 282.12072 368.929452 
L 282.506968 368.464778 
L 282.893216 358.319571 
L 284.051961 344.796751 
L 284.43821 368.23567 
L 284.824458 368.445718 
L 285.210706 367.540188 
L 285.596954 364.874785 
L 286.755699 368.19436 
L 287.141947 355.155714 
L 287.528196 367.964803 
L 287.914444 368.368723 
L 288.300692 368.468208 
L 289.459437 366.297689 
L 289.845685 364.12437 
L 290.231934 364.640292 
L 290.618182 359.572118 
L 291.00443 367.962198 
L 292.163175 369.262255 
L 292.935671 369.357421 
L 293.32192 352.075206 
L 293.708168 361.921265 
L 294.866913 367.017762 
L 295.253161 363.399059 
L 295.639409 368.436998 
L 296.025658 369.329471 
L 296.411906 369.18357 
L 297.570651 360.151433 
L 297.956899 359.071961 
L 298.343147 369.164138 
L 299.115644 364.543843 
L 300.274389 361.684443 
L 300.660637 369.188797 
L 301.046885 366.767256 
L 301.433133 368.104313 
L 301.819382 365.70687 
L 302.978126 369.34906 
L 303.364375 369.354216 
L 303.750623 368.75794 
L 304.136871 367.108433 
L 304.52312 368.910512 
L 306.068113 368.434571 
L 306.454361 369.335348 
L 306.840609 367.710111 
L 307.226857 368.878449 
L 308.385602 354.583844 
L 308.77185 369.168434 
L 309.158099 368.072875 
L 309.544347 368.583989 
L 309.930595 367.280881 
L 311.08934 354.463322 
L 311.475588 369.236799 
L 311.861837 363.986891 
L 312.248085 365.566059 
L 312.634333 368.538755 
L 313.793078 367.431705 
L 314.179326 365.420502 
L 314.565575 368.605143 
L 314.951823 369.36 
L 315.338071 369.359248 
L 316.496816 367.740413 
L 316.883064 363.292072 
L 317.269312 369.359954 
L 317.655561 369.359442 
L 318.041809 363.183419 
L 319.200554 369.260919 
L 319.586802 368.469156 
L 319.97305 364.005393 
L 320.359299 362.954718 
L 320.745547 368.662326 
L 321.904292 362.472983 
L 322.29054 369.267113 
L 323.063036 369.255636 
L 323.449285 368.630178 
L 324.60803 362.969293 
L 324.994278 368.288119 
L 325.380526 367.358074 
L 325.766774 348.721026 
L 326.153023 367.702112 
L 327.311767 366.796672 
L 328.084264 369.051889 
L 328.470512 360.313316 
L 328.85676 369.358294 
L 330.015505 366.678986 
L 330.401754 368.21057 
L 330.788002 363.354045 
L 331.560498 368.107882 
L 332.719243 367.398158 
L 333.105491 369.253876 
L 333.877988 369.238988 
L 334.264236 366.019605 
L 335.422981 368.963796 
L 335.809229 363.974789 
L 336.195478 369.325508 
L 336.967974 364.88233 
L 338.512967 362.589718 
L 339.285464 369.163283 
L 339.671712 360.926569 
L 340.830457 368.586146 
L 341.216705 358.812407 
L 341.602953 367.218112 
L 341.989202 365.109504 
L 342.37545 366.932762 
L 343.534195 352.311117 
L 343.920443 367.066124 
L 344.306691 367.787302 
L 344.69294 361.355911 
L 345.079188 369.242984 
L 346.237933 353.877273 
L 346.624181 365.184393 
L 347.010429 369.229836 
L 347.396677 368.577552 
L 348.941671 366.492438 
L 349.327919 369.350656 
L 349.714167 369.352413 
L 350.100415 369.01754 
L 350.486664 369.325405 
L 351.645408 368.503621 
L 352.031657 365.932603 
L 352.417905 364.613277 
L 352.804153 368.836752 
L 353.190401 368.647147 
L 354.349146 360.747406 
L 354.735395 351.356624 
L 355.121643 369.281179 
L 355.507891 365.971723 
L 355.894139 369.110564 
L 357.439132 363.573461 
L 357.825381 364.409085 
L 358.211629 368.598089 
L 358.597877 366.999148 
L 359.756622 369.273915 
L 360.14287 364.852918 
L 360.529119 369.339771 
L 361.301615 369.274891 
L 362.46036 343.313801 
L 362.846608 367.105692 
L 363.232856 367.805386 
L 363.619105 364.470246 
L 364.005353 369.248236 
L 365.164098 367.682391 
L 365.936594 359.389264 
L 366.322843 369.344645 
L 366.709091 366.618336 
L 367.867836 368.255708 
L 368.254084 350.097325 
L 368.640332 367.343753 
L 369.026581 91.633154 
L 369.412829 363.486137 
L 370.957822 369.177097 
L 371.34407 353.708773 
L 371.730318 368.546632 
L 372.116567 359.79085 
L 373.275311 367.034123 
L 373.66156 355.58687 
L 374.047808 365.897163 
L 374.434056 365.730333 
L 374.820305 360.461457 
L 375.979049 360.453939 
L 376.365298 355.809812 
L 377.137794 369.114253 
L 377.524042 367.250447 
L 378.682787 356.953171 
L 379.069036 363.73365 
L 379.455284 355.359876 
L 379.841532 365.427702 
L 380.22778 368.85391 
L 381.386525 369.332309 
L 381.772773 362.756057 
L 382.159022 368.46348 
L 382.54527 364.902084 
L 382.931518 367.937497 
L 384.090263 368.091851 
L 384.476511 361.532674 
L 384.86276 369.309059 
L 385.249008 368.903351 
L 385.635256 367.750216 
L 386.794001 369.220996 
L 387.180249 360.599483 
L 387.952746 369.34184 
L 388.338994 369.268937 
L 389.497739 366.119749 
L 389.883987 369.231887 
L 390.270235 362.125472 
L 390.656484 369.03413 
L 392.201477 369.170357 
L 392.587725 360.503706 
L 392.973973 369.250416 
L 393.360222 356.970265 
L 393.74647 363.458413 
L 394.905215 368.687605 
L 395.291463 352.054249 
L 395.677711 366.241253 
L 396.063959 367.981995 
L 396.450208 368.476461 
L 397.608952 369.056551 
L 397.995201 364.509246 
L 398.381449 324.724812 
L 398.767697 320.499733 
L 399.153946 365.927734 
L 400.31269 324.154293 
L 400.698939 369.354937 
L 401.085187 360.933723 
L 401.471435 369.338144 
L 401.857683 342.120926 
L 403.016428 368.680064 
L 403.402677 352.021525 
L 403.788925 368.305909 
L 404.175173 368.400357 
L 404.561421 368.665379 
L 405.720166 365.216291 
L 406.106414 369.355794 
L 406.492663 366.256933 
L 406.878911 340.759225 
L 407.265159 348.831119 
L 408.810152 360.557303 
L 409.196401 332.252563 
L 409.582649 357.712385 
L 409.968897 369.334885 
L 411.127642 365.053053 
L 411.51389 369.359152 
L 411.900138 367.78949 
L 412.286387 356.482674 
L 412.672635 366.988478 
L 413.83138 346.396223 
L 414.217628 369.22013 
L 414.603876 361.377872 
L 414.990125 347.772295 
L 415.376373 356.559519 
L 417.307614 369.359025 
L 417.693862 368.522795 
L 418.080111 354.724672 
L 419.238856 368.989631 
L 419.625104 368.049569 
L 420.011352 354.151605 
L 420.3976 368.282607 
L 420.783849 367.432393 
L 422.328842 366.307613 
L 422.71509 368.716906 
L 423.101338 366.268525 
L 423.487587 368.203038 
L 424.646331 364.249092 
L 425.418828 369.355244 
L 425.805076 369.296331 
L 426.191324 367.030343 
L 427.350069 367.967694 
L 427.736317 361.735336 
L 428.122566 361.614559 
L 428.508814 365.140851 
L 428.895062 367.427307 
L 430.053807 365.186941 
L 430.440055 368.689021 
L 430.826304 360.339061 
L 431.212552 368.940675 
L 431.5988 363.130978 
L 432.757545 367.541581 
L 433.143793 367.873208 
L 433.91629 367.195002 
L 434.302538 368.391489 
L 435.461283 364.823521 
L 435.847531 369.356953 
L 436.233779 350.331583 
L 436.620028 366.010679 
L 437.006276 350.398925 
L 438.165021 368.916269 
L 438.551269 368.604832 
L 438.937517 368.624601 
L 439.323766 369.100648 
L 439.710014 362.637868 
L 440.868759 366.918476 
L 441.255007 367.294341 
L 441.641255 366.092573 
L 442.027503 365.333407 
L 442.413752 365.620927 
L 443.572497 368.661842 
L 443.958745 358.573895 
L 444.344993 367.576715 
L 444.731241 359.460906 
L 445.11749 368.640657 
L 446.662483 365.579418 
L 447.048731 357.540074 
L 447.434979 359.005134 
L 447.821228 364.216478 
L 448.979972 368.629884 
L 449.366221 369.280167 
L 449.752469 364.418758 
L 450.138717 343.00161 
L 450.524965 369.337782 
L 451.68371 363.236868 
L 452.069958 363.655831 
L 452.456207 368.888315 
L 452.842455 357.313388 
L 453.228703 368.799932 
L 454.387448 367.81875 
L 454.773696 367.655648 
L 455.159945 364.219874 
L 455.546193 357.411466 
L 455.932441 369.279737 
L 457.091186 362.643413 
L 457.477434 362.035315 
L 457.863683 365.865773 
L 458.249931 368.118275 
L 458.636179 364.155965 
L 459.794924 367.053834 
L 460.181172 367.422269 
L 460.56742 331.300994 
L 460.953669 367.548121 
L 461.339917 337.554158 
L 462.498662 358.695136 
L 462.88491 368.164173 
L 463.271158 367.31566 
L 463.657407 369.252119 
L 464.043655 351.901432 
L 465.2024 369.335816 
L 465.588648 360.635078 
L 465.974896 369.323219 
L 466.361144 369.359972 
L 466.747393 369.07207 
L 467.906138 369.353957 
L 468.292386 369.305389 
L 468.678634 357.561432 
L 469.064882 364.38351 
L 469.451131 361.528229 
L 470.609875 369.204743 
L 470.996124 344.882485 
L 471.382372 367.23917 
L 471.76862 344.439048 
L 472.154868 368.212845 
L 473.313613 364.897306 
L 473.699862 344.097427 
L 474.08611 363.873677 
L 474.472358 363.209919 
L 474.858606 369.343805 
L 476.017351 366.857088 
L 476.403599 369.356898 
L 476.789848 369.314008 
L 477.562344 360.431291 
L 479.107337 368.161333 
L 479.493586 364.592725 
L 479.879834 368.823329 
L 480.266082 363.542271 
L 481.424827 342.254622 
L 481.811075 365.044456 
L 482.197323 369.347759 
L 482.583572 369.146764 
L 482.96982 368.688488 
L 484.128565 366.158036 
L 484.514813 368.820692 
L 484.901061 352.232522 
L 485.28731 364.240702 
L 485.673558 368.822772 
L 486.832303 360.350921 
L 487.218551 369.357353 
L 487.604799 369.281496 
L 487.991048 364.620992 
L 488.377296 369.2545 
L 489.922289 350.374605 
L 490.308537 369.35823 
L 490.694785 367.936046 
L 491.081034 369.315548 
L 492.626027 368.685437 
L 493.012275 359.696788 
L 493.398523 366.524224 
L 493.784772 368.292497 
L 494.943516 368.727977 
L 495.329765 369.358877 
L 495.716013 352.315984 
L 496.102261 365.029849 
L 496.488509 369.268154 
L 498.419751 369.309338 
L 498.805999 367.23426 
L 499.192247 361.018291 
L 500.350992 356.521039 
L 500.73724 368.123538 
L 501.509737 364.02296 
L 501.895985 368.99125 
L 503.05473 362.385281 
L 503.440978 362.760234 
L 503.827227 367.973559 
L 504.213475 368.133289 
L 504.599723 368.783614 
L 505.758468 361.667195 
L 506.144716 368.893629 
L 506.530964 359.943314 
L 506.917213 369.314617 
L 508.848454 369.314284 
L 509.234702 369.026741 
L 509.620951 357.459423 
L 510.007199 311.130601 
L 511.552192 346.12033 
L 511.93844 367.455349 
L 512.324689 364.428989 
L 512.710937 367.692399 
L 513.869682 364.418874 
L 514.25593 368.72699 
L 514.642178 369.115446 
L 515.028426 368.905097 
L 515.414675 362.349271 
L 516.573419 368.839962 
L 516.959668 363.735334 
L 517.345916 367.668766 
L 517.732164 343.787492 
L 518.118413 355.09059 
L 519.277157 368.846058 
L 519.663406 368.730294 
L 520.049654 355.356415 
L 520.435902 369.3546 
L 520.82215 364.644304 
L 521.980895 366.548365 
L 522.367144 358.139643 
L 523.13964 369.333294 
L 523.525888 368.805486 
L 525.070881 369.298836 
L 525.45713 364.793881 
L 525.843378 368.899575 
L 526.229626 369.135412 
L 527.388371 368.565119 
L 527.774619 359.700121 
L 528.160868 346.766141 
L 528.547116 368.753745 
L 530.092109 365.533929 
L 530.478357 368.860699 
L 530.864605 369.359986 
L 531.250854 369.123884 
L 531.637102 369.226668 
L 532.795847 368.875801 
L 533.182095 369.307095 
L 533.568343 369.060983 
L 533.954592 352.875682 
L 534.34084 306.853126 
L 535.499585 350.9906 
L 535.885833 360.12293 
L 536.272081 365.732563 
L 536.658329 365.508798 
L 537.044578 369.312376 
L 538.203323 357.867412 
L 538.589571 366.615069 
L 538.975819 369.314886 
L 540.90706 362.918825 
L 541.293309 355.959897 
L 541.679557 369.295353 
L 542.065805 367.013942 
L 542.452054 368.27972 
L 543.610798 360.412732 
L 543.997047 368.864391 
L 544.383295 368.651125 
L 544.769543 368.764161 
L 545.155791 364.648326 
L 546.314536 368.621972 
L 546.700784 357.797683 
L 547.087033 367.548404 
L 547.473281 362.5344 
L 547.859529 369.230593 
L 549.404522 368.739264 
L 549.790771 359.354553 
L 550.177019 368.758534 
L 550.563267 346.640969 
L 551.722012 368.730994 
L 552.10826 363.184681 
L 552.494509 365.421179 
L 552.880757 369.284973 
L 553.267005 369.269906 
L 554.42575 368.915456 
L 554.811998 357.411721 
L 555.198246 368.903836 
L 555.584495 367.54283 
L 555.970743 368.557203 
L 557.515736 367.615984 
L 557.901984 369.00347 
L 558.674481 365.525177 
L 559.833226 366.474186 
L 560.219474 368.982961 
L 560.605722 357.767563 
L 560.99197 368.895195 
L 561.378219 367.411969 
L 562.536964 365.166816 
L 563.30946 369.35382 
L 563.695708 369.132724 
L 564.081957 359.042522 
L 565.240701 368.818526 
L 565.62695 369.301753 
L 566.013198 367.528429 
L 566.399446 369.059986 
L 566.785695 365.301618 
L 567.944439 368.784456 
L 568.330688 369.320305 
L 568.716936 367.280858 
L 569.103184 359.745037 
L 569.489432 363.43378 
L 570.648177 366.027128 
L 571.034425 368.992257 
L 571.420674 368.577365 
L 571.806922 367.202438 
L 572.19317 368.780148 
L 573.351915 367.07757 
L 573.738163 367.011688 
L 574.124412 365.887637 
L 574.896908 369.282657 
L 576.055653 367.763567 
L 576.441901 369.182906 
L 576.82815 369.05682 
L 577.214398 368.375907 
L 577.600646 366.620885 
L 578.759391 368.744165 
L 579.145639 368.988773 
L 579.531887 368.297602 
L 579.918136 369.135323 
L 580.304384 369.275225 
L 581.463129 365.782463 
L 581.849377 369.358711 
L 582.235625 367.314114 
L 582.621874 369.19342 
L 583.008122 369.204329 
L 584.166867 369.358434 
L 584.553115 359.480362 
L 584.939363 369.258775 
L 585.325611 369.357944 
L 585.71186 369.019866 
L 587.256853 369.319144 
L 587.643101 351.578037 
L 588.029349 368.551853 
L 588.415598 367.75429 
L 589.574342 368.774341 
L 589.960591 368.723446 
L 590.346839 369.351242 
L 590.733087 369.334901 
L 592.27808 368.528415 
L 592.664329 368.902107 
L 593.050577 363.833304 
L 593.436825 363.577458 
L 593.823073 369.254351 
L 594.981818 369.010315 
L 595.368066 367.194589 
L 595.754315 369.139767 
L 596.140563 350.184963 
L 596.526811 368.28962 
L 597.685556 357.485457 
L 598.071804 362.322048 
L 598.458053 368.757223 
L 598.844301 366.754566 
L 599.230549 364.100265 
L 600.389294 365.574553 
L 600.775542 360.418675 
L 601.16179 367.799547 
L 601.548039 362.155227 
L 601.934287 358.246303 
L 603.093032 365.469986 
L 603.47928 368.753051 
L 603.865528 309.571155 
L 604.251777 351.676895 
L 604.638025 359.645059 
L 605.79677 367.642991 
L 606.183018 366.758753 
L 606.569266 364.765637 
L 606.955515 369.356274 
L 607.341763 369.176238 
L 608.500508 353.108883 
L 608.886756 369.221566 
L 609.273004 364.086641 
L 609.659252 368.346861 
L 610.045501 365.372209 
L 611.204246 342.620555 
L 611.590494 366.647872 
L 611.976742 365.634595 
L 612.36299 361.327192 
L 612.749239 366.979582 
L 613.907983 366.077105 
L 614.294232 320.625361 
L 614.68048 367.332598 
L 615.066728 359.929395 
L 615.452976 361.084364 
L 616.611721 366.367574 
L 616.99797 363.229605 
L 617.384218 369.285337 
L 618.156714 367.564788 
L 619.315459 345.678629 
L 619.701707 365.672143 
L 620.087956 369.256481 
L 620.474204 367.683647 
L 620.860452 360.555666 
L 622.019197 355.147703 
L 622.405445 350.642744 
L 622.791694 358.680757 
L 623.177942 350.481979 
L 623.56419 366.912624 
L 624.722935 368.628634 
L 625.109183 368.677932 
L 625.495431 323.2073 
L 625.88168 359.989847 
L 626.267928 369.000535 
L 627.426673 369.012769 
L 627.812921 366.99551 
L 628.199169 358.490489 
L 628.585418 367.042929 
L 628.971666 363.804235 
L 630.516659 368.056985 
L 630.902907 367.026573 
L 631.289156 369.356946 
L 631.675404 362.966592 
L 633.220397 367.818176 
L 633.606645 357.043206 
L 634.379142 369.356949 
L 635.537886 369.189176 
L 635.924135 366.746886 
L 636.310383 369.19105 
L 636.696631 363.297928 
L 637.08288 367.01153 
L 638.627873 369.356451 
L 639.014121 359.14692 
L 639.400369 366.454798 
L 639.786617 365.967765 
L 640.945362 356.562523 
L 641.331611 368.071476 
L 641.717859 369.054102 
L 642.104107 365.257162 
L 642.490355 368.593174 
L 643.6491 365.052278 
L 644.035348 366.185526 
L 644.421597 356.700353 
L 644.807845 367.610253 
L 645.194093 366.657238 
L 646.352838 355.543679 
L 647.125335 367.574538 
L 647.511583 369.137962 
L 647.897831 368.465163 
L 649.056576 361.833822 
L 649.442824 343.34066 
L 649.829072 367.254749 
L 650.215321 365.306052 
L 650.601569 359.228212 
L 652.146562 345.204109 
L 652.53281 363.602002 
L 652.919059 369.304948 
L 653.305307 366.949447 
L 654.464052 369.069152 
L 654.8503 351.343216 
L 655.236548 365.365483 
L 655.622796 358.986559 
L 656.009045 362.348048 
L 657.16779 342.073712 
L 657.554038 151.067143 
L 657.940286 324.675401 
L 658.326534 365.740347 
L 658.712783 362.083195 
L 659.871527 353.633123 
L 660.257776 369.114971 
L 660.644024 368.109727 
L 661.030272 356.35828 
L 661.416521 367.412306 
L 662.575265 367.155707 
L 662.961514 363.237156 
L 663.347762 363.618851 
L 663.73401 369.299051 
L 664.120258 363.387106 
L 665.279003 366.878636 
L 665.665251 369.18576 
L 666.0515 334.151371 
L 666.437748 366.490194 
L 667.982741 367.190466 
L 668.368989 366.846378 
L 668.755238 367.385689 
L 669.141486 347.68771 
L 669.527734 367.314504 
L 670.686479 345.838275 
L 671.072727 367.239905 
L 671.458976 368.580869 
L 671.845224 366.963612 
L 672.231472 348.291435 
L 673.390217 367.709866 
L 673.776465 352.633981 
L 674.162713 369.326162 
L 674.548962 366.404992 
L 674.93521 369.304957 
L 676.093955 369.351232 
L 676.480203 367.740596 
L 676.866451 368.879166 
L 677.2527 369.324252 
L 677.638948 367.846643 
L 678.797693 339.345966 
L 679.183941 358.420494 
L 679.570189 368.684699 
L 679.956437 354.366732 
L 680.342686 366.608255 
L 681.501431 366.944704 
L 681.887679 369.165839 
L 682.273927 368.969979 
L 683.046424 364.333707 
L 684.205168 368.179424 
L 684.591417 364.425939 
L 684.977665 349.070379 
L 685.363913 368.462866 
L 685.750162 368.121162 
L 686.908906 369.049373 
L 687.295155 365.149052 
L 687.681403 369.350996 
L 688.453899 361.628742 
L 689.998892 369.350011 
L 690.385141 362.69373 
L 690.771389 369.317376 
L 691.157637 368.83423 
L 692.316382 368.261366 
L 692.70263 366.738074 
L 693.088879 369.313603 
L 693.475127 369.271245 
L 693.861375 365.006331 
L 695.02012 369.027208 
L 695.406368 369.35649 
L 695.792617 368.595407 
L 696.178865 360.333561 
L 696.565113 358.158107 
L 697.723858 364.874023 
L 698.110106 368.691764 
L 698.882603 349.413692 
L 699.268851 368.879687 
L 700.427596 367.49082 
L 700.813844 361.059855 
L 701.200092 335.221211 
L 701.586341 359.977193 
L 701.972589 369.015377 
L 703.131334 367.197161 
L 703.517582 369.287001 
L 703.90383 364.036112 
L 704.676327 367.627272 
L 705.835072 368.990237 
L 706.22132 322.072369 
L 706.993816 368.705588 
L 707.380065 369.356239 
L 708.538809 365.945435 
L 708.925058 366.384229 
L 709.311306 365.165651 
L 709.697554 368.341233 
L 710.083802 367.430731 
L 711.242547 367.92789 
L 711.628796 366.485125 
L 712.015044 369.116037 
L 712.401292 369.35019 
L 712.78754 367.198514 
L 714.332533 368.891237 
L 714.718782 368.485163 
L 715.10503 369.198612 
L 715.491278 342.821873 
L 716.650023 360.024262 
L 717.036271 355.85961 
L 717.42252 369.162067 
L 717.808768 362.67875 
L 718.195016 369.33268 
L 719.353761 340.389873 
L 719.740009 367.931181 
L 720.512506 330.720031 
L 720.898754 369.312551 
L 722.057499 359.390554 
L 722.443747 367.684347 
L 722.829995 354.878457 
L 723.216244 367.194794 
L 723.602492 359.971456 
L 724.761237 367.656664 
L 725.147485 369.358861 
L 725.533733 368.668989 
L 725.919982 360.054916 
L 726.30623 368.02501 
L 727.851223 341.485688 
L 728.237471 369.04635 
L 728.623719 365.639999 
L 729.009968 340.55506 
L 730.168713 367.229641 
L 730.554961 369.319697 
L 730.941209 277.952877 
L 731.327457 368.903759 
L 731.713706 368.541987 
L 732.87245 366.729414 
L 733.258699 369.204926 
L 733.644947 361.803411 
L 734.031195 363.89221 
L 734.417443 361.377493 
L 735.576188 364.058213 
L 735.962437 367.209981 
L 736.348685 358.532498 
L 736.734933 318.945714 
L 737.121181 368.882714 
L 738.279926 368.247959 
L 738.666174 369.264074 
L 739.438671 369.323422 
L 739.824919 333.960275 
L 740.983664 366.367936 
L 741.369912 359.827812 
L 741.756161 367.84076 
L 742.142409 368.779309 
L 742.528657 368.886074 
L 743.687402 366.113064 
L 744.07365 360.558137 
L 744.459898 365.586824 
L 744.846147 361.597871 
L 745.232395 369.221825 
L 746.39114 368.293551 
L 746.777388 365.087816 
L 747.163636 365.475153 
L 747.163636 365.475153 
" clip-path="url(#pa17825a391)" style="fill: none; stroke: #000000; stroke-width: 1.5; stroke-linecap: square"/>
   </g>
   <g id="line2d_18">
    <path d="M 138.436364 209.072494 
L 138.822612 202.013054 
L 139.20886 223.703292 
L 140.753853 212.352014 
L 141.140102 214.551592 
L 141.52635 203.907341 
L 141.912598 213.876595 
L 142.298846 216.466747 
L 143.457591 192.235588 
L 143.843839 223.777083 
L 144.230088 209.972247 
L 144.616336 205.022881 
L 145.002584 217.915059 
L 146.161329 213.796287 
L 146.547577 216.155028 
L 146.933826 212.511321 
L 147.320074 229.348356 
L 147.706322 224.507881 
L 148.865067 243.358387 
L 149.251315 233.785183 
L 149.637563 231.927311 
L 150.023812 240.32047 
L 150.41006 242.20964 
L 151.568805 233.386427 
L 151.955053 242.875076 
L 152.341301 237.438335 
L 152.72755 223.491069 
L 153.113798 199.095695 
L 154.272543 209.923654 
L 154.658791 191.873353 
L 155.045039 198.11226 
L 155.431287 198.442457 
L 155.817536 203.974006 
L 156.976281 222.180192 
L 157.362529 218.367774 
L 157.748777 224.995613 
L 158.135025 219.766226 
L 158.521274 236.829422 
L 159.680018 227.546778 
L 160.452515 234.365238 
L 160.838763 228.58088 
L 161.225012 238.975435 
L 162.770005 229.924233 
L 163.156253 204.797208 
L 163.542501 196.531361 
L 163.928749 184.589439 
L 165.473743 201.954348 
L 165.859991 208.893355 
L 166.246239 206.224788 
L 166.632487 217.645922 
L 167.791232 215.883303 
L 168.17748 213.306876 
L 168.563729 198.880435 
L 168.949977 217.716192 
L 169.336225 221.166052 
L 170.49497 225.550245 
L 170.881218 207.761088 
L 171.267467 236.48946 
L 171.653715 131.513467 
L 172.039963 131.61352 
L 173.198708 150.95016 
L 173.584956 146.47044 
L 173.971204 165.476477 
L 174.743701 178.168662 
L 175.902446 167.923375 
L 176.288694 168.585913 
L 176.674942 181.05145 
L 177.061191 176.345681 
L 177.447439 174.445439 
L 178.992432 203.833809 
L 179.37868 187.191898 
L 179.764928 199.97672 
L 180.151177 204.96236 
L 181.309922 211.53714 
L 182.082418 232.814834 
L 182.468666 235.584501 
L 182.854915 211.649695 
L 184.013659 229.784008 
L 184.399908 227.358353 
L 184.786156 235.731155 
L 185.172404 217.917601 
L 185.558653 208.140078 
L 186.717397 228.309177 
L 187.103646 207.525107 
L 187.489894 208.510359 
L 187.876142 212.553632 
L 188.26239 159.400444 
L 189.421135 151.037327 
L 189.807383 160.553194 
L 190.193632 161.571742 
L 190.57988 169.195538 
L 190.966128 173.510386 
L 192.124873 173.222707 
L 192.511121 184.87609 
L 192.89737 172.772316 
L 193.283618 181.170567 
L 193.669866 202.490392 
L 194.828611 195.923876 
L 195.214859 196.284814 
L 195.601108 207.74076 
L 196.373604 205.765733 
L 197.532349 191.860124 
L 197.918597 214.788017 
L 198.304845 200.46624 
L 198.691094 207.343441 
L 199.077342 196.194785 
L 200.236087 213.293756 
L 200.622335 196.329154 
L 201.008583 218.793772 
L 201.394832 208.81578 
L 201.78108 228.785933 
L 202.939825 216.716821 
L 203.326073 226.064027 
L 203.712321 226.439129 
L 204.098569 214.846832 
L 204.484818 214.665513 
L 205.643563 239.462533 
L 206.029811 223.14147 
L 206.416059 223.717379 
L 206.802307 226.139492 
L 208.3473 223.823246 
L 208.733549 226.611758 
L 209.119797 220.514832 
L 209.506045 223.298118 
L 211.051038 219.838394 
L 211.437287 215.094505 
L 211.823535 203.634294 
L 212.209783 180.461918 
L 212.596031 167.483704 
L 213.754776 188.375809 
L 214.141024 187.889069 
L 214.527273 192.945601 
L 214.913521 192.112473 
L 215.299769 204.454002 
L 216.844762 185.696169 
L 217.231011 204.047912 
L 217.617259 213.258161 
L 218.003507 207.474567 
L 219.162252 202.648314 
L 219.934749 224.789506 
L 220.320997 214.798749 
L 220.707245 209.612216 
L 221.86599 223.976314 
L 222.252238 222.055598 
L 222.638486 221.243682 
L 223.024735 221.318808 
L 223.410983 209.445327 
L 224.569728 202.963217 
L 224.955976 216.943925 
L 225.342224 203.003614 
L 225.728473 208.654767 
L 226.114721 217.398113 
L 227.659714 219.225225 
L 228.045962 205.524681 
L 228.43221 219.73657 
L 228.818459 177.206677 
L 229.977204 150.012644 
L 230.363452 157.526296 
L 230.7497 151.076326 
L 231.135948 177.367431 
L 231.522197 147.358829 
L 232.680941 163.17661 
L 233.453438 183.808329 
L 233.839686 174.213967 
L 235.384679 193.330788 
L 235.770928 202.28386 
L 236.157176 194.814081 
L 236.543424 177.996836 
L 236.929672 177.033191 
L 238.088417 175.647512 
L 238.474665 195.180269 
L 238.860914 181.631586 
L 239.63341 206.867863 
L 240.792155 198.042806 
L 241.564652 200.99378 
L 241.9509 211.370845 
L 242.337148 206.28639 
L 243.495893 215.501821 
L 243.882141 214.40665 
L 244.268389 218.239342 
L 244.654638 210.724215 
L 246.199631 223.6738 
L 246.585879 240.820889 
L 247.358376 212.645666 
L 247.744624 227.930283 
L 248.903369 218.201187 
L 249.289617 218.977586 
L 249.675865 209.116004 
L 250.448362 223.062089 
L 251.607107 209.455925 
L 251.993355 221.290382 
L 252.379603 214.056214 
L 252.765851 198.605723 
L 253.1521 204.185289 
L 254.310844 211.089045 
L 254.697093 175.583218 
L 255.083341 208.917572 
L 255.469589 197.224338 
L 255.855838 209.146825 
L 257.014582 212.8538 
L 257.400831 222.868113 
L 257.787079 224.394133 
L 258.173327 228.294173 
L 258.559575 171.708101 
L 259.71832 165.682716 
L 260.104569 177.261959 
L 260.490817 183.597982 
L 260.877065 187.40914 
L 261.263313 181.927861 
L 262.808306 194.744898 
L 263.194555 180.298371 
L 263.580803 178.507821 
L 263.967051 210.14918 
L 265.125796 214.282349 
L 265.512044 205.255573 
L 265.898293 211.053823 
L 266.670789 207.01601 
L 268.215782 210.464389 
L 268.60203 213.836018 
L 268.988279 225.471962 
L 269.374527 225.306455 
L 270.533272 230.985642 
L 270.91952 219.423978 
L 271.305768 214.766834 
L 271.692017 220.379108 
L 272.078265 215.010494 
L 273.23701 206.777884 
L 273.623258 225.741334 
L 274.009506 227.86236 
L 274.782003 208.541315 
L 275.940748 221.772548 
L 276.326996 213.898444 
L 276.713244 208.839725 
L 277.485741 236.526604 
L 278.644485 222.603591 
L 279.030734 242.779276 
L 279.416982 228.212095 
L 279.80323 230.173779 
L 280.189479 244.698251 
L 281.734472 235.933069 
L 282.12072 236.775638 
L 282.506968 240.808895 
L 284.051961 231.612224 
L 284.43821 198.890013 
L 284.824458 208.766297 
L 285.210706 195.826266 
L 285.596954 214.271882 
L 286.755699 213.673949 
L 287.141947 224.420697 
L 287.528196 211.593182 
L 287.914444 209.70551 
L 288.300692 217.296568 
L 289.459437 204.567103 
L 289.845685 221.79692 
L 290.231934 206.65559 
L 290.618182 211.168106 
L 291.00443 194.309713 
L 292.163175 219.645484 
L 292.935671 226.992624 
L 293.32192 224.792139 
L 293.708168 194.812694 
L 294.866913 195.3057 
L 295.253161 205.679625 
L 295.639409 207.450336 
L 296.025658 207.929984 
L 296.411906 230.86525 
L 297.570651 215.110449 
L 297.956899 215.066649 
L 298.343147 201.349353 
L 298.729395 218.941554 
L 299.115644 215.276576 
L 300.274389 212.092226 
L 300.660637 208.931609 
L 301.046885 210.21498 
L 301.433133 208.761362 
L 301.819382 221.987417 
L 302.978126 218.556529 
L 303.750623 214.656522 
L 304.136871 219.59631 
L 304.52312 211.767052 
L 306.454361 232.049724 
L 306.840609 237.252117 
L 307.226857 240.239552 
L 308.385602 233.819787 
L 308.77185 210.711235 
L 309.158099 225.112485 
L 309.544347 229.373127 
L 309.930595 239.468403 
L 311.08934 237.142552 
L 311.475588 211.36487 
L 311.861837 220.757674 
L 312.248085 227.14982 
L 312.634333 224.277641 
L 314.179326 222.632461 
L 314.565575 230.01395 
L 314.951823 215.924491 
L 315.338071 224.081245 
L 316.496816 220.470396 
L 316.883064 235.688196 
L 317.269312 223.676314 
L 317.655561 223.652447 
L 318.041809 231.556288 
L 319.200554 240.912627 
L 319.586802 224.269826 
L 319.97305 242.304576 
L 320.359299 230.963587 
L 320.745547 211.041429 
L 321.904292 232.211307 
L 322.29054 217.335673 
L 323.063036 239.124832 
L 323.449285 205.699664 
L 324.60803 229.383413 
L 324.994278 219.693273 
L 325.380526 237.439246 
L 325.766774 232.332321 
L 326.153023 213.552925 
L 327.311767 227.131472 
L 327.698016 225.712638 
L 328.084264 213.984646 
L 328.470512 219.347928 
L 328.85676 214.440734 
L 330.015505 228.498854 
L 330.401754 212.887243 
L 330.788002 220.007961 
L 331.17425 220.089626 
L 331.560498 220.534324 
L 332.719243 214.141298 
L 333.105491 220.608275 
L 333.877988 225.363914 
L 334.264236 225.094231 
L 335.422981 226.796692 
L 335.809229 236.861281 
L 336.195478 214.242175 
L 336.967974 214.32556 
L 338.126719 233.877086 
L 338.512967 211.431314 
L 338.899216 207.890808 
L 339.285464 215.857326 
L 339.671712 226.925808 
L 340.830457 221.835047 
L 341.602953 204.430981 
L 341.989202 223.161386 
L 342.37545 216.779768 
L 343.534195 220.980439 
L 343.920443 203.645338 
L 344.306691 201.251857 
L 344.69294 201.481981 
L 345.079188 203.431993 
L 346.237933 199.608051 
L 346.624181 214.788212 
L 347.010429 199.526103 
L 347.396677 211.998837 
L 348.941671 215.682229 
L 349.327919 213.140436 
L 349.714167 222.708742 
L 350.100415 217.582838 
L 350.486664 227.852564 
L 351.645408 214.687252 
L 352.031657 223.820555 
L 352.417905 218.478908 
L 352.804153 235.609379 
L 353.190401 216.058894 
L 354.349146 215.170066 
L 354.735395 219.965527 
L 355.121643 205.540409 
L 355.507891 209.759478 
L 355.894139 204.70949 
L 357.439132 226.704084 
L 357.825381 219.405658 
L 358.211629 201.90403 
L 358.597877 220.971503 
L 359.756622 213.792379 
L 360.14287 224.421266 
L 360.529119 220.74373 
L 360.915367 218.387837 
L 361.301615 223.51745 
L 362.46036 226.06242 
L 362.846608 193.624008 
L 363.232856 215.38341 
L 363.619105 212.188153 
L 364.005353 214.173388 
L 365.550346 218.245802 
L 365.936594 228.208996 
L 366.322843 212.906127 
L 366.709091 207.792004 
L 367.867836 219.29558 
L 368.254084 207.994522 
L 368.640332 200.012455 
L 369.026581 204.984753 
L 369.412829 66.96 
L 370.957822 81.844704 
L 371.34407 104.650006 
L 371.730318 100.942724 
L 372.116567 98.69395 
L 373.275311 117.354592 
L 373.66156 140.558293 
L 374.047808 119.912638 
L 374.434056 143.641137 
L 374.820305 150.57472 
L 375.979049 144.569774 
L 376.365298 147.59011 
L 376.751546 163.969666 
L 377.137794 161.889698 
L 377.524042 169.120014 
L 378.682787 161.988739 
L 379.069036 175.702444 
L 379.455284 169.357413 
L 379.841532 177.034992 
L 380.22778 172.819042 
L 381.386525 185.225213 
L 381.772773 192.209414 
L 382.159022 176.813045 
L 382.54527 190.572431 
L 382.931518 184.200579 
L 384.090263 206.815094 
L 384.476511 192.542241 
L 384.86276 214.207518 
L 385.249008 195.385435 
L 385.635256 205.326356 
L 386.794001 219.019156 
L 387.180249 212.288395 
L 387.566497 213.97314 
L 387.952746 227.334331 
L 388.338994 204.736789 
L 389.497739 224.977407 
L 389.883987 219.214227 
L 390.270235 206.617948 
L 390.656484 217.438993 
L 392.201477 226.452408 
L 392.587725 221.541917 
L 392.973973 210.44324 
L 393.360222 228.51288 
L 393.74647 221.11823 
L 394.905215 202.86652 
L 395.291463 228.203398 
L 395.677711 200.574966 
L 396.063959 199.102177 
L 397.608952 214.969879 
L 397.995201 210.599383 
L 398.381449 212.517727 
L 399.153946 141.629287 
L 400.31269 148.511588 
L 400.698939 139.02171 
L 401.085187 142.206118 
L 401.471435 158.463744 
L 401.857683 161.87389 
L 403.016428 152.608687 
L 403.402677 152.268733 
L 403.788925 179.88431 
L 404.175173 171.062512 
L 404.561421 181.74827 
L 405.720166 179.294954 
L 406.106414 189.198522 
L 406.492663 187.041638 
L 406.878911 188.078596 
L 407.265159 173.431007 
L 408.810152 176.918874 
L 409.196401 173.467198 
L 409.582649 148.332891 
L 409.968897 173.42898 
L 411.127642 152.758222 
L 411.51389 151.768533 
L 411.900138 178.944757 
L 412.286387 172.261249 
L 413.83138 182.922981 
L 414.217628 179.472812 
L 414.603876 162.173773 
L 414.990125 171.966346 
L 415.376373 169.27823 
L 416.921366 174.415641 
L 417.307614 178.435667 
L 417.693862 193.715445 
L 418.080111 187.532801 
L 419.238856 195.354653 
L 419.625104 195.74541 
L 420.011352 196.436279 
L 420.3976 177.1548 
L 420.783849 192.889722 
L 422.328842 198.281879 
L 422.71509 201.026964 
L 423.101338 205.817968 
L 423.487587 202.330083 
L 424.646331 200.338054 
L 425.03258 205.189759 
L 425.418828 212.864027 
L 425.805076 216.470326 
L 426.191324 202.342604 
L 427.350069 208.76092 
L 427.736317 232.462991 
L 428.508814 211.289339 
L 428.895062 222.211535 
L 430.053807 205.053034 
L 430.440055 202.073361 
L 430.826304 200.089993 
L 431.212552 218.501163 
L 431.5988 219.82299 
L 432.757545 225.267866 
L 433.143793 216.338029 
L 433.530042 213.424369 
L 433.91629 228.915728 
L 434.302538 211.00598 
L 435.461283 207.971144 
L 435.847531 222.355181 
L 436.233779 220.255732 
L 436.620028 200.16924 
L 437.006276 215.490893 
L 438.165021 204.874946 
L 438.551269 197.159835 
L 438.937517 204.179211 
L 439.323766 208.070941 
L 439.710014 206.748461 
L 440.868759 198.420433 
L 441.255007 211.094348 
L 441.641255 215.698559 
L 442.027503 213.538566 
L 442.413752 213.11723 
L 443.572497 210.77542 
L 443.958745 211.265312 
L 444.344993 211.355264 
L 444.731241 214.134657 
L 446.662483 193.13382 
L 447.048731 215.519341 
L 447.434979 181.046125 
L 447.821228 192.664522 
L 448.979972 188.109075 
L 449.366221 211.864196 
L 449.752469 204.887373 
L 450.138717 204.975282 
L 450.524965 199.88007 
L 452.069958 189.59708 
L 452.456207 178.831117 
L 452.842455 205.712812 
L 453.228703 188.824512 
L 454.387448 193.889865 
L 454.773696 213.845494 
L 455.159945 189.885406 
L 455.546193 209.067785 
L 455.932441 207.137717 
L 457.091186 198.825406 
L 457.477434 210.473425 
L 457.863683 192.823903 
L 458.249931 204.014364 
L 458.636179 211.693227 
L 459.794924 194.688225 
L 460.181172 194.195609 
L 460.56742 215.651083 
L 460.953669 173.171846 
L 461.339917 177.112975 
L 462.498662 179.332838 
L 462.88491 177.180826 
L 463.271158 171.90957 
L 463.657407 176.294285 
L 464.043655 198.284258 
L 465.2024 193.825278 
L 465.588648 187.000767 
L 465.974896 182.192143 
L 466.361144 200.105584 
L 466.747393 201.079027 
L 467.906138 215.269795 
L 468.292386 201.101186 
L 468.678634 216.398821 
L 469.064882 208.565594 
L 469.451131 211.372888 
L 470.609875 195.651496 
L 470.996124 213.828231 
L 471.382372 189.670917 
L 471.76862 202.172808 
L 472.154868 183.753626 
L 473.313613 186.267886 
L 473.699862 174.827491 
L 474.08611 172.944862 
L 474.472358 188.087029 
L 474.858606 173.261306 
L 476.017351 193.800231 
L 476.403599 173.620655 
L 476.789848 200.648361 
L 477.562344 194.53466 
L 478.721089 205.397031 
L 479.107337 206.701404 
L 479.493586 196.43457 
L 479.879834 203.048502 
L 480.266082 207.095157 
L 481.424827 198.074344 
L 481.811075 178.394357 
L 482.197323 181.709144 
L 482.583572 193.281758 
L 482.96982 210.865613 
L 484.128565 212.235381 
L 484.514813 211.380413 
L 484.901061 206.675183 
L 485.28731 189.950948 
L 485.673558 206.657411 
L 486.832303 207.059137 
L 487.218551 195.564425 
L 487.604799 210.07276 
L 487.991048 197.768578 
L 488.377296 216.333521 
L 489.922289 201.142447 
L 490.308537 195.555739 
L 491.081034 220.076273 
L 493.012275 202.161044 
L 493.398523 202.821043 
L 493.784772 215.300933 
L 494.943516 214.979799 
L 495.329765 207.255757 
L 495.716013 209.515839 
L 496.102261 219.757496 
L 496.488509 220.557591 
L 498.033503 218.752281 
L 498.419751 224.835361 
L 498.805999 216.941282 
L 499.192247 220.83755 
L 500.350992 224.336207 
L 500.73724 205.657643 
L 501.123489 214.497983 
L 501.509737 193.305929 
L 501.895985 208.985999 
L 503.05473 212.271238 
L 503.440978 209.653244 
L 503.827227 210.426295 
L 504.599723 214.688404 
L 505.758468 220.67646 
L 506.530964 206.655848 
L 506.917213 214.8331 
L 507.303461 199.772436 
L 508.462206 207.886877 
L 508.848454 216.550828 
L 509.234702 211.343274 
L 509.620951 227.393584 
L 510.007199 212.722973 
L 511.552192 178.821956 
L 511.93844 176.404959 
L 512.324689 152.454837 
L 512.710937 187.923959 
L 513.869682 157.825841 
L 514.642178 194.466583 
L 515.028426 196.21153 
L 515.414675 188.448042 
L 516.573419 201.029751 
L 516.959668 196.227909 
L 517.345916 202.863795 
L 517.732164 199.980698 
L 518.118413 189.870562 
L 519.277157 183.177488 
L 519.663406 180.044276 
L 520.049654 182.229375 
L 520.435902 176.476006 
L 520.82215 204.278414 
L 521.980895 193.889768 
L 522.367144 203.889673 
L 523.13964 173.535835 
L 523.525888 196.748758 
L 524.684633 204.329681 
L 525.070881 202.444902 
L 525.45713 207.567205 
L 525.843378 205.823686 
L 526.229626 224.993748 
L 527.388371 214.816902 
L 527.774619 214.439095 
L 528.160868 200.144192 
L 528.547116 204.590579 
L 530.092109 212.486882 
L 530.478357 210.918307 
L 530.864605 214.151988 
L 531.250854 198.430513 
L 531.637102 201.468203 
L 532.795847 212.577503 
L 533.182095 225.916836 
L 533.568343 225.575711 
L 533.954592 230.119633 
L 534.34084 218.659469 
L 535.499585 178.657555 
L 536.272081 168.310288 
L 536.658329 167.506341 
L 537.044578 163.350885 
L 538.203323 178.790076 
L 538.589571 179.241892 
L 538.975819 193.357276 
L 539.362067 187.63033 
L 539.748316 194.12732 
L 540.90706 188.384504 
L 541.293309 188.047316 
L 541.679557 184.526257 
L 542.065805 191.427587 
L 542.452054 204.509109 
L 543.610798 203.893893 
L 543.997047 188.672304 
L 544.383295 197.608015 
L 544.769543 219.494076 
L 545.155791 214.076146 
L 546.314536 219.196718 
L 546.700784 191.965024 
L 547.087033 198.00585 
L 547.473281 205.872407 
L 547.859529 196.095588 
L 549.404522 212.679723 
L 549.790771 223.690248 
L 550.177019 219.337092 
L 550.563267 208.62126 
L 551.722012 207.68842 
L 552.10826 198.214595 
L 552.494509 205.593926 
L 552.880757 198.57374 
L 553.267005 214.860978 
L 554.42575 215.392148 
L 554.811998 196.164635 
L 555.198246 195.613999 
L 555.584495 221.147899 
L 555.970743 206.142522 
L 557.515736 203.349125 
L 557.901984 226.44893 
L 558.288233 226.216705 
L 558.674481 232.766501 
L 559.833226 226.892877 
L 560.219474 219.15793 
L 560.605722 215.730577 
L 560.99197 214.816684 
L 561.378219 222.991441 
L 562.536964 224.162847 
L 563.30946 212.832528 
L 563.695708 204.474803 
L 564.081957 231.126425 
L 565.240701 225.313387 
L 565.62695 211.696447 
L 566.013198 222.172493 
L 566.785695 227.82827 
L 567.944439 229.516364 
L 568.716936 233.362144 
L 569.103184 228.209199 
L 569.489432 216.621279 
L 570.648177 214.529988 
L 571.034425 214.560063 
L 571.420674 206.063435 
L 571.806922 218.71451 
L 572.19317 221.775548 
L 573.351915 218.267071 
L 573.738163 226.70048 
L 574.51066 209.160971 
L 574.896908 231.911201 
L 576.055653 220.474964 
L 576.441901 218.567172 
L 576.82815 228.484949 
L 577.214398 243.624379 
L 577.600646 233.720879 
L 578.759391 222.075352 
L 579.145639 234.078941 
L 579.531887 240.821658 
L 579.918136 244.337442 
L 580.304384 234.879142 
L 581.463129 233.652854 
L 581.849377 231.505051 
L 582.235625 227.630784 
L 582.621874 232.521214 
L 583.008122 241.963158 
L 584.166867 243.376914 
L 584.553115 242.046107 
L 584.939363 238.68571 
L 585.325611 240.638343 
L 585.71186 225.881459 
L 587.256853 224.347969 
L 587.643101 231.202283 
L 588.029349 227.32285 
L 588.415598 226.885635 
L 589.574342 214.181196 
L 589.960591 218.465462 
L 590.346839 238.750702 
L 590.733087 237.9554 
L 591.119335 220.515119 
L 592.27808 240.98756 
L 592.664329 233.594009 
L 593.050577 241.762101 
L 593.436825 214.849908 
L 593.823073 230.506318 
L 594.981818 213.399504 
L 595.368066 239.28684 
L 595.754315 228.195833 
L 596.140563 224.167869 
L 596.526811 210.524231 
L 597.685556 212.79304 
L 598.071804 208.896578 
L 598.458053 208.547421 
L 598.844301 222.008228 
L 599.230549 198.739564 
L 600.389294 224.751929 
L 600.775542 219.344178 
L 601.16179 196.682609 
L 601.548039 219.993638 
L 601.934287 218.277327 
L 603.093032 209.64201 
L 603.47928 202.941143 
L 603.865528 217.006834 
L 604.251777 174.010875 
L 604.638025 172.871086 
L 605.79677 168.317488 
L 606.183018 174.789296 
L 606.569266 191.02998 
L 606.955515 162.750578 
L 607.341763 193.934108 
L 608.500508 207.242206 
L 608.886756 190.372002 
L 609.273004 188.61435 
L 609.659252 189.073818 
L 610.045501 203.94543 
L 611.204246 186.856871 
L 611.590494 162.854268 
L 611.976742 187.201856 
L 612.749239 195.618446 
L 613.907983 191.366217 
L 614.294232 192.837269 
L 614.68048 173.707029 
L 615.066728 181.108984 
L 615.452976 191.573524 
L 616.611721 185.602148 
L 616.99797 181.772921 
L 617.384218 189.973576 
L 618.156714 184.322886 
L 619.315459 193.276701 
L 619.701707 162.995189 
L 620.087956 186.597763 
L 620.474204 191.466389 
L 620.860452 174.675326 
L 622.019197 185.299014 
L 622.405445 180.738582 
L 622.791694 172.28879 
L 623.177942 188.107715 
L 623.56419 178.106943 
L 624.722935 156.818993 
L 625.109183 181.393927 
L 625.495431 190.738692 
L 625.88168 161.540446 
L 626.267928 165.543963 
L 627.426673 166.639157 
L 627.812921 183.195452 
L 628.199169 178.754356 
L 628.585418 181.474878 
L 628.971666 179.449565 
L 630.516659 186.166389 
L 630.902907 199.254099 
L 631.289156 175.812329 
L 631.675404 192.949407 
L 633.220397 201.163593 
L 633.606645 201.251226 
L 633.992893 188.794854 
L 634.379142 191.352428 
L 635.537886 185.789116 
L 635.924135 194.531801 
L 636.310383 199.049761 
L 636.696631 207.596095 
L 637.08288 201.20334 
L 638.627873 208.073947 
L 639.400369 197.938012 
L 639.786617 205.634965 
L 640.945362 212.158997 
L 641.331611 195.817453 
L 641.717859 193.325141 
L 642.104107 220.854731 
L 642.490355 212.504327 
L 643.6491 207.091919 
L 644.035348 209.839673 
L 644.421597 204.432023 
L 644.807845 195.816545 
L 646.352838 215.744967 
L 646.739086 208.808886 
L 647.125335 218.696444 
L 647.511583 204.734887 
L 647.897831 221.854769 
L 649.056576 205.042785 
L 649.442824 194.809574 
L 649.829072 203.450372 
L 650.215321 197.778242 
L 650.601569 190.416555 
L 652.146562 176.600009 
L 652.53281 189.310242 
L 652.919059 185.7363 
L 653.305307 193.091647 
L 654.464052 203.140319 
L 654.8503 201.261155 
L 655.236548 198.061676 
L 655.622796 205.083506 
L 656.009045 186.429957 
L 657.16779 186.365214 
L 657.554038 168.782336 
L 657.940286 86.769808 
L 658.326534 78.960132 
L 658.712783 92.309209 
L 659.871527 106.165978 
L 660.257776 103.801769 
L 661.030272 130.859862 
L 661.416521 125.342834 
L 662.575265 142.518277 
L 662.961514 124.409548 
L 663.347762 151.936721 
L 663.73401 129.008106 
L 664.120258 140.751728 
L 665.279003 154.832734 
L 665.665251 138.21742 
L 666.0515 171.301641 
L 666.437748 151.888762 
L 667.982741 160.972725 
L 668.755238 169.831892 
L 669.141486 174.444891 
L 669.527734 163.590036 
L 670.686479 157.874908 
L 671.072727 172.382237 
L 671.458976 169.052133 
L 671.845224 155.565221 
L 672.231472 162.480214 
L 673.390217 177.436492 
L 673.776465 177.801137 
L 674.162713 164.450319 
L 674.548962 172.296878 
L 674.93521 169.478601 
L 676.093955 193.346506 
L 676.480203 195.48404 
L 676.866451 201.914499 
L 677.2527 181.506265 
L 677.638948 209.143944 
L 678.797693 202.390942 
L 679.183941 179.059091 
L 679.570189 191.802359 
L 679.956437 180.078593 
L 680.342686 202.730587 
L 681.501431 187.254118 
L 681.887679 195.828698 
L 682.660175 203.465004 
L 683.046424 202.019018 
L 684.205168 204.843604 
L 684.591417 193.975704 
L 684.977665 221.970463 
L 685.363913 207.340801 
L 685.750162 185.222918 
L 686.908906 188.335458 
L 687.295155 210.979705 
L 687.681403 216.279608 
L 688.067651 190.537591 
L 688.453899 200.743144 
L 689.998892 196.224613 
L 690.385141 207.923649 
L 690.771389 199.160024 
L 691.157637 201.433645 
L 692.316382 217.849603 
L 692.70263 209.130189 
L 693.088879 212.364463 
L 693.861375 201.659167 
L 695.02012 208.504806 
L 695.406368 219.226366 
L 695.792617 202.463883 
L 696.178865 212.750812 
L 696.565113 214.199211 
L 697.723858 220.370649 
L 698.110106 214.432268 
L 698.882603 222.809737 
L 699.268851 211.249206 
L 700.427596 218.718854 
L 700.813844 224.418765 
L 701.200092 210.206884 
L 701.972589 174.472807 
L 703.131334 180.010178 
L 703.517582 182.670038 
L 703.90383 202.14797 
L 704.676327 196.786228 
L 705.835072 196.763958 
L 706.22132 214.091738 
L 706.607568 182.89926 
L 706.993816 167.487013 
L 707.380065 171.629489 
L 708.538809 190.268665 
L 708.925058 184.788949 
L 709.311306 182.262766 
L 709.697554 202.276932 
L 710.083802 182.142209 
L 711.242547 190.675969 
L 711.628796 181.927279 
L 712.015044 208.776481 
L 712.401292 190.940083 
L 712.78754 197.176486 
L 713.946285 206.99641 
L 714.332533 207.187164 
L 714.718782 209.812788 
L 715.10503 209.740062 
L 715.491278 223.533362 
L 716.650023 198.427311 
L 717.036271 201.145152 
L 717.42252 192.559559 
L 718.195016 204.343572 
L 719.353761 205.719024 
L 719.740009 178.617139 
L 720.512506 185.545428 
L 720.898754 162.743873 
L 722.057499 161.634938 
L 722.443747 182.27035 
L 722.829995 179.856496 
L 723.216244 184.511074 
L 723.602492 164.223408 
L 724.761237 173.181242 
L 725.147485 186.859103 
L 725.533733 181.827667 
L 725.919982 194.922521 
L 726.30623 198.85354 
L 728.237471 183.456816 
L 728.623719 194.841753 
L 729.009968 182.940214 
L 730.168713 169.936163 
L 730.554961 176.955245 
L 730.941209 189.019496 
L 731.327457 134.730603 
L 731.713706 149.858362 
L 732.87245 154.280886 
L 733.258699 154.579848 
L 734.031195 183.980384 
L 734.417443 160.991403 
L 735.576188 165.400591 
L 735.962437 186.726574 
L 736.348685 181.528683 
L 736.734933 181.005844 
L 737.121181 164.197461 
L 738.279926 160.518922 
L 738.666174 162.584572 
L 739.052423 180.325379 
L 739.438671 179.759589 
L 739.824919 180.913601 
L 740.983664 168.197963 
L 741.369912 174.446117 
L 741.756161 170.304879 
L 742.142409 185.401111 
L 742.528657 177.117723 
L 743.687402 175.777302 
L 744.07365 178.240215 
L 744.846147 197.710033 
L 745.232395 202.381069 
L 746.39114 179.897969 
L 746.777388 193.291407 
L 747.163636 179.090725 
L 747.163636 179.090725 
" clip-path="url(#pa17825a391)" style="fill: none; stroke: #1f77b4; stroke-width: 1.5; stroke-linecap: square"/>
   </g>
   <g id="patch_3">
    <path d="M 108 384.48 
L 108 51.84 
" style="fill: none; stroke: #000000; stroke-width: 0.8; stroke-linejoin: miter; stroke-linecap: square"/>
   </g>
   <g id="patch_4">
    <path d="M 777.6 384.48 
L 777.6 51.84 
" style="fill: none; stroke: #000000; stroke-width: 0.8; stroke-linejoin: miter; stroke-linecap: square"/>
   </g>
   <g id="patch_5">
    <path d="M 108 384.48 
L 777.6 384.48 
" style="fill: none; stroke: #000000; stroke-width: 0.8; stroke-linejoin: miter; stroke-linecap: square"/>
   </g>
   <g id="patch_6">
    <path d="M 108 51.84 
L 777.6 51.84 
" style="fill: none; stroke: #000000; stroke-width: 0.8; stroke-linejoin: miter; stroke-linecap: square"/>
   </g>
   <g id="text_19">
    <!-- Volatility Prediction with GARCH + LSTM-MC ensemble -->
    <g transform="translate(279.714375 45.84) scale(0.12 -0.12)">
     <defs>
      <path id="DejaVuSans-20" transform="scale(0.015625)"/>
      <path id="DejaVuSans-50" d="M 1259 4147 
L 1259 2394 
L 2053 2394 
Q 2494 2394 2734 2622 
Q 2975 2850 2975 3272 
Q 2975 3691 2734 3919 
Q 2494 4147 2053 4147 
L 1259 4147 
z
M 628 4666 
L 2053 4666 
Q 2838 4666 3239 4311 
Q 3641 3956 3641 3272 
Q 3641 2581 3239 2228 
Q 2838 1875 2053 1875 
L 1259 1875 
L 1259 0 
L 628 0 
L 628 4666 
z
" transform="scale(0.015625)"/>
      <path id="DejaVuSans-72" d="M 2631 2963 
Q 2534 3019 2420 3045 
Q 2306 3072 2169 3072 
Q 1681 3072 1420 2755 
Q 1159 2438 1159 1844 
L 1159 0 
L 581 0 
L 581 3500 
L 1159 3500 
L 1159 2956 
Q 1341 3275 1631 3429 
Q 1922 3584 2338 3584 
Q 2397 3584 2469 3576 
Q 2541 3569 2628 3553 
L 2631 2963 
z
" transform="scale(0.015625)"/>
      <path id="DejaVuSans-64" d="M 2906 2969 
L 2906 4863 
L 3481 4863 
L 3481 0 
L 2906 0 
L 2906 525 
Q 2725 213 2448 61 
Q 2172 -91 1784 -91 
Q 1150 -91 751 415 
Q 353 922 353 1747 
Q 353 2572 751 3078 
Q 1150 3584 1784 3584 
Q 2172 3584 2448 3432 
Q 2725 3281 2906 2969 
z
M 947 1747 
Q 947 1113 1208 752 
Q 1469 391 1925 391 
Q 2381 391 2643 752 
Q 2906 1113 2906 1747 
Q 2906 2381 2643 2742 
Q 2381 3103 1925 3103 
Q 1469 3103 1208 2742 
Q 947 2381 947 1747 
z
" transform="scale(0.015625)"/>
      <path id="DejaVuSans-63" d="M 3122 3366 
L 3122 2828 
Q 2878 2963 2633 3030 
Q 2388 3097 2138 3097 
Q 1578 3097 1268 2742 
Q 959 2388 959 1747 
Q 959 1106 1268 751 
Q 1578 397 2138 397 
Q 2388 397 2633 464 
Q 2878 531 3122 666 
L 3122 134 
Q 2881 22 2623 -34 
Q 2366 -91 2075 -91 
Q 1284 -91 818 406 
Q 353 903 353 1747 
Q 353 2603 823 3093 
Q 1294 3584 2113 3584 
Q 2378 3584 2631 3529 
Q 2884 3475 3122 3366 
z
" transform="scale(0.015625)"/>
      <path id="DejaVuSans-6e" d="M 3513 2113 
L 3513 0 
L 2938 0 
L 2938 2094 
Q 2938 2591 2744 2837 
Q 2550 3084 2163 3084 
Q 1697 3084 1428 2787 
Q 1159 2491 1159 1978 
L 1159 0 
L 581 0 
L 581 3500 
L 1159 3500 
L 1159 2956 
Q 1366 3272 1645 3428 
Q 1925 3584 2291 3584 
Q 2894 3584 3203 3211 
Q 3513 2838 3513 2113 
z
" transform="scale(0.015625)"/>
      <path id="DejaVuSans-77" d="M 269 3500 
L 844 3500 
L 1563 769 
L 2278 3500 
L 2956 3500 
L 3675 769 
L 4391 3500 
L 4966 3500 
L 4050 0 
L 3372 0 
L 2619 2869 
L 1863 0 
L 1184 0 
L 269 3500 
z
" transform="scale(0.015625)"/>
      <path id="DejaVuSans-68" d="M 3513 2113 
L 3513 0 
L 2938 0 
L 2938 2094 
Q 2938 2591 2744 2837 
Q 2550 3084 2163 3084 
Q 1697 3084 1428 2787 
Q 1159 2491 1159 1978 
L 1159 0 
L 581 0 
L 581 4863 
L 1159 4863 
L 1159 2956 
Q 1366 3272 1645 3428 
Q 1925 3584 2291 3584 
Q 2894 3584 3203 3211 
Q 3513 2838 3513 2113 
z
" transform="scale(0.015625)"/>
      <path id="DejaVuSans-47" d="M 3809 666 
L 3809 1919 
L 2778 1919 
L 2778 2438 
L 4434 2438 
L 4434 434 
Q 4069 175 3628 42 
Q 3188 -91 2688 -91 
Q 1594 -91 976 548 
Q 359 1188 359 2328 
Q 359 3472 976 4111 
Q 1594 4750 2688 4750 
Q 3144 4750 3555 4637 
Q 3966 4525 4313 4306 
L 4313 3634 
Q 3963 3931 3569 4081 
Q 3175 4231 2741 4231 
Q 1884 4231 1454 3753 
Q 1025 3275 1025 2328 
Q 1025 1384 1454 906 
Q 1884 428 2741 428 
Q 3075 428 3337 486 
Q 3600 544 3809 666 
z
" transform="scale(0.015625)"/>
      <path id="DejaVuSans-41" d="M 2188 4044 
L 1331 1722 
L 3047 1722 
L 2188 4044 
z
M 1831 4666 
L 2547 4666 
L 4325 0 
L 3669 0 
L 3244 1197 
L 1141 1197 
L 716 0 
L 50 0 
L 1831 4666 
z
" transform="scale(0.015625)"/>
      <path id="DejaVuSans-52" d="M 2841 2188 
Q 3044 2119 3236 1894 
Q 3428 1669 3622 1275 
L 4263 0 
L 3584 0 
L 2988 1197 
Q 2756 1666 2539 1819 
Q 2322 1972 1947 1972 
L 1259 1972 
L 1259 0 
L 628 0 
L 628 4666 
L 2053 4666 
Q 2853 4666 3247 4331 
Q 3641 3997 3641 3322 
Q 3641 2881 3436 2590 
Q 3231 2300 2841 2188 
z
M 1259 4147 
L 1259 2491 
L 2053 2491 
Q 2509 2491 2742 2702 
Q 2975 2913 2975 3322 
Q 2975 3731 2742 3939 
Q 2509 4147 2053 4147 
L 1259 4147 
z
" transform="scale(0.015625)"/>
      <path id="DejaVuSans-43" d="M 4122 4306 
L 4122 3641 
Q 3803 3938 3442 4084 
Q 3081 4231 2675 4231 
Q 1875 4231 1450 3742 
Q 1025 3253 1025 2328 
Q 1025 1406 1450 917 
Q 1875 428 2675 428 
Q 3081 428 3442 575 
Q 3803 722 4122 1019 
L 4122 359 
Q 3791 134 3420 21 
Q 3050 -91 2638 -91 
Q 1578 -91 968 557 
Q 359 1206 359 2328 
Q 359 3453 968 4101 
Q 1578 4750 2638 4750 
Q 3056 4750 3426 4639 
Q 3797 4528 4122 4306 
z
" transform="scale(0.015625)"/>
      <path id="DejaVuSans-48" d="M 628 4666 
L 1259 4666 
L 1259 2753 
L 3553 2753 
L 3553 4666 
L 4184 4666 
L 4184 0 
L 3553 0 
L 3553 2222 
L 1259 2222 
L 1259 0 
L 628 0 
L 628 4666 
z
" transform="scale(0.015625)"/>
      <path id="DejaVuSans-2b" d="M 2944 4013 
L 2944 2272 
L 4684 2272 
L 4684 1741 
L 2944 1741 
L 2944 0 
L 2419 0 
L 2419 1741 
L 678 1741 
L 678 2272 
L 2419 2272 
L 2419 4013 
L 2944 4013 
z
" transform="scale(0.015625)"/>
      <path id="DejaVuSans-4c" d="M 628 4666 
L 1259 4666 
L 1259 531 
L 3531 531 
L 3531 0 
L 628 0 
L 628 4666 
z
" transform="scale(0.015625)"/>
      <path id="DejaVuSans-53" d="M 3425 4513 
L 3425 3897 
Q 3066 4069 2747 4153 
Q 2428 4238 2131 4238 
Q 1616 4238 1336 4038 
Q 1056 3838 1056 3469 
Q 1056 3159 1242 3001 
Q 1428 2844 1947 2747 
L 2328 2669 
Q 3034 2534 3370 2195 
Q 3706 1856 3706 1288 
Q 3706 609 3251 259 
Q 2797 -91 1919 -91 
Q 1588 -91 1214 -16 
Q 841 59 441 206 
L 441 856 
Q 825 641 1194 531 
Q 1563 422 1919 422 
Q 2459 422 2753 634 
Q 3047 847 3047 1241 
Q 3047 1584 2836 1778 
Q 2625 1972 2144 2069 
L 1759 2144 
Q 1053 2284 737 2584 
Q 422 2884 422 3419 
Q 422 4038 858 4394 
Q 1294 4750 2059 4750 
Q 2388 4750 2728 4690 
Q 3069 4631 3425 4513 
z
" transform="scale(0.015625)"/>
      <path id="DejaVuSans-54" d="M -19 4666 
L 3928 4666 
L 3928 4134 
L 2272 4134 
L 2272 0 
L 1638 0 
L 1638 4134 
L -19 4134 
L -19 4666 
z
" transform="scale(0.015625)"/>
      <path id="DejaVuSans-4d" d="M 628 4666 
L 1569 4666 
L 2759 1491 
L 3956 4666 
L 4897 4666 
L 4897 0 
L 4281 0 
L 4281 4097 
L 3078 897 
L 2444 897 
L 1241 4097 
L 1241 0 
L 628 0 
L 628 4666 
z
" transform="scale(0.015625)"/>
      <path id="DejaVuSans-73" d="M 2834 3397 
L 2834 2853 
Q 2591 2978 2328 3040 
Q 2066 3103 1784 3103 
Q 1356 3103 1142 2972 
Q 928 2841 928 2578 
Q 928 2378 1081 2264 
Q 1234 2150 1697 2047 
L 1894 2003 
Q 2506 1872 2764 1633 
Q 3022 1394 3022 966 
Q 3022 478 2636 193 
Q 2250 -91 1575 -91 
Q 1294 -91 989 -36 
Q 684 19 347 128 
L 347 722 
Q 666 556 975 473 
Q 1284 391 1588 391 
Q 1994 391 2212 530 
Q 2431 669 2431 922 
Q 2431 1156 2273 1281 
Q 2116 1406 1581 1522 
L 1381 1569 
Q 847 1681 609 1914 
Q 372 2147 372 2553 
Q 372 3047 722 3315 
Q 1072 3584 1716 3584 
Q 2034 3584 2315 3537 
Q 2597 3491 2834 3397 
z
" transform="scale(0.015625)"/>
      <path id="DejaVuSans-6d" d="M 3328 2828 
Q 3544 3216 3844 3400 
Q 4144 3584 4550 3584 
Q 5097 3584 5394 3201 
Q 5691 2819 5691 2113 
L 5691 0 
L 5113 0 
L 5113 2094 
Q 5113 2597 4934 2840 
Q 4756 3084 4391 3084 
Q 3944 3084 3684 2787 
Q 3425 2491 3425 1978 
L 3425 0 
L 2847 0 
L 2847 2094 
Q 2847 2600 2669 2842 
Q 2491 3084 2119 3084 
Q 1678 3084 1418 2786 
Q 1159 2488 1159 1978 
L 1159 0 
L 581 0 
L 581 3500 
L 1159 3500 
L 1159 2956 
Q 1356 3278 1631 3431 
Q 1906 3584 2284 3584 
Q 2666 3584 2933 3390 
Q 3200 3197 3328 2828 
z
" transform="scale(0.015625)"/>
      <path id="DejaVuSans-62" d="M 3116 1747 
Q 3116 2381 2855 2742 
Q 2594 3103 2138 3103 
Q 1681 3103 1420 2742 
Q 1159 2381 1159 1747 
Q 1159 1113 1420 752 
Q 1681 391 2138 391 
Q 2594 391 2855 752 
Q 3116 1113 3116 1747 
z
M 1159 2969 
Q 1341 3281 1617 3432 
Q 1894 3584 2278 3584 
Q 2916 3584 3314 3078 
Q 3713 2572 3713 1747 
Q 3713 922 3314 415 
Q 2916 -91 2278 -91 
Q 1894 -91 1617 61 
Q 1341 213 1159 525 
L 1159 0 
L 581 0 
L 581 4863 
L 1159 4863 
L 1159 2969 
z
" transform="scale(0.015625)"/>
     </defs>
     <use xlink:href="#DejaVuSans-56"/>
     <use xlink:href="#DejaVuSans-6f" x="60.658203"/>
     <use xlink:href="#DejaVuSans-6c" x="121.839844"/>
     <use xlink:href="#DejaVuSans-61" x="149.623047"/>
     <use xlink:href="#DejaVuSans-74" x="210.902344"/>
     <use xlink:href="#DejaVuSans-69" x="250.111328"/>
     <use xlink:href="#DejaVuSans-6c" x="277.894531"/>
     <use xlink:href="#DejaVuSans-69" x="305.677734"/>
     <use xlink:href="#DejaVuSans-74" x="333.460938"/>
     <use xlink:href="#DejaVuSans-79" x="372.669922"/>
     <use xlink:href="#DejaVuSans-20" x="431.849609"/>
     <use xlink:href="#DejaVuSans-50" x="463.636719"/>
     <use xlink:href="#DejaVuSans-72" x="522.189453"/>
     <use xlink:href="#DejaVuSans-65" x="561.052734"/>
     <use xlink:href="#DejaVuSans-64" x="622.576172"/>
     <use xlink:href="#DejaVuSans-69" x="686.052734"/>
     <use xlink:href="#DejaVuSans-63" x="713.835938"/>
     <use xlink:href="#DejaVuSans-74" x="768.816406"/>
     <use xlink:href="#DejaVuSans-69" x="808.025391"/>
     <use xlink:href="#DejaVuSans-6f" x="835.808594"/>
     <use xlink:href="#DejaVuSans-6e" x="896.990234"/>
     <use xlink:href="#DejaVuSans-20" x="960.369141"/>
     <use xlink:href="#DejaVuSans-77" x="992.15625"/>
     <use xlink:href="#DejaVuSans-69" x="1073.943359"/>
     <use xlink:href="#DejaVuSans-74" x="1101.726562"/>
     <use xlink:href="#DejaVuSans-68" x="1140.935547"/>
     <use xlink:href="#DejaVuSans-20" x="1204.314453"/>
     <use xlink:href="#DejaVuSans-47" x="1236.101562"/>
     <use xlink:href="#DejaVuSans-41" x="1313.591797"/>
     <use xlink:href="#DejaVuSans-52" x="1382"/>
     <use xlink:href="#DejaVuSans-43" x="1446.482422"/>
     <use xlink:href="#DejaVuSans-48" x="1516.306641"/>
     <use xlink:href="#DejaVuSans-20" x="1591.501953"/>
     <use xlink:href="#DejaVuSans-2b" x="1623.289062"/>
     <use xlink:href="#DejaVuSans-20" x="1707.078125"/>
     <use xlink:href="#DejaVuSans-4c" x="1738.865234"/>
     <use xlink:href="#DejaVuSans-53" x="1794.578125"/>
     <use xlink:href="#DejaVuSans-54" x="1858.054688"/>
     <use xlink:href="#DejaVuSans-4d" x="1919.138672"/>
     <use xlink:href="#DejaVuSans-2d" x="2005.417969"/>
     <use xlink:href="#DejaVuSans-4d" x="2041.501953"/>
     <use xlink:href="#DejaVuSans-43" x="2127.78125"/>
     <use xlink:href="#DejaVuSans-20" x="2197.605469"/>
     <use xlink:href="#DejaVuSans-65" x="2229.392578"/>
     <use xlink:href="#DejaVuSans-6e" x="2290.916016"/>
     <use xlink:href="#DejaVuSans-73" x="2354.294922"/>
     <use xlink:href="#DejaVuSans-65" x="2406.394531"/>
     <use xlink:href="#DejaVuSans-6d" x="2467.917969"/>
     <use xlink:href="#DejaVuSans-62" x="2565.330078"/>
     <use xlink:href="#DejaVuSans-6c" x="2628.806641"/>
     <use xlink:href="#DejaVuSans-65" x="2656.589844"/>
    </g>
   </g>
   <g id="legend_1">
    <g id="patch_7">
     <path d="M 491.182813 89.19625 
L 770.6 89.19625 
Q 772.6 89.19625 772.6 87.19625 
L 772.6 58.84 
Q 772.6 56.84 770.6 56.84 
L 491.182813 56.84 
Q 489.182813 56.84 489.182813 58.84 
L 489.182813 87.19625 
Q 489.182813 89.19625 491.182813 89.19625 
z
" style="fill: #ffffff; opacity: 0.8; stroke: #cccccc; stroke-linejoin: miter"/>
    </g>
    <g id="line2d_19">
     <path d="M 493.182813 64.938437 
L 503.182813 64.938437 
L 513.182812 64.938437 
" style="fill: none; stroke: #000000; stroke-width: 1.5; stroke-linecap: square"/>
    </g>
    <g id="text_20">
     <!-- Absolute Returns -->
     <g transform="translate(521.182812 68.438437) scale(0.1 -0.1)">
      <defs>
       <path id="DejaVuSans-75" d="M 544 1381 
L 544 3500 
L 1119 3500 
L 1119 1403 
Q 1119 906 1312 657 
Q 1506 409 1894 409 
Q 2359 409 2629 706 
Q 2900 1003 2900 1516 
L 2900 3500 
L 3475 3500 
L 3475 0 
L 2900 0 
L 2900 538 
Q 2691 219 2414 64 
Q 2138 -91 1772 -91 
Q 1169 -91 856 284 
Q 544 659 544 1381 
z
M 1991 3584 
L 1991 3584 
z
" transform="scale(0.015625)"/>
      </defs>
      <use xlink:href="#DejaVuSans-41"/>
      <use xlink:href="#DejaVuSans-62" x="68.408203"/>
      <use xlink:href="#DejaVuSans-73" x="131.884766"/>
      <use xlink:href="#DejaVuSans-6f" x="183.984375"/>
      <use xlink:href="#DejaVuSans-6c" x="245.166016"/>
      <use xlink:href="#DejaVuSans-75" x="272.949219"/>
      <use xlink:href="#DejaVuSans-74" x="336.328125"/>
      <use xlink:href="#DejaVuSans-65" x="375.537109"/>
      <use xlink:href="#DejaVuSans-20" x="437.060547"/>
      <use xlink:href="#DejaVuSans-52" x="468.847656"/>
      <use xlink:href="#DejaVuSans-65" x="533.830078"/>
      <use xlink:href="#DejaVuSans-74" x="595.353516"/>
      <use xlink:href="#DejaVuSans-75" x="634.5625"/>
      <use xlink:href="#DejaVuSans-72" x="697.941406"/>
      <use xlink:href="#DejaVuSans-6e" x="737.304688"/>
      <use xlink:href="#DejaVuSans-73" x="800.683594"/>
     </g>
    </g>
    <g id="line2d_20">
     <path d="M 493.182813 79.616562 
L 503.182813 79.616562 
L 513.182812 79.616562 
" style="fill: none; stroke: #1f77b4; stroke-width: 1.5; stroke-linecap: square"/>
    </g>
    <g id="text_21">
     <!-- GARCH + LSTM-MC ensemble Volatility Prediction -->
     <g transform="translate(521.182812 83.116562) scale(0.1 -0.1)">
      <use xlink:href="#DejaVuSans-47"/>
      <use xlink:href="#DejaVuSans-41" x="77.490234"/>
      <use xlink:href="#DejaVuSans-52" x="145.898438"/>
      <use xlink:href="#DejaVuSans-43" x="210.380859"/>
      <use xlink:href="#DejaVuSans-48" x="280.205078"/>
      <use xlink:href="#DejaVuSans-20" x="355.400391"/>
      <use xlink:href="#DejaVuSans-2b" x="387.1875"/>
      <use xlink:href="#DejaVuSans-20" x="470.976562"/>
      <use xlink:href="#DejaVuSans-4c" x="502.763672"/>
      <use xlink:href="#DejaVuSans-53" x="558.476562"/>
      <use xlink:href="#DejaVuSans-54" x="621.953125"/>
      <use xlink:href="#DejaVuSans-4d" x="683.037109"/>
      <use xlink:href="#DejaVuSans-2d" x="769.316406"/>
      <use xlink:href="#DejaVuSans-4d" x="805.400391"/>
      <use xlink:href="#DejaVuSans-43" x="891.679688"/>
      <use xlink:href="#DejaVuSans-20" x="961.503906"/>
      <use xlink:href="#DejaVuSans-65" x="993.291016"/>
      <use xlink:href="#DejaVuSans-6e" x="1054.814453"/>
      <use xlink:href="#DejaVuSans-73" x="1118.193359"/>
      <use xlink:href="#DejaVuSans-65" x="1170.292969"/>
      <use xlink:href="#DejaVuSans-6d" x="1231.816406"/>
      <use xlink:href="#DejaVuSans-62" x="1329.228516"/>
      <use xlink:href="#DejaVuSans-6c" x="1392.705078"/>
      <use xlink:href="#DejaVuSans-65" x="1420.488281"/>
      <use xlink:href="#DejaVuSans-20" x="1482.011719"/>
      <use xlink:href="#DejaVuSans-56" x="1513.798828"/>
      <use xlink:href="#DejaVuSans-6f" x="1574.457031"/>
      <use xlink:href="#DejaVuSans-6c" x="1635.638672"/>
      <use xlink:href="#DejaVuSans-61" x="1663.421875"/>
      <use xlink:href="#DejaVuSans-74" x="1724.701172"/>
      <use xlink:href="#DejaVuSans-69" x="1763.910156"/>
      <use xlink:href="#DejaVuSans-6c" x="1791.693359"/>
      <use xlink:href="#DejaVuSans-69" x="1819.476562"/>
      <use xlink:href="#DejaVuSans-74" x="1847.259766"/>
      <use xlink:href="#DejaVuSans-79" x="1886.46875"/>
      <use xlink:href="#DejaVuSans-20" x="1945.648438"/>
      <use xlink:href="#DejaVuSans-50" x="1977.435547"/>
      <use xlink:href="#DejaVuSans-72" x="2035.988281"/>
      <use xlink:href="#DejaVuSans-65" x="2074.851562"/>
      <use xlink:href="#DejaVuSans-64" x="2136.375"/>
      <use xlink:href="#DejaVuSans-69" x="2199.851562"/>
      <use xlink:href="#DejaVuSans-63" x="2227.634766"/>
      <use xlink:href="#DejaVuSans-74" x="2282.615234"/>
      <use xlink:href="#DejaVuSans-69" x="2321.824219"/>
      <use xlink:href="#DejaVuSans-6f" x="2349.607422"/>
      <use xlink:href="#DejaVuSans-6e" x="2410.789062"/>
     </g>
    </g>
   </g>
  </g>
 </g>
 <defs>
  <clipPath id="pa17825a391">
   <rect x="108" y="51.84" width="669.6" height="332.64"/>
  </clipPath>
 </defs>
</svg>
