<?xml version="1.0" encoding="utf-8" standalone="no"?>
<!DOCTYPE svg PUBLIC "-//W3C//DTD SVG 1.1//EN"
  "http://www.w3.org/Graphics/SVG/1.1/DTD/svg11.dtd">
<svg xmlns:xlink="http://www.w3.org/1999/xlink" width="864pt" height="432pt" viewBox="0 0 864 432" xmlns="http://www.w3.org/2000/svg" version="1.1">
 <metadata>
  <rdf:RDF xmlns:dc="http://purl.org/dc/elements/1.1/" xmlns:cc="http://creativecommons.org/ns#" xmlns:rdf="http://www.w3.org/1999/02/22-rdf-syntax-ns#">
   <cc:Work>
    <dc:type rdf:resource="http://purl.org/dc/dcmitype/StillImage"/>
    <dc:date>2025-02-17T16:11:00.405743</dc:date>
    <dc:format>image/svg+xml</dc:format>
    <dc:creator>
     <cc:Agent>
      <dc:title>Matplotlib v3.10.0, https://matplotlib.org/</dc:title>
     </cc:Agent>
    </dc:creator>
   </cc:Work>
  </rdf:RDF>
 </metadata>
 <defs>
  <style type="text/css">*{stroke-linejoin: round; stroke-linecap: butt}</style>
 </defs>
 <g id="figure_1">
  <g id="patch_1">
   <path d="M 0 432 
L 864 432 
L 864 0 
L 0 0 
z
" style="fill: #ffffff"/>
  </g>
  <g id="axes_1">
   <g id="patch_2">
    <path d="M 108 384.48 
L 777.6 384.48 
L 777.6 51.84 
L 108 51.84 
z
" style="fill: #ffffff"/>
   </g>
   <g id="matplotlib.axis_1">
    <g id="xtick_1">
     <g id="line2d_1">
      <defs>
       <path id="ma9287fdbb6" d="M 0 0 
L 0 3.5 
" style="stroke: #000000; stroke-width: 0.8"/>
      </defs>
      <g>
       <use xlink:href="#ma9287fdbb6" x="139.272527" y="384.48" style="stroke: #000000; stroke-width: 0.8"/>
      </g>
     </g>
     <g id="text_1">
      <!-- 2022-01 -->
      <g transform="translate(118.381121 399.078438) scale(0.1 -0.1)">
       <defs>
        <path id="DejaVuSans-32" d="M 1228 531 
L 3431 531 
L 3431 0 
L 469 0 
L 469 531 
Q 828 903 1448 1529 
Q 2069 2156 2228 2338 
Q 2531 2678 2651 2914 
Q 2772 3150 2772 3378 
Q 2772 3750 2511 3984 
Q 2250 4219 1831 4219 
Q 1534 4219 1204 4116 
Q 875 4013 500 3803 
L 500 4441 
Q 881 4594 1212 4672 
Q 1544 4750 1819 4750 
Q 2544 4750 2975 4387 
Q 3406 4025 3406 3419 
Q 3406 3131 3298 2873 
Q 3191 2616 2906 2266 
Q 2828 2175 2409 1742 
Q 1991 1309 1228 531 
z
" transform="scale(0.015625)"/>
        <path id="DejaVuSans-30" d="M 2034 4250 
Q 1547 4250 1301 3770 
Q 1056 3291 1056 2328 
Q 1056 1369 1301 889 
Q 1547 409 2034 409 
Q 2525 409 2770 889 
Q 3016 1369 3016 2328 
Q 3016 3291 2770 3770 
Q 2525 4250 2034 4250 
z
M 2034 4750 
Q 2819 4750 3233 4129 
Q 3647 3509 3647 2328 
Q 3647 1150 3233 529 
Q 2819 -91 2034 -91 
Q 1250 -91 836 529 
Q 422 1150 422 2328 
Q 422 3509 836 4129 
Q 1250 4750 2034 4750 
z
" transform="scale(0.015625)"/>
        <path id="DejaVuSans-2d" d="M 313 2009 
L 1997 2009 
L 1997 1497 
L 313 1497 
L 313 2009 
z
" transform="scale(0.015625)"/>
        <path id="DejaVuSans-31" d="M 794 531 
L 1825 531 
L 1825 4091 
L 703 3866 
L 703 4441 
L 1819 4666 
L 2450 4666 
L 2450 531 
L 3481 531 
L 3481 0 
L 794 0 
L 794 531 
z
" transform="scale(0.015625)"/>
       </defs>
       <use xlink:href="#DejaVuSans-32"/>
       <use xlink:href="#DejaVuSans-30" transform="translate(63.623047 0)"/>
       <use xlink:href="#DejaVuSans-32" transform="translate(127.246094 0)"/>
       <use xlink:href="#DejaVuSans-32" transform="translate(190.869141 0)"/>
       <use xlink:href="#DejaVuSans-2d" transform="translate(254.492188 0)"/>
       <use xlink:href="#DejaVuSans-30" transform="translate(290.576172 0)"/>
       <use xlink:href="#DejaVuSans-31" transform="translate(354.199219 0)"/>
      </g>
     </g>
    </g>
    <g id="xtick_2">
     <g id="line2d_2">
      <g>
       <use xlink:href="#ma9287fdbb6" x="214.527273" y="384.48" style="stroke: #000000; stroke-width: 0.8"/>
      </g>
     </g>
     <g id="text_2">
      <!-- 2022-04 -->
      <g transform="translate(193.635866 399.078438) scale(0.1 -0.1)">
       <defs>
        <path id="DejaVuSans-34" d="M 2419 4116 
L 825 1625 
L 2419 1625 
L 2419 4116 
z
M 2253 4666 
L 3047 4666 
L 3047 1625 
L 3713 1625 
L 3713 1100 
L 3047 1100 
L 3047 0 
L 2419 0 
L 2419 1100 
L 313 1100 
L 313 1709 
L 2253 4666 
z
" transform="scale(0.015625)"/>
       </defs>
       <use xlink:href="#DejaVuSans-32"/>
       <use xlink:href="#DejaVuSans-30" transform="translate(63.623047 0)"/>
       <use xlink:href="#DejaVuSans-32" transform="translate(127.246094 0)"/>
       <use xlink:href="#DejaVuSans-32" transform="translate(190.869141 0)"/>
       <use xlink:href="#DejaVuSans-2d" transform="translate(254.492188 0)"/>
       <use xlink:href="#DejaVuSans-30" transform="translate(290.576172 0)"/>
       <use xlink:href="#DejaVuSans-34" transform="translate(354.199219 0)"/>
      </g>
     </g>
    </g>
    <g id="xtick_3">
     <g id="line2d_3">
      <g>
       <use xlink:href="#ma9287fdbb6" x="290.618182" y="384.48" style="stroke: #000000; stroke-width: 0.8"/>
      </g>
     </g>
     <g id="text_3">
      <!-- 2022-07 -->
      <g transform="translate(269.726776 399.078438) scale(0.1 -0.1)">
       <defs>
        <path id="DejaVuSans-37" d="M 525 4666 
L 3525 4666 
L 3525 4397 
L 1831 0 
L 1172 0 
L 2766 4134 
L 525 4134 
L 525 4666 
z
" transform="scale(0.015625)"/>
       </defs>
       <use xlink:href="#DejaVuSans-32"/>
       <use xlink:href="#DejaVuSans-30" transform="translate(63.623047 0)"/>
       <use xlink:href="#DejaVuSans-32" transform="translate(127.246094 0)"/>
       <use xlink:href="#DejaVuSans-32" transform="translate(190.869141 0)"/>
       <use xlink:href="#DejaVuSans-2d" transform="translate(254.492188 0)"/>
       <use xlink:href="#DejaVuSans-30" transform="translate(290.576172 0)"/>
       <use xlink:href="#DejaVuSans-37" transform="translate(354.199219 0)"/>
      </g>
     </g>
    </g>
    <g id="xtick_4">
     <g id="line2d_4">
      <g>
       <use xlink:href="#ma9287fdbb6" x="367.545255" y="384.48" style="stroke: #000000; stroke-width: 0.8"/>
      </g>
     </g>
     <g id="text_4">
      <!-- 2022-10 -->
      <g transform="translate(346.653848 399.078438) scale(0.1 -0.1)">
       <use xlink:href="#DejaVuSans-32"/>
       <use xlink:href="#DejaVuSans-30" transform="translate(63.623047 0)"/>
       <use xlink:href="#DejaVuSans-32" transform="translate(127.246094 0)"/>
       <use xlink:href="#DejaVuSans-32" transform="translate(190.869141 0)"/>
       <use xlink:href="#DejaVuSans-2d" transform="translate(254.492188 0)"/>
       <use xlink:href="#DejaVuSans-31" transform="translate(290.576172 0)"/>
       <use xlink:href="#DejaVuSans-30" transform="translate(354.199219 0)"/>
      </g>
     </g>
    </g>
    <g id="xtick_5">
     <g id="line2d_5">
      <g>
       <use xlink:href="#ma9287fdbb6" x="444.472328" y="384.48" style="stroke: #000000; stroke-width: 0.8"/>
      </g>
     </g>
     <g id="text_5">
      <!-- 2023-01 -->
      <g transform="translate(423.580921 399.078438) scale(0.1 -0.1)">
       <defs>
        <path id="DejaVuSans-33" d="M 2597 2516 
Q 3050 2419 3304 2112 
Q 3559 1806 3559 1356 
Q 3559 666 3084 287 
Q 2609 -91 1734 -91 
Q 1441 -91 1130 -33 
Q 819 25 488 141 
L 488 750 
Q 750 597 1062 519 
Q 1375 441 1716 441 
Q 2309 441 2620 675 
Q 2931 909 2931 1356 
Q 2931 1769 2642 2001 
Q 2353 2234 1838 2234 
L 1294 2234 
L 1294 2753 
L 1863 2753 
Q 2328 2753 2575 2939 
Q 2822 3125 2822 3475 
Q 2822 3834 2567 4026 
Q 2313 4219 1838 4219 
Q 1578 4219 1281 4162 
Q 984 4106 628 3988 
L 628 4550 
Q 988 4650 1302 4700 
Q 1616 4750 1894 4750 
Q 2613 4750 3031 4423 
Q 3450 4097 3450 3541 
Q 3450 3153 3228 2886 
Q 3006 2619 2597 2516 
z
" transform="scale(0.015625)"/>
       </defs>
       <use xlink:href="#DejaVuSans-32"/>
       <use xlink:href="#DejaVuSans-30" transform="translate(63.623047 0)"/>
       <use xlink:href="#DejaVuSans-32" transform="translate(127.246094 0)"/>
       <use xlink:href="#DejaVuSans-33" transform="translate(190.869141 0)"/>
       <use xlink:href="#DejaVuSans-2d" transform="translate(254.492188 0)"/>
       <use xlink:href="#DejaVuSans-30" transform="translate(290.576172 0)"/>
       <use xlink:href="#DejaVuSans-31" transform="translate(354.199219 0)"/>
      </g>
     </g>
    </g>
    <g id="xtick_6">
     <g id="line2d_6">
      <g>
       <use xlink:href="#ma9287fdbb6" x="519.727073" y="384.48" style="stroke: #000000; stroke-width: 0.8"/>
      </g>
     </g>
     <g id="text_6">
      <!-- 2023-04 -->
      <g transform="translate(498.835667 399.078438) scale(0.1 -0.1)">
       <use xlink:href="#DejaVuSans-32"/>
       <use xlink:href="#DejaVuSans-30" transform="translate(63.623047 0)"/>
       <use xlink:href="#DejaVuSans-32" transform="translate(127.246094 0)"/>
       <use xlink:href="#DejaVuSans-33" transform="translate(190.869141 0)"/>
       <use xlink:href="#DejaVuSans-2d" transform="translate(254.492188 0)"/>
       <use xlink:href="#DejaVuSans-30" transform="translate(290.576172 0)"/>
       <use xlink:href="#DejaVuSans-34" transform="translate(354.199219 0)"/>
      </g>
     </g>
    </g>
    <g id="xtick_7">
     <g id="line2d_7">
      <g>
       <use xlink:href="#ma9287fdbb6" x="595.817982" y="384.48" style="stroke: #000000; stroke-width: 0.8"/>
      </g>
     </g>
     <g id="text_7">
      <!-- 2023-07 -->
      <g transform="translate(574.926576 399.078438) scale(0.1 -0.1)">
       <use xlink:href="#DejaVuSans-32"/>
       <use xlink:href="#DejaVuSans-30" transform="translate(63.623047 0)"/>
       <use xlink:href="#DejaVuSans-32" transform="translate(127.246094 0)"/>
       <use xlink:href="#DejaVuSans-33" transform="translate(190.869141 0)"/>
       <use xlink:href="#DejaVuSans-2d" transform="translate(254.492188 0)"/>
       <use xlink:href="#DejaVuSans-30" transform="translate(290.576172 0)"/>
       <use xlink:href="#DejaVuSans-37" transform="translate(354.199219 0)"/>
      </g>
     </g>
    </g>
    <g id="xtick_8">
     <g id="line2d_8">
      <g>
       <use xlink:href="#ma9287fdbb6" x="672.745055" y="384.48" style="stroke: #000000; stroke-width: 0.8"/>
      </g>
     </g>
     <g id="text_8">
      <!-- 2023-10 -->
      <g transform="translate(651.853649 399.078438) scale(0.1 -0.1)">
       <use xlink:href="#DejaVuSans-32"/>
       <use xlink:href="#DejaVuSans-30" transform="translate(63.623047 0)"/>
       <use xlink:href="#DejaVuSans-32" transform="translate(127.246094 0)"/>
       <use xlink:href="#DejaVuSans-33" transform="translate(190.869141 0)"/>
       <use xlink:href="#DejaVuSans-2d" transform="translate(254.492188 0)"/>
       <use xlink:href="#DejaVuSans-31" transform="translate(290.576172 0)"/>
       <use xlink:href="#DejaVuSans-30" transform="translate(354.199219 0)"/>
      </g>
     </g>
    </g>
    <g id="xtick_9">
     <g id="line2d_9">
      <g>
       <use xlink:href="#ma9287fdbb6" x="749.672128" y="384.48" style="stroke: #000000; stroke-width: 0.8"/>
      </g>
     </g>
     <g id="text_9">
      <!-- 2024-01 -->
      <g transform="translate(728.780722 399.078438) scale(0.1 -0.1)">
       <use xlink:href="#DejaVuSans-32"/>
       <use xlink:href="#DejaVuSans-30" transform="translate(63.623047 0)"/>
       <use xlink:href="#DejaVuSans-32" transform="translate(127.246094 0)"/>
       <use xlink:href="#DejaVuSans-34" transform="translate(190.869141 0)"/>
       <use xlink:href="#DejaVuSans-2d" transform="translate(254.492188 0)"/>
       <use xlink:href="#DejaVuSans-30" transform="translate(290.576172 0)"/>
       <use xlink:href="#DejaVuSans-31" transform="translate(354.199219 0)"/>
      </g>
     </g>
    </g>
    <g id="text_10">
     <!-- Date -->
     <g transform="translate(430.849219 412.756563) scale(0.1 -0.1)">
      <defs>
       <path id="DejaVuSans-44" d="M 1259 4147 
L 1259 519 
L 2022 519 
Q 2988 519 3436 956 
Q 3884 1394 3884 2338 
Q 3884 3275 3436 3711 
Q 2988 4147 2022 4147 
L 1259 4147 
z
M 628 4666 
L 1925 4666 
Q 3281 4666 3915 4102 
Q 4550 3538 4550 2338 
Q 4550 1131 3912 565 
Q 3275 0 1925 0 
L 628 0 
L 628 4666 
z
" transform="scale(0.015625)"/>
       <path id="DejaVuSans-61" d="M 2194 1759 
Q 1497 1759 1228 1600 
Q 959 1441 959 1056 
Q 959 750 1161 570 
Q 1363 391 1709 391 
Q 2188 391 2477 730 
Q 2766 1069 2766 1631 
L 2766 1759 
L 2194 1759 
z
M 3341 1997 
L 3341 0 
L 2766 0 
L 2766 531 
Q 2569 213 2275 61 
Q 1981 -91 1556 -91 
Q 1019 -91 701 211 
Q 384 513 384 1019 
Q 384 1609 779 1909 
Q 1175 2209 1959 2209 
L 2766 2209 
L 2766 2266 
Q 2766 2663 2505 2880 
Q 2244 3097 1772 3097 
Q 1472 3097 1187 3025 
Q 903 2953 641 2809 
L 641 3341 
Q 956 3463 1253 3523 
Q 1550 3584 1831 3584 
Q 2591 3584 2966 3190 
Q 3341 2797 3341 1997 
z
" transform="scale(0.015625)"/>
       <path id="DejaVuSans-74" d="M 1172 4494 
L 1172 3500 
L 2356 3500 
L 2356 3053 
L 1172 3053 
L 1172 1153 
Q 1172 725 1289 603 
Q 1406 481 1766 481 
L 2356 481 
L 2356 0 
L 1766 0 
Q 1100 0 847 248 
Q 594 497 594 1153 
L 594 3053 
L 172 3053 
L 172 3500 
L 594 3500 
L 594 4494 
L 1172 4494 
z
" transform="scale(0.015625)"/>
       <path id="DejaVuSans-65" d="M 3597 1894 
L 3597 1613 
L 953 1613 
Q 991 1019 1311 708 
Q 1631 397 2203 397 
Q 2534 397 2845 478 
Q 3156 559 3463 722 
L 3463 178 
Q 3153 47 2828 -22 
Q 2503 -91 2169 -91 
Q 1331 -91 842 396 
Q 353 884 353 1716 
Q 353 2575 817 3079 
Q 1281 3584 2069 3584 
Q 2775 3584 3186 3129 
Q 3597 2675 3597 1894 
z
M 3022 2063 
Q 3016 2534 2758 2815 
Q 2500 3097 2075 3097 
Q 1594 3097 1305 2825 
Q 1016 2553 972 2059 
L 3022 2063 
z
" transform="scale(0.015625)"/>
      </defs>
      <use xlink:href="#DejaVuSans-44"/>
      <use xlink:href="#DejaVuSans-61" transform="translate(77.001953 0)"/>
      <use xlink:href="#DejaVuSans-74" transform="translate(138.28125 0)"/>
      <use xlink:href="#DejaVuSans-65" transform="translate(177.490234 0)"/>
     </g>
    </g>
   </g>
   <g id="matplotlib.axis_2">
    <g id="ytick_1">
     <g id="line2d_10">
      <defs>
       <path id="m1d19f4ef13" d="M 0 0 
L -3.5 0 
" style="stroke: #000000; stroke-width: 0.8"/>
      </defs>
      <g>
       <use xlink:href="#m1d19f4ef13" x="108" y="369.576546" style="stroke: #000000; stroke-width: 0.8"/>
      </g>
     </g>
     <g id="text_11">
      <!-- 0.00 -->
      <g transform="translate(78.734375 373.375764) scale(0.1 -0.1)">
       <defs>
        <path id="DejaVuSans-2e" d="M 684 794 
L 1344 794 
L 1344 0 
L 684 0 
L 684 794 
z
" transform="scale(0.015625)"/>
       </defs>
       <use xlink:href="#DejaVuSans-30"/>
       <use xlink:href="#DejaVuSans-2e" transform="translate(63.623047 0)"/>
       <use xlink:href="#DejaVuSans-30" transform="translate(95.410156 0)"/>
       <use xlink:href="#DejaVuSans-30" transform="translate(159.033203 0)"/>
      </g>
     </g>
    </g>
    <g id="ytick_2">
     <g id="line2d_11">
      <g>
       <use xlink:href="#m1d19f4ef13" x="108" y="309.837674" style="stroke: #000000; stroke-width: 0.8"/>
      </g>
     </g>
     <g id="text_12">
      <!-- 0.02 -->
      <g transform="translate(78.734375 313.636892) scale(0.1 -0.1)">
       <use xlink:href="#DejaVuSans-30"/>
       <use xlink:href="#DejaVuSans-2e" transform="translate(63.623047 0)"/>
       <use xlink:href="#DejaVuSans-30" transform="translate(95.410156 0)"/>
       <use xlink:href="#DejaVuSans-32" transform="translate(159.033203 0)"/>
      </g>
     </g>
    </g>
    <g id="ytick_3">
     <g id="line2d_12">
      <g>
       <use xlink:href="#m1d19f4ef13" x="108" y="250.098801" style="stroke: #000000; stroke-width: 0.8"/>
      </g>
     </g>
     <g id="text_13">
      <!-- 0.04 -->
      <g transform="translate(78.734375 253.89802) scale(0.1 -0.1)">
       <use xlink:href="#DejaVuSans-30"/>
       <use xlink:href="#DejaVuSans-2e" transform="translate(63.623047 0)"/>
       <use xlink:href="#DejaVuSans-30" transform="translate(95.410156 0)"/>
       <use xlink:href="#DejaVuSans-34" transform="translate(159.033203 0)"/>
      </g>
     </g>
    </g>
    <g id="ytick_4">
     <g id="line2d_13">
      <g>
       <use xlink:href="#m1d19f4ef13" x="108" y="190.359929" style="stroke: #000000; stroke-width: 0.8"/>
      </g>
     </g>
     <g id="text_14">
      <!-- 0.06 -->
      <g transform="translate(78.734375 194.159148) scale(0.1 -0.1)">
       <defs>
        <path id="DejaVuSans-36" d="M 2113 2584 
Q 1688 2584 1439 2293 
Q 1191 2003 1191 1497 
Q 1191 994 1439 701 
Q 1688 409 2113 409 
Q 2538 409 2786 701 
Q 3034 994 3034 1497 
Q 3034 2003 2786 2293 
Q 2538 2584 2113 2584 
z
M 3366 4563 
L 3366 3988 
Q 3128 4100 2886 4159 
Q 2644 4219 2406 4219 
Q 1781 4219 1451 3797 
Q 1122 3375 1075 2522 
Q 1259 2794 1537 2939 
Q 1816 3084 2150 3084 
Q 2853 3084 3261 2657 
Q 3669 2231 3669 1497 
Q 3669 778 3244 343 
Q 2819 -91 2113 -91 
Q 1303 -91 875 529 
Q 447 1150 447 2328 
Q 447 3434 972 4092 
Q 1497 4750 2381 4750 
Q 2619 4750 2861 4703 
Q 3103 4656 3366 4563 
z
" transform="scale(0.015625)"/>
       </defs>
       <use xlink:href="#DejaVuSans-30"/>
       <use xlink:href="#DejaVuSans-2e" transform="translate(63.623047 0)"/>
       <use xlink:href="#DejaVuSans-30" transform="translate(95.410156 0)"/>
       <use xlink:href="#DejaVuSans-36" transform="translate(159.033203 0)"/>
      </g>
     </g>
    </g>
    <g id="ytick_5">
     <g id="line2d_14">
      <g>
       <use xlink:href="#m1d19f4ef13" x="108" y="130.621057" style="stroke: #000000; stroke-width: 0.8"/>
      </g>
     </g>
     <g id="text_15">
      <!-- 0.08 -->
      <g transform="translate(78.734375 134.420276) scale(0.1 -0.1)">
       <defs>
        <path id="DejaVuSans-38" d="M 2034 2216 
Q 1584 2216 1326 1975 
Q 1069 1734 1069 1313 
Q 1069 891 1326 650 
Q 1584 409 2034 409 
Q 2484 409 2743 651 
Q 3003 894 3003 1313 
Q 3003 1734 2745 1975 
Q 2488 2216 2034 2216 
z
M 1403 2484 
Q 997 2584 770 2862 
Q 544 3141 544 3541 
Q 544 4100 942 4425 
Q 1341 4750 2034 4750 
Q 2731 4750 3128 4425 
Q 3525 4100 3525 3541 
Q 3525 3141 3298 2862 
Q 3072 2584 2669 2484 
Q 3125 2378 3379 2068 
Q 3634 1759 3634 1313 
Q 3634 634 3220 271 
Q 2806 -91 2034 -91 
Q 1263 -91 848 271 
Q 434 634 434 1313 
Q 434 1759 690 2068 
Q 947 2378 1403 2484 
z
M 1172 3481 
Q 1172 3119 1398 2916 
Q 1625 2713 2034 2713 
Q 2441 2713 2670 2916 
Q 2900 3119 2900 3481 
Q 2900 3844 2670 4047 
Q 2441 4250 2034 4250 
Q 1625 4250 1398 4047 
Q 1172 3844 1172 3481 
z
" transform="scale(0.015625)"/>
       </defs>
       <use xlink:href="#DejaVuSans-30"/>
       <use xlink:href="#DejaVuSans-2e" transform="translate(63.623047 0)"/>
       <use xlink:href="#DejaVuSans-30" transform="translate(95.410156 0)"/>
       <use xlink:href="#DejaVuSans-38" transform="translate(159.033203 0)"/>
      </g>
     </g>
    </g>
    <g id="ytick_6">
     <g id="line2d_15">
      <g>
       <use xlink:href="#m1d19f4ef13" x="108" y="70.882185" style="stroke: #000000; stroke-width: 0.8"/>
      </g>
     </g>
     <g id="text_16">
      <!-- 0.10 -->
      <g transform="translate(78.734375 74.681404) scale(0.1 -0.1)">
       <use xlink:href="#DejaVuSans-30"/>
       <use xlink:href="#DejaVuSans-2e" transform="translate(63.623047 0)"/>
       <use xlink:href="#DejaVuSans-31" transform="translate(95.410156 0)"/>
       <use xlink:href="#DejaVuSans-30" transform="translate(159.033203 0)"/>
      </g>
     </g>
    </g>
    <g id="text_17">
     <!-- Volatility -->
     <g transform="translate(72.654687 239.752187) rotate(-90) scale(0.1 -0.1)">
      <defs>
       <path id="DejaVuSans-56" d="M 1831 0 
L 50 4666 
L 709 4666 
L 2188 738 
L 3669 4666 
L 4325 4666 
L 2547 0 
L 1831 0 
z
" transform="scale(0.015625)"/>
       <path id="DejaVuSans-6f" d="M 1959 3097 
Q 1497 3097 1228 2736 
Q 959 2375 959 1747 
Q 959 1119 1226 758 
Q 1494 397 1959 397 
Q 2419 397 2687 759 
Q 2956 1122 2956 1747 
Q 2956 2369 2687 2733 
Q 2419 3097 1959 3097 
z
M 1959 3584 
Q 2709 3584 3137 3096 
Q 3566 2609 3566 1747 
Q 3566 888 3137 398 
Q 2709 -91 1959 -91 
Q 1206 -91 779 398 
Q 353 888 353 1747 
Q 353 2609 779 3096 
Q 1206 3584 1959 3584 
z
" transform="scale(0.015625)"/>
       <path id="DejaVuSans-6c" d="M 603 4863 
L 1178 4863 
L 1178 0 
L 603 0 
L 603 4863 
z
" transform="scale(0.015625)"/>
       <path id="DejaVuSans-69" d="M 603 3500 
L 1178 3500 
L 1178 0 
L 603 0 
L 603 3500 
z
M 603 4863 
L 1178 4863 
L 1178 4134 
L 603 4134 
L 603 4863 
z
" transform="scale(0.015625)"/>
       <path id="DejaVuSans-79" d="M 2059 -325 
Q 1816 -950 1584 -1140 
Q 1353 -1331 966 -1331 
L 506 -1331 
L 506 -850 
L 844 -850 
Q 1081 -850 1212 -737 
Q 1344 -625 1503 -206 
L 1606 56 
L 191 3500 
L 800 3500 
L 1894 763 
L 2988 3500 
L 3597 3500 
L 2059 -325 
z
" transform="scale(0.015625)"/>
      </defs>
      <use xlink:href="#DejaVuSans-56"/>
      <use xlink:href="#DejaVuSans-6f" transform="translate(60.658203 0)"/>
      <use xlink:href="#DejaVuSans-6c" transform="translate(121.839844 0)"/>
      <use xlink:href="#DejaVuSans-61" transform="translate(149.623047 0)"/>
      <use xlink:href="#DejaVuSans-74" transform="translate(210.902344 0)"/>
      <use xlink:href="#DejaVuSans-69" transform="translate(250.111328 0)"/>
      <use xlink:href="#DejaVuSans-6c" transform="translate(277.894531 0)"/>
      <use xlink:href="#DejaVuSans-69" transform="translate(305.677734 0)"/>
      <use xlink:href="#DejaVuSans-74" transform="translate(333.460938 0)"/>
      <use xlink:href="#DejaVuSans-79" transform="translate(372.669922 0)"/>
     </g>
    </g>
   </g>
   <g id="line2d_16">
    <path d="M 138.436364 342.387055 
L 140.944855 361.433013 
L 141.781019 355.998362 
L 142.617183 226.317264 
L 143.453347 367.351384 
L 144.28951 357.685707 
L 146.798002 335.553065 
L 147.634166 338.623112 
L 148.47033 334.994777 
L 149.306494 316.023156 
L 150.142657 355.536895 
L 153.487313 293.92432 
L 154.323477 355.550205 
L 155.995804 292.18988 
L 158.504296 363.154615 
L 159.34046 285.076967 
L 160.176623 311.125126 
L 161.012787 366.824922 
L 161.848951 274.670816 
L 164.357443 316.074314 
L 165.193606 321.972741 
L 166.02977 157.246561 
L 167.702098 361.932979 
L 170.210589 283.168026 
L 171.046753 363.670462 
L 171.882917 321.897724 
L 172.719081 308.769986 
L 173.555245 271.603122 
L 176.063736 343.634814 
L 176.8999 344.832201 
L 177.736064 346.41489 
L 178.572228 254.887791 
L 179.408392 327.722926 
L 182.753047 345.09415 
L 183.589211 327.326612 
L 184.425375 252.762068 
L 185.261538 328.30293 
L 187.77003 361.338802 
L 188.606194 353.523659 
L 190.278521 359.729647 
L 191.114685 320.5609 
L 193.623177 238.855787 
L 194.459341 350.412357 
L 195.295504 218.850432 
L 196.131668 343.040717 
L 196.967832 319.485762 
L 199.476324 282.83626 
L 200.312488 301.552075 
L 201.148651 278.152414 
L 201.984815 349.31426 
L 202.820979 321.128714 
L 205.329471 362.515821 
L 206.165634 287.56857 
L 207.001798 331.561646 
L 207.837962 309.614752 
L 208.674126 365.151509 
L 211.182617 360.546373 
L 212.018781 342.346092 
L 212.854945 356.924362 
L 213.691109 306.194278 
L 214.527273 347.191822 
L 217.035764 307.75385 
L 217.871928 315.450253 
L 218.708092 286.1157 
L 219.544256 354.054622 
L 220.38042 315.363507 
L 222.888911 274.142649 
L 223.725075 336.672245 
L 224.561239 325.428762 
L 225.397403 299.219742 
L 228.742058 353.004084 
L 229.578222 310.180357 
L 230.414386 316.813961 
L 231.250549 291.519427 
L 232.086713 239.513868 
L 234.595205 280.132715 
L 235.431369 277.434529 
L 236.267532 255.307503 
L 237.103696 257.670321 
L 237.93986 256.267654 
L 240.448352 313.200613 
L 241.284515 344.88469 
L 242.120679 259.234157 
L 242.956843 224.058145 
L 243.793007 341.648572 
L 246.301499 302.298681 
L 247.137662 330.203648 
L 247.973826 353.278891 
L 248.80999 348.534541 
L 249.646154 282.319782 
L 252.154645 325.076592 
L 252.990809 320.312251 
L 253.826973 257.42712 
L 254.663137 325.256041 
L 255.499301 330.688318 
L 258.007792 305.95059 
L 258.843956 211.93774 
L 259.68012 367.136329 
L 260.516284 301.042925 
L 261.352448 247.890528 
L 264.697103 336.920284 
L 265.533267 367.010814 
L 266.369431 276.592124 
L 267.205594 287.745833 
L 269.714086 306.462389 
L 270.55025 363.991282 
L 271.386414 369.36 
L 272.222577 309.875836 
L 273.058741 277.445202 
L 275.567233 245.020562 
L 276.403397 360.716408 
L 277.23956 281.808712 
L 278.075724 266.219559 
L 278.911888 335.334484 
L 282.256543 256.826319 
L 283.092707 369.070018 
L 283.928871 352.283556 
L 284.765035 218.312619 
L 287.273526 320.915054 
L 288.10969 263.977328 
L 288.945854 361.206635 
L 289.782018 291.835458 
L 290.618182 361.605207 
L 293.962837 240.791483 
L 294.799001 334.987143 
L 295.635165 265.31823 
L 296.471329 348.060609 
L 298.97982 277.547116 
L 299.815984 326.38002 
L 300.652148 299.516267 
L 301.488312 349.621555 
L 302.324476 334.21897 
L 304.832967 292.92606 
L 305.669131 244.243046 
L 306.505295 367.492661 
L 307.341459 360.735478 
L 308.177622 190.894953 
L 310.686114 365.438889 
L 311.522278 292.120076 
L 312.358442 146.925591 
L 313.194605 343.658789 
L 314.030769 316.612795 
L 316.539261 339.722405 
L 317.375425 358.732806 
L 318.211588 296.261212 
L 319.047752 367.314086 
L 319.883916 353.198607 
L 322.392408 367.554537 
L 323.228571 353.351399 
L 324.064735 290.555545 
L 324.900899 348.957105 
L 325.737063 299.848829 
L 328.245554 363.980615 
L 329.081718 360.569207 
L 329.917882 315.698597 
L 330.754046 356.201017 
L 331.59021 301.080624 
L 334.098701 291.436775 
L 334.934865 361.779011 
L 335.771029 367.754215 
L 336.607193 292.456676 
L 337.443357 202.577417 
L 339.951848 343.701218 
L 340.788012 357.913749 
L 341.624176 348.850785 
L 342.46034 331.508434 
L 343.296503 318.618847 
L 346.641159 336.412593 
L 347.477323 287.346811 
L 348.313487 340.779818 
L 349.14965 305.838243 
L 351.658142 367.172461 
L 352.494306 189.078085 
L 353.33047 353.735009 
L 354.166633 313.472666 
L 355.002797 361.804291 
L 357.511289 363.242138 
L 358.347453 310.904725 
L 359.183616 315.708297 
L 360.01978 352.898059 
L 360.855944 327.70417 
L 363.364436 358.713805 
L 364.200599 347.731826 
L 365.036763 289.952001 
L 365.872927 289.952001 
L 366.709091 309.909661 
L 369.217582 273.289091 
L 370.053746 277.462795 
L 370.88991 364.029688 
L 371.726074 368.992286 
L 372.562238 290.53587 
L 375.070729 343.665819 
L 375.906893 349.538141 
L 376.743057 361.97037 
L 378.415385 292.809014 
L 380.923876 260.926535 
L 381.76004 351.551686 
L 382.596204 336.993583 
L 383.432368 362.437213 
L 384.268531 341.48258 
L 386.777023 326.039072 
L 387.613187 313.255428 
L 388.449351 66.96 
L 389.285514 298.81218 
L 390.121678 243.87827 
L 392.63017 309.598311 
L 393.466334 235.338185 
L 394.302498 254.168627 
L 395.138661 244.168073 
L 395.974825 256.888094 
L 398.483317 303.140345 
L 399.319481 360.828942 
L 400.155644 318.412104 
L 400.991808 146.731616 
L 401.827972 289.460784 
L 404.336464 347.882383 
L 405.172627 287.056426 
L 406.008791 361.418483 
L 407.681119 348.273843 
L 410.18961 308.795825 
L 411.025774 323.184897 
L 411.861938 324.196733 
L 413.534266 332.471142 
L 416.042757 327.972888 
L 416.878921 344.333378 
L 417.715085 187.169178 
L 418.551249 364.567173 
L 419.387413 356.275692 
L 421.895904 341.001708 
L 422.732068 292.012687 
L 423.568232 302.528252 
L 424.404396 331.666507 
L 425.240559 341.467021 
L 427.749051 353.892043 
L 428.585215 297.347656 
L 429.421379 352.701084 
L 430.257542 237.912526 
L 431.093706 358.420322 
L 433.602198 312.826094 
L 434.438362 353.537575 
L 435.274525 348.985923 
L 436.110689 302.977951 
L 436.946853 317.576031 
L 440.291508 306.386996 
L 441.127672 319.219131 
L 441.963836 284.769716 
L 442.8 362.180004 
L 446.144655 337.100564 
L 446.980819 336.427079 
L 447.816983 303.530112 
L 448.653147 322.106587 
L 451.161638 347.971094 
L 451.997802 354.813095 
L 452.833966 270.167013 
L 453.67013 358.223699 
L 454.506294 340.791981 
L 457.850949 348.905594 
L 458.687113 357.23497 
L 459.523277 301.048532 
L 460.359441 203.480937 
L 462.867932 312.06764 
L 463.704096 309.960883 
L 464.54026 293.961532 
L 465.376424 295.467138 
L 466.212587 323.248015 
L 468.721079 286.575424 
L 469.557243 311.593236 
L 470.393407 323.280292 
L 471.22957 160.064991 
L 472.065734 269.639522 
L 474.574226 319.480482 
L 475.41039 240.481411 
L 476.246553 138.59216 
L 477.082717 230.794531 
L 477.918881 350.743343 
L 480.427373 365.171507 
L 481.263536 368.00396 
L 482.0997 302.696027 
L 482.935864 328.692823 
L 483.772028 332.233303 
L 487.116683 288.27259 
L 487.952847 361.453224 
L 488.789011 345.729109 
L 489.625175 312.623854 
L 492.133666 344.608914 
L 492.96983 362.953457 
L 493.805994 362.63826 
L 494.642158 310.757395 
L 495.478322 314.751081 
L 497.986813 320.423036 
L 498.822977 325.184673 
L 499.659141 354.390167 
L 500.495305 306.107058 
L 501.331469 315.90862 
L 503.83996 348.319349 
L 504.676124 286.346236 
L 505.512288 297.560696 
L 506.348452 232.916998 
L 507.184615 328.777505 
L 509.693107 354.085768 
L 510.529271 257.14148 
L 511.365435 323.504661 
L 512.201598 311.675003 
L 513.037762 363.949167 
L 515.546254 283.870293 
L 517.218581 353.70568 
L 518.054745 352.526674 
L 518.890909 291.596179 
L 521.399401 343.554366 
L 522.235564 363.603536 
L 523.071728 364.741987 
L 523.907892 259.220847 
L 527.252547 315.606546 
L 528.088711 346.305711 
L 528.924875 344.136307 
L 529.761039 286.433312 
L 530.597203 334.718274 
L 533.105694 285.447292 
L 533.941858 332.864228 
L 534.778022 366.733559 
L 535.614186 344.652022 
L 536.45035 369.294446 
L 538.958841 345.140598 
L 539.795005 308.250183 
L 540.631169 365.004442 
L 541.467333 259.528987 
L 542.303497 365.439271 
L 544.811988 355.466876 
L 545.648152 321.211975 
L 546.484316 365.633403 
L 547.32048 343.852357 
L 548.156643 341.179783 
L 550.665135 313.166154 
L 551.501299 361.28651 
L 552.337463 251.830629 
L 553.173626 249.133598 
L 554.00979 343.627379 
L 556.518282 345.16 
L 557.354446 290.693029 
L 558.190609 335.202092 
L 559.026773 319.833805 
L 559.862937 363.040378 
L 562.371429 306.746673 
L 563.207592 307.715932 
L 564.043756 329.3321 
L 564.87992 303.761334 
L 565.716084 343.746418 
L 569.060739 350.704262 
L 569.896903 338.985509 
L 570.733067 345.46288 
L 571.569231 348.993345 
L 574.077722 336.369638 
L 574.913886 339.53538 
L 575.75005 251.20257 
L 576.586214 363.009322 
L 577.422378 364.710516 
L 579.930869 333.813124 
L 580.767033 367.655483 
L 581.603197 368.375981 
L 582.439361 335.906273 
L 583.275524 328.211686 
L 586.62018 364.516197 
L 587.456344 306.450105 
L 588.292507 305.967692 
L 589.128671 349.009246 
L 591.637163 272.598141 
L 592.473327 367.569505 
L 593.309491 318.069815 
L 594.145654 343.063213 
L 594.981818 345.778071 
L 597.49031 359.435702 
L 599.162637 318.726414 
L 599.998801 327.879407 
L 600.834965 349.999687 
L 603.343457 287.150359 
L 604.17962 348.184847 
L 605.015784 321.498373 
L 605.851948 242.23492 
L 606.688112 348.831431 
L 609.196603 354.329726 
L 610.868931 338.116838 
L 611.705095 289.446555 
L 612.541259 350.148422 
L 615.04975 330.850204 
L 615.885914 347.357703 
L 616.722078 206.967093 
L 617.558242 364.742941 
L 618.394406 298.217389 
L 620.902897 367.331599 
L 621.739061 342.0739 
L 622.575225 295.050999 
L 623.411389 366.559435 
L 624.247552 364.23645 
L 626.756044 291.595798 
L 627.592208 367.311684 
L 628.428372 331.040631 
L 629.264535 368.199568 
L 630.100699 368.658631 
L 632.609191 331.726136 
L 633.445355 334.020043 
L 634.281518 342.859848 
L 635.117682 338.506481 
L 635.953846 315.281548 
L 638.462338 350.518979 
L 639.298501 352.020959 
L 640.134665 289.586571 
L 640.970829 306.35226 
L 641.806993 363.399166 
L 644.315485 344.541268 
L 645.151648 286.873508 
L 645.987812 337.99883 
L 646.823976 360.428541 
L 647.66014 357.591645 
L 651.004795 367.610885 
L 651.840959 340.154527 
L 652.677123 351.318443 
L 653.513287 347.726092 
L 656.021778 357.843243 
L 656.857942 333.140682 
L 657.694106 338.34983 
L 658.53027 337.382937 
L 659.366434 354.711224 
L 661.874925 355.355978 
L 662.711089 366.780784 
L 663.547253 276.930267 
L 664.383417 297.019376 
L 665.21958 367.074237 
L 667.728072 348.712573 
L 668.564236 307.465215 
L 669.4004 323.553745 
L 671.072727 340.71917 
L 673.581219 295.296417 
L 674.417383 327.965488 
L 675.253546 303.756277 
L 676.08971 363.432853 
L 676.925874 309.992477 
L 679.434366 353.043711 
L 680.270529 363.146029 
L 681.106693 316.407757 
L 681.942857 339.705723 
L 682.779021 332.945053 
L 685.287512 328.689584 
L 686.123676 358.964969 
L 686.95984 333.127715 
L 687.796004 363.13586 
L 688.632168 321.042731 
L 691.140659 344.344675 
L 691.976823 321.873793 
L 692.812987 68.152422 
L 693.649151 292.423681 
L 694.485315 368.608465 
L 696.993806 313.228795 
L 697.82997 358.868584 
L 698.666134 315.94793 
L 699.502298 346.021324 
L 700.338462 328.28136 
L 702.846953 344.93425 
L 703.683117 348.067357 
L 704.519281 350.237673 
L 706.191608 316.299184 
L 708.7001 360.204025 
L 709.536264 329.83456 
L 710.372428 348.696928 
L 711.208591 319.192296 
L 712.044755 331.43204 
L 715.389411 354.455001 
L 716.225574 339.560872 
L 717.897902 330.92946 
L 720.406394 365.900613 
L 721.242557 357.269201 
L 722.078721 321.353415 
L 722.914885 314.768796 
L 723.751049 356.164319 
L 726.25954 308.692565 
L 727.931868 347.838249 
L 728.768032 214.151255 
L 729.604196 330.269855 
L 732.112687 326.864253 
L 732.948851 345.978354 
L 733.785015 362.209875 
L 734.621179 352.3593 
L 735.457343 355.259246 
L 737.965834 295.733879 
L 738.801998 349.829084 
L 739.638162 336.024749 
L 740.474326 324.154955 
L 741.31049 350.259857 
L 744.655145 367.484281 
L 745.491309 340.574723 
L 746.327473 366.19566 
L 747.163636 362.167531 
L 747.163636 362.167531 
" clip-path="url(#p02ee82bcf3)" style="fill: none; stroke: #000000; stroke-width: 1.5; stroke-linecap: square"/>
   </g>
   <g id="line2d_17">
    <path d="M 138.436364 329.269614 
L 140.944855 328.923387 
L 141.781019 330.04928 
L 142.617183 330.635483 
L 143.453347 301.31028 
L 144.28951 307.28777 
L 146.798002 312.048428 
L 147.634166 315.470001 
L 148.47033 318.403267 
L 149.306494 320.641456 
L 150.142657 318.802823 
L 153.487313 321.654178 
L 154.323477 315.389066 
L 155.15964 318.661823 
L 155.995804 318.200652 
L 158.504296 312.617752 
L 159.34046 316.620546 
L 160.176623 310.002853 
L 161.012787 312.414132 
L 161.848951 316.441895 
L 164.357443 314.172543 
L 166.02977 318.073163 
L 166.865934 295.482926 
L 167.702098 289.055652 
L 170.210589 296.641655 
L 171.046753 294.967445 
L 171.882917 301.599031 
L 172.719081 305.9882 
L 173.555245 306.404756 
L 176.063736 299.979874 
L 176.8999 305.492582 
L 177.736064 310.199718 
L 178.572228 314.22699 
L 179.408392 301.413562 
L 182.753047 304.97589 
L 183.589211 309.328859 
L 184.425375 311.444293 
L 185.261538 307.376745 
L 187.77003 311.065111 
L 188.606194 315.169275 
L 190.278521 321.214087 
L 191.114685 323.605481 
L 193.623177 321.783837 
L 194.459341 301.786685 
L 195.295504 307.09544 
L 196.131668 299.688221 
L 196.967832 304.694985 
L 199.476324 306.685077 
L 200.312488 302.410017 
L 201.148651 305.331538 
L 201.984815 305.724149 
L 202.820979 310.413455 
L 205.329471 313.217899 
L 206.165634 316.950148 
L 207.001798 315.758436 
L 207.837962 317.0361 
L 208.674126 317.834293 
L 211.182617 320.879827 
L 212.018781 323.382511 
L 213.691109 326.539236 
L 214.527273 321.316622 
L 217.035764 323.419328 
L 217.871928 322.759876 
L 218.708092 320.278315 
L 219.544256 312.755287 
L 220.38042 316.282481 
L 222.888911 315.329302 
L 223.725075 306.620209 
L 225.397403 313.164468 
L 228.742058 310.267651 
L 229.578222 314.343338 
L 230.414386 315.731239 
L 231.250549 315.115446 
L 232.086713 310.261952 
L 234.595205 294.547773 
L 235.431369 297.265359 
L 236.267532 294.143152 
L 237.103696 287.254628 
L 237.93986 289.359734 
L 240.448352 283.897969 
L 242.120679 297.490385 
L 242.956843 297.708922 
L 243.793007 282.056651 
L 247.137662 292.094464 
L 248.80999 304.018307 
L 249.646154 308.730882 
L 252.154645 308.790367 
L 252.990809 310.640057 
L 253.826973 313.405412 
L 254.663137 301.012142 
L 255.499301 304.23857 
L 258.007792 307.461763 
L 258.843956 309.801421 
L 259.68012 286.410049 
L 260.516284 293.951552 
L 261.352448 298.199144 
L 264.697103 296.946156 
L 266.369431 307.782043 
L 267.205594 307.509828 
L 269.714086 303.734867 
L 270.55025 306.700758 
L 271.386414 311.367386 
L 272.222577 315.387503 
L 273.058741 313.659808 
L 275.567233 306.083685 
L 276.403397 293.120573 
L 277.23956 299.670512 
L 278.075724 301.480699 
L 278.911888 294.870965 
L 282.256543 300.621806 
L 283.092707 299.8462 
L 283.928871 305.468955 
L 284.765035 310.148078 
L 287.273526 302.045245 
L 288.10969 304.471569 
L 288.945854 296.504878 
L 289.782018 302.413171 
L 290.618182 300.54592 
L 293.962837 305.898773 
L 294.799001 302.029106 
L 295.635165 306.633249 
L 296.471329 305.368949 
L 298.97982 309.905408 
L 299.815984 303.374505 
L 300.652148 306.105522 
L 301.488312 304.706151 
L 302.324476 309.022076 
L 304.832967 312.528185 
L 306.505295 304.396944 
L 307.341459 309.254323 
L 308.177622 313.388353 
L 310.686114 282.515464 
L 311.522278 290.100385 
L 312.358442 290.755542 
L 313.194605 277.239497 
L 314.030769 285.306166 
L 316.539261 291.389044 
L 318.211588 302.683932 
L 319.047752 304.969994 
L 319.883916 309.746268 
L 322.392408 313.524542 
L 323.228571 317.16207 
L 324.064735 319.871752 
L 324.900899 318.339799 
L 325.737063 320.550915 
L 328.245554 319.820877 
L 329.081718 322.447152 
L 329.917882 324.546367 
L 330.754046 321.470631 
L 331.59021 323.703605 
L 334.098701 318.09184 
L 334.934865 312.057133 
L 336.607193 318.945673 
L 337.443357 317.959281 
L 339.951848 287.683618 
L 341.624176 300.0897 
L 342.46034 304.935483 
L 343.296503 308.878357 
L 346.641159 309.638467 
L 347.477323 312.222982 
L 348.313487 312.062786 
L 349.14965 314.612161 
L 351.658142 315.539051 
L 352.494306 318.755007 
L 353.33047 284.852399 
L 354.166633 291.837874 
L 355.002797 294.811126 
L 357.511289 300.535957 
L 358.347453 305.584591 
L 359.183616 305.917949 
L 360.01978 306.822174 
L 360.855944 310.957985 
L 363.364436 312.414428 
L 364.200599 315.821988 
L 365.036763 318.252611 
L 365.872927 317.020652 
L 366.709091 311.360104 
L 369.217582 310.464303 
L 370.053746 309.290978 
L 370.88991 308.740655 
L 372.562238 316.192262 
L 375.070729 310.836211 
L 377.579221 319.359264 
L 378.415385 320.754067 
L 380.923876 314.656378 
L 381.76004 311.308695 
L 382.596204 314.781443 
L 383.432368 316.477465 
L 384.268531 319.377483 
L 386.777023 321.405605 
L 387.613187 322.410366 
L 388.449351 322.41783 
L 389.285514 249.348051 
L 390.121678 256.739108 
L 392.63017 261.164238 
L 393.466334 267.775765 
L 394.302498 263.744994 
L 395.138661 263.521424 
L 395.974825 261.780954 
L 398.483317 266.530798 
L 400.155644 281.11854 
L 400.991808 285.901453 
L 401.827972 273.472538 
L 404.336464 278.717483 
L 405.172627 285.380105 
L 406.008791 288.93988 
L 407.681119 300.108598 
L 410.18961 304.49857 
L 411.025774 304.753207 
L 411.861938 307.912318 
L 413.534266 310.704199 
L 416.042757 312.615958 
L 416.878921 313.781775 
L 417.715085 316.171319 
L 418.551249 301.447409 
L 419.387413 305.874029 
L 421.895904 309.613926 
L 422.732068 312.162 
L 423.568232 308.463042 
L 424.404396 307.138987 
L 425.240559 309.260753 
L 427.749051 311.815128 
L 428.585215 314.847018 
L 429.421379 314.828361 
L 430.257542 317.286272 
L 431.093706 300.979684 
L 433.602198 305.168147 
L 434.438362 305.71155 
L 436.110689 312.529755 
L 436.946853 310.57388 
L 440.291508 312.445963 
L 441.127672 310.984615 
L 441.963836 311.349984 
L 442.8 310.900124 
L 446.144655 314.02475 
L 446.980819 316.297019 
L 447.816983 317.520003 
L 448.653147 314.669372 
L 451.161638 316.222053 
L 452.833966 320.723688 
L 453.67013 317.14238 
L 454.506294 319.438269 
L 457.850949 321.138754 
L 459.523277 324.127069 
L 460.359441 322.830978 
L 462.867932 309.479878 
L 463.704096 311.141607 
L 464.54026 310.414188 
L 465.376424 307.563119 
L 468.721079 310.763848 
L 469.557243 306.696925 
L 470.393407 308.676817 
L 471.22957 311.002341 
L 472.065734 293.325634 
L 474.574226 289.883813 
L 475.41039 293.300123 
L 476.246553 291.080226 
L 477.082717 258.393756 
L 477.918881 255.473217 
L 480.427373 264.386391 
L 482.0997 279.863141 
L 483.772028 289.377905 
L 487.116683 293.866681 
L 487.952847 293.319756 
L 488.789011 298.551354 
L 489.625175 302.788369 
L 492.133666 303.863825 
L 494.642158 315.00393 
L 495.478322 315.54436 
L 497.986813 316.322389 
L 498.822977 317.395308 
L 499.659141 317.540373 
L 500.495305 320.01604 
L 501.331469 317.090431 
L 503.83996 316.165823 
L 504.676124 318.624574 
L 505.512288 316.209287 
L 506.348452 315.431387 
L 507.184615 306.415702 
L 509.693107 309.369624 
L 510.529271 312.72406 
L 511.365435 307.780256 
L 513.037762 310.756238 
L 515.546254 314.172201 
L 516.382418 308.86185 
L 517.218581 309.796241 
L 518.054745 313.136526 
L 518.890909 315.899717 
L 521.399401 314.531404 
L 523.907892 321.923345 
L 527.252547 315.163337 
L 528.088711 314.572663 
L 528.924875 316.836417 
L 529.761039 318.664116 
L 530.597203 316.235181 
L 533.105694 318.096438 
L 533.941858 312.23599 
L 534.778022 313.87466 
L 535.614186 316.831618 
L 536.45035 319.004772 
L 538.958841 321.352164 
L 539.795005 322.954863 
L 540.631169 319.855936 
L 541.467333 322.070047 
L 542.303497 315.481295 
L 544.811988 318.234526 
L 545.648152 320.411063 
L 546.484316 319.580877 
L 547.32048 321.820117 
L 548.156643 322.907092 
L 550.665135 324.122097 
L 551.501299 323.34641 
L 552.337463 325.029659 
L 553.173626 316.567379 
L 554.00979 309.51768 
L 556.518282 312.661804 
L 557.354446 315.145794 
L 558.190609 313.744519 
L 559.026773 315.962481 
L 559.862937 316.971429 
L 562.371429 319.5436 
L 563.207592 318.948225 
L 564.043756 316.616962 
L 564.87992 317.296482 
L 565.716084 316.835898 
L 569.060739 318.962266 
L 569.896903 320.843441 
L 570.733067 321.72128 
L 571.569231 323.262196 
L 574.077722 324.719429 
L 575.75005 326.207056 
L 576.586214 310.697397 
L 577.422378 313.948994 
L 579.930869 316.828369 
L 580.767033 318.493627 
L 582.439361 322.887406 
L 583.275524 323.820132 
L 586.62018 323.240669 
L 587.456344 324.968366 
L 588.292507 321.284938 
L 589.128671 320.337478 
L 591.637163 321.919848 
L 592.473327 312.848491 
L 593.309491 315.871218 
L 594.145654 316.744571 
L 594.981818 318.460959 
L 597.49031 320.395032 
L 599.162637 322.366191 
L 599.998801 322.288114 
L 600.834965 321.937892 
L 603.343457 323.353442 
L 604.17962 316.802821 
L 605.015784 319.023483 
L 605.851948 319.656607 
L 606.688112 311.28438 
L 609.196603 314.212064 
L 610.032767 316.786575 
L 610.868931 318.658916 
L 611.705095 319.757465 
L 612.541259 314.502733 
L 615.04975 317.029926 
L 615.885914 318.499445 
L 616.722078 320.457324 
L 617.558242 306.355724 
L 618.394406 310.082084 
L 620.902897 310.311047 
L 621.739061 313.575982 
L 622.575225 315.611951 
L 623.411389 312.18392 
L 624.247552 315.163754 
L 626.756044 317.776622 
L 627.592208 316.217611 
L 628.428372 318.743718 
L 629.264535 319.218821 
L 630.100699 321.395321 
L 633.445355 323.967993 
L 634.281518 323.917475 
L 635.953846 325.399236 
L 638.462338 322.936601 
L 640.134665 325.728398 
L 641.806993 319.317834 
L 644.315485 321.458823 
L 645.151648 322.924041 
L 645.987812 319.939536 
L 646.823976 321.35546 
L 647.66014 323.218705 
L 651.004795 324.721132 
L 651.840959 326.219141 
L 652.677123 326.340375 
L 653.513287 327.383036 
L 656.021778 328.174685 
L 656.857942 329.130312 
L 657.694106 328.129604 
L 659.366434 328.627535 
L 661.874925 329.309321 
L 663.547253 330.870827 
L 664.383417 320.002801 
L 665.21958 315.898519 
L 667.728072 318.501089 
L 668.564236 320.492173 
L 669.4004 317.917315 
L 670.236563 318.88102 
L 671.072727 320.159114 
L 673.581219 321.200072 
L 674.417383 319.458212 
L 675.253546 319.52815 
L 676.08971 318.837034 
L 676.925874 321.003665 
L 679.434366 320.577761 
L 681.106693 324.12787 
L 681.942857 323.688217 
L 682.779021 324.149787 
L 685.287512 323.960578 
L 686.123676 324.358229 
L 686.95984 325.817111 
L 687.796004 325.376949 
L 688.632168 326.733782 
L 691.140659 324.77823 
L 691.976823 325.803526 
L 692.812987 325.490836 
L 693.649151 257.793706 
L 694.485315 262.955464 
L 696.993806 271.006664 
L 698.666134 283.388516 
L 700.338462 293.187402 
L 702.846953 297.287479 
L 704.519281 305.350724 
L 705.355445 308.890864 
L 706.191608 311.034906 
L 708.7001 312.454625 
L 709.536264 315.385766 
L 710.372428 317.027566 
L 711.208591 319.248349 
L 712.044755 319.664314 
L 714.553247 320.083978 
L 716.225574 323.611396 
L 717.897902 324.589497 
L 720.406394 324.149447 
L 721.242557 325.731641 
L 722.078721 327.002602 
L 722.914885 325.006318 
L 723.751049 322.552423 
L 726.25954 324.110815 
L 727.095704 320.98732 
L 727.931868 321.808881 
L 728.768032 323.092844 
L 729.604196 309.274729 
L 732.112687 311.118602 
L 732.948851 312.381463 
L 735.457343 319.506234 
L 737.965834 321.497185 
L 738.801998 319.648254 
L 739.638162 321.497813 
L 740.474326 322.589432 
L 741.31049 322.861864 
L 744.655145 324.304849 
L 745.491309 325.829993 
L 746.327473 326.00011 
L 747.163636 327.284777 
L 747.163636 327.284777 
" clip-path="url(#p02ee82bcf3)" style="fill: none; stroke: #1f77b4; stroke-width: 1.5; stroke-linecap: square"/>
   </g>
   <g id="patch_3">
    <path d="M 108 384.48 
L 108 51.84 
" style="fill: none; stroke: #000000; stroke-width: 0.8; stroke-linejoin: miter; stroke-linecap: square"/>
   </g>
   <g id="patch_4">
    <path d="M 777.6 384.48 
L 777.6 51.84 
" style="fill: none; stroke: #000000; stroke-width: 0.8; stroke-linejoin: miter; stroke-linecap: square"/>
   </g>
   <g id="patch_5">
    <path d="M 108 384.48 
L 777.6 384.48 
" style="fill: none; stroke: #000000; stroke-width: 0.8; stroke-linejoin: miter; stroke-linecap: square"/>
   </g>
   <g id="patch_6">
    <path d="M 108 51.84 
L 777.6 51.84 
" style="fill: none; stroke: #000000; stroke-width: 0.8; stroke-linejoin: miter; stroke-linecap: square"/>
   </g>
   <g id="text_18">
    <!-- Volatility Prediction with GARCH-GJR -->
    <g transform="translate(334.341563 45.84) scale(0.12 -0.12)">
     <defs>
      <path id="DejaVuSans-20" transform="scale(0.015625)"/>
      <path id="DejaVuSans-50" d="M 1259 4147 
L 1259 2394 
L 2053 2394 
Q 2494 2394 2734 2622 
Q 2975 2850 2975 3272 
Q 2975 3691 2734 3919 
Q 2494 4147 2053 4147 
L 1259 4147 
z
M 628 4666 
L 2053 4666 
Q 2838 4666 3239 4311 
Q 3641 3956 3641 3272 
Q 3641 2581 3239 2228 
Q 2838 1875 2053 1875 
L 1259 1875 
L 1259 0 
L 628 0 
L 628 4666 
z
" transform="scale(0.015625)"/>
      <path id="DejaVuSans-72" d="M 2631 2963 
Q 2534 3019 2420 3045 
Q 2306 3072 2169 3072 
Q 1681 3072 1420 2755 
Q 1159 2438 1159 1844 
L 1159 0 
L 581 0 
L 581 3500 
L 1159 3500 
L 1159 2956 
Q 1341 3275 1631 3429 
Q 1922 3584 2338 3584 
Q 2397 3584 2469 3576 
Q 2541 3569 2628 3553 
L 2631 2963 
z
" transform="scale(0.015625)"/>
      <path id="DejaVuSans-64" d="M 2906 2969 
L 2906 4863 
L 3481 4863 
L 3481 0 
L 2906 0 
L 2906 525 
Q 2725 213 2448 61 
Q 2172 -91 1784 -91 
Q 1150 -91 751 415 
Q 353 922 353 1747 
Q 353 2572 751 3078 
Q 1150 3584 1784 3584 
Q 2172 3584 2448 3432 
Q 2725 3281 2906 2969 
z
M 947 1747 
Q 947 1113 1208 752 
Q 1469 391 1925 391 
Q 2381 391 2643 752 
Q 2906 1113 2906 1747 
Q 2906 2381 2643 2742 
Q 2381 3103 1925 3103 
Q 1469 3103 1208 2742 
Q 947 2381 947 1747 
z
" transform="scale(0.015625)"/>
      <path id="DejaVuSans-63" d="M 3122 3366 
L 3122 2828 
Q 2878 2963 2633 3030 
Q 2388 3097 2138 3097 
Q 1578 3097 1268 2742 
Q 959 2388 959 1747 
Q 959 1106 1268 751 
Q 1578 397 2138 397 
Q 2388 397 2633 464 
Q 2878 531 3122 666 
L 3122 134 
Q 2881 22 2623 -34 
Q 2366 -91 2075 -91 
Q 1284 -91 818 406 
Q 353 903 353 1747 
Q 353 2603 823 3093 
Q 1294 3584 2113 3584 
Q 2378 3584 2631 3529 
Q 2884 3475 3122 3366 
z
" transform="scale(0.015625)"/>
      <path id="DejaVuSans-6e" d="M 3513 2113 
L 3513 0 
L 2938 0 
L 2938 2094 
Q 2938 2591 2744 2837 
Q 2550 3084 2163 3084 
Q 1697 3084 1428 2787 
Q 1159 2491 1159 1978 
L 1159 0 
L 581 0 
L 581 3500 
L 1159 3500 
L 1159 2956 
Q 1366 3272 1645 3428 
Q 1925 3584 2291 3584 
Q 2894 3584 3203 3211 
Q 3513 2838 3513 2113 
z
" transform="scale(0.015625)"/>
      <path id="DejaVuSans-77" d="M 269 3500 
L 844 3500 
L 1563 769 
L 2278 3500 
L 2956 3500 
L 3675 769 
L 4391 3500 
L 4966 3500 
L 4050 0 
L 3372 0 
L 2619 2869 
L 1863 0 
L 1184 0 
L 269 3500 
z
" transform="scale(0.015625)"/>
      <path id="DejaVuSans-68" d="M 3513 2113 
L 3513 0 
L 2938 0 
L 2938 2094 
Q 2938 2591 2744 2837 
Q 2550 3084 2163 3084 
Q 1697 3084 1428 2787 
Q 1159 2491 1159 1978 
L 1159 0 
L 581 0 
L 581 4863 
L 1159 4863 
L 1159 2956 
Q 1366 3272 1645 3428 
Q 1925 3584 2291 3584 
Q 2894 3584 3203 3211 
Q 3513 2838 3513 2113 
z
" transform="scale(0.015625)"/>
      <path id="DejaVuSans-47" d="M 3809 666 
L 3809 1919 
L 2778 1919 
L 2778 2438 
L 4434 2438 
L 4434 434 
Q 4069 175 3628 42 
Q 3188 -91 2688 -91 
Q 1594 -91 976 548 
Q 359 1188 359 2328 
Q 359 3472 976 4111 
Q 1594 4750 2688 4750 
Q 3144 4750 3555 4637 
Q 3966 4525 4313 4306 
L 4313 3634 
Q 3963 3931 3569 4081 
Q 3175 4231 2741 4231 
Q 1884 4231 1454 3753 
Q 1025 3275 1025 2328 
Q 1025 1384 1454 906 
Q 1884 428 2741 428 
Q 3075 428 3337 486 
Q 3600 544 3809 666 
z
" transform="scale(0.015625)"/>
      <path id="DejaVuSans-41" d="M 2188 4044 
L 1331 1722 
L 3047 1722 
L 2188 4044 
z
M 1831 4666 
L 2547 4666 
L 4325 0 
L 3669 0 
L 3244 1197 
L 1141 1197 
L 716 0 
L 50 0 
L 1831 4666 
z
" transform="scale(0.015625)"/>
      <path id="DejaVuSans-52" d="M 2841 2188 
Q 3044 2119 3236 1894 
Q 3428 1669 3622 1275 
L 4263 0 
L 3584 0 
L 2988 1197 
Q 2756 1666 2539 1819 
Q 2322 1972 1947 1972 
L 1259 1972 
L 1259 0 
L 628 0 
L 628 4666 
L 2053 4666 
Q 2853 4666 3247 4331 
Q 3641 3997 3641 3322 
Q 3641 2881 3436 2590 
Q 3231 2300 2841 2188 
z
M 1259 4147 
L 1259 2491 
L 2053 2491 
Q 2509 2491 2742 2702 
Q 2975 2913 2975 3322 
Q 2975 3731 2742 3939 
Q 2509 4147 2053 4147 
L 1259 4147 
z
" transform="scale(0.015625)"/>
      <path id="DejaVuSans-43" d="M 4122 4306 
L 4122 3641 
Q 3803 3938 3442 4084 
Q 3081 4231 2675 4231 
Q 1875 4231 1450 3742 
Q 1025 3253 1025 2328 
Q 1025 1406 1450 917 
Q 1875 428 2675 428 
Q 3081 428 3442 575 
Q 3803 722 4122 1019 
L 4122 359 
Q 3791 134 3420 21 
Q 3050 -91 2638 -91 
Q 1578 -91 968 557 
Q 359 1206 359 2328 
Q 359 3453 968 4101 
Q 1578 4750 2638 4750 
Q 3056 4750 3426 4639 
Q 3797 4528 4122 4306 
z
" transform="scale(0.015625)"/>
      <path id="DejaVuSans-48" d="M 628 4666 
L 1259 4666 
L 1259 2753 
L 3553 2753 
L 3553 4666 
L 4184 4666 
L 4184 0 
L 3553 0 
L 3553 2222 
L 1259 2222 
L 1259 0 
L 628 0 
L 628 4666 
z
" transform="scale(0.015625)"/>
      <path id="DejaVuSans-4a" d="M 628 4666 
L 1259 4666 
L 1259 325 
Q 1259 -519 939 -900 
Q 619 -1281 -91 -1281 
L -331 -1281 
L -331 -750 
L -134 -750 
Q 284 -750 456 -515 
Q 628 -281 628 325 
L 628 4666 
z
" transform="scale(0.015625)"/>
     </defs>
     <use xlink:href="#DejaVuSans-56"/>
     <use xlink:href="#DejaVuSans-6f" transform="translate(60.658203 0)"/>
     <use xlink:href="#DejaVuSans-6c" transform="translate(121.839844 0)"/>
     <use xlink:href="#DejaVuSans-61" transform="translate(149.623047 0)"/>
     <use xlink:href="#DejaVuSans-74" transform="translate(210.902344 0)"/>
     <use xlink:href="#DejaVuSans-69" transform="translate(250.111328 0)"/>
     <use xlink:href="#DejaVuSans-6c" transform="translate(277.894531 0)"/>
     <use xlink:href="#DejaVuSans-69" transform="translate(305.677734 0)"/>
     <use xlink:href="#DejaVuSans-74" transform="translate(333.460938 0)"/>
     <use xlink:href="#DejaVuSans-79" transform="translate(372.669922 0)"/>
     <use xlink:href="#DejaVuSans-20" transform="translate(431.849609 0)"/>
     <use xlink:href="#DejaVuSans-50" transform="translate(463.636719 0)"/>
     <use xlink:href="#DejaVuSans-72" transform="translate(522.189453 0)"/>
     <use xlink:href="#DejaVuSans-65" transform="translate(561.052734 0)"/>
     <use xlink:href="#DejaVuSans-64" transform="translate(622.576172 0)"/>
     <use xlink:href="#DejaVuSans-69" transform="translate(686.052734 0)"/>
     <use xlink:href="#DejaVuSans-63" transform="translate(713.835938 0)"/>
     <use xlink:href="#DejaVuSans-74" transform="translate(768.816406 0)"/>
     <use xlink:href="#DejaVuSans-69" transform="translate(808.025391 0)"/>
     <use xlink:href="#DejaVuSans-6f" transform="translate(835.808594 0)"/>
     <use xlink:href="#DejaVuSans-6e" transform="translate(896.990234 0)"/>
     <use xlink:href="#DejaVuSans-20" transform="translate(960.369141 0)"/>
     <use xlink:href="#DejaVuSans-77" transform="translate(992.15625 0)"/>
     <use xlink:href="#DejaVuSans-69" transform="translate(1073.943359 0)"/>
     <use xlink:href="#DejaVuSans-74" transform="translate(1101.726562 0)"/>
     <use xlink:href="#DejaVuSans-68" transform="translate(1140.935547 0)"/>
     <use xlink:href="#DejaVuSans-20" transform="translate(1204.314453 0)"/>
     <use xlink:href="#DejaVuSans-47" transform="translate(1236.101562 0)"/>
     <use xlink:href="#DejaVuSans-41" transform="translate(1313.591797 0)"/>
     <use xlink:href="#DejaVuSans-52" transform="translate(1382 0)"/>
     <use xlink:href="#DejaVuSans-43" transform="translate(1446.482422 0)"/>
     <use xlink:href="#DejaVuSans-48" transform="translate(1516.306641 0)"/>
     <use xlink:href="#DejaVuSans-2d" transform="translate(1591.501953 0)"/>
     <use xlink:href="#DejaVuSans-47" transform="translate(1631.210938 0)"/>
     <use xlink:href="#DejaVuSans-4a" transform="translate(1708.701172 0)"/>
     <use xlink:href="#DejaVuSans-52" transform="translate(1738.193359 0)"/>
    </g>
   </g>
   <g id="legend_1">
    <g id="patch_7">
     <path d="M 115 89.19625 
L 303.371875 89.19625 
Q 305.371875 89.19625 305.371875 87.19625 
L 305.371875 58.84 
Q 305.371875 56.84 303.371875 56.84 
L 115 56.84 
Q 113 56.84 113 58.84 
L 113 87.19625 
Q 113 89.19625 115 89.19625 
z
" style="fill: #ffffff; opacity: 0.8; stroke: #cccccc; stroke-linejoin: miter"/>
    </g>
    <g id="line2d_18">
     <path d="M 117 64.938437 
L 127 64.938437 
L 137 64.938437 
" style="fill: none; stroke: #000000; stroke-width: 1.5; stroke-linecap: square"/>
    </g>
    <g id="text_19">
     <!-- Absolute Returns -->
     <g transform="translate(145 68.438437) scale(0.1 -0.1)">
      <defs>
       <path id="DejaVuSans-62" d="M 3116 1747 
Q 3116 2381 2855 2742 
Q 2594 3103 2138 3103 
Q 1681 3103 1420 2742 
Q 1159 2381 1159 1747 
Q 1159 1113 1420 752 
Q 1681 391 2138 391 
Q 2594 391 2855 752 
Q 3116 1113 3116 1747 
z
M 1159 2969 
Q 1341 3281 1617 3432 
Q 1894 3584 2278 3584 
Q 2916 3584 3314 3078 
Q 3713 2572 3713 1747 
Q 3713 922 3314 415 
Q 2916 -91 2278 -91 
Q 1894 -91 1617 61 
Q 1341 213 1159 525 
L 1159 0 
L 581 0 
L 581 4863 
L 1159 4863 
L 1159 2969 
z
" transform="scale(0.015625)"/>
       <path id="DejaVuSans-73" d="M 2834 3397 
L 2834 2853 
Q 2591 2978 2328 3040 
Q 2066 3103 1784 3103 
Q 1356 3103 1142 2972 
Q 928 2841 928 2578 
Q 928 2378 1081 2264 
Q 1234 2150 1697 2047 
L 1894 2003 
Q 2506 1872 2764 1633 
Q 3022 1394 3022 966 
Q 3022 478 2636 193 
Q 2250 -91 1575 -91 
Q 1294 -91 989 -36 
Q 684 19 347 128 
L 347 722 
Q 666 556 975 473 
Q 1284 391 1588 391 
Q 1994 391 2212 530 
Q 2431 669 2431 922 
Q 2431 1156 2273 1281 
Q 2116 1406 1581 1522 
L 1381 1569 
Q 847 1681 609 1914 
Q 372 2147 372 2553 
Q 372 3047 722 3315 
Q 1072 3584 1716 3584 
Q 2034 3584 2315 3537 
Q 2597 3491 2834 3397 
z
" transform="scale(0.015625)"/>
       <path id="DejaVuSans-75" d="M 544 1381 
L 544 3500 
L 1119 3500 
L 1119 1403 
Q 1119 906 1312 657 
Q 1506 409 1894 409 
Q 2359 409 2629 706 
Q 2900 1003 2900 1516 
L 2900 3500 
L 3475 3500 
L 3475 0 
L 2900 0 
L 2900 538 
Q 2691 219 2414 64 
Q 2138 -91 1772 -91 
Q 1169 -91 856 284 
Q 544 659 544 1381 
z
M 1991 3584 
L 1991 3584 
z
" transform="scale(0.015625)"/>
      </defs>
      <use xlink:href="#DejaVuSans-41"/>
      <use xlink:href="#DejaVuSans-62" transform="translate(68.408203 0)"/>
      <use xlink:href="#DejaVuSans-73" transform="translate(131.884766 0)"/>
      <use xlink:href="#DejaVuSans-6f" transform="translate(183.984375 0)"/>
      <use xlink:href="#DejaVuSans-6c" transform="translate(245.166016 0)"/>
      <use xlink:href="#DejaVuSans-75" transform="translate(272.949219 0)"/>
      <use xlink:href="#DejaVuSans-74" transform="translate(336.328125 0)"/>
      <use xlink:href="#DejaVuSans-65" transform="translate(375.537109 0)"/>
      <use xlink:href="#DejaVuSans-20" transform="translate(437.060547 0)"/>
      <use xlink:href="#DejaVuSans-52" transform="translate(468.847656 0)"/>
      <use xlink:href="#DejaVuSans-65" transform="translate(533.830078 0)"/>
      <use xlink:href="#DejaVuSans-74" transform="translate(595.353516 0)"/>
      <use xlink:href="#DejaVuSans-75" transform="translate(634.5625 0)"/>
      <use xlink:href="#DejaVuSans-72" transform="translate(697.941406 0)"/>
      <use xlink:href="#DejaVuSans-6e" transform="translate(737.304688 0)"/>
      <use xlink:href="#DejaVuSans-73" transform="translate(800.683594 0)"/>
     </g>
    </g>
    <g id="line2d_19">
     <path d="M 117 79.616562 
L 127 79.616562 
L 137 79.616562 
" style="fill: none; stroke: #1f77b4; stroke-width: 1.5; stroke-linecap: square"/>
    </g>
    <g id="text_20">
     <!-- GARCH-GJR Volatility Prediction -->
     <g transform="translate(145 83.116562) scale(0.1 -0.1)">
      <use xlink:href="#DejaVuSans-47"/>
      <use xlink:href="#DejaVuSans-41" transform="translate(77.490234 0)"/>
      <use xlink:href="#DejaVuSans-52" transform="translate(145.898438 0)"/>
      <use xlink:href="#DejaVuSans-43" transform="translate(210.380859 0)"/>
      <use xlink:href="#DejaVuSans-48" transform="translate(280.205078 0)"/>
      <use xlink:href="#DejaVuSans-2d" transform="translate(355.400391 0)"/>
      <use xlink:href="#DejaVuSans-47" transform="translate(395.109375 0)"/>
      <use xlink:href="#DejaVuSans-4a" transform="translate(472.599609 0)"/>
      <use xlink:href="#DejaVuSans-52" transform="translate(502.091797 0)"/>
      <use xlink:href="#DejaVuSans-20" transform="translate(571.574219 0)"/>
      <use xlink:href="#DejaVuSans-56" transform="translate(603.361328 0)"/>
      <use xlink:href="#DejaVuSans-6f" transform="translate(664.019531 0)"/>
      <use xlink:href="#DejaVuSans-6c" transform="translate(725.201172 0)"/>
      <use xlink:href="#DejaVuSans-61" transform="translate(752.984375 0)"/>
      <use xlink:href="#DejaVuSans-74" transform="translate(814.263672 0)"/>
      <use xlink:href="#DejaVuSans-69" transform="translate(853.472656 0)"/>
      <use xlink:href="#DejaVuSans-6c" transform="translate(881.255859 0)"/>
      <use xlink:href="#DejaVuSans-69" transform="translate(909.039062 0)"/>
      <use xlink:href="#DejaVuSans-74" transform="translate(936.822266 0)"/>
      <use xlink:href="#DejaVuSans-79" transform="translate(976.03125 0)"/>
      <use xlink:href="#DejaVuSans-20" transform="translate(1035.210938 0)"/>
      <use xlink:href="#DejaVuSans-50" transform="translate(1066.998047 0)"/>
      <use xlink:href="#DejaVuSans-72" transform="translate(1125.550781 0)"/>
      <use xlink:href="#DejaVuSans-65" transform="translate(1164.414062 0)"/>
      <use xlink:href="#DejaVuSans-64" transform="translate(1225.9375 0)"/>
      <use xlink:href="#DejaVuSans-69" transform="translate(1289.414062 0)"/>
      <use xlink:href="#DejaVuSans-63" transform="translate(1317.197266 0)"/>
      <use xlink:href="#DejaVuSans-74" transform="translate(1372.177734 0)"/>
      <use xlink:href="#DejaVuSans-69" transform="translate(1411.386719 0)"/>
      <use xlink:href="#DejaVuSans-6f" transform="translate(1439.169922 0)"/>
      <use xlink:href="#DejaVuSans-6e" transform="translate(1500.351562 0)"/>
     </g>
    </g>
   </g>
  </g>
 </g>
 <defs>
  <clipPath id="p02ee82bcf3">
   <rect x="108" y="51.84" width="669.6" height="332.64"/>
  </clipPath>
 </defs>
</svg>
