<?xml version="1.0" encoding="utf-8" standalone="no"?>
<!DOCTYPE svg PUBLIC "-//W3C//DTD SVG 1.1//EN"
  "http://www.w3.org/Graphics/SVG/1.1/DTD/svg11.dtd">
<svg xmlns:xlink="http://www.w3.org/1999/xlink" width="864pt" height="432pt" viewBox="0 0 864 432" xmlns="http://www.w3.org/2000/svg" version="1.1">
 <metadata>
  <rdf:RDF xmlns:dc="http://purl.org/dc/elements/1.1/" xmlns:cc="http://creativecommons.org/ns#" xmlns:rdf="http://www.w3.org/1999/02/22-rdf-syntax-ns#">
   <cc:Work>
    <dc:type rdf:resource="http://purl.org/dc/dcmitype/StillImage"/>
    <dc:date>2024-11-09T18:44:06.781048</dc:date>
    <dc:format>image/svg+xml</dc:format>
    <dc:creator>
     <cc:Agent>
      <dc:title>Matplotlib v3.6.3, https://matplotlib.org/</dc:title>
     </cc:Agent>
    </dc:creator>
   </cc:Work>
  </rdf:RDF>
 </metadata>
 <defs>
  <style type="text/css">*{stroke-linejoin: round; stroke-linecap: butt}</style>
 </defs>
 <g id="figure_1">
  <g id="patch_1">
   <path d="M 0 432 
L 864 432 
L 864 0 
L 0 0 
z
" style="fill: #ffffff"/>
  </g>
  <g id="axes_1">
   <g id="patch_2">
    <path d="M 108 384.48 
L 777.6 384.48 
L 777.6 51.84 
L 108 51.84 
z
" style="fill: #ffffff"/>
   </g>
   <g id="matplotlib.axis_1">
    <g id="xtick_1">
     <g id="line2d_1">
      <defs>
       <path id="m7b30efeffa" d="M 0 0 
L 0 3.5 
" style="stroke: #000000; stroke-width: 0.8"/>
      </defs>
      <g>
       <use xlink:href="#m7b30efeffa" x="138.822612" y="384.48" style="stroke: #000000; stroke-width: 0.8"/>
      </g>
     </g>
     <g id="text_1">
      <!-- 2020-07 -->
      <g transform="translate(117.931206 399.078438) scale(0.1 -0.1)">
       <defs>
        <path id="DejaVuSans-32" d="M 1228 531 
L 3431 531 
L 3431 0 
L 469 0 
L 469 531 
Q 828 903 1448 1529 
Q 2069 2156 2228 2338 
Q 2531 2678 2651 2914 
Q 2772 3150 2772 3378 
Q 2772 3750 2511 3984 
Q 2250 4219 1831 4219 
Q 1534 4219 1204 4116 
Q 875 4013 500 3803 
L 500 4441 
Q 881 4594 1212 4672 
Q 1544 4750 1819 4750 
Q 2544 4750 2975 4387 
Q 3406 4025 3406 3419 
Q 3406 3131 3298 2873 
Q 3191 2616 2906 2266 
Q 2828 2175 2409 1742 
Q 1991 1309 1228 531 
z
" transform="scale(0.015625)"/>
        <path id="DejaVuSans-30" d="M 2034 4250 
Q 1547 4250 1301 3770 
Q 1056 3291 1056 2328 
Q 1056 1369 1301 889 
Q 1547 409 2034 409 
Q 2525 409 2770 889 
Q 3016 1369 3016 2328 
Q 3016 3291 2770 3770 
Q 2525 4250 2034 4250 
z
M 2034 4750 
Q 2819 4750 3233 4129 
Q 3647 3509 3647 2328 
Q 3647 1150 3233 529 
Q 2819 -91 2034 -91 
Q 1250 -91 836 529 
Q 422 1150 422 2328 
Q 422 3509 836 4129 
Q 1250 4750 2034 4750 
z
" transform="scale(0.015625)"/>
        <path id="DejaVuSans-2d" d="M 313 2009 
L 1997 2009 
L 1997 1497 
L 313 1497 
L 313 2009 
z
" transform="scale(0.015625)"/>
        <path id="DejaVuSans-37" d="M 525 4666 
L 3525 4666 
L 3525 4397 
L 1831 0 
L 1172 0 
L 2766 4134 
L 525 4134 
L 525 4666 
z
" transform="scale(0.015625)"/>
       </defs>
       <use xlink:href="#DejaVuSans-32"/>
       <use xlink:href="#DejaVuSans-30" x="63.623047"/>
       <use xlink:href="#DejaVuSans-32" x="127.246094"/>
       <use xlink:href="#DejaVuSans-30" x="190.869141"/>
       <use xlink:href="#DejaVuSans-2d" x="254.492188"/>
       <use xlink:href="#DejaVuSans-30" x="290.576172"/>
       <use xlink:href="#DejaVuSans-37" x="354.199219"/>
      </g>
     </g>
    </g>
    <g id="xtick_2">
     <g id="line2d_2">
      <g>
       <use xlink:href="#m7b30efeffa" x="209.892293" y="384.48" style="stroke: #000000; stroke-width: 0.8"/>
      </g>
     </g>
     <g id="text_2">
      <!-- 2021-01 -->
      <g transform="translate(189.000887 399.078438) scale(0.1 -0.1)">
       <defs>
        <path id="DejaVuSans-31" d="M 794 531 
L 1825 531 
L 1825 4091 
L 703 3866 
L 703 4441 
L 1819 4666 
L 2450 4666 
L 2450 531 
L 3481 531 
L 3481 0 
L 794 0 
L 794 531 
z
" transform="scale(0.015625)"/>
       </defs>
       <use xlink:href="#DejaVuSans-32"/>
       <use xlink:href="#DejaVuSans-30" x="63.623047"/>
       <use xlink:href="#DejaVuSans-32" x="127.246094"/>
       <use xlink:href="#DejaVuSans-31" x="190.869141"/>
       <use xlink:href="#DejaVuSans-2d" x="254.492188"/>
       <use xlink:href="#DejaVuSans-30" x="290.576172"/>
       <use xlink:href="#DejaVuSans-31" x="354.199219"/>
      </g>
     </g>
    </g>
    <g id="xtick_3">
     <g id="line2d_3">
      <g>
       <use xlink:href="#m7b30efeffa" x="279.80323" y="384.48" style="stroke: #000000; stroke-width: 0.8"/>
      </g>
     </g>
     <g id="text_3">
      <!-- 2021-07 -->
      <g transform="translate(258.911824 399.078438) scale(0.1 -0.1)">
       <use xlink:href="#DejaVuSans-32"/>
       <use xlink:href="#DejaVuSans-30" x="63.623047"/>
       <use xlink:href="#DejaVuSans-32" x="127.246094"/>
       <use xlink:href="#DejaVuSans-31" x="190.869141"/>
       <use xlink:href="#DejaVuSans-2d" x="254.492188"/>
       <use xlink:href="#DejaVuSans-30" x="290.576172"/>
       <use xlink:href="#DejaVuSans-37" x="354.199219"/>
      </g>
     </g>
    </g>
    <g id="xtick_4">
     <g id="line2d_4">
      <g>
       <use xlink:href="#m7b30efeffa" x="350.872912" y="384.48" style="stroke: #000000; stroke-width: 0.8"/>
      </g>
     </g>
     <g id="text_4">
      <!-- 2022-01 -->
      <g transform="translate(329.981506 399.078438) scale(0.1 -0.1)">
       <use xlink:href="#DejaVuSans-32"/>
       <use xlink:href="#DejaVuSans-30" x="63.623047"/>
       <use xlink:href="#DejaVuSans-32" x="127.246094"/>
       <use xlink:href="#DejaVuSans-32" x="190.869141"/>
       <use xlink:href="#DejaVuSans-2d" x="254.492188"/>
       <use xlink:href="#DejaVuSans-30" x="290.576172"/>
       <use xlink:href="#DejaVuSans-31" x="354.199219"/>
      </g>
     </g>
    </g>
    <g id="xtick_5">
     <g id="line2d_5">
      <g>
       <use xlink:href="#m7b30efeffa" x="420.783849" y="384.48" style="stroke: #000000; stroke-width: 0.8"/>
      </g>
     </g>
     <g id="text_5">
      <!-- 2022-07 -->
      <g transform="translate(399.892442 399.078438) scale(0.1 -0.1)">
       <use xlink:href="#DejaVuSans-32"/>
       <use xlink:href="#DejaVuSans-30" x="63.623047"/>
       <use xlink:href="#DejaVuSans-32" x="127.246094"/>
       <use xlink:href="#DejaVuSans-32" x="190.869141"/>
       <use xlink:href="#DejaVuSans-2d" x="254.492188"/>
       <use xlink:href="#DejaVuSans-30" x="290.576172"/>
       <use xlink:href="#DejaVuSans-37" x="354.199219"/>
      </g>
     </g>
    </g>
    <g id="xtick_6">
     <g id="line2d_6">
      <g>
       <use xlink:href="#m7b30efeffa" x="491.85353" y="384.48" style="stroke: #000000; stroke-width: 0.8"/>
      </g>
     </g>
     <g id="text_6">
      <!-- 2023-01 -->
      <g transform="translate(470.962124 399.078438) scale(0.1 -0.1)">
       <defs>
        <path id="DejaVuSans-33" d="M 2597 2516 
Q 3050 2419 3304 2112 
Q 3559 1806 3559 1356 
Q 3559 666 3084 287 
Q 2609 -91 1734 -91 
Q 1441 -91 1130 -33 
Q 819 25 488 141 
L 488 750 
Q 750 597 1062 519 
Q 1375 441 1716 441 
Q 2309 441 2620 675 
Q 2931 909 2931 1356 
Q 2931 1769 2642 2001 
Q 2353 2234 1838 2234 
L 1294 2234 
L 1294 2753 
L 1863 2753 
Q 2328 2753 2575 2939 
Q 2822 3125 2822 3475 
Q 2822 3834 2567 4026 
Q 2313 4219 1838 4219 
Q 1578 4219 1281 4162 
Q 984 4106 628 3988 
L 628 4550 
Q 988 4650 1302 4700 
Q 1616 4750 1894 4750 
Q 2613 4750 3031 4423 
Q 3450 4097 3450 3541 
Q 3450 3153 3228 2886 
Q 3006 2619 2597 2516 
z
" transform="scale(0.015625)"/>
       </defs>
       <use xlink:href="#DejaVuSans-32"/>
       <use xlink:href="#DejaVuSans-30" x="63.623047"/>
       <use xlink:href="#DejaVuSans-32" x="127.246094"/>
       <use xlink:href="#DejaVuSans-33" x="190.869141"/>
       <use xlink:href="#DejaVuSans-2d" x="254.492188"/>
       <use xlink:href="#DejaVuSans-30" x="290.576172"/>
       <use xlink:href="#DejaVuSans-31" x="354.199219"/>
      </g>
     </g>
    </g>
    <g id="xtick_7">
     <g id="line2d_7">
      <g>
       <use xlink:href="#m7b30efeffa" x="561.764467" y="384.48" style="stroke: #000000; stroke-width: 0.8"/>
      </g>
     </g>
     <g id="text_7">
      <!-- 2023-07 -->
      <g transform="translate(540.873061 399.078438) scale(0.1 -0.1)">
       <use xlink:href="#DejaVuSans-32"/>
       <use xlink:href="#DejaVuSans-30" x="63.623047"/>
       <use xlink:href="#DejaVuSans-32" x="127.246094"/>
       <use xlink:href="#DejaVuSans-33" x="190.869141"/>
       <use xlink:href="#DejaVuSans-2d" x="254.492188"/>
       <use xlink:href="#DejaVuSans-30" x="290.576172"/>
       <use xlink:href="#DejaVuSans-37" x="354.199219"/>
      </g>
     </g>
    </g>
    <g id="xtick_8">
     <g id="line2d_8">
      <g>
       <use xlink:href="#m7b30efeffa" x="632.834149" y="384.48" style="stroke: #000000; stroke-width: 0.8"/>
      </g>
     </g>
     <g id="text_8">
      <!-- 2024-01 -->
      <g transform="translate(611.942742 399.078438) scale(0.1 -0.1)">
       <defs>
        <path id="DejaVuSans-34" d="M 2419 4116 
L 825 1625 
L 2419 1625 
L 2419 4116 
z
M 2253 4666 
L 3047 4666 
L 3047 1625 
L 3713 1625 
L 3713 1100 
L 3047 1100 
L 3047 0 
L 2419 0 
L 2419 1100 
L 313 1100 
L 313 1709 
L 2253 4666 
z
" transform="scale(0.015625)"/>
       </defs>
       <use xlink:href="#DejaVuSans-32"/>
       <use xlink:href="#DejaVuSans-30" x="63.623047"/>
       <use xlink:href="#DejaVuSans-32" x="127.246094"/>
       <use xlink:href="#DejaVuSans-34" x="190.869141"/>
       <use xlink:href="#DejaVuSans-2d" x="254.492188"/>
       <use xlink:href="#DejaVuSans-30" x="290.576172"/>
       <use xlink:href="#DejaVuSans-31" x="354.199219"/>
      </g>
     </g>
    </g>
    <g id="xtick_9">
     <g id="line2d_9">
      <g>
       <use xlink:href="#m7b30efeffa" x="703.131334" y="384.48" style="stroke: #000000; stroke-width: 0.8"/>
      </g>
     </g>
     <g id="text_9">
      <!-- 2024-07 -->
      <g transform="translate(682.239927 399.078438) scale(0.1 -0.1)">
       <use xlink:href="#DejaVuSans-32"/>
       <use xlink:href="#DejaVuSans-30" x="63.623047"/>
       <use xlink:href="#DejaVuSans-32" x="127.246094"/>
       <use xlink:href="#DejaVuSans-34" x="190.869141"/>
       <use xlink:href="#DejaVuSans-2d" x="254.492188"/>
       <use xlink:href="#DejaVuSans-30" x="290.576172"/>
       <use xlink:href="#DejaVuSans-37" x="354.199219"/>
      </g>
     </g>
    </g>
    <g id="xtick_10">
     <g id="line2d_10">
      <g>
       <use xlink:href="#m7b30efeffa" x="774.201015" y="384.48" style="stroke: #000000; stroke-width: 0.8"/>
      </g>
     </g>
     <g id="text_10">
      <!-- 2025-01 -->
      <g transform="translate(753.309609 399.078438) scale(0.1 -0.1)">
       <defs>
        <path id="DejaVuSans-35" d="M 691 4666 
L 3169 4666 
L 3169 4134 
L 1269 4134 
L 1269 2991 
Q 1406 3038 1543 3061 
Q 1681 3084 1819 3084 
Q 2600 3084 3056 2656 
Q 3513 2228 3513 1497 
Q 3513 744 3044 326 
Q 2575 -91 1722 -91 
Q 1428 -91 1123 -41 
Q 819 9 494 109 
L 494 744 
Q 775 591 1075 516 
Q 1375 441 1709 441 
Q 2250 441 2565 725 
Q 2881 1009 2881 1497 
Q 2881 1984 2565 2268 
Q 2250 2553 1709 2553 
Q 1456 2553 1204 2497 
Q 953 2441 691 2322 
L 691 4666 
z
" transform="scale(0.015625)"/>
       </defs>
       <use xlink:href="#DejaVuSans-32"/>
       <use xlink:href="#DejaVuSans-30" x="63.623047"/>
       <use xlink:href="#DejaVuSans-32" x="127.246094"/>
       <use xlink:href="#DejaVuSans-35" x="190.869141"/>
       <use xlink:href="#DejaVuSans-2d" x="254.492188"/>
       <use xlink:href="#DejaVuSans-30" x="290.576172"/>
       <use xlink:href="#DejaVuSans-31" x="354.199219"/>
      </g>
     </g>
    </g>
    <g id="text_11">
     <!-- Date -->
     <g transform="translate(430.849219 412.756563) scale(0.1 -0.1)">
      <defs>
       <path id="DejaVuSans-44" d="M 1259 4147 
L 1259 519 
L 2022 519 
Q 2988 519 3436 956 
Q 3884 1394 3884 2338 
Q 3884 3275 3436 3711 
Q 2988 4147 2022 4147 
L 1259 4147 
z
M 628 4666 
L 1925 4666 
Q 3281 4666 3915 4102 
Q 4550 3538 4550 2338 
Q 4550 1131 3912 565 
Q 3275 0 1925 0 
L 628 0 
L 628 4666 
z
" transform="scale(0.015625)"/>
       <path id="DejaVuSans-61" d="M 2194 1759 
Q 1497 1759 1228 1600 
Q 959 1441 959 1056 
Q 959 750 1161 570 
Q 1363 391 1709 391 
Q 2188 391 2477 730 
Q 2766 1069 2766 1631 
L 2766 1759 
L 2194 1759 
z
M 3341 1997 
L 3341 0 
L 2766 0 
L 2766 531 
Q 2569 213 2275 61 
Q 1981 -91 1556 -91 
Q 1019 -91 701 211 
Q 384 513 384 1019 
Q 384 1609 779 1909 
Q 1175 2209 1959 2209 
L 2766 2209 
L 2766 2266 
Q 2766 2663 2505 2880 
Q 2244 3097 1772 3097 
Q 1472 3097 1187 3025 
Q 903 2953 641 2809 
L 641 3341 
Q 956 3463 1253 3523 
Q 1550 3584 1831 3584 
Q 2591 3584 2966 3190 
Q 3341 2797 3341 1997 
z
" transform="scale(0.015625)"/>
       <path id="DejaVuSans-74" d="M 1172 4494 
L 1172 3500 
L 2356 3500 
L 2356 3053 
L 1172 3053 
L 1172 1153 
Q 1172 725 1289 603 
Q 1406 481 1766 481 
L 2356 481 
L 2356 0 
L 1766 0 
Q 1100 0 847 248 
Q 594 497 594 1153 
L 594 3053 
L 172 3053 
L 172 3500 
L 594 3500 
L 594 4494 
L 1172 4494 
z
" transform="scale(0.015625)"/>
       <path id="DejaVuSans-65" d="M 3597 1894 
L 3597 1613 
L 953 1613 
Q 991 1019 1311 708 
Q 1631 397 2203 397 
Q 2534 397 2845 478 
Q 3156 559 3463 722 
L 3463 178 
Q 3153 47 2828 -22 
Q 2503 -91 2169 -91 
Q 1331 -91 842 396 
Q 353 884 353 1716 
Q 353 2575 817 3079 
Q 1281 3584 2069 3584 
Q 2775 3584 3186 3129 
Q 3597 2675 3597 1894 
z
M 3022 2063 
Q 3016 2534 2758 2815 
Q 2500 3097 2075 3097 
Q 1594 3097 1305 2825 
Q 1016 2553 972 2059 
L 3022 2063 
z
" transform="scale(0.015625)"/>
      </defs>
      <use xlink:href="#DejaVuSans-44"/>
      <use xlink:href="#DejaVuSans-61" x="77.001953"/>
      <use xlink:href="#DejaVuSans-74" x="138.28125"/>
      <use xlink:href="#DejaVuSans-65" x="177.490234"/>
     </g>
    </g>
   </g>
   <g id="matplotlib.axis_2">
    <g id="ytick_1">
     <g id="line2d_11">
      <defs>
       <path id="m9531a9c68f" d="M 0 0 
L -3.5 0 
" style="stroke: #000000; stroke-width: 0.8"/>
      </defs>
      <g>
       <use xlink:href="#m9531a9c68f" x="108" y="369.36" style="stroke: #000000; stroke-width: 0.8"/>
      </g>
     </g>
     <g id="text_12">
      <!-- 0.00 -->
      <g transform="translate(78.734375 373.159219) scale(0.1 -0.1)">
       <defs>
        <path id="DejaVuSans-2e" d="M 684 794 
L 1344 794 
L 1344 0 
L 684 0 
L 684 794 
z
" transform="scale(0.015625)"/>
       </defs>
       <use xlink:href="#DejaVuSans-30"/>
       <use xlink:href="#DejaVuSans-2e" x="63.623047"/>
       <use xlink:href="#DejaVuSans-30" x="95.410156"/>
       <use xlink:href="#DejaVuSans-30" x="159.033203"/>
      </g>
     </g>
    </g>
    <g id="ytick_2">
     <g id="line2d_12">
      <g>
       <use xlink:href="#m9531a9c68f" x="108" y="329.87973" style="stroke: #000000; stroke-width: 0.8"/>
      </g>
     </g>
     <g id="text_13">
      <!-- 0.01 -->
      <g transform="translate(78.734375 333.678949) scale(0.1 -0.1)">
       <use xlink:href="#DejaVuSans-30"/>
       <use xlink:href="#DejaVuSans-2e" x="63.623047"/>
       <use xlink:href="#DejaVuSans-30" x="95.410156"/>
       <use xlink:href="#DejaVuSans-31" x="159.033203"/>
      </g>
     </g>
    </g>
    <g id="ytick_3">
     <g id="line2d_13">
      <g>
       <use xlink:href="#m9531a9c68f" x="108" y="290.399461" style="stroke: #000000; stroke-width: 0.8"/>
      </g>
     </g>
     <g id="text_14">
      <!-- 0.02 -->
      <g transform="translate(78.734375 294.19868) scale(0.1 -0.1)">
       <use xlink:href="#DejaVuSans-30"/>
       <use xlink:href="#DejaVuSans-2e" x="63.623047"/>
       <use xlink:href="#DejaVuSans-30" x="95.410156"/>
       <use xlink:href="#DejaVuSans-32" x="159.033203"/>
      </g>
     </g>
    </g>
    <g id="ytick_4">
     <g id="line2d_14">
      <g>
       <use xlink:href="#m9531a9c68f" x="108" y="250.919191" style="stroke: #000000; stroke-width: 0.8"/>
      </g>
     </g>
     <g id="text_15">
      <!-- 0.03 -->
      <g transform="translate(78.734375 254.71841) scale(0.1 -0.1)">
       <use xlink:href="#DejaVuSans-30"/>
       <use xlink:href="#DejaVuSans-2e" x="63.623047"/>
       <use xlink:href="#DejaVuSans-30" x="95.410156"/>
       <use xlink:href="#DejaVuSans-33" x="159.033203"/>
      </g>
     </g>
    </g>
    <g id="ytick_5">
     <g id="line2d_15">
      <g>
       <use xlink:href="#m9531a9c68f" x="108" y="211.438922" style="stroke: #000000; stroke-width: 0.8"/>
      </g>
     </g>
     <g id="text_16">
      <!-- 0.04 -->
      <g transform="translate(78.734375 215.23814) scale(0.1 -0.1)">
       <use xlink:href="#DejaVuSans-30"/>
       <use xlink:href="#DejaVuSans-2e" x="63.623047"/>
       <use xlink:href="#DejaVuSans-30" x="95.410156"/>
       <use xlink:href="#DejaVuSans-34" x="159.033203"/>
      </g>
     </g>
    </g>
    <g id="ytick_6">
     <g id="line2d_16">
      <g>
       <use xlink:href="#m9531a9c68f" x="108" y="171.958652" style="stroke: #000000; stroke-width: 0.8"/>
      </g>
     </g>
     <g id="text_17">
      <!-- 0.05 -->
      <g transform="translate(78.734375 175.757871) scale(0.1 -0.1)">
       <use xlink:href="#DejaVuSans-30"/>
       <use xlink:href="#DejaVuSans-2e" x="63.623047"/>
       <use xlink:href="#DejaVuSans-30" x="95.410156"/>
       <use xlink:href="#DejaVuSans-35" x="159.033203"/>
      </g>
     </g>
    </g>
    <g id="ytick_7">
     <g id="line2d_17">
      <g>
       <use xlink:href="#m9531a9c68f" x="108" y="132.478382" style="stroke: #000000; stroke-width: 0.8"/>
      </g>
     </g>
     <g id="text_18">
      <!-- 0.06 -->
      <g transform="translate(78.734375 136.277601) scale(0.1 -0.1)">
       <defs>
        <path id="DejaVuSans-36" d="M 2113 2584 
Q 1688 2584 1439 2293 
Q 1191 2003 1191 1497 
Q 1191 994 1439 701 
Q 1688 409 2113 409 
Q 2538 409 2786 701 
Q 3034 994 3034 1497 
Q 3034 2003 2786 2293 
Q 2538 2584 2113 2584 
z
M 3366 4563 
L 3366 3988 
Q 3128 4100 2886 4159 
Q 2644 4219 2406 4219 
Q 1781 4219 1451 3797 
Q 1122 3375 1075 2522 
Q 1259 2794 1537 2939 
Q 1816 3084 2150 3084 
Q 2853 3084 3261 2657 
Q 3669 2231 3669 1497 
Q 3669 778 3244 343 
Q 2819 -91 2113 -91 
Q 1303 -91 875 529 
Q 447 1150 447 2328 
Q 447 3434 972 4092 
Q 1497 4750 2381 4750 
Q 2619 4750 2861 4703 
Q 3103 4656 3366 4563 
z
" transform="scale(0.015625)"/>
       </defs>
       <use xlink:href="#DejaVuSans-30"/>
       <use xlink:href="#DejaVuSans-2e" x="63.623047"/>
       <use xlink:href="#DejaVuSans-30" x="95.410156"/>
       <use xlink:href="#DejaVuSans-36" x="159.033203"/>
      </g>
     </g>
    </g>
    <g id="ytick_8">
     <g id="line2d_18">
      <g>
       <use xlink:href="#m9531a9c68f" x="108" y="92.998113" style="stroke: #000000; stroke-width: 0.8"/>
      </g>
     </g>
     <g id="text_19">
      <!-- 0.07 -->
      <g transform="translate(78.734375 96.797332) scale(0.1 -0.1)">
       <use xlink:href="#DejaVuSans-30"/>
       <use xlink:href="#DejaVuSans-2e" x="63.623047"/>
       <use xlink:href="#DejaVuSans-30" x="95.410156"/>
       <use xlink:href="#DejaVuSans-37" x="159.033203"/>
      </g>
     </g>
    </g>
    <g id="ytick_9">
     <g id="line2d_19">
      <g>
       <use xlink:href="#m9531a9c68f" x="108" y="53.517843" style="stroke: #000000; stroke-width: 0.8"/>
      </g>
     </g>
     <g id="text_20">
      <!-- 0.08 -->
      <g transform="translate(78.734375 57.317062) scale(0.1 -0.1)">
       <defs>
        <path id="DejaVuSans-38" d="M 2034 2216 
Q 1584 2216 1326 1975 
Q 1069 1734 1069 1313 
Q 1069 891 1326 650 
Q 1584 409 2034 409 
Q 2484 409 2743 651 
Q 3003 894 3003 1313 
Q 3003 1734 2745 1975 
Q 2488 2216 2034 2216 
z
M 1403 2484 
Q 997 2584 770 2862 
Q 544 3141 544 3541 
Q 544 4100 942 4425 
Q 1341 4750 2034 4750 
Q 2731 4750 3128 4425 
Q 3525 4100 3525 3541 
Q 3525 3141 3298 2862 
Q 3072 2584 2669 2484 
Q 3125 2378 3379 2068 
Q 3634 1759 3634 1313 
Q 3634 634 3220 271 
Q 2806 -91 2034 -91 
Q 1263 -91 848 271 
Q 434 634 434 1313 
Q 434 1759 690 2068 
Q 947 2378 1403 2484 
z
M 1172 3481 
Q 1172 3119 1398 2916 
Q 1625 2713 2034 2713 
Q 2441 2713 2670 2916 
Q 2900 3119 2900 3481 
Q 2900 3844 2670 4047 
Q 2441 4250 2034 4250 
Q 1625 4250 1398 4047 
Q 1172 3844 1172 3481 
z
" transform="scale(0.015625)"/>
       </defs>
       <use xlink:href="#DejaVuSans-30"/>
       <use xlink:href="#DejaVuSans-2e" x="63.623047"/>
       <use xlink:href="#DejaVuSans-30" x="95.410156"/>
       <use xlink:href="#DejaVuSans-38" x="159.033203"/>
      </g>
     </g>
    </g>
    <g id="text_21">
     <!-- Volatility -->
     <g transform="translate(72.654687 239.752187) rotate(-90) scale(0.1 -0.1)">
      <defs>
       <path id="DejaVuSans-56" d="M 1831 0 
L 50 4666 
L 709 4666 
L 2188 738 
L 3669 4666 
L 4325 4666 
L 2547 0 
L 1831 0 
z
" transform="scale(0.015625)"/>
       <path id="DejaVuSans-6f" d="M 1959 3097 
Q 1497 3097 1228 2736 
Q 959 2375 959 1747 
Q 959 1119 1226 758 
Q 1494 397 1959 397 
Q 2419 397 2687 759 
Q 2956 1122 2956 1747 
Q 2956 2369 2687 2733 
Q 2419 3097 1959 3097 
z
M 1959 3584 
Q 2709 3584 3137 3096 
Q 3566 2609 3566 1747 
Q 3566 888 3137 398 
Q 2709 -91 1959 -91 
Q 1206 -91 779 398 
Q 353 888 353 1747 
Q 353 2609 779 3096 
Q 1206 3584 1959 3584 
z
" transform="scale(0.015625)"/>
       <path id="DejaVuSans-6c" d="M 603 4863 
L 1178 4863 
L 1178 0 
L 603 0 
L 603 4863 
z
" transform="scale(0.015625)"/>
       <path id="DejaVuSans-69" d="M 603 3500 
L 1178 3500 
L 1178 0 
L 603 0 
L 603 3500 
z
M 603 4863 
L 1178 4863 
L 1178 4134 
L 603 4134 
L 603 4863 
z
" transform="scale(0.015625)"/>
       <path id="DejaVuSans-79" d="M 2059 -325 
Q 1816 -950 1584 -1140 
Q 1353 -1331 966 -1331 
L 506 -1331 
L 506 -850 
L 844 -850 
Q 1081 -850 1212 -737 
Q 1344 -625 1503 -206 
L 1606 56 
L 191 3500 
L 800 3500 
L 1894 763 
L 2988 3500 
L 3597 3500 
L 2059 -325 
z
" transform="scale(0.015625)"/>
      </defs>
      <use xlink:href="#DejaVuSans-56"/>
      <use xlink:href="#DejaVuSans-6f" x="60.658203"/>
      <use xlink:href="#DejaVuSans-6c" x="121.839844"/>
      <use xlink:href="#DejaVuSans-61" x="149.623047"/>
      <use xlink:href="#DejaVuSans-74" x="210.902344"/>
      <use xlink:href="#DejaVuSans-69" x="250.111328"/>
      <use xlink:href="#DejaVuSans-6c" x="277.894531"/>
      <use xlink:href="#DejaVuSans-69" x="305.677734"/>
      <use xlink:href="#DejaVuSans-74" x="333.460938"/>
      <use xlink:href="#DejaVuSans-79" x="372.669922"/>
     </g>
    </g>
   </g>
   <g id="line2d_20">
    <path d="M 138.436364 368.841237 
L 138.822612 368.470924 
L 139.20886 365.230813 
L 140.753853 364.98236 
L 141.140102 362.899363 
L 141.52635 369.358376 
L 142.298846 362.847092 
L 143.843839 365.501538 
L 144.230088 366.108308 
L 144.616336 369.348134 
L 145.002584 367.274347 
L 146.161329 368.326096 
L 146.547577 369.349802 
L 146.933826 369.225675 
L 147.320074 369.330508 
L 147.706322 368.951399 
L 148.865067 368.520521 
L 149.251315 366.981111 
L 149.637563 369.35049 
L 150.023812 368.969108 
L 150.41006 369.191792 
L 151.568805 368.925117 
L 151.955053 367.139163 
L 152.341301 363.776737 
L 152.72755 354.571327 
L 153.113798 368.681168 
L 154.272543 365.217457 
L 154.658791 355.971342 
L 155.045039 368.4006 
L 155.431287 369.200704 
L 155.817536 369.068853 
L 157.748777 369.358839 
L 158.135025 368.683157 
L 158.521274 368.530813 
L 159.680018 366.96019 
L 160.066267 368.98675 
L 160.838763 369.080497 
L 161.225012 368.695473 
L 162.383756 368.55364 
L 162.770005 351.236108 
L 163.156253 367.28228 
L 163.542501 351.567961 
L 163.928749 368.299165 
L 165.473743 368.242861 
L 165.859991 367.050848 
L 166.632487 368.412183 
L 167.791232 364.996546 
L 168.17748 369.340217 
L 168.563729 369.21718 
L 168.949977 366.538012 
L 169.336225 366.872537 
L 170.49497 365.967216 
L 170.881218 369.354727 
L 171.267467 256.41735 
L 171.653715 364.438819 
L 172.039963 368.539108 
L 173.198708 369.303621 
L 173.584956 367.17403 
L 173.971204 366.378678 
L 174.357453 366.044836 
L 174.743701 366.019154 
L 175.902446 355.402774 
L 176.288694 368.897587 
L 176.674942 365.569607 
L 177.061191 369.331531 
L 177.447439 369.001081 
L 178.606184 368.845519 
L 178.992432 369.342517 
L 179.37868 369.227291 
L 179.764928 369.33452 
L 180.151177 368.972599 
L 181.309922 369.03016 
L 181.69617 368.91323 
L 182.082418 367.011387 
L 182.468666 369.00088 
L 182.854915 368.364405 
L 184.013659 367.627605 
L 184.399908 369.144878 
L 184.786156 360.515591 
L 185.558653 369.218347 
L 186.717397 363.597345 
L 187.103646 369.105914 
L 187.489894 361.761745 
L 187.876142 311.079719 
L 188.26239 354.305786 
L 189.421135 363.230506 
L 189.807383 368.947019 
L 190.193632 369.244352 
L 190.57988 369.358625 
L 190.966128 365.354005 
L 192.124873 358.992582 
L 192.511121 369.134803 
L 192.89737 368.875222 
L 193.283618 369.22419 
L 193.669866 368.288125 
L 194.828611 360.595361 
L 195.214859 367.163072 
L 195.601108 367.993531 
L 196.373604 367.53262 
L 197.532349 368.757581 
L 197.918597 369.358269 
L 198.304845 369.274734 
L 198.691094 366.598692 
L 199.077342 357.252951 
L 200.236087 369.236764 
L 200.622335 366.30363 
L 201.008583 368.982906 
L 201.394832 369.114352 
L 201.78108 367.804057 
L 202.939825 365.837937 
L 203.712321 368.376546 
L 204.098569 368.748783 
L 204.484818 368.943121 
L 205.643563 367.411849 
L 206.029811 365.927412 
L 206.416059 366.974524 
L 206.802307 369.34717 
L 208.3473 369.358872 
L 208.733549 367.150931 
L 209.119797 367.655482 
L 209.506045 368.79839 
L 211.051038 364.781858 
L 211.437287 352.523251 
L 211.823535 348.872582 
L 212.596031 369.358834 
L 213.754776 363.750986 
L 214.527273 368.559667 
L 215.299769 368.762388 
L 216.844762 366.270947 
L 217.231011 366.331943 
L 217.617259 367.585429 
L 218.003507 368.420817 
L 219.162252 368.036348 
L 219.5485 369.058243 
L 219.934749 363.675752 
L 220.320997 368.495623 
L 220.707245 367.352055 
L 221.86599 367.352055 
L 222.252238 368.197074 
L 222.638486 361.534342 
L 223.024735 361.690317 
L 223.410983 368.524388 
L 224.569728 366.36375 
L 224.955976 368.091626 
L 225.342224 368.248872 
L 226.114721 365.918321 
L 227.659714 368.47983 
L 228.045962 365.90203 
L 228.43221 323.974725 
L 228.818459 330.721567 
L 229.977204 369.343457 
L 230.363452 368.789428 
L 230.7497 363.102222 
L 231.135948 360.559664 
L 231.522197 367.083606 
L 232.680941 366.380494 
L 233.06719 369.26044 
L 233.453438 361.471421 
L 233.839686 363.640359 
L 234.225934 368.270862 
L 235.384679 367.375367 
L 236.157176 361.778263 
L 236.543424 356.430162 
L 236.929672 366.882137 
L 238.088417 368.980304 
L 238.474665 367.433585 
L 238.860914 369.310694 
L 239.247162 367.452076 
L 239.63341 369.182236 
L 240.792155 369.287638 
L 241.178403 363.645179 
L 241.564652 369.355294 
L 241.9509 368.403649 
L 242.337148 368.979125 
L 243.495893 366.505835 
L 243.882141 369.167036 
L 244.268389 369.263655 
L 244.654638 365.517629 
L 246.199631 369.312855 
L 246.585879 368.134583 
L 246.972127 354.188223 
L 247.358376 368.213302 
L 247.744624 369.117529 
L 248.903369 369.332405 
L 249.289617 369.223842 
L 249.675865 366.07244 
L 250.062114 368.355516 
L 250.448362 368.961369 
L 251.607107 364.427128 
L 251.993355 355.753634 
L 252.379603 365.796102 
L 252.765851 368.107917 
L 253.1521 364.726354 
L 254.310844 356.839789 
L 254.697093 369.268314 
L 255.083341 369.343181 
L 255.469589 368.919469 
L 255.855838 369.317632 
L 257.014582 368.68787 
L 257.787079 365.659248 
L 258.173327 337.781597 
L 258.559575 353.901552 
L 259.71832 367.762982 
L 260.104569 369.199527 
L 260.490817 363.822064 
L 260.877065 367.813791 
L 261.263313 363.63619 
L 262.422058 363.825185 
L 262.808306 368.977879 
L 263.194555 368.473505 
L 263.580803 369.197611 
L 263.967051 368.964123 
L 265.125796 369.359985 
L 265.512044 368.974119 
L 265.898293 366.668815 
L 266.284541 363.519695 
L 266.670789 369.052943 
L 268.215782 366.751916 
L 268.60203 369.205231 
L 268.988279 368.699083 
L 269.374527 365.459287 
L 270.533272 368.34527 
L 270.91952 365.767676 
L 271.305768 369.014017 
L 271.692017 363.500173 
L 272.078265 368.563576 
L 273.23701 368.893433 
L 273.623258 368.606259 
L 274.009506 369.279073 
L 274.395754 369.0702 
L 274.782003 364.051638 
L 275.940748 367.527788 
L 276.326996 369.355625 
L 276.713244 368.707909 
L 277.099492 368.591168 
L 277.485741 369.268712 
L 278.644485 368.632037 
L 279.030734 369.042164 
L 279.416982 369.2416 
L 279.80323 367.623808 
L 280.189479 369.103889 
L 281.734472 368.760478 
L 282.12072 369.058288 
L 282.506968 368.732662 
L 282.893216 361.62328 
L 284.051961 352.146991 
L 284.43821 368.572111 
L 284.824458 368.719305 
L 285.210706 368.084744 
L 285.596954 366.216929 
L 286.755699 368.543163 
L 287.141947 359.406166 
L 287.528196 368.382298 
L 287.914444 368.66535 
L 288.300692 368.735066 
L 289.459437 367.214047 
L 289.845685 365.691066 
L 290.231934 366.052605 
L 290.618182 362.501018 
L 291.00443 368.380472 
L 292.163175 369.291504 
L 292.935671 369.358193 
L 293.32192 357.247462 
L 293.708168 364.147212 
L 294.866913 367.718647 
L 295.253161 365.182795 
L 295.639409 368.713195 
L 296.025658 369.338606 
L 296.411906 369.236365 
L 297.570651 362.90698 
L 297.956899 362.150526 
L 298.343147 369.222747 
L 299.115644 365.985017 
L 300.274389 363.981256 
L 300.660637 369.240028 
L 301.046885 367.543102 
L 301.433133 368.480061 
L 301.819382 366.800023 
L 302.978126 369.352334 
L 303.364375 369.355947 
L 303.750623 368.938099 
L 304.136871 367.782186 
L 304.52312 369.045016 
L 306.068113 368.711494 
L 306.454361 369.342725 
L 306.840609 368.203819 
L 307.226857 369.022547 
L 308.385602 359.005421 
L 308.77185 369.225758 
L 309.158099 368.458031 
L 309.544347 368.816201 
L 309.930595 367.903031 
L 311.08934 358.920964 
L 311.475588 369.273665 
L 311.861837 365.594726 
L 312.248085 366.701348 
L 312.634333 368.784502 
L 313.793078 368.008723 
L 314.179326 366.599347 
L 314.565575 368.831024 
L 314.951823 369.36 
L 315.338071 369.359473 
L 316.496816 368.225054 
L 316.883064 365.107822 
L 317.269312 369.359968 
L 317.655561 369.359609 
L 318.041809 365.031682 
L 319.200554 369.290568 
L 319.586802 368.73573 
L 319.97305 365.607691 
L 320.359299 364.871418 
L 320.745547 368.871096 
L 321.904292 364.533835 
L 322.29054 369.294908 
L 323.063036 369.286865 
L 323.449285 368.848568 
L 324.60803 364.881631 
L 324.994278 368.608866 
L 325.380526 367.957125 
L 325.766774 354.896977 
L 326.153023 368.198214 
L 327.311767 367.563716 
L 328.084264 369.144087 
L 328.470512 363.020421 
L 328.85676 369.358805 
L 330.015505 367.481246 
L 330.401754 368.554522 
L 330.788002 365.151251 
L 331.560498 368.482562 
L 332.719243 367.985214 
L 333.105491 369.285632 
L 333.877988 369.275199 
L 334.264236 367.019176 
L 335.422981 369.082355 
L 335.809229 365.586245 
L 336.195478 369.335829 
L 336.967974 366.222216 
L 338.512967 364.615639 
L 339.285464 369.222148 
L 339.671712 363.450166 
L 340.830457 368.817712 
L 341.216705 361.96864 
L 341.602953 367.859045 
L 341.989202 366.381411 
L 342.37545 367.659082 
L 343.534195 357.412779 
L 343.920443 367.752538 
L 344.306691 368.257912 
L 344.69294 363.751033 
L 345.079188 369.277999 
L 346.237933 358.510283 
L 346.624181 366.433891 
L 347.010429 369.268786 
L 347.396677 368.81169 
L 348.941671 367.350519 
L 349.327919 369.353452 
L 349.714167 369.354683 
L 350.100415 369.120017 
L 350.486664 369.335757 
L 351.645408 368.759882 
L 352.031657 366.958208 
L 352.417905 366.033674 
L 352.804153 368.993327 
L 353.190401 368.860459 
L 354.349146 363.324615 
L 354.735395 356.743906 
L 355.121643 369.304765 
L 355.507891 366.985622 
L 355.894139 369.185204 
L 357.439132 365.30501 
L 357.825381 365.890583 
L 358.211629 368.826081 
L 358.597877 367.705603 
L 359.756622 369.299675 
L 360.14287 366.201605 
L 360.529119 369.345824 
L 361.301615 369.300359 
L 362.46036 351.107795 
L 362.846608 367.780265 
L 363.232856 368.270585 
L 363.619105 365.933443 
L 364.005353 369.28168 
L 365.164098 368.184394 
L 365.936594 362.372881 
L 366.322843 369.34924 
L 366.709091 367.438744 
L 367.867836 368.586153 
L 368.254084 355.861436 
L 368.640332 367.947089 
L 369.026581 174.739391 
L 369.412829 365.243816 
L 370.957822 369.231828 
L 371.34407 358.392204 
L 371.730318 368.790022 
L 372.116567 362.654297 
L 373.275311 367.730112 
L 373.66156 359.708305 
L 374.047808 366.933373 
L 374.434056 366.816465 
L 374.820305 363.124233 
L 375.979049 363.118965 
L 376.365298 359.864534 
L 377.137794 369.187789 
L 377.524042 367.881704 
L 378.682787 360.665757 
L 379.069036 365.417264 
L 379.455284 359.549235 
L 379.841532 366.604392 
L 380.22778 369.005351 
L 381.386525 369.340595 
L 381.772773 364.732203 
L 382.159022 368.731752 
L 382.54527 366.236059 
L 382.931518 368.363163 
L 384.090263 368.471328 
L 384.476511 363.874902 
L 384.86276 369.324302 
L 385.249008 369.039998 
L 385.635256 368.231924 
L 386.794001 369.262591 
L 387.180249 363.220956 
L 387.952746 369.347274 
L 388.338994 369.296186 
L 389.497739 367.089353 
L 389.883987 369.270223 
L 390.270235 364.290313 
L 390.656484 369.131643 
L 392.201477 369.227105 
L 392.587725 363.15384 
L 392.973973 369.283207 
L 393.360222 360.677736 
L 393.74647 365.224388 
L 394.905215 368.888811 
L 395.291463 357.232775 
L 395.677711 367.174498 
L 396.063959 368.394346 
L 396.450208 368.740849 
L 397.608952 369.147354 
L 397.995201 365.960773 
L 398.381449 338.081326 
L 398.767697 335.120549 
L 399.153946 366.954796 
L 400.31269 337.681528 
L 400.698939 369.356452 
L 401.085187 363.455179 
L 401.471435 369.344684 
L 401.857683 350.271873 
L 403.016428 368.883526 
L 403.402677 357.209844 
L 403.788925 368.621332 
L 404.175173 368.687518 
L 404.561421 368.873235 
L 405.720166 366.456243 
L 406.106414 369.357053 
L 406.492663 367.185486 
L 406.878911 349.317644 
L 407.265159 354.974126 
L 408.810152 363.191398 
L 409.196401 343.356493 
L 409.582649 361.197786 
L 409.968897 369.342401 
L 411.127642 366.341852 
L 411.51389 369.359406 
L 411.900138 368.259445 
L 412.286387 360.33605 
L 412.672635 367.698126 
L 413.83138 353.267842 
L 414.217628 369.261984 
L 414.603876 363.766423 
L 414.990125 354.232142 
L 415.376373 360.3899 
L 417.307614 369.359316 
L 417.693862 368.773318 
L 418.080111 359.104108 
L 419.238856 369.100459 
L 419.625104 368.441699 
L 420.011352 358.702525 
L 420.3976 368.605003 
L 420.783849 368.009205 
L 422.328842 367.221001 
L 422.71509 368.909344 
L 423.101338 367.19361 
L 423.487587 368.549244 
L 424.646331 365.778466 
L 425.418828 369.356667 
L 425.805076 369.315383 
L 426.191324 367.727463 
L 427.350069 368.384324 
L 427.736317 364.01692 
L 428.122566 363.932284 
L 428.508814 366.403378 
L 428.895062 368.005641 
L 430.053807 366.435676 
L 430.440055 368.889803 
L 430.826304 363.038462 
L 431.212552 369.066153 
L 431.5988 364.994934 
L 432.757545 368.08572 
L 433.143793 368.318112 
L 433.91629 367.84285 
L 434.302538 368.681303 
L 435.461283 366.181005 
L 435.847531 369.357865 
L 436.233779 356.025596 
L 436.620028 367.012921 
L 437.006276 356.072786 
L 438.165021 369.04905 
L 438.551269 368.830806 
L 438.937517 368.84466 
L 439.323766 369.178256 
L 439.710014 364.649381 
L 440.868759 367.649071 
L 441.255007 367.912463 
L 441.641255 367.070309 
L 442.027503 366.538314 
L 442.413752 366.739797 
L 443.572497 368.870757 
L 443.958745 361.8015 
L 444.344993 368.11034 
L 444.731241 362.423084 
L 445.11749 368.855911 
L 446.662483 366.710709 
L 447.048731 361.077037 
L 447.434979 362.103696 
L 447.821228 365.755612 
L 448.979972 368.848362 
L 449.366221 369.304056 
L 449.752469 365.897362 
L 450.138717 350.889024 
L 450.524965 369.344431 
L 451.68371 365.069138 
L 452.069958 365.362731 
L 452.456207 369.029461 
L 452.842455 360.918184 
L 453.228703 368.967525 
L 454.773696 368.165654 
L 455.159945 365.757991 
L 455.546193 360.986913 
L 455.932441 369.303755 
L 457.091186 364.653266 
L 457.477434 364.227134 
L 457.863683 366.911376 
L 458.249931 368.489846 
L 458.636179 365.713207 
L 459.794924 367.743925 
L 460.181172 368.00211 
L 460.56742 342.689669 
L 460.953669 368.090303 
L 461.339917 347.071653 
L 462.498662 361.886462 
L 462.88491 368.522009 
L 463.271158 367.927403 
L 463.657407 369.284401 
L 464.043655 357.125687 
L 465.2024 369.343053 
L 465.588648 363.2459 
L 465.974896 369.334225 
L 466.361144 369.35998 
L 466.747393 369.15823 
L 468.292386 369.32173 
L 468.678634 361.092004 
L 469.064882 365.872661 
L 469.451131 363.871787 
L 470.609875 369.251202 
L 470.996124 352.207071 
L 471.382372 367.873802 
L 471.76862 351.896327 
L 472.154868 368.556117 
L 473.313613 366.23271 
L 473.699862 351.656931 
L 474.08611 365.515389 
L 474.472358 365.050253 
L 474.858606 369.348651 
L 476.017351 367.606053 
L 476.403599 369.357826 
L 476.789848 369.32777 
L 477.562344 363.103094 
L 479.107337 368.520019 
L 479.493586 366.019271 
L 479.879834 368.983921 
L 480.266082 365.283153 
L 481.424827 350.365563 
L 481.811075 366.335828 
L 482.197323 369.351422 
L 482.583572 369.210572 
L 482.96982 368.889429 
L 484.128565 367.116183 
L 484.514813 368.982073 
L 484.901061 357.357702 
L 485.28731 365.772587 
L 485.673558 368.98353 
L 486.832303 363.046774 
L 487.218551 369.358145 
L 487.604799 369.304988 
L 487.991048 366.03908 
L 488.377296 369.28607 
L 489.922289 356.055744 
L 490.308537 369.35876 
L 490.694785 368.362146 
L 491.081034 369.32885 
L 492.626027 368.887292 
L 493.012275 362.588382 
L 493.398523 367.372794 
L 493.784772 368.611934 
L 494.943516 368.917102 
L 495.329765 369.359213 
L 495.716013 357.41619 
L 496.102261 366.325592 
L 496.488509 369.295638 
L 498.419751 369.324498 
L 498.805999 367.870361 
L 499.192247 363.514442 
L 500.350992 360.362936 
L 500.73724 368.493533 
L 501.509737 365.620002 
L 501.895985 369.101593 
L 503.05473 364.472377 
L 503.440978 364.73513 
L 503.827227 368.388434 
L 504.213475 368.500366 
L 504.599723 368.95609 
L 505.758468 363.96917 
L 506.144716 369.033184 
L 506.530964 362.761138 
L 506.917213 369.328198 
L 508.848454 369.327964 
L 509.234702 369.126465 
L 509.620951 361.020519 
L 510.007199 328.55501 
L 511.552192 353.074507 
L 511.93844 368.025292 
L 512.324689 365.904531 
L 512.710937 368.191408 
L 513.869682 365.897444 
L 514.25593 368.91641 
L 514.642178 369.188626 
L 515.028426 369.041221 
L 515.414675 364.447143 
L 516.573419 368.995577 
L 516.959668 365.418444 
L 517.345916 368.174846 
L 517.732164 351.439741 
L 518.118413 359.36053 
L 519.277157 368.999848 
L 519.663406 368.918726 
L 520.049654 359.54681 
L 520.435902 369.356216 
L 520.82215 366.055416 
L 521.980895 367.389711 
L 522.367144 361.497193 
L 523.13964 369.341286 
L 523.525888 368.971417 
L 525.070881 369.317139 
L 525.45713 366.160234 
L 525.843378 369.037351 
L 526.229626 369.202617 
L 527.388371 368.802977 
L 527.774619 362.590717 
L 528.160868 353.527067 
L 528.547116 368.935159 
L 530.092109 366.678832 
L 530.478357 369.010108 
L 530.864605 369.35999 
L 531.250854 369.194539 
L 531.637102 369.266566 
L 532.795847 369.020691 
L 533.182095 369.322926 
L 533.568343 369.15046 
L 533.954592 357.808405 
L 534.34084 325.557516 
L 535.499585 356.48741 
L 535.885833 362.887006 
L 536.272081 366.818028 
L 536.658329 366.661221 
L 537.044578 369.326627 
L 538.203323 361.306423 
L 538.589571 367.436455 
L 538.975819 369.328386 
L 540.90706 364.846265 
L 541.293309 359.969708 
L 541.679557 369.314698 
L 542.065805 367.71597 
L 542.452054 368.60298 
L 543.610798 363.090089 
L 543.997047 369.012696 
L 544.383295 368.863247 
L 544.769543 368.942459 
L 545.155791 366.058235 
L 546.314536 368.842817 
L 546.700784 361.25756 
L 547.087033 368.090501 
L 547.473281 364.576874 
L 547.859529 369.269316 
L 549.404522 368.925011 
L 549.790771 362.348556 
L 550.177019 368.938515 
L 550.563267 353.439351 
L 551.722012 368.919216 
L 552.10826 365.032567 
L 552.494509 366.599821 
L 552.880757 369.307424 
L 553.267005 369.296865 
L 554.42575 369.04848 
L 554.811998 360.987092 
L 555.198246 369.040337 
L 555.584495 368.086595 
L 555.970743 368.79743 
L 557.515736 368.137859 
L 557.901984 369.110157 
L 558.674481 366.672699 
L 559.833226 367.337729 
L 560.219474 369.095785 
L 560.605722 361.236453 
L 560.99197 369.034282 
L 561.378219 367.994893 
L 562.536964 366.421573 
L 563.30946 369.355669 
L 563.695708 369.200734 
L 564.081957 362.129897 
L 565.240701 368.980555 
L 565.62695 369.319182 
L 566.013198 368.076503 
L 566.399446 369.149762 
L 566.785695 366.516038 
L 567.944439 368.95668 
L 568.330688 369.332183 
L 568.716936 367.903015 
L 569.103184 362.622193 
L 569.489432 365.207126 
L 570.648177 367.024448 
L 571.034425 369.102299 
L 571.420674 368.811558 
L 571.806922 367.848061 
L 572.19317 368.953661 
L 573.351915 367.760558 
L 573.738163 367.714391 
L 574.124412 366.926698 
L 574.896908 369.305801 
L 576.055653 368.241279 
L 576.441901 369.235899 
L 576.82815 369.147543 
L 577.214398 368.670384 
L 577.600646 367.44053 
L 578.759391 368.928446 
L 579.145639 369.099858 
L 579.531887 368.615511 
L 579.918136 369.202554 
L 580.304384 369.300593 
L 581.463129 366.852995 
L 581.849377 369.359096 
L 582.235625 367.92632 
L 582.621874 369.243267 
L 584.166867 369.358903 
L 584.553115 362.436719 
L 584.939363 369.289065 
L 585.325611 369.358559 
L 585.71186 369.121647 
L 587.256853 369.33137 
L 587.643101 356.899064 
L 588.029349 368.793681 
L 588.415598 368.234778 
L 589.574342 368.949592 
L 589.960591 368.913927 
L 590.346839 369.353862 
L 590.733087 369.342412 
L 592.27808 368.777256 
L 592.664329 369.039126 
L 593.050577 365.487097 
L 593.436825 365.30781 
L 593.823073 369.285965 
L 594.981818 369.114954 
L 595.368066 367.84256 
L 595.754315 369.205669 
L 596.140563 355.92285 
L 596.526811 368.609917 
L 597.685556 361.038763 
L 598.071804 364.428066 
L 598.458053 368.937596 
L 598.844301 367.534209 
L 599.230549 365.674174 
L 600.389294 366.7073 
L 600.775542 363.094253 
L 601.16179 368.266493 
L 601.548039 364.311164 
L 601.934287 361.571936 
L 603.093032 366.634023 
L 603.47928 368.934673 
L 603.865528 327.462209 
L 604.251777 356.96834 
L 604.638025 362.552132 
L 605.79677 368.156784 
L 606.183018 367.537143 
L 606.569266 366.140442 
L 606.955515 369.357389 
L 607.341763 369.231226 
L 608.500508 357.971824 
L 608.886756 369.262991 
L 609.273004 365.664627 
L 609.659252 368.65003 
L 610.045501 366.565505 
L 611.204246 350.621995 
L 611.590494 367.459442 
L 611.976742 366.749375 
L 612.36299 363.730908 
L 612.749239 367.691892 
L 613.907983 367.059469 
L 614.294232 335.208584 
L 614.68048 367.939272 
L 615.066728 362.751384 
L 615.452976 363.560743 
L 616.611721 367.263019 
L 616.99797 365.064048 
L 617.384218 369.307679 
L 618.156714 368.101983 
L 619.315459 352.764979 
L 619.701707 366.775687 
L 620.087956 369.287458 
L 620.474204 368.185275 
L 620.860452 363.190252 
L 622.019197 359.400553 
L 622.405445 356.243646 
L 622.791694 361.876385 
L 623.177942 356.130988 
L 623.56419 367.64497 
L 624.722935 368.847486 
L 625.109183 368.882032 
L 625.495431 337.017911 
L 625.88168 362.793746 
L 626.267928 369.1081 
L 627.426673 369.116674 
L 627.812921 367.703054 
L 628.199169 361.743053 
L 628.585418 367.736283 
L 628.971666 365.466727 
L 630.516659 368.446896 
L 630.902907 367.724822 
L 631.289156 369.35786 
L 631.675404 364.879738 
L 633.220397 368.279548 
L 633.606645 360.728851 
L 634.379142 369.357862 
L 635.537886 369.240293 
L 635.924135 367.528827 
L 636.310383 369.241606 
L 636.696631 365.111926 
L 637.08288 367.71428 
L 638.627873 369.357513 
L 639.014121 362.203055 
L 639.400369 367.324143 
L 639.786617 366.982848 
L 640.945362 360.392006 
L 641.331611 368.45705 
L 641.717859 369.145638 
L 642.104107 366.484885 
L 642.490355 368.822637 
L 643.6491 366.341309 
L 644.035348 367.135447 
L 644.421597 360.488592 
L 644.807845 368.133842 
L 645.194093 367.466006 
L 646.352838 359.678038 
L 647.125335 368.108815 
L 647.511583 369.204404 
L 647.897831 368.732932 
L 649.056576 364.085935 
L 649.442824 351.126618 
L 649.829072 367.884719 
L 650.215321 366.519145 
L 650.601569 362.260021 
L 652.146562 352.432453 
L 652.53281 365.32501 
L 652.919059 369.321422 
L 653.305307 367.670774 
L 654.464052 369.156185 
L 654.8503 356.73451 
L 655.236548 366.560792 
L 655.622796 362.09068 
L 656.009045 364.446285 
L 657.16779 350.238788 
L 657.554038 216.388512 
L 657.940286 338.046701 
L 658.326534 366.823483 
L 658.712783 364.260687 
L 659.871527 358.339191 
L 660.257776 369.188293 
L 660.644024 368.483856 
L 661.030272 360.24888 
L 661.416521 367.995129 
L 662.575265 367.815314 
L 662.961514 365.069339 
L 663.347762 365.336817 
L 663.73401 369.317289 
L 664.120258 365.174419 
L 665.279003 367.621152 
L 665.665251 369.237899 
L 666.0515 344.687107 
L 666.437748 367.348947 
L 667.982741 367.839671 
L 668.368989 367.598548 
L 668.755238 367.976476 
L 669.141486 354.172868 
L 669.527734 367.926592 
L 670.686479 352.876853 
L 671.072727 367.874317 
L 671.458976 368.814014 
L 671.845224 367.680701 
L 672.231472 354.595936 
L 673.390217 368.203647 
L 673.776465 357.63903 
L 674.162713 369.336287 
L 674.548962 367.289241 
L 674.93521 369.321428 
L 676.093955 369.353855 
L 676.480203 368.225182 
L 676.866451 369.023049 
L 677.2527 369.334949 
L 677.638948 368.299496 
L 678.797693 348.327285 
L 679.183941 361.694002 
L 679.570189 368.886775 
L 679.956437 358.853277 
L 680.342686 367.43168 
L 681.501431 367.667451 
L 681.887679 369.223939 
L 682.273927 369.086688 
L 683.046424 365.837761 
L 684.205168 368.532696 
L 684.591417 365.902395 
L 684.977665 355.141791 
L 685.363913 368.731322 
L 685.750162 368.491868 
L 686.908906 369.142324 
L 687.295155 366.409125 
L 687.681403 369.35369 
L 688.453899 363.942223 
L 689.998892 369.353 
L 690.385141 364.688527 
L 690.771389 369.330131 
L 691.157637 368.99156 
L 692.316382 368.590118 
L 692.70263 367.522652 
L 693.088879 369.327487 
L 693.475127 369.297804 
L 693.861375 366.309111 
L 695.02012 369.126792 
L 695.406368 369.35754 
L 695.792617 368.824202 
L 696.178865 363.034608 
L 696.565113 361.510131 
L 697.723858 366.216395 
L 698.110106 368.891725 
L 698.882603 355.382372 
L 699.268851 369.023415 
L 700.427596 368.050149 
L 700.813844 363.543568 
L 701.200092 345.436811 
L 701.586341 362.784879 
L 701.972589 369.118501 
L 703.131334 367.844363 
L 703.517582 369.308845 
L 703.90383 365.629218 
L 704.676327 368.145769 
L 705.835072 369.100884 
L 706.22132 336.222593 
L 706.993816 368.901412 
L 707.380065 369.357365 
L 708.538809 366.9672 
L 708.925058 367.27469 
L 709.311306 366.420757 
L 709.697554 368.646086 
L 710.083802 368.008041 
L 711.242547 368.356431 
L 711.628796 367.345395 
L 712.015044 369.18904 
L 712.401292 369.353125 
L 712.78754 367.845312 
L 714.332533 369.031509 
L 714.718782 368.746947 
L 715.10503 369.246905 
L 715.491278 350.763071 
L 716.650023 362.817863 
L 717.036271 359.899431 
L 717.42252 369.221296 
L 717.808768 364.678029 
L 718.195016 369.340855 
L 719.353761 349.058816 
L 719.740009 368.358737 
L 720.512506 342.282552 
L 720.898754 369.32675 
L 722.057499 362.373784 
L 722.443747 368.185765 
L 722.829995 359.211875 
L 723.216244 367.842704 
L 723.602492 362.780859 
L 724.761237 368.166366 
L 725.147485 369.359202 
L 725.533733 368.875766 
L 725.919982 362.839344 
L 726.30623 368.424489 
L 727.851223 349.826722 
L 728.237471 369.140206 
L 728.623719 366.753162 
L 729.009968 349.174573 
L 730.168713 367.867124 
L 730.554961 369.331757 
L 730.941209 305.305299 
L 731.327457 369.040283 
L 731.713706 368.786767 
L 732.87245 367.516584 
L 733.258699 369.25133 
L 733.644947 364.064625 
L 734.031195 365.528377 
L 734.417443 363.766157 
L 735.576188 365.644705 
L 735.962437 367.853347 
L 736.348685 361.772491 
L 736.734933 334.03155 
L 737.121181 369.025536 
L 738.279926 368.580723 
L 738.666174 369.292779 
L 739.438671 369.334368 
L 739.824919 344.553194 
L 740.983664 367.263273 
L 741.369912 362.680198 
L 741.756161 368.295373 
L 742.142409 368.953074 
L 742.528657 369.027891 
L 743.687402 367.084668 
L 744.07365 363.191983 
L 744.459898 366.715899 
L 744.846147 363.92059 
L 745.232395 369.263172 
L 746.39114 368.612673 
L 746.777388 366.366213 
L 747.163636 366.637644 
L 747.163636 366.637644 
" clip-path="url(#p0e7662eaf1)" style="fill: none; stroke: #000000; stroke-width: 1.5; stroke-linecap: square"/>
   </g>
   <g id="line2d_21">
    <path d="M 138.436364 268.027351 
L 139.20886 276.744814 
L 140.753853 272.44219 
L 141.140102 268.523327 
L 141.52635 261.293752 
L 141.912598 267.7865 
L 142.298846 267.016512 
L 143.843839 258.272578 
L 144.230088 257.709225 
L 144.616336 258.338192 
L 145.002584 265.036758 
L 146.161329 266.936447 
L 146.547577 270.752469 
L 147.320074 281.264278 
L 147.706322 285.971456 
L 148.865067 289.26273 
L 149.251315 291.02381 
L 149.637563 288.429624 
L 150.023812 292.481303 
L 150.41006 295.065061 
L 151.568805 298.01197 
L 151.955053 299.81908 
L 152.341301 296.033236 
L 152.72755 284.38844 
L 153.113798 256.800037 
L 154.272543 262.611905 
L 154.658791 260.797517 
L 155.045039 242.410018 
L 155.817536 256.764574 
L 156.976281 263.276281 
L 158.135025 280.496016 
L 158.521274 283.725595 
L 159.680018 286.200346 
L 160.066267 284.340376 
L 161.225012 294.332978 
L 162.383756 295.932209 
L 162.770005 296.89439 
L 163.156253 259.024581 
L 163.542501 261.674193 
L 163.928749 236.395703 
L 165.473743 243.457342 
L 165.859991 249.614451 
L 166.632487 257.135204 
L 167.791232 262.11641 
L 168.17748 260.033759 
L 168.949977 272.196736 
L 169.336225 271.608836 
L 170.49497 271.802946 
L 170.881218 270.099907 
L 171.267467 275.731309 
L 171.653715 146.076088 
L 172.039963 155.781626 
L 173.198708 168.289949 
L 173.971204 189.072566 
L 174.743701 202.350853 
L 175.902446 207.916691 
L 176.288694 201.387475 
L 176.674942 210.193893 
L 177.061191 214.551961 
L 177.447439 223.00623 
L 178.606184 230.563706 
L 180.151177 258.308475 
L 181.309922 264.0192 
L 182.082418 274.413693 
L 182.468666 274.359777 
L 182.854915 278.908448 
L 184.013659 281.487555 
L 184.399908 281.910626 
L 184.786156 286.029774 
L 185.172404 269.914792 
L 185.558653 267.094638 
L 186.717397 272.062414 
L 187.103646 265.985657 
L 187.489894 270.787916 
L 187.876142 261.805287 
L 188.26239 189.411418 
L 189.421135 183.229305 
L 189.807383 188.103174 
L 190.966128 218.293873 
L 192.124873 221.74459 
L 192.511121 216.888096 
L 193.669866 240.138047 
L 194.828611 245.730614 
L 195.214859 239.099077 
L 195.601108 243.0029 
L 196.373604 247.843431 
L 197.532349 251.566611 
L 198.691094 269.123623 
L 199.077342 268.865486 
L 200.236087 251.954287 
L 200.622335 257.913653 
L 201.008583 258.507206 
L 201.78108 268.624988 
L 202.939825 270.761586 
L 203.326073 268.881417 
L 203.712321 269.336157 
L 204.484818 276.067862 
L 205.643563 279.803196 
L 206.029811 279.877114 
L 206.416059 276.840119 
L 206.802307 276.381923 
L 208.3473 280.851938 
L 208.733549 285.052823 
L 209.119797 283.87143 
L 209.506045 283.967503 
L 211.051038 286.615745 
L 211.437287 280.111729 
L 212.209783 227.354287 
L 212.596031 221.758535 
L 213.754776 230.978773 
L 214.141024 230.910153 
L 214.527273 234.206136 
L 215.299769 247.068589 
L 217.231011 254.053776 
L 217.617259 255.163985 
L 218.003507 258.295404 
L 219.162252 262.621805 
L 219.5485 265.858261 
L 219.934749 270.815289 
L 220.320997 264.692008 
L 220.707245 268.571528 
L 221.86599 269.854521 
L 222.252238 270.989549 
L 222.638486 273.697448 
L 223.410983 255.196044 
L 224.569728 259.91962 
L 224.955976 260.38005 
L 225.728473 267.271504 
L 226.114721 268.149209 
L 227.659714 266.76238 
L 228.045962 270.351851 
L 228.43221 268.632108 
L 228.818459 207.961506 
L 229.977204 170.040379 
L 230.7497 194.877241 
L 231.135948 198.178507 
L 231.522197 198.074754 
L 232.680941 205.760699 
L 233.06719 211.821175 
L 233.453438 221.022172 
L 233.839686 219.114205 
L 234.225934 220.266235 
L 235.384679 227.498711 
L 235.770928 232.901639 
L 236.157176 233.444189 
L 236.543424 230.184258 
L 236.929672 220.28304 
L 238.088417 225.574147 
L 238.474665 233.333075 
L 238.860914 238.259448 
L 239.247162 245.735202 
L 239.63341 249.639189 
L 240.792155 256.281835 
L 241.178403 262.79234 
L 241.564652 257.537444 
L 241.9509 263.914354 
L 242.337148 267.948423 
L 243.495893 272.898323 
L 243.882141 271.805588 
L 244.654638 281.685728 
L 246.199631 276.865871 
L 246.585879 281.693957 
L 246.972127 283.204398 
L 247.358376 256.416422 
L 247.744624 260.38207 
L 248.903369 265.596804 
L 249.675865 275.481999 
L 250.062114 273.313695 
L 250.448362 275.990456 
L 251.607107 279.70345 
L 251.993355 273.59302 
L 252.379603 253.750911 
L 252.765851 253.911021 
L 253.1521 257.879702 
L 254.310844 255.778792 
L 254.697093 241.600756 
L 255.469589 254.995539 
L 255.855838 260.181071 
L 257.014582 265.662193 
L 257.400831 269.601481 
L 257.787079 270.28614 
L 258.173327 268.106285 
L 258.559575 225.744432 
L 259.71832 213.113063 
L 260.490817 228.319167 
L 260.877065 228.520078 
L 261.263313 233.981465 
L 262.808306 232.940605 
L 263.967051 251.148091 
L 265.125796 256.576911 
L 265.898293 267.302113 
L 266.284541 267.331406 
L 266.670789 261.629474 
L 268.215782 266.50662 
L 268.60203 266.785356 
L 269.374527 275.188471 
L 270.533272 271.809175 
L 270.91952 274.561428 
L 271.305768 271.948605 
L 271.692017 275.976508 
L 272.078265 268.929114 
L 273.23701 272.251292 
L 274.782003 286.202127 
L 275.940748 278.176995 
L 276.326996 278.595113 
L 276.713244 282.718719 
L 277.485741 287.117983 
L 278.644485 290.494493 
L 279.030734 292.061616 
L 279.80323 297.28837 
L 280.189479 295.453826 
L 281.734472 297.739209 
L 282.12072 298.879682 
L 282.506968 300.729656 
L 282.893216 301.460145 
L 284.051961 284.687552 
L 284.43821 254.476403 
L 285.210706 264.383023 
L 285.596954 267.413744 
L 286.755699 266.59834 
L 287.141947 270.229016 
L 287.528196 256.879875 
L 288.300692 265.497534 
L 289.459437 269.537723 
L 289.845685 270.325266 
L 290.231934 268.193381 
L 290.618182 267.000412 
L 291.00443 259.708821 
L 292.163175 263.630669 
L 293.32192 278.328675 
L 293.708168 260.009392 
L 294.866913 256.677088 
L 295.253161 259.642683 
L 295.639409 258.07235 
L 296.411906 267.74967 
L 297.570651 272.378207 
L 298.343147 257.901189 
L 298.729395 263.204915 
L 299.115644 265.498289 
L 300.274389 264.570295 
L 300.660637 260.423885 
L 301.046885 265.532974 
L 301.433133 267.273712 
L 301.819382 270.511001 
L 302.978126 270.414669 
L 303.750623 279.381931 
L 304.136871 282.61048 
L 304.52312 283.069395 
L 306.068113 286.259451 
L 306.454361 288.438749 
L 306.840609 291.983889 
L 307.226857 292.349797 
L 308.385602 294.765941 
L 308.77185 275.045249 
L 309.158099 278.931503 
L 309.930595 283.63932 
L 311.08934 284.196923 
L 311.475588 268.393979 
L 311.861837 272.818831 
L 312.248085 270.408086 
L 312.634333 270.166581 
L 313.793078 273.543442 
L 314.179326 275.248179 
L 314.565575 274.299702 
L 315.338071 281.248491 
L 316.883064 285.941564 
L 317.269312 280.822056 
L 318.041809 287.812134 
L 319.200554 282.283472 
L 319.586802 285.625688 
L 319.97305 287.630341 
L 320.745547 278.264265 
L 321.904292 281.096752 
L 322.29054 275.818781 
L 323.449285 286.373686 
L 324.60803 288.519651 
L 324.994278 282.743762 
L 325.380526 284.687986 
L 325.766774 285.223677 
L 326.153023 263.731304 
L 327.311767 266.615988 
L 327.698016 268.165762 
L 328.084264 270.80328 
L 328.470512 274.511421 
L 328.85676 268.011252 
L 330.015505 272.260492 
L 330.401754 273.109865 
L 330.788002 275.630701 
L 331.17425 272.387597 
L 331.560498 272.47083 
L 332.719243 274.918112 
L 333.105491 276.346793 
L 334.264236 286.349992 
L 335.422981 284.952746 
L 335.809229 287.600062 
L 336.195478 283.409768 
L 336.967974 286.583276 
L 338.126719 283.736733 
L 338.899216 274.58085 
L 339.285464 274.17763 
L 339.671712 277.73566 
L 340.830457 271.517415 
L 341.216705 274.597241 
L 341.602953 266.536111 
L 341.989202 268.507428 
L 342.37545 267.986761 
L 343.534195 269.499181 
L 343.920443 255.557188 
L 344.69294 261.599089 
L 345.079188 257.946742 
L 346.237933 262.700838 
L 346.624181 251.613333 
L 347.010429 252.827368 
L 347.396677 257.905008 
L 348.941671 261.905632 
L 349.327919 263.453485 
L 350.486664 275.63478 
L 351.645408 279.464819 
L 352.031657 282.061766 
L 352.417905 280.976206 
L 352.804153 278.371934 
L 353.190401 281.368201 
L 354.349146 283.951816 
L 354.735395 276.202811 
L 355.121643 260.378529 
L 355.507891 264.938736 
L 355.894139 265.66854 
L 357.439132 269.607526 
L 357.825381 267.396641 
L 358.211629 266.281958 
L 358.597877 269.623062 
L 359.756622 271.008907 
L 360.14287 274.770648 
L 360.529119 273.346043 
L 361.301615 280.598259 
L 362.46036 283.909512 
L 362.846608 259.694481 
L 363.619105 264.422135 
L 364.005353 263.739033 
L 365.164098 267.532055 
L 365.550346 269.591382 
L 365.936594 267.96008 
L 366.322843 262.321893 
L 366.709091 266.268276 
L 367.867836 267.40965 
L 368.254084 270.012145 
L 368.640332 256.100752 
L 369.026581 258.621363 
L 369.412829 66.96 
L 370.957822 84.868955 
L 371.34407 103.811985 
L 371.730318 111.587493 
L 372.116567 127.066968 
L 373.275311 135.770135 
L 373.66156 147.973642 
L 374.047808 151.980555 
L 374.820305 171.350784 
L 375.979049 176.283527 
L 376.365298 180.774698 
L 376.751546 181.499382 
L 377.137794 187.062627 
L 377.524042 197.321444 
L 378.682787 205.601526 
L 379.069036 204.173395 
L 379.455284 208.83136 
L 379.841532 205.631641 
L 380.22778 211.580612 
L 381.386525 220.369741 
L 381.772773 229.346814 
L 382.159022 230.513386 
L 382.54527 237.986597 
L 382.931518 240.635907 
L 384.090263 246.78989 
L 384.476511 252.721591 
L 384.86276 249.027389 
L 385.635256 262.446922 
L 386.794001 266.410736 
L 387.180249 272.431562 
L 387.566497 263.586608 
L 387.952746 263.43672 
L 388.338994 269.409944 
L 389.497739 274.892444 
L 389.883987 274.619261 
L 390.270235 279.604961 
L 390.656484 272.087758 
L 392.201477 276.789661 
L 392.587725 281.364965 
L 392.973973 271.162852 
L 393.360222 276.185738 
L 393.74647 262.443311 
L 394.905215 260.123122 
L 395.291463 265.165867 
L 395.677711 247.973283 
L 396.063959 251.0203 
L 396.450208 255.92463 
L 397.608952 261.004251 
L 397.995201 266.441312 
L 398.381449 264.989082 
L 399.153946 181.82195 
L 400.31269 191.352924 
L 400.698939 164.161435 
L 401.085187 178.164038 
L 401.471435 183.596533 
L 401.857683 195.679773 
L 403.016428 182.867604 
L 403.402677 194.372041 
L 403.788925 190.133895 
L 404.561421 210.428737 
L 405.720166 219.728007 
L 406.106414 224.668436 
L 406.492663 233.783315 
L 406.878911 238.562926 
L 407.265159 214.803446 
L 408.810152 204.516176 
L 409.196401 206.452984 
L 409.582649 183.618553 
L 409.968897 185.581949 
L 411.127642 197.183217 
L 411.51389 203.965439 
L 412.286387 222.125647 
L 412.672635 217.768802 
L 413.83138 224.572841 
L 414.217628 210.112774 
L 414.603876 219.666215 
L 414.990125 220.538308 
L 415.376373 208.294455 
L 416.921366 206.083379 
L 418.080111 231.120485 
L 419.238856 223.583853 
L 420.011352 238.573381 
L 420.3976 229.089061 
L 420.783849 236.164188 
L 422.328842 241.739698 
L 422.71509 245.495935 
L 423.101338 251.942881 
L 423.487587 254.637445 
L 424.646331 259.718252 
L 425.03258 258.695462 
L 425.418828 261.742368 
L 426.191324 273.612492 
L 427.350069 274.993554 
L 427.736317 277.807258 
L 428.508814 263.577358 
L 428.895062 263.299649 
L 430.053807 266.326018 
L 430.440055 265.747411 
L 430.826304 270.409409 
L 431.212552 262.273342 
L 431.5988 267.57813 
L 432.757545 263.893735 
L 433.91629 272.729856 
L 434.302538 274.372043 
L 435.461283 277.759815 
L 435.847531 274.979106 
L 436.233779 279.894619 
L 436.620028 256.132054 
L 437.006276 257.946642 
L 438.165021 240.092574 
L 438.937517 253.288907 
L 439.710014 264.50077 
L 440.868759 260.710109 
L 441.641255 265.974225 
L 442.027503 266.73607 
L 442.413752 266.329504 
L 443.572497 266.380665 
L 443.958745 270.81358 
L 444.344993 260.462234 
L 444.731241 263.879743 
L 445.11749 256.067984 
L 446.662483 261.328881 
L 447.048731 261.934753 
L 447.434979 252.087436 
L 447.821228 245.73003 
L 448.979972 246.498925 
L 449.752469 258.937303 
L 450.138717 258.30488 
L 450.524965 232.727863 
L 451.68371 240.720459 
L 452.069958 240.950142 
L 452.456207 241.625831 
L 452.842455 248.291783 
L 453.228703 240.770152 
L 454.387448 247.382872 
L 455.159945 256.490199 
L 455.546193 255.919148 
L 455.932441 247.18013 
L 457.091186 253.837632 
L 457.863683 249.097682 
L 458.249931 251.412979 
L 458.636179 256.277641 
L 459.794924 255.656558 
L 460.56742 262.09452 
L 460.953669 224.50758 
L 461.339917 230.922111 
L 462.498662 207.544006 
L 462.88491 207.288352 
L 464.043655 230.841606 
L 465.2024 221.056067 
L 465.588648 229.41754 
L 465.974896 228.301121 
L 466.747393 243.450556 
L 467.906138 250.015986 
L 468.678634 262.72127 
L 469.064882 252.638363 
L 469.451131 252.733626 
L 470.609875 249.449899 
L 470.996124 255.662839 
L 471.382372 233.917512 
L 471.76862 238.997164 
L 472.154868 220.886776 
L 473.313613 228.032346 
L 473.699862 231.249814 
L 474.08611 214.465816 
L 474.858606 220.667933 
L 476.017351 228.82733 
L 476.403599 233.892689 
L 476.789848 241.155294 
L 477.562344 247.950576 
L 478.721089 244.149112 
L 479.107337 246.82382 
L 479.493586 251.89905 
L 479.879834 252.315482 
L 480.266082 257.817996 
L 481.424827 256.231658 
L 481.811075 232.160831 
L 482.197323 235.039713 
L 482.96982 248.297126 
L 484.514813 255.696301 
L 484.901061 260.775273 
L 485.28731 246.068032 
L 485.673558 246.698149 
L 486.832303 252.213287 
L 487.218551 247.961664 
L 487.991048 259.546026 
L 488.377296 259.119802 
L 489.922289 264.364948 
L 490.308537 247.296518 
L 490.694785 253.205156 
L 491.081034 257.134113 
L 492.626027 262.396455 
L 493.012275 266.59681 
L 493.398523 259.489717 
L 493.784772 261.274952 
L 494.943516 265.009701 
L 495.716013 273.681218 
L 496.102261 256.892353 
L 496.488509 257.222956 
L 498.033503 262.219428 
L 498.805999 271.429569 
L 499.192247 272.974844 
L 500.350992 266.627754 
L 500.73724 256.460535 
L 501.123489 260.197436 
L 501.509737 261.363879 
L 501.895985 260.12693 
L 503.05473 264.563188 
L 503.827227 258.556129 
L 504.599723 265.265705 
L 505.758468 269.115521 
L 506.144716 264.267547 
L 506.530964 268.292827 
L 506.917213 261.675626 
L 507.303461 266.330242 
L 508.462206 270.681764 
L 509.620951 281.943332 
L 511.93844 206.304634 
L 512.324689 213.483938 
L 512.710937 217.284257 
L 513.869682 223.403579 
L 514.25593 226.163326 
L 515.414675 243.676285 
L 516.573419 242.723876 
L 516.959668 247.786066 
L 517.345916 247.692422 
L 517.732164 251.349915 
L 518.118413 233.307225 
L 519.277157 227.429058 
L 520.049654 238.751979 
L 520.435902 232.500294 
L 520.82215 238.450963 
L 521.980895 239.97203 
L 522.367144 243.018071 
L 522.753392 238.55547 
L 523.13964 239.449689 
L 523.525888 244.961759 
L 524.684633 249.727665 
L 525.45713 259.60249 
L 525.843378 259.390833 
L 526.229626 263.684974 
L 527.388371 268.138108 
L 527.774619 271.733377 
L 528.160868 263.934011 
L 528.547116 245.953343 
L 530.478357 251.743384 
L 531.637102 264.68476 
L 532.795847 268.794183 
L 533.954592 279.959569 
L 535.499585 218.376302 
L 535.885833 211.253786 
L 536.272081 211.560683 
L 537.044578 219.56962 
L 538.203323 225.620035 
L 538.589571 223.12996 
L 538.975819 226.961913 
L 539.748316 236.59372 
L 540.90706 239.371168 
L 541.293309 239.327266 
L 541.679557 234.192288 
L 542.065805 239.221956 
L 542.452054 242.274317 
L 543.610798 246.15297 
L 543.997047 243.580385 
L 545.155791 255.73655 
L 546.314536 255.746268 
L 546.700784 259.414402 
L 547.087033 252.914665 
L 547.473281 255.639858 
L 547.859529 253.834186 
L 549.404522 257.979841 
L 549.790771 261.553372 
L 550.177019 256.253953 
L 550.563267 259.842265 
L 551.722012 244.760015 
L 552.10826 248.732683 
L 552.494509 248.136141 
L 552.880757 249.322491 
L 553.267005 253.50801 
L 554.42575 257.513943 
L 554.811998 261.073783 
L 555.198246 254.5025 
L 555.584495 258.123463 
L 555.970743 260.41743 
L 557.515736 263.498397 
L 557.901984 265.586662 
L 558.288233 268.913974 
L 558.674481 270.390652 
L 559.833226 269.983696 
L 560.219474 270.560239 
L 560.605722 273.668658 
L 560.99197 265.378352 
L 561.378219 268.493124 
L 562.536964 270.049391 
L 563.30946 269.345447 
L 564.081957 275.812388 
L 565.240701 268.561656 
L 566.013198 274.634613 
L 566.399446 275.906968 
L 566.785695 278.713671 
L 567.944439 277.348423 
L 568.716936 282.728638 
L 569.103184 283.18494 
L 569.489432 275.479151 
L 570.648177 272.636953 
L 571.034425 272.552333 
L 571.806922 277.61094 
L 573.738163 281.00174 
L 574.124412 281.266375 
L 574.51066 280.316306 
L 576.441901 284.863619 
L 577.214398 289.531714 
L 577.600646 290.788972 
L 578.759391 289.764788 
L 579.531887 293.378255 
L 579.918136 294.284649 
L 580.304384 296.273781 
L 581.463129 298.381366 
L 581.849377 295.358583 
L 582.235625 297.568219 
L 582.621874 296.779531 
L 583.008122 298.682095 
L 584.166867 300.513177 
L 584.553115 302.500321 
L 584.939363 290.660198 
L 585.71186 295.105993 
L 587.256853 296.774981 
L 587.643101 298.757054 
L 588.029349 279.84912 
L 588.415598 281.860957 
L 589.574342 282.862808 
L 591.119335 291.403349 
L 592.27808 293.338297 
L 592.664329 294.430529 
L 593.050577 295.913545 
L 593.823073 286.915549 
L 594.981818 289.207178 
L 595.368066 291.091115 
L 595.754315 290.788623 
L 596.140563 292.732945 
L 596.526811 274.700274 
L 597.685556 276.705399 
L 598.071804 268.073226 
L 598.458053 264.851923 
L 598.844301 267.966193 
L 599.230549 268.943282 
L 600.389294 267.367365 
L 600.775542 267.286452 
L 601.16179 262.53504 
L 601.548039 264.838676 
L 601.934287 261.90208 
L 603.093032 255.844584 
L 603.47928 256.569837 
L 603.865528 260.075102 
L 604.251777 216.27783 
L 604.638025 209.830869 
L 605.79677 209.95232 
L 606.569266 220.518584 
L 606.955515 223.371696 
L 607.341763 229.336256 
L 608.500508 234.752646 
L 608.886756 227.914631 
L 609.273004 233.422513 
L 609.659252 234.73962 
L 610.045501 239.172851 
L 611.204246 241.038299 
L 611.590494 226.01601 
L 612.36299 232.399438 
L 612.749239 231.773629 
L 613.907983 235.313606 
L 614.294232 237.956094 
L 614.68048 209.299308 
L 615.066728 214.429109 
L 615.452976 214.353806 
L 616.611721 215.032887 
L 616.99797 219.107464 
L 617.384218 220.823289 
L 618.156714 226.501715 
L 619.315459 230.687403 
L 619.701707 219.646094 
L 620.087956 222.926415 
L 620.860452 232.587533 
L 622.019197 231.403555 
L 622.405445 226.601675 
L 622.791694 219.371893 
L 623.177942 218.084349 
L 623.56419 211.718858 
L 624.722935 216.277304 
L 625.495431 226.836562 
L 625.88168 202.811111 
L 626.267928 203.671134 
L 627.426673 209.872044 
L 628.199169 220.021025 
L 628.585418 218.573593 
L 628.971666 222.728463 
L 630.516659 224.509976 
L 631.675404 237.820913 
L 633.220397 237.920588 
L 633.606645 241.709167 
L 633.992893 236.998252 
L 634.379142 237.940959 
L 635.537886 242.866297 
L 635.924135 247.513818 
L 636.310383 249.940059 
L 636.696631 254.395325 
L 637.08288 253.29297 
L 638.627873 255.611477 
L 639.014121 260.018574 
L 639.400369 254.518795 
L 639.786617 256.216617 
L 640.945362 257.360784 
L 641.331611 250.246115 
L 642.104107 257.524225 
L 642.490355 257.917759 
L 643.6491 261.313621 
L 644.035348 261.211888 
L 644.421597 262.172124 
L 644.807845 254.564348 
L 645.194093 257.192942 
L 646.352838 258.831556 
L 646.739086 250.879834 
L 647.125335 248.263813 
L 647.511583 251.202757 
L 647.897831 255.28262 
L 649.056576 258.591354 
L 649.442824 255.938733 
L 649.829072 239.186845 
L 650.215321 242.389937 
L 650.601569 243.897485 
L 652.146562 240.699539 
L 652.53281 227.803434 
L 652.919059 229.130356 
L 653.305307 234.409681 
L 654.464052 237.653688 
L 654.8503 242.27352 
L 655.236548 233.577062 
L 655.622796 235.714652 
L 656.009045 233.14084 
L 657.16779 233.161962 
L 657.554038 219.418592 
L 657.940286 99.698012 
L 658.326534 91.702105 
L 658.712783 104.801703 
L 659.871527 114.784917 
L 660.257776 119.646293 
L 661.030272 142.342194 
L 661.416521 146.114574 
L 662.575265 155.355104 
L 662.961514 163.879265 
L 663.73401 175.376552 
L 664.120258 184.139224 
L 665.279003 188.789983 
L 666.0515 203.5429 
L 666.437748 186.923917 
L 667.982741 193.262451 
L 669.141486 211.893669 
L 669.527734 203.010198 
L 670.686479 209.070786 
L 671.072727 199.602318 
L 672.231472 217.733133 
L 673.390217 208.641351 
L 673.776465 214.55259 
L 674.162713 209.134497 
L 674.548962 216.161907 
L 674.93521 220.68432 
L 676.093955 227.316915 
L 676.866451 238.632477 
L 677.638948 250.438884 
L 678.797693 254.607206 
L 679.183941 229.746227 
L 679.570189 226.952718 
L 679.956437 232.42265 
L 680.342686 226.208543 
L 681.501431 230.052552 
L 681.887679 233.939579 
L 682.660175 244.636805 
L 683.046424 247.06582 
L 684.205168 247.494981 
L 684.591417 251.546151 
L 684.977665 251.655057 
L 685.363913 237.973796 
L 685.750162 242.611244 
L 686.908906 246.716373 
L 687.295155 251.477338 
L 687.681403 252.27277 
L 688.067651 257.096161 
L 688.453899 257.103886 
L 689.998892 253.957322 
L 690.385141 258.655067 
L 690.771389 256.378314 
L 691.157637 260.919321 
L 692.316382 264.763066 
L 692.70263 267.787084 
L 693.088879 268.880551 
L 693.861375 276.740983 
L 695.02012 274.854522 
L 696.178865 284.298624 
L 696.565113 275.375384 
L 697.723858 266.042204 
L 698.110106 265.232819 
L 698.882603 268.592737 
L 699.268851 252.041144 
L 700.427596 256.380205 
L 700.813844 259.046988 
L 701.200092 255.188736 
L 701.586341 229.157337 
L 701.972589 227.503766 
L 703.131334 233.558115 
L 703.517582 237.584787 
L 703.90383 243.12509 
L 704.676327 243.620254 
L 705.835072 247.27113 
L 706.22132 251.937885 
L 706.607568 217.479406 
L 706.993816 204.406232 
L 707.380065 211.494146 
L 708.538809 218.514584 
L 709.311306 226.418317 
L 709.697554 229.148098 
L 710.083802 234.208516 
L 711.242547 238.217155 
L 711.628796 242.407369 
L 712.015044 245.086817 
L 712.78754 254.916443 
L 713.946285 257.466959 
L 715.491278 272.789514 
L 716.650023 248.336833 
L 717.036271 244.9328 
L 717.42252 238.494926 
L 717.808768 243.560133 
L 718.195016 242.855883 
L 719.353761 247.822375 
L 719.740009 228.973625 
L 720.126257 233.562279 
L 720.512506 224.339839 
L 720.898754 202.717777 
L 722.057499 209.99626 
L 722.443747 209.819407 
L 722.829995 215.414365 
L 723.216244 211.633597 
L 723.602492 216.733769 
L 724.761237 216.367595 
L 725.919982 232.768846 
L 726.30623 230.979532 
L 727.851223 235.523165 
L 728.237471 219.755924 
L 728.623719 225.616384 
L 729.009968 228.615402 
L 730.168713 213.522441 
L 730.941209 224.495978 
L 731.327457 172.936491 
L 731.713706 181.225353 
L 732.87245 188.701596 
L 733.644947 201.617926 
L 734.031195 203.610806 
L 734.417443 206.767185 
L 735.576188 208.10767 
L 735.962437 211.068915 
L 736.348685 215.9195 
L 736.734933 214.662122 
L 737.121181 189.44449 
L 738.279926 196.433155 
L 739.824919 221.441367 
L 740.983664 203.950827 
L 741.369912 208.528037 
L 741.756161 208.729788 
L 742.528657 219.609555 
L 743.687402 225.084169 
L 744.07365 228.339786 
L 744.459898 227.360382 
L 744.846147 230.094116 
L 745.232395 229.715276 
L 746.39114 235.038296 
L 746.777388 239.449262 
L 747.163636 241.033348 
L 747.163636 241.033348 
" clip-path="url(#p0e7662eaf1)" style="fill: none; stroke: #1f77b4; stroke-width: 1.5; stroke-linecap: square"/>
   </g>
   <g id="patch_3">
    <path d="M 108 384.48 
L 108 51.84 
" style="fill: none; stroke: #000000; stroke-width: 0.8; stroke-linejoin: miter; stroke-linecap: square"/>
   </g>
   <g id="patch_4">
    <path d="M 777.6 384.48 
L 777.6 51.84 
" style="fill: none; stroke: #000000; stroke-width: 0.8; stroke-linejoin: miter; stroke-linecap: square"/>
   </g>
   <g id="patch_5">
    <path d="M 108 384.48 
L 777.6 384.48 
" style="fill: none; stroke: #000000; stroke-width: 0.8; stroke-linejoin: miter; stroke-linecap: square"/>
   </g>
   <g id="patch_6">
    <path d="M 108 51.84 
L 777.6 51.84 
" style="fill: none; stroke: #000000; stroke-width: 0.8; stroke-linejoin: miter; stroke-linecap: square"/>
   </g>
   <g id="text_22">
    <!-- Volatility Prediction with GARCH -->
    <g transform="translate(347.311875 45.84) scale(0.12 -0.12)">
     <defs>
      <path id="DejaVuSans-20" transform="scale(0.015625)"/>
      <path id="DejaVuSans-50" d="M 1259 4147 
L 1259 2394 
L 2053 2394 
Q 2494 2394 2734 2622 
Q 2975 2850 2975 3272 
Q 2975 3691 2734 3919 
Q 2494 4147 2053 4147 
L 1259 4147 
z
M 628 4666 
L 2053 4666 
Q 2838 4666 3239 4311 
Q 3641 3956 3641 3272 
Q 3641 2581 3239 2228 
Q 2838 1875 2053 1875 
L 1259 1875 
L 1259 0 
L 628 0 
L 628 4666 
z
" transform="scale(0.015625)"/>
      <path id="DejaVuSans-72" d="M 2631 2963 
Q 2534 3019 2420 3045 
Q 2306 3072 2169 3072 
Q 1681 3072 1420 2755 
Q 1159 2438 1159 1844 
L 1159 0 
L 581 0 
L 581 3500 
L 1159 3500 
L 1159 2956 
Q 1341 3275 1631 3429 
Q 1922 3584 2338 3584 
Q 2397 3584 2469 3576 
Q 2541 3569 2628 3553 
L 2631 2963 
z
" transform="scale(0.015625)"/>
      <path id="DejaVuSans-64" d="M 2906 2969 
L 2906 4863 
L 3481 4863 
L 3481 0 
L 2906 0 
L 2906 525 
Q 2725 213 2448 61 
Q 2172 -91 1784 -91 
Q 1150 -91 751 415 
Q 353 922 353 1747 
Q 353 2572 751 3078 
Q 1150 3584 1784 3584 
Q 2172 3584 2448 3432 
Q 2725 3281 2906 2969 
z
M 947 1747 
Q 947 1113 1208 752 
Q 1469 391 1925 391 
Q 2381 391 2643 752 
Q 2906 1113 2906 1747 
Q 2906 2381 2643 2742 
Q 2381 3103 1925 3103 
Q 1469 3103 1208 2742 
Q 947 2381 947 1747 
z
" transform="scale(0.015625)"/>
      <path id="DejaVuSans-63" d="M 3122 3366 
L 3122 2828 
Q 2878 2963 2633 3030 
Q 2388 3097 2138 3097 
Q 1578 3097 1268 2742 
Q 959 2388 959 1747 
Q 959 1106 1268 751 
Q 1578 397 2138 397 
Q 2388 397 2633 464 
Q 2878 531 3122 666 
L 3122 134 
Q 2881 22 2623 -34 
Q 2366 -91 2075 -91 
Q 1284 -91 818 406 
Q 353 903 353 1747 
Q 353 2603 823 3093 
Q 1294 3584 2113 3584 
Q 2378 3584 2631 3529 
Q 2884 3475 3122 3366 
z
" transform="scale(0.015625)"/>
      <path id="DejaVuSans-6e" d="M 3513 2113 
L 3513 0 
L 2938 0 
L 2938 2094 
Q 2938 2591 2744 2837 
Q 2550 3084 2163 3084 
Q 1697 3084 1428 2787 
Q 1159 2491 1159 1978 
L 1159 0 
L 581 0 
L 581 3500 
L 1159 3500 
L 1159 2956 
Q 1366 3272 1645 3428 
Q 1925 3584 2291 3584 
Q 2894 3584 3203 3211 
Q 3513 2838 3513 2113 
z
" transform="scale(0.015625)"/>
      <path id="DejaVuSans-77" d="M 269 3500 
L 844 3500 
L 1563 769 
L 2278 3500 
L 2956 3500 
L 3675 769 
L 4391 3500 
L 4966 3500 
L 4050 0 
L 3372 0 
L 2619 2869 
L 1863 0 
L 1184 0 
L 269 3500 
z
" transform="scale(0.015625)"/>
      <path id="DejaVuSans-68" d="M 3513 2113 
L 3513 0 
L 2938 0 
L 2938 2094 
Q 2938 2591 2744 2837 
Q 2550 3084 2163 3084 
Q 1697 3084 1428 2787 
Q 1159 2491 1159 1978 
L 1159 0 
L 581 0 
L 581 4863 
L 1159 4863 
L 1159 2956 
Q 1366 3272 1645 3428 
Q 1925 3584 2291 3584 
Q 2894 3584 3203 3211 
Q 3513 2838 3513 2113 
z
" transform="scale(0.015625)"/>
      <path id="DejaVuSans-47" d="M 3809 666 
L 3809 1919 
L 2778 1919 
L 2778 2438 
L 4434 2438 
L 4434 434 
Q 4069 175 3628 42 
Q 3188 -91 2688 -91 
Q 1594 -91 976 548 
Q 359 1188 359 2328 
Q 359 3472 976 4111 
Q 1594 4750 2688 4750 
Q 3144 4750 3555 4637 
Q 3966 4525 4313 4306 
L 4313 3634 
Q 3963 3931 3569 4081 
Q 3175 4231 2741 4231 
Q 1884 4231 1454 3753 
Q 1025 3275 1025 2328 
Q 1025 1384 1454 906 
Q 1884 428 2741 428 
Q 3075 428 3337 486 
Q 3600 544 3809 666 
z
" transform="scale(0.015625)"/>
      <path id="DejaVuSans-41" d="M 2188 4044 
L 1331 1722 
L 3047 1722 
L 2188 4044 
z
M 1831 4666 
L 2547 4666 
L 4325 0 
L 3669 0 
L 3244 1197 
L 1141 1197 
L 716 0 
L 50 0 
L 1831 4666 
z
" transform="scale(0.015625)"/>
      <path id="DejaVuSans-52" d="M 2841 2188 
Q 3044 2119 3236 1894 
Q 3428 1669 3622 1275 
L 4263 0 
L 3584 0 
L 2988 1197 
Q 2756 1666 2539 1819 
Q 2322 1972 1947 1972 
L 1259 1972 
L 1259 0 
L 628 0 
L 628 4666 
L 2053 4666 
Q 2853 4666 3247 4331 
Q 3641 3997 3641 3322 
Q 3641 2881 3436 2590 
Q 3231 2300 2841 2188 
z
M 1259 4147 
L 1259 2491 
L 2053 2491 
Q 2509 2491 2742 2702 
Q 2975 2913 2975 3322 
Q 2975 3731 2742 3939 
Q 2509 4147 2053 4147 
L 1259 4147 
z
" transform="scale(0.015625)"/>
      <path id="DejaVuSans-43" d="M 4122 4306 
L 4122 3641 
Q 3803 3938 3442 4084 
Q 3081 4231 2675 4231 
Q 1875 4231 1450 3742 
Q 1025 3253 1025 2328 
Q 1025 1406 1450 917 
Q 1875 428 2675 428 
Q 3081 428 3442 575 
Q 3803 722 4122 1019 
L 4122 359 
Q 3791 134 3420 21 
Q 3050 -91 2638 -91 
Q 1578 -91 968 557 
Q 359 1206 359 2328 
Q 359 3453 968 4101 
Q 1578 4750 2638 4750 
Q 3056 4750 3426 4639 
Q 3797 4528 4122 4306 
z
" transform="scale(0.015625)"/>
      <path id="DejaVuSans-48" d="M 628 4666 
L 1259 4666 
L 1259 2753 
L 3553 2753 
L 3553 4666 
L 4184 4666 
L 4184 0 
L 3553 0 
L 3553 2222 
L 1259 2222 
L 1259 0 
L 628 0 
L 628 4666 
z
" transform="scale(0.015625)"/>
     </defs>
     <use xlink:href="#DejaVuSans-56"/>
     <use xlink:href="#DejaVuSans-6f" x="60.658203"/>
     <use xlink:href="#DejaVuSans-6c" x="121.839844"/>
     <use xlink:href="#DejaVuSans-61" x="149.623047"/>
     <use xlink:href="#DejaVuSans-74" x="210.902344"/>
     <use xlink:href="#DejaVuSans-69" x="250.111328"/>
     <use xlink:href="#DejaVuSans-6c" x="277.894531"/>
     <use xlink:href="#DejaVuSans-69" x="305.677734"/>
     <use xlink:href="#DejaVuSans-74" x="333.460938"/>
     <use xlink:href="#DejaVuSans-79" x="372.669922"/>
     <use xlink:href="#DejaVuSans-20" x="431.849609"/>
     <use xlink:href="#DejaVuSans-50" x="463.636719"/>
     <use xlink:href="#DejaVuSans-72" x="522.189453"/>
     <use xlink:href="#DejaVuSans-65" x="561.052734"/>
     <use xlink:href="#DejaVuSans-64" x="622.576172"/>
     <use xlink:href="#DejaVuSans-69" x="686.052734"/>
     <use xlink:href="#DejaVuSans-63" x="713.835938"/>
     <use xlink:href="#DejaVuSans-74" x="768.816406"/>
     <use xlink:href="#DejaVuSans-69" x="808.025391"/>
     <use xlink:href="#DejaVuSans-6f" x="835.808594"/>
     <use xlink:href="#DejaVuSans-6e" x="896.990234"/>
     <use xlink:href="#DejaVuSans-20" x="960.369141"/>
     <use xlink:href="#DejaVuSans-77" x="992.15625"/>
     <use xlink:href="#DejaVuSans-69" x="1073.943359"/>
     <use xlink:href="#DejaVuSans-74" x="1101.726562"/>
     <use xlink:href="#DejaVuSans-68" x="1140.935547"/>
     <use xlink:href="#DejaVuSans-20" x="1204.314453"/>
     <use xlink:href="#DejaVuSans-47" x="1236.101562"/>
     <use xlink:href="#DejaVuSans-41" x="1313.591797"/>
     <use xlink:href="#DejaVuSans-52" x="1382"/>
     <use xlink:href="#DejaVuSans-43" x="1446.482422"/>
     <use xlink:href="#DejaVuSans-48" x="1516.306641"/>
    </g>
   </g>
   <g id="legend_1">
    <g id="patch_7">
     <path d="M 603.845312 89.19625 
L 770.6 89.19625 
Q 772.6 89.19625 772.6 87.19625 
L 772.6 58.84 
Q 772.6 56.84 770.6 56.84 
L 603.845312 56.84 
Q 601.845312 56.84 601.845312 58.84 
L 601.845312 87.19625 
Q 601.845312 89.19625 603.845312 89.19625 
z
" style="fill: #ffffff; opacity: 0.8; stroke: #cccccc; stroke-linejoin: miter"/>
    </g>
    <g id="line2d_22">
     <path d="M 605.845312 64.938437 
L 615.845312 64.938437 
L 625.845312 64.938437 
" style="fill: none; stroke: #000000; stroke-width: 1.5; stroke-linecap: square"/>
    </g>
    <g id="text_23">
     <!-- Absolute Returns -->
     <g transform="translate(633.845312 68.438437) scale(0.1 -0.1)">
      <defs>
       <path id="DejaVuSans-62" d="M 3116 1747 
Q 3116 2381 2855 2742 
Q 2594 3103 2138 3103 
Q 1681 3103 1420 2742 
Q 1159 2381 1159 1747 
Q 1159 1113 1420 752 
Q 1681 391 2138 391 
Q 2594 391 2855 752 
Q 3116 1113 3116 1747 
z
M 1159 2969 
Q 1341 3281 1617 3432 
Q 1894 3584 2278 3584 
Q 2916 3584 3314 3078 
Q 3713 2572 3713 1747 
Q 3713 922 3314 415 
Q 2916 -91 2278 -91 
Q 1894 -91 1617 61 
Q 1341 213 1159 525 
L 1159 0 
L 581 0 
L 581 4863 
L 1159 4863 
L 1159 2969 
z
" transform="scale(0.015625)"/>
       <path id="DejaVuSans-73" d="M 2834 3397 
L 2834 2853 
Q 2591 2978 2328 3040 
Q 2066 3103 1784 3103 
Q 1356 3103 1142 2972 
Q 928 2841 928 2578 
Q 928 2378 1081 2264 
Q 1234 2150 1697 2047 
L 1894 2003 
Q 2506 1872 2764 1633 
Q 3022 1394 3022 966 
Q 3022 478 2636 193 
Q 2250 -91 1575 -91 
Q 1294 -91 989 -36 
Q 684 19 347 128 
L 347 722 
Q 666 556 975 473 
Q 1284 391 1588 391 
Q 1994 391 2212 530 
Q 2431 669 2431 922 
Q 2431 1156 2273 1281 
Q 2116 1406 1581 1522 
L 1381 1569 
Q 847 1681 609 1914 
Q 372 2147 372 2553 
Q 372 3047 722 3315 
Q 1072 3584 1716 3584 
Q 2034 3584 2315 3537 
Q 2597 3491 2834 3397 
z
" transform="scale(0.015625)"/>
       <path id="DejaVuSans-75" d="M 544 1381 
L 544 3500 
L 1119 3500 
L 1119 1403 
Q 1119 906 1312 657 
Q 1506 409 1894 409 
Q 2359 409 2629 706 
Q 2900 1003 2900 1516 
L 2900 3500 
L 3475 3500 
L 3475 0 
L 2900 0 
L 2900 538 
Q 2691 219 2414 64 
Q 2138 -91 1772 -91 
Q 1169 -91 856 284 
Q 544 659 544 1381 
z
M 1991 3584 
L 1991 3584 
z
" transform="scale(0.015625)"/>
      </defs>
      <use xlink:href="#DejaVuSans-41"/>
      <use xlink:href="#DejaVuSans-62" x="68.408203"/>
      <use xlink:href="#DejaVuSans-73" x="131.884766"/>
      <use xlink:href="#DejaVuSans-6f" x="183.984375"/>
      <use xlink:href="#DejaVuSans-6c" x="245.166016"/>
      <use xlink:href="#DejaVuSans-75" x="272.949219"/>
      <use xlink:href="#DejaVuSans-74" x="336.328125"/>
      <use xlink:href="#DejaVuSans-65" x="375.537109"/>
      <use xlink:href="#DejaVuSans-20" x="437.060547"/>
      <use xlink:href="#DejaVuSans-52" x="468.847656"/>
      <use xlink:href="#DejaVuSans-65" x="533.830078"/>
      <use xlink:href="#DejaVuSans-74" x="595.353516"/>
      <use xlink:href="#DejaVuSans-75" x="634.5625"/>
      <use xlink:href="#DejaVuSans-72" x="697.941406"/>
      <use xlink:href="#DejaVuSans-6e" x="737.304688"/>
      <use xlink:href="#DejaVuSans-73" x="800.683594"/>
     </g>
    </g>
    <g id="line2d_23">
     <path d="M 605.845312 79.616562 
L 615.845312 79.616562 
L 625.845312 79.616562 
" style="fill: none; stroke: #1f77b4; stroke-width: 1.5; stroke-linecap: square"/>
    </g>
    <g id="text_24">
     <!-- GARCH Volatility Prediction -->
     <g transform="translate(633.845312 83.116562) scale(0.1 -0.1)">
      <use xlink:href="#DejaVuSans-47"/>
      <use xlink:href="#DejaVuSans-41" x="77.490234"/>
      <use xlink:href="#DejaVuSans-52" x="145.898438"/>
      <use xlink:href="#DejaVuSans-43" x="210.380859"/>
      <use xlink:href="#DejaVuSans-48" x="280.205078"/>
      <use xlink:href="#DejaVuSans-20" x="355.400391"/>
      <use xlink:href="#DejaVuSans-56" x="387.1875"/>
      <use xlink:href="#DejaVuSans-6f" x="447.845703"/>
      <use xlink:href="#DejaVuSans-6c" x="509.027344"/>
      <use xlink:href="#DejaVuSans-61" x="536.810547"/>
      <use xlink:href="#DejaVuSans-74" x="598.089844"/>
      <use xlink:href="#DejaVuSans-69" x="637.298828"/>
      <use xlink:href="#DejaVuSans-6c" x="665.082031"/>
      <use xlink:href="#DejaVuSans-69" x="692.865234"/>
      <use xlink:href="#DejaVuSans-74" x="720.648438"/>
      <use xlink:href="#DejaVuSans-79" x="759.857422"/>
      <use xlink:href="#DejaVuSans-20" x="819.037109"/>
      <use xlink:href="#DejaVuSans-50" x="850.824219"/>
      <use xlink:href="#DejaVuSans-72" x="909.376953"/>
      <use xlink:href="#DejaVuSans-65" x="948.240234"/>
      <use xlink:href="#DejaVuSans-64" x="1009.763672"/>
      <use xlink:href="#DejaVuSans-69" x="1073.240234"/>
      <use xlink:href="#DejaVuSans-63" x="1101.023438"/>
      <use xlink:href="#DejaVuSans-74" x="1156.003906"/>
      <use xlink:href="#DejaVuSans-69" x="1195.212891"/>
      <use xlink:href="#DejaVuSans-6f" x="1222.996094"/>
      <use xlink:href="#DejaVuSans-6e" x="1284.177734"/>
     </g>
    </g>
   </g>
  </g>
 </g>
 <defs>
  <clipPath id="p0e7662eaf1">
   <rect x="108" y="51.84" width="669.6" height="332.64"/>
  </clipPath>
 </defs>
</svg>
