<?xml version="1.0" encoding="utf-8" standalone="no"?>
<!DOCTYPE svg PUBLIC "-//W3C//DTD SVG 1.1//EN"
  "http://www.w3.org/Graphics/SVG/1.1/DTD/svg11.dtd">
<svg xmlns:xlink="http://www.w3.org/1999/xlink" width="864pt" height="432pt" viewBox="0 0 864 432" xmlns="http://www.w3.org/2000/svg" version="1.1">
 <metadata>
  <rdf:RDF xmlns:dc="http://purl.org/dc/elements/1.1/" xmlns:cc="http://creativecommons.org/ns#" xmlns:rdf="http://www.w3.org/1999/02/22-rdf-syntax-ns#">
   <cc:Work>
    <dc:type rdf:resource="http://purl.org/dc/dcmitype/StillImage"/>
    <dc:date>2025-02-16T14:46:53.085877</dc:date>
    <dc:format>image/svg+xml</dc:format>
    <dc:creator>
     <cc:Agent>
      <dc:title>Matplotlib v3.10.0, https://matplotlib.org/</dc:title>
     </cc:Agent>
    </dc:creator>
   </cc:Work>
  </rdf:RDF>
 </metadata>
 <defs>
  <style type="text/css">*{stroke-linejoin: round; stroke-linecap: butt}</style>
 </defs>
 <g id="figure_1">
  <g id="patch_1">
   <path d="M 0 432 
L 864 432 
L 864 0 
L 0 0 
z
" style="fill: #ffffff"/>
  </g>
  <g id="axes_1">
   <g id="patch_2">
    <path d="M 108 384.48 
L 777.6 384.48 
L 777.6 51.84 
L 108 51.84 
z
" style="fill: #ffffff"/>
   </g>
   <g id="matplotlib.axis_1">
    <g id="xtick_1">
     <g id="line2d_1">
      <defs>
       <path id="m80674b4717" d="M 0 0 
L 0 3.5 
" style="stroke: #000000; stroke-width: 0.8"/>
      </defs>
      <g>
       <use xlink:href="#m80674b4717" x="139.272527" y="384.48" style="stroke: #000000; stroke-width: 0.8"/>
      </g>
     </g>
     <g id="text_1">
      <!-- 2022-01 -->
      <g transform="translate(118.381121 399.078438) scale(0.1 -0.1)">
       <defs>
        <path id="DejaVuSans-32" d="M 1228 531 
L 3431 531 
L 3431 0 
L 469 0 
L 469 531 
Q 828 903 1448 1529 
Q 2069 2156 2228 2338 
Q 2531 2678 2651 2914 
Q 2772 3150 2772 3378 
Q 2772 3750 2511 3984 
Q 2250 4219 1831 4219 
Q 1534 4219 1204 4116 
Q 875 4013 500 3803 
L 500 4441 
Q 881 4594 1212 4672 
Q 1544 4750 1819 4750 
Q 2544 4750 2975 4387 
Q 3406 4025 3406 3419 
Q 3406 3131 3298 2873 
Q 3191 2616 2906 2266 
Q 2828 2175 2409 1742 
Q 1991 1309 1228 531 
z
" transform="scale(0.015625)"/>
        <path id="DejaVuSans-30" d="M 2034 4250 
Q 1547 4250 1301 3770 
Q 1056 3291 1056 2328 
Q 1056 1369 1301 889 
Q 1547 409 2034 409 
Q 2525 409 2770 889 
Q 3016 1369 3016 2328 
Q 3016 3291 2770 3770 
Q 2525 4250 2034 4250 
z
M 2034 4750 
Q 2819 4750 3233 4129 
Q 3647 3509 3647 2328 
Q 3647 1150 3233 529 
Q 2819 -91 2034 -91 
Q 1250 -91 836 529 
Q 422 1150 422 2328 
Q 422 3509 836 4129 
Q 1250 4750 2034 4750 
z
" transform="scale(0.015625)"/>
        <path id="DejaVuSans-2d" d="M 313 2009 
L 1997 2009 
L 1997 1497 
L 313 1497 
L 313 2009 
z
" transform="scale(0.015625)"/>
        <path id="DejaVuSans-31" d="M 794 531 
L 1825 531 
L 1825 4091 
L 703 3866 
L 703 4441 
L 1819 4666 
L 2450 4666 
L 2450 531 
L 3481 531 
L 3481 0 
L 794 0 
L 794 531 
z
" transform="scale(0.015625)"/>
       </defs>
       <use xlink:href="#DejaVuSans-32"/>
       <use xlink:href="#DejaVuSans-30" transform="translate(63.623047 0)"/>
       <use xlink:href="#DejaVuSans-32" transform="translate(127.246094 0)"/>
       <use xlink:href="#DejaVuSans-32" transform="translate(190.869141 0)"/>
       <use xlink:href="#DejaVuSans-2d" transform="translate(254.492188 0)"/>
       <use xlink:href="#DejaVuSans-30" transform="translate(290.576172 0)"/>
       <use xlink:href="#DejaVuSans-31" transform="translate(354.199219 0)"/>
      </g>
     </g>
    </g>
    <g id="xtick_2">
     <g id="line2d_2">
      <g>
       <use xlink:href="#m80674b4717" x="214.527273" y="384.48" style="stroke: #000000; stroke-width: 0.8"/>
      </g>
     </g>
     <g id="text_2">
      <!-- 2022-04 -->
      <g transform="translate(193.635866 399.078438) scale(0.1 -0.1)">
       <defs>
        <path id="DejaVuSans-34" d="M 2419 4116 
L 825 1625 
L 2419 1625 
L 2419 4116 
z
M 2253 4666 
L 3047 4666 
L 3047 1625 
L 3713 1625 
L 3713 1100 
L 3047 1100 
L 3047 0 
L 2419 0 
L 2419 1100 
L 313 1100 
L 313 1709 
L 2253 4666 
z
" transform="scale(0.015625)"/>
       </defs>
       <use xlink:href="#DejaVuSans-32"/>
       <use xlink:href="#DejaVuSans-30" transform="translate(63.623047 0)"/>
       <use xlink:href="#DejaVuSans-32" transform="translate(127.246094 0)"/>
       <use xlink:href="#DejaVuSans-32" transform="translate(190.869141 0)"/>
       <use xlink:href="#DejaVuSans-2d" transform="translate(254.492188 0)"/>
       <use xlink:href="#DejaVuSans-30" transform="translate(290.576172 0)"/>
       <use xlink:href="#DejaVuSans-34" transform="translate(354.199219 0)"/>
      </g>
     </g>
    </g>
    <g id="xtick_3">
     <g id="line2d_3">
      <g>
       <use xlink:href="#m80674b4717" x="290.618182" y="384.48" style="stroke: #000000; stroke-width: 0.8"/>
      </g>
     </g>
     <g id="text_3">
      <!-- 2022-07 -->
      <g transform="translate(269.726776 399.078438) scale(0.1 -0.1)">
       <defs>
        <path id="DejaVuSans-37" d="M 525 4666 
L 3525 4666 
L 3525 4397 
L 1831 0 
L 1172 0 
L 2766 4134 
L 525 4134 
L 525 4666 
z
" transform="scale(0.015625)"/>
       </defs>
       <use xlink:href="#DejaVuSans-32"/>
       <use xlink:href="#DejaVuSans-30" transform="translate(63.623047 0)"/>
       <use xlink:href="#DejaVuSans-32" transform="translate(127.246094 0)"/>
       <use xlink:href="#DejaVuSans-32" transform="translate(190.869141 0)"/>
       <use xlink:href="#DejaVuSans-2d" transform="translate(254.492188 0)"/>
       <use xlink:href="#DejaVuSans-30" transform="translate(290.576172 0)"/>
       <use xlink:href="#DejaVuSans-37" transform="translate(354.199219 0)"/>
      </g>
     </g>
    </g>
    <g id="xtick_4">
     <g id="line2d_4">
      <g>
       <use xlink:href="#m80674b4717" x="367.545255" y="384.48" style="stroke: #000000; stroke-width: 0.8"/>
      </g>
     </g>
     <g id="text_4">
      <!-- 2022-10 -->
      <g transform="translate(346.653848 399.078438) scale(0.1 -0.1)">
       <use xlink:href="#DejaVuSans-32"/>
       <use xlink:href="#DejaVuSans-30" transform="translate(63.623047 0)"/>
       <use xlink:href="#DejaVuSans-32" transform="translate(127.246094 0)"/>
       <use xlink:href="#DejaVuSans-32" transform="translate(190.869141 0)"/>
       <use xlink:href="#DejaVuSans-2d" transform="translate(254.492188 0)"/>
       <use xlink:href="#DejaVuSans-31" transform="translate(290.576172 0)"/>
       <use xlink:href="#DejaVuSans-30" transform="translate(354.199219 0)"/>
      </g>
     </g>
    </g>
    <g id="xtick_5">
     <g id="line2d_5">
      <g>
       <use xlink:href="#m80674b4717" x="444.472328" y="384.48" style="stroke: #000000; stroke-width: 0.8"/>
      </g>
     </g>
     <g id="text_5">
      <!-- 2023-01 -->
      <g transform="translate(423.580921 399.078438) scale(0.1 -0.1)">
       <defs>
        <path id="DejaVuSans-33" d="M 2597 2516 
Q 3050 2419 3304 2112 
Q 3559 1806 3559 1356 
Q 3559 666 3084 287 
Q 2609 -91 1734 -91 
Q 1441 -91 1130 -33 
Q 819 25 488 141 
L 488 750 
Q 750 597 1062 519 
Q 1375 441 1716 441 
Q 2309 441 2620 675 
Q 2931 909 2931 1356 
Q 2931 1769 2642 2001 
Q 2353 2234 1838 2234 
L 1294 2234 
L 1294 2753 
L 1863 2753 
Q 2328 2753 2575 2939 
Q 2822 3125 2822 3475 
Q 2822 3834 2567 4026 
Q 2313 4219 1838 4219 
Q 1578 4219 1281 4162 
Q 984 4106 628 3988 
L 628 4550 
Q 988 4650 1302 4700 
Q 1616 4750 1894 4750 
Q 2613 4750 3031 4423 
Q 3450 4097 3450 3541 
Q 3450 3153 3228 2886 
Q 3006 2619 2597 2516 
z
" transform="scale(0.015625)"/>
       </defs>
       <use xlink:href="#DejaVuSans-32"/>
       <use xlink:href="#DejaVuSans-30" transform="translate(63.623047 0)"/>
       <use xlink:href="#DejaVuSans-32" transform="translate(127.246094 0)"/>
       <use xlink:href="#DejaVuSans-33" transform="translate(190.869141 0)"/>
       <use xlink:href="#DejaVuSans-2d" transform="translate(254.492188 0)"/>
       <use xlink:href="#DejaVuSans-30" transform="translate(290.576172 0)"/>
       <use xlink:href="#DejaVuSans-31" transform="translate(354.199219 0)"/>
      </g>
     </g>
    </g>
    <g id="xtick_6">
     <g id="line2d_6">
      <g>
       <use xlink:href="#m80674b4717" x="519.727073" y="384.48" style="stroke: #000000; stroke-width: 0.8"/>
      </g>
     </g>
     <g id="text_6">
      <!-- 2023-04 -->
      <g transform="translate(498.835667 399.078438) scale(0.1 -0.1)">
       <use xlink:href="#DejaVuSans-32"/>
       <use xlink:href="#DejaVuSans-30" transform="translate(63.623047 0)"/>
       <use xlink:href="#DejaVuSans-32" transform="translate(127.246094 0)"/>
       <use xlink:href="#DejaVuSans-33" transform="translate(190.869141 0)"/>
       <use xlink:href="#DejaVuSans-2d" transform="translate(254.492188 0)"/>
       <use xlink:href="#DejaVuSans-30" transform="translate(290.576172 0)"/>
       <use xlink:href="#DejaVuSans-34" transform="translate(354.199219 0)"/>
      </g>
     </g>
    </g>
    <g id="xtick_7">
     <g id="line2d_7">
      <g>
       <use xlink:href="#m80674b4717" x="595.817982" y="384.48" style="stroke: #000000; stroke-width: 0.8"/>
      </g>
     </g>
     <g id="text_7">
      <!-- 2023-07 -->
      <g transform="translate(574.926576 399.078438) scale(0.1 -0.1)">
       <use xlink:href="#DejaVuSans-32"/>
       <use xlink:href="#DejaVuSans-30" transform="translate(63.623047 0)"/>
       <use xlink:href="#DejaVuSans-32" transform="translate(127.246094 0)"/>
       <use xlink:href="#DejaVuSans-33" transform="translate(190.869141 0)"/>
       <use xlink:href="#DejaVuSans-2d" transform="translate(254.492188 0)"/>
       <use xlink:href="#DejaVuSans-30" transform="translate(290.576172 0)"/>
       <use xlink:href="#DejaVuSans-37" transform="translate(354.199219 0)"/>
      </g>
     </g>
    </g>
    <g id="xtick_8">
     <g id="line2d_8">
      <g>
       <use xlink:href="#m80674b4717" x="672.745055" y="384.48" style="stroke: #000000; stroke-width: 0.8"/>
      </g>
     </g>
     <g id="text_8">
      <!-- 2023-10 -->
      <g transform="translate(651.853649 399.078438) scale(0.1 -0.1)">
       <use xlink:href="#DejaVuSans-32"/>
       <use xlink:href="#DejaVuSans-30" transform="translate(63.623047 0)"/>
       <use xlink:href="#DejaVuSans-32" transform="translate(127.246094 0)"/>
       <use xlink:href="#DejaVuSans-33" transform="translate(190.869141 0)"/>
       <use xlink:href="#DejaVuSans-2d" transform="translate(254.492188 0)"/>
       <use xlink:href="#DejaVuSans-31" transform="translate(290.576172 0)"/>
       <use xlink:href="#DejaVuSans-30" transform="translate(354.199219 0)"/>
      </g>
     </g>
    </g>
    <g id="xtick_9">
     <g id="line2d_9">
      <g>
       <use xlink:href="#m80674b4717" x="749.672128" y="384.48" style="stroke: #000000; stroke-width: 0.8"/>
      </g>
     </g>
     <g id="text_9">
      <!-- 2024-01 -->
      <g transform="translate(728.780722 399.078438) scale(0.1 -0.1)">
       <use xlink:href="#DejaVuSans-32"/>
       <use xlink:href="#DejaVuSans-30" transform="translate(63.623047 0)"/>
       <use xlink:href="#DejaVuSans-32" transform="translate(127.246094 0)"/>
       <use xlink:href="#DejaVuSans-34" transform="translate(190.869141 0)"/>
       <use xlink:href="#DejaVuSans-2d" transform="translate(254.492188 0)"/>
       <use xlink:href="#DejaVuSans-30" transform="translate(290.576172 0)"/>
       <use xlink:href="#DejaVuSans-31" transform="translate(354.199219 0)"/>
      </g>
     </g>
    </g>
    <g id="text_10">
     <!-- Date -->
     <g transform="translate(430.849219 412.756563) scale(0.1 -0.1)">
      <defs>
       <path id="DejaVuSans-44" d="M 1259 4147 
L 1259 519 
L 2022 519 
Q 2988 519 3436 956 
Q 3884 1394 3884 2338 
Q 3884 3275 3436 3711 
Q 2988 4147 2022 4147 
L 1259 4147 
z
M 628 4666 
L 1925 4666 
Q 3281 4666 3915 4102 
Q 4550 3538 4550 2338 
Q 4550 1131 3912 565 
Q 3275 0 1925 0 
L 628 0 
L 628 4666 
z
" transform="scale(0.015625)"/>
       <path id="DejaVuSans-61" d="M 2194 1759 
Q 1497 1759 1228 1600 
Q 959 1441 959 1056 
Q 959 750 1161 570 
Q 1363 391 1709 391 
Q 2188 391 2477 730 
Q 2766 1069 2766 1631 
L 2766 1759 
L 2194 1759 
z
M 3341 1997 
L 3341 0 
L 2766 0 
L 2766 531 
Q 2569 213 2275 61 
Q 1981 -91 1556 -91 
Q 1019 -91 701 211 
Q 384 513 384 1019 
Q 384 1609 779 1909 
Q 1175 2209 1959 2209 
L 2766 2209 
L 2766 2266 
Q 2766 2663 2505 2880 
Q 2244 3097 1772 3097 
Q 1472 3097 1187 3025 
Q 903 2953 641 2809 
L 641 3341 
Q 956 3463 1253 3523 
Q 1550 3584 1831 3584 
Q 2591 3584 2966 3190 
Q 3341 2797 3341 1997 
z
" transform="scale(0.015625)"/>
       <path id="DejaVuSans-74" d="M 1172 4494 
L 1172 3500 
L 2356 3500 
L 2356 3053 
L 1172 3053 
L 1172 1153 
Q 1172 725 1289 603 
Q 1406 481 1766 481 
L 2356 481 
L 2356 0 
L 1766 0 
Q 1100 0 847 248 
Q 594 497 594 1153 
L 594 3053 
L 172 3053 
L 172 3500 
L 594 3500 
L 594 4494 
L 1172 4494 
z
" transform="scale(0.015625)"/>
       <path id="DejaVuSans-65" d="M 3597 1894 
L 3597 1613 
L 953 1613 
Q 991 1019 1311 708 
Q 1631 397 2203 397 
Q 2534 397 2845 478 
Q 3156 559 3463 722 
L 3463 178 
Q 3153 47 2828 -22 
Q 2503 -91 2169 -91 
Q 1331 -91 842 396 
Q 353 884 353 1716 
Q 353 2575 817 3079 
Q 1281 3584 2069 3584 
Q 2775 3584 3186 3129 
Q 3597 2675 3597 1894 
z
M 3022 2063 
Q 3016 2534 2758 2815 
Q 2500 3097 2075 3097 
Q 1594 3097 1305 2825 
Q 1016 2553 972 2059 
L 3022 2063 
z
" transform="scale(0.015625)"/>
      </defs>
      <use xlink:href="#DejaVuSans-44"/>
      <use xlink:href="#DejaVuSans-61" transform="translate(77.001953 0)"/>
      <use xlink:href="#DejaVuSans-74" transform="translate(138.28125 0)"/>
      <use xlink:href="#DejaVuSans-65" transform="translate(177.490234 0)"/>
     </g>
    </g>
   </g>
   <g id="matplotlib.axis_2">
    <g id="ytick_1">
     <g id="line2d_10">
      <defs>
       <path id="m8b3338f0aa" d="M 0 0 
L -3.5 0 
" style="stroke: #000000; stroke-width: 0.8"/>
      </defs>
      <g>
       <use xlink:href="#m8b3338f0aa" x="108" y="369.453056" style="stroke: #000000; stroke-width: 0.8"/>
      </g>
     </g>
     <g id="text_11">
      <!-- 0.00 -->
      <g transform="translate(78.734375 373.252274) scale(0.1 -0.1)">
       <defs>
        <path id="DejaVuSans-2e" d="M 684 794 
L 1344 794 
L 1344 0 
L 684 0 
L 684 794 
z
" transform="scale(0.015625)"/>
       </defs>
       <use xlink:href="#DejaVuSans-30"/>
       <use xlink:href="#DejaVuSans-2e" transform="translate(63.623047 0)"/>
       <use xlink:href="#DejaVuSans-30" transform="translate(95.410156 0)"/>
       <use xlink:href="#DejaVuSans-30" transform="translate(159.033203 0)"/>
      </g>
     </g>
    </g>
    <g id="ytick_2">
     <g id="line2d_11">
      <g>
       <use xlink:href="#m8b3338f0aa" x="108" y="313.386508" style="stroke: #000000; stroke-width: 0.8"/>
      </g>
     </g>
     <g id="text_12">
      <!-- 0.01 -->
      <g transform="translate(78.734375 317.185727) scale(0.1 -0.1)">
       <use xlink:href="#DejaVuSans-30"/>
       <use xlink:href="#DejaVuSans-2e" transform="translate(63.623047 0)"/>
       <use xlink:href="#DejaVuSans-30" transform="translate(95.410156 0)"/>
       <use xlink:href="#DejaVuSans-31" transform="translate(159.033203 0)"/>
      </g>
     </g>
    </g>
    <g id="ytick_3">
     <g id="line2d_12">
      <g>
       <use xlink:href="#m8b3338f0aa" x="108" y="257.319961" style="stroke: #000000; stroke-width: 0.8"/>
      </g>
     </g>
     <g id="text_13">
      <!-- 0.02 -->
      <g transform="translate(78.734375 261.11918) scale(0.1 -0.1)">
       <use xlink:href="#DejaVuSans-30"/>
       <use xlink:href="#DejaVuSans-2e" transform="translate(63.623047 0)"/>
       <use xlink:href="#DejaVuSans-30" transform="translate(95.410156 0)"/>
       <use xlink:href="#DejaVuSans-32" transform="translate(159.033203 0)"/>
      </g>
     </g>
    </g>
    <g id="ytick_4">
     <g id="line2d_13">
      <g>
       <use xlink:href="#m8b3338f0aa" x="108" y="201.253414" style="stroke: #000000; stroke-width: 0.8"/>
      </g>
     </g>
     <g id="text_14">
      <!-- 0.03 -->
      <g transform="translate(78.734375 205.052632) scale(0.1 -0.1)">
       <use xlink:href="#DejaVuSans-30"/>
       <use xlink:href="#DejaVuSans-2e" transform="translate(63.623047 0)"/>
       <use xlink:href="#DejaVuSans-30" transform="translate(95.410156 0)"/>
       <use xlink:href="#DejaVuSans-33" transform="translate(159.033203 0)"/>
      </g>
     </g>
    </g>
    <g id="ytick_5">
     <g id="line2d_14">
      <g>
       <use xlink:href="#m8b3338f0aa" x="108" y="145.186866" style="stroke: #000000; stroke-width: 0.8"/>
      </g>
     </g>
     <g id="text_15">
      <!-- 0.04 -->
      <g transform="translate(78.734375 148.986085) scale(0.1 -0.1)">
       <use xlink:href="#DejaVuSans-30"/>
       <use xlink:href="#DejaVuSans-2e" transform="translate(63.623047 0)"/>
       <use xlink:href="#DejaVuSans-30" transform="translate(95.410156 0)"/>
       <use xlink:href="#DejaVuSans-34" transform="translate(159.033203 0)"/>
      </g>
     </g>
    </g>
    <g id="ytick_6">
     <g id="line2d_15">
      <g>
       <use xlink:href="#m8b3338f0aa" x="108" y="89.120319" style="stroke: #000000; stroke-width: 0.8"/>
      </g>
     </g>
     <g id="text_16">
      <!-- 0.05 -->
      <g transform="translate(78.734375 92.919538) scale(0.1 -0.1)">
       <defs>
        <path id="DejaVuSans-35" d="M 691 4666 
L 3169 4666 
L 3169 4134 
L 1269 4134 
L 1269 2991 
Q 1406 3038 1543 3061 
Q 1681 3084 1819 3084 
Q 2600 3084 3056 2656 
Q 3513 2228 3513 1497 
Q 3513 744 3044 326 
Q 2575 -91 1722 -91 
Q 1428 -91 1123 -41 
Q 819 9 494 109 
L 494 744 
Q 775 591 1075 516 
Q 1375 441 1709 441 
Q 2250 441 2565 725 
Q 2881 1009 2881 1497 
Q 2881 1984 2565 2268 
Q 2250 2553 1709 2553 
Q 1456 2553 1204 2497 
Q 953 2441 691 2322 
L 691 4666 
z
" transform="scale(0.015625)"/>
       </defs>
       <use xlink:href="#DejaVuSans-30"/>
       <use xlink:href="#DejaVuSans-2e" transform="translate(63.623047 0)"/>
       <use xlink:href="#DejaVuSans-30" transform="translate(95.410156 0)"/>
       <use xlink:href="#DejaVuSans-35" transform="translate(159.033203 0)"/>
      </g>
     </g>
    </g>
    <g id="text_17">
     <!-- Volatility -->
     <g transform="translate(72.654687 239.752187) rotate(-90) scale(0.1 -0.1)">
      <defs>
       <path id="DejaVuSans-56" d="M 1831 0 
L 50 4666 
L 709 4666 
L 2188 738 
L 3669 4666 
L 4325 4666 
L 2547 0 
L 1831 0 
z
" transform="scale(0.015625)"/>
       <path id="DejaVuSans-6f" d="M 1959 3097 
Q 1497 3097 1228 2736 
Q 959 2375 959 1747 
Q 959 1119 1226 758 
Q 1494 397 1959 397 
Q 2419 397 2687 759 
Q 2956 1122 2956 1747 
Q 2956 2369 2687 2733 
Q 2419 3097 1959 3097 
z
M 1959 3584 
Q 2709 3584 3137 3096 
Q 3566 2609 3566 1747 
Q 3566 888 3137 398 
Q 2709 -91 1959 -91 
Q 1206 -91 779 398 
Q 353 888 353 1747 
Q 353 2609 779 3096 
Q 1206 3584 1959 3584 
z
" transform="scale(0.015625)"/>
       <path id="DejaVuSans-6c" d="M 603 4863 
L 1178 4863 
L 1178 0 
L 603 0 
L 603 4863 
z
" transform="scale(0.015625)"/>
       <path id="DejaVuSans-69" d="M 603 3500 
L 1178 3500 
L 1178 0 
L 603 0 
L 603 3500 
z
M 603 4863 
L 1178 4863 
L 1178 4134 
L 603 4134 
L 603 4863 
z
" transform="scale(0.015625)"/>
       <path id="DejaVuSans-79" d="M 2059 -325 
Q 1816 -950 1584 -1140 
Q 1353 -1331 966 -1331 
L 506 -1331 
L 506 -850 
L 844 -850 
Q 1081 -850 1212 -737 
Q 1344 -625 1503 -206 
L 1606 56 
L 191 3500 
L 800 3500 
L 1894 763 
L 2988 3500 
L 3597 3500 
L 2059 -325 
z
" transform="scale(0.015625)"/>
      </defs>
      <use xlink:href="#DejaVuSans-56"/>
      <use xlink:href="#DejaVuSans-6f" transform="translate(60.658203 0)"/>
      <use xlink:href="#DejaVuSans-6c" transform="translate(121.839844 0)"/>
      <use xlink:href="#DejaVuSans-61" transform="translate(149.623047 0)"/>
      <use xlink:href="#DejaVuSans-74" transform="translate(210.902344 0)"/>
      <use xlink:href="#DejaVuSans-69" transform="translate(250.111328 0)"/>
      <use xlink:href="#DejaVuSans-6c" transform="translate(277.894531 0)"/>
      <use xlink:href="#DejaVuSans-69" transform="translate(305.677734 0)"/>
      <use xlink:href="#DejaVuSans-74" transform="translate(333.460938 0)"/>
      <use xlink:href="#DejaVuSans-79" transform="translate(372.669922 0)"/>
     </g>
    </g>
   </g>
   <g id="line2d_16">
    <path d="M 138.436364 354.709609 
L 140.944855 333.829337 
L 141.781019 365.921777 
L 142.617183 259.656526 
L 143.453347 364.046898 
L 144.28951 346.698801 
L 146.798002 361.367799 
L 147.634166 318.329954 
L 148.47033 353.677064 
L 149.306494 289.019838 
L 150.142657 364.857608 
L 153.487313 265.398602 
L 154.323477 314.862228 
L 155.15964 307.226222 
L 155.995804 262.388326 
L 158.504296 353.934295 
L 159.34046 300.790635 
L 160.176623 361.055675 
L 161.012787 339.184785 
L 161.848951 234.579591 
L 164.357443 264.553529 
L 165.193606 331.106045 
L 166.02977 316.871533 
L 166.865934 231.005213 
L 167.702098 340.614156 
L 170.210589 348.660283 
L 171.046753 322.547173 
L 171.882917 288.645148 
L 172.719081 266.953176 
L 173.555245 262.07611 
L 176.063736 347.878719 
L 176.8999 281.744135 
L 177.736064 364.51453 
L 178.572228 249.467819 
L 179.408392 329.130144 
L 182.753047 312.294761 
L 183.589211 265.260421 
L 184.425375 286.216063 
L 185.261538 245.399771 
L 187.77003 355.741419 
L 188.606194 282.020357 
L 189.442358 265.892369 
L 190.278521 339.914285 
L 191.114685 324.792235 
L 193.623177 201.46314 
L 194.459341 328.74856 
L 195.295504 227.192035 
L 196.131668 345.338506 
L 196.967832 296.307155 
L 199.476324 327.6909 
L 200.312488 250.689408 
L 201.148651 245.338938 
L 201.984815 300.647114 
L 202.820979 304.444928 
L 205.329471 367.015587 
L 206.165634 306.430319 
L 207.001798 300.218461 
L 207.837962 289.602913 
L 208.674126 341.120498 
L 211.182617 329.536266 
L 212.018781 301.152514 
L 212.854945 334.054945 
L 213.691109 281.00064 
L 214.527273 350.365652 
L 217.035764 324.272577 
L 217.871928 298.634532 
L 218.708092 314.707264 
L 219.544256 345.656312 
L 220.38042 354.569899 
L 222.888911 274.02031 
L 223.725075 350.259779 
L 224.561239 307.148587 
L 225.397403 300.948254 
L 228.742058 368.304315 
L 229.578222 280.138693 
L 230.414386 365.984364 
L 232.086713 211.72618 
L 234.595205 337.597402 
L 235.431369 209.383042 
L 236.267532 357.702308 
L 237.103696 232.394759 
L 237.93986 162.23584 
L 240.448352 337.723889 
L 241.284515 342.398336 
L 242.120679 204.476053 
L 242.956843 165.927695 
L 243.793007 337.548999 
L 246.301499 186.891931 
L 247.137662 355.689463 
L 247.973826 276.381309 
L 248.80999 362.182394 
L 249.646154 237.196196 
L 252.154645 347.28315 
L 252.990809 257.494201 
L 253.826973 138.269275 
L 254.663137 336.649266 
L 255.499301 368.633704 
L 258.007792 266.374723 
L 258.843956 323.736696 
L 259.68012 316.714699 
L 260.516284 259.068317 
L 261.352448 232.42014 
L 264.697103 334.164056 
L 265.533267 327.342034 
L 266.369431 267.057516 
L 267.205594 277.041877 
L 269.714086 351.890183 
L 270.55025 316.311324 
L 271.386414 308.606086 
L 272.222577 234.408675 
L 273.058741 203.818881 
L 275.567233 147.766345 
L 276.403397 348.255318 
L 277.23956 288.229134 
L 278.075724 184.140698 
L 278.911888 357.127072 
L 282.256543 233.870345 
L 283.092707 362.150905 
L 283.928871 316.262298 
L 284.765035 200.661704 
L 287.273526 352.759217 
L 288.10969 255.36501 
L 288.945854 365.461228 
L 289.782018 320.126451 
L 290.618182 310.591521 
L 293.962837 360.578443 
L 294.799001 349.455243 
L 295.635165 286.173415 
L 296.471329 364.796126 
L 298.97982 304.447088 
L 299.815984 317.384765 
L 300.652148 344.408919 
L 301.488312 352.615562 
L 302.324476 262.818833 
L 304.832967 322.364227 
L 305.669131 216.652054 
L 306.505295 336.494314 
L 307.341459 314.434507 
L 308.177622 316.883406 
L 310.686114 362.08422 
L 311.522278 304.357786 
L 312.358442 224.688898 
L 313.194605 301.83504 
L 314.030769 290.355637 
L 316.539261 353.60269 
L 317.375425 331.974236 
L 318.211588 282.452009 
L 319.047752 365.093057 
L 319.883916 360.330641 
L 322.392408 362.510351 
L 323.228571 345.581278 
L 324.064735 251.336798 
L 324.900899 365.496331 
L 325.737063 273.164081 
L 328.245554 347.241306 
L 329.081718 358.946563 
L 329.917882 328.725614 
L 330.754046 356.742821 
L 331.59021 296.656721 
L 334.098701 248.167773 
L 334.934865 356.892145 
L 335.771029 353.126997 
L 336.607193 290.997777 
L 337.443357 177.320986 
L 339.951848 331.95197 
L 340.788012 307.27852 
L 341.624176 325.453514 
L 342.46034 352.67933 
L 343.296503 308.931709 
L 346.641159 346.446301 
L 347.477323 267.552919 
L 348.313487 332.511013 
L 349.14965 284.478479 
L 351.658142 310.422472 
L 352.494306 121.64349 
L 353.33047 350.49529 
L 354.166633 305.636603 
L 355.002797 329.040038 
L 357.511289 331.138893 
L 358.347453 305.895318 
L 359.183616 272.655988 
L 360.01978 322.002351 
L 360.855944 271.993552 
L 363.364436 311.175373 
L 364.200599 357.552309 
L 365.036763 260.229005 
L 365.872927 249.735412 
L 366.709091 284.336387 
L 369.217582 226.177384 
L 370.053746 200.550666 
L 370.88991 358.127686 
L 371.726074 311.716172 
L 372.562238 210.20615 
L 375.070729 327.287268 
L 375.906893 332.782635 
L 376.743057 350.972338 
L 377.579221 225.730587 
L 378.415385 235.189886 
L 380.923876 222.920168 
L 381.76004 305.745983 
L 382.596204 331.919509 
L 383.432368 324.696861 
L 384.268531 237.989517 
L 386.777023 303.227567 
L 387.613187 278.985393 
L 388.449351 327.878938 
L 389.285514 335.245742 
L 390.121678 233.054022 
L 392.63017 327.5022 
L 393.466334 346.411565 
L 394.302498 227.493369 
L 395.138661 309.78474 
L 395.974825 293.612912 
L 398.483317 315.808237 
L 399.319481 338.155062 
L 400.155644 251.731392 
L 400.991808 66.96 
L 401.827972 317.881315 
L 404.336464 319.128101 
L 405.172627 320.813188 
L 406.008791 322.994645 
L 406.844955 352.105593 
L 407.681119 342.83665 
L 410.18961 347.636086 
L 411.025774 293.827008 
L 411.861938 336.389165 
L 413.534266 367.86589 
L 416.042757 282.18714 
L 416.878921 360.520988 
L 417.715085 198.569859 
L 418.551249 364.586478 
L 419.387413 362.751026 
L 421.895904 268.217848 
L 422.732068 288.134837 
L 423.568232 359.001633 
L 424.404396 327.438818 
L 425.240559 328.094375 
L 427.749051 289.960148 
L 428.585215 328.730732 
L 429.421379 335.414449 
L 430.257542 227.955186 
L 431.093706 306.657167 
L 433.602198 318.722192 
L 434.438362 363.64008 
L 435.274525 286.707004 
L 436.110689 287.836255 
L 436.946853 336.648751 
L 440.291508 346.702079 
L 441.127672 301.649186 
L 441.963836 272.398392 
L 442.8 355.189905 
L 446.144655 346.978385 
L 446.980819 327.343153 
L 447.816983 303.777397 
L 448.653147 242.833259 
L 451.161638 365.147538 
L 452.833966 297.869703 
L 453.67013 350.333907 
L 454.506294 347.088667 
L 457.850949 358.057243 
L 458.687113 281.51281 
L 459.523277 326.463081 
L 460.359441 264.374977 
L 462.867932 303.231017 
L 463.704096 365.462494 
L 464.54026 368.434066 
L 465.376424 308.073121 
L 466.212587 355.482663 
L 468.721079 296.266115 
L 469.557243 287.952985 
L 470.393407 311.154694 
L 471.22957 287.6386 
L 472.065734 311.095651 
L 474.574226 334.919468 
L 475.41039 297.74193 
L 476.246553 306.980546 
L 477.082717 319.72753 
L 477.918881 357.158417 
L 480.427373 305.629416 
L 481.263536 367.880724 
L 482.0997 353.926356 
L 482.935864 291.606377 
L 483.772028 353.915691 
L 487.116683 255.947542 
L 487.952847 360.623636 
L 488.789011 339.652013 
L 489.625175 310.059058 
L 492.133666 352.25013 
L 492.96983 352.405333 
L 493.805994 342.89735 
L 494.642158 327.102671 
L 495.478322 279.641453 
L 497.986813 365.601713 
L 498.822977 282.854969 
L 499.659141 361.52639 
L 500.495305 264.99072 
L 501.331469 287.685747 
L 503.83996 360.981919 
L 504.676124 277.826969 
L 505.512288 330.176409 
L 506.348452 271.843569 
L 507.184615 307.32789 
L 509.693107 319.672265 
L 511.365435 276.381259 
L 512.201598 352.744755 
L 513.037762 337.921464 
L 515.546254 360.226802 
L 516.382418 360.622121 
L 517.218581 290.192417 
L 518.054745 337.500762 
L 518.890909 289.091009 
L 521.399401 348.75317 
L 522.235564 336.85682 
L 523.071728 355.461772 
L 523.907892 349.421801 
L 527.252547 363.869833 
L 528.088711 369.221095 
L 528.924875 346.22225 
L 529.761039 295.582604 
L 530.597203 357.838742 
L 533.105694 350.947133 
L 533.941858 364.66017 
L 534.778022 368.980605 
L 535.614186 335.979421 
L 536.45035 364.391446 
L 538.958841 364.680604 
L 539.795005 280.098845 
L 540.631169 347.875367 
L 541.467333 260.811833 
L 542.303497 323.37008 
L 544.811988 367.287823 
L 545.648152 304.113678 
L 546.484316 330.078005 
L 547.32048 328.833368 
L 548.156643 266.816742 
L 550.665135 366.918723 
L 551.501299 343.718846 
L 552.337463 344.369226 
L 553.173626 359.932619 
L 554.00979 360.569019 
L 556.518282 352.892142 
L 557.354446 333.581052 
L 558.190609 303.178559 
L 559.026773 316.746427 
L 559.862937 361.340742 
L 562.371429 368.5839 
L 563.207592 306.179335 
L 564.043756 328.269226 
L 564.87992 320.566009 
L 565.716084 296.76458 
L 569.060739 369.36 
L 569.896903 335.099129 
L 570.733067 314.473049 
L 571.569231 288.550076 
L 574.077722 358.208368 
L 574.913886 356.271026 
L 575.75005 348.039565 
L 576.586214 334.862341 
L 577.422378 363.019958 
L 579.930869 317.43467 
L 580.767033 330.719072 
L 581.603197 364.860801 
L 582.439361 301.586852 
L 583.275524 348.829669 
L 586.62018 342.841994 
L 587.456344 339.967071 
L 588.292507 348.686391 
L 589.128671 326.347554 
L 591.637163 344.240238 
L 592.473327 305.589058 
L 593.309491 367.467509 
L 594.145654 344.42747 
L 594.981818 301.08347 
L 597.49031 362.893385 
L 599.162637 358.406523 
L 599.998801 324.857356 
L 600.834965 353.366432 
L 603.343457 355.985081 
L 604.17962 331.778644 
L 605.015784 328.054037 
L 605.851948 322.163925 
L 606.688112 363.706636 
L 609.196603 347.87884 
L 610.032767 329.690213 
L 610.868931 356.24867 
L 611.705095 331.440901 
L 612.541259 367.636297 
L 615.04975 346.880439 
L 615.885914 353.694228 
L 616.722078 368.581448 
L 617.558242 333.316016 
L 618.394406 314.343169 
L 620.902897 361.224507 
L 621.739061 354.490859 
L 622.575225 291.317521 
L 623.411389 355.149215 
L 624.247552 339.658407 
L 626.756044 319.085076 
L 627.592208 345.752649 
L 628.428372 329.84981 
L 629.264535 368.047587 
L 630.100699 363.452417 
L 632.609191 337.304483 
L 633.445355 304.314224 
L 634.281518 326.931709 
L 635.117682 326.041805 
L 635.953846 368.619249 
L 638.462338 331.015953 
L 639.298501 353.859112 
L 640.134665 307.867657 
L 640.970829 293.486516 
L 641.806993 331.913696 
L 644.315485 334.439054 
L 645.151648 288.694447 
L 645.987812 348.002855 
L 646.823976 360.492503 
L 647.66014 359.375101 
L 651.004795 345.88835 
L 651.840959 330.228815 
L 652.677123 351.419555 
L 653.513287 361.460172 
L 656.021778 331.883042 
L 656.857942 337.426844 
L 657.694106 362.496019 
L 658.53027 322.387458 
L 659.366434 300.860391 
L 661.874925 365.410453 
L 662.711089 357.38008 
L 664.383417 276.736258 
L 665.21958 356.567686 
L 667.728072 346.942477 
L 668.564236 286.227018 
L 669.4004 368.167493 
L 670.236563 336.50908 
L 671.072727 354.240733 
L 673.581219 369.008129 
L 674.417383 291.860396 
L 675.253546 324.167845 
L 676.08971 362.136983 
L 676.925874 303.599241 
L 679.434366 334.220399 
L 680.270529 340.329523 
L 681.106693 345.435109 
L 681.942857 334.321659 
L 682.779021 341.243169 
L 685.287512 310.366524 
L 686.123676 368.902187 
L 686.95984 293.816991 
L 687.796004 321.68978 
L 688.632168 298.443995 
L 691.140659 359.994564 
L 691.976823 328.863463 
L 692.812987 288.473646 
L 693.649151 302.716642 
L 694.485315 342.474688 
L 696.993806 302.518161 
L 697.82997 333.267204 
L 698.666134 310.856759 
L 699.502298 264.704297 
L 700.338462 317.031562 
L 702.846953 359.633156 
L 703.683117 353.552062 
L 704.519281 363.821673 
L 706.191608 282.57373 
L 708.7001 364.764874 
L 709.536264 263.513226 
L 710.372428 360.506287 
L 711.208591 362.782774 
L 712.044755 362.269635 
L 714.553247 328.17063 
L 715.389411 358.110856 
L 716.225574 346.729786 
L 717.897902 366.107622 
L 720.406394 358.486134 
L 721.242557 363.960636 
L 722.078721 364.145327 
L 722.914885 348.277139 
L 723.751049 336.617325 
L 726.25954 339.04711 
L 727.095704 366.262704 
L 727.931868 347.509602 
L 728.768032 324.955221 
L 729.604196 346.538239 
L 732.112687 347.492621 
L 732.948851 343.725474 
L 733.785015 293.435674 
L 734.621179 354.631453 
L 735.457343 369.025372 
L 738.801998 336.658301 
L 739.638162 286.513004 
L 740.474326 311.991628 
L 741.31049 360.153259 
L 744.655145 345.777631 
L 745.491309 361.438795 
L 746.327473 367.378021 
L 747.163636 353.583571 
L 747.163636 353.583571 
" clip-path="url(#p10a0c9770a)" style="fill: none; stroke: #000000; stroke-width: 1.5; stroke-linecap: square"/>
   </g>
   <g id="line2d_17">
    <path d="M 138.436364 321.295119 
L 140.944855 322.84714 
L 142.617183 326.246511 
L 143.453347 308.056335 
L 144.28951 310.843443 
L 146.798002 312.711336 
L 148.47033 317.247332 
L 149.306494 319.434875 
L 150.142657 311.247716 
L 153.487313 313.85676 
L 154.323477 301.282284 
L 155.15964 300.782578 
L 155.995804 299.260886 
L 158.504296 289.475261 
L 159.34046 293.45693 
L 160.176623 291.900057 
L 161.012787 295.655327 
L 161.848951 298.166248 
L 164.357443 300.372561 
L 165.193606 302.909728 
L 166.865934 308.687564 
L 167.702098 288.295299 
L 170.210589 292.297391 
L 172.719081 301.977884 
L 173.555245 292.673805 
L 176.063736 284.20474 
L 178.572228 295.437462 
L 179.408392 283.580819 
L 183.589211 287.00914 
L 184.425375 280.251248 
L 185.261538 284.387122 
L 187.77003 287.77862 
L 188.606194 291.637218 
L 189.442358 287.257552 
L 190.278521 290.722281 
L 191.114685 293.634418 
L 193.623177 295.057511 
L 194.459341 270.749695 
L 196.131668 278.178402 
L 196.967832 282.250866 
L 199.476324 281.389003 
L 200.312488 284.094457 
L 202.820979 294.337493 
L 205.329471 297.727245 
L 206.165634 301.177334 
L 207.001798 304.13909 
L 207.837962 301.03841 
L 208.674126 303.838752 
L 211.182617 306.857731 
L 212.018781 309.624885 
L 212.854945 311.954084 
L 213.691109 312.636659 
L 214.527273 304.157966 
L 217.035764 307.178341 
L 217.871928 309.881002 
L 218.708092 305.602898 
L 219.544256 304.566514 
L 220.38042 307.545497 
L 222.888911 310.066061 
L 223.725075 300.589097 
L 225.397403 306.204971 
L 228.742058 302.92958 
L 229.578222 306.048564 
L 230.414386 308.385105 
L 231.250549 311.142687 
L 232.086713 304.142194 
L 234.595205 279.760278 
L 235.431369 284.250923 
L 236.267532 265.247047 
L 237.103696 270.656002 
L 237.93986 274.807878 
L 240.448352 245.686867 
L 242.120679 258.367715 
L 242.956843 262.977449 
L 243.793007 238.34019 
L 246.301499 244.642645 
L 247.137662 229.418976 
L 247.973826 236.911454 
L 248.80999 238.264175 
L 249.646154 245.190205 
L 252.154645 251.066267 
L 253.826973 262.256576 
L 254.663137 230.435364 
L 255.499301 237.141861 
L 258.007792 244.139388 
L 258.843956 250.327971 
L 259.68012 255.023601 
L 261.352448 265.978746 
L 264.697103 270.442253 
L 265.533267 274.427208 
L 266.369431 277.658405 
L 267.205594 281.765245 
L 269.714086 277.969908 
L 271.386414 286.847292 
L 272.222577 287.113601 
L 273.058741 273.574527 
L 275.567233 255.93859 
L 276.403397 228.552679 
L 278.075724 242.633866 
L 278.911888 227.291535 
L 282.256543 234.855936 
L 284.765035 254.296382 
L 287.273526 259.131567 
L 288.10969 264.638503 
L 288.945854 259.610128 
L 289.782018 265.301537 
L 290.618182 268.638941 
L 293.962837 273.670202 
L 295.635165 283.216892 
L 296.471329 287.173217 
L 298.97982 291.319328 
L 299.815984 290.55522 
L 300.652148 291.510735 
L 302.324476 298.105367 
L 304.832967 300.693255 
L 305.669131 301.220111 
L 306.505295 302.639259 
L 308.177622 308.478114 
L 310.686114 307.407781 
L 311.522278 310.290102 
L 312.358442 306.956396 
L 313.194605 308.192474 
L 314.030769 310.623549 
L 316.539261 312.732583 
L 317.375425 314.864715 
L 318.211588 315.026015 
L 319.047752 316.683635 
L 319.883916 318.908499 
L 322.392408 320.873447 
L 323.228571 322.762657 
L 324.064735 323.547482 
L 324.900899 323.784344 
L 325.737063 325.521595 
L 328.245554 326.031395 
L 329.917882 329.06359 
L 330.754046 327.023778 
L 331.59021 328.520373 
L 334.098701 319.986451 
L 334.934865 300.877276 
L 336.607193 306.938675 
L 337.443357 309.310302 
L 339.951848 272.082308 
L 340.788012 275.827019 
L 341.624176 277.023745 
L 342.46034 279.884098 
L 343.296503 284.371909 
L 346.641159 284.910891 
L 349.14965 295.576233 
L 351.658142 298.644573 
L 352.494306 301.76344 
L 353.33047 249.661915 
L 354.166633 255.873661 
L 355.002797 258.62946 
L 357.511289 263.025916 
L 358.347453 268.368772 
L 359.183616 270.055578 
L 360.01978 267.196382 
L 360.855944 270.466225 
L 363.364436 267.453078 
L 364.200599 269.753016 
L 365.036763 274.646146 
L 365.872927 278.770869 
L 366.709091 270.513283 
L 369.217582 269.334659 
L 370.053746 273.387067 
L 370.88991 276.780488 
L 371.726074 281.267427 
L 372.562238 282.401318 
L 375.070729 264.429044 
L 376.743057 272.223039 
L 377.579221 276.777745 
L 378.415385 280.324337 
L 380.923876 268.726574 
L 381.76004 272.773687 
L 382.596204 277.402014 
L 383.432368 280.647286 
L 384.268531 283.091195 
L 386.777023 286.380338 
L 388.449351 293.500886 
L 389.285514 295.191407 
L 390.121678 297.375922 
L 392.63017 299.521433 
L 393.466334 300.655778 
L 394.302498 303.199447 
L 395.138661 283.950541 
L 395.974825 284.601737 
L 398.483317 288.407669 
L 400.155644 295.765592 
L 400.991808 284.597057 
L 401.827972 283.730718 
L 405.172627 289.180505 
L 406.008791 292.94153 
L 406.844955 294.210995 
L 407.681119 297.459024 
L 410.18961 300.803354 
L 411.861938 306.014593 
L 413.534266 308.803195 
L 416.042757 311.499944 
L 416.878921 303.652455 
L 417.715085 306.541728 
L 418.551249 307.292438 
L 419.387413 310.056195 
L 421.895904 312.610631 
L 422.732068 301.278443 
L 423.568232 296.537523 
L 425.240559 302.922081 
L 427.749051 303.775726 
L 429.421379 309.026554 
L 430.257542 310.056499 
L 431.093706 288.802506 
L 433.602198 288.56572 
L 434.438362 289.747028 
L 435.274525 293.538313 
L 436.110689 296.712043 
L 436.946853 292.651236 
L 440.291508 296.208586 
L 441.127672 299.014284 
L 441.963836 296.891282 
L 442.8 299.6973 
L 446.144655 302.649244 
L 446.980819 305.032881 
L 447.816983 307.798049 
L 448.653147 304.818568 
L 451.161638 306.649609 
L 452.833966 311.913282 
L 454.506294 316.293095 
L 457.850949 318.443446 
L 458.687113 320.284876 
L 459.523277 310.326084 
L 460.359441 310.277135 
L 462.867932 312.049411 
L 466.212587 320.343725 
L 468.721079 322.246723 
L 469.557243 315.264645 
L 472.065734 320.298952 
L 474.574226 316.663984 
L 475.41039 316.935634 
L 476.246553 318.65277 
L 477.082717 314.540225 
L 477.918881 313.130945 
L 480.427373 315.49873 
L 482.935864 321.451521 
L 483.772028 313.618429 
L 487.116683 315.596321 
L 487.952847 300.422407 
L 489.625175 306.398908 
L 492.133666 304.601716 
L 492.96983 307.479001 
L 493.805994 309.801066 
L 494.642158 311.383084 
L 495.478322 313.730259 
L 497.986813 315.451446 
L 498.822977 317.671147 
L 499.659141 308.734937 
L 500.495305 311.367543 
L 501.331469 299.722351 
L 503.83996 295.192004 
L 504.676124 298.563769 
L 505.512288 301.307232 
L 506.348452 302.496897 
L 507.184615 304.912454 
L 509.693107 302.898009 
L 511.365435 308.205375 
L 512.201598 299.906268 
L 513.037762 303.057055 
L 515.546254 305.970717 
L 517.218581 311.288375 
L 518.890909 315.591011 
L 521.399401 317.297492 
L 522.235564 319.365317 
L 523.071728 319.578401 
L 523.907892 321.206635 
L 527.252547 323.026218 
L 528.924875 326.388752 
L 529.761039 326.859575 
L 530.597203 327.767722 
L 533.105694 328.909294 
L 535.614186 332.603576 
L 536.45035 331.191358 
L 538.958841 332.358758 
L 539.795005 333.442068 
L 540.631169 319.173197 
L 541.467333 320.38117 
L 542.303497 321.305432 
L 544.811988 322.96972 
L 545.648152 324.696498 
L 546.484316 318.899143 
L 548.156643 317.746307 
L 550.665135 318.983067 
L 551.501299 320.988755 
L 552.337463 321.713741 
L 554.00979 325.007775 
L 556.518282 326.449625 
L 557.354446 327.915817 
L 558.190609 326.778865 
L 559.862937 328.969431 
L 562.371429 330.147972 
L 563.207592 331.377471 
L 564.043756 324.561146 
L 564.87992 323.107054 
L 565.716084 324.621943 
L 569.060739 325.770671 
L 569.896903 327.311537 
L 570.733067 326.450764 
L 571.569231 327.663677 
L 574.077722 328.442361 
L 575.75005 330.801378 
L 576.586214 331.000917 
L 577.422378 332.043962 
L 579.930869 333.12869 
L 581.603197 334.625764 
L 582.439361 335.516994 
L 583.275524 335.791622 
L 586.62018 335.558339 
L 587.456344 334.679313 
L 588.292507 333.540335 
L 589.128671 334.467341 
L 591.637163 331.193791 
L 592.473327 330.9778 
L 593.309491 331.726761 
L 594.981818 333.791836 
L 597.49031 334.229139 
L 599.998801 335.705026 
L 600.834965 331.919112 
L 603.343457 332.443542 
L 604.17962 333.480342 
L 605.851948 335.028117 
L 606.688112 335.631234 
L 609.196603 336.360874 
L 610.032767 337.057299 
L 611.705095 338.194182 
L 612.541259 335.177726 
L 615.04975 336.023093 
L 617.558242 338.094254 
L 618.394406 335.430673 
L 620.902897 335.913858 
L 621.739061 336.694101 
L 622.575225 336.85618 
L 623.411389 324.630115 
L 624.247552 325.8707 
L 626.756044 325.722933 
L 627.592208 327.034149 
L 628.428372 327.384769 
L 629.264535 325.790256 
L 630.100699 327.321822 
L 632.609191 328.672618 
L 633.445355 329.902323 
L 634.281518 323.039874 
L 635.953846 320.207488 
L 638.462338 322.111061 
L 639.298501 323.767205 
L 640.970829 326.245678 
L 641.806993 317.76002 
L 644.315485 319.715873 
L 645.151648 321.553315 
L 645.987812 322.851389 
L 647.66014 325.997377 
L 651.840959 327.809618 
L 652.677123 326.218761 
L 653.513287 327.087266 
L 656.021778 328.513959 
L 656.857942 329.719492 
L 657.694106 328.874025 
L 658.53027 330.177398 
L 659.366434 331.183104 
L 661.874925 323.22337 
L 662.711089 324.918582 
L 663.547253 326.226463 
L 664.383417 322.624482 
L 665.21958 310.963 
L 667.728072 313.215496 
L 668.564236 315.524984 
L 669.4004 307.858626 
L 671.072727 312.969193 
L 673.581219 314.977593 
L 674.417383 317.201669 
L 675.253546 310.420883 
L 676.925874 315.076248 
L 679.434366 316.996513 
L 681.106693 320.905857 
L 681.942857 322.705406 
L 682.779021 322.281758 
L 685.287512 322.650749 
L 686.95984 325.736671 
L 687.796004 317.501032 
L 688.632168 316.019022 
L 691.140659 310.809181 
L 692.812987 315.387336 
L 693.649151 308.274102 
L 694.485315 305.088603 
L 696.993806 306.973947 
L 699.502298 314.083638 
L 700.338462 315.636804 
L 702.846953 317.626044 
L 704.519281 321.571157 
L 705.355445 323.366025 
L 706.191608 321.449642 
L 708.7001 322.688751 
L 709.536264 324.373021 
L 710.372428 325.076443 
L 712.044755 328.100743 
L 714.553247 329.456308 
L 715.389411 330.56192 
L 716.225574 331.474484 
L 717.897902 332.542957 
L 720.406394 333.582228 
L 721.242557 334.268741 
L 722.914885 335.950216 
L 723.751049 336.682221 
L 726.25954 337.283722 
L 727.095704 335.668762 
L 727.931868 336.443327 
L 728.768032 335.999022 
L 729.604196 336.563906 
L 732.112687 337.235479 
L 733.785015 338.406237 
L 734.621179 338.325351 
L 735.457343 338.885714 
L 737.965834 339.42382 
L 739.638162 340.163813 
L 740.474326 325.37964 
L 741.31049 326.641275 
L 744.655145 328.103848 
L 747.163636 331.842536 
L 747.163636 331.842536 
" clip-path="url(#p10a0c9770a)" style="fill: none; stroke: #1f77b4; stroke-width: 1.5; stroke-linecap: square"/>
   </g>
   <g id="patch_3">
    <path d="M 108 384.48 
L 108 51.84 
" style="fill: none; stroke: #000000; stroke-width: 0.8; stroke-linejoin: miter; stroke-linecap: square"/>
   </g>
   <g id="patch_4">
    <path d="M 777.6 384.48 
L 777.6 51.84 
" style="fill: none; stroke: #000000; stroke-width: 0.8; stroke-linejoin: miter; stroke-linecap: square"/>
   </g>
   <g id="patch_5">
    <path d="M 108 384.48 
L 777.6 384.48 
" style="fill: none; stroke: #000000; stroke-width: 0.8; stroke-linejoin: miter; stroke-linecap: square"/>
   </g>
   <g id="patch_6">
    <path d="M 108 51.84 
L 777.6 51.84 
" style="fill: none; stroke: #000000; stroke-width: 0.8; stroke-linejoin: miter; stroke-linecap: square"/>
   </g>
   <g id="text_18">
    <!-- Volatility Prediction with GARCH-GJR -->
    <g transform="translate(334.341563 45.84) scale(0.12 -0.12)">
     <defs>
      <path id="DejaVuSans-20" transform="scale(0.015625)"/>
      <path id="DejaVuSans-50" d="M 1259 4147 
L 1259 2394 
L 2053 2394 
Q 2494 2394 2734 2622 
Q 2975 2850 2975 3272 
Q 2975 3691 2734 3919 
Q 2494 4147 2053 4147 
L 1259 4147 
z
M 628 4666 
L 2053 4666 
Q 2838 4666 3239 4311 
Q 3641 3956 3641 3272 
Q 3641 2581 3239 2228 
Q 2838 1875 2053 1875 
L 1259 1875 
L 1259 0 
L 628 0 
L 628 4666 
z
" transform="scale(0.015625)"/>
      <path id="DejaVuSans-72" d="M 2631 2963 
Q 2534 3019 2420 3045 
Q 2306 3072 2169 3072 
Q 1681 3072 1420 2755 
Q 1159 2438 1159 1844 
L 1159 0 
L 581 0 
L 581 3500 
L 1159 3500 
L 1159 2956 
Q 1341 3275 1631 3429 
Q 1922 3584 2338 3584 
Q 2397 3584 2469 3576 
Q 2541 3569 2628 3553 
L 2631 2963 
z
" transform="scale(0.015625)"/>
      <path id="DejaVuSans-64" d="M 2906 2969 
L 2906 4863 
L 3481 4863 
L 3481 0 
L 2906 0 
L 2906 525 
Q 2725 213 2448 61 
Q 2172 -91 1784 -91 
Q 1150 -91 751 415 
Q 353 922 353 1747 
Q 353 2572 751 3078 
Q 1150 3584 1784 3584 
Q 2172 3584 2448 3432 
Q 2725 3281 2906 2969 
z
M 947 1747 
Q 947 1113 1208 752 
Q 1469 391 1925 391 
Q 2381 391 2643 752 
Q 2906 1113 2906 1747 
Q 2906 2381 2643 2742 
Q 2381 3103 1925 3103 
Q 1469 3103 1208 2742 
Q 947 2381 947 1747 
z
" transform="scale(0.015625)"/>
      <path id="DejaVuSans-63" d="M 3122 3366 
L 3122 2828 
Q 2878 2963 2633 3030 
Q 2388 3097 2138 3097 
Q 1578 3097 1268 2742 
Q 959 2388 959 1747 
Q 959 1106 1268 751 
Q 1578 397 2138 397 
Q 2388 397 2633 464 
Q 2878 531 3122 666 
L 3122 134 
Q 2881 22 2623 -34 
Q 2366 -91 2075 -91 
Q 1284 -91 818 406 
Q 353 903 353 1747 
Q 353 2603 823 3093 
Q 1294 3584 2113 3584 
Q 2378 3584 2631 3529 
Q 2884 3475 3122 3366 
z
" transform="scale(0.015625)"/>
      <path id="DejaVuSans-6e" d="M 3513 2113 
L 3513 0 
L 2938 0 
L 2938 2094 
Q 2938 2591 2744 2837 
Q 2550 3084 2163 3084 
Q 1697 3084 1428 2787 
Q 1159 2491 1159 1978 
L 1159 0 
L 581 0 
L 581 3500 
L 1159 3500 
L 1159 2956 
Q 1366 3272 1645 3428 
Q 1925 3584 2291 3584 
Q 2894 3584 3203 3211 
Q 3513 2838 3513 2113 
z
" transform="scale(0.015625)"/>
      <path id="DejaVuSans-77" d="M 269 3500 
L 844 3500 
L 1563 769 
L 2278 3500 
L 2956 3500 
L 3675 769 
L 4391 3500 
L 4966 3500 
L 4050 0 
L 3372 0 
L 2619 2869 
L 1863 0 
L 1184 0 
L 269 3500 
z
" transform="scale(0.015625)"/>
      <path id="DejaVuSans-68" d="M 3513 2113 
L 3513 0 
L 2938 0 
L 2938 2094 
Q 2938 2591 2744 2837 
Q 2550 3084 2163 3084 
Q 1697 3084 1428 2787 
Q 1159 2491 1159 1978 
L 1159 0 
L 581 0 
L 581 4863 
L 1159 4863 
L 1159 2956 
Q 1366 3272 1645 3428 
Q 1925 3584 2291 3584 
Q 2894 3584 3203 3211 
Q 3513 2838 3513 2113 
z
" transform="scale(0.015625)"/>
      <path id="DejaVuSans-47" d="M 3809 666 
L 3809 1919 
L 2778 1919 
L 2778 2438 
L 4434 2438 
L 4434 434 
Q 4069 175 3628 42 
Q 3188 -91 2688 -91 
Q 1594 -91 976 548 
Q 359 1188 359 2328 
Q 359 3472 976 4111 
Q 1594 4750 2688 4750 
Q 3144 4750 3555 4637 
Q 3966 4525 4313 4306 
L 4313 3634 
Q 3963 3931 3569 4081 
Q 3175 4231 2741 4231 
Q 1884 4231 1454 3753 
Q 1025 3275 1025 2328 
Q 1025 1384 1454 906 
Q 1884 428 2741 428 
Q 3075 428 3337 486 
Q 3600 544 3809 666 
z
" transform="scale(0.015625)"/>
      <path id="DejaVuSans-41" d="M 2188 4044 
L 1331 1722 
L 3047 1722 
L 2188 4044 
z
M 1831 4666 
L 2547 4666 
L 4325 0 
L 3669 0 
L 3244 1197 
L 1141 1197 
L 716 0 
L 50 0 
L 1831 4666 
z
" transform="scale(0.015625)"/>
      <path id="DejaVuSans-52" d="M 2841 2188 
Q 3044 2119 3236 1894 
Q 3428 1669 3622 1275 
L 4263 0 
L 3584 0 
L 2988 1197 
Q 2756 1666 2539 1819 
Q 2322 1972 1947 1972 
L 1259 1972 
L 1259 0 
L 628 0 
L 628 4666 
L 2053 4666 
Q 2853 4666 3247 4331 
Q 3641 3997 3641 3322 
Q 3641 2881 3436 2590 
Q 3231 2300 2841 2188 
z
M 1259 4147 
L 1259 2491 
L 2053 2491 
Q 2509 2491 2742 2702 
Q 2975 2913 2975 3322 
Q 2975 3731 2742 3939 
Q 2509 4147 2053 4147 
L 1259 4147 
z
" transform="scale(0.015625)"/>
      <path id="DejaVuSans-43" d="M 4122 4306 
L 4122 3641 
Q 3803 3938 3442 4084 
Q 3081 4231 2675 4231 
Q 1875 4231 1450 3742 
Q 1025 3253 1025 2328 
Q 1025 1406 1450 917 
Q 1875 428 2675 428 
Q 3081 428 3442 575 
Q 3803 722 4122 1019 
L 4122 359 
Q 3791 134 3420 21 
Q 3050 -91 2638 -91 
Q 1578 -91 968 557 
Q 359 1206 359 2328 
Q 359 3453 968 4101 
Q 1578 4750 2638 4750 
Q 3056 4750 3426 4639 
Q 3797 4528 4122 4306 
z
" transform="scale(0.015625)"/>
      <path id="DejaVuSans-48" d="M 628 4666 
L 1259 4666 
L 1259 2753 
L 3553 2753 
L 3553 4666 
L 4184 4666 
L 4184 0 
L 3553 0 
L 3553 2222 
L 1259 2222 
L 1259 0 
L 628 0 
L 628 4666 
z
" transform="scale(0.015625)"/>
      <path id="DejaVuSans-4a" d="M 628 4666 
L 1259 4666 
L 1259 325 
Q 1259 -519 939 -900 
Q 619 -1281 -91 -1281 
L -331 -1281 
L -331 -750 
L -134 -750 
Q 284 -750 456 -515 
Q 628 -281 628 325 
L 628 4666 
z
" transform="scale(0.015625)"/>
     </defs>
     <use xlink:href="#DejaVuSans-56"/>
     <use xlink:href="#DejaVuSans-6f" transform="translate(60.658203 0)"/>
     <use xlink:href="#DejaVuSans-6c" transform="translate(121.839844 0)"/>
     <use xlink:href="#DejaVuSans-61" transform="translate(149.623047 0)"/>
     <use xlink:href="#DejaVuSans-74" transform="translate(210.902344 0)"/>
     <use xlink:href="#DejaVuSans-69" transform="translate(250.111328 0)"/>
     <use xlink:href="#DejaVuSans-6c" transform="translate(277.894531 0)"/>
     <use xlink:href="#DejaVuSans-69" transform="translate(305.677734 0)"/>
     <use xlink:href="#DejaVuSans-74" transform="translate(333.460938 0)"/>
     <use xlink:href="#DejaVuSans-79" transform="translate(372.669922 0)"/>
     <use xlink:href="#DejaVuSans-20" transform="translate(431.849609 0)"/>
     <use xlink:href="#DejaVuSans-50" transform="translate(463.636719 0)"/>
     <use xlink:href="#DejaVuSans-72" transform="translate(522.189453 0)"/>
     <use xlink:href="#DejaVuSans-65" transform="translate(561.052734 0)"/>
     <use xlink:href="#DejaVuSans-64" transform="translate(622.576172 0)"/>
     <use xlink:href="#DejaVuSans-69" transform="translate(686.052734 0)"/>
     <use xlink:href="#DejaVuSans-63" transform="translate(713.835938 0)"/>
     <use xlink:href="#DejaVuSans-74" transform="translate(768.816406 0)"/>
     <use xlink:href="#DejaVuSans-69" transform="translate(808.025391 0)"/>
     <use xlink:href="#DejaVuSans-6f" transform="translate(835.808594 0)"/>
     <use xlink:href="#DejaVuSans-6e" transform="translate(896.990234 0)"/>
     <use xlink:href="#DejaVuSans-20" transform="translate(960.369141 0)"/>
     <use xlink:href="#DejaVuSans-77" transform="translate(992.15625 0)"/>
     <use xlink:href="#DejaVuSans-69" transform="translate(1073.943359 0)"/>
     <use xlink:href="#DejaVuSans-74" transform="translate(1101.726562 0)"/>
     <use xlink:href="#DejaVuSans-68" transform="translate(1140.935547 0)"/>
     <use xlink:href="#DejaVuSans-20" transform="translate(1204.314453 0)"/>
     <use xlink:href="#DejaVuSans-47" transform="translate(1236.101562 0)"/>
     <use xlink:href="#DejaVuSans-41" transform="translate(1313.591797 0)"/>
     <use xlink:href="#DejaVuSans-52" transform="translate(1382 0)"/>
     <use xlink:href="#DejaVuSans-43" transform="translate(1446.482422 0)"/>
     <use xlink:href="#DejaVuSans-48" transform="translate(1516.306641 0)"/>
     <use xlink:href="#DejaVuSans-2d" transform="translate(1591.501953 0)"/>
     <use xlink:href="#DejaVuSans-47" transform="translate(1631.210938 0)"/>
     <use xlink:href="#DejaVuSans-4a" transform="translate(1708.701172 0)"/>
     <use xlink:href="#DejaVuSans-52" transform="translate(1738.193359 0)"/>
    </g>
   </g>
   <g id="legend_1">
    <g id="patch_7">
     <path d="M 582.228125 89.19625 
L 770.6 89.19625 
Q 772.6 89.19625 772.6 87.19625 
L 772.6 58.84 
Q 772.6 56.84 770.6 56.84 
L 582.228125 56.84 
Q 580.228125 56.84 580.228125 58.84 
L 580.228125 87.19625 
Q 580.228125 89.19625 582.228125 89.19625 
z
" style="fill: #ffffff; opacity: 0.8; stroke: #cccccc; stroke-linejoin: miter"/>
    </g>
    <g id="line2d_18">
     <path d="M 584.228125 64.938437 
L 594.228125 64.938437 
L 604.228125 64.938437 
" style="fill: none; stroke: #000000; stroke-width: 1.5; stroke-linecap: square"/>
    </g>
    <g id="text_19">
     <!-- Absolute Returns -->
     <g transform="translate(612.228125 68.438437) scale(0.1 -0.1)">
      <defs>
       <path id="DejaVuSans-62" d="M 3116 1747 
Q 3116 2381 2855 2742 
Q 2594 3103 2138 3103 
Q 1681 3103 1420 2742 
Q 1159 2381 1159 1747 
Q 1159 1113 1420 752 
Q 1681 391 2138 391 
Q 2594 391 2855 752 
Q 3116 1113 3116 1747 
z
M 1159 2969 
Q 1341 3281 1617 3432 
Q 1894 3584 2278 3584 
Q 2916 3584 3314 3078 
Q 3713 2572 3713 1747 
Q 3713 922 3314 415 
Q 2916 -91 2278 -91 
Q 1894 -91 1617 61 
Q 1341 213 1159 525 
L 1159 0 
L 581 0 
L 581 4863 
L 1159 4863 
L 1159 2969 
z
" transform="scale(0.015625)"/>
       <path id="DejaVuSans-73" d="M 2834 3397 
L 2834 2853 
Q 2591 2978 2328 3040 
Q 2066 3103 1784 3103 
Q 1356 3103 1142 2972 
Q 928 2841 928 2578 
Q 928 2378 1081 2264 
Q 1234 2150 1697 2047 
L 1894 2003 
Q 2506 1872 2764 1633 
Q 3022 1394 3022 966 
Q 3022 478 2636 193 
Q 2250 -91 1575 -91 
Q 1294 -91 989 -36 
Q 684 19 347 128 
L 347 722 
Q 666 556 975 473 
Q 1284 391 1588 391 
Q 1994 391 2212 530 
Q 2431 669 2431 922 
Q 2431 1156 2273 1281 
Q 2116 1406 1581 1522 
L 1381 1569 
Q 847 1681 609 1914 
Q 372 2147 372 2553 
Q 372 3047 722 3315 
Q 1072 3584 1716 3584 
Q 2034 3584 2315 3537 
Q 2597 3491 2834 3397 
z
" transform="scale(0.015625)"/>
       <path id="DejaVuSans-75" d="M 544 1381 
L 544 3500 
L 1119 3500 
L 1119 1403 
Q 1119 906 1312 657 
Q 1506 409 1894 409 
Q 2359 409 2629 706 
Q 2900 1003 2900 1516 
L 2900 3500 
L 3475 3500 
L 3475 0 
L 2900 0 
L 2900 538 
Q 2691 219 2414 64 
Q 2138 -91 1772 -91 
Q 1169 -91 856 284 
Q 544 659 544 1381 
z
M 1991 3584 
L 1991 3584 
z
" transform="scale(0.015625)"/>
      </defs>
      <use xlink:href="#DejaVuSans-41"/>
      <use xlink:href="#DejaVuSans-62" transform="translate(68.408203 0)"/>
      <use xlink:href="#DejaVuSans-73" transform="translate(131.884766 0)"/>
      <use xlink:href="#DejaVuSans-6f" transform="translate(183.984375 0)"/>
      <use xlink:href="#DejaVuSans-6c" transform="translate(245.166016 0)"/>
      <use xlink:href="#DejaVuSans-75" transform="translate(272.949219 0)"/>
      <use xlink:href="#DejaVuSans-74" transform="translate(336.328125 0)"/>
      <use xlink:href="#DejaVuSans-65" transform="translate(375.537109 0)"/>
      <use xlink:href="#DejaVuSans-20" transform="translate(437.060547 0)"/>
      <use xlink:href="#DejaVuSans-52" transform="translate(468.847656 0)"/>
      <use xlink:href="#DejaVuSans-65" transform="translate(533.830078 0)"/>
      <use xlink:href="#DejaVuSans-74" transform="translate(595.353516 0)"/>
      <use xlink:href="#DejaVuSans-75" transform="translate(634.5625 0)"/>
      <use xlink:href="#DejaVuSans-72" transform="translate(697.941406 0)"/>
      <use xlink:href="#DejaVuSans-6e" transform="translate(737.304688 0)"/>
      <use xlink:href="#DejaVuSans-73" transform="translate(800.683594 0)"/>
     </g>
    </g>
    <g id="line2d_19">
     <path d="M 584.228125 79.616562 
L 594.228125 79.616562 
L 604.228125 79.616562 
" style="fill: none; stroke: #1f77b4; stroke-width: 1.5; stroke-linecap: square"/>
    </g>
    <g id="text_20">
     <!-- GARCH-GJR Volatility Prediction -->
     <g transform="translate(612.228125 83.116562) scale(0.1 -0.1)">
      <use xlink:href="#DejaVuSans-47"/>
      <use xlink:href="#DejaVuSans-41" transform="translate(77.490234 0)"/>
      <use xlink:href="#DejaVuSans-52" transform="translate(145.898438 0)"/>
      <use xlink:href="#DejaVuSans-43" transform="translate(210.380859 0)"/>
      <use xlink:href="#DejaVuSans-48" transform="translate(280.205078 0)"/>
      <use xlink:href="#DejaVuSans-2d" transform="translate(355.400391 0)"/>
      <use xlink:href="#DejaVuSans-47" transform="translate(395.109375 0)"/>
      <use xlink:href="#DejaVuSans-4a" transform="translate(472.599609 0)"/>
      <use xlink:href="#DejaVuSans-52" transform="translate(502.091797 0)"/>
      <use xlink:href="#DejaVuSans-20" transform="translate(571.574219 0)"/>
      <use xlink:href="#DejaVuSans-56" transform="translate(603.361328 0)"/>
      <use xlink:href="#DejaVuSans-6f" transform="translate(664.019531 0)"/>
      <use xlink:href="#DejaVuSans-6c" transform="translate(725.201172 0)"/>
      <use xlink:href="#DejaVuSans-61" transform="translate(752.984375 0)"/>
      <use xlink:href="#DejaVuSans-74" transform="translate(814.263672 0)"/>
      <use xlink:href="#DejaVuSans-69" transform="translate(853.472656 0)"/>
      <use xlink:href="#DejaVuSans-6c" transform="translate(881.255859 0)"/>
      <use xlink:href="#DejaVuSans-69" transform="translate(909.039062 0)"/>
      <use xlink:href="#DejaVuSans-74" transform="translate(936.822266 0)"/>
      <use xlink:href="#DejaVuSans-79" transform="translate(976.03125 0)"/>
      <use xlink:href="#DejaVuSans-20" transform="translate(1035.210938 0)"/>
      <use xlink:href="#DejaVuSans-50" transform="translate(1066.998047 0)"/>
      <use xlink:href="#DejaVuSans-72" transform="translate(1125.550781 0)"/>
      <use xlink:href="#DejaVuSans-65" transform="translate(1164.414062 0)"/>
      <use xlink:href="#DejaVuSans-64" transform="translate(1225.9375 0)"/>
      <use xlink:href="#DejaVuSans-69" transform="translate(1289.414062 0)"/>
      <use xlink:href="#DejaVuSans-63" transform="translate(1317.197266 0)"/>
      <use xlink:href="#DejaVuSans-74" transform="translate(1372.177734 0)"/>
      <use xlink:href="#DejaVuSans-69" transform="translate(1411.386719 0)"/>
      <use xlink:href="#DejaVuSans-6f" transform="translate(1439.169922 0)"/>
      <use xlink:href="#DejaVuSans-6e" transform="translate(1500.351562 0)"/>
     </g>
    </g>
   </g>
  </g>
 </g>
 <defs>
  <clipPath id="p10a0c9770a">
   <rect x="108" y="51.84" width="669.6" height="332.64"/>
  </clipPath>
 </defs>
</svg>
