<?xml version="1.0" encoding="utf-8" standalone="no"?>
<!DOCTYPE svg PUBLIC "-//W3C//DTD SVG 1.1//EN"
  "http://www.w3.org/Graphics/SVG/1.1/DTD/svg11.dtd">
<svg xmlns:xlink="http://www.w3.org/1999/xlink" width="864pt" height="432pt" viewBox="0 0 864 432" xmlns="http://www.w3.org/2000/svg" version="1.1">
 <metadata>
  <rdf:RDF xmlns:dc="http://purl.org/dc/elements/1.1/" xmlns:cc="http://creativecommons.org/ns#" xmlns:rdf="http://www.w3.org/1999/02/22-rdf-syntax-ns#">
   <cc:Work>
    <dc:type rdf:resource="http://purl.org/dc/dcmitype/StillImage"/>
    <dc:date>2025-02-13T15:42:52.521136</dc:date>
    <dc:format>image/svg+xml</dc:format>
    <dc:creator>
     <cc:Agent>
      <dc:title>Matplotlib v3.8.1, https://matplotlib.org/</dc:title>
     </cc:Agent>
    </dc:creator>
   </cc:Work>
  </rdf:RDF>
 </metadata>
 <defs>
  <style type="text/css">*{stroke-linejoin: round; stroke-linecap: butt}</style>
 </defs>
 <g id="figure_1">
  <g id="patch_1">
   <path d="M 0 432 
L 864 432 
L 864 0 
L 0 0 
z
" style="fill: #ffffff"/>
  </g>
  <g id="axes_1">
   <g id="patch_2">
    <path d="M 108 384.48 
L 777.6 384.48 
L 777.6 51.84 
L 108 51.84 
z
" style="fill: #ffffff"/>
   </g>
   <g id="matplotlib.axis_1">
    <g id="xtick_1">
     <g id="line2d_1">
      <defs>
       <path id="me0368685c5" d="M 0 0 
L 0 3.5 
" style="stroke: #000000; stroke-width: 0.8"/>
      </defs>
      <g>
       <use xlink:href="#me0368685c5" x="108.62115" y="384.48" style="stroke: #000000; stroke-width: 0.8"/>
      </g>
     </g>
     <g id="text_1">
      <!-- 2021-05 -->
      <g transform="translate(87.729744 399.078438) scale(0.1 -0.1)">
       <defs>
        <path id="DejaVuSans-32" d="M 1228 531 
L 3431 531 
L 3431 0 
L 469 0 
L 469 531 
Q 828 903 1448 1529 
Q 2069 2156 2228 2338 
Q 2531 2678 2651 2914 
Q 2772 3150 2772 3378 
Q 2772 3750 2511 3984 
Q 2250 4219 1831 4219 
Q 1534 4219 1204 4116 
Q 875 4013 500 3803 
L 500 4441 
Q 881 4594 1212 4672 
Q 1544 4750 1819 4750 
Q 2544 4750 2975 4387 
Q 3406 4025 3406 3419 
Q 3406 3131 3298 2873 
Q 3191 2616 2906 2266 
Q 2828 2175 2409 1742 
Q 1991 1309 1228 531 
z
" transform="scale(0.015625)"/>
        <path id="DejaVuSans-30" d="M 2034 4250 
Q 1547 4250 1301 3770 
Q 1056 3291 1056 2328 
Q 1056 1369 1301 889 
Q 1547 409 2034 409 
Q 2525 409 2770 889 
Q 3016 1369 3016 2328 
Q 3016 3291 2770 3770 
Q 2525 4250 2034 4250 
z
M 2034 4750 
Q 2819 4750 3233 4129 
Q 3647 3509 3647 2328 
Q 3647 1150 3233 529 
Q 2819 -91 2034 -91 
Q 1250 -91 836 529 
Q 422 1150 422 2328 
Q 422 3509 836 4129 
Q 1250 4750 2034 4750 
z
" transform="scale(0.015625)"/>
        <path id="DejaVuSans-31" d="M 794 531 
L 1825 531 
L 1825 4091 
L 703 3866 
L 703 4441 
L 1819 4666 
L 2450 4666 
L 2450 531 
L 3481 531 
L 3481 0 
L 794 0 
L 794 531 
z
" transform="scale(0.015625)"/>
        <path id="DejaVuSans-2d" d="M 313 2009 
L 1997 2009 
L 1997 1497 
L 313 1497 
L 313 2009 
z
" transform="scale(0.015625)"/>
        <path id="DejaVuSans-35" d="M 691 4666 
L 3169 4666 
L 3169 4134 
L 1269 4134 
L 1269 2991 
Q 1406 3038 1543 3061 
Q 1681 3084 1819 3084 
Q 2600 3084 3056 2656 
Q 3513 2228 3513 1497 
Q 3513 744 3044 326 
Q 2575 -91 1722 -91 
Q 1428 -91 1123 -41 
Q 819 9 494 109 
L 494 744 
Q 775 591 1075 516 
Q 1375 441 1709 441 
Q 2250 441 2565 725 
Q 2881 1009 2881 1497 
Q 2881 1984 2565 2268 
Q 2250 2553 1709 2553 
Q 1456 2553 1204 2497 
Q 953 2441 691 2322 
L 691 4666 
z
" transform="scale(0.015625)"/>
       </defs>
       <use xlink:href="#DejaVuSans-32"/>
       <use xlink:href="#DejaVuSans-30" x="63.623047"/>
       <use xlink:href="#DejaVuSans-32" x="127.246094"/>
       <use xlink:href="#DejaVuSans-31" x="190.869141"/>
       <use xlink:href="#DejaVuSans-2d" x="254.492188"/>
       <use xlink:href="#DejaVuSans-30" x="290.576172"/>
       <use xlink:href="#DejaVuSans-35" x="354.199219"/>
      </g>
     </g>
    </g>
    <g id="xtick_2">
     <g id="line2d_2">
      <g>
       <use xlink:href="#me0368685c5" x="169.742338" y="384.48" style="stroke: #000000; stroke-width: 0.8"/>
      </g>
     </g>
     <g id="text_2">
      <!-- 2021-09 -->
      <g transform="translate(148.850931 399.078438) scale(0.1 -0.1)">
       <defs>
        <path id="DejaVuSans-39" d="M 703 97 
L 703 672 
Q 941 559 1184 500 
Q 1428 441 1663 441 
Q 2288 441 2617 861 
Q 2947 1281 2994 2138 
Q 2813 1869 2534 1725 
Q 2256 1581 1919 1581 
Q 1219 1581 811 2004 
Q 403 2428 403 3163 
Q 403 3881 828 4315 
Q 1253 4750 1959 4750 
Q 2769 4750 3195 4129 
Q 3622 3509 3622 2328 
Q 3622 1225 3098 567 
Q 2575 -91 1691 -91 
Q 1453 -91 1209 -44 
Q 966 3 703 97 
z
M 1959 2075 
Q 2384 2075 2632 2365 
Q 2881 2656 2881 3163 
Q 2881 3666 2632 3958 
Q 2384 4250 1959 4250 
Q 1534 4250 1286 3958 
Q 1038 3666 1038 3163 
Q 1038 2656 1286 2365 
Q 1534 2075 1959 2075 
z
" transform="scale(0.015625)"/>
       </defs>
       <use xlink:href="#DejaVuSans-32"/>
       <use xlink:href="#DejaVuSans-30" x="63.623047"/>
       <use xlink:href="#DejaVuSans-32" x="127.246094"/>
       <use xlink:href="#DejaVuSans-31" x="190.869141"/>
       <use xlink:href="#DejaVuSans-2d" x="254.492188"/>
       <use xlink:href="#DejaVuSans-30" x="290.576172"/>
       <use xlink:href="#DejaVuSans-39" x="354.199219"/>
      </g>
     </g>
    </g>
    <g id="xtick_3">
     <g id="line2d_3">
      <g>
       <use xlink:href="#me0368685c5" x="230.366605" y="384.48" style="stroke: #000000; stroke-width: 0.8"/>
      </g>
     </g>
     <g id="text_3">
      <!-- 2022-01 -->
      <g transform="translate(209.475199 399.078438) scale(0.1 -0.1)">
       <use xlink:href="#DejaVuSans-32"/>
       <use xlink:href="#DejaVuSans-30" x="63.623047"/>
       <use xlink:href="#DejaVuSans-32" x="127.246094"/>
       <use xlink:href="#DejaVuSans-32" x="190.869141"/>
       <use xlink:href="#DejaVuSans-2d" x="254.492188"/>
       <use xlink:href="#DejaVuSans-30" x="290.576172"/>
       <use xlink:href="#DejaVuSans-31" x="354.199219"/>
      </g>
     </g>
    </g>
    <g id="xtick_4">
     <g id="line2d_4">
      <g>
       <use xlink:href="#me0368685c5" x="289.997032" y="384.48" style="stroke: #000000; stroke-width: 0.8"/>
      </g>
     </g>
     <g id="text_4">
      <!-- 2022-05 -->
      <g transform="translate(269.105625 399.078438) scale(0.1 -0.1)">
       <use xlink:href="#DejaVuSans-32"/>
       <use xlink:href="#DejaVuSans-30" x="63.623047"/>
       <use xlink:href="#DejaVuSans-32" x="127.246094"/>
       <use xlink:href="#DejaVuSans-32" x="190.869141"/>
       <use xlink:href="#DejaVuSans-2d" x="254.492188"/>
       <use xlink:href="#DejaVuSans-30" x="290.576172"/>
       <use xlink:href="#DejaVuSans-35" x="354.199219"/>
      </g>
     </g>
    </g>
    <g id="xtick_5">
     <g id="line2d_5">
      <g>
       <use xlink:href="#me0368685c5" x="351.118219" y="384.48" style="stroke: #000000; stroke-width: 0.8"/>
      </g>
     </g>
     <g id="text_5">
      <!-- 2022-09 -->
      <g transform="translate(330.226813 399.078438) scale(0.1 -0.1)">
       <use xlink:href="#DejaVuSans-32"/>
       <use xlink:href="#DejaVuSans-30" x="63.623047"/>
       <use xlink:href="#DejaVuSans-32" x="127.246094"/>
       <use xlink:href="#DejaVuSans-32" x="190.869141"/>
       <use xlink:href="#DejaVuSans-2d" x="254.492188"/>
       <use xlink:href="#DejaVuSans-30" x="290.576172"/>
       <use xlink:href="#DejaVuSans-39" x="354.199219"/>
      </g>
     </g>
    </g>
    <g id="xtick_6">
     <g id="line2d_6">
      <g>
       <use xlink:href="#me0368685c5" x="411.742486" y="384.48" style="stroke: #000000; stroke-width: 0.8"/>
      </g>
     </g>
     <g id="text_6">
      <!-- 2023-01 -->
      <g transform="translate(390.85108 399.078438) scale(0.1 -0.1)">
       <defs>
        <path id="DejaVuSans-33" d="M 2597 2516 
Q 3050 2419 3304 2112 
Q 3559 1806 3559 1356 
Q 3559 666 3084 287 
Q 2609 -91 1734 -91 
Q 1441 -91 1130 -33 
Q 819 25 488 141 
L 488 750 
Q 750 597 1062 519 
Q 1375 441 1716 441 
Q 2309 441 2620 675 
Q 2931 909 2931 1356 
Q 2931 1769 2642 2001 
Q 2353 2234 1838 2234 
L 1294 2234 
L 1294 2753 
L 1863 2753 
Q 2328 2753 2575 2939 
Q 2822 3125 2822 3475 
Q 2822 3834 2567 4026 
Q 2313 4219 1838 4219 
Q 1578 4219 1281 4162 
Q 984 4106 628 3988 
L 628 4550 
Q 988 4650 1302 4700 
Q 1616 4750 1894 4750 
Q 2613 4750 3031 4423 
Q 3450 4097 3450 3541 
Q 3450 3153 3228 2886 
Q 3006 2619 2597 2516 
z
" transform="scale(0.015625)"/>
       </defs>
       <use xlink:href="#DejaVuSans-32"/>
       <use xlink:href="#DejaVuSans-30" x="63.623047"/>
       <use xlink:href="#DejaVuSans-32" x="127.246094"/>
       <use xlink:href="#DejaVuSans-33" x="190.869141"/>
       <use xlink:href="#DejaVuSans-2d" x="254.492188"/>
       <use xlink:href="#DejaVuSans-30" x="290.576172"/>
       <use xlink:href="#DejaVuSans-31" x="354.199219"/>
      </g>
     </g>
    </g>
    <g id="xtick_7">
     <g id="line2d_7">
      <g>
       <use xlink:href="#me0368685c5" x="471.372913" y="384.48" style="stroke: #000000; stroke-width: 0.8"/>
      </g>
     </g>
     <g id="text_7">
      <!-- 2023-05 -->
      <g transform="translate(450.481507 399.078438) scale(0.1 -0.1)">
       <use xlink:href="#DejaVuSans-32"/>
       <use xlink:href="#DejaVuSans-30" x="63.623047"/>
       <use xlink:href="#DejaVuSans-32" x="127.246094"/>
       <use xlink:href="#DejaVuSans-33" x="190.869141"/>
       <use xlink:href="#DejaVuSans-2d" x="254.492188"/>
       <use xlink:href="#DejaVuSans-30" x="290.576172"/>
       <use xlink:href="#DejaVuSans-35" x="354.199219"/>
      </g>
     </g>
    </g>
    <g id="xtick_8">
     <g id="line2d_8">
      <g>
       <use xlink:href="#me0368685c5" x="532.4941" y="384.48" style="stroke: #000000; stroke-width: 0.8"/>
      </g>
     </g>
     <g id="text_8">
      <!-- 2023-09 -->
      <g transform="translate(511.602694 399.078438) scale(0.1 -0.1)">
       <use xlink:href="#DejaVuSans-32"/>
       <use xlink:href="#DejaVuSans-30" x="63.623047"/>
       <use xlink:href="#DejaVuSans-32" x="127.246094"/>
       <use xlink:href="#DejaVuSans-33" x="190.869141"/>
       <use xlink:href="#DejaVuSans-2d" x="254.492188"/>
       <use xlink:href="#DejaVuSans-30" x="290.576172"/>
       <use xlink:href="#DejaVuSans-39" x="354.199219"/>
      </g>
     </g>
    </g>
    <g id="xtick_9">
     <g id="line2d_9">
      <g>
       <use xlink:href="#me0368685c5" x="593.118367" y="384.48" style="stroke: #000000; stroke-width: 0.8"/>
      </g>
     </g>
     <g id="text_9">
      <!-- 2024-01 -->
      <g transform="translate(572.226961 399.078438) scale(0.1 -0.1)">
       <defs>
        <path id="DejaVuSans-34" d="M 2419 4116 
L 825 1625 
L 2419 1625 
L 2419 4116 
z
M 2253 4666 
L 3047 4666 
L 3047 1625 
L 3713 1625 
L 3713 1100 
L 3047 1100 
L 3047 0 
L 2419 0 
L 2419 1100 
L 313 1100 
L 313 1709 
L 2253 4666 
z
" transform="scale(0.015625)"/>
       </defs>
       <use xlink:href="#DejaVuSans-32"/>
       <use xlink:href="#DejaVuSans-30" x="63.623047"/>
       <use xlink:href="#DejaVuSans-32" x="127.246094"/>
       <use xlink:href="#DejaVuSans-34" x="190.869141"/>
       <use xlink:href="#DejaVuSans-2d" x="254.492188"/>
       <use xlink:href="#DejaVuSans-30" x="290.576172"/>
       <use xlink:href="#DejaVuSans-31" x="354.199219"/>
      </g>
     </g>
    </g>
    <g id="xtick_10">
     <g id="line2d_10">
      <g>
       <use xlink:href="#me0368685c5" x="653.245714" y="384.48" style="stroke: #000000; stroke-width: 0.8"/>
      </g>
     </g>
     <g id="text_10">
      <!-- 2024-05 -->
      <g transform="translate(632.354308 399.078438) scale(0.1 -0.1)">
       <use xlink:href="#DejaVuSans-32"/>
       <use xlink:href="#DejaVuSans-30" x="63.623047"/>
       <use xlink:href="#DejaVuSans-32" x="127.246094"/>
       <use xlink:href="#DejaVuSans-34" x="190.869141"/>
       <use xlink:href="#DejaVuSans-2d" x="254.492188"/>
       <use xlink:href="#DejaVuSans-30" x="290.576172"/>
       <use xlink:href="#DejaVuSans-35" x="354.199219"/>
      </g>
     </g>
    </g>
    <g id="xtick_11">
     <g id="line2d_11">
      <g>
       <use xlink:href="#me0368685c5" x="714.366902" y="384.48" style="stroke: #000000; stroke-width: 0.8"/>
      </g>
     </g>
     <g id="text_11">
      <!-- 2024-09 -->
      <g transform="translate(693.475495 399.078438) scale(0.1 -0.1)">
       <use xlink:href="#DejaVuSans-32"/>
       <use xlink:href="#DejaVuSans-30" x="63.623047"/>
       <use xlink:href="#DejaVuSans-32" x="127.246094"/>
       <use xlink:href="#DejaVuSans-34" x="190.869141"/>
       <use xlink:href="#DejaVuSans-2d" x="254.492188"/>
       <use xlink:href="#DejaVuSans-30" x="290.576172"/>
       <use xlink:href="#DejaVuSans-39" x="354.199219"/>
      </g>
     </g>
    </g>
    <g id="xtick_12">
     <g id="line2d_12">
      <g>
       <use xlink:href="#me0368685c5" x="774.991169" y="384.48" style="stroke: #000000; stroke-width: 0.8"/>
      </g>
     </g>
     <g id="text_12">
      <!-- 2025-01 -->
      <g transform="translate(754.099763 399.078438) scale(0.1 -0.1)">
       <use xlink:href="#DejaVuSans-32"/>
       <use xlink:href="#DejaVuSans-30" x="63.623047"/>
       <use xlink:href="#DejaVuSans-32" x="127.246094"/>
       <use xlink:href="#DejaVuSans-35" x="190.869141"/>
       <use xlink:href="#DejaVuSans-2d" x="254.492188"/>
       <use xlink:href="#DejaVuSans-30" x="290.576172"/>
       <use xlink:href="#DejaVuSans-31" x="354.199219"/>
      </g>
     </g>
    </g>
    <g id="text_13">
     <!-- Date -->
     <g transform="translate(430.849219 412.756563) scale(0.1 -0.1)">
      <defs>
       <path id="DejaVuSans-44" d="M 1259 4147 
L 1259 519 
L 2022 519 
Q 2988 519 3436 956 
Q 3884 1394 3884 2338 
Q 3884 3275 3436 3711 
Q 2988 4147 2022 4147 
L 1259 4147 
z
M 628 4666 
L 1925 4666 
Q 3281 4666 3915 4102 
Q 4550 3538 4550 2338 
Q 4550 1131 3912 565 
Q 3275 0 1925 0 
L 628 0 
L 628 4666 
z
" transform="scale(0.015625)"/>
       <path id="DejaVuSans-61" d="M 2194 1759 
Q 1497 1759 1228 1600 
Q 959 1441 959 1056 
Q 959 750 1161 570 
Q 1363 391 1709 391 
Q 2188 391 2477 730 
Q 2766 1069 2766 1631 
L 2766 1759 
L 2194 1759 
z
M 3341 1997 
L 3341 0 
L 2766 0 
L 2766 531 
Q 2569 213 2275 61 
Q 1981 -91 1556 -91 
Q 1019 -91 701 211 
Q 384 513 384 1019 
Q 384 1609 779 1909 
Q 1175 2209 1959 2209 
L 2766 2209 
L 2766 2266 
Q 2766 2663 2505 2880 
Q 2244 3097 1772 3097 
Q 1472 3097 1187 3025 
Q 903 2953 641 2809 
L 641 3341 
Q 956 3463 1253 3523 
Q 1550 3584 1831 3584 
Q 2591 3584 2966 3190 
Q 3341 2797 3341 1997 
z
" transform="scale(0.015625)"/>
       <path id="DejaVuSans-74" d="M 1172 4494 
L 1172 3500 
L 2356 3500 
L 2356 3053 
L 1172 3053 
L 1172 1153 
Q 1172 725 1289 603 
Q 1406 481 1766 481 
L 2356 481 
L 2356 0 
L 1766 0 
Q 1100 0 847 248 
Q 594 497 594 1153 
L 594 3053 
L 172 3053 
L 172 3500 
L 594 3500 
L 594 4494 
L 1172 4494 
z
" transform="scale(0.015625)"/>
       <path id="DejaVuSans-65" d="M 3597 1894 
L 3597 1613 
L 953 1613 
Q 991 1019 1311 708 
Q 1631 397 2203 397 
Q 2534 397 2845 478 
Q 3156 559 3463 722 
L 3463 178 
Q 3153 47 2828 -22 
Q 2503 -91 2169 -91 
Q 1331 -91 842 396 
Q 353 884 353 1716 
Q 353 2575 817 3079 
Q 1281 3584 2069 3584 
Q 2775 3584 3186 3129 
Q 3597 2675 3597 1894 
z
M 3022 2063 
Q 3016 2534 2758 2815 
Q 2500 3097 2075 3097 
Q 1594 3097 1305 2825 
Q 1016 2553 972 2059 
L 3022 2063 
z
" transform="scale(0.015625)"/>
      </defs>
      <use xlink:href="#DejaVuSans-44"/>
      <use xlink:href="#DejaVuSans-61" x="77.001953"/>
      <use xlink:href="#DejaVuSans-74" x="138.28125"/>
      <use xlink:href="#DejaVuSans-65" x="177.490234"/>
     </g>
    </g>
   </g>
   <g id="matplotlib.axis_2">
    <g id="ytick_1">
     <g id="line2d_13">
      <defs>
       <path id="m26ad9f6395" d="M 0 0 
L -3.5 0 
" style="stroke: #000000; stroke-width: 0.8"/>
      </defs>
      <g>
       <use xlink:href="#m26ad9f6395" x="108" y="369.36" style="stroke: #000000; stroke-width: 0.8"/>
      </g>
     </g>
     <g id="text_14">
      <!-- 0.00 -->
      <g transform="translate(78.734375 373.159219) scale(0.1 -0.1)">
       <defs>
        <path id="DejaVuSans-2e" d="M 684 794 
L 1344 794 
L 1344 0 
L 684 0 
L 684 794 
z
" transform="scale(0.015625)"/>
       </defs>
       <use xlink:href="#DejaVuSans-30"/>
       <use xlink:href="#DejaVuSans-2e" x="63.623047"/>
       <use xlink:href="#DejaVuSans-30" x="95.410156"/>
       <use xlink:href="#DejaVuSans-30" x="159.033203"/>
      </g>
     </g>
    </g>
    <g id="ytick_2">
     <g id="line2d_14">
      <g>
       <use xlink:href="#m26ad9f6395" x="108" y="315.873378" style="stroke: #000000; stroke-width: 0.8"/>
      </g>
     </g>
     <g id="text_15">
      <!-- 0.01 -->
      <g transform="translate(78.734375 319.672597) scale(0.1 -0.1)">
       <use xlink:href="#DejaVuSans-30"/>
       <use xlink:href="#DejaVuSans-2e" x="63.623047"/>
       <use xlink:href="#DejaVuSans-30" x="95.410156"/>
       <use xlink:href="#DejaVuSans-31" x="159.033203"/>
      </g>
     </g>
    </g>
    <g id="ytick_3">
     <g id="line2d_15">
      <g>
       <use xlink:href="#m26ad9f6395" x="108" y="262.386756" style="stroke: #000000; stroke-width: 0.8"/>
      </g>
     </g>
     <g id="text_16">
      <!-- 0.02 -->
      <g transform="translate(78.734375 266.185975) scale(0.1 -0.1)">
       <use xlink:href="#DejaVuSans-30"/>
       <use xlink:href="#DejaVuSans-2e" x="63.623047"/>
       <use xlink:href="#DejaVuSans-30" x="95.410156"/>
       <use xlink:href="#DejaVuSans-32" x="159.033203"/>
      </g>
     </g>
    </g>
    <g id="ytick_4">
     <g id="line2d_16">
      <g>
       <use xlink:href="#m26ad9f6395" x="108" y="208.900135" style="stroke: #000000; stroke-width: 0.8"/>
      </g>
     </g>
     <g id="text_17">
      <!-- 0.03 -->
      <g transform="translate(78.734375 212.699353) scale(0.1 -0.1)">
       <use xlink:href="#DejaVuSans-30"/>
       <use xlink:href="#DejaVuSans-2e" x="63.623047"/>
       <use xlink:href="#DejaVuSans-30" x="95.410156"/>
       <use xlink:href="#DejaVuSans-33" x="159.033203"/>
      </g>
     </g>
    </g>
    <g id="ytick_5">
     <g id="line2d_17">
      <g>
       <use xlink:href="#m26ad9f6395" x="108" y="155.413513" style="stroke: #000000; stroke-width: 0.8"/>
      </g>
     </g>
     <g id="text_18">
      <!-- 0.04 -->
      <g transform="translate(78.734375 159.212731) scale(0.1 -0.1)">
       <use xlink:href="#DejaVuSans-30"/>
       <use xlink:href="#DejaVuSans-2e" x="63.623047"/>
       <use xlink:href="#DejaVuSans-30" x="95.410156"/>
       <use xlink:href="#DejaVuSans-34" x="159.033203"/>
      </g>
     </g>
    </g>
    <g id="ytick_6">
     <g id="line2d_18">
      <g>
       <use xlink:href="#m26ad9f6395" x="108" y="101.926891" style="stroke: #000000; stroke-width: 0.8"/>
      </g>
     </g>
     <g id="text_19">
      <!-- 0.05 -->
      <g transform="translate(78.734375 105.72611) scale(0.1 -0.1)">
       <use xlink:href="#DejaVuSans-30"/>
       <use xlink:href="#DejaVuSans-2e" x="63.623047"/>
       <use xlink:href="#DejaVuSans-30" x="95.410156"/>
       <use xlink:href="#DejaVuSans-35" x="159.033203"/>
      </g>
     </g>
    </g>
    <g id="text_20">
     <!-- Volatility -->
     <g transform="translate(72.654687 239.752187) rotate(-90) scale(0.1 -0.1)">
      <defs>
       <path id="DejaVuSans-56" d="M 1831 0 
L 50 4666 
L 709 4666 
L 2188 738 
L 3669 4666 
L 4325 4666 
L 2547 0 
L 1831 0 
z
" transform="scale(0.015625)"/>
       <path id="DejaVuSans-6f" d="M 1959 3097 
Q 1497 3097 1228 2736 
Q 959 2375 959 1747 
Q 959 1119 1226 758 
Q 1494 397 1959 397 
Q 2419 397 2687 759 
Q 2956 1122 2956 1747 
Q 2956 2369 2687 2733 
Q 2419 3097 1959 3097 
z
M 1959 3584 
Q 2709 3584 3137 3096 
Q 3566 2609 3566 1747 
Q 3566 888 3137 398 
Q 2709 -91 1959 -91 
Q 1206 -91 779 398 
Q 353 888 353 1747 
Q 353 2609 779 3096 
Q 1206 3584 1959 3584 
z
" transform="scale(0.015625)"/>
       <path id="DejaVuSans-6c" d="M 603 4863 
L 1178 4863 
L 1178 0 
L 603 0 
L 603 4863 
z
" transform="scale(0.015625)"/>
       <path id="DejaVuSans-69" d="M 603 3500 
L 1178 3500 
L 1178 0 
L 603 0 
L 603 3500 
z
M 603 4863 
L 1178 4863 
L 1178 4134 
L 603 4134 
L 603 4863 
z
" transform="scale(0.015625)"/>
       <path id="DejaVuSans-79" d="M 2059 -325 
Q 1816 -950 1584 -1140 
Q 1353 -1331 966 -1331 
L 506 -1331 
L 506 -850 
L 844 -850 
Q 1081 -850 1212 -737 
Q 1344 -625 1503 -206 
L 1606 56 
L 191 3500 
L 800 3500 
L 1894 763 
L 2988 3500 
L 3597 3500 
L 2059 -325 
z
" transform="scale(0.015625)"/>
      </defs>
      <use xlink:href="#DejaVuSans-56"/>
      <use xlink:href="#DejaVuSans-6f" x="60.658203"/>
      <use xlink:href="#DejaVuSans-6c" x="121.839844"/>
      <use xlink:href="#DejaVuSans-61" x="149.623047"/>
      <use xlink:href="#DejaVuSans-74" x="210.902344"/>
      <use xlink:href="#DejaVuSans-69" x="250.111328"/>
      <use xlink:href="#DejaVuSans-6c" x="277.894531"/>
      <use xlink:href="#DejaVuSans-69" x="305.677734"/>
      <use xlink:href="#DejaVuSans-74" x="333.460938"/>
      <use xlink:href="#DejaVuSans-79" x="372.669922"/>
     </g>
    </g>
   </g>
   <g id="line2d_19">
    <path d="M 138.436364 325.884495 
L 138.933284 350.201001 
L 139.430204 335.204156 
L 140.920965 337.669311 
L 141.417885 355.098539 
L 141.914805 347.759615 
L 142.411725 352.355601 
L 142.908646 351.127114 
L 144.896327 356.051942 
L 145.393247 327.305654 
L 145.890167 359.063782 
L 146.387087 334.071286 
L 147.877848 366.132181 
L 148.374768 346.165515 
L 148.871688 338.314192 
L 149.368609 364.865703 
L 149.865529 357.779519 
L 151.356289 361.926295 
L 151.85321 358.550751 
L 152.35013 367.559975 
L 152.84705 293.942865 
L 153.34397 334.967635 
L 154.834731 365.341722 
L 155.331651 360.09109 
L 155.828571 367.348511 
L 156.325492 359.648451 
L 156.822412 225.011226 
L 158.313173 284.709047 
L 158.810093 367.84653 
L 159.307013 321.255505 
L 159.803933 367.513365 
L 160.300853 306.130745 
L 161.791614 340.689318 
L 162.288534 361.649725 
L 162.785455 353.814686 
L 163.282375 363.681291 
L 163.779295 368.338277 
L 165.270056 324.024897 
L 165.766976 366.996398 
L 166.263896 321.434219 
L 166.760816 363.118919 
L 167.257737 340.744456 
L 168.748497 327.800292 
L 169.245417 368.109635 
L 169.742338 365.610659 
L 170.239258 364.24661 
L 170.736178 336.040543 
L 172.226939 357.172141 
L 172.723859 317.141047 
L 173.220779 359.920613 
L 173.717699 363.561868 
L 174.21462 350.786457 
L 175.70538 359.324556 
L 176.202301 332.912223 
L 176.699221 333.254009 
L 177.196141 274.072456 
L 177.693061 358.331228 
L 179.680742 329.764825 
L 180.177662 364.660298 
L 180.674583 300.284526 
L 181.171503 359.136441 
L 182.662263 361.342147 
L 183.159184 340.836218 
L 183.656104 337.865855 
L 184.153024 291.143215 
L 184.649944 358.493431 
L 186.140705 334.482177 
L 186.637625 351.086138 
L 187.134545 332.417141 
L 187.631466 364.326934 
L 188.128386 348.230076 
L 189.619147 367.194619 
L 190.116067 351.614151 
L 190.612987 295.374163 
L 191.109907 368.799937 
L 191.606827 296.956231 
L 193.097588 360.284085 
L 193.594508 368.226593 
L 194.091429 348.548059 
L 194.588349 361.904158 
L 195.085269 329.490653 
L 196.57603 328.894683 
L 197.07295 330.240992 
L 197.56987 355.467945 
L 198.06679 366.338188 
L 198.563711 338.484651 
L 200.054471 348.008924 
L 200.551391 368.350554 
L 201.048312 287.752946 
L 201.545232 301.680299 
L 202.042152 324.562634 
L 203.532913 362.004362 
L 204.029833 342.91882 
L 204.526753 303.932798 
L 205.520594 361.8653 
L 207.011354 368.491587 
L 207.508275 344.223576 
L 208.005195 344.983552 
L 208.502115 345.965108 
L 208.999035 345.533724 
L 210.489796 273.648267 
L 210.986716 312.971037 
L 211.483636 368.345811 
L 211.980557 366.542334 
L 212.477477 350.678433 
L 213.968237 369.022981 
L 214.465158 349.777703 
L 214.962078 359.672433 
L 215.458998 344.768925 
L 215.955918 356.0352 
L 217.446679 328.68813 
L 217.943599 354.27114 
L 218.440519 366.903976 
L 219.43436 348.031208 
L 220.925121 356.781324 
L 221.422041 345.84838 
L 221.918961 368.801655 
L 222.415881 313.044327 
L 222.912801 362.734491 
L 224.403562 332.039866 
L 224.900482 347.422565 
L 225.397403 358.992536 
L 225.894323 367.800591 
L 226.391243 366.016877 
L 227.882004 363.895068 
L 228.378924 364.336262 
L 228.875844 345.292351 
L 229.372764 361.176045 
L 229.869685 341.650136 
L 231.360445 310.980022 
L 231.857365 336.78583 
L 232.354286 345.783545 
L 232.851206 316.137927 
L 233.348126 367.332712 
L 234.838887 368.233397 
L 235.335807 344.29293 
L 235.832727 357.26199 
L 236.329647 364.546478 
L 236.826568 364.434587 
L 238.317328 357.624468 
L 238.814249 367.350777 
L 239.311169 320.257765 
L 239.808089 368.917688 
L 240.305009 355.076963 
L 241.79577 336.863378 
L 242.29269 336.511982 
L 243.286531 274.108091 
L 243.783451 333.338923 
L 245.274212 348.299601 
L 245.771132 355.291323 
L 246.268052 360.112714 
L 246.764972 350.961115 
L 247.261892 347.400162 
L 248.752653 359.690627 
L 249.249573 349.741622 
L 250.243414 337.30372 
L 250.740334 352.203353 
L 252.231095 282.460116 
L 253.224935 346.207924 
L 253.721855 291.022504 
L 254.218776 343.446043 
L 255.709536 365.510195 
L 256.206456 349.285943 
L 256.703377 365.098627 
L 257.200297 245.46511 
L 257.697217 225.513961 
L 259.187978 317.132892 
L 259.684898 260.910908 
L 260.181818 324.36135 
L 260.678738 323.946459 
L 261.175659 296.733732 
L 262.666419 249.26488 
L 263.16334 301.262514 
L 263.66026 227.014224 
L 264.15718 322.997601 
L 264.6541 333.537639 
L 266.144861 309.288352 
L 266.641781 295.541517 
L 267.138701 325.89377 
L 267.635622 318.113443 
L 268.132542 347.130143 
L 269.623302 352.419533 
L 270.120223 335.320815 
L 270.617143 331.793973 
L 271.610983 353.447501 
L 273.101744 343.946689 
L 273.598664 294.812979 
L 274.095584 336.565364 
L 274.592505 307.78524 
L 275.089425 330.99805 
L 276.580186 365.707005 
L 277.077106 328.795512 
L 277.574026 350.052228 
L 278.070946 343.631762 
L 278.567866 351.485476 
L 280.058627 355.864587 
L 280.555547 300.763532 
L 281.052468 347.565313 
L 281.549388 361.463352 
L 283.537069 337.943837 
L 284.033989 318.659482 
L 284.530909 358.774834 
L 285.027829 354.771107 
L 285.52475 358.520117 
L 287.01551 288.080555 
L 287.51243 349.338219 
L 288.009351 338.413979 
L 288.506271 365.820184 
L 289.003191 326.031453 
L 290.493952 267.428006 
L 290.990872 349.299802 
L 291.487792 349.825898 
L 291.984712 284.08354 
L 292.481633 341.120011 
L 293.972393 332.276936 
L 294.469314 331.067943 
L 294.966234 348.286484 
L 295.463154 304.505136 
L 295.960074 336.795909 
L 297.450835 332.327163 
L 297.947755 363.613784 
L 298.444675 369.147059 
L 298.941596 332.858186 
L 299.438516 341.620157 
L 300.929276 359.690195 
L 301.923117 334.632734 
L 302.420037 364.835839 
L 302.916957 358.538594 
L 304.407718 363.794438 
L 304.904638 367.67922 
L 305.401558 325.063534 
L 305.898479 308.912977 
L 306.395399 347.519098 
L 307.88616 325.798932 
L 308.38308 363.265257 
L 308.88 358.134441 
L 309.37692 362.543544 
L 309.87384 299.097075 
L 311.364601 268.684445 
L 311.861521 323.680442 
L 312.358442 350.023113 
L 312.855362 315.333716 
L 313.352282 356.641227 
L 314.843043 361.355857 
L 315.339963 366.515051 
L 315.836883 356.418791 
L 316.333803 338.79794 
L 316.830724 368.725909 
L 318.321484 362.28442 
L 318.818404 354.289625 
L 319.315325 368.097282 
L 319.812245 357.035767 
L 320.309165 212.6495 
L 321.799926 326.276392 
L 322.296846 325.149981 
L 322.793766 196.950219 
L 323.290686 357.740736 
L 323.787607 354.503035 
L 325.278367 356.401968 
L 325.775288 350.657811 
L 326.272208 335.911298 
L 326.769128 313.743393 
L 327.266048 357.549153 
L 328.756809 343.325673 
L 329.253729 362.783688 
L 329.750649 360.224612 
L 330.24757 356.829377 
L 330.74449 338.372182 
L 332.23525 353.201047 
L 332.732171 364.602297 
L 333.229091 357.747845 
L 333.726011 311.465762 
L 334.222931 359.875722 
L 335.713692 358.415109 
L 336.210612 367.899387 
L 336.707532 363.306289 
L 337.204453 308.509472 
L 337.701373 352.710535 
L 339.192134 313.51547 
L 339.689054 348.899549 
L 340.185974 349.002047 
L 340.682894 363.009007 
L 341.179814 347.90443 
L 343.167495 304.217304 
L 343.664416 342.664231 
L 344.161336 361.171552 
L 344.658256 356.397813 
L 346.149017 338.121983 
L 346.645937 344.251065 
L 347.142857 367.073758 
L 347.639777 354.005177 
L 348.136698 329.220148 
L 349.627458 362.989001 
L 350.124378 318.960973 
L 350.621299 350.231383 
L 351.118219 332.069173 
L 351.615139 354.029734 
L 353.1059 338.513562 
L 354.09974 346.465291 
L 354.59666 354.425954 
L 355.093581 352.099575 
L 356.584341 358.376249 
L 357.081262 320.28693 
L 357.578182 355.286529 
L 358.075102 293.344767 
L 358.572022 363.191276 
L 360.062783 359.616654 
L 360.559703 353.842309 
L 361.056623 346.587242 
L 361.553544 312.634576 
L 362.050464 307.654544 
L 363.541224 339.817706 
L 364.038145 363.917177 
L 364.535065 308.130385 
L 365.031985 350.46239 
L 365.528905 355.76501 
L 367.019666 346.316882 
L 367.516586 276.284218 
L 368.013506 344.935889 
L 368.510427 333.035121 
L 369.007347 368.842856 
L 370.498108 281.245097 
L 370.995028 369.044584 
L 371.491948 352.406348 
L 371.988868 359.014014 
L 372.485788 311.135177 
L 374.473469 365.205616 
L 374.97039 346.827593 
L 375.46731 364.756421 
L 375.96423 324.244944 
L 377.454991 364.897469 
L 377.951911 365.747188 
L 378.448831 363.202594 
L 378.945751 365.223657 
L 379.442672 316.728475 
L 380.933432 357.168215 
L 381.430353 350.166216 
L 381.927273 351.932094 
L 382.424193 311.974261 
L 382.921113 290.69161 
L 384.411874 339.222457 
L 384.908794 298.378878 
L 385.405714 358.253172 
L 385.902635 311.587458 
L 386.399555 344.541605 
L 387.890315 336.107979 
L 388.387236 363.662682 
L 388.884156 335.064481 
L 389.381076 350.616031 
L 389.877996 349.327724 
L 391.368757 338.709142 
L 391.865677 365.259916 
L 392.362597 359.320371 
L 392.859518 345.361876 
L 393.356438 358.344445 
L 394.847199 345.004598 
L 395.344119 347.966346 
L 395.841039 361.499648 
L 396.337959 277.830831 
L 396.834879 368.658109 
L 398.32564 364.745885 
L 398.82256 354.72891 
L 399.319481 347.488135 
L 399.816401 361.79062 
L 400.313321 348.599272 
L 401.804082 353.573291 
L 402.301002 311.505056 
L 402.797922 365.817709 
L 403.294842 315.445068 
L 403.791763 353.27707 
L 405.282523 368.170329 
L 405.779443 310.590486 
L 406.276364 355.354797 
L 406.773284 308.569033 
L 407.270204 365.602042 
L 408.760965 356.91826 
L 409.257885 338.283623 
L 409.754805 347.546743 
L 410.251725 338.141466 
L 410.748646 355.966463 
L 412.239406 346.269059 
L 412.736327 334.088431 
L 413.233247 339.695431 
L 413.730167 309.768297 
L 414.227087 315.534221 
L 415.717848 353.61451 
L 416.214768 354.960448 
L 416.711688 369.263873 
L 417.208609 354.00158 
L 417.705529 328.967322 
L 419.69321 359.110609 
L 420.19013 361.184378 
L 420.68705 348.186177 
L 421.18397 357.433272 
L 422.674731 356.516481 
L 423.171651 352.784625 
L 423.668571 367.855268 
L 424.662412 362.206739 
L 426.153173 366.062515 
L 426.650093 359.003313 
L 427.147013 300.668445 
L 427.643933 359.062422 
L 428.140853 342.787128 
L 429.631614 322.77232 
L 430.625455 364.96139 
L 431.122375 338.27969 
L 431.619295 361.255108 
L 433.110056 348.097059 
L 433.606976 351.11597 
L 434.103896 319.300366 
L 434.600816 361.935268 
L 435.097737 369.074639 
L 436.588497 366.505706 
L 437.085417 365.0757 
L 437.582338 360.113266 
L 438.079258 328.17572 
L 438.576178 360.218219 
L 440.066939 360.877861 
L 440.563859 343.665817 
L 441.060779 337.486452 
L 441.557699 356.748154 
L 442.05462 365.915238 
L 443.54538 357.189897 
L 444.042301 304.207529 
L 444.539221 357.49914 
L 445.036141 338.595658 
L 445.533061 289.733469 
L 447.023822 233.988885 
L 447.520742 358.007186 
L 448.017662 291.126098 
L 448.514583 339.810068 
L 449.011503 251.675829 
L 450.502263 351.960098 
L 450.999184 287.3671 
L 451.496104 354.391549 
L 451.993024 301.255559 
L 452.489944 350.428577 
L 453.980705 303.024507 
L 454.477625 324.742788 
L 454.974545 368.362648 
L 455.471466 333.938865 
L 455.968386 362.601119 
L 457.459147 343.631821 
L 457.956067 294.944955 
L 458.452987 363.249823 
L 458.949907 361.3797 
L 460.937588 332.943209 
L 461.434508 332.499546 
L 461.931429 358.457474 
L 462.428349 317.983967 
L 462.925269 295.000688 
L 464.41603 360.994092 
L 464.91295 344.478737 
L 465.40987 355.245202 
L 465.90679 350.105665 
L 466.403711 317.830464 
L 467.894471 358.817944 
L 468.888312 344.9287 
L 469.385232 363.643422 
L 469.882152 356.519995 
L 471.372913 362.408824 
L 471.869833 297.787148 
L 472.366753 344.253809 
L 473.360594 292.151929 
L 474.851354 359.077066 
L 475.348275 330.603628 
L 475.845195 356.093726 
L 476.342115 341.235136 
L 476.839035 365.581238 
L 478.329796 356.716025 
L 478.826716 306.992711 
L 479.323636 361.279442 
L 479.820557 330.921634 
L 480.317477 313.178208 
L 481.808237 358.898499 
L 482.305158 364.832163 
L 482.802078 342.469268 
L 483.298998 331.286606 
L 483.795918 363.693043 
L 485.286679 362.876117 
L 485.783599 325.656184 
L 486.280519 333.107407 
L 486.77744 349.883618 
L 487.27436 335.665136 
L 488.765121 356.017552 
L 489.262041 360.691829 
L 489.758961 334.333087 
L 490.255881 342.643529 
L 490.752801 366.497504 
L 492.243562 353.050358 
L 492.740482 335.777978 
L 493.237403 366.922038 
L 493.734323 369.36 
L 494.231243 369.36 
L 495.722004 350.73109 
L 496.218924 340.110424 
L 496.715844 361.064743 
L 497.212764 324.838705 
L 497.709685 365.313974 
L 499.200445 363.113065 
L 499.697365 347.187155 
L 500.194286 349.131206 
L 500.691206 349.147305 
L 501.188126 328.457559 
L 502.678887 360.241311 
L 503.175807 362.462238 
L 503.672727 358.892408 
L 504.169647 362.301358 
L 504.666568 336.299489 
L 506.157328 359.153148 
L 506.654249 360.063683 
L 507.151169 335.230109 
L 507.648089 362.849261 
L 508.145009 365.385113 
L 509.63577 354.167239 
L 510.13269 317.807968 
L 510.62961 364.877229 
L 511.126531 349.247836 
L 511.623451 347.907636 
L 513.114212 350.540999 
L 513.611132 359.670802 
L 514.108052 348.862346 
L 514.604972 326.923363 
L 515.101892 332.243396 
L 516.592653 338.774543 
L 517.089573 317.07902 
L 517.586494 363.113519 
L 518.083414 365.830277 
L 518.580334 365.196983 
L 520.071095 362.398715 
L 520.568015 350.897282 
L 521.064935 344.09698 
L 521.561855 358.965747 
L 522.058776 367.170057 
L 523.549536 366.259115 
L 524.543377 346.517273 
L 525.040297 333.898111 
L 525.537217 362.819547 
L 527.027978 363.287307 
L 527.524898 364.120944 
L 528.021818 350.193913 
L 528.518738 368.81079 
L 529.015659 354.419721 
L 530.506419 348.839288 
L 531.00334 337.81675 
L 531.50026 344.511982 
L 531.99718 368.998084 
L 532.4941 368.726589 
L 533.984861 344.171935 
L 534.481781 361.788969 
L 534.978701 352.19541 
L 535.475622 360.757005 
L 535.972542 359.290518 
L 537.463302 366.092145 
L 537.960223 342.15788 
L 538.457143 366.440524 
L 538.954063 369.17748 
L 539.450983 334.429837 
L 540.941744 349.450233 
L 541.438664 364.574614 
L 541.935584 360.522811 
L 542.432505 323.209993 
L 542.929425 365.453513 
L 544.917106 348.455529 
L 545.414026 303.18938 
L 545.910946 312.290925 
L 546.407866 361.39838 
L 548.395547 305.61622 
L 548.892468 354.541384 
L 549.389388 358.219033 
L 549.886308 324.745632 
L 551.377069 304.90279 
L 551.873989 360.40139 
L 552.370909 344.058455 
L 552.867829 367.225157 
L 553.36475 242.754192 
L 554.85551 369.36 
L 555.35243 362.918834 
L 555.849351 300.991151 
L 556.346271 346.554985 
L 556.843191 327.580309 
L 558.333952 369.094353 
L 558.830872 364.841987 
L 559.327792 342.749905 
L 559.824712 362.045559 
L 560.321633 350.28383 
L 561.812393 358.402228 
L 562.309314 351.99249 
L 563.303154 365.136052 
L 563.800074 367.249276 
L 565.290835 368.392688 
L 565.787755 329.371631 
L 566.284675 340.752709 
L 566.781596 349.088104 
L 567.278516 318.177093 
L 568.272356 361.481284 
L 568.769276 364.084171 
L 569.266197 348.041499 
L 569.763117 366.067228 
L 570.260037 322.061671 
L 570.756957 367.244022 
L 572.247718 367.508565 
L 572.744638 320.643295 
L 573.241558 356.499794 
L 573.738479 366.908052 
L 574.235399 346.732607 
L 575.72616 351.517909 
L 576.22308 295.837713 
L 576.72 364.134647 
L 577.21692 354.909809 
L 577.71384 349.161068 
L 579.204601 320.307393 
L 579.701521 343.837521 
L 580.198442 341.003701 
L 580.695362 367.556487 
L 581.192282 309.520605 
L 582.683043 316.040051 
L 583.179963 369.184591 
L 583.676883 368.658398 
L 584.173803 261.967309 
L 584.670724 348.864377 
L 586.161484 363.668465 
L 586.658404 356.103258 
L 587.155325 364.198942 
L 587.652245 360.2455 
L 588.149165 335.104878 
L 590.136846 363.814206 
L 590.633766 320.972389 
L 591.130686 354.720148 
L 591.627607 355.359702 
L 593.118367 365.368302 
L 593.615288 366.134847 
L 594.112208 305.772593 
L 594.609128 356.496242 
L 595.106048 353.707996 
L 596.596809 327.605182 
L 597.093729 363.252207 
L 597.590649 355.241294 
L 598.08757 350.621075 
L 598.58449 322.67809 
L 600.07525 352.664013 
L 600.572171 326.272463 
L 601.069091 325.748775 
L 601.566011 349.413931 
L 602.062931 349.488037 
L 603.553692 357.877826 
L 604.050612 359.430363 
L 604.547532 363.411054 
L 605.044453 366.257028 
L 607.032134 352.315886 
L 607.529054 357.598562 
L 608.025974 327.163622 
L 608.522894 351.183432 
L 609.019814 331.920318 
L 610.510575 361.070877 
L 611.007495 350.512183 
L 611.504416 367.90081 
L 612.001336 361.972107 
L 612.498256 359.55099 
L 613.989017 347.872295 
L 614.485937 318.185385 
L 614.982857 360.885105 
L 615.479777 357.481455 
L 615.976698 352.635073 
L 617.467458 356.937306 
L 617.964378 354.715737 
L 618.461299 363.645709 
L 618.958219 362.16517 
L 619.455139 347.804478 
L 620.9459 356.904751 
L 621.44282 363.042256 
L 621.93974 365.293267 
L 622.43666 326.168731 
L 622.933581 297.547626 
L 624.424341 329.690081 
L 624.921262 320.141146 
L 625.418182 299.083689 
L 625.915102 352.610522 
L 626.412022 320.317435 
L 627.902783 367.329669 
L 628.399703 325.496207 
L 628.896623 338.096699 
L 629.393544 346.358825 
L 629.890464 363.798784 
L 631.381224 364.289247 
L 631.878145 369.196507 
L 632.375065 359.151613 
L 632.871985 338.202262 
L 633.368905 348.798356 
L 634.859666 355.047884 
L 635.356586 355.977084 
L 635.853506 347.694012 
L 636.350427 265.72885 
L 638.835028 327.293188 
L 639.331948 298.08309 
L 639.828868 360.684645 
L 640.325788 286.33405 
L 641.816549 362.243994 
L 642.313469 329.887413 
L 642.81039 369.134408 
L 643.30731 340.336965 
L 643.80423 343.767731 
L 645.294991 334.341655 
L 645.791911 311.988522 
L 646.288831 338.985633 
L 647.282672 352.538224 
L 648.773432 272.833742 
L 649.270353 343.571771 
L 649.767273 361.744757 
L 650.264193 366.898564 
L 650.761113 340.949163 
L 652.251874 358.76323 
L 652.748794 273.6769 
L 653.245714 346.422569 
L 653.742635 357.715566 
L 654.239555 360.252176 
L 655.730315 345.081852 
L 656.227236 355.468046 
L 656.724156 368.833649 
L 657.717996 294.497317 
L 659.208757 311.878013 
L 659.705677 340.097362 
L 660.202597 311.310677 
L 660.699518 361.661286 
L 661.196438 318.461357 
L 662.687199 319.445157 
L 663.184119 346.775179 
L 663.681039 300.734686 
L 664.177959 266.198565 
L 664.674879 350.510333 
L 666.16564 323.028338 
L 666.66256 358.673507 
L 667.159481 358.079186 
L 667.656401 358.874246 
L 668.153321 358.256925 
L 669.644082 360.788484 
L 670.141002 366.678219 
L 670.637922 317.232496 
L 671.134842 334.204209 
L 671.631763 246.640614 
L 673.122523 368.984947 
L 673.619443 366.135407 
L 674.613284 311.98789 
L 675.110204 319.815911 
L 676.600965 338.983396 
L 677.594805 368.163281 
L 678.091725 314.376294 
L 678.588646 307.641262 
L 680.079406 363.1485 
L 680.576327 346.048367 
L 681.073247 348.133927 
L 681.570167 340.477109 
L 682.067087 367.259219 
L 683.557848 365.309233 
L 684.054768 367.26081 
L 684.551688 309.506177 
L 685.048609 368.692858 
L 685.545529 288.13864 
L 687.036289 301.53964 
L 687.53321 365.442297 
L 688.03013 351.360706 
L 688.52705 327.108599 
L 689.02397 365.997992 
L 690.514731 358.258792 
L 691.011651 317.519653 
L 691.508571 362.057281 
L 692.005492 366.394328 
L 692.502412 289.731626 
L 693.993173 352.378122 
L 694.490093 66.96 
L 694.987013 339.834203 
L 695.483933 248.919019 
L 695.980853 315.582751 
L 697.471614 366.771539 
L 697.968534 337.226415 
L 698.465455 333.158314 
L 698.962375 343.948062 
L 699.459295 366.970708 
L 700.950056 312.00613 
L 701.446976 361.495636 
L 701.943896 368.581979 
L 702.440816 319.492273 
L 702.937737 353.352481 
L 704.428497 312.035159 
L 704.925417 369.207952 
L 705.422338 332.590902 
L 706.416178 288.527615 
L 707.906939 354.301396 
L 708.403859 354.193722 
L 708.900779 364.339083 
L 709.397699 323.396797 
L 709.89462 331.792619 
L 711.38538 354.002649 
L 711.882301 365.54623 
L 712.379221 352.664018 
L 713.373061 334.091746 
L 714.863822 366.505938 
L 715.360742 337.276968 
L 715.857662 350.809708 
L 716.354583 306.721306 
L 716.851503 333.453034 
L 718.342263 357.09019 
L 718.839184 350.858953 
L 719.336104 365.116773 
L 719.833024 309.93762 
L 720.329944 319.113379 
L 721.820705 365.351846 
L 722.317625 340.141047 
L 722.814545 368.847294 
L 723.808386 324.344048 
L 725.299147 354.486551 
L 725.796067 318.911719 
L 726.292987 349.3274 
L 726.789907 357.134968 
L 727.286827 336.530946 
L 728.777588 366.930771 
L 729.274508 311.360862 
L 730.268349 357.567213 
L 730.765269 364.561284 
L 732.25603 362.153844 
L 732.75295 308.356093 
L 733.24987 348.797979 
L 733.74679 346.295815 
L 734.243711 305.134929 
L 735.734471 356.279209 
L 736.231391 349.221808 
L 736.728312 346.487547 
L 737.225232 342.949913 
L 737.722152 326.277875 
L 739.212913 345.221867 
L 739.709833 319.014915 
L 740.206753 317.220409 
L 740.703673 342.505427 
L 741.200594 359.958381 
L 742.691354 359.085173 
L 743.188275 321.263137 
L 743.685195 342.840226 
L 744.182115 306.159497 
L 744.679035 335.121366 
L 746.169796 340.240455 
L 746.666716 363.291698 
L 747.163636 268.932065 
L 747.163636 268.932065 
" clip-path="url(#pd1f86e8da6)" style="fill: none; stroke: #000000; stroke-width: 1.5; stroke-linecap: square"/>
   </g>
   <g id="line2d_20">
    <path d="M 138.436364 324.82158 
L 138.933284 324.825858 
L 139.430204 325.511218 
L 140.920965 325.808872 
L 141.417885 326.167747 
L 142.411725 327.448993 
L 142.908646 328.082238 
L 144.399406 328.675908 
L 145.393247 329.949542 
L 145.890167 329.755819 
L 146.387087 330.416791 
L 147.877848 330.467532 
L 148.374768 331.160608 
L 148.871688 331.554436 
L 149.368609 331.703782 
L 149.865529 332.364491 
L 151.356289 332.947054 
L 152.84705 334.752827 
L 153.34397 331.986223 
L 154.834731 331.994738 
L 156.822412 334.398134 
L 158.313173 324.802049 
L 158.810093 322.490136 
L 159.307013 323.441811 
L 159.803933 323.328868 
L 160.300853 324.228636 
L 161.791614 323.354619 
L 162.288534 323.89128 
L 163.779295 326.230402 
L 165.270056 326.994326 
L 165.766976 326.832082 
L 166.263896 327.571822 
L 166.760816 327.277354 
L 167.257737 327.986872 
L 168.748497 328.325893 
L 169.245417 328.246873 
L 170.736178 330.261206 
L 172.226939 330.380464 
L 172.723859 330.951132 
L 173.220779 330.276077 
L 174.21462 331.489419 
L 175.70538 331.934523 
L 176.202301 332.490686 
L 177.196141 332.340875 
L 177.693061 328.624676 
L 179.680742 329.46682 
L 180.177662 329.410025 
L 180.674583 330.05918 
L 181.171503 328.534066 
L 182.662263 329.173091 
L 183.159184 329.808544 
L 184.153024 330.260542 
L 184.649944 328.133685 
L 186.637625 328.909258 
L 187.134545 329.429168 
L 187.631466 329.466612 
L 188.128386 330.106996 
L 189.619147 330.534658 
L 190.612987 331.609251 
L 191.109907 329.668751 
L 191.606827 330.312574 
L 193.097588 328.584935 
L 194.091429 329.881523 
L 194.588349 330.320137 
L 195.085269 330.915936 
L 197.07295 330.646089 
L 197.56987 330.558283 
L 198.563711 331.681117 
L 200.054471 331.817009 
L 200.551391 332.182603 
L 201.048312 332.755991 
L 201.545232 330.199154 
L 202.042152 328.779087 
L 203.532913 328.563426 
L 204.029833 329.217805 
L 204.526753 329.560658 
L 205.023673 328.31525 
L 205.520594 328.3573 
L 207.011354 329.014409 
L 207.508275 329.671318 
L 208.999035 330.749407 
L 210.489796 331.094006 
L 210.986716 327.666444 
L 211.483636 327.004014 
L 212.477477 328.417814 
L 213.968237 328.934913 
L 214.465158 329.584477 
L 215.955918 330.94607 
L 217.446679 331.455539 
L 217.943599 331.282406 
L 219.43436 332.826224 
L 220.925121 333.155639 
L 221.422041 333.618154 
L 221.918961 333.876712 
L 222.415881 334.402457 
L 222.912801 333.344184 
L 224.403562 333.857022 
L 224.900482 333.696828 
L 225.397403 333.986967 
L 226.391243 334.964482 
L 227.882004 335.4614 
L 228.875844 336.41338 
L 229.372764 336.571371 
L 229.869685 337.010396 
L 231.360445 337.039561 
L 231.857365 335.620119 
L 232.354286 335.547911 
L 232.851206 335.742883 
L 233.348126 334.749106 
L 234.838887 335.255289 
L 235.335807 335.749925 
L 235.832727 335.901083 
L 236.826568 336.766046 
L 238.317328 337.218554 
L 239.311169 338.045827 
L 239.808089 337.095352 
L 240.305009 337.554231 
L 241.79577 337.887426 
L 242.29269 337.718757 
L 243.286531 337.544782 
L 243.783451 333.170354 
L 245.274212 333.086521 
L 246.268052 333.892827 
L 247.261892 334.73949 
L 248.752653 335.003968 
L 249.249573 335.45886 
L 249.746494 335.748948 
L 250.243414 335.894681 
L 250.740334 335.835164 
L 252.231095 336.160264 
L 252.728015 332.805593 
L 253.224935 331.977585 
L 253.721855 332.322628 
L 254.218776 329.930479 
L 255.709536 330.295009 
L 256.206456 330.957343 
L 256.703377 331.401334 
L 257.200297 332.008007 
L 257.697217 325.424071 
L 259.187978 316.583203 
L 259.684898 316.657067 
L 260.181818 312.66443 
L 261.175659 313.820109 
L 262.666419 312.960017 
L 263.16334 308.371908 
L 263.66026 308.125838 
L 264.15718 301.754654 
L 264.6541 302.874397 
L 266.641781 304.65785 
L 267.138701 304.346522 
L 267.635622 305.392084 
L 268.132542 306.101627 
L 269.623302 307.574558 
L 270.120223 309.05576 
L 271.610983 312.212148 
L 273.101744 313.507974 
L 273.598664 314.595539 
L 274.095584 313.630078 
L 274.592505 314.53654 
L 275.089425 314.289921 
L 276.580186 315.006273 
L 277.077106 316.30502 
L 277.574026 316.861381 
L 278.567866 318.875383 
L 280.058627 319.930898 
L 280.555547 321.02545 
L 281.052468 319.903784 
L 281.549388 320.849238 
L 283.537069 321.969985 
L 284.033989 322.596953 
L 284.530909 322.391801 
L 285.52475 324.419564 
L 287.01551 325.425555 
L 287.51243 322.883964 
L 288.009351 323.753349 
L 288.506271 324.305125 
L 289.003191 325.336535 
L 290.493952 325.321345 
L 290.990872 321.056136 
L 291.984712 322.847392 
L 292.481633 320.443588 
L 293.972393 321.185316 
L 294.966234 322.008194 
L 295.463154 322.855871 
L 295.960074 321.874538 
L 297.450835 322.433111 
L 297.947755 322.818339 
L 298.941596 324.837521 
L 299.438516 325.127954 
L 300.929276 325.693468 
L 301.426197 326.594081 
L 301.923117 327.248972 
L 302.420037 327.485804 
L 302.916957 328.372046 
L 304.407718 329.177938 
L 305.401558 330.839298 
L 305.898479 330.408989 
L 306.395399 329.019591 
L 307.88616 329.577565 
L 308.38308 329.284503 
L 309.87384 331.554895 
L 311.364601 329.319091 
L 311.861521 324.690657 
L 312.358442 324.60741 
L 312.855362 325.39479 
L 313.352282 324.849419 
L 314.843043 325.733243 
L 316.333803 328.292926 
L 316.830724 328.614079 
L 318.321484 329.437893 
L 319.812245 331.59366 
L 320.309165 332.227039 
L 321.799926 320.561999 
L 322.793766 321.00571 
L 323.290686 309.287066 
L 323.787607 310.895011 
L 325.278367 312.359379 
L 326.272208 314.985573 
L 326.769128 315.828557 
L 327.266048 315.801723 
L 328.756809 317.007727 
L 329.750649 319.076517 
L 330.74449 321.168527 
L 332.23525 321.781098 
L 333.726011 324.572214 
L 334.222931 323.8979 
L 335.713692 324.812852 
L 337.204453 327.468123 
L 337.701373 326.381031 
L 339.192134 327.123769 
L 339.689054 326.372245 
L 341.179814 328.507159 
L 343.167495 329.076252 
L 343.664416 327.569113 
L 344.161336 328.031499 
L 344.658256 328.820174 
L 346.645937 329.76194 
L 347.142857 330.177084 
L 348.136698 331.534362 
L 349.627458 331.283772 
L 350.124378 331.983278 
L 350.621299 331.151502 
L 351.118219 331.655004 
L 351.615139 331.527459 
L 354.09974 332.453284 
L 354.59666 332.802634 
L 355.093581 333.323848 
L 356.584341 333.776939 
L 357.081262 334.32717 
L 357.578182 333.372789 
L 358.075102 333.884057 
L 358.572022 330.963049 
L 360.062783 331.661826 
L 361.056623 332.821992 
L 361.553544 333.152918 
L 362.050464 331.836936 
L 363.541224 330.301236 
L 364.038145 330.550954 
L 364.535065 331.274881 
L 365.031985 329.825123 
L 365.528905 330.393435 
L 367.019666 331.033548 
L 367.516586 331.441801 
L 368.013506 327.294075 
L 368.510427 327.856152 
L 369.007347 327.992425 
L 370.498108 328.839545 
L 370.995028 325.484075 
L 371.988868 327.212676 
L 372.485788 328.029624 
L 373.976549 327.05498 
L 375.96423 329.903222 
L 377.454991 329.529923 
L 379.442672 332.365722 
L 380.933432 331.405175 
L 381.927273 332.462454 
L 382.424193 332.933759 
L 382.921113 331.626071 
L 384.411874 328.849658 
L 384.908794 329.152521 
L 385.405714 327.228396 
L 385.902635 328.034924 
L 386.399555 327.093428 
L 388.387236 327.901573 
L 388.884156 328.717377 
L 389.381076 328.880341 
L 389.877996 329.478425 
L 391.865677 330.242904 
L 392.859518 331.610117 
L 393.356438 331.957578 
L 395.344119 332.847188 
L 395.841039 333.208516 
L 396.337959 333.793664 
L 396.834879 329.590236 
L 398.32564 330.347247 
L 399.319481 331.631268 
L 399.816401 332.030431 
L 400.313321 332.652628 
L 401.804082 333.033595 
L 402.301002 333.505211 
L 402.797922 332.155176 
L 403.294842 332.799243 
L 403.791763 331.759467 
L 405.282523 332.279507 
L 405.779443 332.924636 
L 406.276364 331.570971 
L 406.773284 332.134112 
L 407.270204 330.714126 
L 408.760965 331.417042 
L 409.257885 332.009843 
L 409.754805 332.117067 
L 410.251725 332.497154 
L 410.748646 332.575159 
L 412.239406 333.105819 
L 412.736327 333.408239 
L 413.233247 333.282974 
L 413.730167 333.375965 
L 414.227087 331.936968 
L 415.717848 330.974606 
L 417.705529 333.241508 
L 419.196289 332.906319 
L 420.19013 333.881791 
L 420.68705 334.426483 
L 421.18397 334.721883 
L 422.674731 335.190632 
L 423.668571 335.982168 
L 424.662412 336.495981 
L 426.153173 336.962338 
L 427.147013 337.841092 
L 427.643933 335.220554 
L 428.140853 335.699228 
L 429.631614 335.784156 
L 430.128534 334.959515 
L 430.625455 335.180683 
L 431.122375 335.717844 
L 431.619295 335.642023 
L 433.606976 336.359574 
L 434.103896 336.65377 
L 434.600816 335.559758 
L 435.097737 336.063945 
L 436.588497 336.583891 
L 438.079258 337.96762 
L 438.576178 337.293481 
L 440.066939 337.719837 
L 440.563859 338.139822 
L 441.060779 338.146996 
L 441.557699 337.915222 
L 442.05462 338.273174 
L 443.54538 338.720315 
L 444.042301 339.059055 
L 444.539221 336.609021 
L 445.036141 337.034331 
L 445.533061 336.91456 
L 447.023822 333.409207 
L 447.520742 323.257365 
L 448.017662 324.381826 
L 448.514583 322.08607 
L 449.011503 322.840236 
L 450.502263 316.671454 
L 450.999184 318.034789 
L 451.496104 316.053156 
L 451.993024 317.459869 
L 452.489944 316.59043 
L 453.980705 317.873745 
L 454.477625 317.105853 
L 454.974545 317.553253 
L 455.471466 318.931664 
L 455.968386 319.619211 
L 457.459147 320.857252 
L 457.956067 321.724164 
L 458.452987 320.145708 
L 458.949907 321.354282 
L 460.937588 322.489909 
L 461.931429 323.33647 
L 462.428349 324.352947 
L 462.925269 324.014457 
L 464.41603 322.247887 
L 464.91295 323.335722 
L 465.90679 325.032859 
L 466.403711 325.841513 
L 467.894471 325.389503 
L 468.888312 327.112098 
L 469.385232 327.703429 
L 469.882152 328.59167 
L 471.372913 329.370154 
L 471.869833 330.190837 
L 472.366753 327.948574 
L 472.863673 328.476514 
L 474.851354 325.362925 
L 475.348275 326.296603 
L 475.845195 326.430927 
L 476.342115 327.278496 
L 476.839035 327.746413 
L 478.329796 328.628769 
L 478.826716 329.391954 
L 479.323636 327.975927 
L 479.820557 328.817846 
L 480.317477 328.812052 
L 481.808237 327.862434 
L 482.802078 329.520467 
L 483.298998 329.910024 
L 483.795918 329.85142 
L 485.286679 330.634479 
L 485.783599 331.38068 
L 486.280519 330.945204 
L 486.77744 330.900753 
L 487.27436 331.427119 
L 488.765121 331.461313 
L 489.758961 332.750906 
L 490.255881 332.643279 
L 492.243562 333.545676 
L 492.740482 334.021005 
L 493.237403 333.893197 
L 494.231243 335.142827 
L 496.218924 336.04717 
L 496.715844 335.97355 
L 497.212764 336.478885 
L 497.709685 335.558815 
L 499.200445 336.119079 
L 499.697365 336.639597 
L 501.188126 337.212942 
L 502.678887 336.450918 
L 504.666568 338.27259 
L 506.157328 337.867528 
L 507.151169 338.671055 
L 507.648089 338.180234 
L 508.145009 338.623903 
L 510.13269 339.322592 
L 510.62961 337.579413 
L 511.126531 338.07599 
L 511.623451 338.241561 
L 513.114212 338.354552 
L 513.611132 338.549796 
L 514.108052 338.947436 
L 514.604972 339.058417 
L 515.101892 338.036023 
L 517.089573 337.234625 
L 517.586494 335.668872 
L 518.580334 336.839244 
L 520.071095 337.386508 
L 520.568015 337.88321 
L 521.064935 338.125108 
L 521.561855 338.117817 
L 522.058776 338.535259 
L 523.549536 339.019647 
L 524.543377 339.48066 
L 525.040297 339.494013 
L 525.537217 338.899416 
L 527.027978 339.343683 
L 528.021818 340.1986 
L 528.518738 340.312571 
L 529.015659 340.742806 
L 531.00334 340.993818 
L 531.50026 340.519148 
L 531.99718 340.409109 
L 532.4941 340.848583 
L 533.984861 341.273371 
L 534.481781 341.108661 
L 534.978701 341.476678 
L 535.475622 341.614362 
L 535.972542 341.953699 
L 537.463302 342.255974 
L 537.960223 342.637554 
L 538.457143 342.301623 
L 539.450983 343.078718 
L 540.941744 342.252145 
L 541.438664 342.279172 
L 542.432505 342.990758 
L 542.929425 341.31816 
L 545.414026 341.931191 
L 545.910946 338.433386 
L 546.407866 336.341985 
L 548.395547 336.949037 
L 548.892468 334.422461 
L 549.886308 335.610836 
L 551.377069 334.790701 
L 551.873989 332.486975 
L 552.370909 333.246041 
L 552.867829 333.562691 
L 553.36475 334.310082 
L 554.85551 324.463248 
L 555.849351 326.774909 
L 556.346271 324.99087 
L 556.843191 325.826558 
L 558.333952 325.875046 
L 559.327792 327.9749 
L 559.824712 328.511501 
L 560.321633 329.419286 
L 561.812393 330.086324 
L 562.806234 331.501502 
L 563.800074 332.972551 
L 565.290835 333.699466 
L 565.787755 334.397949 
L 566.284675 333.960855 
L 566.781596 334.085644 
L 567.278516 334.484067 
L 568.272356 333.35039 
L 569.266197 334.690554 
L 569.763117 335.028562 
L 570.260037 335.665478 
L 570.756957 334.688115 
L 572.247718 335.344981 
L 572.744638 335.974977 
L 573.241558 334.874932 
L 574.235399 336.036372 
L 575.72616 336.265327 
L 576.22308 336.625449 
L 576.72 333.365542 
L 577.71384 334.610159 
L 579.204601 334.986915 
L 579.701521 333.961148 
L 580.695362 334.330965 
L 581.192282 335.00444 
L 582.683043 333.189152 
L 583.179963 332.028715 
L 584.173803 333.54989 
L 584.670724 327.006856 
L 586.161484 327.771967 
L 587.652245 330.402158 
L 588.149165 331.185519 
L 590.136846 331.245955 
L 590.633766 332.020804 
L 591.130686 331.296651 
L 591.627607 331.952168 
L 593.118367 332.587856 
L 594.112208 334.006463 
L 594.609128 332.040248 
L 595.106048 332.690592 
L 596.596809 333.259001 
L 597.093729 332.826402 
L 598.08757 334.083595 
L 598.58449 334.516612 
L 600.07525 333.707402 
L 600.572171 334.206313 
L 601.566011 333.073367 
L 602.062931 333.525498 
L 603.553692 333.956524 
L 605.044453 335.730518 
L 607.032134 336.328668 
L 608.025974 337.16747 
L 608.522894 336.414451 
L 609.019814 336.755044 
L 610.510575 336.306217 
L 611.007495 336.841564 
L 611.504416 337.144738 
L 612.498256 338.187852 
L 614.485937 338.764344 
L 614.982857 337.244807 
L 615.976698 338.170889 
L 617.467458 338.472977 
L 619.455139 340.063545 
L 620.9459 340.127781 
L 621.93974 340.85705 
L 622.43666 341.272052 
L 624.424341 336.453246 
L 624.921262 335.898486 
L 625.418182 334.77787 
L 625.915102 332.026306 
L 626.412022 332.651437 
L 627.902783 331.807772 
L 628.399703 332.623105 
L 628.896623 332.106757 
L 629.393544 332.253028 
L 629.890464 332.686885 
L 631.381224 333.429396 
L 632.871985 335.415566 
L 633.368905 335.365698 
L 634.859666 335.703022 
L 635.853506 336.649806 
L 636.350427 336.888709 
L 638.338108 330.265605 
L 638.835028 329.391435 
L 639.331948 329.205677 
L 639.828868 327.05024 
L 640.325788 328.019741 
L 641.816549 324.950131 
L 642.313469 326.031473 
L 642.81039 326.182568 
L 643.30731 327.219911 
L 643.80423 327.711663 
L 645.791911 328.488084 
L 646.288831 327.483676 
L 646.785751 327.909042 
L 647.282672 328.524246 
L 648.773432 329.266947 
L 649.270353 324.840689 
L 649.767273 325.550513 
L 650.761113 327.545822 
L 652.251874 328.027762 
L 652.748794 328.885254 
L 653.245714 324.645454 
L 654.239555 326.388136 
L 655.730315 327.329588 
L 656.227236 327.941159 
L 657.221076 329.634624 
L 657.717996 329.788303 
L 659.705677 326.496854 
L 660.202597 327.000242 
L 660.699518 326.09387 
L 661.196438 327.056399 
L 662.687199 326.571925 
L 663.184119 326.174133 
L 663.681039 326.882843 
L 664.177959 325.269433 
L 664.674879 320.776954 
L 666.16564 321.82696 
L 666.66256 321.910745 
L 668.153321 325.091869 
L 669.644082 326.054516 
L 670.637922 327.952115 
L 671.134842 327.335559 
L 671.631763 327.581062 
L 673.122523 320.677182 
L 674.116364 323.030747 
L 674.613284 323.553913 
L 675.110204 322.95663 
L 676.600965 322.817209 
L 677.097885 323.455778 
L 678.091725 325.439127 
L 678.588646 324.848014 
L 680.079406 323.897481 
L 680.576327 324.938139 
L 681.570167 326.420134 
L 682.067087 326.929106 
L 683.557848 327.871668 
L 684.551688 329.651963 
L 685.048609 328.417148 
L 685.545529 329.306779 
L 687.036289 326.463839 
L 687.53321 324.980111 
L 688.52705 326.786911 
L 689.02397 326.76223 
L 690.514731 327.700395 
L 691.011651 328.540505 
L 691.508571 327.908871 
L 692.502412 329.643747 
L 693.993173 326.918258 
L 694.490093 327.695319 
L 694.987013 292.52272 
L 695.483933 294.588394 
L 695.980853 291.755587 
L 697.471614 293.121417 
L 698.465455 297.165776 
L 699.459295 300.482308 
L 701.446976 302.972239 
L 702.440816 306.38422 
L 702.937737 307.089259 
L 704.428497 308.582464 
L 704.925417 308.883836 
L 705.422338 310.409264 
L 706.416178 311.359928 
L 707.906939 310.265535 
L 709.397699 314.394396 
L 709.89462 314.869505 
L 711.38538 315.619225 
L 712.876141 319.302866 
L 713.373061 320.248384 
L 714.863822 320.863867 
L 715.360742 322.086869 
L 715.857662 322.738373 
L 716.354583 323.737679 
L 716.851503 322.729696 
L 718.342263 323.203425 
L 719.833024 326.296601 
L 720.329944 325.273819 
L 721.820705 324.921809 
L 722.317625 325.987462 
L 722.814545 326.537002 
L 723.311466 327.566729 
L 723.808386 328.21376 
L 725.299147 327.933695 
L 725.796067 328.772159 
L 726.292987 328.136788 
L 727.286827 329.681405 
L 728.777588 329.891634 
L 729.274508 330.77859 
L 730.268349 329.459495 
L 730.765269 330.259863 
L 732.25603 331.105317 
L 732.75295 331.902078 
L 733.24987 330.252558 
L 734.243711 331.309621 
L 735.734471 329.510724 
L 736.728312 330.846517 
L 737.722152 331.667037 
L 739.212913 331.248704 
L 739.709833 331.666608 
L 740.703673 329.943868 
L 741.200594 330.340537 
L 742.691354 331.108854 
L 743.188275 331.83438 
L 743.685195 331.119193 
L 744.182115 331.464326 
L 744.679035 329.755406 
L 746.169796 329.88894 
L 746.666716 330.211191 
L 747.163636 331.015542 
L 747.163636 331.015542 
" clip-path="url(#pd1f86e8da6)" style="fill: none; stroke: #1f77b4; stroke-width: 1.5; stroke-linecap: square"/>
   </g>
   <g id="patch_3">
    <path d="M 108 384.48 
L 108 51.84 
" style="fill: none; stroke: #000000; stroke-width: 0.8; stroke-linejoin: miter; stroke-linecap: square"/>
   </g>
   <g id="patch_4">
    <path d="M 777.6 384.48 
L 777.6 51.84 
" style="fill: none; stroke: #000000; stroke-width: 0.8; stroke-linejoin: miter; stroke-linecap: square"/>
   </g>
   <g id="patch_5">
    <path d="M 108 384.48 
L 777.6 384.48 
" style="fill: none; stroke: #000000; stroke-width: 0.8; stroke-linejoin: miter; stroke-linecap: square"/>
   </g>
   <g id="patch_6">
    <path d="M 108 51.84 
L 777.6 51.84 
" style="fill: none; stroke: #000000; stroke-width: 0.8; stroke-linejoin: miter; stroke-linecap: square"/>
   </g>
   <g id="text_21">
    <!-- Volatility Prediction with GARCH -->
    <g transform="translate(347.311875 45.84) scale(0.12 -0.12)">
     <defs>
      <path id="DejaVuSans-20" transform="scale(0.015625)"/>
      <path id="DejaVuSans-50" d="M 1259 4147 
L 1259 2394 
L 2053 2394 
Q 2494 2394 2734 2622 
Q 2975 2850 2975 3272 
Q 2975 3691 2734 3919 
Q 2494 4147 2053 4147 
L 1259 4147 
z
M 628 4666 
L 2053 4666 
Q 2838 4666 3239 4311 
Q 3641 3956 3641 3272 
Q 3641 2581 3239 2228 
Q 2838 1875 2053 1875 
L 1259 1875 
L 1259 0 
L 628 0 
L 628 4666 
z
" transform="scale(0.015625)"/>
      <path id="DejaVuSans-72" d="M 2631 2963 
Q 2534 3019 2420 3045 
Q 2306 3072 2169 3072 
Q 1681 3072 1420 2755 
Q 1159 2438 1159 1844 
L 1159 0 
L 581 0 
L 581 3500 
L 1159 3500 
L 1159 2956 
Q 1341 3275 1631 3429 
Q 1922 3584 2338 3584 
Q 2397 3584 2469 3576 
Q 2541 3569 2628 3553 
L 2631 2963 
z
" transform="scale(0.015625)"/>
      <path id="DejaVuSans-64" d="M 2906 2969 
L 2906 4863 
L 3481 4863 
L 3481 0 
L 2906 0 
L 2906 525 
Q 2725 213 2448 61 
Q 2172 -91 1784 -91 
Q 1150 -91 751 415 
Q 353 922 353 1747 
Q 353 2572 751 3078 
Q 1150 3584 1784 3584 
Q 2172 3584 2448 3432 
Q 2725 3281 2906 2969 
z
M 947 1747 
Q 947 1113 1208 752 
Q 1469 391 1925 391 
Q 2381 391 2643 752 
Q 2906 1113 2906 1747 
Q 2906 2381 2643 2742 
Q 2381 3103 1925 3103 
Q 1469 3103 1208 2742 
Q 947 2381 947 1747 
z
" transform="scale(0.015625)"/>
      <path id="DejaVuSans-63" d="M 3122 3366 
L 3122 2828 
Q 2878 2963 2633 3030 
Q 2388 3097 2138 3097 
Q 1578 3097 1268 2742 
Q 959 2388 959 1747 
Q 959 1106 1268 751 
Q 1578 397 2138 397 
Q 2388 397 2633 464 
Q 2878 531 3122 666 
L 3122 134 
Q 2881 22 2623 -34 
Q 2366 -91 2075 -91 
Q 1284 -91 818 406 
Q 353 903 353 1747 
Q 353 2603 823 3093 
Q 1294 3584 2113 3584 
Q 2378 3584 2631 3529 
Q 2884 3475 3122 3366 
z
" transform="scale(0.015625)"/>
      <path id="DejaVuSans-6e" d="M 3513 2113 
L 3513 0 
L 2938 0 
L 2938 2094 
Q 2938 2591 2744 2837 
Q 2550 3084 2163 3084 
Q 1697 3084 1428 2787 
Q 1159 2491 1159 1978 
L 1159 0 
L 581 0 
L 581 3500 
L 1159 3500 
L 1159 2956 
Q 1366 3272 1645 3428 
Q 1925 3584 2291 3584 
Q 2894 3584 3203 3211 
Q 3513 2838 3513 2113 
z
" transform="scale(0.015625)"/>
      <path id="DejaVuSans-77" d="M 269 3500 
L 844 3500 
L 1563 769 
L 2278 3500 
L 2956 3500 
L 3675 769 
L 4391 3500 
L 4966 3500 
L 4050 0 
L 3372 0 
L 2619 2869 
L 1863 0 
L 1184 0 
L 269 3500 
z
" transform="scale(0.015625)"/>
      <path id="DejaVuSans-68" d="M 3513 2113 
L 3513 0 
L 2938 0 
L 2938 2094 
Q 2938 2591 2744 2837 
Q 2550 3084 2163 3084 
Q 1697 3084 1428 2787 
Q 1159 2491 1159 1978 
L 1159 0 
L 581 0 
L 581 4863 
L 1159 4863 
L 1159 2956 
Q 1366 3272 1645 3428 
Q 1925 3584 2291 3584 
Q 2894 3584 3203 3211 
Q 3513 2838 3513 2113 
z
" transform="scale(0.015625)"/>
      <path id="DejaVuSans-47" d="M 3809 666 
L 3809 1919 
L 2778 1919 
L 2778 2438 
L 4434 2438 
L 4434 434 
Q 4069 175 3628 42 
Q 3188 -91 2688 -91 
Q 1594 -91 976 548 
Q 359 1188 359 2328 
Q 359 3472 976 4111 
Q 1594 4750 2688 4750 
Q 3144 4750 3555 4637 
Q 3966 4525 4313 4306 
L 4313 3634 
Q 3963 3931 3569 4081 
Q 3175 4231 2741 4231 
Q 1884 4231 1454 3753 
Q 1025 3275 1025 2328 
Q 1025 1384 1454 906 
Q 1884 428 2741 428 
Q 3075 428 3337 486 
Q 3600 544 3809 666 
z
" transform="scale(0.015625)"/>
      <path id="DejaVuSans-41" d="M 2188 4044 
L 1331 1722 
L 3047 1722 
L 2188 4044 
z
M 1831 4666 
L 2547 4666 
L 4325 0 
L 3669 0 
L 3244 1197 
L 1141 1197 
L 716 0 
L 50 0 
L 1831 4666 
z
" transform="scale(0.015625)"/>
      <path id="DejaVuSans-52" d="M 2841 2188 
Q 3044 2119 3236 1894 
Q 3428 1669 3622 1275 
L 4263 0 
L 3584 0 
L 2988 1197 
Q 2756 1666 2539 1819 
Q 2322 1972 1947 1972 
L 1259 1972 
L 1259 0 
L 628 0 
L 628 4666 
L 2053 4666 
Q 2853 4666 3247 4331 
Q 3641 3997 3641 3322 
Q 3641 2881 3436 2590 
Q 3231 2300 2841 2188 
z
M 1259 4147 
L 1259 2491 
L 2053 2491 
Q 2509 2491 2742 2702 
Q 2975 2913 2975 3322 
Q 2975 3731 2742 3939 
Q 2509 4147 2053 4147 
L 1259 4147 
z
" transform="scale(0.015625)"/>
      <path id="DejaVuSans-43" d="M 4122 4306 
L 4122 3641 
Q 3803 3938 3442 4084 
Q 3081 4231 2675 4231 
Q 1875 4231 1450 3742 
Q 1025 3253 1025 2328 
Q 1025 1406 1450 917 
Q 1875 428 2675 428 
Q 3081 428 3442 575 
Q 3803 722 4122 1019 
L 4122 359 
Q 3791 134 3420 21 
Q 3050 -91 2638 -91 
Q 1578 -91 968 557 
Q 359 1206 359 2328 
Q 359 3453 968 4101 
Q 1578 4750 2638 4750 
Q 3056 4750 3426 4639 
Q 3797 4528 4122 4306 
z
" transform="scale(0.015625)"/>
      <path id="DejaVuSans-48" d="M 628 4666 
L 1259 4666 
L 1259 2753 
L 3553 2753 
L 3553 4666 
L 4184 4666 
L 4184 0 
L 3553 0 
L 3553 2222 
L 1259 2222 
L 1259 0 
L 628 0 
L 628 4666 
z
" transform="scale(0.015625)"/>
     </defs>
     <use xlink:href="#DejaVuSans-56"/>
     <use xlink:href="#DejaVuSans-6f" x="60.658203"/>
     <use xlink:href="#DejaVuSans-6c" x="121.839844"/>
     <use xlink:href="#DejaVuSans-61" x="149.623047"/>
     <use xlink:href="#DejaVuSans-74" x="210.902344"/>
     <use xlink:href="#DejaVuSans-69" x="250.111328"/>
     <use xlink:href="#DejaVuSans-6c" x="277.894531"/>
     <use xlink:href="#DejaVuSans-69" x="305.677734"/>
     <use xlink:href="#DejaVuSans-74" x="333.460938"/>
     <use xlink:href="#DejaVuSans-79" x="372.669922"/>
     <use xlink:href="#DejaVuSans-20" x="431.849609"/>
     <use xlink:href="#DejaVuSans-50" x="463.636719"/>
     <use xlink:href="#DejaVuSans-72" x="522.189453"/>
     <use xlink:href="#DejaVuSans-65" x="561.052734"/>
     <use xlink:href="#DejaVuSans-64" x="622.576172"/>
     <use xlink:href="#DejaVuSans-69" x="686.052734"/>
     <use xlink:href="#DejaVuSans-63" x="713.835938"/>
     <use xlink:href="#DejaVuSans-74" x="768.816406"/>
     <use xlink:href="#DejaVuSans-69" x="808.025391"/>
     <use xlink:href="#DejaVuSans-6f" x="835.808594"/>
     <use xlink:href="#DejaVuSans-6e" x="896.990234"/>
     <use xlink:href="#DejaVuSans-20" x="960.369141"/>
     <use xlink:href="#DejaVuSans-77" x="992.15625"/>
     <use xlink:href="#DejaVuSans-69" x="1073.943359"/>
     <use xlink:href="#DejaVuSans-74" x="1101.726562"/>
     <use xlink:href="#DejaVuSans-68" x="1140.935547"/>
     <use xlink:href="#DejaVuSans-20" x="1204.314453"/>
     <use xlink:href="#DejaVuSans-47" x="1236.101562"/>
     <use xlink:href="#DejaVuSans-41" x="1313.591797"/>
     <use xlink:href="#DejaVuSans-52" x="1382"/>
     <use xlink:href="#DejaVuSans-43" x="1446.482422"/>
     <use xlink:href="#DejaVuSans-48" x="1516.306641"/>
    </g>
   </g>
   <g id="legend_1">
    <g id="patch_7">
     <path d="M 115 89.19625 
L 281.754688 89.19625 
Q 283.754688 89.19625 283.754688 87.19625 
L 283.754688 58.84 
Q 283.754688 56.84 281.754688 56.84 
L 115 56.84 
Q 113 56.84 113 58.84 
L 113 87.19625 
Q 113 89.19625 115 89.19625 
z
" style="fill: #ffffff; opacity: 0.8; stroke: #cccccc; stroke-linejoin: miter"/>
    </g>
    <g id="line2d_21">
     <path d="M 117 64.938437 
L 127 64.938437 
L 137 64.938437 
" style="fill: none; stroke: #000000; stroke-width: 1.5; stroke-linecap: square"/>
    </g>
    <g id="text_22">
     <!-- Absolute Returns -->
     <g transform="translate(145 68.438437) scale(0.1 -0.1)">
      <defs>
       <path id="DejaVuSans-62" d="M 3116 1747 
Q 3116 2381 2855 2742 
Q 2594 3103 2138 3103 
Q 1681 3103 1420 2742 
Q 1159 2381 1159 1747 
Q 1159 1113 1420 752 
Q 1681 391 2138 391 
Q 2594 391 2855 752 
Q 3116 1113 3116 1747 
z
M 1159 2969 
Q 1341 3281 1617 3432 
Q 1894 3584 2278 3584 
Q 2916 3584 3314 3078 
Q 3713 2572 3713 1747 
Q 3713 922 3314 415 
Q 2916 -91 2278 -91 
Q 1894 -91 1617 61 
Q 1341 213 1159 525 
L 1159 0 
L 581 0 
L 581 4863 
L 1159 4863 
L 1159 2969 
z
" transform="scale(0.015625)"/>
       <path id="DejaVuSans-73" d="M 2834 3397 
L 2834 2853 
Q 2591 2978 2328 3040 
Q 2066 3103 1784 3103 
Q 1356 3103 1142 2972 
Q 928 2841 928 2578 
Q 928 2378 1081 2264 
Q 1234 2150 1697 2047 
L 1894 2003 
Q 2506 1872 2764 1633 
Q 3022 1394 3022 966 
Q 3022 478 2636 193 
Q 2250 -91 1575 -91 
Q 1294 -91 989 -36 
Q 684 19 347 128 
L 347 722 
Q 666 556 975 473 
Q 1284 391 1588 391 
Q 1994 391 2212 530 
Q 2431 669 2431 922 
Q 2431 1156 2273 1281 
Q 2116 1406 1581 1522 
L 1381 1569 
Q 847 1681 609 1914 
Q 372 2147 372 2553 
Q 372 3047 722 3315 
Q 1072 3584 1716 3584 
Q 2034 3584 2315 3537 
Q 2597 3491 2834 3397 
z
" transform="scale(0.015625)"/>
       <path id="DejaVuSans-75" d="M 544 1381 
L 544 3500 
L 1119 3500 
L 1119 1403 
Q 1119 906 1312 657 
Q 1506 409 1894 409 
Q 2359 409 2629 706 
Q 2900 1003 2900 1516 
L 2900 3500 
L 3475 3500 
L 3475 0 
L 2900 0 
L 2900 538 
Q 2691 219 2414 64 
Q 2138 -91 1772 -91 
Q 1169 -91 856 284 
Q 544 659 544 1381 
z
M 1991 3584 
L 1991 3584 
z
" transform="scale(0.015625)"/>
      </defs>
      <use xlink:href="#DejaVuSans-41"/>
      <use xlink:href="#DejaVuSans-62" x="68.408203"/>
      <use xlink:href="#DejaVuSans-73" x="131.884766"/>
      <use xlink:href="#DejaVuSans-6f" x="183.984375"/>
      <use xlink:href="#DejaVuSans-6c" x="245.166016"/>
      <use xlink:href="#DejaVuSans-75" x="272.949219"/>
      <use xlink:href="#DejaVuSans-74" x="336.328125"/>
      <use xlink:href="#DejaVuSans-65" x="375.537109"/>
      <use xlink:href="#DejaVuSans-20" x="437.060547"/>
      <use xlink:href="#DejaVuSans-52" x="468.847656"/>
      <use xlink:href="#DejaVuSans-65" x="533.830078"/>
      <use xlink:href="#DejaVuSans-74" x="595.353516"/>
      <use xlink:href="#DejaVuSans-75" x="634.5625"/>
      <use xlink:href="#DejaVuSans-72" x="697.941406"/>
      <use xlink:href="#DejaVuSans-6e" x="737.304688"/>
      <use xlink:href="#DejaVuSans-73" x="800.683594"/>
     </g>
    </g>
    <g id="line2d_22">
     <path d="M 117 79.616562 
L 127 79.616562 
L 137 79.616562 
" style="fill: none; stroke: #1f77b4; stroke-width: 1.5; stroke-linecap: square"/>
    </g>
    <g id="text_23">
     <!-- GARCH Volatility Prediction -->
     <g transform="translate(145 83.116562) scale(0.1 -0.1)">
      <use xlink:href="#DejaVuSans-47"/>
      <use xlink:href="#DejaVuSans-41" x="77.490234"/>
      <use xlink:href="#DejaVuSans-52" x="145.898438"/>
      <use xlink:href="#DejaVuSans-43" x="210.380859"/>
      <use xlink:href="#DejaVuSans-48" x="280.205078"/>
      <use xlink:href="#DejaVuSans-20" x="355.400391"/>
      <use xlink:href="#DejaVuSans-56" x="387.1875"/>
      <use xlink:href="#DejaVuSans-6f" x="447.845703"/>
      <use xlink:href="#DejaVuSans-6c" x="509.027344"/>
      <use xlink:href="#DejaVuSans-61" x="536.810547"/>
      <use xlink:href="#DejaVuSans-74" x="598.089844"/>
      <use xlink:href="#DejaVuSans-69" x="637.298828"/>
      <use xlink:href="#DejaVuSans-6c" x="665.082031"/>
      <use xlink:href="#DejaVuSans-69" x="692.865234"/>
      <use xlink:href="#DejaVuSans-74" x="720.648438"/>
      <use xlink:href="#DejaVuSans-79" x="759.857422"/>
      <use xlink:href="#DejaVuSans-20" x="819.037109"/>
      <use xlink:href="#DejaVuSans-50" x="850.824219"/>
      <use xlink:href="#DejaVuSans-72" x="909.376953"/>
      <use xlink:href="#DejaVuSans-65" x="948.240234"/>
      <use xlink:href="#DejaVuSans-64" x="1009.763672"/>
      <use xlink:href="#DejaVuSans-69" x="1073.240234"/>
      <use xlink:href="#DejaVuSans-63" x="1101.023438"/>
      <use xlink:href="#DejaVuSans-74" x="1156.003906"/>
      <use xlink:href="#DejaVuSans-69" x="1195.212891"/>
      <use xlink:href="#DejaVuSans-6f" x="1222.996094"/>
      <use xlink:href="#DejaVuSans-6e" x="1284.177734"/>
     </g>
    </g>
   </g>
  </g>
 </g>
 <defs>
  <clipPath id="pd1f86e8da6">
   <rect x="108" y="51.84" width="669.6" height="332.64"/>
  </clipPath>
 </defs>
</svg>
