<?xml version="1.0" encoding="utf-8" standalone="no"?>
<!DOCTYPE svg PUBLIC "-//W3C//DTD SVG 1.1//EN"
  "http://www.w3.org/Graphics/SVG/1.1/DTD/svg11.dtd">
<svg xmlns:xlink="http://www.w3.org/1999/xlink" width="864pt" height="432pt" viewBox="0 0 864 432" xmlns="http://www.w3.org/2000/svg" version="1.1">
 <metadata>
  <rdf:RDF xmlns:dc="http://purl.org/dc/elements/1.1/" xmlns:cc="http://creativecommons.org/ns#" xmlns:rdf="http://www.w3.org/1999/02/22-rdf-syntax-ns#">
   <cc:Work>
    <dc:type rdf:resource="http://purl.org/dc/dcmitype/StillImage"/>
    <dc:date>2025-02-13T15:42:59.027028</dc:date>
    <dc:format>image/svg+xml</dc:format>
    <dc:creator>
     <cc:Agent>
      <dc:title>Matplotlib v3.8.1, https://matplotlib.org/</dc:title>
     </cc:Agent>
    </dc:creator>
   </cc:Work>
  </rdf:RDF>
 </metadata>
 <defs>
  <style type="text/css">*{stroke-linejoin: round; stroke-linecap: butt}</style>
 </defs>
 <g id="figure_1">
  <g id="patch_1">
   <path d="M 0 432 
L 864 432 
L 864 0 
L 0 0 
z
" style="fill: #ffffff"/>
  </g>
  <g id="axes_1">
   <g id="patch_2">
    <path d="M 108 384.48 
L 777.6 384.48 
L 777.6 51.84 
L 108 51.84 
z
" style="fill: #ffffff"/>
   </g>
   <g id="matplotlib.axis_1">
    <g id="xtick_1">
     <g id="line2d_1">
      <defs>
       <path id="m15d8b39861" d="M 0 0 
L 0 3.5 
" style="stroke: #000000; stroke-width: 0.8"/>
      </defs>
      <g>
       <use xlink:href="#m15d8b39861" x="108.62115" y="384.48" style="stroke: #000000; stroke-width: 0.8"/>
      </g>
     </g>
     <g id="text_1">
      <!-- 2021-05 -->
      <g transform="translate(87.729744 399.078438) scale(0.1 -0.1)">
       <defs>
        <path id="DejaVuSans-32" d="M 1228 531 
L 3431 531 
L 3431 0 
L 469 0 
L 469 531 
Q 828 903 1448 1529 
Q 2069 2156 2228 2338 
Q 2531 2678 2651 2914 
Q 2772 3150 2772 3378 
Q 2772 3750 2511 3984 
Q 2250 4219 1831 4219 
Q 1534 4219 1204 4116 
Q 875 4013 500 3803 
L 500 4441 
Q 881 4594 1212 4672 
Q 1544 4750 1819 4750 
Q 2544 4750 2975 4387 
Q 3406 4025 3406 3419 
Q 3406 3131 3298 2873 
Q 3191 2616 2906 2266 
Q 2828 2175 2409 1742 
Q 1991 1309 1228 531 
z
" transform="scale(0.015625)"/>
        <path id="DejaVuSans-30" d="M 2034 4250 
Q 1547 4250 1301 3770 
Q 1056 3291 1056 2328 
Q 1056 1369 1301 889 
Q 1547 409 2034 409 
Q 2525 409 2770 889 
Q 3016 1369 3016 2328 
Q 3016 3291 2770 3770 
Q 2525 4250 2034 4250 
z
M 2034 4750 
Q 2819 4750 3233 4129 
Q 3647 3509 3647 2328 
Q 3647 1150 3233 529 
Q 2819 -91 2034 -91 
Q 1250 -91 836 529 
Q 422 1150 422 2328 
Q 422 3509 836 4129 
Q 1250 4750 2034 4750 
z
" transform="scale(0.015625)"/>
        <path id="DejaVuSans-31" d="M 794 531 
L 1825 531 
L 1825 4091 
L 703 3866 
L 703 4441 
L 1819 4666 
L 2450 4666 
L 2450 531 
L 3481 531 
L 3481 0 
L 794 0 
L 794 531 
z
" transform="scale(0.015625)"/>
        <path id="DejaVuSans-2d" d="M 313 2009 
L 1997 2009 
L 1997 1497 
L 313 1497 
L 313 2009 
z
" transform="scale(0.015625)"/>
        <path id="DejaVuSans-35" d="M 691 4666 
L 3169 4666 
L 3169 4134 
L 1269 4134 
L 1269 2991 
Q 1406 3038 1543 3061 
Q 1681 3084 1819 3084 
Q 2600 3084 3056 2656 
Q 3513 2228 3513 1497 
Q 3513 744 3044 326 
Q 2575 -91 1722 -91 
Q 1428 -91 1123 -41 
Q 819 9 494 109 
L 494 744 
Q 775 591 1075 516 
Q 1375 441 1709 441 
Q 2250 441 2565 725 
Q 2881 1009 2881 1497 
Q 2881 1984 2565 2268 
Q 2250 2553 1709 2553 
Q 1456 2553 1204 2497 
Q 953 2441 691 2322 
L 691 4666 
z
" transform="scale(0.015625)"/>
       </defs>
       <use xlink:href="#DejaVuSans-32"/>
       <use xlink:href="#DejaVuSans-30" x="63.623047"/>
       <use xlink:href="#DejaVuSans-32" x="127.246094"/>
       <use xlink:href="#DejaVuSans-31" x="190.869141"/>
       <use xlink:href="#DejaVuSans-2d" x="254.492188"/>
       <use xlink:href="#DejaVuSans-30" x="290.576172"/>
       <use xlink:href="#DejaVuSans-35" x="354.199219"/>
      </g>
     </g>
    </g>
    <g id="xtick_2">
     <g id="line2d_2">
      <g>
       <use xlink:href="#m15d8b39861" x="169.742338" y="384.48" style="stroke: #000000; stroke-width: 0.8"/>
      </g>
     </g>
     <g id="text_2">
      <!-- 2021-09 -->
      <g transform="translate(148.850931 399.078438) scale(0.1 -0.1)">
       <defs>
        <path id="DejaVuSans-39" d="M 703 97 
L 703 672 
Q 941 559 1184 500 
Q 1428 441 1663 441 
Q 2288 441 2617 861 
Q 2947 1281 2994 2138 
Q 2813 1869 2534 1725 
Q 2256 1581 1919 1581 
Q 1219 1581 811 2004 
Q 403 2428 403 3163 
Q 403 3881 828 4315 
Q 1253 4750 1959 4750 
Q 2769 4750 3195 4129 
Q 3622 3509 3622 2328 
Q 3622 1225 3098 567 
Q 2575 -91 1691 -91 
Q 1453 -91 1209 -44 
Q 966 3 703 97 
z
M 1959 2075 
Q 2384 2075 2632 2365 
Q 2881 2656 2881 3163 
Q 2881 3666 2632 3958 
Q 2384 4250 1959 4250 
Q 1534 4250 1286 3958 
Q 1038 3666 1038 3163 
Q 1038 2656 1286 2365 
Q 1534 2075 1959 2075 
z
" transform="scale(0.015625)"/>
       </defs>
       <use xlink:href="#DejaVuSans-32"/>
       <use xlink:href="#DejaVuSans-30" x="63.623047"/>
       <use xlink:href="#DejaVuSans-32" x="127.246094"/>
       <use xlink:href="#DejaVuSans-31" x="190.869141"/>
       <use xlink:href="#DejaVuSans-2d" x="254.492188"/>
       <use xlink:href="#DejaVuSans-30" x="290.576172"/>
       <use xlink:href="#DejaVuSans-39" x="354.199219"/>
      </g>
     </g>
    </g>
    <g id="xtick_3">
     <g id="line2d_3">
      <g>
       <use xlink:href="#m15d8b39861" x="230.366605" y="384.48" style="stroke: #000000; stroke-width: 0.8"/>
      </g>
     </g>
     <g id="text_3">
      <!-- 2022-01 -->
      <g transform="translate(209.475199 399.078438) scale(0.1 -0.1)">
       <use xlink:href="#DejaVuSans-32"/>
       <use xlink:href="#DejaVuSans-30" x="63.623047"/>
       <use xlink:href="#DejaVuSans-32" x="127.246094"/>
       <use xlink:href="#DejaVuSans-32" x="190.869141"/>
       <use xlink:href="#DejaVuSans-2d" x="254.492188"/>
       <use xlink:href="#DejaVuSans-30" x="290.576172"/>
       <use xlink:href="#DejaVuSans-31" x="354.199219"/>
      </g>
     </g>
    </g>
    <g id="xtick_4">
     <g id="line2d_4">
      <g>
       <use xlink:href="#m15d8b39861" x="289.997032" y="384.48" style="stroke: #000000; stroke-width: 0.8"/>
      </g>
     </g>
     <g id="text_4">
      <!-- 2022-05 -->
      <g transform="translate(269.105625 399.078438) scale(0.1 -0.1)">
       <use xlink:href="#DejaVuSans-32"/>
       <use xlink:href="#DejaVuSans-30" x="63.623047"/>
       <use xlink:href="#DejaVuSans-32" x="127.246094"/>
       <use xlink:href="#DejaVuSans-32" x="190.869141"/>
       <use xlink:href="#DejaVuSans-2d" x="254.492188"/>
       <use xlink:href="#DejaVuSans-30" x="290.576172"/>
       <use xlink:href="#DejaVuSans-35" x="354.199219"/>
      </g>
     </g>
    </g>
    <g id="xtick_5">
     <g id="line2d_5">
      <g>
       <use xlink:href="#m15d8b39861" x="351.118219" y="384.48" style="stroke: #000000; stroke-width: 0.8"/>
      </g>
     </g>
     <g id="text_5">
      <!-- 2022-09 -->
      <g transform="translate(330.226813 399.078438) scale(0.1 -0.1)">
       <use xlink:href="#DejaVuSans-32"/>
       <use xlink:href="#DejaVuSans-30" x="63.623047"/>
       <use xlink:href="#DejaVuSans-32" x="127.246094"/>
       <use xlink:href="#DejaVuSans-32" x="190.869141"/>
       <use xlink:href="#DejaVuSans-2d" x="254.492188"/>
       <use xlink:href="#DejaVuSans-30" x="290.576172"/>
       <use xlink:href="#DejaVuSans-39" x="354.199219"/>
      </g>
     </g>
    </g>
    <g id="xtick_6">
     <g id="line2d_6">
      <g>
       <use xlink:href="#m15d8b39861" x="411.742486" y="384.48" style="stroke: #000000; stroke-width: 0.8"/>
      </g>
     </g>
     <g id="text_6">
      <!-- 2023-01 -->
      <g transform="translate(390.85108 399.078438) scale(0.1 -0.1)">
       <defs>
        <path id="DejaVuSans-33" d="M 2597 2516 
Q 3050 2419 3304 2112 
Q 3559 1806 3559 1356 
Q 3559 666 3084 287 
Q 2609 -91 1734 -91 
Q 1441 -91 1130 -33 
Q 819 25 488 141 
L 488 750 
Q 750 597 1062 519 
Q 1375 441 1716 441 
Q 2309 441 2620 675 
Q 2931 909 2931 1356 
Q 2931 1769 2642 2001 
Q 2353 2234 1838 2234 
L 1294 2234 
L 1294 2753 
L 1863 2753 
Q 2328 2753 2575 2939 
Q 2822 3125 2822 3475 
Q 2822 3834 2567 4026 
Q 2313 4219 1838 4219 
Q 1578 4219 1281 4162 
Q 984 4106 628 3988 
L 628 4550 
Q 988 4650 1302 4700 
Q 1616 4750 1894 4750 
Q 2613 4750 3031 4423 
Q 3450 4097 3450 3541 
Q 3450 3153 3228 2886 
Q 3006 2619 2597 2516 
z
" transform="scale(0.015625)"/>
       </defs>
       <use xlink:href="#DejaVuSans-32"/>
       <use xlink:href="#DejaVuSans-30" x="63.623047"/>
       <use xlink:href="#DejaVuSans-32" x="127.246094"/>
       <use xlink:href="#DejaVuSans-33" x="190.869141"/>
       <use xlink:href="#DejaVuSans-2d" x="254.492188"/>
       <use xlink:href="#DejaVuSans-30" x="290.576172"/>
       <use xlink:href="#DejaVuSans-31" x="354.199219"/>
      </g>
     </g>
    </g>
    <g id="xtick_7">
     <g id="line2d_7">
      <g>
       <use xlink:href="#m15d8b39861" x="471.372913" y="384.48" style="stroke: #000000; stroke-width: 0.8"/>
      </g>
     </g>
     <g id="text_7">
      <!-- 2023-05 -->
      <g transform="translate(450.481507 399.078438) scale(0.1 -0.1)">
       <use xlink:href="#DejaVuSans-32"/>
       <use xlink:href="#DejaVuSans-30" x="63.623047"/>
       <use xlink:href="#DejaVuSans-32" x="127.246094"/>
       <use xlink:href="#DejaVuSans-33" x="190.869141"/>
       <use xlink:href="#DejaVuSans-2d" x="254.492188"/>
       <use xlink:href="#DejaVuSans-30" x="290.576172"/>
       <use xlink:href="#DejaVuSans-35" x="354.199219"/>
      </g>
     </g>
    </g>
    <g id="xtick_8">
     <g id="line2d_8">
      <g>
       <use xlink:href="#m15d8b39861" x="532.4941" y="384.48" style="stroke: #000000; stroke-width: 0.8"/>
      </g>
     </g>
     <g id="text_8">
      <!-- 2023-09 -->
      <g transform="translate(511.602694 399.078438) scale(0.1 -0.1)">
       <use xlink:href="#DejaVuSans-32"/>
       <use xlink:href="#DejaVuSans-30" x="63.623047"/>
       <use xlink:href="#DejaVuSans-32" x="127.246094"/>
       <use xlink:href="#DejaVuSans-33" x="190.869141"/>
       <use xlink:href="#DejaVuSans-2d" x="254.492188"/>
       <use xlink:href="#DejaVuSans-30" x="290.576172"/>
       <use xlink:href="#DejaVuSans-39" x="354.199219"/>
      </g>
     </g>
    </g>
    <g id="xtick_9">
     <g id="line2d_9">
      <g>
       <use xlink:href="#m15d8b39861" x="593.118367" y="384.48" style="stroke: #000000; stroke-width: 0.8"/>
      </g>
     </g>
     <g id="text_9">
      <!-- 2024-01 -->
      <g transform="translate(572.226961 399.078438) scale(0.1 -0.1)">
       <defs>
        <path id="DejaVuSans-34" d="M 2419 4116 
L 825 1625 
L 2419 1625 
L 2419 4116 
z
M 2253 4666 
L 3047 4666 
L 3047 1625 
L 3713 1625 
L 3713 1100 
L 3047 1100 
L 3047 0 
L 2419 0 
L 2419 1100 
L 313 1100 
L 313 1709 
L 2253 4666 
z
" transform="scale(0.015625)"/>
       </defs>
       <use xlink:href="#DejaVuSans-32"/>
       <use xlink:href="#DejaVuSans-30" x="63.623047"/>
       <use xlink:href="#DejaVuSans-32" x="127.246094"/>
       <use xlink:href="#DejaVuSans-34" x="190.869141"/>
       <use xlink:href="#DejaVuSans-2d" x="254.492188"/>
       <use xlink:href="#DejaVuSans-30" x="290.576172"/>
       <use xlink:href="#DejaVuSans-31" x="354.199219"/>
      </g>
     </g>
    </g>
    <g id="xtick_10">
     <g id="line2d_10">
      <g>
       <use xlink:href="#m15d8b39861" x="653.245714" y="384.48" style="stroke: #000000; stroke-width: 0.8"/>
      </g>
     </g>
     <g id="text_10">
      <!-- 2024-05 -->
      <g transform="translate(632.354308 399.078438) scale(0.1 -0.1)">
       <use xlink:href="#DejaVuSans-32"/>
       <use xlink:href="#DejaVuSans-30" x="63.623047"/>
       <use xlink:href="#DejaVuSans-32" x="127.246094"/>
       <use xlink:href="#DejaVuSans-34" x="190.869141"/>
       <use xlink:href="#DejaVuSans-2d" x="254.492188"/>
       <use xlink:href="#DejaVuSans-30" x="290.576172"/>
       <use xlink:href="#DejaVuSans-35" x="354.199219"/>
      </g>
     </g>
    </g>
    <g id="xtick_11">
     <g id="line2d_11">
      <g>
       <use xlink:href="#m15d8b39861" x="714.366902" y="384.48" style="stroke: #000000; stroke-width: 0.8"/>
      </g>
     </g>
     <g id="text_11">
      <!-- 2024-09 -->
      <g transform="translate(693.475495 399.078438) scale(0.1 -0.1)">
       <use xlink:href="#DejaVuSans-32"/>
       <use xlink:href="#DejaVuSans-30" x="63.623047"/>
       <use xlink:href="#DejaVuSans-32" x="127.246094"/>
       <use xlink:href="#DejaVuSans-34" x="190.869141"/>
       <use xlink:href="#DejaVuSans-2d" x="254.492188"/>
       <use xlink:href="#DejaVuSans-30" x="290.576172"/>
       <use xlink:href="#DejaVuSans-39" x="354.199219"/>
      </g>
     </g>
    </g>
    <g id="xtick_12">
     <g id="line2d_12">
      <g>
       <use xlink:href="#m15d8b39861" x="774.991169" y="384.48" style="stroke: #000000; stroke-width: 0.8"/>
      </g>
     </g>
     <g id="text_12">
      <!-- 2025-01 -->
      <g transform="translate(754.099763 399.078438) scale(0.1 -0.1)">
       <use xlink:href="#DejaVuSans-32"/>
       <use xlink:href="#DejaVuSans-30" x="63.623047"/>
       <use xlink:href="#DejaVuSans-32" x="127.246094"/>
       <use xlink:href="#DejaVuSans-35" x="190.869141"/>
       <use xlink:href="#DejaVuSans-2d" x="254.492188"/>
       <use xlink:href="#DejaVuSans-30" x="290.576172"/>
       <use xlink:href="#DejaVuSans-31" x="354.199219"/>
      </g>
     </g>
    </g>
    <g id="text_13">
     <!-- Date -->
     <g transform="translate(430.849219 412.756563) scale(0.1 -0.1)">
      <defs>
       <path id="DejaVuSans-44" d="M 1259 4147 
L 1259 519 
L 2022 519 
Q 2988 519 3436 956 
Q 3884 1394 3884 2338 
Q 3884 3275 3436 3711 
Q 2988 4147 2022 4147 
L 1259 4147 
z
M 628 4666 
L 1925 4666 
Q 3281 4666 3915 4102 
Q 4550 3538 4550 2338 
Q 4550 1131 3912 565 
Q 3275 0 1925 0 
L 628 0 
L 628 4666 
z
" transform="scale(0.015625)"/>
       <path id="DejaVuSans-61" d="M 2194 1759 
Q 1497 1759 1228 1600 
Q 959 1441 959 1056 
Q 959 750 1161 570 
Q 1363 391 1709 391 
Q 2188 391 2477 730 
Q 2766 1069 2766 1631 
L 2766 1759 
L 2194 1759 
z
M 3341 1997 
L 3341 0 
L 2766 0 
L 2766 531 
Q 2569 213 2275 61 
Q 1981 -91 1556 -91 
Q 1019 -91 701 211 
Q 384 513 384 1019 
Q 384 1609 779 1909 
Q 1175 2209 1959 2209 
L 2766 2209 
L 2766 2266 
Q 2766 2663 2505 2880 
Q 2244 3097 1772 3097 
Q 1472 3097 1187 3025 
Q 903 2953 641 2809 
L 641 3341 
Q 956 3463 1253 3523 
Q 1550 3584 1831 3584 
Q 2591 3584 2966 3190 
Q 3341 2797 3341 1997 
z
" transform="scale(0.015625)"/>
       <path id="DejaVuSans-74" d="M 1172 4494 
L 1172 3500 
L 2356 3500 
L 2356 3053 
L 1172 3053 
L 1172 1153 
Q 1172 725 1289 603 
Q 1406 481 1766 481 
L 2356 481 
L 2356 0 
L 1766 0 
Q 1100 0 847 248 
Q 594 497 594 1153 
L 594 3053 
L 172 3053 
L 172 3500 
L 594 3500 
L 594 4494 
L 1172 4494 
z
" transform="scale(0.015625)"/>
       <path id="DejaVuSans-65" d="M 3597 1894 
L 3597 1613 
L 953 1613 
Q 991 1019 1311 708 
Q 1631 397 2203 397 
Q 2534 397 2845 478 
Q 3156 559 3463 722 
L 3463 178 
Q 3153 47 2828 -22 
Q 2503 -91 2169 -91 
Q 1331 -91 842 396 
Q 353 884 353 1716 
Q 353 2575 817 3079 
Q 1281 3584 2069 3584 
Q 2775 3584 3186 3129 
Q 3597 2675 3597 1894 
z
M 3022 2063 
Q 3016 2534 2758 2815 
Q 2500 3097 2075 3097 
Q 1594 3097 1305 2825 
Q 1016 2553 972 2059 
L 3022 2063 
z
" transform="scale(0.015625)"/>
      </defs>
      <use xlink:href="#DejaVuSans-44"/>
      <use xlink:href="#DejaVuSans-61" x="77.001953"/>
      <use xlink:href="#DejaVuSans-74" x="138.28125"/>
      <use xlink:href="#DejaVuSans-65" x="177.490234"/>
     </g>
    </g>
   </g>
   <g id="matplotlib.axis_2">
    <g id="ytick_1">
     <g id="line2d_13">
      <defs>
       <path id="m2799fc56a6" d="M 0 0 
L -3.5 0 
" style="stroke: #000000; stroke-width: 0.8"/>
      </defs>
      <g>
       <use xlink:href="#m2799fc56a6" x="108" y="369.36" style="stroke: #000000; stroke-width: 0.8"/>
      </g>
     </g>
     <g id="text_14">
      <!-- 0.00 -->
      <g transform="translate(78.734375 373.159219) scale(0.1 -0.1)">
       <defs>
        <path id="DejaVuSans-2e" d="M 684 794 
L 1344 794 
L 1344 0 
L 684 0 
L 684 794 
z
" transform="scale(0.015625)"/>
       </defs>
       <use xlink:href="#DejaVuSans-30"/>
       <use xlink:href="#DejaVuSans-2e" x="63.623047"/>
       <use xlink:href="#DejaVuSans-30" x="95.410156"/>
       <use xlink:href="#DejaVuSans-30" x="159.033203"/>
      </g>
     </g>
    </g>
    <g id="ytick_2">
     <g id="line2d_14">
      <g>
       <use xlink:href="#m2799fc56a6" x="108" y="315.873378" style="stroke: #000000; stroke-width: 0.8"/>
      </g>
     </g>
     <g id="text_15">
      <!-- 0.01 -->
      <g transform="translate(78.734375 319.672597) scale(0.1 -0.1)">
       <use xlink:href="#DejaVuSans-30"/>
       <use xlink:href="#DejaVuSans-2e" x="63.623047"/>
       <use xlink:href="#DejaVuSans-30" x="95.410156"/>
       <use xlink:href="#DejaVuSans-31" x="159.033203"/>
      </g>
     </g>
    </g>
    <g id="ytick_3">
     <g id="line2d_15">
      <g>
       <use xlink:href="#m2799fc56a6" x="108" y="262.386756" style="stroke: #000000; stroke-width: 0.8"/>
      </g>
     </g>
     <g id="text_16">
      <!-- 0.02 -->
      <g transform="translate(78.734375 266.185975) scale(0.1 -0.1)">
       <use xlink:href="#DejaVuSans-30"/>
       <use xlink:href="#DejaVuSans-2e" x="63.623047"/>
       <use xlink:href="#DejaVuSans-30" x="95.410156"/>
       <use xlink:href="#DejaVuSans-32" x="159.033203"/>
      </g>
     </g>
    </g>
    <g id="ytick_4">
     <g id="line2d_16">
      <g>
       <use xlink:href="#m2799fc56a6" x="108" y="208.900135" style="stroke: #000000; stroke-width: 0.8"/>
      </g>
     </g>
     <g id="text_17">
      <!-- 0.03 -->
      <g transform="translate(78.734375 212.699353) scale(0.1 -0.1)">
       <use xlink:href="#DejaVuSans-30"/>
       <use xlink:href="#DejaVuSans-2e" x="63.623047"/>
       <use xlink:href="#DejaVuSans-30" x="95.410156"/>
       <use xlink:href="#DejaVuSans-33" x="159.033203"/>
      </g>
     </g>
    </g>
    <g id="ytick_5">
     <g id="line2d_17">
      <g>
       <use xlink:href="#m2799fc56a6" x="108" y="155.413513" style="stroke: #000000; stroke-width: 0.8"/>
      </g>
     </g>
     <g id="text_18">
      <!-- 0.04 -->
      <g transform="translate(78.734375 159.212731) scale(0.1 -0.1)">
       <use xlink:href="#DejaVuSans-30"/>
       <use xlink:href="#DejaVuSans-2e" x="63.623047"/>
       <use xlink:href="#DejaVuSans-30" x="95.410156"/>
       <use xlink:href="#DejaVuSans-34" x="159.033203"/>
      </g>
     </g>
    </g>
    <g id="ytick_6">
     <g id="line2d_18">
      <g>
       <use xlink:href="#m2799fc56a6" x="108" y="101.926891" style="stroke: #000000; stroke-width: 0.8"/>
      </g>
     </g>
     <g id="text_19">
      <!-- 0.05 -->
      <g transform="translate(78.734375 105.72611) scale(0.1 -0.1)">
       <use xlink:href="#DejaVuSans-30"/>
       <use xlink:href="#DejaVuSans-2e" x="63.623047"/>
       <use xlink:href="#DejaVuSans-30" x="95.410156"/>
       <use xlink:href="#DejaVuSans-35" x="159.033203"/>
      </g>
     </g>
    </g>
    <g id="text_20">
     <!-- Volatility -->
     <g transform="translate(72.654687 239.752187) rotate(-90) scale(0.1 -0.1)">
      <defs>
       <path id="DejaVuSans-56" d="M 1831 0 
L 50 4666 
L 709 4666 
L 2188 738 
L 3669 4666 
L 4325 4666 
L 2547 0 
L 1831 0 
z
" transform="scale(0.015625)"/>
       <path id="DejaVuSans-6f" d="M 1959 3097 
Q 1497 3097 1228 2736 
Q 959 2375 959 1747 
Q 959 1119 1226 758 
Q 1494 397 1959 397 
Q 2419 397 2687 759 
Q 2956 1122 2956 1747 
Q 2956 2369 2687 2733 
Q 2419 3097 1959 3097 
z
M 1959 3584 
Q 2709 3584 3137 3096 
Q 3566 2609 3566 1747 
Q 3566 888 3137 398 
Q 2709 -91 1959 -91 
Q 1206 -91 779 398 
Q 353 888 353 1747 
Q 353 2609 779 3096 
Q 1206 3584 1959 3584 
z
" transform="scale(0.015625)"/>
       <path id="DejaVuSans-6c" d="M 603 4863 
L 1178 4863 
L 1178 0 
L 603 0 
L 603 4863 
z
" transform="scale(0.015625)"/>
       <path id="DejaVuSans-69" d="M 603 3500 
L 1178 3500 
L 1178 0 
L 603 0 
L 603 3500 
z
M 603 4863 
L 1178 4863 
L 1178 4134 
L 603 4134 
L 603 4863 
z
" transform="scale(0.015625)"/>
       <path id="DejaVuSans-79" d="M 2059 -325 
Q 1816 -950 1584 -1140 
Q 1353 -1331 966 -1331 
L 506 -1331 
L 506 -850 
L 844 -850 
Q 1081 -850 1212 -737 
Q 1344 -625 1503 -206 
L 1606 56 
L 191 3500 
L 800 3500 
L 1894 763 
L 2988 3500 
L 3597 3500 
L 2059 -325 
z
" transform="scale(0.015625)"/>
      </defs>
      <use xlink:href="#DejaVuSans-56"/>
      <use xlink:href="#DejaVuSans-6f" x="60.658203"/>
      <use xlink:href="#DejaVuSans-6c" x="121.839844"/>
      <use xlink:href="#DejaVuSans-61" x="149.623047"/>
      <use xlink:href="#DejaVuSans-74" x="210.902344"/>
      <use xlink:href="#DejaVuSans-69" x="250.111328"/>
      <use xlink:href="#DejaVuSans-6c" x="277.894531"/>
      <use xlink:href="#DejaVuSans-69" x="305.677734"/>
      <use xlink:href="#DejaVuSans-74" x="333.460938"/>
      <use xlink:href="#DejaVuSans-79" x="372.669922"/>
     </g>
    </g>
   </g>
   <g id="line2d_19">
    <path d="M 138.436364 325.884495 
L 138.933284 350.201001 
L 139.430204 335.204156 
L 140.920965 337.669311 
L 141.417885 355.098539 
L 141.914805 347.759615 
L 142.411725 352.355601 
L 142.908646 351.127114 
L 144.896327 356.051942 
L 145.393247 327.305654 
L 145.890167 359.063782 
L 146.387087 334.071286 
L 147.877848 366.132181 
L 148.374768 346.165515 
L 148.871688 338.314192 
L 149.368609 364.865703 
L 149.865529 357.779519 
L 151.356289 361.926295 
L 151.85321 358.550751 
L 152.35013 367.559975 
L 152.84705 293.942865 
L 153.34397 334.967635 
L 154.834731 365.341722 
L 155.331651 360.09109 
L 155.828571 367.348511 
L 156.325492 359.648451 
L 156.822412 225.011226 
L 158.313173 284.709047 
L 158.810093 367.84653 
L 159.307013 321.255505 
L 159.803933 367.513365 
L 160.300853 306.130745 
L 161.791614 340.689318 
L 162.288534 361.649725 
L 162.785455 353.814686 
L 163.282375 363.681291 
L 163.779295 368.338277 
L 165.270056 324.024897 
L 165.766976 366.996398 
L 166.263896 321.434219 
L 166.760816 363.118919 
L 167.257737 340.744456 
L 168.748497 327.800292 
L 169.245417 368.109635 
L 169.742338 365.610659 
L 170.239258 364.24661 
L 170.736178 336.040543 
L 172.226939 357.172141 
L 172.723859 317.141047 
L 173.220779 359.920613 
L 173.717699 363.561868 
L 174.21462 350.786457 
L 175.70538 359.324556 
L 176.202301 332.912223 
L 176.699221 333.254009 
L 177.196141 274.072456 
L 177.693061 358.331228 
L 179.680742 329.764825 
L 180.177662 364.660298 
L 180.674583 300.284526 
L 181.171503 359.136441 
L 182.662263 361.342147 
L 183.159184 340.836218 
L 183.656104 337.865855 
L 184.153024 291.143215 
L 184.649944 358.493431 
L 186.140705 334.482177 
L 186.637625 351.086138 
L 187.134545 332.417141 
L 187.631466 364.326934 
L 188.128386 348.230076 
L 189.619147 367.194619 
L 190.116067 351.614151 
L 190.612987 295.374163 
L 191.109907 368.799937 
L 191.606827 296.956231 
L 193.097588 360.284085 
L 193.594508 368.226593 
L 194.091429 348.548059 
L 194.588349 361.904158 
L 195.085269 329.490653 
L 196.57603 328.894683 
L 197.07295 330.240992 
L 197.56987 355.467945 
L 198.06679 366.338188 
L 198.563711 338.484651 
L 200.054471 348.008924 
L 200.551391 368.350554 
L 201.048312 287.752946 
L 201.545232 301.680299 
L 202.042152 324.562634 
L 203.532913 362.004362 
L 204.029833 342.91882 
L 204.526753 303.932798 
L 205.520594 361.8653 
L 207.011354 368.491587 
L 207.508275 344.223576 
L 208.005195 344.983552 
L 208.502115 345.965108 
L 208.999035 345.533724 
L 210.489796 273.648267 
L 210.986716 312.971037 
L 211.483636 368.345811 
L 211.980557 366.542334 
L 212.477477 350.678433 
L 213.968237 369.022981 
L 214.465158 349.777703 
L 214.962078 359.672433 
L 215.458998 344.768925 
L 215.955918 356.0352 
L 217.446679 328.68813 
L 217.943599 354.27114 
L 218.440519 366.903976 
L 219.43436 348.031208 
L 220.925121 356.781324 
L 221.422041 345.84838 
L 221.918961 368.801655 
L 222.415881 313.044327 
L 222.912801 362.734491 
L 224.403562 332.039866 
L 224.900482 347.422565 
L 225.397403 358.992536 
L 225.894323 367.800591 
L 226.391243 366.016877 
L 227.882004 363.895068 
L 228.378924 364.336262 
L 228.875844 345.292351 
L 229.372764 361.176045 
L 229.869685 341.650136 
L 231.360445 310.980022 
L 231.857365 336.78583 
L 232.354286 345.783545 
L 232.851206 316.137927 
L 233.348126 367.332712 
L 234.838887 368.233397 
L 235.335807 344.29293 
L 235.832727 357.26199 
L 236.329647 364.546478 
L 236.826568 364.434587 
L 238.317328 357.624468 
L 238.814249 367.350777 
L 239.311169 320.257765 
L 239.808089 368.917688 
L 240.305009 355.076963 
L 241.79577 336.863378 
L 242.29269 336.511982 
L 243.286531 274.108091 
L 243.783451 333.338923 
L 245.274212 348.299601 
L 245.771132 355.291323 
L 246.268052 360.112714 
L 246.764972 350.961115 
L 247.261892 347.400162 
L 248.752653 359.690627 
L 249.249573 349.741622 
L 250.243414 337.30372 
L 250.740334 352.203353 
L 252.231095 282.460116 
L 253.224935 346.207924 
L 253.721855 291.022504 
L 254.218776 343.446043 
L 255.709536 365.510195 
L 256.206456 349.285943 
L 256.703377 365.098627 
L 257.200297 245.46511 
L 257.697217 225.513961 
L 259.187978 317.132892 
L 259.684898 260.910908 
L 260.181818 324.36135 
L 260.678738 323.946459 
L 261.175659 296.733732 
L 262.666419 249.26488 
L 263.16334 301.262514 
L 263.66026 227.014224 
L 264.15718 322.997601 
L 264.6541 333.537639 
L 266.144861 309.288352 
L 266.641781 295.541517 
L 267.138701 325.89377 
L 267.635622 318.113443 
L 268.132542 347.130143 
L 269.623302 352.419533 
L 270.120223 335.320815 
L 270.617143 331.793973 
L 271.610983 353.447501 
L 273.101744 343.946689 
L 273.598664 294.812979 
L 274.095584 336.565364 
L 274.592505 307.78524 
L 275.089425 330.99805 
L 276.580186 365.707005 
L 277.077106 328.795512 
L 277.574026 350.052228 
L 278.070946 343.631762 
L 278.567866 351.485476 
L 280.058627 355.864587 
L 280.555547 300.763532 
L 281.052468 347.565313 
L 281.549388 361.463352 
L 283.537069 337.943837 
L 284.033989 318.659482 
L 284.530909 358.774834 
L 285.027829 354.771107 
L 285.52475 358.520117 
L 287.01551 288.080555 
L 287.51243 349.338219 
L 288.009351 338.413979 
L 288.506271 365.820184 
L 289.003191 326.031453 
L 290.493952 267.428006 
L 290.990872 349.299802 
L 291.487792 349.825898 
L 291.984712 284.08354 
L 292.481633 341.120011 
L 293.972393 332.276936 
L 294.469314 331.067943 
L 294.966234 348.286484 
L 295.463154 304.505136 
L 295.960074 336.795909 
L 297.450835 332.327163 
L 297.947755 363.613784 
L 298.444675 369.147059 
L 298.941596 332.858186 
L 299.438516 341.620157 
L 300.929276 359.690195 
L 301.923117 334.632734 
L 302.420037 364.835839 
L 302.916957 358.538594 
L 304.407718 363.794438 
L 304.904638 367.67922 
L 305.401558 325.063534 
L 305.898479 308.912977 
L 306.395399 347.519098 
L 307.88616 325.798932 
L 308.38308 363.265257 
L 308.88 358.134441 
L 309.37692 362.543544 
L 309.87384 299.097075 
L 311.364601 268.684445 
L 311.861521 323.680442 
L 312.358442 350.023113 
L 312.855362 315.333716 
L 313.352282 356.641227 
L 314.843043 361.355857 
L 315.339963 366.515051 
L 315.836883 356.418791 
L 316.333803 338.79794 
L 316.830724 368.725909 
L 318.321484 362.28442 
L 318.818404 354.289625 
L 319.315325 368.097282 
L 319.812245 357.035767 
L 320.309165 212.6495 
L 321.799926 326.276392 
L 322.296846 325.149981 
L 322.793766 196.950219 
L 323.290686 357.740736 
L 323.787607 354.503035 
L 325.278367 356.401968 
L 325.775288 350.657811 
L 326.272208 335.911298 
L 326.769128 313.743393 
L 327.266048 357.549153 
L 328.756809 343.325673 
L 329.253729 362.783688 
L 329.750649 360.224612 
L 330.24757 356.829377 
L 330.74449 338.372182 
L 332.23525 353.201047 
L 332.732171 364.602297 
L 333.229091 357.747845 
L 333.726011 311.465762 
L 334.222931 359.875722 
L 335.713692 358.415109 
L 336.210612 367.899387 
L 336.707532 363.306289 
L 337.204453 308.509472 
L 337.701373 352.710535 
L 339.192134 313.51547 
L 339.689054 348.899549 
L 340.185974 349.002047 
L 340.682894 363.009007 
L 341.179814 347.90443 
L 343.167495 304.217304 
L 343.664416 342.664231 
L 344.161336 361.171552 
L 344.658256 356.397813 
L 346.149017 338.121983 
L 346.645937 344.251065 
L 347.142857 367.073758 
L 347.639777 354.005177 
L 348.136698 329.220148 
L 349.627458 362.989001 
L 350.124378 318.960973 
L 350.621299 350.231383 
L 351.118219 332.069173 
L 351.615139 354.029734 
L 353.1059 338.513562 
L 354.09974 346.465291 
L 354.59666 354.425954 
L 355.093581 352.099575 
L 356.584341 358.376249 
L 357.081262 320.28693 
L 357.578182 355.286529 
L 358.075102 293.344767 
L 358.572022 363.191276 
L 360.062783 359.616654 
L 360.559703 353.842309 
L 361.056623 346.587242 
L 361.553544 312.634576 
L 362.050464 307.654544 
L 363.541224 339.817706 
L 364.038145 363.917177 
L 364.535065 308.130385 
L 365.031985 350.46239 
L 365.528905 355.76501 
L 367.019666 346.316882 
L 367.516586 276.284218 
L 368.013506 344.935889 
L 368.510427 333.035121 
L 369.007347 368.842856 
L 370.498108 281.245097 
L 370.995028 369.044584 
L 371.491948 352.406348 
L 371.988868 359.014014 
L 372.485788 311.135177 
L 374.473469 365.205616 
L 374.97039 346.827593 
L 375.46731 364.756421 
L 375.96423 324.244944 
L 377.454991 364.897469 
L 377.951911 365.747188 
L 378.448831 363.202594 
L 378.945751 365.223657 
L 379.442672 316.728475 
L 380.933432 357.168215 
L 381.430353 350.166216 
L 381.927273 351.932094 
L 382.424193 311.974261 
L 382.921113 290.69161 
L 384.411874 339.222457 
L 384.908794 298.378878 
L 385.405714 358.253172 
L 385.902635 311.587458 
L 386.399555 344.541605 
L 387.890315 336.107979 
L 388.387236 363.662682 
L 388.884156 335.064481 
L 389.381076 350.616031 
L 389.877996 349.327724 
L 391.368757 338.709142 
L 391.865677 365.259916 
L 392.362597 359.320371 
L 392.859518 345.361876 
L 393.356438 358.344445 
L 394.847199 345.004598 
L 395.344119 347.966346 
L 395.841039 361.499648 
L 396.337959 277.830831 
L 396.834879 368.658109 
L 398.32564 364.745885 
L 398.82256 354.72891 
L 399.319481 347.488135 
L 399.816401 361.79062 
L 400.313321 348.599272 
L 401.804082 353.573291 
L 402.301002 311.505056 
L 402.797922 365.817709 
L 403.294842 315.445068 
L 403.791763 353.27707 
L 405.282523 368.170329 
L 405.779443 310.590486 
L 406.276364 355.354797 
L 406.773284 308.569033 
L 407.270204 365.602042 
L 408.760965 356.91826 
L 409.257885 338.283623 
L 409.754805 347.546743 
L 410.251725 338.141466 
L 410.748646 355.966463 
L 412.239406 346.269059 
L 412.736327 334.088431 
L 413.233247 339.695431 
L 413.730167 309.768297 
L 414.227087 315.534221 
L 415.717848 353.61451 
L 416.214768 354.960448 
L 416.711688 369.263873 
L 417.208609 354.00158 
L 417.705529 328.967322 
L 419.69321 359.110609 
L 420.19013 361.184378 
L 420.68705 348.186177 
L 421.18397 357.433272 
L 422.674731 356.516481 
L 423.171651 352.784625 
L 423.668571 367.855268 
L 424.662412 362.206739 
L 426.153173 366.062515 
L 426.650093 359.003313 
L 427.147013 300.668445 
L 427.643933 359.062422 
L 428.140853 342.787128 
L 429.631614 322.77232 
L 430.625455 364.96139 
L 431.122375 338.27969 
L 431.619295 361.255108 
L 433.110056 348.097059 
L 433.606976 351.11597 
L 434.103896 319.300366 
L 434.600816 361.935268 
L 435.097737 369.074639 
L 436.588497 366.505706 
L 437.085417 365.0757 
L 437.582338 360.113266 
L 438.079258 328.17572 
L 438.576178 360.218219 
L 440.066939 360.877861 
L 440.563859 343.665817 
L 441.060779 337.486452 
L 441.557699 356.748154 
L 442.05462 365.915238 
L 443.54538 357.189897 
L 444.042301 304.207529 
L 444.539221 357.49914 
L 445.036141 338.595658 
L 445.533061 289.733469 
L 447.023822 233.988885 
L 447.520742 358.007186 
L 448.017662 291.126098 
L 448.514583 339.810068 
L 449.011503 251.675829 
L 450.502263 351.960098 
L 450.999184 287.3671 
L 451.496104 354.391549 
L 451.993024 301.255559 
L 452.489944 350.428577 
L 453.980705 303.024507 
L 454.477625 324.742788 
L 454.974545 368.362648 
L 455.471466 333.938865 
L 455.968386 362.601119 
L 457.459147 343.631821 
L 457.956067 294.944955 
L 458.452987 363.249823 
L 458.949907 361.3797 
L 460.937588 332.943209 
L 461.434508 332.499546 
L 461.931429 358.457474 
L 462.428349 317.983967 
L 462.925269 295.000688 
L 464.41603 360.994092 
L 464.91295 344.478737 
L 465.40987 355.245202 
L 465.90679 350.105665 
L 466.403711 317.830464 
L 467.894471 358.817944 
L 468.888312 344.9287 
L 469.385232 363.643422 
L 469.882152 356.519995 
L 471.372913 362.408824 
L 471.869833 297.787148 
L 472.366753 344.253809 
L 473.360594 292.151929 
L 474.851354 359.077066 
L 475.348275 330.603628 
L 475.845195 356.093726 
L 476.342115 341.235136 
L 476.839035 365.581238 
L 478.329796 356.716025 
L 478.826716 306.992711 
L 479.323636 361.279442 
L 479.820557 330.921634 
L 480.317477 313.178208 
L 481.808237 358.898499 
L 482.305158 364.832163 
L 482.802078 342.469268 
L 483.298998 331.286606 
L 483.795918 363.693043 
L 485.286679 362.876117 
L 485.783599 325.656184 
L 486.280519 333.107407 
L 486.77744 349.883618 
L 487.27436 335.665136 
L 488.765121 356.017552 
L 489.262041 360.691829 
L 489.758961 334.333087 
L 490.255881 342.643529 
L 490.752801 366.497504 
L 492.243562 353.050358 
L 492.740482 335.777978 
L 493.237403 366.922038 
L 493.734323 369.36 
L 494.231243 369.36 
L 495.722004 350.73109 
L 496.218924 340.110424 
L 496.715844 361.064743 
L 497.212764 324.838705 
L 497.709685 365.313974 
L 499.200445 363.113065 
L 499.697365 347.187155 
L 500.194286 349.131206 
L 500.691206 349.147305 
L 501.188126 328.457559 
L 502.678887 360.241311 
L 503.175807 362.462238 
L 503.672727 358.892408 
L 504.169647 362.301358 
L 504.666568 336.299489 
L 506.157328 359.153148 
L 506.654249 360.063683 
L 507.151169 335.230109 
L 507.648089 362.849261 
L 508.145009 365.385113 
L 509.63577 354.167239 
L 510.13269 317.807968 
L 510.62961 364.877229 
L 511.126531 349.247836 
L 511.623451 347.907636 
L 513.114212 350.540999 
L 513.611132 359.670802 
L 514.108052 348.862346 
L 514.604972 326.923363 
L 515.101892 332.243396 
L 516.592653 338.774543 
L 517.089573 317.07902 
L 517.586494 363.113519 
L 518.083414 365.830277 
L 518.580334 365.196983 
L 520.071095 362.398715 
L 520.568015 350.897282 
L 521.064935 344.09698 
L 521.561855 358.965747 
L 522.058776 367.170057 
L 523.549536 366.259115 
L 524.543377 346.517273 
L 525.040297 333.898111 
L 525.537217 362.819547 
L 527.027978 363.287307 
L 527.524898 364.120944 
L 528.021818 350.193913 
L 528.518738 368.81079 
L 529.015659 354.419721 
L 530.506419 348.839288 
L 531.00334 337.81675 
L 531.50026 344.511982 
L 531.99718 368.998084 
L 532.4941 368.726589 
L 533.984861 344.171935 
L 534.481781 361.788969 
L 534.978701 352.19541 
L 535.475622 360.757005 
L 535.972542 359.290518 
L 537.463302 366.092145 
L 537.960223 342.15788 
L 538.457143 366.440524 
L 538.954063 369.17748 
L 539.450983 334.429837 
L 540.941744 349.450233 
L 541.438664 364.574614 
L 541.935584 360.522811 
L 542.432505 323.209993 
L 542.929425 365.453513 
L 544.917106 348.455529 
L 545.414026 303.18938 
L 545.910946 312.290925 
L 546.407866 361.39838 
L 548.395547 305.61622 
L 548.892468 354.541384 
L 549.389388 358.219033 
L 549.886308 324.745632 
L 551.377069 304.90279 
L 551.873989 360.40139 
L 552.370909 344.058455 
L 552.867829 367.225157 
L 553.36475 242.754192 
L 554.85551 369.36 
L 555.35243 362.918834 
L 555.849351 300.991151 
L 556.346271 346.554985 
L 556.843191 327.580309 
L 558.333952 369.094353 
L 558.830872 364.841987 
L 559.327792 342.749905 
L 559.824712 362.045559 
L 560.321633 350.28383 
L 561.812393 358.402228 
L 562.309314 351.99249 
L 563.303154 365.136052 
L 563.800074 367.249276 
L 565.290835 368.392688 
L 565.787755 329.371631 
L 566.284675 340.752709 
L 566.781596 349.088104 
L 567.278516 318.177093 
L 568.272356 361.481284 
L 568.769276 364.084171 
L 569.266197 348.041499 
L 569.763117 366.067228 
L 570.260037 322.061671 
L 570.756957 367.244022 
L 572.247718 367.508565 
L 572.744638 320.643295 
L 573.241558 356.499794 
L 573.738479 366.908052 
L 574.235399 346.732607 
L 575.72616 351.517909 
L 576.22308 295.837713 
L 576.72 364.134647 
L 577.21692 354.909809 
L 577.71384 349.161068 
L 579.204601 320.307393 
L 579.701521 343.837521 
L 580.198442 341.003701 
L 580.695362 367.556487 
L 581.192282 309.520605 
L 582.683043 316.040051 
L 583.179963 369.184591 
L 583.676883 368.658398 
L 584.173803 261.967309 
L 584.670724 348.864377 
L 586.161484 363.668465 
L 586.658404 356.103258 
L 587.155325 364.198942 
L 587.652245 360.2455 
L 588.149165 335.104878 
L 590.136846 363.814206 
L 590.633766 320.972389 
L 591.130686 354.720148 
L 591.627607 355.359702 
L 593.118367 365.368302 
L 593.615288 366.134847 
L 594.112208 305.772593 
L 594.609128 356.496242 
L 595.106048 353.707996 
L 596.596809 327.605182 
L 597.093729 363.252207 
L 597.590649 355.241294 
L 598.08757 350.621075 
L 598.58449 322.67809 
L 600.07525 352.664013 
L 600.572171 326.272463 
L 601.069091 325.748775 
L 601.566011 349.413931 
L 602.062931 349.488037 
L 603.553692 357.877826 
L 604.050612 359.430363 
L 604.547532 363.411054 
L 605.044453 366.257028 
L 607.032134 352.315886 
L 607.529054 357.598562 
L 608.025974 327.163622 
L 608.522894 351.183432 
L 609.019814 331.920318 
L 610.510575 361.070877 
L 611.007495 350.512183 
L 611.504416 367.90081 
L 612.001336 361.972107 
L 612.498256 359.55099 
L 613.989017 347.872295 
L 614.485937 318.185385 
L 614.982857 360.885105 
L 615.479777 357.481455 
L 615.976698 352.635073 
L 617.467458 356.937306 
L 617.964378 354.715737 
L 618.461299 363.645709 
L 618.958219 362.16517 
L 619.455139 347.804478 
L 620.9459 356.904751 
L 621.44282 363.042256 
L 621.93974 365.293267 
L 622.43666 326.168731 
L 622.933581 297.547626 
L 624.424341 329.690081 
L 624.921262 320.141146 
L 625.418182 299.083689 
L 625.915102 352.610522 
L 626.412022 320.317435 
L 627.902783 367.329669 
L 628.399703 325.496207 
L 628.896623 338.096699 
L 629.393544 346.358825 
L 629.890464 363.798784 
L 631.381224 364.289247 
L 631.878145 369.196507 
L 632.375065 359.151613 
L 632.871985 338.202262 
L 633.368905 348.798356 
L 634.859666 355.047884 
L 635.356586 355.977084 
L 635.853506 347.694012 
L 636.350427 265.72885 
L 638.835028 327.293188 
L 639.331948 298.08309 
L 639.828868 360.684645 
L 640.325788 286.33405 
L 641.816549 362.243994 
L 642.313469 329.887413 
L 642.81039 369.134408 
L 643.30731 340.336965 
L 643.80423 343.767731 
L 645.294991 334.341655 
L 645.791911 311.988522 
L 646.288831 338.985633 
L 647.282672 352.538224 
L 648.773432 272.833742 
L 649.270353 343.571771 
L 649.767273 361.744757 
L 650.264193 366.898564 
L 650.761113 340.949163 
L 652.251874 358.76323 
L 652.748794 273.6769 
L 653.245714 346.422569 
L 653.742635 357.715566 
L 654.239555 360.252176 
L 655.730315 345.081852 
L 656.227236 355.468046 
L 656.724156 368.833649 
L 657.717996 294.497317 
L 659.208757 311.878013 
L 659.705677 340.097362 
L 660.202597 311.310677 
L 660.699518 361.661286 
L 661.196438 318.461357 
L 662.687199 319.445157 
L 663.184119 346.775179 
L 663.681039 300.734686 
L 664.177959 266.198565 
L 664.674879 350.510333 
L 666.16564 323.028338 
L 666.66256 358.673507 
L 667.159481 358.079186 
L 667.656401 358.874246 
L 668.153321 358.256925 
L 669.644082 360.788484 
L 670.141002 366.678219 
L 670.637922 317.232496 
L 671.134842 334.204209 
L 671.631763 246.640614 
L 673.122523 368.984947 
L 673.619443 366.135407 
L 674.613284 311.98789 
L 675.110204 319.815911 
L 676.600965 338.983396 
L 677.594805 368.163281 
L 678.091725 314.376294 
L 678.588646 307.641262 
L 680.079406 363.1485 
L 680.576327 346.048367 
L 681.073247 348.133927 
L 681.570167 340.477109 
L 682.067087 367.259219 
L 683.557848 365.309233 
L 684.054768 367.26081 
L 684.551688 309.506177 
L 685.048609 368.692858 
L 685.545529 288.13864 
L 687.036289 301.53964 
L 687.53321 365.442297 
L 688.03013 351.360706 
L 688.52705 327.108599 
L 689.02397 365.997992 
L 690.514731 358.258792 
L 691.011651 317.519653 
L 691.508571 362.057281 
L 692.005492 366.394328 
L 692.502412 289.731626 
L 693.993173 352.378122 
L 694.490093 66.96 
L 694.987013 339.834203 
L 695.483933 248.919019 
L 695.980853 315.582751 
L 697.471614 366.771539 
L 697.968534 337.226415 
L 698.465455 333.158314 
L 698.962375 343.948062 
L 699.459295 366.970708 
L 700.950056 312.00613 
L 701.446976 361.495636 
L 701.943896 368.581979 
L 702.440816 319.492273 
L 702.937737 353.352481 
L 704.428497 312.035159 
L 704.925417 369.207952 
L 705.422338 332.590902 
L 706.416178 288.527615 
L 707.906939 354.301396 
L 708.403859 354.193722 
L 708.900779 364.339083 
L 709.397699 323.396797 
L 709.89462 331.792619 
L 711.38538 354.002649 
L 711.882301 365.54623 
L 712.379221 352.664018 
L 713.373061 334.091746 
L 714.863822 366.505938 
L 715.360742 337.276968 
L 715.857662 350.809708 
L 716.354583 306.721306 
L 716.851503 333.453034 
L 718.342263 357.09019 
L 718.839184 350.858953 
L 719.336104 365.116773 
L 719.833024 309.93762 
L 720.329944 319.113379 
L 721.820705 365.351846 
L 722.317625 340.141047 
L 722.814545 368.847294 
L 723.808386 324.344048 
L 725.299147 354.486551 
L 725.796067 318.911719 
L 726.292987 349.3274 
L 726.789907 357.134968 
L 727.286827 336.530946 
L 728.777588 366.930771 
L 729.274508 311.360862 
L 730.268349 357.567213 
L 730.765269 364.561284 
L 732.25603 362.153844 
L 732.75295 308.356093 
L 733.24987 348.797979 
L 733.74679 346.295815 
L 734.243711 305.134929 
L 735.734471 356.279209 
L 736.231391 349.221808 
L 736.728312 346.487547 
L 737.225232 342.949913 
L 737.722152 326.277875 
L 739.212913 345.221867 
L 739.709833 319.014915 
L 740.206753 317.220409 
L 740.703673 342.505427 
L 741.200594 359.958381 
L 742.691354 359.085173 
L 743.188275 321.263137 
L 743.685195 342.840226 
L 744.182115 306.159497 
L 744.679035 335.121366 
L 746.169796 340.240455 
L 746.666716 363.291698 
L 747.163636 268.932065 
L 747.163636 268.932065 
" clip-path="url(#p59bea26910)" style="fill: none; stroke: #000000; stroke-width: 1.5; stroke-linecap: square"/>
   </g>
   <g id="line2d_20">
    <path d="M 138.436364 327.596633 
L 138.933284 326.581998 
L 139.430204 327.616588 
L 140.920965 326.236961 
L 141.417885 325.516148 
L 141.914805 328.232871 
L 142.411725 327.130692 
L 142.908646 327.082736 
L 144.399406 329.889746 
L 144.896327 329.274262 
L 145.393247 329.909915 
L 145.890167 324.927111 
L 146.387087 329.469849 
L 147.877848 326.743991 
L 148.374768 330.475234 
L 148.871688 327.706875 
L 149.368609 327.081103 
L 149.865529 331.123464 
L 151.356289 330.919287 
L 151.85321 331.553266 
L 152.35013 331.065145 
L 152.84705 332.225613 
L 153.34397 324.308474 
L 154.834731 324.864316 
L 155.331651 329.242751 
L 155.828571 329.52906 
L 156.325492 331.432312 
L 156.822412 330.196678 
L 158.313173 320.175998 
L 158.810093 320.024984 
L 159.307013 329.237281 
L 159.803933 323.554739 
L 160.300853 329.720597 
L 161.791614 323.793589 
L 162.288534 324.639125 
L 162.785455 328.249725 
L 163.282375 328.178181 
L 163.779295 331.220891 
L 165.270056 333.774545 
L 165.766976 327.732461 
L 166.263896 333.073433 
L 166.760816 327.095728 
L 167.257737 332.412438 
L 168.748497 328.304161 
L 169.245417 324.783853 
L 169.742338 330.676963 
L 170.239258 330.898318 
L 170.736178 331.823441 
L 172.226939 328.604568 
L 172.723859 330.389819 
L 173.220779 325.244347 
L 173.717699 330.478614 
L 174.21462 330.560043 
L 175.70538 329.755653 
L 176.202301 330.903797 
L 176.699221 326.068059 
L 177.196141 324.837228 
L 177.693061 319.989432 
L 179.183822 328.125403 
L 179.680742 325.68901 
L 180.177662 323.828992 
L 180.674583 330.482985 
L 181.171503 323.137643 
L 183.159184 331.504257 
L 183.656104 327.406408 
L 184.153024 327.483365 
L 184.649944 322.154124 
L 186.140705 328.921295 
L 186.637625 325.197562 
L 187.134545 327.503514 
L 187.631466 325.299077 
L 188.128386 330.390984 
L 189.619147 328.801905 
L 190.116067 331.455761 
L 190.612987 328.37387 
L 191.109907 322.677323 
L 191.606827 329.30762 
L 193.097588 321.40543 
L 193.594508 326.271014 
L 194.091429 329.266753 
L 194.588349 326.504708 
L 195.085269 328.051563 
L 196.57603 324.057131 
L 197.07295 323.301628 
L 197.56987 322.992238 
L 198.06679 326.457246 
L 198.563711 330.95043 
L 200.054471 328.075187 
L 200.551391 329.016655 
L 201.048312 331.438648 
L 201.545232 324.79919 
L 202.042152 324.841098 
L 203.532913 324.320335 
L 204.029833 329.633964 
L 204.526753 328.112524 
L 205.023673 323.147336 
L 205.520594 324.448749 
L 207.011354 330.273345 
L 207.508275 332.711803 
L 208.005195 330.106339 
L 208.502115 328.579325 
L 208.999035 328.790986 
L 210.489796 329.226805 
L 210.986716 322.704441 
L 211.483636 323.154579 
L 211.980557 331.22263 
L 212.477477 332.842942 
L 213.968237 328.576612 
L 214.465158 334.299134 
L 214.962078 328.510607 
L 215.458998 332.255083 
L 215.955918 329.508054 
L 217.446679 331.939032 
L 217.943599 328.824887 
L 218.440519 331.206426 
L 218.93744 334.163896 
L 219.43436 332.4393 
L 220.925121 331.282167 
L 221.422041 330.241532 
L 221.918961 327.662511 
L 222.415881 331.186251 
L 222.912801 323.174116 
L 224.403562 328.956887 
L 224.900482 324.121854 
L 225.397403 324.493954 
L 225.894323 328.326988 
L 226.391243 329.699479 
L 227.882004 330.83362 
L 228.378924 330.198812 
L 228.875844 330.097091 
L 229.372764 326.816873 
L 229.869685 328.532665 
L 231.360445 326.927513 
L 231.857365 323.011849 
L 232.354286 325.821693 
L 232.851206 324.729163 
L 233.348126 321.617321 
L 234.838887 330.67372 
L 235.335807 331.936654 
L 235.832727 328.49777 
L 236.329647 329.063226 
L 236.826568 330.194947 
L 238.317328 332.25849 
L 238.814249 330.206234 
L 239.311169 331.493074 
L 239.808089 324.107204 
L 240.305009 329.811235 
L 241.79577 327.044604 
L 242.29269 323.93887 
L 243.286531 322.269148 
L 243.783451 313.330973 
L 245.274212 319.556754 
L 245.771132 323.489474 
L 246.764972 329.017741 
L 247.261892 327.453487 
L 248.752653 328.259703 
L 249.249573 329.818336 
L 249.746494 328.074763 
L 250.243414 326.828051 
L 250.740334 323.725275 
L 252.231095 325.419301 
L 252.728015 317.965847 
L 253.224935 318.892075 
L 253.721855 321.84706 
L 254.218776 316.700101 
L 255.709536 320.68253 
L 256.206456 326.655657 
L 256.703377 324.78858 
L 257.200297 327.441058 
L 257.697217 315.468616 
L 259.187978 311.576335 
L 259.684898 314.394602 
L 260.181818 309.264415 
L 260.678738 314.365371 
L 261.175659 316.689416 
L 262.666419 313.661201 
L 263.16334 309.053451 
L 263.66026 310.498729 
L 264.15718 307.152157 
L 264.6541 313.885918 
L 266.144861 317.589014 
L 266.641781 316.398496 
L 267.138701 315.694545 
L 267.635622 317.529965 
L 268.132542 317.365203 
L 269.623302 320.71843 
L 270.120223 322.439913 
L 271.114063 318.966352 
L 271.610983 320.123968 
L 273.101744 322.269238 
L 273.598664 322.373716 
L 274.095584 318.071566 
L 274.592505 320.042847 
L 275.089425 318.117444 
L 276.580186 320.304327 
L 277.077106 327.432839 
L 277.574026 321.859438 
L 278.070946 324.93805 
L 278.567866 324.748749 
L 280.058627 326.844549 
L 280.555547 327.170846 
L 281.052468 321.010804 
L 281.549388 324.437486 
L 283.537069 328.325307 
L 284.033989 326.691174 
L 284.530909 323.62934 
L 285.027829 327.975702 
L 285.52475 327.282274 
L 287.01551 328.337974 
L 287.51243 319.948511 
L 288.009351 323.860842 
L 288.506271 322.769592 
L 289.003191 328.863425 
L 290.493952 322.789488 
L 290.990872 316.268498 
L 291.487792 325.039181 
L 291.984712 325.431998 
L 292.481633 320.95446 
L 293.972393 324.927604 
L 294.469314 323.221723 
L 294.966234 323.120626 
L 295.463154 325.110892 
L 295.960074 318.050973 
L 297.450835 321.944619 
L 297.947755 321.147746 
L 298.444675 325.261881 
L 298.941596 326.627871 
L 299.438516 321.597316 
L 300.929276 322.170458 
L 301.426197 325.089676 
L 302.420037 320.220715 
L 302.916957 324.654194 
L 304.407718 325.445463 
L 304.904638 325.525837 
L 305.401558 326.567453 
L 306.395399 318.935373 
L 307.88616 321.970871 
L 308.38308 320.106653 
L 308.88 325.803366 
L 309.37692 326.610048 
L 309.87384 328.278744 
L 311.364601 322.22448 
L 311.861521 313.987418 
L 312.855362 321.45748 
L 313.352282 316.597187 
L 315.339963 324.573526 
L 315.836883 328.754481 
L 316.333803 327.311046 
L 316.830724 323.467158 
L 318.321484 328.655758 
L 319.315325 324.036011 
L 319.812245 327.479469 
L 320.309165 325.914629 
L 321.799926 314.533277 
L 322.296846 317.922449 
L 322.793766 315.53032 
L 323.290686 307.151011 
L 323.787607 320.191306 
L 325.775288 323.091296 
L 326.272208 321.968888 
L 326.769128 320.195346 
L 327.266048 319.831584 
L 328.756809 327.224565 
L 329.253729 324.983345 
L 329.750649 329.55297 
L 330.24757 329.323189 
L 330.74449 329.602751 
L 332.23525 327.670608 
L 332.732171 328.592328 
L 333.229091 330.369597 
L 333.726011 327.87741 
L 334.222931 322.596381 
L 335.713692 328.445818 
L 336.210612 327.001117 
L 336.707532 329.315007 
L 337.204453 328.870264 
L 337.701373 323.18911 
L 339.192134 325.517837 
L 339.689054 321.248299 
L 340.185974 323.137752 
L 340.682894 323.265618 
L 341.179814 326.625047 
L 343.167495 326.267218 
L 343.664416 320.640104 
L 344.161336 323.497394 
L 344.658256 327.115055 
L 346.149017 328.27577 
L 346.645937 325.323605 
L 347.142857 325.872926 
L 347.639777 330.132648 
L 348.136698 327.34736 
L 349.627458 324.507219 
L 350.124378 328.151969 
L 350.621299 323.224801 
L 351.118219 325.477373 
L 351.615139 323.529643 
L 353.1059 327.246677 
L 353.60282 323.844678 
L 354.09974 323.468572 
L 355.093581 325.649384 
L 356.584341 327.205631 
L 357.081262 326.532499 
L 357.578182 321.735578 
L 358.075102 325.366977 
L 358.572022 320.917434 
L 360.062783 328.853881 
L 360.559703 328.602752 
L 361.056623 327.2245 
L 361.553544 326.254869 
L 362.050464 322.301541 
L 363.541224 319.437177 
L 364.038145 319.640291 
L 364.535065 327.388261 
L 365.031985 318.037991 
L 365.528905 321.296155 
L 367.019666 324.343852 
L 367.516586 322.639724 
L 368.013506 316.566472 
L 368.510427 320.694923 
L 369.007347 320.029119 
L 370.498108 326.842322 
L 370.995028 319.334248 
L 371.491948 327.200754 
L 371.988868 325.114439 
L 372.485788 327.214742 
L 373.976549 321.550641 
L 374.473469 325.11399 
L 374.97039 327.373253 
L 375.46731 323.593255 
L 375.96423 327.369835 
L 377.454991 322.487709 
L 377.951911 325.911412 
L 378.448831 326.503428 
L 378.945751 326.486436 
L 379.442672 327.205108 
L 380.933432 321.705082 
L 381.430353 324.100703 
L 381.927273 322.183668 
L 382.424193 322.946838 
L 382.921113 320.326947 
L 384.411874 317.104699 
L 384.908794 320.700592 
L 385.405714 316.412524 
L 385.902635 322.563011 
L 386.399555 319.365137 
L 387.890315 322.604899 
L 388.387236 322.027982 
L 388.884156 326.876963 
L 389.381076 323.718725 
L 389.877996 324.993641 
L 391.368757 326.890233 
L 391.865677 324.098467 
L 392.362597 328.509922 
L 392.859518 327.893816 
L 393.356438 325.959083 
L 394.847199 327.105237 
L 395.344119 325.099196 
L 395.841039 324.475832 
L 396.337959 326.317221 
L 396.834879 317.030756 
L 398.32564 326.505395 
L 398.82256 327.159733 
L 399.319481 324.93799 
L 399.816401 324.060708 
L 400.313321 325.502967 
L 401.804082 326.602063 
L 402.301002 328.949303 
L 402.797922 325.339719 
L 403.294842 331.594441 
L 403.791763 326.266187 
L 405.282523 329.632848 
L 405.779443 332.643935 
L 406.276364 326.661924 
L 406.773284 329.031271 
L 407.270204 322.78215 
L 408.760965 330.227129 
L 409.257885 328.107266 
L 409.754805 325.459809 
L 410.251725 325.034882 
L 410.748646 322.822564 
L 412.239406 326.308782 
L 412.736327 325.014603 
L 413.233247 322.131245 
L 413.730167 322.685637 
L 414.227087 318.756782 
L 415.717848 321.511004 
L 416.214768 324.181186 
L 416.711688 325.47146 
L 417.208609 328.492861 
L 417.705529 327.449492 
L 419.196289 323.874421 
L 419.69321 324.04026 
L 420.19013 325.53024 
L 420.68705 328.210198 
L 421.18397 326.972375 
L 422.674731 328.910625 
L 423.171651 327.420371 
L 423.668571 326.981396 
L 424.662412 331.116127 
L 426.153173 330.866948 
L 426.650093 331.083237 
L 427.147013 329.618368 
L 427.643933 322.448137 
L 428.140853 325.854963 
L 429.631614 325.920941 
L 430.128534 322.364944 
L 430.625455 324.099652 
L 431.122375 327.993739 
L 431.619295 324.109684 
L 433.110056 329.057926 
L 433.606976 326.411442 
L 434.103896 326.053863 
L 434.600816 321.922283 
L 435.097737 327.419584 
L 436.588497 330.406872 
L 437.582338 329.392992 
L 438.079258 329.292106 
L 438.576178 324.871918 
L 440.066939 328.685028 
L 440.563859 328.931019 
L 441.060779 325.54505 
L 441.557699 324.085669 
L 442.05462 325.437 
L 443.54538 330.725164 
L 444.042301 328.805377 
L 444.539221 323.712443 
L 445.036141 327.467923 
L 445.533061 323.860927 
L 447.023822 316.686547 
L 447.520742 309.388485 
L 448.017662 320.961026 
L 448.514583 313.87214 
L 449.011503 318.887821 
L 450.502263 312.605712 
L 450.999184 323.431382 
L 451.496104 317.304745 
L 451.993024 323.620852 
L 452.489944 318.455711 
L 453.980705 323.904259 
L 454.477625 319.091817 
L 454.974545 319.603773 
L 455.471466 326.942133 
L 455.968386 322.1939 
L 457.459147 328.400079 
L 457.956067 324.349012 
L 458.452987 317.971929 
L 458.949907 326.458939 
L 460.937588 328.306794 
L 461.434508 324.399663 
L 461.931429 324.315134 
L 462.428349 328.04565 
L 462.925269 324.029231 
L 464.41603 322.030791 
L 464.91295 328.362614 
L 465.40987 326.910955 
L 465.90679 328.878369 
L 466.403711 329.784839 
L 467.894471 327.003688 
L 468.391391 330.635976 
L 468.888312 330.388427 
L 469.385232 328.373105 
L 469.882152 332.4747 
L 471.372913 331.315382 
L 471.869833 332.056893 
L 472.366753 325.854425 
L 472.863673 326.910228 
L 473.360594 323.771039 
L 474.851354 322.202124 
L 475.348275 328.315058 
L 475.845195 324.731613 
L 476.342115 327.448491 
L 476.839035 326.139158 
L 478.329796 331.669998 
L 478.826716 329.537259 
L 479.323636 323.494839 
L 479.820557 329.597596 
L 480.317477 324.001784 
L 481.808237 323.285842 
L 482.802078 329.405361 
L 483.298998 325.713135 
L 483.795918 324.670532 
L 485.286679 329.367187 
L 485.783599 329.929056 
L 486.280519 325.838455 
L 486.77744 324.463593 
L 487.27436 326.47345 
L 488.765121 326.319627 
L 489.262041 328.33972 
L 489.758961 329.653915 
L 490.255881 327.12844 
L 490.752801 327.583582 
L 492.243562 331.231033 
L 492.740482 330.541941 
L 493.237403 326.328194 
L 493.734323 331.786564 
L 495.722004 333.405222 
L 496.715844 327.815864 
L 497.212764 330.92183 
L 497.709685 326.118754 
L 499.200445 331.608275 
L 499.697365 331.185018 
L 500.194286 329.281503 
L 500.691206 328.610423 
L 501.188126 328.935007 
L 502.678887 326.36671 
L 503.175807 328.905069 
L 503.672727 330.771404 
L 504.169647 330.204262 
L 504.666568 331.47196 
L 506.157328 328.692187 
L 506.654249 330.270284 
L 507.151169 331.143519 
L 507.648089 328.216948 
L 508.145009 331.363903 
L 509.63577 333.678112 
L 510.13269 330.951922 
L 510.62961 327.431395 
L 511.126531 331.653114 
L 511.623451 329.091149 
L 513.114212 329.229241 
L 513.611132 329.159968 
L 514.108052 331.528018 
L 514.604972 329.699065 
L 515.101892 325.839137 
L 516.592653 326.335846 
L 517.089573 326.654402 
L 517.586494 324.761073 
L 518.083414 330.350793 
L 518.580334 331.326284 
L 520.071095 333.01027 
L 520.568015 333.157007 
L 521.561855 328.039558 
L 522.058776 331.167497 
L 523.549536 334.272143 
L 524.543377 335.118164 
L 525.040297 329.147169 
L 525.537217 327.382876 
L 527.027978 331.689191 
L 527.524898 331.743826 
L 528.021818 331.369069 
L 528.518738 330.623478 
L 529.015659 332.32929 
L 530.506419 331.891478 
L 531.00334 330.460389 
L 531.50026 328.26574 
L 531.99718 327.198876 
L 532.4941 332.448184 
L 533.984861 333.722852 
L 534.481781 330.150294 
L 534.978701 331.063183 
L 535.475622 330.380417 
L 535.972542 330.343689 
L 537.463302 331.449173 
L 537.960223 332.655385 
L 538.457143 328.339008 
L 538.954063 331.442558 
L 539.450983 332.556799 
L 541.438664 327.450528 
L 541.935584 330.673583 
L 542.432505 329.15077 
L 542.929425 325.325268 
L 544.420186 330.300536 
L 544.917106 327.744845 
L 545.414026 326.115442 
L 545.910946 321.096682 
L 546.407866 321.121051 
L 548.395547 327.8369 
L 548.892468 321.315711 
L 549.389388 325.678475 
L 549.886308 326.5469 
L 551.377069 325.225707 
L 551.873989 321.684101 
L 552.370909 327.206248 
L 552.867829 326.323253 
L 553.36475 329.991768 
L 554.85551 319.315249 
L 555.35243 328.985786 
L 555.849351 329.387847 
L 556.346271 321.60698 
L 556.843191 323.321339 
L 558.333952 321.453948 
L 558.830872 328.417979 
L 559.327792 330.14878 
L 559.824712 326.352165 
L 560.321633 329.00215 
L 561.812393 327.328804 
L 562.309314 329.259632 
L 562.806234 327.493502 
L 563.800074 331.443507 
L 565.290835 332.545517 
L 565.787755 332.759816 
L 566.284675 327.192206 
L 567.278516 326.81357 
L 568.272356 324.007986 
L 568.769276 327.970883 
L 569.266197 329.378034 
L 569.763117 326.691114 
L 570.260037 329.582774 
L 570.756957 323.665395 
L 572.247718 330.619393 
L 572.744638 330.340352 
L 573.241558 325.064496 
L 573.738479 328.146148 
L 574.235399 330.183283 
L 575.72616 328.038706 
L 576.22308 328.327481 
L 576.72 323.170719 
L 577.21692 330.020271 
L 577.71384 329.428579 
L 579.204601 328.761432 
L 579.701521 326.323173 
L 580.198442 328.438996 
L 580.695362 327.38995 
L 581.192282 332.644847 
L 582.683043 325.628766 
L 583.179963 325.352716 
L 583.676883 332.392201 
L 584.173803 333.696729 
L 584.670724 324.883355 
L 586.161484 329.231954 
L 586.658404 332.429898 
L 587.155325 331.166488 
L 587.652245 332.222296 
L 588.149165 332.440326 
L 590.136846 329.818338 
L 590.633766 332.47798 
L 591.130686 327.179449 
L 591.627607 329.50162 
L 593.118367 331.061088 
L 593.615288 333.912909 
L 594.112208 333.554435 
L 594.609128 326.262107 
L 595.106048 330.506783 
L 596.596809 329.435991 
L 597.093729 325.698066 
L 597.590649 330.27416 
L 598.08757 329.501578 
L 598.58449 329.413187 
L 600.07525 326.688364 
L 600.572171 328.790137 
L 601.566011 322.371808 
L 602.062931 327.273606 
L 603.553692 327.949338 
L 604.050612 330.141958 
L 604.547532 330.080244 
L 605.044453 332.100061 
L 607.032134 333.26434 
L 607.529054 331.804285 
L 608.025974 331.482546 
L 608.522894 326.530905 
L 609.019814 328.983694 
L 610.510575 327.245716 
L 611.007495 331.106259 
L 611.504416 330.56828 
L 612.001336 333.032247 
L 612.498256 333.287924 
L 613.989017 333.089881 
L 614.485937 330.231617 
L 614.982857 325.077696 
L 615.479777 329.756206 
L 615.976698 329.911546 
L 617.467458 328.881238 
L 617.964378 329.106001 
L 618.461299 328.670329 
L 619.455139 331.5075 
L 621.44282 330.075649 
L 621.93974 332.288156 
L 622.43666 332.275123 
L 622.933581 326.690925 
L 624.424341 323.603178 
L 624.921262 323.868817 
L 625.418182 322.90102 
L 625.915102 320.686181 
L 626.412022 325.887078 
L 627.902783 323.193678 
L 628.399703 329.542388 
L 628.896623 324.4471 
L 629.890464 325.671884 
L 631.381224 331.392548 
L 631.878145 331.819107 
L 632.375065 333.045814 
L 632.871985 331.632641 
L 633.368905 328.329551 
L 634.859666 328.921676 
L 635.853506 331.409233 
L 638.338108 323.212427 
L 638.835028 324.260833 
L 639.331948 324.995166 
L 639.828868 321.937222 
L 640.325788 328.408617 
L 641.816549 321.341226 
L 642.313469 328.457877 
L 642.81039 325.88772 
L 643.30731 330.794863 
L 643.80423 327.559216 
L 645.294991 326.990552 
L 645.791911 324.886358 
L 646.288831 321.124558 
L 647.282672 325.556427 
L 648.773432 329.12027 
L 649.270353 319.518213 
L 650.264193 330.250469 
L 650.761113 332.118938 
L 652.251874 328.812015 
L 652.748794 330.188842 
L 653.245714 322.412715 
L 654.239555 328.980013 
L 655.730315 331.531074 
L 656.227236 328.884207 
L 656.724156 330.187587 
L 657.221076 332.773589 
L 657.717996 327.674593 
L 659.208757 323.329284 
L 659.705677 322.847191 
L 660.202597 325.070872 
L 660.699518 321.550945 
L 661.196438 327.16708 
L 663.184119 323.022544 
L 663.681039 324.793417 
L 664.674879 319.252569 
L 666.16564 325.872756 
L 666.66256 323.173703 
L 667.159481 326.932126 
L 667.656401 328.93684 
L 668.153321 329.692916 
L 669.644082 330.836007 
L 670.141002 332.137337 
L 670.637922 333.049944 
L 671.134842 328.064218 
L 671.631763 326.981077 
L 673.122523 321.382551 
L 673.619443 331.623921 
L 674.116364 333.342091 
L 674.613284 328.296051 
L 675.110204 324.391842 
L 676.600965 323.99606 
L 677.097885 326.626078 
L 677.594805 328.246622 
L 678.091725 331.717592 
L 678.588646 324.997168 
L 680.079406 323.889569 
L 680.576327 330.47969 
L 681.073247 327.988016 
L 681.570167 329.184382 
L 682.067087 327.908882 
L 684.054768 333.158355 
L 684.551688 333.638084 
L 685.048609 327.52729 
L 685.545529 332.669958 
L 687.036289 325.500218 
L 687.53321 325.149577 
L 688.03013 330.709184 
L 688.52705 329.809372 
L 689.02397 326.312274 
L 690.514731 331.330279 
L 691.011651 330.755523 
L 691.508571 326.658227 
L 692.502412 333.732757 
L 693.993173 325.506235 
L 694.490093 329.881367 
L 694.987013 316.023586 
L 695.483933 323.491392 
L 695.980853 316.113529 
L 697.471614 322.170074 
L 697.968534 330.150439 
L 698.465455 327.372441 
L 698.962375 326.745122 
L 699.459295 326.534133 
L 700.950056 331.494909 
L 701.446976 323.58404 
L 701.943896 329.311797 
L 702.440816 331.295619 
L 702.937737 325.386673 
L 704.428497 328.117675 
L 704.925417 323.632433 
L 705.422338 331.145315 
L 707.906939 321.747209 
L 708.403859 325.02863 
L 708.900779 324.180101 
L 709.397699 327.423669 
L 709.89462 321.109151 
L 711.882301 323.283043 
L 712.379221 328.196156 
L 712.876141 325.607889 
L 713.373061 324.26419 
L 714.863822 323.780867 
L 715.360742 328.909921 
L 715.857662 325.108327 
L 716.354583 325.693548 
L 716.851503 321.314401 
L 718.342263 322.096216 
L 718.839184 326.422855 
L 719.336104 326.439129 
L 719.833024 330.759003 
L 720.329944 324.887793 
L 721.820705 324.889372 
L 722.317625 330.227624 
L 722.814545 327.725497 
L 723.311466 331.587343 
L 723.808386 327.260351 
L 725.299147 325.691551 
L 725.796067 326.826407 
L 726.292987 323.523571 
L 726.789907 324.654373 
L 727.286827 326.997053 
L 728.777588 325.337124 
L 729.274508 330.056321 
L 730.268349 323.243979 
L 730.765269 327.278089 
L 732.25603 331.151367 
L 732.75295 330.359911 
L 733.24987 325.154379 
L 733.74679 327.745607 
L 734.243711 327.495126 
L 735.734471 324.79793 
L 736.231391 328.436326 
L 736.728312 327.490105 
L 737.225232 327.975861 
L 737.722152 326.855812 
L 739.212913 325.153965 
L 739.709833 327.046228 
L 740.206753 324.292778 
L 740.703673 323.031575 
L 741.200594 325.927292 
L 743.188275 330.942719 
L 743.685195 325.839187 
L 744.182115 326.731513 
L 744.679035 321.383612 
L 746.169796 324.855668 
L 746.666716 324.848645 
L 747.163636 330.556218 
L 747.163636 330.556218 
" clip-path="url(#p59bea26910)" style="fill: none; stroke: #1f77b4; stroke-width: 1.5; stroke-linecap: square"/>
   </g>
   <g id="patch_3">
    <path d="M 108 384.48 
L 108 51.84 
" style="fill: none; stroke: #000000; stroke-width: 0.8; stroke-linejoin: miter; stroke-linecap: square"/>
   </g>
   <g id="patch_4">
    <path d="M 777.6 384.48 
L 777.6 51.84 
" style="fill: none; stroke: #000000; stroke-width: 0.8; stroke-linejoin: miter; stroke-linecap: square"/>
   </g>
   <g id="patch_5">
    <path d="M 108 384.48 
L 777.6 384.48 
" style="fill: none; stroke: #000000; stroke-width: 0.8; stroke-linejoin: miter; stroke-linecap: square"/>
   </g>
   <g id="patch_6">
    <path d="M 108 51.84 
L 777.6 51.84 
" style="fill: none; stroke: #000000; stroke-width: 0.8; stroke-linejoin: miter; stroke-linecap: square"/>
   </g>
   <g id="text_21">
    <!-- Volatility Prediction with LSTM with MAF non-linear flows -->
    <g transform="translate(273.659063 45.84) scale(0.12 -0.12)">
     <defs>
      <path id="DejaVuSans-20" transform="scale(0.015625)"/>
      <path id="DejaVuSans-50" d="M 1259 4147 
L 1259 2394 
L 2053 2394 
Q 2494 2394 2734 2622 
Q 2975 2850 2975 3272 
Q 2975 3691 2734 3919 
Q 2494 4147 2053 4147 
L 1259 4147 
z
M 628 4666 
L 2053 4666 
Q 2838 4666 3239 4311 
Q 3641 3956 3641 3272 
Q 3641 2581 3239 2228 
Q 2838 1875 2053 1875 
L 1259 1875 
L 1259 0 
L 628 0 
L 628 4666 
z
" transform="scale(0.015625)"/>
      <path id="DejaVuSans-72" d="M 2631 2963 
Q 2534 3019 2420 3045 
Q 2306 3072 2169 3072 
Q 1681 3072 1420 2755 
Q 1159 2438 1159 1844 
L 1159 0 
L 581 0 
L 581 3500 
L 1159 3500 
L 1159 2956 
Q 1341 3275 1631 3429 
Q 1922 3584 2338 3584 
Q 2397 3584 2469 3576 
Q 2541 3569 2628 3553 
L 2631 2963 
z
" transform="scale(0.015625)"/>
      <path id="DejaVuSans-64" d="M 2906 2969 
L 2906 4863 
L 3481 4863 
L 3481 0 
L 2906 0 
L 2906 525 
Q 2725 213 2448 61 
Q 2172 -91 1784 -91 
Q 1150 -91 751 415 
Q 353 922 353 1747 
Q 353 2572 751 3078 
Q 1150 3584 1784 3584 
Q 2172 3584 2448 3432 
Q 2725 3281 2906 2969 
z
M 947 1747 
Q 947 1113 1208 752 
Q 1469 391 1925 391 
Q 2381 391 2643 752 
Q 2906 1113 2906 1747 
Q 2906 2381 2643 2742 
Q 2381 3103 1925 3103 
Q 1469 3103 1208 2742 
Q 947 2381 947 1747 
z
" transform="scale(0.015625)"/>
      <path id="DejaVuSans-63" d="M 3122 3366 
L 3122 2828 
Q 2878 2963 2633 3030 
Q 2388 3097 2138 3097 
Q 1578 3097 1268 2742 
Q 959 2388 959 1747 
Q 959 1106 1268 751 
Q 1578 397 2138 397 
Q 2388 397 2633 464 
Q 2878 531 3122 666 
L 3122 134 
Q 2881 22 2623 -34 
Q 2366 -91 2075 -91 
Q 1284 -91 818 406 
Q 353 903 353 1747 
Q 353 2603 823 3093 
Q 1294 3584 2113 3584 
Q 2378 3584 2631 3529 
Q 2884 3475 3122 3366 
z
" transform="scale(0.015625)"/>
      <path id="DejaVuSans-6e" d="M 3513 2113 
L 3513 0 
L 2938 0 
L 2938 2094 
Q 2938 2591 2744 2837 
Q 2550 3084 2163 3084 
Q 1697 3084 1428 2787 
Q 1159 2491 1159 1978 
L 1159 0 
L 581 0 
L 581 3500 
L 1159 3500 
L 1159 2956 
Q 1366 3272 1645 3428 
Q 1925 3584 2291 3584 
Q 2894 3584 3203 3211 
Q 3513 2838 3513 2113 
z
" transform="scale(0.015625)"/>
      <path id="DejaVuSans-77" d="M 269 3500 
L 844 3500 
L 1563 769 
L 2278 3500 
L 2956 3500 
L 3675 769 
L 4391 3500 
L 4966 3500 
L 4050 0 
L 3372 0 
L 2619 2869 
L 1863 0 
L 1184 0 
L 269 3500 
z
" transform="scale(0.015625)"/>
      <path id="DejaVuSans-68" d="M 3513 2113 
L 3513 0 
L 2938 0 
L 2938 2094 
Q 2938 2591 2744 2837 
Q 2550 3084 2163 3084 
Q 1697 3084 1428 2787 
Q 1159 2491 1159 1978 
L 1159 0 
L 581 0 
L 581 4863 
L 1159 4863 
L 1159 2956 
Q 1366 3272 1645 3428 
Q 1925 3584 2291 3584 
Q 2894 3584 3203 3211 
Q 3513 2838 3513 2113 
z
" transform="scale(0.015625)"/>
      <path id="DejaVuSans-4c" d="M 628 4666 
L 1259 4666 
L 1259 531 
L 3531 531 
L 3531 0 
L 628 0 
L 628 4666 
z
" transform="scale(0.015625)"/>
      <path id="DejaVuSans-53" d="M 3425 4513 
L 3425 3897 
Q 3066 4069 2747 4153 
Q 2428 4238 2131 4238 
Q 1616 4238 1336 4038 
Q 1056 3838 1056 3469 
Q 1056 3159 1242 3001 
Q 1428 2844 1947 2747 
L 2328 2669 
Q 3034 2534 3370 2195 
Q 3706 1856 3706 1288 
Q 3706 609 3251 259 
Q 2797 -91 1919 -91 
Q 1588 -91 1214 -16 
Q 841 59 441 206 
L 441 856 
Q 825 641 1194 531 
Q 1563 422 1919 422 
Q 2459 422 2753 634 
Q 3047 847 3047 1241 
Q 3047 1584 2836 1778 
Q 2625 1972 2144 2069 
L 1759 2144 
Q 1053 2284 737 2584 
Q 422 2884 422 3419 
Q 422 4038 858 4394 
Q 1294 4750 2059 4750 
Q 2388 4750 2728 4690 
Q 3069 4631 3425 4513 
z
" transform="scale(0.015625)"/>
      <path id="DejaVuSans-54" d="M -19 4666 
L 3928 4666 
L 3928 4134 
L 2272 4134 
L 2272 0 
L 1638 0 
L 1638 4134 
L -19 4134 
L -19 4666 
z
" transform="scale(0.015625)"/>
      <path id="DejaVuSans-4d" d="M 628 4666 
L 1569 4666 
L 2759 1491 
L 3956 4666 
L 4897 4666 
L 4897 0 
L 4281 0 
L 4281 4097 
L 3078 897 
L 2444 897 
L 1241 4097 
L 1241 0 
L 628 0 
L 628 4666 
z
" transform="scale(0.015625)"/>
      <path id="DejaVuSans-41" d="M 2188 4044 
L 1331 1722 
L 3047 1722 
L 2188 4044 
z
M 1831 4666 
L 2547 4666 
L 4325 0 
L 3669 0 
L 3244 1197 
L 1141 1197 
L 716 0 
L 50 0 
L 1831 4666 
z
" transform="scale(0.015625)"/>
      <path id="DejaVuSans-46" d="M 628 4666 
L 3309 4666 
L 3309 4134 
L 1259 4134 
L 1259 2759 
L 3109 2759 
L 3109 2228 
L 1259 2228 
L 1259 0 
L 628 0 
L 628 4666 
z
" transform="scale(0.015625)"/>
      <path id="DejaVuSans-66" d="M 2375 4863 
L 2375 4384 
L 1825 4384 
Q 1516 4384 1395 4259 
Q 1275 4134 1275 3809 
L 1275 3500 
L 2222 3500 
L 2222 3053 
L 1275 3053 
L 1275 0 
L 697 0 
L 697 3053 
L 147 3053 
L 147 3500 
L 697 3500 
L 697 3744 
Q 697 4328 969 4595 
Q 1241 4863 1831 4863 
L 2375 4863 
z
" transform="scale(0.015625)"/>
      <path id="DejaVuSans-73" d="M 2834 3397 
L 2834 2853 
Q 2591 2978 2328 3040 
Q 2066 3103 1784 3103 
Q 1356 3103 1142 2972 
Q 928 2841 928 2578 
Q 928 2378 1081 2264 
Q 1234 2150 1697 2047 
L 1894 2003 
Q 2506 1872 2764 1633 
Q 3022 1394 3022 966 
Q 3022 478 2636 193 
Q 2250 -91 1575 -91 
Q 1294 -91 989 -36 
Q 684 19 347 128 
L 347 722 
Q 666 556 975 473 
Q 1284 391 1588 391 
Q 1994 391 2212 530 
Q 2431 669 2431 922 
Q 2431 1156 2273 1281 
Q 2116 1406 1581 1522 
L 1381 1569 
Q 847 1681 609 1914 
Q 372 2147 372 2553 
Q 372 3047 722 3315 
Q 1072 3584 1716 3584 
Q 2034 3584 2315 3537 
Q 2597 3491 2834 3397 
z
" transform="scale(0.015625)"/>
     </defs>
     <use xlink:href="#DejaVuSans-56"/>
     <use xlink:href="#DejaVuSans-6f" x="60.658203"/>
     <use xlink:href="#DejaVuSans-6c" x="121.839844"/>
     <use xlink:href="#DejaVuSans-61" x="149.623047"/>
     <use xlink:href="#DejaVuSans-74" x="210.902344"/>
     <use xlink:href="#DejaVuSans-69" x="250.111328"/>
     <use xlink:href="#DejaVuSans-6c" x="277.894531"/>
     <use xlink:href="#DejaVuSans-69" x="305.677734"/>
     <use xlink:href="#DejaVuSans-74" x="333.460938"/>
     <use xlink:href="#DejaVuSans-79" x="372.669922"/>
     <use xlink:href="#DejaVuSans-20" x="431.849609"/>
     <use xlink:href="#DejaVuSans-50" x="463.636719"/>
     <use xlink:href="#DejaVuSans-72" x="522.189453"/>
     <use xlink:href="#DejaVuSans-65" x="561.052734"/>
     <use xlink:href="#DejaVuSans-64" x="622.576172"/>
     <use xlink:href="#DejaVuSans-69" x="686.052734"/>
     <use xlink:href="#DejaVuSans-63" x="713.835938"/>
     <use xlink:href="#DejaVuSans-74" x="768.816406"/>
     <use xlink:href="#DejaVuSans-69" x="808.025391"/>
     <use xlink:href="#DejaVuSans-6f" x="835.808594"/>
     <use xlink:href="#DejaVuSans-6e" x="896.990234"/>
     <use xlink:href="#DejaVuSans-20" x="960.369141"/>
     <use xlink:href="#DejaVuSans-77" x="992.15625"/>
     <use xlink:href="#DejaVuSans-69" x="1073.943359"/>
     <use xlink:href="#DejaVuSans-74" x="1101.726562"/>
     <use xlink:href="#DejaVuSans-68" x="1140.935547"/>
     <use xlink:href="#DejaVuSans-20" x="1204.314453"/>
     <use xlink:href="#DejaVuSans-4c" x="1236.101562"/>
     <use xlink:href="#DejaVuSans-53" x="1291.814453"/>
     <use xlink:href="#DejaVuSans-54" x="1355.291016"/>
     <use xlink:href="#DejaVuSans-4d" x="1416.375"/>
     <use xlink:href="#DejaVuSans-20" x="1502.654297"/>
     <use xlink:href="#DejaVuSans-77" x="1534.441406"/>
     <use xlink:href="#DejaVuSans-69" x="1616.228516"/>
     <use xlink:href="#DejaVuSans-74" x="1644.011719"/>
     <use xlink:href="#DejaVuSans-68" x="1683.220703"/>
     <use xlink:href="#DejaVuSans-20" x="1746.599609"/>
     <use xlink:href="#DejaVuSans-4d" x="1778.386719"/>
     <use xlink:href="#DejaVuSans-41" x="1864.666016"/>
     <use xlink:href="#DejaVuSans-46" x="1933.074219"/>
     <use xlink:href="#DejaVuSans-20" x="1990.59375"/>
     <use xlink:href="#DejaVuSans-6e" x="2022.380859"/>
     <use xlink:href="#DejaVuSans-6f" x="2085.759766"/>
     <use xlink:href="#DejaVuSans-6e" x="2146.941406"/>
     <use xlink:href="#DejaVuSans-2d" x="2210.320312"/>
     <use xlink:href="#DejaVuSans-6c" x="2246.404297"/>
     <use xlink:href="#DejaVuSans-69" x="2274.1875"/>
     <use xlink:href="#DejaVuSans-6e" x="2301.970703"/>
     <use xlink:href="#DejaVuSans-65" x="2365.349609"/>
     <use xlink:href="#DejaVuSans-61" x="2426.873047"/>
     <use xlink:href="#DejaVuSans-72" x="2488.152344"/>
     <use xlink:href="#DejaVuSans-20" x="2529.265625"/>
     <use xlink:href="#DejaVuSans-66" x="2561.052734"/>
     <use xlink:href="#DejaVuSans-6c" x="2596.257812"/>
     <use xlink:href="#DejaVuSans-6f" x="2624.041016"/>
     <use xlink:href="#DejaVuSans-77" x="2685.222656"/>
     <use xlink:href="#DejaVuSans-73" x="2767.009766"/>
    </g>
   </g>
   <g id="legend_1">
    <g id="patch_7">
     <path d="M 115 89.19625 
L 404.509375 89.19625 
Q 406.509375 89.19625 406.509375 87.19625 
L 406.509375 58.84 
Q 406.509375 56.84 404.509375 56.84 
L 115 56.84 
Q 113 56.84 113 58.84 
L 113 87.19625 
Q 113 89.19625 115 89.19625 
z
" style="fill: #ffffff; opacity: 0.8; stroke: #cccccc; stroke-linejoin: miter"/>
    </g>
    <g id="line2d_21">
     <path d="M 117 64.938437 
L 127 64.938437 
L 137 64.938437 
" style="fill: none; stroke: #000000; stroke-width: 1.5; stroke-linecap: square"/>
    </g>
    <g id="text_22">
     <!-- Absolute Returns -->
     <g transform="translate(145 68.438437) scale(0.1 -0.1)">
      <defs>
       <path id="DejaVuSans-62" d="M 3116 1747 
Q 3116 2381 2855 2742 
Q 2594 3103 2138 3103 
Q 1681 3103 1420 2742 
Q 1159 2381 1159 1747 
Q 1159 1113 1420 752 
Q 1681 391 2138 391 
Q 2594 391 2855 752 
Q 3116 1113 3116 1747 
z
M 1159 2969 
Q 1341 3281 1617 3432 
Q 1894 3584 2278 3584 
Q 2916 3584 3314 3078 
Q 3713 2572 3713 1747 
Q 3713 922 3314 415 
Q 2916 -91 2278 -91 
Q 1894 -91 1617 61 
Q 1341 213 1159 525 
L 1159 0 
L 581 0 
L 581 4863 
L 1159 4863 
L 1159 2969 
z
" transform="scale(0.015625)"/>
       <path id="DejaVuSans-75" d="M 544 1381 
L 544 3500 
L 1119 3500 
L 1119 1403 
Q 1119 906 1312 657 
Q 1506 409 1894 409 
Q 2359 409 2629 706 
Q 2900 1003 2900 1516 
L 2900 3500 
L 3475 3500 
L 3475 0 
L 2900 0 
L 2900 538 
Q 2691 219 2414 64 
Q 2138 -91 1772 -91 
Q 1169 -91 856 284 
Q 544 659 544 1381 
z
M 1991 3584 
L 1991 3584 
z
" transform="scale(0.015625)"/>
       <path id="DejaVuSans-52" d="M 2841 2188 
Q 3044 2119 3236 1894 
Q 3428 1669 3622 1275 
L 4263 0 
L 3584 0 
L 2988 1197 
Q 2756 1666 2539 1819 
Q 2322 1972 1947 1972 
L 1259 1972 
L 1259 0 
L 628 0 
L 628 4666 
L 2053 4666 
Q 2853 4666 3247 4331 
Q 3641 3997 3641 3322 
Q 3641 2881 3436 2590 
Q 3231 2300 2841 2188 
z
M 1259 4147 
L 1259 2491 
L 2053 2491 
Q 2509 2491 2742 2702 
Q 2975 2913 2975 3322 
Q 2975 3731 2742 3939 
Q 2509 4147 2053 4147 
L 1259 4147 
z
" transform="scale(0.015625)"/>
      </defs>
      <use xlink:href="#DejaVuSans-41"/>
      <use xlink:href="#DejaVuSans-62" x="68.408203"/>
      <use xlink:href="#DejaVuSans-73" x="131.884766"/>
      <use xlink:href="#DejaVuSans-6f" x="183.984375"/>
      <use xlink:href="#DejaVuSans-6c" x="245.166016"/>
      <use xlink:href="#DejaVuSans-75" x="272.949219"/>
      <use xlink:href="#DejaVuSans-74" x="336.328125"/>
      <use xlink:href="#DejaVuSans-65" x="375.537109"/>
      <use xlink:href="#DejaVuSans-20" x="437.060547"/>
      <use xlink:href="#DejaVuSans-52" x="468.847656"/>
      <use xlink:href="#DejaVuSans-65" x="533.830078"/>
      <use xlink:href="#DejaVuSans-74" x="595.353516"/>
      <use xlink:href="#DejaVuSans-75" x="634.5625"/>
      <use xlink:href="#DejaVuSans-72" x="697.941406"/>
      <use xlink:href="#DejaVuSans-6e" x="737.304688"/>
      <use xlink:href="#DejaVuSans-73" x="800.683594"/>
     </g>
    </g>
    <g id="line2d_22">
     <path d="M 117 79.616562 
L 127 79.616562 
L 137 79.616562 
" style="fill: none; stroke: #1f77b4; stroke-width: 1.5; stroke-linecap: square"/>
    </g>
    <g id="text_23">
     <!-- LSTM with MAF non-linear flows Volatility Prediction -->
     <g transform="translate(145 83.116562) scale(0.1 -0.1)">
      <use xlink:href="#DejaVuSans-4c"/>
      <use xlink:href="#DejaVuSans-53" x="55.712891"/>
      <use xlink:href="#DejaVuSans-54" x="119.189453"/>
      <use xlink:href="#DejaVuSans-4d" x="180.273438"/>
      <use xlink:href="#DejaVuSans-20" x="266.552734"/>
      <use xlink:href="#DejaVuSans-77" x="298.339844"/>
      <use xlink:href="#DejaVuSans-69" x="380.126953"/>
      <use xlink:href="#DejaVuSans-74" x="407.910156"/>
      <use xlink:href="#DejaVuSans-68" x="447.119141"/>
      <use xlink:href="#DejaVuSans-20" x="510.498047"/>
      <use xlink:href="#DejaVuSans-4d" x="542.285156"/>
      <use xlink:href="#DejaVuSans-41" x="628.564453"/>
      <use xlink:href="#DejaVuSans-46" x="696.972656"/>
      <use xlink:href="#DejaVuSans-20" x="754.492188"/>
      <use xlink:href="#DejaVuSans-6e" x="786.279297"/>
      <use xlink:href="#DejaVuSans-6f" x="849.658203"/>
      <use xlink:href="#DejaVuSans-6e" x="910.839844"/>
      <use xlink:href="#DejaVuSans-2d" x="974.21875"/>
      <use xlink:href="#DejaVuSans-6c" x="1010.302734"/>
      <use xlink:href="#DejaVuSans-69" x="1038.085938"/>
      <use xlink:href="#DejaVuSans-6e" x="1065.869141"/>
      <use xlink:href="#DejaVuSans-65" x="1129.248047"/>
      <use xlink:href="#DejaVuSans-61" x="1190.771484"/>
      <use xlink:href="#DejaVuSans-72" x="1252.050781"/>
      <use xlink:href="#DejaVuSans-20" x="1293.164062"/>
      <use xlink:href="#DejaVuSans-66" x="1324.951172"/>
      <use xlink:href="#DejaVuSans-6c" x="1360.15625"/>
      <use xlink:href="#DejaVuSans-6f" x="1387.939453"/>
      <use xlink:href="#DejaVuSans-77" x="1449.121094"/>
      <use xlink:href="#DejaVuSans-73" x="1530.908203"/>
      <use xlink:href="#DejaVuSans-20" x="1583.007812"/>
      <use xlink:href="#DejaVuSans-56" x="1614.794922"/>
      <use xlink:href="#DejaVuSans-6f" x="1675.453125"/>
      <use xlink:href="#DejaVuSans-6c" x="1736.634766"/>
      <use xlink:href="#DejaVuSans-61" x="1764.417969"/>
      <use xlink:href="#DejaVuSans-74" x="1825.697266"/>
      <use xlink:href="#DejaVuSans-69" x="1864.90625"/>
      <use xlink:href="#DejaVuSans-6c" x="1892.689453"/>
      <use xlink:href="#DejaVuSans-69" x="1920.472656"/>
      <use xlink:href="#DejaVuSans-74" x="1948.255859"/>
      <use xlink:href="#DejaVuSans-79" x="1987.464844"/>
      <use xlink:href="#DejaVuSans-20" x="2046.644531"/>
      <use xlink:href="#DejaVuSans-50" x="2078.431641"/>
      <use xlink:href="#DejaVuSans-72" x="2136.984375"/>
      <use xlink:href="#DejaVuSans-65" x="2175.847656"/>
      <use xlink:href="#DejaVuSans-64" x="2237.371094"/>
      <use xlink:href="#DejaVuSans-69" x="2300.847656"/>
      <use xlink:href="#DejaVuSans-63" x="2328.630859"/>
      <use xlink:href="#DejaVuSans-74" x="2383.611328"/>
      <use xlink:href="#DejaVuSans-69" x="2422.820312"/>
      <use xlink:href="#DejaVuSans-6f" x="2450.603516"/>
      <use xlink:href="#DejaVuSans-6e" x="2511.785156"/>
     </g>
    </g>
   </g>
  </g>
 </g>
 <defs>
  <clipPath id="p59bea26910">
   <rect x="108" y="51.84" width="669.6" height="332.64"/>
  </clipPath>
 </defs>
</svg>
