<?xml version="1.0" encoding="utf-8" standalone="no"?>
<!DOCTYPE svg PUBLIC "-//W3C//DTD SVG 1.1//EN"
  "http://www.w3.org/Graphics/SVG/1.1/DTD/svg11.dtd">
<svg xmlns:xlink="http://www.w3.org/1999/xlink" width="864pt" height="432pt" viewBox="0 0 864 432" xmlns="http://www.w3.org/2000/svg" version="1.1">
 <metadata>
  <rdf:RDF xmlns:dc="http://purl.org/dc/elements/1.1/" xmlns:cc="http://creativecommons.org/ns#" xmlns:rdf="http://www.w3.org/1999/02/22-rdf-syntax-ns#">
   <cc:Work>
    <dc:type rdf:resource="http://purl.org/dc/dcmitype/StillImage"/>
    <dc:date>2025-02-14T14:22:14.968951</dc:date>
    <dc:format>image/svg+xml</dc:format>
    <dc:creator>
     <cc:Agent>
      <dc:title>Matplotlib v3.10.0, https://matplotlib.org/</dc:title>
     </cc:Agent>
    </dc:creator>
   </cc:Work>
  </rdf:RDF>
 </metadata>
 <defs>
  <style type="text/css">*{stroke-linejoin: round; stroke-linecap: butt}</style>
 </defs>
 <g id="figure_1">
  <g id="patch_1">
   <path d="M 0 432 
L 864 432 
L 864 0 
L 0 0 
z
" style="fill: #ffffff"/>
  </g>
  <g id="axes_1">
   <g id="patch_2">
    <path d="M 108 384.48 
L 777.6 384.48 
L 777.6 51.84 
L 108 51.84 
z
" style="fill: #ffffff"/>
   </g>
   <g id="matplotlib.axis_1">
    <g id="xtick_1">
     <g id="line2d_1">
      <defs>
       <path id="mc70909a1e3" d="M 0 0 
L 0 3.5 
" style="stroke: #000000; stroke-width: 0.8"/>
      </defs>
      <g>
       <use xlink:href="#mc70909a1e3" x="139.272527" y="384.48" style="stroke: #000000; stroke-width: 0.8"/>
      </g>
     </g>
     <g id="text_1">
      <!-- 2022-01 -->
      <g transform="translate(118.381121 399.078438) scale(0.1 -0.1)">
       <defs>
        <path id="DejaVuSans-32" d="M 1228 531 
L 3431 531 
L 3431 0 
L 469 0 
L 469 531 
Q 828 903 1448 1529 
Q 2069 2156 2228 2338 
Q 2531 2678 2651 2914 
Q 2772 3150 2772 3378 
Q 2772 3750 2511 3984 
Q 2250 4219 1831 4219 
Q 1534 4219 1204 4116 
Q 875 4013 500 3803 
L 500 4441 
Q 881 4594 1212 4672 
Q 1544 4750 1819 4750 
Q 2544 4750 2975 4387 
Q 3406 4025 3406 3419 
Q 3406 3131 3298 2873 
Q 3191 2616 2906 2266 
Q 2828 2175 2409 1742 
Q 1991 1309 1228 531 
z
" transform="scale(0.015625)"/>
        <path id="DejaVuSans-30" d="M 2034 4250 
Q 1547 4250 1301 3770 
Q 1056 3291 1056 2328 
Q 1056 1369 1301 889 
Q 1547 409 2034 409 
Q 2525 409 2770 889 
Q 3016 1369 3016 2328 
Q 3016 3291 2770 3770 
Q 2525 4250 2034 4250 
z
M 2034 4750 
Q 2819 4750 3233 4129 
Q 3647 3509 3647 2328 
Q 3647 1150 3233 529 
Q 2819 -91 2034 -91 
Q 1250 -91 836 529 
Q 422 1150 422 2328 
Q 422 3509 836 4129 
Q 1250 4750 2034 4750 
z
" transform="scale(0.015625)"/>
        <path id="DejaVuSans-2d" d="M 313 2009 
L 1997 2009 
L 1997 1497 
L 313 1497 
L 313 2009 
z
" transform="scale(0.015625)"/>
        <path id="DejaVuSans-31" d="M 794 531 
L 1825 531 
L 1825 4091 
L 703 3866 
L 703 4441 
L 1819 4666 
L 2450 4666 
L 2450 531 
L 3481 531 
L 3481 0 
L 794 0 
L 794 531 
z
" transform="scale(0.015625)"/>
       </defs>
       <use xlink:href="#DejaVuSans-32"/>
       <use xlink:href="#DejaVuSans-30" transform="translate(63.623047 0)"/>
       <use xlink:href="#DejaVuSans-32" transform="translate(127.246094 0)"/>
       <use xlink:href="#DejaVuSans-32" transform="translate(190.869141 0)"/>
       <use xlink:href="#DejaVuSans-2d" transform="translate(254.492188 0)"/>
       <use xlink:href="#DejaVuSans-30" transform="translate(290.576172 0)"/>
       <use xlink:href="#DejaVuSans-31" transform="translate(354.199219 0)"/>
      </g>
     </g>
    </g>
    <g id="xtick_2">
     <g id="line2d_2">
      <g>
       <use xlink:href="#mc70909a1e3" x="214.527273" y="384.48" style="stroke: #000000; stroke-width: 0.8"/>
      </g>
     </g>
     <g id="text_2">
      <!-- 2022-04 -->
      <g transform="translate(193.635866 399.078438) scale(0.1 -0.1)">
       <defs>
        <path id="DejaVuSans-34" d="M 2419 4116 
L 825 1625 
L 2419 1625 
L 2419 4116 
z
M 2253 4666 
L 3047 4666 
L 3047 1625 
L 3713 1625 
L 3713 1100 
L 3047 1100 
L 3047 0 
L 2419 0 
L 2419 1100 
L 313 1100 
L 313 1709 
L 2253 4666 
z
" transform="scale(0.015625)"/>
       </defs>
       <use xlink:href="#DejaVuSans-32"/>
       <use xlink:href="#DejaVuSans-30" transform="translate(63.623047 0)"/>
       <use xlink:href="#DejaVuSans-32" transform="translate(127.246094 0)"/>
       <use xlink:href="#DejaVuSans-32" transform="translate(190.869141 0)"/>
       <use xlink:href="#DejaVuSans-2d" transform="translate(254.492188 0)"/>
       <use xlink:href="#DejaVuSans-30" transform="translate(290.576172 0)"/>
       <use xlink:href="#DejaVuSans-34" transform="translate(354.199219 0)"/>
      </g>
     </g>
    </g>
    <g id="xtick_3">
     <g id="line2d_3">
      <g>
       <use xlink:href="#mc70909a1e3" x="290.618182" y="384.48" style="stroke: #000000; stroke-width: 0.8"/>
      </g>
     </g>
     <g id="text_3">
      <!-- 2022-07 -->
      <g transform="translate(269.726776 399.078438) scale(0.1 -0.1)">
       <defs>
        <path id="DejaVuSans-37" d="M 525 4666 
L 3525 4666 
L 3525 4397 
L 1831 0 
L 1172 0 
L 2766 4134 
L 525 4134 
L 525 4666 
z
" transform="scale(0.015625)"/>
       </defs>
       <use xlink:href="#DejaVuSans-32"/>
       <use xlink:href="#DejaVuSans-30" transform="translate(63.623047 0)"/>
       <use xlink:href="#DejaVuSans-32" transform="translate(127.246094 0)"/>
       <use xlink:href="#DejaVuSans-32" transform="translate(190.869141 0)"/>
       <use xlink:href="#DejaVuSans-2d" transform="translate(254.492188 0)"/>
       <use xlink:href="#DejaVuSans-30" transform="translate(290.576172 0)"/>
       <use xlink:href="#DejaVuSans-37" transform="translate(354.199219 0)"/>
      </g>
     </g>
    </g>
    <g id="xtick_4">
     <g id="line2d_4">
      <g>
       <use xlink:href="#mc70909a1e3" x="367.545255" y="384.48" style="stroke: #000000; stroke-width: 0.8"/>
      </g>
     </g>
     <g id="text_4">
      <!-- 2022-10 -->
      <g transform="translate(346.653848 399.078438) scale(0.1 -0.1)">
       <use xlink:href="#DejaVuSans-32"/>
       <use xlink:href="#DejaVuSans-30" transform="translate(63.623047 0)"/>
       <use xlink:href="#DejaVuSans-32" transform="translate(127.246094 0)"/>
       <use xlink:href="#DejaVuSans-32" transform="translate(190.869141 0)"/>
       <use xlink:href="#DejaVuSans-2d" transform="translate(254.492188 0)"/>
       <use xlink:href="#DejaVuSans-31" transform="translate(290.576172 0)"/>
       <use xlink:href="#DejaVuSans-30" transform="translate(354.199219 0)"/>
      </g>
     </g>
    </g>
    <g id="xtick_5">
     <g id="line2d_5">
      <g>
       <use xlink:href="#mc70909a1e3" x="444.472328" y="384.48" style="stroke: #000000; stroke-width: 0.8"/>
      </g>
     </g>
     <g id="text_5">
      <!-- 2023-01 -->
      <g transform="translate(423.580921 399.078438) scale(0.1 -0.1)">
       <defs>
        <path id="DejaVuSans-33" d="M 2597 2516 
Q 3050 2419 3304 2112 
Q 3559 1806 3559 1356 
Q 3559 666 3084 287 
Q 2609 -91 1734 -91 
Q 1441 -91 1130 -33 
Q 819 25 488 141 
L 488 750 
Q 750 597 1062 519 
Q 1375 441 1716 441 
Q 2309 441 2620 675 
Q 2931 909 2931 1356 
Q 2931 1769 2642 2001 
Q 2353 2234 1838 2234 
L 1294 2234 
L 1294 2753 
L 1863 2753 
Q 2328 2753 2575 2939 
Q 2822 3125 2822 3475 
Q 2822 3834 2567 4026 
Q 2313 4219 1838 4219 
Q 1578 4219 1281 4162 
Q 984 4106 628 3988 
L 628 4550 
Q 988 4650 1302 4700 
Q 1616 4750 1894 4750 
Q 2613 4750 3031 4423 
Q 3450 4097 3450 3541 
Q 3450 3153 3228 2886 
Q 3006 2619 2597 2516 
z
" transform="scale(0.015625)"/>
       </defs>
       <use xlink:href="#DejaVuSans-32"/>
       <use xlink:href="#DejaVuSans-30" transform="translate(63.623047 0)"/>
       <use xlink:href="#DejaVuSans-32" transform="translate(127.246094 0)"/>
       <use xlink:href="#DejaVuSans-33" transform="translate(190.869141 0)"/>
       <use xlink:href="#DejaVuSans-2d" transform="translate(254.492188 0)"/>
       <use xlink:href="#DejaVuSans-30" transform="translate(290.576172 0)"/>
       <use xlink:href="#DejaVuSans-31" transform="translate(354.199219 0)"/>
      </g>
     </g>
    </g>
    <g id="xtick_6">
     <g id="line2d_6">
      <g>
       <use xlink:href="#mc70909a1e3" x="519.727073" y="384.48" style="stroke: #000000; stroke-width: 0.8"/>
      </g>
     </g>
     <g id="text_6">
      <!-- 2023-04 -->
      <g transform="translate(498.835667 399.078438) scale(0.1 -0.1)">
       <use xlink:href="#DejaVuSans-32"/>
       <use xlink:href="#DejaVuSans-30" transform="translate(63.623047 0)"/>
       <use xlink:href="#DejaVuSans-32" transform="translate(127.246094 0)"/>
       <use xlink:href="#DejaVuSans-33" transform="translate(190.869141 0)"/>
       <use xlink:href="#DejaVuSans-2d" transform="translate(254.492188 0)"/>
       <use xlink:href="#DejaVuSans-30" transform="translate(290.576172 0)"/>
       <use xlink:href="#DejaVuSans-34" transform="translate(354.199219 0)"/>
      </g>
     </g>
    </g>
    <g id="xtick_7">
     <g id="line2d_7">
      <g>
       <use xlink:href="#mc70909a1e3" x="595.817982" y="384.48" style="stroke: #000000; stroke-width: 0.8"/>
      </g>
     </g>
     <g id="text_7">
      <!-- 2023-07 -->
      <g transform="translate(574.926576 399.078438) scale(0.1 -0.1)">
       <use xlink:href="#DejaVuSans-32"/>
       <use xlink:href="#DejaVuSans-30" transform="translate(63.623047 0)"/>
       <use xlink:href="#DejaVuSans-32" transform="translate(127.246094 0)"/>
       <use xlink:href="#DejaVuSans-33" transform="translate(190.869141 0)"/>
       <use xlink:href="#DejaVuSans-2d" transform="translate(254.492188 0)"/>
       <use xlink:href="#DejaVuSans-30" transform="translate(290.576172 0)"/>
       <use xlink:href="#DejaVuSans-37" transform="translate(354.199219 0)"/>
      </g>
     </g>
    </g>
    <g id="xtick_8">
     <g id="line2d_8">
      <g>
       <use xlink:href="#mc70909a1e3" x="672.745055" y="384.48" style="stroke: #000000; stroke-width: 0.8"/>
      </g>
     </g>
     <g id="text_8">
      <!-- 2023-10 -->
      <g transform="translate(651.853649 399.078438) scale(0.1 -0.1)">
       <use xlink:href="#DejaVuSans-32"/>
       <use xlink:href="#DejaVuSans-30" transform="translate(63.623047 0)"/>
       <use xlink:href="#DejaVuSans-32" transform="translate(127.246094 0)"/>
       <use xlink:href="#DejaVuSans-33" transform="translate(190.869141 0)"/>
       <use xlink:href="#DejaVuSans-2d" transform="translate(254.492188 0)"/>
       <use xlink:href="#DejaVuSans-31" transform="translate(290.576172 0)"/>
       <use xlink:href="#DejaVuSans-30" transform="translate(354.199219 0)"/>
      </g>
     </g>
    </g>
    <g id="xtick_9">
     <g id="line2d_9">
      <g>
       <use xlink:href="#mc70909a1e3" x="749.672128" y="384.48" style="stroke: #000000; stroke-width: 0.8"/>
      </g>
     </g>
     <g id="text_9">
      <!-- 2024-01 -->
      <g transform="translate(728.780722 399.078438) scale(0.1 -0.1)">
       <use xlink:href="#DejaVuSans-32"/>
       <use xlink:href="#DejaVuSans-30" transform="translate(63.623047 0)"/>
       <use xlink:href="#DejaVuSans-32" transform="translate(127.246094 0)"/>
       <use xlink:href="#DejaVuSans-34" transform="translate(190.869141 0)"/>
       <use xlink:href="#DejaVuSans-2d" transform="translate(254.492188 0)"/>
       <use xlink:href="#DejaVuSans-30" transform="translate(290.576172 0)"/>
       <use xlink:href="#DejaVuSans-31" transform="translate(354.199219 0)"/>
      </g>
     </g>
    </g>
    <g id="text_10">
     <!-- Date -->
     <g transform="translate(430.849219 412.756563) scale(0.1 -0.1)">
      <defs>
       <path id="DejaVuSans-44" d="M 1259 4147 
L 1259 519 
L 2022 519 
Q 2988 519 3436 956 
Q 3884 1394 3884 2338 
Q 3884 3275 3436 3711 
Q 2988 4147 2022 4147 
L 1259 4147 
z
M 628 4666 
L 1925 4666 
Q 3281 4666 3915 4102 
Q 4550 3538 4550 2338 
Q 4550 1131 3912 565 
Q 3275 0 1925 0 
L 628 0 
L 628 4666 
z
" transform="scale(0.015625)"/>
       <path id="DejaVuSans-61" d="M 2194 1759 
Q 1497 1759 1228 1600 
Q 959 1441 959 1056 
Q 959 750 1161 570 
Q 1363 391 1709 391 
Q 2188 391 2477 730 
Q 2766 1069 2766 1631 
L 2766 1759 
L 2194 1759 
z
M 3341 1997 
L 3341 0 
L 2766 0 
L 2766 531 
Q 2569 213 2275 61 
Q 1981 -91 1556 -91 
Q 1019 -91 701 211 
Q 384 513 384 1019 
Q 384 1609 779 1909 
Q 1175 2209 1959 2209 
L 2766 2209 
L 2766 2266 
Q 2766 2663 2505 2880 
Q 2244 3097 1772 3097 
Q 1472 3097 1187 3025 
Q 903 2953 641 2809 
L 641 3341 
Q 956 3463 1253 3523 
Q 1550 3584 1831 3584 
Q 2591 3584 2966 3190 
Q 3341 2797 3341 1997 
z
" transform="scale(0.015625)"/>
       <path id="DejaVuSans-74" d="M 1172 4494 
L 1172 3500 
L 2356 3500 
L 2356 3053 
L 1172 3053 
L 1172 1153 
Q 1172 725 1289 603 
Q 1406 481 1766 481 
L 2356 481 
L 2356 0 
L 1766 0 
Q 1100 0 847 248 
Q 594 497 594 1153 
L 594 3053 
L 172 3053 
L 172 3500 
L 594 3500 
L 594 4494 
L 1172 4494 
z
" transform="scale(0.015625)"/>
       <path id="DejaVuSans-65" d="M 3597 1894 
L 3597 1613 
L 953 1613 
Q 991 1019 1311 708 
Q 1631 397 2203 397 
Q 2534 397 2845 478 
Q 3156 559 3463 722 
L 3463 178 
Q 3153 47 2828 -22 
Q 2503 -91 2169 -91 
Q 1331 -91 842 396 
Q 353 884 353 1716 
Q 353 2575 817 3079 
Q 1281 3584 2069 3584 
Q 2775 3584 3186 3129 
Q 3597 2675 3597 1894 
z
M 3022 2063 
Q 3016 2534 2758 2815 
Q 2500 3097 2075 3097 
Q 1594 3097 1305 2825 
Q 1016 2553 972 2059 
L 3022 2063 
z
" transform="scale(0.015625)"/>
      </defs>
      <use xlink:href="#DejaVuSans-44"/>
      <use xlink:href="#DejaVuSans-61" transform="translate(77.001953 0)"/>
      <use xlink:href="#DejaVuSans-74" transform="translate(138.28125 0)"/>
      <use xlink:href="#DejaVuSans-65" transform="translate(177.490234 0)"/>
     </g>
    </g>
   </g>
   <g id="matplotlib.axis_2">
    <g id="ytick_1">
     <g id="line2d_10">
      <defs>
       <path id="mcfccf98e52" d="M 0 0 
L -3.5 0 
" style="stroke: #000000; stroke-width: 0.8"/>
      </defs>
      <g>
       <use xlink:href="#mcfccf98e52" x="108" y="369.427605" style="stroke: #000000; stroke-width: 0.8"/>
      </g>
     </g>
     <g id="text_11">
      <!-- 0.00 -->
      <g transform="translate(78.734375 373.226824) scale(0.1 -0.1)">
       <defs>
        <path id="DejaVuSans-2e" d="M 684 794 
L 1344 794 
L 1344 0 
L 684 0 
L 684 794 
z
" transform="scale(0.015625)"/>
       </defs>
       <use xlink:href="#DejaVuSans-30"/>
       <use xlink:href="#DejaVuSans-2e" transform="translate(63.623047 0)"/>
       <use xlink:href="#DejaVuSans-30" transform="translate(95.410156 0)"/>
       <use xlink:href="#DejaVuSans-30" transform="translate(159.033203 0)"/>
      </g>
     </g>
    </g>
    <g id="ytick_2">
     <g id="line2d_11">
      <g>
       <use xlink:href="#mcfccf98e52" x="108" y="301.312331" style="stroke: #000000; stroke-width: 0.8"/>
      </g>
     </g>
     <g id="text_12">
      <!-- 0.05 -->
      <g transform="translate(78.734375 305.111549) scale(0.1 -0.1)">
       <defs>
        <path id="DejaVuSans-35" d="M 691 4666 
L 3169 4666 
L 3169 4134 
L 1269 4134 
L 1269 2991 
Q 1406 3038 1543 3061 
Q 1681 3084 1819 3084 
Q 2600 3084 3056 2656 
Q 3513 2228 3513 1497 
Q 3513 744 3044 326 
Q 2575 -91 1722 -91 
Q 1428 -91 1123 -41 
Q 819 9 494 109 
L 494 744 
Q 775 591 1075 516 
Q 1375 441 1709 441 
Q 2250 441 2565 725 
Q 2881 1009 2881 1497 
Q 2881 1984 2565 2268 
Q 2250 2553 1709 2553 
Q 1456 2553 1204 2497 
Q 953 2441 691 2322 
L 691 4666 
z
" transform="scale(0.015625)"/>
       </defs>
       <use xlink:href="#DejaVuSans-30"/>
       <use xlink:href="#DejaVuSans-2e" transform="translate(63.623047 0)"/>
       <use xlink:href="#DejaVuSans-30" transform="translate(95.410156 0)"/>
       <use xlink:href="#DejaVuSans-35" transform="translate(159.033203 0)"/>
      </g>
     </g>
    </g>
    <g id="ytick_3">
     <g id="line2d_12">
      <g>
       <use xlink:href="#mcfccf98e52" x="108" y="233.197056" style="stroke: #000000; stroke-width: 0.8"/>
      </g>
     </g>
     <g id="text_13">
      <!-- 0.10 -->
      <g transform="translate(78.734375 236.996274) scale(0.1 -0.1)">
       <use xlink:href="#DejaVuSans-30"/>
       <use xlink:href="#DejaVuSans-2e" transform="translate(63.623047 0)"/>
       <use xlink:href="#DejaVuSans-31" transform="translate(95.410156 0)"/>
       <use xlink:href="#DejaVuSans-30" transform="translate(159.033203 0)"/>
      </g>
     </g>
    </g>
    <g id="ytick_4">
     <g id="line2d_13">
      <g>
       <use xlink:href="#mcfccf98e52" x="108" y="165.081781" style="stroke: #000000; stroke-width: 0.8"/>
      </g>
     </g>
     <g id="text_14">
      <!-- 0.15 -->
      <g transform="translate(78.734375 168.880999) scale(0.1 -0.1)">
       <use xlink:href="#DejaVuSans-30"/>
       <use xlink:href="#DejaVuSans-2e" transform="translate(63.623047 0)"/>
       <use xlink:href="#DejaVuSans-31" transform="translate(95.410156 0)"/>
       <use xlink:href="#DejaVuSans-35" transform="translate(159.033203 0)"/>
      </g>
     </g>
    </g>
    <g id="ytick_5">
     <g id="line2d_14">
      <g>
       <use xlink:href="#mcfccf98e52" x="108" y="96.966506" style="stroke: #000000; stroke-width: 0.8"/>
      </g>
     </g>
     <g id="text_15">
      <!-- 0.20 -->
      <g transform="translate(78.734375 100.765725) scale(0.1 -0.1)">
       <use xlink:href="#DejaVuSans-30"/>
       <use xlink:href="#DejaVuSans-2e" transform="translate(63.623047 0)"/>
       <use xlink:href="#DejaVuSans-32" transform="translate(95.410156 0)"/>
       <use xlink:href="#DejaVuSans-30" transform="translate(159.033203 0)"/>
      </g>
     </g>
    </g>
    <g id="text_16">
     <!-- Volatility -->
     <g transform="translate(72.654687 239.752187) rotate(-90) scale(0.1 -0.1)">
      <defs>
       <path id="DejaVuSans-56" d="M 1831 0 
L 50 4666 
L 709 4666 
L 2188 738 
L 3669 4666 
L 4325 4666 
L 2547 0 
L 1831 0 
z
" transform="scale(0.015625)"/>
       <path id="DejaVuSans-6f" d="M 1959 3097 
Q 1497 3097 1228 2736 
Q 959 2375 959 1747 
Q 959 1119 1226 758 
Q 1494 397 1959 397 
Q 2419 397 2687 759 
Q 2956 1122 2956 1747 
Q 2956 2369 2687 2733 
Q 2419 3097 1959 3097 
z
M 1959 3584 
Q 2709 3584 3137 3096 
Q 3566 2609 3566 1747 
Q 3566 888 3137 398 
Q 2709 -91 1959 -91 
Q 1206 -91 779 398 
Q 353 888 353 1747 
Q 353 2609 779 3096 
Q 1206 3584 1959 3584 
z
" transform="scale(0.015625)"/>
       <path id="DejaVuSans-6c" d="M 603 4863 
L 1178 4863 
L 1178 0 
L 603 0 
L 603 4863 
z
" transform="scale(0.015625)"/>
       <path id="DejaVuSans-69" d="M 603 3500 
L 1178 3500 
L 1178 0 
L 603 0 
L 603 3500 
z
M 603 4863 
L 1178 4863 
L 1178 4134 
L 603 4134 
L 603 4863 
z
" transform="scale(0.015625)"/>
       <path id="DejaVuSans-79" d="M 2059 -325 
Q 1816 -950 1584 -1140 
Q 1353 -1331 966 -1331 
L 506 -1331 
L 506 -850 
L 844 -850 
Q 1081 -850 1212 -737 
Q 1344 -625 1503 -206 
L 1606 56 
L 191 3500 
L 800 3500 
L 1894 763 
L 2988 3500 
L 3597 3500 
L 2059 -325 
z
" transform="scale(0.015625)"/>
      </defs>
      <use xlink:href="#DejaVuSans-56"/>
      <use xlink:href="#DejaVuSans-6f" transform="translate(60.658203 0)"/>
      <use xlink:href="#DejaVuSans-6c" transform="translate(121.839844 0)"/>
      <use xlink:href="#DejaVuSans-61" transform="translate(149.623047 0)"/>
      <use xlink:href="#DejaVuSans-74" transform="translate(210.902344 0)"/>
      <use xlink:href="#DejaVuSans-69" transform="translate(250.111328 0)"/>
      <use xlink:href="#DejaVuSans-6c" transform="translate(277.894531 0)"/>
      <use xlink:href="#DejaVuSans-69" transform="translate(305.677734 0)"/>
      <use xlink:href="#DejaVuSans-74" transform="translate(333.460938 0)"/>
      <use xlink:href="#DejaVuSans-79" transform="translate(372.669922 0)"/>
     </g>
    </g>
   </g>
   <g id="line2d_15">
    <path d="M 138.436364 366.051804 
L 140.944855 352.631722 
L 141.781019 335.82661 
L 142.617183 329.884854 
L 143.453347 356.29884 
L 144.28951 354.103688 
L 146.798002 316.163218 
L 147.634166 292.417643 
L 148.47033 364.332065 
L 149.306494 336.018919 
L 150.142657 360.362981 
L 153.487313 325.768044 
L 154.323477 329.043294 
L 155.15964 353.585161 
L 155.995804 341.540444 
L 158.504296 364.102447 
L 159.34046 330.89595 
L 160.176623 366.846168 
L 161.012787 368.16819 
L 161.848951 364.132702 
L 164.357443 276.799641 
L 165.193606 342.176973 
L 166.02977 346.797782 
L 166.865934 329.293515 
L 167.702098 363.35994 
L 170.210589 345.919628 
L 171.046753 327.25551 
L 171.882917 312.117192 
L 172.719081 367.17858 
L 173.555245 339.375351 
L 176.063736 350.354917 
L 176.8999 289.769818 
L 177.736064 343.655979 
L 178.572228 66.96 
L 179.408392 325.439846 
L 182.753047 361.665483 
L 183.589211 297.62435 
L 184.425375 353.058932 
L 185.261538 313.283184 
L 187.77003 341.74778 
L 188.606194 302.070059 
L 189.442358 335.653337 
L 190.278521 334.849332 
L 191.114685 315.286216 
L 193.623177 315.263351 
L 194.459341 302.617432 
L 195.295504 322.095631 
L 196.131668 360.43026 
L 196.967832 343.066405 
L 199.476324 305.498249 
L 200.312488 326.376601 
L 201.148651 301.517268 
L 201.984815 333.43667 
L 202.820979 356.515898 
L 205.329471 366.407364 
L 206.165634 322.786202 
L 207.001798 352.242592 
L 207.837962 331.106691 
L 208.674126 347.780664 
L 211.182617 348.98882 
L 212.018781 318.649482 
L 212.854945 365.33119 
L 213.691109 357.162787 
L 214.527273 346.39974 
L 217.035764 362.660803 
L 217.871928 315.707753 
L 218.708092 332.378684 
L 219.544256 366.981783 
L 220.38042 363.95063 
L 222.888911 336.756843 
L 223.725075 362.931298 
L 224.561239 320.610161 
L 225.397403 359.066835 
L 228.742058 361.523768 
L 229.578222 315.414898 
L 230.414386 363.419411 
L 231.250549 305.542304 
L 232.086713 325.33616 
L 234.595205 354.544892 
L 235.431369 293.924439 
L 236.267532 337.375245 
L 237.103696 348.121929 
L 237.93986 352.367461 
L 240.448352 359.429613 
L 241.284515 329.453886 
L 242.120679 248.170102 
L 242.956843 242.560844 
L 243.793007 335.802753 
L 246.301499 247.397617 
L 247.137662 368.136192 
L 247.973826 316.742505 
L 248.80999 366.744403 
L 249.646154 274.702279 
L 252.154645 354.46167 
L 252.990809 293.853088 
L 253.826973 350.793477 
L 254.663137 351.647892 
L 255.499301 354.300912 
L 258.007792 332.481849 
L 258.843956 368.25057 
L 259.68012 337.455921 
L 260.516284 272.363459 
L 261.352448 287.193386 
L 264.697103 315.578584 
L 265.533267 258.866997 
L 266.369431 307.485147 
L 267.205594 366.551316 
L 269.714086 331.761154 
L 270.55025 368.89922 
L 271.386414 346.682376 
L 272.222577 304.297349 
L 273.058741 341.477497 
L 275.567233 282.453174 
L 276.403397 362.639756 
L 277.23956 318.149819 
L 278.075724 285.09934 
L 278.911888 304.491971 
L 282.256543 342.140458 
L 283.092707 368.860749 
L 283.928871 352.820809 
L 284.765035 299.993768 
L 287.273526 358.382058 
L 288.10969 348.650884 
L 288.945854 298.647432 
L 289.782018 350.588642 
L 290.618182 344.228844 
L 293.962837 337.718083 
L 294.799001 354.872773 
L 295.635165 337.515697 
L 296.471329 349.905372 
L 298.97982 328.395956 
L 299.815984 341.880303 
L 300.652148 368.175985 
L 301.488312 364.847931 
L 302.324476 341.725297 
L 304.832967 348.011661 
L 305.669131 319.311155 
L 306.505295 318.915787 
L 308.177622 344.195623 
L 310.686114 332.351237 
L 311.522278 354.560574 
L 312.358442 314.915141 
L 313.194605 357.674704 
L 314.030769 324.129516 
L 316.539261 344.952929 
L 317.375425 347.296911 
L 319.047752 342.722232 
L 319.883916 351.565925 
L 322.392408 330.770495 
L 323.228571 368.425746 
L 324.064735 290.25567 
L 324.900899 336.211528 
L 325.737063 290.395888 
L 328.245554 357.337511 
L 329.081718 353.655424 
L 329.917882 353.863237 
L 330.754046 360.184566 
L 331.59021 322.370692 
L 334.098701 341.067984 
L 334.934865 343.3421 
L 335.771029 336.620125 
L 336.607193 333.007703 
L 337.443357 334.332069 
L 339.951848 354.26245 
L 340.788012 309.819919 
L 341.624176 345.190522 
L 342.46034 312.323456 
L 343.296503 354.034088 
L 346.641159 334.137801 
L 347.477323 307.028649 
L 348.313487 311.023662 
L 349.14965 328.265249 
L 351.658142 353.91925 
L 352.494306 364.299459 
L 353.33047 329.082766 
L 354.166633 276.246175 
L 355.002797 366.722276 
L 357.511289 324.51619 
L 358.347453 326.079898 
L 359.183616 356.962499 
L 360.01978 306.43314 
L 360.855944 355.844776 
L 363.364436 346.895253 
L 364.200599 345.732997 
L 365.036763 328.278839 
L 365.872927 306.6901 
L 366.709091 364.28566 
L 369.217582 322.390102 
L 370.053746 320.30692 
L 371.726074 349.202883 
L 372.562238 328.023822 
L 375.070729 341.865321 
L 375.906893 344.162758 
L 376.743057 257.458384 
L 377.579221 344.99698 
L 378.415385 267.069229 
L 380.923876 310.155877 
L 381.76004 349.580181 
L 382.596204 343.477062 
L 383.432368 363.46629 
L 384.268531 293.591811 
L 386.777023 366.605126 
L 387.613187 315.817 
L 388.449351 365.946779 
L 389.285514 369.330949 
L 390.121678 359.68863 
L 392.63017 368.01668 
L 393.466334 365.186189 
L 394.302498 307.085052 
L 395.138661 328.939122 
L 395.974825 318.635066 
L 398.483317 362.276129 
L 399.319481 279.632307 
L 400.155644 342.996042 
L 400.991808 278.822587 
L 401.827972 349.988291 
L 404.336464 331.086157 
L 405.172627 278.203685 
L 406.008791 326.915694 
L 406.844955 324.417465 
L 407.681119 367.117899 
L 410.18961 340.713672 
L 411.025774 368.416695 
L 411.861938 365.535244 
L 413.534266 315.194526 
L 416.042757 335.502709 
L 416.878921 349.556626 
L 417.715085 329.799341 
L 418.551249 356.13152 
L 419.387413 325.650538 
L 421.895904 274.935033 
L 422.732068 331.723582 
L 423.568232 367.419526 
L 425.240559 354.554666 
L 427.749051 336.950435 
L 428.585215 356.098882 
L 429.421379 294.314339 
L 430.257542 328.362291 
L 431.093706 356.124612 
L 433.602198 314.950989 
L 434.438362 368.493779 
L 435.274525 364.342327 
L 436.110689 329.917001 
L 436.946853 363.532447 
L 440.291508 290.345221 
L 441.127672 368.663987 
L 441.963836 347.769627 
L 442.8 365.600986 
L 446.144655 354.52092 
L 446.980819 313.007916 
L 447.816983 338.863909 
L 448.653147 350.675309 
L 451.161638 354.998596 
L 451.997802 368.81926 
L 452.833966 294.497576 
L 454.506294 363.927127 
L 457.850949 364.711539 
L 458.687113 365.342417 
L 459.523277 342.965462 
L 460.359441 317.007553 
L 462.867932 304.394444 
L 463.704096 349.245784 
L 464.54026 336.609126 
L 465.376424 327.498061 
L 466.212587 358.40622 
L 468.721079 321.494751 
L 469.557243 322.800955 
L 470.393407 348.056816 
L 471.22957 349.325519 
L 472.065734 355.648317 
L 474.574226 319.087713 
L 475.41039 357.03291 
L 476.246553 313.732249 
L 477.082717 365.561136 
L 477.918881 364.849993 
L 480.427373 361.125549 
L 481.263536 365.546938 
L 482.0997 358.950035 
L 482.935864 306.816128 
L 483.772028 230.930374 
L 487.116683 281.932267 
L 487.952847 344.379344 
L 488.789011 329.124554 
L 489.625175 345.989853 
L 492.133666 329.08324 
L 492.96983 354.987338 
L 493.805994 360.452141 
L 494.642158 357.186249 
L 495.478322 321.371173 
L 497.986813 356.339173 
L 498.822977 326.383043 
L 499.659141 345.824357 
L 500.495305 277.645799 
L 501.331469 300.867269 
L 503.83996 356.416113 
L 504.676124 355.025074 
L 505.512288 301.508876 
L 506.348452 368.093868 
L 507.184615 330.014302 
L 509.693107 338.994282 
L 510.529271 308.631848 
L 511.365435 327.100436 
L 512.201598 366.461604 
L 513.037762 355.912285 
L 516.382418 364.938943 
L 517.218581 330.644413 
L 518.054745 357.112181 
L 518.890909 360.826331 
L 521.399401 353.246023 
L 522.235564 313.017646 
L 523.071728 283.156544 
L 523.907892 355.295798 
L 527.252547 333.926128 
L 528.088711 356.602783 
L 528.924875 369.36 
L 529.761039 360.608337 
L 530.597203 362.800286 
L 533.105694 356.798229 
L 533.941858 365.252987 
L 534.778022 359.502894 
L 536.45035 225.933578 
L 540.631169 334.859955 
L 541.467333 333.809724 
L 542.303497 365.466822 
L 544.811988 307.898746 
L 545.648152 339.357451 
L 546.484316 365.572581 
L 547.32048 348.009309 
L 548.156643 338.373262 
L 550.665135 323.364578 
L 551.501299 302.988465 
L 552.337463 364.812909 
L 553.173626 341.627957 
L 554.00979 350.56342 
L 556.518282 315.138192 
L 557.354446 356.650295 
L 558.190609 354.146496 
L 559.026773 355.417732 
L 559.862937 330.031114 
L 562.371429 353.835441 
L 563.207592 307.712373 
L 564.043756 344.998892 
L 564.87992 322.009921 
L 565.716084 362.898575 
L 569.060739 355.128017 
L 569.896903 312.017521 
L 570.733067 355.351727 
L 571.569231 282.917899 
L 574.077722 355.033086 
L 574.913886 324.325206 
L 575.75005 333.406831 
L 576.586214 364.456212 
L 577.422378 363.979832 
L 579.930869 357.326437 
L 580.767033 306.690769 
L 581.603197 357.169297 
L 582.439361 344.961341 
L 583.275524 353.165652 
L 586.62018 345.458867 
L 587.456344 358.59038 
L 588.292507 343.277959 
L 589.128671 333.885547 
L 591.637163 338.595434 
L 592.473327 358.283041 
L 593.309491 307.63204 
L 594.145654 357.053746 
L 594.981818 344.095699 
L 597.49031 332.261942 
L 599.162637 368.000792 
L 599.998801 360.775005 
L 600.834965 311.129195 
L 603.343457 356.072143 
L 604.17962 365.047265 
L 605.015784 344.864582 
L 605.851948 359.486366 
L 606.688112 332.864221 
L 609.196603 355.658392 
L 610.032767 365.811521 
L 610.868931 343.257105 
L 611.705095 313.148947 
L 612.541259 325.244237 
L 615.04975 336.293196 
L 615.885914 358.421282 
L 616.722078 353.371152 
L 617.558242 342.768133 
L 618.394406 355.606956 
L 620.902897 342.007526 
L 621.739061 341.614607 
L 622.575225 335.606913 
L 623.411389 345.448505 
L 624.247552 364.380069 
L 626.756044 346.495427 
L 627.592208 361.789745 
L 628.428372 359.43404 
L 629.264535 351.422818 
L 630.100699 339.389323 
L 632.609191 355.184587 
L 633.445355 358.369271 
L 634.281518 350.7202 
L 635.117682 360.824611 
L 635.953846 364.143112 
L 638.462338 335.098537 
L 639.298501 368.775863 
L 640.134665 343.467251 
L 640.970829 362.01993 
L 641.806993 362.266606 
L 644.315485 368.709387 
L 645.151648 312.379603 
L 645.987812 363.653102 
L 646.823976 368.604596 
L 647.66014 358.842511 
L 651.004795 365.759042 
L 651.840959 292.892658 
L 652.677123 353.11155 
L 653.513287 346.428891 
L 656.021778 355.537924 
L 656.857942 354.946969 
L 657.694106 367.729048 
L 658.53027 366.552225 
L 659.366434 361.079585 
L 661.874925 352.876644 
L 662.711089 357.146093 
L 663.547253 326.759561 
L 664.383417 325.783124 
L 665.21958 363.52828 
L 667.728072 358.694914 
L 668.564236 342.71968 
L 669.4004 360.910129 
L 670.236563 289.951233 
L 671.072727 350.650051 
L 673.581219 306.884651 
L 674.417383 321.277961 
L 675.253546 355.336393 
L 676.08971 340.131495 
L 676.925874 327.802833 
L 679.434366 334.115102 
L 680.270529 315.156223 
L 681.106693 346.755321 
L 681.942857 320.710657 
L 682.779021 308.921497 
L 685.287512 333.630696 
L 686.123676 355.287716 
L 686.95984 229.088075 
L 687.796004 293.1057 
L 688.632168 312.857105 
L 691.140659 345.645179 
L 691.976823 340.155041 
L 692.812987 330.52465 
L 693.649151 368.319747 
L 694.485315 361.647269 
L 696.993806 296.26123 
L 697.82997 362.674697 
L 698.666134 327.748959 
L 699.502298 351.159038 
L 700.338462 333.183606 
L 702.846953 275.575044 
L 703.683117 339.537665 
L 704.519281 334.396271 
L 705.355445 317.98729 
L 706.191608 341.425119 
L 708.7001 336.542559 
L 709.536264 242.724047 
L 710.372428 343.584788 
L 711.208591 313.691102 
L 712.044755 317.21557 
L 714.553247 338.031073 
L 715.389411 324.489562 
L 716.225574 364.468283 
L 717.897902 345.109611 
L 720.406394 281.104698 
L 721.242557 334.573256 
L 722.078721 363.588051 
L 722.914885 345.928429 
L 723.751049 315.573578 
L 726.25954 301.004611 
L 727.095704 290.905664 
L 727.931868 310.115934 
L 728.768032 290.569168 
L 729.604196 341.034016 
L 732.112687 353.905976 
L 732.948851 354.438223 
L 733.785015 246.126068 
L 734.621179 313.87003 
L 735.457343 358.545862 
L 737.965834 358.732647 
L 738.801998 341.518966 
L 739.638162 309.5899 
L 740.474326 341.800229 
L 741.31049 326.647499 
L 744.655145 348.709758 
L 745.491309 341.702894 
L 746.327473 368.424535 
L 747.163636 323.535693 
L 747.163636 323.535693 
" clip-path="url(#pd6bfd7ed92)" style="fill: none; stroke: #000000; stroke-width: 1.5; stroke-linecap: square"/>
   </g>
   <g id="line2d_16">
    <path d="M 138.436364 349.366601 
L 140.944855 347.672039 
L 141.781019 349.658835 
L 142.617183 348.654333 
L 143.453347 340.025993 
L 144.28951 344.533713 
L 146.798002 346.538899 
L 147.634166 347.861544 
L 148.47033 347.962854 
L 149.306494 348.96803 
L 150.142657 345.198269 
L 153.487313 348.522661 
L 154.323477 343.110833 
L 155.15964 344.68447 
L 155.995804 343.008224 
L 158.504296 338.953096 
L 159.34046 342.911299 
L 160.176623 338.149706 
L 161.012787 338.948963 
L 161.848951 343.267121 
L 164.357443 342.232139 
L 165.193606 343.310702 
L 166.02977 344.734252 
L 166.865934 340.912603 
L 167.702098 335.989683 
L 170.210589 340.300578 
L 171.046753 337.139558 
L 171.882917 340.510195 
L 172.719081 340.795384 
L 173.555245 335.902041 
L 176.063736 330.095756 
L 176.8999 332.356198 
L 177.736064 335.956009 
L 178.572228 337.130571 
L 179.408392 332.527127 
L 182.753047 328.146347 
L 183.589211 330.044394 
L 184.425375 329.7984 
L 185.261538 329.899777 
L 187.77003 330.64037 
L 188.606194 334.816809 
L 189.442358 334.100239 
L 190.278521 337.333925 
L 191.114685 337.473579 
L 193.623177 335.048442 
L 194.459341 329.083793 
L 195.295504 330.579467 
L 196.131668 333.717576 
L 196.967832 331.614773 
L 199.476324 332.286507 
L 200.312488 328.395299 
L 201.148651 330.334059 
L 201.984815 332.828355 
L 202.820979 336.185291 
L 205.329471 339.230569 
L 206.165634 339.580737 
L 207.001798 340.171032 
L 207.837962 338.032127 
L 208.674126 339.534277 
L 211.182617 342.498936 
L 212.018781 344.558956 
L 212.854945 343.977536 
L 213.691109 343.091547 
L 214.527273 339.385741 
L 217.035764 344.385224 
L 217.871928 344.489377 
L 218.708092 341.721852 
L 219.544256 337.962599 
L 220.38042 340.378684 
L 222.888911 339.037572 
L 223.725075 335.191142 
L 224.561239 334.327386 
L 225.397403 337.894776 
L 228.742058 335.321024 
L 229.578222 338.899342 
L 230.414386 341.852061 
L 231.250549 338.916213 
L 232.086713 336.488789 
L 234.595205 329.920495 
L 235.431369 330.037605 
L 236.267532 327.894599 
L 237.103696 321.658096 
L 237.93986 320.786752 
L 240.448352 315.954445 
L 242.120679 326.476511 
L 242.956843 328.308224 
L 243.793007 320.273671 
L 246.301499 323.611178 
L 247.137662 322.050653 
L 248.80999 326.763939 
L 249.646154 327.268849 
L 252.154645 327.167998 
L 252.990809 325.568198 
L 253.826973 327.803873 
L 254.663137 322.389954 
L 255.499301 323.719158 
L 258.007792 325.093083 
L 258.843956 326.886518 
L 259.68012 318.902147 
L 260.516284 325.00721 
L 261.352448 327.449341 
L 264.697103 326.410861 
L 265.533267 327.377394 
L 266.369431 332.664273 
L 267.205594 331.916654 
L 269.714086 327.239975 
L 270.55025 330.000668 
L 272.222577 338.008081 
L 273.058741 334.789379 
L 275.567233 329.457276 
L 276.403397 324.202169 
L 277.23956 327.482783 
L 278.075724 330.05887 
L 278.911888 323.64549 
L 283.092707 329.022191 
L 284.765035 336.868876 
L 287.273526 335.839574 
L 288.945854 327.402614 
L 289.782018 330.071427 
L 290.618182 327.984336 
L 294.799001 333.580901 
L 295.635165 333.422714 
L 296.471329 334.555952 
L 298.97982 338.779877 
L 299.815984 334.441827 
L 300.652148 332.669917 
L 301.488312 330.569675 
L 302.324476 332.100443 
L 304.832967 336.342104 
L 305.669131 332.396961 
L 306.505295 333.423148 
L 307.341459 336.652703 
L 308.177622 338.623664 
L 310.686114 329.562841 
L 311.522278 331.755054 
L 312.358442 329.971256 
L 313.194605 330.824019 
L 314.030769 329.551354 
L 316.539261 334.854931 
L 317.375425 335.656341 
L 318.211588 338.2974 
L 319.047752 338.047217 
L 319.883916 340.231921 
L 322.392408 338.493311 
L 323.228571 340.027336 
L 324.064735 338.725275 
L 324.900899 340.549546 
L 325.737063 339.541511 
L 328.245554 341.267352 
L 329.081718 342.65433 
L 329.917882 342.342769 
L 330.754046 338.817432 
L 331.59021 341.804757 
L 334.098701 337.478618 
L 334.934865 335.38608 
L 335.771029 337.926232 
L 336.607193 342.567661 
L 337.443357 341.135006 
L 339.951848 332.244214 
L 340.788012 331.415909 
L 341.624176 336.548155 
L 342.46034 337.597656 
L 343.296503 338.832519 
L 346.641159 339.784734 
L 347.477323 339.039236 
L 348.313487 342.025077 
L 349.14965 341.722878 
L 351.658142 342.649699 
L 352.494306 345.066906 
L 353.33047 334.372241 
L 354.166633 335.819106 
L 355.002797 335.902076 
L 357.511289 337.657388 
L 358.347453 340.559126 
L 359.183616 335.740318 
L 360.01978 333.42425 
L 360.855944 336.984431 
L 363.364436 335.071797 
L 364.200599 335.656458 
L 365.872927 336.436054 
L 366.709091 332.535008 
L 369.217582 330.149766 
L 370.053746 333.304972 
L 371.726074 337.859425 
L 372.562238 341.133797 
L 375.070729 335.017929 
L 375.906893 337.942779 
L 376.743057 339.152571 
L 377.579221 341.319296 
L 378.415385 341.178535 
L 380.923876 336.160732 
L 381.76004 337.341664 
L 382.596204 339.335412 
L 383.432368 338.553639 
L 384.268531 341.704671 
L 386.777023 341.519905 
L 387.613187 340.571598 
L 388.449351 343.55378 
L 389.285514 330.370271 
L 390.121678 329.261363 
L 392.63017 332.98949 
L 393.466334 331.315507 
L 394.302498 328.577277 
L 395.138661 324.77714 
L 395.974825 319.342015 
L 398.483317 320.775848 
L 399.319481 323.736363 
L 400.155644 330.048774 
L 400.991808 329.503109 
L 401.827972 329.32892 
L 404.336464 327.547596 
L 405.172627 330.336064 
L 406.008791 331.064162 
L 406.844955 332.92193 
L 407.681119 334.019948 
L 410.18961 334.665433 
L 411.025774 331.827253 
L 411.861938 333.535814 
L 413.534266 334.75139 
L 416.042757 333.483145 
L 416.878921 332.77443 
L 417.715085 333.123739 
L 418.551249 332.694081 
L 419.387413 332.068724 
L 421.895904 334.969777 
L 422.732068 333.713523 
L 423.568232 328.792365 
L 424.404396 325.987906 
L 425.240559 330.072865 
L 427.749051 331.258688 
L 428.585215 336.35501 
L 429.421379 336.979294 
L 430.257542 340.464342 
L 431.093706 337.254922 
L 433.602198 341.109751 
L 434.438362 339.922575 
L 435.274525 342.608558 
L 436.110689 343.733717 
L 436.946853 339.652616 
L 440.291508 340.543925 
L 441.127672 338.120931 
L 441.963836 336.722735 
L 442.8 338.300824 
L 446.144655 338.96117 
L 446.980819 340.434835 
L 447.816983 338.910872 
L 448.653147 336.87082 
L 451.161638 339.021577 
L 452.833966 341.783713 
L 453.67013 340.350663 
L 454.506294 340.72724 
L 457.850949 342.085927 
L 458.687113 340.891974 
L 460.359441 340.923608 
L 462.867932 340.167095 
L 463.704096 342.063802 
L 465.376424 338.18869 
L 466.212587 340.09518 
L 468.721079 341.32442 
L 469.557243 337.398968 
L 470.393407 341.793354 
L 471.22957 343.377701 
L 472.065734 340.695419 
L 474.574226 336.099261 
L 475.41039 335.790419 
L 476.246553 337.966172 
L 477.082717 327.234137 
L 477.918881 320.907429 
L 480.427373 325.518356 
L 481.263536 333.759279 
L 482.0997 336.440977 
L 482.935864 335.855738 
L 483.772028 332.340913 
L 487.116683 331.812269 
L 487.952847 327.219557 
L 489.625175 330.981082 
L 492.133666 328.291132 
L 492.96983 330.238303 
L 493.805994 334.114706 
L 494.642158 335.604148 
L 495.478322 334.962344 
L 497.986813 334.662264 
L 498.822977 334.19653 
L 499.659141 331.794345 
L 500.495305 334.709823 
L 501.331469 331.588587 
L 503.83996 327.711531 
L 504.676124 329.833917 
L 505.512288 331.408862 
L 507.184615 328.008159 
L 509.693107 328.325632 
L 510.529271 333.918893 
L 511.365435 336.06823 
L 512.201598 334.726236 
L 513.037762 342.944179 
L 515.546254 348.478561 
L 516.382418 342.904374 
L 517.218581 342.790193 
L 518.054745 346.18869 
L 518.890909 345.139698 
L 521.399401 344.85408 
L 522.235564 346.69121 
L 523.071728 349.738744 
L 523.907892 349.325028 
L 527.252547 346.04972 
L 528.088711 344.815997 
L 528.924875 346.45592 
L 530.597203 346.282829 
L 533.105694 347.451261 
L 533.941858 342.879537 
L 534.778022 343.060078 
L 535.614186 347.213058 
L 536.45035 346.983953 
L 538.958841 349.595054 
L 539.795005 348.796309 
L 540.631169 344.233564 
L 541.467333 346.346302 
L 542.303497 344.824825 
L 544.811988 346.909927 
L 545.648152 346.614672 
L 546.484316 343.557378 
L 547.32048 346.764496 
L 548.156643 345.239212 
L 550.665135 346.902913 
L 551.501299 345.96345 
L 552.337463 348.317851 
L 553.173626 345.792 
L 554.00979 344.971519 
L 556.518282 348.500556 
L 557.354446 348.462506 
L 558.190609 347.162888 
L 559.026773 348.544773 
L 562.371429 349.634448 
L 563.207592 348.899948 
L 564.043756 345.466152 
L 564.87992 345.171354 
L 565.716084 346.785536 
L 569.060739 348.403536 
L 569.896903 350.406335 
L 570.733067 349.771807 
L 571.569231 351.321621 
L 574.077722 351.979304 
L 574.913886 351.423155 
L 575.75005 351.404561 
L 576.586214 344.247016 
L 577.422378 349.236328 
L 579.930869 351.170208 
L 580.767033 349.55954 
L 581.603197 351.037466 
L 582.439361 351.580746 
L 583.275524 350.279843 
L 586.62018 347.949184 
L 587.456344 350.58434 
L 588.292507 346.073798 
L 589.128671 347.544497 
L 591.637163 347.783275 
L 592.473327 341.947261 
L 593.309491 346.54496 
L 594.145654 346.109006 
L 594.981818 345.296696 
L 597.49031 346.619782 
L 599.162637 346.293237 
L 599.998801 345.520816 
L 600.834965 343.64373 
L 603.343457 345.58339 
L 604.17962 341.90034 
L 605.015784 344.966579 
L 605.851948 345.356485 
L 606.688112 343.075889 
L 609.196603 345.470364 
L 610.032767 345.865855 
L 610.868931 345.447677 
L 611.705095 344.341277 
L 612.541259 340.823025 
L 615.04975 346.008658 
L 615.885914 346.246915 
L 616.722078 346.789385 
L 617.558242 342.763914 
L 618.394406 346.630201 
L 620.902897 345.579085 
L 621.739061 347.886725 
L 622.575225 345.927615 
L 623.411389 341.713435 
L 624.247552 346.330932 
L 626.756044 346.240013 
L 627.592208 344.786967 
L 628.428372 348.991595 
L 629.264535 346.092758 
L 630.100699 349.46037 
L 632.609191 350.0318 
L 633.445355 348.806566 
L 634.281518 346.637725 
L 635.117682 346.142798 
L 635.953846 348.066203 
L 638.462338 344.728826 
L 639.298501 349.505119 
L 640.134665 349.708506 
L 640.970829 347.452641 
L 641.806993 344.529481 
L 644.315485 348.801187 
L 645.151648 349.051861 
L 645.987812 347.024347 
L 646.823976 348.571861 
L 647.66014 351.609323 
L 651.004795 351.073462 
L 651.840959 351.795344 
L 652.677123 349.278833 
L 653.513287 350.502759 
L 656.021778 350.543801 
L 656.857942 351.060854 
L 657.694106 348.070268 
L 659.366434 351.516401 
L 661.874925 351.492136 
L 662.711089 351.992371 
L 663.547253 352.362222 
L 664.383417 344.910639 
L 665.21958 342.85892 
L 667.728072 347.18189 
L 668.564236 348.189488 
L 669.4004 343.492212 
L 670.236563 344.928523 
L 671.072727 346.949682 
L 673.581219 345.64704 
L 674.417383 346.722023 
L 675.253546 344.795034 
L 676.08971 345.569537 
L 676.925874 348.196644 
L 679.434366 348.281643 
L 680.270529 349.354783 
L 681.106693 349.738181 
L 681.942857 348.554632 
L 682.779021 347.641485 
L 685.287512 345.84149 
L 686.123676 347.685843 
L 686.95984 349.107611 
L 687.796004 346.210119 
L 688.632168 346.960704 
L 691.140659 343.687696 
L 691.976823 345.933451 
L 692.812987 346.911025 
L 693.649151 331.551081 
L 694.485315 329.469537 
L 697.82997 340.899667 
L 698.666134 341.834687 
L 699.502298 343.490281 
L 700.338462 345.444213 
L 702.846953 345.140683 
L 703.683117 345.625441 
L 704.519281 346.853236 
L 705.355445 346.993141 
L 706.191608 344.452275 
L 708.7001 345.136697 
L 709.536264 345.95865 
L 711.208591 346.603763 
L 712.044755 345.525829 
L 714.553247 343.928489 
L 715.389411 346.443546 
L 716.225574 347.087628 
L 717.897902 346.676553 
L 720.406394 344.703785 
L 721.242557 347.605313 
L 722.078721 347.858028 
L 722.914885 343.981491 
L 723.751049 342.594255 
L 726.25954 344.881877 
L 727.095704 342.270243 
L 727.931868 344.136652 
L 728.768032 344.464292 
L 729.604196 345.923423 
L 732.112687 348.684274 
L 732.948851 348.903522 
L 733.785015 349.680371 
L 734.621179 352.079825 
L 735.457343 349.917131 
L 737.965834 351.596036 
L 738.801998 349.412059 
L 739.638162 350.976778 
L 740.474326 350.692846 
L 741.31049 349.844915 
L 744.655145 351.286763 
L 745.491309 352.380253 
L 746.327473 349.995666 
L 747.163636 351.777684 
L 747.163636 351.777684 
" clip-path="url(#pd6bfd7ed92)" style="fill: none; stroke: #1f77b4; stroke-width: 1.5; stroke-linecap: square"/>
   </g>
   <g id="patch_3">
    <path d="M 108 384.48 
L 108 51.84 
" style="fill: none; stroke: #000000; stroke-width: 0.8; stroke-linejoin: miter; stroke-linecap: square"/>
   </g>
   <g id="patch_4">
    <path d="M 777.6 384.48 
L 777.6 51.84 
" style="fill: none; stroke: #000000; stroke-width: 0.8; stroke-linejoin: miter; stroke-linecap: square"/>
   </g>
   <g id="patch_5">
    <path d="M 108 384.48 
L 777.6 384.48 
" style="fill: none; stroke: #000000; stroke-width: 0.8; stroke-linejoin: miter; stroke-linecap: square"/>
   </g>
   <g id="patch_6">
    <path d="M 108 51.84 
L 777.6 51.84 
" style="fill: none; stroke: #000000; stroke-width: 0.8; stroke-linejoin: miter; stroke-linecap: square"/>
   </g>
   <g id="text_17">
    <!-- Volatility Prediction with LSTM MDN v3 -->
    <g transform="translate(327.174375 45.84) scale(0.12 -0.12)">
     <defs>
      <path id="DejaVuSans-20" transform="scale(0.015625)"/>
      <path id="DejaVuSans-50" d="M 1259 4147 
L 1259 2394 
L 2053 2394 
Q 2494 2394 2734 2622 
Q 2975 2850 2975 3272 
Q 2975 3691 2734 3919 
Q 2494 4147 2053 4147 
L 1259 4147 
z
M 628 4666 
L 2053 4666 
Q 2838 4666 3239 4311 
Q 3641 3956 3641 3272 
Q 3641 2581 3239 2228 
Q 2838 1875 2053 1875 
L 1259 1875 
L 1259 0 
L 628 0 
L 628 4666 
z
" transform="scale(0.015625)"/>
      <path id="DejaVuSans-72" d="M 2631 2963 
Q 2534 3019 2420 3045 
Q 2306 3072 2169 3072 
Q 1681 3072 1420 2755 
Q 1159 2438 1159 1844 
L 1159 0 
L 581 0 
L 581 3500 
L 1159 3500 
L 1159 2956 
Q 1341 3275 1631 3429 
Q 1922 3584 2338 3584 
Q 2397 3584 2469 3576 
Q 2541 3569 2628 3553 
L 2631 2963 
z
" transform="scale(0.015625)"/>
      <path id="DejaVuSans-64" d="M 2906 2969 
L 2906 4863 
L 3481 4863 
L 3481 0 
L 2906 0 
L 2906 525 
Q 2725 213 2448 61 
Q 2172 -91 1784 -91 
Q 1150 -91 751 415 
Q 353 922 353 1747 
Q 353 2572 751 3078 
Q 1150 3584 1784 3584 
Q 2172 3584 2448 3432 
Q 2725 3281 2906 2969 
z
M 947 1747 
Q 947 1113 1208 752 
Q 1469 391 1925 391 
Q 2381 391 2643 752 
Q 2906 1113 2906 1747 
Q 2906 2381 2643 2742 
Q 2381 3103 1925 3103 
Q 1469 3103 1208 2742 
Q 947 2381 947 1747 
z
" transform="scale(0.015625)"/>
      <path id="DejaVuSans-63" d="M 3122 3366 
L 3122 2828 
Q 2878 2963 2633 3030 
Q 2388 3097 2138 3097 
Q 1578 3097 1268 2742 
Q 959 2388 959 1747 
Q 959 1106 1268 751 
Q 1578 397 2138 397 
Q 2388 397 2633 464 
Q 2878 531 3122 666 
L 3122 134 
Q 2881 22 2623 -34 
Q 2366 -91 2075 -91 
Q 1284 -91 818 406 
Q 353 903 353 1747 
Q 353 2603 823 3093 
Q 1294 3584 2113 3584 
Q 2378 3584 2631 3529 
Q 2884 3475 3122 3366 
z
" transform="scale(0.015625)"/>
      <path id="DejaVuSans-6e" d="M 3513 2113 
L 3513 0 
L 2938 0 
L 2938 2094 
Q 2938 2591 2744 2837 
Q 2550 3084 2163 3084 
Q 1697 3084 1428 2787 
Q 1159 2491 1159 1978 
L 1159 0 
L 581 0 
L 581 3500 
L 1159 3500 
L 1159 2956 
Q 1366 3272 1645 3428 
Q 1925 3584 2291 3584 
Q 2894 3584 3203 3211 
Q 3513 2838 3513 2113 
z
" transform="scale(0.015625)"/>
      <path id="DejaVuSans-77" d="M 269 3500 
L 844 3500 
L 1563 769 
L 2278 3500 
L 2956 3500 
L 3675 769 
L 4391 3500 
L 4966 3500 
L 4050 0 
L 3372 0 
L 2619 2869 
L 1863 0 
L 1184 0 
L 269 3500 
z
" transform="scale(0.015625)"/>
      <path id="DejaVuSans-68" d="M 3513 2113 
L 3513 0 
L 2938 0 
L 2938 2094 
Q 2938 2591 2744 2837 
Q 2550 3084 2163 3084 
Q 1697 3084 1428 2787 
Q 1159 2491 1159 1978 
L 1159 0 
L 581 0 
L 581 4863 
L 1159 4863 
L 1159 2956 
Q 1366 3272 1645 3428 
Q 1925 3584 2291 3584 
Q 2894 3584 3203 3211 
Q 3513 2838 3513 2113 
z
" transform="scale(0.015625)"/>
      <path id="DejaVuSans-4c" d="M 628 4666 
L 1259 4666 
L 1259 531 
L 3531 531 
L 3531 0 
L 628 0 
L 628 4666 
z
" transform="scale(0.015625)"/>
      <path id="DejaVuSans-53" d="M 3425 4513 
L 3425 3897 
Q 3066 4069 2747 4153 
Q 2428 4238 2131 4238 
Q 1616 4238 1336 4038 
Q 1056 3838 1056 3469 
Q 1056 3159 1242 3001 
Q 1428 2844 1947 2747 
L 2328 2669 
Q 3034 2534 3370 2195 
Q 3706 1856 3706 1288 
Q 3706 609 3251 259 
Q 2797 -91 1919 -91 
Q 1588 -91 1214 -16 
Q 841 59 441 206 
L 441 856 
Q 825 641 1194 531 
Q 1563 422 1919 422 
Q 2459 422 2753 634 
Q 3047 847 3047 1241 
Q 3047 1584 2836 1778 
Q 2625 1972 2144 2069 
L 1759 2144 
Q 1053 2284 737 2584 
Q 422 2884 422 3419 
Q 422 4038 858 4394 
Q 1294 4750 2059 4750 
Q 2388 4750 2728 4690 
Q 3069 4631 3425 4513 
z
" transform="scale(0.015625)"/>
      <path id="DejaVuSans-54" d="M -19 4666 
L 3928 4666 
L 3928 4134 
L 2272 4134 
L 2272 0 
L 1638 0 
L 1638 4134 
L -19 4134 
L -19 4666 
z
" transform="scale(0.015625)"/>
      <path id="DejaVuSans-4d" d="M 628 4666 
L 1569 4666 
L 2759 1491 
L 3956 4666 
L 4897 4666 
L 4897 0 
L 4281 0 
L 4281 4097 
L 3078 897 
L 2444 897 
L 1241 4097 
L 1241 0 
L 628 0 
L 628 4666 
z
" transform="scale(0.015625)"/>
      <path id="DejaVuSans-4e" d="M 628 4666 
L 1478 4666 
L 3547 763 
L 3547 4666 
L 4159 4666 
L 4159 0 
L 3309 0 
L 1241 3903 
L 1241 0 
L 628 0 
L 628 4666 
z
" transform="scale(0.015625)"/>
      <path id="DejaVuSans-76" d="M 191 3500 
L 800 3500 
L 1894 563 
L 2988 3500 
L 3597 3500 
L 2284 0 
L 1503 0 
L 191 3500 
z
" transform="scale(0.015625)"/>
     </defs>
     <use xlink:href="#DejaVuSans-56"/>
     <use xlink:href="#DejaVuSans-6f" transform="translate(60.658203 0)"/>
     <use xlink:href="#DejaVuSans-6c" transform="translate(121.839844 0)"/>
     <use xlink:href="#DejaVuSans-61" transform="translate(149.623047 0)"/>
     <use xlink:href="#DejaVuSans-74" transform="translate(210.902344 0)"/>
     <use xlink:href="#DejaVuSans-69" transform="translate(250.111328 0)"/>
     <use xlink:href="#DejaVuSans-6c" transform="translate(277.894531 0)"/>
     <use xlink:href="#DejaVuSans-69" transform="translate(305.677734 0)"/>
     <use xlink:href="#DejaVuSans-74" transform="translate(333.460938 0)"/>
     <use xlink:href="#DejaVuSans-79" transform="translate(372.669922 0)"/>
     <use xlink:href="#DejaVuSans-20" transform="translate(431.849609 0)"/>
     <use xlink:href="#DejaVuSans-50" transform="translate(463.636719 0)"/>
     <use xlink:href="#DejaVuSans-72" transform="translate(522.189453 0)"/>
     <use xlink:href="#DejaVuSans-65" transform="translate(561.052734 0)"/>
     <use xlink:href="#DejaVuSans-64" transform="translate(622.576172 0)"/>
     <use xlink:href="#DejaVuSans-69" transform="translate(686.052734 0)"/>
     <use xlink:href="#DejaVuSans-63" transform="translate(713.835938 0)"/>
     <use xlink:href="#DejaVuSans-74" transform="translate(768.816406 0)"/>
     <use xlink:href="#DejaVuSans-69" transform="translate(808.025391 0)"/>
     <use xlink:href="#DejaVuSans-6f" transform="translate(835.808594 0)"/>
     <use xlink:href="#DejaVuSans-6e" transform="translate(896.990234 0)"/>
     <use xlink:href="#DejaVuSans-20" transform="translate(960.369141 0)"/>
     <use xlink:href="#DejaVuSans-77" transform="translate(992.15625 0)"/>
     <use xlink:href="#DejaVuSans-69" transform="translate(1073.943359 0)"/>
     <use xlink:href="#DejaVuSans-74" transform="translate(1101.726562 0)"/>
     <use xlink:href="#DejaVuSans-68" transform="translate(1140.935547 0)"/>
     <use xlink:href="#DejaVuSans-20" transform="translate(1204.314453 0)"/>
     <use xlink:href="#DejaVuSans-4c" transform="translate(1236.101562 0)"/>
     <use xlink:href="#DejaVuSans-53" transform="translate(1291.814453 0)"/>
     <use xlink:href="#DejaVuSans-54" transform="translate(1355.291016 0)"/>
     <use xlink:href="#DejaVuSans-4d" transform="translate(1416.375 0)"/>
     <use xlink:href="#DejaVuSans-20" transform="translate(1502.654297 0)"/>
     <use xlink:href="#DejaVuSans-4d" transform="translate(1534.441406 0)"/>
     <use xlink:href="#DejaVuSans-44" transform="translate(1620.720703 0)"/>
     <use xlink:href="#DejaVuSans-4e" transform="translate(1697.722656 0)"/>
     <use xlink:href="#DejaVuSans-20" transform="translate(1772.527344 0)"/>
     <use xlink:href="#DejaVuSans-76" transform="translate(1804.314453 0)"/>
     <use xlink:href="#DejaVuSans-33" transform="translate(1863.494141 0)"/>
    </g>
   </g>
   <g id="legend_1">
    <g id="patch_7">
     <path d="M 570.282812 89.19625 
L 770.6 89.19625 
Q 772.6 89.19625 772.6 87.19625 
L 772.6 58.84 
Q 772.6 56.84 770.6 56.84 
L 570.282812 56.84 
Q 568.282812 56.84 568.282812 58.84 
L 568.282812 87.19625 
Q 568.282812 89.19625 570.282812 89.19625 
z
" style="fill: #ffffff; opacity: 0.8; stroke: #cccccc; stroke-linejoin: miter"/>
    </g>
    <g id="line2d_17">
     <path d="M 572.282812 64.938437 
L 582.282812 64.938437 
L 592.282812 64.938437 
" style="fill: none; stroke: #000000; stroke-width: 1.5; stroke-linecap: square"/>
    </g>
    <g id="text_18">
     <!-- Absolute Returns -->
     <g transform="translate(600.282812 68.438437) scale(0.1 -0.1)">
      <defs>
       <path id="DejaVuSans-41" d="M 2188 4044 
L 1331 1722 
L 3047 1722 
L 2188 4044 
z
M 1831 4666 
L 2547 4666 
L 4325 0 
L 3669 0 
L 3244 1197 
L 1141 1197 
L 716 0 
L 50 0 
L 1831 4666 
z
" transform="scale(0.015625)"/>
       <path id="DejaVuSans-62" d="M 3116 1747 
Q 3116 2381 2855 2742 
Q 2594 3103 2138 3103 
Q 1681 3103 1420 2742 
Q 1159 2381 1159 1747 
Q 1159 1113 1420 752 
Q 1681 391 2138 391 
Q 2594 391 2855 752 
Q 3116 1113 3116 1747 
z
M 1159 2969 
Q 1341 3281 1617 3432 
Q 1894 3584 2278 3584 
Q 2916 3584 3314 3078 
Q 3713 2572 3713 1747 
Q 3713 922 3314 415 
Q 2916 -91 2278 -91 
Q 1894 -91 1617 61 
Q 1341 213 1159 525 
L 1159 0 
L 581 0 
L 581 4863 
L 1159 4863 
L 1159 2969 
z
" transform="scale(0.015625)"/>
       <path id="DejaVuSans-73" d="M 2834 3397 
L 2834 2853 
Q 2591 2978 2328 3040 
Q 2066 3103 1784 3103 
Q 1356 3103 1142 2972 
Q 928 2841 928 2578 
Q 928 2378 1081 2264 
Q 1234 2150 1697 2047 
L 1894 2003 
Q 2506 1872 2764 1633 
Q 3022 1394 3022 966 
Q 3022 478 2636 193 
Q 2250 -91 1575 -91 
Q 1294 -91 989 -36 
Q 684 19 347 128 
L 347 722 
Q 666 556 975 473 
Q 1284 391 1588 391 
Q 1994 391 2212 530 
Q 2431 669 2431 922 
Q 2431 1156 2273 1281 
Q 2116 1406 1581 1522 
L 1381 1569 
Q 847 1681 609 1914 
Q 372 2147 372 2553 
Q 372 3047 722 3315 
Q 1072 3584 1716 3584 
Q 2034 3584 2315 3537 
Q 2597 3491 2834 3397 
z
" transform="scale(0.015625)"/>
       <path id="DejaVuSans-75" d="M 544 1381 
L 544 3500 
L 1119 3500 
L 1119 1403 
Q 1119 906 1312 657 
Q 1506 409 1894 409 
Q 2359 409 2629 706 
Q 2900 1003 2900 1516 
L 2900 3500 
L 3475 3500 
L 3475 0 
L 2900 0 
L 2900 538 
Q 2691 219 2414 64 
Q 2138 -91 1772 -91 
Q 1169 -91 856 284 
Q 544 659 544 1381 
z
M 1991 3584 
L 1991 3584 
z
" transform="scale(0.015625)"/>
       <path id="DejaVuSans-52" d="M 2841 2188 
Q 3044 2119 3236 1894 
Q 3428 1669 3622 1275 
L 4263 0 
L 3584 0 
L 2988 1197 
Q 2756 1666 2539 1819 
Q 2322 1972 1947 1972 
L 1259 1972 
L 1259 0 
L 628 0 
L 628 4666 
L 2053 4666 
Q 2853 4666 3247 4331 
Q 3641 3997 3641 3322 
Q 3641 2881 3436 2590 
Q 3231 2300 2841 2188 
z
M 1259 4147 
L 1259 2491 
L 2053 2491 
Q 2509 2491 2742 2702 
Q 2975 2913 2975 3322 
Q 2975 3731 2742 3939 
Q 2509 4147 2053 4147 
L 1259 4147 
z
" transform="scale(0.015625)"/>
      </defs>
      <use xlink:href="#DejaVuSans-41"/>
      <use xlink:href="#DejaVuSans-62" transform="translate(68.408203 0)"/>
      <use xlink:href="#DejaVuSans-73" transform="translate(131.884766 0)"/>
      <use xlink:href="#DejaVuSans-6f" transform="translate(183.984375 0)"/>
      <use xlink:href="#DejaVuSans-6c" transform="translate(245.166016 0)"/>
      <use xlink:href="#DejaVuSans-75" transform="translate(272.949219 0)"/>
      <use xlink:href="#DejaVuSans-74" transform="translate(336.328125 0)"/>
      <use xlink:href="#DejaVuSans-65" transform="translate(375.537109 0)"/>
      <use xlink:href="#DejaVuSans-20" transform="translate(437.060547 0)"/>
      <use xlink:href="#DejaVuSans-52" transform="translate(468.847656 0)"/>
      <use xlink:href="#DejaVuSans-65" transform="translate(533.830078 0)"/>
      <use xlink:href="#DejaVuSans-74" transform="translate(595.353516 0)"/>
      <use xlink:href="#DejaVuSans-75" transform="translate(634.5625 0)"/>
      <use xlink:href="#DejaVuSans-72" transform="translate(697.941406 0)"/>
      <use xlink:href="#DejaVuSans-6e" transform="translate(737.304688 0)"/>
      <use xlink:href="#DejaVuSans-73" transform="translate(800.683594 0)"/>
     </g>
    </g>
    <g id="line2d_18">
     <path d="M 572.282812 79.616562 
L 582.282812 79.616562 
L 592.282812 79.616562 
" style="fill: none; stroke: #1f77b4; stroke-width: 1.5; stroke-linecap: square"/>
    </g>
    <g id="text_19">
     <!-- LSTM MDN v3 Volatility Prediction -->
     <g transform="translate(600.282812 83.116562) scale(0.1 -0.1)">
      <use xlink:href="#DejaVuSans-4c"/>
      <use xlink:href="#DejaVuSans-53" transform="translate(55.712891 0)"/>
      <use xlink:href="#DejaVuSans-54" transform="translate(119.189453 0)"/>
      <use xlink:href="#DejaVuSans-4d" transform="translate(180.273438 0)"/>
      <use xlink:href="#DejaVuSans-20" transform="translate(266.552734 0)"/>
      <use xlink:href="#DejaVuSans-4d" transform="translate(298.339844 0)"/>
      <use xlink:href="#DejaVuSans-44" transform="translate(384.619141 0)"/>
      <use xlink:href="#DejaVuSans-4e" transform="translate(461.621094 0)"/>
      <use xlink:href="#DejaVuSans-20" transform="translate(536.425781 0)"/>
      <use xlink:href="#DejaVuSans-76" transform="translate(568.212891 0)"/>
      <use xlink:href="#DejaVuSans-33" transform="translate(627.392578 0)"/>
      <use xlink:href="#DejaVuSans-20" transform="translate(691.015625 0)"/>
      <use xlink:href="#DejaVuSans-56" transform="translate(722.802734 0)"/>
      <use xlink:href="#DejaVuSans-6f" transform="translate(783.460938 0)"/>
      <use xlink:href="#DejaVuSans-6c" transform="translate(844.642578 0)"/>
      <use xlink:href="#DejaVuSans-61" transform="translate(872.425781 0)"/>
      <use xlink:href="#DejaVuSans-74" transform="translate(933.705078 0)"/>
      <use xlink:href="#DejaVuSans-69" transform="translate(972.914062 0)"/>
      <use xlink:href="#DejaVuSans-6c" transform="translate(1000.697266 0)"/>
      <use xlink:href="#DejaVuSans-69" transform="translate(1028.480469 0)"/>
      <use xlink:href="#DejaVuSans-74" transform="translate(1056.263672 0)"/>
      <use xlink:href="#DejaVuSans-79" transform="translate(1095.472656 0)"/>
      <use xlink:href="#DejaVuSans-20" transform="translate(1154.652344 0)"/>
      <use xlink:href="#DejaVuSans-50" transform="translate(1186.439453 0)"/>
      <use xlink:href="#DejaVuSans-72" transform="translate(1244.992188 0)"/>
      <use xlink:href="#DejaVuSans-65" transform="translate(1283.855469 0)"/>
      <use xlink:href="#DejaVuSans-64" transform="translate(1345.378906 0)"/>
      <use xlink:href="#DejaVuSans-69" transform="translate(1408.855469 0)"/>
      <use xlink:href="#DejaVuSans-63" transform="translate(1436.638672 0)"/>
      <use xlink:href="#DejaVuSans-74" transform="translate(1491.619141 0)"/>
      <use xlink:href="#DejaVuSans-69" transform="translate(1530.828125 0)"/>
      <use xlink:href="#DejaVuSans-6f" transform="translate(1558.611328 0)"/>
      <use xlink:href="#DejaVuSans-6e" transform="translate(1619.792969 0)"/>
     </g>
    </g>
   </g>
  </g>
 </g>
 <defs>
  <clipPath id="pd6bfd7ed92">
   <rect x="108" y="51.84" width="669.6" height="332.64"/>
  </clipPath>
 </defs>
</svg>
