<?xml version="1.0" encoding="utf-8" standalone="no"?>
<!DOCTYPE svg PUBLIC "-//W3C//DTD SVG 1.1//EN"
  "http://www.w3.org/Graphics/SVG/1.1/DTD/svg11.dtd">
<svg xmlns:xlink="http://www.w3.org/1999/xlink" width="864pt" height="432pt" viewBox="0 0 864 432" xmlns="http://www.w3.org/2000/svg" version="1.1">
 <metadata>
  <rdf:RDF xmlns:dc="http://purl.org/dc/elements/1.1/" xmlns:cc="http://creativecommons.org/ns#" xmlns:rdf="http://www.w3.org/1999/02/22-rdf-syntax-ns#">
   <cc:Work>
    <dc:type rdf:resource="http://purl.org/dc/dcmitype/StillImage"/>
    <dc:date>2025-02-16T20:28:26.961220</dc:date>
    <dc:format>image/svg+xml</dc:format>
    <dc:creator>
     <cc:Agent>
      <dc:title>Matplotlib v3.10.0, https://matplotlib.org/</dc:title>
     </cc:Agent>
    </dc:creator>
   </cc:Work>
  </rdf:RDF>
 </metadata>
 <defs>
  <style type="text/css">*{stroke-linejoin: round; stroke-linecap: butt}</style>
 </defs>
 <g id="figure_1">
  <g id="patch_1">
   <path d="M 0 432 
L 864 432 
L 864 0 
L 0 0 
z
" style="fill: #ffffff"/>
  </g>
  <g id="axes_1">
   <g id="patch_2">
    <path d="M 108 384.48 
L 777.6 384.48 
L 777.6 51.84 
L 108 51.84 
z
" style="fill: #ffffff"/>
   </g>
   <g id="matplotlib.axis_1">
    <g id="xtick_1">
     <g id="line2d_1">
      <defs>
       <path id="m535776b1f3" d="M 0 0 
L 0 3.5 
" style="stroke: #000000; stroke-width: 0.8"/>
      </defs>
      <g>
       <use xlink:href="#m535776b1f3" x="139.272527" y="384.48" style="stroke: #000000; stroke-width: 0.8"/>
      </g>
     </g>
     <g id="text_1">
      <!-- 2022-01 -->
      <g transform="translate(118.381121 399.078438) scale(0.1 -0.1)">
       <defs>
        <path id="DejaVuSans-32" d="M 1228 531 
L 3431 531 
L 3431 0 
L 469 0 
L 469 531 
Q 828 903 1448 1529 
Q 2069 2156 2228 2338 
Q 2531 2678 2651 2914 
Q 2772 3150 2772 3378 
Q 2772 3750 2511 3984 
Q 2250 4219 1831 4219 
Q 1534 4219 1204 4116 
Q 875 4013 500 3803 
L 500 4441 
Q 881 4594 1212 4672 
Q 1544 4750 1819 4750 
Q 2544 4750 2975 4387 
Q 3406 4025 3406 3419 
Q 3406 3131 3298 2873 
Q 3191 2616 2906 2266 
Q 2828 2175 2409 1742 
Q 1991 1309 1228 531 
z
" transform="scale(0.015625)"/>
        <path id="DejaVuSans-30" d="M 2034 4250 
Q 1547 4250 1301 3770 
Q 1056 3291 1056 2328 
Q 1056 1369 1301 889 
Q 1547 409 2034 409 
Q 2525 409 2770 889 
Q 3016 1369 3016 2328 
Q 3016 3291 2770 3770 
Q 2525 4250 2034 4250 
z
M 2034 4750 
Q 2819 4750 3233 4129 
Q 3647 3509 3647 2328 
Q 3647 1150 3233 529 
Q 2819 -91 2034 -91 
Q 1250 -91 836 529 
Q 422 1150 422 2328 
Q 422 3509 836 4129 
Q 1250 4750 2034 4750 
z
" transform="scale(0.015625)"/>
        <path id="DejaVuSans-2d" d="M 313 2009 
L 1997 2009 
L 1997 1497 
L 313 1497 
L 313 2009 
z
" transform="scale(0.015625)"/>
        <path id="DejaVuSans-31" d="M 794 531 
L 1825 531 
L 1825 4091 
L 703 3866 
L 703 4441 
L 1819 4666 
L 2450 4666 
L 2450 531 
L 3481 531 
L 3481 0 
L 794 0 
L 794 531 
z
" transform="scale(0.015625)"/>
       </defs>
       <use xlink:href="#DejaVuSans-32"/>
       <use xlink:href="#DejaVuSans-30" transform="translate(63.623047 0)"/>
       <use xlink:href="#DejaVuSans-32" transform="translate(127.246094 0)"/>
       <use xlink:href="#DejaVuSans-32" transform="translate(190.869141 0)"/>
       <use xlink:href="#DejaVuSans-2d" transform="translate(254.492188 0)"/>
       <use xlink:href="#DejaVuSans-30" transform="translate(290.576172 0)"/>
       <use xlink:href="#DejaVuSans-31" transform="translate(354.199219 0)"/>
      </g>
     </g>
    </g>
    <g id="xtick_2">
     <g id="line2d_2">
      <g>
       <use xlink:href="#m535776b1f3" x="214.527273" y="384.48" style="stroke: #000000; stroke-width: 0.8"/>
      </g>
     </g>
     <g id="text_2">
      <!-- 2022-04 -->
      <g transform="translate(193.635866 399.078438) scale(0.1 -0.1)">
       <defs>
        <path id="DejaVuSans-34" d="M 2419 4116 
L 825 1625 
L 2419 1625 
L 2419 4116 
z
M 2253 4666 
L 3047 4666 
L 3047 1625 
L 3713 1625 
L 3713 1100 
L 3047 1100 
L 3047 0 
L 2419 0 
L 2419 1100 
L 313 1100 
L 313 1709 
L 2253 4666 
z
" transform="scale(0.015625)"/>
       </defs>
       <use xlink:href="#DejaVuSans-32"/>
       <use xlink:href="#DejaVuSans-30" transform="translate(63.623047 0)"/>
       <use xlink:href="#DejaVuSans-32" transform="translate(127.246094 0)"/>
       <use xlink:href="#DejaVuSans-32" transform="translate(190.869141 0)"/>
       <use xlink:href="#DejaVuSans-2d" transform="translate(254.492188 0)"/>
       <use xlink:href="#DejaVuSans-30" transform="translate(290.576172 0)"/>
       <use xlink:href="#DejaVuSans-34" transform="translate(354.199219 0)"/>
      </g>
     </g>
    </g>
    <g id="xtick_3">
     <g id="line2d_3">
      <g>
       <use xlink:href="#m535776b1f3" x="290.618182" y="384.48" style="stroke: #000000; stroke-width: 0.8"/>
      </g>
     </g>
     <g id="text_3">
      <!-- 2022-07 -->
      <g transform="translate(269.726776 399.078438) scale(0.1 -0.1)">
       <defs>
        <path id="DejaVuSans-37" d="M 525 4666 
L 3525 4666 
L 3525 4397 
L 1831 0 
L 1172 0 
L 2766 4134 
L 525 4134 
L 525 4666 
z
" transform="scale(0.015625)"/>
       </defs>
       <use xlink:href="#DejaVuSans-32"/>
       <use xlink:href="#DejaVuSans-30" transform="translate(63.623047 0)"/>
       <use xlink:href="#DejaVuSans-32" transform="translate(127.246094 0)"/>
       <use xlink:href="#DejaVuSans-32" transform="translate(190.869141 0)"/>
       <use xlink:href="#DejaVuSans-2d" transform="translate(254.492188 0)"/>
       <use xlink:href="#DejaVuSans-30" transform="translate(290.576172 0)"/>
       <use xlink:href="#DejaVuSans-37" transform="translate(354.199219 0)"/>
      </g>
     </g>
    </g>
    <g id="xtick_4">
     <g id="line2d_4">
      <g>
       <use xlink:href="#m535776b1f3" x="367.545255" y="384.48" style="stroke: #000000; stroke-width: 0.8"/>
      </g>
     </g>
     <g id="text_4">
      <!-- 2022-10 -->
      <g transform="translate(346.653848 399.078438) scale(0.1 -0.1)">
       <use xlink:href="#DejaVuSans-32"/>
       <use xlink:href="#DejaVuSans-30" transform="translate(63.623047 0)"/>
       <use xlink:href="#DejaVuSans-32" transform="translate(127.246094 0)"/>
       <use xlink:href="#DejaVuSans-32" transform="translate(190.869141 0)"/>
       <use xlink:href="#DejaVuSans-2d" transform="translate(254.492188 0)"/>
       <use xlink:href="#DejaVuSans-31" transform="translate(290.576172 0)"/>
       <use xlink:href="#DejaVuSans-30" transform="translate(354.199219 0)"/>
      </g>
     </g>
    </g>
    <g id="xtick_5">
     <g id="line2d_5">
      <g>
       <use xlink:href="#m535776b1f3" x="444.472328" y="384.48" style="stroke: #000000; stroke-width: 0.8"/>
      </g>
     </g>
     <g id="text_5">
      <!-- 2023-01 -->
      <g transform="translate(423.580921 399.078438) scale(0.1 -0.1)">
       <defs>
        <path id="DejaVuSans-33" d="M 2597 2516 
Q 3050 2419 3304 2112 
Q 3559 1806 3559 1356 
Q 3559 666 3084 287 
Q 2609 -91 1734 -91 
Q 1441 -91 1130 -33 
Q 819 25 488 141 
L 488 750 
Q 750 597 1062 519 
Q 1375 441 1716 441 
Q 2309 441 2620 675 
Q 2931 909 2931 1356 
Q 2931 1769 2642 2001 
Q 2353 2234 1838 2234 
L 1294 2234 
L 1294 2753 
L 1863 2753 
Q 2328 2753 2575 2939 
Q 2822 3125 2822 3475 
Q 2822 3834 2567 4026 
Q 2313 4219 1838 4219 
Q 1578 4219 1281 4162 
Q 984 4106 628 3988 
L 628 4550 
Q 988 4650 1302 4700 
Q 1616 4750 1894 4750 
Q 2613 4750 3031 4423 
Q 3450 4097 3450 3541 
Q 3450 3153 3228 2886 
Q 3006 2619 2597 2516 
z
" transform="scale(0.015625)"/>
       </defs>
       <use xlink:href="#DejaVuSans-32"/>
       <use xlink:href="#DejaVuSans-30" transform="translate(63.623047 0)"/>
       <use xlink:href="#DejaVuSans-32" transform="translate(127.246094 0)"/>
       <use xlink:href="#DejaVuSans-33" transform="translate(190.869141 0)"/>
       <use xlink:href="#DejaVuSans-2d" transform="translate(254.492188 0)"/>
       <use xlink:href="#DejaVuSans-30" transform="translate(290.576172 0)"/>
       <use xlink:href="#DejaVuSans-31" transform="translate(354.199219 0)"/>
      </g>
     </g>
    </g>
    <g id="xtick_6">
     <g id="line2d_6">
      <g>
       <use xlink:href="#m535776b1f3" x="519.727073" y="384.48" style="stroke: #000000; stroke-width: 0.8"/>
      </g>
     </g>
     <g id="text_6">
      <!-- 2023-04 -->
      <g transform="translate(498.835667 399.078438) scale(0.1 -0.1)">
       <use xlink:href="#DejaVuSans-32"/>
       <use xlink:href="#DejaVuSans-30" transform="translate(63.623047 0)"/>
       <use xlink:href="#DejaVuSans-32" transform="translate(127.246094 0)"/>
       <use xlink:href="#DejaVuSans-33" transform="translate(190.869141 0)"/>
       <use xlink:href="#DejaVuSans-2d" transform="translate(254.492188 0)"/>
       <use xlink:href="#DejaVuSans-30" transform="translate(290.576172 0)"/>
       <use xlink:href="#DejaVuSans-34" transform="translate(354.199219 0)"/>
      </g>
     </g>
    </g>
    <g id="xtick_7">
     <g id="line2d_7">
      <g>
       <use xlink:href="#m535776b1f3" x="595.817982" y="384.48" style="stroke: #000000; stroke-width: 0.8"/>
      </g>
     </g>
     <g id="text_7">
      <!-- 2023-07 -->
      <g transform="translate(574.926576 399.078438) scale(0.1 -0.1)">
       <use xlink:href="#DejaVuSans-32"/>
       <use xlink:href="#DejaVuSans-30" transform="translate(63.623047 0)"/>
       <use xlink:href="#DejaVuSans-32" transform="translate(127.246094 0)"/>
       <use xlink:href="#DejaVuSans-33" transform="translate(190.869141 0)"/>
       <use xlink:href="#DejaVuSans-2d" transform="translate(254.492188 0)"/>
       <use xlink:href="#DejaVuSans-30" transform="translate(290.576172 0)"/>
       <use xlink:href="#DejaVuSans-37" transform="translate(354.199219 0)"/>
      </g>
     </g>
    </g>
    <g id="xtick_8">
     <g id="line2d_8">
      <g>
       <use xlink:href="#m535776b1f3" x="672.745055" y="384.48" style="stroke: #000000; stroke-width: 0.8"/>
      </g>
     </g>
     <g id="text_8">
      <!-- 2023-10 -->
      <g transform="translate(651.853649 399.078438) scale(0.1 -0.1)">
       <use xlink:href="#DejaVuSans-32"/>
       <use xlink:href="#DejaVuSans-30" transform="translate(63.623047 0)"/>
       <use xlink:href="#DejaVuSans-32" transform="translate(127.246094 0)"/>
       <use xlink:href="#DejaVuSans-33" transform="translate(190.869141 0)"/>
       <use xlink:href="#DejaVuSans-2d" transform="translate(254.492188 0)"/>
       <use xlink:href="#DejaVuSans-31" transform="translate(290.576172 0)"/>
       <use xlink:href="#DejaVuSans-30" transform="translate(354.199219 0)"/>
      </g>
     </g>
    </g>
    <g id="xtick_9">
     <g id="line2d_9">
      <g>
       <use xlink:href="#m535776b1f3" x="749.672128" y="384.48" style="stroke: #000000; stroke-width: 0.8"/>
      </g>
     </g>
     <g id="text_9">
      <!-- 2024-01 -->
      <g transform="translate(728.780722 399.078438) scale(0.1 -0.1)">
       <use xlink:href="#DejaVuSans-32"/>
       <use xlink:href="#DejaVuSans-30" transform="translate(63.623047 0)"/>
       <use xlink:href="#DejaVuSans-32" transform="translate(127.246094 0)"/>
       <use xlink:href="#DejaVuSans-34" transform="translate(190.869141 0)"/>
       <use xlink:href="#DejaVuSans-2d" transform="translate(254.492188 0)"/>
       <use xlink:href="#DejaVuSans-30" transform="translate(290.576172 0)"/>
       <use xlink:href="#DejaVuSans-31" transform="translate(354.199219 0)"/>
      </g>
     </g>
    </g>
    <g id="text_10">
     <!-- Date -->
     <g transform="translate(430.849219 412.756563) scale(0.1 -0.1)">
      <defs>
       <path id="DejaVuSans-44" d="M 1259 4147 
L 1259 519 
L 2022 519 
Q 2988 519 3436 956 
Q 3884 1394 3884 2338 
Q 3884 3275 3436 3711 
Q 2988 4147 2022 4147 
L 1259 4147 
z
M 628 4666 
L 1925 4666 
Q 3281 4666 3915 4102 
Q 4550 3538 4550 2338 
Q 4550 1131 3912 565 
Q 3275 0 1925 0 
L 628 0 
L 628 4666 
z
" transform="scale(0.015625)"/>
       <path id="DejaVuSans-61" d="M 2194 1759 
Q 1497 1759 1228 1600 
Q 959 1441 959 1056 
Q 959 750 1161 570 
Q 1363 391 1709 391 
Q 2188 391 2477 730 
Q 2766 1069 2766 1631 
L 2766 1759 
L 2194 1759 
z
M 3341 1997 
L 3341 0 
L 2766 0 
L 2766 531 
Q 2569 213 2275 61 
Q 1981 -91 1556 -91 
Q 1019 -91 701 211 
Q 384 513 384 1019 
Q 384 1609 779 1909 
Q 1175 2209 1959 2209 
L 2766 2209 
L 2766 2266 
Q 2766 2663 2505 2880 
Q 2244 3097 1772 3097 
Q 1472 3097 1187 3025 
Q 903 2953 641 2809 
L 641 3341 
Q 956 3463 1253 3523 
Q 1550 3584 1831 3584 
Q 2591 3584 2966 3190 
Q 3341 2797 3341 1997 
z
" transform="scale(0.015625)"/>
       <path id="DejaVuSans-74" d="M 1172 4494 
L 1172 3500 
L 2356 3500 
L 2356 3053 
L 1172 3053 
L 1172 1153 
Q 1172 725 1289 603 
Q 1406 481 1766 481 
L 2356 481 
L 2356 0 
L 1766 0 
Q 1100 0 847 248 
Q 594 497 594 1153 
L 594 3053 
L 172 3053 
L 172 3500 
L 594 3500 
L 594 4494 
L 1172 4494 
z
" transform="scale(0.015625)"/>
       <path id="DejaVuSans-65" d="M 3597 1894 
L 3597 1613 
L 953 1613 
Q 991 1019 1311 708 
Q 1631 397 2203 397 
Q 2534 397 2845 478 
Q 3156 559 3463 722 
L 3463 178 
Q 3153 47 2828 -22 
Q 2503 -91 2169 -91 
Q 1331 -91 842 396 
Q 353 884 353 1716 
Q 353 2575 817 3079 
Q 1281 3584 2069 3584 
Q 2775 3584 3186 3129 
Q 3597 2675 3597 1894 
z
M 3022 2063 
Q 3016 2534 2758 2815 
Q 2500 3097 2075 3097 
Q 1594 3097 1305 2825 
Q 1016 2553 972 2059 
L 3022 2063 
z
" transform="scale(0.015625)"/>
      </defs>
      <use xlink:href="#DejaVuSans-44"/>
      <use xlink:href="#DejaVuSans-61" transform="translate(77.001953 0)"/>
      <use xlink:href="#DejaVuSans-74" transform="translate(138.28125 0)"/>
      <use xlink:href="#DejaVuSans-65" transform="translate(177.490234 0)"/>
     </g>
    </g>
   </g>
   <g id="matplotlib.axis_2">
    <g id="ytick_1">
     <g id="line2d_10">
      <defs>
       <path id="m76d50fc83a" d="M 0 0 
L -3.5 0 
" style="stroke: #000000; stroke-width: 0.8"/>
      </defs>
      <g>
       <use xlink:href="#m76d50fc83a" x="108" y="369.370882" style="stroke: #000000; stroke-width: 0.8"/>
      </g>
     </g>
     <g id="text_11">
      <!-- 0.0 -->
      <g transform="translate(85.096875 373.170101) scale(0.1 -0.1)">
       <defs>
        <path id="DejaVuSans-2e" d="M 684 794 
L 1344 794 
L 1344 0 
L 684 0 
L 684 794 
z
" transform="scale(0.015625)"/>
       </defs>
       <use xlink:href="#DejaVuSans-30"/>
       <use xlink:href="#DejaVuSans-2e" transform="translate(63.623047 0)"/>
       <use xlink:href="#DejaVuSans-30" transform="translate(95.410156 0)"/>
      </g>
     </g>
    </g>
    <g id="ytick_2">
     <g id="line2d_11">
      <g>
       <use xlink:href="#m76d50fc83a" x="108" y="303.804818" style="stroke: #000000; stroke-width: 0.8"/>
      </g>
     </g>
     <g id="text_12">
      <!-- 0.1 -->
      <g transform="translate(85.096875 307.604037) scale(0.1 -0.1)">
       <use xlink:href="#DejaVuSans-30"/>
       <use xlink:href="#DejaVuSans-2e" transform="translate(63.623047 0)"/>
       <use xlink:href="#DejaVuSans-31" transform="translate(95.410156 0)"/>
      </g>
     </g>
    </g>
    <g id="ytick_3">
     <g id="line2d_12">
      <g>
       <use xlink:href="#m76d50fc83a" x="108" y="238.238754" style="stroke: #000000; stroke-width: 0.8"/>
      </g>
     </g>
     <g id="text_13">
      <!-- 0.2 -->
      <g transform="translate(85.096875 242.037973) scale(0.1 -0.1)">
       <use xlink:href="#DejaVuSans-30"/>
       <use xlink:href="#DejaVuSans-2e" transform="translate(63.623047 0)"/>
       <use xlink:href="#DejaVuSans-32" transform="translate(95.410156 0)"/>
      </g>
     </g>
    </g>
    <g id="ytick_4">
     <g id="line2d_13">
      <g>
       <use xlink:href="#m76d50fc83a" x="108" y="172.67269" style="stroke: #000000; stroke-width: 0.8"/>
      </g>
     </g>
     <g id="text_14">
      <!-- 0.3 -->
      <g transform="translate(85.096875 176.471909) scale(0.1 -0.1)">
       <use xlink:href="#DejaVuSans-30"/>
       <use xlink:href="#DejaVuSans-2e" transform="translate(63.623047 0)"/>
       <use xlink:href="#DejaVuSans-33" transform="translate(95.410156 0)"/>
      </g>
     </g>
    </g>
    <g id="ytick_5">
     <g id="line2d_14">
      <g>
       <use xlink:href="#m76d50fc83a" x="108" y="107.106626" style="stroke: #000000; stroke-width: 0.8"/>
      </g>
     </g>
     <g id="text_15">
      <!-- 0.4 -->
      <g transform="translate(85.096875 110.905844) scale(0.1 -0.1)">
       <use xlink:href="#DejaVuSans-30"/>
       <use xlink:href="#DejaVuSans-2e" transform="translate(63.623047 0)"/>
       <use xlink:href="#DejaVuSans-34" transform="translate(95.410156 0)"/>
      </g>
     </g>
    </g>
    <g id="text_16">
     <!-- Volatility -->
     <g transform="translate(79.017187 239.752187) rotate(-90) scale(0.1 -0.1)">
      <defs>
       <path id="DejaVuSans-56" d="M 1831 0 
L 50 4666 
L 709 4666 
L 2188 738 
L 3669 4666 
L 4325 4666 
L 2547 0 
L 1831 0 
z
" transform="scale(0.015625)"/>
       <path id="DejaVuSans-6f" d="M 1959 3097 
Q 1497 3097 1228 2736 
Q 959 2375 959 1747 
Q 959 1119 1226 758 
Q 1494 397 1959 397 
Q 2419 397 2687 759 
Q 2956 1122 2956 1747 
Q 2956 2369 2687 2733 
Q 2419 3097 1959 3097 
z
M 1959 3584 
Q 2709 3584 3137 3096 
Q 3566 2609 3566 1747 
Q 3566 888 3137 398 
Q 2709 -91 1959 -91 
Q 1206 -91 779 398 
Q 353 888 353 1747 
Q 353 2609 779 3096 
Q 1206 3584 1959 3584 
z
" transform="scale(0.015625)"/>
       <path id="DejaVuSans-6c" d="M 603 4863 
L 1178 4863 
L 1178 0 
L 603 0 
L 603 4863 
z
" transform="scale(0.015625)"/>
       <path id="DejaVuSans-69" d="M 603 3500 
L 1178 3500 
L 1178 0 
L 603 0 
L 603 3500 
z
M 603 4863 
L 1178 4863 
L 1178 4134 
L 603 4134 
L 603 4863 
z
" transform="scale(0.015625)"/>
       <path id="DejaVuSans-79" d="M 2059 -325 
Q 1816 -950 1584 -1140 
Q 1353 -1331 966 -1331 
L 506 -1331 
L 506 -850 
L 844 -850 
Q 1081 -850 1212 -737 
Q 1344 -625 1503 -206 
L 1606 56 
L 191 3500 
L 800 3500 
L 1894 763 
L 2988 3500 
L 3597 3500 
L 2059 -325 
z
" transform="scale(0.015625)"/>
      </defs>
      <use xlink:href="#DejaVuSans-56"/>
      <use xlink:href="#DejaVuSans-6f" transform="translate(60.658203 0)"/>
      <use xlink:href="#DejaVuSans-6c" transform="translate(121.839844 0)"/>
      <use xlink:href="#DejaVuSans-61" transform="translate(149.623047 0)"/>
      <use xlink:href="#DejaVuSans-74" transform="translate(210.902344 0)"/>
      <use xlink:href="#DejaVuSans-69" transform="translate(250.111328 0)"/>
      <use xlink:href="#DejaVuSans-6c" transform="translate(277.894531 0)"/>
      <use xlink:href="#DejaVuSans-69" transform="translate(305.677734 0)"/>
      <use xlink:href="#DejaVuSans-74" transform="translate(333.460938 0)"/>
      <use xlink:href="#DejaVuSans-79" transform="translate(372.669922 0)"/>
     </g>
    </g>
   </g>
   <g id="line2d_15">
    <path d="M 138.436364 367.646735 
L 140.944855 365.204927 
L 141.781019 368.957923 
L 142.617183 356.530915 
L 143.453347 368.738668 
L 144.28951 366.709925 
L 146.798002 368.425366 
L 147.634166 363.392379 
L 148.47033 367.525986 
L 149.306494 359.964757 
L 150.142657 368.833476 
L 153.487313 357.202412 
L 154.323477 362.986851 
L 155.15964 362.093872 
L 155.995804 356.850381 
L 158.504296 367.556067 
L 159.34046 361.341273 
L 160.176623 368.388865 
L 161.012787 365.831211 
L 161.848951 353.598336 
L 164.357443 357.103587 
L 165.193606 364.886457 
L 166.02977 363.221826 
L 166.865934 353.180336 
L 167.702098 365.998367 
L 170.210589 366.939307 
L 171.046753 363.885554 
L 171.882917 359.92094 
L 172.719081 357.384209 
L 173.555245 356.813869 
L 176.063736 366.847908 
L 176.8999 359.113913 
L 177.736064 368.793355 
L 178.572228 355.339414 
L 179.408392 364.655388 
L 182.753047 362.686603 
L 183.589211 357.186253 
L 184.425375 359.636875 
L 185.261538 354.863683 
L 187.77003 367.767398 
L 188.606194 359.146215 
L 189.442358 357.260155 
L 190.278521 365.916521 
L 191.114685 364.148099 
L 193.623177 349.725589 
L 194.459341 364.610765 
L 195.295504 352.734411 
L 196.131668 366.550847 
L 196.967832 360.81696 
L 199.476324 364.487078 
L 200.312488 355.482271 
L 201.148651 354.856569 
L 201.984815 361.324489 
L 202.820979 361.768618 
L 205.329471 369.085837 
L 206.165634 362.000796 
L 207.001798 361.274361 
L 207.837962 360.032944 
L 208.674126 366.05758 
L 211.182617 364.702882 
L 212.018781 361.383592 
L 212.854945 365.231311 
L 213.691109 359.026966 
L 214.527273 367.138738 
L 217.035764 364.087329 
L 217.871928 361.089131 
L 218.708092 362.968729 
L 219.544256 366.588013 
L 220.38042 367.630397 
L 222.888911 358.210663 
L 223.725075 367.126357 
L 224.561239 362.084793 
L 225.397403 361.359705 
L 228.742058 369.236545 
L 229.578222 358.926167 
L 230.414386 368.965242 
L 232.086713 350.925783 
L 234.595205 365.645577 
L 235.431369 350.651768 
L 236.267532 367.996711 
L 237.103696 353.342834 
L 237.93986 345.13822 
L 240.448352 365.660369 
L 241.284515 366.207014 
L 242.120679 350.077929 
L 242.956843 345.569957 
L 243.793007 365.639917 
L 246.301499 348.021584 
L 247.137662 367.761322 
L 247.973826 358.486766 
L 248.80999 368.520627 
L 249.646154 353.90433 
L 252.154645 366.778261 
L 252.990809 356.278046 
L 253.826973 342.335491 
L 254.663137 365.534699 
L 255.499301 369.275065 
L 258.007792 357.316563 
L 258.843956 364.024661 
L 259.68012 363.203485 
L 260.516284 356.462128 
L 261.352448 353.345803 
L 264.697103 365.244071 
L 265.533267 364.446281 
L 266.369431 357.396411 
L 267.205594 358.564015 
L 269.714086 367.317022 
L 270.55025 363.156313 
L 271.386414 362.255238 
L 272.222577 353.578348 
L 273.058741 350.001077 
L 275.567233 343.446109 
L 276.403397 366.891949 
L 277.23956 359.87229 
L 278.075724 347.699846 
L 278.911888 367.929441 
L 282.256543 353.515394 
L 283.092707 368.516945 
L 283.928871 363.15058 
L 284.765035 349.631866 
L 287.273526 367.41865 
L 288.10969 356.029051 
L 288.945854 368.904065 
L 289.782018 363.602467 
L 290.618182 362.487421 
L 293.962837 368.333056 
L 294.799001 367.032272 
L 295.635165 359.631887 
L 296.471329 368.826286 
L 298.97982 361.768871 
L 299.815984 363.281845 
L 300.652148 366.442139 
L 301.488312 367.40185 
L 302.324476 356.900726 
L 304.832967 363.86416 
L 305.669131 351.501831 
L 306.505295 365.516579 
L 307.341459 362.936832 
L 308.177622 363.223215 
L 310.686114 368.509146 
L 311.522278 361.758427 
L 312.358442 352.441686 
L 313.194605 361.463409 
L 314.030769 360.12097 
L 316.539261 367.517288 
L 317.375425 364.987986 
L 318.211588 359.196694 
L 319.047752 368.86101 
L 319.883916 368.304077 
L 322.392408 368.55898 
L 323.228571 366.579238 
L 324.064735 355.557979 
L 324.900899 368.90817 
L 325.737063 358.110533 
L 328.245554 366.773367 
L 329.081718 368.142218 
L 329.917882 364.608081 
L 330.754046 367.884506 
L 331.59021 360.85784 
L 334.098701 355.187382 
L 334.934865 367.901968 
L 335.771029 367.461659 
L 336.607193 360.196064 
L 337.443357 346.902326 
L 339.951848 364.985382 
L 340.788012 362.099988 
L 341.624176 364.225431 
L 342.46034 367.409308 
L 343.296503 362.293317 
L 346.641159 366.680397 
L 347.477323 357.454345 
L 348.313487 365.050758 
L 349.14965 359.433676 
L 351.658142 362.467652 
L 352.494306 340.391217 
L 353.33047 367.153899 
L 354.166633 361.907976 
L 355.002797 364.644851 
L 357.511289 364.890298 
L 358.347453 361.938231 
L 359.183616 358.051115 
L 360.01978 363.821841 
L 360.855944 357.973647 
L 363.364436 362.555698 
L 364.200599 367.97917 
L 365.036763 356.597863 
L 365.872927 355.370707 
L 366.709091 359.417059 
L 369.217582 352.615754 
L 370.053746 349.618881 
L 370.88991 368.046456 
L 371.726074 362.618941 
L 372.562238 350.748025 
L 375.070729 364.439876 
L 375.906893 365.082523 
L 376.743057 367.209686 
L 377.579221 352.563504 
L 378.415385 353.669706 
L 380.923876 352.234845 
L 381.76004 361.920768 
L 382.596204 364.981586 
L 383.432368 364.136946 
L 384.268531 353.997104 
L 386.777023 361.626256 
L 387.613187 358.791296 
L 388.449351 364.509068 
L 389.285514 365.370567 
L 390.121678 353.419931 
L 392.63017 364.465011 
L 393.466334 366.676335 
L 394.302498 352.76965 
L 395.138661 362.393073 
L 395.974825 360.501886 
L 398.483317 363.097481 
L 399.319481 365.710792 
L 400.155644 355.604124 
L 400.991808 333.99635 
L 401.827972 363.339913 
L 404.336464 363.485717 
L 406.008791 363.937883 
L 406.844955 367.342213 
L 407.681119 366.258272 
L 410.18961 366.819534 
L 411.025774 360.526924 
L 411.861938 365.504282 
L 413.534266 369.185274 
L 416.042757 359.165719 
L 416.878921 368.326337 
L 417.715085 349.387239 
L 418.551249 368.801769 
L 419.387413 368.587125 
L 421.895904 357.532104 
L 422.732068 359.861262 
L 423.568232 368.148658 
L 424.404396 364.457599 
L 425.240559 364.534262 
L 427.749051 360.07472 
L 428.585215 364.60868 
L 429.421379 365.390296 
L 430.257542 352.823656 
L 431.093706 362.027324 
L 433.602198 363.438248 
L 434.438362 368.691094 
L 435.274525 359.694287 
L 436.110689 359.826345 
L 436.946853 365.534639 
L 440.291508 366.710308 
L 441.127672 361.441675 
L 441.963836 358.020991 
L 442.8 367.702903 
L 446.144655 366.74262 
L 446.980819 364.446412 
L 447.816983 361.690555 
L 448.653147 354.563547 
L 451.161638 368.867381 
L 452.833966 360.99969 
L 453.67013 367.135026 
L 454.506294 366.755517 
L 457.850949 368.038218 
L 458.687113 359.086861 
L 459.523277 364.343493 
L 460.359441 357.082706 
L 462.867932 361.626659 
L 463.704096 368.904213 
L 464.54026 369.251718 
L 465.376424 362.192911 
L 466.212587 367.737139 
L 468.721079 360.812161 
L 469.557243 359.839996 
L 470.393407 362.55328 
L 471.22957 359.803231 
L 472.065734 362.546375 
L 474.574226 365.332411 
L 475.41039 360.984747 
L 476.246553 362.065142 
L 477.082717 363.555816 
L 477.918881 367.933107 
L 480.427373 361.907136 
L 481.263536 369.187009 
L 482.0997 367.555139 
L 482.935864 360.267236 
L 483.772028 367.553892 
L 487.116683 356.097174 
L 487.952847 368.338341 
L 488.789011 365.88585 
L 489.625175 362.425153 
L 492.133666 367.359116 
L 492.96983 367.377265 
L 493.805994 366.265371 
L 494.642158 364.418289 
L 495.478322 358.868018 
L 497.986813 368.920494 
L 498.822977 359.243817 
L 499.659141 368.443912 
L 500.495305 357.154713 
L 501.331469 359.808744 
L 503.83996 368.38024 
L 504.676124 358.655826 
L 505.512288 364.777742 
L 506.348452 357.956108 
L 507.184615 362.105761 
L 509.693107 363.549353 
L 511.365435 358.48676 
L 512.201598 367.416959 
L 513.037762 365.683474 
L 515.546254 368.291934 
L 516.382418 368.338164 
L 517.218581 360.101883 
L 518.054745 365.634276 
L 518.890909 359.97308 
L 521.399401 366.95017 
L 522.235564 365.558971 
L 523.071728 367.734696 
L 523.907892 367.028361 
L 527.252547 368.717962 
L 528.088711 369.343756 
L 528.924875 366.654195 
L 529.761039 360.732229 
L 530.597203 368.012666 
L 533.105694 367.206739 
L 533.941858 368.810386 
L 534.778022 369.315632 
L 535.614186 365.456365 
L 536.45035 368.778961 
L 538.958841 368.812776 
L 539.795005 358.921507 
L 540.631169 366.847516 
L 541.467333 356.66602 
L 542.303497 363.981788 
L 544.811988 369.117673 
L 545.648152 361.72988 
L 546.484316 364.766234 
L 547.32048 364.620682 
L 548.156643 357.368254 
L 550.665135 369.074509 
L 551.501299 366.361439 
L 552.337463 366.437497 
L 553.173626 368.257531 
L 554.00979 368.331954 
L 556.518282 367.434194 
L 557.354446 365.175892 
L 558.190609 361.620525 
L 559.026773 363.207196 
L 559.862937 368.422202 
L 562.371429 369.26924 
L 563.207592 361.971445 
L 564.043756 364.55471 
L 564.87992 363.65387 
L 565.716084 360.870453 
L 569.060739 369.36 
L 569.896903 365.353421 
L 570.733067 362.941339 
L 571.569231 359.909822 
L 574.077722 368.055891 
L 574.913886 367.829332 
L 575.75005 366.866718 
L 576.586214 365.32573 
L 577.422378 368.618575 
L 579.930869 363.287681 
L 580.767033 364.841203 
L 581.603197 368.833849 
L 582.439361 361.434385 
L 583.275524 366.959116 
L 586.62018 366.258897 
L 587.456344 365.922694 
L 588.292507 366.94236 
L 589.128671 364.329983 
L 591.637163 366.422412 
L 592.473327 361.902416 
L 593.309491 369.138686 
L 594.145654 366.444308 
L 594.981818 361.375518 
L 597.49031 368.603773 
L 599.162637 368.079064 
L 599.998801 364.155714 
L 600.834965 367.48966 
L 603.343457 367.795893 
L 604.17962 364.965113 
L 605.015784 364.529545 
L 605.851948 363.840736 
L 606.688112 368.698877 
L 609.196603 366.847923 
L 610.032767 364.720885 
L 610.868931 367.826718 
L 611.705095 364.925616 
L 612.541259 369.158424 
L 615.04975 366.731166 
L 615.885914 367.527993 
L 616.722078 369.268954 
L 617.558242 365.144898 
L 618.394406 362.926151 
L 620.902897 368.408609 
L 621.739061 367.621154 
L 622.575225 360.233456 
L 623.411389 367.698144 
L 624.247552 365.886598 
L 626.756044 363.480685 
L 627.592208 366.599279 
L 628.428372 364.739548 
L 629.264535 369.206522 
L 630.100699 368.669148 
L 632.609191 365.611322 
L 633.445355 361.753333 
L 634.281518 364.398296 
L 635.117682 364.294228 
L 635.953846 369.273374 
L 638.462338 364.875921 
L 639.298501 367.547275 
L 640.134665 362.168883 
L 640.970829 360.487105 
L 641.806993 364.980906 
L 644.315485 365.27623 
L 645.151648 359.926705 
L 645.987812 366.862425 
L 646.823976 368.323006 
L 647.66014 368.192333 
L 651.004795 366.615148 
L 651.840959 364.783871 
L 652.677123 367.261985 
L 653.513287 368.436168 
L 656.021778 364.977321 
L 656.857942 365.625632 
L 657.694106 368.557304 
L 658.53027 363.866876 
L 659.366434 361.34943 
L 661.874925 368.898127 
L 662.711089 367.959029 
L 664.383417 358.528275 
L 665.21958 367.864025 
L 667.728072 366.738421 
L 668.564236 359.638156 
L 669.4004 369.220544 
L 670.236563 365.518305 
L 671.072727 367.591903 
L 673.581219 369.318851 
L 674.417383 360.296941 
L 675.253546 364.075081 
L 676.08971 368.515317 
L 676.925874 361.669721 
L 679.434366 365.250659 
L 681.106693 366.562145 
L 681.942857 365.262501 
L 682.779021 366.071925 
L 685.287512 362.461109 
L 686.123676 369.306462 
L 686.95984 360.525752 
L 687.796004 363.785288 
L 688.632168 361.066849 
L 691.140659 368.264775 
L 691.976823 364.624202 
L 692.812987 359.900884 
L 693.649151 361.566507 
L 694.485315 366.215943 
L 696.993806 361.543296 
L 697.82997 365.13919 
L 698.666134 362.518439 
L 699.502298 357.121218 
L 700.338462 363.24054 
L 702.846953 368.222511 
L 703.683117 367.511368 
L 704.519281 368.71233 
L 706.191608 359.210928 
L 708.7001 368.822631 
L 709.536264 356.98193 
L 710.372428 368.324618 
L 711.208591 368.590838 
L 712.044755 368.530829 
L 714.553247 364.54318 
L 715.389411 368.044488 
L 716.225574 366.713548 
L 717.897902 368.979656 
L 720.406394 368.088374 
L 721.242557 368.728581 
L 722.078721 368.750179 
L 722.914885 366.894501 
L 723.751049 365.530964 
L 726.25954 365.815111 
L 727.095704 368.997792 
L 727.931868 366.804743 
L 728.768032 364.167159 
L 729.604196 366.691148 
L 732.112687 366.802757 
L 732.948851 366.362214 
L 733.785015 360.48116 
L 734.621179 367.637595 
L 735.457343 369.320868 
L 738.801998 365.535756 
L 739.638162 359.6716 
L 740.474326 362.651154 
L 741.31049 368.283333 
L 744.655145 366.6022 
L 745.491309 368.433668 
L 746.327473 369.128221 
L 747.163636 367.515053 
L 747.163636 367.515053 
" clip-path="url(#p985b3f5e3f)" style="fill: none; stroke: #000000; stroke-width: 1.5; stroke-linecap: square"/>
   </g>
   <g id="line2d_16">
    <path d="M 138.436364 361.54192 
L 140.944855 361.590535 
L 141.781019 361.265046 
L 142.617183 361.813677 
L 144.28951 359.223017 
L 146.798002 358.405547 
L 147.634166 358.730254 
L 148.47033 361.594556 
L 149.306494 361.971441 
L 150.142657 360.372643 
L 153.487313 362.208499 
L 154.323477 361.70751 
L 155.995804 357.800689 
L 158.504296 339.949858 
L 159.34046 346.515759 
L 160.176623 337.176401 
L 161.012787 321.365482 
L 161.848951 328.844978 
L 164.357443 356.582805 
L 165.193606 360.452762 
L 166.02977 362.010697 
L 166.865934 362.227972 
L 167.702098 360.663394 
L 170.210589 361.99704 
L 171.046753 361.387431 
L 171.882917 362.136803 
L 172.719081 362.261742 
L 173.555245 360.817112 
L 176.8999 355.59799 
L 177.736064 360.622162 
L 178.572228 361.381254 
L 179.408392 359.107455 
L 182.753047 354.818589 
L 183.589211 355.061755 
L 184.425375 348.771749 
L 185.261538 358.609082 
L 187.77003 360.8633 
L 188.606194 355.23705 
L 189.442358 350.911514 
L 190.278521 355.894951 
L 191.114685 355.238798 
L 193.623177 355.568196 
L 194.459341 352.587817 
L 195.295504 346.118881 
L 196.131668 356.244088 
L 196.967832 353.881726 
L 199.476324 355.586492 
L 200.312488 352.470111 
L 201.148651 360.015355 
L 201.984815 361.554267 
L 202.820979 362.171435 
L 205.329471 362.249616 
L 206.165634 362.137407 
L 207.837962 362.219645 
L 212.018781 362.157853 
L 213.691109 362.144268 
L 214.527273 362.003652 
L 217.035764 362.313697 
L 217.871928 362.205154 
L 219.544256 359.189744 
L 220.38042 360.944327 
L 222.888911 359.286357 
L 223.725075 354.611661 
L 224.561239 350.945776 
L 225.397403 357.769375 
L 228.742058 357.557022 
L 229.578222 356.148232 
L 230.414386 360.94227 
L 232.086713 359.523903 
L 234.595205 352.809913 
L 235.431369 356.241127 
L 236.267532 321.579896 
L 237.103696 334.820268 
L 237.93986 351.620506 
L 240.448352 210.155609 
L 241.284515 259.032336 
L 242.120679 349.188122 
L 242.956843 345.604718 
L 243.793007 304.401092 
L 246.301499 284.105297 
L 247.137662 161.711552 
L 247.973826 287.801538 
L 248.80999 255.382503 
L 249.646154 134.936784 
L 252.154645 311.619084 
L 252.990809 317.182479 
L 253.826973 349.631034 
L 254.663137 320.050509 
L 255.499301 330.595759 
L 258.007792 346.107441 
L 258.843956 356.797994 
L 259.68012 345.715853 
L 260.516284 354.077333 
L 261.352448 357.990278 
L 264.697103 360.663594 
L 266.369431 359.468151 
L 267.205594 361.053413 
L 269.714086 358.628558 
L 270.55025 361.053756 
L 271.386414 361.310441 
L 272.222577 360.266176 
L 273.058741 356.509594 
L 275.567233 344.530991 
L 276.403397 212.442743 
L 277.23956 191.474821 
L 278.075724 320.568222 
L 278.911888 66.96 
L 282.256543 184.150075 
L 283.092707 277.665943 
L 283.928871 294.561179 
L 284.765035 347.827852 
L 287.273526 358.184147 
L 288.10969 351.431469 
L 288.945854 352.835877 
L 289.782018 350.312025 
L 290.618182 348.937305 
L 293.962837 355.944137 
L 294.799001 356.142188 
L 295.635165 356.766956 
L 296.471329 359.094996 
L 298.97982 357.133309 
L 299.815984 355.723542 
L 300.652148 355.227192 
L 301.488312 353.86151 
L 302.324476 354.621258 
L 304.832967 360.371892 
L 305.669131 358.625384 
L 306.505295 360.69805 
L 307.341459 361.356257 
L 308.177622 361.799936 
L 310.686114 360.757198 
L 311.522278 361.7284 
L 312.358442 361.020557 
L 313.194605 362.073724 
L 314.030769 362.16183 
L 319.047752 362.205282 
L 319.883916 362.409195 
L 324.900899 362.281474 
L 325.737063 362.436947 
L 328.245554 362.264217 
L 329.081718 362.397474 
L 331.59021 362.429316 
L 334.098701 362.169461 
L 334.934865 360.702283 
L 335.771029 358.569012 
L 336.607193 361.405148 
L 337.443357 362.150908 
L 339.951848 358.661944 
L 340.788012 354.311197 
L 341.624176 351.608254 
L 343.296503 359.590155 
L 346.641159 355.436099 
L 347.477323 351.533587 
L 348.313487 358.636482 
L 349.14965 360.390203 
L 351.658142 361.914982 
L 352.494306 362.072391 
L 353.33047 352.714745 
L 354.166633 358.410818 
L 355.002797 355.625915 
L 357.511289 349.794265 
L 358.347453 356.69345 
L 359.183616 350.673827 
L 360.01978 322.70638 
L 360.855944 335.949835 
L 363.364436 325.118985 
L 364.200599 320.746171 
L 365.036763 326.749505 
L 365.872927 348.181012 
L 366.709091 325.32977 
L 369.217582 337.638129 
L 370.053746 355.030979 
L 370.88991 359.30451 
L 371.726074 357.036977 
L 372.562238 352.987997 
L 375.070729 346.863132 
L 375.906893 348.153586 
L 376.743057 346.313835 
L 377.579221 347.071356 
L 378.415385 355.915516 
L 380.923876 343.615579 
L 381.76004 357.224083 
L 382.596204 359.961328 
L 383.432368 358.007136 
L 384.268531 360.127649 
L 386.777023 361.609491 
L 388.449351 361.996503 
L 390.121678 361.782558 
L 393.466334 362.015936 
L 394.302498 361.835668 
L 395.138661 360.743579 
L 395.974825 360.086634 
L 399.319481 362.073903 
L 400.155644 361.913653 
L 400.991808 358.414039 
L 401.827972 361.195545 
L 404.336464 361.997796 
L 405.172627 360.896055 
L 406.008791 362.046956 
L 406.844955 360.868846 
L 407.681119 360.08958 
L 410.18961 361.961133 
L 411.025774 361.470926 
L 411.861938 362.133317 
L 413.534266 362.24068 
L 416.042757 361.983826 
L 416.878921 361.486328 
L 417.715085 361.320072 
L 418.551249 362.117672 
L 419.387413 362.407829 
L 421.895904 362.182549 
L 422.732068 361.680579 
L 423.568232 360.915822 
L 424.404396 360.48253 
L 425.240559 362.006181 
L 427.749051 359.891208 
L 428.585215 360.972412 
L 429.421379 361.470801 
L 430.257542 361.023808 
L 431.093706 359.908874 
L 433.602198 353.235566 
L 434.438362 353.435711 
L 435.274525 357.831697 
L 436.110689 359.754359 
L 436.946853 355.42973 
L 440.291508 358.666613 
L 441.127672 356.481847 
L 441.963836 357.502409 
L 442.8 361.243613 
L 446.144655 360.452761 
L 446.980819 360.048133 
L 447.816983 361.94556 
L 448.653147 361.62011 
L 451.161638 362.159334 
L 451.997802 361.882713 
L 452.833966 362.268282 
L 454.506294 362.064168 
L 457.850949 361.832612 
L 458.687113 362.202047 
L 464.54026 362.193363 
L 465.376424 361.872704 
L 466.212587 362.296857 
L 470.393407 362.182662 
L 471.22957 361.691405 
L 472.065734 362.143305 
L 474.574226 362.398802 
L 477.082717 362.406458 
L 477.918881 361.951841 
L 480.427373 362.239532 
L 481.263536 362.493896 
L 482.0997 362.005503 
L 482.935864 362.542978 
L 483.772028 361.67077 
L 487.116683 361.264002 
L 487.952847 360.528149 
L 488.789011 359.560504 
L 489.625175 361.831816 
L 492.133666 360.280948 
L 492.96983 361.64038 
L 493.805994 360.850002 
L 494.642158 361.439856 
L 495.478322 361.732146 
L 497.986813 362.380137 
L 498.822977 362.480377 
L 499.659141 360.858014 
L 500.495305 361.903992 
L 501.331469 355.422675 
L 503.83996 324.228693 
L 504.676124 326.921999 
L 505.512288 349.828162 
L 506.348452 332.748197 
L 507.184615 357.304378 
L 509.693107 343.774703 
L 510.529271 358.765625 
L 511.365435 362.257413 
L 512.201598 361.856859 
L 513.037762 362.204138 
L 516.382418 362.427011 
L 517.218581 362.216455 
L 518.890909 362.367042 
L 521.399401 362.233875 
L 522.235564 361.927738 
L 523.071728 362.310386 
L 523.907892 362.253006 
L 528.088711 362.169311 
L 528.924875 362.406299 
L 530.597203 362.2868 
L 533.105694 362.351594 
L 533.941858 362.080241 
L 534.778022 362.168229 
L 535.614186 362.373595 
L 540.631169 361.977044 
L 541.467333 360.63019 
L 542.303497 362.335603 
L 545.648152 362.34065 
L 546.484316 361.528955 
L 547.32048 360.906063 
L 548.156643 360.681565 
L 550.665135 362.373873 
L 551.501299 362.550475 
L 552.337463 362.288831 
L 553.173626 362.457787 
L 556.518282 362.371386 
L 557.354446 362.171025 
L 558.190609 362.421946 
L 559.862937 361.85855 
L 562.371429 362.46182 
L 563.207592 362.150102 
L 564.043756 362.399798 
L 564.87992 362.369442 
L 565.716084 362.210435 
L 569.060739 361.886744 
L 569.896903 362.257185 
L 570.733067 362.466265 
L 571.569231 362.106113 
L 574.077722 361.518426 
L 574.913886 362.50086 
L 575.75005 361.733409 
L 576.586214 362.201777 
L 577.422378 361.670792 
L 580.767033 361.521529 
L 581.603197 361.707785 
L 583.275524 361.591366 
L 588.292507 362.491335 
L 589.128671 362.002889 
L 591.637163 362.472852 
L 592.473327 362.458098 
L 593.309491 362.302242 
L 594.145654 362.585744 
L 594.981818 362.18841 
L 599.162637 361.984581 
L 599.998801 362.493155 
L 603.343457 362.519003 
L 605.851948 361.918399 
L 606.688112 361.906238 
L 609.196603 362.524065 
L 610.032767 361.880362 
L 610.868931 361.591937 
L 611.705095 361.61614 
L 612.541259 362.35093 
L 615.04975 362.019763 
L 615.885914 361.666981 
L 616.722078 361.781883 
L 617.558242 362.431828 
L 618.394406 362.498531 
L 621.739061 362.124673 
L 622.575225 362.542579 
L 623.411389 362.294549 
L 624.247552 361.73741 
L 626.756044 360.296776 
L 627.592208 362.416412 
L 629.264535 361.451787 
L 630.100699 362.355242 
L 632.609191 362.087446 
L 633.445355 362.41662 
L 634.281518 361.655082 
L 635.117682 359.587218 
L 635.953846 358.414467 
L 638.462338 357.709831 
L 639.298501 361.088677 
L 640.134665 359.457253 
L 640.970829 362.012122 
L 641.806993 359.429071 
L 644.315485 362.306465 
L 645.151648 362.505763 
L 645.987812 362.366001 
L 647.66014 362.540729 
L 651.840959 362.287777 
L 652.677123 362.45729 
L 656.021778 362.395953 
L 656.857942 362.241522 
L 658.53027 362.509017 
L 659.366434 362.264531 
L 661.874925 362.288372 
L 662.711089 362.546548 
L 663.547253 362.268451 
L 664.383417 361.860029 
L 665.21958 358.212215 
L 667.728072 355.940369 
L 668.564236 361.005604 
L 669.4004 349.580974 
L 670.236563 355.745339 
L 671.072727 360.499968 
L 673.581219 358.212206 
L 674.417383 361.480888 
L 675.253546 358.621957 
L 676.08971 360.435057 
L 676.925874 360.554666 
L 679.434366 362.370166 
L 681.106693 362.459671 
L 681.942857 362.385316 
L 682.779021 362.436834 
L 685.287512 361.926639 
L 686.123676 362.138272 
L 686.95984 362.500096 
L 691.140659 358.074588 
L 691.976823 358.602956 
L 692.812987 362.339899 
L 693.649151 360.002345 
L 694.485315 357.121902 
L 696.993806 358.016111 
L 697.82997 362.035814 
L 698.666134 362.42871 
L 703.683117 362.267412 
L 704.519281 362.084213 
L 706.191608 362.453086 
L 709.536264 362.240666 
L 711.208591 362.315628 
L 712.044755 362.251269 
L 714.553247 361.946302 
L 715.389411 361.647499 
L 716.225574 362.317025 
L 717.897902 361.4926 
L 720.406394 361.46116 
L 721.242557 362.163542 
L 722.078721 361.868316 
L 722.914885 362.431766 
L 723.751049 361.934618 
L 726.25954 361.653808 
L 727.095704 362.339072 
L 727.931868 362.484208 
L 728.768032 362.440123 
L 729.604196 362.079088 
L 732.948851 361.556731 
L 733.785015 361.280396 
L 734.621179 361.335463 
L 735.457343 361.142219 
L 737.965834 361.876857 
L 739.638162 360.472158 
L 740.474326 362.07682 
L 741.31049 361.618144 
L 745.491309 361.131511 
L 747.163636 361.240085 
L 747.163636 361.240085 
" clip-path="url(#p985b3f5e3f)" style="fill: none; stroke: #1f77b4; stroke-width: 1.5; stroke-linecap: square"/>
   </g>
   <g id="patch_3">
    <path d="M 108 384.48 
L 108 51.84 
" style="fill: none; stroke: #000000; stroke-width: 0.8; stroke-linejoin: miter; stroke-linecap: square"/>
   </g>
   <g id="patch_4">
    <path d="M 777.6 384.48 
L 777.6 51.84 
" style="fill: none; stroke: #000000; stroke-width: 0.8; stroke-linejoin: miter; stroke-linecap: square"/>
   </g>
   <g id="patch_5">
    <path d="M 108 384.48 
L 777.6 384.48 
" style="fill: none; stroke: #000000; stroke-width: 0.8; stroke-linejoin: miter; stroke-linecap: square"/>
   </g>
   <g id="patch_6">
    <path d="M 108 51.84 
L 777.6 51.84 
" style="fill: none; stroke: #000000; stroke-width: 0.8; stroke-linejoin: miter; stroke-linecap: square"/>
   </g>
   <g id="text_17">
    <!-- Volatility Prediction with LSTM FFNN MDN v2 -->
    <g transform="translate(309.388125 45.84) scale(0.12 -0.12)">
     <defs>
      <path id="DejaVuSans-20" transform="scale(0.015625)"/>
      <path id="DejaVuSans-50" d="M 1259 4147 
L 1259 2394 
L 2053 2394 
Q 2494 2394 2734 2622 
Q 2975 2850 2975 3272 
Q 2975 3691 2734 3919 
Q 2494 4147 2053 4147 
L 1259 4147 
z
M 628 4666 
L 2053 4666 
Q 2838 4666 3239 4311 
Q 3641 3956 3641 3272 
Q 3641 2581 3239 2228 
Q 2838 1875 2053 1875 
L 1259 1875 
L 1259 0 
L 628 0 
L 628 4666 
z
" transform="scale(0.015625)"/>
      <path id="DejaVuSans-72" d="M 2631 2963 
Q 2534 3019 2420 3045 
Q 2306 3072 2169 3072 
Q 1681 3072 1420 2755 
Q 1159 2438 1159 1844 
L 1159 0 
L 581 0 
L 581 3500 
L 1159 3500 
L 1159 2956 
Q 1341 3275 1631 3429 
Q 1922 3584 2338 3584 
Q 2397 3584 2469 3576 
Q 2541 3569 2628 3553 
L 2631 2963 
z
" transform="scale(0.015625)"/>
      <path id="DejaVuSans-64" d="M 2906 2969 
L 2906 4863 
L 3481 4863 
L 3481 0 
L 2906 0 
L 2906 525 
Q 2725 213 2448 61 
Q 2172 -91 1784 -91 
Q 1150 -91 751 415 
Q 353 922 353 1747 
Q 353 2572 751 3078 
Q 1150 3584 1784 3584 
Q 2172 3584 2448 3432 
Q 2725 3281 2906 2969 
z
M 947 1747 
Q 947 1113 1208 752 
Q 1469 391 1925 391 
Q 2381 391 2643 752 
Q 2906 1113 2906 1747 
Q 2906 2381 2643 2742 
Q 2381 3103 1925 3103 
Q 1469 3103 1208 2742 
Q 947 2381 947 1747 
z
" transform="scale(0.015625)"/>
      <path id="DejaVuSans-63" d="M 3122 3366 
L 3122 2828 
Q 2878 2963 2633 3030 
Q 2388 3097 2138 3097 
Q 1578 3097 1268 2742 
Q 959 2388 959 1747 
Q 959 1106 1268 751 
Q 1578 397 2138 397 
Q 2388 397 2633 464 
Q 2878 531 3122 666 
L 3122 134 
Q 2881 22 2623 -34 
Q 2366 -91 2075 -91 
Q 1284 -91 818 406 
Q 353 903 353 1747 
Q 353 2603 823 3093 
Q 1294 3584 2113 3584 
Q 2378 3584 2631 3529 
Q 2884 3475 3122 3366 
z
" transform="scale(0.015625)"/>
      <path id="DejaVuSans-6e" d="M 3513 2113 
L 3513 0 
L 2938 0 
L 2938 2094 
Q 2938 2591 2744 2837 
Q 2550 3084 2163 3084 
Q 1697 3084 1428 2787 
Q 1159 2491 1159 1978 
L 1159 0 
L 581 0 
L 581 3500 
L 1159 3500 
L 1159 2956 
Q 1366 3272 1645 3428 
Q 1925 3584 2291 3584 
Q 2894 3584 3203 3211 
Q 3513 2838 3513 2113 
z
" transform="scale(0.015625)"/>
      <path id="DejaVuSans-77" d="M 269 3500 
L 844 3500 
L 1563 769 
L 2278 3500 
L 2956 3500 
L 3675 769 
L 4391 3500 
L 4966 3500 
L 4050 0 
L 3372 0 
L 2619 2869 
L 1863 0 
L 1184 0 
L 269 3500 
z
" transform="scale(0.015625)"/>
      <path id="DejaVuSans-68" d="M 3513 2113 
L 3513 0 
L 2938 0 
L 2938 2094 
Q 2938 2591 2744 2837 
Q 2550 3084 2163 3084 
Q 1697 3084 1428 2787 
Q 1159 2491 1159 1978 
L 1159 0 
L 581 0 
L 581 4863 
L 1159 4863 
L 1159 2956 
Q 1366 3272 1645 3428 
Q 1925 3584 2291 3584 
Q 2894 3584 3203 3211 
Q 3513 2838 3513 2113 
z
" transform="scale(0.015625)"/>
      <path id="DejaVuSans-4c" d="M 628 4666 
L 1259 4666 
L 1259 531 
L 3531 531 
L 3531 0 
L 628 0 
L 628 4666 
z
" transform="scale(0.015625)"/>
      <path id="DejaVuSans-53" d="M 3425 4513 
L 3425 3897 
Q 3066 4069 2747 4153 
Q 2428 4238 2131 4238 
Q 1616 4238 1336 4038 
Q 1056 3838 1056 3469 
Q 1056 3159 1242 3001 
Q 1428 2844 1947 2747 
L 2328 2669 
Q 3034 2534 3370 2195 
Q 3706 1856 3706 1288 
Q 3706 609 3251 259 
Q 2797 -91 1919 -91 
Q 1588 -91 1214 -16 
Q 841 59 441 206 
L 441 856 
Q 825 641 1194 531 
Q 1563 422 1919 422 
Q 2459 422 2753 634 
Q 3047 847 3047 1241 
Q 3047 1584 2836 1778 
Q 2625 1972 2144 2069 
L 1759 2144 
Q 1053 2284 737 2584 
Q 422 2884 422 3419 
Q 422 4038 858 4394 
Q 1294 4750 2059 4750 
Q 2388 4750 2728 4690 
Q 3069 4631 3425 4513 
z
" transform="scale(0.015625)"/>
      <path id="DejaVuSans-54" d="M -19 4666 
L 3928 4666 
L 3928 4134 
L 2272 4134 
L 2272 0 
L 1638 0 
L 1638 4134 
L -19 4134 
L -19 4666 
z
" transform="scale(0.015625)"/>
      <path id="DejaVuSans-4d" d="M 628 4666 
L 1569 4666 
L 2759 1491 
L 3956 4666 
L 4897 4666 
L 4897 0 
L 4281 0 
L 4281 4097 
L 3078 897 
L 2444 897 
L 1241 4097 
L 1241 0 
L 628 0 
L 628 4666 
z
" transform="scale(0.015625)"/>
      <path id="DejaVuSans-46" d="M 628 4666 
L 3309 4666 
L 3309 4134 
L 1259 4134 
L 1259 2759 
L 3109 2759 
L 3109 2228 
L 1259 2228 
L 1259 0 
L 628 0 
L 628 4666 
z
" transform="scale(0.015625)"/>
      <path id="DejaVuSans-4e" d="M 628 4666 
L 1478 4666 
L 3547 763 
L 3547 4666 
L 4159 4666 
L 4159 0 
L 3309 0 
L 1241 3903 
L 1241 0 
L 628 0 
L 628 4666 
z
" transform="scale(0.015625)"/>
      <path id="DejaVuSans-76" d="M 191 3500 
L 800 3500 
L 1894 563 
L 2988 3500 
L 3597 3500 
L 2284 0 
L 1503 0 
L 191 3500 
z
" transform="scale(0.015625)"/>
     </defs>
     <use xlink:href="#DejaVuSans-56"/>
     <use xlink:href="#DejaVuSans-6f" transform="translate(60.658203 0)"/>
     <use xlink:href="#DejaVuSans-6c" transform="translate(121.839844 0)"/>
     <use xlink:href="#DejaVuSans-61" transform="translate(149.623047 0)"/>
     <use xlink:href="#DejaVuSans-74" transform="translate(210.902344 0)"/>
     <use xlink:href="#DejaVuSans-69" transform="translate(250.111328 0)"/>
     <use xlink:href="#DejaVuSans-6c" transform="translate(277.894531 0)"/>
     <use xlink:href="#DejaVuSans-69" transform="translate(305.677734 0)"/>
     <use xlink:href="#DejaVuSans-74" transform="translate(333.460938 0)"/>
     <use xlink:href="#DejaVuSans-79" transform="translate(372.669922 0)"/>
     <use xlink:href="#DejaVuSans-20" transform="translate(431.849609 0)"/>
     <use xlink:href="#DejaVuSans-50" transform="translate(463.636719 0)"/>
     <use xlink:href="#DejaVuSans-72" transform="translate(522.189453 0)"/>
     <use xlink:href="#DejaVuSans-65" transform="translate(561.052734 0)"/>
     <use xlink:href="#DejaVuSans-64" transform="translate(622.576172 0)"/>
     <use xlink:href="#DejaVuSans-69" transform="translate(686.052734 0)"/>
     <use xlink:href="#DejaVuSans-63" transform="translate(713.835938 0)"/>
     <use xlink:href="#DejaVuSans-74" transform="translate(768.816406 0)"/>
     <use xlink:href="#DejaVuSans-69" transform="translate(808.025391 0)"/>
     <use xlink:href="#DejaVuSans-6f" transform="translate(835.808594 0)"/>
     <use xlink:href="#DejaVuSans-6e" transform="translate(896.990234 0)"/>
     <use xlink:href="#DejaVuSans-20" transform="translate(960.369141 0)"/>
     <use xlink:href="#DejaVuSans-77" transform="translate(992.15625 0)"/>
     <use xlink:href="#DejaVuSans-69" transform="translate(1073.943359 0)"/>
     <use xlink:href="#DejaVuSans-74" transform="translate(1101.726562 0)"/>
     <use xlink:href="#DejaVuSans-68" transform="translate(1140.935547 0)"/>
     <use xlink:href="#DejaVuSans-20" transform="translate(1204.314453 0)"/>
     <use xlink:href="#DejaVuSans-4c" transform="translate(1236.101562 0)"/>
     <use xlink:href="#DejaVuSans-53" transform="translate(1291.814453 0)"/>
     <use xlink:href="#DejaVuSans-54" transform="translate(1355.291016 0)"/>
     <use xlink:href="#DejaVuSans-4d" transform="translate(1416.375 0)"/>
     <use xlink:href="#DejaVuSans-20" transform="translate(1502.654297 0)"/>
     <use xlink:href="#DejaVuSans-46" transform="translate(1534.441406 0)"/>
     <use xlink:href="#DejaVuSans-46" transform="translate(1591.960938 0)"/>
     <use xlink:href="#DejaVuSans-4e" transform="translate(1649.480469 0)"/>
     <use xlink:href="#DejaVuSans-4e" transform="translate(1724.285156 0)"/>
     <use xlink:href="#DejaVuSans-20" transform="translate(1799.089844 0)"/>
     <use xlink:href="#DejaVuSans-4d" transform="translate(1830.876953 0)"/>
     <use xlink:href="#DejaVuSans-44" transform="translate(1917.15625 0)"/>
     <use xlink:href="#DejaVuSans-4e" transform="translate(1994.158203 0)"/>
     <use xlink:href="#DejaVuSans-20" transform="translate(2068.962891 0)"/>
     <use xlink:href="#DejaVuSans-76" transform="translate(2100.75 0)"/>
     <use xlink:href="#DejaVuSans-32" transform="translate(2159.929688 0)"/>
    </g>
   </g>
   <g id="legend_1">
    <g id="patch_7">
     <path d="M 540.639063 89.19625 
L 770.6 89.19625 
Q 772.6 89.19625 772.6 87.19625 
L 772.6 58.84 
Q 772.6 56.84 770.6 56.84 
L 540.639063 56.84 
Q 538.639063 56.84 538.639063 58.84 
L 538.639063 87.19625 
Q 538.639063 89.19625 540.639063 89.19625 
z
" style="fill: #ffffff; opacity: 0.8; stroke: #cccccc; stroke-linejoin: miter"/>
    </g>
    <g id="line2d_17">
     <path d="M 542.639063 64.938437 
L 552.639063 64.938437 
L 562.639063 64.938437 
" style="fill: none; stroke: #000000; stroke-width: 1.5; stroke-linecap: square"/>
    </g>
    <g id="text_18">
     <!-- Absolute Returns -->
     <g transform="translate(570.639063 68.438437) scale(0.1 -0.1)">
      <defs>
       <path id="DejaVuSans-41" d="M 2188 4044 
L 1331 1722 
L 3047 1722 
L 2188 4044 
z
M 1831 4666 
L 2547 4666 
L 4325 0 
L 3669 0 
L 3244 1197 
L 1141 1197 
L 716 0 
L 50 0 
L 1831 4666 
z
" transform="scale(0.015625)"/>
       <path id="DejaVuSans-62" d="M 3116 1747 
Q 3116 2381 2855 2742 
Q 2594 3103 2138 3103 
Q 1681 3103 1420 2742 
Q 1159 2381 1159 1747 
Q 1159 1113 1420 752 
Q 1681 391 2138 391 
Q 2594 391 2855 752 
Q 3116 1113 3116 1747 
z
M 1159 2969 
Q 1341 3281 1617 3432 
Q 1894 3584 2278 3584 
Q 2916 3584 3314 3078 
Q 3713 2572 3713 1747 
Q 3713 922 3314 415 
Q 2916 -91 2278 -91 
Q 1894 -91 1617 61 
Q 1341 213 1159 525 
L 1159 0 
L 581 0 
L 581 4863 
L 1159 4863 
L 1159 2969 
z
" transform="scale(0.015625)"/>
       <path id="DejaVuSans-73" d="M 2834 3397 
L 2834 2853 
Q 2591 2978 2328 3040 
Q 2066 3103 1784 3103 
Q 1356 3103 1142 2972 
Q 928 2841 928 2578 
Q 928 2378 1081 2264 
Q 1234 2150 1697 2047 
L 1894 2003 
Q 2506 1872 2764 1633 
Q 3022 1394 3022 966 
Q 3022 478 2636 193 
Q 2250 -91 1575 -91 
Q 1294 -91 989 -36 
Q 684 19 347 128 
L 347 722 
Q 666 556 975 473 
Q 1284 391 1588 391 
Q 1994 391 2212 530 
Q 2431 669 2431 922 
Q 2431 1156 2273 1281 
Q 2116 1406 1581 1522 
L 1381 1569 
Q 847 1681 609 1914 
Q 372 2147 372 2553 
Q 372 3047 722 3315 
Q 1072 3584 1716 3584 
Q 2034 3584 2315 3537 
Q 2597 3491 2834 3397 
z
" transform="scale(0.015625)"/>
       <path id="DejaVuSans-75" d="M 544 1381 
L 544 3500 
L 1119 3500 
L 1119 1403 
Q 1119 906 1312 657 
Q 1506 409 1894 409 
Q 2359 409 2629 706 
Q 2900 1003 2900 1516 
L 2900 3500 
L 3475 3500 
L 3475 0 
L 2900 0 
L 2900 538 
Q 2691 219 2414 64 
Q 2138 -91 1772 -91 
Q 1169 -91 856 284 
Q 544 659 544 1381 
z
M 1991 3584 
L 1991 3584 
z
" transform="scale(0.015625)"/>
       <path id="DejaVuSans-52" d="M 2841 2188 
Q 3044 2119 3236 1894 
Q 3428 1669 3622 1275 
L 4263 0 
L 3584 0 
L 2988 1197 
Q 2756 1666 2539 1819 
Q 2322 1972 1947 1972 
L 1259 1972 
L 1259 0 
L 628 0 
L 628 4666 
L 2053 4666 
Q 2853 4666 3247 4331 
Q 3641 3997 3641 3322 
Q 3641 2881 3436 2590 
Q 3231 2300 2841 2188 
z
M 1259 4147 
L 1259 2491 
L 2053 2491 
Q 2509 2491 2742 2702 
Q 2975 2913 2975 3322 
Q 2975 3731 2742 3939 
Q 2509 4147 2053 4147 
L 1259 4147 
z
" transform="scale(0.015625)"/>
      </defs>
      <use xlink:href="#DejaVuSans-41"/>
      <use xlink:href="#DejaVuSans-62" transform="translate(68.408203 0)"/>
      <use xlink:href="#DejaVuSans-73" transform="translate(131.884766 0)"/>
      <use xlink:href="#DejaVuSans-6f" transform="translate(183.984375 0)"/>
      <use xlink:href="#DejaVuSans-6c" transform="translate(245.166016 0)"/>
      <use xlink:href="#DejaVuSans-75" transform="translate(272.949219 0)"/>
      <use xlink:href="#DejaVuSans-74" transform="translate(336.328125 0)"/>
      <use xlink:href="#DejaVuSans-65" transform="translate(375.537109 0)"/>
      <use xlink:href="#DejaVuSans-20" transform="translate(437.060547 0)"/>
      <use xlink:href="#DejaVuSans-52" transform="translate(468.847656 0)"/>
      <use xlink:href="#DejaVuSans-65" transform="translate(533.830078 0)"/>
      <use xlink:href="#DejaVuSans-74" transform="translate(595.353516 0)"/>
      <use xlink:href="#DejaVuSans-75" transform="translate(634.5625 0)"/>
      <use xlink:href="#DejaVuSans-72" transform="translate(697.941406 0)"/>
      <use xlink:href="#DejaVuSans-6e" transform="translate(737.304688 0)"/>
      <use xlink:href="#DejaVuSans-73" transform="translate(800.683594 0)"/>
     </g>
    </g>
    <g id="line2d_18">
     <path d="M 542.639063 79.616562 
L 552.639063 79.616562 
L 562.639063 79.616562 
" style="fill: none; stroke: #1f77b4; stroke-width: 1.5; stroke-linecap: square"/>
    </g>
    <g id="text_19">
     <!-- LSTM FFNN MDN v2 Volatility Prediction -->
     <g transform="translate(570.639063 83.116562) scale(0.1 -0.1)">
      <use xlink:href="#DejaVuSans-4c"/>
      <use xlink:href="#DejaVuSans-53" transform="translate(55.712891 0)"/>
      <use xlink:href="#DejaVuSans-54" transform="translate(119.189453 0)"/>
      <use xlink:href="#DejaVuSans-4d" transform="translate(180.273438 0)"/>
      <use xlink:href="#DejaVuSans-20" transform="translate(266.552734 0)"/>
      <use xlink:href="#DejaVuSans-46" transform="translate(298.339844 0)"/>
      <use xlink:href="#DejaVuSans-46" transform="translate(355.859375 0)"/>
      <use xlink:href="#DejaVuSans-4e" transform="translate(413.378906 0)"/>
      <use xlink:href="#DejaVuSans-4e" transform="translate(488.183594 0)"/>
      <use xlink:href="#DejaVuSans-20" transform="translate(562.988281 0)"/>
      <use xlink:href="#DejaVuSans-4d" transform="translate(594.775391 0)"/>
      <use xlink:href="#DejaVuSans-44" transform="translate(681.054688 0)"/>
      <use xlink:href="#DejaVuSans-4e" transform="translate(758.056641 0)"/>
      <use xlink:href="#DejaVuSans-20" transform="translate(832.861328 0)"/>
      <use xlink:href="#DejaVuSans-76" transform="translate(864.648438 0)"/>
      <use xlink:href="#DejaVuSans-32" transform="translate(923.828125 0)"/>
      <use xlink:href="#DejaVuSans-20" transform="translate(987.451172 0)"/>
      <use xlink:href="#DejaVuSans-56" transform="translate(1019.238281 0)"/>
      <use xlink:href="#DejaVuSans-6f" transform="translate(1079.896484 0)"/>
      <use xlink:href="#DejaVuSans-6c" transform="translate(1141.078125 0)"/>
      <use xlink:href="#DejaVuSans-61" transform="translate(1168.861328 0)"/>
      <use xlink:href="#DejaVuSans-74" transform="translate(1230.140625 0)"/>
      <use xlink:href="#DejaVuSans-69" transform="translate(1269.349609 0)"/>
      <use xlink:href="#DejaVuSans-6c" transform="translate(1297.132812 0)"/>
      <use xlink:href="#DejaVuSans-69" transform="translate(1324.916016 0)"/>
      <use xlink:href="#DejaVuSans-74" transform="translate(1352.699219 0)"/>
      <use xlink:href="#DejaVuSans-79" transform="translate(1391.908203 0)"/>
      <use xlink:href="#DejaVuSans-20" transform="translate(1451.087891 0)"/>
      <use xlink:href="#DejaVuSans-50" transform="translate(1482.875 0)"/>
      <use xlink:href="#DejaVuSans-72" transform="translate(1541.427734 0)"/>
      <use xlink:href="#DejaVuSans-65" transform="translate(1580.291016 0)"/>
      <use xlink:href="#DejaVuSans-64" transform="translate(1641.814453 0)"/>
      <use xlink:href="#DejaVuSans-69" transform="translate(1705.291016 0)"/>
      <use xlink:href="#DejaVuSans-63" transform="translate(1733.074219 0)"/>
      <use xlink:href="#DejaVuSans-74" transform="translate(1788.054688 0)"/>
      <use xlink:href="#DejaVuSans-69" transform="translate(1827.263672 0)"/>
      <use xlink:href="#DejaVuSans-6f" transform="translate(1855.046875 0)"/>
      <use xlink:href="#DejaVuSans-6e" transform="translate(1916.228516 0)"/>
     </g>
    </g>
   </g>
  </g>
 </g>
 <defs>
  <clipPath id="p985b3f5e3f">
   <rect x="108" y="51.84" width="669.6" height="332.64"/>
  </clipPath>
 </defs>
</svg>
