<?xml version="1.0" encoding="utf-8" standalone="no"?>
<!DOCTYPE svg PUBLIC "-//W3C//DTD SVG 1.1//EN"
  "http://www.w3.org/Graphics/SVG/1.1/DTD/svg11.dtd">
<svg xmlns:xlink="http://www.w3.org/1999/xlink" width="864pt" height="432pt" viewBox="0 0 864 432" xmlns="http://www.w3.org/2000/svg" version="1.1">
 <metadata>
  <rdf:RDF xmlns:dc="http://purl.org/dc/elements/1.1/" xmlns:cc="http://creativecommons.org/ns#" xmlns:rdf="http://www.w3.org/1999/02/22-rdf-syntax-ns#">
   <cc:Work>
    <dc:type rdf:resource="http://purl.org/dc/dcmitype/StillImage"/>
    <dc:date>2024-11-09T18:52:27.433254</dc:date>
    <dc:format>image/svg+xml</dc:format>
    <dc:creator>
     <cc:Agent>
      <dc:title>Matplotlib v3.6.3, https://matplotlib.org/</dc:title>
     </cc:Agent>
    </dc:creator>
   </cc:Work>
  </rdf:RDF>
 </metadata>
 <defs>
  <style type="text/css">*{stroke-linejoin: round; stroke-linecap: butt}</style>
 </defs>
 <g id="figure_1">
  <g id="patch_1">
   <path d="M 0 432 
L 864 432 
L 864 0 
L 0 0 
z
" style="fill: #ffffff"/>
  </g>
  <g id="axes_1">
   <g id="patch_2">
    <path d="M 108 384.48 
L 777.6 384.48 
L 777.6 51.84 
L 108 51.84 
z
" style="fill: #ffffff"/>
   </g>
   <g id="matplotlib.axis_1">
    <g id="xtick_1">
     <g id="line2d_1">
      <defs>
       <path id="m79b20f17c9" d="M 0 0 
L 0 3.5 
" style="stroke: #000000; stroke-width: 0.8"/>
      </defs>
      <g>
       <use xlink:href="#m79b20f17c9" x="138.822612" y="384.48" style="stroke: #000000; stroke-width: 0.8"/>
      </g>
     </g>
     <g id="text_1">
      <!-- 2020-07 -->
      <g transform="translate(117.931206 399.078438) scale(0.1 -0.1)">
       <defs>
        <path id="DejaVuSans-32" d="M 1228 531 
L 3431 531 
L 3431 0 
L 469 0 
L 469 531 
Q 828 903 1448 1529 
Q 2069 2156 2228 2338 
Q 2531 2678 2651 2914 
Q 2772 3150 2772 3378 
Q 2772 3750 2511 3984 
Q 2250 4219 1831 4219 
Q 1534 4219 1204 4116 
Q 875 4013 500 3803 
L 500 4441 
Q 881 4594 1212 4672 
Q 1544 4750 1819 4750 
Q 2544 4750 2975 4387 
Q 3406 4025 3406 3419 
Q 3406 3131 3298 2873 
Q 3191 2616 2906 2266 
Q 2828 2175 2409 1742 
Q 1991 1309 1228 531 
z
" transform="scale(0.015625)"/>
        <path id="DejaVuSans-30" d="M 2034 4250 
Q 1547 4250 1301 3770 
Q 1056 3291 1056 2328 
Q 1056 1369 1301 889 
Q 1547 409 2034 409 
Q 2525 409 2770 889 
Q 3016 1369 3016 2328 
Q 3016 3291 2770 3770 
Q 2525 4250 2034 4250 
z
M 2034 4750 
Q 2819 4750 3233 4129 
Q 3647 3509 3647 2328 
Q 3647 1150 3233 529 
Q 2819 -91 2034 -91 
Q 1250 -91 836 529 
Q 422 1150 422 2328 
Q 422 3509 836 4129 
Q 1250 4750 2034 4750 
z
" transform="scale(0.015625)"/>
        <path id="DejaVuSans-2d" d="M 313 2009 
L 1997 2009 
L 1997 1497 
L 313 1497 
L 313 2009 
z
" transform="scale(0.015625)"/>
        <path id="DejaVuSans-37" d="M 525 4666 
L 3525 4666 
L 3525 4397 
L 1831 0 
L 1172 0 
L 2766 4134 
L 525 4134 
L 525 4666 
z
" transform="scale(0.015625)"/>
       </defs>
       <use xlink:href="#DejaVuSans-32"/>
       <use xlink:href="#DejaVuSans-30" x="63.623047"/>
       <use xlink:href="#DejaVuSans-32" x="127.246094"/>
       <use xlink:href="#DejaVuSans-30" x="190.869141"/>
       <use xlink:href="#DejaVuSans-2d" x="254.492188"/>
       <use xlink:href="#DejaVuSans-30" x="290.576172"/>
       <use xlink:href="#DejaVuSans-37" x="354.199219"/>
      </g>
     </g>
    </g>
    <g id="xtick_2">
     <g id="line2d_2">
      <g>
       <use xlink:href="#m79b20f17c9" x="209.892293" y="384.48" style="stroke: #000000; stroke-width: 0.8"/>
      </g>
     </g>
     <g id="text_2">
      <!-- 2021-01 -->
      <g transform="translate(189.000887 399.078438) scale(0.1 -0.1)">
       <defs>
        <path id="DejaVuSans-31" d="M 794 531 
L 1825 531 
L 1825 4091 
L 703 3866 
L 703 4441 
L 1819 4666 
L 2450 4666 
L 2450 531 
L 3481 531 
L 3481 0 
L 794 0 
L 794 531 
z
" transform="scale(0.015625)"/>
       </defs>
       <use xlink:href="#DejaVuSans-32"/>
       <use xlink:href="#DejaVuSans-30" x="63.623047"/>
       <use xlink:href="#DejaVuSans-32" x="127.246094"/>
       <use xlink:href="#DejaVuSans-31" x="190.869141"/>
       <use xlink:href="#DejaVuSans-2d" x="254.492188"/>
       <use xlink:href="#DejaVuSans-30" x="290.576172"/>
       <use xlink:href="#DejaVuSans-31" x="354.199219"/>
      </g>
     </g>
    </g>
    <g id="xtick_3">
     <g id="line2d_3">
      <g>
       <use xlink:href="#m79b20f17c9" x="279.80323" y="384.48" style="stroke: #000000; stroke-width: 0.8"/>
      </g>
     </g>
     <g id="text_3">
      <!-- 2021-07 -->
      <g transform="translate(258.911824 399.078438) scale(0.1 -0.1)">
       <use xlink:href="#DejaVuSans-32"/>
       <use xlink:href="#DejaVuSans-30" x="63.623047"/>
       <use xlink:href="#DejaVuSans-32" x="127.246094"/>
       <use xlink:href="#DejaVuSans-31" x="190.869141"/>
       <use xlink:href="#DejaVuSans-2d" x="254.492188"/>
       <use xlink:href="#DejaVuSans-30" x="290.576172"/>
       <use xlink:href="#DejaVuSans-37" x="354.199219"/>
      </g>
     </g>
    </g>
    <g id="xtick_4">
     <g id="line2d_4">
      <g>
       <use xlink:href="#m79b20f17c9" x="350.872912" y="384.48" style="stroke: #000000; stroke-width: 0.8"/>
      </g>
     </g>
     <g id="text_4">
      <!-- 2022-01 -->
      <g transform="translate(329.981506 399.078438) scale(0.1 -0.1)">
       <use xlink:href="#DejaVuSans-32"/>
       <use xlink:href="#DejaVuSans-30" x="63.623047"/>
       <use xlink:href="#DejaVuSans-32" x="127.246094"/>
       <use xlink:href="#DejaVuSans-32" x="190.869141"/>
       <use xlink:href="#DejaVuSans-2d" x="254.492188"/>
       <use xlink:href="#DejaVuSans-30" x="290.576172"/>
       <use xlink:href="#DejaVuSans-31" x="354.199219"/>
      </g>
     </g>
    </g>
    <g id="xtick_5">
     <g id="line2d_5">
      <g>
       <use xlink:href="#m79b20f17c9" x="420.783849" y="384.48" style="stroke: #000000; stroke-width: 0.8"/>
      </g>
     </g>
     <g id="text_5">
      <!-- 2022-07 -->
      <g transform="translate(399.892442 399.078438) scale(0.1 -0.1)">
       <use xlink:href="#DejaVuSans-32"/>
       <use xlink:href="#DejaVuSans-30" x="63.623047"/>
       <use xlink:href="#DejaVuSans-32" x="127.246094"/>
       <use xlink:href="#DejaVuSans-32" x="190.869141"/>
       <use xlink:href="#DejaVuSans-2d" x="254.492188"/>
       <use xlink:href="#DejaVuSans-30" x="290.576172"/>
       <use xlink:href="#DejaVuSans-37" x="354.199219"/>
      </g>
     </g>
    </g>
    <g id="xtick_6">
     <g id="line2d_6">
      <g>
       <use xlink:href="#m79b20f17c9" x="491.85353" y="384.48" style="stroke: #000000; stroke-width: 0.8"/>
      </g>
     </g>
     <g id="text_6">
      <!-- 2023-01 -->
      <g transform="translate(470.962124 399.078438) scale(0.1 -0.1)">
       <defs>
        <path id="DejaVuSans-33" d="M 2597 2516 
Q 3050 2419 3304 2112 
Q 3559 1806 3559 1356 
Q 3559 666 3084 287 
Q 2609 -91 1734 -91 
Q 1441 -91 1130 -33 
Q 819 25 488 141 
L 488 750 
Q 750 597 1062 519 
Q 1375 441 1716 441 
Q 2309 441 2620 675 
Q 2931 909 2931 1356 
Q 2931 1769 2642 2001 
Q 2353 2234 1838 2234 
L 1294 2234 
L 1294 2753 
L 1863 2753 
Q 2328 2753 2575 2939 
Q 2822 3125 2822 3475 
Q 2822 3834 2567 4026 
Q 2313 4219 1838 4219 
Q 1578 4219 1281 4162 
Q 984 4106 628 3988 
L 628 4550 
Q 988 4650 1302 4700 
Q 1616 4750 1894 4750 
Q 2613 4750 3031 4423 
Q 3450 4097 3450 3541 
Q 3450 3153 3228 2886 
Q 3006 2619 2597 2516 
z
" transform="scale(0.015625)"/>
       </defs>
       <use xlink:href="#DejaVuSans-32"/>
       <use xlink:href="#DejaVuSans-30" x="63.623047"/>
       <use xlink:href="#DejaVuSans-32" x="127.246094"/>
       <use xlink:href="#DejaVuSans-33" x="190.869141"/>
       <use xlink:href="#DejaVuSans-2d" x="254.492188"/>
       <use xlink:href="#DejaVuSans-30" x="290.576172"/>
       <use xlink:href="#DejaVuSans-31" x="354.199219"/>
      </g>
     </g>
    </g>
    <g id="xtick_7">
     <g id="line2d_7">
      <g>
       <use xlink:href="#m79b20f17c9" x="561.764467" y="384.48" style="stroke: #000000; stroke-width: 0.8"/>
      </g>
     </g>
     <g id="text_7">
      <!-- 2023-07 -->
      <g transform="translate(540.873061 399.078438) scale(0.1 -0.1)">
       <use xlink:href="#DejaVuSans-32"/>
       <use xlink:href="#DejaVuSans-30" x="63.623047"/>
       <use xlink:href="#DejaVuSans-32" x="127.246094"/>
       <use xlink:href="#DejaVuSans-33" x="190.869141"/>
       <use xlink:href="#DejaVuSans-2d" x="254.492188"/>
       <use xlink:href="#DejaVuSans-30" x="290.576172"/>
       <use xlink:href="#DejaVuSans-37" x="354.199219"/>
      </g>
     </g>
    </g>
    <g id="xtick_8">
     <g id="line2d_8">
      <g>
       <use xlink:href="#m79b20f17c9" x="632.834149" y="384.48" style="stroke: #000000; stroke-width: 0.8"/>
      </g>
     </g>
     <g id="text_8">
      <!-- 2024-01 -->
      <g transform="translate(611.942742 399.078438) scale(0.1 -0.1)">
       <defs>
        <path id="DejaVuSans-34" d="M 2419 4116 
L 825 1625 
L 2419 1625 
L 2419 4116 
z
M 2253 4666 
L 3047 4666 
L 3047 1625 
L 3713 1625 
L 3713 1100 
L 3047 1100 
L 3047 0 
L 2419 0 
L 2419 1100 
L 313 1100 
L 313 1709 
L 2253 4666 
z
" transform="scale(0.015625)"/>
       </defs>
       <use xlink:href="#DejaVuSans-32"/>
       <use xlink:href="#DejaVuSans-30" x="63.623047"/>
       <use xlink:href="#DejaVuSans-32" x="127.246094"/>
       <use xlink:href="#DejaVuSans-34" x="190.869141"/>
       <use xlink:href="#DejaVuSans-2d" x="254.492188"/>
       <use xlink:href="#DejaVuSans-30" x="290.576172"/>
       <use xlink:href="#DejaVuSans-31" x="354.199219"/>
      </g>
     </g>
    </g>
    <g id="xtick_9">
     <g id="line2d_9">
      <g>
       <use xlink:href="#m79b20f17c9" x="703.131334" y="384.48" style="stroke: #000000; stroke-width: 0.8"/>
      </g>
     </g>
     <g id="text_9">
      <!-- 2024-07 -->
      <g transform="translate(682.239927 399.078438) scale(0.1 -0.1)">
       <use xlink:href="#DejaVuSans-32"/>
       <use xlink:href="#DejaVuSans-30" x="63.623047"/>
       <use xlink:href="#DejaVuSans-32" x="127.246094"/>
       <use xlink:href="#DejaVuSans-34" x="190.869141"/>
       <use xlink:href="#DejaVuSans-2d" x="254.492188"/>
       <use xlink:href="#DejaVuSans-30" x="290.576172"/>
       <use xlink:href="#DejaVuSans-37" x="354.199219"/>
      </g>
     </g>
    </g>
    <g id="xtick_10">
     <g id="line2d_10">
      <g>
       <use xlink:href="#m79b20f17c9" x="774.201015" y="384.48" style="stroke: #000000; stroke-width: 0.8"/>
      </g>
     </g>
     <g id="text_10">
      <!-- 2025-01 -->
      <g transform="translate(753.309609 399.078438) scale(0.1 -0.1)">
       <defs>
        <path id="DejaVuSans-35" d="M 691 4666 
L 3169 4666 
L 3169 4134 
L 1269 4134 
L 1269 2991 
Q 1406 3038 1543 3061 
Q 1681 3084 1819 3084 
Q 2600 3084 3056 2656 
Q 3513 2228 3513 1497 
Q 3513 744 3044 326 
Q 2575 -91 1722 -91 
Q 1428 -91 1123 -41 
Q 819 9 494 109 
L 494 744 
Q 775 591 1075 516 
Q 1375 441 1709 441 
Q 2250 441 2565 725 
Q 2881 1009 2881 1497 
Q 2881 1984 2565 2268 
Q 2250 2553 1709 2553 
Q 1456 2553 1204 2497 
Q 953 2441 691 2322 
L 691 4666 
z
" transform="scale(0.015625)"/>
       </defs>
       <use xlink:href="#DejaVuSans-32"/>
       <use xlink:href="#DejaVuSans-30" x="63.623047"/>
       <use xlink:href="#DejaVuSans-32" x="127.246094"/>
       <use xlink:href="#DejaVuSans-35" x="190.869141"/>
       <use xlink:href="#DejaVuSans-2d" x="254.492188"/>
       <use xlink:href="#DejaVuSans-30" x="290.576172"/>
       <use xlink:href="#DejaVuSans-31" x="354.199219"/>
      </g>
     </g>
    </g>
    <g id="text_11">
     <!-- Date -->
     <g transform="translate(430.849219 412.756563) scale(0.1 -0.1)">
      <defs>
       <path id="DejaVuSans-44" d="M 1259 4147 
L 1259 519 
L 2022 519 
Q 2988 519 3436 956 
Q 3884 1394 3884 2338 
Q 3884 3275 3436 3711 
Q 2988 4147 2022 4147 
L 1259 4147 
z
M 628 4666 
L 1925 4666 
Q 3281 4666 3915 4102 
Q 4550 3538 4550 2338 
Q 4550 1131 3912 565 
Q 3275 0 1925 0 
L 628 0 
L 628 4666 
z
" transform="scale(0.015625)"/>
       <path id="DejaVuSans-61" d="M 2194 1759 
Q 1497 1759 1228 1600 
Q 959 1441 959 1056 
Q 959 750 1161 570 
Q 1363 391 1709 391 
Q 2188 391 2477 730 
Q 2766 1069 2766 1631 
L 2766 1759 
L 2194 1759 
z
M 3341 1997 
L 3341 0 
L 2766 0 
L 2766 531 
Q 2569 213 2275 61 
Q 1981 -91 1556 -91 
Q 1019 -91 701 211 
Q 384 513 384 1019 
Q 384 1609 779 1909 
Q 1175 2209 1959 2209 
L 2766 2209 
L 2766 2266 
Q 2766 2663 2505 2880 
Q 2244 3097 1772 3097 
Q 1472 3097 1187 3025 
Q 903 2953 641 2809 
L 641 3341 
Q 956 3463 1253 3523 
Q 1550 3584 1831 3584 
Q 2591 3584 2966 3190 
Q 3341 2797 3341 1997 
z
" transform="scale(0.015625)"/>
       <path id="DejaVuSans-74" d="M 1172 4494 
L 1172 3500 
L 2356 3500 
L 2356 3053 
L 1172 3053 
L 1172 1153 
Q 1172 725 1289 603 
Q 1406 481 1766 481 
L 2356 481 
L 2356 0 
L 1766 0 
Q 1100 0 847 248 
Q 594 497 594 1153 
L 594 3053 
L 172 3053 
L 172 3500 
L 594 3500 
L 594 4494 
L 1172 4494 
z
" transform="scale(0.015625)"/>
       <path id="DejaVuSans-65" d="M 3597 1894 
L 3597 1613 
L 953 1613 
Q 991 1019 1311 708 
Q 1631 397 2203 397 
Q 2534 397 2845 478 
Q 3156 559 3463 722 
L 3463 178 
Q 3153 47 2828 -22 
Q 2503 -91 2169 -91 
Q 1331 -91 842 396 
Q 353 884 353 1716 
Q 353 2575 817 3079 
Q 1281 3584 2069 3584 
Q 2775 3584 3186 3129 
Q 3597 2675 3597 1894 
z
M 3022 2063 
Q 3016 2534 2758 2815 
Q 2500 3097 2075 3097 
Q 1594 3097 1305 2825 
Q 1016 2553 972 2059 
L 3022 2063 
z
" transform="scale(0.015625)"/>
      </defs>
      <use xlink:href="#DejaVuSans-44"/>
      <use xlink:href="#DejaVuSans-61" x="77.001953"/>
      <use xlink:href="#DejaVuSans-74" x="138.28125"/>
      <use xlink:href="#DejaVuSans-65" x="177.490234"/>
     </g>
    </g>
   </g>
   <g id="matplotlib.axis_2">
    <g id="ytick_1">
     <g id="line2d_11">
      <defs>
       <path id="m7160fb4407" d="M 0 0 
L -3.5 0 
" style="stroke: #000000; stroke-width: 0.8"/>
      </defs>
      <g>
       <use xlink:href="#m7160fb4407" x="108" y="369.36" style="stroke: #000000; stroke-width: 0.8"/>
      </g>
     </g>
     <g id="text_12">
      <!-- 0.00 -->
      <g transform="translate(78.734375 373.159219) scale(0.1 -0.1)">
       <defs>
        <path id="DejaVuSans-2e" d="M 684 794 
L 1344 794 
L 1344 0 
L 684 0 
L 684 794 
z
" transform="scale(0.015625)"/>
       </defs>
       <use xlink:href="#DejaVuSans-30"/>
       <use xlink:href="#DejaVuSans-2e" x="63.623047"/>
       <use xlink:href="#DejaVuSans-30" x="95.410156"/>
       <use xlink:href="#DejaVuSans-30" x="159.033203"/>
      </g>
     </g>
    </g>
    <g id="ytick_2">
     <g id="line2d_12">
      <g>
       <use xlink:href="#m7160fb4407" x="108" y="308.015862" style="stroke: #000000; stroke-width: 0.8"/>
      </g>
     </g>
     <g id="text_13">
      <!-- 0.01 -->
      <g transform="translate(78.734375 311.815081) scale(0.1 -0.1)">
       <use xlink:href="#DejaVuSans-30"/>
       <use xlink:href="#DejaVuSans-2e" x="63.623047"/>
       <use xlink:href="#DejaVuSans-30" x="95.410156"/>
       <use xlink:href="#DejaVuSans-31" x="159.033203"/>
      </g>
     </g>
    </g>
    <g id="ytick_3">
     <g id="line2d_13">
      <g>
       <use xlink:href="#m7160fb4407" x="108" y="246.671724" style="stroke: #000000; stroke-width: 0.8"/>
      </g>
     </g>
     <g id="text_14">
      <!-- 0.02 -->
      <g transform="translate(78.734375 250.470942) scale(0.1 -0.1)">
       <use xlink:href="#DejaVuSans-30"/>
       <use xlink:href="#DejaVuSans-2e" x="63.623047"/>
       <use xlink:href="#DejaVuSans-30" x="95.410156"/>
       <use xlink:href="#DejaVuSans-32" x="159.033203"/>
      </g>
     </g>
    </g>
    <g id="ytick_4">
     <g id="line2d_14">
      <g>
       <use xlink:href="#m7160fb4407" x="108" y="185.327585" style="stroke: #000000; stroke-width: 0.8"/>
      </g>
     </g>
     <g id="text_15">
      <!-- 0.03 -->
      <g transform="translate(78.734375 189.126804) scale(0.1 -0.1)">
       <use xlink:href="#DejaVuSans-30"/>
       <use xlink:href="#DejaVuSans-2e" x="63.623047"/>
       <use xlink:href="#DejaVuSans-30" x="95.410156"/>
       <use xlink:href="#DejaVuSans-33" x="159.033203"/>
      </g>
     </g>
    </g>
    <g id="ytick_5">
     <g id="line2d_15">
      <g>
       <use xlink:href="#m7160fb4407" x="108" y="123.983447" style="stroke: #000000; stroke-width: 0.8"/>
      </g>
     </g>
     <g id="text_16">
      <!-- 0.04 -->
      <g transform="translate(78.734375 127.782666) scale(0.1 -0.1)">
       <use xlink:href="#DejaVuSans-30"/>
       <use xlink:href="#DejaVuSans-2e" x="63.623047"/>
       <use xlink:href="#DejaVuSans-30" x="95.410156"/>
       <use xlink:href="#DejaVuSans-34" x="159.033203"/>
      </g>
     </g>
    </g>
    <g id="ytick_6">
     <g id="line2d_16">
      <g>
       <use xlink:href="#m7160fb4407" x="108" y="62.639309" style="stroke: #000000; stroke-width: 0.8"/>
      </g>
     </g>
     <g id="text_17">
      <!-- 0.05 -->
      <g transform="translate(78.734375 66.438528) scale(0.1 -0.1)">
       <use xlink:href="#DejaVuSans-30"/>
       <use xlink:href="#DejaVuSans-2e" x="63.623047"/>
       <use xlink:href="#DejaVuSans-30" x="95.410156"/>
       <use xlink:href="#DejaVuSans-35" x="159.033203"/>
      </g>
     </g>
    </g>
    <g id="text_18">
     <!-- Volatility -->
     <g transform="translate(72.654687 239.752187) rotate(-90) scale(0.1 -0.1)">
      <defs>
       <path id="DejaVuSans-56" d="M 1831 0 
L 50 4666 
L 709 4666 
L 2188 738 
L 3669 4666 
L 4325 4666 
L 2547 0 
L 1831 0 
z
" transform="scale(0.015625)"/>
       <path id="DejaVuSans-6f" d="M 1959 3097 
Q 1497 3097 1228 2736 
Q 959 2375 959 1747 
Q 959 1119 1226 758 
Q 1494 397 1959 397 
Q 2419 397 2687 759 
Q 2956 1122 2956 1747 
Q 2956 2369 2687 2733 
Q 2419 3097 1959 3097 
z
M 1959 3584 
Q 2709 3584 3137 3096 
Q 3566 2609 3566 1747 
Q 3566 888 3137 398 
Q 2709 -91 1959 -91 
Q 1206 -91 779 398 
Q 353 888 353 1747 
Q 353 2609 779 3096 
Q 1206 3584 1959 3584 
z
" transform="scale(0.015625)"/>
       <path id="DejaVuSans-6c" d="M 603 4863 
L 1178 4863 
L 1178 0 
L 603 0 
L 603 4863 
z
" transform="scale(0.015625)"/>
       <path id="DejaVuSans-69" d="M 603 3500 
L 1178 3500 
L 1178 0 
L 603 0 
L 603 3500 
z
M 603 4863 
L 1178 4863 
L 1178 4134 
L 603 4134 
L 603 4863 
z
" transform="scale(0.015625)"/>
       <path id="DejaVuSans-79" d="M 2059 -325 
Q 1816 -950 1584 -1140 
Q 1353 -1331 966 -1331 
L 506 -1331 
L 506 -850 
L 844 -850 
Q 1081 -850 1212 -737 
Q 1344 -625 1503 -206 
L 1606 56 
L 191 3500 
L 800 3500 
L 1894 763 
L 2988 3500 
L 3597 3500 
L 2059 -325 
z
" transform="scale(0.015625)"/>
      </defs>
      <use xlink:href="#DejaVuSans-56"/>
      <use xlink:href="#DejaVuSans-6f" x="60.658203"/>
      <use xlink:href="#DejaVuSans-6c" x="121.839844"/>
      <use xlink:href="#DejaVuSans-61" x="149.623047"/>
      <use xlink:href="#DejaVuSans-74" x="210.902344"/>
      <use xlink:href="#DejaVuSans-69" x="250.111328"/>
      <use xlink:href="#DejaVuSans-6c" x="277.894531"/>
      <use xlink:href="#DejaVuSans-69" x="305.677734"/>
      <use xlink:href="#DejaVuSans-74" x="333.460938"/>
      <use xlink:href="#DejaVuSans-79" x="372.669922"/>
     </g>
    </g>
   </g>
   <g id="line2d_17">
    <path d="M 138.436364 368.55395 
L 138.822612 367.97856 
L 139.20886 362.944102 
L 140.753853 362.558057 
L 141.140102 359.321512 
L 141.52635 369.357477 
L 142.298846 359.240294 
L 143.843839 363.364751 
L 144.230088 364.307546 
L 144.616336 369.341563 
L 145.002584 366.119328 
L 146.161329 367.753527 
L 146.547577 369.344155 
L 146.933826 369.151287 
L 147.320074 369.314175 
L 147.706322 368.725118 
L 148.865067 368.055623 
L 149.251315 365.6637 
L 149.637563 369.345224 
L 150.023812 368.752635 
L 150.41006 369.09864 
L 151.568805 368.684282 
L 151.955053 365.909281 
L 152.341301 360.684769 
L 152.72755 346.381475 
L 153.113798 368.305236 
L 154.272543 362.923349 
L 154.658791 348.556806 
L 155.045039 367.869291 
L 155.431287 369.112487 
L 155.817536 368.907618 
L 157.362529 369.225946 
L 157.748777 369.358197 
L 158.135025 368.308327 
L 158.521274 368.071616 
L 159.680018 365.631194 
L 160.066267 368.780048 
L 160.838763 368.92571 
L 161.225012 368.327463 
L 162.383756 368.107085 
L 162.770005 341.199236 
L 163.156253 366.131654 
L 163.542501 341.714867 
L 163.928749 367.711682 
L 165.473743 367.624198 
L 165.859991 365.772057 
L 166.632487 367.88729 
L 167.791232 362.580098 
L 168.17748 369.329261 
L 168.563729 369.138088 
L 168.949977 364.975217 
L 169.336225 365.495 
L 170.49497 364.088319 
L 170.881218 369.351807 
L 171.267467 193.870582 
L 171.653715 361.713507 
L 172.039963 368.084504 
L 173.198708 369.272398 
L 173.584956 365.963457 
L 173.971204 364.727645 
L 174.357453 364.208924 
L 174.743701 364.16902 
L 175.902446 347.673369 
L 176.288694 368.641507 
L 176.674942 363.470517 
L 177.061191 369.315764 
L 177.447439 368.802315 
L 178.606184 368.560603 
L 178.992432 369.332835 
L 179.37868 369.153798 
L 179.764928 369.320409 
L 180.151177 368.758059 
L 181.309922 368.847497 
L 181.69617 368.665812 
L 182.082418 365.710743 
L 182.468666 368.802002 
L 182.854915 367.813053 
L 184.013659 366.668217 
L 184.399908 369.025745 
L 184.786156 355.617626 
L 185.558653 369.139901 
L 186.717397 360.406031 
L 187.103646 368.965203 
L 187.489894 357.553891 
L 187.876142 278.80455 
L 188.26239 345.968878 
L 189.421135 359.836039 
L 189.807383 368.718314 
L 190.193632 369.180307 
L 190.57988 369.357863 
L 190.966128 363.135516 
L 192.124873 353.251185 
L 192.511121 369.010091 
L 192.89737 368.606755 
L 193.283618 369.14898 
L 193.669866 367.694529 
L 194.828611 355.741571 
L 195.214859 365.94643 
L 195.601108 367.23679 
L 196.373604 366.520631 
L 197.532349 368.423967 
L 197.918597 369.357311 
L 198.304845 369.227515 
L 198.691094 365.0695 
L 199.077342 350.548161 
L 200.236087 369.168517 
L 200.622335 364.611036 
L 201.008583 368.774074 
L 201.394832 368.978314 
L 201.78108 366.942388 
L 202.939825 363.887445 
L 203.712321 367.831917 
L 204.098569 368.410296 
L 204.484818 368.712256 
L 205.643563 366.332978 
L 206.029811 364.026471 
L 206.416059 365.653466 
L 206.802307 369.340064 
L 208.3473 369.358248 
L 208.733549 365.927565 
L 209.119797 366.711534 
L 209.506045 368.487375 
L 211.051038 362.246519 
L 211.437287 343.199189 
L 211.823535 337.526808 
L 212.596031 369.358189 
L 213.754776 360.644757 
L 214.527273 368.116449 
L 215.299769 368.431435 
L 216.844762 364.560254 
L 217.231011 364.655028 
L 217.617259 366.602686 
L 218.003507 367.900705 
L 219.162252 367.303319 
L 219.5485 368.891132 
L 219.934749 360.527859 
L 220.320997 368.016937 
L 220.707245 366.240071 
L 221.86599 366.240071 
L 222.252238 367.553054 
L 222.638486 357.200552 
L 223.024735 357.442906 
L 223.410983 368.061632 
L 224.569728 364.70445 
L 224.955976 367.38921 
L 225.342224 367.633537 
L 226.114721 364.012346 
L 227.659714 367.992399 
L 228.045962 363.987033 
L 228.43221 298.840711 
L 228.818459 309.323901 
L 229.977204 369.334296 
L 230.363452 368.473449 
L 230.7497 359.636712 
L 231.135948 355.686107 
L 231.522197 365.822956 
L 232.680941 364.730466 
L 233.06719 369.205304 
L 233.453438 357.102787 
L 233.839686 360.472866 
L 234.225934 367.667705 
L 235.384679 366.276292 
L 236.157176 357.579555 
L 236.543424 349.269718 
L 236.929672 365.509916 
L 238.088417 368.770032 
L 238.474665 366.366751 
L 238.860914 369.283389 
L 239.247162 366.395482 
L 239.63341 369.083792 
L 240.792155 369.247564 
L 241.178403 360.480355 
L 241.564652 369.352688 
L 241.9509 367.874029 
L 242.337148 368.7682 
L 243.495893 364.925221 
L 243.882141 369.060174 
L 244.268389 369.210299 
L 244.654638 363.389753 
L 246.199631 369.286746 
L 246.585879 367.455956 
L 246.972127 345.78621 
L 247.358376 367.57827 
L 247.744624 368.98325 
L 248.903369 369.317123 
L 249.289617 369.148439 
L 249.675865 364.251815 
L 250.062114 367.799241 
L 250.448362 368.74061 
L 251.607107 361.695341 
L 251.993355 348.218534 
L 252.379603 363.822442 
L 252.765851 367.414523 
L 253.1521 362.160277 
L 254.310844 349.906192 
L 254.697093 369.217539 
L 255.083341 369.333866 
L 255.469589 368.675507 
L 255.855838 369.294169 
L 257.014582 368.315649 
L 257.787079 363.609801 
L 258.173327 320.293721 
L 258.559575 345.340783 
L 259.71832 366.878566 
L 260.104569 369.110659 
L 260.490817 360.755198 
L 260.877065 366.957512 
L 261.263313 360.466388 
L 262.422058 360.760047 
L 262.808306 368.766263 
L 263.194555 367.982572 
L 263.580803 369.107682 
L 263.967051 368.744889 
L 265.125796 369.359976 
L 265.512044 368.760421 
L 265.898293 365.178457 
L 266.284541 360.285379 
L 266.670789 368.882897 
L 268.215782 365.307579 
L 268.60203 369.11952 
L 268.988279 368.333072 
L 269.374527 363.299102 
L 270.533272 367.78332 
L 270.91952 363.778275 
L 271.305768 368.822414 
L 271.692017 360.255046 
L 272.078265 368.122522 
L 273.23701 368.635052 
L 273.623258 368.188842 
L 274.009506 369.234256 
L 274.395754 368.909711 
L 274.782003 361.111908 
L 275.940748 366.513123 
L 276.326996 369.353203 
L 276.713244 368.346785 
L 277.099492 368.165395 
L 277.485741 369.218157 
L 278.644485 368.228896 
L 279.030734 368.866149 
L 279.416982 369.176031 
L 279.80323 366.662319 
L 280.189479 368.962056 
L 281.734472 368.428468 
L 282.12072 368.891202 
L 282.506968 368.385247 
L 282.893216 357.338744 
L 284.051961 342.61456 
L 284.43821 368.135784 
L 284.824458 368.364493 
L 285.210706 367.378517 
L 285.596954 364.47632 
L 286.755699 368.090805 
L 287.141947 353.89381 
L 287.528196 367.840855 
L 287.914444 368.280659 
L 288.300692 368.388982 
L 289.459437 366.025635 
L 289.845685 363.659239 
L 290.231934 364.220995 
L 290.618182 358.702566 
L 291.00443 367.838017 
L 292.163175 369.253571 
L 292.935671 369.357192 
L 293.32192 350.539631 
L 293.708168 361.260411 
L 294.866913 366.809679 
L 295.253161 362.869492 
L 295.639409 368.354999 
L 296.025658 369.326758 
L 296.411906 369.167896 
L 297.570651 359.333348 
L 297.956899 358.157976 
L 298.343147 369.146737 
L 299.115644 364.115978 
L 300.274389 361.002549 
L 300.660637 369.173588 
L 301.046885 366.536918 
L 301.433133 367.992758 
L 301.819382 365.382328 
L 302.978126 369.348088 
L 303.364375 369.353702 
L 303.750623 368.704453 
L 304.136871 366.908405 
L 304.52312 368.87058 
L 306.068113 368.352356 
L 306.454361 369.333158 
L 306.840609 367.563535 
L 307.226857 368.835668 
L 308.385602 353.271135 
L 308.77185 369.151415 
L 309.158099 367.958528 
L 309.544347 368.515049 
L 309.930595 367.096173 
L 311.08934 353.139907 
L 311.475588 369.225854 
L 311.861837 363.509546 
L 312.248085 365.229007 
L 312.634333 368.465795 
L 313.793078 367.260396 
L 314.179326 365.070518 
L 314.565575 368.538082 
L 314.951823 369.36 
L 315.338071 369.359181 
L 316.496816 367.59653 
L 316.883064 362.752999 
L 317.269312 369.35995 
L 317.655561 369.359392 
L 318.041809 362.634694 
L 319.200554 369.252117 
L 319.586802 368.390014 
L 319.97305 363.529692 
L 320.359299 362.385675 
L 320.745547 368.600345 
L 321.904292 361.861143 
L 322.29054 369.258861 
L 323.063036 369.246364 
L 323.449285 368.565341 
L 324.60803 362.401545 
L 324.994278 368.192893 
L 325.380526 367.180223 
L 325.766774 346.887466 
L 326.153023 367.554826 
L 327.311767 366.568947 
L 328.084264 369.024517 
L 328.470512 359.509612 
L 328.85676 369.358143 
L 330.015505 366.440806 
L 330.401754 368.108455 
L 330.788002 362.820478 
L 331.560498 367.996644 
L 332.719243 367.223869 
L 333.105491 369.244448 
L 333.877988 369.228237 
L 334.264236 365.722846 
L 335.422981 368.928597 
L 335.809229 363.496368 
L 336.195478 369.322443 
L 336.967974 364.484536 
L 338.512967 361.988249 
L 339.285464 369.145806 
L 339.671712 360.177346 
L 340.830457 368.517397 
L 341.216705 357.875363 
L 341.602953 367.027827 
L 341.989202 364.731891 
L 342.37545 366.717127 
L 343.534195 350.7965 
L 343.920443 366.862337 
L 344.306691 367.647584 
L 344.69294 360.644831 
L 345.079188 369.232588 
L 346.237933 352.501793 
L 346.624181 364.813434 
L 347.010429 369.218272 
L 347.396677 368.50804 
L 348.941671 366.237685 
L 349.327919 369.349826 
L 349.714167 369.351739 
L 350.100415 368.987116 
L 350.486664 369.322332 
L 351.645408 368.427541 
L 352.031657 365.628114 
L 352.417905 364.19158 
L 352.804153 368.790266 
L 353.190401 368.583818 
L 354.349146 359.982266 
L 354.735395 349.757211 
L 355.121643 369.274177 
L 355.507891 365.67071 
L 355.894139 369.088404 
L 357.439132 363.059387 
L 357.825381 363.969247 
L 358.211629 368.530401 
L 358.597877 366.789411 
L 359.756622 369.266268 
L 360.14287 364.45251 
L 360.529119 369.337973 
L 361.301615 369.26733 
L 362.46036 340.999865 
L 362.846608 366.90542 
L 363.232856 367.667275 
L 363.619105 364.035842 
L 364.005353 369.238307 
L 365.164098 367.533353 
L 365.936594 358.503468 
L 366.322843 369.343281 
L 366.709091 366.374767 
L 367.867836 368.157603 
L 368.254084 348.386036 
L 368.640332 367.16463 
L 369.026581 66.96 
L 369.412829 362.964305 
L 370.957822 369.160848 
L 371.34407 352.318323 
L 371.730318 368.474373 
L 372.116567 358.94073 
L 373.275311 366.827493 
L 373.66156 354.36327 
L 374.047808 365.589526 
L 374.434056 365.407875 
L 374.820305 359.670913 
L 375.979049 359.662728 
L 376.365298 354.606018 
L 377.137794 369.09242 
L 377.524042 367.063035 
L 378.682787 355.850953 
L 379.069036 363.233808 
L 379.455284 354.116109 
L 379.841532 365.078358 
L 380.22778 368.808949 
L 381.386525 369.329849 
L 381.772773 362.169365 
L 382.159022 368.383834 
L 382.54527 364.506045 
L 382.931518 367.811122 
L 384.090263 367.979189 
L 384.476511 360.837297 
L 384.86276 369.304533 
L 385.249008 368.862783 
L 385.635256 367.607204 
L 386.794001 369.208647 
L 387.180249 359.821202 
L 387.952746 369.340227 
L 388.338994 369.260847 
L 389.497739 365.831886 
L 389.883987 369.220505 
L 390.270235 361.482759 
L 390.656484 369.00518 
L 392.201477 369.153509 
L 392.587725 359.716916 
L 392.973973 369.24068 
L 393.360222 355.869565 
L 393.74647 362.934118 
L 394.905215 368.62787 
L 395.291463 350.516812 
L 395.677711 365.964184 
L 396.063959 367.859574 
L 396.450208 368.397968 
L 397.608952 369.029593 
L 397.995201 364.078307 
L 398.381449 320.759438 
L 398.767697 316.159005 
L 399.153946 365.622813 
L 400.31269 320.138234 
L 400.698939 369.354487 
L 401.085187 360.185135 
L 401.471435 369.336203 
L 401.857683 339.701016 
L 403.016428 368.619659 
L 403.402677 350.481181 
L 403.788925 368.212263 
L 404.175173 368.315103 
L 404.561421 368.603669 
L 405.720166 364.848165 
L 406.106414 369.355421 
L 406.492663 365.981257 
L 406.878911 338.218342 
L 407.265159 347.007341 
L 408.810152 359.775275 
L 409.196401 328.955951 
L 409.582649 356.677615 
L 409.968897 369.332654 
L 411.127642 364.670425 
L 411.51389 369.359077 
L 411.900138 367.649966 
L 412.286387 355.338657 
L 412.672635 366.777793 
L 413.83138 344.356129 
L 414.217628 369.207704 
L 414.603876 360.668743 
L 414.990125 345.854451 
L 415.376373 355.422328 
L 417.307614 369.358938 
L 417.693862 368.448418 
L 418.080111 353.424475 
L 419.238856 368.956728 
L 419.625104 367.933151 
L 420.011352 352.800497 
L 420.3976 368.186892 
L 420.783849 367.261145 
L 422.328842 366.03644 
L 422.71509 368.659774 
L 423.101338 365.99388 
L 423.487587 368.100254 
L 424.646331 363.795041 
L 425.418828 369.354822 
L 425.805076 369.290674 
L 426.191324 366.823377 
L 427.350069 367.844002 
L 427.736317 361.057963 
L 428.122566 360.926457 
L 428.508814 364.766023 
L 428.895062 367.255607 
L 430.053807 364.816208 
L 430.440055 368.629412 
L 430.826304 359.537644 
L 431.212552 368.903423 
L 431.5988 362.577593 
L 432.757545 367.380033 
L 433.143793 367.741122 
L 433.91629 367.002665 
L 434.302538 368.305446 
L 435.461283 364.420502 
L 435.847531 369.356682 
L 436.233779 348.641106 
L 436.620028 365.713126 
L 437.006276 348.714429 
L 438.165021 368.876848 
L 438.551269 368.537743 
L 438.937517 368.559268 
L 439.323766 369.077607 
L 439.710014 362.040677 
L 440.868759 366.701572 
L 441.255007 367.110829 
L 441.641255 365.802296 
L 442.027503 364.975686 
L 442.413752 365.28875 
L 443.572497 368.599818 
L 443.958745 357.615661 
L 444.344993 367.418288 
L 444.731241 358.581474 
L 445.11749 368.576751 
L 446.662483 365.243553 
L 447.048731 356.489995 
L 447.434979 358.085212 
L 447.821228 363.75953 
L 448.979972 368.565021 
L 449.366221 369.273075 
L 449.752469 363.97978 
L 450.138717 340.659941 
L 450.524965 369.335808 
L 451.68371 362.692891 
L 452.069958 363.149075 
L 452.456207 368.846411 
L 452.842455 356.243171 
L 453.228703 368.750176 
L 454.387448 367.681826 
L 454.773696 367.504234 
L 455.159945 363.763227 
L 455.546193 356.349963 
L 455.932441 369.272607 
L 457.091186 362.046714 
L 457.477434 361.384592 
L 457.863683 365.555348 
L 458.249931 368.007961 
L 458.636179 363.693641 
L 459.794924 366.848955 
L 460.181172 367.250122 
L 460.56742 327.919845 
L 460.953669 367.387154 
L 461.339917 334.728538 
L 462.498662 357.747674 
L 462.88491 368.057936 
L 463.271158 367.134042 
L 463.657407 369.242535 
L 464.043655 350.35042 
L 465.2024 369.333668 
L 465.588648 359.859959 
L 465.974896 369.319951 
L 466.361144 369.359969 
L 466.747393 369.046491 
L 467.906138 369.35342 
L 468.292386 369.300537 
L 468.678634 356.513251 
L 469.064882 363.9414 
L 469.451131 360.832457 
L 470.609875 369.19095 
L 470.996124 342.707912 
L 471.382372 367.050756 
L 471.76862 342.225079 
L 472.154868 368.110932 
L 473.313613 364.500841 
L 473.699862 341.853109 
L 474.08611 363.386274 
L 474.472358 362.663548 
L 474.858606 369.342367 
L 476.017351 366.634731 
L 476.403599 369.356622 
L 476.789848 369.309922 
L 477.562344 359.638068 
L 479.107337 368.054843 
L 479.493586 364.169202 
L 479.879834 368.775652 
L 480.266082 363.025426 
L 481.424827 339.84659 
L 481.811075 364.661065 
L 482.197323 369.346671 
L 482.583572 369.12782 
L 482.96982 368.628831 
L 484.128565 365.873574 
L 484.514813 368.77278 
L 484.901061 350.710923 
L 485.28731 363.785905 
L 485.673558 368.775045 
L 486.832303 359.550558 
L 487.218551 369.357118 
L 487.604799 369.274522 
L 487.991048 364.19998 
L 488.377296 369.245128 
L 489.922289 348.687949 
L 490.308537 369.358073 
L 490.694785 367.809542 
L 491.081034 369.311599 
L 492.626027 368.625509 
L 493.012275 358.838312 
L 493.398523 366.272295 
L 493.784772 368.197661 
L 494.943516 368.671828 
L 495.329765 369.358777 
L 495.716013 350.8018 
L 496.102261 364.64516 
L 496.488509 369.259994 
L 498.419751 369.304837 
L 498.805999 367.04541 
L 499.192247 360.277217 
L 500.350992 355.380431 
L 500.73724 368.013691 
L 501.509737 363.54882 
L 501.895985 368.95849 
L 503.05473 361.765649 
L 503.440978 362.173913 
L 503.827227 367.850389 
L 504.213475 368.024308 
L 504.599723 368.732408 
L 505.758468 360.983769 
L 506.144716 368.852196 
L 506.530964 359.106739 
L 506.917213 369.310586 
L 508.848454 369.310222 
L 509.234702 368.997135 
L 509.620951 356.402179 
L 510.007199 305.957521 
L 511.552192 344.055726 
L 511.93844 367.286141 
L 512.324689 363.99092 
L 512.710937 367.54425 
L 513.869682 363.979907 
L 514.25593 368.670754 
L 514.642178 369.09372 
L 515.028426 368.864683 
L 515.414675 361.72644 
L 516.573419 368.793762 
L 516.959668 363.235641 
L 517.345916 367.518517 
L 517.732164 341.515639 
L 518.118413 353.822901 
L 519.277157 368.800399 
L 519.663406 368.674351 
L 520.049654 354.112342 
L 520.435902 369.35412 
L 520.82215 364.225363 
L 521.980895 366.298581 
L 522.367144 357.142831 
L 523.13964 369.330922 
L 523.525888 368.756223 
L 525.070881 369.293403 
L 525.45713 364.388229 
L 525.843378 368.858671 
L 526.229626 369.11546 
L 527.388371 368.494502 
L 527.774619 358.84194 
L 528.160868 344.758911 
L 528.547116 368.699885 
L 530.092109 365.194023 
L 530.478357 368.816341 
L 530.864605 369.359985 
L 531.250854 369.102908 
L 531.637102 369.214822 
L 532.795847 368.832785 
L 533.182095 369.302395 
L 533.568343 369.034418 
L 533.954592 351.411221 
L 534.34084 301.300038 
L 535.499585 349.358669 
L 535.885833 359.302312 
L 536.272081 365.410303 
L 536.658329 365.166659 
L 537.044578 369.308146 
L 538.203323 356.846414 
L 538.589571 366.37121 
L 538.975819 369.310878 
L 540.90706 362.346593 
L 541.293309 354.769437 
L 541.679557 369.28961 
L 542.065805 366.805519 
L 542.452054 368.183749 
L 543.610798 359.61786 
L 543.997047 368.820361 
L 544.383295 368.588148 
L 544.769543 368.711227 
L 545.155791 364.229743 
L 546.314536 368.556406 
L 546.700784 356.770491 
L 547.087033 367.387463 
L 547.473281 361.928016 
L 547.859529 369.219097 
L 549.404522 368.684118 
L 549.790771 358.465672 
L 550.177019 368.7051 
L 550.563267 344.622618 
L 551.722012 368.675114 
L 552.10826 362.636067 
L 552.494509 365.071256 
L 552.880757 369.278308 
L 553.267005 369.261902 
L 554.42575 368.875963 
L 554.811998 356.35024 
L 555.198246 368.86331 
L 555.584495 367.381394 
L 555.970743 368.485883 
L 557.515736 367.461046 
L 557.901984 368.971796 
L 558.674481 365.184493 
L 559.833226 366.217811 
L 560.219474 368.949465 
L 560.605722 356.737695 
L 560.99197 368.853902 
L 561.378219 367.238907 
L 562.536964 364.794295 
L 563.30946 369.353271 
L 563.695708 369.112533 
L 564.081957 358.125921 
L 565.240701 368.770421 
L 565.62695 369.296578 
L 566.013198 367.365713 
L 566.399446 369.033333 
L 566.785695 364.941073 
L 567.944439 368.733325 
L 568.330688 369.316778 
L 568.716936 367.096148 
L 569.103184 358.890847 
L 569.489432 362.907297 
L 570.648177 365.731037 
L 571.034425 368.959587 
L 571.420674 368.507836 
L 571.806922 367.010761 
L 572.19317 368.728634 
L 573.351915 366.874799 
L 573.738163 366.803065 
L 574.124412 365.579153 
L 574.896908 369.275786 
L 576.055653 367.62174 
L 576.441901 369.167173 
L 576.82815 369.029885 
L 577.214398 368.288481 
L 577.600646 366.377543 
L 578.759391 368.689455 
L 579.145639 368.955793 
L 579.531887 368.203219 
L 579.918136 369.115362 
L 580.304384 369.267694 
L 581.463129 365.464636 
L 581.849377 369.358596 
L 582.235625 367.132359 
L 582.621874 369.178621 
L 583.008122 369.190499 
L 584.166867 369.358295 
L 584.553115 358.602659 
L 584.939363 369.249782 
L 585.325611 369.357761 
L 585.71186 368.989649 
L 587.256853 369.315515 
L 587.643101 349.998294 
L 588.029349 368.480057 
L 588.415598 367.611639 
L 589.574342 368.722311 
L 589.960591 368.666895 
L 590.346839 369.350464 
L 590.733087 369.332672 
L 592.27808 368.454537 
L 592.664329 368.861428 
L 593.050577 363.342314 
L 593.436825 363.063739 
L 593.823073 369.244965 
L 594.981818 368.979249 
L 595.368066 367.002214 
L 595.754315 369.120202 
L 596.140563 348.48146 
L 596.526811 368.194527 
L 597.685556 356.430527 
L 598.071804 361.696799 
L 598.458053 368.703672 
L 598.844301 366.5231 
L 599.230549 363.632992 
L 600.389294 365.238255 
L 600.775542 359.624331 
L 601.16179 367.660917 
L 601.548039 361.515158 
L 601.934287 357.258966 
L 603.093032 365.124398 
L 603.47928 368.69913 
L 603.865528 304.259536 
L 604.251777 350.105934 
L 604.638025 358.781987 
L 605.79677 367.490453 
L 606.183018 366.527659 
L 606.569266 364.357475 
L 606.955515 369.355943 
L 607.341763 369.159912 
L 608.500508 351.66514 
L 608.886756 369.209268 
L 609.273004 363.618158 
L 609.659252 368.256854 
L 610.045501 365.017935 
L 611.204246 340.245033 
L 611.590494 366.406927 
L 611.976742 365.303631 
L 612.36299 360.613561 
L 612.749239 366.768106 
L 613.907983 365.785453 
L 614.294232 316.295793 
L 614.68048 367.152484 
L 615.066728 359.091583 
L 615.452976 360.34916 
L 616.611721 366.101727 
L 616.99797 362.684983 
L 617.384218 369.278704 
L 618.156714 367.405302 
L 619.315459 343.574784 
L 619.701707 365.344515 
L 620.087956 369.247285 
L 620.474204 367.534721 
L 620.860452 359.773492 
L 622.019197 353.885087 
L 622.405445 348.97991 
L 622.791694 357.732017 
L 623.177942 348.804863 
L 623.56419 366.6952 
L 624.722935 368.56366 
L 625.109183 368.617337 
L 625.495431 319.107111 
L 625.88168 359.157406 
L 626.267928 368.9686 
L 627.426673 368.981921 
L 627.812921 366.78545 
L 628.199169 357.524846 
L 628.585418 366.837081 
L 628.971666 363.310663 
L 630.516659 367.941226 
L 630.902907 366.819272 
L 631.289156 369.356674 
L 631.675404 362.398604 
L 633.220397 367.681201 
L 633.606645 355.948987 
L 634.379142 369.356678 
L 635.537886 369.174001 
L 635.924135 366.514738 
L 636.310383 369.17604 
L 636.696631 362.759376 
L 637.08288 366.802892 
L 638.627873 369.356136 
L 639.014121 358.239594 
L 639.400369 366.196701 
L 639.786617 365.6664 
L 640.945362 355.4256 
L 641.331611 367.957004 
L 641.717859 369.026926 
L 642.104107 364.892668 
L 642.490355 368.52505 
L 643.6491 364.669581 
L 644.035348 365.903506 
L 644.421597 355.575674 
L 644.807845 367.454806 
L 645.194093 366.417126 
L 646.352838 354.316242 
L 647.125335 367.415918 
L 647.511583 369.118236 
L 647.897831 368.385666 
L 649.056576 361.165199 
L 649.442824 341.029112 
L 649.829072 367.067719 
L 650.215321 364.945901 
L 650.601569 358.328107 
L 652.146562 343.058108 
L 652.53281 363.090464 
L 652.919059 369.300057 
L 653.305307 366.735294 
L 654.464052 369.043313 
L 654.8503 349.742611 
L 655.236548 365.010612 
L 655.622796 358.064986 
L 656.009045 361.725108 
L 657.16779 339.649608 
L 657.554038 131.674083 
L 657.940286 320.705637 
L 658.326534 365.418779 
L 658.712783 361.436727 
L 659.871527 352.235952 
L 660.257776 369.093202 
L 660.644024 367.998654 
L 661.030272 355.203212 
L 661.416521 367.239273 
L 662.575265 366.959879 
L 662.961514 362.693204 
L 663.347762 363.108809 
L 663.73401 369.293636 
L 664.120258 362.856476 
L 665.279003 366.658192 
L 665.665251 369.17028 
L 666.0515 331.023449 
L 666.437748 366.235241 
L 667.982741 366.997725 
L 668.368989 366.623069 
L 668.755238 367.210292 
L 669.141486 345.762352 
L 669.527734 367.132782 
L 670.686479 343.748614 
L 671.072727 367.051557 
L 671.458976 368.511651 
L 671.845224 366.750718 
L 672.231472 346.419711 
L 673.390217 367.563268 
L 673.776465 351.148048 
L 674.162713 369.323155 
L 674.548962 366.142471 
L 674.93521 369.300067 
L 676.093955 369.350453 
L 676.480203 367.596729 
L 676.866451 368.836449 
L 677.2527 369.321077 
L 677.638948 367.712197 
L 678.797693 336.67953 
L 679.183941 357.448632 
L 679.570189 368.624706 
L 679.956437 353.034735 
L 680.342686 366.363791 
L 681.501431 366.73013 
L 681.887679 369.14859 
L 682.273927 368.935329 
L 683.046424 363.887173 
L 684.205168 368.074542 
L 684.591417 363.987599 
L 684.977665 347.267856 
L 685.363913 368.383165 
L 685.750162 368.011104 
L 686.908906 369.021777 
L 687.295155 364.774952 
L 687.681403 369.350196 
L 688.453899 360.9419 
L 689.998892 369.349124 
L 690.385141 362.101501 
L 690.771389 369.31359 
L 691.157637 368.787521 
L 692.316382 368.163764 
L 692.70263 366.505143 
L 693.088879 369.309481 
L 693.475127 369.26336 
L 693.861375 364.619552 
L 695.02012 368.997643 
L 695.406368 369.356178 
L 695.792617 368.527481 
L 696.178865 359.531655 
L 696.565113 357.162935 
L 697.723858 364.475491 
L 698.110106 368.632398 
L 698.882603 347.641669 
L 699.268851 368.837016 
L 700.427596 367.324763 
L 700.813844 360.322473 
L 701.200092 332.188333 
L 701.586341 359.143627 
L 701.972589 368.984761 
L 703.131334 367.005015 
L 703.517582 369.280516 
L 703.90383 363.56314 
L 704.676327 367.473337 
L 705.835072 368.957388 
L 706.22132 317.871353 
L 706.993816 368.64745 
L 707.380065 369.355905 
L 708.538809 365.642086 
L 708.925058 366.119862 
L 709.311306 364.793026 
L 709.697554 368.250727 
L 710.083802 367.259336 
L 711.242547 367.800662 
L 711.628796 366.229722 
L 712.015044 369.094363 
L 712.401292 369.349318 
L 712.78754 367.006489 
L 714.332533 368.849593 
L 714.718782 368.407442 
L 715.10503 369.184274 
L 715.491278 340.464236 
L 716.650023 359.194879 
L 717.036271 354.66024 
L 717.42252 369.144483 
L 717.808768 362.08519 
L 718.195016 369.330252 
L 719.353761 337.816178 
L 719.740009 367.804246 
L 720.512506 327.28727 
L 720.898754 369.308336 
L 722.057499 358.504872 
L 722.443747 367.535482 
L 722.829995 353.591922 
L 723.216244 367.002438 
L 723.602492 359.137381 
L 724.761237 367.50534 
L 725.147485 369.35876 
L 725.533733 368.6076 
L 725.919982 359.228255 
L 726.30623 367.90641 
L 727.851223 339.009344 
L 728.237471 369.018485 
L 728.623719 365.309516 
L 729.009968 337.99604 
L 730.168713 367.040381 
L 730.554961 369.316116 
L 730.941209 269.8323 
L 731.327457 368.863226 
L 731.713706 368.469315 
L 732.87245 366.495714 
L 733.258699 369.191149 
L 733.644947 361.132087 
L 734.031195 363.406454 
L 734.417443 360.66833 
L 735.576188 363.587204 
L 735.962437 367.018974 
L 736.348685 357.570587 
L 736.734933 314.466927 
L 737.121181 368.840312 
L 738.279926 368.149165 
L 738.666174 369.255552 
L 739.438671 369.320173 
L 739.824919 330.815376 
L 740.983664 366.102122 
L 741.369912 358.980976 
L 741.756161 367.705791 
L 742.142409 368.727721 
L 742.528657 368.843971 
L 743.687402 365.824607 
L 744.07365 359.776183 
L 744.459898 365.251616 
L 744.846147 360.908286 
L 745.232395 369.209549 
L 746.39114 368.198809 
L 746.777388 364.708277 
L 747.163636 365.130024 
L 747.163636 365.130024 
" clip-path="url(#p67bda24f54)" style="fill: none; stroke: #000000; stroke-width: 1.5; stroke-linecap: square"/>
   </g>
   <g id="line2d_18">
    <path d="M 138.436364 180.944933 
L 138.822612 181.669634 
L 139.20886 184.762207 
L 140.753853 176.308917 
L 141.140102 145.981541 
L 141.52635 189.174004 
L 141.912598 161.778816 
L 142.298846 167.018691 
L 143.457591 186.687027 
L 143.843839 162.536919 
L 144.230088 182.619444 
L 144.616336 185.547062 
L 145.002584 176.719874 
L 146.161329 169.389532 
L 146.547577 145.945728 
L 146.933826 175.031512 
L 147.320074 146.586983 
L 147.706322 188.920788 
L 148.865067 182.991417 
L 149.251315 186.527722 
L 149.637563 167.682803 
L 150.023812 161.679862 
L 150.41006 175.924357 
L 151.568805 182.211401 
L 151.955053 188.045284 
L 152.341301 182.889414 
L 152.72755 172.175095 
L 153.113798 171.646579 
L 154.272543 169.754302 
L 154.658791 148.723477 
L 155.045039 141.878391 
L 155.431287 192.814208 
L 155.817536 172.706317 
L 156.976281 171.69393 
L 157.362529 192.016955 
L 157.748777 186.599464 
L 158.135025 151.911004 
L 158.521274 192.227059 
L 159.680018 183.032548 
L 160.066267 168.49319 
L 160.452515 167.670252 
L 160.838763 184.171334 
L 161.225012 186.830345 
L 162.383756 185.868947 
L 162.770005 189.342584 
L 163.156253 176.587536 
L 163.542501 145.306706 
L 163.928749 177.889192 
L 165.473743 162.881949 
L 165.859991 169.580508 
L 166.246239 189.124892 
L 166.632487 192.970133 
L 167.791232 176.480791 
L 168.17748 177.615051 
L 168.563729 184.25878 
L 168.949977 182.554616 
L 169.336225 140.574153 
L 170.49497 189.960583 
L 170.881218 183.241008 
L 171.267467 172.273982 
L 171.653715 141.028793 
L 172.039963 139.373563 
L 173.198708 137.457657 
L 173.584956 180.029679 
L 173.971204 175.190681 
L 174.357453 173.828786 
L 174.743701 186.740807 
L 176.288694 166.625506 
L 176.674942 183.241455 
L 177.061191 166.996767 
L 177.447439 187.124594 
L 178.606184 191.486206 
L 178.992432 174.98981 
L 179.37868 180.163789 
L 179.764928 152.249059 
L 180.151177 180.284999 
L 181.309922 185.077584 
L 181.69617 185.007234 
L 182.082418 174.762193 
L 182.468666 155.394173 
L 182.854915 192.399068 
L 184.399908 184.727744 
L 184.786156 180.66126 
L 185.558653 159.237678 
L 186.717397 156.237152 
L 187.489894 188.077533 
L 187.876142 186.971289 
L 188.26239 169.652956 
L 189.421135 139.738794 
L 189.807383 126.648071 
L 190.193632 192.511346 
L 190.57988 171.548772 
L 190.966128 167.778991 
L 192.124873 176.319223 
L 192.511121 131.622461 
L 192.89737 189.411449 
L 193.669866 166.720436 
L 194.828611 179.411152 
L 195.214859 118.022318 
L 195.601108 176.796088 
L 196.373604 191.127158 
L 197.532349 166.280783 
L 197.918597 180.760079 
L 198.691094 167.911641 
L 199.077342 187.106688 
L 200.236087 169.049624 
L 200.622335 182.032571 
L 201.008583 167.878981 
L 201.394832 186.745985 
L 201.78108 176.477755 
L 202.939825 162.553022 
L 203.326073 168.488497 
L 203.712321 131.249513 
L 204.098569 167.082072 
L 204.484818 180.212325 
L 205.643563 184.278233 
L 206.029811 174.374731 
L 206.416059 186.34499 
L 206.802307 189.073191 
L 208.3473 148.767804 
L 208.733549 159.844396 
L 209.119797 178.350892 
L 209.506045 156.79896 
L 211.051038 161.133482 
L 211.437287 185.020773 
L 211.823535 173.084847 
L 212.209783 146.592296 
L 212.596031 96.560164 
L 214.141024 184.121173 
L 214.527273 153.358615 
L 215.299769 192.914567 
L 216.844762 186.889131 
L 217.231011 171.278796 
L 217.617259 180.826349 
L 218.003507 174.688267 
L 219.162252 166.973174 
L 219.5485 150.612754 
L 219.934749 194.199991 
L 220.707245 169.687468 
L 221.86599 167.79797 
L 222.252238 174.548868 
L 222.638486 144.390526 
L 223.024735 149.753813 
L 223.410983 176.915464 
L 224.569728 166.858601 
L 224.955976 151.202553 
L 225.342224 156.363987 
L 225.728473 168.150797 
L 226.114721 163.350606 
L 227.659714 176.874731 
L 228.045962 185.562969 
L 228.43221 146.265804 
L 228.818459 162.589074 
L 229.977204 138.383456 
L 230.363452 155.12394 
L 230.7497 180.276166 
L 231.135948 164.182384 
L 231.522197 185.221644 
L 232.680941 166.70283 
L 233.06719 155.222919 
L 233.453438 166.938741 
L 233.839686 130.995095 
L 234.225934 168.330941 
L 235.384679 166.704425 
L 235.770928 163.459688 
L 236.157176 162.013414 
L 236.543424 144.658612 
L 236.929672 173.666899 
L 238.088417 179.998528 
L 238.474665 177.354577 
L 238.860914 154.775469 
L 239.247162 152.163901 
L 239.63341 179.658669 
L 240.792155 169.141149 
L 241.178403 174.832278 
L 241.564652 178.641258 
L 241.9509 167.931044 
L 242.337148 137.987541 
L 243.495893 176.934505 
L 243.882141 185.263303 
L 244.268389 171.632482 
L 244.654638 142.228458 
L 246.199631 137.628285 
L 246.585879 175.067275 
L 246.972127 148.557234 
L 247.358376 186.869035 
L 247.744624 169.318176 
L 248.903369 160.406499 
L 249.289617 160.852354 
L 249.675865 190.883162 
L 250.062114 175.536693 
L 250.448362 184.298004 
L 251.607107 179.490899 
L 251.993355 179.544121 
L 252.379603 143.88743 
L 252.765851 178.589318 
L 253.1521 164.629932 
L 254.310844 176.379377 
L 254.697093 171.423323 
L 255.083341 182.372135 
L 255.469589 173.345321 
L 255.855838 171.23015 
L 257.014582 185.141332 
L 257.400831 155.207699 
L 257.787079 185.876247 
L 258.173327 175.566383 
L 258.559575 191.569106 
L 259.71832 146.521866 
L 260.104569 156.287915 
L 260.490817 177.755345 
L 260.877065 177.701797 
L 261.263313 166.437578 
L 262.422058 161.506528 
L 262.808306 172.049604 
L 263.194555 167.513321 
L 263.580803 134.155066 
L 263.967051 172.6691 
L 265.125796 148.633755 
L 265.512044 182.378742 
L 265.898293 146.426593 
L 266.284541 169.102552 
L 266.670789 177.884174 
L 268.215782 162.048957 
L 268.60203 176.039371 
L 269.374527 191.942489 
L 270.533272 175.138999 
L 270.91952 167.75725 
L 271.305768 190.941574 
L 271.692017 190.788533 
L 272.078265 184.02447 
L 273.23701 168.115279 
L 273.623258 169.126795 
L 274.009506 184.471467 
L 274.782003 173.06012 
L 275.940748 186.744991 
L 276.326996 164.030802 
L 276.713244 175.861694 
L 277.099492 149.094486 
L 277.485741 185.536278 
L 278.644485 187.928565 
L 279.030734 185.616253 
L 279.416982 185.705686 
L 279.80323 172.672474 
L 280.189479 154.760231 
L 281.734472 190.721171 
L 282.12072 192.119253 
L 282.506968 177.75091 
L 282.893216 193.455782 
L 284.051961 172.830294 
L 284.43821 156.850962 
L 284.824458 177.30322 
L 285.210706 181.432546 
L 285.596954 171.897795 
L 286.755699 186.277659 
L 287.141947 182.20193 
L 287.528196 169.121587 
L 287.914444 164.716887 
L 288.300692 181.662396 
L 289.845685 176.638544 
L 290.231934 174.916246 
L 290.618182 177.377999 
L 291.00443 148.47561 
L 292.163175 191.357579 
L 292.549423 180.287477 
L 292.935671 177.289418 
L 293.32192 183.334576 
L 293.708168 120.46941 
L 294.866913 143.8084 
L 295.253161 187.793816 
L 295.639409 180.992542 
L 296.025658 186.477113 
L 296.411906 172.005786 
L 297.570651 161.580503 
L 297.956899 173.454783 
L 298.343147 173.919122 
L 298.729395 163.587959 
L 299.115644 184.28222 
L 300.274389 178.32133 
L 300.660637 178.010763 
L 301.046885 182.502669 
L 301.433133 171.82482 
L 301.819382 168.382353 
L 302.978126 154.591657 
L 303.364375 144.340009 
L 303.750623 185.810873 
L 304.136871 171.253032 
L 304.52312 182.768719 
L 306.068113 191.212844 
L 306.454361 189.077534 
L 306.840609 177.925023 
L 307.226857 125.70607 
L 308.385602 182.538574 
L 308.77185 187.610606 
L 309.158099 168.385991 
L 309.544347 162.922946 
L 309.930595 189.956688 
L 311.08934 189.741376 
L 311.861837 163.999885 
L 312.248085 168.609694 
L 312.634333 183.70799 
L 313.793078 149.731152 
L 314.179326 176.455585 
L 314.565575 165.510791 
L 315.338071 152.304613 
L 316.496816 152.28624 
L 316.883064 191.410151 
L 317.269312 164.95613 
L 317.655561 186.904136 
L 318.041809 186.990429 
L 319.200554 158.961323 
L 319.586802 164.27986 
L 319.97305 154.435377 
L 320.359299 129.70834 
L 320.745547 175.544545 
L 321.904292 189.171808 
L 322.29054 163.334362 
L 322.676788 189.992703 
L 323.063036 195.500897 
L 323.449285 151.145834 
L 324.60803 174.00036 
L 324.994278 187.304909 
L 325.380526 187.484427 
L 325.766774 185.466021 
L 326.153023 163.751564 
L 327.311767 166.658478 
L 327.698016 183.289641 
L 328.084264 191.630677 
L 328.470512 186.739237 
L 328.85676 174.144733 
L 330.015505 187.081617 
L 330.401754 182.804838 
L 330.788002 185.430938 
L 331.560498 169.961345 
L 332.719243 166.642836 
L 333.105491 185.112912 
L 333.49174 178.231351 
L 333.877988 176.477344 
L 334.264236 189.778716 
L 335.422981 181.352013 
L 335.809229 159.459216 
L 336.195478 176.972851 
L 336.967974 170.229953 
L 338.126719 171.466982 
L 338.512967 151.743019 
L 338.899216 173.097938 
L 339.285464 187.276906 
L 339.671712 168.512973 
L 340.830457 176.832079 
L 341.216705 180.752527 
L 341.602953 132.335599 
L 342.37545 190.671421 
L 343.534195 160.339088 
L 343.920443 174.491327 
L 344.306691 159.469068 
L 344.69294 153.786577 
L 345.079188 157.825996 
L 346.237933 180.020882 
L 346.624181 166.808618 
L 347.010429 166.916921 
L 347.396677 137.463668 
L 348.941671 179.434346 
L 349.327919 173.187335 
L 349.714167 147.53183 
L 350.100415 167.058534 
L 350.486664 172.222005 
L 351.645408 176.987273 
L 352.031657 150.113658 
L 352.417905 186.809721 
L 352.804153 191.571173 
L 353.190401 175.646793 
L 354.349146 182.700768 
L 354.735395 175.458663 
L 355.507891 166.686267 
L 355.894139 175.258865 
L 357.439132 169.115054 
L 357.825381 171.535196 
L 358.211629 156.403886 
L 358.597877 160.873665 
L 359.756622 179.577431 
L 360.14287 144.20883 
L 360.529119 170.309755 
L 360.915367 173.716171 
L 361.301615 137.97945 
L 362.46036 178.895039 
L 362.846608 145.383289 
L 363.619105 179.578241 
L 364.005353 167.486287 
L 365.164098 142.028267 
L 365.550346 158.88728 
L 365.936594 142.589296 
L 366.322843 179.806018 
L 366.709091 186.195752 
L 367.867836 175.663037 
L 368.254084 165.030282 
L 368.640332 150.665951 
L 369.026581 168.563521 
L 369.412829 180.092771 
L 370.957822 178.386631 
L 371.34407 123.029018 
L 371.730318 178.260066 
L 372.116567 167.579917 
L 373.275311 169.618855 
L 373.66156 167.561059 
L 374.047808 184.202197 
L 374.434056 165.380343 
L 374.820305 178.568535 
L 375.979049 170.724797 
L 376.365298 164.660782 
L 376.751546 135.85409 
L 377.524042 173.262868 
L 378.682787 178.163167 
L 379.069036 161.91684 
L 379.455284 164.93945 
L 379.841532 162.564708 
L 380.22778 168.463591 
L 381.386525 175.927811 
L 381.772773 169.109888 
L 382.159022 171.808853 
L 382.54527 187.2437 
L 382.931518 171.994762 
L 384.090263 167.332405 
L 384.476511 188.982212 
L 384.86276 166.856816 
L 385.249008 188.727787 
L 385.635256 184.944454 
L 386.794001 175.043609 
L 387.180249 178.875654 
L 387.566497 184.1088 
L 387.952746 175.12538 
L 388.338994 175.255442 
L 389.497739 151.45699 
L 389.883987 178.067323 
L 390.270235 176.890558 
L 390.656484 174.977142 
L 392.201477 192.343619 
L 392.587725 179.607606 
L 392.973973 142.889281 
L 393.360222 146.897397 
L 393.74647 177.181452 
L 394.905215 174.911007 
L 395.291463 137.357451 
L 395.677711 165.185863 
L 396.063959 170.308179 
L 396.450208 155.021925 
L 397.608952 184.587444 
L 397.995201 170.17216 
L 398.381449 171.142821 
L 398.767697 169.855631 
L 399.153946 180.868682 
L 400.31269 184.782764 
L 400.698939 180.811553 
L 401.085187 159.883755 
L 401.471435 162.345096 
L 401.857683 158.783425 
L 403.016428 150.689311 
L 403.402677 189.920176 
L 403.788925 165.082413 
L 404.175173 183.934436 
L 404.561421 175.396215 
L 405.720166 169.150523 
L 406.106414 165.819475 
L 406.492663 158.798393 
L 406.878911 183.863608 
L 407.265159 158.867834 
L 408.810152 127.889879 
L 409.196401 178.742992 
L 409.582649 179.844199 
L 409.968897 142.031506 
L 411.127642 164.96992 
L 411.51389 169.974417 
L 411.900138 185.990949 
L 412.286387 168.614081 
L 412.672635 161.216579 
L 413.83138 156.69527 
L 414.217628 147.323094 
L 414.603876 163.209588 
L 414.990125 173.719575 
L 415.376373 179.012709 
L 416.921366 147.391855 
L 417.307614 160.397039 
L 417.693862 188.000699 
L 418.080111 174.037908 
L 419.238856 162.749937 
L 419.625104 174.256563 
L 420.011352 179.636377 
L 420.3976 138.959576 
L 420.783849 150.990959 
L 422.328842 165.356449 
L 422.71509 181.849453 
L 423.101338 189.103102 
L 423.487587 176.784114 
L 424.646331 168.828687 
L 425.03258 187.987081 
L 425.418828 147.748995 
L 425.805076 167.943473 
L 426.191324 150.558709 
L 427.350069 150.081452 
L 427.736317 153.929815 
L 428.122566 186.735139 
L 428.508814 179.257209 
L 428.895062 185.598984 
L 430.053807 164.643753 
L 430.826304 174.449141 
L 431.5988 185.521206 
L 432.757545 183.355776 
L 433.143793 188.084084 
L 433.530042 172.451328 
L 433.91629 179.212655 
L 434.302538 169.803298 
L 435.461283 173.891106 
L 435.847531 141.222671 
L 436.233779 185.034882 
L 436.620028 158.272631 
L 437.006276 164.828583 
L 438.165021 155.705495 
L 438.937517 168.523267 
L 439.323766 171.53492 
L 439.710014 164.429128 
L 441.255007 188.861584 
L 441.641255 177.217602 
L 442.027503 183.840033 
L 442.413752 182.002187 
L 443.572497 188.03058 
L 443.958745 175.349734 
L 444.344993 153.879268 
L 444.731241 160.233662 
L 445.11749 146.441947 
L 446.662483 174.540366 
L 447.048731 158.99559 
L 447.434979 159.619275 
L 447.821228 170.684169 
L 448.979972 175.607944 
L 449.366221 169.788256 
L 449.752469 169.953597 
L 450.138717 157.494646 
L 450.524965 157.090719 
L 451.68371 174.371553 
L 452.069958 169.274867 
L 452.456207 192.647395 
L 453.228703 168.078552 
L 454.387448 167.4574 
L 454.773696 176.064719 
L 455.159945 188.437071 
L 455.546193 135.88632 
L 455.932441 178.886328 
L 457.091186 168.140418 
L 457.477434 168.551896 
L 457.863683 192.607337 
L 458.249931 156.814364 
L 458.636179 173.650483 
L 459.794924 180.36563 
L 460.181172 172.658303 
L 460.56742 180.045708 
L 460.953669 164.556951 
L 461.339917 162.867024 
L 462.498662 170.063998 
L 463.271158 140.496351 
L 463.657407 172.186242 
L 464.043655 176.200302 
L 465.2024 168.879829 
L 465.588648 170.999398 
L 465.974896 166.684488 
L 466.361144 188.34081 
L 466.747393 164.751044 
L 467.906138 169.922539 
L 468.292386 180.637814 
L 468.678634 177.75237 
L 469.064882 176.558674 
L 469.451131 168.397738 
L 470.609875 132.432768 
L 470.996124 183.0915 
L 471.382372 151.9464 
L 471.76862 186.068886 
L 472.154868 163.39348 
L 473.313613 167.396878 
L 473.699862 197.651445 
L 474.08611 164.786955 
L 474.472358 160.973061 
L 474.858606 159.252425 
L 476.017351 154.922044 
L 476.403599 165.922422 
L 476.789848 186.442184 
L 477.562344 172.175543 
L 479.107337 163.113487 
L 479.493586 159.936425 
L 479.879834 155.00297 
L 480.266082 171.422035 
L 481.424827 170.450221 
L 481.811075 186.384827 
L 482.197323 177.231061 
L 482.583572 155.354349 
L 482.96982 143.065676 
L 484.128565 181.07494 
L 484.514813 175.612944 
L 484.901061 175.085899 
L 485.28731 185.184371 
L 486.832303 151.229753 
L 487.218551 151.039568 
L 487.604799 182.247128 
L 487.991048 178.959518 
L 488.377296 191.966346 
L 489.922289 170.835364 
L 490.308537 180.217821 
L 490.694785 154.264631 
L 491.081034 136.930704 
L 492.626027 166.748716 
L 493.012275 147.698263 
L 493.398523 164.435391 
L 493.784772 190.499479 
L 494.943516 155.092182 
L 495.329765 168.077571 
L 495.716013 157.092799 
L 496.102261 179.270312 
L 496.488509 166.138894 
L 498.033503 180.391039 
L 498.805999 174.800931 
L 500.350992 170.59757 
L 500.73724 147.300587 
L 501.123489 186.522716 
L 501.509737 175.45378 
L 501.895985 183.935632 
L 503.05473 189.617491 
L 503.440978 187.992872 
L 503.827227 158.52581 
L 504.213475 149.487475 
L 504.599723 185.693779 
L 505.758468 187.591117 
L 506.144716 178.888187 
L 506.530964 166.645136 
L 506.917213 180.069166 
L 507.303461 182.220223 
L 508.462206 137.869858 
L 508.848454 184.545803 
L 509.234702 172.779789 
L 509.620951 176.88592 
L 510.007199 179.505248 
L 511.552192 169.061328 
L 511.93844 182.94009 
L 512.324689 155.304022 
L 512.710937 116.733306 
L 513.869682 190.253587 
L 514.25593 168.152251 
L 514.642178 182.924754 
L 515.414675 159.726431 
L 516.573419 170.552451 
L 516.959668 144.864599 
L 517.345916 176.425968 
L 517.732164 164.051629 
L 518.118413 166.249399 
L 519.277157 176.735621 
L 519.663406 144.939464 
L 520.049654 154.429758 
L 520.435902 185.229373 
L 520.82215 165.565467 
L 521.980895 170.980664 
L 522.367144 164.195051 
L 522.753392 169.864544 
L 523.13964 194.228436 
L 523.525888 172.463168 
L 524.684633 180.623962 
L 525.070881 197.289913 
L 525.45713 148.705687 
L 525.843378 179.077875 
L 526.229626 179.025825 
L 527.388371 180.037126 
L 527.774619 174.87698 
L 528.160868 146.563488 
L 528.547116 164.770367 
L 530.092109 155.131179 
L 530.478357 143.954522 
L 530.864605 166.059539 
L 531.250854 168.471504 
L 531.637102 177.546542 
L 532.795847 171.621121 
L 533.182095 174.033332 
L 533.568343 143.949523 
L 533.954592 151.202025 
L 534.34084 168.943382 
L 535.499585 170.804741 
L 535.885833 119.187747 
L 536.272081 164.749044 
L 536.658329 176.350625 
L 537.044578 176.168396 
L 538.203323 183.317712 
L 538.589571 172.260628 
L 538.975819 134.465516 
L 539.362067 139.120083 
L 539.748316 151.595935 
L 540.90706 175.767611 
L 541.293309 155.238641 
L 541.679557 180.351441 
L 542.065805 182.632357 
L 542.452054 183.808312 
L 543.610798 146.805031 
L 543.997047 164.009191 
L 544.383295 146.474049 
L 544.769543 182.808261 
L 545.155791 184.488342 
L 546.314536 178.766891 
L 546.700784 170.310283 
L 547.087033 130.935474 
L 547.473281 190.318913 
L 547.859529 186.069371 
L 549.404522 166.252644 
L 549.790771 164.165594 
L 550.177019 191.893034 
L 550.563267 175.766881 
L 551.722012 138.986322 
L 552.10826 189.602008 
L 552.494509 164.086914 
L 552.880757 159.255591 
L 553.267005 180.431311 
L 554.42575 176.579562 
L 554.811998 150.719186 
L 555.198246 167.334571 
L 555.584495 176.299262 
L 555.970743 180.532007 
L 557.515736 186.128004 
L 557.901984 173.528114 
L 558.288233 184.779678 
L 558.674481 190.521054 
L 559.833226 176.725199 
L 560.219474 163.460253 
L 560.605722 167.069177 
L 560.99197 182.070255 
L 561.378219 164.65201 
L 562.536964 167.999418 
L 563.30946 173.700215 
L 563.695708 185.283577 
L 564.081957 145.67141 
L 565.62695 188.141048 
L 566.013198 190.493038 
L 566.399446 147.49403 
L 566.785695 189.944118 
L 567.944439 187.970444 
L 568.716936 158.357911 
L 569.103184 184.485306 
L 569.489432 182.926662 
L 570.648177 164.608633 
L 571.034425 161.130206 
L 571.420674 182.264047 
L 571.806922 156.671015 
L 572.19317 150.61506 
L 573.351915 165.687094 
L 573.738163 175.396491 
L 574.124412 180.003761 
L 574.51066 173.656802 
L 574.896908 150.060902 
L 576.055653 155.312297 
L 576.441901 185.518409 
L 576.82815 187.01904 
L 577.214398 178.076714 
L 577.600646 174.813108 
L 578.759391 174.488493 
L 579.145639 152.689449 
L 579.531887 153.109681 
L 579.918136 174.055643 
L 580.304384 187.349347 
L 581.463129 184.21698 
L 581.849377 178.140647 
L 582.235625 186.229283 
L 582.621874 185.686338 
L 583.008122 147.631833 
L 584.166867 189.663377 
L 584.553115 164.074093 
L 584.939363 120.004378 
L 585.325611 157.681009 
L 585.71186 177.027632 
L 587.256853 178.899272 
L 588.029349 187.387399 
L 588.415598 167.535025 
L 589.574342 153.29145 
L 589.960591 154.642143 
L 590.346839 184.55898 
L 590.733087 186.85411 
L 591.119335 179.639401 
L 592.27808 177.146345 
L 592.664329 178.379258 
L 593.050577 134.363685 
L 593.436825 172.458413 
L 593.823073 162.551844 
L 594.981818 169.962192 
L 595.368066 157.59206 
L 595.754315 185.115985 
L 596.140563 179.679213 
L 596.526811 168.760975 
L 597.685556 185.356896 
L 598.071804 177.840981 
L 598.458053 153.438485 
L 598.844301 150.067858 
L 600.389294 192.320161 
L 600.775542 186.262243 
L 601.16179 164.689099 
L 601.548039 172.914802 
L 601.934287 163.712856 
L 603.093032 143.842275 
L 603.47928 146.567132 
L 603.865528 169.61456 
L 604.251777 181.985219 
L 604.638025 184.677859 
L 605.79677 140.878604 
L 606.183018 147.954442 
L 606.569266 173.883082 
L 606.955515 176.468247 
L 607.341763 180.012668 
L 608.500508 165.989245 
L 608.886756 180.700937 
L 609.273004 167.70496 
L 609.659252 139.41029 
L 610.045501 155.237568 
L 611.204246 142.150115 
L 611.590494 186.237049 
L 611.976742 149.473164 
L 612.36299 175.907923 
L 612.749239 172.445273 
L 613.907983 149.651969 
L 614.294232 179.856032 
L 614.68048 148.400659 
L 615.066728 147.908299 
L 615.452976 162.904137 
L 616.611721 160.595236 
L 616.99797 167.651051 
L 617.384218 146.306321 
L 618.156714 157.074727 
L 619.315459 169.246428 
L 619.701707 185.945431 
L 620.087956 159.38088 
L 620.474204 176.408669 
L 622.019197 158.828145 
L 622.405445 188.833274 
L 622.791694 170.525325 
L 623.56419 147.149184 
L 624.722935 178.618561 
L 625.109183 180.208172 
L 625.495431 174.914111 
L 625.88168 176.605473 
L 626.267928 158.001839 
L 627.426673 188.889079 
L 628.199169 161.032086 
L 628.585418 183.678557 
L 628.971666 180.568115 
L 630.516659 140.054446 
L 630.902907 184.422391 
L 631.289156 184.297127 
L 631.675404 170.572173 
L 633.220397 176.14292 
L 633.606645 173.532457 
L 633.992893 192.21249 
L 634.379142 161.766541 
L 635.537886 169.022498 
L 636.310383 177.711306 
L 636.696631 158.813385 
L 637.08288 167.659946 
L 638.627873 157.13566 
L 639.014121 173.937206 
L 639.400369 137.607502 
L 639.786617 154.578615 
L 640.945362 166.108958 
L 641.331611 171.435101 
L 641.717859 145.757107 
L 642.104107 183.633616 
L 642.490355 163.142582 
L 643.6491 161.889696 
L 644.035348 177.563473 
L 644.807845 159.447954 
L 645.194093 157.608967 
L 646.352838 170.834039 
L 646.739086 191.065225 
L 647.125335 159.261431 
L 647.511583 139.242372 
L 647.897831 185.41586 
L 649.056576 170.710793 
L 649.442824 142.303549 
L 649.829072 189.187665 
L 650.601569 145.635781 
L 652.146562 162.832064 
L 652.53281 181.727985 
L 652.919059 155.5357 
L 653.305307 173.476174 
L 654.464052 179.981959 
L 654.8503 188.727909 
L 655.236548 137.288531 
L 655.622796 179.482471 
L 656.009045 182.825113 
L 657.16779 161.989742 
L 657.554038 169.47399 
L 657.940286 166.155929 
L 658.326534 81.023841 
L 658.712783 114.268253 
L 659.871527 177.791151 
L 660.257776 150.342796 
L 660.644024 176.508856 
L 661.030272 173.218437 
L 661.416521 163.375997 
L 662.575265 156.074038 
L 662.961514 163.729136 
L 663.347762 187.28182 
L 664.120258 140.305896 
L 665.279003 186.825339 
L 665.665251 170.097124 
L 666.0515 174.578277 
L 666.437748 138.230255 
L 667.982741 151.708458 
L 668.755238 166.560788 
L 669.141486 166.062741 
L 669.527734 179.742422 
L 670.686479 140.558167 
L 671.072727 149.226885 
L 671.458976 186.751917 
L 672.231472 156.493448 
L 673.390217 170.656497 
L 673.776465 157.152241 
L 674.162713 157.407341 
L 674.548962 159.394388 
L 674.93521 179.693231 
L 676.093955 171.718542 
L 676.480203 150.733829 
L 676.866451 184.649156 
L 677.2527 179.549685 
L 677.638948 179.541355 
L 678.797693 146.231065 
L 679.183941 152.881432 
L 679.570189 173.276143 
L 679.956437 176.609172 
L 680.342686 157.56605 
L 681.501431 159.064829 
L 681.887679 192.020255 
L 682.273927 190.148805 
L 683.046424 171.166886 
L 684.205168 188.405061 
L 684.591417 162.269342 
L 684.977665 166.944367 
L 685.363913 188.401614 
L 685.750162 170.282752 
L 686.908906 172.754184 
L 687.295155 190.502853 
L 687.681403 186.508503 
L 688.067651 168.490675 
L 688.453899 137.006274 
L 689.998892 178.682537 
L 690.385141 166.488641 
L 690.771389 149.373479 
L 691.157637 166.412384 
L 692.316382 169.636571 
L 692.70263 181.268223 
L 693.088879 142.356201 
L 693.475127 178.0526 
L 693.861375 158.423641 
L 695.02012 190.955775 
L 695.406368 176.585205 
L 695.792617 152.234042 
L 696.178865 182.69837 
L 696.565113 177.190611 
L 697.723858 163.038487 
L 698.110106 155.164059 
L 698.882603 174.641056 
L 699.268851 168.739836 
L 700.427596 147.512384 
L 701.200092 191.835389 
L 701.586341 163.863578 
L 701.972589 187.967371 
L 703.131334 175.07103 
L 703.517582 167.322529 
L 703.90383 141.102652 
L 704.676327 162.781149 
L 705.835072 190.543389 
L 706.22132 171.997412 
L 706.607568 161.830118 
L 706.993816 148.205131 
L 707.380065 141.705769 
L 708.538809 178.163265 
L 708.925058 179.229475 
L 709.311306 173.212732 
L 709.697554 189.524592 
L 710.083802 165.7684 
L 711.242547 162.076035 
L 711.628796 147.939008 
L 712.015044 182.293382 
L 712.401292 179.612943 
L 712.78754 178.720859 
L 713.946285 140.538819 
L 714.332533 190.479082 
L 714.718782 152.854489 
L 715.10503 179.446885 
L 715.491278 178.292959 
L 716.650023 186.811629 
L 717.036271 154.9108 
L 717.42252 144.584772 
L 717.808768 156.846128 
L 718.195016 150.648517 
L 719.353761 176.98501 
L 719.740009 176.96341 
L 720.126257 168.363907 
L 720.512506 162.801736 
L 720.898754 148.043722 
L 722.057499 142.110192 
L 722.443747 173.99017 
L 722.829995 177.293497 
L 723.216244 170.67106 
L 723.602492 179.409029 
L 724.761237 165.713552 
L 725.147485 185.048457 
L 725.533733 159.082128 
L 726.30623 182.732679 
L 727.851223 192.556501 
L 728.237471 184.472657 
L 728.623719 161.987368 
L 729.009968 173.011744 
L 730.168713 185.317899 
L 730.554961 150.856793 
L 730.941209 161.127587 
L 731.327457 143.805229 
L 731.713706 164.021417 
L 732.87245 169.936139 
L 733.258699 166.848314 
L 733.644947 178.793533 
L 734.031195 156.519979 
L 734.417443 147.919317 
L 735.576188 184.728364 
L 735.962437 180.128289 
L 736.348685 167.694029 
L 736.734933 185.548424 
L 737.121181 160.363699 
L 738.279926 147.980446 
L 738.666174 166.136685 
L 739.052423 158.802196 
L 739.438671 171.131669 
L 739.824919 161.565197 
L 740.983664 176.859027 
L 741.369912 111.549763 
L 741.756161 174.655589 
L 742.142409 158.900365 
L 742.528657 173.113526 
L 743.687402 186.902878 
L 744.07365 188.762366 
L 744.459898 171.228402 
L 744.846147 162.59673 
L 745.232395 189.093343 
L 746.39114 171.867725 
L 746.777388 142.980899 
L 747.163636 172.256168 
L 747.163636 172.256168 
" clip-path="url(#p67bda24f54)" style="fill: none; stroke: #1f77b4; stroke-width: 1.5; stroke-linecap: square"/>
   </g>
   <g id="patch_3">
    <path d="M 108 384.48 
L 108 51.84 
" style="fill: none; stroke: #000000; stroke-width: 0.8; stroke-linejoin: miter; stroke-linecap: square"/>
   </g>
   <g id="patch_4">
    <path d="M 777.6 384.48 
L 777.6 51.84 
" style="fill: none; stroke: #000000; stroke-width: 0.8; stroke-linejoin: miter; stroke-linecap: square"/>
   </g>
   <g id="patch_5">
    <path d="M 108 384.48 
L 777.6 384.48 
" style="fill: none; stroke: #000000; stroke-width: 0.8; stroke-linejoin: miter; stroke-linecap: square"/>
   </g>
   <g id="patch_6">
    <path d="M 108 51.84 
L 777.6 51.84 
" style="fill: none; stroke: #000000; stroke-width: 0.8; stroke-linejoin: miter; stroke-linecap: square"/>
   </g>
   <g id="text_19">
    <!-- Volatility Prediction with LSTM w/ FFNN -->
    <g transform="translate(326.02125 45.84) scale(0.12 -0.12)">
     <defs>
      <path id="DejaVuSans-20" transform="scale(0.015625)"/>
      <path id="DejaVuSans-50" d="M 1259 4147 
L 1259 2394 
L 2053 2394 
Q 2494 2394 2734 2622 
Q 2975 2850 2975 3272 
Q 2975 3691 2734 3919 
Q 2494 4147 2053 4147 
L 1259 4147 
z
M 628 4666 
L 2053 4666 
Q 2838 4666 3239 4311 
Q 3641 3956 3641 3272 
Q 3641 2581 3239 2228 
Q 2838 1875 2053 1875 
L 1259 1875 
L 1259 0 
L 628 0 
L 628 4666 
z
" transform="scale(0.015625)"/>
      <path id="DejaVuSans-72" d="M 2631 2963 
Q 2534 3019 2420 3045 
Q 2306 3072 2169 3072 
Q 1681 3072 1420 2755 
Q 1159 2438 1159 1844 
L 1159 0 
L 581 0 
L 581 3500 
L 1159 3500 
L 1159 2956 
Q 1341 3275 1631 3429 
Q 1922 3584 2338 3584 
Q 2397 3584 2469 3576 
Q 2541 3569 2628 3553 
L 2631 2963 
z
" transform="scale(0.015625)"/>
      <path id="DejaVuSans-64" d="M 2906 2969 
L 2906 4863 
L 3481 4863 
L 3481 0 
L 2906 0 
L 2906 525 
Q 2725 213 2448 61 
Q 2172 -91 1784 -91 
Q 1150 -91 751 415 
Q 353 922 353 1747 
Q 353 2572 751 3078 
Q 1150 3584 1784 3584 
Q 2172 3584 2448 3432 
Q 2725 3281 2906 2969 
z
M 947 1747 
Q 947 1113 1208 752 
Q 1469 391 1925 391 
Q 2381 391 2643 752 
Q 2906 1113 2906 1747 
Q 2906 2381 2643 2742 
Q 2381 3103 1925 3103 
Q 1469 3103 1208 2742 
Q 947 2381 947 1747 
z
" transform="scale(0.015625)"/>
      <path id="DejaVuSans-63" d="M 3122 3366 
L 3122 2828 
Q 2878 2963 2633 3030 
Q 2388 3097 2138 3097 
Q 1578 3097 1268 2742 
Q 959 2388 959 1747 
Q 959 1106 1268 751 
Q 1578 397 2138 397 
Q 2388 397 2633 464 
Q 2878 531 3122 666 
L 3122 134 
Q 2881 22 2623 -34 
Q 2366 -91 2075 -91 
Q 1284 -91 818 406 
Q 353 903 353 1747 
Q 353 2603 823 3093 
Q 1294 3584 2113 3584 
Q 2378 3584 2631 3529 
Q 2884 3475 3122 3366 
z
" transform="scale(0.015625)"/>
      <path id="DejaVuSans-6e" d="M 3513 2113 
L 3513 0 
L 2938 0 
L 2938 2094 
Q 2938 2591 2744 2837 
Q 2550 3084 2163 3084 
Q 1697 3084 1428 2787 
Q 1159 2491 1159 1978 
L 1159 0 
L 581 0 
L 581 3500 
L 1159 3500 
L 1159 2956 
Q 1366 3272 1645 3428 
Q 1925 3584 2291 3584 
Q 2894 3584 3203 3211 
Q 3513 2838 3513 2113 
z
" transform="scale(0.015625)"/>
      <path id="DejaVuSans-77" d="M 269 3500 
L 844 3500 
L 1563 769 
L 2278 3500 
L 2956 3500 
L 3675 769 
L 4391 3500 
L 4966 3500 
L 4050 0 
L 3372 0 
L 2619 2869 
L 1863 0 
L 1184 0 
L 269 3500 
z
" transform="scale(0.015625)"/>
      <path id="DejaVuSans-68" d="M 3513 2113 
L 3513 0 
L 2938 0 
L 2938 2094 
Q 2938 2591 2744 2837 
Q 2550 3084 2163 3084 
Q 1697 3084 1428 2787 
Q 1159 2491 1159 1978 
L 1159 0 
L 581 0 
L 581 4863 
L 1159 4863 
L 1159 2956 
Q 1366 3272 1645 3428 
Q 1925 3584 2291 3584 
Q 2894 3584 3203 3211 
Q 3513 2838 3513 2113 
z
" transform="scale(0.015625)"/>
      <path id="DejaVuSans-4c" d="M 628 4666 
L 1259 4666 
L 1259 531 
L 3531 531 
L 3531 0 
L 628 0 
L 628 4666 
z
" transform="scale(0.015625)"/>
      <path id="DejaVuSans-53" d="M 3425 4513 
L 3425 3897 
Q 3066 4069 2747 4153 
Q 2428 4238 2131 4238 
Q 1616 4238 1336 4038 
Q 1056 3838 1056 3469 
Q 1056 3159 1242 3001 
Q 1428 2844 1947 2747 
L 2328 2669 
Q 3034 2534 3370 2195 
Q 3706 1856 3706 1288 
Q 3706 609 3251 259 
Q 2797 -91 1919 -91 
Q 1588 -91 1214 -16 
Q 841 59 441 206 
L 441 856 
Q 825 641 1194 531 
Q 1563 422 1919 422 
Q 2459 422 2753 634 
Q 3047 847 3047 1241 
Q 3047 1584 2836 1778 
Q 2625 1972 2144 2069 
L 1759 2144 
Q 1053 2284 737 2584 
Q 422 2884 422 3419 
Q 422 4038 858 4394 
Q 1294 4750 2059 4750 
Q 2388 4750 2728 4690 
Q 3069 4631 3425 4513 
z
" transform="scale(0.015625)"/>
      <path id="DejaVuSans-54" d="M -19 4666 
L 3928 4666 
L 3928 4134 
L 2272 4134 
L 2272 0 
L 1638 0 
L 1638 4134 
L -19 4134 
L -19 4666 
z
" transform="scale(0.015625)"/>
      <path id="DejaVuSans-4d" d="M 628 4666 
L 1569 4666 
L 2759 1491 
L 3956 4666 
L 4897 4666 
L 4897 0 
L 4281 0 
L 4281 4097 
L 3078 897 
L 2444 897 
L 1241 4097 
L 1241 0 
L 628 0 
L 628 4666 
z
" transform="scale(0.015625)"/>
      <path id="DejaVuSans-2f" d="M 1625 4666 
L 2156 4666 
L 531 -594 
L 0 -594 
L 1625 4666 
z
" transform="scale(0.015625)"/>
      <path id="DejaVuSans-46" d="M 628 4666 
L 3309 4666 
L 3309 4134 
L 1259 4134 
L 1259 2759 
L 3109 2759 
L 3109 2228 
L 1259 2228 
L 1259 0 
L 628 0 
L 628 4666 
z
" transform="scale(0.015625)"/>
      <path id="DejaVuSans-4e" d="M 628 4666 
L 1478 4666 
L 3547 763 
L 3547 4666 
L 4159 4666 
L 4159 0 
L 3309 0 
L 1241 3903 
L 1241 0 
L 628 0 
L 628 4666 
z
" transform="scale(0.015625)"/>
     </defs>
     <use xlink:href="#DejaVuSans-56"/>
     <use xlink:href="#DejaVuSans-6f" x="60.658203"/>
     <use xlink:href="#DejaVuSans-6c" x="121.839844"/>
     <use xlink:href="#DejaVuSans-61" x="149.623047"/>
     <use xlink:href="#DejaVuSans-74" x="210.902344"/>
     <use xlink:href="#DejaVuSans-69" x="250.111328"/>
     <use xlink:href="#DejaVuSans-6c" x="277.894531"/>
     <use xlink:href="#DejaVuSans-69" x="305.677734"/>
     <use xlink:href="#DejaVuSans-74" x="333.460938"/>
     <use xlink:href="#DejaVuSans-79" x="372.669922"/>
     <use xlink:href="#DejaVuSans-20" x="431.849609"/>
     <use xlink:href="#DejaVuSans-50" x="463.636719"/>
     <use xlink:href="#DejaVuSans-72" x="522.189453"/>
     <use xlink:href="#DejaVuSans-65" x="561.052734"/>
     <use xlink:href="#DejaVuSans-64" x="622.576172"/>
     <use xlink:href="#DejaVuSans-69" x="686.052734"/>
     <use xlink:href="#DejaVuSans-63" x="713.835938"/>
     <use xlink:href="#DejaVuSans-74" x="768.816406"/>
     <use xlink:href="#DejaVuSans-69" x="808.025391"/>
     <use xlink:href="#DejaVuSans-6f" x="835.808594"/>
     <use xlink:href="#DejaVuSans-6e" x="896.990234"/>
     <use xlink:href="#DejaVuSans-20" x="960.369141"/>
     <use xlink:href="#DejaVuSans-77" x="992.15625"/>
     <use xlink:href="#DejaVuSans-69" x="1073.943359"/>
     <use xlink:href="#DejaVuSans-74" x="1101.726562"/>
     <use xlink:href="#DejaVuSans-68" x="1140.935547"/>
     <use xlink:href="#DejaVuSans-20" x="1204.314453"/>
     <use xlink:href="#DejaVuSans-4c" x="1236.101562"/>
     <use xlink:href="#DejaVuSans-53" x="1291.814453"/>
     <use xlink:href="#DejaVuSans-54" x="1355.291016"/>
     <use xlink:href="#DejaVuSans-4d" x="1416.375"/>
     <use xlink:href="#DejaVuSans-20" x="1502.654297"/>
     <use xlink:href="#DejaVuSans-77" x="1534.441406"/>
     <use xlink:href="#DejaVuSans-2f" x="1616.228516"/>
     <use xlink:href="#DejaVuSans-20" x="1649.919922"/>
     <use xlink:href="#DejaVuSans-46" x="1681.707031"/>
     <use xlink:href="#DejaVuSans-46" x="1739.226562"/>
     <use xlink:href="#DejaVuSans-4e" x="1796.746094"/>
     <use xlink:href="#DejaVuSans-4e" x="1871.550781"/>
    </g>
   </g>
   <g id="legend_1">
    <g id="patch_7">
     <path d="M 115 89.19625 
L 317.239063 89.19625 
Q 319.239063 89.19625 319.239063 87.19625 
L 319.239063 58.84 
Q 319.239063 56.84 317.239063 56.84 
L 115 56.84 
Q 113 56.84 113 58.84 
L 113 87.19625 
Q 113 89.19625 115 89.19625 
z
" style="fill: #ffffff; opacity: 0.8; stroke: #cccccc; stroke-linejoin: miter"/>
    </g>
    <g id="line2d_19">
     <path d="M 117 64.938437 
L 127 64.938437 
L 137 64.938437 
" style="fill: none; stroke: #000000; stroke-width: 1.5; stroke-linecap: square"/>
    </g>
    <g id="text_20">
     <!-- Absolute Returns -->
     <g transform="translate(145 68.438437) scale(0.1 -0.1)">
      <defs>
       <path id="DejaVuSans-41" d="M 2188 4044 
L 1331 1722 
L 3047 1722 
L 2188 4044 
z
M 1831 4666 
L 2547 4666 
L 4325 0 
L 3669 0 
L 3244 1197 
L 1141 1197 
L 716 0 
L 50 0 
L 1831 4666 
z
" transform="scale(0.015625)"/>
       <path id="DejaVuSans-62" d="M 3116 1747 
Q 3116 2381 2855 2742 
Q 2594 3103 2138 3103 
Q 1681 3103 1420 2742 
Q 1159 2381 1159 1747 
Q 1159 1113 1420 752 
Q 1681 391 2138 391 
Q 2594 391 2855 752 
Q 3116 1113 3116 1747 
z
M 1159 2969 
Q 1341 3281 1617 3432 
Q 1894 3584 2278 3584 
Q 2916 3584 3314 3078 
Q 3713 2572 3713 1747 
Q 3713 922 3314 415 
Q 2916 -91 2278 -91 
Q 1894 -91 1617 61 
Q 1341 213 1159 525 
L 1159 0 
L 581 0 
L 581 4863 
L 1159 4863 
L 1159 2969 
z
" transform="scale(0.015625)"/>
       <path id="DejaVuSans-73" d="M 2834 3397 
L 2834 2853 
Q 2591 2978 2328 3040 
Q 2066 3103 1784 3103 
Q 1356 3103 1142 2972 
Q 928 2841 928 2578 
Q 928 2378 1081 2264 
Q 1234 2150 1697 2047 
L 1894 2003 
Q 2506 1872 2764 1633 
Q 3022 1394 3022 966 
Q 3022 478 2636 193 
Q 2250 -91 1575 -91 
Q 1294 -91 989 -36 
Q 684 19 347 128 
L 347 722 
Q 666 556 975 473 
Q 1284 391 1588 391 
Q 1994 391 2212 530 
Q 2431 669 2431 922 
Q 2431 1156 2273 1281 
Q 2116 1406 1581 1522 
L 1381 1569 
Q 847 1681 609 1914 
Q 372 2147 372 2553 
Q 372 3047 722 3315 
Q 1072 3584 1716 3584 
Q 2034 3584 2315 3537 
Q 2597 3491 2834 3397 
z
" transform="scale(0.015625)"/>
       <path id="DejaVuSans-75" d="M 544 1381 
L 544 3500 
L 1119 3500 
L 1119 1403 
Q 1119 906 1312 657 
Q 1506 409 1894 409 
Q 2359 409 2629 706 
Q 2900 1003 2900 1516 
L 2900 3500 
L 3475 3500 
L 3475 0 
L 2900 0 
L 2900 538 
Q 2691 219 2414 64 
Q 2138 -91 1772 -91 
Q 1169 -91 856 284 
Q 544 659 544 1381 
z
M 1991 3584 
L 1991 3584 
z
" transform="scale(0.015625)"/>
       <path id="DejaVuSans-52" d="M 2841 2188 
Q 3044 2119 3236 1894 
Q 3428 1669 3622 1275 
L 4263 0 
L 3584 0 
L 2988 1197 
Q 2756 1666 2539 1819 
Q 2322 1972 1947 1972 
L 1259 1972 
L 1259 0 
L 628 0 
L 628 4666 
L 2053 4666 
Q 2853 4666 3247 4331 
Q 3641 3997 3641 3322 
Q 3641 2881 3436 2590 
Q 3231 2300 2841 2188 
z
M 1259 4147 
L 1259 2491 
L 2053 2491 
Q 2509 2491 2742 2702 
Q 2975 2913 2975 3322 
Q 2975 3731 2742 3939 
Q 2509 4147 2053 4147 
L 1259 4147 
z
" transform="scale(0.015625)"/>
      </defs>
      <use xlink:href="#DejaVuSans-41"/>
      <use xlink:href="#DejaVuSans-62" x="68.408203"/>
      <use xlink:href="#DejaVuSans-73" x="131.884766"/>
      <use xlink:href="#DejaVuSans-6f" x="183.984375"/>
      <use xlink:href="#DejaVuSans-6c" x="245.166016"/>
      <use xlink:href="#DejaVuSans-75" x="272.949219"/>
      <use xlink:href="#DejaVuSans-74" x="336.328125"/>
      <use xlink:href="#DejaVuSans-65" x="375.537109"/>
      <use xlink:href="#DejaVuSans-20" x="437.060547"/>
      <use xlink:href="#DejaVuSans-52" x="468.847656"/>
      <use xlink:href="#DejaVuSans-65" x="533.830078"/>
      <use xlink:href="#DejaVuSans-74" x="595.353516"/>
      <use xlink:href="#DejaVuSans-75" x="634.5625"/>
      <use xlink:href="#DejaVuSans-72" x="697.941406"/>
      <use xlink:href="#DejaVuSans-6e" x="737.304688"/>
      <use xlink:href="#DejaVuSans-73" x="800.683594"/>
     </g>
    </g>
    <g id="line2d_20">
     <path d="M 117 79.616562 
L 127 79.616562 
L 137 79.616562 
" style="fill: none; stroke: #1f77b4; stroke-width: 1.5; stroke-linecap: square"/>
    </g>
    <g id="text_21">
     <!-- LSTM w/ FFNN Volatility Prediction -->
     <g transform="translate(145 83.116562) scale(0.1 -0.1)">
      <use xlink:href="#DejaVuSans-4c"/>
      <use xlink:href="#DejaVuSans-53" x="55.712891"/>
      <use xlink:href="#DejaVuSans-54" x="119.189453"/>
      <use xlink:href="#DejaVuSans-4d" x="180.273438"/>
      <use xlink:href="#DejaVuSans-20" x="266.552734"/>
      <use xlink:href="#DejaVuSans-77" x="298.339844"/>
      <use xlink:href="#DejaVuSans-2f" x="380.126953"/>
      <use xlink:href="#DejaVuSans-20" x="413.818359"/>
      <use xlink:href="#DejaVuSans-46" x="445.605469"/>
      <use xlink:href="#DejaVuSans-46" x="503.125"/>
      <use xlink:href="#DejaVuSans-4e" x="560.644531"/>
      <use xlink:href="#DejaVuSans-4e" x="635.449219"/>
      <use xlink:href="#DejaVuSans-20" x="710.253906"/>
      <use xlink:href="#DejaVuSans-56" x="742.041016"/>
      <use xlink:href="#DejaVuSans-6f" x="802.699219"/>
      <use xlink:href="#DejaVuSans-6c" x="863.880859"/>
      <use xlink:href="#DejaVuSans-61" x="891.664062"/>
      <use xlink:href="#DejaVuSans-74" x="952.943359"/>
      <use xlink:href="#DejaVuSans-69" x="992.152344"/>
      <use xlink:href="#DejaVuSans-6c" x="1019.935547"/>
      <use xlink:href="#DejaVuSans-69" x="1047.71875"/>
      <use xlink:href="#DejaVuSans-74" x="1075.501953"/>
      <use xlink:href="#DejaVuSans-79" x="1114.710938"/>
      <use xlink:href="#DejaVuSans-20" x="1173.890625"/>
      <use xlink:href="#DejaVuSans-50" x="1205.677734"/>
      <use xlink:href="#DejaVuSans-72" x="1264.230469"/>
      <use xlink:href="#DejaVuSans-65" x="1303.09375"/>
      <use xlink:href="#DejaVuSans-64" x="1364.617188"/>
      <use xlink:href="#DejaVuSans-69" x="1428.09375"/>
      <use xlink:href="#DejaVuSans-63" x="1455.876953"/>
      <use xlink:href="#DejaVuSans-74" x="1510.857422"/>
      <use xlink:href="#DejaVuSans-69" x="1550.066406"/>
      <use xlink:href="#DejaVuSans-6f" x="1577.849609"/>
      <use xlink:href="#DejaVuSans-6e" x="1639.03125"/>
     </g>
    </g>
   </g>
  </g>
 </g>
 <defs>
  <clipPath id="p67bda24f54">
   <rect x="108" y="51.84" width="669.6" height="332.64"/>
  </clipPath>
 </defs>
</svg>
