<?xml version="1.0" encoding="utf-8" standalone="no"?>
<!DOCTYPE svg PUBLIC "-//W3C//DTD SVG 1.1//EN"
  "http://www.w3.org/Graphics/SVG/1.1/DTD/svg11.dtd">
<svg xmlns:xlink="http://www.w3.org/1999/xlink" width="864pt" height="432pt" viewBox="0 0 864 432" xmlns="http://www.w3.org/2000/svg" version="1.1">
 <metadata>
  <rdf:RDF xmlns:dc="http://purl.org/dc/elements/1.1/" xmlns:cc="http://creativecommons.org/ns#" xmlns:rdf="http://www.w3.org/1999/02/22-rdf-syntax-ns#">
   <cc:Work>
    <dc:type rdf:resource="http://purl.org/dc/dcmitype/StillImage"/>
    <dc:date>2025-02-11T14:29:34.874860</dc:date>
    <dc:format>image/svg+xml</dc:format>
    <dc:creator>
     <cc:Agent>
      <dc:title>Matplotlib v3.10.0, https://matplotlib.org/</dc:title>
     </cc:Agent>
    </dc:creator>
   </cc:Work>
  </rdf:RDF>
 </metadata>
 <defs>
  <style type="text/css">*{stroke-linejoin: round; stroke-linecap: butt}</style>
 </defs>
 <g id="figure_1">
  <g id="patch_1">
   <path d="M 0 432 
L 864 432 
L 864 0 
L 0 0 
z
" style="fill: #ffffff"/>
  </g>
  <g id="axes_1">
   <g id="patch_2">
    <path d="M 108 384.48 
L 777.6 384.48 
L 777.6 51.84 
L 108 51.84 
z
" style="fill: #ffffff"/>
   </g>
   <g id="matplotlib.axis_1">
    <g id="xtick_1">
     <g id="line2d_1">
      <defs>
       <path id="m6a16de96b4" d="M 0 0 
L 0 3.5 
" style="stroke: #000000; stroke-width: 0.8"/>
      </defs>
      <g>
       <use xlink:href="#m6a16de96b4" x="138.822612" y="384.48" style="stroke: #000000; stroke-width: 0.8"/>
      </g>
     </g>
     <g id="text_1">
      <!-- 2020-07 -->
      <g transform="translate(117.931206 399.078438) scale(0.1 -0.1)">
       <defs>
        <path id="DejaVuSans-32" d="M 1228 531 
L 3431 531 
L 3431 0 
L 469 0 
L 469 531 
Q 828 903 1448 1529 
Q 2069 2156 2228 2338 
Q 2531 2678 2651 2914 
Q 2772 3150 2772 3378 
Q 2772 3750 2511 3984 
Q 2250 4219 1831 4219 
Q 1534 4219 1204 4116 
Q 875 4013 500 3803 
L 500 4441 
Q 881 4594 1212 4672 
Q 1544 4750 1819 4750 
Q 2544 4750 2975 4387 
Q 3406 4025 3406 3419 
Q 3406 3131 3298 2873 
Q 3191 2616 2906 2266 
Q 2828 2175 2409 1742 
Q 1991 1309 1228 531 
z
" transform="scale(0.015625)"/>
        <path id="DejaVuSans-30" d="M 2034 4250 
Q 1547 4250 1301 3770 
Q 1056 3291 1056 2328 
Q 1056 1369 1301 889 
Q 1547 409 2034 409 
Q 2525 409 2770 889 
Q 3016 1369 3016 2328 
Q 3016 3291 2770 3770 
Q 2525 4250 2034 4250 
z
M 2034 4750 
Q 2819 4750 3233 4129 
Q 3647 3509 3647 2328 
Q 3647 1150 3233 529 
Q 2819 -91 2034 -91 
Q 1250 -91 836 529 
Q 422 1150 422 2328 
Q 422 3509 836 4129 
Q 1250 4750 2034 4750 
z
" transform="scale(0.015625)"/>
        <path id="DejaVuSans-2d" d="M 313 2009 
L 1997 2009 
L 1997 1497 
L 313 1497 
L 313 2009 
z
" transform="scale(0.015625)"/>
        <path id="DejaVuSans-37" d="M 525 4666 
L 3525 4666 
L 3525 4397 
L 1831 0 
L 1172 0 
L 2766 4134 
L 525 4134 
L 525 4666 
z
" transform="scale(0.015625)"/>
       </defs>
       <use xlink:href="#DejaVuSans-32"/>
       <use xlink:href="#DejaVuSans-30" transform="translate(63.623047 0)"/>
       <use xlink:href="#DejaVuSans-32" transform="translate(127.246094 0)"/>
       <use xlink:href="#DejaVuSans-30" transform="translate(190.869141 0)"/>
       <use xlink:href="#DejaVuSans-2d" transform="translate(254.492188 0)"/>
       <use xlink:href="#DejaVuSans-30" transform="translate(290.576172 0)"/>
       <use xlink:href="#DejaVuSans-37" transform="translate(354.199219 0)"/>
      </g>
     </g>
    </g>
    <g id="xtick_2">
     <g id="line2d_2">
      <g>
       <use xlink:href="#m6a16de96b4" x="209.892293" y="384.48" style="stroke: #000000; stroke-width: 0.8"/>
      </g>
     </g>
     <g id="text_2">
      <!-- 2021-01 -->
      <g transform="translate(189.000887 399.078438) scale(0.1 -0.1)">
       <defs>
        <path id="DejaVuSans-31" d="M 794 531 
L 1825 531 
L 1825 4091 
L 703 3866 
L 703 4441 
L 1819 4666 
L 2450 4666 
L 2450 531 
L 3481 531 
L 3481 0 
L 794 0 
L 794 531 
z
" transform="scale(0.015625)"/>
       </defs>
       <use xlink:href="#DejaVuSans-32"/>
       <use xlink:href="#DejaVuSans-30" transform="translate(63.623047 0)"/>
       <use xlink:href="#DejaVuSans-32" transform="translate(127.246094 0)"/>
       <use xlink:href="#DejaVuSans-31" transform="translate(190.869141 0)"/>
       <use xlink:href="#DejaVuSans-2d" transform="translate(254.492188 0)"/>
       <use xlink:href="#DejaVuSans-30" transform="translate(290.576172 0)"/>
       <use xlink:href="#DejaVuSans-31" transform="translate(354.199219 0)"/>
      </g>
     </g>
    </g>
    <g id="xtick_3">
     <g id="line2d_3">
      <g>
       <use xlink:href="#m6a16de96b4" x="279.80323" y="384.48" style="stroke: #000000; stroke-width: 0.8"/>
      </g>
     </g>
     <g id="text_3">
      <!-- 2021-07 -->
      <g transform="translate(258.911824 399.078438) scale(0.1 -0.1)">
       <use xlink:href="#DejaVuSans-32"/>
       <use xlink:href="#DejaVuSans-30" transform="translate(63.623047 0)"/>
       <use xlink:href="#DejaVuSans-32" transform="translate(127.246094 0)"/>
       <use xlink:href="#DejaVuSans-31" transform="translate(190.869141 0)"/>
       <use xlink:href="#DejaVuSans-2d" transform="translate(254.492188 0)"/>
       <use xlink:href="#DejaVuSans-30" transform="translate(290.576172 0)"/>
       <use xlink:href="#DejaVuSans-37" transform="translate(354.199219 0)"/>
      </g>
     </g>
    </g>
    <g id="xtick_4">
     <g id="line2d_4">
      <g>
       <use xlink:href="#m6a16de96b4" x="350.872912" y="384.48" style="stroke: #000000; stroke-width: 0.8"/>
      </g>
     </g>
     <g id="text_4">
      <!-- 2022-01 -->
      <g transform="translate(329.981506 399.078438) scale(0.1 -0.1)">
       <use xlink:href="#DejaVuSans-32"/>
       <use xlink:href="#DejaVuSans-30" transform="translate(63.623047 0)"/>
       <use xlink:href="#DejaVuSans-32" transform="translate(127.246094 0)"/>
       <use xlink:href="#DejaVuSans-32" transform="translate(190.869141 0)"/>
       <use xlink:href="#DejaVuSans-2d" transform="translate(254.492188 0)"/>
       <use xlink:href="#DejaVuSans-30" transform="translate(290.576172 0)"/>
       <use xlink:href="#DejaVuSans-31" transform="translate(354.199219 0)"/>
      </g>
     </g>
    </g>
    <g id="xtick_5">
     <g id="line2d_5">
      <g>
       <use xlink:href="#m6a16de96b4" x="420.783849" y="384.48" style="stroke: #000000; stroke-width: 0.8"/>
      </g>
     </g>
     <g id="text_5">
      <!-- 2022-07 -->
      <g transform="translate(399.892442 399.078438) scale(0.1 -0.1)">
       <use xlink:href="#DejaVuSans-32"/>
       <use xlink:href="#DejaVuSans-30" transform="translate(63.623047 0)"/>
       <use xlink:href="#DejaVuSans-32" transform="translate(127.246094 0)"/>
       <use xlink:href="#DejaVuSans-32" transform="translate(190.869141 0)"/>
       <use xlink:href="#DejaVuSans-2d" transform="translate(254.492188 0)"/>
       <use xlink:href="#DejaVuSans-30" transform="translate(290.576172 0)"/>
       <use xlink:href="#DejaVuSans-37" transform="translate(354.199219 0)"/>
      </g>
     </g>
    </g>
    <g id="xtick_6">
     <g id="line2d_6">
      <g>
       <use xlink:href="#m6a16de96b4" x="491.85353" y="384.48" style="stroke: #000000; stroke-width: 0.8"/>
      </g>
     </g>
     <g id="text_6">
      <!-- 2023-01 -->
      <g transform="translate(470.962124 399.078438) scale(0.1 -0.1)">
       <defs>
        <path id="DejaVuSans-33" d="M 2597 2516 
Q 3050 2419 3304 2112 
Q 3559 1806 3559 1356 
Q 3559 666 3084 287 
Q 2609 -91 1734 -91 
Q 1441 -91 1130 -33 
Q 819 25 488 141 
L 488 750 
Q 750 597 1062 519 
Q 1375 441 1716 441 
Q 2309 441 2620 675 
Q 2931 909 2931 1356 
Q 2931 1769 2642 2001 
Q 2353 2234 1838 2234 
L 1294 2234 
L 1294 2753 
L 1863 2753 
Q 2328 2753 2575 2939 
Q 2822 3125 2822 3475 
Q 2822 3834 2567 4026 
Q 2313 4219 1838 4219 
Q 1578 4219 1281 4162 
Q 984 4106 628 3988 
L 628 4550 
Q 988 4650 1302 4700 
Q 1616 4750 1894 4750 
Q 2613 4750 3031 4423 
Q 3450 4097 3450 3541 
Q 3450 3153 3228 2886 
Q 3006 2619 2597 2516 
z
" transform="scale(0.015625)"/>
       </defs>
       <use xlink:href="#DejaVuSans-32"/>
       <use xlink:href="#DejaVuSans-30" transform="translate(63.623047 0)"/>
       <use xlink:href="#DejaVuSans-32" transform="translate(127.246094 0)"/>
       <use xlink:href="#DejaVuSans-33" transform="translate(190.869141 0)"/>
       <use xlink:href="#DejaVuSans-2d" transform="translate(254.492188 0)"/>
       <use xlink:href="#DejaVuSans-30" transform="translate(290.576172 0)"/>
       <use xlink:href="#DejaVuSans-31" transform="translate(354.199219 0)"/>
      </g>
     </g>
    </g>
    <g id="xtick_7">
     <g id="line2d_7">
      <g>
       <use xlink:href="#m6a16de96b4" x="561.764467" y="384.48" style="stroke: #000000; stroke-width: 0.8"/>
      </g>
     </g>
     <g id="text_7">
      <!-- 2023-07 -->
      <g transform="translate(540.873061 399.078438) scale(0.1 -0.1)">
       <use xlink:href="#DejaVuSans-32"/>
       <use xlink:href="#DejaVuSans-30" transform="translate(63.623047 0)"/>
       <use xlink:href="#DejaVuSans-32" transform="translate(127.246094 0)"/>
       <use xlink:href="#DejaVuSans-33" transform="translate(190.869141 0)"/>
       <use xlink:href="#DejaVuSans-2d" transform="translate(254.492188 0)"/>
       <use xlink:href="#DejaVuSans-30" transform="translate(290.576172 0)"/>
       <use xlink:href="#DejaVuSans-37" transform="translate(354.199219 0)"/>
      </g>
     </g>
    </g>
    <g id="xtick_8">
     <g id="line2d_8">
      <g>
       <use xlink:href="#m6a16de96b4" x="632.834149" y="384.48" style="stroke: #000000; stroke-width: 0.8"/>
      </g>
     </g>
     <g id="text_8">
      <!-- 2024-01 -->
      <g transform="translate(611.942742 399.078438) scale(0.1 -0.1)">
       <defs>
        <path id="DejaVuSans-34" d="M 2419 4116 
L 825 1625 
L 2419 1625 
L 2419 4116 
z
M 2253 4666 
L 3047 4666 
L 3047 1625 
L 3713 1625 
L 3713 1100 
L 3047 1100 
L 3047 0 
L 2419 0 
L 2419 1100 
L 313 1100 
L 313 1709 
L 2253 4666 
z
" transform="scale(0.015625)"/>
       </defs>
       <use xlink:href="#DejaVuSans-32"/>
       <use xlink:href="#DejaVuSans-30" transform="translate(63.623047 0)"/>
       <use xlink:href="#DejaVuSans-32" transform="translate(127.246094 0)"/>
       <use xlink:href="#DejaVuSans-34" transform="translate(190.869141 0)"/>
       <use xlink:href="#DejaVuSans-2d" transform="translate(254.492188 0)"/>
       <use xlink:href="#DejaVuSans-30" transform="translate(290.576172 0)"/>
       <use xlink:href="#DejaVuSans-31" transform="translate(354.199219 0)"/>
      </g>
     </g>
    </g>
    <g id="xtick_9">
     <g id="line2d_9">
      <g>
       <use xlink:href="#m6a16de96b4" x="703.131334" y="384.48" style="stroke: #000000; stroke-width: 0.8"/>
      </g>
     </g>
     <g id="text_9">
      <!-- 2024-07 -->
      <g transform="translate(682.239927 399.078438) scale(0.1 -0.1)">
       <use xlink:href="#DejaVuSans-32"/>
       <use xlink:href="#DejaVuSans-30" transform="translate(63.623047 0)"/>
       <use xlink:href="#DejaVuSans-32" transform="translate(127.246094 0)"/>
       <use xlink:href="#DejaVuSans-34" transform="translate(190.869141 0)"/>
       <use xlink:href="#DejaVuSans-2d" transform="translate(254.492188 0)"/>
       <use xlink:href="#DejaVuSans-30" transform="translate(290.576172 0)"/>
       <use xlink:href="#DejaVuSans-37" transform="translate(354.199219 0)"/>
      </g>
     </g>
    </g>
    <g id="xtick_10">
     <g id="line2d_10">
      <g>
       <use xlink:href="#m6a16de96b4" x="774.201015" y="384.48" style="stroke: #000000; stroke-width: 0.8"/>
      </g>
     </g>
     <g id="text_10">
      <!-- 2025-01 -->
      <g transform="translate(753.309609 399.078438) scale(0.1 -0.1)">
       <defs>
        <path id="DejaVuSans-35" d="M 691 4666 
L 3169 4666 
L 3169 4134 
L 1269 4134 
L 1269 2991 
Q 1406 3038 1543 3061 
Q 1681 3084 1819 3084 
Q 2600 3084 3056 2656 
Q 3513 2228 3513 1497 
Q 3513 744 3044 326 
Q 2575 -91 1722 -91 
Q 1428 -91 1123 -41 
Q 819 9 494 109 
L 494 744 
Q 775 591 1075 516 
Q 1375 441 1709 441 
Q 2250 441 2565 725 
Q 2881 1009 2881 1497 
Q 2881 1984 2565 2268 
Q 2250 2553 1709 2553 
Q 1456 2553 1204 2497 
Q 953 2441 691 2322 
L 691 4666 
z
" transform="scale(0.015625)"/>
       </defs>
       <use xlink:href="#DejaVuSans-32"/>
       <use xlink:href="#DejaVuSans-30" transform="translate(63.623047 0)"/>
       <use xlink:href="#DejaVuSans-32" transform="translate(127.246094 0)"/>
       <use xlink:href="#DejaVuSans-35" transform="translate(190.869141 0)"/>
       <use xlink:href="#DejaVuSans-2d" transform="translate(254.492188 0)"/>
       <use xlink:href="#DejaVuSans-30" transform="translate(290.576172 0)"/>
       <use xlink:href="#DejaVuSans-31" transform="translate(354.199219 0)"/>
      </g>
     </g>
    </g>
    <g id="text_11">
     <!-- Date -->
     <g transform="translate(430.849219 412.756563) scale(0.1 -0.1)">
      <defs>
       <path id="DejaVuSans-44" d="M 1259 4147 
L 1259 519 
L 2022 519 
Q 2988 519 3436 956 
Q 3884 1394 3884 2338 
Q 3884 3275 3436 3711 
Q 2988 4147 2022 4147 
L 1259 4147 
z
M 628 4666 
L 1925 4666 
Q 3281 4666 3915 4102 
Q 4550 3538 4550 2338 
Q 4550 1131 3912 565 
Q 3275 0 1925 0 
L 628 0 
L 628 4666 
z
" transform="scale(0.015625)"/>
       <path id="DejaVuSans-61" d="M 2194 1759 
Q 1497 1759 1228 1600 
Q 959 1441 959 1056 
Q 959 750 1161 570 
Q 1363 391 1709 391 
Q 2188 391 2477 730 
Q 2766 1069 2766 1631 
L 2766 1759 
L 2194 1759 
z
M 3341 1997 
L 3341 0 
L 2766 0 
L 2766 531 
Q 2569 213 2275 61 
Q 1981 -91 1556 -91 
Q 1019 -91 701 211 
Q 384 513 384 1019 
Q 384 1609 779 1909 
Q 1175 2209 1959 2209 
L 2766 2209 
L 2766 2266 
Q 2766 2663 2505 2880 
Q 2244 3097 1772 3097 
Q 1472 3097 1187 3025 
Q 903 2953 641 2809 
L 641 3341 
Q 956 3463 1253 3523 
Q 1550 3584 1831 3584 
Q 2591 3584 2966 3190 
Q 3341 2797 3341 1997 
z
" transform="scale(0.015625)"/>
       <path id="DejaVuSans-74" d="M 1172 4494 
L 1172 3500 
L 2356 3500 
L 2356 3053 
L 1172 3053 
L 1172 1153 
Q 1172 725 1289 603 
Q 1406 481 1766 481 
L 2356 481 
L 2356 0 
L 1766 0 
Q 1100 0 847 248 
Q 594 497 594 1153 
L 594 3053 
L 172 3053 
L 172 3500 
L 594 3500 
L 594 4494 
L 1172 4494 
z
" transform="scale(0.015625)"/>
       <path id="DejaVuSans-65" d="M 3597 1894 
L 3597 1613 
L 953 1613 
Q 991 1019 1311 708 
Q 1631 397 2203 397 
Q 2534 397 2845 478 
Q 3156 559 3463 722 
L 3463 178 
Q 3153 47 2828 -22 
Q 2503 -91 2169 -91 
Q 1331 -91 842 396 
Q 353 884 353 1716 
Q 353 2575 817 3079 
Q 1281 3584 2069 3584 
Q 2775 3584 3186 3129 
Q 3597 2675 3597 1894 
z
M 3022 2063 
Q 3016 2534 2758 2815 
Q 2500 3097 2075 3097 
Q 1594 3097 1305 2825 
Q 1016 2553 972 2059 
L 3022 2063 
z
" transform="scale(0.015625)"/>
      </defs>
      <use xlink:href="#DejaVuSans-44"/>
      <use xlink:href="#DejaVuSans-61" transform="translate(77.001953 0)"/>
      <use xlink:href="#DejaVuSans-74" transform="translate(138.28125 0)"/>
      <use xlink:href="#DejaVuSans-65" transform="translate(177.490234 0)"/>
     </g>
    </g>
   </g>
   <g id="matplotlib.axis_2">
    <g id="ytick_1">
     <g id="line2d_11">
      <defs>
       <path id="m97da51c14a" d="M 0 0 
L -3.5 0 
" style="stroke: #000000; stroke-width: 0.8"/>
      </defs>
      <g>
       <use xlink:href="#m97da51c14a" x="108" y="369.513808" style="stroke: #000000; stroke-width: 0.8"/>
      </g>
     </g>
     <g id="text_12">
      <!-- 0.00 -->
      <g transform="translate(78.734375 373.313026) scale(0.1 -0.1)">
       <defs>
        <path id="DejaVuSans-2e" d="M 684 794 
L 1344 794 
L 1344 0 
L 684 0 
L 684 794 
z
" transform="scale(0.015625)"/>
       </defs>
       <use xlink:href="#DejaVuSans-30"/>
       <use xlink:href="#DejaVuSans-2e" transform="translate(63.623047 0)"/>
       <use xlink:href="#DejaVuSans-30" transform="translate(95.410156 0)"/>
       <use xlink:href="#DejaVuSans-30" transform="translate(159.033203 0)"/>
      </g>
     </g>
    </g>
    <g id="ytick_2">
     <g id="line2d_12">
      <g>
       <use xlink:href="#m97da51c14a" x="108" y="309.78732" style="stroke: #000000; stroke-width: 0.8"/>
      </g>
     </g>
     <g id="text_13">
      <!-- 0.02 -->
      <g transform="translate(78.734375 313.586539) scale(0.1 -0.1)">
       <use xlink:href="#DejaVuSans-30"/>
       <use xlink:href="#DejaVuSans-2e" transform="translate(63.623047 0)"/>
       <use xlink:href="#DejaVuSans-30" transform="translate(95.410156 0)"/>
       <use xlink:href="#DejaVuSans-32" transform="translate(159.033203 0)"/>
      </g>
     </g>
    </g>
    <g id="ytick_3">
     <g id="line2d_13">
      <g>
       <use xlink:href="#m97da51c14a" x="108" y="250.060833" style="stroke: #000000; stroke-width: 0.8"/>
      </g>
     </g>
     <g id="text_14">
      <!-- 0.04 -->
      <g transform="translate(78.734375 253.860052) scale(0.1 -0.1)">
       <use xlink:href="#DejaVuSans-30"/>
       <use xlink:href="#DejaVuSans-2e" transform="translate(63.623047 0)"/>
       <use xlink:href="#DejaVuSans-30" transform="translate(95.410156 0)"/>
       <use xlink:href="#DejaVuSans-34" transform="translate(159.033203 0)"/>
      </g>
     </g>
    </g>
    <g id="ytick_4">
     <g id="line2d_14">
      <g>
       <use xlink:href="#m97da51c14a" x="108" y="190.334346" style="stroke: #000000; stroke-width: 0.8"/>
      </g>
     </g>
     <g id="text_15">
      <!-- 0.06 -->
      <g transform="translate(78.734375 194.133565) scale(0.1 -0.1)">
       <defs>
        <path id="DejaVuSans-36" d="M 2113 2584 
Q 1688 2584 1439 2293 
Q 1191 2003 1191 1497 
Q 1191 994 1439 701 
Q 1688 409 2113 409 
Q 2538 409 2786 701 
Q 3034 994 3034 1497 
Q 3034 2003 2786 2293 
Q 2538 2584 2113 2584 
z
M 3366 4563 
L 3366 3988 
Q 3128 4100 2886 4159 
Q 2644 4219 2406 4219 
Q 1781 4219 1451 3797 
Q 1122 3375 1075 2522 
Q 1259 2794 1537 2939 
Q 1816 3084 2150 3084 
Q 2853 3084 3261 2657 
Q 3669 2231 3669 1497 
Q 3669 778 3244 343 
Q 2819 -91 2113 -91 
Q 1303 -91 875 529 
Q 447 1150 447 2328 
Q 447 3434 972 4092 
Q 1497 4750 2381 4750 
Q 2619 4750 2861 4703 
Q 3103 4656 3366 4563 
z
" transform="scale(0.015625)"/>
       </defs>
       <use xlink:href="#DejaVuSans-30"/>
       <use xlink:href="#DejaVuSans-2e" transform="translate(63.623047 0)"/>
       <use xlink:href="#DejaVuSans-30" transform="translate(95.410156 0)"/>
       <use xlink:href="#DejaVuSans-36" transform="translate(159.033203 0)"/>
      </g>
     </g>
    </g>
    <g id="ytick_5">
     <g id="line2d_15">
      <g>
       <use xlink:href="#m97da51c14a" x="108" y="130.607859" style="stroke: #000000; stroke-width: 0.8"/>
      </g>
     </g>
     <g id="text_16">
      <!-- 0.08 -->
      <g transform="translate(78.734375 134.407078) scale(0.1 -0.1)">
       <defs>
        <path id="DejaVuSans-38" d="M 2034 2216 
Q 1584 2216 1326 1975 
Q 1069 1734 1069 1313 
Q 1069 891 1326 650 
Q 1584 409 2034 409 
Q 2484 409 2743 651 
Q 3003 894 3003 1313 
Q 3003 1734 2745 1975 
Q 2488 2216 2034 2216 
z
M 1403 2484 
Q 997 2584 770 2862 
Q 544 3141 544 3541 
Q 544 4100 942 4425 
Q 1341 4750 2034 4750 
Q 2731 4750 3128 4425 
Q 3525 4100 3525 3541 
Q 3525 3141 3298 2862 
Q 3072 2584 2669 2484 
Q 3125 2378 3379 2068 
Q 3634 1759 3634 1313 
Q 3634 634 3220 271 
Q 2806 -91 2034 -91 
Q 1263 -91 848 271 
Q 434 634 434 1313 
Q 434 1759 690 2068 
Q 947 2378 1403 2484 
z
M 1172 3481 
Q 1172 3119 1398 2916 
Q 1625 2713 2034 2713 
Q 2441 2713 2670 2916 
Q 2900 3119 2900 3481 
Q 2900 3844 2670 4047 
Q 2441 4250 2034 4250 
Q 1625 4250 1398 4047 
Q 1172 3844 1172 3481 
z
" transform="scale(0.015625)"/>
       </defs>
       <use xlink:href="#DejaVuSans-30"/>
       <use xlink:href="#DejaVuSans-2e" transform="translate(63.623047 0)"/>
       <use xlink:href="#DejaVuSans-30" transform="translate(95.410156 0)"/>
       <use xlink:href="#DejaVuSans-38" transform="translate(159.033203 0)"/>
      </g>
     </g>
    </g>
    <g id="ytick_6">
     <g id="line2d_16">
      <g>
       <use xlink:href="#m97da51c14a" x="108" y="70.881372" style="stroke: #000000; stroke-width: 0.8"/>
      </g>
     </g>
     <g id="text_17">
      <!-- 0.10 -->
      <g transform="translate(78.734375 74.680591) scale(0.1 -0.1)">
       <use xlink:href="#DejaVuSans-30"/>
       <use xlink:href="#DejaVuSans-2e" transform="translate(63.623047 0)"/>
       <use xlink:href="#DejaVuSans-31" transform="translate(95.410156 0)"/>
       <use xlink:href="#DejaVuSans-30" transform="translate(159.033203 0)"/>
      </g>
     </g>
    </g>
    <g id="text_18">
     <!-- Volatility -->
     <g transform="translate(72.654687 239.752187) rotate(-90) scale(0.1 -0.1)">
      <defs>
       <path id="DejaVuSans-56" d="M 1831 0 
L 50 4666 
L 709 4666 
L 2188 738 
L 3669 4666 
L 4325 4666 
L 2547 0 
L 1831 0 
z
" transform="scale(0.015625)"/>
       <path id="DejaVuSans-6f" d="M 1959 3097 
Q 1497 3097 1228 2736 
Q 959 2375 959 1747 
Q 959 1119 1226 758 
Q 1494 397 1959 397 
Q 2419 397 2687 759 
Q 2956 1122 2956 1747 
Q 2956 2369 2687 2733 
Q 2419 3097 1959 3097 
z
M 1959 3584 
Q 2709 3584 3137 3096 
Q 3566 2609 3566 1747 
Q 3566 888 3137 398 
Q 2709 -91 1959 -91 
Q 1206 -91 779 398 
Q 353 888 353 1747 
Q 353 2609 779 3096 
Q 1206 3584 1959 3584 
z
" transform="scale(0.015625)"/>
       <path id="DejaVuSans-6c" d="M 603 4863 
L 1178 4863 
L 1178 0 
L 603 0 
L 603 4863 
z
" transform="scale(0.015625)"/>
       <path id="DejaVuSans-69" d="M 603 3500 
L 1178 3500 
L 1178 0 
L 603 0 
L 603 3500 
z
M 603 4863 
L 1178 4863 
L 1178 4134 
L 603 4134 
L 603 4863 
z
" transform="scale(0.015625)"/>
       <path id="DejaVuSans-79" d="M 2059 -325 
Q 1816 -950 1584 -1140 
Q 1353 -1331 966 -1331 
L 506 -1331 
L 506 -850 
L 844 -850 
Q 1081 -850 1212 -737 
Q 1344 -625 1503 -206 
L 1606 56 
L 191 3500 
L 800 3500 
L 1894 763 
L 2988 3500 
L 3597 3500 
L 2059 -325 
z
" transform="scale(0.015625)"/>
      </defs>
      <use xlink:href="#DejaVuSans-56"/>
      <use xlink:href="#DejaVuSans-6f" transform="translate(60.658203 0)"/>
      <use xlink:href="#DejaVuSans-6c" transform="translate(121.839844 0)"/>
      <use xlink:href="#DejaVuSans-61" transform="translate(149.623047 0)"/>
      <use xlink:href="#DejaVuSans-74" transform="translate(210.902344 0)"/>
      <use xlink:href="#DejaVuSans-69" transform="translate(250.111328 0)"/>
      <use xlink:href="#DejaVuSans-6c" transform="translate(277.894531 0)"/>
      <use xlink:href="#DejaVuSans-69" transform="translate(305.677734 0)"/>
      <use xlink:href="#DejaVuSans-74" transform="translate(333.460938 0)"/>
      <use xlink:href="#DejaVuSans-79" transform="translate(372.669922 0)"/>
     </g>
    </g>
   </g>
   <g id="line2d_17">
    <path d="M 138.436364 329.873948 
L 138.822612 318.344876 
L 139.20886 314.656909 
L 140.753853 306.968463 
L 141.140102 348.435254 
L 141.52635 347.836356 
L 141.912598 339.739741 
L 142.298846 309.349633 
L 143.457591 310.041366 
L 143.843839 351.311743 
L 145.002584 364.689884 
L 146.161329 272.256806 
L 146.547577 355.557624 
L 146.933826 350.279161 
L 147.320074 267.234501 
L 147.706322 361.997629 
L 148.865067 333.52501 
L 149.251315 310.663068 
L 149.637563 326.670068 
L 150.023812 351.068315 
L 150.41006 273.429117 
L 151.568805 352.3274 
L 151.955053 350.250926 
L 152.341301 351.953033 
L 152.72755 316.307617 
L 153.113798 358.324976 
L 154.272543 366.29849 
L 155.045039 316.923192 
L 155.431287 346.156757 
L 155.817536 348.355967 
L 156.976281 349.280398 
L 157.362529 290.65258 
L 157.748777 348.227777 
L 158.135025 304.197823 
L 158.521274 367.001811 
L 159.680018 354.848972 
L 160.066267 332.105107 
L 160.452515 288.618173 
L 160.838763 336.712658 
L 161.225012 351.151806 
L 162.383756 350.877718 
L 162.770005 321.421826 
L 163.156253 250.414729 
L 163.542501 216.288156 
L 163.928749 275.654577 
L 165.473743 257.349504 
L 165.859991 322.011544 
L 166.246239 321.29035 
L 166.632487 347.405597 
L 167.791232 366.684413 
L 168.17748 326.270252 
L 168.563729 329.452907 
L 168.949977 319.278984 
L 169.336225 297.689483 
L 170.49497 309.953801 
L 170.881218 298.785891 
L 171.267467 265.317009 
L 171.653715 342.039667 
L 172.039963 334.861196 
L 173.198708 329.360106 
L 173.584956 359.72168 
L 173.971204 368.964936 
L 174.357453 328.164449 
L 174.743701 305.35886 
L 175.902446 313.526755 
L 176.288694 303.312018 
L 176.674942 355.472189 
L 177.061191 317.53456 
L 177.447439 311.221325 
L 178.606184 265.071996 
L 178.992432 364.702607 
L 179.37868 362.665647 
L 180.151177 343.045981 
L 181.309922 295.707753 
L 181.69617 328.310938 
L 182.082418 298.618106 
L 182.468666 328.524337 
L 182.854915 322.429776 
L 184.013659 276.075106 
L 184.399908 343.695315 
L 184.786156 201.74698 
L 185.172404 271.467067 
L 185.558653 268.775248 
L 186.717397 360.279965 
L 187.103646 325.432413 
L 187.489894 195.662067 
L 187.876142 345.299813 
L 188.26239 366.768981 
L 189.421135 367.395697 
L 189.807383 330.96727 
L 190.57988 364.619756 
L 190.966128 323.484209 
L 192.124873 362.19562 
L 192.511121 350.628106 
L 192.89737 329.824876 
L 193.283618 340.35373 
L 193.669866 332.496267 
L 194.828611 356.922765 
L 195.214859 311.51967 
L 195.601108 365.21177 
L 196.373604 333.05378 
L 197.532349 314.977691 
L 197.918597 306.811944 
L 198.304845 320.345255 
L 198.691094 367.585479 
L 199.077342 367.520168 
L 200.236087 355.578886 
L 200.622335 367.986964 
L 201.008583 312.449369 
L 201.394832 354.747861 
L 201.78108 358.70058 
L 202.939825 332.903315 
L 203.326073 356.460751 
L 203.712321 361.445047 
L 204.098569 343.825769 
L 204.484818 340.516635 
L 205.643563 355.125944 
L 206.029811 342.141708 
L 206.416059 354.166844 
L 206.802307 358.381627 
L 208.3473 306.232582 
L 208.733549 340.164078 
L 209.119797 336.73278 
L 209.506045 348.369652 
L 211.051038 328.94179 
L 211.437287 347.68347 
L 211.823535 359.840818 
L 212.209783 281.406568 
L 212.596031 336.347626 
L 213.754776 301.845258 
L 214.141024 335.223944 
L 214.527273 356.12156 
L 214.913521 345.21007 
L 215.299769 362.658668 
L 216.844762 276.929191 
L 217.231011 213.510193 
L 217.617259 362.637191 
L 218.003507 354.079419 
L 219.162252 366.920833 
L 219.5485 341.595894 
L 219.934749 231.727466 
L 220.320997 317.254265 
L 220.707245 325.317815 
L 221.86599 264.644747 
L 222.252238 328.705924 
L 222.638486 156.429441 
L 223.024735 358.384861 
L 223.410983 318.361894 
L 224.569728 362.259785 
L 224.955976 356.070921 
L 225.342224 352.548699 
L 225.728473 368.786902 
L 226.114721 357.824594 
L 227.659714 344.370832 
L 228.045962 360.50621 
L 228.818459 346.77468 
L 229.977204 317.528167 
L 230.363452 360.877872 
L 230.7497 334.661268 
L 231.135948 277.149303 
L 231.522197 361.43908 
L 232.680941 304.75785 
L 233.06719 361.367989 
L 233.453438 297.985143 
L 233.839686 336.71811 
L 234.225934 284.104907 
L 235.384679 247.564246 
L 235.770928 327.716484 
L 236.157176 366.125957 
L 236.543424 283.938868 
L 236.929672 293.93445 
L 238.088417 362.902289 
L 238.474665 332.132343 
L 238.860914 367.458055 
L 239.247162 290.120677 
L 239.63341 359.294236 
L 240.792155 362.768055 
L 241.178403 348.536913 
L 241.9509 368.491565 
L 242.337148 356.616505 
L 243.495893 339.734129 
L 243.882141 368.918207 
L 244.268389 350.556642 
L 244.654638 271.361505 
L 246.199631 249.313662 
L 246.585879 368.440326 
L 246.972127 336.23595 
L 247.358376 348.666175 
L 247.744624 342.69055 
L 248.903369 328.618485 
L 249.289617 353.030411 
L 249.675865 353.096494 
L 250.062114 314.634403 
L 250.448362 368.083823 
L 251.607107 363.489372 
L 251.993355 358.116988 
L 252.379603 369.070938 
L 253.1521 307.76821 
L 254.310844 354.794617 
L 254.697093 344.225281 
L 255.083341 276.750681 
L 255.855838 345.117118 
L 257.014582 350.931975 
L 257.400831 318.053514 
L 257.787079 366.357046 
L 258.173327 338.491155 
L 258.559575 347.847314 
L 259.71832 297.654817 
L 260.104569 327.258911 
L 260.490817 277.996327 
L 260.877065 339.139741 
L 261.263313 298.814108 
L 262.422058 362.7523 
L 262.808306 346.293759 
L 263.194555 362.676289 
L 263.580803 308.848117 
L 263.967051 355.551498 
L 265.125796 292.12005 
L 265.512044 366.537365 
L 265.898293 339.345679 
L 266.284541 331.202816 
L 266.670789 358.285791 
L 268.215782 346.999277 
L 268.60203 359.011723 
L 268.988279 348.882402 
L 269.374527 311.524194 
L 270.533272 352.110223 
L 270.91952 349.286733 
L 271.305768 359.247749 
L 271.692017 333.532075 
L 272.078265 360.416424 
L 273.23701 353.980891 
L 273.623258 361.964716 
L 274.009506 361.529982 
L 274.395754 353.531747 
L 274.782003 350.465234 
L 275.940748 348.480864 
L 276.326996 356.682786 
L 276.713244 356.83629 
L 277.099492 350.200804 
L 277.485741 362.772653 
L 278.644485 365.384044 
L 279.030734 350.592117 
L 279.416982 352.819749 
L 279.80323 344.537154 
L 280.189479 314.477497 
L 281.734472 345.206202 
L 282.12072 362.468789 
L 282.506968 348.76826 
L 282.893216 360.338677 
L 284.051961 346.795231 
L 284.43821 359.683135 
L 284.824458 344.812814 
L 285.596954 356.370245 
L 286.755699 310.231163 
L 287.141947 327.130698 
L 287.528196 335.562398 
L 287.914444 353.162935 
L 288.300692 270.656425 
L 289.459437 330.152583 
L 289.845685 307.978982 
L 290.231934 360.440562 
L 290.618182 366.034312 
L 291.00443 340.514134 
L 292.163175 352.589514 
L 292.549423 363.141312 
L 292.935671 363.99766 
L 293.32192 349.569808 
L 293.708168 367.421169 
L 294.866913 348.536259 
L 295.253161 367.469604 
L 296.025658 354.370153 
L 296.411906 369.157557 
L 297.570651 358.530108 
L 297.956899 334.581475 
L 298.343147 353.582827 
L 298.729395 362.012259 
L 299.115644 336.467147 
L 300.274389 312.624297 
L 300.660637 342.146768 
L 301.046885 357.970343 
L 301.433133 352.187124 
L 301.819382 318.937163 
L 302.978126 350.588115 
L 303.364375 369.36 
L 303.750623 361.72282 
L 304.136871 336.094227 
L 304.52312 358.022927 
L 306.068113 354.206291 
L 306.454361 356.443628 
L 306.840609 368.89554 
L 307.226857 307.199979 
L 308.385602 337.200357 
L 308.77185 368.285627 
L 309.158099 332.263679 
L 309.544347 352.343469 
L 309.930595 308.70632 
L 311.08934 317.415812 
L 311.475588 356.02156 
L 311.861837 342.011407 
L 312.248085 350.757129 
L 312.634333 352.580351 
L 313.793078 345.718677 
L 314.179326 255.137944 
L 314.565575 332.821847 
L 314.951823 341.511371 
L 315.338071 298.71879 
L 316.496816 309.890998 
L 316.883064 316.145205 
L 317.269312 343.813384 
L 317.655561 329.956894 
L 318.041809 350.8948 
L 319.200554 343.634004 
L 319.586802 323.248429 
L 319.97305 343.697268 
L 320.359299 294.411056 
L 320.745547 363.964948 
L 321.904292 342.539505 
L 322.29054 351.571571 
L 322.676788 340.154704 
L 323.063036 361.859205 
L 323.449285 281.309563 
L 324.60803 366.327331 
L 324.994278 350.230134 
L 325.380526 228.458757 
L 325.766774 363.419661 
L 326.153023 326.067328 
L 327.311767 277.548094 
L 327.698016 326.435381 
L 328.084264 350.59521 
L 328.470512 331.248345 
L 328.85676 358.327284 
L 330.015505 367.303429 
L 330.401754 367.453647 
L 330.788002 316.57357 
L 331.17425 367.030195 
L 331.560498 311.124368 
L 332.719243 364.370872 
L 333.105491 363.270355 
L 333.49174 369.233192 
L 333.877988 336.698524 
L 334.264236 354.485878 
L 335.422981 311.722245 
L 335.809229 362.978779 
L 336.195478 368.709821 
L 336.967974 288.817659 
L 338.126719 301.126789 
L 338.512967 293.714754 
L 338.899216 351.978688 
L 339.285464 324.340346 
L 339.671712 343.311066 
L 340.830457 342.895911 
L 341.216705 282.731826 
L 341.602953 355.747213 
L 341.989202 357.148977 
L 342.37545 358.062796 
L 343.534195 329.669109 
L 343.920443 334.006287 
L 344.306691 320.520335 
L 344.69294 317.79988 
L 345.079188 327.247401 
L 346.237933 361.10596 
L 346.624181 331.608849 
L 347.010429 313.543486 
L 347.396677 365.584119 
L 348.941671 350.869994 
L 349.327919 336.741352 
L 349.714167 368.361831 
L 350.100415 359.263571 
L 350.486664 342.329954 
L 351.645408 361.371963 
L 352.031657 355.938439 
L 352.417905 226.284226 
L 352.804153 367.289107 
L 353.190401 357.625434 
L 354.349146 335.497381 
L 354.735395 338.566791 
L 355.121643 334.939208 
L 355.507891 315.971521 
L 355.894139 355.477068 
L 357.439132 293.877266 
L 357.825381 355.490375 
L 358.597877 292.143185 
L 359.756622 363.093208 
L 360.14287 285.031747 
L 360.529119 311.074506 
L 360.915367 366.762754 
L 361.301615 274.627754 
L 362.46036 316.022668 
L 362.846608 321.919872 
L 363.232856 157.227843 
L 364.005353 361.871826 
L 365.164098 283.123202 
L 365.550346 363.608948 
L 365.936594 321.84487 
L 366.322843 308.719854 
L 366.709091 271.560695 
L 367.867836 343.577454 
L 368.254084 344.774593 
L 368.640332 346.356954 
L 369.026581 254.84883 
L 369.412829 327.668865 
L 370.957822 345.036487 
L 371.34407 327.272633 
L 371.730318 252.723548 
L 372.116567 328.248749 
L 373.275311 361.277771 
L 373.66156 353.464248 
L 374.434056 359.66895 
L 374.820305 320.508323 
L 375.979049 238.82015 
L 376.365298 350.353592 
L 376.751546 218.818942 
L 377.137794 342.983481 
L 377.524042 319.433409 
L 378.682787 282.791504 
L 379.069036 301.50344 
L 379.455284 278.10863 
L 379.841532 349.255723 
L 380.22778 321.07602 
L 381.386525 362.454547 
L 381.772773 287.522834 
L 382.159022 331.506789 
L 382.54527 309.564445 
L 382.931518 365.089688 
L 384.090263 360.485507 
L 384.476511 342.288999 
L 384.86276 356.864247 
L 385.249008 306.14468 
L 385.635256 347.133725 
L 386.794001 307.703929 
L 387.180249 315.398736 
L 387.566497 286.070265 
L 387.952746 353.995102 
L 388.338994 315.312008 
L 389.497739 274.099696 
L 389.883987 336.616328 
L 390.270235 325.375177 
L 390.656484 299.17159 
L 392.201477 352.944782 
L 392.587725 310.129933 
L 392.973973 316.762161 
L 393.360222 291.472871 
L 393.74647 239.478094 
L 394.905215 280.08852 
L 395.291463 277.390894 
L 395.677711 255.268455 
L 396.063959 257.630783 
L 396.450208 256.228407 
L 397.608952 313.149563 
L 397.995201 344.827071 
L 398.381449 259.194294 
L 398.767697 224.025576 
L 399.153946 341.591624 
L 400.31269 302.249891 
L 401.085187 353.219532 
L 401.471435 348.476165 
L 401.857683 282.275134 
L 403.016428 325.02308 
L 403.402677 320.259726 
L 403.788925 257.387633 
L 404.175173 325.202491 
L 404.561421 330.633642 
L 405.720166 305.901043 
L 406.106414 211.907683 
L 406.492663 367.074097 
L 407.265159 247.853017 
L 408.810152 336.864317 
L 409.196401 366.948608 
L 409.582649 276.548663 
L 409.968897 287.70006 
L 411.127642 306.412736 
L 411.51389 363.929701 
L 411.900138 369.297307 
L 412.286387 309.825475 
L 412.672635 277.401564 
L 413.83138 244.983646 
L 414.217628 360.655507 
L 414.603876 281.76417 
L 414.990125 266.178249 
L 415.376373 335.278845 
L 416.921366 256.786956 
L 417.307614 369.007385 
L 417.693862 352.224403 
L 418.080111 218.281241 
L 419.238856 320.862404 
L 419.625104 263.936483 
L 420.011352 361.145632 
L 420.3976 291.788837 
L 420.783849 361.544121 
L 422.328842 240.755445 
L 422.71509 334.931576 
L 423.101338 265.277106 
L 423.487587 348.002332 
L 424.646331 277.503457 
L 425.03258 326.326237 
L 425.418828 299.468054 
L 425.805076 349.562954 
L 426.191324 334.163562 
L 427.350069 292.879213 
L 427.736317 244.206292 
L 428.122566 367.430355 
L 428.508814 360.674573 
L 428.895062 190.869259 
L 430.053807 365.377009 
L 430.440055 292.073396 
L 430.826304 146.909012 
L 431.212552 343.601424 
L 431.5988 316.561037 
L 432.757545 339.665856 
L 433.143793 358.672316 
L 433.530042 296.213674 
L 433.91629 367.251817 
L 434.302538 353.139264 
L 435.461283 367.492218 
L 435.847531 353.292025 
L 436.233779 290.50919 
L 436.620028 348.898641 
L 437.006276 299.800547 
L 438.165021 363.919037 
L 438.551269 360.508337 
L 438.937517 315.647029 
L 439.323766 356.141052 
L 439.710014 301.032087 
L 440.868759 291.390237 
L 441.255007 361.717889 
L 441.641255 367.691854 
L 442.413752 202.549301 
L 443.572497 343.643844 
L 443.958745 357.853429 
L 444.344993 348.792344 
L 445.11749 318.566673 
L 446.662483 336.356731 
L 447.048731 287.301121 
L 447.434979 340.72305 
L 447.821228 305.788719 
L 448.979972 367.110221 
L 449.366221 189.052767 
L 449.752469 353.675555 
L 450.138717 313.421559 
L 450.524965 361.743164 
L 451.68371 363.180713 
L 452.069958 310.854151 
L 452.456207 315.656727 
L 452.842455 352.838778 
L 453.228703 327.650113 
L 454.387448 358.653319 
L 454.773696 347.673616 
L 455.159945 289.905771 
L 455.546193 289.905771 
L 455.932441 309.859293 
L 457.091186 273.246316 
L 457.477434 277.419154 
L 457.863683 363.9681 
L 458.249931 368.929669 
L 458.636179 290.489518 
L 459.794924 343.608453 
L 460.181172 349.479557 
L 460.56742 361.909209 
L 461.339917 292.762191 
L 462.498662 260.886322 
L 462.88491 351.492685 
L 463.271158 336.9376 
L 463.657407 362.375955 
L 464.043655 341.425666 
L 465.2024 325.98536 
L 465.588648 313.204367 
L 465.974896 66.96 
L 466.361144 298.764113 
L 466.747393 243.841591 
L 467.906138 309.548008 
L 468.292386 235.303277 
L 468.678634 254.129816 
L 469.064882 244.131335 
L 469.451131 256.848719 
L 470.609875 303.091381 
L 470.996124 360.768017 
L 471.382372 318.359973 
L 471.76862 146.715077 
L 472.154868 289.414655 
L 473.313613 347.824143 
L 473.699862 287.010796 
L 474.08611 361.357437 
L 474.858606 348.215522 
L 476.017351 308.745688 
L 476.403599 323.131777 
L 476.789848 324.143403 
L 477.562344 332.416096 
L 478.721089 327.918775 
L 479.107337 344.275873 
L 479.493586 187.144256 
L 479.879834 364.505473 
L 480.266082 356.215712 
L 481.424827 340.944894 
L 481.811075 291.96603 
L 482.197323 302.479415 
L 482.583572 331.611629 
L 482.96982 341.410111 
L 484.128565 353.832557 
L 484.514813 297.299892 
L 484.901061 352.641845 
L 485.28731 237.877085 
L 485.673558 358.359896 
L 486.832303 312.775121 
L 487.218551 353.478162 
L 487.604799 348.927454 
L 487.991048 302.92902 
L 488.377296 317.524073 
L 489.922289 306.337358 
L 490.308537 319.166833 
L 490.694785 284.72456 
L 491.081034 362.118799 
L 492.626027 337.044559 
L 493.012275 336.371213 
L 493.398523 303.481066 
L 493.784772 322.05369 
L 495.329765 354.753418 
L 495.716013 270.124885 
L 496.102261 358.163314 
L 496.488509 340.735211 
L 498.033503 348.847141 
L 498.419751 357.17479 
L 498.805999 301.000001 
L 499.192247 203.452634 
L 500.350992 312.016825 
L 500.73724 309.910504 
L 501.123489 293.91447 
L 501.509737 295.419764 
L 501.895985 323.194882 
L 503.05473 286.529894 
L 503.440978 311.542519 
L 503.827227 323.227152 
L 504.213475 160.045688 
L 504.599723 269.597503 
L 505.758468 319.42813 
L 506.144716 240.445436 
L 506.530964 138.577309 
L 506.917213 230.760565 
L 507.303461 350.68451 
L 508.462206 365.109682 
L 508.848454 367.941548 
L 509.234702 302.647155 
L 509.620951 328.63856 
L 510.007199 332.178307 
L 511.552192 288.226708 
L 511.93844 361.39217 
L 512.324689 345.671315 
L 512.710937 312.572923 
L 513.869682 344.551352 
L 514.25593 362.892092 
L 514.642178 362.576961 
L 515.028426 310.706851 
L 515.414675 314.69971 
L 516.573419 320.370488 
L 516.959668 325.131138 
L 517.345916 354.330577 
L 517.732164 306.057478 
L 518.118413 315.857008 
L 519.277157 348.261018 
L 519.663406 286.300753 
L 520.049654 297.512888 
L 520.435902 232.882592 
L 520.82215 328.723225 
L 521.980895 354.026242 
L 522.367144 257.102051 
L 522.753392 323.451474 
L 523.13964 311.624268 
L 523.525888 363.887595 
L 524.684633 283.825323 
L 525.45713 353.646232 
L 525.843378 352.467471 
L 526.229626 291.549608 
L 527.774619 363.542036 
L 528.160868 364.680251 
L 528.547116 259.180988 
L 530.092109 315.554997 
L 530.478357 346.247797 
L 530.864605 344.078843 
L 531.250854 286.387811 
L 531.637102 334.662763 
L 532.795847 285.401995 
L 533.568343 366.67141 
L 533.954592 344.594452 
L 534.34084 369.231766 
L 535.499585 345.082926 
L 535.885833 308.200159 
L 536.272081 364.942652 
L 536.658329 259.489064 
L 537.044578 365.377391 
L 538.203323 355.407063 
L 538.589571 321.159264 
L 538.975819 365.571482 
L 539.362067 343.794952 
L 539.748316 341.122932 
L 540.90706 313.115111 
L 541.293309 361.22549 
L 541.679557 251.792302 
L 542.065805 249.09583 
L 542.452054 343.570021 
L 543.610798 345.102324 
L 543.997047 290.646645 
L 544.383295 335.14648 
L 544.769543 319.78138 
L 545.155791 362.978995 
L 546.314536 306.696961 
L 546.700784 307.666018 
L 547.087033 329.277705 
L 547.473281 303.71224 
L 547.859529 343.689035 
L 549.404522 350.645436 
L 549.790771 338.929113 
L 550.177019 345.405141 
L 550.563267 348.934874 
L 551.722012 336.313784 
L 552.10826 339.47887 
L 552.494509 251.164373 
L 552.880757 362.947946 
L 553.267005 364.648786 
L 554.42575 333.7578 
L 554.811998 367.593143 
L 555.198246 368.313491 
L 555.584495 335.850515 
L 555.970743 328.157524 
L 557.515736 364.454508 
L 557.901984 306.400454 
L 558.288233 305.918142 
L 558.674481 348.950772 
L 559.833226 272.555508 
L 560.219474 367.507183 
L 560.605722 318.017755 
L 560.99197 343.005972 
L 561.378219 345.720266 
L 562.536964 359.375066 
L 563.30946 318.674218 
L 563.695708 327.825314 
L 564.081957 349.941008 
L 565.240701 287.104709 
L 565.62695 348.126543 
L 566.013198 321.445602 
L 566.399446 242.198583 
L 566.785695 348.772994 
L 567.944439 354.270149 
L 568.716936 338.060622 
L 569.103184 289.40043 
L 569.489432 350.089712 
L 570.648177 330.795495 
L 571.034425 347.299571 
L 571.420674 206.938067 
L 571.806922 364.681205 
L 572.19317 298.169445 
L 573.351915 367.269326 
L 573.738163 342.016863 
L 574.124412 295.003711 
L 574.51066 366.497322 
L 574.896908 364.174819 
L 576.055653 291.549227 
L 576.441901 367.249415 
L 576.82815 330.985882 
L 577.214398 368.137116 
L 577.600646 368.596084 
L 578.759391 331.671245 
L 579.145639 333.964677 
L 579.531887 342.802649 
L 579.918136 338.450184 
L 580.304384 315.230066 
L 581.463129 350.460192 
L 581.849377 351.961861 
L 582.235625 289.540416 
L 582.621874 306.30263 
L 583.008122 363.337708 
L 584.166867 344.48372 
L 584.553115 286.827916 
L 584.939363 337.942639 
L 585.325611 360.367699 
L 585.71186 357.531392 
L 587.256853 367.548554 
L 587.643101 340.097889 
L 588.029349 351.25949 
L 588.415598 347.667884 
L 589.574342 357.782937 
L 589.960591 333.085497 
L 590.346839 338.293566 
L 590.733087 337.326874 
L 591.119335 354.651567 
L 592.27808 355.296188 
L 592.664329 366.718626 
L 593.050577 276.886737 
L 593.436825 296.971681 
L 593.823073 367.012018 
L 594.981818 348.65416 
L 595.368066 307.415354 
L 595.754315 323.500548 
L 596.526811 340.662414 
L 597.685556 295.249079 
L 598.071804 327.911377 
L 598.458053 303.707185 
L 598.844301 363.371389 
L 599.230549 309.942092 
L 600.389294 352.984401 
L 600.775542 363.084624 
L 601.16179 316.356042 
L 601.548039 339.649178 
L 601.934287 332.88991 
L 603.093032 328.635323 
L 603.47928 358.904431 
L 603.865528 333.072533 
L 604.251777 363.074457 
L 604.638025 320.990055 
L 605.79677 344.287167 
L 606.183018 321.820945 
L 606.569266 68.152175 
L 606.955515 292.376938 
L 607.341763 368.545928 
L 608.500508 313.177739 
L 608.886756 358.808066 
L 609.273004 315.89631 
L 609.659252 345.963469 
L 610.045501 328.227183 
L 611.204246 344.87662 
L 611.590494 348.009079 
L 611.976742 350.178945 
L 612.749239 316.247491 
L 613.907983 360.14323 
L 614.294232 329.780061 
L 614.68048 348.638518 
L 615.066728 319.140003 
L 615.452976 331.37721 
L 616.99797 354.395398 
L 617.384218 339.504357 
L 618.156714 330.874735 
L 619.315459 365.838637 
L 619.701707 357.209014 
L 620.087956 321.300674 
L 620.474204 314.717421 
L 620.860452 356.104361 
L 622.019197 308.642449 
L 622.791694 347.780018 
L 623.177942 214.12074 
L 623.56419 330.215266 
L 624.722935 326.81037 
L 625.495431 362.148664 
L 625.88168 352.300132 
L 626.267928 355.199477 
L 627.426673 295.68645 
L 627.812921 349.770439 
L 628.585418 324.101633 
L 628.971666 350.201123 
L 630.516659 367.421977 
L 630.902907 340.517998 
L 631.289156 366.133623 
L 631.675404 362.106329 
L 633.220397 340.341413 
L 633.606645 352.444108 
L 633.992893 319.740425 
L 634.379142 355.418783 
L 635.537886 302.030678 
L 635.924135 326.684045 
L 636.310383 343.650686 
L 636.696631 366.812748 
L 637.08288 357.689078 
L 638.627873 366.199276 
L 639.400369 325.944192 
L 639.786617 308.757796 
L 640.945362 364.261994 
L 641.717859 336.157598 
L 642.104107 304.871086 
L 642.490355 366.599775 
L 643.6491 349.19393 
L 644.035348 334.789973 
L 644.421597 141.516753 
L 644.807845 350.410259 
L 645.194093 352.195966 
L 646.352838 340.734237 
L 646.739086 359.639386 
L 647.125335 343.544941 
L 647.511583 358.539718 
L 647.897831 309.271225 
L 649.056576 339.745107 
L 649.442824 321.747777 
L 649.829072 353.844918 
L 650.215321 303.850665 
L 650.601569 323.939168 
L 652.146562 360.259046 
L 652.53281 335.269479 
L 652.919059 338.943664 
L 653.305307 368.896956 
L 654.464052 231.969841 
L 654.8503 340.597992 
L 655.236548 312.051391 
L 655.622796 318.880361 
L 656.009045 332.971624 
L 657.16779 284.397475 
L 657.554038 360.153021 
L 657.940286 342.155207 
L 658.326534 309.740543 
L 658.712783 346.417871 
L 659.871527 312.005312 
L 660.257776 354.933949 
L 660.644024 345.017074 
L 661.030272 294.723646 
L 661.416521 324.276696 
L 662.575265 239.827511 
L 662.961514 358.229487 
L 663.347762 334.191389 
L 663.73401 350.700619 
L 664.120258 309.290417 
L 665.279003 357.289097 
L 665.665251 358.666924 
L 666.0515 364.792859 
L 666.437748 363.231096 
L 667.982741 287.490049 
L 668.368989 357.467827 
L 668.755238 359.949604 
L 669.141486 283.689114 
L 669.527734 330.461017 
L 670.686479 327.137552 
L 671.072727 331.504839 
L 671.458976 360.435758 
L 671.845224 310.807792 
L 672.231472 339.648619 
L 673.390217 315.373827 
L 673.776465 363.20322 
L 674.162713 352.715119 
L 674.548962 358.493412 
L 674.93521 336.329861 
L 676.093955 327.051329 
L 676.480203 332.497807 
L 676.866451 347.559398 
L 677.2527 310.543398 
L 677.638948 85.832085 
L 678.797693 268.266699 
L 679.570189 352.692314 
L 679.956437 317.837667 
L 680.342686 360.133162 
L 681.501431 354.706496 
L 681.887679 314.631113 
L 682.660175 362.194841 
L 683.046424 346.976573 
L 684.205168 358.835525 
L 684.591417 351.569521 
L 684.977665 335.833864 
L 685.363913 343.011293 
L 685.750162 338.017908 
L 686.908906 349.870506 
L 687.295155 351.495931 
L 687.681403 343.788306 
L 688.067651 319.777197 
L 688.453899 347.927188 
L 689.998892 341.028222 
L 690.385141 359.094844 
L 690.771389 304.162015 
L 691.157637 362.639052 
L 692.316382 361.627681 
L 692.70263 357.382134 
L 693.088879 336.614688 
L 693.475127 348.004 
L 693.861375 329.054788 
L 695.02012 357.994568 
L 695.406368 343.25436 
L 695.792617 346.64158 
L 696.178865 322.241359 
L 696.565113 342.098573 
L 697.723858 362.65728 
L 698.110106 330.337831 
L 698.882603 348.264577 
L 699.268851 326.967117 
L 700.427596 360.746327 
L 700.813844 291.421526 
L 701.200092 366.132499 
L 701.586341 345.605667 
L 701.972589 314.024671 
L 703.131334 352.143266 
L 703.517582 335.393291 
L 703.90383 357.057483 
L 704.676327 297.558177 
L 705.835072 346.400039 
L 706.22132 368.886731 
L 706.607568 334.902908 
L 706.993816 285.253559 
L 707.380065 361.211293 
L 708.538809 347.054688 
L 708.925058 326.519034 
L 709.311306 322.785543 
L 709.697554 313.39075 
L 710.083802 366.682488 
L 711.242547 304.308238 
L 711.628796 365.444691 
L 712.015044 215.479015 
L 712.401292 278.925402 
L 712.78754 361.027723 
L 713.946285 326.450578 
L 714.332533 356.802024 
L 714.718782 347.181954 
L 715.10503 357.416465 
L 715.491278 298.543044 
L 716.650023 228.630274 
L 717.036271 367.654099 
L 717.42252 365.609869 
L 717.808768 312.654322 
L 718.195016 341.394583 
L 719.353761 343.3989 
L 719.740009 333.664525 
L 720.126257 298.485657 
L 720.512506 348.576403 
L 720.898754 340.917016 
L 722.057499 303.893634 
L 722.443747 359.599286 
L 723.216244 331.144331 
L 723.602492 334.709671 
L 724.761237 360.608969 
L 725.147485 341.822147 
L 725.533733 335.577851 
L 725.919982 349.477288 
L 726.30623 338.42385 
L 727.851223 249.572392 
L 728.237471 354.413158 
L 728.623719 354.601342 
L 729.009968 245.133705 
L 730.168713 318.2339 
L 730.554961 360.142569 
L 731.327457 303.707003 
L 731.713706 315.666955 
L 732.87245 357.845327 
L 733.258699 345.38151 
L 733.644947 359.655203 
L 734.031195 324.724869 
L 734.417443 344.011421 
L 735.576188 340.899842 
L 735.962437 359.093662 
L 736.348685 357.628218 
L 736.734933 354.162807 
L 737.121181 343.018689 
L 738.279926 335.381797 
L 738.666174 347.624218 
L 739.052423 349.766785 
L 739.438671 367.728533 
L 739.824919 345.500154 
L 740.983664 294.706068 
L 741.369912 345.810586 
L 741.756161 321.551379 
L 742.142409 367.316993 
L 742.528657 345.090667 
L 743.687402 336.479476 
L 744.07365 359.656683 
L 744.459898 366.649779 
L 744.846147 329.30468 
L 745.232395 359.72717 
L 746.39114 355.974457 
L 746.777388 351.198174 
L 747.163636 327.327573 
L 747.163636 327.327573 
" clip-path="url(#pf8a88cc52e)" style="fill: none; stroke: #000000; stroke-width: 1.5; stroke-linecap: square"/>
   </g>
   <g id="line2d_18">
    <path d="M 138.436364 286.394295 
L 138.822612 291.789132 
L 139.20886 292.343095 
L 140.753853 295.262179 
L 141.140102 294.985708 
L 141.52635 288.572457 
L 141.912598 292.987245 
L 142.298846 289.53148 
L 143.457591 287.600274 
L 143.843839 286.092488 
L 144.230088 286.410454 
L 144.616336 296.553078 
L 145.002584 287.265161 
L 146.161329 288.644819 
L 146.547577 292.562061 
L 147.320074 296.428067 
L 147.706322 298.991459 
L 148.865067 307.904434 
L 149.251315 308.868987 
L 149.637563 306.653185 
L 150.023812 310.808401 
L 150.41006 310.141301 
L 151.568805 310.058957 
L 151.955053 311.180053 
L 152.341301 311.281277 
L 152.72755 309.188473 
L 153.113798 302.677832 
L 154.272543 304.176065 
L 154.658791 303.297969 
L 155.045039 298.240757 
L 155.431287 296.776732 
L 155.817536 301.039943 
L 156.976281 304.099268 
L 157.362529 305.510399 
L 157.748777 309.464454 
L 158.135025 311.316593 
L 158.521274 311.101981 
L 160.066267 310.750885 
L 160.838763 313.104792 
L 161.225012 312.012473 
L 162.383756 313.199008 
L 162.770005 311.731041 
L 163.156253 302.879465 
L 163.542501 301.487349 
L 163.928749 276.412019 
L 165.473743 274.667823 
L 165.859991 277.421961 
L 166.246239 281.02365 
L 166.632487 282.75605 
L 167.791232 289.507846 
L 168.563729 299.702315 
L 168.949977 301.28992 
L 169.336225 301.255356 
L 170.49497 300.260325 
L 170.881218 296.447275 
L 171.267467 299.582799 
L 171.653715 267.176324 
L 172.039963 265.349619 
L 173.198708 271.776079 
L 173.584956 279.964046 
L 173.971204 280.661759 
L 174.357453 280.635748 
L 174.743701 276.814423 
L 175.902446 276.618207 
L 176.288694 272.885534 
L 176.674942 273.046623 
L 177.061191 272.278728 
L 177.447439 281.013667 
L 178.992432 286.038955 
L 179.764928 290.724546 
L 180.151177 292.761542 
L 181.309922 297.435853 
L 181.69617 297.041151 
L 182.082418 298.035468 
L 182.468666 297.828952 
L 182.854915 298.94369 
L 184.013659 300.706413 
L 184.399908 296.600916 
L 184.786156 296.092972 
L 185.172404 279.861251 
L 185.558653 276.016421 
L 186.717397 281.516018 
L 187.103646 280.54692 
L 187.489894 285.323417 
L 187.876142 294.795226 
L 188.26239 294.614663 
L 189.807383 296.891745 
L 190.193632 298.938368 
L 190.966128 307.070025 
L 192.124873 306.280868 
L 192.511121 306.75618 
L 192.89737 307.013912 
L 193.283618 306.742064 
L 193.669866 306.902161 
L 194.828611 307.621656 
L 195.214859 305.332779 
L 195.601108 305.725406 
L 196.373604 304.134668 
L 197.918597 305.203053 
L 198.304845 307.214035 
L 198.691094 307.705037 
L 199.077342 304.345192 
L 200.236087 299.551544 
L 200.622335 301.919658 
L 201.008583 301.519383 
L 201.394832 300.259724 
L 201.78108 302.851209 
L 202.939825 299.672825 
L 203.326073 293.472932 
L 203.712321 293.94911 
L 204.098569 294.150105 
L 204.484818 297.65917 
L 205.643563 302.732117 
L 206.029811 301.904723 
L 206.416059 299.697465 
L 206.802307 300.223479 
L 208.3473 304.897035 
L 208.733549 309.495315 
L 209.119797 306.159743 
L 209.506045 305.942452 
L 211.051038 305.80704 
L 211.437287 301.703006 
L 211.823535 294.534409 
L 212.209783 290.453035 
L 212.596031 290.789525 
L 213.754776 302.308612 
L 214.141024 297.389317 
L 214.527273 296.049333 
L 215.299769 298.834922 
L 217.231011 297.460093 
L 218.003507 295.959486 
L 219.162252 295.802453 
L 219.5485 295.590971 
L 219.934749 295.672867 
L 220.320997 281.22624 
L 220.707245 279.341027 
L 221.86599 282.147189 
L 222.252238 282.004813 
L 222.638486 293.205895 
L 223.024735 296.312323 
L 223.410983 295.227263 
L 224.569728 299.989907 
L 224.955976 300.928873 
L 225.728473 298.611688 
L 226.114721 299.157367 
L 227.659714 300.114332 
L 228.045962 299.204542 
L 228.43221 294.757096 
L 228.818459 275.442419 
L 229.977204 266.015525 
L 230.363452 272.286122 
L 230.7497 271.32148 
L 231.135948 273.540749 
L 231.522197 258.673865 
L 232.680941 254.993271 
L 233.453438 274.164443 
L 234.225934 256.198924 
L 235.384679 261.677916 
L 235.770928 264.578312 
L 236.157176 265.463318 
L 236.929672 270.195716 
L 238.088417 271.868359 
L 238.474665 279.396208 
L 238.860914 279.515022 
L 239.247162 284.674193 
L 239.63341 283.045338 
L 240.792155 284.564508 
L 241.178403 291.352119 
L 241.564652 286.945481 
L 241.9509 289.482976 
L 242.337148 291.017406 
L 243.495893 297.533566 
L 243.882141 294.21805 
L 244.268389 294.760751 
L 244.654638 299.818561 
L 246.199631 303.351708 
L 246.585879 307.739902 
L 246.972127 307.009167 
L 247.358376 297.911993 
L 247.744624 299.960904 
L 248.903369 305.043783 
L 249.675865 310.165515 
L 250.062114 308.328044 
L 250.448362 308.71741 
L 251.607107 312.278169 
L 251.993355 310.356221 
L 252.379603 298.314588 
L 252.765851 297.215779 
L 253.1521 298.717186 
L 254.310844 297.777402 
L 254.697093 295.427371 
L 255.083341 296.71382 
L 255.469589 300.168779 
L 255.855838 299.824862 
L 257.014582 302.845875 
L 257.400831 301.857393 
L 257.787079 298.063596 
L 258.173327 297.294331 
L 258.559575 281.538693 
L 259.71832 280.414384 
L 260.104569 278.058084 
L 260.490817 279.403351 
L 260.877065 264.979094 
L 261.263313 264.244441 
L 262.422058 294.623058 
L 262.808306 294.678087 
L 263.194555 295.288814 
L 263.580803 295.179536 
L 263.967051 298.297906 
L 265.125796 303.036716 
L 265.512044 308.042584 
L 265.898293 308.434614 
L 266.284541 308.308648 
L 266.670789 308.341014 
L 268.215782 309.091214 
L 268.60203 308.187803 
L 268.988279 310.118199 
L 269.374527 309.46314 
L 270.533272 308.498733 
L 270.91952 308.77203 
L 271.692017 306.604347 
L 272.078265 301.806363 
L 273.23701 307.172142 
L 273.623258 306.746197 
L 274.009506 304.982901 
L 274.395754 305.342135 
L 274.782003 304.84811 
L 275.940748 295.525197 
L 276.326996 298.476277 
L 276.713244 305.414559 
L 277.099492 307.624932 
L 277.485741 311.277428 
L 278.644485 314.384164 
L 279.416982 316.844017 
L 279.80323 318.066857 
L 280.189479 318.057438 
L 281.734472 318.289174 
L 282.12072 317.045429 
L 282.506968 316.85506 
L 282.893216 314.743126 
L 284.43821 309.143529 
L 284.824458 307.613906 
L 285.210706 306.870422 
L 285.596954 307.377297 
L 286.755699 301.639215 
L 287.141947 298.959431 
L 287.528196 293.829878 
L 287.914444 302.522507 
L 288.300692 306.292022 
L 289.459437 307.089144 
L 289.845685 306.79752 
L 290.231934 301.915531 
L 291.00443 300.36493 
L 292.163175 301.721106 
L 292.935671 309.130239 
L 293.32192 311.898037 
L 293.708168 308.6685 
L 294.866913 308.6082 
L 295.253161 309.01345 
L 295.639409 307.038743 
L 296.025658 306.820939 
L 296.411906 310.021424 
L 297.570651 311.517937 
L 297.956899 305.874913 
L 298.343147 298.011389 
L 298.729395 297.818076 
L 299.115644 292.968461 
L 300.274389 294.964861 
L 301.046885 302.680609 
L 301.433133 302.468093 
L 301.819382 300.599314 
L 302.978126 301.647556 
L 303.364375 309.169704 
L 303.750623 312.102842 
L 304.136871 313.144012 
L 304.52312 313.06379 
L 306.068113 313.258158 
L 306.454361 312.088301 
L 306.840609 314.290124 
L 308.385602 312.459334 
L 308.77185 302.927193 
L 309.158099 306.312404 
L 309.544347 306.93587 
L 309.930595 306.884225 
L 311.08934 304.089596 
L 311.475588 288.297895 
L 311.861837 289.258407 
L 312.248085 294.973873 
L 312.634333 302.928755 
L 313.793078 305.61934 
L 314.179326 304.263516 
L 314.565575 299.454375 
L 314.951823 300.770153 
L 315.338071 304.265846 
L 316.496816 308.855402 
L 316.883064 307.837923 
L 317.269312 306.029366 
L 318.041809 313.203204 
L 319.200554 311.280498 
L 319.586802 312.575646 
L 319.97305 312.296003 
L 320.359299 311.59723 
L 320.745547 312.59388 
L 321.904292 313.617123 
L 322.29054 312.559248 
L 323.449285 316.568821 
L 324.60803 316.48495 
L 324.994278 316.048096 
L 325.380526 314.228654 
L 325.766774 311.488199 
L 326.153023 305.250517 
L 327.311767 306.489654 
L 327.698016 309.40671 
L 328.084264 309.27731 
L 328.470512 311.881907 
L 328.85676 309.579613 
L 330.015505 311.323286 
L 330.401754 310.068489 
L 330.788002 309.513325 
L 331.17425 302.831263 
L 331.560498 301.386094 
L 332.719243 305.777132 
L 333.105491 305.538312 
L 333.49174 308.255485 
L 333.877988 309.629126 
L 334.264236 310.315243 
L 335.422981 309.811913 
L 335.809229 309.893326 
L 336.195478 303.672998 
L 336.967974 306.554505 
L 338.126719 290.456679 
L 338.512967 299.078741 
L 338.899216 281.670966 
L 339.285464 273.430509 
L 339.671712 277.362748 
L 340.830457 273.21518 
L 341.216705 275.657118 
L 341.989202 304.707069 
L 342.37545 303.270053 
L 343.534195 305.67327 
L 343.920443 301.477933 
L 344.306691 299.614 
L 344.69294 299.423491 
L 345.079188 295.484335 
L 346.237933 296.533738 
L 346.624181 286.256109 
L 347.010429 286.578303 
L 347.396677 295.797908 
L 348.941671 303.242671 
L 349.327919 304.120997 
L 350.100415 309.289978 
L 350.486664 310.650786 
L 351.645408 311.792772 
L 352.031657 312.46898 
L 352.417905 311.564333 
L 352.804153 304.570454 
L 353.190401 303.796139 
L 354.349146 305.472058 
L 355.121643 297.019697 
L 355.507891 302.235913 
L 355.894139 298.30671 
L 357.439132 297.919575 
L 357.825381 293.083518 
L 358.211629 285.761812 
L 358.597877 284.348173 
L 359.756622 276.932317 
L 360.14287 277.963017 
L 360.529119 270.344958 
L 361.301615 280.317047 
L 363.619105 301.599984 
L 364.005353 298.704748 
L 365.164098 300.760785 
L 365.550346 303.283575 
L 365.936594 303.992827 
L 366.322843 304.214974 
L 366.709091 304.664493 
L 368.254084 294.699224 
L 368.640332 291.605428 
L 369.026581 295.488495 
L 369.412829 239.111415 
L 370.957822 229.661795 
L 371.34407 237.651461 
L 371.730318 227.901859 
L 372.116567 233.009996 
L 373.275311 239.317964 
L 373.66156 245.121447 
L 374.047808 233.254588 
L 374.820305 240.907361 
L 375.979049 235.538947 
L 376.365298 227.570197 
L 376.751546 222.573904 
L 377.137794 247.977335 
L 377.524042 244.771665 
L 378.682787 249.22116 
L 379.069036 241.87493 
L 379.455284 245.8621 
L 379.841532 255.583494 
L 380.22778 261.240766 
L 381.386525 270.877984 
L 381.772773 279.189411 
L 382.159022 280.169535 
L 382.931518 284.225125 
L 384.86276 293.331649 
L 385.249008 296.127771 
L 385.635256 295.659328 
L 386.794001 303.521492 
L 387.180249 308.516822 
L 387.566497 301.130554 
L 387.952746 297.354368 
L 388.338994 300.237187 
L 389.497739 302.738559 
L 389.883987 297.546278 
L 390.270235 299.306051 
L 390.656484 299.086908 
L 392.201477 301.390947 
L 392.587725 303.525058 
L 392.973973 304.080574 
L 393.360222 306.807548 
L 393.74647 300.170654 
L 394.905215 288.980742 
L 395.291463 287.885737 
L 395.677711 273.255883 
L 396.063959 271.226452 
L 396.450208 278.953647 
L 397.608952 276.834853 
L 397.995201 276.938332 
L 398.381449 281.173247 
L 398.767697 286.809767 
L 399.153946 275.947846 
L 400.31269 274.396143 
L 400.698939 255.033302 
L 401.085187 258.190665 
L 401.471435 256.859478 
L 401.857683 265.464981 
L 403.016428 264.107924 
L 403.402677 270.274457 
L 403.788925 272.224377 
L 404.175173 270.788761 
L 404.561421 272.686263 
L 405.720166 275.357414 
L 406.106414 277.051711 
L 406.492663 283.760817 
L 406.878911 281.167573 
L 407.265159 280.788262 
L 408.810152 275.980465 
L 409.196401 272.121528 
L 409.582649 260.758752 
L 409.968897 263.881563 
L 411.127642 267.322057 
L 411.51389 270.176881 
L 411.900138 278.002822 
L 412.286387 280.226609 
L 412.672635 271.250782 
L 413.83138 266.058483 
L 414.217628 244.892282 
L 414.990125 247.669433 
L 415.376373 234.413867 
L 416.921366 233.496922 
L 417.693862 257.354103 
L 418.080111 259.601244 
L 419.238856 261.379012 
L 419.625104 267.765765 
L 420.011352 269.230706 
L 420.3976 261.835014 
L 420.783849 263.688279 
L 422.328842 264.789693 
L 422.71509 264.838474 
L 423.101338 266.251239 
L 423.487587 270.778886 
L 424.646331 274.263266 
L 425.03258 271.927366 
L 425.418828 270.937226 
L 426.191324 284.062322 
L 427.736317 293.129009 
L 428.122566 290.602638 
L 428.508814 291.77495 
L 428.895062 289.168005 
L 430.053807 288.235943 
L 430.440055 289.89304 
L 430.826304 290.266799 
L 431.212552 302.559759 
L 431.5988 295.166193 
L 432.757545 296.847269 
L 433.143793 298.78382 
L 433.530042 299.874157 
L 434.302538 298.845577 
L 435.847531 302.078871 
L 436.233779 303.897575 
L 436.620028 303.277065 
L 437.006276 304.146088 
L 438.165021 299.878051 
L 438.551269 302.615633 
L 438.937517 303.106844 
L 439.323766 303.40232 
L 439.710014 305.923829 
L 440.868759 299.042773 
L 441.641255 296.743575 
L 442.027503 296.186972 
L 442.413752 296.825293 
L 443.958745 287.438595 
L 444.344993 279.455869 
L 444.731241 279.550565 
L 445.11749 274.483451 
L 446.662483 280.116017 
L 447.434979 279.777212 
L 447.821228 281.527181 
L 448.979972 283.870982 
L 449.366221 285.36923 
L 449.752469 287.42664 
L 450.138717 285.545827 
L 450.524965 277.095293 
L 451.68371 284.402369 
L 452.069958 284.226737 
L 452.456207 279.898792 
L 452.842455 279.393676 
L 453.228703 273.661038 
L 454.387448 274.0305 
L 454.773696 272.833916 
L 455.159945 272.665326 
L 455.546193 277.505253 
L 455.932441 264.908817 
L 457.091186 267.062724 
L 457.477434 272.454766 
L 457.863683 275.470751 
L 458.249931 271.260392 
L 458.636179 274.208386 
L 459.794924 268.776686 
L 460.181172 272.015442 
L 460.56742 270.588976 
L 460.953669 259.251205 
L 461.339917 269.943234 
L 462.498662 249.831394 
L 462.88491 251.364645 
L 464.043655 263.980868 
L 465.2024 264.14634 
L 465.588648 270.652961 
L 465.974896 271.332762 
L 466.747393 287.959374 
L 467.906138 290.243031 
L 468.292386 294.885819 
L 468.678634 297.986695 
L 469.064882 292.222755 
L 469.451131 294.230912 
L 470.609875 292.618774 
L 470.996124 296.596693 
L 471.382372 290.952713 
L 471.76862 288.586992 
L 472.154868 335.470537 
L 473.313613 289.12264 
L 473.699862 287.203995 
L 474.08611 275.999679 
L 474.858606 270.233084 
L 476.403599 281.51502 
L 476.789848 289.349795 
L 477.562344 297.999958 
L 478.721089 293.295959 
L 479.107337 293.947587 
L 479.493586 295.432937 
L 479.879834 304.309335 
L 480.266082 296.746609 
L 481.424827 297.124385 
L 481.811075 286.036097 
L 482.197323 279.941278 
L 482.583572 282.676142 
L 482.96982 283.948681 
L 484.128565 285.394483 
L 484.514813 283.071394 
L 484.901061 290.056884 
L 485.28731 280.642843 
L 485.673558 274.224339 
L 486.832303 273.42918 
L 487.218551 268.648881 
L 487.991048 283.540546 
L 488.377296 281.277921 
L 489.922289 286.377843 
L 490.308537 278.461023 
L 491.081034 287.301245 
L 492.626027 292.403882 
L 493.012275 292.81879 
L 493.784772 287.328877 
L 494.943516 289.383892 
L 495.329765 291.444534 
L 495.716013 296.064025 
L 496.102261 294.094846 
L 496.488509 295.216796 
L 498.033503 301.540147 
L 498.805999 306.011071 
L 499.192247 306.618042 
L 500.350992 305.17769 
L 500.73724 302.265292 
L 501.123489 302.761482 
L 501.509737 302.971304 
L 501.895985 302.925986 
L 503.05473 305.283884 
L 503.440978 302.453672 
L 503.827227 301.7172 
L 504.599723 306.702391 
L 505.758468 305.759635 
L 506.144716 299.935884 
L 506.530964 302.473896 
L 506.917213 296.110188 
L 507.303461 299.67645 
L 508.462206 301.835354 
L 509.234702 307.397022 
L 509.620951 310.663448 
L 510.007199 307.422707 
L 511.552192 286.279121 
L 511.93844 272.837452 
L 512.324689 272.362106 
L 512.710937 274.241418 
L 513.869682 275.401814 
L 514.25593 275.330023 
L 515.028426 279.086174 
L 515.414675 281.146206 
L 516.573419 284.610793 
L 516.959668 287.637063 
L 517.345916 284.190549 
L 517.732164 284.92095 
L 518.118413 270.389869 
L 519.277157 255.041978 
L 519.663406 254.010874 
L 520.049654 261.289861 
L 520.435902 252.565374 
L 520.82215 260.828907 
L 521.980895 258.410447 
L 522.367144 259.176311 
L 522.753392 267.434053 
L 523.13964 267.067219 
L 523.525888 271.663725 
L 524.684633 276.87323 
L 525.070881 283.499146 
L 525.45713 287.60238 
L 526.229626 290.214007 
L 527.388371 293.267927 
L 527.774619 298.124171 
L 528.160868 295.932307 
L 528.547116 286.279336 
L 530.092109 288.37189 
L 530.478357 289.459709 
L 530.864605 291.526741 
L 531.250854 294.442651 
L 531.637102 298.342845 
L 532.795847 302.917726 
L 533.182095 305.570392 
L 533.954592 308.670656 
L 534.34084 300.835096 
L 535.499585 282.471704 
L 535.885833 281.998647 
L 536.272081 272.342725 
L 536.658329 270.066779 
L 537.044578 276.377652 
L 538.203323 285.340765 
L 538.589571 283.945712 
L 538.975819 281.048464 
L 539.362067 283.130702 
L 539.748316 284.19639 
L 540.90706 285.313694 
L 541.293309 289.374414 
L 541.679557 285.429007 
L 542.452054 290.450951 
L 543.610798 290.75099 
L 543.997047 289.420794 
L 544.383295 290.944647 
L 544.769543 293.821179 
L 545.155791 299.780873 
L 546.314536 296.072769 
L 546.700784 297.195179 
L 547.859529 283.270011 
L 549.404522 288.788646 
L 549.790771 290.778691 
L 550.177019 283.544034 
L 550.563267 287.508908 
L 551.722012 291.392921 
L 552.10826 297.32888 
L 552.494509 298.727456 
L 553.267005 304.877095 
L 554.42575 308.112829 
L 554.811998 307.221435 
L 555.198246 304.435982 
L 555.584495 306.053952 
L 555.970743 306.198428 
L 557.515736 306.108715 
L 557.901984 307.695965 
L 558.288233 308.544541 
L 558.674481 308.845935 
L 560.219474 304.015299 
L 560.605722 305.463332 
L 560.99197 300.524838 
L 561.378219 302.556548 
L 562.536964 302.372286 
L 563.30946 301.143154 
L 563.695708 304.554498 
L 564.081957 304.170447 
L 565.240701 300.668292 
L 566.013198 306.229611 
L 566.399446 307.301913 
L 566.785695 308.950484 
L 567.944439 307.630104 
L 568.330688 309.123135 
L 568.716936 312.139529 
L 569.103184 310.305737 
L 569.489432 304.550663 
L 570.648177 299.922061 
L 571.034425 296.959427 
L 571.420674 298.377605 
L 571.806922 299.212776 
L 572.19317 298.029929 
L 573.351915 299.306496 
L 573.738163 301.08214 
L 574.124412 298.762695 
L 574.51066 293.405298 
L 574.896908 290.419499 
L 576.055653 295.049628 
L 576.441901 294.902506 
L 576.82815 298.031902 
L 577.214398 298.675679 
L 577.600646 300.502414 
L 578.759391 299.469671 
L 579.145639 301.153349 
L 579.531887 301.710376 
L 579.918136 299.447799 
L 581.463129 305.011964 
L 581.849377 304.945844 
L 582.235625 308.454972 
L 583.008122 309.911074 
L 584.166867 312.075224 
L 584.553115 315.916662 
L 584.939363 314.38987 
L 585.325611 317.366194 
L 585.71186 321.99192 
L 587.256853 325.128555 
L 587.643101 327.042918 
L 588.029349 318.70751 
L 588.415598 317.820709 
L 589.574342 316.872414 
L 589.960591 317.808032 
L 590.346839 316.971198 
L 590.733087 319.759494 
L 591.119335 323.785253 
L 592.27808 324.452607 
L 592.664329 322.847022 
L 593.050577 322.777055 
L 593.436825 317.311203 
L 593.823073 309.647692 
L 594.981818 309.890934 
L 595.368066 311.342359 
L 595.754315 306.770816 
L 596.140563 306.576206 
L 596.526811 302.906011 
L 597.685556 302.351552 
L 598.458053 288.165556 
L 598.844301 288.671827 
L 599.230549 288.430269 
L 600.389294 289.360704 
L 601.16179 285.979238 
L 601.548039 290.542852 
L 601.934287 290.216889 
L 603.093032 279.807273 
L 603.47928 279.07212 
L 603.865528 284.017868 
L 604.251777 264.90839 
L 604.638025 251.528134 
L 605.79677 238.848425 
L 606.183018 240.129671 
L 606.569266 251.250325 
L 606.955515 248.924059 
L 607.341763 252.243135 
L 608.500508 255.215558 
L 608.886756 249.320822 
L 609.273004 258.989232 
L 609.659252 263.450251 
L 610.045501 274.276788 
L 611.204246 280.192852 
L 611.590494 274.707942 
L 611.976742 278.069943 
L 612.36299 277.396306 
L 612.749239 274.593607 
L 613.907983 277.162778 
L 614.294232 277.731858 
L 614.68048 271.510069 
L 615.066728 274.14373 
L 615.452976 269.686139 
L 616.611721 271.115391 
L 616.99797 275.390454 
L 617.384218 272.868512 
L 618.156714 280.005197 
L 619.315459 284.515521 
L 619.701707 277.101624 
L 620.087956 277.543463 
L 620.474204 279.55517 
L 620.860452 282.259457 
L 622.019197 283.663806 
L 622.405445 279.266652 
L 622.791694 269.039982 
L 623.177942 267.197393 
L 623.56419 263.756744 
L 624.722935 266.515436 
L 625.109183 268.455427 
L 625.495431 274.240615 
L 625.88168 267.234349 
L 626.267928 267.127707 
L 627.426673 273.539447 
L 628.199169 276.91844 
L 628.585418 267.584152 
L 628.971666 267.552273 
L 630.516659 270.237934 
L 630.902907 275.75469 
L 631.289156 276.685501 
L 631.675404 286.864026 
L 633.220397 282.820092 
L 633.606645 285.232943 
L 633.992893 277.445541 
L 634.379142 272.72797 
L 635.537886 280.992823 
L 635.924135 286.503893 
L 636.310383 285.52678 
L 636.696631 290.464183 
L 637.08288 287.573884 
L 638.627873 286.541264 
L 639.014121 289.425432 
L 639.400369 280.989947 
L 639.786617 279.724196 
L 640.945362 281.79236 
L 641.331611 281.860451 
L 641.717859 286.785536 
L 642.104107 289.174497 
L 642.490355 285.449795 
L 643.6491 287.914973 
L 644.035348 289.943025 
L 644.421597 287.67966 
L 644.807845 277.902741 
L 645.194093 278.108735 
L 646.352838 278.238915 
L 646.739086 274.779709 
L 647.125335 276.590891 
L 647.511583 282.157991 
L 647.897831 285.238432 
L 649.056576 288.730909 
L 649.442824 285.803015 
L 649.829072 270.431537 
L 650.215321 270.744355 
L 650.601569 277.863865 
L 652.146562 278.168282 
L 652.53281 264.148774 
L 652.919059 262.148602 
L 653.305307 268.052141 
L 654.464052 273.859808 
L 654.8503 280.914476 
L 655.236548 278.896572 
L 655.622796 279.393192 
L 657.16779 283.586598 
L 657.554038 274.441365 
L 657.940286 232.968301 
L 658.326534 223.822044 
L 658.712783 226.951939 
L 659.871527 224.079931 
L 660.257776 221.159347 
L 660.644024 228.06054 
L 661.030272 240.887412 
L 661.416521 237.550016 
L 662.575265 242.128863 
L 662.961514 246.637162 
L 663.347762 246.55889 
L 663.73401 252.021086 
L 664.120258 261.278199 
L 665.665251 258.642469 
L 666.0515 263.637518 
L 666.437748 261.72937 
L 667.982741 264.864685 
L 668.368989 262.847581 
L 668.755238 260.161 
L 669.141486 264.255006 
L 669.527734 250.3983 
L 670.686479 249.986543 
L 671.072727 249.564787 
L 671.458976 252.29957 
L 672.231472 256.415116 
L 673.390217 239.625589 
L 673.776465 236.482264 
L 674.162713 228.36048 
L 674.548962 252.991821 
L 674.93521 255.795723 
L 676.093955 265.609209 
L 676.866451 284.72129 
L 677.2527 289.165532 
L 677.638948 291.998643 
L 678.797693 296.672196 
L 679.183941 293.576626 
L 679.570189 288.28482 
L 679.956437 289.086813 
L 680.342686 287.884976 
L 681.501431 292.501161 
L 682.273927 299.580598 
L 682.660175 300.673817 
L 683.046424 302.672815 
L 684.205168 300.353576 
L 684.591417 301.387719 
L 684.977665 299.991609 
L 685.363913 292.040512 
L 685.750162 296.967986 
L 686.908906 299.067628 
L 687.295155 301.159537 
L 687.681403 298.512522 
L 688.067651 301.286145 
L 688.453899 297.097909 
L 689.998892 298.891238 
L 690.385141 303.075661 
L 690.771389 297.532231 
L 691.157637 298.72278 
L 692.316382 301.060346 
L 692.70263 301.546382 
L 693.088879 298.605438 
L 693.475127 301.983063 
L 693.861375 303.453864 
L 695.02012 299.851858 
L 695.406368 300.658013 
L 695.792617 303.625398 
L 696.178865 305.167698 
L 696.565113 301.532639 
L 697.723858 295.563932 
L 698.110106 291.181495 
L 698.882603 292.054052 
L 699.268851 281.788203 
L 700.427596 283.777498 
L 700.813844 285.037641 
L 701.972589 273.825623 
L 703.517582 281.370007 
L 703.90383 284.936431 
L 705.835072 285.216151 
L 706.22132 287.404912 
L 706.607568 272.67585 
L 706.993816 267.228609 
L 707.380065 269.027039 
L 708.538809 278.157379 
L 708.925058 275.565483 
L 709.311306 276.102507 
L 709.697554 271.750686 
L 710.083802 270.574597 
L 711.242547 266.564725 
L 712.015044 274.02201 
L 712.401292 273.732151 
L 712.78754 274.889194 
L 713.946285 280.985876 
L 714.718782 290.720341 
L 715.10503 293.680589 
L 715.491278 295.405881 
L 716.650023 274.575833 
L 717.036271 248.571643 
L 717.42252 233.230393 
L 717.808768 279.845465 
L 718.195016 284.268346 
L 719.353761 303.465567 
L 719.740009 295.06355 
L 720.126257 298.268172 
L 720.898754 299.239118 
L 722.057499 304.678801 
L 722.443747 303.908009 
L 722.829995 305.130306 
L 723.602492 299.236299 
L 724.761237 295.970425 
L 725.147485 295.829429 
L 725.533733 299.809987 
L 725.919982 298.844323 
L 726.30623 296.117313 
L 727.851223 297.842835 
L 728.237471 279.71418 
L 728.623719 279.035998 
L 729.009968 275.290914 
L 730.168713 249.195862 
L 730.554961 250.910314 
L 730.941209 269.097896 
L 731.327457 258.597492 
L 731.713706 259.914605 
L 732.87245 264.360489 
L 733.644947 274.422252 
L 734.031195 270.898132 
L 734.417443 274.342508 
L 735.576188 270.77371 
L 735.962437 271.560511 
L 736.348685 276.949384 
L 737.121181 266.500438 
L 738.279926 270.586826 
L 738.666174 268.859088 
L 739.438671 272.105223 
L 739.824919 277.894275 
L 740.983664 266.396455 
L 741.369912 266.530932 
L 741.756161 255.978572 
L 742.528657 265.237961 
L 743.687402 268.891997 
L 744.07365 268.361895 
L 744.459898 265.938523 
L 744.846147 266.978211 
L 745.232395 266.549865 
L 746.39114 282.807304 
L 746.777388 284.738823 
L 747.163636 284.29522 
L 747.163636 284.29522 
" clip-path="url(#pf8a88cc52e)" style="fill: none; stroke: #1f77b4; stroke-width: 1.5; stroke-linecap: square"/>
   </g>
   <g id="patch_3">
    <path d="M 108 384.48 
L 108 51.84 
" style="fill: none; stroke: #000000; stroke-width: 0.8; stroke-linejoin: miter; stroke-linecap: square"/>
   </g>
   <g id="patch_4">
    <path d="M 777.6 384.48 
L 777.6 51.84 
" style="fill: none; stroke: #000000; stroke-width: 0.8; stroke-linejoin: miter; stroke-linecap: square"/>
   </g>
   <g id="patch_5">
    <path d="M 108 384.48 
L 777.6 384.48 
" style="fill: none; stroke: #000000; stroke-width: 0.8; stroke-linejoin: miter; stroke-linecap: square"/>
   </g>
   <g id="patch_6">
    <path d="M 108 51.84 
L 777.6 51.84 
" style="fill: none; stroke: #000000; stroke-width: 0.8; stroke-linejoin: miter; stroke-linecap: square"/>
   </g>
   <g id="text_19">
    <!-- Volatility Prediction with LSTM MDN v2 -->
    <g transform="translate(327.174375 45.84) scale(0.12 -0.12)">
     <defs>
      <path id="DejaVuSans-20" transform="scale(0.015625)"/>
      <path id="DejaVuSans-50" d="M 1259 4147 
L 1259 2394 
L 2053 2394 
Q 2494 2394 2734 2622 
Q 2975 2850 2975 3272 
Q 2975 3691 2734 3919 
Q 2494 4147 2053 4147 
L 1259 4147 
z
M 628 4666 
L 2053 4666 
Q 2838 4666 3239 4311 
Q 3641 3956 3641 3272 
Q 3641 2581 3239 2228 
Q 2838 1875 2053 1875 
L 1259 1875 
L 1259 0 
L 628 0 
L 628 4666 
z
" transform="scale(0.015625)"/>
      <path id="DejaVuSans-72" d="M 2631 2963 
Q 2534 3019 2420 3045 
Q 2306 3072 2169 3072 
Q 1681 3072 1420 2755 
Q 1159 2438 1159 1844 
L 1159 0 
L 581 0 
L 581 3500 
L 1159 3500 
L 1159 2956 
Q 1341 3275 1631 3429 
Q 1922 3584 2338 3584 
Q 2397 3584 2469 3576 
Q 2541 3569 2628 3553 
L 2631 2963 
z
" transform="scale(0.015625)"/>
      <path id="DejaVuSans-64" d="M 2906 2969 
L 2906 4863 
L 3481 4863 
L 3481 0 
L 2906 0 
L 2906 525 
Q 2725 213 2448 61 
Q 2172 -91 1784 -91 
Q 1150 -91 751 415 
Q 353 922 353 1747 
Q 353 2572 751 3078 
Q 1150 3584 1784 3584 
Q 2172 3584 2448 3432 
Q 2725 3281 2906 2969 
z
M 947 1747 
Q 947 1113 1208 752 
Q 1469 391 1925 391 
Q 2381 391 2643 752 
Q 2906 1113 2906 1747 
Q 2906 2381 2643 2742 
Q 2381 3103 1925 3103 
Q 1469 3103 1208 2742 
Q 947 2381 947 1747 
z
" transform="scale(0.015625)"/>
      <path id="DejaVuSans-63" d="M 3122 3366 
L 3122 2828 
Q 2878 2963 2633 3030 
Q 2388 3097 2138 3097 
Q 1578 3097 1268 2742 
Q 959 2388 959 1747 
Q 959 1106 1268 751 
Q 1578 397 2138 397 
Q 2388 397 2633 464 
Q 2878 531 3122 666 
L 3122 134 
Q 2881 22 2623 -34 
Q 2366 -91 2075 -91 
Q 1284 -91 818 406 
Q 353 903 353 1747 
Q 353 2603 823 3093 
Q 1294 3584 2113 3584 
Q 2378 3584 2631 3529 
Q 2884 3475 3122 3366 
z
" transform="scale(0.015625)"/>
      <path id="DejaVuSans-6e" d="M 3513 2113 
L 3513 0 
L 2938 0 
L 2938 2094 
Q 2938 2591 2744 2837 
Q 2550 3084 2163 3084 
Q 1697 3084 1428 2787 
Q 1159 2491 1159 1978 
L 1159 0 
L 581 0 
L 581 3500 
L 1159 3500 
L 1159 2956 
Q 1366 3272 1645 3428 
Q 1925 3584 2291 3584 
Q 2894 3584 3203 3211 
Q 3513 2838 3513 2113 
z
" transform="scale(0.015625)"/>
      <path id="DejaVuSans-77" d="M 269 3500 
L 844 3500 
L 1563 769 
L 2278 3500 
L 2956 3500 
L 3675 769 
L 4391 3500 
L 4966 3500 
L 4050 0 
L 3372 0 
L 2619 2869 
L 1863 0 
L 1184 0 
L 269 3500 
z
" transform="scale(0.015625)"/>
      <path id="DejaVuSans-68" d="M 3513 2113 
L 3513 0 
L 2938 0 
L 2938 2094 
Q 2938 2591 2744 2837 
Q 2550 3084 2163 3084 
Q 1697 3084 1428 2787 
Q 1159 2491 1159 1978 
L 1159 0 
L 581 0 
L 581 4863 
L 1159 4863 
L 1159 2956 
Q 1366 3272 1645 3428 
Q 1925 3584 2291 3584 
Q 2894 3584 3203 3211 
Q 3513 2838 3513 2113 
z
" transform="scale(0.015625)"/>
      <path id="DejaVuSans-4c" d="M 628 4666 
L 1259 4666 
L 1259 531 
L 3531 531 
L 3531 0 
L 628 0 
L 628 4666 
z
" transform="scale(0.015625)"/>
      <path id="DejaVuSans-53" d="M 3425 4513 
L 3425 3897 
Q 3066 4069 2747 4153 
Q 2428 4238 2131 4238 
Q 1616 4238 1336 4038 
Q 1056 3838 1056 3469 
Q 1056 3159 1242 3001 
Q 1428 2844 1947 2747 
L 2328 2669 
Q 3034 2534 3370 2195 
Q 3706 1856 3706 1288 
Q 3706 609 3251 259 
Q 2797 -91 1919 -91 
Q 1588 -91 1214 -16 
Q 841 59 441 206 
L 441 856 
Q 825 641 1194 531 
Q 1563 422 1919 422 
Q 2459 422 2753 634 
Q 3047 847 3047 1241 
Q 3047 1584 2836 1778 
Q 2625 1972 2144 2069 
L 1759 2144 
Q 1053 2284 737 2584 
Q 422 2884 422 3419 
Q 422 4038 858 4394 
Q 1294 4750 2059 4750 
Q 2388 4750 2728 4690 
Q 3069 4631 3425 4513 
z
" transform="scale(0.015625)"/>
      <path id="DejaVuSans-54" d="M -19 4666 
L 3928 4666 
L 3928 4134 
L 2272 4134 
L 2272 0 
L 1638 0 
L 1638 4134 
L -19 4134 
L -19 4666 
z
" transform="scale(0.015625)"/>
      <path id="DejaVuSans-4d" d="M 628 4666 
L 1569 4666 
L 2759 1491 
L 3956 4666 
L 4897 4666 
L 4897 0 
L 4281 0 
L 4281 4097 
L 3078 897 
L 2444 897 
L 1241 4097 
L 1241 0 
L 628 0 
L 628 4666 
z
" transform="scale(0.015625)"/>
      <path id="DejaVuSans-4e" d="M 628 4666 
L 1478 4666 
L 3547 763 
L 3547 4666 
L 4159 4666 
L 4159 0 
L 3309 0 
L 1241 3903 
L 1241 0 
L 628 0 
L 628 4666 
z
" transform="scale(0.015625)"/>
      <path id="DejaVuSans-76" d="M 191 3500 
L 800 3500 
L 1894 563 
L 2988 3500 
L 3597 3500 
L 2284 0 
L 1503 0 
L 191 3500 
z
" transform="scale(0.015625)"/>
     </defs>
     <use xlink:href="#DejaVuSans-56"/>
     <use xlink:href="#DejaVuSans-6f" transform="translate(60.658203 0)"/>
     <use xlink:href="#DejaVuSans-6c" transform="translate(121.839844 0)"/>
     <use xlink:href="#DejaVuSans-61" transform="translate(149.623047 0)"/>
     <use xlink:href="#DejaVuSans-74" transform="translate(210.902344 0)"/>
     <use xlink:href="#DejaVuSans-69" transform="translate(250.111328 0)"/>
     <use xlink:href="#DejaVuSans-6c" transform="translate(277.894531 0)"/>
     <use xlink:href="#DejaVuSans-69" transform="translate(305.677734 0)"/>
     <use xlink:href="#DejaVuSans-74" transform="translate(333.460938 0)"/>
     <use xlink:href="#DejaVuSans-79" transform="translate(372.669922 0)"/>
     <use xlink:href="#DejaVuSans-20" transform="translate(431.849609 0)"/>
     <use xlink:href="#DejaVuSans-50" transform="translate(463.636719 0)"/>
     <use xlink:href="#DejaVuSans-72" transform="translate(522.189453 0)"/>
     <use xlink:href="#DejaVuSans-65" transform="translate(561.052734 0)"/>
     <use xlink:href="#DejaVuSans-64" transform="translate(622.576172 0)"/>
     <use xlink:href="#DejaVuSans-69" transform="translate(686.052734 0)"/>
     <use xlink:href="#DejaVuSans-63" transform="translate(713.835938 0)"/>
     <use xlink:href="#DejaVuSans-74" transform="translate(768.816406 0)"/>
     <use xlink:href="#DejaVuSans-69" transform="translate(808.025391 0)"/>
     <use xlink:href="#DejaVuSans-6f" transform="translate(835.808594 0)"/>
     <use xlink:href="#DejaVuSans-6e" transform="translate(896.990234 0)"/>
     <use xlink:href="#DejaVuSans-20" transform="translate(960.369141 0)"/>
     <use xlink:href="#DejaVuSans-77" transform="translate(992.15625 0)"/>
     <use xlink:href="#DejaVuSans-69" transform="translate(1073.943359 0)"/>
     <use xlink:href="#DejaVuSans-74" transform="translate(1101.726562 0)"/>
     <use xlink:href="#DejaVuSans-68" transform="translate(1140.935547 0)"/>
     <use xlink:href="#DejaVuSans-20" transform="translate(1204.314453 0)"/>
     <use xlink:href="#DejaVuSans-4c" transform="translate(1236.101562 0)"/>
     <use xlink:href="#DejaVuSans-53" transform="translate(1291.814453 0)"/>
     <use xlink:href="#DejaVuSans-54" transform="translate(1355.291016 0)"/>
     <use xlink:href="#DejaVuSans-4d" transform="translate(1416.375 0)"/>
     <use xlink:href="#DejaVuSans-20" transform="translate(1502.654297 0)"/>
     <use xlink:href="#DejaVuSans-4d" transform="translate(1534.441406 0)"/>
     <use xlink:href="#DejaVuSans-44" transform="translate(1620.720703 0)"/>
     <use xlink:href="#DejaVuSans-4e" transform="translate(1697.722656 0)"/>
     <use xlink:href="#DejaVuSans-20" transform="translate(1772.527344 0)"/>
     <use xlink:href="#DejaVuSans-76" transform="translate(1804.314453 0)"/>
     <use xlink:href="#DejaVuSans-32" transform="translate(1863.494141 0)"/>
    </g>
   </g>
   <g id="legend_1">
    <g id="patch_7">
     <path d="M 115 89.19625 
L 315.317188 89.19625 
Q 317.317188 89.19625 317.317188 87.19625 
L 317.317188 58.84 
Q 317.317188 56.84 315.317188 56.84 
L 115 56.84 
Q 113 56.84 113 58.84 
L 113 87.19625 
Q 113 89.19625 115 89.19625 
z
" style="fill: #ffffff; opacity: 0.8; stroke: #cccccc; stroke-linejoin: miter"/>
    </g>
    <g id="line2d_19">
     <path d="M 117 64.938437 
L 127 64.938437 
L 137 64.938437 
" style="fill: none; stroke: #000000; stroke-width: 1.5; stroke-linecap: square"/>
    </g>
    <g id="text_20">
     <!-- Absolute Returns -->
     <g transform="translate(145 68.438437) scale(0.1 -0.1)">
      <defs>
       <path id="DejaVuSans-41" d="M 2188 4044 
L 1331 1722 
L 3047 1722 
L 2188 4044 
z
M 1831 4666 
L 2547 4666 
L 4325 0 
L 3669 0 
L 3244 1197 
L 1141 1197 
L 716 0 
L 50 0 
L 1831 4666 
z
" transform="scale(0.015625)"/>
       <path id="DejaVuSans-62" d="M 3116 1747 
Q 3116 2381 2855 2742 
Q 2594 3103 2138 3103 
Q 1681 3103 1420 2742 
Q 1159 2381 1159 1747 
Q 1159 1113 1420 752 
Q 1681 391 2138 391 
Q 2594 391 2855 752 
Q 3116 1113 3116 1747 
z
M 1159 2969 
Q 1341 3281 1617 3432 
Q 1894 3584 2278 3584 
Q 2916 3584 3314 3078 
Q 3713 2572 3713 1747 
Q 3713 922 3314 415 
Q 2916 -91 2278 -91 
Q 1894 -91 1617 61 
Q 1341 213 1159 525 
L 1159 0 
L 581 0 
L 581 4863 
L 1159 4863 
L 1159 2969 
z
" transform="scale(0.015625)"/>
       <path id="DejaVuSans-73" d="M 2834 3397 
L 2834 2853 
Q 2591 2978 2328 3040 
Q 2066 3103 1784 3103 
Q 1356 3103 1142 2972 
Q 928 2841 928 2578 
Q 928 2378 1081 2264 
Q 1234 2150 1697 2047 
L 1894 2003 
Q 2506 1872 2764 1633 
Q 3022 1394 3022 966 
Q 3022 478 2636 193 
Q 2250 -91 1575 -91 
Q 1294 -91 989 -36 
Q 684 19 347 128 
L 347 722 
Q 666 556 975 473 
Q 1284 391 1588 391 
Q 1994 391 2212 530 
Q 2431 669 2431 922 
Q 2431 1156 2273 1281 
Q 2116 1406 1581 1522 
L 1381 1569 
Q 847 1681 609 1914 
Q 372 2147 372 2553 
Q 372 3047 722 3315 
Q 1072 3584 1716 3584 
Q 2034 3584 2315 3537 
Q 2597 3491 2834 3397 
z
" transform="scale(0.015625)"/>
       <path id="DejaVuSans-75" d="M 544 1381 
L 544 3500 
L 1119 3500 
L 1119 1403 
Q 1119 906 1312 657 
Q 1506 409 1894 409 
Q 2359 409 2629 706 
Q 2900 1003 2900 1516 
L 2900 3500 
L 3475 3500 
L 3475 0 
L 2900 0 
L 2900 538 
Q 2691 219 2414 64 
Q 2138 -91 1772 -91 
Q 1169 -91 856 284 
Q 544 659 544 1381 
z
M 1991 3584 
L 1991 3584 
z
" transform="scale(0.015625)"/>
       <path id="DejaVuSans-52" d="M 2841 2188 
Q 3044 2119 3236 1894 
Q 3428 1669 3622 1275 
L 4263 0 
L 3584 0 
L 2988 1197 
Q 2756 1666 2539 1819 
Q 2322 1972 1947 1972 
L 1259 1972 
L 1259 0 
L 628 0 
L 628 4666 
L 2053 4666 
Q 2853 4666 3247 4331 
Q 3641 3997 3641 3322 
Q 3641 2881 3436 2590 
Q 3231 2300 2841 2188 
z
M 1259 4147 
L 1259 2491 
L 2053 2491 
Q 2509 2491 2742 2702 
Q 2975 2913 2975 3322 
Q 2975 3731 2742 3939 
Q 2509 4147 2053 4147 
L 1259 4147 
z
" transform="scale(0.015625)"/>
      </defs>
      <use xlink:href="#DejaVuSans-41"/>
      <use xlink:href="#DejaVuSans-62" transform="translate(68.408203 0)"/>
      <use xlink:href="#DejaVuSans-73" transform="translate(131.884766 0)"/>
      <use xlink:href="#DejaVuSans-6f" transform="translate(183.984375 0)"/>
      <use xlink:href="#DejaVuSans-6c" transform="translate(245.166016 0)"/>
      <use xlink:href="#DejaVuSans-75" transform="translate(272.949219 0)"/>
      <use xlink:href="#DejaVuSans-74" transform="translate(336.328125 0)"/>
      <use xlink:href="#DejaVuSans-65" transform="translate(375.537109 0)"/>
      <use xlink:href="#DejaVuSans-20" transform="translate(437.060547 0)"/>
      <use xlink:href="#DejaVuSans-52" transform="translate(468.847656 0)"/>
      <use xlink:href="#DejaVuSans-65" transform="translate(533.830078 0)"/>
      <use xlink:href="#DejaVuSans-74" transform="translate(595.353516 0)"/>
      <use xlink:href="#DejaVuSans-75" transform="translate(634.5625 0)"/>
      <use xlink:href="#DejaVuSans-72" transform="translate(697.941406 0)"/>
      <use xlink:href="#DejaVuSans-6e" transform="translate(737.304688 0)"/>
      <use xlink:href="#DejaVuSans-73" transform="translate(800.683594 0)"/>
     </g>
    </g>
    <g id="line2d_20">
     <path d="M 117 79.616562 
L 127 79.616562 
L 137 79.616562 
" style="fill: none; stroke: #1f77b4; stroke-width: 1.5; stroke-linecap: square"/>
    </g>
    <g id="text_21">
     <!-- LSTM MDN v2 Volatility Prediction -->
     <g transform="translate(145 83.116562) scale(0.1 -0.1)">
      <use xlink:href="#DejaVuSans-4c"/>
      <use xlink:href="#DejaVuSans-53" transform="translate(55.712891 0)"/>
      <use xlink:href="#DejaVuSans-54" transform="translate(119.189453 0)"/>
      <use xlink:href="#DejaVuSans-4d" transform="translate(180.273438 0)"/>
      <use xlink:href="#DejaVuSans-20" transform="translate(266.552734 0)"/>
      <use xlink:href="#DejaVuSans-4d" transform="translate(298.339844 0)"/>
      <use xlink:href="#DejaVuSans-44" transform="translate(384.619141 0)"/>
      <use xlink:href="#DejaVuSans-4e" transform="translate(461.621094 0)"/>
      <use xlink:href="#DejaVuSans-20" transform="translate(536.425781 0)"/>
      <use xlink:href="#DejaVuSans-76" transform="translate(568.212891 0)"/>
      <use xlink:href="#DejaVuSans-32" transform="translate(627.392578 0)"/>
      <use xlink:href="#DejaVuSans-20" transform="translate(691.015625 0)"/>
      <use xlink:href="#DejaVuSans-56" transform="translate(722.802734 0)"/>
      <use xlink:href="#DejaVuSans-6f" transform="translate(783.460938 0)"/>
      <use xlink:href="#DejaVuSans-6c" transform="translate(844.642578 0)"/>
      <use xlink:href="#DejaVuSans-61" transform="translate(872.425781 0)"/>
      <use xlink:href="#DejaVuSans-74" transform="translate(933.705078 0)"/>
      <use xlink:href="#DejaVuSans-69" transform="translate(972.914062 0)"/>
      <use xlink:href="#DejaVuSans-6c" transform="translate(1000.697266 0)"/>
      <use xlink:href="#DejaVuSans-69" transform="translate(1028.480469 0)"/>
      <use xlink:href="#DejaVuSans-74" transform="translate(1056.263672 0)"/>
      <use xlink:href="#DejaVuSans-79" transform="translate(1095.472656 0)"/>
      <use xlink:href="#DejaVuSans-20" transform="translate(1154.652344 0)"/>
      <use xlink:href="#DejaVuSans-50" transform="translate(1186.439453 0)"/>
      <use xlink:href="#DejaVuSans-72" transform="translate(1244.992188 0)"/>
      <use xlink:href="#DejaVuSans-65" transform="translate(1283.855469 0)"/>
      <use xlink:href="#DejaVuSans-64" transform="translate(1345.378906 0)"/>
      <use xlink:href="#DejaVuSans-69" transform="translate(1408.855469 0)"/>
      <use xlink:href="#DejaVuSans-63" transform="translate(1436.638672 0)"/>
      <use xlink:href="#DejaVuSans-74" transform="translate(1491.619141 0)"/>
      <use xlink:href="#DejaVuSans-69" transform="translate(1530.828125 0)"/>
      <use xlink:href="#DejaVuSans-6f" transform="translate(1558.611328 0)"/>
      <use xlink:href="#DejaVuSans-6e" transform="translate(1619.792969 0)"/>
     </g>
    </g>
   </g>
  </g>
 </g>
 <defs>
  <clipPath id="pf8a88cc52e">
   <rect x="108" y="51.84" width="669.6" height="332.64"/>
  </clipPath>
 </defs>
</svg>
