<?xml version="1.0" encoding="utf-8" standalone="no"?>
<!DOCTYPE svg PUBLIC "-//W3C//DTD SVG 1.1//EN"
  "http://www.w3.org/Graphics/SVG/1.1/DTD/svg11.dtd">
<svg xmlns:xlink="http://www.w3.org/1999/xlink" width="864pt" height="432pt" viewBox="0 0 864 432" xmlns="http://www.w3.org/2000/svg" version="1.1">
 <metadata>
  <rdf:RDF xmlns:dc="http://purl.org/dc/elements/1.1/" xmlns:cc="http://creativecommons.org/ns#" xmlns:rdf="http://www.w3.org/1999/02/22-rdf-syntax-ns#">
   <cc:Work>
    <dc:type rdf:resource="http://purl.org/dc/dcmitype/StillImage"/>
    <dc:date>2025-02-03T17:34:08.659567</dc:date>
    <dc:format>image/svg+xml</dc:format>
    <dc:creator>
     <cc:Agent>
      <dc:title>Matplotlib v3.10.0, https://matplotlib.org/</dc:title>
     </cc:Agent>
    </dc:creator>
   </cc:Work>
  </rdf:RDF>
 </metadata>
 <defs>
  <style type="text/css">*{stroke-linejoin: round; stroke-linecap: butt}</style>
 </defs>
 <g id="figure_1">
  <g id="patch_1">
   <path d="M 0 432 
L 864 432 
L 864 0 
L 0 0 
z
" style="fill: #ffffff"/>
  </g>
  <g id="axes_1">
   <g id="patch_2">
    <path d="M 108 384.48 
L 777.6 384.48 
L 777.6 51.84 
L 108 51.84 
z
" style="fill: #ffffff"/>
   </g>
   <g id="matplotlib.axis_1">
    <g id="xtick_1">
     <g id="line2d_1">
      <defs>
       <path id="m3fe58210ef" d="M 0 0 
L 0 3.5 
" style="stroke: #000000; stroke-width: 0.8"/>
      </defs>
      <g>
       <use xlink:href="#m3fe58210ef" x="138.822857" y="384.48" style="stroke: #000000; stroke-width: 0.8"/>
      </g>
     </g>
     <g id="text_1">
      <!-- 2020-07 -->
      <g transform="translate(117.931451 399.078438) scale(0.1 -0.1)">
       <defs>
        <path id="DejaVuSans-32" d="M 1228 531 
L 3431 531 
L 3431 0 
L 469 0 
L 469 531 
Q 828 903 1448 1529 
Q 2069 2156 2228 2338 
Q 2531 2678 2651 2914 
Q 2772 3150 2772 3378 
Q 2772 3750 2511 3984 
Q 2250 4219 1831 4219 
Q 1534 4219 1204 4116 
Q 875 4013 500 3803 
L 500 4441 
Q 881 4594 1212 4672 
Q 1544 4750 1819 4750 
Q 2544 4750 2975 4387 
Q 3406 4025 3406 3419 
Q 3406 3131 3298 2873 
Q 3191 2616 2906 2266 
Q 2828 2175 2409 1742 
Q 1991 1309 1228 531 
z
" transform="scale(0.015625)"/>
        <path id="DejaVuSans-30" d="M 2034 4250 
Q 1547 4250 1301 3770 
Q 1056 3291 1056 2328 
Q 1056 1369 1301 889 
Q 1547 409 2034 409 
Q 2525 409 2770 889 
Q 3016 1369 3016 2328 
Q 3016 3291 2770 3770 
Q 2525 4250 2034 4250 
z
M 2034 4750 
Q 2819 4750 3233 4129 
Q 3647 3509 3647 2328 
Q 3647 1150 3233 529 
Q 2819 -91 2034 -91 
Q 1250 -91 836 529 
Q 422 1150 422 2328 
Q 422 3509 836 4129 
Q 1250 4750 2034 4750 
z
" transform="scale(0.015625)"/>
        <path id="DejaVuSans-2d" d="M 313 2009 
L 1997 2009 
L 1997 1497 
L 313 1497 
L 313 2009 
z
" transform="scale(0.015625)"/>
        <path id="DejaVuSans-37" d="M 525 4666 
L 3525 4666 
L 3525 4397 
L 1831 0 
L 1172 0 
L 2766 4134 
L 525 4134 
L 525 4666 
z
" transform="scale(0.015625)"/>
       </defs>
       <use xlink:href="#DejaVuSans-32"/>
       <use xlink:href="#DejaVuSans-30" transform="translate(63.623047 0)"/>
       <use xlink:href="#DejaVuSans-32" transform="translate(127.246094 0)"/>
       <use xlink:href="#DejaVuSans-30" transform="translate(190.869141 0)"/>
       <use xlink:href="#DejaVuSans-2d" transform="translate(254.492188 0)"/>
       <use xlink:href="#DejaVuSans-30" transform="translate(290.576172 0)"/>
       <use xlink:href="#DejaVuSans-37" transform="translate(354.199219 0)"/>
      </g>
     </g>
    </g>
    <g id="xtick_2">
     <g id="line2d_2">
      <g>
       <use xlink:href="#m3fe58210ef" x="209.937662" y="384.48" style="stroke: #000000; stroke-width: 0.8"/>
      </g>
     </g>
     <g id="text_2">
      <!-- 2021-01 -->
      <g transform="translate(189.046256 399.078438) scale(0.1 -0.1)">
       <defs>
        <path id="DejaVuSans-31" d="M 794 531 
L 1825 531 
L 1825 4091 
L 703 3866 
L 703 4441 
L 1819 4666 
L 2450 4666 
L 2450 531 
L 3481 531 
L 3481 0 
L 794 0 
L 794 531 
z
" transform="scale(0.015625)"/>
       </defs>
       <use xlink:href="#DejaVuSans-32"/>
       <use xlink:href="#DejaVuSans-30" transform="translate(63.623047 0)"/>
       <use xlink:href="#DejaVuSans-32" transform="translate(127.246094 0)"/>
       <use xlink:href="#DejaVuSans-31" transform="translate(190.869141 0)"/>
       <use xlink:href="#DejaVuSans-2d" transform="translate(254.492188 0)"/>
       <use xlink:href="#DejaVuSans-30" transform="translate(290.576172 0)"/>
       <use xlink:href="#DejaVuSans-31" transform="translate(354.199219 0)"/>
      </g>
     </g>
    </g>
    <g id="xtick_3">
     <g id="line2d_3">
      <g>
       <use xlink:href="#m3fe58210ef" x="279.892987" y="384.48" style="stroke: #000000; stroke-width: 0.8"/>
      </g>
     </g>
     <g id="text_3">
      <!-- 2021-07 -->
      <g transform="translate(259.001581 399.078438) scale(0.1 -0.1)">
       <use xlink:href="#DejaVuSans-32"/>
       <use xlink:href="#DejaVuSans-30" transform="translate(63.623047 0)"/>
       <use xlink:href="#DejaVuSans-32" transform="translate(127.246094 0)"/>
       <use xlink:href="#DejaVuSans-31" transform="translate(190.869141 0)"/>
       <use xlink:href="#DejaVuSans-2d" transform="translate(254.492188 0)"/>
       <use xlink:href="#DejaVuSans-30" transform="translate(290.576172 0)"/>
       <use xlink:href="#DejaVuSans-37" transform="translate(354.199219 0)"/>
      </g>
     </g>
    </g>
    <g id="xtick_4">
     <g id="line2d_4">
      <g>
       <use xlink:href="#m3fe58210ef" x="351.007792" y="384.48" style="stroke: #000000; stroke-width: 0.8"/>
      </g>
     </g>
     <g id="text_4">
      <!-- 2022-01 -->
      <g transform="translate(330.116386 399.078438) scale(0.1 -0.1)">
       <use xlink:href="#DejaVuSans-32"/>
       <use xlink:href="#DejaVuSans-30" transform="translate(63.623047 0)"/>
       <use xlink:href="#DejaVuSans-32" transform="translate(127.246094 0)"/>
       <use xlink:href="#DejaVuSans-32" transform="translate(190.869141 0)"/>
       <use xlink:href="#DejaVuSans-2d" transform="translate(254.492188 0)"/>
       <use xlink:href="#DejaVuSans-30" transform="translate(290.576172 0)"/>
       <use xlink:href="#DejaVuSans-31" transform="translate(354.199219 0)"/>
      </g>
     </g>
    </g>
    <g id="xtick_5">
     <g id="line2d_5">
      <g>
       <use xlink:href="#m3fe58210ef" x="420.963117" y="384.48" style="stroke: #000000; stroke-width: 0.8"/>
      </g>
     </g>
     <g id="text_5">
      <!-- 2022-07 -->
      <g transform="translate(400.071711 399.078438) scale(0.1 -0.1)">
       <use xlink:href="#DejaVuSans-32"/>
       <use xlink:href="#DejaVuSans-30" transform="translate(63.623047 0)"/>
       <use xlink:href="#DejaVuSans-32" transform="translate(127.246094 0)"/>
       <use xlink:href="#DejaVuSans-32" transform="translate(190.869141 0)"/>
       <use xlink:href="#DejaVuSans-2d" transform="translate(254.492188 0)"/>
       <use xlink:href="#DejaVuSans-30" transform="translate(290.576172 0)"/>
       <use xlink:href="#DejaVuSans-37" transform="translate(354.199219 0)"/>
      </g>
     </g>
    </g>
    <g id="xtick_6">
     <g id="line2d_6">
      <g>
       <use xlink:href="#m3fe58210ef" x="492.077922" y="384.48" style="stroke: #000000; stroke-width: 0.8"/>
      </g>
     </g>
     <g id="text_6">
      <!-- 2023-01 -->
      <g transform="translate(471.186516 399.078438) scale(0.1 -0.1)">
       <defs>
        <path id="DejaVuSans-33" d="M 2597 2516 
Q 3050 2419 3304 2112 
Q 3559 1806 3559 1356 
Q 3559 666 3084 287 
Q 2609 -91 1734 -91 
Q 1441 -91 1130 -33 
Q 819 25 488 141 
L 488 750 
Q 750 597 1062 519 
Q 1375 441 1716 441 
Q 2309 441 2620 675 
Q 2931 909 2931 1356 
Q 2931 1769 2642 2001 
Q 2353 2234 1838 2234 
L 1294 2234 
L 1294 2753 
L 1863 2753 
Q 2328 2753 2575 2939 
Q 2822 3125 2822 3475 
Q 2822 3834 2567 4026 
Q 2313 4219 1838 4219 
Q 1578 4219 1281 4162 
Q 984 4106 628 3988 
L 628 4550 
Q 988 4650 1302 4700 
Q 1616 4750 1894 4750 
Q 2613 4750 3031 4423 
Q 3450 4097 3450 3541 
Q 3450 3153 3228 2886 
Q 3006 2619 2597 2516 
z
" transform="scale(0.015625)"/>
       </defs>
       <use xlink:href="#DejaVuSans-32"/>
       <use xlink:href="#DejaVuSans-30" transform="translate(63.623047 0)"/>
       <use xlink:href="#DejaVuSans-32" transform="translate(127.246094 0)"/>
       <use xlink:href="#DejaVuSans-33" transform="translate(190.869141 0)"/>
       <use xlink:href="#DejaVuSans-2d" transform="translate(254.492188 0)"/>
       <use xlink:href="#DejaVuSans-30" transform="translate(290.576172 0)"/>
       <use xlink:href="#DejaVuSans-31" transform="translate(354.199219 0)"/>
      </g>
     </g>
    </g>
    <g id="xtick_7">
     <g id="line2d_7">
      <g>
       <use xlink:href="#m3fe58210ef" x="562.033247" y="384.48" style="stroke: #000000; stroke-width: 0.8"/>
      </g>
     </g>
     <g id="text_7">
      <!-- 2023-07 -->
      <g transform="translate(541.141841 399.078438) scale(0.1 -0.1)">
       <use xlink:href="#DejaVuSans-32"/>
       <use xlink:href="#DejaVuSans-30" transform="translate(63.623047 0)"/>
       <use xlink:href="#DejaVuSans-32" transform="translate(127.246094 0)"/>
       <use xlink:href="#DejaVuSans-33" transform="translate(190.869141 0)"/>
       <use xlink:href="#DejaVuSans-2d" transform="translate(254.492188 0)"/>
       <use xlink:href="#DejaVuSans-30" transform="translate(290.576172 0)"/>
       <use xlink:href="#DejaVuSans-37" transform="translate(354.199219 0)"/>
      </g>
     </g>
    </g>
    <g id="xtick_8">
     <g id="line2d_8">
      <g>
       <use xlink:href="#m3fe58210ef" x="633.148052" y="384.48" style="stroke: #000000; stroke-width: 0.8"/>
      </g>
     </g>
     <g id="text_8">
      <!-- 2024-01 -->
      <g transform="translate(612.256646 399.078438) scale(0.1 -0.1)">
       <defs>
        <path id="DejaVuSans-34" d="M 2419 4116 
L 825 1625 
L 2419 1625 
L 2419 4116 
z
M 2253 4666 
L 3047 4666 
L 3047 1625 
L 3713 1625 
L 3713 1100 
L 3047 1100 
L 3047 0 
L 2419 0 
L 2419 1100 
L 313 1100 
L 313 1709 
L 2253 4666 
z
" transform="scale(0.015625)"/>
       </defs>
       <use xlink:href="#DejaVuSans-32"/>
       <use xlink:href="#DejaVuSans-30" transform="translate(63.623047 0)"/>
       <use xlink:href="#DejaVuSans-32" transform="translate(127.246094 0)"/>
       <use xlink:href="#DejaVuSans-34" transform="translate(190.869141 0)"/>
       <use xlink:href="#DejaVuSans-2d" transform="translate(254.492188 0)"/>
       <use xlink:href="#DejaVuSans-30" transform="translate(290.576172 0)"/>
       <use xlink:href="#DejaVuSans-31" transform="translate(354.199219 0)"/>
      </g>
     </g>
    </g>
    <g id="xtick_9">
     <g id="line2d_9">
      <g>
       <use xlink:href="#m3fe58210ef" x="703.48987" y="384.48" style="stroke: #000000; stroke-width: 0.8"/>
      </g>
     </g>
     <g id="text_9">
      <!-- 2024-07 -->
      <g transform="translate(682.598464 399.078438) scale(0.1 -0.1)">
       <use xlink:href="#DejaVuSans-32"/>
       <use xlink:href="#DejaVuSans-30" transform="translate(63.623047 0)"/>
       <use xlink:href="#DejaVuSans-32" transform="translate(127.246094 0)"/>
       <use xlink:href="#DejaVuSans-34" transform="translate(190.869141 0)"/>
       <use xlink:href="#DejaVuSans-2d" transform="translate(254.492188 0)"/>
       <use xlink:href="#DejaVuSans-30" transform="translate(290.576172 0)"/>
       <use xlink:href="#DejaVuSans-37" transform="translate(354.199219 0)"/>
      </g>
     </g>
    </g>
    <g id="xtick_10">
     <g id="line2d_10">
      <g>
       <use xlink:href="#m3fe58210ef" x="774.604675" y="384.48" style="stroke: #000000; stroke-width: 0.8"/>
      </g>
     </g>
     <g id="text_10">
      <!-- 2025-01 -->
      <g transform="translate(753.713269 399.078438) scale(0.1 -0.1)">
       <defs>
        <path id="DejaVuSans-35" d="M 691 4666 
L 3169 4666 
L 3169 4134 
L 1269 4134 
L 1269 2991 
Q 1406 3038 1543 3061 
Q 1681 3084 1819 3084 
Q 2600 3084 3056 2656 
Q 3513 2228 3513 1497 
Q 3513 744 3044 326 
Q 2575 -91 1722 -91 
Q 1428 -91 1123 -41 
Q 819 9 494 109 
L 494 744 
Q 775 591 1075 516 
Q 1375 441 1709 441 
Q 2250 441 2565 725 
Q 2881 1009 2881 1497 
Q 2881 1984 2565 2268 
Q 2250 2553 1709 2553 
Q 1456 2553 1204 2497 
Q 953 2441 691 2322 
L 691 4666 
z
" transform="scale(0.015625)"/>
       </defs>
       <use xlink:href="#DejaVuSans-32"/>
       <use xlink:href="#DejaVuSans-30" transform="translate(63.623047 0)"/>
       <use xlink:href="#DejaVuSans-32" transform="translate(127.246094 0)"/>
       <use xlink:href="#DejaVuSans-35" transform="translate(190.869141 0)"/>
       <use xlink:href="#DejaVuSans-2d" transform="translate(254.492188 0)"/>
       <use xlink:href="#DejaVuSans-30" transform="translate(290.576172 0)"/>
       <use xlink:href="#DejaVuSans-31" transform="translate(354.199219 0)"/>
      </g>
     </g>
    </g>
    <g id="text_11">
     <!-- Date -->
     <g transform="translate(430.849219 412.756563) scale(0.1 -0.1)">
      <defs>
       <path id="DejaVuSans-44" d="M 1259 4147 
L 1259 519 
L 2022 519 
Q 2988 519 3436 956 
Q 3884 1394 3884 2338 
Q 3884 3275 3436 3711 
Q 2988 4147 2022 4147 
L 1259 4147 
z
M 628 4666 
L 1925 4666 
Q 3281 4666 3915 4102 
Q 4550 3538 4550 2338 
Q 4550 1131 3912 565 
Q 3275 0 1925 0 
L 628 0 
L 628 4666 
z
" transform="scale(0.015625)"/>
       <path id="DejaVuSans-61" d="M 2194 1759 
Q 1497 1759 1228 1600 
Q 959 1441 959 1056 
Q 959 750 1161 570 
Q 1363 391 1709 391 
Q 2188 391 2477 730 
Q 2766 1069 2766 1631 
L 2766 1759 
L 2194 1759 
z
M 3341 1997 
L 3341 0 
L 2766 0 
L 2766 531 
Q 2569 213 2275 61 
Q 1981 -91 1556 -91 
Q 1019 -91 701 211 
Q 384 513 384 1019 
Q 384 1609 779 1909 
Q 1175 2209 1959 2209 
L 2766 2209 
L 2766 2266 
Q 2766 2663 2505 2880 
Q 2244 3097 1772 3097 
Q 1472 3097 1187 3025 
Q 903 2953 641 2809 
L 641 3341 
Q 956 3463 1253 3523 
Q 1550 3584 1831 3584 
Q 2591 3584 2966 3190 
Q 3341 2797 3341 1997 
z
" transform="scale(0.015625)"/>
       <path id="DejaVuSans-74" d="M 1172 4494 
L 1172 3500 
L 2356 3500 
L 2356 3053 
L 1172 3053 
L 1172 1153 
Q 1172 725 1289 603 
Q 1406 481 1766 481 
L 2356 481 
L 2356 0 
L 1766 0 
Q 1100 0 847 248 
Q 594 497 594 1153 
L 594 3053 
L 172 3053 
L 172 3500 
L 594 3500 
L 594 4494 
L 1172 4494 
z
" transform="scale(0.015625)"/>
       <path id="DejaVuSans-65" d="M 3597 1894 
L 3597 1613 
L 953 1613 
Q 991 1019 1311 708 
Q 1631 397 2203 397 
Q 2534 397 2845 478 
Q 3156 559 3463 722 
L 3463 178 
Q 3153 47 2828 -22 
Q 2503 -91 2169 -91 
Q 1331 -91 842 396 
Q 353 884 353 1716 
Q 353 2575 817 3079 
Q 1281 3584 2069 3584 
Q 2775 3584 3186 3129 
Q 3597 2675 3597 1894 
z
M 3022 2063 
Q 3016 2534 2758 2815 
Q 2500 3097 2075 3097 
Q 1594 3097 1305 2825 
Q 1016 2553 972 2059 
L 3022 2063 
z
" transform="scale(0.015625)"/>
      </defs>
      <use xlink:href="#DejaVuSans-44"/>
      <use xlink:href="#DejaVuSans-61" transform="translate(77.001953 0)"/>
      <use xlink:href="#DejaVuSans-74" transform="translate(138.28125 0)"/>
      <use xlink:href="#DejaVuSans-65" transform="translate(177.490234 0)"/>
     </g>
    </g>
   </g>
   <g id="matplotlib.axis_2">
    <g id="ytick_1">
     <g id="line2d_11">
      <defs>
       <path id="m86ff5fdc93" d="M 0 0 
L -3.5 0 
" style="stroke: #000000; stroke-width: 0.8"/>
      </defs>
      <g>
       <use xlink:href="#m86ff5fdc93" x="108" y="369.392416" style="stroke: #000000; stroke-width: 0.8"/>
      </g>
     </g>
     <g id="text_12">
      <!-- 0.00 -->
      <g transform="translate(78.734375 373.191635) scale(0.1 -0.1)">
       <defs>
        <path id="DejaVuSans-2e" d="M 684 794 
L 1344 794 
L 1344 0 
L 684 0 
L 684 794 
z
" transform="scale(0.015625)"/>
       </defs>
       <use xlink:href="#DejaVuSans-30"/>
       <use xlink:href="#DejaVuSans-2e" transform="translate(63.623047 0)"/>
       <use xlink:href="#DejaVuSans-30" transform="translate(95.410156 0)"/>
       <use xlink:href="#DejaVuSans-30" transform="translate(159.033203 0)"/>
      </g>
     </g>
    </g>
    <g id="ytick_2">
     <g id="line2d_12">
      <g>
       <use xlink:href="#m86ff5fdc93" x="108" y="313.337108" style="stroke: #000000; stroke-width: 0.8"/>
      </g>
     </g>
     <g id="text_13">
      <!-- 0.01 -->
      <g transform="translate(78.734375 317.136327) scale(0.1 -0.1)">
       <use xlink:href="#DejaVuSans-30"/>
       <use xlink:href="#DejaVuSans-2e" transform="translate(63.623047 0)"/>
       <use xlink:href="#DejaVuSans-30" transform="translate(95.410156 0)"/>
       <use xlink:href="#DejaVuSans-31" transform="translate(159.033203 0)"/>
      </g>
     </g>
    </g>
    <g id="ytick_3">
     <g id="line2d_13">
      <g>
       <use xlink:href="#m86ff5fdc93" x="108" y="257.2818" style="stroke: #000000; stroke-width: 0.8"/>
      </g>
     </g>
     <g id="text_14">
      <!-- 0.02 -->
      <g transform="translate(78.734375 261.081019) scale(0.1 -0.1)">
       <use xlink:href="#DejaVuSans-30"/>
       <use xlink:href="#DejaVuSans-2e" transform="translate(63.623047 0)"/>
       <use xlink:href="#DejaVuSans-30" transform="translate(95.410156 0)"/>
       <use xlink:href="#DejaVuSans-32" transform="translate(159.033203 0)"/>
      </g>
     </g>
    </g>
    <g id="ytick_4">
     <g id="line2d_14">
      <g>
       <use xlink:href="#m86ff5fdc93" x="108" y="201.226493" style="stroke: #000000; stroke-width: 0.8"/>
      </g>
     </g>
     <g id="text_15">
      <!-- 0.03 -->
      <g transform="translate(78.734375 205.025711) scale(0.1 -0.1)">
       <use xlink:href="#DejaVuSans-30"/>
       <use xlink:href="#DejaVuSans-2e" transform="translate(63.623047 0)"/>
       <use xlink:href="#DejaVuSans-30" transform="translate(95.410156 0)"/>
       <use xlink:href="#DejaVuSans-33" transform="translate(159.033203 0)"/>
      </g>
     </g>
    </g>
    <g id="ytick_5">
     <g id="line2d_15">
      <g>
       <use xlink:href="#m86ff5fdc93" x="108" y="145.171185" style="stroke: #000000; stroke-width: 0.8"/>
      </g>
     </g>
     <g id="text_16">
      <!-- 0.04 -->
      <g transform="translate(78.734375 148.970403) scale(0.1 -0.1)">
       <use xlink:href="#DejaVuSans-30"/>
       <use xlink:href="#DejaVuSans-2e" transform="translate(63.623047 0)"/>
       <use xlink:href="#DejaVuSans-30" transform="translate(95.410156 0)"/>
       <use xlink:href="#DejaVuSans-34" transform="translate(159.033203 0)"/>
      </g>
     </g>
    </g>
    <g id="ytick_6">
     <g id="line2d_16">
      <g>
       <use xlink:href="#m86ff5fdc93" x="108" y="89.115877" style="stroke: #000000; stroke-width: 0.8"/>
      </g>
     </g>
     <g id="text_17">
      <!-- 0.05 -->
      <g transform="translate(78.734375 92.915095) scale(0.1 -0.1)">
       <use xlink:href="#DejaVuSans-30"/>
       <use xlink:href="#DejaVuSans-2e" transform="translate(63.623047 0)"/>
       <use xlink:href="#DejaVuSans-30" transform="translate(95.410156 0)"/>
       <use xlink:href="#DejaVuSans-35" transform="translate(159.033203 0)"/>
      </g>
     </g>
    </g>
    <g id="text_18">
     <!-- Volatility -->
     <g transform="translate(72.654687 239.752187) rotate(-90) scale(0.1 -0.1)">
      <defs>
       <path id="DejaVuSans-56" d="M 1831 0 
L 50 4666 
L 709 4666 
L 2188 738 
L 3669 4666 
L 4325 4666 
L 2547 0 
L 1831 0 
z
" transform="scale(0.015625)"/>
       <path id="DejaVuSans-6f" d="M 1959 3097 
Q 1497 3097 1228 2736 
Q 959 2375 959 1747 
Q 959 1119 1226 758 
Q 1494 397 1959 397 
Q 2419 397 2687 759 
Q 2956 1122 2956 1747 
Q 2956 2369 2687 2733 
Q 2419 3097 1959 3097 
z
M 1959 3584 
Q 2709 3584 3137 3096 
Q 3566 2609 3566 1747 
Q 3566 888 3137 398 
Q 2709 -91 1959 -91 
Q 1206 -91 779 398 
Q 353 888 353 1747 
Q 353 2609 779 3096 
Q 1206 3584 1959 3584 
z
" transform="scale(0.015625)"/>
       <path id="DejaVuSans-6c" d="M 603 4863 
L 1178 4863 
L 1178 0 
L 603 0 
L 603 4863 
z
" transform="scale(0.015625)"/>
       <path id="DejaVuSans-69" d="M 603 3500 
L 1178 3500 
L 1178 0 
L 603 0 
L 603 3500 
z
M 603 4863 
L 1178 4863 
L 1178 4134 
L 603 4134 
L 603 4863 
z
" transform="scale(0.015625)"/>
       <path id="DejaVuSans-79" d="M 2059 -325 
Q 1816 -950 1584 -1140 
Q 1353 -1331 966 -1331 
L 506 -1331 
L 506 -850 
L 844 -850 
Q 1081 -850 1212 -737 
Q 1344 -625 1503 -206 
L 1606 56 
L 191 3500 
L 800 3500 
L 1894 763 
L 2988 3500 
L 3597 3500 
L 2059 -325 
z
" transform="scale(0.015625)"/>
      </defs>
      <use xlink:href="#DejaVuSans-56"/>
      <use xlink:href="#DejaVuSans-6f" transform="translate(60.658203 0)"/>
      <use xlink:href="#DejaVuSans-6c" transform="translate(121.839844 0)"/>
      <use xlink:href="#DejaVuSans-61" transform="translate(149.623047 0)"/>
      <use xlink:href="#DejaVuSans-74" transform="translate(210.902344 0)"/>
      <use xlink:href="#DejaVuSans-69" transform="translate(250.111328 0)"/>
      <use xlink:href="#DejaVuSans-6c" transform="translate(277.894531 0)"/>
      <use xlink:href="#DejaVuSans-69" transform="translate(305.677734 0)"/>
      <use xlink:href="#DejaVuSans-74" transform="translate(333.460938 0)"/>
      <use xlink:href="#DejaVuSans-79" transform="translate(372.669922 0)"/>
     </g>
    </g>
   </g>
   <g id="line2d_17">
    <path d="M 138.436364 283.67068 
L 138.822857 341.311152 
L 139.209351 343.993921 
L 140.755325 281.066455 
L 141.141818 308.418378 
L 141.528312 325.68617 
L 141.914805 337.667403 
L 142.301299 311.028696 
L 143.460779 316.663178 
L 143.847273 294.741878 
L 144.233766 318.712493 
L 144.62026 350.266819 
L 145.006753 353.447133 
L 146.166234 322.464048 
L 146.552727 359.988413 
L 146.939221 337.26919 
L 147.325714 299.904134 
L 147.712208 334.584089 
L 148.871688 328.091265 
L 149.258182 332.987658 
L 149.644675 300.154114 
L 150.031169 348.330747 
L 150.417662 326.559232 
L 151.577143 329.282811 
L 151.963636 349.182105 
L 152.35013 333.46567 
L 152.736623 333.477075 
L 153.123117 365.845073 
L 154.282597 354.041864 
L 155.055584 291.478327 
L 155.442078 357.905155 
L 155.828571 368.42884 
L 156.988052 354.222856 
L 157.374545 356.495545 
L 157.761039 344.648913 
L 158.147532 351.714508 
L 158.534026 350.136298 
L 159.693506 313.372898 
L 160.08 349.269123 
L 160.466494 312.529905 
L 160.852987 360.021952 
L 161.239481 331.779289 
L 162.398961 357.074962 
L 162.785455 327.368698 
L 163.171948 283.913395 
L 163.558442 168.952122 
L 163.944935 323.616078 
L 165.490909 211.603288 
L 165.877403 257.591446 
L 166.263896 269.943315 
L 166.65039 366.405059 
L 167.80987 298.418914 
L 168.196364 340.211223 
L 168.582857 343.440788 
L 169.355844 306.354989 
L 170.515325 304.152087 
L 170.901818 310.741657 
L 171.288312 234.81854 
L 171.674805 352.671087 
L 172.061299 280.542291 
L 173.220779 279.803747 
L 173.607273 342.349751 
L 173.993766 323.315836 
L 174.38026 339.801102 
L 174.766753 315.445837 
L 175.926234 269.540485 
L 176.312727 290.511026 
L 176.699221 272.71291 
L 177.085714 324.670298 
L 177.472208 320.31546 
L 178.631688 278.120192 
L 179.018182 333.926831 
L 179.404675 332.142699 
L 179.791169 360.821989 
L 180.177662 368.636171 
L 181.337143 277.099238 
L 181.723636 342.955639 
L 182.11013 357.070822 
L 182.496623 340.213645 
L 182.883117 350.110296 
L 184.042597 264.207585 
L 184.429091 352.406507 
L 184.815584 168.010683 
L 185.202078 302.81819 
L 185.588571 300.984126 
L 186.748052 300.764179 
L 187.521039 247.14966 
L 187.907532 261.355453 
L 188.294026 367.779244 
L 189.453506 304.188958 
L 189.84 361.540281 
L 190.226494 326.66295 
L 190.612987 313.176505 
L 190.999481 293.613775 
L 192.158961 304.476265 
L 192.545455 342.466538 
L 192.931948 304.193291 
L 193.318442 347.314014 
L 193.704935 331.186556 
L 194.864416 337.888646 
L 195.250909 279.522012 
L 195.637403 360.503883 
L 196.41039 355.972146 
L 197.56987 343.572576 
L 197.956364 306.564791 
L 198.342857 359.361047 
L 198.729351 365.892651 
L 199.115844 320.078033 
L 200.275325 358.53171 
L 200.661818 353.790763 
L 201.048312 324.65492 
L 201.434805 362.184026 
L 201.821299 362.297002 
L 202.980779 344.902995 
L 203.367273 297.425951 
L 203.753766 359.463764 
L 204.14026 337.210201 
L 204.526753 349.676052 
L 205.686234 347.452755 
L 206.459221 365.213307 
L 206.845714 349.602853 
L 208.391688 320.710095 
L 208.778182 356.892793 
L 209.164675 361.877372 
L 209.551169 333.414866 
L 211.097143 286.06748 
L 211.483636 329.830654 
L 211.87013 337.476725 
L 212.256623 286.776714 
L 212.643117 338.691825 
L 213.802597 332.528645 
L 214.189091 367.062236 
L 214.962078 348.312669 
L 215.348571 328.942959 
L 216.894545 323.968253 
L 217.281039 291.815115 
L 217.667532 367.617253 
L 218.054026 352.490882 
L 219.213506 349.160329 
L 219.6 361.04048 
L 219.986494 223.573973 
L 220.372987 314.944166 
L 220.759481 260.082438 
L 221.918961 280.128287 
L 222.305455 292.021844 
L 222.691948 363.740673 
L 223.078442 308.881519 
L 223.464935 347.587335 
L 224.624416 328.067855 
L 225.010909 363.147051 
L 225.397403 367.457134 
L 225.783896 360.08121 
L 226.17039 343.046578 
L 227.716364 366.20042 
L 228.102857 367.596119 
L 228.489351 344.58451 
L 228.875844 358.985095 
L 230.035325 325.877225 
L 230.421818 362.354531 
L 230.808312 306.119068 
L 231.194805 230.468399 
L 231.581299 342.701479 
L 232.740779 237.594156 
L 233.127273 323.910838 
L 233.513766 295.666692 
L 233.90026 293.672694 
L 234.286753 261.158934 
L 235.446234 339.270358 
L 235.832727 290.604498 
L 236.219221 335.690704 
L 236.605714 311.421037 
L 236.992208 363.703457 
L 238.151688 333.119441 
L 238.538182 360.586707 
L 238.924675 353.275223 
L 239.311169 286.035114 
L 239.697662 366.01287 
L 240.857143 330.150565 
L 241.243636 326.453343 
L 241.63013 338.661048 
L 242.016623 340.094681 
L 242.403117 276.932472 
L 243.562597 364.524704 
L 243.949091 351.662992 
L 244.335584 349.122998 
L 244.722078 303.494781 
L 246.268052 289.037194 
L 246.654545 363.932561 
L 247.041039 361.128923 
L 247.814026 326.284246 
L 248.973506 368.293142 
L 249.36 350.955435 
L 249.746494 346.431696 
L 250.132987 307.546116 
L 250.519481 349.199472 
L 251.678961 339.567191 
L 252.065455 331.131422 
L 252.451948 317.468241 
L 252.838442 317.522602 
L 253.224935 308.46366 
L 254.384416 359.410728 
L 254.770909 368.187685 
L 255.157403 364.650764 
L 255.543896 331.610958 
L 255.93039 328.916475 
L 257.08987 354.008949 
L 257.476364 331.831226 
L 257.862857 365.450633 
L 258.249351 323.806525 
L 258.635844 328.212528 
L 259.795325 310.587734 
L 260.181818 320.558403 
L 260.568312 247.848855 
L 260.954805 301.567432 
L 261.341299 286.386954 
L 262.500779 355.192104 
L 262.887273 321.444064 
L 263.273766 352.868706 
L 263.66026 310.537598 
L 264.046753 364.996699 
L 265.206234 314.107939 
L 265.592727 357.466424 
L 265.979221 358.881792 
L 266.365714 362.863944 
L 266.752208 365.084055 
L 268.298182 366.631845 
L 268.684675 361.287412 
L 269.071169 349.014639 
L 269.457662 320.090124 
L 270.617143 364.924516 
L 271.003636 368.411323 
L 271.39013 359.159285 
L 271.776623 343.37456 
L 272.163117 358.481119 
L 273.322597 359.226419 
L 273.709091 358.104392 
L 274.095584 339.096247 
L 274.482078 366.949509 
L 274.868571 295.335713 
L 276.028052 291.446652 
L 276.414545 340.740273 
L 276.801039 363.316744 
L 277.187532 336.91155 
L 277.574026 350.753621 
L 278.733506 356.430768 
L 279.12 367.838069 
L 279.506494 361.95231 
L 279.892987 340.198633 
L 280.279481 327.507355 
L 281.825455 358.047373 
L 282.211948 350.595056 
L 282.598442 321.196676 
L 282.984935 306.527339 
L 284.144416 350.08003 
L 284.530909 349.644097 
L 284.917403 362.866196 
L 285.303896 351.075957 
L 285.69039 326.973076 
L 286.84987 279.721864 
L 287.236364 285.035772 
L 288.009351 358.099216 
L 288.395844 312.8084 
L 289.555325 356.054758 
L 289.941818 342.91428 
L 290.328312 368.348126 
L 290.714805 345.8641 
L 291.101299 339.006486 
L 292.260779 359.052995 
L 292.647273 323.595505 
L 293.033766 343.365151 
L 293.42026 335.829432 
L 293.806753 360.009545 
L 294.966234 364.121282 
L 295.352727 363.830685 
L 295.739221 362.245698 
L 296.125714 346.197835 
L 296.512208 360.38987 
L 297.671688 354.720326 
L 298.444675 308.815339 
L 298.831169 362.352393 
L 299.217662 323.939409 
L 300.377143 321.814486 
L 300.763636 361.014279 
L 301.15013 356.961346 
L 301.923117 320.237137 
L 303.082597 345.303661 
L 303.469091 361.824877 
L 303.855584 367.645593 
L 304.242078 353.480464 
L 304.628571 367.514099 
L 306.174545 350.326019 
L 306.561039 361.996224 
L 307.334026 325.935255 
L 308.493506 356.646001 
L 309.266494 322.091286 
L 309.652987 360.690694 
L 310.039481 318.087022 
L 311.198961 273.408545 
L 311.585455 364.836787 
L 311.971948 316.282331 
L 312.358442 301.780224 
L 312.744935 361.208662 
L 313.904416 353.807695 
L 314.290909 254.06242 
L 314.677403 360.603172 
L 315.063896 302.231313 
L 315.45039 305.343889 
L 316.60987 296.122893 
L 316.996364 310.705284 
L 317.382857 346.441122 
L 317.769351 323.06804 
L 318.155844 358.654605 
L 319.315325 330.773442 
L 319.701818 355.828732 
L 320.088312 352.475175 
L 320.474805 274.551482 
L 320.861299 327.729258 
L 322.020779 350.506821 
L 322.407273 328.101304 
L 322.793766 348.891193 
L 323.18026 352.624 
L 323.566753 363.376936 
L 324.726234 342.839217 
L 325.112727 359.20084 
L 325.499221 341.00401 
L 325.885714 314.563159 
L 326.272208 358.475949 
L 327.431688 359.311147 
L 327.818182 348.799875 
L 328.204675 333.290052 
L 328.591169 345.999211 
L 328.977662 348.507081 
L 330.137143 364.418114 
L 330.523636 349.745525 
L 330.91013 323.091664 
L 331.296623 366.305026 
L 331.683117 329.05108 
L 332.842597 369.332205 
L 333.229091 347.767514 
L 333.615584 354.789899 
L 334.002078 350.450985 
L 334.388571 361.546759 
L 335.548052 351.441963 
L 335.934545 360.11094 
L 336.321039 356.54885 
L 337.094026 240.53795 
L 338.253506 295.882407 
L 338.64 262.083627 
L 339.026494 302.767599 
L 339.412987 290.384435 
L 339.799481 321.832569 
L 340.958961 304.017413 
L 341.345455 254.503655 
L 341.731948 352.124333 
L 342.118442 328.993381 
L 342.504935 316.118775 
L 343.664416 317.943973 
L 344.050909 327.358059 
L 344.437403 278.491575 
L 344.823896 320.165382 
L 345.21039 311.425803 
L 346.36987 305.19006 
L 346.756364 270.613076 
L 347.142857 312.615494 
L 347.529351 334.613486 
L 349.075325 292.349714 
L 349.461818 363.727152 
L 349.848312 361.539507 
L 350.234805 352.608121 
L 350.621299 354.651925 
L 351.780779 333.775839 
L 352.167273 365.861845 
L 352.553766 259.617897 
L 352.94026 363.987343 
L 353.326753 346.642723 
L 354.486234 361.308781 
L 354.872727 318.279563 
L 355.259221 353.619587 
L 355.645714 288.975323 
L 356.032208 364.79789 
L 357.578182 265.358822 
L 357.964675 314.812532 
L 358.351169 307.178057 
L 358.737662 262.349149 
L 359.897143 353.876766 
L 360.283636 300.74376 
L 360.67013 360.996719 
L 361.056623 339.130214 
L 361.443117 234.545989 
L 362.602597 264.513918 
L 362.989091 331.053093 
L 363.375584 316.821435 
L 363.762078 230.972327 
L 364.148571 340.559298 
L 365.308052 348.603812 
L 365.694545 322.495937 
L 366.081039 288.600708 
L 366.467532 266.913084 
L 366.854026 262.036996 
L 368.013506 347.822404 
L 368.4 281.701078 
L 368.786494 364.454881 
L 369.172987 249.431232 
L 369.559481 329.077588 
L 371.105455 312.24558 
L 371.491948 265.220669 
L 371.878442 286.17211 
L 372.264935 245.364 
L 373.424416 355.683528 
L 373.810909 281.977245 
L 374.197403 265.852489 
L 374.583896 339.859567 
L 374.97039 324.740548 
L 376.12987 201.436177 
L 376.516364 328.696081 
L 376.902857 227.159914 
L 377.289351 345.2827 
L 377.675844 296.261179 
L 378.835325 327.638633 
L 379.221818 250.652576 
L 379.608312 245.303179 
L 379.994805 300.600268 
L 380.381299 304.397321 
L 381.540779 366.955437 
L 381.927273 306.382314 
L 382.313766 300.1717 
L 382.70026 289.55828 
L 383.086753 341.065538 
L 384.246234 329.483629 
L 384.632727 301.105566 
L 385.019221 334.001402 
L 385.405714 280.957732 
L 385.792208 350.308839 
L 386.951688 324.220995 
L 387.338182 298.588089 
L 387.724675 314.6576 
L 388.111169 345.600443 
L 388.497662 354.512243 
L 389.657143 273.978801 
L 390.043636 350.202987 
L 390.43013 307.100438 
L 390.816623 300.901348 
L 392.362597 368.243906 
L 392.749091 280.095958 
L 393.135584 365.92442 
L 393.908571 211.69716 
L 395.068052 337.543149 
L 395.454545 209.354491 
L 395.841039 357.644024 
L 396.227532 232.361595 
L 396.614026 162.216741 
L 397.773506 337.66961 
L 398.16 342.34312 
L 398.546494 204.448486 
L 398.932987 165.907856 
L 399.319481 337.494755 
L 400.478961 186.867889 
L 400.865455 355.631583 
L 401.251948 276.339327 
L 401.638442 362.123212 
L 402.024935 237.162069 
L 403.184416 347.226955 
L 403.570909 257.456006 
L 403.957403 138.25498 
L 404.343896 336.595203 
L 404.73039 368.573229 
L 405.88987 266.334748 
L 406.276364 323.685221 
L 406.662857 316.664632 
L 407.049351 259.029806 
L 407.435844 232.386971 
L 408.981818 334.110491 
L 409.368312 327.289837 
L 409.754805 267.017403 
L 410.141299 276.999763 
L 411.300779 351.833064 
L 411.687273 316.261337 
L 412.073766 308.557644 
L 412.46026 234.375107 
L 412.846753 203.791446 
L 414.006234 147.750146 
L 414.392727 348.198928 
L 414.779221 288.184777 
L 415.165714 184.117207 
L 415.552208 357.068904 
L 417.098182 233.836885 
L 417.484675 362.09173 
L 417.871169 316.212322 
L 418.257662 200.634901 
L 419.417143 352.701924 
L 419.803636 255.327241 
L 420.19013 365.401389 
L 420.576623 320.0757 
L 420.963117 310.542681 
L 422.509091 360.519582 
L 422.895584 349.398612 
L 423.282078 286.12947 
L 423.668571 364.73642 
L 424.828052 304.39948 
L 425.214545 317.334563 
L 425.601039 344.353301 
L 425.987532 352.558298 
L 426.374026 262.779571 
L 427.533506 322.313028 
L 427.92 216.622046 
L 428.306494 336.440282 
L 428.692987 314.384897 
L 429.079481 316.833305 
L 430.238961 362.025058 
L 430.625455 304.310196 
L 431.011948 224.657278 
L 431.398442 301.787956 
L 431.784935 290.310854 
L 432.944416 353.545228 
L 433.330909 331.92111 
L 433.717403 282.40881 
L 434.103896 365.033291 
L 434.49039 360.271831 
L 435.64987 362.451104 
L 436.036364 345.525424 
L 436.422857 251.299836 
L 436.809351 365.436485 
L 437.195844 273.122744 
L 438.355325 347.185119 
L 438.741818 358.88803 
L 439.128312 328.673139 
L 439.514805 356.68473 
L 439.901299 296.610675 
L 441.060779 248.131448 
L 441.447273 356.834024 
L 441.833766 353.069631 
L 442.22026 290.952865 
L 442.606753 177.298863 
L 443.766234 331.898848 
L 444.152727 307.230344 
L 444.539221 325.401695 
L 444.925714 352.622054 
L 445.312208 308.883202 
L 446.858182 346.390273 
L 447.244675 267.512707 
L 447.631169 332.45778 
L 448.017662 284.434874 
L 449.177143 310.373666 
L 449.563636 121.632528 
L 449.95013 350.438451 
L 450.336623 305.588756 
L 450.723117 328.9875 
L 451.882597 331.085934 
L 452.269091 305.847419 
L 452.655584 272.614753 
L 453.042078 321.951224 
L 453.428571 271.952449 
L 454.588052 311.126417 
L 454.974545 357.494055 
L 455.361039 260.190262 
L 455.747532 249.698771 
L 456.134026 284.292811 
L 457.293506 226.145466 
L 457.68 200.523886 
L 458.066494 358.069317 
L 458.452987 311.667107 
L 458.839481 210.177434 
L 459.998961 327.235082 
L 460.385455 332.729346 
L 460.771948 350.915403 
L 461.158442 225.698759 
L 461.544935 235.156162 
L 462.704416 222.888904 
L 463.090909 305.698114 
L 463.477403 331.866394 
L 463.863896 324.645194 
L 464.25039 237.955232 
L 465.40987 303.180204 
L 465.796364 278.942889 
L 466.182857 327.826633 
L 466.569351 335.19196 
L 466.955844 233.020726 
L 468.115325 327.449971 
L 468.501818 346.355545 
L 468.888312 227.461187 
L 469.274805 309.736062 
L 469.661299 293.567476 
L 470.820779 315.758351 
L 471.207273 338.100697 
L 471.593766 251.694351 
L 471.98026 66.96 
L 472.366753 317.831014 
L 473.526234 319.07755 
L 474.299221 322.943318 
L 474.685714 352.048432 
L 475.072208 342.781346 
L 476.231688 347.57982 
L 476.618182 293.781529 
L 477.004675 336.335154 
L 477.777662 367.805568 
L 478.937143 282.143995 
L 479.323636 360.462139 
L 479.71013 198.543476 
L 480.096623 364.526814 
L 480.483117 362.691731 
L 481.642597 268.177503 
L 482.029091 288.090499 
L 482.415584 358.943088 
L 482.802078 327.386601 
L 483.188571 328.042027 
L 484.348052 289.915445 
L 484.734545 328.678256 
L 485.121039 335.360633 
L 485.507532 227.922912 
L 485.894026 306.609116 
L 487.053506 318.671723 
L 487.44 363.580606 
L 487.826494 286.662952 
L 488.212987 287.791977 
L 488.599481 336.594688 
L 490.145455 346.646001 
L 490.531948 301.602139 
L 490.918442 272.357209 
L 491.304935 355.132125 
L 492.850909 346.922251 
L 493.623896 303.729923 
L 494.01039 242.798002 
L 495.16987 365.087762 
L 495.942857 297.823413 
L 496.329351 350.277101 
L 496.715844 347.032511 
L 498.261818 357.998888 
L 498.648312 281.469799 
L 499.034805 326.411059 
L 499.421299 264.335402 
L 500.580779 303.183653 
L 500.967273 365.402655 
L 501.353766 368.373631 
L 501.74026 308.024786 
L 502.126753 355.424824 
L 503.286234 296.220147 
L 503.672727 287.908684 
L 504.059221 311.105742 
L 504.445714 287.594362 
L 504.832208 311.04671 
L 505.991688 334.865752 
L 506.378182 297.695667 
L 506.764675 306.93243 
L 507.151169 319.676859 
L 507.537662 357.100243 
L 508.697143 305.581571 
L 509.083636 367.8204 
L 509.47013 353.86883 
L 509.856623 291.561344 
L 510.243117 353.858166 
L 511.789091 255.909657 
L 512.175584 360.564766 
L 512.562078 339.597348 
L 512.948571 310.010325 
L 514.108052 352.192939 
L 514.494545 352.348111 
L 514.881039 342.842034 
L 515.267532 327.050521 
L 515.654026 279.598818 
L 516.813506 365.541845 
L 517.2 282.811689 
L 517.586494 361.467339 
L 517.972987 264.951022 
L 519.518961 360.922978 
L 519.905455 277.784698 
L 520.291948 330.123643 
L 520.678442 271.802496 
L 521.064935 307.279705 
L 522.224416 319.621605 
L 522.997403 276.339277 
L 523.383896 352.687465 
L 523.77039 337.867146 
L 524.92987 360.168012 
L 525.316364 360.563252 
L 525.702857 290.147667 
L 526.089351 337.446528 
L 526.475844 289.04648 
L 527.635325 348.69668 
L 528.021818 336.802715 
L 528.408312 355.403937 
L 528.794805 349.365177 
L 530.340779 363.810313 
L 530.727273 369.160502 
L 531.113766 346.166268 
L 531.50026 295.536773 
L 531.886753 357.780431 
L 533.046234 350.890204 
L 533.432727 364.600492 
L 533.819221 368.92006 
L 534.205714 335.925492 
L 534.592208 364.331822 
L 535.751688 364.620921 
L 536.138182 280.056118 
L 536.524675 347.819053 
L 536.911169 260.772972 
L 537.297662 323.318678 
L 538.457143 367.227617 
L 538.843636 304.066136 
L 539.23013 330.025259 
L 539.616623 328.780871 
L 540.003117 266.776677 
L 541.162597 366.858591 
L 541.549091 343.663366 
L 541.935584 344.313615 
L 542.322078 359.873888 
L 542.708571 360.510161 
L 543.868052 352.834822 
L 544.254545 333.527603 
L 544.641039 303.131205 
L 545.027532 316.696354 
L 545.414026 361.281728 
L 546.573506 368.523435 
L 546.96 306.13138 
L 547.346494 328.216842 
L 547.732987 320.51517 
L 548.119481 296.718512 
L 549.665455 369.299379 
L 550.051948 335.045377 
L 550.824935 288.505655 
L 551.984416 358.149983 
L 552.370909 356.213029 
L 552.757403 347.983218 
L 553.143896 334.808635 
L 553.53039 362.960608 
L 554.68987 317.384458 
L 555.076364 330.666198 
L 555.462857 364.801082 
L 555.849351 301.539817 
L 556.235844 348.773164 
L 557.781818 342.786689 
L 558.168312 339.912343 
L 558.554805 348.629914 
L 558.941299 326.295556 
L 560.100779 344.184653 
L 560.487273 305.541221 
L 560.873766 367.407268 
L 561.26026 344.371848 
L 561.646753 301.036536 
L 562.806234 362.834061 
L 563.579221 358.348098 
L 563.965714 324.805656 
L 564.352208 353.309017 
L 565.511688 355.927142 
L 565.898182 331.725557 
L 566.284675 328.001697 
L 566.671169 322.112766 
L 567.057662 363.647149 
L 568.217143 347.822526 
L 568.603636 329.637544 
L 568.99013 356.190678 
L 569.376623 331.387882 
L 569.763117 367.576022 
L 570.922597 346.824325 
L 571.309091 353.636748 
L 571.695584 368.520983 
L 572.082078 333.262621 
L 572.468571 314.293578 
L 573.628052 361.165517 
L 574.014545 354.433219 
L 574.401039 291.272545 
L 574.787532 355.091443 
L 575.174026 339.603741 
L 576.333506 319.034534 
L 576.72 345.696761 
L 577.106494 329.79711 
L 577.492987 367.987229 
L 577.879481 363.39298 
L 579.038961 337.250288 
L 579.425455 304.266643 
L 579.811948 326.879594 
L 580.198442 325.989868 
L 580.584935 368.558777 
L 581.744416 330.963019 
L 582.130909 353.801598 
L 582.517403 307.819363 
L 582.903896 293.441105 
L 583.29039 331.860582 
L 584.44987 334.385433 
L 584.836364 288.649997 
L 585.222857 347.946516 
L 585.609351 360.43366 
L 585.995844 359.316482 
L 587.541818 345.832434 
L 587.928312 330.176039 
L 588.314805 351.362531 
L 588.701299 361.401135 
L 589.860779 331.829934 
L 590.247273 337.372625 
L 590.633766 362.436775 
L 591.02026 322.336254 
L 591.406753 300.813502 
L 592.566234 365.350624 
L 592.952727 357.321861 
L 593.725714 276.694206 
L 594.112208 356.50963 
L 595.271688 346.88635 
L 595.658182 286.183063 
L 596.044675 368.107111 
L 596.431169 336.455045 
L 596.817662 354.183144 
L 597.977143 368.947579 
L 598.363636 291.815311 
L 599.136623 362.07781 
L 599.523117 303.551803 
L 600.682597 334.166822 
L 601.455584 345.379284 
L 601.842078 334.268062 
L 602.228571 341.188184 
L 603.388052 310.31773 
L 603.774545 368.841658 
L 604.161039 293.771515 
L 604.547532 321.638715 
L 604.934026 298.397591 
L 606.093506 359.93582 
L 606.48 328.81096 
L 606.866494 288.429241 
L 607.252987 302.669381 
L 607.639481 342.419457 
L 608.798961 302.47094 
L 609.185455 333.213819 
L 609.571948 310.807866 
L 609.958442 264.664656 
L 610.344935 316.981432 
L 611.504416 359.574485 
L 611.890909 353.494611 
L 612.277403 363.762162 
L 613.05039 282.530507 
L 614.20987 364.705174 
L 614.596364 263.473823 
L 614.982857 360.447441 
L 615.369351 362.723472 
L 615.755844 362.210435 
L 616.915325 328.118266 
L 617.301818 358.05249 
L 617.688312 346.673702 
L 618.461299 366.047653 
L 619.620779 358.427693 
L 620.007273 363.901097 
L 620.393766 364.085751 
L 621.166753 336.563268 
L 622.326234 338.992566 
L 622.712727 366.202704 
L 623.485714 324.903502 
L 623.872208 346.482194 
L 625.031688 347.436384 
L 625.418182 343.669992 
L 625.804675 293.390273 
L 626.191169 354.573784 
L 626.577662 368.964819 
L 628.123636 336.604236 
L 628.51013 286.468991 
L 628.896623 311.942508 
L 629.283117 360.094484 
L 630.829091 345.721737 
L 631.215584 361.379763 
L 631.602078 367.317798 
L 631.988571 353.526113 
L 633.534545 337.571719 
L 633.921039 324.275661 
L 634.307532 350.14136 
L 634.694026 359.167876 
L 635.853506 290.825369 
L 636.24 361.101917 
L 636.626494 337.721505 
L 637.012987 365.629485 
L 637.399481 365.184196 
L 638.945455 348.437268 
L 639.331948 337.817991 
L 640.104935 300.790339 
L 641.264416 357.10567 
L 641.650909 353.040346 
L 642.037403 364.842636 
L 642.423896 339.982965 
L 642.81039 365.737556 
L 643.96987 327.191885 
L 644.356364 366.024398 
L 644.742857 278.376601 
L 645.129351 299.792588 
L 645.515844 309.818033 
L 646.675325 351.502566 
L 647.061818 356.456187 
L 647.448312 323.384087 
L 647.834805 366.195016 
L 648.221299 337.295284 
L 649.380779 364.070524 
L 649.767273 292.211966 
L 650.54026 336.855673 
L 650.926753 342.401716 
L 652.472727 335.627981 
L 652.859221 362.310425 
L 653.245714 252.220613 
L 653.632208 367.442347 
L 654.791688 348.125396 
L 655.178182 359.836004 
L 655.564675 360.090316 
L 656.337662 324.683123 
L 657.497143 362.699427 
L 657.883636 311.961797 
L 658.27013 340.647481 
L 658.656623 311.927974 
L 659.043117 332.676537 
L 660.202597 363.098144 
L 660.589091 306.949621 
L 660.975584 358.593969 
L 661.362078 353.275361 
L 661.748571 332.934066 
L 662.908052 334.087837 
L 663.294545 337.814874 
L 663.681039 319.70108 
L 664.067532 351.278858 
L 664.454026 361.526475 
L 665.613506 352.241759 
L 666 353.675919 
L 666.386494 321.220918 
L 666.772987 363.137268 
L 668.318961 358.09391 
L 668.705455 328.666017 
L 669.091948 363.27962 
L 669.478442 299.822269 
L 669.864935 307.518161 
L 671.024416 367.291702 
L 671.410909 361.295531 
L 671.797403 316.128784 
L 672.183896 327.814865 
L 672.57039 287.228749 
L 673.72987 301.598395 
L 674.116364 357.852365 
L 674.502857 336.895269 
L 674.889351 357.000646 
L 675.275844 320.079988 
L 676.435325 320.6617 
L 676.821818 302.722338 
L 677.208312 368.198595 
L 677.981299 312.454946 
L 679.140779 351.603737 
L 679.527273 280.513616 
L 679.913766 350.101585 
L 680.30026 318.454883 
L 680.686753 299.443304 
L 681.846234 311.806036 
L 682.232727 361.86679 
L 682.619221 369.36 
L 683.005714 340.927516 
L 683.392208 360.154382 
L 684.551688 368.039888 
L 684.938182 342.339564 
L 685.324675 304.099868 
L 685.711169 357.711195 
L 686.097662 362.866959 
L 687.257143 364.257772 
L 687.643636 355.385886 
L 688.03013 354.20301 
L 688.416623 327.865653 
L 688.803117 330.284988 
L 690.349091 367.997738 
L 690.735584 327.943177 
L 691.122078 335.798937 
L 691.508571 324.571349 
L 692.668052 363.139815 
L 693.054545 360.974635 
L 693.441039 303.370326 
L 693.827532 368.272042 
L 694.214026 363.137243 
L 695.373506 354.943788 
L 695.76 354.219619 
L 696.146494 321.926311 
L 696.532987 356.265224 
L 696.919481 367.184324 
L 698.078961 326.593147 
L 698.465455 355.276626 
L 699.238442 355.215175 
L 699.624935 360.6288 
L 700.784416 352.184114 
L 701.170909 347.38549 
L 701.557403 360.585128 
L 701.943896 364.308925 
L 702.33039 346.454649 
L 703.48987 354.414349 
L 703.876364 334.771426 
L 704.262857 340.963876 
L 705.035844 338.932027 
L 706.195325 363.696331 
L 706.581818 365.239735 
L 706.968312 312.461056 
L 707.354805 320.054613 
L 707.741299 338.551606 
L 708.900779 353.572512 
L 709.287273 333.69049 
L 709.673766 290.772546 
L 710.06026 325.405365 
L 710.446753 329.223702 
L 711.606234 309.221588 
L 711.992727 360.651534 
L 712.379221 238.104279 
L 712.765714 340.490578 
L 713.152208 307.566538 
L 714.311688 364.835174 
L 714.698182 341.518934 
L 715.084675 281.553719 
L 715.471169 292.102285 
L 715.857662 265.393647 
L 717.017143 198.832676 
L 717.403636 311.650373 
L 717.79013 325.866835 
L 718.176623 241.692099 
L 718.563117 343.266269 
L 719.722597 369.151173 
L 720.109091 275.739543 
L 720.495584 347.999042 
L 720.882078 279.679013 
L 721.268571 358.249512 
L 722.428052 315.15707 
L 722.814545 358.256759 
L 723.201039 345.676995 
L 723.587532 319.094272 
L 723.974026 305.388543 
L 725.133506 351.686189 
L 725.52 360.457581 
L 725.906494 335.79305 
L 726.292987 369.171887 
L 726.679481 313.099056 
L 728.225455 249.557309 
L 728.611948 360.40246 
L 728.998442 352.448908 
L 729.384935 271.795071 
L 730.544416 304.852825 
L 730.930909 344.376834 
L 731.317403 309.925693 
L 731.703896 327.533827 
L 732.09039 339.161246 
L 733.636364 367.909902 
L 734.022857 353.132996 
L 734.409351 275.027278 
L 734.795844 358.50168 
L 735.955325 353.667048 
L 736.341818 355.333915 
L 736.728312 358.949808 
L 737.114805 346.799432 
L 737.501299 362.363255 
L 738.660779 345.694511 
L 739.047273 316.880633 
L 739.433766 368.616754 
L 739.82026 359.959364 
L 740.206753 319.333479 
L 741.366234 315.398351 
L 741.752727 315.33987 
L 742.139221 329.659271 
L 742.525714 357.776479 
L 742.912208 335.570819 
L 744.071688 326.352809 
L 744.458182 326.574519 
L 744.844675 343.224926 
L 745.231169 368.432889 
L 745.617662 347.173566 
L 746.777143 359.165446 
L 747.163636 366.72977 
L 747.163636 366.72977 
" clip-path="url(#p4b71f25557)" style="fill: none; stroke: #000000; stroke-width: 1.5; stroke-linecap: square"/>
   </g>
   <g id="line2d_18">
    <path d="M 138.436364 283.392688 
L 138.822857 293.361956 
L 139.209351 297.409915 
L 140.755325 297.113744 
L 141.141818 300.828748 
L 141.528312 295.54637 
L 141.914805 300.148214 
L 142.301299 294.588816 
L 143.460779 293.17712 
L 144.233766 304.593747 
L 144.62026 312.292708 
L 145.006753 308.509104 
L 146.166234 309.265049 
L 146.552727 314.466477 
L 146.939221 317.109625 
L 147.325714 321.785235 
L 147.712208 318.019974 
L 148.871688 310.629704 
L 149.644675 317.414723 
L 150.031169 319.59482 
L 150.417662 320.144162 
L 151.577143 321.13561 
L 151.963636 323.631139 
L 152.35013 328.081037 
L 152.736623 331.010779 
L 153.123117 335.234279 
L 154.282597 332.716727 
L 154.669091 332.555845 
L 155.055584 328.062843 
L 155.442078 330.164898 
L 155.828571 327.536888 
L 156.988052 322.377344 
L 157.374545 324.944117 
L 157.761039 332.396923 
L 158.147532 325.001192 
L 158.534026 330.68805 
L 159.693506 333.413332 
L 160.08 333.05349 
L 160.466494 335.408746 
L 160.852987 334.336083 
L 161.239481 330.97209 
L 162.398961 333.677346 
L 162.785455 325.589117 
L 163.171948 324.968131 
L 163.558442 328.56242 
L 163.944935 305.65678 
L 165.490909 282.154258 
L 165.877403 281.41731 
L 166.263896 289.777315 
L 166.65039 290.909971 
L 167.80987 295.123579 
L 168.582857 315.327851 
L 169.355844 308.734048 
L 170.515325 302.81194 
L 170.901818 298.800852 
L 171.288312 302.00483 
L 171.674805 296.338123 
L 172.061299 295.248178 
L 173.220779 297.2017 
L 173.607273 301.488457 
L 173.993766 295.5921 
L 174.38026 299.662183 
L 174.766753 302.344012 
L 175.926234 294.063825 
L 176.312727 301.679342 
L 176.699221 299.129515 
L 177.085714 303.156231 
L 177.472208 309.263339 
L 178.631688 315.496953 
L 179.018182 316.134851 
L 180.177662 302.856128 
L 181.337143 302.008342 
L 181.723636 298.039175 
L 182.11013 300.447437 
L 182.496623 297.322909 
L 182.883117 304.705365 
L 184.042597 310.38958 
L 184.815584 297.544616 
L 185.202078 281.931259 
L 185.588571 282.301908 
L 186.748052 272.242805 
L 187.521039 292.544704 
L 188.294026 315.180824 
L 189.453506 316.248313 
L 189.84 321.820407 
L 190.226494 319.85198 
L 190.612987 327.661504 
L 190.999481 325.973766 
L 192.158961 321.619213 
L 192.545455 322.81631 
L 193.318442 307.822342 
L 193.704935 307.693152 
L 194.864416 299.821697 
L 195.250909 302.695445 
L 195.637403 309.36573 
L 196.41039 301.868288 
L 197.56987 305.687868 
L 197.956364 309.312186 
L 198.342857 316.914382 
L 198.729351 318.988778 
L 199.115844 312.967726 
L 200.275325 318.539237 
L 200.661818 315.495782 
L 201.048312 320.938791 
L 201.434805 319.433218 
L 201.821299 311.751478 
L 202.980779 308.603479 
L 203.367273 306.05049 
L 203.753766 312.968696 
L 204.14026 323.729292 
L 204.526753 327.197164 
L 205.686234 326.655219 
L 206.072727 320.28013 
L 206.459221 316.104604 
L 206.845714 325.8294 
L 208.778182 338.462066 
L 209.164675 329.467358 
L 209.551169 329.818469 
L 211.097143 341.174769 
L 211.483636 327.975203 
L 211.87013 326.746101 
L 212.643117 331.722083 
L 213.802597 338.878645 
L 214.189091 326.056938 
L 214.575584 327.077831 
L 214.962078 335.898683 
L 215.348571 330.475208 
L 216.894545 328.322657 
L 217.281039 326.651696 
L 217.667532 333.90194 
L 218.054026 334.628949 
L 219.6 326.722135 
L 219.986494 321.641932 
L 220.759481 301.166363 
L 221.918961 294.075989 
L 222.305455 295.702876 
L 223.078442 312.661384 
L 223.464935 322.59818 
L 224.624416 339.89485 
L 225.010909 337.335613 
L 225.397403 333.046076 
L 225.783896 325.838972 
L 226.17039 326.654524 
L 227.716364 329.151701 
L 228.102857 316.750002 
L 228.489351 309.420759 
L 228.875844 307.08369 
L 230.035325 304.020649 
L 230.421818 303.773294 
L 230.808312 307.235583 
L 231.194805 312.639483 
L 231.581299 305.010474 
L 232.740779 290.922418 
L 233.127273 302.455366 
L 233.513766 307.857893 
L 233.90026 305.704455 
L 234.286753 302.505508 
L 235.446234 303.376971 
L 235.832727 307.010662 
L 236.605714 319.489576 
L 236.992208 323.4698 
L 238.151688 327.13801 
L 238.538182 330.506515 
L 238.924675 323.499028 
L 239.311169 327.368055 
L 240.857143 308.095735 
L 241.63013 312.951257 
L 242.016623 304.279933 
L 242.403117 307.571927 
L 243.562597 316.175856 
L 243.949091 311.083366 
L 244.335584 309.444213 
L 244.722078 316.455701 
L 246.268052 326.324916 
L 246.654545 331.736526 
L 247.041039 322.387905 
L 247.427532 326.00042 
L 247.814026 336.019519 
L 248.973506 337.555505 
L 249.36 326.42672 
L 249.746494 330.612351 
L 250.132987 325.601701 
L 250.519481 330.916601 
L 251.678961 332.969115 
L 252.065455 323.725827 
L 252.451948 320.532923 
L 252.838442 323.20627 
L 253.224935 322.457386 
L 254.384416 323.889649 
L 254.770909 325.325937 
L 255.157403 319.431873 
L 255.543896 319.896364 
L 255.93039 331.097895 
L 257.08987 324.316039 
L 257.476364 324.627757 
L 257.862857 325.583523 
L 258.249351 326.183351 
L 258.635844 333.412101 
L 259.795325 336.274492 
L 260.181818 329.093013 
L 260.954805 306.822596 
L 261.341299 305.2502 
L 262.500779 317.596718 
L 262.887273 317.35531 
L 263.273766 310.110795 
L 263.66026 307.19954 
L 264.046753 314.583599 
L 265.206234 323.877317 
L 265.592727 325.813057 
L 265.979221 323.63055 
L 266.365714 323.908809 
L 266.752208 333.845221 
L 268.298182 336.787163 
L 268.684675 324.503292 
L 269.071169 328.467562 
L 269.457662 322.528363 
L 270.617143 327.715564 
L 271.003636 320.394074 
L 271.39013 322.644795 
L 271.776623 317.032611 
L 272.163117 322.845669 
L 273.322597 337.554717 
L 273.709091 336.953588 
L 274.095584 331.196402 
L 274.868571 325.506744 
L 276.028052 326.298404 
L 276.414545 319.316551 
L 276.801039 333.18096 
L 277.187532 328.045111 
L 277.574026 338.876045 
L 278.733506 343.355889 
L 279.12 341.106998 
L 279.506494 344.710552 
L 279.892987 340.373 
L 280.279481 341.595019 
L 281.825455 342.609134 
L 282.211948 330.944322 
L 282.598442 334.161788 
L 282.984935 328.165892 
L 284.144416 327.436707 
L 284.530909 334.724449 
L 284.917403 325.48745 
L 285.303896 326.880699 
L 285.69039 326.557181 
L 286.84987 322.198236 
L 287.236364 315.097901 
L 287.622857 312.964884 
L 288.009351 324.616221 
L 288.395844 331.28497 
L 289.555325 333.148919 
L 289.941818 330.275397 
L 290.714805 321.960668 
L 291.101299 332.053335 
L 292.260779 326.105658 
L 292.647273 316.849904 
L 293.033766 322.056982 
L 293.42026 322.974557 
L 293.806753 329.646363 
L 294.966234 335.05303 
L 295.352727 326.350526 
L 295.739221 332.542784 
L 296.512208 339.301978 
L 297.671688 340.018974 
L 298.058182 336.581434 
L 298.831169 324.556752 
L 299.217662 322.599581 
L 300.377143 329.824225 
L 300.763636 334.672443 
L 301.536623 335.88016 
L 301.923117 332.786165 
L 303.082597 340.835415 
L 303.469091 347.527769 
L 303.855584 334.464774 
L 304.242078 339.616044 
L 304.628571 340.962162 
L 306.174545 332.812808 
L 306.561039 332.268305 
L 306.947532 323.977667 
L 307.334026 324.97507 
L 308.493506 321.212745 
L 308.88 318.227996 
L 309.266494 324.290702 
L 309.652987 328.306497 
L 310.039481 328.912006 
L 311.198961 326.696966 
L 311.585455 316.164762 
L 311.971948 309.182757 
L 312.358442 318.035967 
L 312.744935 335.367725 
L 313.904416 335.366601 
L 314.290909 326.907865 
L 314.677403 324.154281 
L 315.063896 320.544361 
L 315.45039 323.248847 
L 316.60987 324.04115 
L 316.996364 316.030459 
L 317.382857 313.986823 
L 318.155844 326.717774 
L 319.315325 324.819192 
L 320.088312 315.907642 
L 320.474805 322.981822 
L 320.861299 332.602916 
L 322.020779 337.554947 
L 322.407273 331.550582 
L 322.793766 335.62801 
L 323.18026 337.349356 
L 323.566753 338.208644 
L 324.726234 329.783364 
L 325.112727 327.881823 
L 325.499221 329.490626 
L 325.885714 321.479198 
L 326.272208 325.172895 
L 327.431688 328.973533 
L 327.818182 324.55923 
L 328.204675 331.256172 
L 328.591169 333.978306 
L 328.977662 338.02702 
L 330.137143 338.669155 
L 330.523636 330.91107 
L 331.296623 322.193107 
L 331.683117 323.468833 
L 332.842597 334.631327 
L 333.229091 327.43565 
L 333.615584 338.773438 
L 334.002078 332.964132 
L 334.388571 339.518819 
L 335.548052 333.693196 
L 335.934545 328.658164 
L 336.321039 331.613785 
L 337.094026 336.212195 
L 338.253506 317.674012 
L 338.64 299.824102 
L 339.026494 293.199531 
L 339.412987 280.950818 
L 339.799481 292.298335 
L 340.958961 283.91551 
L 341.345455 294.223 
L 342.118442 322.645462 
L 342.504935 322.302948 
L 343.664416 330.21792 
L 344.050909 329.256408 
L 344.437403 323.863028 
L 344.823896 326.619217 
L 346.756364 299.212303 
L 347.142857 301.560822 
L 347.529351 308.241782 
L 349.075325 316.468263 
L 349.461818 315.699593 
L 349.848312 314.498098 
L 350.234805 318.766754 
L 350.621299 321.185575 
L 351.780779 316.131107 
L 352.167273 317.667403 
L 352.553766 315.750228 
L 353.326753 302.736242 
L 354.872727 300.190362 
L 355.645714 314.26076 
L 356.032208 311.519386 
L 357.578182 310.437552 
L 357.964675 309.087435 
L 358.351169 300.814801 
L 358.737662 297.66988 
L 359.897143 284.937875 
L 360.283636 287.530954 
L 360.67013 285.076228 
L 361.056623 280.728811 
L 361.443117 286.9136 
L 362.602597 293.105946 
L 363.375584 314.303956 
L 363.762078 329.067809 
L 364.148571 323.457922 
L 365.308052 324.379612 
L 365.694545 319.666437 
L 366.081039 325.538404 
L 366.467532 328.360266 
L 366.854026 317.187508 
L 368.013506 294.083601 
L 368.4 284.110459 
L 368.786494 293.993784 
L 369.172987 300.007078 
L 369.559481 292.016982 
L 371.105455 271.30093 
L 371.491948 274.495079 
L 371.878442 274.302457 
L 372.264935 286.873605 
L 373.424416 289.858247 
L 373.810909 279.328448 
L 374.197403 276.341973 
L 374.583896 289.673921 
L 374.97039 289.425394 
L 376.12987 281.619698 
L 376.902857 266.040812 
L 377.289351 277.068517 
L 377.675844 282.019176 
L 378.835325 278.279407 
L 379.221818 278.591585 
L 379.994805 304.394499 
L 380.381299 314.593964 
L 381.540779 317.795064 
L 381.927273 309.496933 
L 382.313766 314.53334 
L 382.70026 313.810624 
L 383.086753 315.198786 
L 384.246234 320.731723 
L 384.632727 318.312191 
L 385.019221 324.673196 
L 385.792208 309.729428 
L 386.951688 309.029353 
L 387.338182 312.671211 
L 387.724675 311.779987 
L 388.111169 303.134067 
L 388.497662 304.645139 
L 389.657143 299.005835 
L 390.043636 292.903665 
L 390.43013 289.63827 
L 390.816623 301.831011 
L 392.362597 303.15647 
L 392.749091 299.603059 
L 393.135584 307.266033 
L 393.522078 308.181803 
L 393.908571 310.292605 
L 395.068052 295.823765 
L 395.454545 293.295744 
L 395.841039 279.898408 
L 396.227532 278.370816 
L 396.614026 285.082974 
L 397.773506 251.987343 
L 398.16 254.935224 
L 398.546494 277.174624 
L 398.932987 292.431506 
L 400.478961 265.486095 
L 400.865455 252.937026 
L 401.251948 262.054142 
L 401.638442 262.509888 
L 402.024935 253.488022 
L 403.184416 257.413138 
L 403.570909 261.566052 
L 403.957403 279.058755 
L 404.73039 258.033289 
L 405.88987 256.806922 
L 406.276364 274.203895 
L 406.662857 265.322486 
L 407.049351 274.648884 
L 407.435844 280.885166 
L 408.981818 284.829184 
L 409.368312 284.040334 
L 409.754805 282.502692 
L 410.141299 290.451789 
L 411.300779 283.614269 
L 411.687273 293.629357 
L 412.073766 300.115091 
L 412.46026 299.103264 
L 412.846753 292.643243 
L 414.006234 271.317792 
L 414.392727 240.481016 
L 414.779221 223.818856 
L 415.165714 249.749144 
L 415.552208 236.039406 
L 417.098182 239.19777 
L 417.484675 261.456873 
L 417.871169 254.768208 
L 418.257662 276.480665 
L 419.417143 281.898511 
L 419.803636 275.458183 
L 420.19013 274.980367 
L 420.576623 270.341583 
L 420.963117 269.401575 
L 422.509091 274.664977 
L 422.895584 282.594298 
L 423.668571 293.360488 
L 424.828052 281.039402 
L 425.601039 276.158067 
L 425.987532 277.766966 
L 426.374026 288.463216 
L 427.533506 297.067706 
L 427.92 295.452349 
L 429.079481 314.003685 
L 430.238961 311.748266 
L 430.625455 309.805506 
L 431.011948 309.860239 
L 431.398442 312.900774 
L 431.784935 319.472822 
L 432.944416 320.679818 
L 433.330909 310.688293 
L 433.717403 303.880668 
L 434.103896 307.498573 
L 434.49039 307.682484 
L 435.64987 301.987999 
L 436.036364 299.296016 
L 436.422857 298.4112 
L 436.809351 306.033231 
L 437.195844 307.425617 
L 438.355325 308.419942 
L 439.128312 313.502886 
L 439.514805 313.12712 
L 439.901299 316.857998 
L 441.060779 312.381685 
L 441.833766 289.438331 
L 442.606753 306.341098 
L 443.766234 296.170445 
L 444.152727 280.849184 
L 444.539221 280.50283 
L 444.925714 283.95536 
L 445.312208 295.719318 
L 446.858182 290.795789 
L 447.244675 285.859416 
L 448.017662 305.685133 
L 449.177143 313.015951 
L 449.563636 314.2989 
L 449.95013 301.146385 
L 450.336623 294.58191 
L 450.723117 292.362305 
L 451.882597 279.81396 
L 452.269091 287.878239 
L 452.655584 283.652684 
L 453.042078 277.56186 
L 453.428571 276.226566 
L 454.588052 261.956415 
L 454.974545 263.9943 
L 455.361039 262.43362 
L 455.747532 278.615487 
L 457.293506 260.732571 
L 457.68 275.845216 
L 458.066494 285.590662 
L 458.452987 283.48507 
L 458.839481 282.172779 
L 460.385455 262.554901 
L 460.771948 259.32098 
L 461.158442 269.332257 
L 461.544935 285.372847 
L 462.704416 270.586864 
L 463.477403 288.042532 
L 463.863896 284.717679 
L 464.25039 285.350706 
L 465.40987 289.618611 
L 466.182857 300.149789 
L 466.955844 293.19365 
L 468.115325 297.087902 
L 468.888312 292.907998 
L 469.274805 294.963535 
L 469.661299 293.498513 
L 470.820779 295.427196 
L 471.207273 302.205264 
L 471.593766 305.024588 
L 471.98026 297.427099 
L 472.366753 294.952161 
L 473.526234 293.06599 
L 473.912727 288.678978 
L 474.299221 293.186481 
L 475.072208 284.611897 
L 476.231688 287.449837 
L 476.618182 286.052159 
L 477.004675 295.056654 
L 477.777662 298.400101 
L 478.937143 288.67219 
L 479.323636 287.807318 
L 479.71013 284.677139 
L 480.096623 293.636653 
L 482.029091 281.338569 
L 482.802078 268.673069 
L 483.188571 283.892132 
L 484.348052 295.048319 
L 484.734545 302.798677 
L 485.121039 306.144372 
L 485.507532 305.952365 
L 485.894026 302.860259 
L 487.053506 292.282987 
L 487.44 292.092455 
L 488.212987 310.844334 
L 488.599481 310.860983 
L 490.145455 306.783408 
L 490.531948 303.455057 
L 490.918442 301.379149 
L 491.304935 305.910498 
L 492.850909 303.785553 
L 493.237403 299.573753 
L 493.623896 304.89181 
L 494.01039 304.868469 
L 495.16987 307.53778 
L 495.556364 302.476168 
L 495.942857 306.123281 
L 496.329351 313.856029 
L 496.715844 316.999667 
L 498.261818 325.899363 
L 498.648312 315.71183 
L 499.421299 311.519162 
L 500.580779 315.828005 
L 500.967273 316.440695 
L 501.353766 310.027211 
L 501.74026 306.402456 
L 502.126753 312.412745 
L 503.286234 318.694757 
L 503.672727 312.419164 
L 504.059221 315.732828 
L 504.445714 321.868098 
L 504.832208 325.845508 
L 505.991688 314.94904 
L 506.378182 308.202106 
L 506.764675 312.686037 
L 507.151169 315.089706 
L 507.537662 308.623008 
L 508.697143 307.302132 
L 509.083636 309.950028 
L 509.47013 307.064755 
L 509.856623 311.975671 
L 510.243117 312.146303 
L 512.562078 299.67134 
L 512.948571 306.596923 
L 514.108052 304.392083 
L 514.494545 304.644623 
L 514.881039 306.320475 
L 515.267532 306.240551 
L 515.654026 315.506561 
L 516.813506 329.384837 
L 517.2 325.813422 
L 517.972987 322.314663 
L 518.359481 318.157629 
L 519.518961 302.937347 
L 519.905455 293.650097 
L 520.291948 299.707524 
L 520.678442 297.04965 
L 521.064935 301.867817 
L 522.224416 294.11155 
L 522.610909 300.616124 
L 522.997403 311.132448 
L 523.383896 317.490773 
L 523.77039 314.420871 
L 524.92987 320.740658 
L 525.316364 318.061248 
L 525.702857 318.540283 
L 526.089351 323.173139 
L 526.475844 325.323987 
L 527.635325 327.470434 
L 528.021818 324.797448 
L 528.408312 320.534279 
L 528.794805 313.001892 
L 530.340779 316.766914 
L 530.727273 317.098352 
L 531.113766 312.270202 
L 531.50026 309.737528 
L 531.886753 315.83937 
L 533.046234 317.675576 
L 533.432727 319.543008 
L 533.819221 328.074023 
L 534.205714 324.064794 
L 534.592208 328.988638 
L 535.751688 333.776314 
L 536.138182 332.743501 
L 536.524675 325.852992 
L 536.911169 315.816188 
L 537.297662 321.309154 
L 538.457143 331.610954 
L 538.843636 322.942673 
L 539.23013 323.602287 
L 539.616623 316.922058 
L 540.003117 316.008222 
L 541.162597 319.848723 
L 541.549091 322.98694 
L 541.935584 316.119187 
L 542.322078 318.092353 
L 542.708571 319.157213 
L 543.868052 317.30356 
L 544.254545 322.208646 
L 544.641039 319.724543 
L 545.027532 320.743881 
L 545.414026 329.102737 
L 546.573506 320.332418 
L 546.96 316.399264 
L 547.346494 315.282138 
L 547.732987 309.519848 
L 548.119481 313.649505 
L 549.665455 323.495849 
L 550.051948 320.634349 
L 550.438442 320.262708 
L 550.824935 323.778833 
L 551.984416 339.476328 
L 552.370909 330.073872 
L 552.757403 339.648048 
L 553.143896 334.312764 
L 553.53039 341.318354 
L 554.68987 341.357436 
L 555.462857 332.257594 
L 555.849351 331.563923 
L 556.235844 333.878806 
L 558.168312 321.787233 
L 558.554805 321.443816 
L 558.941299 331.979114 
L 560.100779 329.406792 
L 560.487273 320.728018 
L 560.873766 329.192736 
L 561.26026 323.600023 
L 561.646753 331.693243 
L 562.806234 334.208064 
L 563.579221 328.862837 
L 563.965714 323.623756 
L 564.352208 323.834659 
L 565.511688 318.542572 
L 565.898182 321.598966 
L 566.284675 328.818017 
L 566.671169 332.393888 
L 567.057662 338.061296 
L 568.217143 328.98335 
L 568.603636 337.154174 
L 568.99013 339.974815 
L 569.376623 340.85971 
L 569.763117 331.833107 
L 570.922597 334.346185 
L 571.309091 334.221747 
L 571.695584 335.302388 
L 572.082078 328.83033 
L 573.628052 334.075883 
L 574.014545 337.132486 
L 574.401039 329.561589 
L 574.787532 327.513445 
L 575.174026 316.356937 
L 576.333506 316.346628 
L 576.72 318.18693 
L 577.106494 321.737338 
L 577.492987 317.689114 
L 577.879481 323.997298 
L 579.038961 326.135935 
L 579.425455 334.33646 
L 579.811948 332.309333 
L 580.198442 322.808953 
L 580.584935 321.390294 
L 581.744416 315.737615 
L 582.130909 321.005805 
L 582.517403 320.165716 
L 582.903896 324.852775 
L 583.29039 324.825672 
L 584.44987 325.158332 
L 584.836364 334.296317 
L 585.222857 338.873934 
L 585.609351 339.085316 
L 585.995844 332.214793 
L 587.541818 338.212757 
L 587.928312 331.514002 
L 588.701299 322.532777 
L 589.860779 327.636442 
L 590.247273 328.521411 
L 590.633766 323.643858 
L 591.02026 323.203672 
L 591.406753 333.773514 
L 592.566234 330.270713 
L 592.952727 325.063133 
L 593.725714 319.216929 
L 594.112208 312.566813 
L 595.271688 302.365627 
L 595.658182 307.121567 
L 596.044675 307.181081 
L 596.431169 306.051471 
L 596.817662 312.823485 
L 597.977143 313.226231 
L 598.363636 313.185983 
L 598.75013 314.72302 
L 599.136623 313.394705 
L 599.523117 315.876812 
L 600.682597 321.10805 
L 601.455584 326.023991 
L 601.842078 329.791636 
L 602.228571 328.329023 
L 603.388052 321.112568 
L 603.774545 317.835844 
L 604.161039 319.235293 
L 604.547532 312.634735 
L 604.934026 308.923874 
L 606.093506 301.019969 
L 606.48 299.277294 
L 606.866494 309.718828 
L 607.252987 315.483996 
L 607.639481 310.253579 
L 608.798961 306.407164 
L 609.185455 310.940666 
L 609.571948 326.065228 
L 609.958442 332.563743 
L 610.344935 336.393795 
L 611.504416 340.692272 
L 611.890909 336.908918 
L 612.277403 340.978988 
L 612.663896 337.547377 
L 613.05039 330.645911 
L 614.20987 331.273225 
L 614.596364 319.508854 
L 614.982857 321.605104 
L 615.369351 322.839778 
L 615.755844 321.438193 
L 616.915325 322.733974 
L 617.301818 325.05838 
L 617.688312 320.100596 
L 618.461299 324.251974 
L 619.620779 324.372364 
L 620.007273 319.904526 
L 620.393766 325.044904 
L 620.78026 320.38682 
L 621.166753 324.286011 
L 622.326234 330.593505 
L 622.712727 322.785539 
L 623.099221 320.835094 
L 623.485714 321.996701 
L 623.872208 327.654663 
L 625.031688 332.191179 
L 625.418182 332.725691 
L 626.191169 340.353899 
L 626.577662 341.320962 
L 627.737143 331.160818 
L 628.123636 340.051134 
L 628.51013 337.182522 
L 628.896623 331.056905 
L 629.283117 329.431462 
L 630.829091 330.616779 
L 631.215584 332.005184 
L 631.602078 333.882573 
L 631.988571 335.194502 
L 633.534545 329.022619 
L 633.921039 325.801808 
L 634.307532 324.000678 
L 634.694026 319.181931 
L 635.853506 325.905419 
L 636.24 328.811304 
L 636.626494 323.130834 
L 637.012987 328.493522 
L 637.399481 324.345149 
L 638.945455 332.154491 
L 639.331948 325.489109 
L 639.718442 322.9401 
L 640.104935 326.264672 
L 641.264416 332.048783 
L 641.650909 328.690844 
L 642.037403 333.249002 
L 642.81039 337.773766 
L 643.96987 331.344598 
L 644.356364 335.082437 
L 644.742857 325.553258 
L 645.515844 322.674062 
L 646.675325 329.479005 
L 647.061818 319.582387 
L 647.834805 334.641531 
L 648.221299 333.50434 
L 649.380779 338.939642 
L 649.767273 323.853656 
L 650.54026 317.760366 
L 650.926753 326.129944 
L 652.472727 319.581272 
L 652.859221 313.409683 
L 653.245714 316.052366 
L 653.632208 323.176917 
L 654.791688 327.071323 
L 655.178182 318.54315 
L 655.564675 324.16872 
L 655.951169 320.063398 
L 656.337662 326.428613 
L 657.497143 336.369246 
L 657.883636 324.200991 
L 658.656623 323.884268 
L 659.043117 327.353262 
L 660.202597 321.324583 
L 660.589091 312.169897 
L 660.975584 318.217199 
L 661.362078 319.124875 
L 661.748571 317.858429 
L 662.908052 318.987024 
L 663.294545 322.937606 
L 663.681039 331.564918 
L 664.067532 336.285043 
L 664.454026 335.859338 
L 665.613506 330.326917 
L 666 327.155566 
L 666.386494 329.250097 
L 666.772987 335.35279 
L 668.318961 337.602461 
L 668.705455 324.054502 
L 669.091948 323.529628 
L 669.478442 324.423587 
L 671.024416 321.775355 
L 671.410909 316.527737 
L 671.797403 326.754673 
L 672.183896 326.520958 
L 672.57039 331.299735 
L 673.72987 327.079927 
L 674.116364 314.511904 
L 674.502857 312.209332 
L 674.889351 313.913861 
L 675.275844 313.605832 
L 676.435325 315.204336 
L 676.821818 316.223654 
L 677.208312 333.61062 
L 677.594805 337.15406 
L 677.981299 330.725543 
L 679.140779 340.760489 
L 679.527273 336.89401 
L 679.913766 335.255569 
L 680.30026 324.153798 
L 680.686753 330.145035 
L 681.846234 335.956926 
L 682.232727 334.95561 
L 682.619221 333.150263 
L 683.005714 324.029361 
L 683.392208 332.417182 
L 684.551688 335.395819 
L 684.938182 323.978365 
L 685.711169 332.325446 
L 686.097662 325.74525 
L 687.257143 327.869333 
L 687.643636 327.168303 
L 688.03013 330.835591 
L 688.803117 325.71857 
L 690.349091 330.070186 
L 690.735584 328.828884 
L 691.122078 320.696711 
L 691.508571 316.414074 
L 692.668052 324.269267 
L 693.054545 330.172713 
L 693.827532 335.851358 
L 694.214026 329.466827 
L 695.373506 330.286883 
L 695.76 336.379016 
L 696.146494 336.207897 
L 696.532987 339.280099 
L 696.919481 341.337538 
L 698.078961 332.775542 
L 698.465455 335.471455 
L 699.238442 338.401666 
L 699.624935 328.904697 
L 700.784416 326.351385 
L 701.170909 320.921134 
L 701.557403 330.648742 
L 701.943896 337.157587 
L 702.33039 338.798123 
L 703.48987 334.558034 
L 703.876364 338.53473 
L 704.262857 344.035624 
L 705.035844 345.196963 
L 706.195325 344.69276 
L 706.581818 339.678134 
L 706.968312 341.647182 
L 707.354805 341.557858 
L 707.741299 332.626463 
L 708.900779 339.330891 
L 709.287273 337.157636 
L 709.673766 339.434013 
L 710.446753 322.559765 
L 711.606234 316.251508 
L 711.992727 317.816331 
L 712.379221 320.408917 
L 712.765714 312.873626 
L 713.152208 300.931127 
L 714.311688 306.42814 
L 714.698182 315.249107 
L 715.084675 315.081381 
L 715.471169 316.429147 
L 715.857662 313.979491 
L 717.017143 297.03137 
L 717.403636 253.536521 
L 718.176623 265.323601 
L 718.563117 282.376299 
L 719.722597 289.088939 
L 720.109091 296.788942 
L 720.495584 307.098282 
L 720.882078 334.260623 
L 721.268571 342.14065 
L 722.428052 343.997777 
L 722.814545 339.522052 
L 723.201039 326.839763 
L 723.587532 324.845986 
L 723.974026 316.189875 
L 725.133506 313.605426 
L 725.52 307.364996 
L 725.906494 306.859094 
L 726.292987 301.705156 
L 726.679481 298.078243 
L 728.225455 305.95986 
L 728.611948 301.907364 
L 728.998442 294.14844 
L 729.384935 297.239986 
L 730.544416 286.664345 
L 730.930909 300.13462 
L 731.317403 308.045779 
L 731.703896 312.623289 
L 732.09039 324.166044 
L 733.24987 333.487927 
L 733.636364 330.896908 
L 734.022857 334.572285 
L 734.409351 324.792353 
L 734.795844 329.375662 
L 735.955325 324.187796 
L 736.341818 320.938606 
L 736.728312 328.09728 
L 737.114805 322.832267 
L 737.501299 328.81281 
L 738.660779 323.054038 
L 739.047273 317.442123 
L 739.433766 316.376096 
L 739.82026 312.299093 
L 741.366234 313.157603 
L 741.752727 310.439178 
L 742.139221 312.190278 
L 742.525714 321.469803 
L 742.912208 318.730341 
L 744.071688 326.096862 
L 744.458182 330.790926 
L 744.844675 326.221923 
L 745.231169 331.587526 
L 745.617662 327.582618 
L 746.777143 338.662398 
L 747.163636 332.145598 
L 747.163636 332.145598 
" clip-path="url(#p4b71f25557)" style="fill: none; stroke: #1f77b4; stroke-width: 1.5; stroke-linecap: square"/>
   </g>
   <g id="patch_3">
    <path d="M 108 384.48 
L 108 51.84 
" style="fill: none; stroke: #000000; stroke-width: 0.8; stroke-linejoin: miter; stroke-linecap: square"/>
   </g>
   <g id="patch_4">
    <path d="M 777.6 384.48 
L 777.6 51.84 
" style="fill: none; stroke: #000000; stroke-width: 0.8; stroke-linejoin: miter; stroke-linecap: square"/>
   </g>
   <g id="patch_5">
    <path d="M 108 384.48 
L 777.6 384.48 
" style="fill: none; stroke: #000000; stroke-width: 0.8; stroke-linejoin: miter; stroke-linecap: square"/>
   </g>
   <g id="patch_6">
    <path d="M 108 51.84 
L 777.6 51.84 
" style="fill: none; stroke: #000000; stroke-width: 0.8; stroke-linejoin: miter; stroke-linecap: square"/>
   </g>
   <g id="text_19">
    <!-- Volatility Prediction with LSTM MDN v1 -->
    <g transform="translate(327.174375 45.84) scale(0.12 -0.12)">
     <defs>
      <path id="DejaVuSans-20" transform="scale(0.015625)"/>
      <path id="DejaVuSans-50" d="M 1259 4147 
L 1259 2394 
L 2053 2394 
Q 2494 2394 2734 2622 
Q 2975 2850 2975 3272 
Q 2975 3691 2734 3919 
Q 2494 4147 2053 4147 
L 1259 4147 
z
M 628 4666 
L 2053 4666 
Q 2838 4666 3239 4311 
Q 3641 3956 3641 3272 
Q 3641 2581 3239 2228 
Q 2838 1875 2053 1875 
L 1259 1875 
L 1259 0 
L 628 0 
L 628 4666 
z
" transform="scale(0.015625)"/>
      <path id="DejaVuSans-72" d="M 2631 2963 
Q 2534 3019 2420 3045 
Q 2306 3072 2169 3072 
Q 1681 3072 1420 2755 
Q 1159 2438 1159 1844 
L 1159 0 
L 581 0 
L 581 3500 
L 1159 3500 
L 1159 2956 
Q 1341 3275 1631 3429 
Q 1922 3584 2338 3584 
Q 2397 3584 2469 3576 
Q 2541 3569 2628 3553 
L 2631 2963 
z
" transform="scale(0.015625)"/>
      <path id="DejaVuSans-64" d="M 2906 2969 
L 2906 4863 
L 3481 4863 
L 3481 0 
L 2906 0 
L 2906 525 
Q 2725 213 2448 61 
Q 2172 -91 1784 -91 
Q 1150 -91 751 415 
Q 353 922 353 1747 
Q 353 2572 751 3078 
Q 1150 3584 1784 3584 
Q 2172 3584 2448 3432 
Q 2725 3281 2906 2969 
z
M 947 1747 
Q 947 1113 1208 752 
Q 1469 391 1925 391 
Q 2381 391 2643 752 
Q 2906 1113 2906 1747 
Q 2906 2381 2643 2742 
Q 2381 3103 1925 3103 
Q 1469 3103 1208 2742 
Q 947 2381 947 1747 
z
" transform="scale(0.015625)"/>
      <path id="DejaVuSans-63" d="M 3122 3366 
L 3122 2828 
Q 2878 2963 2633 3030 
Q 2388 3097 2138 3097 
Q 1578 3097 1268 2742 
Q 959 2388 959 1747 
Q 959 1106 1268 751 
Q 1578 397 2138 397 
Q 2388 397 2633 464 
Q 2878 531 3122 666 
L 3122 134 
Q 2881 22 2623 -34 
Q 2366 -91 2075 -91 
Q 1284 -91 818 406 
Q 353 903 353 1747 
Q 353 2603 823 3093 
Q 1294 3584 2113 3584 
Q 2378 3584 2631 3529 
Q 2884 3475 3122 3366 
z
" transform="scale(0.015625)"/>
      <path id="DejaVuSans-6e" d="M 3513 2113 
L 3513 0 
L 2938 0 
L 2938 2094 
Q 2938 2591 2744 2837 
Q 2550 3084 2163 3084 
Q 1697 3084 1428 2787 
Q 1159 2491 1159 1978 
L 1159 0 
L 581 0 
L 581 3500 
L 1159 3500 
L 1159 2956 
Q 1366 3272 1645 3428 
Q 1925 3584 2291 3584 
Q 2894 3584 3203 3211 
Q 3513 2838 3513 2113 
z
" transform="scale(0.015625)"/>
      <path id="DejaVuSans-77" d="M 269 3500 
L 844 3500 
L 1563 769 
L 2278 3500 
L 2956 3500 
L 3675 769 
L 4391 3500 
L 4966 3500 
L 4050 0 
L 3372 0 
L 2619 2869 
L 1863 0 
L 1184 0 
L 269 3500 
z
" transform="scale(0.015625)"/>
      <path id="DejaVuSans-68" d="M 3513 2113 
L 3513 0 
L 2938 0 
L 2938 2094 
Q 2938 2591 2744 2837 
Q 2550 3084 2163 3084 
Q 1697 3084 1428 2787 
Q 1159 2491 1159 1978 
L 1159 0 
L 581 0 
L 581 4863 
L 1159 4863 
L 1159 2956 
Q 1366 3272 1645 3428 
Q 1925 3584 2291 3584 
Q 2894 3584 3203 3211 
Q 3513 2838 3513 2113 
z
" transform="scale(0.015625)"/>
      <path id="DejaVuSans-4c" d="M 628 4666 
L 1259 4666 
L 1259 531 
L 3531 531 
L 3531 0 
L 628 0 
L 628 4666 
z
" transform="scale(0.015625)"/>
      <path id="DejaVuSans-53" d="M 3425 4513 
L 3425 3897 
Q 3066 4069 2747 4153 
Q 2428 4238 2131 4238 
Q 1616 4238 1336 4038 
Q 1056 3838 1056 3469 
Q 1056 3159 1242 3001 
Q 1428 2844 1947 2747 
L 2328 2669 
Q 3034 2534 3370 2195 
Q 3706 1856 3706 1288 
Q 3706 609 3251 259 
Q 2797 -91 1919 -91 
Q 1588 -91 1214 -16 
Q 841 59 441 206 
L 441 856 
Q 825 641 1194 531 
Q 1563 422 1919 422 
Q 2459 422 2753 634 
Q 3047 847 3047 1241 
Q 3047 1584 2836 1778 
Q 2625 1972 2144 2069 
L 1759 2144 
Q 1053 2284 737 2584 
Q 422 2884 422 3419 
Q 422 4038 858 4394 
Q 1294 4750 2059 4750 
Q 2388 4750 2728 4690 
Q 3069 4631 3425 4513 
z
" transform="scale(0.015625)"/>
      <path id="DejaVuSans-54" d="M -19 4666 
L 3928 4666 
L 3928 4134 
L 2272 4134 
L 2272 0 
L 1638 0 
L 1638 4134 
L -19 4134 
L -19 4666 
z
" transform="scale(0.015625)"/>
      <path id="DejaVuSans-4d" d="M 628 4666 
L 1569 4666 
L 2759 1491 
L 3956 4666 
L 4897 4666 
L 4897 0 
L 4281 0 
L 4281 4097 
L 3078 897 
L 2444 897 
L 1241 4097 
L 1241 0 
L 628 0 
L 628 4666 
z
" transform="scale(0.015625)"/>
      <path id="DejaVuSans-4e" d="M 628 4666 
L 1478 4666 
L 3547 763 
L 3547 4666 
L 4159 4666 
L 4159 0 
L 3309 0 
L 1241 3903 
L 1241 0 
L 628 0 
L 628 4666 
z
" transform="scale(0.015625)"/>
      <path id="DejaVuSans-76" d="M 191 3500 
L 800 3500 
L 1894 563 
L 2988 3500 
L 3597 3500 
L 2284 0 
L 1503 0 
L 191 3500 
z
" transform="scale(0.015625)"/>
     </defs>
     <use xlink:href="#DejaVuSans-56"/>
     <use xlink:href="#DejaVuSans-6f" transform="translate(60.658203 0)"/>
     <use xlink:href="#DejaVuSans-6c" transform="translate(121.839844 0)"/>
     <use xlink:href="#DejaVuSans-61" transform="translate(149.623047 0)"/>
     <use xlink:href="#DejaVuSans-74" transform="translate(210.902344 0)"/>
     <use xlink:href="#DejaVuSans-69" transform="translate(250.111328 0)"/>
     <use xlink:href="#DejaVuSans-6c" transform="translate(277.894531 0)"/>
     <use xlink:href="#DejaVuSans-69" transform="translate(305.677734 0)"/>
     <use xlink:href="#DejaVuSans-74" transform="translate(333.460938 0)"/>
     <use xlink:href="#DejaVuSans-79" transform="translate(372.669922 0)"/>
     <use xlink:href="#DejaVuSans-20" transform="translate(431.849609 0)"/>
     <use xlink:href="#DejaVuSans-50" transform="translate(463.636719 0)"/>
     <use xlink:href="#DejaVuSans-72" transform="translate(522.189453 0)"/>
     <use xlink:href="#DejaVuSans-65" transform="translate(561.052734 0)"/>
     <use xlink:href="#DejaVuSans-64" transform="translate(622.576172 0)"/>
     <use xlink:href="#DejaVuSans-69" transform="translate(686.052734 0)"/>
     <use xlink:href="#DejaVuSans-63" transform="translate(713.835938 0)"/>
     <use xlink:href="#DejaVuSans-74" transform="translate(768.816406 0)"/>
     <use xlink:href="#DejaVuSans-69" transform="translate(808.025391 0)"/>
     <use xlink:href="#DejaVuSans-6f" transform="translate(835.808594 0)"/>
     <use xlink:href="#DejaVuSans-6e" transform="translate(896.990234 0)"/>
     <use xlink:href="#DejaVuSans-20" transform="translate(960.369141 0)"/>
     <use xlink:href="#DejaVuSans-77" transform="translate(992.15625 0)"/>
     <use xlink:href="#DejaVuSans-69" transform="translate(1073.943359 0)"/>
     <use xlink:href="#DejaVuSans-74" transform="translate(1101.726562 0)"/>
     <use xlink:href="#DejaVuSans-68" transform="translate(1140.935547 0)"/>
     <use xlink:href="#DejaVuSans-20" transform="translate(1204.314453 0)"/>
     <use xlink:href="#DejaVuSans-4c" transform="translate(1236.101562 0)"/>
     <use xlink:href="#DejaVuSans-53" transform="translate(1291.814453 0)"/>
     <use xlink:href="#DejaVuSans-54" transform="translate(1355.291016 0)"/>
     <use xlink:href="#DejaVuSans-4d" transform="translate(1416.375 0)"/>
     <use xlink:href="#DejaVuSans-20" transform="translate(1502.654297 0)"/>
     <use xlink:href="#DejaVuSans-4d" transform="translate(1534.441406 0)"/>
     <use xlink:href="#DejaVuSans-44" transform="translate(1620.720703 0)"/>
     <use xlink:href="#DejaVuSans-4e" transform="translate(1697.722656 0)"/>
     <use xlink:href="#DejaVuSans-20" transform="translate(1772.527344 0)"/>
     <use xlink:href="#DejaVuSans-76" transform="translate(1804.314453 0)"/>
     <use xlink:href="#DejaVuSans-31" transform="translate(1863.494141 0)"/>
    </g>
   </g>
   <g id="legend_1">
    <g id="patch_7">
     <path d="M 570.282812 89.19625 
L 770.6 89.19625 
Q 772.6 89.19625 772.6 87.19625 
L 772.6 58.84 
Q 772.6 56.84 770.6 56.84 
L 570.282812 56.84 
Q 568.282812 56.84 568.282812 58.84 
L 568.282812 87.19625 
Q 568.282812 89.19625 570.282812 89.19625 
z
" style="fill: #ffffff; opacity: 0.8; stroke: #cccccc; stroke-linejoin: miter"/>
    </g>
    <g id="line2d_19">
     <path d="M 572.282812 64.938437 
L 582.282812 64.938437 
L 592.282812 64.938437 
" style="fill: none; stroke: #000000; stroke-width: 1.5; stroke-linecap: square"/>
    </g>
    <g id="text_20">
     <!-- Absolute Returns -->
     <g transform="translate(600.282812 68.438437) scale(0.1 -0.1)">
      <defs>
       <path id="DejaVuSans-41" d="M 2188 4044 
L 1331 1722 
L 3047 1722 
L 2188 4044 
z
M 1831 4666 
L 2547 4666 
L 4325 0 
L 3669 0 
L 3244 1197 
L 1141 1197 
L 716 0 
L 50 0 
L 1831 4666 
z
" transform="scale(0.015625)"/>
       <path id="DejaVuSans-62" d="M 3116 1747 
Q 3116 2381 2855 2742 
Q 2594 3103 2138 3103 
Q 1681 3103 1420 2742 
Q 1159 2381 1159 1747 
Q 1159 1113 1420 752 
Q 1681 391 2138 391 
Q 2594 391 2855 752 
Q 3116 1113 3116 1747 
z
M 1159 2969 
Q 1341 3281 1617 3432 
Q 1894 3584 2278 3584 
Q 2916 3584 3314 3078 
Q 3713 2572 3713 1747 
Q 3713 922 3314 415 
Q 2916 -91 2278 -91 
Q 1894 -91 1617 61 
Q 1341 213 1159 525 
L 1159 0 
L 581 0 
L 581 4863 
L 1159 4863 
L 1159 2969 
z
" transform="scale(0.015625)"/>
       <path id="DejaVuSans-73" d="M 2834 3397 
L 2834 2853 
Q 2591 2978 2328 3040 
Q 2066 3103 1784 3103 
Q 1356 3103 1142 2972 
Q 928 2841 928 2578 
Q 928 2378 1081 2264 
Q 1234 2150 1697 2047 
L 1894 2003 
Q 2506 1872 2764 1633 
Q 3022 1394 3022 966 
Q 3022 478 2636 193 
Q 2250 -91 1575 -91 
Q 1294 -91 989 -36 
Q 684 19 347 128 
L 347 722 
Q 666 556 975 473 
Q 1284 391 1588 391 
Q 1994 391 2212 530 
Q 2431 669 2431 922 
Q 2431 1156 2273 1281 
Q 2116 1406 1581 1522 
L 1381 1569 
Q 847 1681 609 1914 
Q 372 2147 372 2553 
Q 372 3047 722 3315 
Q 1072 3584 1716 3584 
Q 2034 3584 2315 3537 
Q 2597 3491 2834 3397 
z
" transform="scale(0.015625)"/>
       <path id="DejaVuSans-75" d="M 544 1381 
L 544 3500 
L 1119 3500 
L 1119 1403 
Q 1119 906 1312 657 
Q 1506 409 1894 409 
Q 2359 409 2629 706 
Q 2900 1003 2900 1516 
L 2900 3500 
L 3475 3500 
L 3475 0 
L 2900 0 
L 2900 538 
Q 2691 219 2414 64 
Q 2138 -91 1772 -91 
Q 1169 -91 856 284 
Q 544 659 544 1381 
z
M 1991 3584 
L 1991 3584 
z
" transform="scale(0.015625)"/>
       <path id="DejaVuSans-52" d="M 2841 2188 
Q 3044 2119 3236 1894 
Q 3428 1669 3622 1275 
L 4263 0 
L 3584 0 
L 2988 1197 
Q 2756 1666 2539 1819 
Q 2322 1972 1947 1972 
L 1259 1972 
L 1259 0 
L 628 0 
L 628 4666 
L 2053 4666 
Q 2853 4666 3247 4331 
Q 3641 3997 3641 3322 
Q 3641 2881 3436 2590 
Q 3231 2300 2841 2188 
z
M 1259 4147 
L 1259 2491 
L 2053 2491 
Q 2509 2491 2742 2702 
Q 2975 2913 2975 3322 
Q 2975 3731 2742 3939 
Q 2509 4147 2053 4147 
L 1259 4147 
z
" transform="scale(0.015625)"/>
      </defs>
      <use xlink:href="#DejaVuSans-41"/>
      <use xlink:href="#DejaVuSans-62" transform="translate(68.408203 0)"/>
      <use xlink:href="#DejaVuSans-73" transform="translate(131.884766 0)"/>
      <use xlink:href="#DejaVuSans-6f" transform="translate(183.984375 0)"/>
      <use xlink:href="#DejaVuSans-6c" transform="translate(245.166016 0)"/>
      <use xlink:href="#DejaVuSans-75" transform="translate(272.949219 0)"/>
      <use xlink:href="#DejaVuSans-74" transform="translate(336.328125 0)"/>
      <use xlink:href="#DejaVuSans-65" transform="translate(375.537109 0)"/>
      <use xlink:href="#DejaVuSans-20" transform="translate(437.060547 0)"/>
      <use xlink:href="#DejaVuSans-52" transform="translate(468.847656 0)"/>
      <use xlink:href="#DejaVuSans-65" transform="translate(533.830078 0)"/>
      <use xlink:href="#DejaVuSans-74" transform="translate(595.353516 0)"/>
      <use xlink:href="#DejaVuSans-75" transform="translate(634.5625 0)"/>
      <use xlink:href="#DejaVuSans-72" transform="translate(697.941406 0)"/>
      <use xlink:href="#DejaVuSans-6e" transform="translate(737.304688 0)"/>
      <use xlink:href="#DejaVuSans-73" transform="translate(800.683594 0)"/>
     </g>
    </g>
    <g id="line2d_20">
     <path d="M 572.282812 79.616562 
L 582.282812 79.616562 
L 592.282812 79.616562 
" style="fill: none; stroke: #1f77b4; stroke-width: 1.5; stroke-linecap: square"/>
    </g>
    <g id="text_21">
     <!-- LSTM MDN v1 Volatility Prediction -->
     <g transform="translate(600.282812 83.116562) scale(0.1 -0.1)">
      <use xlink:href="#DejaVuSans-4c"/>
      <use xlink:href="#DejaVuSans-53" transform="translate(55.712891 0)"/>
      <use xlink:href="#DejaVuSans-54" transform="translate(119.189453 0)"/>
      <use xlink:href="#DejaVuSans-4d" transform="translate(180.273438 0)"/>
      <use xlink:href="#DejaVuSans-20" transform="translate(266.552734 0)"/>
      <use xlink:href="#DejaVuSans-4d" transform="translate(298.339844 0)"/>
      <use xlink:href="#DejaVuSans-44" transform="translate(384.619141 0)"/>
      <use xlink:href="#DejaVuSans-4e" transform="translate(461.621094 0)"/>
      <use xlink:href="#DejaVuSans-20" transform="translate(536.425781 0)"/>
      <use xlink:href="#DejaVuSans-76" transform="translate(568.212891 0)"/>
      <use xlink:href="#DejaVuSans-31" transform="translate(627.392578 0)"/>
      <use xlink:href="#DejaVuSans-20" transform="translate(691.015625 0)"/>
      <use xlink:href="#DejaVuSans-56" transform="translate(722.802734 0)"/>
      <use xlink:href="#DejaVuSans-6f" transform="translate(783.460938 0)"/>
      <use xlink:href="#DejaVuSans-6c" transform="translate(844.642578 0)"/>
      <use xlink:href="#DejaVuSans-61" transform="translate(872.425781 0)"/>
      <use xlink:href="#DejaVuSans-74" transform="translate(933.705078 0)"/>
      <use xlink:href="#DejaVuSans-69" transform="translate(972.914062 0)"/>
      <use xlink:href="#DejaVuSans-6c" transform="translate(1000.697266 0)"/>
      <use xlink:href="#DejaVuSans-69" transform="translate(1028.480469 0)"/>
      <use xlink:href="#DejaVuSans-74" transform="translate(1056.263672 0)"/>
      <use xlink:href="#DejaVuSans-79" transform="translate(1095.472656 0)"/>
      <use xlink:href="#DejaVuSans-20" transform="translate(1154.652344 0)"/>
      <use xlink:href="#DejaVuSans-50" transform="translate(1186.439453 0)"/>
      <use xlink:href="#DejaVuSans-72" transform="translate(1244.992188 0)"/>
      <use xlink:href="#DejaVuSans-65" transform="translate(1283.855469 0)"/>
      <use xlink:href="#DejaVuSans-64" transform="translate(1345.378906 0)"/>
      <use xlink:href="#DejaVuSans-69" transform="translate(1408.855469 0)"/>
      <use xlink:href="#DejaVuSans-63" transform="translate(1436.638672 0)"/>
      <use xlink:href="#DejaVuSans-74" transform="translate(1491.619141 0)"/>
      <use xlink:href="#DejaVuSans-69" transform="translate(1530.828125 0)"/>
      <use xlink:href="#DejaVuSans-6f" transform="translate(1558.611328 0)"/>
      <use xlink:href="#DejaVuSans-6e" transform="translate(1619.792969 0)"/>
     </g>
    </g>
   </g>
  </g>
 </g>
 <defs>
  <clipPath id="p4b71f25557">
   <rect x="108" y="51.84" width="669.6" height="332.64"/>
  </clipPath>
 </defs>
</svg>
