<?xml version="1.0" encoding="utf-8" standalone="no"?>
<!DOCTYPE svg PUBLIC "-//W3C//DTD SVG 1.1//EN"
  "http://www.w3.org/Graphics/SVG/1.1/DTD/svg11.dtd">
<svg xmlns:xlink="http://www.w3.org/1999/xlink" width="864pt" height="432pt" viewBox="0 0 864 432" xmlns="http://www.w3.org/2000/svg" version="1.1">
 <metadata>
  <rdf:RDF xmlns:dc="http://purl.org/dc/elements/1.1/" xmlns:cc="http://creativecommons.org/ns#" xmlns:rdf="http://www.w3.org/1999/02/22-rdf-syntax-ns#">
   <cc:Work>
    <dc:type rdf:resource="http://purl.org/dc/dcmitype/StillImage"/>
    <dc:date>2025-02-16T15:05:03.002812</dc:date>
    <dc:format>image/svg+xml</dc:format>
    <dc:creator>
     <cc:Agent>
      <dc:title>Matplotlib v3.10.0, https://matplotlib.org/</dc:title>
     </cc:Agent>
    </dc:creator>
   </cc:Work>
  </rdf:RDF>
 </metadata>
 <defs>
  <style type="text/css">*{stroke-linejoin: round; stroke-linecap: butt}</style>
 </defs>
 <g id="figure_1">
  <g id="patch_1">
   <path d="M 0 432 
L 864 432 
L 864 0 
L 0 0 
z
" style="fill: #ffffff"/>
  </g>
  <g id="axes_1">
   <g id="patch_2">
    <path d="M 108 384.48 
L 777.6 384.48 
L 777.6 51.84 
L 108 51.84 
z
" style="fill: #ffffff"/>
   </g>
   <g id="FillBetweenPolyCollection_1">
    <path d="M 138.436364 295.953647 
L 138.436364 296.452415 
L 140.944855 296.470923 
L 141.781019 296.668799 
L 142.617183 296.866845 
L 143.453347 296.426328 
L 144.28951 295.784882 
L 146.798002 296.302816 
L 147.634166 296.237811 
L 148.47033 296.461665 
L 149.306494 296.501256 
L 150.142657 296.483811 
L 153.487313 296.610615 
L 154.323477 296.512793 
L 155.15964 296.42168 
L 155.995804 296.359178 
L 158.504296 296.036228 
L 159.34046 296.195369 
L 160.176623 295.330112 
L 161.012787 274.667624 
L 161.848951 279.90113 
L 164.357443 296.576264 
L 165.193606 296.863947 
L 166.02977 296.952304 
L 166.865934 297.019861 
L 167.702098 296.785265 
L 170.210589 296.839411 
L 171.046753 296.727064 
L 171.882917 296.992961 
L 172.719081 296.938981 
L 173.555245 296.92816 
L 176.063736 296.384028 
L 176.8999 293.103974 
L 177.736064 296.906925 
L 178.572228 296.89071 
L 179.408392 296.918611 
L 182.753047 295.135596 
L 183.589211 295.486282 
L 184.425375 295.198107 
L 185.261538 296.583976 
L 187.77003 296.963127 
L 188.606194 295.028391 
L 189.442358 295.579019 
L 190.278521 296.625626 
L 191.114685 294.371165 
L 193.623177 293.814329 
L 194.459341 294.875592 
L 195.295504 285.110405 
L 196.131668 296.641906 
L 196.967832 288.895838 
L 199.476324 292.821609 
L 200.312488 291.815853 
L 201.148651 296.807958 
L 201.984815 296.958425 
L 202.820979 296.873733 
L 205.329471 296.684971 
L 206.165634 295.814298 
L 207.001798 296.789717 
L 207.837962 296.648772 
L 208.674126 296.798029 
L 211.182617 296.77611 
L 212.018781 296.73582 
L 212.854945 297.38994 
L 213.691109 296.310795 
L 214.527273 296.724574 
L 217.035764 296.723367 
L 217.871928 296.705149 
L 218.708092 296.719817 
L 219.544256 296.695201 
L 220.38042 296.921604 
L 222.888911 296.582025 
L 223.725075 296.705583 
L 224.561239 295.471067 
L 225.397403 296.776442 
L 228.742058 296.590549 
L 229.578222 295.772392 
L 230.414386 296.944522 
L 231.250549 296.58224 
L 232.086713 296.856096 
L 234.595205 296.623256 
L 235.431369 296.774941 
L 236.267532 296.407919 
L 237.103696 295.542134 
L 237.93986 296.761079 
L 240.448352 293.116084 
L 241.284515 289.282558 
L 242.120679 295.104356 
L 242.956843 296.9013 
L 243.793007 295.699912 
L 246.301499 237.609278 
L 247.137662 250.580922 
L 247.973826 267.266339 
L 248.80999 257.014127 
L 249.646154 185.827673 
L 252.154645 294.684627 
L 252.990809 260.010096 
L 253.826973 296.682208 
L 254.663137 295.65935 
L 255.499301 276.015142 
L 258.007792 293.242834 
L 258.843956 296.854087 
L 259.68012 294.544518 
L 260.516284 296.733611 
L 261.352448 296.93268 
L 264.697103 296.947623 
L 265.533267 295.676653 
L 266.369431 296.072311 
L 267.205594 296.927901 
L 269.714086 296.443498 
L 270.55025 296.715762 
L 271.386414 296.858112 
L 272.222577 296.517518 
L 273.058741 296.60958 
L 275.567233 295.428979 
L 276.403397 293.230257 
L 277.23956 251.288995 
L 278.075724 295.714669 
L 278.911888 293.427102 
L 282.256543 292.149475 
L 283.092707 296.352754 
L 283.928871 267.521333 
L 284.765035 296.60213 
L 287.273526 296.932241 
L 288.10969 293.901517 
L 288.945854 296.087203 
L 289.782018 282.862887 
L 290.618182 293.309182 
L 293.962837 296.73896 
L 294.799001 296.559405 
L 295.635165 296.697625 
L 296.471329 297.091186 
L 298.97982 291.179771 
L 299.815984 296.384009 
L 300.652148 295.149296 
L 301.488312 292.28481 
L 302.324476 287.20207 
L 304.832967 296.963233 
L 305.669131 295.592958 
L 306.505295 297.03086 
L 307.341459 297.029055 
L 308.177622 296.945916 
L 310.686114 296.270663 
L 311.522278 296.921026 
L 312.358442 296.77188 
L 313.194605 297.126374 
L 314.030769 296.880249 
L 316.539261 296.925766 
L 317.375425 296.405757 
L 318.211588 296.864 
L 319.047752 297.13108 
L 319.883916 296.701765 
L 322.392408 297.059971 
L 323.228571 296.925585 
L 324.064735 296.990499 
L 324.900899 297.397783 
L 325.737063 296.84124 
L 328.245554 296.81318 
L 329.081718 296.650427 
L 329.917882 296.405157 
L 330.754046 296.237312 
L 331.59021 296.396582 
L 334.098701 296.398355 
L 334.934865 296.388495 
L 335.771029 295.836094 
L 336.607193 296.625512 
L 337.443357 296.60319 
L 339.951848 296.521565 
L 340.788012 295.663906 
L 341.624176 295.998451 
L 342.46034 294.920198 
L 343.296503 296.777284 
L 346.641159 296.38124 
L 347.477323 295.701726 
L 348.313487 296.899492 
L 349.14965 296.913777 
L 351.658142 297.054147 
L 352.494306 296.90746 
L 353.33047 296.885233 
L 354.166633 296.678516 
L 355.002797 295.974057 
L 357.511289 291.562616 
L 358.347453 296.648025 
L 359.183616 295.812838 
L 360.01978 295.13681 
L 360.855944 286.048379 
L 363.364436 286.396067 
L 364.200599 281.315594 
L 365.036763 258.11296 
L 365.872927 296.123108 
L 366.709091 292.028338 
L 369.217582 275.689005 
L 370.053746 296.36049 
L 370.88991 296.743555 
L 371.726074 289.91938 
L 372.562238 295.298787 
L 375.070729 292.213261 
L 375.906893 282.688187 
L 376.743057 284.37929 
L 377.579221 274.951705 
L 378.415385 296.751744 
L 380.923876 292.981932 
L 381.76004 296.846969 
L 382.596204 297.031123 
L 383.432368 295.61385 
L 384.268531 295.541763 
L 386.777023 297.28117 
L 387.613187 297.175476 
L 388.449351 296.943899 
L 389.285514 296.676275 
L 390.121678 296.56548 
L 392.63017 297.205584 
L 393.466334 296.792756 
L 394.302498 296.69786 
L 395.138661 296.849555 
L 395.974825 296.430006 
L 398.483317 297.073451 
L 399.319481 296.81422 
L 400.155644 297.172381 
L 400.991808 297.033832 
L 401.827972 297.031851 
L 404.336464 296.989971 
L 405.172627 296.685717 
L 406.008791 297.004691 
L 406.844955 296.784189 
L 407.681119 296.645802 
L 410.18961 297.18239 
L 411.025774 297.017112 
L 411.861938 297.274462 
L 413.534266 297.528466 
L 416.042757 296.249241 
L 416.878921 296.837086 
L 417.715085 296.39795 
L 418.551249 296.879771 
L 419.387413 296.414148 
L 421.895904 296.661467 
L 422.732068 297.130797 
L 423.568232 296.911521 
L 424.404396 296.703276 
L 425.240559 297.16464 
L 427.749051 296.673323 
L 428.585215 297.023491 
L 429.421379 296.868905 
L 430.257542 296.541896 
L 431.093706 296.597916 
L 433.602198 294.9711 
L 434.438362 293.754911 
L 435.274525 296.349694 
L 436.110689 296.949803 
L 436.946853 296.765374 
L 440.291508 296.737875 
L 441.127672 296.428539 
L 441.963836 296.576939 
L 442.8 297.049564 
L 446.144655 296.160604 
L 446.980819 296.575317 
L 447.816983 297.135971 
L 448.653147 296.883519 
L 451.161638 297.167234 
L 451.997802 296.444601 
L 452.833966 297.24323 
L 453.67013 296.851304 
L 454.506294 296.866609 
L 457.850949 296.802176 
L 458.687113 296.583537 
L 459.523277 296.825185 
L 460.359441 296.843619 
L 462.867932 296.961614 
L 463.704096 296.972065 
L 464.54026 296.732062 
L 465.376424 296.766534 
L 466.212587 296.998702 
L 468.721079 296.871108 
L 469.557243 296.71854 
L 470.393407 296.500595 
L 471.22957 296.870548 
L 472.065734 296.625467 
L 474.574226 296.46932 
L 475.41039 296.459806 
L 476.246553 296.492573 
L 477.082717 296.360863 
L 477.918881 296.292073 
L 480.427373 296.472336 
L 481.263536 296.526028 
L 482.0997 296.489512 
L 482.935864 296.521583 
L 483.772028 296.437609 
L 487.116683 296.437068 
L 487.952847 296.513947 
L 488.789011 296.413443 
L 489.625175 296.687816 
L 492.133666 296.524619 
L 492.96983 296.771874 
L 493.805994 296.480014 
L 494.642158 296.392756 
L 495.478322 296.783912 
L 497.986813 296.461004 
L 498.822977 296.443874 
L 499.659141 296.348265 
L 500.495305 296.441124 
L 501.331469 296.698372 
L 503.83996 296.410519 
L 504.676124 290.559491 
L 505.512288 296.560957 
L 506.348452 295.598482 
L 507.184615 296.87918 
L 509.693107 295.975215 
L 510.529271 296.915378 
L 511.365435 296.965645 
L 512.201598 296.905756 
L 513.037762 297.172587 
L 515.546254 297.005995 
L 516.382418 296.917032 
L 517.218581 296.751124 
L 518.054745 296.796957 
L 518.890909 296.697537 
L 521.399401 296.817091 
L 522.235564 296.884793 
L 523.071728 296.266351 
L 523.907892 296.249583 
L 527.252547 296.420771 
L 528.088711 296.513216 
L 528.924875 296.495796 
L 529.761039 296.405772 
L 530.597203 296.357864 
L 533.105694 296.56688 
L 533.941858 296.582226 
L 534.778022 296.595593 
L 535.614186 296.760392 
L 536.45035 296.602506 
L 538.958841 296.720956 
L 539.795005 297.099906 
L 540.631169 296.622845 
L 541.467333 296.606847 
L 542.303497 296.515736 
L 544.811988 296.974965 
L 545.648152 296.871951 
L 546.484316 296.506055 
L 547.32048 296.473281 
L 548.156643 296.601286 
L 550.665135 296.544699 
L 551.501299 296.565864 
L 552.337463 296.438623 
L 553.173626 296.536956 
L 554.00979 296.461818 
L 556.518282 296.502169 
L 557.354446 296.606946 
L 558.190609 296.443114 
L 559.026773 296.562423 
L 559.862937 297.155631 
L 562.371429 296.579141 
L 563.207592 296.65903 
L 564.043756 296.492755 
L 564.87992 296.433221 
L 565.716084 296.547125 
L 569.060739 296.63376 
L 569.896903 296.722836 
L 570.733067 296.559799 
L 571.569231 296.940959 
L 574.077722 298.765983 
L 574.913886 296.670424 
L 575.75005 297.562569 
L 576.586214 297.176671 
L 577.422378 298.037866 
L 579.930869 298.336171 
L 580.767033 298.045373 
L 581.603197 297.759376 
L 582.439361 297.787769 
L 583.275524 298.189309 
L 586.62018 297.438297 
L 587.456344 296.875414 
L 588.292507 296.803111 
L 589.128671 297.866171 
L 591.637163 297.136184 
L 592.473327 296.775736 
L 593.309491 297.206711 
L 594.145654 297.019521 
L 594.981818 297.615543 
L 597.49031 298.078208 
L 599.162637 297.715065 
L 599.998801 296.847128 
L 600.834965 296.664499 
L 603.343457 296.805182 
L 604.17962 296.798912 
L 605.015784 296.99938 
L 605.851948 297.591983 
L 606.688112 297.889321 
L 609.196603 297.165761 
L 610.032767 297.438026 
L 610.868931 297.774735 
L 611.705095 297.768912 
L 612.541259 296.840709 
L 615.04975 297.080293 
L 615.885914 297.518284 
L 616.722078 297.360873 
L 617.558242 296.935636 
L 618.394406 296.629243 
L 620.902897 296.883835 
L 621.739061 297.122778 
L 622.575225 296.760468 
L 623.411389 296.644777 
L 624.247552 296.592168 
L 626.756044 296.577253 
L 627.592208 296.504163 
L 628.428372 296.529307 
L 629.264535 296.449682 
L 630.100699 296.678437 
L 632.609191 296.52123 
L 633.445355 296.640466 
L 634.281518 296.493461 
L 635.117682 296.521151 
L 635.953846 296.602263 
L 638.462338 296.38713 
L 639.298501 296.82411 
L 640.134665 296.727965 
L 640.970829 296.681684 
L 641.806993 296.751776 
L 644.315485 296.653226 
L 645.151648 296.577414 
L 645.987812 298.069658 
L 646.823976 297.989179 
L 647.66014 296.630265 
L 651.004795 297.239074 
L 651.840959 296.695213 
L 652.677123 296.528401 
L 653.513287 296.338371 
L 656.021778 296.540881 
L 656.857942 296.63681 
L 657.694106 296.526717 
L 658.53027 296.579656 
L 659.366434 297.372833 
L 661.874925 296.602437 
L 662.711089 296.632587 
L 663.547253 296.524429 
L 664.383417 296.406786 
L 665.21958 296.545588 
L 667.728072 296.310804 
L 668.564236 296.688119 
L 669.4004 296.821052 
L 670.236563 296.725411 
L 671.072727 296.58196 
L 673.581219 296.382756 
L 674.417383 296.574133 
L 675.253546 296.690923 
L 676.08971 296.749743 
L 676.925874 296.603746 
L 679.434366 296.61196 
L 680.270529 296.535326 
L 681.106693 296.601013 
L 681.942857 296.674531 
L 682.779021 296.551358 
L 685.287512 296.295016 
L 686.123676 296.579522 
L 686.95984 296.357562 
L 687.796004 296.526797 
L 688.632168 296.609983 
L 691.140659 296.639607 
L 691.976823 296.409728 
L 692.812987 297.042278 
L 693.649151 296.963262 
L 694.485315 296.778254 
L 696.993806 296.391521 
L 697.82997 296.95733 
L 698.666134 297.072804 
L 699.502298 296.657199 
L 700.338462 298.150918 
L 702.846953 298.547602 
L 703.683117 297.110713 
L 704.519281 297.55516 
L 705.355445 297.372234 
L 706.191608 296.590066 
L 708.7001 297.252113 
L 709.536264 296.496396 
L 710.372428 297.078236 
L 711.208591 297.38262 
L 712.044755 297.394389 
L 714.553247 297.957565 
L 715.389411 298.67724 
L 716.225574 296.875446 
L 717.897902 298.049857 
L 720.406394 298.565848 
L 721.242557 297.396616 
L 722.078721 297.899296 
L 722.914885 297.275324 
L 723.751049 297.85887 
L 726.25954 298.5106 
L 727.095704 297.493992 
L 727.931868 297.367073 
L 728.768032 297.109947 
L 729.604196 297.481808 
L 732.112687 298.304835 
L 732.948851 298.43914 
L 733.785015 298.450254 
L 734.621179 298.711328 
L 735.457343 298.413381 
L 737.965834 297.653648 
L 738.801998 297.923751 
L 739.638162 298.622293 
L 740.474326 296.857497 
L 741.31049 296.895279 
L 744.655145 297.421998 
L 745.491309 297.946593 
L 746.327473 298.056784 
L 747.163636 298.057474 
L 747.163636 296.089455 
L 747.163636 296.089455 
L 746.327473 296.008489 
L 745.491309 295.988034 
L 744.655145 296.286535 
L 741.31049 296.093091 
L 740.474326 295.977844 
L 739.638162 295.696648 
L 738.801998 295.920598 
L 737.965834 296.209808 
L 735.457343 295.737439 
L 734.621179 295.856762 
L 733.785015 295.745469 
L 732.948851 295.708013 
L 732.112687 295.690939 
L 729.604196 295.945439 
L 728.768032 296.155739 
L 727.931868 296.366353 
L 727.095704 296.070114 
L 726.25954 295.7295 
L 723.751049 295.975667 
L 722.914885 296.106856 
L 722.078721 295.964295 
L 721.242557 296.018689 
L 720.406394 295.700872 
L 717.897902 295.732134 
L 716.225574 295.969135 
L 715.389411 295.809732 
L 714.553247 295.656934 
L 712.044755 295.831008 
L 711.208591 295.823591 
L 710.372428 295.912264 
L 709.536264 295.943934 
L 708.7001 295.754759 
L 706.191608 296.000376 
L 705.355445 295.701031 
L 704.519281 295.607845 
L 703.683117 295.813696 
L 702.846953 296.399878 
L 700.338462 296.183385 
L 699.502298 295.290318 
L 698.666134 295.017682 
L 697.82997 295.049808 
L 696.993806 294.743446 
L 694.485315 295.129365 
L 693.649151 295.054753 
L 692.812987 295.076578 
L 691.976823 295.075806 
L 691.140659 295.218248 
L 688.632168 295.304735 
L 687.796004 295.402913 
L 686.95984 295.741008 
L 686.123676 295.556042 
L 685.287512 295.57561 
L 682.779021 295.984779 
L 681.942857 296.031409 
L 681.106693 295.855161 
L 680.270529 295.541782 
L 679.434366 295.386868 
L 676.925874 295.322409 
L 676.08971 295.221198 
L 675.253546 295.257166 
L 674.417383 295.399409 
L 673.581219 295.495765 
L 671.072727 295.344402 
L 670.236563 295.276366 
L 669.4004 295.161865 
L 668.564236 295.321048 
L 667.728072 295.38989 
L 665.21958 295.381173 
L 664.383417 295.770917 
L 663.547253 295.776228 
L 662.711089 295.817011 
L 661.874925 295.985528 
L 659.366434 295.813642 
L 658.53027 295.851075 
L 657.694106 295.930164 
L 656.857942 295.981122 
L 656.021778 295.710538 
L 653.513287 295.636786 
L 652.677123 295.917872 
L 651.840959 295.997226 
L 651.004795 295.828652 
L 647.66014 296.021818 
L 646.823976 296.196323 
L 645.987812 296.383035 
L 645.151648 295.418185 
L 644.315485 295.309137 
L 641.806993 295.227329 
L 640.970829 295.322112 
L 640.134665 295.263317 
L 639.298501 295.234665 
L 638.462338 295.417271 
L 635.953846 295.352778 
L 635.117682 295.418045 
L 634.281518 295.686653 
L 633.445355 295.938696 
L 632.609191 295.756619 
L 630.100699 295.519198 
L 629.264535 295.627146 
L 628.428372 295.736085 
L 627.592208 295.716117 
L 626.756044 295.41662 
L 624.247552 295.577315 
L 623.411389 295.853829 
L 622.575225 296.026712 
L 621.739061 296.106465 
L 620.902897 295.980201 
L 618.394406 295.99105 
L 617.558242 296.141083 
L 616.722078 296.076208 
L 615.885914 296.003861 
L 615.04975 296.164704 
L 612.541259 295.962831 
L 611.705095 295.880269 
L 610.868931 295.804284 
L 610.032767 295.964451 
L 609.196603 296.043264 
L 606.688112 295.674908 
L 605.851948 295.838264 
L 605.015784 296.012358 
L 604.17962 295.88884 
L 603.343457 295.898414 
L 600.834965 295.982381 
L 599.998801 296.063051 
L 599.162637 295.882753 
L 597.49031 295.532982 
L 594.981818 295.839715 
L 594.145654 296.065087 
L 593.309491 295.893153 
L 592.473327 295.985563 
L 591.637163 295.864643 
L 589.128671 295.790714 
L 588.292507 296.022351 
L 587.456344 296.004915 
L 586.62018 295.958197 
L 583.275524 295.627993 
L 582.439361 295.990914 
L 581.603197 295.828625 
L 580.767033 295.634218 
L 579.930869 295.609075 
L 577.422378 295.666014 
L 576.586214 295.912282 
L 575.75005 295.913613 
L 574.913886 295.988117 
L 574.077722 295.94558 
L 571.569231 295.987273 
L 570.733067 295.912141 
L 569.896903 295.990796 
L 569.060739 295.983347 
L 565.716084 295.499236 
L 564.87992 295.573962 
L 564.043756 295.869654 
L 563.207592 295.947896 
L 562.371429 296.014284 
L 559.862937 295.945779 
L 559.026773 295.961491 
L 558.190609 295.79319 
L 557.354446 295.789955 
L 556.518282 295.795393 
L 554.00979 295.86759 
L 553.173626 295.878402 
L 552.337463 295.855328 
L 551.501299 295.773322 
L 550.665135 295.522217 
L 548.156643 295.362714 
L 547.32048 295.577375 
L 546.484316 295.78414 
L 545.648152 295.944675 
L 544.811988 295.936605 
L 542.303497 295.809097 
L 541.467333 295.58706 
L 540.631169 295.792715 
L 539.795005 296.12604 
L 538.958841 295.934961 
L 536.45035 295.777395 
L 535.614186 295.881912 
L 534.778022 295.922585 
L 533.941858 295.949437 
L 533.105694 295.802616 
L 530.597203 295.889463 
L 529.761039 295.806737 
L 528.924875 295.778768 
L 528.088711 295.815071 
L 527.252547 295.531343 
L 523.907892 295.538256 
L 523.071728 295.633195 
L 522.235564 295.970216 
L 521.399401 295.663988 
L 518.890909 295.320214 
L 518.054745 295.215384 
L 517.218581 295.184113 
L 516.382418 295.131079 
L 515.546254 295.06664 
L 513.037762 294.919548 
L 512.201598 295.054958 
L 511.365435 295.126764 
L 510.529271 294.995863 
L 509.693107 294.336818 
L 507.184615 295.044609 
L 506.348452 293.955257 
L 505.512288 295.193366 
L 504.676124 287.907407 
L 503.83996 295.149701 
L 501.331469 295.291621 
L 500.495305 295.461494 
L 499.659141 295.509489 
L 498.822977 295.679904 
L 497.986813 295.595809 
L 495.478322 295.217412 
L 494.642158 295.471602 
L 493.805994 295.446046 
L 492.96983 295.254192 
L 492.133666 295.398329 
L 489.625175 295.309599 
L 488.789011 295.393458 
L 487.952847 295.399862 
L 487.116683 295.57507 
L 483.772028 295.823454 
L 482.935864 295.850772 
L 482.0997 295.79132 
L 481.263536 295.751204 
L 480.427373 295.528792 
L 477.918881 295.664795 
L 477.082717 295.834339 
L 476.246553 295.829748 
L 475.41039 295.825321 
L 474.574226 296.00811 
L 472.065734 296.014281 
L 471.22957 295.944205 
L 470.393407 295.469326 
L 469.557243 295.266922 
L 468.721079 295.164848 
L 466.212587 295.068651 
L 465.376424 295.070913 
L 464.54026 295.067696 
L 463.704096 295.071246 
L 462.867932 295.048215 
L 460.359441 295.024777 
L 459.523277 295.153493 
L 458.687113 295.275473 
L 457.850949 295.304692 
L 454.506294 295.16263 
L 453.67013 295.11412 
L 452.833966 294.913426 
L 451.997802 294.798652 
L 451.161638 294.92989 
L 448.653147 295.039104 
L 447.816983 294.946632 
L 446.980819 295.007789 
L 446.144655 294.660883 
L 442.8 295.009469 
L 441.963836 295.175915 
L 441.127672 295.169346 
L 440.291508 295.134344 
L 436.946853 295.16308 
L 436.110689 295.085334 
L 435.274525 294.901342 
L 434.438362 291.847375 
L 433.602198 293.569908 
L 431.093706 295.083845 
L 430.257542 294.919232 
L 429.421379 295.136708 
L 428.585215 295.007273 
L 427.749051 294.751462 
L 425.240559 294.955965 
L 424.404396 294.730896 
L 423.568232 295.009722 
L 422.732068 294.978516 
L 421.895904 295.063622 
L 419.387413 294.872681 
L 418.551249 295.242112 
L 417.715085 294.834785 
L 416.878921 295.170472 
L 416.042757 294.233974 
L 413.534266 294.958287 
L 411.861938 294.92726 
L 411.025774 294.95412 
L 410.18961 294.946636 
L 407.681119 295.003047 
L 406.844955 295.113776 
L 406.008791 295.070119 
L 405.172627 295.036726 
L 404.336464 295.07644 
L 401.827972 295.047197 
L 400.991808 294.969739 
L 400.155644 294.928612 
L 399.319481 295.126154 
L 398.483317 294.940931 
L 395.974825 294.897459 
L 395.138661 295.021969 
L 394.302498 294.895461 
L 393.466334 295.00855 
L 392.63017 294.901453 
L 390.121678 295.089043 
L 389.285514 295.032454 
L 388.449351 295.103988 
L 387.613187 294.915694 
L 386.777023 294.849505 
L 384.268531 293.951867 
L 383.432368 293.715369 
L 382.596204 294.933034 
L 381.76004 294.938022 
L 380.923876 291.198405 
L 378.415385 294.953475 
L 377.579221 270.914918 
L 376.743057 281.080786 
L 375.906893 279.152053 
L 375.070729 290.070659 
L 372.562238 293.578671 
L 371.726074 286.977352 
L 370.88991 295.140943 
L 370.053746 295.015024 
L 369.217582 271.806216 
L 366.709091 290.05492 
L 365.872927 294.784699 
L 365.036763 253.568331 
L 364.200599 277.908783 
L 363.364436 283.163539 
L 360.855944 282.916961 
L 360.01978 293.624187 
L 359.183616 294.447299 
L 358.347453 295.048133 
L 357.511289 289.237368 
L 355.002797 294.427772 
L 354.166633 294.944958 
L 353.33047 295.039374 
L 352.494306 295.101797 
L 351.658142 295.059618 
L 349.14965 295.092474 
L 348.313487 295.065349 
L 347.477323 294.429918 
L 346.641159 295.037524 
L 343.296503 295.03084 
L 342.46034 293.510724 
L 341.624176 294.862585 
L 340.788012 294.687228 
L 339.951848 295.37714 
L 337.443357 295.38549 
L 336.607193 295.305722 
L 335.771029 295.044565 
L 334.934865 295.468284 
L 334.098701 295.8192 
L 331.59021 295.781985 
L 330.754046 295.604979 
L 329.917882 295.493884 
L 329.081718 295.330258 
L 328.245554 295.215947 
L 325.737063 295.125709 
L 324.900899 294.868348 
L 324.064735 295.034221 
L 323.228571 295.058128 
L 322.392408 294.963124 
L 319.883916 295.143755 
L 319.047752 294.991151 
L 318.211588 295.046468 
L 317.375425 295.107479 
L 316.539261 295.188975 
L 314.030769 295.145267 
L 313.194605 294.977198 
L 312.358442 295.086334 
L 311.522278 295.08296 
L 310.686114 294.811567 
L 308.177622 295.131933 
L 307.341459 295.038668 
L 306.505295 295.014515 
L 305.669131 293.874522 
L 304.832967 295.002247 
L 302.324476 284.081706 
L 301.488312 289.949671 
L 300.652148 293.725482 
L 299.815984 294.945777 
L 298.97982 288.430918 
L 296.471329 295.001223 
L 295.635165 295.128378 
L 294.799001 294.825753 
L 293.962837 294.823615 
L 290.618182 291.594762 
L 289.782018 279.3177 
L 288.945854 294.520457 
L 288.10969 292.0882 
L 287.273526 295.011127 
L 284.765035 294.904703 
L 283.928871 263.224423 
L 283.092707 295.159439 
L 282.256543 289.813587 
L 278.911888 291.80446 
L 278.075724 294.480128 
L 277.23956 246.302627 
L 276.403397 291.696875 
L 275.567233 293.866578 
L 273.058741 295.028752 
L 272.222577 294.946973 
L 271.386414 295.142275 
L 270.55025 295.147341 
L 269.714086 294.721385 
L 267.205594 295.071926 
L 266.369431 294.596361 
L 265.533267 294.382732 
L 264.697103 295.045229 
L 261.352448 295.071217 
L 260.516284 294.975409 
L 259.68012 292.998545 
L 258.843956 295.09491 
L 258.007792 291.023105 
L 255.499301 271.983882 
L 254.663137 294.305093 
L 253.826973 295.030233 
L 252.990809 255.560889 
L 252.154645 292.858706 
L 249.646154 178.232383 
L 248.80999 252.128358 
L 247.973826 262.55609 
L 247.137662 245.608464 
L 246.301499 232.467427 
L 243.793007 293.947284 
L 242.956843 295.064382 
L 242.120679 293.134706 
L 241.284515 286.208149 
L 240.448352 291.457773 
L 237.93986 295.085831 
L 237.103696 294.048737 
L 236.267532 294.821284 
L 235.431369 295.059926 
L 234.595205 294.942806 
L 232.086713 295.118568 
L 231.250549 295.186099 
L 230.414386 295.083607 
L 229.578222 294.411237 
L 228.742058 295.217653 
L 225.397403 295.177859 
L 224.561239 294.2364 
L 223.725075 295.207273 
L 222.888911 295.135977 
L 220.38042 295.090995 
L 219.544256 295.122061 
L 218.708092 295.223264 
L 217.871928 295.272206 
L 217.035764 295.206388 
L 214.527273 295.106918 
L 213.691109 295.265202 
L 212.854945 295.44169 
L 212.018781 295.314478 
L 211.182617 295.23539 
L 208.674126 295.188487 
L 207.837962 295.179434 
L 207.001798 295.200836 
L 206.165634 294.255084 
L 205.329471 295.263342 
L 202.820979 295.112592 
L 201.984815 295.038161 
L 201.148651 295.041263 
L 200.312488 289.625695 
L 199.476324 290.702941 
L 196.967832 286.017416 
L 196.131668 294.877969 
L 195.295504 282.002737 
L 194.459341 293.363268 
L 193.623177 292.112795 
L 191.114685 292.643975 
L 190.278521 295.120342 
L 189.442358 294.489909 
L 188.606194 293.550972 
L 187.77003 294.980465 
L 185.261538 295.096081 
L 184.425375 293.958013 
L 183.589211 294.290707 
L 182.753047 293.505272 
L 179.408392 294.994469 
L 178.572228 295.0159 
L 177.736064 295.019387 
L 176.8999 291.082486 
L 176.063736 294.779622 
L 173.555245 295.04721 
L 172.719081 295.117966 
L 171.882917 295.035952 
L 171.046753 294.99863 
L 170.210589 295.117771 
L 167.702098 295.12934 
L 166.865934 295.060309 
L 166.02977 295.070499 
L 165.193606 295.0992 
L 164.357443 294.881802 
L 161.848951 275.886917 
L 161.012787 270.155769 
L 160.176623 294.193423 
L 159.34046 295.12964 
L 158.504296 295.266333 
L 155.995804 295.433292 
L 155.15964 295.444551 
L 154.323477 295.527469 
L 153.487313 295.64427 
L 150.142657 295.70506 
L 149.306494 295.7566 
L 148.47033 295.588632 
L 147.634166 295.504884 
L 146.798002 295.459619 
L 144.28951 294.72353 
L 143.453347 295.571194 
L 142.617183 295.876681 
L 141.781019 296.049902 
L 140.944855 295.950289 
L 138.436364 295.953647 
z
" clip-path="url(#p05d7d938ff)" style="fill: #1f77b4; fill-opacity: 0.5"/>
   </g>
   <g id="matplotlib.axis_1">
    <g id="xtick_1">
     <g id="line2d_1">
      <defs>
       <path id="m46e6bff1d9" d="M 0 0 
L 0 3.5 
" style="stroke: #000000; stroke-width: 0.8"/>
      </defs>
      <g>
       <use xlink:href="#m46e6bff1d9" x="139.272527" y="384.48" style="stroke: #000000; stroke-width: 0.8"/>
      </g>
     </g>
     <g id="text_1">
      <!-- 2022-01 -->
      <g transform="translate(118.381121 399.078438) scale(0.1 -0.1)">
       <defs>
        <path id="DejaVuSans-32" d="M 1228 531 
L 3431 531 
L 3431 0 
L 469 0 
L 469 531 
Q 828 903 1448 1529 
Q 2069 2156 2228 2338 
Q 2531 2678 2651 2914 
Q 2772 3150 2772 3378 
Q 2772 3750 2511 3984 
Q 2250 4219 1831 4219 
Q 1534 4219 1204 4116 
Q 875 4013 500 3803 
L 500 4441 
Q 881 4594 1212 4672 
Q 1544 4750 1819 4750 
Q 2544 4750 2975 4387 
Q 3406 4025 3406 3419 
Q 3406 3131 3298 2873 
Q 3191 2616 2906 2266 
Q 2828 2175 2409 1742 
Q 1991 1309 1228 531 
z
" transform="scale(0.015625)"/>
        <path id="DejaVuSans-30" d="M 2034 4250 
Q 1547 4250 1301 3770 
Q 1056 3291 1056 2328 
Q 1056 1369 1301 889 
Q 1547 409 2034 409 
Q 2525 409 2770 889 
Q 3016 1369 3016 2328 
Q 3016 3291 2770 3770 
Q 2525 4250 2034 4250 
z
M 2034 4750 
Q 2819 4750 3233 4129 
Q 3647 3509 3647 2328 
Q 3647 1150 3233 529 
Q 2819 -91 2034 -91 
Q 1250 -91 836 529 
Q 422 1150 422 2328 
Q 422 3509 836 4129 
Q 1250 4750 2034 4750 
z
" transform="scale(0.015625)"/>
        <path id="DejaVuSans-2d" d="M 313 2009 
L 1997 2009 
L 1997 1497 
L 313 1497 
L 313 2009 
z
" transform="scale(0.015625)"/>
        <path id="DejaVuSans-31" d="M 794 531 
L 1825 531 
L 1825 4091 
L 703 3866 
L 703 4441 
L 1819 4666 
L 2450 4666 
L 2450 531 
L 3481 531 
L 3481 0 
L 794 0 
L 794 531 
z
" transform="scale(0.015625)"/>
       </defs>
       <use xlink:href="#DejaVuSans-32"/>
       <use xlink:href="#DejaVuSans-30" transform="translate(63.623047 0)"/>
       <use xlink:href="#DejaVuSans-32" transform="translate(127.246094 0)"/>
       <use xlink:href="#DejaVuSans-32" transform="translate(190.869141 0)"/>
       <use xlink:href="#DejaVuSans-2d" transform="translate(254.492188 0)"/>
       <use xlink:href="#DejaVuSans-30" transform="translate(290.576172 0)"/>
       <use xlink:href="#DejaVuSans-31" transform="translate(354.199219 0)"/>
      </g>
     </g>
    </g>
    <g id="xtick_2">
     <g id="line2d_2">
      <g>
       <use xlink:href="#m46e6bff1d9" x="214.527273" y="384.48" style="stroke: #000000; stroke-width: 0.8"/>
      </g>
     </g>
     <g id="text_2">
      <!-- 2022-04 -->
      <g transform="translate(193.635866 399.078438) scale(0.1 -0.1)">
       <defs>
        <path id="DejaVuSans-34" d="M 2419 4116 
L 825 1625 
L 2419 1625 
L 2419 4116 
z
M 2253 4666 
L 3047 4666 
L 3047 1625 
L 3713 1625 
L 3713 1100 
L 3047 1100 
L 3047 0 
L 2419 0 
L 2419 1100 
L 313 1100 
L 313 1709 
L 2253 4666 
z
" transform="scale(0.015625)"/>
       </defs>
       <use xlink:href="#DejaVuSans-32"/>
       <use xlink:href="#DejaVuSans-30" transform="translate(63.623047 0)"/>
       <use xlink:href="#DejaVuSans-32" transform="translate(127.246094 0)"/>
       <use xlink:href="#DejaVuSans-32" transform="translate(190.869141 0)"/>
       <use xlink:href="#DejaVuSans-2d" transform="translate(254.492188 0)"/>
       <use xlink:href="#DejaVuSans-30" transform="translate(290.576172 0)"/>
       <use xlink:href="#DejaVuSans-34" transform="translate(354.199219 0)"/>
      </g>
     </g>
    </g>
    <g id="xtick_3">
     <g id="line2d_3">
      <g>
       <use xlink:href="#m46e6bff1d9" x="290.618182" y="384.48" style="stroke: #000000; stroke-width: 0.8"/>
      </g>
     </g>
     <g id="text_3">
      <!-- 2022-07 -->
      <g transform="translate(269.726776 399.078438) scale(0.1 -0.1)">
       <defs>
        <path id="DejaVuSans-37" d="M 525 4666 
L 3525 4666 
L 3525 4397 
L 1831 0 
L 1172 0 
L 2766 4134 
L 525 4134 
L 525 4666 
z
" transform="scale(0.015625)"/>
       </defs>
       <use xlink:href="#DejaVuSans-32"/>
       <use xlink:href="#DejaVuSans-30" transform="translate(63.623047 0)"/>
       <use xlink:href="#DejaVuSans-32" transform="translate(127.246094 0)"/>
       <use xlink:href="#DejaVuSans-32" transform="translate(190.869141 0)"/>
       <use xlink:href="#DejaVuSans-2d" transform="translate(254.492188 0)"/>
       <use xlink:href="#DejaVuSans-30" transform="translate(290.576172 0)"/>
       <use xlink:href="#DejaVuSans-37" transform="translate(354.199219 0)"/>
      </g>
     </g>
    </g>
    <g id="xtick_4">
     <g id="line2d_4">
      <g>
       <use xlink:href="#m46e6bff1d9" x="367.545255" y="384.48" style="stroke: #000000; stroke-width: 0.8"/>
      </g>
     </g>
     <g id="text_4">
      <!-- 2022-10 -->
      <g transform="translate(346.653848 399.078438) scale(0.1 -0.1)">
       <use xlink:href="#DejaVuSans-32"/>
       <use xlink:href="#DejaVuSans-30" transform="translate(63.623047 0)"/>
       <use xlink:href="#DejaVuSans-32" transform="translate(127.246094 0)"/>
       <use xlink:href="#DejaVuSans-32" transform="translate(190.869141 0)"/>
       <use xlink:href="#DejaVuSans-2d" transform="translate(254.492188 0)"/>
       <use xlink:href="#DejaVuSans-31" transform="translate(290.576172 0)"/>
       <use xlink:href="#DejaVuSans-30" transform="translate(354.199219 0)"/>
      </g>
     </g>
    </g>
    <g id="xtick_5">
     <g id="line2d_5">
      <g>
       <use xlink:href="#m46e6bff1d9" x="444.472328" y="384.48" style="stroke: #000000; stroke-width: 0.8"/>
      </g>
     </g>
     <g id="text_5">
      <!-- 2023-01 -->
      <g transform="translate(423.580921 399.078438) scale(0.1 -0.1)">
       <defs>
        <path id="DejaVuSans-33" d="M 2597 2516 
Q 3050 2419 3304 2112 
Q 3559 1806 3559 1356 
Q 3559 666 3084 287 
Q 2609 -91 1734 -91 
Q 1441 -91 1130 -33 
Q 819 25 488 141 
L 488 750 
Q 750 597 1062 519 
Q 1375 441 1716 441 
Q 2309 441 2620 675 
Q 2931 909 2931 1356 
Q 2931 1769 2642 2001 
Q 2353 2234 1838 2234 
L 1294 2234 
L 1294 2753 
L 1863 2753 
Q 2328 2753 2575 2939 
Q 2822 3125 2822 3475 
Q 2822 3834 2567 4026 
Q 2313 4219 1838 4219 
Q 1578 4219 1281 4162 
Q 984 4106 628 3988 
L 628 4550 
Q 988 4650 1302 4700 
Q 1616 4750 1894 4750 
Q 2613 4750 3031 4423 
Q 3450 4097 3450 3541 
Q 3450 3153 3228 2886 
Q 3006 2619 2597 2516 
z
" transform="scale(0.015625)"/>
       </defs>
       <use xlink:href="#DejaVuSans-32"/>
       <use xlink:href="#DejaVuSans-30" transform="translate(63.623047 0)"/>
       <use xlink:href="#DejaVuSans-32" transform="translate(127.246094 0)"/>
       <use xlink:href="#DejaVuSans-33" transform="translate(190.869141 0)"/>
       <use xlink:href="#DejaVuSans-2d" transform="translate(254.492188 0)"/>
       <use xlink:href="#DejaVuSans-30" transform="translate(290.576172 0)"/>
       <use xlink:href="#DejaVuSans-31" transform="translate(354.199219 0)"/>
      </g>
     </g>
    </g>
    <g id="xtick_6">
     <g id="line2d_6">
      <g>
       <use xlink:href="#m46e6bff1d9" x="519.727073" y="384.48" style="stroke: #000000; stroke-width: 0.8"/>
      </g>
     </g>
     <g id="text_6">
      <!-- 2023-04 -->
      <g transform="translate(498.835667 399.078438) scale(0.1 -0.1)">
       <use xlink:href="#DejaVuSans-32"/>
       <use xlink:href="#DejaVuSans-30" transform="translate(63.623047 0)"/>
       <use xlink:href="#DejaVuSans-32" transform="translate(127.246094 0)"/>
       <use xlink:href="#DejaVuSans-33" transform="translate(190.869141 0)"/>
       <use xlink:href="#DejaVuSans-2d" transform="translate(254.492188 0)"/>
       <use xlink:href="#DejaVuSans-30" transform="translate(290.576172 0)"/>
       <use xlink:href="#DejaVuSans-34" transform="translate(354.199219 0)"/>
      </g>
     </g>
    </g>
    <g id="xtick_7">
     <g id="line2d_7">
      <g>
       <use xlink:href="#m46e6bff1d9" x="595.817982" y="384.48" style="stroke: #000000; stroke-width: 0.8"/>
      </g>
     </g>
     <g id="text_7">
      <!-- 2023-07 -->
      <g transform="translate(574.926576 399.078438) scale(0.1 -0.1)">
       <use xlink:href="#DejaVuSans-32"/>
       <use xlink:href="#DejaVuSans-30" transform="translate(63.623047 0)"/>
       <use xlink:href="#DejaVuSans-32" transform="translate(127.246094 0)"/>
       <use xlink:href="#DejaVuSans-33" transform="translate(190.869141 0)"/>
       <use xlink:href="#DejaVuSans-2d" transform="translate(254.492188 0)"/>
       <use xlink:href="#DejaVuSans-30" transform="translate(290.576172 0)"/>
       <use xlink:href="#DejaVuSans-37" transform="translate(354.199219 0)"/>
      </g>
     </g>
    </g>
    <g id="xtick_8">
     <g id="line2d_8">
      <g>
       <use xlink:href="#m46e6bff1d9" x="672.745055" y="384.48" style="stroke: #000000; stroke-width: 0.8"/>
      </g>
     </g>
     <g id="text_8">
      <!-- 2023-10 -->
      <g transform="translate(651.853649 399.078438) scale(0.1 -0.1)">
       <use xlink:href="#DejaVuSans-32"/>
       <use xlink:href="#DejaVuSans-30" transform="translate(63.623047 0)"/>
       <use xlink:href="#DejaVuSans-32" transform="translate(127.246094 0)"/>
       <use xlink:href="#DejaVuSans-33" transform="translate(190.869141 0)"/>
       <use xlink:href="#DejaVuSans-2d" transform="translate(254.492188 0)"/>
       <use xlink:href="#DejaVuSans-31" transform="translate(290.576172 0)"/>
       <use xlink:href="#DejaVuSans-30" transform="translate(354.199219 0)"/>
      </g>
     </g>
    </g>
    <g id="xtick_9">
     <g id="line2d_9">
      <g>
       <use xlink:href="#m46e6bff1d9" x="749.672128" y="384.48" style="stroke: #000000; stroke-width: 0.8"/>
      </g>
     </g>
     <g id="text_9">
      <!-- 2024-01 -->
      <g transform="translate(728.780722 399.078438) scale(0.1 -0.1)">
       <use xlink:href="#DejaVuSans-32"/>
       <use xlink:href="#DejaVuSans-30" transform="translate(63.623047 0)"/>
       <use xlink:href="#DejaVuSans-32" transform="translate(127.246094 0)"/>
       <use xlink:href="#DejaVuSans-34" transform="translate(190.869141 0)"/>
       <use xlink:href="#DejaVuSans-2d" transform="translate(254.492188 0)"/>
       <use xlink:href="#DejaVuSans-30" transform="translate(290.576172 0)"/>
       <use xlink:href="#DejaVuSans-31" transform="translate(354.199219 0)"/>
      </g>
     </g>
    </g>
    <g id="text_10">
     <!-- Date -->
     <g transform="translate(430.849219 412.756563) scale(0.1 -0.1)">
      <defs>
       <path id="DejaVuSans-44" d="M 1259 4147 
L 1259 519 
L 2022 519 
Q 2988 519 3436 956 
Q 3884 1394 3884 2338 
Q 3884 3275 3436 3711 
Q 2988 4147 2022 4147 
L 1259 4147 
z
M 628 4666 
L 1925 4666 
Q 3281 4666 3915 4102 
Q 4550 3538 4550 2338 
Q 4550 1131 3912 565 
Q 3275 0 1925 0 
L 628 0 
L 628 4666 
z
" transform="scale(0.015625)"/>
       <path id="DejaVuSans-61" d="M 2194 1759 
Q 1497 1759 1228 1600 
Q 959 1441 959 1056 
Q 959 750 1161 570 
Q 1363 391 1709 391 
Q 2188 391 2477 730 
Q 2766 1069 2766 1631 
L 2766 1759 
L 2194 1759 
z
M 3341 1997 
L 3341 0 
L 2766 0 
L 2766 531 
Q 2569 213 2275 61 
Q 1981 -91 1556 -91 
Q 1019 -91 701 211 
Q 384 513 384 1019 
Q 384 1609 779 1909 
Q 1175 2209 1959 2209 
L 2766 2209 
L 2766 2266 
Q 2766 2663 2505 2880 
Q 2244 3097 1772 3097 
Q 1472 3097 1187 3025 
Q 903 2953 641 2809 
L 641 3341 
Q 956 3463 1253 3523 
Q 1550 3584 1831 3584 
Q 2591 3584 2966 3190 
Q 3341 2797 3341 1997 
z
" transform="scale(0.015625)"/>
       <path id="DejaVuSans-74" d="M 1172 4494 
L 1172 3500 
L 2356 3500 
L 2356 3053 
L 1172 3053 
L 1172 1153 
Q 1172 725 1289 603 
Q 1406 481 1766 481 
L 2356 481 
L 2356 0 
L 1766 0 
Q 1100 0 847 248 
Q 594 497 594 1153 
L 594 3053 
L 172 3053 
L 172 3500 
L 594 3500 
L 594 4494 
L 1172 4494 
z
" transform="scale(0.015625)"/>
       <path id="DejaVuSans-65" d="M 3597 1894 
L 3597 1613 
L 953 1613 
Q 991 1019 1311 708 
Q 1631 397 2203 397 
Q 2534 397 2845 478 
Q 3156 559 3463 722 
L 3463 178 
Q 3153 47 2828 -22 
Q 2503 -91 2169 -91 
Q 1331 -91 842 396 
Q 353 884 353 1716 
Q 353 2575 817 3079 
Q 1281 3584 2069 3584 
Q 2775 3584 3186 3129 
Q 3597 2675 3597 1894 
z
M 3022 2063 
Q 3016 2534 2758 2815 
Q 2500 3097 2075 3097 
Q 1594 3097 1305 2825 
Q 1016 2553 972 2059 
L 3022 2063 
z
" transform="scale(0.015625)"/>
      </defs>
      <use xlink:href="#DejaVuSans-44"/>
      <use xlink:href="#DejaVuSans-61" transform="translate(77.001953 0)"/>
      <use xlink:href="#DejaVuSans-74" transform="translate(138.28125 0)"/>
      <use xlink:href="#DejaVuSans-65" transform="translate(177.490234 0)"/>
     </g>
    </g>
   </g>
   <g id="matplotlib.axis_2">
    <g id="ytick_1">
     <g id="line2d_10">
      <defs>
       <path id="m7e1d65092c" d="M 0 0 
L -3.5 0 
" style="stroke: #000000; stroke-width: 0.8"/>
      </defs>
      <g>
       <use xlink:href="#m7e1d65092c" x="108" y="369.453056" style="stroke: #000000; stroke-width: 0.8"/>
      </g>
     </g>
     <g id="text_11">
      <!-- 0.00 -->
      <g transform="translate(78.734375 373.252274) scale(0.1 -0.1)">
       <defs>
        <path id="DejaVuSans-2e" d="M 684 794 
L 1344 794 
L 1344 0 
L 684 0 
L 684 794 
z
" transform="scale(0.015625)"/>
       </defs>
       <use xlink:href="#DejaVuSans-30"/>
       <use xlink:href="#DejaVuSans-2e" transform="translate(63.623047 0)"/>
       <use xlink:href="#DejaVuSans-30" transform="translate(95.410156 0)"/>
       <use xlink:href="#DejaVuSans-30" transform="translate(159.033203 0)"/>
      </g>
     </g>
    </g>
    <g id="ytick_2">
     <g id="line2d_11">
      <g>
       <use xlink:href="#m7e1d65092c" x="108" y="313.386508" style="stroke: #000000; stroke-width: 0.8"/>
      </g>
     </g>
     <g id="text_12">
      <!-- 0.01 -->
      <g transform="translate(78.734375 317.185727) scale(0.1 -0.1)">
       <use xlink:href="#DejaVuSans-30"/>
       <use xlink:href="#DejaVuSans-2e" transform="translate(63.623047 0)"/>
       <use xlink:href="#DejaVuSans-30" transform="translate(95.410156 0)"/>
       <use xlink:href="#DejaVuSans-31" transform="translate(159.033203 0)"/>
      </g>
     </g>
    </g>
    <g id="ytick_3">
     <g id="line2d_12">
      <g>
       <use xlink:href="#m7e1d65092c" x="108" y="257.319961" style="stroke: #000000; stroke-width: 0.8"/>
      </g>
     </g>
     <g id="text_13">
      <!-- 0.02 -->
      <g transform="translate(78.734375 261.11918) scale(0.1 -0.1)">
       <use xlink:href="#DejaVuSans-30"/>
       <use xlink:href="#DejaVuSans-2e" transform="translate(63.623047 0)"/>
       <use xlink:href="#DejaVuSans-30" transform="translate(95.410156 0)"/>
       <use xlink:href="#DejaVuSans-32" transform="translate(159.033203 0)"/>
      </g>
     </g>
    </g>
    <g id="ytick_4">
     <g id="line2d_13">
      <g>
       <use xlink:href="#m7e1d65092c" x="108" y="201.253414" style="stroke: #000000; stroke-width: 0.8"/>
      </g>
     </g>
     <g id="text_14">
      <!-- 0.03 -->
      <g transform="translate(78.734375 205.052632) scale(0.1 -0.1)">
       <use xlink:href="#DejaVuSans-30"/>
       <use xlink:href="#DejaVuSans-2e" transform="translate(63.623047 0)"/>
       <use xlink:href="#DejaVuSans-30" transform="translate(95.410156 0)"/>
       <use xlink:href="#DejaVuSans-33" transform="translate(159.033203 0)"/>
      </g>
     </g>
    </g>
    <g id="ytick_5">
     <g id="line2d_14">
      <g>
       <use xlink:href="#m7e1d65092c" x="108" y="145.186866" style="stroke: #000000; stroke-width: 0.8"/>
      </g>
     </g>
     <g id="text_15">
      <!-- 0.04 -->
      <g transform="translate(78.734375 148.986085) scale(0.1 -0.1)">
       <use xlink:href="#DejaVuSans-30"/>
       <use xlink:href="#DejaVuSans-2e" transform="translate(63.623047 0)"/>
       <use xlink:href="#DejaVuSans-30" transform="translate(95.410156 0)"/>
       <use xlink:href="#DejaVuSans-34" transform="translate(159.033203 0)"/>
      </g>
     </g>
    </g>
    <g id="ytick_6">
     <g id="line2d_15">
      <g>
       <use xlink:href="#m7e1d65092c" x="108" y="89.120319" style="stroke: #000000; stroke-width: 0.8"/>
      </g>
     </g>
     <g id="text_16">
      <!-- 0.05 -->
      <g transform="translate(78.734375 92.919538) scale(0.1 -0.1)">
       <defs>
        <path id="DejaVuSans-35" d="M 691 4666 
L 3169 4666 
L 3169 4134 
L 1269 4134 
L 1269 2991 
Q 1406 3038 1543 3061 
Q 1681 3084 1819 3084 
Q 2600 3084 3056 2656 
Q 3513 2228 3513 1497 
Q 3513 744 3044 326 
Q 2575 -91 1722 -91 
Q 1428 -91 1123 -41 
Q 819 9 494 109 
L 494 744 
Q 775 591 1075 516 
Q 1375 441 1709 441 
Q 2250 441 2565 725 
Q 2881 1009 2881 1497 
Q 2881 1984 2565 2268 
Q 2250 2553 1709 2553 
Q 1456 2553 1204 2497 
Q 953 2441 691 2322 
L 691 4666 
z
" transform="scale(0.015625)"/>
       </defs>
       <use xlink:href="#DejaVuSans-30"/>
       <use xlink:href="#DejaVuSans-2e" transform="translate(63.623047 0)"/>
       <use xlink:href="#DejaVuSans-30" transform="translate(95.410156 0)"/>
       <use xlink:href="#DejaVuSans-35" transform="translate(159.033203 0)"/>
      </g>
     </g>
    </g>
    <g id="text_17">
     <!-- Volatility -->
     <g transform="translate(72.654687 239.752187) rotate(-90) scale(0.1 -0.1)">
      <defs>
       <path id="DejaVuSans-56" d="M 1831 0 
L 50 4666 
L 709 4666 
L 2188 738 
L 3669 4666 
L 4325 4666 
L 2547 0 
L 1831 0 
z
" transform="scale(0.015625)"/>
       <path id="DejaVuSans-6f" d="M 1959 3097 
Q 1497 3097 1228 2736 
Q 959 2375 959 1747 
Q 959 1119 1226 758 
Q 1494 397 1959 397 
Q 2419 397 2687 759 
Q 2956 1122 2956 1747 
Q 2956 2369 2687 2733 
Q 2419 3097 1959 3097 
z
M 1959 3584 
Q 2709 3584 3137 3096 
Q 3566 2609 3566 1747 
Q 3566 888 3137 398 
Q 2709 -91 1959 -91 
Q 1206 -91 779 398 
Q 353 888 353 1747 
Q 353 2609 779 3096 
Q 1206 3584 1959 3584 
z
" transform="scale(0.015625)"/>
       <path id="DejaVuSans-6c" d="M 603 4863 
L 1178 4863 
L 1178 0 
L 603 0 
L 603 4863 
z
" transform="scale(0.015625)"/>
       <path id="DejaVuSans-69" d="M 603 3500 
L 1178 3500 
L 1178 0 
L 603 0 
L 603 3500 
z
M 603 4863 
L 1178 4863 
L 1178 4134 
L 603 4134 
L 603 4863 
z
" transform="scale(0.015625)"/>
       <path id="DejaVuSans-79" d="M 2059 -325 
Q 1816 -950 1584 -1140 
Q 1353 -1331 966 -1331 
L 506 -1331 
L 506 -850 
L 844 -850 
Q 1081 -850 1212 -737 
Q 1344 -625 1503 -206 
L 1606 56 
L 191 3500 
L 800 3500 
L 1894 763 
L 2988 3500 
L 3597 3500 
L 2059 -325 
z
" transform="scale(0.015625)"/>
      </defs>
      <use xlink:href="#DejaVuSans-56"/>
      <use xlink:href="#DejaVuSans-6f" transform="translate(60.658203 0)"/>
      <use xlink:href="#DejaVuSans-6c" transform="translate(121.839844 0)"/>
      <use xlink:href="#DejaVuSans-61" transform="translate(149.623047 0)"/>
      <use xlink:href="#DejaVuSans-74" transform="translate(210.902344 0)"/>
      <use xlink:href="#DejaVuSans-69" transform="translate(250.111328 0)"/>
      <use xlink:href="#DejaVuSans-6c" transform="translate(277.894531 0)"/>
      <use xlink:href="#DejaVuSans-69" transform="translate(305.677734 0)"/>
      <use xlink:href="#DejaVuSans-74" transform="translate(333.460938 0)"/>
      <use xlink:href="#DejaVuSans-79" transform="translate(372.669922 0)"/>
     </g>
    </g>
   </g>
   <g id="line2d_16">
    <path d="M 138.436364 354.709609 
L 140.944855 333.829337 
L 141.781019 365.921777 
L 142.617183 259.656526 
L 143.453347 364.046898 
L 144.28951 346.698801 
L 146.798002 361.367799 
L 147.634166 318.329954 
L 148.47033 353.677064 
L 149.306494 289.019838 
L 150.142657 364.857608 
L 153.487313 265.398602 
L 154.323477 314.862228 
L 155.15964 307.226222 
L 155.995804 262.388326 
L 158.504296 353.934295 
L 159.34046 300.790635 
L 160.176623 361.055675 
L 161.012787 339.184785 
L 161.848951 234.579591 
L 164.357443 264.553529 
L 165.193606 331.106045 
L 166.02977 316.871533 
L 166.865934 231.005213 
L 167.702098 340.614156 
L 170.210589 348.660283 
L 171.046753 322.547173 
L 171.882917 288.645148 
L 172.719081 266.953176 
L 173.555245 262.07611 
L 176.063736 347.878719 
L 176.8999 281.744135 
L 177.736064 364.51453 
L 178.572228 249.467819 
L 179.408392 329.130144 
L 182.753047 312.294761 
L 183.589211 265.260421 
L 184.425375 286.216063 
L 185.261538 245.399771 
L 187.77003 355.741419 
L 188.606194 282.020357 
L 189.442358 265.892369 
L 190.278521 339.914285 
L 191.114685 324.792235 
L 193.623177 201.46314 
L 194.459341 328.74856 
L 195.295504 227.192035 
L 196.131668 345.338506 
L 196.967832 296.307155 
L 199.476324 327.6909 
L 200.312488 250.689408 
L 201.148651 245.338938 
L 201.984815 300.647114 
L 202.820979 304.444928 
L 205.329471 367.015587 
L 206.165634 306.430319 
L 207.001798 300.218461 
L 207.837962 289.602913 
L 208.674126 341.120498 
L 211.182617 329.536266 
L 212.018781 301.152514 
L 212.854945 334.054945 
L 213.691109 281.00064 
L 214.527273 350.365652 
L 217.035764 324.272577 
L 217.871928 298.634532 
L 218.708092 314.707264 
L 219.544256 345.656312 
L 220.38042 354.569899 
L 222.888911 274.02031 
L 223.725075 350.259779 
L 224.561239 307.148587 
L 225.397403 300.948254 
L 228.742058 368.304315 
L 229.578222 280.138693 
L 230.414386 365.984364 
L 232.086713 211.72618 
L 234.595205 337.597402 
L 235.431369 209.383042 
L 236.267532 357.702308 
L 237.103696 232.394759 
L 237.93986 162.23584 
L 240.448352 337.723889 
L 241.284515 342.398336 
L 242.120679 204.476053 
L 242.956843 165.927695 
L 243.793007 337.548999 
L 246.301499 186.891931 
L 247.137662 355.689463 
L 247.973826 276.381309 
L 248.80999 362.182394 
L 249.646154 237.196196 
L 252.154645 347.28315 
L 252.990809 257.494201 
L 253.826973 138.269275 
L 254.663137 336.649266 
L 255.499301 368.633704 
L 258.007792 266.374723 
L 258.843956 323.736696 
L 259.68012 316.714699 
L 260.516284 259.068317 
L 261.352448 232.42014 
L 264.697103 334.164056 
L 265.533267 327.342034 
L 266.369431 267.057516 
L 267.205594 277.041877 
L 269.714086 351.890183 
L 270.55025 316.311324 
L 271.386414 308.606086 
L 272.222577 234.408675 
L 273.058741 203.818881 
L 275.567233 147.766345 
L 276.403397 348.255318 
L 277.23956 288.229134 
L 278.075724 184.140698 
L 278.911888 357.127072 
L 282.256543 233.870345 
L 283.092707 362.150905 
L 283.928871 316.262298 
L 284.765035 200.661704 
L 287.273526 352.759217 
L 288.10969 255.36501 
L 288.945854 365.461228 
L 289.782018 320.126451 
L 290.618182 310.591521 
L 293.962837 360.578443 
L 294.799001 349.455243 
L 295.635165 286.173415 
L 296.471329 364.796126 
L 298.97982 304.447088 
L 299.815984 317.384765 
L 300.652148 344.408919 
L 301.488312 352.615562 
L 302.324476 262.818833 
L 304.832967 322.364227 
L 305.669131 216.652054 
L 306.505295 336.494314 
L 307.341459 314.434507 
L 308.177622 316.883406 
L 310.686114 362.08422 
L 311.522278 304.357786 
L 312.358442 224.688898 
L 313.194605 301.83504 
L 314.030769 290.355637 
L 316.539261 353.60269 
L 317.375425 331.974236 
L 318.211588 282.452009 
L 319.047752 365.093057 
L 319.883916 360.330641 
L 322.392408 362.510351 
L 323.228571 345.581278 
L 324.064735 251.336798 
L 324.900899 365.496331 
L 325.737063 273.164081 
L 328.245554 347.241306 
L 329.081718 358.946563 
L 329.917882 328.725614 
L 330.754046 356.742821 
L 331.59021 296.656721 
L 334.098701 248.167773 
L 334.934865 356.892145 
L 335.771029 353.126997 
L 336.607193 290.997777 
L 337.443357 177.320986 
L 339.951848 331.95197 
L 340.788012 307.27852 
L 341.624176 325.453514 
L 342.46034 352.67933 
L 343.296503 308.931709 
L 346.641159 346.446301 
L 347.477323 267.552919 
L 348.313487 332.511013 
L 349.14965 284.478479 
L 351.658142 310.422472 
L 352.494306 121.64349 
L 353.33047 350.49529 
L 354.166633 305.636603 
L 355.002797 329.040038 
L 357.511289 331.138893 
L 358.347453 305.895318 
L 359.183616 272.655988 
L 360.01978 322.002351 
L 360.855944 271.993552 
L 363.364436 311.175373 
L 364.200599 357.552309 
L 365.036763 260.229005 
L 365.872927 249.735412 
L 366.709091 284.336387 
L 369.217582 226.177384 
L 370.053746 200.550666 
L 370.88991 358.127686 
L 371.726074 311.716172 
L 372.562238 210.20615 
L 375.070729 327.287268 
L 375.906893 332.782635 
L 376.743057 350.972338 
L 377.579221 225.730587 
L 378.415385 235.189886 
L 380.923876 222.920168 
L 381.76004 305.745983 
L 382.596204 331.919509 
L 383.432368 324.696861 
L 384.268531 237.989517 
L 386.777023 303.227567 
L 387.613187 278.985393 
L 388.449351 327.878938 
L 389.285514 335.245742 
L 390.121678 233.054022 
L 392.63017 327.5022 
L 393.466334 346.411565 
L 394.302498 227.493369 
L 395.138661 309.78474 
L 395.974825 293.612912 
L 398.483317 315.808237 
L 399.319481 338.155062 
L 400.155644 251.731392 
L 400.991808 66.96 
L 401.827972 317.881315 
L 404.336464 319.128101 
L 405.172627 320.813188 
L 406.008791 322.994645 
L 406.844955 352.105593 
L 407.681119 342.83665 
L 410.18961 347.636086 
L 411.025774 293.827008 
L 411.861938 336.389165 
L 413.534266 367.86589 
L 416.042757 282.18714 
L 416.878921 360.520988 
L 417.715085 198.569859 
L 418.551249 364.586478 
L 419.387413 362.751026 
L 421.895904 268.217848 
L 422.732068 288.134837 
L 423.568232 359.001633 
L 424.404396 327.438818 
L 425.240559 328.094375 
L 427.749051 289.960148 
L 428.585215 328.730732 
L 429.421379 335.414449 
L 430.257542 227.955186 
L 431.093706 306.657167 
L 433.602198 318.722192 
L 434.438362 363.64008 
L 435.274525 286.707004 
L 436.110689 287.836255 
L 436.946853 336.648751 
L 440.291508 346.702079 
L 441.127672 301.649186 
L 441.963836 272.398392 
L 442.8 355.189905 
L 446.144655 346.978385 
L 446.980819 327.343153 
L 447.816983 303.777397 
L 448.653147 242.833259 
L 451.161638 365.147538 
L 452.833966 297.869703 
L 453.67013 350.333907 
L 454.506294 347.088667 
L 457.850949 358.057243 
L 458.687113 281.51281 
L 459.523277 326.463081 
L 460.359441 264.374977 
L 462.867932 303.231017 
L 463.704096 365.462494 
L 464.54026 368.434066 
L 465.376424 308.073121 
L 466.212587 355.482663 
L 468.721079 296.266115 
L 469.557243 287.952985 
L 470.393407 311.154694 
L 471.22957 287.6386 
L 472.065734 311.095651 
L 474.574226 334.919468 
L 475.41039 297.74193 
L 476.246553 306.980546 
L 477.082717 319.72753 
L 477.918881 357.158417 
L 480.427373 305.629416 
L 481.263536 367.880724 
L 482.0997 353.926356 
L 482.935864 291.606377 
L 483.772028 353.915691 
L 487.116683 255.947542 
L 487.952847 360.623636 
L 488.789011 339.652013 
L 489.625175 310.059058 
L 492.133666 352.25013 
L 492.96983 352.405333 
L 493.805994 342.89735 
L 494.642158 327.102671 
L 495.478322 279.641453 
L 497.986813 365.601713 
L 498.822977 282.854969 
L 499.659141 361.52639 
L 500.495305 264.99072 
L 501.331469 287.685747 
L 503.83996 360.981919 
L 504.676124 277.826969 
L 505.512288 330.176409 
L 506.348452 271.843569 
L 507.184615 307.32789 
L 509.693107 319.672265 
L 511.365435 276.381259 
L 512.201598 352.744755 
L 513.037762 337.921464 
L 515.546254 360.226802 
L 516.382418 360.622121 
L 517.218581 290.192417 
L 518.054745 337.500762 
L 518.890909 289.091009 
L 521.399401 348.75317 
L 522.235564 336.85682 
L 523.071728 355.461772 
L 523.907892 349.421801 
L 527.252547 363.869833 
L 528.088711 369.221095 
L 528.924875 346.22225 
L 529.761039 295.582604 
L 530.597203 357.838742 
L 533.105694 350.947133 
L 533.941858 364.66017 
L 534.778022 368.980605 
L 535.614186 335.979421 
L 536.45035 364.391446 
L 538.958841 364.680604 
L 539.795005 280.098845 
L 540.631169 347.875367 
L 541.467333 260.811833 
L 542.303497 323.37008 
L 544.811988 367.287823 
L 545.648152 304.113678 
L 546.484316 330.078005 
L 547.32048 328.833368 
L 548.156643 266.816742 
L 550.665135 366.918723 
L 551.501299 343.718846 
L 552.337463 344.369226 
L 553.173626 359.932619 
L 554.00979 360.569019 
L 556.518282 352.892142 
L 557.354446 333.581052 
L 558.190609 303.178559 
L 559.026773 316.746427 
L 559.862937 361.340742 
L 562.371429 368.5839 
L 563.207592 306.179335 
L 564.043756 328.269226 
L 564.87992 320.566009 
L 565.716084 296.76458 
L 569.060739 369.36 
L 569.896903 335.099129 
L 570.733067 314.473049 
L 571.569231 288.550076 
L 574.077722 358.208368 
L 574.913886 356.271026 
L 575.75005 348.039565 
L 576.586214 334.862341 
L 577.422378 363.019958 
L 579.930869 317.43467 
L 580.767033 330.719072 
L 581.603197 364.860801 
L 582.439361 301.586852 
L 583.275524 348.829669 
L 586.62018 342.841994 
L 587.456344 339.967071 
L 588.292507 348.686391 
L 589.128671 326.347554 
L 591.637163 344.240238 
L 592.473327 305.589058 
L 593.309491 367.467509 
L 594.145654 344.42747 
L 594.981818 301.08347 
L 597.49031 362.893385 
L 599.162637 358.406523 
L 599.998801 324.857356 
L 600.834965 353.366432 
L 603.343457 355.985081 
L 604.17962 331.778644 
L 605.015784 328.054037 
L 605.851948 322.163925 
L 606.688112 363.706636 
L 609.196603 347.87884 
L 610.032767 329.690213 
L 610.868931 356.24867 
L 611.705095 331.440901 
L 612.541259 367.636297 
L 615.04975 346.880439 
L 615.885914 353.694228 
L 616.722078 368.581448 
L 617.558242 333.316016 
L 618.394406 314.343169 
L 620.902897 361.224507 
L 621.739061 354.490859 
L 622.575225 291.317521 
L 623.411389 355.149215 
L 624.247552 339.658407 
L 626.756044 319.085076 
L 627.592208 345.752649 
L 628.428372 329.84981 
L 629.264535 368.047587 
L 630.100699 363.452417 
L 632.609191 337.304483 
L 633.445355 304.314224 
L 634.281518 326.931709 
L 635.117682 326.041805 
L 635.953846 368.619249 
L 638.462338 331.015953 
L 639.298501 353.859112 
L 640.134665 307.867657 
L 640.970829 293.486516 
L 641.806993 331.913696 
L 644.315485 334.439054 
L 645.151648 288.694447 
L 645.987812 348.002855 
L 646.823976 360.492503 
L 647.66014 359.375101 
L 651.004795 345.88835 
L 651.840959 330.228815 
L 652.677123 351.419555 
L 653.513287 361.460172 
L 656.021778 331.883042 
L 656.857942 337.426844 
L 657.694106 362.496019 
L 658.53027 322.387458 
L 659.366434 300.860391 
L 661.874925 365.410453 
L 662.711089 357.38008 
L 664.383417 276.736258 
L 665.21958 356.567686 
L 667.728072 346.942477 
L 668.564236 286.227018 
L 669.4004 368.167493 
L 670.236563 336.50908 
L 671.072727 354.240733 
L 673.581219 369.008129 
L 674.417383 291.860396 
L 675.253546 324.167845 
L 676.08971 362.136983 
L 676.925874 303.599241 
L 679.434366 334.220399 
L 680.270529 340.329523 
L 681.106693 345.435109 
L 681.942857 334.321659 
L 682.779021 341.243169 
L 685.287512 310.366524 
L 686.123676 368.902187 
L 686.95984 293.816991 
L 687.796004 321.68978 
L 688.632168 298.443995 
L 691.140659 359.994564 
L 691.976823 328.863463 
L 692.812987 288.473646 
L 693.649151 302.716642 
L 694.485315 342.474688 
L 696.993806 302.518161 
L 697.82997 333.267204 
L 698.666134 310.856759 
L 699.502298 264.704297 
L 700.338462 317.031562 
L 702.846953 359.633156 
L 703.683117 353.552062 
L 704.519281 363.821673 
L 706.191608 282.57373 
L 708.7001 364.764874 
L 709.536264 263.513226 
L 710.372428 360.506287 
L 711.208591 362.782774 
L 712.044755 362.269635 
L 714.553247 328.17063 
L 715.389411 358.110856 
L 716.225574 346.729786 
L 717.897902 366.107622 
L 720.406394 358.486134 
L 721.242557 363.960636 
L 722.078721 364.145327 
L 722.914885 348.277139 
L 723.751049 336.617325 
L 726.25954 339.04711 
L 727.095704 366.262704 
L 727.931868 347.509602 
L 728.768032 324.955221 
L 729.604196 346.538239 
L 732.112687 347.492621 
L 732.948851 343.725474 
L 733.785015 293.435674 
L 734.621179 354.631453 
L 735.457343 369.025372 
L 738.801998 336.658301 
L 739.638162 286.513004 
L 740.474326 311.991628 
L 741.31049 360.153259 
L 744.655145 345.777631 
L 745.491309 361.438795 
L 746.327473 367.378021 
L 747.163636 353.583571 
L 747.163636 353.583571 
" clip-path="url(#p05d7d938ff)" style="fill: none; stroke: #000000; stroke-width: 1.5; stroke-linecap: square"/>
   </g>
   <g id="line2d_17">
    <path d="M 138.436364 296.203031 
L 140.944855 296.210606 
L 141.781019 296.35935 
L 142.617183 296.371763 
L 143.453347 295.998761 
L 144.28951 295.254206 
L 146.798002 295.881218 
L 147.634166 295.871347 
L 149.306494 296.128928 
L 150.142657 296.094436 
L 153.487313 296.127442 
L 155.995804 295.896235 
L 159.34046 295.662505 
L 160.176623 294.761768 
L 161.012787 272.411696 
L 161.848951 277.894024 
L 164.357443 295.729033 
L 165.193606 295.981574 
L 166.865934 296.040085 
L 167.702098 295.957303 
L 170.210589 295.978591 
L 171.046753 295.862847 
L 171.882917 296.014457 
L 173.555245 295.987685 
L 176.063736 295.581825 
L 176.8999 292.09323 
L 177.736064 295.963156 
L 179.408392 295.95654 
L 182.753047 294.320434 
L 183.589211 294.888495 
L 184.425375 294.57806 
L 185.261538 295.840028 
L 187.77003 295.971796 
L 188.606194 294.289682 
L 190.278521 295.872984 
L 191.114685 293.50757 
L 193.623177 292.963562 
L 194.459341 294.11943 
L 195.295504 283.556571 
L 196.131668 295.759937 
L 196.967832 287.456627 
L 199.476324 291.762275 
L 200.312488 290.720774 
L 201.148651 295.92461 
L 202.820979 295.993163 
L 205.329471 295.974156 
L 206.165634 295.034691 
L 207.001798 295.995277 
L 207.837962 295.914103 
L 208.674126 295.993258 
L 212.018781 296.025149 
L 212.854945 296.415815 
L 213.691109 295.787998 
L 214.527273 295.915746 
L 220.38042 296.006299 
L 222.888911 295.859001 
L 223.725075 295.956428 
L 224.561239 294.853734 
L 225.397403 295.97715 
L 228.742058 295.904101 
L 229.578222 295.091815 
L 230.414386 296.014064 
L 231.250549 295.884169 
L 232.086713 295.987332 
L 234.595205 295.783031 
L 235.431369 295.917434 
L 236.267532 295.614601 
L 237.103696 294.795436 
L 237.93986 295.923455 
L 240.448352 292.286929 
L 241.284515 287.745353 
L 242.120679 294.119531 
L 242.956843 295.982841 
L 243.793007 294.823598 
L 246.301499 235.038353 
L 247.137662 248.094693 
L 247.973826 264.911215 
L 248.80999 254.571242 
L 249.646154 182.030028 
L 252.154645 293.771666 
L 252.990809 257.785493 
L 253.826973 295.85622 
L 254.663137 294.982221 
L 255.499301 273.999512 
L 258.007792 292.13297 
L 258.843956 295.974498 
L 259.68012 293.771531 
L 260.516284 295.85451 
L 261.352448 296.001948 
L 264.697103 295.996426 
L 265.533267 295.029693 
L 266.369431 295.334336 
L 267.205594 295.999913 
L 269.714086 295.582442 
L 270.55025 295.931551 
L 271.386414 296.000194 
L 272.222577 295.732246 
L 273.058741 295.819166 
L 275.567233 294.647779 
L 276.403397 292.463566 
L 277.23956 248.795811 
L 278.075724 295.097399 
L 278.911888 292.615781 
L 282.256543 290.981531 
L 283.092707 295.756097 
L 283.928871 265.372878 
L 284.765035 295.753417 
L 287.273526 295.971684 
L 288.10969 292.994858 
L 288.945854 295.30383 
L 289.782018 281.090293 
L 290.618182 292.451972 
L 293.962837 295.781287 
L 294.799001 295.692579 
L 296.471329 296.046205 
L 298.97982 289.805345 
L 299.815984 295.664893 
L 300.652148 294.437389 
L 301.488312 291.11724 
L 302.324476 285.641888 
L 304.832967 295.98274 
L 305.669131 294.73374 
L 306.505295 296.022687 
L 308.177622 296.038924 
L 310.686114 295.541115 
L 311.522278 296.001993 
L 312.358442 295.929107 
L 313.194605 296.051786 
L 314.030769 296.012758 
L 316.539261 296.05737 
L 317.375425 295.756618 
L 319.047752 296.061115 
L 319.883916 295.92276 
L 324.900899 296.133066 
L 325.737063 295.983475 
L 329.917882 295.949521 
L 330.754046 295.921145 
L 331.59021 296.089283 
L 334.098701 296.108778 
L 334.934865 295.928389 
L 335.771029 295.44033 
L 336.607193 295.965617 
L 337.443357 295.99434 
L 339.951848 295.949352 
L 340.788012 295.175567 
L 341.624176 295.430518 
L 342.46034 294.215461 
L 343.296503 295.904062 
L 346.641159 295.709382 
L 347.477323 295.065822 
L 348.313487 295.98242 
L 352.494306 296.004628 
L 354.166633 295.811737 
L 355.002797 295.200914 
L 357.511289 290.399992 
L 358.347453 295.848079 
L 360.01978 294.380498 
L 360.855944 284.48267 
L 363.364436 284.779803 
L 364.200599 279.612188 
L 365.036763 255.840645 
L 365.872927 295.453904 
L 366.709091 291.041629 
L 369.217582 273.747611 
L 370.053746 295.687757 
L 370.88991 295.942249 
L 371.726074 288.448366 
L 372.562238 294.438729 
L 375.070729 291.14196 
L 375.906893 280.92012 
L 376.743057 282.730038 
L 377.579221 272.933311 
L 378.415385 295.85261 
L 380.923876 292.090169 
L 381.76004 295.892495 
L 382.596204 295.982078 
L 383.432368 294.66461 
L 384.268531 294.746815 
L 386.777023 296.065337 
L 388.449351 296.023943 
L 389.285514 295.854364 
L 390.121678 295.827262 
L 392.63017 296.053518 
L 394.302498 295.796661 
L 395.138661 295.935762 
L 395.974825 295.663733 
L 398.483317 296.007191 
L 399.319481 295.970187 
L 400.155644 296.050496 
L 401.827972 296.039524 
L 404.336464 296.033206 
L 405.172627 295.861221 
L 406.008791 296.037405 
L 407.681119 295.824425 
L 410.18961 296.064513 
L 411.025774 295.985616 
L 413.534266 296.243377 
L 416.042757 295.241608 
L 416.878921 296.003779 
L 417.715085 295.616368 
L 418.551249 296.060942 
L 419.387413 295.643414 
L 421.895904 295.862545 
L 422.732068 296.054657 
L 423.568232 295.960622 
L 424.404396 295.717086 
L 425.240559 296.060303 
L 427.749051 295.712393 
L 428.585215 296.015382 
L 429.421379 296.002806 
L 430.257542 295.730564 
L 431.093706 295.84088 
L 433.602198 294.270504 
L 434.438362 292.801143 
L 435.274525 295.625518 
L 436.110689 296.017569 
L 436.946853 295.964227 
L 440.291508 295.936109 
L 441.127672 295.798943 
L 442.8 296.029516 
L 446.144655 295.410744 
L 446.980819 295.791553 
L 447.816983 296.041302 
L 448.653147 295.961311 
L 451.161638 296.048562 
L 451.997802 295.621627 
L 452.833966 296.078328 
L 453.67013 295.982712 
L 457.850949 296.053434 
L 458.687113 295.929505 
L 459.523277 295.989339 
L 460.359441 295.934198 
L 463.704096 296.021656 
L 464.54026 295.899879 
L 470.393407 295.98496 
L 471.22957 296.407377 
L 472.065734 296.319874 
L 477.082717 296.097601 
L 477.918881 295.978434 
L 480.427373 296.000564 
L 481.263536 296.138616 
L 483.772028 296.130531 
L 489.625175 295.998708 
L 495.478322 296.000662 
L 498.822977 296.061889 
L 499.659141 295.928877 
L 501.331469 295.994996 
L 503.83996 295.78011 
L 504.676124 289.233449 
L 505.512288 295.877161 
L 506.348452 294.776869 
L 507.184615 295.961894 
L 509.693107 295.156016 
L 510.529271 295.955621 
L 511.365435 296.046205 
L 512.201598 295.980357 
L 513.037762 296.046067 
L 518.890909 296.008875 
L 522.235564 296.427505 
L 523.071728 295.949773 
L 523.907892 295.893919 
L 527.252547 295.976057 
L 528.088711 296.164143 
L 530.597203 296.123663 
L 538.958841 296.327959 
L 539.795005 296.612973 
L 540.631169 296.20778 
L 541.467333 296.096953 
L 545.648152 296.408313 
L 546.484316 296.145098 
L 548.156643 295.982 
L 550.665135 296.033458 
L 551.501299 296.169593 
L 554.00979 296.164704 
L 558.190609 296.118152 
L 559.026773 296.261957 
L 559.862937 296.550705 
L 565.716084 296.023181 
L 569.896903 296.356816 
L 570.733067 296.23597 
L 571.569231 296.464116 
L 574.077722 297.355782 
L 574.913886 296.329271 
L 575.75005 296.738091 
L 576.586214 296.544476 
L 577.422378 296.85194 
L 579.930869 296.972623 
L 581.603197 296.794001 
L 583.275524 296.908651 
L 586.62018 296.698247 
L 587.456344 296.440165 
L 588.292507 296.412731 
L 589.128671 296.828442 
L 592.473327 296.38065 
L 593.309491 296.549932 
L 594.145654 296.542304 
L 594.981818 296.727629 
L 599.162637 296.798909 
L 599.998801 296.455089 
L 600.834965 296.32344 
L 604.17962 296.343876 
L 606.688112 296.782114 
L 609.196603 296.604512 
L 611.705095 296.82459 
L 612.541259 296.40177 
L 616.722078 296.718541 
L 618.394406 296.310146 
L 620.902897 296.432018 
L 621.739061 296.614621 
L 623.411389 296.249303 
L 624.247552 296.084742 
L 626.756044 295.996936 
L 628.428372 296.132696 
L 629.264535 296.038414 
L 630.100699 296.098817 
L 632.609191 296.138925 
L 633.445355 296.289581 
L 635.117682 295.969598 
L 645.151648 295.9978 
L 645.987812 297.226347 
L 646.823976 297.092751 
L 647.66014 296.326041 
L 651.004795 296.533863 
L 653.513287 295.987579 
L 656.021778 296.12571 
L 656.857942 296.308966 
L 658.53027 296.215366 
L 659.366434 296.593237 
L 665.21958 295.96338 
L 667.728072 295.850347 
L 668.564236 296.004584 
L 676.925874 295.963078 
L 680.270529 296.038554 
L 681.942857 296.35297 
L 685.287512 295.935313 
L 686.123676 296.067782 
L 691.140659 295.928927 
L 691.976823 295.742767 
L 692.812987 296.059428 
L 694.485315 295.95381 
L 696.993806 295.567483 
L 697.82997 296.003569 
L 698.666134 296.045243 
L 699.502298 295.973758 
L 700.338462 297.167151 
L 702.846953 297.47374 
L 703.683117 296.462204 
L 704.519281 296.581503 
L 705.355445 296.536633 
L 706.191608 296.295221 
L 708.7001 296.503436 
L 709.536264 296.220165 
L 710.372428 296.49525 
L 712.044755 296.612698 
L 714.553247 296.807249 
L 715.389411 297.243486 
L 716.225574 296.422291 
L 717.897902 296.890996 
L 720.406394 297.13336 
L 721.242557 296.707652 
L 722.078721 296.931795 
L 722.914885 296.69109 
L 723.751049 296.917268 
L 726.25954 297.12005 
L 727.095704 296.782053 
L 727.931868 296.866713 
L 728.768032 296.632843 
L 734.621179 297.284045 
L 735.457343 297.07541 
L 738.801998 296.922174 
L 739.638162 297.15947 
L 740.474326 296.417671 
L 747.163636 297.073464 
L 747.163636 297.073464 
" clip-path="url(#p05d7d938ff)" style="fill: none; stroke: #1f77b4; stroke-width: 1.5; stroke-linecap: square"/>
   </g>
   <g id="patch_3">
    <path d="M 108 384.48 
L 108 51.84 
" style="fill: none; stroke: #000000; stroke-width: 0.8; stroke-linejoin: miter; stroke-linecap: square"/>
   </g>
   <g id="patch_4">
    <path d="M 777.6 384.48 
L 777.6 51.84 
" style="fill: none; stroke: #000000; stroke-width: 0.8; stroke-linejoin: miter; stroke-linecap: square"/>
   </g>
   <g id="patch_5">
    <path d="M 108 384.48 
L 777.6 384.48 
" style="fill: none; stroke: #000000; stroke-width: 0.8; stroke-linejoin: miter; stroke-linecap: square"/>
   </g>
   <g id="patch_6">
    <path d="M 108 51.84 
L 777.6 51.84 
" style="fill: none; stroke: #000000; stroke-width: 0.8; stroke-linejoin: miter; stroke-linecap: square"/>
   </g>
   <g id="text_18">
    <!-- Volatility Prediction with LSTM FFNN MDN w MC Dropout -->
    <g transform="translate(274.411875 45.84) scale(0.12 -0.12)">
     <defs>
      <path id="DejaVuSans-20" transform="scale(0.015625)"/>
      <path id="DejaVuSans-50" d="M 1259 4147 
L 1259 2394 
L 2053 2394 
Q 2494 2394 2734 2622 
Q 2975 2850 2975 3272 
Q 2975 3691 2734 3919 
Q 2494 4147 2053 4147 
L 1259 4147 
z
M 628 4666 
L 2053 4666 
Q 2838 4666 3239 4311 
Q 3641 3956 3641 3272 
Q 3641 2581 3239 2228 
Q 2838 1875 2053 1875 
L 1259 1875 
L 1259 0 
L 628 0 
L 628 4666 
z
" transform="scale(0.015625)"/>
      <path id="DejaVuSans-72" d="M 2631 2963 
Q 2534 3019 2420 3045 
Q 2306 3072 2169 3072 
Q 1681 3072 1420 2755 
Q 1159 2438 1159 1844 
L 1159 0 
L 581 0 
L 581 3500 
L 1159 3500 
L 1159 2956 
Q 1341 3275 1631 3429 
Q 1922 3584 2338 3584 
Q 2397 3584 2469 3576 
Q 2541 3569 2628 3553 
L 2631 2963 
z
" transform="scale(0.015625)"/>
      <path id="DejaVuSans-64" d="M 2906 2969 
L 2906 4863 
L 3481 4863 
L 3481 0 
L 2906 0 
L 2906 525 
Q 2725 213 2448 61 
Q 2172 -91 1784 -91 
Q 1150 -91 751 415 
Q 353 922 353 1747 
Q 353 2572 751 3078 
Q 1150 3584 1784 3584 
Q 2172 3584 2448 3432 
Q 2725 3281 2906 2969 
z
M 947 1747 
Q 947 1113 1208 752 
Q 1469 391 1925 391 
Q 2381 391 2643 752 
Q 2906 1113 2906 1747 
Q 2906 2381 2643 2742 
Q 2381 3103 1925 3103 
Q 1469 3103 1208 2742 
Q 947 2381 947 1747 
z
" transform="scale(0.015625)"/>
      <path id="DejaVuSans-63" d="M 3122 3366 
L 3122 2828 
Q 2878 2963 2633 3030 
Q 2388 3097 2138 3097 
Q 1578 3097 1268 2742 
Q 959 2388 959 1747 
Q 959 1106 1268 751 
Q 1578 397 2138 397 
Q 2388 397 2633 464 
Q 2878 531 3122 666 
L 3122 134 
Q 2881 22 2623 -34 
Q 2366 -91 2075 -91 
Q 1284 -91 818 406 
Q 353 903 353 1747 
Q 353 2603 823 3093 
Q 1294 3584 2113 3584 
Q 2378 3584 2631 3529 
Q 2884 3475 3122 3366 
z
" transform="scale(0.015625)"/>
      <path id="DejaVuSans-6e" d="M 3513 2113 
L 3513 0 
L 2938 0 
L 2938 2094 
Q 2938 2591 2744 2837 
Q 2550 3084 2163 3084 
Q 1697 3084 1428 2787 
Q 1159 2491 1159 1978 
L 1159 0 
L 581 0 
L 581 3500 
L 1159 3500 
L 1159 2956 
Q 1366 3272 1645 3428 
Q 1925 3584 2291 3584 
Q 2894 3584 3203 3211 
Q 3513 2838 3513 2113 
z
" transform="scale(0.015625)"/>
      <path id="DejaVuSans-77" d="M 269 3500 
L 844 3500 
L 1563 769 
L 2278 3500 
L 2956 3500 
L 3675 769 
L 4391 3500 
L 4966 3500 
L 4050 0 
L 3372 0 
L 2619 2869 
L 1863 0 
L 1184 0 
L 269 3500 
z
" transform="scale(0.015625)"/>
      <path id="DejaVuSans-68" d="M 3513 2113 
L 3513 0 
L 2938 0 
L 2938 2094 
Q 2938 2591 2744 2837 
Q 2550 3084 2163 3084 
Q 1697 3084 1428 2787 
Q 1159 2491 1159 1978 
L 1159 0 
L 581 0 
L 581 4863 
L 1159 4863 
L 1159 2956 
Q 1366 3272 1645 3428 
Q 1925 3584 2291 3584 
Q 2894 3584 3203 3211 
Q 3513 2838 3513 2113 
z
" transform="scale(0.015625)"/>
      <path id="DejaVuSans-4c" d="M 628 4666 
L 1259 4666 
L 1259 531 
L 3531 531 
L 3531 0 
L 628 0 
L 628 4666 
z
" transform="scale(0.015625)"/>
      <path id="DejaVuSans-53" d="M 3425 4513 
L 3425 3897 
Q 3066 4069 2747 4153 
Q 2428 4238 2131 4238 
Q 1616 4238 1336 4038 
Q 1056 3838 1056 3469 
Q 1056 3159 1242 3001 
Q 1428 2844 1947 2747 
L 2328 2669 
Q 3034 2534 3370 2195 
Q 3706 1856 3706 1288 
Q 3706 609 3251 259 
Q 2797 -91 1919 -91 
Q 1588 -91 1214 -16 
Q 841 59 441 206 
L 441 856 
Q 825 641 1194 531 
Q 1563 422 1919 422 
Q 2459 422 2753 634 
Q 3047 847 3047 1241 
Q 3047 1584 2836 1778 
Q 2625 1972 2144 2069 
L 1759 2144 
Q 1053 2284 737 2584 
Q 422 2884 422 3419 
Q 422 4038 858 4394 
Q 1294 4750 2059 4750 
Q 2388 4750 2728 4690 
Q 3069 4631 3425 4513 
z
" transform="scale(0.015625)"/>
      <path id="DejaVuSans-54" d="M -19 4666 
L 3928 4666 
L 3928 4134 
L 2272 4134 
L 2272 0 
L 1638 0 
L 1638 4134 
L -19 4134 
L -19 4666 
z
" transform="scale(0.015625)"/>
      <path id="DejaVuSans-4d" d="M 628 4666 
L 1569 4666 
L 2759 1491 
L 3956 4666 
L 4897 4666 
L 4897 0 
L 4281 0 
L 4281 4097 
L 3078 897 
L 2444 897 
L 1241 4097 
L 1241 0 
L 628 0 
L 628 4666 
z
" transform="scale(0.015625)"/>
      <path id="DejaVuSans-46" d="M 628 4666 
L 3309 4666 
L 3309 4134 
L 1259 4134 
L 1259 2759 
L 3109 2759 
L 3109 2228 
L 1259 2228 
L 1259 0 
L 628 0 
L 628 4666 
z
" transform="scale(0.015625)"/>
      <path id="DejaVuSans-4e" d="M 628 4666 
L 1478 4666 
L 3547 763 
L 3547 4666 
L 4159 4666 
L 4159 0 
L 3309 0 
L 1241 3903 
L 1241 0 
L 628 0 
L 628 4666 
z
" transform="scale(0.015625)"/>
      <path id="DejaVuSans-43" d="M 4122 4306 
L 4122 3641 
Q 3803 3938 3442 4084 
Q 3081 4231 2675 4231 
Q 1875 4231 1450 3742 
Q 1025 3253 1025 2328 
Q 1025 1406 1450 917 
Q 1875 428 2675 428 
Q 3081 428 3442 575 
Q 3803 722 4122 1019 
L 4122 359 
Q 3791 134 3420 21 
Q 3050 -91 2638 -91 
Q 1578 -91 968 557 
Q 359 1206 359 2328 
Q 359 3453 968 4101 
Q 1578 4750 2638 4750 
Q 3056 4750 3426 4639 
Q 3797 4528 4122 4306 
z
" transform="scale(0.015625)"/>
      <path id="DejaVuSans-70" d="M 1159 525 
L 1159 -1331 
L 581 -1331 
L 581 3500 
L 1159 3500 
L 1159 2969 
Q 1341 3281 1617 3432 
Q 1894 3584 2278 3584 
Q 2916 3584 3314 3078 
Q 3713 2572 3713 1747 
Q 3713 922 3314 415 
Q 2916 -91 2278 -91 
Q 1894 -91 1617 61 
Q 1341 213 1159 525 
z
M 3116 1747 
Q 3116 2381 2855 2742 
Q 2594 3103 2138 3103 
Q 1681 3103 1420 2742 
Q 1159 2381 1159 1747 
Q 1159 1113 1420 752 
Q 1681 391 2138 391 
Q 2594 391 2855 752 
Q 3116 1113 3116 1747 
z
" transform="scale(0.015625)"/>
      <path id="DejaVuSans-75" d="M 544 1381 
L 544 3500 
L 1119 3500 
L 1119 1403 
Q 1119 906 1312 657 
Q 1506 409 1894 409 
Q 2359 409 2629 706 
Q 2900 1003 2900 1516 
L 2900 3500 
L 3475 3500 
L 3475 0 
L 2900 0 
L 2900 538 
Q 2691 219 2414 64 
Q 2138 -91 1772 -91 
Q 1169 -91 856 284 
Q 544 659 544 1381 
z
M 1991 3584 
L 1991 3584 
z
" transform="scale(0.015625)"/>
     </defs>
     <use xlink:href="#DejaVuSans-56"/>
     <use xlink:href="#DejaVuSans-6f" transform="translate(60.658203 0)"/>
     <use xlink:href="#DejaVuSans-6c" transform="translate(121.839844 0)"/>
     <use xlink:href="#DejaVuSans-61" transform="translate(149.623047 0)"/>
     <use xlink:href="#DejaVuSans-74" transform="translate(210.902344 0)"/>
     <use xlink:href="#DejaVuSans-69" transform="translate(250.111328 0)"/>
     <use xlink:href="#DejaVuSans-6c" transform="translate(277.894531 0)"/>
     <use xlink:href="#DejaVuSans-69" transform="translate(305.677734 0)"/>
     <use xlink:href="#DejaVuSans-74" transform="translate(333.460938 0)"/>
     <use xlink:href="#DejaVuSans-79" transform="translate(372.669922 0)"/>
     <use xlink:href="#DejaVuSans-20" transform="translate(431.849609 0)"/>
     <use xlink:href="#DejaVuSans-50" transform="translate(463.636719 0)"/>
     <use xlink:href="#DejaVuSans-72" transform="translate(522.189453 0)"/>
     <use xlink:href="#DejaVuSans-65" transform="translate(561.052734 0)"/>
     <use xlink:href="#DejaVuSans-64" transform="translate(622.576172 0)"/>
     <use xlink:href="#DejaVuSans-69" transform="translate(686.052734 0)"/>
     <use xlink:href="#DejaVuSans-63" transform="translate(713.835938 0)"/>
     <use xlink:href="#DejaVuSans-74" transform="translate(768.816406 0)"/>
     <use xlink:href="#DejaVuSans-69" transform="translate(808.025391 0)"/>
     <use xlink:href="#DejaVuSans-6f" transform="translate(835.808594 0)"/>
     <use xlink:href="#DejaVuSans-6e" transform="translate(896.990234 0)"/>
     <use xlink:href="#DejaVuSans-20" transform="translate(960.369141 0)"/>
     <use xlink:href="#DejaVuSans-77" transform="translate(992.15625 0)"/>
     <use xlink:href="#DejaVuSans-69" transform="translate(1073.943359 0)"/>
     <use xlink:href="#DejaVuSans-74" transform="translate(1101.726562 0)"/>
     <use xlink:href="#DejaVuSans-68" transform="translate(1140.935547 0)"/>
     <use xlink:href="#DejaVuSans-20" transform="translate(1204.314453 0)"/>
     <use xlink:href="#DejaVuSans-4c" transform="translate(1236.101562 0)"/>
     <use xlink:href="#DejaVuSans-53" transform="translate(1291.814453 0)"/>
     <use xlink:href="#DejaVuSans-54" transform="translate(1355.291016 0)"/>
     <use xlink:href="#DejaVuSans-4d" transform="translate(1416.375 0)"/>
     <use xlink:href="#DejaVuSans-20" transform="translate(1502.654297 0)"/>
     <use xlink:href="#DejaVuSans-46" transform="translate(1534.441406 0)"/>
     <use xlink:href="#DejaVuSans-46" transform="translate(1591.960938 0)"/>
     <use xlink:href="#DejaVuSans-4e" transform="translate(1649.480469 0)"/>
     <use xlink:href="#DejaVuSans-4e" transform="translate(1724.285156 0)"/>
     <use xlink:href="#DejaVuSans-20" transform="translate(1799.089844 0)"/>
     <use xlink:href="#DejaVuSans-4d" transform="translate(1830.876953 0)"/>
     <use xlink:href="#DejaVuSans-44" transform="translate(1917.15625 0)"/>
     <use xlink:href="#DejaVuSans-4e" transform="translate(1994.158203 0)"/>
     <use xlink:href="#DejaVuSans-20" transform="translate(2068.962891 0)"/>
     <use xlink:href="#DejaVuSans-77" transform="translate(2100.75 0)"/>
     <use xlink:href="#DejaVuSans-20" transform="translate(2182.537109 0)"/>
     <use xlink:href="#DejaVuSans-4d" transform="translate(2214.324219 0)"/>
     <use xlink:href="#DejaVuSans-43" transform="translate(2300.603516 0)"/>
     <use xlink:href="#DejaVuSans-20" transform="translate(2370.427734 0)"/>
     <use xlink:href="#DejaVuSans-44" transform="translate(2402.214844 0)"/>
     <use xlink:href="#DejaVuSans-72" transform="translate(2479.216797 0)"/>
     <use xlink:href="#DejaVuSans-6f" transform="translate(2518.080078 0)"/>
     <use xlink:href="#DejaVuSans-70" transform="translate(2579.261719 0)"/>
     <use xlink:href="#DejaVuSans-6f" transform="translate(2642.738281 0)"/>
     <use xlink:href="#DejaVuSans-75" transform="translate(2703.919922 0)"/>
     <use xlink:href="#DejaVuSans-74" transform="translate(2767.298828 0)"/>
    </g>
   </g>
   <g id="legend_1">
    <g id="patch_7">
     <path d="M 482.345313 103.874375 
L 770.6 103.874375 
Q 772.6 103.874375 772.6 101.874375 
L 772.6 58.84 
Q 772.6 56.84 770.6 56.84 
L 482.345313 56.84 
Q 480.345313 56.84 480.345313 58.84 
L 480.345313 101.874375 
Q 480.345313 103.874375 482.345313 103.874375 
z
" style="fill: #ffffff; opacity: 0.8; stroke: #cccccc; stroke-linejoin: miter"/>
    </g>
    <g id="line2d_18">
     <path d="M 484.345313 64.938437 
L 494.345313 64.938437 
L 504.345313 64.938437 
" style="fill: none; stroke: #000000; stroke-width: 1.5; stroke-linecap: square"/>
    </g>
    <g id="text_19">
     <!-- Absolute Returns -->
     <g transform="translate(512.345313 68.438437) scale(0.1 -0.1)">
      <defs>
       <path id="DejaVuSans-41" d="M 2188 4044 
L 1331 1722 
L 3047 1722 
L 2188 4044 
z
M 1831 4666 
L 2547 4666 
L 4325 0 
L 3669 0 
L 3244 1197 
L 1141 1197 
L 716 0 
L 50 0 
L 1831 4666 
z
" transform="scale(0.015625)"/>
       <path id="DejaVuSans-62" d="M 3116 1747 
Q 3116 2381 2855 2742 
Q 2594 3103 2138 3103 
Q 1681 3103 1420 2742 
Q 1159 2381 1159 1747 
Q 1159 1113 1420 752 
Q 1681 391 2138 391 
Q 2594 391 2855 752 
Q 3116 1113 3116 1747 
z
M 1159 2969 
Q 1341 3281 1617 3432 
Q 1894 3584 2278 3584 
Q 2916 3584 3314 3078 
Q 3713 2572 3713 1747 
Q 3713 922 3314 415 
Q 2916 -91 2278 -91 
Q 1894 -91 1617 61 
Q 1341 213 1159 525 
L 1159 0 
L 581 0 
L 581 4863 
L 1159 4863 
L 1159 2969 
z
" transform="scale(0.015625)"/>
       <path id="DejaVuSans-73" d="M 2834 3397 
L 2834 2853 
Q 2591 2978 2328 3040 
Q 2066 3103 1784 3103 
Q 1356 3103 1142 2972 
Q 928 2841 928 2578 
Q 928 2378 1081 2264 
Q 1234 2150 1697 2047 
L 1894 2003 
Q 2506 1872 2764 1633 
Q 3022 1394 3022 966 
Q 3022 478 2636 193 
Q 2250 -91 1575 -91 
Q 1294 -91 989 -36 
Q 684 19 347 128 
L 347 722 
Q 666 556 975 473 
Q 1284 391 1588 391 
Q 1994 391 2212 530 
Q 2431 669 2431 922 
Q 2431 1156 2273 1281 
Q 2116 1406 1581 1522 
L 1381 1569 
Q 847 1681 609 1914 
Q 372 2147 372 2553 
Q 372 3047 722 3315 
Q 1072 3584 1716 3584 
Q 2034 3584 2315 3537 
Q 2597 3491 2834 3397 
z
" transform="scale(0.015625)"/>
       <path id="DejaVuSans-52" d="M 2841 2188 
Q 3044 2119 3236 1894 
Q 3428 1669 3622 1275 
L 4263 0 
L 3584 0 
L 2988 1197 
Q 2756 1666 2539 1819 
Q 2322 1972 1947 1972 
L 1259 1972 
L 1259 0 
L 628 0 
L 628 4666 
L 2053 4666 
Q 2853 4666 3247 4331 
Q 3641 3997 3641 3322 
Q 3641 2881 3436 2590 
Q 3231 2300 2841 2188 
z
M 1259 4147 
L 1259 2491 
L 2053 2491 
Q 2509 2491 2742 2702 
Q 2975 2913 2975 3322 
Q 2975 3731 2742 3939 
Q 2509 4147 2053 4147 
L 1259 4147 
z
" transform="scale(0.015625)"/>
      </defs>
      <use xlink:href="#DejaVuSans-41"/>
      <use xlink:href="#DejaVuSans-62" transform="translate(68.408203 0)"/>
      <use xlink:href="#DejaVuSans-73" transform="translate(131.884766 0)"/>
      <use xlink:href="#DejaVuSans-6f" transform="translate(183.984375 0)"/>
      <use xlink:href="#DejaVuSans-6c" transform="translate(245.166016 0)"/>
      <use xlink:href="#DejaVuSans-75" transform="translate(272.949219 0)"/>
      <use xlink:href="#DejaVuSans-74" transform="translate(336.328125 0)"/>
      <use xlink:href="#DejaVuSans-65" transform="translate(375.537109 0)"/>
      <use xlink:href="#DejaVuSans-20" transform="translate(437.060547 0)"/>
      <use xlink:href="#DejaVuSans-52" transform="translate(468.847656 0)"/>
      <use xlink:href="#DejaVuSans-65" transform="translate(533.830078 0)"/>
      <use xlink:href="#DejaVuSans-74" transform="translate(595.353516 0)"/>
      <use xlink:href="#DejaVuSans-75" transform="translate(634.5625 0)"/>
      <use xlink:href="#DejaVuSans-72" transform="translate(697.941406 0)"/>
      <use xlink:href="#DejaVuSans-6e" transform="translate(737.304688 0)"/>
      <use xlink:href="#DejaVuSans-73" transform="translate(800.683594 0)"/>
     </g>
    </g>
    <g id="line2d_19">
     <path d="M 484.345313 79.616562 
L 494.345313 79.616562 
L 504.345313 79.616562 
" style="fill: none; stroke: #1f77b4; stroke-width: 1.5; stroke-linecap: square"/>
    </g>
    <g id="text_20">
     <!-- LSTM FFNN MDN w MC Dropout Volatility Prediction -->
     <g transform="translate(512.345313 83.116562) scale(0.1 -0.1)">
      <use xlink:href="#DejaVuSans-4c"/>
      <use xlink:href="#DejaVuSans-53" transform="translate(55.712891 0)"/>
      <use xlink:href="#DejaVuSans-54" transform="translate(119.189453 0)"/>
      <use xlink:href="#DejaVuSans-4d" transform="translate(180.273438 0)"/>
      <use xlink:href="#DejaVuSans-20" transform="translate(266.552734 0)"/>
      <use xlink:href="#DejaVuSans-46" transform="translate(298.339844 0)"/>
      <use xlink:href="#DejaVuSans-46" transform="translate(355.859375 0)"/>
      <use xlink:href="#DejaVuSans-4e" transform="translate(413.378906 0)"/>
      <use xlink:href="#DejaVuSans-4e" transform="translate(488.183594 0)"/>
      <use xlink:href="#DejaVuSans-20" transform="translate(562.988281 0)"/>
      <use xlink:href="#DejaVuSans-4d" transform="translate(594.775391 0)"/>
      <use xlink:href="#DejaVuSans-44" transform="translate(681.054688 0)"/>
      <use xlink:href="#DejaVuSans-4e" transform="translate(758.056641 0)"/>
      <use xlink:href="#DejaVuSans-20" transform="translate(832.861328 0)"/>
      <use xlink:href="#DejaVuSans-77" transform="translate(864.648438 0)"/>
      <use xlink:href="#DejaVuSans-20" transform="translate(946.435547 0)"/>
      <use xlink:href="#DejaVuSans-4d" transform="translate(978.222656 0)"/>
      <use xlink:href="#DejaVuSans-43" transform="translate(1064.501953 0)"/>
      <use xlink:href="#DejaVuSans-20" transform="translate(1134.326172 0)"/>
      <use xlink:href="#DejaVuSans-44" transform="translate(1166.113281 0)"/>
      <use xlink:href="#DejaVuSans-72" transform="translate(1243.115234 0)"/>
      <use xlink:href="#DejaVuSans-6f" transform="translate(1281.978516 0)"/>
      <use xlink:href="#DejaVuSans-70" transform="translate(1343.160156 0)"/>
      <use xlink:href="#DejaVuSans-6f" transform="translate(1406.636719 0)"/>
      <use xlink:href="#DejaVuSans-75" transform="translate(1467.818359 0)"/>
      <use xlink:href="#DejaVuSans-74" transform="translate(1531.197266 0)"/>
      <use xlink:href="#DejaVuSans-20" transform="translate(1570.40625 0)"/>
      <use xlink:href="#DejaVuSans-56" transform="translate(1602.193359 0)"/>
      <use xlink:href="#DejaVuSans-6f" transform="translate(1662.851562 0)"/>
      <use xlink:href="#DejaVuSans-6c" transform="translate(1724.033203 0)"/>
      <use xlink:href="#DejaVuSans-61" transform="translate(1751.816406 0)"/>
      <use xlink:href="#DejaVuSans-74" transform="translate(1813.095703 0)"/>
      <use xlink:href="#DejaVuSans-69" transform="translate(1852.304688 0)"/>
      <use xlink:href="#DejaVuSans-6c" transform="translate(1880.087891 0)"/>
      <use xlink:href="#DejaVuSans-69" transform="translate(1907.871094 0)"/>
      <use xlink:href="#DejaVuSans-74" transform="translate(1935.654297 0)"/>
      <use xlink:href="#DejaVuSans-79" transform="translate(1974.863281 0)"/>
      <use xlink:href="#DejaVuSans-20" transform="translate(2034.042969 0)"/>
      <use xlink:href="#DejaVuSans-50" transform="translate(2065.830078 0)"/>
      <use xlink:href="#DejaVuSans-72" transform="translate(2124.382812 0)"/>
      <use xlink:href="#DejaVuSans-65" transform="translate(2163.246094 0)"/>
      <use xlink:href="#DejaVuSans-64" transform="translate(2224.769531 0)"/>
      <use xlink:href="#DejaVuSans-69" transform="translate(2288.246094 0)"/>
      <use xlink:href="#DejaVuSans-63" transform="translate(2316.029297 0)"/>
      <use xlink:href="#DejaVuSans-74" transform="translate(2371.009766 0)"/>
      <use xlink:href="#DejaVuSans-69" transform="translate(2410.21875 0)"/>
      <use xlink:href="#DejaVuSans-6f" transform="translate(2438.001953 0)"/>
      <use xlink:href="#DejaVuSans-6e" transform="translate(2499.183594 0)"/>
     </g>
    </g>
    <g id="patch_8">
     <path d="M 484.345313 97.794687 
L 504.345313 97.794687 
L 504.345313 90.794687 
L 484.345313 90.794687 
z
" style="fill: #1f77b4; fill-opacity: 0.5"/>
    </g>
    <g id="text_21">
     <!-- 67% confidence interval -->
     <g transform="translate(512.345313 97.794687) scale(0.1 -0.1)">
      <defs>
       <path id="DejaVuSans-36" d="M 2113 2584 
Q 1688 2584 1439 2293 
Q 1191 2003 1191 1497 
Q 1191 994 1439 701 
Q 1688 409 2113 409 
Q 2538 409 2786 701 
Q 3034 994 3034 1497 
Q 3034 2003 2786 2293 
Q 2538 2584 2113 2584 
z
M 3366 4563 
L 3366 3988 
Q 3128 4100 2886 4159 
Q 2644 4219 2406 4219 
Q 1781 4219 1451 3797 
Q 1122 3375 1075 2522 
Q 1259 2794 1537 2939 
Q 1816 3084 2150 3084 
Q 2853 3084 3261 2657 
Q 3669 2231 3669 1497 
Q 3669 778 3244 343 
Q 2819 -91 2113 -91 
Q 1303 -91 875 529 
Q 447 1150 447 2328 
Q 447 3434 972 4092 
Q 1497 4750 2381 4750 
Q 2619 4750 2861 4703 
Q 3103 4656 3366 4563 
z
" transform="scale(0.015625)"/>
       <path id="DejaVuSans-25" d="M 4653 2053 
Q 4381 2053 4226 1822 
Q 4072 1591 4072 1178 
Q 4072 772 4226 539 
Q 4381 306 4653 306 
Q 4919 306 5073 539 
Q 5228 772 5228 1178 
Q 5228 1588 5073 1820 
Q 4919 2053 4653 2053 
z
M 4653 2450 
Q 5147 2450 5437 2106 
Q 5728 1763 5728 1178 
Q 5728 594 5436 251 
Q 5144 -91 4653 -91 
Q 4153 -91 3862 251 
Q 3572 594 3572 1178 
Q 3572 1766 3864 2108 
Q 4156 2450 4653 2450 
z
M 1428 4353 
Q 1159 4353 1004 4120 
Q 850 3888 850 3481 
Q 850 3069 1003 2837 
Q 1156 2606 1428 2606 
Q 1700 2606 1854 2837 
Q 2009 3069 2009 3481 
Q 2009 3884 1853 4118 
Q 1697 4353 1428 4353 
z
M 4250 4750 
L 4750 4750 
L 1831 -91 
L 1331 -91 
L 4250 4750 
z
M 1428 4750 
Q 1922 4750 2215 4408 
Q 2509 4066 2509 3481 
Q 2509 2891 2217 2550 
Q 1925 2209 1428 2209 
Q 931 2209 642 2551 
Q 353 2894 353 3481 
Q 353 4063 643 4406 
Q 934 4750 1428 4750 
z
" transform="scale(0.015625)"/>
       <path id="DejaVuSans-66" d="M 2375 4863 
L 2375 4384 
L 1825 4384 
Q 1516 4384 1395 4259 
Q 1275 4134 1275 3809 
L 1275 3500 
L 2222 3500 
L 2222 3053 
L 1275 3053 
L 1275 0 
L 697 0 
L 697 3053 
L 147 3053 
L 147 3500 
L 697 3500 
L 697 3744 
Q 697 4328 969 4595 
Q 1241 4863 1831 4863 
L 2375 4863 
z
" transform="scale(0.015625)"/>
       <path id="DejaVuSans-76" d="M 191 3500 
L 800 3500 
L 1894 563 
L 2988 3500 
L 3597 3500 
L 2284 0 
L 1503 0 
L 191 3500 
z
" transform="scale(0.015625)"/>
      </defs>
      <use xlink:href="#DejaVuSans-36"/>
      <use xlink:href="#DejaVuSans-37" transform="translate(63.623047 0)"/>
      <use xlink:href="#DejaVuSans-25" transform="translate(127.246094 0)"/>
      <use xlink:href="#DejaVuSans-20" transform="translate(222.265625 0)"/>
      <use xlink:href="#DejaVuSans-63" transform="translate(254.052734 0)"/>
      <use xlink:href="#DejaVuSans-6f" transform="translate(309.033203 0)"/>
      <use xlink:href="#DejaVuSans-6e" transform="translate(370.214844 0)"/>
      <use xlink:href="#DejaVuSans-66" transform="translate(433.59375 0)"/>
      <use xlink:href="#DejaVuSans-69" transform="translate(468.798828 0)"/>
      <use xlink:href="#DejaVuSans-64" transform="translate(496.582031 0)"/>
      <use xlink:href="#DejaVuSans-65" transform="translate(560.058594 0)"/>
      <use xlink:href="#DejaVuSans-6e" transform="translate(621.582031 0)"/>
      <use xlink:href="#DejaVuSans-63" transform="translate(684.960938 0)"/>
      <use xlink:href="#DejaVuSans-65" transform="translate(739.941406 0)"/>
      <use xlink:href="#DejaVuSans-20" transform="translate(801.464844 0)"/>
      <use xlink:href="#DejaVuSans-69" transform="translate(833.251953 0)"/>
      <use xlink:href="#DejaVuSans-6e" transform="translate(861.035156 0)"/>
      <use xlink:href="#DejaVuSans-74" transform="translate(924.414062 0)"/>
      <use xlink:href="#DejaVuSans-65" transform="translate(963.623047 0)"/>
      <use xlink:href="#DejaVuSans-72" transform="translate(1025.146484 0)"/>
      <use xlink:href="#DejaVuSans-76" transform="translate(1066.259766 0)"/>
      <use xlink:href="#DejaVuSans-61" transform="translate(1125.439453 0)"/>
      <use xlink:href="#DejaVuSans-6c" transform="translate(1186.71875 0)"/>
     </g>
    </g>
   </g>
  </g>
 </g>
 <defs>
  <clipPath id="p05d7d938ff">
   <rect x="108" y="51.84" width="669.6" height="332.64"/>
  </clipPath>
 </defs>
</svg>
