<?xml version="1.0" encoding="utf-8" standalone="no"?>
<!DOCTYPE svg PUBLIC "-//W3C//DTD SVG 1.1//EN"
  "http://www.w3.org/Graphics/SVG/1.1/DTD/svg11.dtd">
<svg xmlns:xlink="http://www.w3.org/1999/xlink" width="864pt" height="432pt" viewBox="0 0 864 432" xmlns="http://www.w3.org/2000/svg" version="1.1">
 <metadata>
  <rdf:RDF xmlns:dc="http://purl.org/dc/elements/1.1/" xmlns:cc="http://creativecommons.org/ns#" xmlns:rdf="http://www.w3.org/1999/02/22-rdf-syntax-ns#">
   <cc:Work>
    <dc:type rdf:resource="http://purl.org/dc/dcmitype/StillImage"/>
    <dc:date>2025-02-17T16:11:05.005213</dc:date>
    <dc:format>image/svg+xml</dc:format>
    <dc:creator>
     <cc:Agent>
      <dc:title>Matplotlib v3.10.0, https://matplotlib.org/</dc:title>
     </cc:Agent>
    </dc:creator>
   </cc:Work>
  </rdf:RDF>
 </metadata>
 <defs>
  <style type="text/css">*{stroke-linejoin: round; stroke-linecap: butt}</style>
 </defs>
 <g id="figure_1">
  <g id="patch_1">
   <path d="M 0 432 
L 864 432 
L 864 0 
L 0 0 
z
" style="fill: #ffffff"/>
  </g>
  <g id="axes_1">
   <g id="patch_2">
    <path d="M 108 384.48 
L 777.6 384.48 
L 777.6 51.84 
L 108 51.84 
z
" style="fill: #ffffff"/>
   </g>
   <g id="matplotlib.axis_1">
    <g id="xtick_1">
     <g id="line2d_1">
      <defs>
       <path id="m97eae95e86" d="M 0 0 
L 0 3.5 
" style="stroke: #000000; stroke-width: 0.8"/>
      </defs>
      <g>
       <use xlink:href="#m97eae95e86" x="139.272527" y="384.48" style="stroke: #000000; stroke-width: 0.8"/>
      </g>
     </g>
     <g id="text_1">
      <!-- 2022-01 -->
      <g transform="translate(118.381121 399.078438) scale(0.1 -0.1)">
       <defs>
        <path id="DejaVuSans-32" d="M 1228 531 
L 3431 531 
L 3431 0 
L 469 0 
L 469 531 
Q 828 903 1448 1529 
Q 2069 2156 2228 2338 
Q 2531 2678 2651 2914 
Q 2772 3150 2772 3378 
Q 2772 3750 2511 3984 
Q 2250 4219 1831 4219 
Q 1534 4219 1204 4116 
Q 875 4013 500 3803 
L 500 4441 
Q 881 4594 1212 4672 
Q 1544 4750 1819 4750 
Q 2544 4750 2975 4387 
Q 3406 4025 3406 3419 
Q 3406 3131 3298 2873 
Q 3191 2616 2906 2266 
Q 2828 2175 2409 1742 
Q 1991 1309 1228 531 
z
" transform="scale(0.015625)"/>
        <path id="DejaVuSans-30" d="M 2034 4250 
Q 1547 4250 1301 3770 
Q 1056 3291 1056 2328 
Q 1056 1369 1301 889 
Q 1547 409 2034 409 
Q 2525 409 2770 889 
Q 3016 1369 3016 2328 
Q 3016 3291 2770 3770 
Q 2525 4250 2034 4250 
z
M 2034 4750 
Q 2819 4750 3233 4129 
Q 3647 3509 3647 2328 
Q 3647 1150 3233 529 
Q 2819 -91 2034 -91 
Q 1250 -91 836 529 
Q 422 1150 422 2328 
Q 422 3509 836 4129 
Q 1250 4750 2034 4750 
z
" transform="scale(0.015625)"/>
        <path id="DejaVuSans-2d" d="M 313 2009 
L 1997 2009 
L 1997 1497 
L 313 1497 
L 313 2009 
z
" transform="scale(0.015625)"/>
        <path id="DejaVuSans-31" d="M 794 531 
L 1825 531 
L 1825 4091 
L 703 3866 
L 703 4441 
L 1819 4666 
L 2450 4666 
L 2450 531 
L 3481 531 
L 3481 0 
L 794 0 
L 794 531 
z
" transform="scale(0.015625)"/>
       </defs>
       <use xlink:href="#DejaVuSans-32"/>
       <use xlink:href="#DejaVuSans-30" transform="translate(63.623047 0)"/>
       <use xlink:href="#DejaVuSans-32" transform="translate(127.246094 0)"/>
       <use xlink:href="#DejaVuSans-32" transform="translate(190.869141 0)"/>
       <use xlink:href="#DejaVuSans-2d" transform="translate(254.492188 0)"/>
       <use xlink:href="#DejaVuSans-30" transform="translate(290.576172 0)"/>
       <use xlink:href="#DejaVuSans-31" transform="translate(354.199219 0)"/>
      </g>
     </g>
    </g>
    <g id="xtick_2">
     <g id="line2d_2">
      <g>
       <use xlink:href="#m97eae95e86" x="214.527273" y="384.48" style="stroke: #000000; stroke-width: 0.8"/>
      </g>
     </g>
     <g id="text_2">
      <!-- 2022-04 -->
      <g transform="translate(193.635866 399.078438) scale(0.1 -0.1)">
       <defs>
        <path id="DejaVuSans-34" d="M 2419 4116 
L 825 1625 
L 2419 1625 
L 2419 4116 
z
M 2253 4666 
L 3047 4666 
L 3047 1625 
L 3713 1625 
L 3713 1100 
L 3047 1100 
L 3047 0 
L 2419 0 
L 2419 1100 
L 313 1100 
L 313 1709 
L 2253 4666 
z
" transform="scale(0.015625)"/>
       </defs>
       <use xlink:href="#DejaVuSans-32"/>
       <use xlink:href="#DejaVuSans-30" transform="translate(63.623047 0)"/>
       <use xlink:href="#DejaVuSans-32" transform="translate(127.246094 0)"/>
       <use xlink:href="#DejaVuSans-32" transform="translate(190.869141 0)"/>
       <use xlink:href="#DejaVuSans-2d" transform="translate(254.492188 0)"/>
       <use xlink:href="#DejaVuSans-30" transform="translate(290.576172 0)"/>
       <use xlink:href="#DejaVuSans-34" transform="translate(354.199219 0)"/>
      </g>
     </g>
    </g>
    <g id="xtick_3">
     <g id="line2d_3">
      <g>
       <use xlink:href="#m97eae95e86" x="290.618182" y="384.48" style="stroke: #000000; stroke-width: 0.8"/>
      </g>
     </g>
     <g id="text_3">
      <!-- 2022-07 -->
      <g transform="translate(269.726776 399.078438) scale(0.1 -0.1)">
       <defs>
        <path id="DejaVuSans-37" d="M 525 4666 
L 3525 4666 
L 3525 4397 
L 1831 0 
L 1172 0 
L 2766 4134 
L 525 4134 
L 525 4666 
z
" transform="scale(0.015625)"/>
       </defs>
       <use xlink:href="#DejaVuSans-32"/>
       <use xlink:href="#DejaVuSans-30" transform="translate(63.623047 0)"/>
       <use xlink:href="#DejaVuSans-32" transform="translate(127.246094 0)"/>
       <use xlink:href="#DejaVuSans-32" transform="translate(190.869141 0)"/>
       <use xlink:href="#DejaVuSans-2d" transform="translate(254.492188 0)"/>
       <use xlink:href="#DejaVuSans-30" transform="translate(290.576172 0)"/>
       <use xlink:href="#DejaVuSans-37" transform="translate(354.199219 0)"/>
      </g>
     </g>
    </g>
    <g id="xtick_4">
     <g id="line2d_4">
      <g>
       <use xlink:href="#m97eae95e86" x="367.545255" y="384.48" style="stroke: #000000; stroke-width: 0.8"/>
      </g>
     </g>
     <g id="text_4">
      <!-- 2022-10 -->
      <g transform="translate(346.653848 399.078438) scale(0.1 -0.1)">
       <use xlink:href="#DejaVuSans-32"/>
       <use xlink:href="#DejaVuSans-30" transform="translate(63.623047 0)"/>
       <use xlink:href="#DejaVuSans-32" transform="translate(127.246094 0)"/>
       <use xlink:href="#DejaVuSans-32" transform="translate(190.869141 0)"/>
       <use xlink:href="#DejaVuSans-2d" transform="translate(254.492188 0)"/>
       <use xlink:href="#DejaVuSans-31" transform="translate(290.576172 0)"/>
       <use xlink:href="#DejaVuSans-30" transform="translate(354.199219 0)"/>
      </g>
     </g>
    </g>
    <g id="xtick_5">
     <g id="line2d_5">
      <g>
       <use xlink:href="#m97eae95e86" x="444.472328" y="384.48" style="stroke: #000000; stroke-width: 0.8"/>
      </g>
     </g>
     <g id="text_5">
      <!-- 2023-01 -->
      <g transform="translate(423.580921 399.078438) scale(0.1 -0.1)">
       <defs>
        <path id="DejaVuSans-33" d="M 2597 2516 
Q 3050 2419 3304 2112 
Q 3559 1806 3559 1356 
Q 3559 666 3084 287 
Q 2609 -91 1734 -91 
Q 1441 -91 1130 -33 
Q 819 25 488 141 
L 488 750 
Q 750 597 1062 519 
Q 1375 441 1716 441 
Q 2309 441 2620 675 
Q 2931 909 2931 1356 
Q 2931 1769 2642 2001 
Q 2353 2234 1838 2234 
L 1294 2234 
L 1294 2753 
L 1863 2753 
Q 2328 2753 2575 2939 
Q 2822 3125 2822 3475 
Q 2822 3834 2567 4026 
Q 2313 4219 1838 4219 
Q 1578 4219 1281 4162 
Q 984 4106 628 3988 
L 628 4550 
Q 988 4650 1302 4700 
Q 1616 4750 1894 4750 
Q 2613 4750 3031 4423 
Q 3450 4097 3450 3541 
Q 3450 3153 3228 2886 
Q 3006 2619 2597 2516 
z
" transform="scale(0.015625)"/>
       </defs>
       <use xlink:href="#DejaVuSans-32"/>
       <use xlink:href="#DejaVuSans-30" transform="translate(63.623047 0)"/>
       <use xlink:href="#DejaVuSans-32" transform="translate(127.246094 0)"/>
       <use xlink:href="#DejaVuSans-33" transform="translate(190.869141 0)"/>
       <use xlink:href="#DejaVuSans-2d" transform="translate(254.492188 0)"/>
       <use xlink:href="#DejaVuSans-30" transform="translate(290.576172 0)"/>
       <use xlink:href="#DejaVuSans-31" transform="translate(354.199219 0)"/>
      </g>
     </g>
    </g>
    <g id="xtick_6">
     <g id="line2d_6">
      <g>
       <use xlink:href="#m97eae95e86" x="519.727073" y="384.48" style="stroke: #000000; stroke-width: 0.8"/>
      </g>
     </g>
     <g id="text_6">
      <!-- 2023-04 -->
      <g transform="translate(498.835667 399.078438) scale(0.1 -0.1)">
       <use xlink:href="#DejaVuSans-32"/>
       <use xlink:href="#DejaVuSans-30" transform="translate(63.623047 0)"/>
       <use xlink:href="#DejaVuSans-32" transform="translate(127.246094 0)"/>
       <use xlink:href="#DejaVuSans-33" transform="translate(190.869141 0)"/>
       <use xlink:href="#DejaVuSans-2d" transform="translate(254.492188 0)"/>
       <use xlink:href="#DejaVuSans-30" transform="translate(290.576172 0)"/>
       <use xlink:href="#DejaVuSans-34" transform="translate(354.199219 0)"/>
      </g>
     </g>
    </g>
    <g id="xtick_7">
     <g id="line2d_7">
      <g>
       <use xlink:href="#m97eae95e86" x="595.817982" y="384.48" style="stroke: #000000; stroke-width: 0.8"/>
      </g>
     </g>
     <g id="text_7">
      <!-- 2023-07 -->
      <g transform="translate(574.926576 399.078438) scale(0.1 -0.1)">
       <use xlink:href="#DejaVuSans-32"/>
       <use xlink:href="#DejaVuSans-30" transform="translate(63.623047 0)"/>
       <use xlink:href="#DejaVuSans-32" transform="translate(127.246094 0)"/>
       <use xlink:href="#DejaVuSans-33" transform="translate(190.869141 0)"/>
       <use xlink:href="#DejaVuSans-2d" transform="translate(254.492188 0)"/>
       <use xlink:href="#DejaVuSans-30" transform="translate(290.576172 0)"/>
       <use xlink:href="#DejaVuSans-37" transform="translate(354.199219 0)"/>
      </g>
     </g>
    </g>
    <g id="xtick_8">
     <g id="line2d_8">
      <g>
       <use xlink:href="#m97eae95e86" x="672.745055" y="384.48" style="stroke: #000000; stroke-width: 0.8"/>
      </g>
     </g>
     <g id="text_8">
      <!-- 2023-10 -->
      <g transform="translate(651.853649 399.078438) scale(0.1 -0.1)">
       <use xlink:href="#DejaVuSans-32"/>
       <use xlink:href="#DejaVuSans-30" transform="translate(63.623047 0)"/>
       <use xlink:href="#DejaVuSans-32" transform="translate(127.246094 0)"/>
       <use xlink:href="#DejaVuSans-33" transform="translate(190.869141 0)"/>
       <use xlink:href="#DejaVuSans-2d" transform="translate(254.492188 0)"/>
       <use xlink:href="#DejaVuSans-31" transform="translate(290.576172 0)"/>
       <use xlink:href="#DejaVuSans-30" transform="translate(354.199219 0)"/>
      </g>
     </g>
    </g>
    <g id="xtick_9">
     <g id="line2d_9">
      <g>
       <use xlink:href="#m97eae95e86" x="749.672128" y="384.48" style="stroke: #000000; stroke-width: 0.8"/>
      </g>
     </g>
     <g id="text_9">
      <!-- 2024-01 -->
      <g transform="translate(728.780722 399.078438) scale(0.1 -0.1)">
       <use xlink:href="#DejaVuSans-32"/>
       <use xlink:href="#DejaVuSans-30" transform="translate(63.623047 0)"/>
       <use xlink:href="#DejaVuSans-32" transform="translate(127.246094 0)"/>
       <use xlink:href="#DejaVuSans-34" transform="translate(190.869141 0)"/>
       <use xlink:href="#DejaVuSans-2d" transform="translate(254.492188 0)"/>
       <use xlink:href="#DejaVuSans-30" transform="translate(290.576172 0)"/>
       <use xlink:href="#DejaVuSans-31" transform="translate(354.199219 0)"/>
      </g>
     </g>
    </g>
    <g id="text_10">
     <!-- Date -->
     <g transform="translate(430.849219 412.756563) scale(0.1 -0.1)">
      <defs>
       <path id="DejaVuSans-44" d="M 1259 4147 
L 1259 519 
L 2022 519 
Q 2988 519 3436 956 
Q 3884 1394 3884 2338 
Q 3884 3275 3436 3711 
Q 2988 4147 2022 4147 
L 1259 4147 
z
M 628 4666 
L 1925 4666 
Q 3281 4666 3915 4102 
Q 4550 3538 4550 2338 
Q 4550 1131 3912 565 
Q 3275 0 1925 0 
L 628 0 
L 628 4666 
z
" transform="scale(0.015625)"/>
       <path id="DejaVuSans-61" d="M 2194 1759 
Q 1497 1759 1228 1600 
Q 959 1441 959 1056 
Q 959 750 1161 570 
Q 1363 391 1709 391 
Q 2188 391 2477 730 
Q 2766 1069 2766 1631 
L 2766 1759 
L 2194 1759 
z
M 3341 1997 
L 3341 0 
L 2766 0 
L 2766 531 
Q 2569 213 2275 61 
Q 1981 -91 1556 -91 
Q 1019 -91 701 211 
Q 384 513 384 1019 
Q 384 1609 779 1909 
Q 1175 2209 1959 2209 
L 2766 2209 
L 2766 2266 
Q 2766 2663 2505 2880 
Q 2244 3097 1772 3097 
Q 1472 3097 1187 3025 
Q 903 2953 641 2809 
L 641 3341 
Q 956 3463 1253 3523 
Q 1550 3584 1831 3584 
Q 2591 3584 2966 3190 
Q 3341 2797 3341 1997 
z
" transform="scale(0.015625)"/>
       <path id="DejaVuSans-74" d="M 1172 4494 
L 1172 3500 
L 2356 3500 
L 2356 3053 
L 1172 3053 
L 1172 1153 
Q 1172 725 1289 603 
Q 1406 481 1766 481 
L 2356 481 
L 2356 0 
L 1766 0 
Q 1100 0 847 248 
Q 594 497 594 1153 
L 594 3053 
L 172 3053 
L 172 3500 
L 594 3500 
L 594 4494 
L 1172 4494 
z
" transform="scale(0.015625)"/>
       <path id="DejaVuSans-65" d="M 3597 1894 
L 3597 1613 
L 953 1613 
Q 991 1019 1311 708 
Q 1631 397 2203 397 
Q 2534 397 2845 478 
Q 3156 559 3463 722 
L 3463 178 
Q 3153 47 2828 -22 
Q 2503 -91 2169 -91 
Q 1331 -91 842 396 
Q 353 884 353 1716 
Q 353 2575 817 3079 
Q 1281 3584 2069 3584 
Q 2775 3584 3186 3129 
Q 3597 2675 3597 1894 
z
M 3022 2063 
Q 3016 2534 2758 2815 
Q 2500 3097 2075 3097 
Q 1594 3097 1305 2825 
Q 1016 2553 972 2059 
L 3022 2063 
z
" transform="scale(0.015625)"/>
      </defs>
      <use xlink:href="#DejaVuSans-44"/>
      <use xlink:href="#DejaVuSans-61" transform="translate(77.001953 0)"/>
      <use xlink:href="#DejaVuSans-74" transform="translate(138.28125 0)"/>
      <use xlink:href="#DejaVuSans-65" transform="translate(177.490234 0)"/>
     </g>
    </g>
   </g>
   <g id="matplotlib.axis_2">
    <g id="ytick_1">
     <g id="line2d_10">
      <defs>
       <path id="m13fee025da" d="M 0 0 
L -3.5 0 
" style="stroke: #000000; stroke-width: 0.8"/>
      </defs>
      <g>
       <use xlink:href="#m13fee025da" x="108" y="369.576546" style="stroke: #000000; stroke-width: 0.8"/>
      </g>
     </g>
     <g id="text_11">
      <!-- 0.00 -->
      <g transform="translate(78.734375 373.375764) scale(0.1 -0.1)">
       <defs>
        <path id="DejaVuSans-2e" d="M 684 794 
L 1344 794 
L 1344 0 
L 684 0 
L 684 794 
z
" transform="scale(0.015625)"/>
       </defs>
       <use xlink:href="#DejaVuSans-30"/>
       <use xlink:href="#DejaVuSans-2e" transform="translate(63.623047 0)"/>
       <use xlink:href="#DejaVuSans-30" transform="translate(95.410156 0)"/>
       <use xlink:href="#DejaVuSans-30" transform="translate(159.033203 0)"/>
      </g>
     </g>
    </g>
    <g id="ytick_2">
     <g id="line2d_11">
      <g>
       <use xlink:href="#m13fee025da" x="108" y="309.837674" style="stroke: #000000; stroke-width: 0.8"/>
      </g>
     </g>
     <g id="text_12">
      <!-- 0.02 -->
      <g transform="translate(78.734375 313.636892) scale(0.1 -0.1)">
       <use xlink:href="#DejaVuSans-30"/>
       <use xlink:href="#DejaVuSans-2e" transform="translate(63.623047 0)"/>
       <use xlink:href="#DejaVuSans-30" transform="translate(95.410156 0)"/>
       <use xlink:href="#DejaVuSans-32" transform="translate(159.033203 0)"/>
      </g>
     </g>
    </g>
    <g id="ytick_3">
     <g id="line2d_12">
      <g>
       <use xlink:href="#m13fee025da" x="108" y="250.098801" style="stroke: #000000; stroke-width: 0.8"/>
      </g>
     </g>
     <g id="text_13">
      <!-- 0.04 -->
      <g transform="translate(78.734375 253.89802) scale(0.1 -0.1)">
       <use xlink:href="#DejaVuSans-30"/>
       <use xlink:href="#DejaVuSans-2e" transform="translate(63.623047 0)"/>
       <use xlink:href="#DejaVuSans-30" transform="translate(95.410156 0)"/>
       <use xlink:href="#DejaVuSans-34" transform="translate(159.033203 0)"/>
      </g>
     </g>
    </g>
    <g id="ytick_4">
     <g id="line2d_13">
      <g>
       <use xlink:href="#m13fee025da" x="108" y="190.359929" style="stroke: #000000; stroke-width: 0.8"/>
      </g>
     </g>
     <g id="text_14">
      <!-- 0.06 -->
      <g transform="translate(78.734375 194.159148) scale(0.1 -0.1)">
       <defs>
        <path id="DejaVuSans-36" d="M 2113 2584 
Q 1688 2584 1439 2293 
Q 1191 2003 1191 1497 
Q 1191 994 1439 701 
Q 1688 409 2113 409 
Q 2538 409 2786 701 
Q 3034 994 3034 1497 
Q 3034 2003 2786 2293 
Q 2538 2584 2113 2584 
z
M 3366 4563 
L 3366 3988 
Q 3128 4100 2886 4159 
Q 2644 4219 2406 4219 
Q 1781 4219 1451 3797 
Q 1122 3375 1075 2522 
Q 1259 2794 1537 2939 
Q 1816 3084 2150 3084 
Q 2853 3084 3261 2657 
Q 3669 2231 3669 1497 
Q 3669 778 3244 343 
Q 2819 -91 2113 -91 
Q 1303 -91 875 529 
Q 447 1150 447 2328 
Q 447 3434 972 4092 
Q 1497 4750 2381 4750 
Q 2619 4750 2861 4703 
Q 3103 4656 3366 4563 
z
" transform="scale(0.015625)"/>
       </defs>
       <use xlink:href="#DejaVuSans-30"/>
       <use xlink:href="#DejaVuSans-2e" transform="translate(63.623047 0)"/>
       <use xlink:href="#DejaVuSans-30" transform="translate(95.410156 0)"/>
       <use xlink:href="#DejaVuSans-36" transform="translate(159.033203 0)"/>
      </g>
     </g>
    </g>
    <g id="ytick_5">
     <g id="line2d_14">
      <g>
       <use xlink:href="#m13fee025da" x="108" y="130.621057" style="stroke: #000000; stroke-width: 0.8"/>
      </g>
     </g>
     <g id="text_15">
      <!-- 0.08 -->
      <g transform="translate(78.734375 134.420276) scale(0.1 -0.1)">
       <defs>
        <path id="DejaVuSans-38" d="M 2034 2216 
Q 1584 2216 1326 1975 
Q 1069 1734 1069 1313 
Q 1069 891 1326 650 
Q 1584 409 2034 409 
Q 2484 409 2743 651 
Q 3003 894 3003 1313 
Q 3003 1734 2745 1975 
Q 2488 2216 2034 2216 
z
M 1403 2484 
Q 997 2584 770 2862 
Q 544 3141 544 3541 
Q 544 4100 942 4425 
Q 1341 4750 2034 4750 
Q 2731 4750 3128 4425 
Q 3525 4100 3525 3541 
Q 3525 3141 3298 2862 
Q 3072 2584 2669 2484 
Q 3125 2378 3379 2068 
Q 3634 1759 3634 1313 
Q 3634 634 3220 271 
Q 2806 -91 2034 -91 
Q 1263 -91 848 271 
Q 434 634 434 1313 
Q 434 1759 690 2068 
Q 947 2378 1403 2484 
z
M 1172 3481 
Q 1172 3119 1398 2916 
Q 1625 2713 2034 2713 
Q 2441 2713 2670 2916 
Q 2900 3119 2900 3481 
Q 2900 3844 2670 4047 
Q 2441 4250 2034 4250 
Q 1625 4250 1398 4047 
Q 1172 3844 1172 3481 
z
" transform="scale(0.015625)"/>
       </defs>
       <use xlink:href="#DejaVuSans-30"/>
       <use xlink:href="#DejaVuSans-2e" transform="translate(63.623047 0)"/>
       <use xlink:href="#DejaVuSans-30" transform="translate(95.410156 0)"/>
       <use xlink:href="#DejaVuSans-38" transform="translate(159.033203 0)"/>
      </g>
     </g>
    </g>
    <g id="ytick_6">
     <g id="line2d_15">
      <g>
       <use xlink:href="#m13fee025da" x="108" y="70.882185" style="stroke: #000000; stroke-width: 0.8"/>
      </g>
     </g>
     <g id="text_16">
      <!-- 0.10 -->
      <g transform="translate(78.734375 74.681404) scale(0.1 -0.1)">
       <use xlink:href="#DejaVuSans-30"/>
       <use xlink:href="#DejaVuSans-2e" transform="translate(63.623047 0)"/>
       <use xlink:href="#DejaVuSans-31" transform="translate(95.410156 0)"/>
       <use xlink:href="#DejaVuSans-30" transform="translate(159.033203 0)"/>
      </g>
     </g>
    </g>
    <g id="text_17">
     <!-- Volatility -->
     <g transform="translate(72.654687 239.752187) rotate(-90) scale(0.1 -0.1)">
      <defs>
       <path id="DejaVuSans-56" d="M 1831 0 
L 50 4666 
L 709 4666 
L 2188 738 
L 3669 4666 
L 4325 4666 
L 2547 0 
L 1831 0 
z
" transform="scale(0.015625)"/>
       <path id="DejaVuSans-6f" d="M 1959 3097 
Q 1497 3097 1228 2736 
Q 959 2375 959 1747 
Q 959 1119 1226 758 
Q 1494 397 1959 397 
Q 2419 397 2687 759 
Q 2956 1122 2956 1747 
Q 2956 2369 2687 2733 
Q 2419 3097 1959 3097 
z
M 1959 3584 
Q 2709 3584 3137 3096 
Q 3566 2609 3566 1747 
Q 3566 888 3137 398 
Q 2709 -91 1959 -91 
Q 1206 -91 779 398 
Q 353 888 353 1747 
Q 353 2609 779 3096 
Q 1206 3584 1959 3584 
z
" transform="scale(0.015625)"/>
       <path id="DejaVuSans-6c" d="M 603 4863 
L 1178 4863 
L 1178 0 
L 603 0 
L 603 4863 
z
" transform="scale(0.015625)"/>
       <path id="DejaVuSans-69" d="M 603 3500 
L 1178 3500 
L 1178 0 
L 603 0 
L 603 3500 
z
M 603 4863 
L 1178 4863 
L 1178 4134 
L 603 4134 
L 603 4863 
z
" transform="scale(0.015625)"/>
       <path id="DejaVuSans-79" d="M 2059 -325 
Q 1816 -950 1584 -1140 
Q 1353 -1331 966 -1331 
L 506 -1331 
L 506 -850 
L 844 -850 
Q 1081 -850 1212 -737 
Q 1344 -625 1503 -206 
L 1606 56 
L 191 3500 
L 800 3500 
L 1894 763 
L 2988 3500 
L 3597 3500 
L 2059 -325 
z
" transform="scale(0.015625)"/>
      </defs>
      <use xlink:href="#DejaVuSans-56"/>
      <use xlink:href="#DejaVuSans-6f" transform="translate(60.658203 0)"/>
      <use xlink:href="#DejaVuSans-6c" transform="translate(121.839844 0)"/>
      <use xlink:href="#DejaVuSans-61" transform="translate(149.623047 0)"/>
      <use xlink:href="#DejaVuSans-74" transform="translate(210.902344 0)"/>
      <use xlink:href="#DejaVuSans-69" transform="translate(250.111328 0)"/>
      <use xlink:href="#DejaVuSans-6c" transform="translate(277.894531 0)"/>
      <use xlink:href="#DejaVuSans-69" transform="translate(305.677734 0)"/>
      <use xlink:href="#DejaVuSans-74" transform="translate(333.460938 0)"/>
      <use xlink:href="#DejaVuSans-79" transform="translate(372.669922 0)"/>
     </g>
    </g>
   </g>
   <g id="line2d_16">
    <path d="M 138.436364 342.387055 
L 140.944855 361.433013 
L 141.781019 355.998362 
L 142.617183 226.317264 
L 143.453347 367.351384 
L 144.28951 357.685707 
L 146.798002 335.553065 
L 147.634166 338.623112 
L 148.47033 334.994777 
L 149.306494 316.023156 
L 150.142657 355.536895 
L 153.487313 293.92432 
L 154.323477 355.550205 
L 155.995804 292.18988 
L 158.504296 363.154615 
L 159.34046 285.076967 
L 160.176623 311.125126 
L 161.012787 366.824922 
L 161.848951 274.670816 
L 164.357443 316.074314 
L 165.193606 321.972741 
L 166.02977 157.246561 
L 167.702098 361.932979 
L 170.210589 283.168026 
L 171.046753 363.670462 
L 171.882917 321.897724 
L 172.719081 308.769986 
L 173.555245 271.603122 
L 176.063736 343.634814 
L 176.8999 344.832201 
L 177.736064 346.41489 
L 178.572228 254.887791 
L 179.408392 327.722926 
L 182.753047 345.09415 
L 183.589211 327.326612 
L 184.425375 252.762068 
L 185.261538 328.30293 
L 187.77003 361.338802 
L 188.606194 353.523659 
L 190.278521 359.729647 
L 191.114685 320.5609 
L 193.623177 238.855787 
L 194.459341 350.412357 
L 195.295504 218.850432 
L 196.131668 343.040717 
L 196.967832 319.485762 
L 199.476324 282.83626 
L 200.312488 301.552075 
L 201.148651 278.152414 
L 201.984815 349.31426 
L 202.820979 321.128714 
L 205.329471 362.515821 
L 206.165634 287.56857 
L 207.001798 331.561646 
L 207.837962 309.614752 
L 208.674126 365.151509 
L 211.182617 360.546373 
L 212.018781 342.346092 
L 212.854945 356.924362 
L 213.691109 306.194278 
L 214.527273 347.191822 
L 217.035764 307.75385 
L 217.871928 315.450253 
L 218.708092 286.1157 
L 219.544256 354.054622 
L 220.38042 315.363507 
L 222.888911 274.142649 
L 223.725075 336.672245 
L 224.561239 325.428762 
L 225.397403 299.219742 
L 228.742058 353.004084 
L 229.578222 310.180357 
L 230.414386 316.813961 
L 231.250549 291.519427 
L 232.086713 239.513868 
L 234.595205 280.132715 
L 235.431369 277.434529 
L 236.267532 255.307503 
L 237.103696 257.670321 
L 237.93986 256.267654 
L 240.448352 313.200613 
L 241.284515 344.88469 
L 242.120679 259.234157 
L 242.956843 224.058145 
L 243.793007 341.648572 
L 246.301499 302.298681 
L 247.137662 330.203648 
L 247.973826 353.278891 
L 248.80999 348.534541 
L 249.646154 282.319782 
L 252.154645 325.076592 
L 252.990809 320.312251 
L 253.826973 257.42712 
L 254.663137 325.256041 
L 255.499301 330.688318 
L 258.007792 305.95059 
L 258.843956 211.93774 
L 259.68012 367.136329 
L 260.516284 301.042925 
L 261.352448 247.890528 
L 264.697103 336.920284 
L 265.533267 367.010814 
L 266.369431 276.592124 
L 267.205594 287.745833 
L 269.714086 306.462389 
L 270.55025 363.991282 
L 271.386414 369.36 
L 272.222577 309.875836 
L 273.058741 277.445202 
L 275.567233 245.020562 
L 276.403397 360.716408 
L 277.23956 281.808712 
L 278.075724 266.219559 
L 278.911888 335.334484 
L 282.256543 256.826319 
L 283.092707 369.070018 
L 283.928871 352.283556 
L 284.765035 218.312619 
L 287.273526 320.915054 
L 288.10969 263.977328 
L 288.945854 361.206635 
L 289.782018 291.835458 
L 290.618182 361.605207 
L 293.962837 240.791483 
L 294.799001 334.987143 
L 295.635165 265.31823 
L 296.471329 348.060609 
L 298.97982 277.547116 
L 299.815984 326.38002 
L 300.652148 299.516267 
L 301.488312 349.621555 
L 302.324476 334.21897 
L 304.832967 292.92606 
L 305.669131 244.243046 
L 306.505295 367.492661 
L 307.341459 360.735478 
L 308.177622 190.894953 
L 310.686114 365.438889 
L 311.522278 292.120076 
L 312.358442 146.925591 
L 313.194605 343.658789 
L 314.030769 316.612795 
L 316.539261 339.722405 
L 317.375425 358.732806 
L 318.211588 296.261212 
L 319.047752 367.314086 
L 319.883916 353.198607 
L 322.392408 367.554537 
L 323.228571 353.351399 
L 324.064735 290.555545 
L 324.900899 348.957105 
L 325.737063 299.848829 
L 328.245554 363.980615 
L 329.081718 360.569207 
L 329.917882 315.698597 
L 330.754046 356.201017 
L 331.59021 301.080624 
L 334.098701 291.436775 
L 334.934865 361.779011 
L 335.771029 367.754215 
L 336.607193 292.456676 
L 337.443357 202.577417 
L 339.951848 343.701218 
L 340.788012 357.913749 
L 341.624176 348.850785 
L 342.46034 331.508434 
L 343.296503 318.618847 
L 346.641159 336.412593 
L 347.477323 287.346811 
L 348.313487 340.779818 
L 349.14965 305.838243 
L 351.658142 367.172461 
L 352.494306 189.078085 
L 353.33047 353.735009 
L 354.166633 313.472666 
L 355.002797 361.804291 
L 357.511289 363.242138 
L 358.347453 310.904725 
L 359.183616 315.708297 
L 360.01978 352.898059 
L 360.855944 327.70417 
L 363.364436 358.713805 
L 364.200599 347.731826 
L 365.036763 289.952001 
L 365.872927 289.952001 
L 366.709091 309.909661 
L 369.217582 273.289091 
L 370.053746 277.462795 
L 370.88991 364.029688 
L 371.726074 368.992286 
L 372.562238 290.53587 
L 375.070729 343.665819 
L 375.906893 349.538141 
L 376.743057 361.97037 
L 378.415385 292.809014 
L 380.923876 260.926535 
L 381.76004 351.551686 
L 382.596204 336.993583 
L 383.432368 362.437213 
L 384.268531 341.48258 
L 386.777023 326.039072 
L 387.613187 313.255428 
L 388.449351 66.96 
L 389.285514 298.81218 
L 390.121678 243.87827 
L 392.63017 309.598311 
L 393.466334 235.338185 
L 394.302498 254.168627 
L 395.138661 244.168073 
L 395.974825 256.888094 
L 398.483317 303.140345 
L 399.319481 360.828942 
L 400.155644 318.412104 
L 400.991808 146.731616 
L 401.827972 289.460784 
L 404.336464 347.882383 
L 405.172627 287.056426 
L 406.008791 361.418483 
L 407.681119 348.273843 
L 410.18961 308.795825 
L 411.025774 323.184897 
L 411.861938 324.196733 
L 413.534266 332.471142 
L 416.042757 327.972888 
L 416.878921 344.333378 
L 417.715085 187.169178 
L 418.551249 364.567173 
L 419.387413 356.275692 
L 421.895904 341.001708 
L 422.732068 292.012687 
L 423.568232 302.528252 
L 424.404396 331.666507 
L 425.240559 341.467021 
L 427.749051 353.892043 
L 428.585215 297.347656 
L 429.421379 352.701084 
L 430.257542 237.912526 
L 431.093706 358.420322 
L 433.602198 312.826094 
L 434.438362 353.537575 
L 435.274525 348.985923 
L 436.110689 302.977951 
L 436.946853 317.576031 
L 440.291508 306.386996 
L 441.127672 319.219131 
L 441.963836 284.769716 
L 442.8 362.180004 
L 446.144655 337.100564 
L 446.980819 336.427079 
L 447.816983 303.530112 
L 448.653147 322.106587 
L 451.161638 347.971094 
L 451.997802 354.813095 
L 452.833966 270.167013 
L 453.67013 358.223699 
L 454.506294 340.791981 
L 457.850949 348.905594 
L 458.687113 357.23497 
L 459.523277 301.048532 
L 460.359441 203.480937 
L 462.867932 312.06764 
L 463.704096 309.960883 
L 464.54026 293.961532 
L 465.376424 295.467138 
L 466.212587 323.248015 
L 468.721079 286.575424 
L 469.557243 311.593236 
L 470.393407 323.280292 
L 471.22957 160.064991 
L 472.065734 269.639522 
L 474.574226 319.480482 
L 475.41039 240.481411 
L 476.246553 138.59216 
L 477.082717 230.794531 
L 477.918881 350.743343 
L 480.427373 365.171507 
L 481.263536 368.00396 
L 482.0997 302.696027 
L 482.935864 328.692823 
L 483.772028 332.233303 
L 487.116683 288.27259 
L 487.952847 361.453224 
L 488.789011 345.729109 
L 489.625175 312.623854 
L 492.133666 344.608914 
L 492.96983 362.953457 
L 493.805994 362.63826 
L 494.642158 310.757395 
L 495.478322 314.751081 
L 497.986813 320.423036 
L 498.822977 325.184673 
L 499.659141 354.390167 
L 500.495305 306.107058 
L 501.331469 315.90862 
L 503.83996 348.319349 
L 504.676124 286.346236 
L 505.512288 297.560696 
L 506.348452 232.916998 
L 507.184615 328.777505 
L 509.693107 354.085768 
L 510.529271 257.14148 
L 511.365435 323.504661 
L 512.201598 311.675003 
L 513.037762 363.949167 
L 515.546254 283.870293 
L 517.218581 353.70568 
L 518.054745 352.526674 
L 518.890909 291.596179 
L 521.399401 343.554366 
L 522.235564 363.603536 
L 523.071728 364.741987 
L 523.907892 259.220847 
L 527.252547 315.606546 
L 528.088711 346.305711 
L 528.924875 344.136307 
L 529.761039 286.433312 
L 530.597203 334.718274 
L 533.105694 285.447292 
L 533.941858 332.864228 
L 534.778022 366.733559 
L 535.614186 344.652022 
L 536.45035 369.294446 
L 538.958841 345.140598 
L 539.795005 308.250183 
L 540.631169 365.004442 
L 541.467333 259.528987 
L 542.303497 365.439271 
L 544.811988 355.466876 
L 545.648152 321.211975 
L 546.484316 365.633403 
L 547.32048 343.852357 
L 548.156643 341.179783 
L 550.665135 313.166154 
L 551.501299 361.28651 
L 552.337463 251.830629 
L 553.173626 249.133598 
L 554.00979 343.627379 
L 556.518282 345.16 
L 557.354446 290.693029 
L 558.190609 335.202092 
L 559.026773 319.833805 
L 559.862937 363.040378 
L 562.371429 306.746673 
L 563.207592 307.715932 
L 564.043756 329.3321 
L 564.87992 303.761334 
L 565.716084 343.746418 
L 569.060739 350.704262 
L 569.896903 338.985509 
L 570.733067 345.46288 
L 571.569231 348.993345 
L 574.077722 336.369638 
L 574.913886 339.53538 
L 575.75005 251.20257 
L 576.586214 363.009322 
L 577.422378 364.710516 
L 579.930869 333.813124 
L 580.767033 367.655483 
L 581.603197 368.375981 
L 582.439361 335.906273 
L 583.275524 328.211686 
L 586.62018 364.516197 
L 587.456344 306.450105 
L 588.292507 305.967692 
L 589.128671 349.009246 
L 591.637163 272.598141 
L 592.473327 367.569505 
L 593.309491 318.069815 
L 594.145654 343.063213 
L 594.981818 345.778071 
L 597.49031 359.435702 
L 599.162637 318.726414 
L 599.998801 327.879407 
L 600.834965 349.999687 
L 603.343457 287.150359 
L 604.17962 348.184847 
L 605.015784 321.498373 
L 605.851948 242.23492 
L 606.688112 348.831431 
L 609.196603 354.329726 
L 610.868931 338.116838 
L 611.705095 289.446555 
L 612.541259 350.148422 
L 615.04975 330.850204 
L 615.885914 347.357703 
L 616.722078 206.967093 
L 617.558242 364.742941 
L 618.394406 298.217389 
L 620.902897 367.331599 
L 621.739061 342.0739 
L 622.575225 295.050999 
L 623.411389 366.559435 
L 624.247552 364.23645 
L 626.756044 291.595798 
L 627.592208 367.311684 
L 628.428372 331.040631 
L 629.264535 368.199568 
L 630.100699 368.658631 
L 632.609191 331.726136 
L 633.445355 334.020043 
L 634.281518 342.859848 
L 635.117682 338.506481 
L 635.953846 315.281548 
L 638.462338 350.518979 
L 639.298501 352.020959 
L 640.134665 289.586571 
L 640.970829 306.35226 
L 641.806993 363.399166 
L 644.315485 344.541268 
L 645.151648 286.873508 
L 645.987812 337.99883 
L 646.823976 360.428541 
L 647.66014 357.591645 
L 651.004795 367.610885 
L 651.840959 340.154527 
L 652.677123 351.318443 
L 653.513287 347.726092 
L 656.021778 357.843243 
L 656.857942 333.140682 
L 657.694106 338.34983 
L 658.53027 337.382937 
L 659.366434 354.711224 
L 661.874925 355.355978 
L 662.711089 366.780784 
L 663.547253 276.930267 
L 664.383417 297.019376 
L 665.21958 367.074237 
L 667.728072 348.712573 
L 668.564236 307.465215 
L 669.4004 323.553745 
L 671.072727 340.71917 
L 673.581219 295.296417 
L 674.417383 327.965488 
L 675.253546 303.756277 
L 676.08971 363.432853 
L 676.925874 309.992477 
L 679.434366 353.043711 
L 680.270529 363.146029 
L 681.106693 316.407757 
L 681.942857 339.705723 
L 682.779021 332.945053 
L 685.287512 328.689584 
L 686.123676 358.964969 
L 686.95984 333.127715 
L 687.796004 363.13586 
L 688.632168 321.042731 
L 691.140659 344.344675 
L 691.976823 321.873793 
L 692.812987 68.152422 
L 693.649151 292.423681 
L 694.485315 368.608465 
L 696.993806 313.228795 
L 697.82997 358.868584 
L 698.666134 315.94793 
L 699.502298 346.021324 
L 700.338462 328.28136 
L 702.846953 344.93425 
L 703.683117 348.067357 
L 704.519281 350.237673 
L 706.191608 316.299184 
L 708.7001 360.204025 
L 709.536264 329.83456 
L 710.372428 348.696928 
L 711.208591 319.192296 
L 712.044755 331.43204 
L 715.389411 354.455001 
L 716.225574 339.560872 
L 717.897902 330.92946 
L 720.406394 365.900613 
L 721.242557 357.269201 
L 722.078721 321.353415 
L 722.914885 314.768796 
L 723.751049 356.164319 
L 726.25954 308.692565 
L 727.931868 347.838249 
L 728.768032 214.151255 
L 729.604196 330.269855 
L 732.112687 326.864253 
L 732.948851 345.978354 
L 733.785015 362.209875 
L 734.621179 352.3593 
L 735.457343 355.259246 
L 737.965834 295.733879 
L 738.801998 349.829084 
L 739.638162 336.024749 
L 740.474326 324.154955 
L 741.31049 350.259857 
L 744.655145 367.484281 
L 745.491309 340.574723 
L 746.327473 366.19566 
L 747.163636 362.167531 
L 747.163636 362.167531 
" clip-path="url(#p3a036b4bd6)" style="fill: none; stroke: #000000; stroke-width: 1.5; stroke-linecap: square"/>
   </g>
   <g id="line2d_17">
    <path d="M 138.436364 325.97718 
L 140.944855 322.944645 
L 141.781019 327.164674 
L 142.617183 328.85523 
L 143.453347 314.144754 
L 144.28951 307.034179 
L 146.798002 315.768068 
L 147.634166 312.951676 
L 148.47033 321.360012 
L 149.306494 323.24918 
L 150.142657 314.867758 
L 153.487313 320.337856 
L 154.323477 317.542265 
L 155.15964 321.290631 
L 155.995804 313.999543 
L 158.504296 307.837105 
L 159.34046 310.973154 
L 160.176623 306.727298 
L 161.012787 300.587611 
L 161.848951 304.896701 
L 164.357443 303.224515 
L 166.02977 316.714795 
L 166.865934 307.938169 
L 167.702098 304.788048 
L 170.210589 309.663654 
L 171.046753 304.902777 
L 171.882917 315.835014 
L 172.719081 315.581163 
L 173.555245 309.606039 
L 176.063736 297.51686 
L 176.8999 298.716834 
L 177.736064 308.387441 
L 178.572228 311.285394 
L 179.408392 300.851161 
L 182.753047 298.554151 
L 183.589211 296.406003 
L 184.425375 301.43702 
L 185.261538 298.293375 
L 187.77003 298.016387 
L 188.606194 307.783382 
L 189.442358 305.243626 
L 190.278521 309.42219 
L 191.114685 306.010294 
L 193.623177 304.349864 
L 194.459341 284.399216 
L 195.295504 307.840693 
L 196.131668 299.200492 
L 196.967832 302.705124 
L 199.476324 304.362454 
L 200.312488 301.484372 
L 201.148651 308.905619 
L 201.984815 309.457704 
L 202.820979 321.199186 
L 205.329471 313.443733 
L 206.165634 320.197744 
L 207.001798 316.078889 
L 207.837962 316.124473 
L 208.674126 316.68049 
L 211.182617 322.567033 
L 212.018781 323.250768 
L 212.854945 323.094509 
L 213.691109 320.902851 
L 214.527273 319.236519 
L 217.035764 319.649742 
L 217.871928 318.823383 
L 219.544256 313.005922 
L 220.38042 314.548511 
L 222.888911 308.855345 
L 223.725075 307.58904 
L 224.561239 305.630396 
L 225.397403 303.264737 
L 228.742058 302.247357 
L 229.578222 305.783641 
L 230.414386 313.369125 
L 231.250549 313.686073 
L 232.086713 311.247111 
L 234.595205 297.4567 
L 235.431369 300.096829 
L 236.267532 301.883129 
L 237.103696 286.44667 
L 237.93986 297.082259 
L 240.448352 291.014092 
L 241.284515 282.87114 
L 242.120679 270.899698 
L 242.956843 293.493094 
L 243.793007 302.550451 
L 246.301499 296.043708 
L 247.137662 290.953756 
L 247.973826 308.987288 
L 248.80999 298.873207 
L 249.646154 294.232494 
L 252.154645 305.661986 
L 252.990809 301.590265 
L 253.826973 303.784579 
L 254.663137 306.302115 
L 255.499301 310.100354 
L 258.007792 307.475852 
L 258.843956 312.371119 
L 259.68012 299.389321 
L 260.516284 304.454649 
L 261.352448 302.14158 
L 264.697103 303.982816 
L 265.533267 295.477166 
L 266.369431 299.636873 
L 267.205594 300.393887 
L 269.714086 303.279857 
L 270.55025 311.138933 
L 271.386414 317.490656 
L 272.222577 316.495816 
L 273.058741 304.664685 
L 275.567233 305.404547 
L 276.403397 287.986852 
L 277.23956 308.546131 
L 278.075724 299.271856 
L 278.911888 287.004766 
L 282.256543 297.46877 
L 283.092707 277.027027 
L 283.928871 304.272066 
L 284.765035 316.90285 
L 287.273526 312.003602 
L 288.10969 309.172215 
L 288.945854 309.850688 
L 289.782018 305.874934 
L 290.618182 306.36462 
L 293.962837 307.206947 
L 294.799001 300.508299 
L 295.635165 313.247216 
L 296.471329 309.424788 
L 298.97982 307.728781 
L 299.815984 307.663259 
L 300.652148 311.976573 
L 301.488312 301.956584 
L 302.324476 313.412009 
L 304.832967 310.437939 
L 305.669131 305.607648 
L 306.505295 310.224023 
L 307.341459 305.746224 
L 308.177622 312.987516 
L 310.686114 288.677039 
L 311.522278 301.247648 
L 312.358442 304.126512 
L 313.194605 298.615547 
L 314.030769 298.9879 
L 316.539261 305.222422 
L 317.375425 306.131366 
L 318.211588 312.581187 
L 319.047752 310.532493 
L 319.883916 315.081074 
L 322.392408 311.479074 
L 323.228571 318.073206 
L 324.064735 316.580994 
L 324.900899 317.177024 
L 325.737063 315.952918 
L 328.245554 311.816727 
L 329.081718 316.899624 
L 329.917882 319.766543 
L 330.754046 320.370401 
L 331.59021 321.471938 
L 334.098701 315.949602 
L 334.934865 313.05954 
L 336.607193 316.182524 
L 337.443357 315.329638 
L 339.951848 298.469934 
L 340.788012 294.161238 
L 341.624176 309.490322 
L 342.46034 307.198649 
L 343.296503 312.215771 
L 346.641159 302.991384 
L 347.477323 302.002601 
L 348.313487 309.642396 
L 349.14965 310.036252 
L 351.658142 308.392351 
L 352.494306 315.13328 
L 353.33047 303.745465 
L 354.166633 309.171899 
L 355.002797 307.27079 
L 357.511289 307.930689 
L 358.347453 308.328879 
L 359.183616 309.137098 
L 360.01978 302.650311 
L 360.855944 307.083341 
L 363.364436 299.623461 
L 364.200599 300.677106 
L 365.036763 303.414891 
L 365.872927 305.59558 
L 366.709091 300.225605 
L 369.217582 280.27994 
L 370.053746 299.420254 
L 370.88991 310.682537 
L 371.726074 304.522766 
L 372.562238 305.418622 
L 375.070729 305.589153 
L 375.906893 304.756912 
L 376.743057 306.794922 
L 377.579221 311.384415 
L 378.415385 313.263895 
L 380.923876 303.609072 
L 381.76004 304.455455 
L 382.596204 316.112961 
L 383.432368 310.905823 
L 384.268531 318.53907 
L 386.777023 314.401263 
L 387.613187 315.286886 
L 388.449351 317.929576 
L 389.285514 289.688866 
L 390.121678 301.542722 
L 392.63017 303.369931 
L 394.302498 299.805516 
L 395.138661 292.353659 
L 395.974825 299.792161 
L 398.483317 301.472188 
L 400.155644 311.675316 
L 400.991808 303.222531 
L 401.827972 298.502871 
L 404.336464 300.783142 
L 405.172627 305.517561 
L 406.008791 308.243016 
L 406.844955 316.383208 
L 407.681119 314.534592 
L 410.18961 315.144531 
L 411.025774 311.357198 
L 411.861938 316.030507 
L 413.534266 314.249855 
L 416.042757 314.530873 
L 416.878921 318.207161 
L 417.715085 320.023408 
L 418.551249 308.579119 
L 419.387413 316.412504 
L 422.732068 313.533948 
L 423.568232 313.530241 
L 424.404396 312.277738 
L 425.240559 314.965548 
L 427.749051 310.423942 
L 428.585215 310.722786 
L 429.421379 315.902262 
L 430.257542 316.988291 
L 431.093706 304.556951 
L 433.602198 303.405455 
L 434.438362 306.771421 
L 435.274525 315.435475 
L 436.110689 316.732654 
L 436.946853 314.04786 
L 440.291508 310.620611 
L 441.127672 308.183038 
L 441.963836 311.145853 
L 442.8 311.771409 
L 446.144655 310.973537 
L 446.980819 310.545938 
L 447.816983 313.716154 
L 448.653147 309.409737 
L 451.997802 313.970791 
L 452.833966 318.832257 
L 453.67013 316.213896 
L 454.506294 319.938576 
L 457.850949 318.799538 
L 458.687113 321.305476 
L 459.523277 322.651429 
L 460.359441 321.200575 
L 462.867932 309.936512 
L 463.704096 313.865388 
L 464.54026 314.071218 
L 465.376424 311.470412 
L 466.212587 315.496074 
L 468.721079 314.730159 
L 469.557243 312.656599 
L 470.393407 316.054271 
L 471.22957 321.676365 
L 472.065734 311.355809 
L 474.574226 304.759995 
L 475.41039 312.00063 
L 476.246553 310.252936 
L 477.082717 296.089122 
L 477.918881 299.315089 
L 480.427373 306.555112 
L 481.263536 318.489475 
L 482.0997 318.192591 
L 482.935864 315.285757 
L 483.772028 314.466471 
L 487.116683 306.974754 
L 487.952847 307.36283 
L 488.789011 311.632719 
L 489.625175 308.339632 
L 492.133666 305.382558 
L 493.805994 312.255545 
L 495.478322 311.488184 
L 497.986813 312.099895 
L 498.822977 309.259999 
L 499.659141 309.872436 
L 500.495305 312.495026 
L 501.331469 305.798239 
L 503.83996 302.412433 
L 504.676124 299.025789 
L 505.512288 293.03565 
L 506.348452 300.869125 
L 507.184615 289.163304 
L 510.529271 309.552361 
L 511.365435 316.6113 
L 512.201598 305.760896 
L 513.037762 310.971213 
L 515.546254 315.433205 
L 516.382418 305.817678 
L 517.218581 311.473933 
L 518.054745 313.964426 
L 518.890909 312.638432 
L 521.399401 312.868761 
L 522.235564 317.998362 
L 523.071728 318.79463 
L 523.907892 320.188243 
L 527.252547 313.95376 
L 528.088711 313.242419 
L 528.924875 315.622911 
L 530.597203 312.062633 
L 533.105694 314.387028 
L 534.778022 312.756831 
L 535.614186 313.571162 
L 536.45035 315.27447 
L 538.958841 319.373431 
L 539.795005 319.932294 
L 540.631169 313.290873 
L 541.467333 315.624563 
L 542.303497 317.102688 
L 544.811988 316.002406 
L 545.648152 318.313933 
L 546.484316 318.982667 
L 547.32048 322.622201 
L 548.156643 320.579326 
L 550.665135 319.473625 
L 551.501299 320.147701 
L 552.337463 324.886382 
L 553.173626 319.734822 
L 554.00979 312.172006 
L 556.518282 314.352982 
L 557.354446 318.046028 
L 558.190609 317.930292 
L 559.026773 321.108332 
L 559.862937 320.727446 
L 562.371429 322.60422 
L 563.207592 322.388676 
L 564.043756 319.836951 
L 564.87992 319.11041 
L 565.716084 319.191577 
L 569.060739 318.765995 
L 569.896903 321.522478 
L 570.733067 323.663501 
L 571.569231 324.401884 
L 574.077722 325.939144 
L 574.913886 323.580229 
L 575.75005 326.525671 
L 576.586214 314.859078 
L 577.422378 323.711677 
L 579.930869 326.478695 
L 580.767033 325.181471 
L 581.603197 329.238084 
L 582.439361 328.850714 
L 583.275524 326.512797 
L 586.62018 324.292294 
L 587.456344 327.631315 
L 588.292507 322.696433 
L 589.128671 323.808242 
L 591.637163 325.14262 
L 592.473327 321.159379 
L 593.309491 324.885403 
L 594.145654 323.832167 
L 594.981818 325.365255 
L 597.49031 325.67182 
L 599.162637 327.068838 
L 599.998801 324.746226 
L 600.834965 322.950225 
L 603.343457 324.780346 
L 604.17962 320.983935 
L 605.015784 324.549094 
L 605.851948 324.235787 
L 606.688112 319.472613 
L 609.196603 323.33005 
L 610.032767 326.673144 
L 610.868931 326.962956 
L 611.705095 325.889816 
L 612.541259 320.827168 
L 615.04975 323.461849 
L 615.885914 325.40617 
L 616.722078 326.738323 
L 617.558242 315.23175 
L 618.394406 322.51925 
L 620.902897 319.364999 
L 621.739061 324.066938 
L 622.575225 324.809791 
L 623.411389 318.783519 
L 624.247552 323.448602 
L 626.756044 323.284565 
L 627.592208 321.292737 
L 628.428372 322.5893 
L 629.264535 320.451348 
L 630.100699 323.863297 
L 632.609191 322.861662 
L 633.445355 324.66597 
L 634.281518 321.232783 
L 635.117682 320.005059 
L 635.953846 320.225893 
L 638.462338 319.001629 
L 639.298501 323.035078 
L 640.134665 321.314706 
L 641.806993 318.571356 
L 644.315485 318.695076 
L 645.151648 321.098756 
L 645.987812 318.495948 
L 647.66014 324.64786 
L 651.004795 325.382842 
L 651.840959 325.853334 
L 652.677123 324.183874 
L 653.513287 327.049921 
L 656.021778 326.421549 
L 656.857942 327.599579 
L 657.694106 324.646656 
L 659.366434 326.949049 
L 661.874925 326.447045 
L 662.711089 327.728955 
L 663.547253 328.343366 
L 664.383417 320.926579 
L 665.21958 317.77053 
L 667.728072 312.130359 
L 668.564236 319.957349 
L 670.236563 311.473324 
L 671.072727 315.616262 
L 673.581219 314.392628 
L 674.417383 312.980234 
L 675.253546 310.647631 
L 676.08971 310.596339 
L 676.925874 316.34838 
L 679.434366 312.043499 
L 680.270529 316.423167 
L 681.106693 319.247242 
L 681.942857 318.367226 
L 682.779021 318.334707 
L 685.287512 311.717728 
L 686.123676 316.180454 
L 686.95984 322.659368 
L 687.796004 321.847069 
L 688.632168 323.762912 
L 691.140659 319.608943 
L 691.976823 321.269355 
L 692.812987 320.70071 
L 693.649151 296.714812 
L 694.485315 306.191314 
L 696.993806 299.967208 
L 697.82997 302.889977 
L 698.666134 315.20879 
L 699.502298 320.627879 
L 700.338462 321.843216 
L 702.846953 319.98936 
L 703.683117 322.876644 
L 704.519281 324.616926 
L 705.355445 325.949367 
L 706.191608 323.452664 
L 708.7001 321.710031 
L 709.536264 324.31576 
L 710.372428 324.168485 
L 711.208591 326.162052 
L 712.044755 323.451329 
L 714.553247 320.496683 
L 715.389411 324.655862 
L 716.225574 326.565767 
L 717.897902 326.270329 
L 720.406394 323.564415 
L 721.242557 329.247896 
L 722.078721 329.047198 
L 722.914885 317.155139 
L 723.751049 317.871052 
L 726.25954 329.470289 
L 727.095704 322.725702 
L 727.931868 327.192416 
L 728.768032 329.739571 
L 729.604196 311.851271 
L 732.112687 320.814733 
L 733.785015 330.45768 
L 734.621179 333.440445 
L 735.457343 333.517496 
L 737.965834 333.492227 
L 738.801998 326.004282 
L 739.638162 330.971181 
L 740.474326 331.778516 
L 741.31049 330.892768 
L 744.655145 332.611975 
L 745.491309 333.723545 
L 746.327473 332.558834 
L 747.163636 333.723545 
L 747.163636 333.723545 
" clip-path="url(#p3a036b4bd6)" style="fill: none; stroke: #1f77b4; stroke-width: 1.5; stroke-linecap: square"/>
   </g>
   <g id="patch_3">
    <path d="M 108 384.48 
L 108 51.84 
" style="fill: none; stroke: #000000; stroke-width: 0.8; stroke-linejoin: miter; stroke-linecap: square"/>
   </g>
   <g id="patch_4">
    <path d="M 777.6 384.48 
L 777.6 51.84 
" style="fill: none; stroke: #000000; stroke-width: 0.8; stroke-linejoin: miter; stroke-linecap: square"/>
   </g>
   <g id="patch_5">
    <path d="M 108 384.48 
L 777.6 384.48 
" style="fill: none; stroke: #000000; stroke-width: 0.8; stroke-linejoin: miter; stroke-linecap: square"/>
   </g>
   <g id="patch_6">
    <path d="M 108 51.84 
L 777.6 51.84 
" style="fill: none; stroke: #000000; stroke-width: 0.8; stroke-linejoin: miter; stroke-linecap: square"/>
   </g>
   <g id="text_18">
    <!-- Volatility Prediction with LSTM FFNN MDN v2 -->
    <g transform="translate(309.388125 45.84) scale(0.12 -0.12)">
     <defs>
      <path id="DejaVuSans-20" transform="scale(0.015625)"/>
      <path id="DejaVuSans-50" d="M 1259 4147 
L 1259 2394 
L 2053 2394 
Q 2494 2394 2734 2622 
Q 2975 2850 2975 3272 
Q 2975 3691 2734 3919 
Q 2494 4147 2053 4147 
L 1259 4147 
z
M 628 4666 
L 2053 4666 
Q 2838 4666 3239 4311 
Q 3641 3956 3641 3272 
Q 3641 2581 3239 2228 
Q 2838 1875 2053 1875 
L 1259 1875 
L 1259 0 
L 628 0 
L 628 4666 
z
" transform="scale(0.015625)"/>
      <path id="DejaVuSans-72" d="M 2631 2963 
Q 2534 3019 2420 3045 
Q 2306 3072 2169 3072 
Q 1681 3072 1420 2755 
Q 1159 2438 1159 1844 
L 1159 0 
L 581 0 
L 581 3500 
L 1159 3500 
L 1159 2956 
Q 1341 3275 1631 3429 
Q 1922 3584 2338 3584 
Q 2397 3584 2469 3576 
Q 2541 3569 2628 3553 
L 2631 2963 
z
" transform="scale(0.015625)"/>
      <path id="DejaVuSans-64" d="M 2906 2969 
L 2906 4863 
L 3481 4863 
L 3481 0 
L 2906 0 
L 2906 525 
Q 2725 213 2448 61 
Q 2172 -91 1784 -91 
Q 1150 -91 751 415 
Q 353 922 353 1747 
Q 353 2572 751 3078 
Q 1150 3584 1784 3584 
Q 2172 3584 2448 3432 
Q 2725 3281 2906 2969 
z
M 947 1747 
Q 947 1113 1208 752 
Q 1469 391 1925 391 
Q 2381 391 2643 752 
Q 2906 1113 2906 1747 
Q 2906 2381 2643 2742 
Q 2381 3103 1925 3103 
Q 1469 3103 1208 2742 
Q 947 2381 947 1747 
z
" transform="scale(0.015625)"/>
      <path id="DejaVuSans-63" d="M 3122 3366 
L 3122 2828 
Q 2878 2963 2633 3030 
Q 2388 3097 2138 3097 
Q 1578 3097 1268 2742 
Q 959 2388 959 1747 
Q 959 1106 1268 751 
Q 1578 397 2138 397 
Q 2388 397 2633 464 
Q 2878 531 3122 666 
L 3122 134 
Q 2881 22 2623 -34 
Q 2366 -91 2075 -91 
Q 1284 -91 818 406 
Q 353 903 353 1747 
Q 353 2603 823 3093 
Q 1294 3584 2113 3584 
Q 2378 3584 2631 3529 
Q 2884 3475 3122 3366 
z
" transform="scale(0.015625)"/>
      <path id="DejaVuSans-6e" d="M 3513 2113 
L 3513 0 
L 2938 0 
L 2938 2094 
Q 2938 2591 2744 2837 
Q 2550 3084 2163 3084 
Q 1697 3084 1428 2787 
Q 1159 2491 1159 1978 
L 1159 0 
L 581 0 
L 581 3500 
L 1159 3500 
L 1159 2956 
Q 1366 3272 1645 3428 
Q 1925 3584 2291 3584 
Q 2894 3584 3203 3211 
Q 3513 2838 3513 2113 
z
" transform="scale(0.015625)"/>
      <path id="DejaVuSans-77" d="M 269 3500 
L 844 3500 
L 1563 769 
L 2278 3500 
L 2956 3500 
L 3675 769 
L 4391 3500 
L 4966 3500 
L 4050 0 
L 3372 0 
L 2619 2869 
L 1863 0 
L 1184 0 
L 269 3500 
z
" transform="scale(0.015625)"/>
      <path id="DejaVuSans-68" d="M 3513 2113 
L 3513 0 
L 2938 0 
L 2938 2094 
Q 2938 2591 2744 2837 
Q 2550 3084 2163 3084 
Q 1697 3084 1428 2787 
Q 1159 2491 1159 1978 
L 1159 0 
L 581 0 
L 581 4863 
L 1159 4863 
L 1159 2956 
Q 1366 3272 1645 3428 
Q 1925 3584 2291 3584 
Q 2894 3584 3203 3211 
Q 3513 2838 3513 2113 
z
" transform="scale(0.015625)"/>
      <path id="DejaVuSans-4c" d="M 628 4666 
L 1259 4666 
L 1259 531 
L 3531 531 
L 3531 0 
L 628 0 
L 628 4666 
z
" transform="scale(0.015625)"/>
      <path id="DejaVuSans-53" d="M 3425 4513 
L 3425 3897 
Q 3066 4069 2747 4153 
Q 2428 4238 2131 4238 
Q 1616 4238 1336 4038 
Q 1056 3838 1056 3469 
Q 1056 3159 1242 3001 
Q 1428 2844 1947 2747 
L 2328 2669 
Q 3034 2534 3370 2195 
Q 3706 1856 3706 1288 
Q 3706 609 3251 259 
Q 2797 -91 1919 -91 
Q 1588 -91 1214 -16 
Q 841 59 441 206 
L 441 856 
Q 825 641 1194 531 
Q 1563 422 1919 422 
Q 2459 422 2753 634 
Q 3047 847 3047 1241 
Q 3047 1584 2836 1778 
Q 2625 1972 2144 2069 
L 1759 2144 
Q 1053 2284 737 2584 
Q 422 2884 422 3419 
Q 422 4038 858 4394 
Q 1294 4750 2059 4750 
Q 2388 4750 2728 4690 
Q 3069 4631 3425 4513 
z
" transform="scale(0.015625)"/>
      <path id="DejaVuSans-54" d="M -19 4666 
L 3928 4666 
L 3928 4134 
L 2272 4134 
L 2272 0 
L 1638 0 
L 1638 4134 
L -19 4134 
L -19 4666 
z
" transform="scale(0.015625)"/>
      <path id="DejaVuSans-4d" d="M 628 4666 
L 1569 4666 
L 2759 1491 
L 3956 4666 
L 4897 4666 
L 4897 0 
L 4281 0 
L 4281 4097 
L 3078 897 
L 2444 897 
L 1241 4097 
L 1241 0 
L 628 0 
L 628 4666 
z
" transform="scale(0.015625)"/>
      <path id="DejaVuSans-46" d="M 628 4666 
L 3309 4666 
L 3309 4134 
L 1259 4134 
L 1259 2759 
L 3109 2759 
L 3109 2228 
L 1259 2228 
L 1259 0 
L 628 0 
L 628 4666 
z
" transform="scale(0.015625)"/>
      <path id="DejaVuSans-4e" d="M 628 4666 
L 1478 4666 
L 3547 763 
L 3547 4666 
L 4159 4666 
L 4159 0 
L 3309 0 
L 1241 3903 
L 1241 0 
L 628 0 
L 628 4666 
z
" transform="scale(0.015625)"/>
      <path id="DejaVuSans-76" d="M 191 3500 
L 800 3500 
L 1894 563 
L 2988 3500 
L 3597 3500 
L 2284 0 
L 1503 0 
L 191 3500 
z
" transform="scale(0.015625)"/>
     </defs>
     <use xlink:href="#DejaVuSans-56"/>
     <use xlink:href="#DejaVuSans-6f" transform="translate(60.658203 0)"/>
     <use xlink:href="#DejaVuSans-6c" transform="translate(121.839844 0)"/>
     <use xlink:href="#DejaVuSans-61" transform="translate(149.623047 0)"/>
     <use xlink:href="#DejaVuSans-74" transform="translate(210.902344 0)"/>
     <use xlink:href="#DejaVuSans-69" transform="translate(250.111328 0)"/>
     <use xlink:href="#DejaVuSans-6c" transform="translate(277.894531 0)"/>
     <use xlink:href="#DejaVuSans-69" transform="translate(305.677734 0)"/>
     <use xlink:href="#DejaVuSans-74" transform="translate(333.460938 0)"/>
     <use xlink:href="#DejaVuSans-79" transform="translate(372.669922 0)"/>
     <use xlink:href="#DejaVuSans-20" transform="translate(431.849609 0)"/>
     <use xlink:href="#DejaVuSans-50" transform="translate(463.636719 0)"/>
     <use xlink:href="#DejaVuSans-72" transform="translate(522.189453 0)"/>
     <use xlink:href="#DejaVuSans-65" transform="translate(561.052734 0)"/>
     <use xlink:href="#DejaVuSans-64" transform="translate(622.576172 0)"/>
     <use xlink:href="#DejaVuSans-69" transform="translate(686.052734 0)"/>
     <use xlink:href="#DejaVuSans-63" transform="translate(713.835938 0)"/>
     <use xlink:href="#DejaVuSans-74" transform="translate(768.816406 0)"/>
     <use xlink:href="#DejaVuSans-69" transform="translate(808.025391 0)"/>
     <use xlink:href="#DejaVuSans-6f" transform="translate(835.808594 0)"/>
     <use xlink:href="#DejaVuSans-6e" transform="translate(896.990234 0)"/>
     <use xlink:href="#DejaVuSans-20" transform="translate(960.369141 0)"/>
     <use xlink:href="#DejaVuSans-77" transform="translate(992.15625 0)"/>
     <use xlink:href="#DejaVuSans-69" transform="translate(1073.943359 0)"/>
     <use xlink:href="#DejaVuSans-74" transform="translate(1101.726562 0)"/>
     <use xlink:href="#DejaVuSans-68" transform="translate(1140.935547 0)"/>
     <use xlink:href="#DejaVuSans-20" transform="translate(1204.314453 0)"/>
     <use xlink:href="#DejaVuSans-4c" transform="translate(1236.101562 0)"/>
     <use xlink:href="#DejaVuSans-53" transform="translate(1291.814453 0)"/>
     <use xlink:href="#DejaVuSans-54" transform="translate(1355.291016 0)"/>
     <use xlink:href="#DejaVuSans-4d" transform="translate(1416.375 0)"/>
     <use xlink:href="#DejaVuSans-20" transform="translate(1502.654297 0)"/>
     <use xlink:href="#DejaVuSans-46" transform="translate(1534.441406 0)"/>
     <use xlink:href="#DejaVuSans-46" transform="translate(1591.960938 0)"/>
     <use xlink:href="#DejaVuSans-4e" transform="translate(1649.480469 0)"/>
     <use xlink:href="#DejaVuSans-4e" transform="translate(1724.285156 0)"/>
     <use xlink:href="#DejaVuSans-20" transform="translate(1799.089844 0)"/>
     <use xlink:href="#DejaVuSans-4d" transform="translate(1830.876953 0)"/>
     <use xlink:href="#DejaVuSans-44" transform="translate(1917.15625 0)"/>
     <use xlink:href="#DejaVuSans-4e" transform="translate(1994.158203 0)"/>
     <use xlink:href="#DejaVuSans-20" transform="translate(2068.962891 0)"/>
     <use xlink:href="#DejaVuSans-76" transform="translate(2100.75 0)"/>
     <use xlink:href="#DejaVuSans-32" transform="translate(2159.929688 0)"/>
    </g>
   </g>
   <g id="legend_1">
    <g id="patch_7">
     <path d="M 115 89.19625 
L 344.960938 89.19625 
Q 346.960938 89.19625 346.960938 87.19625 
L 346.960938 58.84 
Q 346.960938 56.84 344.960938 56.84 
L 115 56.84 
Q 113 56.84 113 58.84 
L 113 87.19625 
Q 113 89.19625 115 89.19625 
z
" style="fill: #ffffff; opacity: 0.8; stroke: #cccccc; stroke-linejoin: miter"/>
    </g>
    <g id="line2d_18">
     <path d="M 117 64.938437 
L 127 64.938437 
L 137 64.938437 
" style="fill: none; stroke: #000000; stroke-width: 1.5; stroke-linecap: square"/>
    </g>
    <g id="text_19">
     <!-- Absolute Returns -->
     <g transform="translate(145 68.438437) scale(0.1 -0.1)">
      <defs>
       <path id="DejaVuSans-41" d="M 2188 4044 
L 1331 1722 
L 3047 1722 
L 2188 4044 
z
M 1831 4666 
L 2547 4666 
L 4325 0 
L 3669 0 
L 3244 1197 
L 1141 1197 
L 716 0 
L 50 0 
L 1831 4666 
z
" transform="scale(0.015625)"/>
       <path id="DejaVuSans-62" d="M 3116 1747 
Q 3116 2381 2855 2742 
Q 2594 3103 2138 3103 
Q 1681 3103 1420 2742 
Q 1159 2381 1159 1747 
Q 1159 1113 1420 752 
Q 1681 391 2138 391 
Q 2594 391 2855 752 
Q 3116 1113 3116 1747 
z
M 1159 2969 
Q 1341 3281 1617 3432 
Q 1894 3584 2278 3584 
Q 2916 3584 3314 3078 
Q 3713 2572 3713 1747 
Q 3713 922 3314 415 
Q 2916 -91 2278 -91 
Q 1894 -91 1617 61 
Q 1341 213 1159 525 
L 1159 0 
L 581 0 
L 581 4863 
L 1159 4863 
L 1159 2969 
z
" transform="scale(0.015625)"/>
       <path id="DejaVuSans-73" d="M 2834 3397 
L 2834 2853 
Q 2591 2978 2328 3040 
Q 2066 3103 1784 3103 
Q 1356 3103 1142 2972 
Q 928 2841 928 2578 
Q 928 2378 1081 2264 
Q 1234 2150 1697 2047 
L 1894 2003 
Q 2506 1872 2764 1633 
Q 3022 1394 3022 966 
Q 3022 478 2636 193 
Q 2250 -91 1575 -91 
Q 1294 -91 989 -36 
Q 684 19 347 128 
L 347 722 
Q 666 556 975 473 
Q 1284 391 1588 391 
Q 1994 391 2212 530 
Q 2431 669 2431 922 
Q 2431 1156 2273 1281 
Q 2116 1406 1581 1522 
L 1381 1569 
Q 847 1681 609 1914 
Q 372 2147 372 2553 
Q 372 3047 722 3315 
Q 1072 3584 1716 3584 
Q 2034 3584 2315 3537 
Q 2597 3491 2834 3397 
z
" transform="scale(0.015625)"/>
       <path id="DejaVuSans-75" d="M 544 1381 
L 544 3500 
L 1119 3500 
L 1119 1403 
Q 1119 906 1312 657 
Q 1506 409 1894 409 
Q 2359 409 2629 706 
Q 2900 1003 2900 1516 
L 2900 3500 
L 3475 3500 
L 3475 0 
L 2900 0 
L 2900 538 
Q 2691 219 2414 64 
Q 2138 -91 1772 -91 
Q 1169 -91 856 284 
Q 544 659 544 1381 
z
M 1991 3584 
L 1991 3584 
z
" transform="scale(0.015625)"/>
       <path id="DejaVuSans-52" d="M 2841 2188 
Q 3044 2119 3236 1894 
Q 3428 1669 3622 1275 
L 4263 0 
L 3584 0 
L 2988 1197 
Q 2756 1666 2539 1819 
Q 2322 1972 1947 1972 
L 1259 1972 
L 1259 0 
L 628 0 
L 628 4666 
L 2053 4666 
Q 2853 4666 3247 4331 
Q 3641 3997 3641 3322 
Q 3641 2881 3436 2590 
Q 3231 2300 2841 2188 
z
M 1259 4147 
L 1259 2491 
L 2053 2491 
Q 2509 2491 2742 2702 
Q 2975 2913 2975 3322 
Q 2975 3731 2742 3939 
Q 2509 4147 2053 4147 
L 1259 4147 
z
" transform="scale(0.015625)"/>
      </defs>
      <use xlink:href="#DejaVuSans-41"/>
      <use xlink:href="#DejaVuSans-62" transform="translate(68.408203 0)"/>
      <use xlink:href="#DejaVuSans-73" transform="translate(131.884766 0)"/>
      <use xlink:href="#DejaVuSans-6f" transform="translate(183.984375 0)"/>
      <use xlink:href="#DejaVuSans-6c" transform="translate(245.166016 0)"/>
      <use xlink:href="#DejaVuSans-75" transform="translate(272.949219 0)"/>
      <use xlink:href="#DejaVuSans-74" transform="translate(336.328125 0)"/>
      <use xlink:href="#DejaVuSans-65" transform="translate(375.537109 0)"/>
      <use xlink:href="#DejaVuSans-20" transform="translate(437.060547 0)"/>
      <use xlink:href="#DejaVuSans-52" transform="translate(468.847656 0)"/>
      <use xlink:href="#DejaVuSans-65" transform="translate(533.830078 0)"/>
      <use xlink:href="#DejaVuSans-74" transform="translate(595.353516 0)"/>
      <use xlink:href="#DejaVuSans-75" transform="translate(634.5625 0)"/>
      <use xlink:href="#DejaVuSans-72" transform="translate(697.941406 0)"/>
      <use xlink:href="#DejaVuSans-6e" transform="translate(737.304688 0)"/>
      <use xlink:href="#DejaVuSans-73" transform="translate(800.683594 0)"/>
     </g>
    </g>
    <g id="line2d_19">
     <path d="M 117 79.616562 
L 127 79.616562 
L 137 79.616562 
" style="fill: none; stroke: #1f77b4; stroke-width: 1.5; stroke-linecap: square"/>
    </g>
    <g id="text_20">
     <!-- LSTM FFNN MDN v2 Volatility Prediction -->
     <g transform="translate(145 83.116562) scale(0.1 -0.1)">
      <use xlink:href="#DejaVuSans-4c"/>
      <use xlink:href="#DejaVuSans-53" transform="translate(55.712891 0)"/>
      <use xlink:href="#DejaVuSans-54" transform="translate(119.189453 0)"/>
      <use xlink:href="#DejaVuSans-4d" transform="translate(180.273438 0)"/>
      <use xlink:href="#DejaVuSans-20" transform="translate(266.552734 0)"/>
      <use xlink:href="#DejaVuSans-46" transform="translate(298.339844 0)"/>
      <use xlink:href="#DejaVuSans-46" transform="translate(355.859375 0)"/>
      <use xlink:href="#DejaVuSans-4e" transform="translate(413.378906 0)"/>
      <use xlink:href="#DejaVuSans-4e" transform="translate(488.183594 0)"/>
      <use xlink:href="#DejaVuSans-20" transform="translate(562.988281 0)"/>
      <use xlink:href="#DejaVuSans-4d" transform="translate(594.775391 0)"/>
      <use xlink:href="#DejaVuSans-44" transform="translate(681.054688 0)"/>
      <use xlink:href="#DejaVuSans-4e" transform="translate(758.056641 0)"/>
      <use xlink:href="#DejaVuSans-20" transform="translate(832.861328 0)"/>
      <use xlink:href="#DejaVuSans-76" transform="translate(864.648438 0)"/>
      <use xlink:href="#DejaVuSans-32" transform="translate(923.828125 0)"/>
      <use xlink:href="#DejaVuSans-20" transform="translate(987.451172 0)"/>
      <use xlink:href="#DejaVuSans-56" transform="translate(1019.238281 0)"/>
      <use xlink:href="#DejaVuSans-6f" transform="translate(1079.896484 0)"/>
      <use xlink:href="#DejaVuSans-6c" transform="translate(1141.078125 0)"/>
      <use xlink:href="#DejaVuSans-61" transform="translate(1168.861328 0)"/>
      <use xlink:href="#DejaVuSans-74" transform="translate(1230.140625 0)"/>
      <use xlink:href="#DejaVuSans-69" transform="translate(1269.349609 0)"/>
      <use xlink:href="#DejaVuSans-6c" transform="translate(1297.132812 0)"/>
      <use xlink:href="#DejaVuSans-69" transform="translate(1324.916016 0)"/>
      <use xlink:href="#DejaVuSans-74" transform="translate(1352.699219 0)"/>
      <use xlink:href="#DejaVuSans-79" transform="translate(1391.908203 0)"/>
      <use xlink:href="#DejaVuSans-20" transform="translate(1451.087891 0)"/>
      <use xlink:href="#DejaVuSans-50" transform="translate(1482.875 0)"/>
      <use xlink:href="#DejaVuSans-72" transform="translate(1541.427734 0)"/>
      <use xlink:href="#DejaVuSans-65" transform="translate(1580.291016 0)"/>
      <use xlink:href="#DejaVuSans-64" transform="translate(1641.814453 0)"/>
      <use xlink:href="#DejaVuSans-69" transform="translate(1705.291016 0)"/>
      <use xlink:href="#DejaVuSans-63" transform="translate(1733.074219 0)"/>
      <use xlink:href="#DejaVuSans-74" transform="translate(1788.054688 0)"/>
      <use xlink:href="#DejaVuSans-69" transform="translate(1827.263672 0)"/>
      <use xlink:href="#DejaVuSans-6f" transform="translate(1855.046875 0)"/>
      <use xlink:href="#DejaVuSans-6e" transform="translate(1916.228516 0)"/>
     </g>
    </g>
   </g>
  </g>
 </g>
 <defs>
  <clipPath id="p3a036b4bd6">
   <rect x="108" y="51.84" width="669.6" height="332.64"/>
  </clipPath>
 </defs>
</svg>
