<?xml version="1.0" encoding="utf-8" standalone="no"?>
<!DOCTYPE svg PUBLIC "-//W3C//DTD SVG 1.1//EN"
  "http://www.w3.org/Graphics/SVG/1.1/DTD/svg11.dtd">
<svg xmlns:xlink="http://www.w3.org/1999/xlink" width="864pt" height="432pt" viewBox="0 0 864 432" xmlns="http://www.w3.org/2000/svg" version="1.1">
 <metadata>
  <rdf:RDF xmlns:dc="http://purl.org/dc/elements/1.1/" xmlns:cc="http://creativecommons.org/ns#" xmlns:rdf="http://www.w3.org/1999/02/22-rdf-syntax-ns#">
   <cc:Work>
    <dc:type rdf:resource="http://purl.org/dc/dcmitype/StillImage"/>
    <dc:date>2025-02-17T16:02:09.095278</dc:date>
    <dc:format>image/svg+xml</dc:format>
    <dc:creator>
     <cc:Agent>
      <dc:title>Matplotlib v3.10.0, https://matplotlib.org/</dc:title>
     </cc:Agent>
    </dc:creator>
   </cc:Work>
  </rdf:RDF>
 </metadata>
 <defs>
  <style type="text/css">*{stroke-linejoin: round; stroke-linecap: butt}</style>
 </defs>
 <g id="figure_1">
  <g id="patch_1">
   <path d="M 0 432 
L 864 432 
L 864 0 
L 0 0 
z
" style="fill: #ffffff"/>
  </g>
  <g id="axes_1">
   <g id="patch_2">
    <path d="M 108 384.48 
L 777.6 384.48 
L 777.6 51.84 
L 108 51.84 
z
" style="fill: #ffffff"/>
   </g>
   <g id="matplotlib.axis_1">
    <g id="xtick_1">
     <g id="line2d_1">
      <defs>
       <path id="m54df87d02b" d="M 0 0 
L 0 3.5 
" style="stroke: #000000; stroke-width: 0.8"/>
      </defs>
      <g>
       <use xlink:href="#m54df87d02b" x="139.272527" y="384.48" style="stroke: #000000; stroke-width: 0.8"/>
      </g>
     </g>
     <g id="text_1">
      <!-- 2022-01 -->
      <g transform="translate(118.381121 399.078438) scale(0.1 -0.1)">
       <defs>
        <path id="DejaVuSans-32" d="M 1228 531 
L 3431 531 
L 3431 0 
L 469 0 
L 469 531 
Q 828 903 1448 1529 
Q 2069 2156 2228 2338 
Q 2531 2678 2651 2914 
Q 2772 3150 2772 3378 
Q 2772 3750 2511 3984 
Q 2250 4219 1831 4219 
Q 1534 4219 1204 4116 
Q 875 4013 500 3803 
L 500 4441 
Q 881 4594 1212 4672 
Q 1544 4750 1819 4750 
Q 2544 4750 2975 4387 
Q 3406 4025 3406 3419 
Q 3406 3131 3298 2873 
Q 3191 2616 2906 2266 
Q 2828 2175 2409 1742 
Q 1991 1309 1228 531 
z
" transform="scale(0.015625)"/>
        <path id="DejaVuSans-30" d="M 2034 4250 
Q 1547 4250 1301 3770 
Q 1056 3291 1056 2328 
Q 1056 1369 1301 889 
Q 1547 409 2034 409 
Q 2525 409 2770 889 
Q 3016 1369 3016 2328 
Q 3016 3291 2770 3770 
Q 2525 4250 2034 4250 
z
M 2034 4750 
Q 2819 4750 3233 4129 
Q 3647 3509 3647 2328 
Q 3647 1150 3233 529 
Q 2819 -91 2034 -91 
Q 1250 -91 836 529 
Q 422 1150 422 2328 
Q 422 3509 836 4129 
Q 1250 4750 2034 4750 
z
" transform="scale(0.015625)"/>
        <path id="DejaVuSans-2d" d="M 313 2009 
L 1997 2009 
L 1997 1497 
L 313 1497 
L 313 2009 
z
" transform="scale(0.015625)"/>
        <path id="DejaVuSans-31" d="M 794 531 
L 1825 531 
L 1825 4091 
L 703 3866 
L 703 4441 
L 1819 4666 
L 2450 4666 
L 2450 531 
L 3481 531 
L 3481 0 
L 794 0 
L 794 531 
z
" transform="scale(0.015625)"/>
       </defs>
       <use xlink:href="#DejaVuSans-32"/>
       <use xlink:href="#DejaVuSans-30" transform="translate(63.623047 0)"/>
       <use xlink:href="#DejaVuSans-32" transform="translate(127.246094 0)"/>
       <use xlink:href="#DejaVuSans-32" transform="translate(190.869141 0)"/>
       <use xlink:href="#DejaVuSans-2d" transform="translate(254.492188 0)"/>
       <use xlink:href="#DejaVuSans-30" transform="translate(290.576172 0)"/>
       <use xlink:href="#DejaVuSans-31" transform="translate(354.199219 0)"/>
      </g>
     </g>
    </g>
    <g id="xtick_2">
     <g id="line2d_2">
      <g>
       <use xlink:href="#m54df87d02b" x="214.527273" y="384.48" style="stroke: #000000; stroke-width: 0.8"/>
      </g>
     </g>
     <g id="text_2">
      <!-- 2022-04 -->
      <g transform="translate(193.635866 399.078438) scale(0.1 -0.1)">
       <defs>
        <path id="DejaVuSans-34" d="M 2419 4116 
L 825 1625 
L 2419 1625 
L 2419 4116 
z
M 2253 4666 
L 3047 4666 
L 3047 1625 
L 3713 1625 
L 3713 1100 
L 3047 1100 
L 3047 0 
L 2419 0 
L 2419 1100 
L 313 1100 
L 313 1709 
L 2253 4666 
z
" transform="scale(0.015625)"/>
       </defs>
       <use xlink:href="#DejaVuSans-32"/>
       <use xlink:href="#DejaVuSans-30" transform="translate(63.623047 0)"/>
       <use xlink:href="#DejaVuSans-32" transform="translate(127.246094 0)"/>
       <use xlink:href="#DejaVuSans-32" transform="translate(190.869141 0)"/>
       <use xlink:href="#DejaVuSans-2d" transform="translate(254.492188 0)"/>
       <use xlink:href="#DejaVuSans-30" transform="translate(290.576172 0)"/>
       <use xlink:href="#DejaVuSans-34" transform="translate(354.199219 0)"/>
      </g>
     </g>
    </g>
    <g id="xtick_3">
     <g id="line2d_3">
      <g>
       <use xlink:href="#m54df87d02b" x="290.618182" y="384.48" style="stroke: #000000; stroke-width: 0.8"/>
      </g>
     </g>
     <g id="text_3">
      <!-- 2022-07 -->
      <g transform="translate(269.726776 399.078438) scale(0.1 -0.1)">
       <defs>
        <path id="DejaVuSans-37" d="M 525 4666 
L 3525 4666 
L 3525 4397 
L 1831 0 
L 1172 0 
L 2766 4134 
L 525 4134 
L 525 4666 
z
" transform="scale(0.015625)"/>
       </defs>
       <use xlink:href="#DejaVuSans-32"/>
       <use xlink:href="#DejaVuSans-30" transform="translate(63.623047 0)"/>
       <use xlink:href="#DejaVuSans-32" transform="translate(127.246094 0)"/>
       <use xlink:href="#DejaVuSans-32" transform="translate(190.869141 0)"/>
       <use xlink:href="#DejaVuSans-2d" transform="translate(254.492188 0)"/>
       <use xlink:href="#DejaVuSans-30" transform="translate(290.576172 0)"/>
       <use xlink:href="#DejaVuSans-37" transform="translate(354.199219 0)"/>
      </g>
     </g>
    </g>
    <g id="xtick_4">
     <g id="line2d_4">
      <g>
       <use xlink:href="#m54df87d02b" x="367.545255" y="384.48" style="stroke: #000000; stroke-width: 0.8"/>
      </g>
     </g>
     <g id="text_4">
      <!-- 2022-10 -->
      <g transform="translate(346.653848 399.078438) scale(0.1 -0.1)">
       <use xlink:href="#DejaVuSans-32"/>
       <use xlink:href="#DejaVuSans-30" transform="translate(63.623047 0)"/>
       <use xlink:href="#DejaVuSans-32" transform="translate(127.246094 0)"/>
       <use xlink:href="#DejaVuSans-32" transform="translate(190.869141 0)"/>
       <use xlink:href="#DejaVuSans-2d" transform="translate(254.492188 0)"/>
       <use xlink:href="#DejaVuSans-31" transform="translate(290.576172 0)"/>
       <use xlink:href="#DejaVuSans-30" transform="translate(354.199219 0)"/>
      </g>
     </g>
    </g>
    <g id="xtick_5">
     <g id="line2d_5">
      <g>
       <use xlink:href="#m54df87d02b" x="444.472328" y="384.48" style="stroke: #000000; stroke-width: 0.8"/>
      </g>
     </g>
     <g id="text_5">
      <!-- 2023-01 -->
      <g transform="translate(423.580921 399.078438) scale(0.1 -0.1)">
       <defs>
        <path id="DejaVuSans-33" d="M 2597 2516 
Q 3050 2419 3304 2112 
Q 3559 1806 3559 1356 
Q 3559 666 3084 287 
Q 2609 -91 1734 -91 
Q 1441 -91 1130 -33 
Q 819 25 488 141 
L 488 750 
Q 750 597 1062 519 
Q 1375 441 1716 441 
Q 2309 441 2620 675 
Q 2931 909 2931 1356 
Q 2931 1769 2642 2001 
Q 2353 2234 1838 2234 
L 1294 2234 
L 1294 2753 
L 1863 2753 
Q 2328 2753 2575 2939 
Q 2822 3125 2822 3475 
Q 2822 3834 2567 4026 
Q 2313 4219 1838 4219 
Q 1578 4219 1281 4162 
Q 984 4106 628 3988 
L 628 4550 
Q 988 4650 1302 4700 
Q 1616 4750 1894 4750 
Q 2613 4750 3031 4423 
Q 3450 4097 3450 3541 
Q 3450 3153 3228 2886 
Q 3006 2619 2597 2516 
z
" transform="scale(0.015625)"/>
       </defs>
       <use xlink:href="#DejaVuSans-32"/>
       <use xlink:href="#DejaVuSans-30" transform="translate(63.623047 0)"/>
       <use xlink:href="#DejaVuSans-32" transform="translate(127.246094 0)"/>
       <use xlink:href="#DejaVuSans-33" transform="translate(190.869141 0)"/>
       <use xlink:href="#DejaVuSans-2d" transform="translate(254.492188 0)"/>
       <use xlink:href="#DejaVuSans-30" transform="translate(290.576172 0)"/>
       <use xlink:href="#DejaVuSans-31" transform="translate(354.199219 0)"/>
      </g>
     </g>
    </g>
    <g id="xtick_6">
     <g id="line2d_6">
      <g>
       <use xlink:href="#m54df87d02b" x="519.727073" y="384.48" style="stroke: #000000; stroke-width: 0.8"/>
      </g>
     </g>
     <g id="text_6">
      <!-- 2023-04 -->
      <g transform="translate(498.835667 399.078438) scale(0.1 -0.1)">
       <use xlink:href="#DejaVuSans-32"/>
       <use xlink:href="#DejaVuSans-30" transform="translate(63.623047 0)"/>
       <use xlink:href="#DejaVuSans-32" transform="translate(127.246094 0)"/>
       <use xlink:href="#DejaVuSans-33" transform="translate(190.869141 0)"/>
       <use xlink:href="#DejaVuSans-2d" transform="translate(254.492188 0)"/>
       <use xlink:href="#DejaVuSans-30" transform="translate(290.576172 0)"/>
       <use xlink:href="#DejaVuSans-34" transform="translate(354.199219 0)"/>
      </g>
     </g>
    </g>
    <g id="xtick_7">
     <g id="line2d_7">
      <g>
       <use xlink:href="#m54df87d02b" x="595.817982" y="384.48" style="stroke: #000000; stroke-width: 0.8"/>
      </g>
     </g>
     <g id="text_7">
      <!-- 2023-07 -->
      <g transform="translate(574.926576 399.078438) scale(0.1 -0.1)">
       <use xlink:href="#DejaVuSans-32"/>
       <use xlink:href="#DejaVuSans-30" transform="translate(63.623047 0)"/>
       <use xlink:href="#DejaVuSans-32" transform="translate(127.246094 0)"/>
       <use xlink:href="#DejaVuSans-33" transform="translate(190.869141 0)"/>
       <use xlink:href="#DejaVuSans-2d" transform="translate(254.492188 0)"/>
       <use xlink:href="#DejaVuSans-30" transform="translate(290.576172 0)"/>
       <use xlink:href="#DejaVuSans-37" transform="translate(354.199219 0)"/>
      </g>
     </g>
    </g>
    <g id="xtick_8">
     <g id="line2d_8">
      <g>
       <use xlink:href="#m54df87d02b" x="672.745055" y="384.48" style="stroke: #000000; stroke-width: 0.8"/>
      </g>
     </g>
     <g id="text_8">
      <!-- 2023-10 -->
      <g transform="translate(651.853649 399.078438) scale(0.1 -0.1)">
       <use xlink:href="#DejaVuSans-32"/>
       <use xlink:href="#DejaVuSans-30" transform="translate(63.623047 0)"/>
       <use xlink:href="#DejaVuSans-32" transform="translate(127.246094 0)"/>
       <use xlink:href="#DejaVuSans-33" transform="translate(190.869141 0)"/>
       <use xlink:href="#DejaVuSans-2d" transform="translate(254.492188 0)"/>
       <use xlink:href="#DejaVuSans-31" transform="translate(290.576172 0)"/>
       <use xlink:href="#DejaVuSans-30" transform="translate(354.199219 0)"/>
      </g>
     </g>
    </g>
    <g id="xtick_9">
     <g id="line2d_9">
      <g>
       <use xlink:href="#m54df87d02b" x="749.672128" y="384.48" style="stroke: #000000; stroke-width: 0.8"/>
      </g>
     </g>
     <g id="text_9">
      <!-- 2024-01 -->
      <g transform="translate(728.780722 399.078438) scale(0.1 -0.1)">
       <use xlink:href="#DejaVuSans-32"/>
       <use xlink:href="#DejaVuSans-30" transform="translate(63.623047 0)"/>
       <use xlink:href="#DejaVuSans-32" transform="translate(127.246094 0)"/>
       <use xlink:href="#DejaVuSans-34" transform="translate(190.869141 0)"/>
       <use xlink:href="#DejaVuSans-2d" transform="translate(254.492188 0)"/>
       <use xlink:href="#DejaVuSans-30" transform="translate(290.576172 0)"/>
       <use xlink:href="#DejaVuSans-31" transform="translate(354.199219 0)"/>
      </g>
     </g>
    </g>
    <g id="text_10">
     <!-- Date -->
     <g transform="translate(430.849219 412.756563) scale(0.1 -0.1)">
      <defs>
       <path id="DejaVuSans-44" d="M 1259 4147 
L 1259 519 
L 2022 519 
Q 2988 519 3436 956 
Q 3884 1394 3884 2338 
Q 3884 3275 3436 3711 
Q 2988 4147 2022 4147 
L 1259 4147 
z
M 628 4666 
L 1925 4666 
Q 3281 4666 3915 4102 
Q 4550 3538 4550 2338 
Q 4550 1131 3912 565 
Q 3275 0 1925 0 
L 628 0 
L 628 4666 
z
" transform="scale(0.015625)"/>
       <path id="DejaVuSans-61" d="M 2194 1759 
Q 1497 1759 1228 1600 
Q 959 1441 959 1056 
Q 959 750 1161 570 
Q 1363 391 1709 391 
Q 2188 391 2477 730 
Q 2766 1069 2766 1631 
L 2766 1759 
L 2194 1759 
z
M 3341 1997 
L 3341 0 
L 2766 0 
L 2766 531 
Q 2569 213 2275 61 
Q 1981 -91 1556 -91 
Q 1019 -91 701 211 
Q 384 513 384 1019 
Q 384 1609 779 1909 
Q 1175 2209 1959 2209 
L 2766 2209 
L 2766 2266 
Q 2766 2663 2505 2880 
Q 2244 3097 1772 3097 
Q 1472 3097 1187 3025 
Q 903 2953 641 2809 
L 641 3341 
Q 956 3463 1253 3523 
Q 1550 3584 1831 3584 
Q 2591 3584 2966 3190 
Q 3341 2797 3341 1997 
z
" transform="scale(0.015625)"/>
       <path id="DejaVuSans-74" d="M 1172 4494 
L 1172 3500 
L 2356 3500 
L 2356 3053 
L 1172 3053 
L 1172 1153 
Q 1172 725 1289 603 
Q 1406 481 1766 481 
L 2356 481 
L 2356 0 
L 1766 0 
Q 1100 0 847 248 
Q 594 497 594 1153 
L 594 3053 
L 172 3053 
L 172 3500 
L 594 3500 
L 594 4494 
L 1172 4494 
z
" transform="scale(0.015625)"/>
       <path id="DejaVuSans-65" d="M 3597 1894 
L 3597 1613 
L 953 1613 
Q 991 1019 1311 708 
Q 1631 397 2203 397 
Q 2534 397 2845 478 
Q 3156 559 3463 722 
L 3463 178 
Q 3153 47 2828 -22 
Q 2503 -91 2169 -91 
Q 1331 -91 842 396 
Q 353 884 353 1716 
Q 353 2575 817 3079 
Q 1281 3584 2069 3584 
Q 2775 3584 3186 3129 
Q 3597 2675 3597 1894 
z
M 3022 2063 
Q 3016 2534 2758 2815 
Q 2500 3097 2075 3097 
Q 1594 3097 1305 2825 
Q 1016 2553 972 2059 
L 3022 2063 
z
" transform="scale(0.015625)"/>
      </defs>
      <use xlink:href="#DejaVuSans-44"/>
      <use xlink:href="#DejaVuSans-61" transform="translate(77.001953 0)"/>
      <use xlink:href="#DejaVuSans-74" transform="translate(138.28125 0)"/>
      <use xlink:href="#DejaVuSans-65" transform="translate(177.490234 0)"/>
     </g>
    </g>
   </g>
   <g id="matplotlib.axis_2">
    <g id="ytick_1">
     <g id="line2d_10">
      <defs>
       <path id="mc2b30dca74" d="M 0 0 
L -3.5 0 
" style="stroke: #000000; stroke-width: 0.8"/>
      </defs>
      <g>
       <use xlink:href="#mc2b30dca74" x="108" y="369.36" style="stroke: #000000; stroke-width: 0.8"/>
      </g>
     </g>
     <g id="text_11">
      <!-- 0.00 -->
      <g transform="translate(78.734375 373.159219) scale(0.1 -0.1)">
       <defs>
        <path id="DejaVuSans-2e" d="M 684 794 
L 1344 794 
L 1344 0 
L 684 0 
L 684 794 
z
" transform="scale(0.015625)"/>
       </defs>
       <use xlink:href="#DejaVuSans-30"/>
       <use xlink:href="#DejaVuSans-2e" transform="translate(63.623047 0)"/>
       <use xlink:href="#DejaVuSans-30" transform="translate(95.410156 0)"/>
       <use xlink:href="#DejaVuSans-30" transform="translate(159.033203 0)"/>
      </g>
     </g>
    </g>
    <g id="ytick_2">
     <g id="line2d_11">
      <g>
       <use xlink:href="#mc2b30dca74" x="108" y="308.346534" style="stroke: #000000; stroke-width: 0.8"/>
      </g>
     </g>
     <g id="text_12">
      <!-- 0.02 -->
      <g transform="translate(78.734375 312.145753) scale(0.1 -0.1)">
       <use xlink:href="#DejaVuSans-30"/>
       <use xlink:href="#DejaVuSans-2e" transform="translate(63.623047 0)"/>
       <use xlink:href="#DejaVuSans-30" transform="translate(95.410156 0)"/>
       <use xlink:href="#DejaVuSans-32" transform="translate(159.033203 0)"/>
      </g>
     </g>
    </g>
    <g id="ytick_3">
     <g id="line2d_12">
      <g>
       <use xlink:href="#mc2b30dca74" x="108" y="247.333069" style="stroke: #000000; stroke-width: 0.8"/>
      </g>
     </g>
     <g id="text_13">
      <!-- 0.04 -->
      <g transform="translate(78.734375 251.132288) scale(0.1 -0.1)">
       <use xlink:href="#DejaVuSans-30"/>
       <use xlink:href="#DejaVuSans-2e" transform="translate(63.623047 0)"/>
       <use xlink:href="#DejaVuSans-30" transform="translate(95.410156 0)"/>
       <use xlink:href="#DejaVuSans-34" transform="translate(159.033203 0)"/>
      </g>
     </g>
    </g>
    <g id="ytick_4">
     <g id="line2d_13">
      <g>
       <use xlink:href="#mc2b30dca74" x="108" y="186.319603" style="stroke: #000000; stroke-width: 0.8"/>
      </g>
     </g>
     <g id="text_14">
      <!-- 0.06 -->
      <g transform="translate(78.734375 190.118822) scale(0.1 -0.1)">
       <defs>
        <path id="DejaVuSans-36" d="M 2113 2584 
Q 1688 2584 1439 2293 
Q 1191 2003 1191 1497 
Q 1191 994 1439 701 
Q 1688 409 2113 409 
Q 2538 409 2786 701 
Q 3034 994 3034 1497 
Q 3034 2003 2786 2293 
Q 2538 2584 2113 2584 
z
M 3366 4563 
L 3366 3988 
Q 3128 4100 2886 4159 
Q 2644 4219 2406 4219 
Q 1781 4219 1451 3797 
Q 1122 3375 1075 2522 
Q 1259 2794 1537 2939 
Q 1816 3084 2150 3084 
Q 2853 3084 3261 2657 
Q 3669 2231 3669 1497 
Q 3669 778 3244 343 
Q 2819 -91 2113 -91 
Q 1303 -91 875 529 
Q 447 1150 447 2328 
Q 447 3434 972 4092 
Q 1497 4750 2381 4750 
Q 2619 4750 2861 4703 
Q 3103 4656 3366 4563 
z
" transform="scale(0.015625)"/>
       </defs>
       <use xlink:href="#DejaVuSans-30"/>
       <use xlink:href="#DejaVuSans-2e" transform="translate(63.623047 0)"/>
       <use xlink:href="#DejaVuSans-30" transform="translate(95.410156 0)"/>
       <use xlink:href="#DejaVuSans-36" transform="translate(159.033203 0)"/>
      </g>
     </g>
    </g>
    <g id="ytick_5">
     <g id="line2d_14">
      <g>
       <use xlink:href="#mc2b30dca74" x="108" y="125.306138" style="stroke: #000000; stroke-width: 0.8"/>
      </g>
     </g>
     <g id="text_15">
      <!-- 0.08 -->
      <g transform="translate(78.734375 129.105357) scale(0.1 -0.1)">
       <defs>
        <path id="DejaVuSans-38" d="M 2034 2216 
Q 1584 2216 1326 1975 
Q 1069 1734 1069 1313 
Q 1069 891 1326 650 
Q 1584 409 2034 409 
Q 2484 409 2743 651 
Q 3003 894 3003 1313 
Q 3003 1734 2745 1975 
Q 2488 2216 2034 2216 
z
M 1403 2484 
Q 997 2584 770 2862 
Q 544 3141 544 3541 
Q 544 4100 942 4425 
Q 1341 4750 2034 4750 
Q 2731 4750 3128 4425 
Q 3525 4100 3525 3541 
Q 3525 3141 3298 2862 
Q 3072 2584 2669 2484 
Q 3125 2378 3379 2068 
Q 3634 1759 3634 1313 
Q 3634 634 3220 271 
Q 2806 -91 2034 -91 
Q 1263 -91 848 271 
Q 434 634 434 1313 
Q 434 1759 690 2068 
Q 947 2378 1403 2484 
z
M 1172 3481 
Q 1172 3119 1398 2916 
Q 1625 2713 2034 2713 
Q 2441 2713 2670 2916 
Q 2900 3119 2900 3481 
Q 2900 3844 2670 4047 
Q 2441 4250 2034 4250 
Q 1625 4250 1398 4047 
Q 1172 3844 1172 3481 
z
" transform="scale(0.015625)"/>
       </defs>
       <use xlink:href="#DejaVuSans-30"/>
       <use xlink:href="#DejaVuSans-2e" transform="translate(63.623047 0)"/>
       <use xlink:href="#DejaVuSans-30" transform="translate(95.410156 0)"/>
       <use xlink:href="#DejaVuSans-38" transform="translate(159.033203 0)"/>
      </g>
     </g>
    </g>
    <g id="ytick_6">
     <g id="line2d_15">
      <g>
       <use xlink:href="#mc2b30dca74" x="108" y="64.292672" style="stroke: #000000; stroke-width: 0.8"/>
      </g>
     </g>
     <g id="text_16">
      <!-- 0.10 -->
      <g transform="translate(78.734375 68.091891) scale(0.1 -0.1)">
       <use xlink:href="#DejaVuSans-30"/>
       <use xlink:href="#DejaVuSans-2e" transform="translate(63.623047 0)"/>
       <use xlink:href="#DejaVuSans-31" transform="translate(95.410156 0)"/>
       <use xlink:href="#DejaVuSans-30" transform="translate(159.033203 0)"/>
      </g>
     </g>
    </g>
    <g id="text_17">
     <!-- Volatility -->
     <g transform="translate(72.654687 239.752187) rotate(-90) scale(0.1 -0.1)">
      <defs>
       <path id="DejaVuSans-56" d="M 1831 0 
L 50 4666 
L 709 4666 
L 2188 738 
L 3669 4666 
L 4325 4666 
L 2547 0 
L 1831 0 
z
" transform="scale(0.015625)"/>
       <path id="DejaVuSans-6f" d="M 1959 3097 
Q 1497 3097 1228 2736 
Q 959 2375 959 1747 
Q 959 1119 1226 758 
Q 1494 397 1959 397 
Q 2419 397 2687 759 
Q 2956 1122 2956 1747 
Q 2956 2369 2687 2733 
Q 2419 3097 1959 3097 
z
M 1959 3584 
Q 2709 3584 3137 3096 
Q 3566 2609 3566 1747 
Q 3566 888 3137 398 
Q 2709 -91 1959 -91 
Q 1206 -91 779 398 
Q 353 888 353 1747 
Q 353 2609 779 3096 
Q 1206 3584 1959 3584 
z
" transform="scale(0.015625)"/>
       <path id="DejaVuSans-6c" d="M 603 4863 
L 1178 4863 
L 1178 0 
L 603 0 
L 603 4863 
z
" transform="scale(0.015625)"/>
       <path id="DejaVuSans-69" d="M 603 3500 
L 1178 3500 
L 1178 0 
L 603 0 
L 603 3500 
z
M 603 4863 
L 1178 4863 
L 1178 4134 
L 603 4134 
L 603 4863 
z
" transform="scale(0.015625)"/>
       <path id="DejaVuSans-79" d="M 2059 -325 
Q 1816 -950 1584 -1140 
Q 1353 -1331 966 -1331 
L 506 -1331 
L 506 -850 
L 844 -850 
Q 1081 -850 1212 -737 
Q 1344 -625 1503 -206 
L 1606 56 
L 191 3500 
L 800 3500 
L 1894 763 
L 2988 3500 
L 3597 3500 
L 2059 -325 
z
" transform="scale(0.015625)"/>
      </defs>
      <use xlink:href="#DejaVuSans-56"/>
      <use xlink:href="#DejaVuSans-6f" transform="translate(60.658203 0)"/>
      <use xlink:href="#DejaVuSans-6c" transform="translate(121.839844 0)"/>
      <use xlink:href="#DejaVuSans-61" transform="translate(149.623047 0)"/>
      <use xlink:href="#DejaVuSans-74" transform="translate(210.902344 0)"/>
      <use xlink:href="#DejaVuSans-69" transform="translate(250.111328 0)"/>
      <use xlink:href="#DejaVuSans-6c" transform="translate(277.894531 0)"/>
      <use xlink:href="#DejaVuSans-69" transform="translate(305.677734 0)"/>
      <use xlink:href="#DejaVuSans-74" transform="translate(333.460938 0)"/>
      <use xlink:href="#DejaVuSans-79" transform="translate(372.669922 0)"/>
     </g>
    </g>
   </g>
   <g id="line2d_16">
    <path d="M 138.436364 361.941353 
L 140.944855 294.142549 
L 141.781019 358.663447 
L 142.617183 356.165776 
L 143.453347 343.218799 
L 144.28951 287.191872 
L 146.798002 360.933548 
L 147.634166 308.312053 
L 148.47033 369.36 
L 149.306494 291.280236 
L 150.142657 292.467016 
L 153.487313 360.757488 
L 154.323477 346.338691 
L 155.15964 365.073216 
L 155.995804 325.81657 
L 158.504296 287.675611 
L 159.34046 302.410936 
L 160.176623 369.132126 
L 161.012787 302.418683 
L 161.848951 274.173186 
L 164.357443 293.718916 
L 165.193606 365.279623 
L 166.02977 349.367678 
L 166.865934 345.949337 
L 167.702098 210.184524 
L 171.046753 350.333995 
L 171.882917 307.891475 
L 172.719081 301.208675 
L 173.555245 328.092317 
L 176.063736 331.016129 
L 176.8999 319.19914 
L 177.736064 363.682546 
L 178.572228 326.139518 
L 179.408392 339.546736 
L 182.753047 353.385104 
L 183.589211 314.984266 
L 184.425375 284.765678 
L 185.261538 318.748709 
L 187.77003 360.913302 
L 188.606194 345.247004 
L 189.442358 337.946185 
L 190.278521 355.121297 
L 191.114685 364.482645 
L 193.623177 313.179053 
L 194.459341 245.764011 
L 195.295504 218.173126 
L 196.131668 342.224108 
L 196.967832 351.437257 
L 199.476324 349.488281 
L 200.312488 264.849945 
L 201.148651 350.575675 
L 201.984815 306.827385 
L 202.820979 345.793529 
L 205.329471 364.75713 
L 206.165634 343.726333 
L 207.001798 355.10108 
L 208.674126 316.283518 
L 211.182617 338.531576 
L 212.018781 367.114886 
L 212.854945 365.525405 
L 213.691109 362.248125 
L 214.527273 339.527232 
L 217.035764 349.815301 
L 217.871928 362.255534 
L 218.708092 327.626054 
L 219.544256 341.515732 
L 220.38042 369.176872 
L 222.888911 368.445643 
L 223.725075 329.598273 
L 224.561239 361.865076 
L 225.397403 352.307803 
L 228.742058 362.027186 
L 229.578222 353.270502 
L 230.414386 347.031581 
L 231.250549 367.163648 
L 232.086713 259.261387 
L 234.595205 367.462345 
L 235.431369 261.463611 
L 236.267532 360.033449 
L 237.103696 303.61396 
L 237.93986 66.96 
L 240.448352 306.536789 
L 241.284515 343.196062 
L 242.120679 289.47114 
L 242.956843 310.838227 
L 243.793007 366.590948 
L 246.301499 247.616753 
L 247.137662 324.336927 
L 247.973826 323.893211 
L 248.80999 361.716531 
L 249.646154 316.059149 
L 252.154645 338.985236 
L 252.990809 356.102231 
L 253.826973 263.233023 
L 254.663137 337.154667 
L 255.499301 323.832598 
L 258.007792 325.892465 
L 258.843956 350.415161 
L 259.68012 336.186225 
L 260.516284 284.295377 
L 261.352448 270.967476 
L 265.533267 312.618086 
L 266.369431 280.036263 
L 267.205594 257.290518 
L 270.55025 355.076681 
L 271.386414 325.990602 
L 272.222577 280.138048 
L 273.058741 304.268733 
L 275.567233 363.219829 
L 276.403397 345.160665 
L 277.23956 345.160665 
L 278.075724 313.043459 
L 278.911888 330.932611 
L 282.256543 331.889511 
L 283.092707 342.060541 
L 283.928871 288.088186 
L 284.765035 281.090281 
L 287.273526 366.889169 
L 288.10969 302.799033 
L 289.782018 360.296931 
L 290.618182 321.769197 
L 293.962837 346.614099 
L 295.635165 310.868315 
L 296.471329 368.581501 
L 298.97982 365.688727 
L 299.815984 330.371675 
L 300.652148 356.705392 
L 301.488312 359.720786 
L 302.324476 335.362142 
L 304.832967 318.391562 
L 305.669131 272.794257 
L 306.505295 364.708759 
L 307.341459 310.093791 
L 308.177622 356.506992 
L 310.686114 351.185808 
L 311.522278 348.455801 
L 312.358442 295.74732 
L 313.194605 298.731961 
L 314.030769 351.38406 
L 316.539261 255.089086 
L 317.375425 368.489458 
L 318.211588 307.190581 
L 319.047752 366.37219 
L 319.883916 350.415637 
L 322.392408 345.054372 
L 323.228571 331.80445 
L 324.064735 324.977658 
L 324.900899 358.787524 
L 325.737063 320.500769 
L 328.245554 361.253862 
L 329.081718 366.11496 
L 329.917882 363.272793 
L 330.754046 347.401924 
L 331.59021 342.014836 
L 334.098701 296.052234 
L 334.934865 305.547538 
L 335.771029 362.663462 
L 336.607193 338.513024 
L 337.443357 323.078271 
L 339.951848 337.499719 
L 340.788012 360.937208 
L 341.624176 338.276042 
L 342.46034 352.800464 
L 343.296503 342.733524 
L 346.641159 337.848058 
L 347.477323 290.759899 
L 348.313487 344.302512 
L 349.14965 357.430378 
L 351.658142 349.37244 
L 352.494306 264.115707 
L 353.33047 366.458531 
L 354.166633 329.975156 
L 355.002797 336.402994 
L 357.511289 351.90656 
L 358.347453 341.982861 
L 359.183616 333.476378 
L 360.01978 360.743186 
L 360.855944 350.367806 
L 363.364436 323.465486 
L 364.200599 356.498249 
L 365.036763 321.329358 
L 365.872927 321.104306 
L 366.709091 334.482943 
L 369.217582 282.682835 
L 370.053746 274.221247 
L 370.88991 352.791231 
L 371.726074 347.055093 
L 372.562238 285.517905 
L 375.070729 297.822809 
L 375.906893 332.476325 
L 376.743057 343.184099 
L 377.579221 285.53078 
L 378.415385 251.253219 
L 380.923876 294.802934 
L 381.76004 338.516385 
L 382.596204 362.837449 
L 383.432368 290.04307 
L 384.268531 298.851696 
L 386.777023 321.920898 
L 387.613187 320.6138 
L 388.449351 337.929293 
L 389.285514 312.756351 
L 390.121678 295.907941 
L 392.63017 286.925792 
L 393.466334 337.019261 
L 394.302498 311.334887 
L 395.138661 339.266097 
L 395.974825 332.933873 
L 398.483317 289.806718 
L 399.319481 365.957763 
L 400.155644 308.331686 
L 400.991808 207.881971 
L 401.827972 334.36932 
L 404.336464 351.817822 
L 405.172627 363.396774 
L 406.008791 352.99544 
L 406.844955 345.33712 
L 407.681119 312.74891 
L 410.18961 365.515116 
L 411.025774 348.299632 
L 411.861938 364.844606 
L 413.534266 341.014899 
L 416.042757 351.325453 
L 416.878921 343.870894 
L 417.715085 313.938109 
L 418.551249 317.3624 
L 419.387413 332.242311 
L 421.895904 349.931504 
L 422.732068 361.643046 
L 423.568232 331.282391 
L 425.240559 360.490598 
L 427.749051 350.258275 
L 428.585215 345.748552 
L 429.421379 331.234376 
L 430.257542 344.546144 
L 431.093706 319.731469 
L 434.438362 361.667542 
L 435.274525 316.351149 
L 436.946853 364.891165 
L 440.291508 365.505785 
L 441.127672 354.525316 
L 441.963836 330.194472 
L 446.144655 362.032995 
L 446.980819 335.921646 
L 447.816983 345.382293 
L 448.653147 299.275164 
L 451.161638 359.417439 
L 451.997802 359.417439 
L 452.833966 321.495121 
L 453.67013 333.609964 
L 454.506294 356.830186 
L 457.850949 367.146856 
L 458.687113 341.803476 
L 459.523277 322.421978 
L 460.359441 308.378567 
L 462.867932 363.833705 
L 463.704096 353.879849 
L 464.54026 355.974619 
L 465.376424 351.275346 
L 466.212587 316.883293 
L 468.721079 352.498197 
L 469.557243 358.427546 
L 470.393407 362.666243 
L 471.22957 334.976803 
L 472.065734 279.650544 
L 474.574226 329.835105 
L 476.246553 367.546968 
L 477.082717 348.000262 
L 477.918881 365.133602 
L 480.427373 334.903988 
L 481.263536 282.820608 
L 482.0997 343.788033 
L 482.935864 322.329492 
L 483.772028 369.163455 
L 487.116683 313.89623 
L 487.952847 367.458153 
L 488.789011 365.455136 
L 489.625175 354.193136 
L 492.133666 365.531243 
L 492.96983 354.675951 
L 493.805994 345.79093 
L 494.642158 368.551032 
L 495.478322 346.399039 
L 497.986813 356.745 
L 498.822977 331.559324 
L 499.659141 361.357811 
L 500.495305 328.414762 
L 501.331469 343.241162 
L 503.83996 361.05445 
L 504.676124 360.301886 
L 506.348452 231.947898 
L 507.184615 344.467352 
L 510.529271 325.411145 
L 511.365435 335.952124 
L 512.201598 354.422214 
L 513.037762 307.860914 
L 515.546254 369.36 
L 516.382418 367.780736 
L 517.218581 333.145411 
L 518.054745 366.337093 
L 518.890909 347.121547 
L 521.399401 352.089564 
L 522.235564 352.377737 
L 523.071728 343.541078 
L 523.907892 364.71495 
L 527.252547 349.402485 
L 528.088711 360.315494 
L 528.924875 361.195095 
L 529.761039 338.888575 
L 530.597203 364.569077 
L 533.105694 319.656024 
L 533.941858 350.364716 
L 534.778022 343.512271 
L 535.614186 332.501205 
L 536.45035 364.509464 
L 538.958841 350.831365 
L 539.795005 358.299646 
L 540.631169 341.345411 
L 542.303497 298.147876 
L 544.811988 352.898054 
L 545.648152 345.497746 
L 546.484316 363.93651 
L 547.32048 365.933409 
L 548.156643 296.979072 
L 550.665135 331.233543 
L 551.501299 347.512117 
L 552.337463 358.775578 
L 553.173626 356.044314 
L 554.00979 360.726631 
L 556.518282 353.619973 
L 557.354446 337.265693 
L 558.190609 287.994007 
L 559.026773 350.483764 
L 559.862937 342.288671 
L 562.371429 355.807624 
L 563.207592 261.919562 
L 564.043756 346.08101 
L 564.87992 361.331836 
L 565.716084 364.258154 
L 569.060739 357.697205 
L 569.896903 334.23639 
L 570.733067 332.57374 
L 571.569231 352.103963 
L 574.077722 355.42625 
L 574.913886 369.262244 
L 575.75005 368.285406 
L 576.586214 363.308761 
L 577.422378 355.449355 
L 579.930869 333.2753 
L 580.767033 361.122288 
L 581.603197 330.863207 
L 582.439361 293.885803 
L 583.275524 353.839681 
L 586.62018 365.374864 
L 587.456344 361.024879 
L 588.292507 336.794076 
L 589.128671 351.371961 
L 591.637163 359.772391 
L 592.473327 339.497594 
L 593.309491 368.902618 
L 594.145654 292.333992 
L 594.981818 342.018475 
L 597.49031 311.278986 
L 599.162637 367.287524 
L 599.998801 357.348692 
L 600.834965 353.755952 
L 603.343457 350.229044 
L 604.17962 354.033012 
L 605.015784 338.719561 
L 605.851948 360.108205 
L 606.688112 366.279277 
L 609.196603 360.488776 
L 610.032767 343.671045 
L 610.868931 350.431753 
L 611.705095 305.639464 
L 612.541259 357.79397 
L 615.04975 354.451736 
L 615.885914 363.666095 
L 616.722078 351.888387 
L 617.558242 331.670769 
L 618.394406 209.191757 
L 620.902897 356.742765 
L 621.739061 359.892331 
L 622.575225 332.345795 
L 623.411389 311.55487 
L 624.247552 347.554817 
L 626.756044 338.339517 
L 627.592208 329.418445 
L 628.428372 343.155626 
L 629.264535 367.819853 
L 630.100699 333.10431 
L 632.609191 355.507303 
L 633.445355 324.443547 
L 634.281518 333.734953 
L 635.117682 347.633378 
L 635.953846 321.349805 
L 638.462338 366.440313 
L 639.298501 366.626045 
L 640.134665 346.808313 
L 640.970829 358.426052 
L 641.806993 322.70329 
L 644.315485 364.211051 
L 645.151648 353.847502 
L 645.987812 356.295457 
L 646.823976 358.034563 
L 647.66014 360.679588 
L 651.004795 324.412009 
L 651.840959 349.147908 
L 652.677123 344.167745 
L 653.513287 360.772188 
L 656.021778 366.613952 
L 656.857942 352.557408 
L 657.694106 366.174243 
L 658.53027 338.494994 
L 659.366434 345.945704 
L 661.874925 340.816716 
L 662.711089 350.984934 
L 663.547253 363.556814 
L 664.383417 335.185737 
L 665.21958 349.54182 
L 667.728072 364.908208 
L 668.564236 330.93204 
L 669.4004 356.350173 
L 670.236563 364.362609 
L 671.072727 321.19044 
L 673.581219 342.329946 
L 674.417383 346.969695 
L 675.253546 312.984807 
L 676.08971 361.016104 
L 676.925874 358.239252 
L 679.434366 364.699494 
L 680.270529 350.206342 
L 681.106693 352.256099 
L 681.942857 342.58707 
L 682.779021 353.978915 
L 685.287512 354.056359 
L 686.123676 367.49796 
L 686.95984 345.610421 
L 687.796004 313.278346 
L 688.632168 321.565864 
L 691.140659 363.138256 
L 691.976823 308.754239 
L 692.812987 368.215006 
L 693.649151 368.787449 
L 694.485315 244.412048 
L 696.993806 350.431627 
L 697.82997 363.339629 
L 698.666134 346.276574 
L 699.502298 277.784732 
L 700.338462 350.143258 
L 702.846953 348.29494 
L 703.683117 361.684807 
L 704.519281 358.162688 
L 705.355445 330.122595 
L 706.191608 348.649965 
L 708.7001 365.430215 
L 709.536264 366.707163 
L 710.372428 336.047184 
L 711.208591 332.936992 
L 712.044755 333.306881 
L 714.553247 355.882053 
L 715.389411 320.427666 
L 716.225574 340.944869 
L 717.897902 359.731363 
L 720.406394 346.348728 
L 721.242557 328.195379 
L 722.078721 359.43153 
L 722.914885 309.431686 
L 723.751049 353.344452 
L 726.25954 363.192078 
L 727.095704 333.035447 
L 727.931868 343.978245 
L 728.768032 349.284237 
L 729.604196 346.590469 
L 732.112687 319.32043 
L 732.948851 341.798433 
L 733.785015 343.136986 
L 734.621179 207.858554 
L 735.457343 295.572436 
L 737.965834 333.991225 
L 738.801998 359.240917 
L 739.638162 179.463705 
L 740.474326 307.224383 
L 741.31049 332.742528 
L 744.655145 347.526468 
L 745.491309 366.41179 
L 746.327473 363.460728 
L 747.163636 351.381814 
L 747.163636 351.381814 
" clip-path="url(#p952050223d)" style="fill: none; stroke: #000000; stroke-width: 1.5; stroke-linecap: square"/>
   </g>
   <g id="line2d_17">
    <path d="M 138.436364 293.312862 
L 140.944855 287.817486 
L 141.781019 282.908578 
L 142.617183 287.39847 
L 143.453347 284.777063 
L 144.28951 272.843714 
L 146.798002 280.463405 
L 148.47033 276.429912 
L 149.306494 288.546658 
L 150.142657 272.352708 
L 153.487313 265.652719 
L 154.323477 275.036163 
L 155.15964 297.256831 
L 155.995804 282.517503 
L 158.504296 306.834084 
L 159.34046 273.488038 
L 160.176623 275.108265 
L 161.012787 293.328692 
L 161.848951 262.1454 
L 164.357443 253.292437 
L 165.193606 245.073576 
L 166.02977 261.705431 
L 166.865934 256.031866 
L 167.702098 239.068673 
L 171.046753 233.295863 
L 171.882917 228.225848 
L 172.719081 237.153817 
L 173.555245 230.953058 
L 176.063736 241.262092 
L 176.8999 267.281086 
L 177.736064 237.242619 
L 178.572228 284.400384 
L 179.408392 285.701063 
L 182.753047 254.982135 
L 183.589211 292.759546 
L 184.425375 298.381208 
L 185.261538 191.148932 
L 187.77003 294.565713 
L 188.606194 298.586393 
L 189.442358 272.601003 
L 190.278521 284.667709 
L 191.114685 291.464459 
L 193.623177 300.584594 
L 194.459341 256.471382 
L 195.295504 282.384628 
L 196.131668 225.523671 
L 196.967832 278.780446 
L 199.476324 280.322943 
L 201.148651 258.809565 
L 201.984815 262.251624 
L 202.820979 263.865662 
L 205.329471 273.321443 
L 206.165634 272.533726 
L 207.001798 268.046271 
L 207.837962 268.063477 
L 208.674126 279.717628 
L 211.182617 275.283704 
L 212.018781 280.366278 
L 212.854945 279.68365 
L 213.691109 286.096961 
L 214.527273 281.512577 
L 217.035764 290.210389 
L 217.871928 283.8599 
L 218.708092 286.944686 
L 219.544256 276.134183 
L 220.38042 281.059372 
L 222.888911 287.710264 
L 223.725075 287.965956 
L 224.561239 286.853779 
L 225.397403 295.857395 
L 228.742058 289.403653 
L 229.578222 286.735638 
L 230.414386 283.687845 
L 231.250549 287.899467 
L 232.086713 283.13686 
L 234.595205 275.064626 
L 235.431369 302.681282 
L 236.267532 289.027939 
L 237.103696 277.56759 
L 237.93986 274.474967 
L 240.448352 284.20084 
L 241.284515 244.218386 
L 242.120679 250.598555 
L 243.793007 226.874491 
L 246.301499 208.549454 
L 247.137662 246.934224 
L 247.973826 224.899196 
L 248.80999 211.221578 
L 249.646154 252.667739 
L 252.154645 221.846494 
L 252.990809 218.609882 
L 253.826973 232.662726 
L 254.663137 208.683668 
L 255.499301 245.946538 
L 258.007792 229.111367 
L 258.843956 242.697742 
L 259.68012 234.995127 
L 260.516284 244.539278 
L 261.352448 241.836579 
L 264.697103 261.671035 
L 265.533267 250.005196 
L 266.369431 231.484242 
L 267.205594 239.876467 
L 269.714086 196.285162 
L 270.55025 233.788354 
L 271.386414 237.086407 
L 272.222577 245.992646 
L 273.058741 230.779344 
L 275.567233 222.911862 
L 276.403397 274.538442 
L 277.23956 202.915431 
L 278.911888 293.577749 
L 282.256543 280.204958 
L 283.092707 279.555653 
L 283.928871 279.372918 
L 284.765035 274.460656 
L 287.273526 274.334084 
L 288.10969 278.993173 
L 288.945854 271.782897 
L 290.618182 286.354261 
L 293.962837 289.780167 
L 294.799001 304.642139 
L 295.635165 299.734115 
L 296.471329 282.187194 
L 298.97982 288.051619 
L 299.815984 291.841904 
L 300.652148 284.896128 
L 302.324476 303.090673 
L 304.832967 295.986826 
L 305.669131 270.484171 
L 306.505295 267.661828 
L 307.341459 265.620714 
L 308.177622 267.951923 
L 310.686114 269.210066 
L 311.522278 262.931558 
L 312.358442 267.416341 
L 313.194605 258.756742 
L 314.030769 263.636599 
L 316.539261 277.510472 
L 317.375425 263.554862 
L 318.211588 273.769609 
L 319.047752 275.288533 
L 319.883916 286.165046 
L 322.392408 292.444915 
L 323.228571 290.881091 
L 324.900899 287.429746 
L 325.737063 283.790537 
L 328.245554 290.035173 
L 329.081718 294.9445 
L 329.917882 290.942871 
L 330.754046 289.750143 
L 331.59021 286.478064 
L 334.098701 290.200871 
L 334.934865 288.132261 
L 335.771029 289.778084 
L 336.607193 290.725367 
L 337.443357 295.362515 
L 339.951848 293.803167 
L 340.788012 290.784916 
L 341.624176 298.129217 
L 342.46034 281.536751 
L 343.296503 294.46077 
L 346.641159 294.305582 
L 347.477323 277.21302 
L 348.313487 273.896776 
L 349.14965 278.442798 
L 351.658142 288.612629 
L 352.494306 279.248337 
L 353.33047 275.541208 
L 354.166633 268.790815 
L 355.002797 281.475899 
L 357.511289 283.69009 
L 358.347453 277.554006 
L 359.183616 280.518631 
L 360.01978 282.874261 
L 360.855944 265.318234 
L 363.364436 284.147767 
L 364.200599 308.683475 
L 365.036763 278.073364 
L 365.872927 287.933656 
L 366.709091 301.035172 
L 369.217582 253.630891 
L 370.053746 283.414468 
L 370.88991 266.167239 
L 371.726074 277.690761 
L 372.562238 273.270076 
L 375.070729 254.121741 
L 375.906893 265.485634 
L 376.743057 265.83744 
L 377.579221 286.117895 
L 378.415385 257.43358 
L 380.923876 253.171487 
L 381.76004 249.539712 
L 383.432368 260.502499 
L 384.268531 249.912154 
L 386.777023 252.130634 
L 387.613187 261.426219 
L 388.449351 263.465389 
L 389.285514 267.972594 
L 390.121678 266.928898 
L 392.63017 258.876573 
L 393.466334 261.121508 
L 394.302498 272.110527 
L 395.138661 255.640376 
L 395.974825 264.855465 
L 398.483317 270.983804 
L 399.319481 270.441837 
L 400.991808 266.747758 
L 401.827972 265.585723 
L 404.336464 285.380352 
L 405.172627 273.500341 
L 406.008791 265.351474 
L 406.844955 272.059502 
L 407.681119 269.254652 
L 410.18961 279.838377 
L 411.025774 275.172842 
L 413.534266 292.076129 
L 416.042757 293.738764 
L 416.878921 289.546437 
L 417.715085 283.169749 
L 418.551249 272.993411 
L 419.387413 284.815429 
L 421.895904 266.670372 
L 422.732068 272.27444 
L 423.568232 281.983849 
L 424.404396 279.521845 
L 425.240559 284.405351 
L 427.749051 296.026979 
L 428.585215 268.146486 
L 429.421379 269.04878 
L 430.257542 267.698275 
L 431.093706 268.067138 
L 433.602198 273.525405 
L 434.438362 268.752776 
L 435.274525 269.815292 
L 436.110689 271.530826 
L 436.946853 275.666197 
L 440.291508 274.659756 
L 441.127672 276.751303 
L 441.963836 276.369411 
L 442.8 270.690936 
L 446.144655 287.482788 
L 446.980819 278.27362 
L 447.816983 271.182275 
L 448.653147 280.434515 
L 451.161638 279.502202 
L 451.997802 276.861637 
L 452.833966 286.292189 
L 453.67013 286.241719 
L 454.506294 291.78442 
L 457.850949 301.160216 
L 459.523277 288.590524 
L 460.359441 273.881288 
L 462.867932 279.741408 
L 463.704096 282.579816 
L 464.54026 290.62409 
L 465.376424 289.236126 
L 466.212587 292.974207 
L 468.721079 292.795459 
L 469.557243 287.561068 
L 470.393407 286.866036 
L 471.22957 288.949384 
L 472.065734 294.410983 
L 474.574226 287.463032 
L 475.41039 289.224374 
L 476.246553 290.118609 
L 477.082717 293.11139 
L 477.918881 292.735111 
L 480.427373 302.039118 
L 481.263536 296.701626 
L 482.0997 290.565051 
L 482.935864 294.151697 
L 483.772028 302.517604 
L 487.116683 297.83364 
L 487.952847 296.986029 
L 488.789011 296.751856 
L 489.625175 289.715948 
L 492.133666 293.798615 
L 492.96983 293.739508 
L 493.805994 295.64394 
L 494.642158 288.081309 
L 495.478322 286.230633 
L 497.986813 298.431941 
L 499.659141 282.700455 
L 500.495305 280.495154 
L 501.331469 284.729369 
L 503.83996 276.903248 
L 505.512288 258.398517 
L 506.348452 263.333478 
L 507.184615 269.287819 
L 509.693107 276.838601 
L 510.529271 281.14013 
L 511.365435 284.698856 
L 512.201598 283.18747 
L 513.037762 285.053512 
L 515.546254 288.978643 
L 516.382418 287.645642 
L 517.218581 290.218326 
L 518.054745 294.67633 
L 518.890909 294.88175 
L 521.399401 305.385948 
L 522.235564 295.761449 
L 523.071728 295.471162 
L 523.907892 289.056542 
L 527.252547 300.792643 
L 528.088711 295.520037 
L 528.924875 298.456017 
L 529.761039 299.207413 
L 530.597203 298.113948 
L 533.941858 296.527952 
L 534.778022 292.053227 
L 535.614186 289.110298 
L 536.45035 287.041334 
L 538.958841 290.945171 
L 539.795005 289.8327 
L 541.467333 295.32221 
L 542.303497 291.815827 
L 544.811988 285.521165 
L 545.648152 296.726978 
L 546.484316 301.160234 
L 547.32048 294.052327 
L 548.156643 303.900682 
L 550.665135 287.771485 
L 551.501299 299.776107 
L 552.337463 295.839079 
L 553.173626 298.061107 
L 554.00979 299.322448 
L 556.518282 302.839368 
L 557.354446 294.021457 
L 558.190609 295.677259 
L 559.026773 280.094524 
L 559.862937 290.025036 
L 562.371429 297.77493 
L 563.207592 289.764963 
L 564.043756 283.861556 
L 564.87992 294.204452 
L 565.716084 285.651603 
L 569.060739 297.673708 
L 570.733067 292.52405 
L 571.569231 290.717371 
L 574.077722 295.991207 
L 574.913886 292.00639 
L 575.75005 291.275394 
L 576.586214 287.522382 
L 577.422378 289.535699 
L 579.930869 289.123629 
L 580.767033 285.713184 
L 581.603197 289.262175 
L 582.439361 288.983832 
L 583.275524 285.047841 
L 586.62018 293.301197 
L 587.456344 292.127002 
L 588.292507 294.071641 
L 591.637163 298.48095 
L 592.473327 296.259352 
L 593.309491 295.027475 
L 594.145654 297.223896 
L 594.981818 289.778288 
L 597.49031 295.8803 
L 599.162637 292.812308 
L 599.998801 293.811431 
L 600.834965 291.092091 
L 603.343457 291.336267 
L 604.17962 291.598921 
L 605.015784 293.56127 
L 605.851948 289.273829 
L 606.688112 294.045421 
L 609.196603 301.142391 
L 610.868931 291.691976 
L 611.705095 289.792028 
L 612.541259 286.843443 
L 615.04975 295.377659 
L 615.885914 292.034972 
L 617.558242 294.865304 
L 618.394406 287.658708 
L 620.902897 269.916608 
L 621.739061 278.269007 
L 622.575225 283.770756 
L 623.411389 277.677841 
L 624.247552 282.535181 
L 626.756044 283.818243 
L 627.592208 280.217661 
L 628.428372 284.02409 
L 630.100699 286.7136 
L 632.609191 291.804036 
L 634.281518 283.673446 
L 635.117682 282.645195 
L 635.953846 280.909819 
L 638.462338 281.377607 
L 639.298501 277.160432 
L 640.134665 279.706054 
L 640.970829 283.780064 
L 641.806993 281.021187 
L 644.315485 290.186603 
L 645.151648 291.250293 
L 645.987812 293.340797 
L 647.66014 296.996041 
L 651.004795 300.784934 
L 651.840959 286.732081 
L 652.677123 287.196821 
L 653.513287 288.082028 
L 656.021778 286.827168 
L 656.857942 288.180526 
L 657.694106 290.693545 
L 658.53027 294.929756 
L 659.366434 294.450583 
L 661.874925 293.650965 
L 662.711089 287.250525 
L 663.547253 293.686198 
L 664.383417 296.247708 
L 665.21958 301.525299 
L 667.728072 298.386153 
L 668.564236 299.495625 
L 669.4004 302.493034 
L 670.236563 282.907385 
L 671.072727 275.827614 
L 673.581219 284.632004 
L 674.417383 280.30801 
L 675.253546 286.881476 
L 676.08971 281.779487 
L 676.925874 284.553467 
L 679.434366 284.371427 
L 680.270529 289.090727 
L 681.106693 285.249573 
L 681.942857 290.624801 
L 682.779021 286.069017 
L 685.287512 293.548548 
L 686.123676 289.922451 
L 686.95984 296.30809 
L 687.796004 298.010115 
L 688.632168 291.750918 
L 691.140659 291.532078 
L 691.976823 293.216263 
L 692.812987 293.183941 
L 693.649151 299.063446 
L 694.485315 294.169565 
L 696.993806 278.803814 
L 697.82997 283.417689 
L 698.666134 292.79955 
L 699.502298 295.645581 
L 700.338462 288.264868 
L 702.846953 299.84706 
L 703.683117 296.675757 
L 704.519281 299.101124 
L 705.355445 296.322583 
L 706.191608 289.112793 
L 708.7001 296.854371 
L 709.536264 293.786244 
L 711.208591 289.95045 
L 712.044755 292.570838 
L 714.553247 294.106907 
L 715.389411 291.60738 
L 716.225574 288.237594 
L 717.897902 296.177258 
L 720.406394 297.380813 
L 721.242557 292.36212 
L 722.078721 291.77122 
L 722.914885 289.373629 
L 723.751049 287.581678 
L 726.25954 293.841681 
L 727.095704 293.180164 
L 727.931868 293.166195 
L 728.768032 287.192531 
L 729.604196 293.381033 
L 732.112687 297.027963 
L 732.948851 294.316 
L 733.785015 295.333836 
L 734.621179 294.69116 
L 735.457343 279.096283 
L 737.965834 284.463317 
L 738.801998 282.396184 
L 739.638162 283.466332 
L 740.474326 280.793662 
L 741.31049 280.825624 
L 744.655145 286.490633 
L 745.491309 292.05169 
L 746.327473 298.985855 
L 747.163636 298.326171 
L 747.163636 298.326171 
" clip-path="url(#p952050223d)" style="fill: none; stroke: #1f77b4; stroke-width: 1.5; stroke-linecap: square"/>
   </g>
   <g id="patch_3">
    <path d="M 108 384.48 
L 108 51.84 
" style="fill: none; stroke: #000000; stroke-width: 0.8; stroke-linejoin: miter; stroke-linecap: square"/>
   </g>
   <g id="patch_4">
    <path d="M 777.6 384.48 
L 777.6 51.84 
" style="fill: none; stroke: #000000; stroke-width: 0.8; stroke-linejoin: miter; stroke-linecap: square"/>
   </g>
   <g id="patch_5">
    <path d="M 108 384.48 
L 777.6 384.48 
" style="fill: none; stroke: #000000; stroke-width: 0.8; stroke-linejoin: miter; stroke-linecap: square"/>
   </g>
   <g id="patch_6">
    <path d="M 108 51.84 
L 777.6 51.84 
" style="fill: none; stroke: #000000; stroke-width: 0.8; stroke-linejoin: miter; stroke-linecap: square"/>
   </g>
   <g id="text_18">
    <!-- Volatility Prediction with LSTM MDN vbig-fng -->
    <g transform="translate(309.818438 45.84) scale(0.12 -0.12)">
     <defs>
      <path id="DejaVuSans-20" transform="scale(0.015625)"/>
      <path id="DejaVuSans-50" d="M 1259 4147 
L 1259 2394 
L 2053 2394 
Q 2494 2394 2734 2622 
Q 2975 2850 2975 3272 
Q 2975 3691 2734 3919 
Q 2494 4147 2053 4147 
L 1259 4147 
z
M 628 4666 
L 2053 4666 
Q 2838 4666 3239 4311 
Q 3641 3956 3641 3272 
Q 3641 2581 3239 2228 
Q 2838 1875 2053 1875 
L 1259 1875 
L 1259 0 
L 628 0 
L 628 4666 
z
" transform="scale(0.015625)"/>
      <path id="DejaVuSans-72" d="M 2631 2963 
Q 2534 3019 2420 3045 
Q 2306 3072 2169 3072 
Q 1681 3072 1420 2755 
Q 1159 2438 1159 1844 
L 1159 0 
L 581 0 
L 581 3500 
L 1159 3500 
L 1159 2956 
Q 1341 3275 1631 3429 
Q 1922 3584 2338 3584 
Q 2397 3584 2469 3576 
Q 2541 3569 2628 3553 
L 2631 2963 
z
" transform="scale(0.015625)"/>
      <path id="DejaVuSans-64" d="M 2906 2969 
L 2906 4863 
L 3481 4863 
L 3481 0 
L 2906 0 
L 2906 525 
Q 2725 213 2448 61 
Q 2172 -91 1784 -91 
Q 1150 -91 751 415 
Q 353 922 353 1747 
Q 353 2572 751 3078 
Q 1150 3584 1784 3584 
Q 2172 3584 2448 3432 
Q 2725 3281 2906 2969 
z
M 947 1747 
Q 947 1113 1208 752 
Q 1469 391 1925 391 
Q 2381 391 2643 752 
Q 2906 1113 2906 1747 
Q 2906 2381 2643 2742 
Q 2381 3103 1925 3103 
Q 1469 3103 1208 2742 
Q 947 2381 947 1747 
z
" transform="scale(0.015625)"/>
      <path id="DejaVuSans-63" d="M 3122 3366 
L 3122 2828 
Q 2878 2963 2633 3030 
Q 2388 3097 2138 3097 
Q 1578 3097 1268 2742 
Q 959 2388 959 1747 
Q 959 1106 1268 751 
Q 1578 397 2138 397 
Q 2388 397 2633 464 
Q 2878 531 3122 666 
L 3122 134 
Q 2881 22 2623 -34 
Q 2366 -91 2075 -91 
Q 1284 -91 818 406 
Q 353 903 353 1747 
Q 353 2603 823 3093 
Q 1294 3584 2113 3584 
Q 2378 3584 2631 3529 
Q 2884 3475 3122 3366 
z
" transform="scale(0.015625)"/>
      <path id="DejaVuSans-6e" d="M 3513 2113 
L 3513 0 
L 2938 0 
L 2938 2094 
Q 2938 2591 2744 2837 
Q 2550 3084 2163 3084 
Q 1697 3084 1428 2787 
Q 1159 2491 1159 1978 
L 1159 0 
L 581 0 
L 581 3500 
L 1159 3500 
L 1159 2956 
Q 1366 3272 1645 3428 
Q 1925 3584 2291 3584 
Q 2894 3584 3203 3211 
Q 3513 2838 3513 2113 
z
" transform="scale(0.015625)"/>
      <path id="DejaVuSans-77" d="M 269 3500 
L 844 3500 
L 1563 769 
L 2278 3500 
L 2956 3500 
L 3675 769 
L 4391 3500 
L 4966 3500 
L 4050 0 
L 3372 0 
L 2619 2869 
L 1863 0 
L 1184 0 
L 269 3500 
z
" transform="scale(0.015625)"/>
      <path id="DejaVuSans-68" d="M 3513 2113 
L 3513 0 
L 2938 0 
L 2938 2094 
Q 2938 2591 2744 2837 
Q 2550 3084 2163 3084 
Q 1697 3084 1428 2787 
Q 1159 2491 1159 1978 
L 1159 0 
L 581 0 
L 581 4863 
L 1159 4863 
L 1159 2956 
Q 1366 3272 1645 3428 
Q 1925 3584 2291 3584 
Q 2894 3584 3203 3211 
Q 3513 2838 3513 2113 
z
" transform="scale(0.015625)"/>
      <path id="DejaVuSans-4c" d="M 628 4666 
L 1259 4666 
L 1259 531 
L 3531 531 
L 3531 0 
L 628 0 
L 628 4666 
z
" transform="scale(0.015625)"/>
      <path id="DejaVuSans-53" d="M 3425 4513 
L 3425 3897 
Q 3066 4069 2747 4153 
Q 2428 4238 2131 4238 
Q 1616 4238 1336 4038 
Q 1056 3838 1056 3469 
Q 1056 3159 1242 3001 
Q 1428 2844 1947 2747 
L 2328 2669 
Q 3034 2534 3370 2195 
Q 3706 1856 3706 1288 
Q 3706 609 3251 259 
Q 2797 -91 1919 -91 
Q 1588 -91 1214 -16 
Q 841 59 441 206 
L 441 856 
Q 825 641 1194 531 
Q 1563 422 1919 422 
Q 2459 422 2753 634 
Q 3047 847 3047 1241 
Q 3047 1584 2836 1778 
Q 2625 1972 2144 2069 
L 1759 2144 
Q 1053 2284 737 2584 
Q 422 2884 422 3419 
Q 422 4038 858 4394 
Q 1294 4750 2059 4750 
Q 2388 4750 2728 4690 
Q 3069 4631 3425 4513 
z
" transform="scale(0.015625)"/>
      <path id="DejaVuSans-54" d="M -19 4666 
L 3928 4666 
L 3928 4134 
L 2272 4134 
L 2272 0 
L 1638 0 
L 1638 4134 
L -19 4134 
L -19 4666 
z
" transform="scale(0.015625)"/>
      <path id="DejaVuSans-4d" d="M 628 4666 
L 1569 4666 
L 2759 1491 
L 3956 4666 
L 4897 4666 
L 4897 0 
L 4281 0 
L 4281 4097 
L 3078 897 
L 2444 897 
L 1241 4097 
L 1241 0 
L 628 0 
L 628 4666 
z
" transform="scale(0.015625)"/>
      <path id="DejaVuSans-4e" d="M 628 4666 
L 1478 4666 
L 3547 763 
L 3547 4666 
L 4159 4666 
L 4159 0 
L 3309 0 
L 1241 3903 
L 1241 0 
L 628 0 
L 628 4666 
z
" transform="scale(0.015625)"/>
      <path id="DejaVuSans-76" d="M 191 3500 
L 800 3500 
L 1894 563 
L 2988 3500 
L 3597 3500 
L 2284 0 
L 1503 0 
L 191 3500 
z
" transform="scale(0.015625)"/>
      <path id="DejaVuSans-62" d="M 3116 1747 
Q 3116 2381 2855 2742 
Q 2594 3103 2138 3103 
Q 1681 3103 1420 2742 
Q 1159 2381 1159 1747 
Q 1159 1113 1420 752 
Q 1681 391 2138 391 
Q 2594 391 2855 752 
Q 3116 1113 3116 1747 
z
M 1159 2969 
Q 1341 3281 1617 3432 
Q 1894 3584 2278 3584 
Q 2916 3584 3314 3078 
Q 3713 2572 3713 1747 
Q 3713 922 3314 415 
Q 2916 -91 2278 -91 
Q 1894 -91 1617 61 
Q 1341 213 1159 525 
L 1159 0 
L 581 0 
L 581 4863 
L 1159 4863 
L 1159 2969 
z
" transform="scale(0.015625)"/>
      <path id="DejaVuSans-67" d="M 2906 1791 
Q 2906 2416 2648 2759 
Q 2391 3103 1925 3103 
Q 1463 3103 1205 2759 
Q 947 2416 947 1791 
Q 947 1169 1205 825 
Q 1463 481 1925 481 
Q 2391 481 2648 825 
Q 2906 1169 2906 1791 
z
M 3481 434 
Q 3481 -459 3084 -895 
Q 2688 -1331 1869 -1331 
Q 1566 -1331 1297 -1286 
Q 1028 -1241 775 -1147 
L 775 -588 
Q 1028 -725 1275 -790 
Q 1522 -856 1778 -856 
Q 2344 -856 2625 -561 
Q 2906 -266 2906 331 
L 2906 616 
Q 2728 306 2450 153 
Q 2172 0 1784 0 
Q 1141 0 747 490 
Q 353 981 353 1791 
Q 353 2603 747 3093 
Q 1141 3584 1784 3584 
Q 2172 3584 2450 3431 
Q 2728 3278 2906 2969 
L 2906 3500 
L 3481 3500 
L 3481 434 
z
" transform="scale(0.015625)"/>
      <path id="DejaVuSans-66" d="M 2375 4863 
L 2375 4384 
L 1825 4384 
Q 1516 4384 1395 4259 
Q 1275 4134 1275 3809 
L 1275 3500 
L 2222 3500 
L 2222 3053 
L 1275 3053 
L 1275 0 
L 697 0 
L 697 3053 
L 147 3053 
L 147 3500 
L 697 3500 
L 697 3744 
Q 697 4328 969 4595 
Q 1241 4863 1831 4863 
L 2375 4863 
z
" transform="scale(0.015625)"/>
     </defs>
     <use xlink:href="#DejaVuSans-56"/>
     <use xlink:href="#DejaVuSans-6f" transform="translate(60.658203 0)"/>
     <use xlink:href="#DejaVuSans-6c" transform="translate(121.839844 0)"/>
     <use xlink:href="#DejaVuSans-61" transform="translate(149.623047 0)"/>
     <use xlink:href="#DejaVuSans-74" transform="translate(210.902344 0)"/>
     <use xlink:href="#DejaVuSans-69" transform="translate(250.111328 0)"/>
     <use xlink:href="#DejaVuSans-6c" transform="translate(277.894531 0)"/>
     <use xlink:href="#DejaVuSans-69" transform="translate(305.677734 0)"/>
     <use xlink:href="#DejaVuSans-74" transform="translate(333.460938 0)"/>
     <use xlink:href="#DejaVuSans-79" transform="translate(372.669922 0)"/>
     <use xlink:href="#DejaVuSans-20" transform="translate(431.849609 0)"/>
     <use xlink:href="#DejaVuSans-50" transform="translate(463.636719 0)"/>
     <use xlink:href="#DejaVuSans-72" transform="translate(522.189453 0)"/>
     <use xlink:href="#DejaVuSans-65" transform="translate(561.052734 0)"/>
     <use xlink:href="#DejaVuSans-64" transform="translate(622.576172 0)"/>
     <use xlink:href="#DejaVuSans-69" transform="translate(686.052734 0)"/>
     <use xlink:href="#DejaVuSans-63" transform="translate(713.835938 0)"/>
     <use xlink:href="#DejaVuSans-74" transform="translate(768.816406 0)"/>
     <use xlink:href="#DejaVuSans-69" transform="translate(808.025391 0)"/>
     <use xlink:href="#DejaVuSans-6f" transform="translate(835.808594 0)"/>
     <use xlink:href="#DejaVuSans-6e" transform="translate(896.990234 0)"/>
     <use xlink:href="#DejaVuSans-20" transform="translate(960.369141 0)"/>
     <use xlink:href="#DejaVuSans-77" transform="translate(992.15625 0)"/>
     <use xlink:href="#DejaVuSans-69" transform="translate(1073.943359 0)"/>
     <use xlink:href="#DejaVuSans-74" transform="translate(1101.726562 0)"/>
     <use xlink:href="#DejaVuSans-68" transform="translate(1140.935547 0)"/>
     <use xlink:href="#DejaVuSans-20" transform="translate(1204.314453 0)"/>
     <use xlink:href="#DejaVuSans-4c" transform="translate(1236.101562 0)"/>
     <use xlink:href="#DejaVuSans-53" transform="translate(1291.814453 0)"/>
     <use xlink:href="#DejaVuSans-54" transform="translate(1355.291016 0)"/>
     <use xlink:href="#DejaVuSans-4d" transform="translate(1416.375 0)"/>
     <use xlink:href="#DejaVuSans-20" transform="translate(1502.654297 0)"/>
     <use xlink:href="#DejaVuSans-4d" transform="translate(1534.441406 0)"/>
     <use xlink:href="#DejaVuSans-44" transform="translate(1620.720703 0)"/>
     <use xlink:href="#DejaVuSans-4e" transform="translate(1697.722656 0)"/>
     <use xlink:href="#DejaVuSans-20" transform="translate(1772.527344 0)"/>
     <use xlink:href="#DejaVuSans-76" transform="translate(1804.314453 0)"/>
     <use xlink:href="#DejaVuSans-62" transform="translate(1863.494141 0)"/>
     <use xlink:href="#DejaVuSans-69" transform="translate(1926.970703 0)"/>
     <use xlink:href="#DejaVuSans-67" transform="translate(1954.753906 0)"/>
     <use xlink:href="#DejaVuSans-2d" transform="translate(2018.230469 0)"/>
     <use xlink:href="#DejaVuSans-66" transform="translate(2054.314453 0)"/>
     <use xlink:href="#DejaVuSans-6e" transform="translate(2089.519531 0)"/>
     <use xlink:href="#DejaVuSans-67" transform="translate(2152.898438 0)"/>
    </g>
   </g>
   <g id="legend_1">
    <g id="patch_7">
     <path d="M 541.35625 89.19625 
L 770.6 89.19625 
Q 772.6 89.19625 772.6 87.19625 
L 772.6 58.84 
Q 772.6 56.84 770.6 56.84 
L 541.35625 56.84 
Q 539.35625 56.84 539.35625 58.84 
L 539.35625 87.19625 
Q 539.35625 89.19625 541.35625 89.19625 
z
" style="fill: #ffffff; opacity: 0.8; stroke: #cccccc; stroke-linejoin: miter"/>
    </g>
    <g id="line2d_18">
     <path d="M 543.35625 64.938437 
L 553.35625 64.938437 
L 563.35625 64.938437 
" style="fill: none; stroke: #000000; stroke-width: 1.5; stroke-linecap: square"/>
    </g>
    <g id="text_19">
     <!-- Absolute Returns -->
     <g transform="translate(571.35625 68.438437) scale(0.1 -0.1)">
      <defs>
       <path id="DejaVuSans-41" d="M 2188 4044 
L 1331 1722 
L 3047 1722 
L 2188 4044 
z
M 1831 4666 
L 2547 4666 
L 4325 0 
L 3669 0 
L 3244 1197 
L 1141 1197 
L 716 0 
L 50 0 
L 1831 4666 
z
" transform="scale(0.015625)"/>
       <path id="DejaVuSans-73" d="M 2834 3397 
L 2834 2853 
Q 2591 2978 2328 3040 
Q 2066 3103 1784 3103 
Q 1356 3103 1142 2972 
Q 928 2841 928 2578 
Q 928 2378 1081 2264 
Q 1234 2150 1697 2047 
L 1894 2003 
Q 2506 1872 2764 1633 
Q 3022 1394 3022 966 
Q 3022 478 2636 193 
Q 2250 -91 1575 -91 
Q 1294 -91 989 -36 
Q 684 19 347 128 
L 347 722 
Q 666 556 975 473 
Q 1284 391 1588 391 
Q 1994 391 2212 530 
Q 2431 669 2431 922 
Q 2431 1156 2273 1281 
Q 2116 1406 1581 1522 
L 1381 1569 
Q 847 1681 609 1914 
Q 372 2147 372 2553 
Q 372 3047 722 3315 
Q 1072 3584 1716 3584 
Q 2034 3584 2315 3537 
Q 2597 3491 2834 3397 
z
" transform="scale(0.015625)"/>
       <path id="DejaVuSans-75" d="M 544 1381 
L 544 3500 
L 1119 3500 
L 1119 1403 
Q 1119 906 1312 657 
Q 1506 409 1894 409 
Q 2359 409 2629 706 
Q 2900 1003 2900 1516 
L 2900 3500 
L 3475 3500 
L 3475 0 
L 2900 0 
L 2900 538 
Q 2691 219 2414 64 
Q 2138 -91 1772 -91 
Q 1169 -91 856 284 
Q 544 659 544 1381 
z
M 1991 3584 
L 1991 3584 
z
" transform="scale(0.015625)"/>
       <path id="DejaVuSans-52" d="M 2841 2188 
Q 3044 2119 3236 1894 
Q 3428 1669 3622 1275 
L 4263 0 
L 3584 0 
L 2988 1197 
Q 2756 1666 2539 1819 
Q 2322 1972 1947 1972 
L 1259 1972 
L 1259 0 
L 628 0 
L 628 4666 
L 2053 4666 
Q 2853 4666 3247 4331 
Q 3641 3997 3641 3322 
Q 3641 2881 3436 2590 
Q 3231 2300 2841 2188 
z
M 1259 4147 
L 1259 2491 
L 2053 2491 
Q 2509 2491 2742 2702 
Q 2975 2913 2975 3322 
Q 2975 3731 2742 3939 
Q 2509 4147 2053 4147 
L 1259 4147 
z
" transform="scale(0.015625)"/>
      </defs>
      <use xlink:href="#DejaVuSans-41"/>
      <use xlink:href="#DejaVuSans-62" transform="translate(68.408203 0)"/>
      <use xlink:href="#DejaVuSans-73" transform="translate(131.884766 0)"/>
      <use xlink:href="#DejaVuSans-6f" transform="translate(183.984375 0)"/>
      <use xlink:href="#DejaVuSans-6c" transform="translate(245.166016 0)"/>
      <use xlink:href="#DejaVuSans-75" transform="translate(272.949219 0)"/>
      <use xlink:href="#DejaVuSans-74" transform="translate(336.328125 0)"/>
      <use xlink:href="#DejaVuSans-65" transform="translate(375.537109 0)"/>
      <use xlink:href="#DejaVuSans-20" transform="translate(437.060547 0)"/>
      <use xlink:href="#DejaVuSans-52" transform="translate(468.847656 0)"/>
      <use xlink:href="#DejaVuSans-65" transform="translate(533.830078 0)"/>
      <use xlink:href="#DejaVuSans-74" transform="translate(595.353516 0)"/>
      <use xlink:href="#DejaVuSans-75" transform="translate(634.5625 0)"/>
      <use xlink:href="#DejaVuSans-72" transform="translate(697.941406 0)"/>
      <use xlink:href="#DejaVuSans-6e" transform="translate(737.304688 0)"/>
      <use xlink:href="#DejaVuSans-73" transform="translate(800.683594 0)"/>
     </g>
    </g>
    <g id="line2d_19">
     <path d="M 543.35625 79.616562 
L 553.35625 79.616562 
L 563.35625 79.616562 
" style="fill: none; stroke: #1f77b4; stroke-width: 1.5; stroke-linecap: square"/>
    </g>
    <g id="text_20">
     <!-- LSTM MDN vbig-fng Volatility Prediction -->
     <g transform="translate(571.35625 83.116562) scale(0.1 -0.1)">
      <use xlink:href="#DejaVuSans-4c"/>
      <use xlink:href="#DejaVuSans-53" transform="translate(55.712891 0)"/>
      <use xlink:href="#DejaVuSans-54" transform="translate(119.189453 0)"/>
      <use xlink:href="#DejaVuSans-4d" transform="translate(180.273438 0)"/>
      <use xlink:href="#DejaVuSans-20" transform="translate(266.552734 0)"/>
      <use xlink:href="#DejaVuSans-4d" transform="translate(298.339844 0)"/>
      <use xlink:href="#DejaVuSans-44" transform="translate(384.619141 0)"/>
      <use xlink:href="#DejaVuSans-4e" transform="translate(461.621094 0)"/>
      <use xlink:href="#DejaVuSans-20" transform="translate(536.425781 0)"/>
      <use xlink:href="#DejaVuSans-76" transform="translate(568.212891 0)"/>
      <use xlink:href="#DejaVuSans-62" transform="translate(627.392578 0)"/>
      <use xlink:href="#DejaVuSans-69" transform="translate(690.869141 0)"/>
      <use xlink:href="#DejaVuSans-67" transform="translate(718.652344 0)"/>
      <use xlink:href="#DejaVuSans-2d" transform="translate(782.128906 0)"/>
      <use xlink:href="#DejaVuSans-66" transform="translate(818.212891 0)"/>
      <use xlink:href="#DejaVuSans-6e" transform="translate(853.417969 0)"/>
      <use xlink:href="#DejaVuSans-67" transform="translate(916.796875 0)"/>
      <use xlink:href="#DejaVuSans-20" transform="translate(980.273438 0)"/>
      <use xlink:href="#DejaVuSans-56" transform="translate(1012.060547 0)"/>
      <use xlink:href="#DejaVuSans-6f" transform="translate(1072.71875 0)"/>
      <use xlink:href="#DejaVuSans-6c" transform="translate(1133.900391 0)"/>
      <use xlink:href="#DejaVuSans-61" transform="translate(1161.683594 0)"/>
      <use xlink:href="#DejaVuSans-74" transform="translate(1222.962891 0)"/>
      <use xlink:href="#DejaVuSans-69" transform="translate(1262.171875 0)"/>
      <use xlink:href="#DejaVuSans-6c" transform="translate(1289.955078 0)"/>
      <use xlink:href="#DejaVuSans-69" transform="translate(1317.738281 0)"/>
      <use xlink:href="#DejaVuSans-74" transform="translate(1345.521484 0)"/>
      <use xlink:href="#DejaVuSans-79" transform="translate(1384.730469 0)"/>
      <use xlink:href="#DejaVuSans-20" transform="translate(1443.910156 0)"/>
      <use xlink:href="#DejaVuSans-50" transform="translate(1475.697266 0)"/>
      <use xlink:href="#DejaVuSans-72" transform="translate(1534.25 0)"/>
      <use xlink:href="#DejaVuSans-65" transform="translate(1573.113281 0)"/>
      <use xlink:href="#DejaVuSans-64" transform="translate(1634.636719 0)"/>
      <use xlink:href="#DejaVuSans-69" transform="translate(1698.113281 0)"/>
      <use xlink:href="#DejaVuSans-63" transform="translate(1725.896484 0)"/>
      <use xlink:href="#DejaVuSans-74" transform="translate(1780.876953 0)"/>
      <use xlink:href="#DejaVuSans-69" transform="translate(1820.085938 0)"/>
      <use xlink:href="#DejaVuSans-6f" transform="translate(1847.869141 0)"/>
      <use xlink:href="#DejaVuSans-6e" transform="translate(1909.050781 0)"/>
     </g>
    </g>
   </g>
  </g>
 </g>
 <defs>
  <clipPath id="p952050223d">
   <rect x="108" y="51.84" width="669.6" height="332.64"/>
  </clipPath>
 </defs>
</svg>
