<?xml version="1.0" encoding="utf-8" standalone="no"?>
<!DOCTYPE svg PUBLIC "-//W3C//DTD SVG 1.1//EN"
  "http://www.w3.org/Graphics/SVG/1.1/DTD/svg11.dtd">
<svg xmlns:xlink="http://www.w3.org/1999/xlink" width="864pt" height="432pt" viewBox="0 0 864 432" xmlns="http://www.w3.org/2000/svg" version="1.1">
 <metadata>
  <rdf:RDF xmlns:dc="http://purl.org/dc/elements/1.1/" xmlns:cc="http://creativecommons.org/ns#" xmlns:rdf="http://www.w3.org/1999/02/22-rdf-syntax-ns#">
   <cc:Work>
    <dc:type rdf:resource="http://purl.org/dc/dcmitype/StillImage"/>
    <dc:date>2025-02-17T16:01:01.873005</dc:date>
    <dc:format>image/svg+xml</dc:format>
    <dc:creator>
     <cc:Agent>
      <dc:title>Matplotlib v3.10.0, https://matplotlib.org/</dc:title>
     </cc:Agent>
    </dc:creator>
   </cc:Work>
  </rdf:RDF>
 </metadata>
 <defs>
  <style type="text/css">*{stroke-linejoin: round; stroke-linecap: butt}</style>
 </defs>
 <g id="figure_1">
  <g id="patch_1">
   <path d="M 0 432 
L 864 432 
L 864 0 
L 0 0 
z
" style="fill: #ffffff"/>
  </g>
  <g id="axes_1">
   <g id="patch_2">
    <path d="M 108 384.48 
L 777.6 384.48 
L 777.6 51.84 
L 108 51.84 
z
" style="fill: #ffffff"/>
   </g>
   <g id="matplotlib.axis_1">
    <g id="xtick_1">
     <g id="line2d_1">
      <defs>
       <path id="m9278cba5f3" d="M 0 0 
L 0 3.5 
" style="stroke: #000000; stroke-width: 0.8"/>
      </defs>
      <g>
       <use xlink:href="#m9278cba5f3" x="139.272527" y="384.48" style="stroke: #000000; stroke-width: 0.8"/>
      </g>
     </g>
     <g id="text_1">
      <!-- 2022-01 -->
      <g transform="translate(118.381121 399.078438) scale(0.1 -0.1)">
       <defs>
        <path id="DejaVuSans-32" d="M 1228 531 
L 3431 531 
L 3431 0 
L 469 0 
L 469 531 
Q 828 903 1448 1529 
Q 2069 2156 2228 2338 
Q 2531 2678 2651 2914 
Q 2772 3150 2772 3378 
Q 2772 3750 2511 3984 
Q 2250 4219 1831 4219 
Q 1534 4219 1204 4116 
Q 875 4013 500 3803 
L 500 4441 
Q 881 4594 1212 4672 
Q 1544 4750 1819 4750 
Q 2544 4750 2975 4387 
Q 3406 4025 3406 3419 
Q 3406 3131 3298 2873 
Q 3191 2616 2906 2266 
Q 2828 2175 2409 1742 
Q 1991 1309 1228 531 
z
" transform="scale(0.015625)"/>
        <path id="DejaVuSans-30" d="M 2034 4250 
Q 1547 4250 1301 3770 
Q 1056 3291 1056 2328 
Q 1056 1369 1301 889 
Q 1547 409 2034 409 
Q 2525 409 2770 889 
Q 3016 1369 3016 2328 
Q 3016 3291 2770 3770 
Q 2525 4250 2034 4250 
z
M 2034 4750 
Q 2819 4750 3233 4129 
Q 3647 3509 3647 2328 
Q 3647 1150 3233 529 
Q 2819 -91 2034 -91 
Q 1250 -91 836 529 
Q 422 1150 422 2328 
Q 422 3509 836 4129 
Q 1250 4750 2034 4750 
z
" transform="scale(0.015625)"/>
        <path id="DejaVuSans-2d" d="M 313 2009 
L 1997 2009 
L 1997 1497 
L 313 1497 
L 313 2009 
z
" transform="scale(0.015625)"/>
        <path id="DejaVuSans-31" d="M 794 531 
L 1825 531 
L 1825 4091 
L 703 3866 
L 703 4441 
L 1819 4666 
L 2450 4666 
L 2450 531 
L 3481 531 
L 3481 0 
L 794 0 
L 794 531 
z
" transform="scale(0.015625)"/>
       </defs>
       <use xlink:href="#DejaVuSans-32"/>
       <use xlink:href="#DejaVuSans-30" transform="translate(63.623047 0)"/>
       <use xlink:href="#DejaVuSans-32" transform="translate(127.246094 0)"/>
       <use xlink:href="#DejaVuSans-32" transform="translate(190.869141 0)"/>
       <use xlink:href="#DejaVuSans-2d" transform="translate(254.492188 0)"/>
       <use xlink:href="#DejaVuSans-30" transform="translate(290.576172 0)"/>
       <use xlink:href="#DejaVuSans-31" transform="translate(354.199219 0)"/>
      </g>
     </g>
    </g>
    <g id="xtick_2">
     <g id="line2d_2">
      <g>
       <use xlink:href="#m9278cba5f3" x="214.527273" y="384.48" style="stroke: #000000; stroke-width: 0.8"/>
      </g>
     </g>
     <g id="text_2">
      <!-- 2022-04 -->
      <g transform="translate(193.635866 399.078438) scale(0.1 -0.1)">
       <defs>
        <path id="DejaVuSans-34" d="M 2419 4116 
L 825 1625 
L 2419 1625 
L 2419 4116 
z
M 2253 4666 
L 3047 4666 
L 3047 1625 
L 3713 1625 
L 3713 1100 
L 3047 1100 
L 3047 0 
L 2419 0 
L 2419 1100 
L 313 1100 
L 313 1709 
L 2253 4666 
z
" transform="scale(0.015625)"/>
       </defs>
       <use xlink:href="#DejaVuSans-32"/>
       <use xlink:href="#DejaVuSans-30" transform="translate(63.623047 0)"/>
       <use xlink:href="#DejaVuSans-32" transform="translate(127.246094 0)"/>
       <use xlink:href="#DejaVuSans-32" transform="translate(190.869141 0)"/>
       <use xlink:href="#DejaVuSans-2d" transform="translate(254.492188 0)"/>
       <use xlink:href="#DejaVuSans-30" transform="translate(290.576172 0)"/>
       <use xlink:href="#DejaVuSans-34" transform="translate(354.199219 0)"/>
      </g>
     </g>
    </g>
    <g id="xtick_3">
     <g id="line2d_3">
      <g>
       <use xlink:href="#m9278cba5f3" x="290.618182" y="384.48" style="stroke: #000000; stroke-width: 0.8"/>
      </g>
     </g>
     <g id="text_3">
      <!-- 2022-07 -->
      <g transform="translate(269.726776 399.078438) scale(0.1 -0.1)">
       <defs>
        <path id="DejaVuSans-37" d="M 525 4666 
L 3525 4666 
L 3525 4397 
L 1831 0 
L 1172 0 
L 2766 4134 
L 525 4134 
L 525 4666 
z
" transform="scale(0.015625)"/>
       </defs>
       <use xlink:href="#DejaVuSans-32"/>
       <use xlink:href="#DejaVuSans-30" transform="translate(63.623047 0)"/>
       <use xlink:href="#DejaVuSans-32" transform="translate(127.246094 0)"/>
       <use xlink:href="#DejaVuSans-32" transform="translate(190.869141 0)"/>
       <use xlink:href="#DejaVuSans-2d" transform="translate(254.492188 0)"/>
       <use xlink:href="#DejaVuSans-30" transform="translate(290.576172 0)"/>
       <use xlink:href="#DejaVuSans-37" transform="translate(354.199219 0)"/>
      </g>
     </g>
    </g>
    <g id="xtick_4">
     <g id="line2d_4">
      <g>
       <use xlink:href="#m9278cba5f3" x="367.545255" y="384.48" style="stroke: #000000; stroke-width: 0.8"/>
      </g>
     </g>
     <g id="text_4">
      <!-- 2022-10 -->
      <g transform="translate(346.653848 399.078438) scale(0.1 -0.1)">
       <use xlink:href="#DejaVuSans-32"/>
       <use xlink:href="#DejaVuSans-30" transform="translate(63.623047 0)"/>
       <use xlink:href="#DejaVuSans-32" transform="translate(127.246094 0)"/>
       <use xlink:href="#DejaVuSans-32" transform="translate(190.869141 0)"/>
       <use xlink:href="#DejaVuSans-2d" transform="translate(254.492188 0)"/>
       <use xlink:href="#DejaVuSans-31" transform="translate(290.576172 0)"/>
       <use xlink:href="#DejaVuSans-30" transform="translate(354.199219 0)"/>
      </g>
     </g>
    </g>
    <g id="xtick_5">
     <g id="line2d_5">
      <g>
       <use xlink:href="#m9278cba5f3" x="444.472328" y="384.48" style="stroke: #000000; stroke-width: 0.8"/>
      </g>
     </g>
     <g id="text_5">
      <!-- 2023-01 -->
      <g transform="translate(423.580921 399.078438) scale(0.1 -0.1)">
       <defs>
        <path id="DejaVuSans-33" d="M 2597 2516 
Q 3050 2419 3304 2112 
Q 3559 1806 3559 1356 
Q 3559 666 3084 287 
Q 2609 -91 1734 -91 
Q 1441 -91 1130 -33 
Q 819 25 488 141 
L 488 750 
Q 750 597 1062 519 
Q 1375 441 1716 441 
Q 2309 441 2620 675 
Q 2931 909 2931 1356 
Q 2931 1769 2642 2001 
Q 2353 2234 1838 2234 
L 1294 2234 
L 1294 2753 
L 1863 2753 
Q 2328 2753 2575 2939 
Q 2822 3125 2822 3475 
Q 2822 3834 2567 4026 
Q 2313 4219 1838 4219 
Q 1578 4219 1281 4162 
Q 984 4106 628 3988 
L 628 4550 
Q 988 4650 1302 4700 
Q 1616 4750 1894 4750 
Q 2613 4750 3031 4423 
Q 3450 4097 3450 3541 
Q 3450 3153 3228 2886 
Q 3006 2619 2597 2516 
z
" transform="scale(0.015625)"/>
       </defs>
       <use xlink:href="#DejaVuSans-32"/>
       <use xlink:href="#DejaVuSans-30" transform="translate(63.623047 0)"/>
       <use xlink:href="#DejaVuSans-32" transform="translate(127.246094 0)"/>
       <use xlink:href="#DejaVuSans-33" transform="translate(190.869141 0)"/>
       <use xlink:href="#DejaVuSans-2d" transform="translate(254.492188 0)"/>
       <use xlink:href="#DejaVuSans-30" transform="translate(290.576172 0)"/>
       <use xlink:href="#DejaVuSans-31" transform="translate(354.199219 0)"/>
      </g>
     </g>
    </g>
    <g id="xtick_6">
     <g id="line2d_6">
      <g>
       <use xlink:href="#m9278cba5f3" x="519.727073" y="384.48" style="stroke: #000000; stroke-width: 0.8"/>
      </g>
     </g>
     <g id="text_6">
      <!-- 2023-04 -->
      <g transform="translate(498.835667 399.078438) scale(0.1 -0.1)">
       <use xlink:href="#DejaVuSans-32"/>
       <use xlink:href="#DejaVuSans-30" transform="translate(63.623047 0)"/>
       <use xlink:href="#DejaVuSans-32" transform="translate(127.246094 0)"/>
       <use xlink:href="#DejaVuSans-33" transform="translate(190.869141 0)"/>
       <use xlink:href="#DejaVuSans-2d" transform="translate(254.492188 0)"/>
       <use xlink:href="#DejaVuSans-30" transform="translate(290.576172 0)"/>
       <use xlink:href="#DejaVuSans-34" transform="translate(354.199219 0)"/>
      </g>
     </g>
    </g>
    <g id="xtick_7">
     <g id="line2d_7">
      <g>
       <use xlink:href="#m9278cba5f3" x="595.817982" y="384.48" style="stroke: #000000; stroke-width: 0.8"/>
      </g>
     </g>
     <g id="text_7">
      <!-- 2023-07 -->
      <g transform="translate(574.926576 399.078438) scale(0.1 -0.1)">
       <use xlink:href="#DejaVuSans-32"/>
       <use xlink:href="#DejaVuSans-30" transform="translate(63.623047 0)"/>
       <use xlink:href="#DejaVuSans-32" transform="translate(127.246094 0)"/>
       <use xlink:href="#DejaVuSans-33" transform="translate(190.869141 0)"/>
       <use xlink:href="#DejaVuSans-2d" transform="translate(254.492188 0)"/>
       <use xlink:href="#DejaVuSans-30" transform="translate(290.576172 0)"/>
       <use xlink:href="#DejaVuSans-37" transform="translate(354.199219 0)"/>
      </g>
     </g>
    </g>
    <g id="xtick_8">
     <g id="line2d_8">
      <g>
       <use xlink:href="#m9278cba5f3" x="672.745055" y="384.48" style="stroke: #000000; stroke-width: 0.8"/>
      </g>
     </g>
     <g id="text_8">
      <!-- 2023-10 -->
      <g transform="translate(651.853649 399.078438) scale(0.1 -0.1)">
       <use xlink:href="#DejaVuSans-32"/>
       <use xlink:href="#DejaVuSans-30" transform="translate(63.623047 0)"/>
       <use xlink:href="#DejaVuSans-32" transform="translate(127.246094 0)"/>
       <use xlink:href="#DejaVuSans-33" transform="translate(190.869141 0)"/>
       <use xlink:href="#DejaVuSans-2d" transform="translate(254.492188 0)"/>
       <use xlink:href="#DejaVuSans-31" transform="translate(290.576172 0)"/>
       <use xlink:href="#DejaVuSans-30" transform="translate(354.199219 0)"/>
      </g>
     </g>
    </g>
    <g id="xtick_9">
     <g id="line2d_9">
      <g>
       <use xlink:href="#m9278cba5f3" x="749.672128" y="384.48" style="stroke: #000000; stroke-width: 0.8"/>
      </g>
     </g>
     <g id="text_9">
      <!-- 2024-01 -->
      <g transform="translate(728.780722 399.078438) scale(0.1 -0.1)">
       <use xlink:href="#DejaVuSans-32"/>
       <use xlink:href="#DejaVuSans-30" transform="translate(63.623047 0)"/>
       <use xlink:href="#DejaVuSans-32" transform="translate(127.246094 0)"/>
       <use xlink:href="#DejaVuSans-34" transform="translate(190.869141 0)"/>
       <use xlink:href="#DejaVuSans-2d" transform="translate(254.492188 0)"/>
       <use xlink:href="#DejaVuSans-30" transform="translate(290.576172 0)"/>
       <use xlink:href="#DejaVuSans-31" transform="translate(354.199219 0)"/>
      </g>
     </g>
    </g>
    <g id="text_10">
     <!-- Date -->
     <g transform="translate(430.849219 412.756563) scale(0.1 -0.1)">
      <defs>
       <path id="DejaVuSans-44" d="M 1259 4147 
L 1259 519 
L 2022 519 
Q 2988 519 3436 956 
Q 3884 1394 3884 2338 
Q 3884 3275 3436 3711 
Q 2988 4147 2022 4147 
L 1259 4147 
z
M 628 4666 
L 1925 4666 
Q 3281 4666 3915 4102 
Q 4550 3538 4550 2338 
Q 4550 1131 3912 565 
Q 3275 0 1925 0 
L 628 0 
L 628 4666 
z
" transform="scale(0.015625)"/>
       <path id="DejaVuSans-61" d="M 2194 1759 
Q 1497 1759 1228 1600 
Q 959 1441 959 1056 
Q 959 750 1161 570 
Q 1363 391 1709 391 
Q 2188 391 2477 730 
Q 2766 1069 2766 1631 
L 2766 1759 
L 2194 1759 
z
M 3341 1997 
L 3341 0 
L 2766 0 
L 2766 531 
Q 2569 213 2275 61 
Q 1981 -91 1556 -91 
Q 1019 -91 701 211 
Q 384 513 384 1019 
Q 384 1609 779 1909 
Q 1175 2209 1959 2209 
L 2766 2209 
L 2766 2266 
Q 2766 2663 2505 2880 
Q 2244 3097 1772 3097 
Q 1472 3097 1187 3025 
Q 903 2953 641 2809 
L 641 3341 
Q 956 3463 1253 3523 
Q 1550 3584 1831 3584 
Q 2591 3584 2966 3190 
Q 3341 2797 3341 1997 
z
" transform="scale(0.015625)"/>
       <path id="DejaVuSans-74" d="M 1172 4494 
L 1172 3500 
L 2356 3500 
L 2356 3053 
L 1172 3053 
L 1172 1153 
Q 1172 725 1289 603 
Q 1406 481 1766 481 
L 2356 481 
L 2356 0 
L 1766 0 
Q 1100 0 847 248 
Q 594 497 594 1153 
L 594 3053 
L 172 3053 
L 172 3500 
L 594 3500 
L 594 4494 
L 1172 4494 
z
" transform="scale(0.015625)"/>
       <path id="DejaVuSans-65" d="M 3597 1894 
L 3597 1613 
L 953 1613 
Q 991 1019 1311 708 
Q 1631 397 2203 397 
Q 2534 397 2845 478 
Q 3156 559 3463 722 
L 3463 178 
Q 3153 47 2828 -22 
Q 2503 -91 2169 -91 
Q 1331 -91 842 396 
Q 353 884 353 1716 
Q 353 2575 817 3079 
Q 1281 3584 2069 3584 
Q 2775 3584 3186 3129 
Q 3597 2675 3597 1894 
z
M 3022 2063 
Q 3016 2534 2758 2815 
Q 2500 3097 2075 3097 
Q 1594 3097 1305 2825 
Q 1016 2553 972 2059 
L 3022 2063 
z
" transform="scale(0.015625)"/>
      </defs>
      <use xlink:href="#DejaVuSans-44"/>
      <use xlink:href="#DejaVuSans-61" transform="translate(77.001953 0)"/>
      <use xlink:href="#DejaVuSans-74" transform="translate(138.28125 0)"/>
      <use xlink:href="#DejaVuSans-65" transform="translate(177.490234 0)"/>
     </g>
    </g>
   </g>
   <g id="matplotlib.axis_2">
    <g id="ytick_1">
     <g id="line2d_10">
      <defs>
       <path id="m1e3cd272b7" d="M 0 0 
L -3.5 0 
" style="stroke: #000000; stroke-width: 0.8"/>
      </defs>
      <g>
       <use xlink:href="#m1e3cd272b7" x="108" y="369.538678" style="stroke: #000000; stroke-width: 0.8"/>
      </g>
     </g>
     <g id="text_11">
      <!-- 0.00 -->
      <g transform="translate(78.734375 373.337897) scale(0.1 -0.1)">
       <defs>
        <path id="DejaVuSans-2e" d="M 684 794 
L 1344 794 
L 1344 0 
L 684 0 
L 684 794 
z
" transform="scale(0.015625)"/>
       </defs>
       <use xlink:href="#DejaVuSans-30"/>
       <use xlink:href="#DejaVuSans-2e" transform="translate(63.623047 0)"/>
       <use xlink:href="#DejaVuSans-30" transform="translate(95.410156 0)"/>
       <use xlink:href="#DejaVuSans-30" transform="translate(159.033203 0)"/>
      </g>
     </g>
    </g>
    <g id="ytick_2">
     <g id="line2d_11">
      <g>
       <use xlink:href="#m1e3cd272b7" x="108" y="319.428191" style="stroke: #000000; stroke-width: 0.8"/>
      </g>
     </g>
     <g id="text_12">
      <!-- 0.02 -->
      <g transform="translate(78.734375 323.22741) scale(0.1 -0.1)">
       <use xlink:href="#DejaVuSans-30"/>
       <use xlink:href="#DejaVuSans-2e" transform="translate(63.623047 0)"/>
       <use xlink:href="#DejaVuSans-30" transform="translate(95.410156 0)"/>
       <use xlink:href="#DejaVuSans-32" transform="translate(159.033203 0)"/>
      </g>
     </g>
    </g>
    <g id="ytick_3">
     <g id="line2d_12">
      <g>
       <use xlink:href="#m1e3cd272b7" x="108" y="269.317705" style="stroke: #000000; stroke-width: 0.8"/>
      </g>
     </g>
     <g id="text_13">
      <!-- 0.04 -->
      <g transform="translate(78.734375 273.116923) scale(0.1 -0.1)">
       <use xlink:href="#DejaVuSans-30"/>
       <use xlink:href="#DejaVuSans-2e" transform="translate(63.623047 0)"/>
       <use xlink:href="#DejaVuSans-30" transform="translate(95.410156 0)"/>
       <use xlink:href="#DejaVuSans-34" transform="translate(159.033203 0)"/>
      </g>
     </g>
    </g>
    <g id="ytick_4">
     <g id="line2d_13">
      <g>
       <use xlink:href="#m1e3cd272b7" x="108" y="219.207218" style="stroke: #000000; stroke-width: 0.8"/>
      </g>
     </g>
     <g id="text_14">
      <!-- 0.06 -->
      <g transform="translate(78.734375 223.006437) scale(0.1 -0.1)">
       <defs>
        <path id="DejaVuSans-36" d="M 2113 2584 
Q 1688 2584 1439 2293 
Q 1191 2003 1191 1497 
Q 1191 994 1439 701 
Q 1688 409 2113 409 
Q 2538 409 2786 701 
Q 3034 994 3034 1497 
Q 3034 2003 2786 2293 
Q 2538 2584 2113 2584 
z
M 3366 4563 
L 3366 3988 
Q 3128 4100 2886 4159 
Q 2644 4219 2406 4219 
Q 1781 4219 1451 3797 
Q 1122 3375 1075 2522 
Q 1259 2794 1537 2939 
Q 1816 3084 2150 3084 
Q 2853 3084 3261 2657 
Q 3669 2231 3669 1497 
Q 3669 778 3244 343 
Q 2819 -91 2113 -91 
Q 1303 -91 875 529 
Q 447 1150 447 2328 
Q 447 3434 972 4092 
Q 1497 4750 2381 4750 
Q 2619 4750 2861 4703 
Q 3103 4656 3366 4563 
z
" transform="scale(0.015625)"/>
       </defs>
       <use xlink:href="#DejaVuSans-30"/>
       <use xlink:href="#DejaVuSans-2e" transform="translate(63.623047 0)"/>
       <use xlink:href="#DejaVuSans-30" transform="translate(95.410156 0)"/>
       <use xlink:href="#DejaVuSans-36" transform="translate(159.033203 0)"/>
      </g>
     </g>
    </g>
    <g id="ytick_5">
     <g id="line2d_14">
      <g>
       <use xlink:href="#m1e3cd272b7" x="108" y="169.096732" style="stroke: #000000; stroke-width: 0.8"/>
      </g>
     </g>
     <g id="text_15">
      <!-- 0.08 -->
      <g transform="translate(78.734375 172.89595) scale(0.1 -0.1)">
       <defs>
        <path id="DejaVuSans-38" d="M 2034 2216 
Q 1584 2216 1326 1975 
Q 1069 1734 1069 1313 
Q 1069 891 1326 650 
Q 1584 409 2034 409 
Q 2484 409 2743 651 
Q 3003 894 3003 1313 
Q 3003 1734 2745 1975 
Q 2488 2216 2034 2216 
z
M 1403 2484 
Q 997 2584 770 2862 
Q 544 3141 544 3541 
Q 544 4100 942 4425 
Q 1341 4750 2034 4750 
Q 2731 4750 3128 4425 
Q 3525 4100 3525 3541 
Q 3525 3141 3298 2862 
Q 3072 2584 2669 2484 
Q 3125 2378 3379 2068 
Q 3634 1759 3634 1313 
Q 3634 634 3220 271 
Q 2806 -91 2034 -91 
Q 1263 -91 848 271 
Q 434 634 434 1313 
Q 434 1759 690 2068 
Q 947 2378 1403 2484 
z
M 1172 3481 
Q 1172 3119 1398 2916 
Q 1625 2713 2034 2713 
Q 2441 2713 2670 2916 
Q 2900 3119 2900 3481 
Q 2900 3844 2670 4047 
Q 2441 4250 2034 4250 
Q 1625 4250 1398 4047 
Q 1172 3844 1172 3481 
z
" transform="scale(0.015625)"/>
       </defs>
       <use xlink:href="#DejaVuSans-30"/>
       <use xlink:href="#DejaVuSans-2e" transform="translate(63.623047 0)"/>
       <use xlink:href="#DejaVuSans-30" transform="translate(95.410156 0)"/>
       <use xlink:href="#DejaVuSans-38" transform="translate(159.033203 0)"/>
      </g>
     </g>
    </g>
    <g id="ytick_6">
     <g id="line2d_15">
      <g>
       <use xlink:href="#m1e3cd272b7" x="108" y="118.986245" style="stroke: #000000; stroke-width: 0.8"/>
      </g>
     </g>
     <g id="text_16">
      <!-- 0.10 -->
      <g transform="translate(78.734375 122.785464) scale(0.1 -0.1)">
       <use xlink:href="#DejaVuSans-30"/>
       <use xlink:href="#DejaVuSans-2e" transform="translate(63.623047 0)"/>
       <use xlink:href="#DejaVuSans-31" transform="translate(95.410156 0)"/>
       <use xlink:href="#DejaVuSans-30" transform="translate(159.033203 0)"/>
      </g>
     </g>
    </g>
    <g id="ytick_7">
     <g id="line2d_16">
      <g>
       <use xlink:href="#m1e3cd272b7" x="108" y="68.875758" style="stroke: #000000; stroke-width: 0.8"/>
      </g>
     </g>
     <g id="text_17">
      <!-- 0.12 -->
      <g transform="translate(78.734375 72.674977) scale(0.1 -0.1)">
       <use xlink:href="#DejaVuSans-30"/>
       <use xlink:href="#DejaVuSans-2e" transform="translate(63.623047 0)"/>
       <use xlink:href="#DejaVuSans-31" transform="translate(95.410156 0)"/>
       <use xlink:href="#DejaVuSans-32" transform="translate(159.033203 0)"/>
      </g>
     </g>
    </g>
    <g id="text_18">
     <!-- Volatility -->
     <g transform="translate(72.654687 239.752187) rotate(-90) scale(0.1 -0.1)">
      <defs>
       <path id="DejaVuSans-56" d="M 1831 0 
L 50 4666 
L 709 4666 
L 2188 738 
L 3669 4666 
L 4325 4666 
L 2547 0 
L 1831 0 
z
" transform="scale(0.015625)"/>
       <path id="DejaVuSans-6f" d="M 1959 3097 
Q 1497 3097 1228 2736 
Q 959 2375 959 1747 
Q 959 1119 1226 758 
Q 1494 397 1959 397 
Q 2419 397 2687 759 
Q 2956 1122 2956 1747 
Q 2956 2369 2687 2733 
Q 2419 3097 1959 3097 
z
M 1959 3584 
Q 2709 3584 3137 3096 
Q 3566 2609 3566 1747 
Q 3566 888 3137 398 
Q 2709 -91 1959 -91 
Q 1206 -91 779 398 
Q 353 888 353 1747 
Q 353 2609 779 3096 
Q 1206 3584 1959 3584 
z
" transform="scale(0.015625)"/>
       <path id="DejaVuSans-6c" d="M 603 4863 
L 1178 4863 
L 1178 0 
L 603 0 
L 603 4863 
z
" transform="scale(0.015625)"/>
       <path id="DejaVuSans-69" d="M 603 3500 
L 1178 3500 
L 1178 0 
L 603 0 
L 603 3500 
z
M 603 4863 
L 1178 4863 
L 1178 4134 
L 603 4134 
L 603 4863 
z
" transform="scale(0.015625)"/>
       <path id="DejaVuSans-79" d="M 2059 -325 
Q 1816 -950 1584 -1140 
Q 1353 -1331 966 -1331 
L 506 -1331 
L 506 -850 
L 844 -850 
Q 1081 -850 1212 -737 
Q 1344 -625 1503 -206 
L 1606 56 
L 191 3500 
L 800 3500 
L 1894 763 
L 2988 3500 
L 3597 3500 
L 2059 -325 
z
" transform="scale(0.015625)"/>
      </defs>
      <use xlink:href="#DejaVuSans-56"/>
      <use xlink:href="#DejaVuSans-6f" transform="translate(60.658203 0)"/>
      <use xlink:href="#DejaVuSans-6c" transform="translate(121.839844 0)"/>
      <use xlink:href="#DejaVuSans-61" transform="translate(149.623047 0)"/>
      <use xlink:href="#DejaVuSans-74" transform="translate(210.902344 0)"/>
      <use xlink:href="#DejaVuSans-69" transform="translate(250.111328 0)"/>
      <use xlink:href="#DejaVuSans-6c" transform="translate(277.894531 0)"/>
      <use xlink:href="#DejaVuSans-69" transform="translate(305.677734 0)"/>
      <use xlink:href="#DejaVuSans-74" transform="translate(333.460938 0)"/>
      <use xlink:href="#DejaVuSans-79" transform="translate(372.669922 0)"/>
     </g>
    </g>
   </g>
   <g id="line2d_17">
    <path d="M 138.436364 343.078161 
L 140.944855 368.845661 
L 141.781019 323.211978 
L 142.617183 335.88844 
L 143.453347 362.565193 
L 144.28951 345.734947 
L 146.798002 364.692305 
L 147.634166 362.425011 
L 148.47033 356.298082 
L 149.306494 334.328293 
L 150.142657 362.466919 
L 153.487313 325.278063 
L 154.323477 344.697803 
L 155.15964 321.739134 
L 155.995804 351.197665 
L 158.504296 369.36 
L 159.34046 314.42989 
L 160.176623 343.831963 
L 161.012787 367.878692 
L 161.848951 338.741449 
L 164.357443 328.160207 
L 165.193606 349.902438 
L 166.02977 368.4714 
L 166.865934 367.049845 
L 167.702098 339.863792 
L 170.210589 344.781207 
L 171.046753 368.994236 
L 171.882917 364.085675 
L 172.719081 340.069045 
L 173.555245 355.691557 
L 176.063736 343.857819 
L 176.8999 361.694843 
L 177.736064 353.826151 
L 178.572228 271.111359 
L 179.408392 353.430666 
L 182.753047 341.419111 
L 183.589211 343.698961 
L 184.425375 359.872628 
L 185.261538 335.318532 
L 187.77003 347.024749 
L 188.606194 354.200132 
L 189.442358 366.408088 
L 190.278521 312.59449 
L 191.114685 306.832709 
L 193.623177 349.281709 
L 194.459341 317.176819 
L 195.295504 356.569995 
L 196.131668 313.224489 
L 196.967832 359.682085 
L 199.476324 334.860482 
L 200.312488 339.627268 
L 201.148651 362.137116 
L 201.984815 365.734457 
L 202.820979 362.1197 
L 205.329471 348.606164 
L 206.165634 362.057778 
L 207.001798 337.095435 
L 207.837962 354.05372 
L 208.674126 358.686517 
L 211.182617 325.390857 
L 212.018781 348.518686 
L 212.854945 325.009947 
L 213.691109 353.606211 
L 214.527273 334.620226 
L 217.035764 369.04044 
L 217.871928 362.415861 
L 218.708092 311.979303 
L 219.544256 344.606214 
L 220.38042 355.652582 
L 222.888911 319.378311 
L 223.725075 352.266179 
L 224.561239 305.131872 
L 225.397403 367.306588 
L 228.742058 350.324743 
L 229.578222 341.249438 
L 230.414386 338.266621 
L 231.250549 365.774196 
L 232.086713 321.915323 
L 234.595205 368.261058 
L 235.431369 343.21827 
L 236.267532 352.378896 
L 237.103696 337.739948 
L 237.93986 317.351379 
L 240.448352 352.943688 
L 241.284515 360.816515 
L 242.120679 335.112097 
L 242.956843 347.978809 
L 243.793007 316.823656 
L 246.301499 340.391391 
L 247.137662 334.01703 
L 247.973826 343.200193 
L 248.80999 367.161136 
L 249.646154 359.873274 
L 252.154645 366.832755 
L 252.990809 66.96 
L 253.826973 193.335213 
L 254.663137 299.815086 
L 255.499301 366.804502 
L 258.007792 299.07248 
L 258.843956 338.464288 
L 259.68012 354.150785 
L 260.516284 316.68764 
L 261.352448 320.701954 
L 264.697103 366.615281 
L 265.533267 306.818527 
L 266.369431 328.729993 
L 267.205594 326.132343 
L 269.714086 360.525429 
L 270.55025 339.258569 
L 271.386414 347.713638 
L 272.222577 343.177258 
L 273.058741 355.500134 
L 275.567233 321.944027 
L 276.403397 368.490133 
L 277.23956 367.8602 
L 278.911888 320.665667 
L 282.256543 288.674666 
L 283.092707 339.001189 
L 283.928871 309.438786 
L 284.765035 367.512444 
L 287.273526 361.451281 
L 288.10969 333.961515 
L 288.945854 360.307744 
L 289.782018 362.541418 
L 290.618182 347.992828 
L 293.962837 336.656181 
L 295.635165 365.73697 
L 296.471329 367.940441 
L 298.97982 368.539264 
L 299.815984 361.937618 
L 300.652148 363.53569 
L 301.488312 321.047757 
L 302.324476 345.155596 
L 304.832967 363.708435 
L 305.669131 354.214067 
L 306.505295 348.739697 
L 307.341459 333.17251 
L 308.177622 363.103516 
L 310.686114 365.935683 
L 311.522278 171.360455 
L 312.358442 276.59242 
L 313.194605 307.762349 
L 314.030769 325.514087 
L 316.539261 360.258622 
L 317.375425 366.893279 
L 318.211588 328.0293 
L 319.047752 273.051671 
L 319.883916 349.466719 
L 322.392408 349.233289 
L 323.228571 344.920884 
L 324.064735 364.294824 
L 324.900899 345.491354 
L 325.737063 323.642088 
L 328.245554 362.348051 
L 329.081718 244.775427 
L 329.917882 366.843633 
L 330.754046 361.444408 
L 331.59021 332.33033 
L 334.098701 324.33319 
L 334.934865 358.903662 
L 335.771029 351.467207 
L 336.607193 352.886645 
L 337.443357 289.533357 
L 340.788012 361.985304 
L 341.624176 368.214981 
L 342.46034 333.320082 
L 343.296503 341.811604 
L 346.641159 357.073966 
L 347.477323 305.980865 
L 348.313487 356.834965 
L 349.14965 362.020606 
L 351.658142 347.117805 
L 352.494306 317.278872 
L 353.33047 363.973999 
L 354.166633 342.46586 
L 355.002797 364.276696 
L 357.511289 348.184403 
L 358.347453 354.947401 
L 359.183616 346.753858 
L 360.01978 343.750482 
L 360.855944 306.195822 
L 363.364436 345.57315 
L 364.200599 362.660153 
L 365.036763 328.547522 
L 365.872927 353.298191 
L 366.709091 320.756053 
L 369.217582 315.456711 
L 370.053746 337.230701 
L 370.88991 344.592776 
L 371.726074 346.054827 
L 372.562238 309.458763 
L 375.070729 354.770367 
L 375.906893 305.460269 
L 376.743057 341.049499 
L 377.579221 348.425245 
L 378.415385 334.249976 
L 380.923876 351.546159 
L 381.76004 317.258045 
L 382.596204 362.430941 
L 383.432368 363.364624 
L 384.268531 319.406449 
L 386.777023 322.186528 
L 387.613187 357.704606 
L 388.449351 350.471547 
L 389.285514 362.249987 
L 390.121678 338.046727 
L 392.63017 366.371849 
L 393.466334 358.246776 
L 394.302498 352.861854 
L 395.138661 369.004065 
L 395.974825 365.091235 
L 398.483317 343.371255 
L 399.319481 363.565391 
L 400.155644 310.594965 
L 400.991808 318.151626 
L 401.827972 365.669651 
L 404.336464 294.80549 
L 405.172627 210.825117 
L 406.008791 351.59009 
L 406.844955 361.088479 
L 407.681119 332.0679 
L 410.18961 354.242183 
L 411.025774 360.603256 
L 411.861938 357.51004 
L 413.534266 358.876187 
L 416.042757 362.347198 
L 416.878921 360.709572 
L 417.715085 360.513813 
L 418.551249 353.971069 
L 419.387413 367.087319 
L 421.895904 343.733143 
L 422.732068 340.290278 
L 423.568232 356.466073 
L 424.404396 365.662105 
L 425.240559 310.4101 
L 427.749051 323.241743 
L 428.585215 360.551287 
L 429.421379 355.56961 
L 430.257542 347.060006 
L 431.093706 324.141951 
L 433.602198 368.661215 
L 434.438362 347.701788 
L 435.274525 349.96108 
L 436.110689 340.027035 
L 436.946853 364.479632 
L 440.291508 368.841376 
L 441.127672 325.244574 
L 441.963836 354.334619 
L 442.8 363.185821 
L 446.144655 337.757599 
L 446.980819 366.748563 
L 447.816983 360.984608 
L 448.653147 308.895786 
L 451.161638 338.104489 
L 451.997802 367.982785 
L 452.833966 347.668608 
L 453.67013 346.803422 
L 454.506294 361.247386 
L 457.850949 354.316956 
L 458.687113 306.820253 
L 459.523277 333.523758 
L 460.359441 338.866353 
L 462.867932 332.377148 
L 463.704096 362.872563 
L 464.54026 357.597665 
L 465.376424 367.249298 
L 466.212587 350.407746 
L 468.721079 349.350053 
L 469.557243 339.403555 
L 470.393407 355.645532 
L 471.22957 351.287617 
L 472.065734 335.994355 
L 474.574226 351.261044 
L 475.41039 364.201186 
L 476.246553 355.995177 
L 477.082717 346.416791 
L 477.918881 330.888605 
L 480.427373 331.64761 
L 481.263536 362.316114 
L 482.0997 351.008299 
L 482.935864 329.909715 
L 483.772028 332.133195 
L 487.116683 354.357139 
L 487.952847 316.431029 
L 488.789011 331.910872 
L 489.625175 362.847208 
L 492.133666 351.359107 
L 492.96983 357.345446 
L 493.805994 334.389334 
L 494.642158 363.289612 
L 495.478322 366.508996 
L 497.986813 369.182164 
L 498.822977 344.474609 
L 500.495305 352.608767 
L 501.331469 365.882741 
L 503.83996 362.232131 
L 504.676124 356.259377 
L 505.512288 341.75354 
L 506.348452 355.265377 
L 507.184615 349.32698 
L 509.693107 342.72233 
L 510.529271 360.988967 
L 511.365435 353.427858 
L 512.201598 349.327724 
L 513.037762 349.135779 
L 515.546254 328.00825 
L 516.382418 359.787242 
L 517.218581 358.744765 
L 518.054745 344.647074 
L 518.890909 339.108367 
L 521.399401 348.556405 
L 522.235564 344.81492 
L 523.071728 328.355494 
L 523.907892 350.693013 
L 527.252547 364.715764 
L 528.088711 362.203365 
L 528.924875 357.320772 
L 529.761039 367.023155 
L 530.597203 352.553108 
L 533.105694 352.050463 
L 533.941858 364.014665 
L 534.778022 366.864853 
L 535.614186 353.555956 
L 536.45035 356.95666 
L 538.958841 352.588199 
L 539.795005 349.944507 
L 540.631169 358.604425 
L 541.467333 361.747279 
L 542.303497 362.743206 
L 544.811988 359.269907 
L 545.648152 362.752632 
L 546.484316 360.240824 
L 547.32048 362.535356 
L 548.156643 347.98487 
L 550.665135 353.904386 
L 551.501299 365.27677 
L 552.337463 362.486015 
L 553.173626 360.194257 
L 554.00979 368.720502 
L 556.518282 349.984133 
L 557.354446 334.653859 
L 558.190609 365.353179 
L 559.026773 337.241179 
L 559.862937 343.600269 
L 562.371429 347.379299 
L 563.207592 364.812741 
L 564.043756 358.024493 
L 564.87992 344.465458 
L 565.716084 365.086054 
L 569.060739 363.371275 
L 569.896903 355.682415 
L 570.733067 360.343558 
L 571.569231 345.686831 
L 574.077722 353.093508 
L 574.913886 369.204187 
L 575.75005 365.861144 
L 576.586214 333.551996 
L 577.422378 354.436037 
L 579.930869 353.062987 
L 580.767033 350.103443 
L 581.603197 344.336328 
L 582.439361 355.840173 
L 583.275524 334.346001 
L 586.62018 347.370293 
L 587.456344 364.667139 
L 588.292507 348.700349 
L 589.128671 364.868678 
L 591.637163 362.922407 
L 592.473327 360.472951 
L 593.309491 355.952265 
L 594.145654 352.544072 
L 594.981818 322.879507 
L 597.49031 353.331603 
L 599.162637 368.11271 
L 599.998801 353.64146 
L 600.834965 311.133068 
L 603.343457 346.950814 
L 604.17962 365.814925 
L 605.015784 363.227896 
L 605.851948 354.789475 
L 606.688112 360.938084 
L 609.196603 366.462205 
L 610.032767 365.003778 
L 610.868931 368.728252 
L 611.705095 323.617583 
L 612.541259 355.418306 
L 615.04975 354.86868 
L 615.885914 367.493263 
L 616.722078 360.582206 
L 617.558242 360.424628 
L 618.394406 357.75942 
L 620.902897 368.754701 
L 621.739061 357.756458 
L 622.575225 367.807336 
L 623.411389 368.909579 
L 624.247552 355.023203 
L 626.756044 335.746613 
L 627.592208 367.042216 
L 628.428372 365.486794 
L 629.264535 368.288151 
L 630.100699 354.885248 
L 632.609191 350.817173 
L 633.445355 356.665088 
L 634.281518 368.280033 
L 635.117682 312.735403 
L 635.953846 333.746982 
L 638.462338 362.866657 
L 639.298501 361.572252 
L 640.134665 352.204664 
L 640.970829 350.289021 
L 641.806993 354.730337 
L 644.315485 355.291144 
L 645.151648 348.631244 
L 645.987812 351.599869 
L 646.823976 347.718335 
L 647.66014 353.462736 
L 651.004795 349.297515 
L 651.840959 350.848597 
L 652.677123 338.695717 
L 653.513287 364.944798 
L 656.021778 360.833178 
L 656.857942 366.795929 
L 657.694106 368.929703 
L 658.53027 359.054987 
L 659.366434 360.273022 
L 661.874925 350.902866 
L 662.711089 368.925632 
L 663.547253 361.424029 
L 664.383417 338.933376 
L 665.21958 362.893657 
L 667.728072 358.45169 
L 668.564236 360.765618 
L 669.4004 357.482957 
L 670.236563 356.866414 
L 671.072727 328.97959 
L 673.581219 366.876802 
L 675.253546 339.6371 
L 676.08971 339.479636 
L 676.925874 327.128776 
L 679.434366 360.391374 
L 680.270529 341.400744 
L 681.106693 359.543089 
L 681.942857 358.163294 
L 685.287512 347.998603 
L 686.123676 366.276744 
L 686.95984 367.676955 
L 687.796004 357.567138 
L 688.632168 338.016332 
L 691.140659 334.278869 
L 691.976823 334.92146 
L 692.812987 362.007058 
L 693.649151 354.251792 
L 694.485315 360.228574 
L 696.993806 340.942543 
L 697.82997 363.551903 
L 698.666134 347.252012 
L 699.502298 359.680307 
L 700.338462 356.486674 
L 702.846953 366.193111 
L 704.519281 349.035813 
L 705.355445 363.737019 
L 706.191608 335.079616 
L 708.7001 347.17515 
L 709.536264 369.090286 
L 710.372428 337.906102 
L 711.208591 158.094366 
L 712.044755 358.435019 
L 714.553247 368.731924 
L 715.389411 360.519969 
L 716.225574 350.335225 
L 717.897902 347.122282 
L 720.406394 358.165454 
L 721.242557 339.82899 
L 722.078721 328.776964 
L 722.914885 363.270021 
L 723.751049 347.71845 
L 726.25954 368.889373 
L 727.095704 346.425264 
L 727.931868 342.199923 
L 728.768032 352.99473 
L 729.604196 343.105612 
L 732.112687 363.235721 
L 732.948851 367.551198 
L 733.785015 325.401319 
L 734.621179 338.773543 
L 735.457343 360.170893 
L 737.965834 333.222559 
L 738.801998 360.50086 
L 739.638162 340.046251 
L 740.474326 351.834215 
L 741.31049 339.772852 
L 744.655145 365.696899 
L 745.491309 346.100487 
L 746.327473 364.614144 
L 747.163636 368.266921 
L 747.163636 368.266921 
" clip-path="url(#p3de57fe7ac)" style="fill: none; stroke: #000000; stroke-width: 1.5; stroke-linecap: square"/>
   </g>
   <g id="line2d_18">
    <path d="M 138.436364 304.679137 
L 140.944855 301.714104 
L 141.781019 301.867342 
L 142.617183 297.000005 
L 143.453347 298.36948 
L 144.28951 293.286578 
L 146.798002 302.309121 
L 147.634166 298.310793 
L 148.47033 299.622067 
L 150.142657 310.794007 
L 153.487313 297.429953 
L 154.323477 299.949651 
L 155.15964 312.918619 
L 155.995804 300.123352 
L 158.504296 321.564319 
L 159.34046 296.339203 
L 160.176623 299.562803 
L 161.012787 313.869813 
L 161.848951 293.72094 
L 164.357443 295.948865 
L 165.193606 287.666401 
L 166.02977 297.697716 
L 166.865934 292.831261 
L 167.702098 285.070558 
L 170.210589 287.418905 
L 171.046753 285.506343 
L 171.882917 288.085347 
L 172.719081 292.440096 
L 173.555245 292.69935 
L 176.063736 291.547393 
L 176.8999 309.366933 
L 177.736064 294.190964 
L 178.572228 311.50417 
L 179.408392 304.92799 
L 182.753047 310.140846 
L 184.425375 325.704971 
L 185.261538 278.523918 
L 187.77003 314.764491 
L 188.606194 322.206795 
L 189.442358 302.271305 
L 190.278521 315.419538 
L 191.114685 304.198329 
L 193.623177 308.78281 
L 194.459341 296.556044 
L 195.295504 303.356323 
L 196.131668 287.18529 
L 196.967832 305.416284 
L 199.476324 306.854974 
L 200.312488 297.159898 
L 201.148651 294.60504 
L 201.984815 294.211302 
L 202.820979 296.049637 
L 205.329471 305.750747 
L 206.165634 299.262318 
L 207.001798 301.371674 
L 207.837962 299.18931 
L 208.674126 305.961474 
L 211.182617 306.605499 
L 212.018781 305.947606 
L 212.854945 307.806289 
L 213.691109 307.27275 
L 214.527273 306.42109 
L 217.035764 310.808353 
L 217.871928 305.694548 
L 218.708092 312.322502 
L 219.544256 299.110053 
L 220.38042 303.931528 
L 222.888911 308.756727 
L 223.725075 302.597041 
L 224.561239 305.316104 
L 225.397403 306.813377 
L 228.742058 307.185909 
L 229.578222 302.825918 
L 230.414386 302.770979 
L 231.250549 305.346425 
L 232.086713 305.666834 
L 234.595205 302.832214 
L 235.431369 314.790173 
L 236.267532 312.471277 
L 237.103696 299.314037 
L 237.93986 301.958207 
L 240.448352 319.559506 
L 241.284515 288.862097 
L 242.120679 292.950782 
L 242.956843 295.762983 
L 243.793007 285.606028 
L 246.301499 261.583735 
L 247.137662 278.530154 
L 247.973826 264.62799 
L 248.80999 270.610971 
L 249.646154 273.6992 
L 252.154645 278.929893 
L 252.990809 282.742996 
L 253.826973 276.269525 
L 254.663137 266.246984 
L 255.499301 273.498813 
L 258.007792 283.433771 
L 258.843956 277.226708 
L 259.68012 275.682764 
L 260.516284 280.300711 
L 261.352448 281.781754 
L 264.697103 288.467344 
L 265.533267 285.476876 
L 266.369431 277.404259 
L 267.205594 283.116384 
L 269.714086 262.769231 
L 270.55025 273.577758 
L 271.386414 277.669381 
L 272.222577 282.77882 
L 273.058741 278.658425 
L 275.567233 274.095715 
L 276.403397 302.837732 
L 277.23956 270.987524 
L 278.075724 283.081176 
L 278.911888 309.260398 
L 283.092707 311.001431 
L 283.928871 289.21696 
L 284.765035 289.039571 
L 287.273526 294.844325 
L 288.10969 296.325185 
L 288.945854 287.85876 
L 289.782018 287.788197 
L 290.618182 293.858326 
L 293.962837 299.456542 
L 294.799001 302.345702 
L 295.635165 299.294334 
L 296.471329 296.686243 
L 298.97982 303.287754 
L 299.815984 303.439258 
L 300.652148 300.534065 
L 301.488312 307.088324 
L 302.324476 304.729796 
L 304.832967 305.359026 
L 305.669131 296.547427 
L 306.505295 299.997394 
L 307.341459 300.446088 
L 308.177622 302.688483 
L 310.686114 306.484673 
L 311.522278 303.331768 
L 313.194605 281.095102 
L 314.030769 283.324781 
L 316.539261 289.311671 
L 317.375425 285.794409 
L 318.211588 292.588867 
L 319.047752 290.183987 
L 319.883916 286.933836 
L 322.392408 294.962921 
L 323.228571 296.642394 
L 324.064735 299.026832 
L 324.900899 298.830827 
L 325.737063 300.781518 
L 328.245554 300.059393 
L 329.081718 300.833367 
L 329.917882 298.03862 
L 330.754046 293.027426 
L 331.59021 294.813544 
L 334.098701 297.113929 
L 334.934865 298.251044 
L 335.771029 304.078888 
L 336.607193 301.942493 
L 337.443357 307.351238 
L 339.951848 301.193409 
L 340.788012 298.230864 
L 341.624176 308.388079 
L 342.46034 297.522961 
L 343.296503 304.718158 
L 346.641159 305.389095 
L 347.477323 293.211928 
L 348.313487 286.798292 
L 349.14965 293.317213 
L 351.658142 301.344186 
L 353.33047 291.585432 
L 354.166633 287.887899 
L 355.002797 294.189396 
L 357.511289 297.523104 
L 358.347453 294.771143 
L 359.183616 300.120824 
L 360.01978 303.319845 
L 360.855944 290.289294 
L 363.364436 296.900959 
L 364.200599 317.174059 
L 365.036763 300.740723 
L 365.872927 296.890454 
L 366.709091 308.969617 
L 369.217582 280.759833 
L 370.053746 297.795169 
L 370.88991 291.228515 
L 371.726074 295.393724 
L 372.562238 292.061885 
L 375.070729 280.30018 
L 375.906893 290.331743 
L 376.743057 289.038186 
L 377.579221 302.319594 
L 378.415385 286.306738 
L 380.923876 290.061392 
L 381.76004 282.837183 
L 382.596204 288.474067 
L 383.432368 290.088451 
L 384.268531 286.132146 
L 386.777023 288.881064 
L 387.613187 286.764793 
L 388.449351 291.104256 
L 389.285514 294.473475 
L 390.121678 295.183109 
L 392.63017 294.925972 
L 393.466334 298.01109 
L 394.302498 303.047547 
L 395.138661 296.314303 
L 395.974825 297.199866 
L 398.483317 302.320531 
L 399.319481 305.759809 
L 400.155644 304.480564 
L 400.991808 297.58159 
L 401.827972 301.359793 
L 404.336464 311.288469 
L 405.172627 298.689037 
L 406.008791 292.062268 
L 406.844955 296.979701 
L 407.681119 299.545618 
L 410.18961 308.438473 
L 411.025774 305.096945 
L 411.861938 308.561299 
L 413.534266 314.14818 
L 416.042757 317.062828 
L 416.878921 311.930375 
L 417.715085 309.834902 
L 418.551249 307.137943 
L 419.387413 308.833268 
L 421.895904 307.051104 
L 422.732068 303.400598 
L 423.568232 304.667363 
L 424.404396 303.863493 
L 425.240559 308.20488 
L 427.749051 310.665443 
L 428.585215 290.609463 
L 429.421379 288.236901 
L 430.257542 292.154206 
L 431.093706 291.481518 
L 433.602198 295.453333 
L 434.438362 293.08903 
L 435.274525 293.249724 
L 436.110689 294.198786 
L 436.946853 296.162078 
L 440.291508 295.383559 
L 441.127672 296.046814 
L 441.963836 293.224188 
L 442.8 292.614937 
L 446.144655 306.600781 
L 446.980819 298.59307 
L 447.816983 293.502053 
L 448.653147 300.583957 
L 451.161638 300.47045 
L 451.997802 296.321371 
L 452.833966 302.205661 
L 453.67013 304.436905 
L 454.506294 309.244939 
L 457.850949 311.780913 
L 458.687113 308.756136 
L 459.523277 299.574246 
L 460.359441 294.104351 
L 462.867932 297.679614 
L 463.704096 298.521668 
L 464.54026 295.990399 
L 465.376424 301.933067 
L 468.721079 307.408412 
L 469.557243 306.236831 
L 470.393407 302.122906 
L 471.22957 302.806137 
L 472.065734 306.222179 
L 474.574226 305.331748 
L 475.41039 307.954471 
L 476.246553 307.649466 
L 477.082717 310.641981 
L 477.918881 312.083996 
L 480.427373 317.835121 
L 481.263536 311.053814 
L 482.0997 309.71501 
L 482.935864 311.393927 
L 483.772028 314.138561 
L 487.116683 310.10407 
L 487.952847 305.351214 
L 488.789011 302.147314 
L 489.625175 300.710324 
L 492.133666 303.203636 
L 492.96983 303.575288 
L 493.805994 305.879543 
L 494.642158 301.769561 
L 495.478322 303.198339 
L 497.986813 311.218355 
L 499.659141 299.446825 
L 500.495305 298.560789 
L 501.331469 302.595778 
L 503.83996 298.354376 
L 504.676124 293.550655 
L 505.512288 291.438766 
L 506.348452 292.423124 
L 507.184615 303.621795 
L 509.693107 305.306019 
L 510.529271 304.420862 
L 511.365435 306.850058 
L 512.201598 307.183701 
L 513.037762 307.686277 
L 515.546254 312.541379 
L 516.382418 308.497866 
L 518.054745 311.03798 
L 518.890909 312.632425 
L 521.399401 316.564021 
L 522.235564 312.090733 
L 523.071728 312.706075 
L 523.907892 306.278691 
L 527.252547 311.817305 
L 528.088711 310.609931 
L 528.924875 311.960451 
L 529.761039 311.27293 
L 530.597203 312.836044 
L 533.941858 313.245299 
L 534.778022 312.806516 
L 535.614186 311.391745 
L 536.45035 309.64488 
L 538.958841 313.546643 
L 539.795005 312.057533 
L 540.631169 311.268896 
L 541.467333 314.761472 
L 542.303497 314.047034 
L 544.811988 317.365827 
L 545.648152 320.770664 
L 546.484316 321.855285 
L 547.32048 314.384623 
L 548.156643 321.74728 
L 550.665135 312.314674 
L 551.501299 315.63616 
L 552.337463 317.066279 
L 553.173626 313.32742 
L 554.00979 315.830692 
L 556.518282 318.202697 
L 557.354446 309.913423 
L 558.190609 310.976532 
L 559.026773 306.648509 
L 559.862937 305.309178 
L 562.371429 311.95992 
L 563.207592 308.312563 
L 564.043756 310.304219 
L 564.87992 313.413354 
L 565.716084 305.396478 
L 569.060739 314.040049 
L 569.896903 312.700064 
L 570.733067 309.289121 
L 571.569231 309.736763 
L 574.077722 313.190498 
L 574.913886 311.124282 
L 575.75005 310.495954 
L 576.586214 309.470411 
L 577.422378 307.131622 
L 579.930869 310.578582 
L 580.767033 309.485304 
L 582.439361 310.242448 
L 583.275524 312.093409 
L 587.456344 311.782406 
L 588.292507 310.623581 
L 589.128671 311.47606 
L 591.637163 315.143013 
L 592.473327 312.259124 
L 593.309491 309.777262 
L 594.145654 312.608435 
L 594.981818 310.486368 
L 597.49031 310.218615 
L 599.162637 311.415073 
L 599.998801 311.465542 
L 600.834965 309.628818 
L 603.343457 305.721999 
L 604.17962 309.771074 
L 605.015784 308.735082 
L 605.851948 310.723569 
L 606.688112 309.529717 
L 609.196603 313.862202 
L 610.032767 311.672178 
L 610.868931 308.166997 
L 611.705095 307.076006 
L 612.541259 306.20126 
L 615.04975 310.861929 
L 615.885914 307.56158 
L 616.722078 305.949397 
L 617.558242 307.987717 
L 618.394406 306.055925 
L 620.902897 309.875093 
L 621.739061 307.278611 
L 622.575225 307.443875 
L 623.411389 303.750955 
L 624.247552 307.822578 
L 626.756044 308.733163 
L 627.592208 306.260346 
L 628.428372 308.450853 
L 629.264535 311.011727 
L 630.100699 310.723807 
L 632.609191 312.773972 
L 633.445355 304.915538 
L 634.281518 305.083631 
L 635.117682 304.90496 
L 635.953846 296.804163 
L 639.298501 301.023053 
L 640.134665 303.511693 
L 640.970829 305.219047 
L 641.806993 303.920271 
L 645.151648 313.464497 
L 645.987812 313.131538 
L 646.823976 313.244074 
L 647.66014 313.174598 
L 651.004795 312.740721 
L 651.840959 305.761774 
L 652.677123 307.117603 
L 653.513287 308.091395 
L 656.021778 310.059139 
L 656.857942 310.986163 
L 657.694106 313.44288 
L 658.53027 313.976446 
L 659.366434 312.615901 
L 661.874925 312.80687 
L 662.711089 309.369639 
L 663.547253 310.680689 
L 664.383417 311.188562 
L 665.21958 315.981452 
L 667.728072 314.535554 
L 668.564236 313.865318 
L 669.4004 317.926583 
L 670.236563 304.553901 
L 671.072727 300.727288 
L 673.581219 304.054159 
L 674.417383 302.249184 
L 675.253546 307.226258 
L 676.08971 305.747815 
L 676.925874 303.397972 
L 679.434366 291.208872 
L 680.270529 299.159326 
L 681.106693 300.55126 
L 681.942857 303.779152 
L 682.779021 305.717877 
L 685.287512 310.543482 
L 686.123676 307.913039 
L 686.95984 313.250082 
L 687.796004 313.914534 
L 688.632168 313.217137 
L 691.140659 313.065733 
L 691.976823 307.528612 
L 692.812987 310.33303 
L 693.649151 314.244976 
L 694.485315 314.041808 
L 696.993806 312.416582 
L 697.82997 310.401702 
L 698.666134 314.607673 
L 699.502298 313.27294 
L 700.338462 313.61424 
L 702.846953 317.941518 
L 703.683117 316.239218 
L 704.519281 316.230972 
L 705.355445 312.522222 
L 706.191608 310.536176 
L 708.7001 312.397424 
L 710.372428 308.425502 
L 711.208591 308.284809 
L 712.044755 302.024163 
L 714.553247 307.675017 
L 715.389411 308.674193 
L 716.225574 307.350038 
L 717.897902 311.526492 
L 720.406394 311.83404 
L 721.242557 309.738695 
L 722.078721 310.44061 
L 722.914885 305.246889 
L 723.751049 307.367735 
L 726.25954 306.862135 
L 727.095704 308.533495 
L 727.931868 309.090526 
L 728.768032 306.472721 
L 729.604196 305.89823 
L 732.112687 309.745442 
L 732.948851 308.916462 
L 733.785015 310.285182 
L 734.621179 306.646159 
L 735.457343 307.805477 
L 737.965834 311.630581 
L 738.801998 306.671026 
L 739.638162 306.998363 
L 740.474326 310.59829 
L 741.31049 313.382947 
L 744.655145 315.444944 
L 745.491309 317.725076 
L 746.327473 317.451643 
L 747.163636 317.375914 
L 747.163636 317.375914 
" clip-path="url(#p3de57fe7ac)" style="fill: none; stroke: #1f77b4; stroke-width: 1.5; stroke-linecap: square"/>
   </g>
   <g id="patch_3">
    <path d="M 108 384.48 
L 108 51.84 
" style="fill: none; stroke: #000000; stroke-width: 0.8; stroke-linejoin: miter; stroke-linecap: square"/>
   </g>
   <g id="patch_4">
    <path d="M 777.6 384.48 
L 777.6 51.84 
" style="fill: none; stroke: #000000; stroke-width: 0.8; stroke-linejoin: miter; stroke-linecap: square"/>
   </g>
   <g id="patch_5">
    <path d="M 108 384.48 
L 777.6 384.48 
" style="fill: none; stroke: #000000; stroke-width: 0.8; stroke-linejoin: miter; stroke-linecap: square"/>
   </g>
   <g id="patch_6">
    <path d="M 108 51.84 
L 777.6 51.84 
" style="fill: none; stroke: #000000; stroke-width: 0.8; stroke-linejoin: miter; stroke-linecap: square"/>
   </g>
   <g id="text_19">
    <!-- Volatility Prediction with LSTM MDN vbig-fng -->
    <g transform="translate(309.818438 45.84) scale(0.12 -0.12)">
     <defs>
      <path id="DejaVuSans-20" transform="scale(0.015625)"/>
      <path id="DejaVuSans-50" d="M 1259 4147 
L 1259 2394 
L 2053 2394 
Q 2494 2394 2734 2622 
Q 2975 2850 2975 3272 
Q 2975 3691 2734 3919 
Q 2494 4147 2053 4147 
L 1259 4147 
z
M 628 4666 
L 2053 4666 
Q 2838 4666 3239 4311 
Q 3641 3956 3641 3272 
Q 3641 2581 3239 2228 
Q 2838 1875 2053 1875 
L 1259 1875 
L 1259 0 
L 628 0 
L 628 4666 
z
" transform="scale(0.015625)"/>
      <path id="DejaVuSans-72" d="M 2631 2963 
Q 2534 3019 2420 3045 
Q 2306 3072 2169 3072 
Q 1681 3072 1420 2755 
Q 1159 2438 1159 1844 
L 1159 0 
L 581 0 
L 581 3500 
L 1159 3500 
L 1159 2956 
Q 1341 3275 1631 3429 
Q 1922 3584 2338 3584 
Q 2397 3584 2469 3576 
Q 2541 3569 2628 3553 
L 2631 2963 
z
" transform="scale(0.015625)"/>
      <path id="DejaVuSans-64" d="M 2906 2969 
L 2906 4863 
L 3481 4863 
L 3481 0 
L 2906 0 
L 2906 525 
Q 2725 213 2448 61 
Q 2172 -91 1784 -91 
Q 1150 -91 751 415 
Q 353 922 353 1747 
Q 353 2572 751 3078 
Q 1150 3584 1784 3584 
Q 2172 3584 2448 3432 
Q 2725 3281 2906 2969 
z
M 947 1747 
Q 947 1113 1208 752 
Q 1469 391 1925 391 
Q 2381 391 2643 752 
Q 2906 1113 2906 1747 
Q 2906 2381 2643 2742 
Q 2381 3103 1925 3103 
Q 1469 3103 1208 2742 
Q 947 2381 947 1747 
z
" transform="scale(0.015625)"/>
      <path id="DejaVuSans-63" d="M 3122 3366 
L 3122 2828 
Q 2878 2963 2633 3030 
Q 2388 3097 2138 3097 
Q 1578 3097 1268 2742 
Q 959 2388 959 1747 
Q 959 1106 1268 751 
Q 1578 397 2138 397 
Q 2388 397 2633 464 
Q 2878 531 3122 666 
L 3122 134 
Q 2881 22 2623 -34 
Q 2366 -91 2075 -91 
Q 1284 -91 818 406 
Q 353 903 353 1747 
Q 353 2603 823 3093 
Q 1294 3584 2113 3584 
Q 2378 3584 2631 3529 
Q 2884 3475 3122 3366 
z
" transform="scale(0.015625)"/>
      <path id="DejaVuSans-6e" d="M 3513 2113 
L 3513 0 
L 2938 0 
L 2938 2094 
Q 2938 2591 2744 2837 
Q 2550 3084 2163 3084 
Q 1697 3084 1428 2787 
Q 1159 2491 1159 1978 
L 1159 0 
L 581 0 
L 581 3500 
L 1159 3500 
L 1159 2956 
Q 1366 3272 1645 3428 
Q 1925 3584 2291 3584 
Q 2894 3584 3203 3211 
Q 3513 2838 3513 2113 
z
" transform="scale(0.015625)"/>
      <path id="DejaVuSans-77" d="M 269 3500 
L 844 3500 
L 1563 769 
L 2278 3500 
L 2956 3500 
L 3675 769 
L 4391 3500 
L 4966 3500 
L 4050 0 
L 3372 0 
L 2619 2869 
L 1863 0 
L 1184 0 
L 269 3500 
z
" transform="scale(0.015625)"/>
      <path id="DejaVuSans-68" d="M 3513 2113 
L 3513 0 
L 2938 0 
L 2938 2094 
Q 2938 2591 2744 2837 
Q 2550 3084 2163 3084 
Q 1697 3084 1428 2787 
Q 1159 2491 1159 1978 
L 1159 0 
L 581 0 
L 581 4863 
L 1159 4863 
L 1159 2956 
Q 1366 3272 1645 3428 
Q 1925 3584 2291 3584 
Q 2894 3584 3203 3211 
Q 3513 2838 3513 2113 
z
" transform="scale(0.015625)"/>
      <path id="DejaVuSans-4c" d="M 628 4666 
L 1259 4666 
L 1259 531 
L 3531 531 
L 3531 0 
L 628 0 
L 628 4666 
z
" transform="scale(0.015625)"/>
      <path id="DejaVuSans-53" d="M 3425 4513 
L 3425 3897 
Q 3066 4069 2747 4153 
Q 2428 4238 2131 4238 
Q 1616 4238 1336 4038 
Q 1056 3838 1056 3469 
Q 1056 3159 1242 3001 
Q 1428 2844 1947 2747 
L 2328 2669 
Q 3034 2534 3370 2195 
Q 3706 1856 3706 1288 
Q 3706 609 3251 259 
Q 2797 -91 1919 -91 
Q 1588 -91 1214 -16 
Q 841 59 441 206 
L 441 856 
Q 825 641 1194 531 
Q 1563 422 1919 422 
Q 2459 422 2753 634 
Q 3047 847 3047 1241 
Q 3047 1584 2836 1778 
Q 2625 1972 2144 2069 
L 1759 2144 
Q 1053 2284 737 2584 
Q 422 2884 422 3419 
Q 422 4038 858 4394 
Q 1294 4750 2059 4750 
Q 2388 4750 2728 4690 
Q 3069 4631 3425 4513 
z
" transform="scale(0.015625)"/>
      <path id="DejaVuSans-54" d="M -19 4666 
L 3928 4666 
L 3928 4134 
L 2272 4134 
L 2272 0 
L 1638 0 
L 1638 4134 
L -19 4134 
L -19 4666 
z
" transform="scale(0.015625)"/>
      <path id="DejaVuSans-4d" d="M 628 4666 
L 1569 4666 
L 2759 1491 
L 3956 4666 
L 4897 4666 
L 4897 0 
L 4281 0 
L 4281 4097 
L 3078 897 
L 2444 897 
L 1241 4097 
L 1241 0 
L 628 0 
L 628 4666 
z
" transform="scale(0.015625)"/>
      <path id="DejaVuSans-4e" d="M 628 4666 
L 1478 4666 
L 3547 763 
L 3547 4666 
L 4159 4666 
L 4159 0 
L 3309 0 
L 1241 3903 
L 1241 0 
L 628 0 
L 628 4666 
z
" transform="scale(0.015625)"/>
      <path id="DejaVuSans-76" d="M 191 3500 
L 800 3500 
L 1894 563 
L 2988 3500 
L 3597 3500 
L 2284 0 
L 1503 0 
L 191 3500 
z
" transform="scale(0.015625)"/>
      <path id="DejaVuSans-62" d="M 3116 1747 
Q 3116 2381 2855 2742 
Q 2594 3103 2138 3103 
Q 1681 3103 1420 2742 
Q 1159 2381 1159 1747 
Q 1159 1113 1420 752 
Q 1681 391 2138 391 
Q 2594 391 2855 752 
Q 3116 1113 3116 1747 
z
M 1159 2969 
Q 1341 3281 1617 3432 
Q 1894 3584 2278 3584 
Q 2916 3584 3314 3078 
Q 3713 2572 3713 1747 
Q 3713 922 3314 415 
Q 2916 -91 2278 -91 
Q 1894 -91 1617 61 
Q 1341 213 1159 525 
L 1159 0 
L 581 0 
L 581 4863 
L 1159 4863 
L 1159 2969 
z
" transform="scale(0.015625)"/>
      <path id="DejaVuSans-67" d="M 2906 1791 
Q 2906 2416 2648 2759 
Q 2391 3103 1925 3103 
Q 1463 3103 1205 2759 
Q 947 2416 947 1791 
Q 947 1169 1205 825 
Q 1463 481 1925 481 
Q 2391 481 2648 825 
Q 2906 1169 2906 1791 
z
M 3481 434 
Q 3481 -459 3084 -895 
Q 2688 -1331 1869 -1331 
Q 1566 -1331 1297 -1286 
Q 1028 -1241 775 -1147 
L 775 -588 
Q 1028 -725 1275 -790 
Q 1522 -856 1778 -856 
Q 2344 -856 2625 -561 
Q 2906 -266 2906 331 
L 2906 616 
Q 2728 306 2450 153 
Q 2172 0 1784 0 
Q 1141 0 747 490 
Q 353 981 353 1791 
Q 353 2603 747 3093 
Q 1141 3584 1784 3584 
Q 2172 3584 2450 3431 
Q 2728 3278 2906 2969 
L 2906 3500 
L 3481 3500 
L 3481 434 
z
" transform="scale(0.015625)"/>
      <path id="DejaVuSans-66" d="M 2375 4863 
L 2375 4384 
L 1825 4384 
Q 1516 4384 1395 4259 
Q 1275 4134 1275 3809 
L 1275 3500 
L 2222 3500 
L 2222 3053 
L 1275 3053 
L 1275 0 
L 697 0 
L 697 3053 
L 147 3053 
L 147 3500 
L 697 3500 
L 697 3744 
Q 697 4328 969 4595 
Q 1241 4863 1831 4863 
L 2375 4863 
z
" transform="scale(0.015625)"/>
     </defs>
     <use xlink:href="#DejaVuSans-56"/>
     <use xlink:href="#DejaVuSans-6f" transform="translate(60.658203 0)"/>
     <use xlink:href="#DejaVuSans-6c" transform="translate(121.839844 0)"/>
     <use xlink:href="#DejaVuSans-61" transform="translate(149.623047 0)"/>
     <use xlink:href="#DejaVuSans-74" transform="translate(210.902344 0)"/>
     <use xlink:href="#DejaVuSans-69" transform="translate(250.111328 0)"/>
     <use xlink:href="#DejaVuSans-6c" transform="translate(277.894531 0)"/>
     <use xlink:href="#DejaVuSans-69" transform="translate(305.677734 0)"/>
     <use xlink:href="#DejaVuSans-74" transform="translate(333.460938 0)"/>
     <use xlink:href="#DejaVuSans-79" transform="translate(372.669922 0)"/>
     <use xlink:href="#DejaVuSans-20" transform="translate(431.849609 0)"/>
     <use xlink:href="#DejaVuSans-50" transform="translate(463.636719 0)"/>
     <use xlink:href="#DejaVuSans-72" transform="translate(522.189453 0)"/>
     <use xlink:href="#DejaVuSans-65" transform="translate(561.052734 0)"/>
     <use xlink:href="#DejaVuSans-64" transform="translate(622.576172 0)"/>
     <use xlink:href="#DejaVuSans-69" transform="translate(686.052734 0)"/>
     <use xlink:href="#DejaVuSans-63" transform="translate(713.835938 0)"/>
     <use xlink:href="#DejaVuSans-74" transform="translate(768.816406 0)"/>
     <use xlink:href="#DejaVuSans-69" transform="translate(808.025391 0)"/>
     <use xlink:href="#DejaVuSans-6f" transform="translate(835.808594 0)"/>
     <use xlink:href="#DejaVuSans-6e" transform="translate(896.990234 0)"/>
     <use xlink:href="#DejaVuSans-20" transform="translate(960.369141 0)"/>
     <use xlink:href="#DejaVuSans-77" transform="translate(992.15625 0)"/>
     <use xlink:href="#DejaVuSans-69" transform="translate(1073.943359 0)"/>
     <use xlink:href="#DejaVuSans-74" transform="translate(1101.726562 0)"/>
     <use xlink:href="#DejaVuSans-68" transform="translate(1140.935547 0)"/>
     <use xlink:href="#DejaVuSans-20" transform="translate(1204.314453 0)"/>
     <use xlink:href="#DejaVuSans-4c" transform="translate(1236.101562 0)"/>
     <use xlink:href="#DejaVuSans-53" transform="translate(1291.814453 0)"/>
     <use xlink:href="#DejaVuSans-54" transform="translate(1355.291016 0)"/>
     <use xlink:href="#DejaVuSans-4d" transform="translate(1416.375 0)"/>
     <use xlink:href="#DejaVuSans-20" transform="translate(1502.654297 0)"/>
     <use xlink:href="#DejaVuSans-4d" transform="translate(1534.441406 0)"/>
     <use xlink:href="#DejaVuSans-44" transform="translate(1620.720703 0)"/>
     <use xlink:href="#DejaVuSans-4e" transform="translate(1697.722656 0)"/>
     <use xlink:href="#DejaVuSans-20" transform="translate(1772.527344 0)"/>
     <use xlink:href="#DejaVuSans-76" transform="translate(1804.314453 0)"/>
     <use xlink:href="#DejaVuSans-62" transform="translate(1863.494141 0)"/>
     <use xlink:href="#DejaVuSans-69" transform="translate(1926.970703 0)"/>
     <use xlink:href="#DejaVuSans-67" transform="translate(1954.753906 0)"/>
     <use xlink:href="#DejaVuSans-2d" transform="translate(2018.230469 0)"/>
     <use xlink:href="#DejaVuSans-66" transform="translate(2054.314453 0)"/>
     <use xlink:href="#DejaVuSans-6e" transform="translate(2089.519531 0)"/>
     <use xlink:href="#DejaVuSans-67" transform="translate(2152.898438 0)"/>
    </g>
   </g>
   <g id="legend_1">
    <g id="patch_7">
     <path d="M 541.35625 89.19625 
L 770.6 89.19625 
Q 772.6 89.19625 772.6 87.19625 
L 772.6 58.84 
Q 772.6 56.84 770.6 56.84 
L 541.35625 56.84 
Q 539.35625 56.84 539.35625 58.84 
L 539.35625 87.19625 
Q 539.35625 89.19625 541.35625 89.19625 
z
" style="fill: #ffffff; opacity: 0.8; stroke: #cccccc; stroke-linejoin: miter"/>
    </g>
    <g id="line2d_19">
     <path d="M 543.35625 64.938437 
L 553.35625 64.938437 
L 563.35625 64.938437 
" style="fill: none; stroke: #000000; stroke-width: 1.5; stroke-linecap: square"/>
    </g>
    <g id="text_20">
     <!-- Absolute Returns -->
     <g transform="translate(571.35625 68.438437) scale(0.1 -0.1)">
      <defs>
       <path id="DejaVuSans-41" d="M 2188 4044 
L 1331 1722 
L 3047 1722 
L 2188 4044 
z
M 1831 4666 
L 2547 4666 
L 4325 0 
L 3669 0 
L 3244 1197 
L 1141 1197 
L 716 0 
L 50 0 
L 1831 4666 
z
" transform="scale(0.015625)"/>
       <path id="DejaVuSans-73" d="M 2834 3397 
L 2834 2853 
Q 2591 2978 2328 3040 
Q 2066 3103 1784 3103 
Q 1356 3103 1142 2972 
Q 928 2841 928 2578 
Q 928 2378 1081 2264 
Q 1234 2150 1697 2047 
L 1894 2003 
Q 2506 1872 2764 1633 
Q 3022 1394 3022 966 
Q 3022 478 2636 193 
Q 2250 -91 1575 -91 
Q 1294 -91 989 -36 
Q 684 19 347 128 
L 347 722 
Q 666 556 975 473 
Q 1284 391 1588 391 
Q 1994 391 2212 530 
Q 2431 669 2431 922 
Q 2431 1156 2273 1281 
Q 2116 1406 1581 1522 
L 1381 1569 
Q 847 1681 609 1914 
Q 372 2147 372 2553 
Q 372 3047 722 3315 
Q 1072 3584 1716 3584 
Q 2034 3584 2315 3537 
Q 2597 3491 2834 3397 
z
" transform="scale(0.015625)"/>
       <path id="DejaVuSans-75" d="M 544 1381 
L 544 3500 
L 1119 3500 
L 1119 1403 
Q 1119 906 1312 657 
Q 1506 409 1894 409 
Q 2359 409 2629 706 
Q 2900 1003 2900 1516 
L 2900 3500 
L 3475 3500 
L 3475 0 
L 2900 0 
L 2900 538 
Q 2691 219 2414 64 
Q 2138 -91 1772 -91 
Q 1169 -91 856 284 
Q 544 659 544 1381 
z
M 1991 3584 
L 1991 3584 
z
" transform="scale(0.015625)"/>
       <path id="DejaVuSans-52" d="M 2841 2188 
Q 3044 2119 3236 1894 
Q 3428 1669 3622 1275 
L 4263 0 
L 3584 0 
L 2988 1197 
Q 2756 1666 2539 1819 
Q 2322 1972 1947 1972 
L 1259 1972 
L 1259 0 
L 628 0 
L 628 4666 
L 2053 4666 
Q 2853 4666 3247 4331 
Q 3641 3997 3641 3322 
Q 3641 2881 3436 2590 
Q 3231 2300 2841 2188 
z
M 1259 4147 
L 1259 2491 
L 2053 2491 
Q 2509 2491 2742 2702 
Q 2975 2913 2975 3322 
Q 2975 3731 2742 3939 
Q 2509 4147 2053 4147 
L 1259 4147 
z
" transform="scale(0.015625)"/>
      </defs>
      <use xlink:href="#DejaVuSans-41"/>
      <use xlink:href="#DejaVuSans-62" transform="translate(68.408203 0)"/>
      <use xlink:href="#DejaVuSans-73" transform="translate(131.884766 0)"/>
      <use xlink:href="#DejaVuSans-6f" transform="translate(183.984375 0)"/>
      <use xlink:href="#DejaVuSans-6c" transform="translate(245.166016 0)"/>
      <use xlink:href="#DejaVuSans-75" transform="translate(272.949219 0)"/>
      <use xlink:href="#DejaVuSans-74" transform="translate(336.328125 0)"/>
      <use xlink:href="#DejaVuSans-65" transform="translate(375.537109 0)"/>
      <use xlink:href="#DejaVuSans-20" transform="translate(437.060547 0)"/>
      <use xlink:href="#DejaVuSans-52" transform="translate(468.847656 0)"/>
      <use xlink:href="#DejaVuSans-65" transform="translate(533.830078 0)"/>
      <use xlink:href="#DejaVuSans-74" transform="translate(595.353516 0)"/>
      <use xlink:href="#DejaVuSans-75" transform="translate(634.5625 0)"/>
      <use xlink:href="#DejaVuSans-72" transform="translate(697.941406 0)"/>
      <use xlink:href="#DejaVuSans-6e" transform="translate(737.304688 0)"/>
      <use xlink:href="#DejaVuSans-73" transform="translate(800.683594 0)"/>
     </g>
    </g>
    <g id="line2d_20">
     <path d="M 543.35625 79.616562 
L 553.35625 79.616562 
L 563.35625 79.616562 
" style="fill: none; stroke: #1f77b4; stroke-width: 1.5; stroke-linecap: square"/>
    </g>
    <g id="text_21">
     <!-- LSTM MDN vbig-fng Volatility Prediction -->
     <g transform="translate(571.35625 83.116562) scale(0.1 -0.1)">
      <use xlink:href="#DejaVuSans-4c"/>
      <use xlink:href="#DejaVuSans-53" transform="translate(55.712891 0)"/>
      <use xlink:href="#DejaVuSans-54" transform="translate(119.189453 0)"/>
      <use xlink:href="#DejaVuSans-4d" transform="translate(180.273438 0)"/>
      <use xlink:href="#DejaVuSans-20" transform="translate(266.552734 0)"/>
      <use xlink:href="#DejaVuSans-4d" transform="translate(298.339844 0)"/>
      <use xlink:href="#DejaVuSans-44" transform="translate(384.619141 0)"/>
      <use xlink:href="#DejaVuSans-4e" transform="translate(461.621094 0)"/>
      <use xlink:href="#DejaVuSans-20" transform="translate(536.425781 0)"/>
      <use xlink:href="#DejaVuSans-76" transform="translate(568.212891 0)"/>
      <use xlink:href="#DejaVuSans-62" transform="translate(627.392578 0)"/>
      <use xlink:href="#DejaVuSans-69" transform="translate(690.869141 0)"/>
      <use xlink:href="#DejaVuSans-67" transform="translate(718.652344 0)"/>
      <use xlink:href="#DejaVuSans-2d" transform="translate(782.128906 0)"/>
      <use xlink:href="#DejaVuSans-66" transform="translate(818.212891 0)"/>
      <use xlink:href="#DejaVuSans-6e" transform="translate(853.417969 0)"/>
      <use xlink:href="#DejaVuSans-67" transform="translate(916.796875 0)"/>
      <use xlink:href="#DejaVuSans-20" transform="translate(980.273438 0)"/>
      <use xlink:href="#DejaVuSans-56" transform="translate(1012.060547 0)"/>
      <use xlink:href="#DejaVuSans-6f" transform="translate(1072.71875 0)"/>
      <use xlink:href="#DejaVuSans-6c" transform="translate(1133.900391 0)"/>
      <use xlink:href="#DejaVuSans-61" transform="translate(1161.683594 0)"/>
      <use xlink:href="#DejaVuSans-74" transform="translate(1222.962891 0)"/>
      <use xlink:href="#DejaVuSans-69" transform="translate(1262.171875 0)"/>
      <use xlink:href="#DejaVuSans-6c" transform="translate(1289.955078 0)"/>
      <use xlink:href="#DejaVuSans-69" transform="translate(1317.738281 0)"/>
      <use xlink:href="#DejaVuSans-74" transform="translate(1345.521484 0)"/>
      <use xlink:href="#DejaVuSans-79" transform="translate(1384.730469 0)"/>
      <use xlink:href="#DejaVuSans-20" transform="translate(1443.910156 0)"/>
      <use xlink:href="#DejaVuSans-50" transform="translate(1475.697266 0)"/>
      <use xlink:href="#DejaVuSans-72" transform="translate(1534.25 0)"/>
      <use xlink:href="#DejaVuSans-65" transform="translate(1573.113281 0)"/>
      <use xlink:href="#DejaVuSans-64" transform="translate(1634.636719 0)"/>
      <use xlink:href="#DejaVuSans-69" transform="translate(1698.113281 0)"/>
      <use xlink:href="#DejaVuSans-63" transform="translate(1725.896484 0)"/>
      <use xlink:href="#DejaVuSans-74" transform="translate(1780.876953 0)"/>
      <use xlink:href="#DejaVuSans-69" transform="translate(1820.085938 0)"/>
      <use xlink:href="#DejaVuSans-6f" transform="translate(1847.869141 0)"/>
      <use xlink:href="#DejaVuSans-6e" transform="translate(1909.050781 0)"/>
     </g>
    </g>
   </g>
  </g>
 </g>
 <defs>
  <clipPath id="p3de57fe7ac">
   <rect x="108" y="51.84" width="669.6" height="332.64"/>
  </clipPath>
 </defs>
</svg>
