<?xml version="1.0" encoding="utf-8" standalone="no"?>
<!DOCTYPE svg PUBLIC "-//W3C//DTD SVG 1.1//EN"
  "http://www.w3.org/Graphics/SVG/1.1/DTD/svg11.dtd">
<svg xmlns:xlink="http://www.w3.org/1999/xlink" width="864pt" height="432pt" viewBox="0 0 864 432" xmlns="http://www.w3.org/2000/svg" version="1.1">
 <metadata>
  <rdf:RDF xmlns:dc="http://purl.org/dc/elements/1.1/" xmlns:cc="http://creativecommons.org/ns#" xmlns:rdf="http://www.w3.org/1999/02/22-rdf-syntax-ns#">
   <cc:Work>
    <dc:type rdf:resource="http://purl.org/dc/dcmitype/StillImage"/>
    <dc:date>2025-02-16T20:28:26.764728</dc:date>
    <dc:format>image/svg+xml</dc:format>
    <dc:creator>
     <cc:Agent>
      <dc:title>Matplotlib v3.10.0, https://matplotlib.org/</dc:title>
     </cc:Agent>
    </dc:creator>
   </cc:Work>
  </rdf:RDF>
 </metadata>
 <defs>
  <style type="text/css">*{stroke-linejoin: round; stroke-linecap: butt}</style>
 </defs>
 <g id="figure_1">
  <g id="patch_1">
   <path d="M 0 432 
L 864 432 
L 864 0 
L 0 0 
z
" style="fill: #ffffff"/>
  </g>
  <g id="axes_1">
   <g id="patch_2">
    <path d="M 108 384.48 
L 777.6 384.48 
L 777.6 51.84 
L 108 51.84 
z
" style="fill: #ffffff"/>
   </g>
   <g id="matplotlib.axis_1">
    <g id="xtick_1">
     <g id="line2d_1">
      <defs>
       <path id="mbad760c1b3" d="M 0 0 
L 0 3.5 
" style="stroke: #000000; stroke-width: 0.8"/>
      </defs>
      <g>
       <use xlink:href="#mbad760c1b3" x="139.272527" y="384.48" style="stroke: #000000; stroke-width: 0.8"/>
      </g>
     </g>
     <g id="text_1">
      <!-- 2022-01 -->
      <g transform="translate(118.381121 399.078438) scale(0.1 -0.1)">
       <defs>
        <path id="DejaVuSans-32" d="M 1228 531 
L 3431 531 
L 3431 0 
L 469 0 
L 469 531 
Q 828 903 1448 1529 
Q 2069 2156 2228 2338 
Q 2531 2678 2651 2914 
Q 2772 3150 2772 3378 
Q 2772 3750 2511 3984 
Q 2250 4219 1831 4219 
Q 1534 4219 1204 4116 
Q 875 4013 500 3803 
L 500 4441 
Q 881 4594 1212 4672 
Q 1544 4750 1819 4750 
Q 2544 4750 2975 4387 
Q 3406 4025 3406 3419 
Q 3406 3131 3298 2873 
Q 3191 2616 2906 2266 
Q 2828 2175 2409 1742 
Q 1991 1309 1228 531 
z
" transform="scale(0.015625)"/>
        <path id="DejaVuSans-30" d="M 2034 4250 
Q 1547 4250 1301 3770 
Q 1056 3291 1056 2328 
Q 1056 1369 1301 889 
Q 1547 409 2034 409 
Q 2525 409 2770 889 
Q 3016 1369 3016 2328 
Q 3016 3291 2770 3770 
Q 2525 4250 2034 4250 
z
M 2034 4750 
Q 2819 4750 3233 4129 
Q 3647 3509 3647 2328 
Q 3647 1150 3233 529 
Q 2819 -91 2034 -91 
Q 1250 -91 836 529 
Q 422 1150 422 2328 
Q 422 3509 836 4129 
Q 1250 4750 2034 4750 
z
" transform="scale(0.015625)"/>
        <path id="DejaVuSans-2d" d="M 313 2009 
L 1997 2009 
L 1997 1497 
L 313 1497 
L 313 2009 
z
" transform="scale(0.015625)"/>
        <path id="DejaVuSans-31" d="M 794 531 
L 1825 531 
L 1825 4091 
L 703 3866 
L 703 4441 
L 1819 4666 
L 2450 4666 
L 2450 531 
L 3481 531 
L 3481 0 
L 794 0 
L 794 531 
z
" transform="scale(0.015625)"/>
       </defs>
       <use xlink:href="#DejaVuSans-32"/>
       <use xlink:href="#DejaVuSans-30" transform="translate(63.623047 0)"/>
       <use xlink:href="#DejaVuSans-32" transform="translate(127.246094 0)"/>
       <use xlink:href="#DejaVuSans-32" transform="translate(190.869141 0)"/>
       <use xlink:href="#DejaVuSans-2d" transform="translate(254.492188 0)"/>
       <use xlink:href="#DejaVuSans-30" transform="translate(290.576172 0)"/>
       <use xlink:href="#DejaVuSans-31" transform="translate(354.199219 0)"/>
      </g>
     </g>
    </g>
    <g id="xtick_2">
     <g id="line2d_2">
      <g>
       <use xlink:href="#mbad760c1b3" x="214.527273" y="384.48" style="stroke: #000000; stroke-width: 0.8"/>
      </g>
     </g>
     <g id="text_2">
      <!-- 2022-04 -->
      <g transform="translate(193.635866 399.078438) scale(0.1 -0.1)">
       <defs>
        <path id="DejaVuSans-34" d="M 2419 4116 
L 825 1625 
L 2419 1625 
L 2419 4116 
z
M 2253 4666 
L 3047 4666 
L 3047 1625 
L 3713 1625 
L 3713 1100 
L 3047 1100 
L 3047 0 
L 2419 0 
L 2419 1100 
L 313 1100 
L 313 1709 
L 2253 4666 
z
" transform="scale(0.015625)"/>
       </defs>
       <use xlink:href="#DejaVuSans-32"/>
       <use xlink:href="#DejaVuSans-30" transform="translate(63.623047 0)"/>
       <use xlink:href="#DejaVuSans-32" transform="translate(127.246094 0)"/>
       <use xlink:href="#DejaVuSans-32" transform="translate(190.869141 0)"/>
       <use xlink:href="#DejaVuSans-2d" transform="translate(254.492188 0)"/>
       <use xlink:href="#DejaVuSans-30" transform="translate(290.576172 0)"/>
       <use xlink:href="#DejaVuSans-34" transform="translate(354.199219 0)"/>
      </g>
     </g>
    </g>
    <g id="xtick_3">
     <g id="line2d_3">
      <g>
       <use xlink:href="#mbad760c1b3" x="290.618182" y="384.48" style="stroke: #000000; stroke-width: 0.8"/>
      </g>
     </g>
     <g id="text_3">
      <!-- 2022-07 -->
      <g transform="translate(269.726776 399.078438) scale(0.1 -0.1)">
       <defs>
        <path id="DejaVuSans-37" d="M 525 4666 
L 3525 4666 
L 3525 4397 
L 1831 0 
L 1172 0 
L 2766 4134 
L 525 4134 
L 525 4666 
z
" transform="scale(0.015625)"/>
       </defs>
       <use xlink:href="#DejaVuSans-32"/>
       <use xlink:href="#DejaVuSans-30" transform="translate(63.623047 0)"/>
       <use xlink:href="#DejaVuSans-32" transform="translate(127.246094 0)"/>
       <use xlink:href="#DejaVuSans-32" transform="translate(190.869141 0)"/>
       <use xlink:href="#DejaVuSans-2d" transform="translate(254.492188 0)"/>
       <use xlink:href="#DejaVuSans-30" transform="translate(290.576172 0)"/>
       <use xlink:href="#DejaVuSans-37" transform="translate(354.199219 0)"/>
      </g>
     </g>
    </g>
    <g id="xtick_4">
     <g id="line2d_4">
      <g>
       <use xlink:href="#mbad760c1b3" x="367.545255" y="384.48" style="stroke: #000000; stroke-width: 0.8"/>
      </g>
     </g>
     <g id="text_4">
      <!-- 2022-10 -->
      <g transform="translate(346.653848 399.078438) scale(0.1 -0.1)">
       <use xlink:href="#DejaVuSans-32"/>
       <use xlink:href="#DejaVuSans-30" transform="translate(63.623047 0)"/>
       <use xlink:href="#DejaVuSans-32" transform="translate(127.246094 0)"/>
       <use xlink:href="#DejaVuSans-32" transform="translate(190.869141 0)"/>
       <use xlink:href="#DejaVuSans-2d" transform="translate(254.492188 0)"/>
       <use xlink:href="#DejaVuSans-31" transform="translate(290.576172 0)"/>
       <use xlink:href="#DejaVuSans-30" transform="translate(354.199219 0)"/>
      </g>
     </g>
    </g>
    <g id="xtick_5">
     <g id="line2d_5">
      <g>
       <use xlink:href="#mbad760c1b3" x="444.472328" y="384.48" style="stroke: #000000; stroke-width: 0.8"/>
      </g>
     </g>
     <g id="text_5">
      <!-- 2023-01 -->
      <g transform="translate(423.580921 399.078438) scale(0.1 -0.1)">
       <defs>
        <path id="DejaVuSans-33" d="M 2597 2516 
Q 3050 2419 3304 2112 
Q 3559 1806 3559 1356 
Q 3559 666 3084 287 
Q 2609 -91 1734 -91 
Q 1441 -91 1130 -33 
Q 819 25 488 141 
L 488 750 
Q 750 597 1062 519 
Q 1375 441 1716 441 
Q 2309 441 2620 675 
Q 2931 909 2931 1356 
Q 2931 1769 2642 2001 
Q 2353 2234 1838 2234 
L 1294 2234 
L 1294 2753 
L 1863 2753 
Q 2328 2753 2575 2939 
Q 2822 3125 2822 3475 
Q 2822 3834 2567 4026 
Q 2313 4219 1838 4219 
Q 1578 4219 1281 4162 
Q 984 4106 628 3988 
L 628 4550 
Q 988 4650 1302 4700 
Q 1616 4750 1894 4750 
Q 2613 4750 3031 4423 
Q 3450 4097 3450 3541 
Q 3450 3153 3228 2886 
Q 3006 2619 2597 2516 
z
" transform="scale(0.015625)"/>
       </defs>
       <use xlink:href="#DejaVuSans-32"/>
       <use xlink:href="#DejaVuSans-30" transform="translate(63.623047 0)"/>
       <use xlink:href="#DejaVuSans-32" transform="translate(127.246094 0)"/>
       <use xlink:href="#DejaVuSans-33" transform="translate(190.869141 0)"/>
       <use xlink:href="#DejaVuSans-2d" transform="translate(254.492188 0)"/>
       <use xlink:href="#DejaVuSans-30" transform="translate(290.576172 0)"/>
       <use xlink:href="#DejaVuSans-31" transform="translate(354.199219 0)"/>
      </g>
     </g>
    </g>
    <g id="xtick_6">
     <g id="line2d_6">
      <g>
       <use xlink:href="#mbad760c1b3" x="519.727073" y="384.48" style="stroke: #000000; stroke-width: 0.8"/>
      </g>
     </g>
     <g id="text_6">
      <!-- 2023-04 -->
      <g transform="translate(498.835667 399.078438) scale(0.1 -0.1)">
       <use xlink:href="#DejaVuSans-32"/>
       <use xlink:href="#DejaVuSans-30" transform="translate(63.623047 0)"/>
       <use xlink:href="#DejaVuSans-32" transform="translate(127.246094 0)"/>
       <use xlink:href="#DejaVuSans-33" transform="translate(190.869141 0)"/>
       <use xlink:href="#DejaVuSans-2d" transform="translate(254.492188 0)"/>
       <use xlink:href="#DejaVuSans-30" transform="translate(290.576172 0)"/>
       <use xlink:href="#DejaVuSans-34" transform="translate(354.199219 0)"/>
      </g>
     </g>
    </g>
    <g id="xtick_7">
     <g id="line2d_7">
      <g>
       <use xlink:href="#mbad760c1b3" x="595.817982" y="384.48" style="stroke: #000000; stroke-width: 0.8"/>
      </g>
     </g>
     <g id="text_7">
      <!-- 2023-07 -->
      <g transform="translate(574.926576 399.078438) scale(0.1 -0.1)">
       <use xlink:href="#DejaVuSans-32"/>
       <use xlink:href="#DejaVuSans-30" transform="translate(63.623047 0)"/>
       <use xlink:href="#DejaVuSans-32" transform="translate(127.246094 0)"/>
       <use xlink:href="#DejaVuSans-33" transform="translate(190.869141 0)"/>
       <use xlink:href="#DejaVuSans-2d" transform="translate(254.492188 0)"/>
       <use xlink:href="#DejaVuSans-30" transform="translate(290.576172 0)"/>
       <use xlink:href="#DejaVuSans-37" transform="translate(354.199219 0)"/>
      </g>
     </g>
    </g>
    <g id="xtick_8">
     <g id="line2d_8">
      <g>
       <use xlink:href="#mbad760c1b3" x="672.745055" y="384.48" style="stroke: #000000; stroke-width: 0.8"/>
      </g>
     </g>
     <g id="text_8">
      <!-- 2023-10 -->
      <g transform="translate(651.853649 399.078438) scale(0.1 -0.1)">
       <use xlink:href="#DejaVuSans-32"/>
       <use xlink:href="#DejaVuSans-30" transform="translate(63.623047 0)"/>
       <use xlink:href="#DejaVuSans-32" transform="translate(127.246094 0)"/>
       <use xlink:href="#DejaVuSans-33" transform="translate(190.869141 0)"/>
       <use xlink:href="#DejaVuSans-2d" transform="translate(254.492188 0)"/>
       <use xlink:href="#DejaVuSans-31" transform="translate(290.576172 0)"/>
       <use xlink:href="#DejaVuSans-30" transform="translate(354.199219 0)"/>
      </g>
     </g>
    </g>
    <g id="xtick_9">
     <g id="line2d_9">
      <g>
       <use xlink:href="#mbad760c1b3" x="749.672128" y="384.48" style="stroke: #000000; stroke-width: 0.8"/>
      </g>
     </g>
     <g id="text_9">
      <!-- 2024-01 -->
      <g transform="translate(728.780722 399.078438) scale(0.1 -0.1)">
       <use xlink:href="#DejaVuSans-32"/>
       <use xlink:href="#DejaVuSans-30" transform="translate(63.623047 0)"/>
       <use xlink:href="#DejaVuSans-32" transform="translate(127.246094 0)"/>
       <use xlink:href="#DejaVuSans-34" transform="translate(190.869141 0)"/>
       <use xlink:href="#DejaVuSans-2d" transform="translate(254.492188 0)"/>
       <use xlink:href="#DejaVuSans-30" transform="translate(290.576172 0)"/>
       <use xlink:href="#DejaVuSans-31" transform="translate(354.199219 0)"/>
      </g>
     </g>
    </g>
    <g id="text_10">
     <!-- Date -->
     <g transform="translate(430.849219 412.756563) scale(0.1 -0.1)">
      <defs>
       <path id="DejaVuSans-44" d="M 1259 4147 
L 1259 519 
L 2022 519 
Q 2988 519 3436 956 
Q 3884 1394 3884 2338 
Q 3884 3275 3436 3711 
Q 2988 4147 2022 4147 
L 1259 4147 
z
M 628 4666 
L 1925 4666 
Q 3281 4666 3915 4102 
Q 4550 3538 4550 2338 
Q 4550 1131 3912 565 
Q 3275 0 1925 0 
L 628 0 
L 628 4666 
z
" transform="scale(0.015625)"/>
       <path id="DejaVuSans-61" d="M 2194 1759 
Q 1497 1759 1228 1600 
Q 959 1441 959 1056 
Q 959 750 1161 570 
Q 1363 391 1709 391 
Q 2188 391 2477 730 
Q 2766 1069 2766 1631 
L 2766 1759 
L 2194 1759 
z
M 3341 1997 
L 3341 0 
L 2766 0 
L 2766 531 
Q 2569 213 2275 61 
Q 1981 -91 1556 -91 
Q 1019 -91 701 211 
Q 384 513 384 1019 
Q 384 1609 779 1909 
Q 1175 2209 1959 2209 
L 2766 2209 
L 2766 2266 
Q 2766 2663 2505 2880 
Q 2244 3097 1772 3097 
Q 1472 3097 1187 3025 
Q 903 2953 641 2809 
L 641 3341 
Q 956 3463 1253 3523 
Q 1550 3584 1831 3584 
Q 2591 3584 2966 3190 
Q 3341 2797 3341 1997 
z
" transform="scale(0.015625)"/>
       <path id="DejaVuSans-74" d="M 1172 4494 
L 1172 3500 
L 2356 3500 
L 2356 3053 
L 1172 3053 
L 1172 1153 
Q 1172 725 1289 603 
Q 1406 481 1766 481 
L 2356 481 
L 2356 0 
L 1766 0 
Q 1100 0 847 248 
Q 594 497 594 1153 
L 594 3053 
L 172 3053 
L 172 3500 
L 594 3500 
L 594 4494 
L 1172 4494 
z
" transform="scale(0.015625)"/>
       <path id="DejaVuSans-65" d="M 3597 1894 
L 3597 1613 
L 953 1613 
Q 991 1019 1311 708 
Q 1631 397 2203 397 
Q 2534 397 2845 478 
Q 3156 559 3463 722 
L 3463 178 
Q 3153 47 2828 -22 
Q 2503 -91 2169 -91 
Q 1331 -91 842 396 
Q 353 884 353 1716 
Q 353 2575 817 3079 
Q 1281 3584 2069 3584 
Q 2775 3584 3186 3129 
Q 3597 2675 3597 1894 
z
M 3022 2063 
Q 3016 2534 2758 2815 
Q 2500 3097 2075 3097 
Q 1594 3097 1305 2825 
Q 1016 2553 972 2059 
L 3022 2063 
z
" transform="scale(0.015625)"/>
      </defs>
      <use xlink:href="#DejaVuSans-44"/>
      <use xlink:href="#DejaVuSans-61" transform="translate(77.001953 0)"/>
      <use xlink:href="#DejaVuSans-74" transform="translate(138.28125 0)"/>
      <use xlink:href="#DejaVuSans-65" transform="translate(177.490234 0)"/>
     </g>
    </g>
   </g>
   <g id="matplotlib.axis_2">
    <g id="ytick_1">
     <g id="line2d_10">
      <defs>
       <path id="m35ac89f684" d="M 0 0 
L -3.5 0 
" style="stroke: #000000; stroke-width: 0.8"/>
      </defs>
      <g>
       <use xlink:href="#m35ac89f684" x="108" y="369.453056" style="stroke: #000000; stroke-width: 0.8"/>
      </g>
     </g>
     <g id="text_11">
      <!-- 0.00 -->
      <g transform="translate(78.734375 373.252274) scale(0.1 -0.1)">
       <defs>
        <path id="DejaVuSans-2e" d="M 684 794 
L 1344 794 
L 1344 0 
L 684 0 
L 684 794 
z
" transform="scale(0.015625)"/>
       </defs>
       <use xlink:href="#DejaVuSans-30"/>
       <use xlink:href="#DejaVuSans-2e" transform="translate(63.623047 0)"/>
       <use xlink:href="#DejaVuSans-30" transform="translate(95.410156 0)"/>
       <use xlink:href="#DejaVuSans-30" transform="translate(159.033203 0)"/>
      </g>
     </g>
    </g>
    <g id="ytick_2">
     <g id="line2d_11">
      <g>
       <use xlink:href="#m35ac89f684" x="108" y="313.386508" style="stroke: #000000; stroke-width: 0.8"/>
      </g>
     </g>
     <g id="text_12">
      <!-- 0.01 -->
      <g transform="translate(78.734375 317.185727) scale(0.1 -0.1)">
       <use xlink:href="#DejaVuSans-30"/>
       <use xlink:href="#DejaVuSans-2e" transform="translate(63.623047 0)"/>
       <use xlink:href="#DejaVuSans-30" transform="translate(95.410156 0)"/>
       <use xlink:href="#DejaVuSans-31" transform="translate(159.033203 0)"/>
      </g>
     </g>
    </g>
    <g id="ytick_3">
     <g id="line2d_12">
      <g>
       <use xlink:href="#m35ac89f684" x="108" y="257.319961" style="stroke: #000000; stroke-width: 0.8"/>
      </g>
     </g>
     <g id="text_13">
      <!-- 0.02 -->
      <g transform="translate(78.734375 261.11918) scale(0.1 -0.1)">
       <use xlink:href="#DejaVuSans-30"/>
       <use xlink:href="#DejaVuSans-2e" transform="translate(63.623047 0)"/>
       <use xlink:href="#DejaVuSans-30" transform="translate(95.410156 0)"/>
       <use xlink:href="#DejaVuSans-32" transform="translate(159.033203 0)"/>
      </g>
     </g>
    </g>
    <g id="ytick_4">
     <g id="line2d_13">
      <g>
       <use xlink:href="#m35ac89f684" x="108" y="201.253414" style="stroke: #000000; stroke-width: 0.8"/>
      </g>
     </g>
     <g id="text_14">
      <!-- 0.03 -->
      <g transform="translate(78.734375 205.052632) scale(0.1 -0.1)">
       <use xlink:href="#DejaVuSans-30"/>
       <use xlink:href="#DejaVuSans-2e" transform="translate(63.623047 0)"/>
       <use xlink:href="#DejaVuSans-30" transform="translate(95.410156 0)"/>
       <use xlink:href="#DejaVuSans-33" transform="translate(159.033203 0)"/>
      </g>
     </g>
    </g>
    <g id="ytick_5">
     <g id="line2d_14">
      <g>
       <use xlink:href="#m35ac89f684" x="108" y="145.186866" style="stroke: #000000; stroke-width: 0.8"/>
      </g>
     </g>
     <g id="text_15">
      <!-- 0.04 -->
      <g transform="translate(78.734375 148.986085) scale(0.1 -0.1)">
       <use xlink:href="#DejaVuSans-30"/>
       <use xlink:href="#DejaVuSans-2e" transform="translate(63.623047 0)"/>
       <use xlink:href="#DejaVuSans-30" transform="translate(95.410156 0)"/>
       <use xlink:href="#DejaVuSans-34" transform="translate(159.033203 0)"/>
      </g>
     </g>
    </g>
    <g id="ytick_6">
     <g id="line2d_15">
      <g>
       <use xlink:href="#m35ac89f684" x="108" y="89.120319" style="stroke: #000000; stroke-width: 0.8"/>
      </g>
     </g>
     <g id="text_16">
      <!-- 0.05 -->
      <g transform="translate(78.734375 92.919538) scale(0.1 -0.1)">
       <defs>
        <path id="DejaVuSans-35" d="M 691 4666 
L 3169 4666 
L 3169 4134 
L 1269 4134 
L 1269 2991 
Q 1406 3038 1543 3061 
Q 1681 3084 1819 3084 
Q 2600 3084 3056 2656 
Q 3513 2228 3513 1497 
Q 3513 744 3044 326 
Q 2575 -91 1722 -91 
Q 1428 -91 1123 -41 
Q 819 9 494 109 
L 494 744 
Q 775 591 1075 516 
Q 1375 441 1709 441 
Q 2250 441 2565 725 
Q 2881 1009 2881 1497 
Q 2881 1984 2565 2268 
Q 2250 2553 1709 2553 
Q 1456 2553 1204 2497 
Q 953 2441 691 2322 
L 691 4666 
z
" transform="scale(0.015625)"/>
       </defs>
       <use xlink:href="#DejaVuSans-30"/>
       <use xlink:href="#DejaVuSans-2e" transform="translate(63.623047 0)"/>
       <use xlink:href="#DejaVuSans-30" transform="translate(95.410156 0)"/>
       <use xlink:href="#DejaVuSans-35" transform="translate(159.033203 0)"/>
      </g>
     </g>
    </g>
    <g id="text_17">
     <!-- Volatility -->
     <g transform="translate(72.654687 239.752187) rotate(-90) scale(0.1 -0.1)">
      <defs>
       <path id="DejaVuSans-56" d="M 1831 0 
L 50 4666 
L 709 4666 
L 2188 738 
L 3669 4666 
L 4325 4666 
L 2547 0 
L 1831 0 
z
" transform="scale(0.015625)"/>
       <path id="DejaVuSans-6f" d="M 1959 3097 
Q 1497 3097 1228 2736 
Q 959 2375 959 1747 
Q 959 1119 1226 758 
Q 1494 397 1959 397 
Q 2419 397 2687 759 
Q 2956 1122 2956 1747 
Q 2956 2369 2687 2733 
Q 2419 3097 1959 3097 
z
M 1959 3584 
Q 2709 3584 3137 3096 
Q 3566 2609 3566 1747 
Q 3566 888 3137 398 
Q 2709 -91 1959 -91 
Q 1206 -91 779 398 
Q 353 888 353 1747 
Q 353 2609 779 3096 
Q 1206 3584 1959 3584 
z
" transform="scale(0.015625)"/>
       <path id="DejaVuSans-6c" d="M 603 4863 
L 1178 4863 
L 1178 0 
L 603 0 
L 603 4863 
z
" transform="scale(0.015625)"/>
       <path id="DejaVuSans-69" d="M 603 3500 
L 1178 3500 
L 1178 0 
L 603 0 
L 603 3500 
z
M 603 4863 
L 1178 4863 
L 1178 4134 
L 603 4134 
L 603 4863 
z
" transform="scale(0.015625)"/>
       <path id="DejaVuSans-79" d="M 2059 -325 
Q 1816 -950 1584 -1140 
Q 1353 -1331 966 -1331 
L 506 -1331 
L 506 -850 
L 844 -850 
Q 1081 -850 1212 -737 
Q 1344 -625 1503 -206 
L 1606 56 
L 191 3500 
L 800 3500 
L 1894 763 
L 2988 3500 
L 3597 3500 
L 2059 -325 
z
" transform="scale(0.015625)"/>
      </defs>
      <use xlink:href="#DejaVuSans-56"/>
      <use xlink:href="#DejaVuSans-6f" transform="translate(60.658203 0)"/>
      <use xlink:href="#DejaVuSans-6c" transform="translate(121.839844 0)"/>
      <use xlink:href="#DejaVuSans-61" transform="translate(149.623047 0)"/>
      <use xlink:href="#DejaVuSans-74" transform="translate(210.902344 0)"/>
      <use xlink:href="#DejaVuSans-69" transform="translate(250.111328 0)"/>
      <use xlink:href="#DejaVuSans-6c" transform="translate(277.894531 0)"/>
      <use xlink:href="#DejaVuSans-69" transform="translate(305.677734 0)"/>
      <use xlink:href="#DejaVuSans-74" transform="translate(333.460938 0)"/>
      <use xlink:href="#DejaVuSans-79" transform="translate(372.669922 0)"/>
     </g>
    </g>
   </g>
   <g id="line2d_16">
    <path d="M 138.436364 354.709609 
L 140.944855 333.829337 
L 141.781019 365.921777 
L 142.617183 259.656526 
L 143.453347 364.046898 
L 144.28951 346.698801 
L 146.798002 361.367799 
L 147.634166 318.329954 
L 148.47033 353.677064 
L 149.306494 289.019838 
L 150.142657 364.857608 
L 153.487313 265.398602 
L 154.323477 314.862228 
L 155.15964 307.226222 
L 155.995804 262.388326 
L 158.504296 353.934295 
L 159.34046 300.790635 
L 160.176623 361.055675 
L 161.012787 339.184785 
L 161.848951 234.579591 
L 164.357443 264.553529 
L 165.193606 331.106045 
L 166.02977 316.871533 
L 166.865934 231.005213 
L 167.702098 340.614156 
L 170.210589 348.660283 
L 171.046753 322.547173 
L 171.882917 288.645148 
L 172.719081 266.953176 
L 173.555245 262.07611 
L 176.063736 347.878719 
L 176.8999 281.744135 
L 177.736064 364.51453 
L 178.572228 249.467819 
L 179.408392 329.130144 
L 182.753047 312.294761 
L 183.589211 265.260421 
L 184.425375 286.216063 
L 185.261538 245.399771 
L 187.77003 355.741419 
L 188.606194 282.020357 
L 189.442358 265.892369 
L 190.278521 339.914285 
L 191.114685 324.792235 
L 193.623177 201.46314 
L 194.459341 328.74856 
L 195.295504 227.192035 
L 196.131668 345.338506 
L 196.967832 296.307155 
L 199.476324 327.6909 
L 200.312488 250.689408 
L 201.148651 245.338938 
L 201.984815 300.647114 
L 202.820979 304.444928 
L 205.329471 367.015587 
L 206.165634 306.430319 
L 207.001798 300.218461 
L 207.837962 289.602913 
L 208.674126 341.120498 
L 211.182617 329.536266 
L 212.018781 301.152514 
L 212.854945 334.054945 
L 213.691109 281.00064 
L 214.527273 350.365652 
L 217.035764 324.272577 
L 217.871928 298.634532 
L 218.708092 314.707264 
L 219.544256 345.656312 
L 220.38042 354.569899 
L 222.888911 274.02031 
L 223.725075 350.259779 
L 224.561239 307.148587 
L 225.397403 300.948254 
L 228.742058 368.304315 
L 229.578222 280.138693 
L 230.414386 365.984364 
L 232.086713 211.72618 
L 234.595205 337.597402 
L 235.431369 209.383042 
L 236.267532 357.702308 
L 237.103696 232.394759 
L 237.93986 162.23584 
L 240.448352 337.723889 
L 241.284515 342.398336 
L 242.120679 204.476053 
L 242.956843 165.927695 
L 243.793007 337.548999 
L 246.301499 186.891931 
L 247.137662 355.689463 
L 247.973826 276.381309 
L 248.80999 362.182394 
L 249.646154 237.196196 
L 252.154645 347.28315 
L 252.990809 257.494201 
L 253.826973 138.269275 
L 254.663137 336.649266 
L 255.499301 368.633704 
L 258.007792 266.374723 
L 258.843956 323.736696 
L 259.68012 316.714699 
L 260.516284 259.068317 
L 261.352448 232.42014 
L 264.697103 334.164056 
L 265.533267 327.342034 
L 266.369431 267.057516 
L 267.205594 277.041877 
L 269.714086 351.890183 
L 270.55025 316.311324 
L 271.386414 308.606086 
L 272.222577 234.408675 
L 273.058741 203.818881 
L 275.567233 147.766345 
L 276.403397 348.255318 
L 277.23956 288.229134 
L 278.075724 184.140698 
L 278.911888 357.127072 
L 282.256543 233.870345 
L 283.092707 362.150905 
L 283.928871 316.262298 
L 284.765035 200.661704 
L 287.273526 352.759217 
L 288.10969 255.36501 
L 288.945854 365.461228 
L 289.782018 320.126451 
L 290.618182 310.591521 
L 293.962837 360.578443 
L 294.799001 349.455243 
L 295.635165 286.173415 
L 296.471329 364.796126 
L 298.97982 304.447088 
L 299.815984 317.384765 
L 300.652148 344.408919 
L 301.488312 352.615562 
L 302.324476 262.818833 
L 304.832967 322.364227 
L 305.669131 216.652054 
L 306.505295 336.494314 
L 307.341459 314.434507 
L 308.177622 316.883406 
L 310.686114 362.08422 
L 311.522278 304.357786 
L 312.358442 224.688898 
L 313.194605 301.83504 
L 314.030769 290.355637 
L 316.539261 353.60269 
L 317.375425 331.974236 
L 318.211588 282.452009 
L 319.047752 365.093057 
L 319.883916 360.330641 
L 322.392408 362.510351 
L 323.228571 345.581278 
L 324.064735 251.336798 
L 324.900899 365.496331 
L 325.737063 273.164081 
L 328.245554 347.241306 
L 329.081718 358.946563 
L 329.917882 328.725614 
L 330.754046 356.742821 
L 331.59021 296.656721 
L 334.098701 248.167773 
L 334.934865 356.892145 
L 335.771029 353.126997 
L 336.607193 290.997777 
L 337.443357 177.320986 
L 339.951848 331.95197 
L 340.788012 307.27852 
L 341.624176 325.453514 
L 342.46034 352.67933 
L 343.296503 308.931709 
L 346.641159 346.446301 
L 347.477323 267.552919 
L 348.313487 332.511013 
L 349.14965 284.478479 
L 351.658142 310.422472 
L 352.494306 121.64349 
L 353.33047 350.49529 
L 354.166633 305.636603 
L 355.002797 329.040038 
L 357.511289 331.138893 
L 358.347453 305.895318 
L 359.183616 272.655988 
L 360.01978 322.002351 
L 360.855944 271.993552 
L 363.364436 311.175373 
L 364.200599 357.552309 
L 365.036763 260.229005 
L 365.872927 249.735412 
L 366.709091 284.336387 
L 369.217582 226.177384 
L 370.053746 200.550666 
L 370.88991 358.127686 
L 371.726074 311.716172 
L 372.562238 210.20615 
L 375.070729 327.287268 
L 375.906893 332.782635 
L 376.743057 350.972338 
L 377.579221 225.730587 
L 378.415385 235.189886 
L 380.923876 222.920168 
L 381.76004 305.745983 
L 382.596204 331.919509 
L 383.432368 324.696861 
L 384.268531 237.989517 
L 386.777023 303.227567 
L 387.613187 278.985393 
L 388.449351 327.878938 
L 389.285514 335.245742 
L 390.121678 233.054022 
L 392.63017 327.5022 
L 393.466334 346.411565 
L 394.302498 227.493369 
L 395.138661 309.78474 
L 395.974825 293.612912 
L 398.483317 315.808237 
L 399.319481 338.155062 
L 400.155644 251.731392 
L 400.991808 66.96 
L 401.827972 317.881315 
L 404.336464 319.128101 
L 405.172627 320.813188 
L 406.008791 322.994645 
L 406.844955 352.105593 
L 407.681119 342.83665 
L 410.18961 347.636086 
L 411.025774 293.827008 
L 411.861938 336.389165 
L 413.534266 367.86589 
L 416.042757 282.18714 
L 416.878921 360.520988 
L 417.715085 198.569859 
L 418.551249 364.586478 
L 419.387413 362.751026 
L 421.895904 268.217848 
L 422.732068 288.134837 
L 423.568232 359.001633 
L 424.404396 327.438818 
L 425.240559 328.094375 
L 427.749051 289.960148 
L 428.585215 328.730732 
L 429.421379 335.414449 
L 430.257542 227.955186 
L 431.093706 306.657167 
L 433.602198 318.722192 
L 434.438362 363.64008 
L 435.274525 286.707004 
L 436.110689 287.836255 
L 436.946853 336.648751 
L 440.291508 346.702079 
L 441.127672 301.649186 
L 441.963836 272.398392 
L 442.8 355.189905 
L 446.144655 346.978385 
L 446.980819 327.343153 
L 447.816983 303.777397 
L 448.653147 242.833259 
L 451.161638 365.147538 
L 452.833966 297.869703 
L 453.67013 350.333907 
L 454.506294 347.088667 
L 457.850949 358.057243 
L 458.687113 281.51281 
L 459.523277 326.463081 
L 460.359441 264.374977 
L 462.867932 303.231017 
L 463.704096 365.462494 
L 464.54026 368.434066 
L 465.376424 308.073121 
L 466.212587 355.482663 
L 468.721079 296.266115 
L 469.557243 287.952985 
L 470.393407 311.154694 
L 471.22957 287.6386 
L 472.065734 311.095651 
L 474.574226 334.919468 
L 475.41039 297.74193 
L 476.246553 306.980546 
L 477.082717 319.72753 
L 477.918881 357.158417 
L 480.427373 305.629416 
L 481.263536 367.880724 
L 482.0997 353.926356 
L 482.935864 291.606377 
L 483.772028 353.915691 
L 487.116683 255.947542 
L 487.952847 360.623636 
L 488.789011 339.652013 
L 489.625175 310.059058 
L 492.133666 352.25013 
L 492.96983 352.405333 
L 493.805994 342.89735 
L 494.642158 327.102671 
L 495.478322 279.641453 
L 497.986813 365.601713 
L 498.822977 282.854969 
L 499.659141 361.52639 
L 500.495305 264.99072 
L 501.331469 287.685747 
L 503.83996 360.981919 
L 504.676124 277.826969 
L 505.512288 330.176409 
L 506.348452 271.843569 
L 507.184615 307.32789 
L 509.693107 319.672265 
L 511.365435 276.381259 
L 512.201598 352.744755 
L 513.037762 337.921464 
L 515.546254 360.226802 
L 516.382418 360.622121 
L 517.218581 290.192417 
L 518.054745 337.500762 
L 518.890909 289.091009 
L 521.399401 348.75317 
L 522.235564 336.85682 
L 523.071728 355.461772 
L 523.907892 349.421801 
L 527.252547 363.869833 
L 528.088711 369.221095 
L 528.924875 346.22225 
L 529.761039 295.582604 
L 530.597203 357.838742 
L 533.105694 350.947133 
L 533.941858 364.66017 
L 534.778022 368.980605 
L 535.614186 335.979421 
L 536.45035 364.391446 
L 538.958841 364.680604 
L 539.795005 280.098845 
L 540.631169 347.875367 
L 541.467333 260.811833 
L 542.303497 323.37008 
L 544.811988 367.287823 
L 545.648152 304.113678 
L 546.484316 330.078005 
L 547.32048 328.833368 
L 548.156643 266.816742 
L 550.665135 366.918723 
L 551.501299 343.718846 
L 552.337463 344.369226 
L 553.173626 359.932619 
L 554.00979 360.569019 
L 556.518282 352.892142 
L 557.354446 333.581052 
L 558.190609 303.178559 
L 559.026773 316.746427 
L 559.862937 361.340742 
L 562.371429 368.5839 
L 563.207592 306.179335 
L 564.043756 328.269226 
L 564.87992 320.566009 
L 565.716084 296.76458 
L 569.060739 369.36 
L 569.896903 335.099129 
L 570.733067 314.473049 
L 571.569231 288.550076 
L 574.077722 358.208368 
L 574.913886 356.271026 
L 575.75005 348.039565 
L 576.586214 334.862341 
L 577.422378 363.019958 
L 579.930869 317.43467 
L 580.767033 330.719072 
L 581.603197 364.860801 
L 582.439361 301.586852 
L 583.275524 348.829669 
L 586.62018 342.841994 
L 587.456344 339.967071 
L 588.292507 348.686391 
L 589.128671 326.347554 
L 591.637163 344.240238 
L 592.473327 305.589058 
L 593.309491 367.467509 
L 594.145654 344.42747 
L 594.981818 301.08347 
L 597.49031 362.893385 
L 599.162637 358.406523 
L 599.998801 324.857356 
L 600.834965 353.366432 
L 603.343457 355.985081 
L 604.17962 331.778644 
L 605.015784 328.054037 
L 605.851948 322.163925 
L 606.688112 363.706636 
L 609.196603 347.87884 
L 610.032767 329.690213 
L 610.868931 356.24867 
L 611.705095 331.440901 
L 612.541259 367.636297 
L 615.04975 346.880439 
L 615.885914 353.694228 
L 616.722078 368.581448 
L 617.558242 333.316016 
L 618.394406 314.343169 
L 620.902897 361.224507 
L 621.739061 354.490859 
L 622.575225 291.317521 
L 623.411389 355.149215 
L 624.247552 339.658407 
L 626.756044 319.085076 
L 627.592208 345.752649 
L 628.428372 329.84981 
L 629.264535 368.047587 
L 630.100699 363.452417 
L 632.609191 337.304483 
L 633.445355 304.314224 
L 634.281518 326.931709 
L 635.117682 326.041805 
L 635.953846 368.619249 
L 638.462338 331.015953 
L 639.298501 353.859112 
L 640.134665 307.867657 
L 640.970829 293.486516 
L 641.806993 331.913696 
L 644.315485 334.439054 
L 645.151648 288.694447 
L 645.987812 348.002855 
L 646.823976 360.492503 
L 647.66014 359.375101 
L 651.004795 345.88835 
L 651.840959 330.228815 
L 652.677123 351.419555 
L 653.513287 361.460172 
L 656.021778 331.883042 
L 656.857942 337.426844 
L 657.694106 362.496019 
L 658.53027 322.387458 
L 659.366434 300.860391 
L 661.874925 365.410453 
L 662.711089 357.38008 
L 664.383417 276.736258 
L 665.21958 356.567686 
L 667.728072 346.942477 
L 668.564236 286.227018 
L 669.4004 368.167493 
L 670.236563 336.50908 
L 671.072727 354.240733 
L 673.581219 369.008129 
L 674.417383 291.860396 
L 675.253546 324.167845 
L 676.08971 362.136983 
L 676.925874 303.599241 
L 679.434366 334.220399 
L 680.270529 340.329523 
L 681.106693 345.435109 
L 681.942857 334.321659 
L 682.779021 341.243169 
L 685.287512 310.366524 
L 686.123676 368.902187 
L 686.95984 293.816991 
L 687.796004 321.68978 
L 688.632168 298.443995 
L 691.140659 359.994564 
L 691.976823 328.863463 
L 692.812987 288.473646 
L 693.649151 302.716642 
L 694.485315 342.474688 
L 696.993806 302.518161 
L 697.82997 333.267204 
L 698.666134 310.856759 
L 699.502298 264.704297 
L 700.338462 317.031562 
L 702.846953 359.633156 
L 703.683117 353.552062 
L 704.519281 363.821673 
L 706.191608 282.57373 
L 708.7001 364.764874 
L 709.536264 263.513226 
L 710.372428 360.506287 
L 711.208591 362.782774 
L 712.044755 362.269635 
L 714.553247 328.17063 
L 715.389411 358.110856 
L 716.225574 346.729786 
L 717.897902 366.107622 
L 720.406394 358.486134 
L 721.242557 363.960636 
L 722.078721 364.145327 
L 722.914885 348.277139 
L 723.751049 336.617325 
L 726.25954 339.04711 
L 727.095704 366.262704 
L 727.931868 347.509602 
L 728.768032 324.955221 
L 729.604196 346.538239 
L 732.112687 347.492621 
L 732.948851 343.725474 
L 733.785015 293.435674 
L 734.621179 354.631453 
L 735.457343 369.025372 
L 738.801998 336.658301 
L 739.638162 286.513004 
L 740.474326 311.991628 
L 741.31049 360.153259 
L 744.655145 345.777631 
L 745.491309 361.438795 
L 746.327473 367.378021 
L 747.163636 353.583571 
L 747.163636 353.583571 
" clip-path="url(#pc3a8d3b78b)" style="fill: none; stroke: #000000; stroke-width: 1.5; stroke-linecap: square"/>
   </g>
   <g id="line2d_17">
    <path d="M 138.436364 334.92341 
L 140.944855 330.974781 
L 141.781019 338.131731 
L 142.617183 333.771105 
L 143.453347 316.735285 
L 144.28951 311.23306 
L 146.798002 312.789719 
L 147.634166 316.756069 
L 148.47033 323.641584 
L 149.306494 322.526281 
L 150.142657 316.495914 
L 153.487313 305.229504 
L 154.323477 310.665481 
L 155.15964 288.1431 
L 155.995804 280.972531 
L 158.504296 241.557883 
L 159.34046 242.810724 
L 160.176623 247.905911 
L 161.012787 235.456446 
L 161.848951 240.944049 
L 164.357443 269.853441 
L 165.193606 299.814984 
L 166.02977 312.453572 
L 166.865934 321.533662 
L 167.702098 307.47812 
L 170.210589 304.769557 
L 171.882917 321.30112 
L 172.719081 330.57275 
L 173.555245 314.213989 
L 176.063736 277.782199 
L 176.8999 274.649794 
L 177.736064 296.805444 
L 178.572228 295.899543 
L 179.408392 300.139183 
L 182.753047 271.096801 
L 183.589211 278.40599 
L 184.425375 259.286344 
L 185.261538 271.931671 
L 187.77003 289.596788 
L 188.606194 286.800206 
L 189.442358 271.235196 
L 190.278521 260.226165 
L 191.114685 286.068324 
L 193.623177 272.907498 
L 194.459341 257.376745 
L 195.295504 246.268314 
L 196.131668 276.675731 
L 196.967832 279.009815 
L 199.476324 278.7144 
L 200.312488 271.454584 
L 201.148651 285.550286 
L 201.984815 306.487778 
L 202.820979 320.049676 
L 205.329471 322.020303 
L 206.165634 313.456664 
L 207.001798 326.517008 
L 207.837962 313.685237 
L 208.674126 320.321329 
L 211.182617 325.615009 
L 212.018781 333.178308 
L 212.854945 335.261149 
L 213.691109 330.326827 
L 214.527273 315.868474 
L 217.035764 317.192709 
L 217.871928 334.828523 
L 218.708092 317.499954 
L 219.544256 315.201416 
L 220.38042 318.214141 
L 222.888911 316.604568 
L 223.725075 312.177798 
L 224.561239 297.453304 
L 225.397403 304.262609 
L 228.742058 308.606476 
L 229.578222 298.935073 
L 230.414386 318.555895 
L 231.250549 316.162515 
L 232.086713 309.94682 
L 234.595205 272.23179 
L 235.431369 272.262313 
L 236.267532 258.323053 
L 237.103696 252.780292 
L 237.93986 288.951849 
L 240.448352 252.464531 
L 241.284515 255.526269 
L 242.120679 280.302166 
L 242.956843 298.570834 
L 243.793007 277.537356 
L 246.301499 241.206553 
L 247.137662 242.330536 
L 247.973826 233.201383 
L 248.80999 250.495821 
L 249.646154 221.225826 
L 252.154645 280.623567 
L 252.990809 268.423694 
L 253.826973 297.479952 
L 254.663137 260.140097 
L 255.499301 254.405129 
L 258.007792 233.772639 
L 258.843956 295.649368 
L 259.68012 277.769528 
L 260.516284 280.139763 
L 261.352448 296.418069 
L 264.697103 302.986321 
L 265.533267 292.149964 
L 266.369431 284.038312 
L 267.205594 304.666932 
L 269.714086 274.042947 
L 270.55025 298.737531 
L 271.386414 314.22135 
L 273.058741 293.743599 
L 275.567233 259.724431 
L 276.403397 220.225094 
L 277.23956 210.658633 
L 278.075724 271.050771 
L 278.911888 236.14422 
L 282.256543 224.595835 
L 283.092707 269.86498 
L 283.928871 266.166584 
L 284.765035 282.507123 
L 287.273526 295.878882 
L 288.10969 286.398848 
L 288.945854 281.178172 
L 289.782018 260.227729 
L 290.618182 274.868174 
L 293.962837 273.85675 
L 294.799001 274.291249 
L 295.635165 283.766459 
L 296.471329 305.090759 
L 298.97982 288.617149 
L 299.815984 298.616774 
L 300.652148 284.808324 
L 301.488312 276.60881 
L 302.324476 278.306146 
L 304.832967 304.641097 
L 305.669131 301.64808 
L 306.505295 312.472629 
L 307.341459 318.073021 
L 308.177622 324.876938 
L 310.686114 301.050915 
L 311.522278 311.915109 
L 312.358442 307.777319 
L 313.194605 319.838198 
L 314.030769 326.622375 
L 316.539261 329.335451 
L 317.375425 321.599966 
L 318.211588 310.820556 
L 319.047752 322.418896 
L 319.883916 322.472558 
L 322.392408 320.696089 
L 323.228571 321.54765 
L 324.064735 318.656758 
L 324.900899 326.728446 
L 325.737063 330.164189 
L 329.081718 335.294833 
L 329.917882 336.289396 
L 330.754046 331.949456 
L 331.59021 333.144417 
L 334.098701 326.778984 
L 334.934865 311.858028 
L 335.771029 299.957233 
L 336.607193 308.623341 
L 337.443357 318.535251 
L 339.951848 305.308754 
L 340.788012 285.30878 
L 341.624176 281.418176 
L 342.46034 290.881133 
L 343.296503 285.961114 
L 346.641159 281.384312 
L 347.477323 280.59896 
L 348.313487 289.294668 
L 349.14965 301.576208 
L 351.658142 310.064762 
L 352.494306 319.999793 
L 353.33047 289.377277 
L 354.166633 291.062491 
L 355.002797 300.968088 
L 357.511289 280.145454 
L 358.347453 295.495303 
L 359.183616 293.751544 
L 360.01978 268.001132 
L 360.855944 268.296501 
L 363.364436 255.641031 
L 364.200599 237.542795 
L 365.036763 235.502774 
L 365.872927 251.880755 
L 366.709091 250.686038 
L 369.217582 244.018761 
L 370.053746 261.250265 
L 370.88991 288.269817 
L 371.726074 276.203634 
L 372.562238 271.189053 
L 375.070729 250.396146 
L 375.906893 253.110462 
L 376.743057 255.413099 
L 377.579221 249.701975 
L 378.415385 277.720279 
L 380.923876 259.287336 
L 381.76004 283.284118 
L 382.596204 289.9455 
L 383.432368 282.055378 
L 384.268531 272.761826 
L 386.777023 284.152704 
L 387.613187 296.695677 
L 388.449351 306.697321 
L 389.285514 298.476485 
L 390.121678 294.969609 
L 392.63017 304.608231 
L 393.466334 301.248 
L 394.302498 299.371441 
L 395.138661 291.365088 
L 395.974825 297.380143 
L 398.483317 306.696687 
L 399.319481 318.967911 
L 400.155644 318.229212 
L 400.991808 306.820067 
L 401.827972 327.481747 
L 404.336464 328.438966 
L 405.172627 321.872433 
L 406.008791 324.953744 
L 406.844955 315.074061 
L 407.681119 308.842988 
L 411.025774 320.692579 
L 411.861938 326.698478 
L 413.534266 327.66598 
L 416.042757 316.338294 
L 416.878921 319.154668 
L 417.715085 307.747475 
L 418.551249 331.642621 
L 419.387413 323.346327 
L 421.895904 313.987766 
L 422.732068 320.693914 
L 423.568232 307.640966 
L 424.404396 299.27878 
L 425.240559 308.616681 
L 427.749051 299.047937 
L 428.585215 312.239572 
L 429.421379 313.420989 
L 430.257542 317.316717 
L 431.093706 313.920694 
L 433.602198 260.157214 
L 434.438362 285.627024 
L 435.274525 287.924351 
L 436.110689 312.06904 
L 436.946853 304.3391 
L 440.291508 299.308905 
L 441.127672 303.090389 
L 441.963836 294.182662 
L 442.8 304.969395 
L 446.144655 295.877447 
L 446.980819 299.96596 
L 447.816983 306.559313 
L 448.653147 303.159056 
L 451.161638 307.228058 
L 451.997802 307.500054 
L 453.67013 325.211913 
L 454.506294 324.624655 
L 457.850949 330.706883 
L 458.687113 329.416231 
L 459.523277 313.755238 
L 460.359441 312.864753 
L 462.867932 322.366379 
L 463.704096 331.970319 
L 464.54026 325.103234 
L 465.376424 325.415267 
L 466.212587 333.788366 
L 468.721079 332.235801 
L 469.557243 326.860447 
L 470.393407 327.441716 
L 471.22957 332.504839 
L 472.065734 334.829492 
L 474.574226 331.251651 
L 475.41039 328.152761 
L 476.246553 327.396021 
L 477.082717 328.504617 
L 477.918881 322.027373 
L 480.427373 316.497647 
L 481.263536 328.476584 
L 482.0997 330.034749 
L 482.935864 335.527881 
L 483.772028 328.722797 
L 487.116683 321.643681 
L 487.952847 311.125715 
L 488.789011 304.38226 
L 489.625175 312.122275 
L 492.133666 314.706399 
L 492.96983 312.31779 
L 493.805994 320.945922 
L 494.642158 320.958312 
L 495.478322 295.501353 
L 497.986813 324.281982 
L 498.822977 325.56437 
L 499.659141 317.947494 
L 500.495305 318.899734 
L 501.331469 297.900883 
L 503.83996 264.39242 
L 504.676124 269.824169 
L 505.512288 277.997433 
L 506.348452 282.560005 
L 507.184615 297.978782 
L 509.693107 289.92411 
L 510.529271 295.607453 
L 511.365435 317.292278 
L 512.201598 316.721762 
L 513.037762 312.622072 
L 515.546254 320.51736 
L 516.382418 325.62472 
L 517.218581 329.262598 
L 518.054745 333.614545 
L 518.890909 335.343477 
L 521.399401 335.783954 
L 522.235564 336.706308 
L 523.071728 328.545395 
L 523.907892 331.222379 
L 527.252547 330.647677 
L 528.088711 333.768668 
L 528.924875 334.072643 
L 529.761039 331.282017 
L 530.597203 335.136193 
L 533.105694 333.725733 
L 533.941858 337.62565 
L 534.778022 334.571864 
L 535.614186 334.955361 
L 536.45035 334.533837 
L 538.958841 335.543806 
L 539.795005 340.100857 
L 540.631169 328.994294 
L 541.467333 319.629689 
L 542.303497 334.157912 
L 544.811988 337.236727 
L 545.648152 335.178336 
L 546.484316 323.99837 
L 547.32048 316.657902 
L 548.156643 311.997286 
L 551.501299 329.906871 
L 552.337463 330.959542 
L 553.173626 329.538036 
L 554.00979 331.470491 
L 556.518282 328.158406 
L 557.354446 333.035565 
L 558.190609 328.892074 
L 559.026773 332.637225 
L 559.862937 338.711159 
L 562.371429 335.979587 
L 564.043756 328.740798 
L 564.87992 319.28176 
L 565.716084 324.368442 
L 569.060739 330.286667 
L 569.896903 331.51629 
L 571.569231 337.38936 
L 574.077722 344.004226 
L 574.913886 340.16804 
L 575.75005 342.338141 
L 576.586214 342.008397 
L 577.422378 343.601839 
L 579.930869 343.232674 
L 580.767033 343.511975 
L 581.603197 342.461762 
L 582.439361 341.889138 
L 583.275524 343.135902 
L 586.62018 342.194154 
L 588.292507 339.715289 
L 589.128671 343.598536 
L 591.637163 339.267847 
L 592.473327 336.278132 
L 593.309491 339.446136 
L 594.981818 342.772732 
L 597.49031 342.138796 
L 599.162637 342.947259 
L 599.998801 341.100203 
L 600.834965 333.972967 
L 603.343457 334.374678 
L 604.17962 338.028262 
L 605.015784 340.702823 
L 605.851948 341.423847 
L 606.688112 342.872684 
L 610.032767 342.725996 
L 610.868931 343.065421 
L 611.705095 343.126072 
L 612.541259 339.630292 
L 615.04975 338.547945 
L 615.885914 342.573909 
L 616.722078 341.355974 
L 617.558242 341.86312 
L 618.394406 338.178112 
L 620.902897 338.657572 
L 621.739061 341.160841 
L 622.575225 340.164654 
L 623.411389 327.189919 
L 624.247552 324.763897 
L 626.756044 317.869718 
L 627.592208 327.413138 
L 628.428372 331.743511 
L 630.100699 322.808862 
L 632.609191 330.763606 
L 633.445355 336.407136 
L 634.281518 322.103113 
L 635.117682 315.28477 
L 638.462338 308.338091 
L 639.298501 317.730971 
L 640.134665 318.890514 
L 640.970829 328.270476 
L 641.806993 318.310399 
L 644.315485 327.689045 
L 645.151648 333.610744 
L 645.987812 340.748329 
L 646.823976 341.581747 
L 647.66014 340.505227 
L 651.004795 339.925934 
L 651.840959 337.331964 
L 652.677123 330.926378 
L 653.513287 331.156848 
L 656.021778 330.637768 
L 656.857942 338.789629 
L 657.694106 335.331272 
L 658.53027 333.757865 
L 659.366434 339.742579 
L 661.874925 333.839201 
L 662.711089 331.01871 
L 663.547253 335.338713 
L 664.383417 328.338012 
L 665.21958 310.120783 
L 667.728072 301.499778 
L 668.564236 311.050975 
L 669.4004 299.784747 
L 670.236563 295.216669 
L 671.072727 314.523594 
L 673.581219 316.663553 
L 674.417383 316.073876 
L 675.253546 307.407275 
L 676.08971 307.813023 
L 676.925874 316.069996 
L 679.434366 327.10812 
L 680.270529 329.726571 
L 681.106693 330.997221 
L 681.942857 334.367008 
L 682.779021 333.02331 
L 685.287512 314.498975 
L 686.123676 321.995874 
L 686.95984 327.575665 
L 687.796004 315.899747 
L 688.632168 306.00336 
L 691.140659 289.555271 
L 691.976823 300.158094 
L 692.812987 312.531519 
L 693.649151 307.227935 
L 694.485315 300.887015 
L 696.993806 295.195224 
L 697.82997 310.690386 
L 698.666134 321.516556 
L 700.338462 337.794525 
L 702.846953 336.457565 
L 703.683117 340.165657 
L 704.519281 341.583255 
L 705.355445 339.369058 
L 706.191608 336.260699 
L 708.7001 336.45775 
L 709.536264 336.193045 
L 710.372428 341.152784 
L 711.208591 340.895336 
L 712.044755 340.353518 
L 714.553247 339.47406 
L 715.389411 343.095492 
L 716.225574 341.628479 
L 717.897902 342.484214 
L 720.406394 342.831926 
L 721.242557 343.112846 
L 722.914885 342.677492 
L 723.751049 343.460997 
L 726.25954 343.188698 
L 727.095704 340.811716 
L 727.931868 339.494253 
L 728.768032 340.02758 
L 729.604196 342.47459 
L 732.112687 343.736553 
L 732.948851 344.417069 
L 733.785015 343.081759 
L 734.621179 343.771708 
L 735.457343 342.723192 
L 737.965834 342.223628 
L 738.801998 343.709975 
L 739.638162 342.924732 
L 740.474326 336.339856 
L 741.31049 336.853842 
L 744.655145 335.380851 
L 745.491309 340.873556 
L 746.327473 339.846811 
L 747.163636 339.453971 
L 747.163636 339.453971 
" clip-path="url(#pc3a8d3b78b)" style="fill: none; stroke: #1f77b4; stroke-width: 1.5; stroke-linecap: square"/>
   </g>
   <g id="patch_3">
    <path d="M 108 384.48 
L 108 51.84 
" style="fill: none; stroke: #000000; stroke-width: 0.8; stroke-linejoin: miter; stroke-linecap: square"/>
   </g>
   <g id="patch_4">
    <path d="M 777.6 384.48 
L 777.6 51.84 
" style="fill: none; stroke: #000000; stroke-width: 0.8; stroke-linejoin: miter; stroke-linecap: square"/>
   </g>
   <g id="patch_5">
    <path d="M 108 384.48 
L 777.6 384.48 
" style="fill: none; stroke: #000000; stroke-width: 0.8; stroke-linejoin: miter; stroke-linecap: square"/>
   </g>
   <g id="patch_6">
    <path d="M 108 51.84 
L 777.6 51.84 
" style="fill: none; stroke: #000000; stroke-width: 0.8; stroke-linejoin: miter; stroke-linecap: square"/>
   </g>
   <g id="text_18">
    <!-- Volatility Prediction with LSTM MDN vbig-fng -->
    <g transform="translate(309.818438 45.84) scale(0.12 -0.12)">
     <defs>
      <path id="DejaVuSans-20" transform="scale(0.015625)"/>
      <path id="DejaVuSans-50" d="M 1259 4147 
L 1259 2394 
L 2053 2394 
Q 2494 2394 2734 2622 
Q 2975 2850 2975 3272 
Q 2975 3691 2734 3919 
Q 2494 4147 2053 4147 
L 1259 4147 
z
M 628 4666 
L 2053 4666 
Q 2838 4666 3239 4311 
Q 3641 3956 3641 3272 
Q 3641 2581 3239 2228 
Q 2838 1875 2053 1875 
L 1259 1875 
L 1259 0 
L 628 0 
L 628 4666 
z
" transform="scale(0.015625)"/>
      <path id="DejaVuSans-72" d="M 2631 2963 
Q 2534 3019 2420 3045 
Q 2306 3072 2169 3072 
Q 1681 3072 1420 2755 
Q 1159 2438 1159 1844 
L 1159 0 
L 581 0 
L 581 3500 
L 1159 3500 
L 1159 2956 
Q 1341 3275 1631 3429 
Q 1922 3584 2338 3584 
Q 2397 3584 2469 3576 
Q 2541 3569 2628 3553 
L 2631 2963 
z
" transform="scale(0.015625)"/>
      <path id="DejaVuSans-64" d="M 2906 2969 
L 2906 4863 
L 3481 4863 
L 3481 0 
L 2906 0 
L 2906 525 
Q 2725 213 2448 61 
Q 2172 -91 1784 -91 
Q 1150 -91 751 415 
Q 353 922 353 1747 
Q 353 2572 751 3078 
Q 1150 3584 1784 3584 
Q 2172 3584 2448 3432 
Q 2725 3281 2906 2969 
z
M 947 1747 
Q 947 1113 1208 752 
Q 1469 391 1925 391 
Q 2381 391 2643 752 
Q 2906 1113 2906 1747 
Q 2906 2381 2643 2742 
Q 2381 3103 1925 3103 
Q 1469 3103 1208 2742 
Q 947 2381 947 1747 
z
" transform="scale(0.015625)"/>
      <path id="DejaVuSans-63" d="M 3122 3366 
L 3122 2828 
Q 2878 2963 2633 3030 
Q 2388 3097 2138 3097 
Q 1578 3097 1268 2742 
Q 959 2388 959 1747 
Q 959 1106 1268 751 
Q 1578 397 2138 397 
Q 2388 397 2633 464 
Q 2878 531 3122 666 
L 3122 134 
Q 2881 22 2623 -34 
Q 2366 -91 2075 -91 
Q 1284 -91 818 406 
Q 353 903 353 1747 
Q 353 2603 823 3093 
Q 1294 3584 2113 3584 
Q 2378 3584 2631 3529 
Q 2884 3475 3122 3366 
z
" transform="scale(0.015625)"/>
      <path id="DejaVuSans-6e" d="M 3513 2113 
L 3513 0 
L 2938 0 
L 2938 2094 
Q 2938 2591 2744 2837 
Q 2550 3084 2163 3084 
Q 1697 3084 1428 2787 
Q 1159 2491 1159 1978 
L 1159 0 
L 581 0 
L 581 3500 
L 1159 3500 
L 1159 2956 
Q 1366 3272 1645 3428 
Q 1925 3584 2291 3584 
Q 2894 3584 3203 3211 
Q 3513 2838 3513 2113 
z
" transform="scale(0.015625)"/>
      <path id="DejaVuSans-77" d="M 269 3500 
L 844 3500 
L 1563 769 
L 2278 3500 
L 2956 3500 
L 3675 769 
L 4391 3500 
L 4966 3500 
L 4050 0 
L 3372 0 
L 2619 2869 
L 1863 0 
L 1184 0 
L 269 3500 
z
" transform="scale(0.015625)"/>
      <path id="DejaVuSans-68" d="M 3513 2113 
L 3513 0 
L 2938 0 
L 2938 2094 
Q 2938 2591 2744 2837 
Q 2550 3084 2163 3084 
Q 1697 3084 1428 2787 
Q 1159 2491 1159 1978 
L 1159 0 
L 581 0 
L 581 4863 
L 1159 4863 
L 1159 2956 
Q 1366 3272 1645 3428 
Q 1925 3584 2291 3584 
Q 2894 3584 3203 3211 
Q 3513 2838 3513 2113 
z
" transform="scale(0.015625)"/>
      <path id="DejaVuSans-4c" d="M 628 4666 
L 1259 4666 
L 1259 531 
L 3531 531 
L 3531 0 
L 628 0 
L 628 4666 
z
" transform="scale(0.015625)"/>
      <path id="DejaVuSans-53" d="M 3425 4513 
L 3425 3897 
Q 3066 4069 2747 4153 
Q 2428 4238 2131 4238 
Q 1616 4238 1336 4038 
Q 1056 3838 1056 3469 
Q 1056 3159 1242 3001 
Q 1428 2844 1947 2747 
L 2328 2669 
Q 3034 2534 3370 2195 
Q 3706 1856 3706 1288 
Q 3706 609 3251 259 
Q 2797 -91 1919 -91 
Q 1588 -91 1214 -16 
Q 841 59 441 206 
L 441 856 
Q 825 641 1194 531 
Q 1563 422 1919 422 
Q 2459 422 2753 634 
Q 3047 847 3047 1241 
Q 3047 1584 2836 1778 
Q 2625 1972 2144 2069 
L 1759 2144 
Q 1053 2284 737 2584 
Q 422 2884 422 3419 
Q 422 4038 858 4394 
Q 1294 4750 2059 4750 
Q 2388 4750 2728 4690 
Q 3069 4631 3425 4513 
z
" transform="scale(0.015625)"/>
      <path id="DejaVuSans-54" d="M -19 4666 
L 3928 4666 
L 3928 4134 
L 2272 4134 
L 2272 0 
L 1638 0 
L 1638 4134 
L -19 4134 
L -19 4666 
z
" transform="scale(0.015625)"/>
      <path id="DejaVuSans-4d" d="M 628 4666 
L 1569 4666 
L 2759 1491 
L 3956 4666 
L 4897 4666 
L 4897 0 
L 4281 0 
L 4281 4097 
L 3078 897 
L 2444 897 
L 1241 4097 
L 1241 0 
L 628 0 
L 628 4666 
z
" transform="scale(0.015625)"/>
      <path id="DejaVuSans-4e" d="M 628 4666 
L 1478 4666 
L 3547 763 
L 3547 4666 
L 4159 4666 
L 4159 0 
L 3309 0 
L 1241 3903 
L 1241 0 
L 628 0 
L 628 4666 
z
" transform="scale(0.015625)"/>
      <path id="DejaVuSans-76" d="M 191 3500 
L 800 3500 
L 1894 563 
L 2988 3500 
L 3597 3500 
L 2284 0 
L 1503 0 
L 191 3500 
z
" transform="scale(0.015625)"/>
      <path id="DejaVuSans-62" d="M 3116 1747 
Q 3116 2381 2855 2742 
Q 2594 3103 2138 3103 
Q 1681 3103 1420 2742 
Q 1159 2381 1159 1747 
Q 1159 1113 1420 752 
Q 1681 391 2138 391 
Q 2594 391 2855 752 
Q 3116 1113 3116 1747 
z
M 1159 2969 
Q 1341 3281 1617 3432 
Q 1894 3584 2278 3584 
Q 2916 3584 3314 3078 
Q 3713 2572 3713 1747 
Q 3713 922 3314 415 
Q 2916 -91 2278 -91 
Q 1894 -91 1617 61 
Q 1341 213 1159 525 
L 1159 0 
L 581 0 
L 581 4863 
L 1159 4863 
L 1159 2969 
z
" transform="scale(0.015625)"/>
      <path id="DejaVuSans-67" d="M 2906 1791 
Q 2906 2416 2648 2759 
Q 2391 3103 1925 3103 
Q 1463 3103 1205 2759 
Q 947 2416 947 1791 
Q 947 1169 1205 825 
Q 1463 481 1925 481 
Q 2391 481 2648 825 
Q 2906 1169 2906 1791 
z
M 3481 434 
Q 3481 -459 3084 -895 
Q 2688 -1331 1869 -1331 
Q 1566 -1331 1297 -1286 
Q 1028 -1241 775 -1147 
L 775 -588 
Q 1028 -725 1275 -790 
Q 1522 -856 1778 -856 
Q 2344 -856 2625 -561 
Q 2906 -266 2906 331 
L 2906 616 
Q 2728 306 2450 153 
Q 2172 0 1784 0 
Q 1141 0 747 490 
Q 353 981 353 1791 
Q 353 2603 747 3093 
Q 1141 3584 1784 3584 
Q 2172 3584 2450 3431 
Q 2728 3278 2906 2969 
L 2906 3500 
L 3481 3500 
L 3481 434 
z
" transform="scale(0.015625)"/>
      <path id="DejaVuSans-66" d="M 2375 4863 
L 2375 4384 
L 1825 4384 
Q 1516 4384 1395 4259 
Q 1275 4134 1275 3809 
L 1275 3500 
L 2222 3500 
L 2222 3053 
L 1275 3053 
L 1275 0 
L 697 0 
L 697 3053 
L 147 3053 
L 147 3500 
L 697 3500 
L 697 3744 
Q 697 4328 969 4595 
Q 1241 4863 1831 4863 
L 2375 4863 
z
" transform="scale(0.015625)"/>
     </defs>
     <use xlink:href="#DejaVuSans-56"/>
     <use xlink:href="#DejaVuSans-6f" transform="translate(60.658203 0)"/>
     <use xlink:href="#DejaVuSans-6c" transform="translate(121.839844 0)"/>
     <use xlink:href="#DejaVuSans-61" transform="translate(149.623047 0)"/>
     <use xlink:href="#DejaVuSans-74" transform="translate(210.902344 0)"/>
     <use xlink:href="#DejaVuSans-69" transform="translate(250.111328 0)"/>
     <use xlink:href="#DejaVuSans-6c" transform="translate(277.894531 0)"/>
     <use xlink:href="#DejaVuSans-69" transform="translate(305.677734 0)"/>
     <use xlink:href="#DejaVuSans-74" transform="translate(333.460938 0)"/>
     <use xlink:href="#DejaVuSans-79" transform="translate(372.669922 0)"/>
     <use xlink:href="#DejaVuSans-20" transform="translate(431.849609 0)"/>
     <use xlink:href="#DejaVuSans-50" transform="translate(463.636719 0)"/>
     <use xlink:href="#DejaVuSans-72" transform="translate(522.189453 0)"/>
     <use xlink:href="#DejaVuSans-65" transform="translate(561.052734 0)"/>
     <use xlink:href="#DejaVuSans-64" transform="translate(622.576172 0)"/>
     <use xlink:href="#DejaVuSans-69" transform="translate(686.052734 0)"/>
     <use xlink:href="#DejaVuSans-63" transform="translate(713.835938 0)"/>
     <use xlink:href="#DejaVuSans-74" transform="translate(768.816406 0)"/>
     <use xlink:href="#DejaVuSans-69" transform="translate(808.025391 0)"/>
     <use xlink:href="#DejaVuSans-6f" transform="translate(835.808594 0)"/>
     <use xlink:href="#DejaVuSans-6e" transform="translate(896.990234 0)"/>
     <use xlink:href="#DejaVuSans-20" transform="translate(960.369141 0)"/>
     <use xlink:href="#DejaVuSans-77" transform="translate(992.15625 0)"/>
     <use xlink:href="#DejaVuSans-69" transform="translate(1073.943359 0)"/>
     <use xlink:href="#DejaVuSans-74" transform="translate(1101.726562 0)"/>
     <use xlink:href="#DejaVuSans-68" transform="translate(1140.935547 0)"/>
     <use xlink:href="#DejaVuSans-20" transform="translate(1204.314453 0)"/>
     <use xlink:href="#DejaVuSans-4c" transform="translate(1236.101562 0)"/>
     <use xlink:href="#DejaVuSans-53" transform="translate(1291.814453 0)"/>
     <use xlink:href="#DejaVuSans-54" transform="translate(1355.291016 0)"/>
     <use xlink:href="#DejaVuSans-4d" transform="translate(1416.375 0)"/>
     <use xlink:href="#DejaVuSans-20" transform="translate(1502.654297 0)"/>
     <use xlink:href="#DejaVuSans-4d" transform="translate(1534.441406 0)"/>
     <use xlink:href="#DejaVuSans-44" transform="translate(1620.720703 0)"/>
     <use xlink:href="#DejaVuSans-4e" transform="translate(1697.722656 0)"/>
     <use xlink:href="#DejaVuSans-20" transform="translate(1772.527344 0)"/>
     <use xlink:href="#DejaVuSans-76" transform="translate(1804.314453 0)"/>
     <use xlink:href="#DejaVuSans-62" transform="translate(1863.494141 0)"/>
     <use xlink:href="#DejaVuSans-69" transform="translate(1926.970703 0)"/>
     <use xlink:href="#DejaVuSans-67" transform="translate(1954.753906 0)"/>
     <use xlink:href="#DejaVuSans-2d" transform="translate(2018.230469 0)"/>
     <use xlink:href="#DejaVuSans-66" transform="translate(2054.314453 0)"/>
     <use xlink:href="#DejaVuSans-6e" transform="translate(2089.519531 0)"/>
     <use xlink:href="#DejaVuSans-67" transform="translate(2152.898438 0)"/>
    </g>
   </g>
   <g id="legend_1">
    <g id="patch_7">
     <path d="M 541.35625 89.19625 
L 770.6 89.19625 
Q 772.6 89.19625 772.6 87.19625 
L 772.6 58.84 
Q 772.6 56.84 770.6 56.84 
L 541.35625 56.84 
Q 539.35625 56.84 539.35625 58.84 
L 539.35625 87.19625 
Q 539.35625 89.19625 541.35625 89.19625 
z
" style="fill: #ffffff; opacity: 0.8; stroke: #cccccc; stroke-linejoin: miter"/>
    </g>
    <g id="line2d_18">
     <path d="M 543.35625 64.938437 
L 553.35625 64.938437 
L 563.35625 64.938437 
" style="fill: none; stroke: #000000; stroke-width: 1.5; stroke-linecap: square"/>
    </g>
    <g id="text_19">
     <!-- Absolute Returns -->
     <g transform="translate(571.35625 68.438437) scale(0.1 -0.1)">
      <defs>
       <path id="DejaVuSans-41" d="M 2188 4044 
L 1331 1722 
L 3047 1722 
L 2188 4044 
z
M 1831 4666 
L 2547 4666 
L 4325 0 
L 3669 0 
L 3244 1197 
L 1141 1197 
L 716 0 
L 50 0 
L 1831 4666 
z
" transform="scale(0.015625)"/>
       <path id="DejaVuSans-73" d="M 2834 3397 
L 2834 2853 
Q 2591 2978 2328 3040 
Q 2066 3103 1784 3103 
Q 1356 3103 1142 2972 
Q 928 2841 928 2578 
Q 928 2378 1081 2264 
Q 1234 2150 1697 2047 
L 1894 2003 
Q 2506 1872 2764 1633 
Q 3022 1394 3022 966 
Q 3022 478 2636 193 
Q 2250 -91 1575 -91 
Q 1294 -91 989 -36 
Q 684 19 347 128 
L 347 722 
Q 666 556 975 473 
Q 1284 391 1588 391 
Q 1994 391 2212 530 
Q 2431 669 2431 922 
Q 2431 1156 2273 1281 
Q 2116 1406 1581 1522 
L 1381 1569 
Q 847 1681 609 1914 
Q 372 2147 372 2553 
Q 372 3047 722 3315 
Q 1072 3584 1716 3584 
Q 2034 3584 2315 3537 
Q 2597 3491 2834 3397 
z
" transform="scale(0.015625)"/>
       <path id="DejaVuSans-75" d="M 544 1381 
L 544 3500 
L 1119 3500 
L 1119 1403 
Q 1119 906 1312 657 
Q 1506 409 1894 409 
Q 2359 409 2629 706 
Q 2900 1003 2900 1516 
L 2900 3500 
L 3475 3500 
L 3475 0 
L 2900 0 
L 2900 538 
Q 2691 219 2414 64 
Q 2138 -91 1772 -91 
Q 1169 -91 856 284 
Q 544 659 544 1381 
z
M 1991 3584 
L 1991 3584 
z
" transform="scale(0.015625)"/>
       <path id="DejaVuSans-52" d="M 2841 2188 
Q 3044 2119 3236 1894 
Q 3428 1669 3622 1275 
L 4263 0 
L 3584 0 
L 2988 1197 
Q 2756 1666 2539 1819 
Q 2322 1972 1947 1972 
L 1259 1972 
L 1259 0 
L 628 0 
L 628 4666 
L 2053 4666 
Q 2853 4666 3247 4331 
Q 3641 3997 3641 3322 
Q 3641 2881 3436 2590 
Q 3231 2300 2841 2188 
z
M 1259 4147 
L 1259 2491 
L 2053 2491 
Q 2509 2491 2742 2702 
Q 2975 2913 2975 3322 
Q 2975 3731 2742 3939 
Q 2509 4147 2053 4147 
L 1259 4147 
z
" transform="scale(0.015625)"/>
      </defs>
      <use xlink:href="#DejaVuSans-41"/>
      <use xlink:href="#DejaVuSans-62" transform="translate(68.408203 0)"/>
      <use xlink:href="#DejaVuSans-73" transform="translate(131.884766 0)"/>
      <use xlink:href="#DejaVuSans-6f" transform="translate(183.984375 0)"/>
      <use xlink:href="#DejaVuSans-6c" transform="translate(245.166016 0)"/>
      <use xlink:href="#DejaVuSans-75" transform="translate(272.949219 0)"/>
      <use xlink:href="#DejaVuSans-74" transform="translate(336.328125 0)"/>
      <use xlink:href="#DejaVuSans-65" transform="translate(375.537109 0)"/>
      <use xlink:href="#DejaVuSans-20" transform="translate(437.060547 0)"/>
      <use xlink:href="#DejaVuSans-52" transform="translate(468.847656 0)"/>
      <use xlink:href="#DejaVuSans-65" transform="translate(533.830078 0)"/>
      <use xlink:href="#DejaVuSans-74" transform="translate(595.353516 0)"/>
      <use xlink:href="#DejaVuSans-75" transform="translate(634.5625 0)"/>
      <use xlink:href="#DejaVuSans-72" transform="translate(697.941406 0)"/>
      <use xlink:href="#DejaVuSans-6e" transform="translate(737.304688 0)"/>
      <use xlink:href="#DejaVuSans-73" transform="translate(800.683594 0)"/>
     </g>
    </g>
    <g id="line2d_19">
     <path d="M 543.35625 79.616562 
L 553.35625 79.616562 
L 563.35625 79.616562 
" style="fill: none; stroke: #1f77b4; stroke-width: 1.5; stroke-linecap: square"/>
    </g>
    <g id="text_20">
     <!-- LSTM MDN vbig-fng Volatility Prediction -->
     <g transform="translate(571.35625 83.116562) scale(0.1 -0.1)">
      <use xlink:href="#DejaVuSans-4c"/>
      <use xlink:href="#DejaVuSans-53" transform="translate(55.712891 0)"/>
      <use xlink:href="#DejaVuSans-54" transform="translate(119.189453 0)"/>
      <use xlink:href="#DejaVuSans-4d" transform="translate(180.273438 0)"/>
      <use xlink:href="#DejaVuSans-20" transform="translate(266.552734 0)"/>
      <use xlink:href="#DejaVuSans-4d" transform="translate(298.339844 0)"/>
      <use xlink:href="#DejaVuSans-44" transform="translate(384.619141 0)"/>
      <use xlink:href="#DejaVuSans-4e" transform="translate(461.621094 0)"/>
      <use xlink:href="#DejaVuSans-20" transform="translate(536.425781 0)"/>
      <use xlink:href="#DejaVuSans-76" transform="translate(568.212891 0)"/>
      <use xlink:href="#DejaVuSans-62" transform="translate(627.392578 0)"/>
      <use xlink:href="#DejaVuSans-69" transform="translate(690.869141 0)"/>
      <use xlink:href="#DejaVuSans-67" transform="translate(718.652344 0)"/>
      <use xlink:href="#DejaVuSans-2d" transform="translate(782.128906 0)"/>
      <use xlink:href="#DejaVuSans-66" transform="translate(818.212891 0)"/>
      <use xlink:href="#DejaVuSans-6e" transform="translate(853.417969 0)"/>
      <use xlink:href="#DejaVuSans-67" transform="translate(916.796875 0)"/>
      <use xlink:href="#DejaVuSans-20" transform="translate(980.273438 0)"/>
      <use xlink:href="#DejaVuSans-56" transform="translate(1012.060547 0)"/>
      <use xlink:href="#DejaVuSans-6f" transform="translate(1072.71875 0)"/>
      <use xlink:href="#DejaVuSans-6c" transform="translate(1133.900391 0)"/>
      <use xlink:href="#DejaVuSans-61" transform="translate(1161.683594 0)"/>
      <use xlink:href="#DejaVuSans-74" transform="translate(1222.962891 0)"/>
      <use xlink:href="#DejaVuSans-69" transform="translate(1262.171875 0)"/>
      <use xlink:href="#DejaVuSans-6c" transform="translate(1289.955078 0)"/>
      <use xlink:href="#DejaVuSans-69" transform="translate(1317.738281 0)"/>
      <use xlink:href="#DejaVuSans-74" transform="translate(1345.521484 0)"/>
      <use xlink:href="#DejaVuSans-79" transform="translate(1384.730469 0)"/>
      <use xlink:href="#DejaVuSans-20" transform="translate(1443.910156 0)"/>
      <use xlink:href="#DejaVuSans-50" transform="translate(1475.697266 0)"/>
      <use xlink:href="#DejaVuSans-72" transform="translate(1534.25 0)"/>
      <use xlink:href="#DejaVuSans-65" transform="translate(1573.113281 0)"/>
      <use xlink:href="#DejaVuSans-64" transform="translate(1634.636719 0)"/>
      <use xlink:href="#DejaVuSans-69" transform="translate(1698.113281 0)"/>
      <use xlink:href="#DejaVuSans-63" transform="translate(1725.896484 0)"/>
      <use xlink:href="#DejaVuSans-74" transform="translate(1780.876953 0)"/>
      <use xlink:href="#DejaVuSans-69" transform="translate(1820.085938 0)"/>
      <use xlink:href="#DejaVuSans-6f" transform="translate(1847.869141 0)"/>
      <use xlink:href="#DejaVuSans-6e" transform="translate(1909.050781 0)"/>
     </g>
    </g>
   </g>
  </g>
 </g>
 <defs>
  <clipPath id="pc3a8d3b78b">
   <rect x="108" y="51.84" width="669.6" height="332.64"/>
  </clipPath>
 </defs>
</svg>
