<?xml version="1.0" encoding="utf-8" standalone="no"?>
<!DOCTYPE svg PUBLIC "-//W3C//DTD SVG 1.1//EN"
  "http://www.w3.org/Graphics/SVG/1.1/DTD/svg11.dtd">
<svg xmlns:xlink="http://www.w3.org/1999/xlink" width="864pt" height="432pt" viewBox="0 0 864 432" xmlns="http://www.w3.org/2000/svg" version="1.1">
 <metadata>
  <rdf:RDF xmlns:dc="http://purl.org/dc/elements/1.1/" xmlns:cc="http://creativecommons.org/ns#" xmlns:rdf="http://www.w3.org/1999/02/22-rdf-syntax-ns#">
   <cc:Work>
    <dc:type rdf:resource="http://purl.org/dc/dcmitype/StillImage"/>
    <dc:date>2025-02-11T12:33:03.742396</dc:date>
    <dc:format>image/svg+xml</dc:format>
    <dc:creator>
     <cc:Agent>
      <dc:title>Matplotlib v3.10.0, https://matplotlib.org/</dc:title>
     </cc:Agent>
    </dc:creator>
   </cc:Work>
  </rdf:RDF>
 </metadata>
 <defs>
  <style type="text/css">*{stroke-linejoin: round; stroke-linecap: butt}</style>
 </defs>
 <g id="figure_1">
  <g id="patch_1">
   <path d="M 0 432 
L 864 432 
L 864 0 
L 0 0 
z
" style="fill: #ffffff"/>
  </g>
  <g id="axes_1">
   <g id="patch_2">
    <path d="M 108 384.48 
L 777.6 384.48 
L 777.6 51.84 
L 108 51.84 
z
" style="fill: #ffffff"/>
   </g>
   <g id="matplotlib.axis_1">
    <g id="xtick_1">
     <g id="line2d_1">
      <defs>
       <path id="mec79e38148" d="M 0 0 
L 0 3.5 
" style="stroke: #000000; stroke-width: 0.8"/>
      </defs>
      <g>
       <use xlink:href="#mec79e38148" x="138.822857" y="384.48" style="stroke: #000000; stroke-width: 0.8"/>
      </g>
     </g>
     <g id="text_1">
      <!-- 2020-07 -->
      <g transform="translate(117.931451 399.078438) scale(0.1 -0.1)">
       <defs>
        <path id="DejaVuSans-32" d="M 1228 531 
L 3431 531 
L 3431 0 
L 469 0 
L 469 531 
Q 828 903 1448 1529 
Q 2069 2156 2228 2338 
Q 2531 2678 2651 2914 
Q 2772 3150 2772 3378 
Q 2772 3750 2511 3984 
Q 2250 4219 1831 4219 
Q 1534 4219 1204 4116 
Q 875 4013 500 3803 
L 500 4441 
Q 881 4594 1212 4672 
Q 1544 4750 1819 4750 
Q 2544 4750 2975 4387 
Q 3406 4025 3406 3419 
Q 3406 3131 3298 2873 
Q 3191 2616 2906 2266 
Q 2828 2175 2409 1742 
Q 1991 1309 1228 531 
z
" transform="scale(0.015625)"/>
        <path id="DejaVuSans-30" d="M 2034 4250 
Q 1547 4250 1301 3770 
Q 1056 3291 1056 2328 
Q 1056 1369 1301 889 
Q 1547 409 2034 409 
Q 2525 409 2770 889 
Q 3016 1369 3016 2328 
Q 3016 3291 2770 3770 
Q 2525 4250 2034 4250 
z
M 2034 4750 
Q 2819 4750 3233 4129 
Q 3647 3509 3647 2328 
Q 3647 1150 3233 529 
Q 2819 -91 2034 -91 
Q 1250 -91 836 529 
Q 422 1150 422 2328 
Q 422 3509 836 4129 
Q 1250 4750 2034 4750 
z
" transform="scale(0.015625)"/>
        <path id="DejaVuSans-2d" d="M 313 2009 
L 1997 2009 
L 1997 1497 
L 313 1497 
L 313 2009 
z
" transform="scale(0.015625)"/>
        <path id="DejaVuSans-37" d="M 525 4666 
L 3525 4666 
L 3525 4397 
L 1831 0 
L 1172 0 
L 2766 4134 
L 525 4134 
L 525 4666 
z
" transform="scale(0.015625)"/>
       </defs>
       <use xlink:href="#DejaVuSans-32"/>
       <use xlink:href="#DejaVuSans-30" transform="translate(63.623047 0)"/>
       <use xlink:href="#DejaVuSans-32" transform="translate(127.246094 0)"/>
       <use xlink:href="#DejaVuSans-30" transform="translate(190.869141 0)"/>
       <use xlink:href="#DejaVuSans-2d" transform="translate(254.492188 0)"/>
       <use xlink:href="#DejaVuSans-30" transform="translate(290.576172 0)"/>
       <use xlink:href="#DejaVuSans-37" transform="translate(354.199219 0)"/>
      </g>
     </g>
    </g>
    <g id="xtick_2">
     <g id="line2d_2">
      <g>
       <use xlink:href="#mec79e38148" x="209.937662" y="384.48" style="stroke: #000000; stroke-width: 0.8"/>
      </g>
     </g>
     <g id="text_2">
      <!-- 2021-01 -->
      <g transform="translate(189.046256 399.078438) scale(0.1 -0.1)">
       <defs>
        <path id="DejaVuSans-31" d="M 794 531 
L 1825 531 
L 1825 4091 
L 703 3866 
L 703 4441 
L 1819 4666 
L 2450 4666 
L 2450 531 
L 3481 531 
L 3481 0 
L 794 0 
L 794 531 
z
" transform="scale(0.015625)"/>
       </defs>
       <use xlink:href="#DejaVuSans-32"/>
       <use xlink:href="#DejaVuSans-30" transform="translate(63.623047 0)"/>
       <use xlink:href="#DejaVuSans-32" transform="translate(127.246094 0)"/>
       <use xlink:href="#DejaVuSans-31" transform="translate(190.869141 0)"/>
       <use xlink:href="#DejaVuSans-2d" transform="translate(254.492188 0)"/>
       <use xlink:href="#DejaVuSans-30" transform="translate(290.576172 0)"/>
       <use xlink:href="#DejaVuSans-31" transform="translate(354.199219 0)"/>
      </g>
     </g>
    </g>
    <g id="xtick_3">
     <g id="line2d_3">
      <g>
       <use xlink:href="#mec79e38148" x="279.892987" y="384.48" style="stroke: #000000; stroke-width: 0.8"/>
      </g>
     </g>
     <g id="text_3">
      <!-- 2021-07 -->
      <g transform="translate(259.001581 399.078438) scale(0.1 -0.1)">
       <use xlink:href="#DejaVuSans-32"/>
       <use xlink:href="#DejaVuSans-30" transform="translate(63.623047 0)"/>
       <use xlink:href="#DejaVuSans-32" transform="translate(127.246094 0)"/>
       <use xlink:href="#DejaVuSans-31" transform="translate(190.869141 0)"/>
       <use xlink:href="#DejaVuSans-2d" transform="translate(254.492188 0)"/>
       <use xlink:href="#DejaVuSans-30" transform="translate(290.576172 0)"/>
       <use xlink:href="#DejaVuSans-37" transform="translate(354.199219 0)"/>
      </g>
     </g>
    </g>
    <g id="xtick_4">
     <g id="line2d_4">
      <g>
       <use xlink:href="#mec79e38148" x="351.007792" y="384.48" style="stroke: #000000; stroke-width: 0.8"/>
      </g>
     </g>
     <g id="text_4">
      <!-- 2022-01 -->
      <g transform="translate(330.116386 399.078438) scale(0.1 -0.1)">
       <use xlink:href="#DejaVuSans-32"/>
       <use xlink:href="#DejaVuSans-30" transform="translate(63.623047 0)"/>
       <use xlink:href="#DejaVuSans-32" transform="translate(127.246094 0)"/>
       <use xlink:href="#DejaVuSans-32" transform="translate(190.869141 0)"/>
       <use xlink:href="#DejaVuSans-2d" transform="translate(254.492188 0)"/>
       <use xlink:href="#DejaVuSans-30" transform="translate(290.576172 0)"/>
       <use xlink:href="#DejaVuSans-31" transform="translate(354.199219 0)"/>
      </g>
     </g>
    </g>
    <g id="xtick_5">
     <g id="line2d_5">
      <g>
       <use xlink:href="#mec79e38148" x="420.963117" y="384.48" style="stroke: #000000; stroke-width: 0.8"/>
      </g>
     </g>
     <g id="text_5">
      <!-- 2022-07 -->
      <g transform="translate(400.071711 399.078438) scale(0.1 -0.1)">
       <use xlink:href="#DejaVuSans-32"/>
       <use xlink:href="#DejaVuSans-30" transform="translate(63.623047 0)"/>
       <use xlink:href="#DejaVuSans-32" transform="translate(127.246094 0)"/>
       <use xlink:href="#DejaVuSans-32" transform="translate(190.869141 0)"/>
       <use xlink:href="#DejaVuSans-2d" transform="translate(254.492188 0)"/>
       <use xlink:href="#DejaVuSans-30" transform="translate(290.576172 0)"/>
       <use xlink:href="#DejaVuSans-37" transform="translate(354.199219 0)"/>
      </g>
     </g>
    </g>
    <g id="xtick_6">
     <g id="line2d_6">
      <g>
       <use xlink:href="#mec79e38148" x="492.077922" y="384.48" style="stroke: #000000; stroke-width: 0.8"/>
      </g>
     </g>
     <g id="text_6">
      <!-- 2023-01 -->
      <g transform="translate(471.186516 399.078438) scale(0.1 -0.1)">
       <defs>
        <path id="DejaVuSans-33" d="M 2597 2516 
Q 3050 2419 3304 2112 
Q 3559 1806 3559 1356 
Q 3559 666 3084 287 
Q 2609 -91 1734 -91 
Q 1441 -91 1130 -33 
Q 819 25 488 141 
L 488 750 
Q 750 597 1062 519 
Q 1375 441 1716 441 
Q 2309 441 2620 675 
Q 2931 909 2931 1356 
Q 2931 1769 2642 2001 
Q 2353 2234 1838 2234 
L 1294 2234 
L 1294 2753 
L 1863 2753 
Q 2328 2753 2575 2939 
Q 2822 3125 2822 3475 
Q 2822 3834 2567 4026 
Q 2313 4219 1838 4219 
Q 1578 4219 1281 4162 
Q 984 4106 628 3988 
L 628 4550 
Q 988 4650 1302 4700 
Q 1616 4750 1894 4750 
Q 2613 4750 3031 4423 
Q 3450 4097 3450 3541 
Q 3450 3153 3228 2886 
Q 3006 2619 2597 2516 
z
" transform="scale(0.015625)"/>
       </defs>
       <use xlink:href="#DejaVuSans-32"/>
       <use xlink:href="#DejaVuSans-30" transform="translate(63.623047 0)"/>
       <use xlink:href="#DejaVuSans-32" transform="translate(127.246094 0)"/>
       <use xlink:href="#DejaVuSans-33" transform="translate(190.869141 0)"/>
       <use xlink:href="#DejaVuSans-2d" transform="translate(254.492188 0)"/>
       <use xlink:href="#DejaVuSans-30" transform="translate(290.576172 0)"/>
       <use xlink:href="#DejaVuSans-31" transform="translate(354.199219 0)"/>
      </g>
     </g>
    </g>
    <g id="xtick_7">
     <g id="line2d_7">
      <g>
       <use xlink:href="#mec79e38148" x="562.033247" y="384.48" style="stroke: #000000; stroke-width: 0.8"/>
      </g>
     </g>
     <g id="text_7">
      <!-- 2023-07 -->
      <g transform="translate(541.141841 399.078438) scale(0.1 -0.1)">
       <use xlink:href="#DejaVuSans-32"/>
       <use xlink:href="#DejaVuSans-30" transform="translate(63.623047 0)"/>
       <use xlink:href="#DejaVuSans-32" transform="translate(127.246094 0)"/>
       <use xlink:href="#DejaVuSans-33" transform="translate(190.869141 0)"/>
       <use xlink:href="#DejaVuSans-2d" transform="translate(254.492188 0)"/>
       <use xlink:href="#DejaVuSans-30" transform="translate(290.576172 0)"/>
       <use xlink:href="#DejaVuSans-37" transform="translate(354.199219 0)"/>
      </g>
     </g>
    </g>
    <g id="xtick_8">
     <g id="line2d_8">
      <g>
       <use xlink:href="#mec79e38148" x="633.148052" y="384.48" style="stroke: #000000; stroke-width: 0.8"/>
      </g>
     </g>
     <g id="text_8">
      <!-- 2024-01 -->
      <g transform="translate(612.256646 399.078438) scale(0.1 -0.1)">
       <defs>
        <path id="DejaVuSans-34" d="M 2419 4116 
L 825 1625 
L 2419 1625 
L 2419 4116 
z
M 2253 4666 
L 3047 4666 
L 3047 1625 
L 3713 1625 
L 3713 1100 
L 3047 1100 
L 3047 0 
L 2419 0 
L 2419 1100 
L 313 1100 
L 313 1709 
L 2253 4666 
z
" transform="scale(0.015625)"/>
       </defs>
       <use xlink:href="#DejaVuSans-32"/>
       <use xlink:href="#DejaVuSans-30" transform="translate(63.623047 0)"/>
       <use xlink:href="#DejaVuSans-32" transform="translate(127.246094 0)"/>
       <use xlink:href="#DejaVuSans-34" transform="translate(190.869141 0)"/>
       <use xlink:href="#DejaVuSans-2d" transform="translate(254.492188 0)"/>
       <use xlink:href="#DejaVuSans-30" transform="translate(290.576172 0)"/>
       <use xlink:href="#DejaVuSans-31" transform="translate(354.199219 0)"/>
      </g>
     </g>
    </g>
    <g id="xtick_9">
     <g id="line2d_9">
      <g>
       <use xlink:href="#mec79e38148" x="703.48987" y="384.48" style="stroke: #000000; stroke-width: 0.8"/>
      </g>
     </g>
     <g id="text_9">
      <!-- 2024-07 -->
      <g transform="translate(682.598464 399.078438) scale(0.1 -0.1)">
       <use xlink:href="#DejaVuSans-32"/>
       <use xlink:href="#DejaVuSans-30" transform="translate(63.623047 0)"/>
       <use xlink:href="#DejaVuSans-32" transform="translate(127.246094 0)"/>
       <use xlink:href="#DejaVuSans-34" transform="translate(190.869141 0)"/>
       <use xlink:href="#DejaVuSans-2d" transform="translate(254.492188 0)"/>
       <use xlink:href="#DejaVuSans-30" transform="translate(290.576172 0)"/>
       <use xlink:href="#DejaVuSans-37" transform="translate(354.199219 0)"/>
      </g>
     </g>
    </g>
    <g id="xtick_10">
     <g id="line2d_10">
      <g>
       <use xlink:href="#mec79e38148" x="774.604675" y="384.48" style="stroke: #000000; stroke-width: 0.8"/>
      </g>
     </g>
     <g id="text_10">
      <!-- 2025-01 -->
      <g transform="translate(753.713269 399.078438) scale(0.1 -0.1)">
       <defs>
        <path id="DejaVuSans-35" d="M 691 4666 
L 3169 4666 
L 3169 4134 
L 1269 4134 
L 1269 2991 
Q 1406 3038 1543 3061 
Q 1681 3084 1819 3084 
Q 2600 3084 3056 2656 
Q 3513 2228 3513 1497 
Q 3513 744 3044 326 
Q 2575 -91 1722 -91 
Q 1428 -91 1123 -41 
Q 819 9 494 109 
L 494 744 
Q 775 591 1075 516 
Q 1375 441 1709 441 
Q 2250 441 2565 725 
Q 2881 1009 2881 1497 
Q 2881 1984 2565 2268 
Q 2250 2553 1709 2553 
Q 1456 2553 1204 2497 
Q 953 2441 691 2322 
L 691 4666 
z
" transform="scale(0.015625)"/>
       </defs>
       <use xlink:href="#DejaVuSans-32"/>
       <use xlink:href="#DejaVuSans-30" transform="translate(63.623047 0)"/>
       <use xlink:href="#DejaVuSans-32" transform="translate(127.246094 0)"/>
       <use xlink:href="#DejaVuSans-35" transform="translate(190.869141 0)"/>
       <use xlink:href="#DejaVuSans-2d" transform="translate(254.492188 0)"/>
       <use xlink:href="#DejaVuSans-30" transform="translate(290.576172 0)"/>
       <use xlink:href="#DejaVuSans-31" transform="translate(354.199219 0)"/>
      </g>
     </g>
    </g>
    <g id="text_11">
     <!-- Date -->
     <g transform="translate(430.849219 412.756563) scale(0.1 -0.1)">
      <defs>
       <path id="DejaVuSans-44" d="M 1259 4147 
L 1259 519 
L 2022 519 
Q 2988 519 3436 956 
Q 3884 1394 3884 2338 
Q 3884 3275 3436 3711 
Q 2988 4147 2022 4147 
L 1259 4147 
z
M 628 4666 
L 1925 4666 
Q 3281 4666 3915 4102 
Q 4550 3538 4550 2338 
Q 4550 1131 3912 565 
Q 3275 0 1925 0 
L 628 0 
L 628 4666 
z
" transform="scale(0.015625)"/>
       <path id="DejaVuSans-61" d="M 2194 1759 
Q 1497 1759 1228 1600 
Q 959 1441 959 1056 
Q 959 750 1161 570 
Q 1363 391 1709 391 
Q 2188 391 2477 730 
Q 2766 1069 2766 1631 
L 2766 1759 
L 2194 1759 
z
M 3341 1997 
L 3341 0 
L 2766 0 
L 2766 531 
Q 2569 213 2275 61 
Q 1981 -91 1556 -91 
Q 1019 -91 701 211 
Q 384 513 384 1019 
Q 384 1609 779 1909 
Q 1175 2209 1959 2209 
L 2766 2209 
L 2766 2266 
Q 2766 2663 2505 2880 
Q 2244 3097 1772 3097 
Q 1472 3097 1187 3025 
Q 903 2953 641 2809 
L 641 3341 
Q 956 3463 1253 3523 
Q 1550 3584 1831 3584 
Q 2591 3584 2966 3190 
Q 3341 2797 3341 1997 
z
" transform="scale(0.015625)"/>
       <path id="DejaVuSans-74" d="M 1172 4494 
L 1172 3500 
L 2356 3500 
L 2356 3053 
L 1172 3053 
L 1172 1153 
Q 1172 725 1289 603 
Q 1406 481 1766 481 
L 2356 481 
L 2356 0 
L 1766 0 
Q 1100 0 847 248 
Q 594 497 594 1153 
L 594 3053 
L 172 3053 
L 172 3500 
L 594 3500 
L 594 4494 
L 1172 4494 
z
" transform="scale(0.015625)"/>
       <path id="DejaVuSans-65" d="M 3597 1894 
L 3597 1613 
L 953 1613 
Q 991 1019 1311 708 
Q 1631 397 2203 397 
Q 2534 397 2845 478 
Q 3156 559 3463 722 
L 3463 178 
Q 3153 47 2828 -22 
Q 2503 -91 2169 -91 
Q 1331 -91 842 396 
Q 353 884 353 1716 
Q 353 2575 817 3079 
Q 1281 3584 2069 3584 
Q 2775 3584 3186 3129 
Q 3597 2675 3597 1894 
z
M 3022 2063 
Q 3016 2534 2758 2815 
Q 2500 3097 2075 3097 
Q 1594 3097 1305 2825 
Q 1016 2553 972 2059 
L 3022 2063 
z
" transform="scale(0.015625)"/>
      </defs>
      <use xlink:href="#DejaVuSans-44"/>
      <use xlink:href="#DejaVuSans-61" transform="translate(77.001953 0)"/>
      <use xlink:href="#DejaVuSans-74" transform="translate(138.28125 0)"/>
      <use xlink:href="#DejaVuSans-65" transform="translate(177.490234 0)"/>
     </g>
    </g>
   </g>
   <g id="matplotlib.axis_2">
    <g id="ytick_1">
     <g id="line2d_11">
      <defs>
       <path id="ma5abe1962f" d="M 0 0 
L -3.5 0 
" style="stroke: #000000; stroke-width: 0.8"/>
      </defs>
      <g>
       <use xlink:href="#ma5abe1962f" x="108" y="369.392416" style="stroke: #000000; stroke-width: 0.8"/>
      </g>
     </g>
     <g id="text_12">
      <!-- 0.00 -->
      <g transform="translate(78.734375 373.191635) scale(0.1 -0.1)">
       <defs>
        <path id="DejaVuSans-2e" d="M 684 794 
L 1344 794 
L 1344 0 
L 684 0 
L 684 794 
z
" transform="scale(0.015625)"/>
       </defs>
       <use xlink:href="#DejaVuSans-30"/>
       <use xlink:href="#DejaVuSans-2e" transform="translate(63.623047 0)"/>
       <use xlink:href="#DejaVuSans-30" transform="translate(95.410156 0)"/>
       <use xlink:href="#DejaVuSans-30" transform="translate(159.033203 0)"/>
      </g>
     </g>
    </g>
    <g id="ytick_2">
     <g id="line2d_12">
      <g>
       <use xlink:href="#ma5abe1962f" x="108" y="313.337108" style="stroke: #000000; stroke-width: 0.8"/>
      </g>
     </g>
     <g id="text_13">
      <!-- 0.01 -->
      <g transform="translate(78.734375 317.136327) scale(0.1 -0.1)">
       <use xlink:href="#DejaVuSans-30"/>
       <use xlink:href="#DejaVuSans-2e" transform="translate(63.623047 0)"/>
       <use xlink:href="#DejaVuSans-30" transform="translate(95.410156 0)"/>
       <use xlink:href="#DejaVuSans-31" transform="translate(159.033203 0)"/>
      </g>
     </g>
    </g>
    <g id="ytick_3">
     <g id="line2d_13">
      <g>
       <use xlink:href="#ma5abe1962f" x="108" y="257.2818" style="stroke: #000000; stroke-width: 0.8"/>
      </g>
     </g>
     <g id="text_14">
      <!-- 0.02 -->
      <g transform="translate(78.734375 261.081019) scale(0.1 -0.1)">
       <use xlink:href="#DejaVuSans-30"/>
       <use xlink:href="#DejaVuSans-2e" transform="translate(63.623047 0)"/>
       <use xlink:href="#DejaVuSans-30" transform="translate(95.410156 0)"/>
       <use xlink:href="#DejaVuSans-32" transform="translate(159.033203 0)"/>
      </g>
     </g>
    </g>
    <g id="ytick_4">
     <g id="line2d_14">
      <g>
       <use xlink:href="#ma5abe1962f" x="108" y="201.226493" style="stroke: #000000; stroke-width: 0.8"/>
      </g>
     </g>
     <g id="text_15">
      <!-- 0.03 -->
      <g transform="translate(78.734375 205.025711) scale(0.1 -0.1)">
       <use xlink:href="#DejaVuSans-30"/>
       <use xlink:href="#DejaVuSans-2e" transform="translate(63.623047 0)"/>
       <use xlink:href="#DejaVuSans-30" transform="translate(95.410156 0)"/>
       <use xlink:href="#DejaVuSans-33" transform="translate(159.033203 0)"/>
      </g>
     </g>
    </g>
    <g id="ytick_5">
     <g id="line2d_15">
      <g>
       <use xlink:href="#ma5abe1962f" x="108" y="145.171185" style="stroke: #000000; stroke-width: 0.8"/>
      </g>
     </g>
     <g id="text_16">
      <!-- 0.04 -->
      <g transform="translate(78.734375 148.970403) scale(0.1 -0.1)">
       <use xlink:href="#DejaVuSans-30"/>
       <use xlink:href="#DejaVuSans-2e" transform="translate(63.623047 0)"/>
       <use xlink:href="#DejaVuSans-30" transform="translate(95.410156 0)"/>
       <use xlink:href="#DejaVuSans-34" transform="translate(159.033203 0)"/>
      </g>
     </g>
    </g>
    <g id="ytick_6">
     <g id="line2d_16">
      <g>
       <use xlink:href="#ma5abe1962f" x="108" y="89.115877" style="stroke: #000000; stroke-width: 0.8"/>
      </g>
     </g>
     <g id="text_17">
      <!-- 0.05 -->
      <g transform="translate(78.734375 92.915095) scale(0.1 -0.1)">
       <use xlink:href="#DejaVuSans-30"/>
       <use xlink:href="#DejaVuSans-2e" transform="translate(63.623047 0)"/>
       <use xlink:href="#DejaVuSans-30" transform="translate(95.410156 0)"/>
       <use xlink:href="#DejaVuSans-35" transform="translate(159.033203 0)"/>
      </g>
     </g>
    </g>
    <g id="text_18">
     <!-- Volatility -->
     <g transform="translate(72.654687 239.752187) rotate(-90) scale(0.1 -0.1)">
      <defs>
       <path id="DejaVuSans-56" d="M 1831 0 
L 50 4666 
L 709 4666 
L 2188 738 
L 3669 4666 
L 4325 4666 
L 2547 0 
L 1831 0 
z
" transform="scale(0.015625)"/>
       <path id="DejaVuSans-6f" d="M 1959 3097 
Q 1497 3097 1228 2736 
Q 959 2375 959 1747 
Q 959 1119 1226 758 
Q 1494 397 1959 397 
Q 2419 397 2687 759 
Q 2956 1122 2956 1747 
Q 2956 2369 2687 2733 
Q 2419 3097 1959 3097 
z
M 1959 3584 
Q 2709 3584 3137 3096 
Q 3566 2609 3566 1747 
Q 3566 888 3137 398 
Q 2709 -91 1959 -91 
Q 1206 -91 779 398 
Q 353 888 353 1747 
Q 353 2609 779 3096 
Q 1206 3584 1959 3584 
z
" transform="scale(0.015625)"/>
       <path id="DejaVuSans-6c" d="M 603 4863 
L 1178 4863 
L 1178 0 
L 603 0 
L 603 4863 
z
" transform="scale(0.015625)"/>
       <path id="DejaVuSans-69" d="M 603 3500 
L 1178 3500 
L 1178 0 
L 603 0 
L 603 3500 
z
M 603 4863 
L 1178 4863 
L 1178 4134 
L 603 4134 
L 603 4863 
z
" transform="scale(0.015625)"/>
       <path id="DejaVuSans-79" d="M 2059 -325 
Q 1816 -950 1584 -1140 
Q 1353 -1331 966 -1331 
L 506 -1331 
L 506 -850 
L 844 -850 
Q 1081 -850 1212 -737 
Q 1344 -625 1503 -206 
L 1606 56 
L 191 3500 
L 800 3500 
L 1894 763 
L 2988 3500 
L 3597 3500 
L 2059 -325 
z
" transform="scale(0.015625)"/>
      </defs>
      <use xlink:href="#DejaVuSans-56"/>
      <use xlink:href="#DejaVuSans-6f" transform="translate(60.658203 0)"/>
      <use xlink:href="#DejaVuSans-6c" transform="translate(121.839844 0)"/>
      <use xlink:href="#DejaVuSans-61" transform="translate(149.623047 0)"/>
      <use xlink:href="#DejaVuSans-74" transform="translate(210.902344 0)"/>
      <use xlink:href="#DejaVuSans-69" transform="translate(250.111328 0)"/>
      <use xlink:href="#DejaVuSans-6c" transform="translate(277.894531 0)"/>
      <use xlink:href="#DejaVuSans-69" transform="translate(305.677734 0)"/>
      <use xlink:href="#DejaVuSans-74" transform="translate(333.460938 0)"/>
      <use xlink:href="#DejaVuSans-79" transform="translate(372.669922 0)"/>
     </g>
    </g>
   </g>
   <g id="line2d_17">
    <path d="M 138.436364 283.67068 
L 138.822857 341.311152 
L 139.209351 343.993921 
L 140.755325 281.066455 
L 141.141818 308.418378 
L 141.528312 325.68617 
L 141.914805 337.667403 
L 142.301299 311.028696 
L 143.460779 316.663178 
L 143.847273 294.741878 
L 144.233766 318.712493 
L 144.62026 350.266819 
L 145.006753 353.447133 
L 146.166234 322.464048 
L 146.552727 359.988413 
L 146.939221 337.26919 
L 147.325714 299.904134 
L 147.712208 334.584089 
L 148.871688 328.091265 
L 149.258182 332.987658 
L 149.644675 300.154114 
L 150.031169 348.330747 
L 150.417662 326.559232 
L 151.577143 329.282811 
L 151.963636 349.182105 
L 152.35013 333.46567 
L 152.736623 333.477075 
L 153.123117 365.845073 
L 154.282597 354.041864 
L 155.055584 291.478327 
L 155.442078 357.905155 
L 155.828571 368.42884 
L 156.988052 354.222856 
L 157.374545 356.495545 
L 157.761039 344.648913 
L 158.147532 351.714508 
L 158.534026 350.136298 
L 159.693506 313.372898 
L 160.08 349.269123 
L 160.466494 312.529905 
L 160.852987 360.021952 
L 161.239481 331.779289 
L 162.398961 357.074962 
L 162.785455 327.368698 
L 163.171948 283.913395 
L 163.558442 168.952122 
L 163.944935 323.616078 
L 165.490909 211.603288 
L 165.877403 257.591446 
L 166.263896 269.943315 
L 166.65039 366.405059 
L 167.80987 298.418914 
L 168.196364 340.211223 
L 168.582857 343.440788 
L 169.355844 306.354989 
L 170.515325 304.152087 
L 170.901818 310.741657 
L 171.288312 234.81854 
L 171.674805 352.671087 
L 172.061299 280.542291 
L 173.220779 279.803747 
L 173.607273 342.349751 
L 173.993766 323.315836 
L 174.38026 339.801102 
L 174.766753 315.445837 
L 175.926234 269.540485 
L 176.312727 290.511026 
L 176.699221 272.71291 
L 177.085714 324.670298 
L 177.472208 320.31546 
L 178.631688 278.120192 
L 179.018182 333.926831 
L 179.404675 332.142699 
L 179.791169 360.821989 
L 180.177662 368.636171 
L 181.337143 277.099238 
L 181.723636 342.955639 
L 182.11013 357.070822 
L 182.496623 340.213645 
L 182.883117 350.110296 
L 184.042597 264.207585 
L 184.429091 352.406507 
L 184.815584 168.010683 
L 185.202078 302.81819 
L 185.588571 300.984126 
L 186.748052 300.764179 
L 187.521039 247.14966 
L 187.907532 261.355453 
L 188.294026 367.779244 
L 189.453506 304.188958 
L 189.84 361.540281 
L 190.226494 326.66295 
L 190.612987 313.176505 
L 190.999481 293.613775 
L 192.158961 304.476265 
L 192.545455 342.466538 
L 192.931948 304.193291 
L 193.318442 347.314014 
L 193.704935 331.186556 
L 194.864416 337.888646 
L 195.250909 279.522012 
L 195.637403 360.503883 
L 196.41039 355.972146 
L 197.56987 343.572576 
L 197.956364 306.564791 
L 198.342857 359.361047 
L 198.729351 365.892651 
L 199.115844 320.078033 
L 200.275325 358.53171 
L 200.661818 353.790763 
L 201.048312 324.65492 
L 201.434805 362.184026 
L 201.821299 362.297002 
L 202.980779 344.902995 
L 203.367273 297.425951 
L 203.753766 359.463764 
L 204.14026 337.210201 
L 204.526753 349.676052 
L 205.686234 347.452755 
L 206.459221 365.213307 
L 206.845714 349.602853 
L 208.391688 320.710095 
L 208.778182 356.892793 
L 209.164675 361.877372 
L 209.551169 333.414866 
L 211.097143 286.06748 
L 211.483636 329.830654 
L 211.87013 337.476725 
L 212.256623 286.776714 
L 212.643117 338.691825 
L 213.802597 332.528645 
L 214.189091 367.062236 
L 214.962078 348.312669 
L 215.348571 328.942959 
L 216.894545 323.968253 
L 217.281039 291.815115 
L 217.667532 367.617253 
L 218.054026 352.490882 
L 219.213506 349.160329 
L 219.6 361.04048 
L 219.986494 223.573973 
L 220.372987 314.944166 
L 220.759481 260.082438 
L 221.918961 280.128287 
L 222.305455 292.021844 
L 222.691948 363.740673 
L 223.078442 308.881519 
L 223.464935 347.587335 
L 224.624416 328.067855 
L 225.010909 363.147051 
L 225.397403 367.457134 
L 225.783896 360.08121 
L 226.17039 343.046578 
L 227.716364 366.20042 
L 228.102857 367.596119 
L 228.489351 344.58451 
L 228.875844 358.985095 
L 230.035325 325.877225 
L 230.421818 362.354531 
L 230.808312 306.119068 
L 231.194805 230.468399 
L 231.581299 342.701479 
L 232.740779 237.594156 
L 233.127273 323.910838 
L 233.513766 295.666692 
L 233.90026 293.672694 
L 234.286753 261.158934 
L 235.446234 339.270358 
L 235.832727 290.604498 
L 236.219221 335.690704 
L 236.605714 311.421037 
L 236.992208 363.703457 
L 238.151688 333.119441 
L 238.538182 360.586707 
L 238.924675 353.275223 
L 239.311169 286.035114 
L 239.697662 366.01287 
L 240.857143 330.150565 
L 241.243636 326.453343 
L 241.63013 338.661048 
L 242.016623 340.094681 
L 242.403117 276.932472 
L 243.562597 364.524704 
L 243.949091 351.662992 
L 244.335584 349.122998 
L 244.722078 303.494781 
L 246.268052 289.037194 
L 246.654545 363.932561 
L 247.041039 361.128923 
L 247.814026 326.284246 
L 248.973506 368.293142 
L 249.36 350.955435 
L 249.746494 346.431696 
L 250.132987 307.546116 
L 250.519481 349.199472 
L 251.678961 339.567191 
L 252.065455 331.131422 
L 252.451948 317.468241 
L 252.838442 317.522602 
L 253.224935 308.46366 
L 254.384416 359.410728 
L 254.770909 368.187685 
L 255.157403 364.650764 
L 255.543896 331.610958 
L 255.93039 328.916475 
L 257.08987 354.008949 
L 257.476364 331.831226 
L 257.862857 365.450633 
L 258.249351 323.806525 
L 258.635844 328.212528 
L 259.795325 310.587734 
L 260.181818 320.558403 
L 260.568312 247.848855 
L 260.954805 301.567432 
L 261.341299 286.386954 
L 262.500779 355.192104 
L 262.887273 321.444064 
L 263.273766 352.868706 
L 263.66026 310.537598 
L 264.046753 364.996699 
L 265.206234 314.107939 
L 265.592727 357.466424 
L 265.979221 358.881792 
L 266.365714 362.863944 
L 266.752208 365.084055 
L 268.298182 366.631845 
L 268.684675 361.287412 
L 269.071169 349.014639 
L 269.457662 320.090124 
L 270.617143 364.924516 
L 271.003636 368.411323 
L 271.39013 359.159285 
L 271.776623 343.37456 
L 272.163117 358.481119 
L 273.322597 359.226419 
L 273.709091 358.104392 
L 274.095584 339.096247 
L 274.482078 366.949509 
L 274.868571 295.335713 
L 276.028052 291.446652 
L 276.414545 340.740273 
L 276.801039 363.316744 
L 277.187532 336.91155 
L 277.574026 350.753621 
L 278.733506 356.430768 
L 279.12 367.838069 
L 279.506494 361.95231 
L 279.892987 340.198633 
L 280.279481 327.507355 
L 281.825455 358.047373 
L 282.211948 350.595056 
L 282.598442 321.196676 
L 282.984935 306.527339 
L 284.144416 350.08003 
L 284.530909 349.644097 
L 284.917403 362.866196 
L 285.303896 351.075957 
L 285.69039 326.973076 
L 286.84987 279.721864 
L 287.236364 285.035772 
L 288.009351 358.099216 
L 288.395844 312.8084 
L 289.555325 356.054758 
L 289.941818 342.91428 
L 290.328312 368.348126 
L 290.714805 345.8641 
L 291.101299 339.006486 
L 292.260779 359.052995 
L 292.647273 323.595505 
L 293.033766 343.365151 
L 293.42026 335.829432 
L 293.806753 360.009545 
L 294.966234 364.121282 
L 295.352727 363.830685 
L 295.739221 362.245698 
L 296.125714 346.197835 
L 296.512208 360.38987 
L 297.671688 354.720326 
L 298.444675 308.815339 
L 298.831169 362.352393 
L 299.217662 323.939409 
L 300.377143 321.814486 
L 300.763636 361.014279 
L 301.15013 356.961346 
L 301.923117 320.237137 
L 303.082597 345.303661 
L 303.469091 361.824877 
L 303.855584 367.645593 
L 304.242078 353.480464 
L 304.628571 367.514099 
L 306.174545 350.326019 
L 306.561039 361.996224 
L 307.334026 325.935255 
L 308.493506 356.646001 
L 309.266494 322.091286 
L 309.652987 360.690694 
L 310.039481 318.087022 
L 311.198961 273.408545 
L 311.585455 364.836787 
L 311.971948 316.282331 
L 312.358442 301.780224 
L 312.744935 361.208662 
L 313.904416 353.807695 
L 314.290909 254.06242 
L 314.677403 360.603172 
L 315.063896 302.231313 
L 315.45039 305.343889 
L 316.60987 296.122893 
L 316.996364 310.705284 
L 317.382857 346.441122 
L 317.769351 323.06804 
L 318.155844 358.654605 
L 319.315325 330.773442 
L 319.701818 355.828732 
L 320.088312 352.475175 
L 320.474805 274.551482 
L 320.861299 327.729258 
L 322.020779 350.506821 
L 322.407273 328.101304 
L 322.793766 348.891193 
L 323.18026 352.624 
L 323.566753 363.376936 
L 324.726234 342.839217 
L 325.112727 359.20084 
L 325.499221 341.00401 
L 325.885714 314.563159 
L 326.272208 358.475949 
L 327.431688 359.311147 
L 327.818182 348.799875 
L 328.204675 333.290052 
L 328.591169 345.999211 
L 328.977662 348.507081 
L 330.137143 364.418114 
L 330.523636 349.745525 
L 330.91013 323.091664 
L 331.296623 366.305026 
L 331.683117 329.05108 
L 332.842597 369.332205 
L 333.229091 347.767514 
L 333.615584 354.789899 
L 334.002078 350.450985 
L 334.388571 361.546759 
L 335.548052 351.441963 
L 335.934545 360.11094 
L 336.321039 356.54885 
L 337.094026 240.53795 
L 338.253506 295.882407 
L 338.64 262.083627 
L 339.026494 302.767599 
L 339.412987 290.384435 
L 339.799481 321.832569 
L 340.958961 304.017413 
L 341.345455 254.503655 
L 341.731948 352.124333 
L 342.118442 328.993381 
L 342.504935 316.118775 
L 343.664416 317.943973 
L 344.050909 327.358059 
L 344.437403 278.491575 
L 344.823896 320.165382 
L 345.21039 311.425803 
L 346.36987 305.19006 
L 346.756364 270.613076 
L 347.142857 312.615494 
L 347.529351 334.613486 
L 349.075325 292.349714 
L 349.461818 363.727152 
L 349.848312 361.539507 
L 350.234805 352.608121 
L 350.621299 354.651925 
L 351.780779 333.775839 
L 352.167273 365.861845 
L 352.553766 259.617897 
L 352.94026 363.987343 
L 353.326753 346.642723 
L 354.486234 361.308781 
L 354.872727 318.279563 
L 355.259221 353.619587 
L 355.645714 288.975323 
L 356.032208 364.79789 
L 357.578182 265.358822 
L 357.964675 314.812532 
L 358.351169 307.178057 
L 358.737662 262.349149 
L 359.897143 353.876766 
L 360.283636 300.74376 
L 360.67013 360.996719 
L 361.056623 339.130214 
L 361.443117 234.545989 
L 362.602597 264.513918 
L 362.989091 331.053093 
L 363.375584 316.821435 
L 363.762078 230.972327 
L 364.148571 340.559298 
L 365.308052 348.603812 
L 365.694545 322.495937 
L 366.081039 288.600708 
L 366.467532 266.913084 
L 366.854026 262.036996 
L 368.013506 347.822404 
L 368.4 281.701078 
L 368.786494 364.454881 
L 369.172987 249.431232 
L 369.559481 329.077588 
L 371.105455 312.24558 
L 371.491948 265.220669 
L 371.878442 286.17211 
L 372.264935 245.364 
L 373.424416 355.683528 
L 373.810909 281.977245 
L 374.197403 265.852489 
L 374.583896 339.859567 
L 374.97039 324.740548 
L 376.12987 201.436177 
L 376.516364 328.696081 
L 376.902857 227.159914 
L 377.289351 345.2827 
L 377.675844 296.261179 
L 378.835325 327.638633 
L 379.221818 250.652576 
L 379.608312 245.303179 
L 379.994805 300.600268 
L 380.381299 304.397321 
L 381.540779 366.955437 
L 381.927273 306.382314 
L 382.313766 300.1717 
L 382.70026 289.55828 
L 383.086753 341.065538 
L 384.246234 329.483629 
L 384.632727 301.105566 
L 385.019221 334.001402 
L 385.405714 280.957732 
L 385.792208 350.308839 
L 386.951688 324.220995 
L 387.338182 298.588089 
L 387.724675 314.6576 
L 388.111169 345.600443 
L 388.497662 354.512243 
L 389.657143 273.978801 
L 390.043636 350.202987 
L 390.43013 307.100438 
L 390.816623 300.901348 
L 392.362597 368.243906 
L 392.749091 280.095958 
L 393.135584 365.92442 
L 393.908571 211.69716 
L 395.068052 337.543149 
L 395.454545 209.354491 
L 395.841039 357.644024 
L 396.227532 232.361595 
L 396.614026 162.216741 
L 397.773506 337.66961 
L 398.16 342.34312 
L 398.546494 204.448486 
L 398.932987 165.907856 
L 399.319481 337.494755 
L 400.478961 186.867889 
L 400.865455 355.631583 
L 401.251948 276.339327 
L 401.638442 362.123212 
L 402.024935 237.162069 
L 403.184416 347.226955 
L 403.570909 257.456006 
L 403.957403 138.25498 
L 404.343896 336.595203 
L 404.73039 368.573229 
L 405.88987 266.334748 
L 406.276364 323.685221 
L 406.662857 316.664632 
L 407.049351 259.029806 
L 407.435844 232.386971 
L 408.981818 334.110491 
L 409.368312 327.289837 
L 409.754805 267.017403 
L 410.141299 276.999763 
L 411.300779 351.833064 
L 411.687273 316.261337 
L 412.073766 308.557644 
L 412.46026 234.375107 
L 412.846753 203.791446 
L 414.006234 147.750146 
L 414.392727 348.198928 
L 414.779221 288.184777 
L 415.165714 184.117207 
L 415.552208 357.068904 
L 417.098182 233.836885 
L 417.484675 362.09173 
L 417.871169 316.212322 
L 418.257662 200.634901 
L 419.417143 352.701924 
L 419.803636 255.327241 
L 420.19013 365.401389 
L 420.576623 320.0757 
L 420.963117 310.542681 
L 422.509091 360.519582 
L 422.895584 349.398612 
L 423.282078 286.12947 
L 423.668571 364.73642 
L 424.828052 304.39948 
L 425.214545 317.334563 
L 425.601039 344.353301 
L 425.987532 352.558298 
L 426.374026 262.779571 
L 427.533506 322.313028 
L 427.92 216.622046 
L 428.306494 336.440282 
L 428.692987 314.384897 
L 429.079481 316.833305 
L 430.238961 362.025058 
L 430.625455 304.310196 
L 431.011948 224.657278 
L 431.398442 301.787956 
L 431.784935 290.310854 
L 432.944416 353.545228 
L 433.330909 331.92111 
L 433.717403 282.40881 
L 434.103896 365.033291 
L 434.49039 360.271831 
L 435.64987 362.451104 
L 436.036364 345.525424 
L 436.422857 251.299836 
L 436.809351 365.436485 
L 437.195844 273.122744 
L 438.355325 347.185119 
L 438.741818 358.88803 
L 439.128312 328.673139 
L 439.514805 356.68473 
L 439.901299 296.610675 
L 441.060779 248.131448 
L 441.447273 356.834024 
L 441.833766 353.069631 
L 442.22026 290.952865 
L 442.606753 177.298863 
L 443.766234 331.898848 
L 444.152727 307.230344 
L 444.539221 325.401695 
L 444.925714 352.622054 
L 445.312208 308.883202 
L 446.858182 346.390273 
L 447.244675 267.512707 
L 447.631169 332.45778 
L 448.017662 284.434874 
L 449.177143 310.373666 
L 449.563636 121.632528 
L 449.95013 350.438451 
L 450.336623 305.588756 
L 450.723117 328.9875 
L 451.882597 331.085934 
L 452.269091 305.847419 
L 452.655584 272.614753 
L 453.042078 321.951224 
L 453.428571 271.952449 
L 454.588052 311.126417 
L 454.974545 357.494055 
L 455.361039 260.190262 
L 455.747532 249.698771 
L 456.134026 284.292811 
L 457.293506 226.145466 
L 457.68 200.523886 
L 458.066494 358.069317 
L 458.452987 311.667107 
L 458.839481 210.177434 
L 459.998961 327.235082 
L 460.385455 332.729346 
L 460.771948 350.915403 
L 461.158442 225.698759 
L 461.544935 235.156162 
L 462.704416 222.888904 
L 463.090909 305.698114 
L 463.477403 331.866394 
L 463.863896 324.645194 
L 464.25039 237.955232 
L 465.40987 303.180204 
L 465.796364 278.942889 
L 466.182857 327.826633 
L 466.569351 335.19196 
L 466.955844 233.020726 
L 468.115325 327.449971 
L 468.501818 346.355545 
L 468.888312 227.461187 
L 469.274805 309.736062 
L 469.661299 293.567476 
L 470.820779 315.758351 
L 471.207273 338.100697 
L 471.593766 251.694351 
L 471.98026 66.96 
L 472.366753 317.831014 
L 473.526234 319.07755 
L 474.299221 322.943318 
L 474.685714 352.048432 
L 475.072208 342.781346 
L 476.231688 347.57982 
L 476.618182 293.781529 
L 477.004675 336.335154 
L 477.777662 367.805568 
L 478.937143 282.143995 
L 479.323636 360.462139 
L 479.71013 198.543476 
L 480.096623 364.526814 
L 480.483117 362.691731 
L 481.642597 268.177503 
L 482.029091 288.090499 
L 482.415584 358.943088 
L 482.802078 327.386601 
L 483.188571 328.042027 
L 484.348052 289.915445 
L 484.734545 328.678256 
L 485.121039 335.360633 
L 485.507532 227.922912 
L 485.894026 306.609116 
L 487.053506 318.671723 
L 487.44 363.580606 
L 487.826494 286.662952 
L 488.212987 287.791977 
L 488.599481 336.594688 
L 490.145455 346.646001 
L 490.531948 301.602139 
L 490.918442 272.357209 
L 491.304935 355.132125 
L 492.850909 346.922251 
L 493.623896 303.729923 
L 494.01039 242.798002 
L 495.16987 365.087762 
L 495.942857 297.823413 
L 496.329351 350.277101 
L 496.715844 347.032511 
L 498.261818 357.998888 
L 498.648312 281.469799 
L 499.034805 326.411059 
L 499.421299 264.335402 
L 500.580779 303.183653 
L 500.967273 365.402655 
L 501.353766 368.373631 
L 501.74026 308.024786 
L 502.126753 355.424824 
L 503.286234 296.220147 
L 503.672727 287.908684 
L 504.059221 311.105742 
L 504.445714 287.594362 
L 504.832208 311.04671 
L 505.991688 334.865752 
L 506.378182 297.695667 
L 506.764675 306.93243 
L 507.151169 319.676859 
L 507.537662 357.100243 
L 508.697143 305.581571 
L 509.083636 367.8204 
L 509.47013 353.86883 
L 509.856623 291.561344 
L 510.243117 353.858166 
L 511.789091 255.909657 
L 512.175584 360.564766 
L 512.562078 339.597348 
L 512.948571 310.010325 
L 514.108052 352.192939 
L 514.494545 352.348111 
L 514.881039 342.842034 
L 515.267532 327.050521 
L 515.654026 279.598818 
L 516.813506 365.541845 
L 517.2 282.811689 
L 517.586494 361.467339 
L 517.972987 264.951022 
L 519.518961 360.922978 
L 519.905455 277.784698 
L 520.291948 330.123643 
L 520.678442 271.802496 
L 521.064935 307.279705 
L 522.224416 319.621605 
L 522.997403 276.339277 
L 523.383896 352.687465 
L 523.77039 337.867146 
L 524.92987 360.168012 
L 525.316364 360.563252 
L 525.702857 290.147667 
L 526.089351 337.446528 
L 526.475844 289.04648 
L 527.635325 348.69668 
L 528.021818 336.802715 
L 528.408312 355.403937 
L 528.794805 349.365177 
L 530.340779 363.810313 
L 530.727273 369.160502 
L 531.113766 346.166268 
L 531.50026 295.536773 
L 531.886753 357.780431 
L 533.046234 350.890204 
L 533.432727 364.600492 
L 533.819221 368.92006 
L 534.205714 335.925492 
L 534.592208 364.331822 
L 535.751688 364.620921 
L 536.138182 280.056118 
L 536.524675 347.819053 
L 536.911169 260.772972 
L 537.297662 323.318678 
L 538.457143 367.227617 
L 538.843636 304.066136 
L 539.23013 330.025259 
L 539.616623 328.780871 
L 540.003117 266.776677 
L 541.162597 366.858591 
L 541.549091 343.663366 
L 541.935584 344.313615 
L 542.322078 359.873888 
L 542.708571 360.510161 
L 543.868052 352.834822 
L 544.254545 333.527603 
L 544.641039 303.131205 
L 545.027532 316.696354 
L 545.414026 361.281728 
L 546.573506 368.523435 
L 546.96 306.13138 
L 547.346494 328.216842 
L 547.732987 320.51517 
L 548.119481 296.718512 
L 549.665455 369.299379 
L 550.051948 335.045377 
L 550.824935 288.505655 
L 551.984416 358.149983 
L 552.370909 356.213029 
L 552.757403 347.983218 
L 553.143896 334.808635 
L 553.53039 362.960608 
L 554.68987 317.384458 
L 555.076364 330.666198 
L 555.462857 364.801082 
L 555.849351 301.539817 
L 556.235844 348.773164 
L 557.781818 342.786689 
L 558.168312 339.912343 
L 558.554805 348.629914 
L 558.941299 326.295556 
L 560.100779 344.184653 
L 560.487273 305.541221 
L 560.873766 367.407268 
L 561.26026 344.371848 
L 561.646753 301.036536 
L 562.806234 362.834061 
L 563.579221 358.348098 
L 563.965714 324.805656 
L 564.352208 353.309017 
L 565.511688 355.927142 
L 565.898182 331.725557 
L 566.284675 328.001697 
L 566.671169 322.112766 
L 567.057662 363.647149 
L 568.217143 347.822526 
L 568.603636 329.637544 
L 568.99013 356.190678 
L 569.376623 331.387882 
L 569.763117 367.576022 
L 570.922597 346.824325 
L 571.309091 353.636748 
L 571.695584 368.520983 
L 572.082078 333.262621 
L 572.468571 314.293578 
L 573.628052 361.165517 
L 574.014545 354.433219 
L 574.401039 291.272545 
L 574.787532 355.091443 
L 575.174026 339.603741 
L 576.333506 319.034534 
L 576.72 345.696761 
L 577.106494 329.79711 
L 577.492987 367.987229 
L 577.879481 363.39298 
L 579.038961 337.250288 
L 579.425455 304.266643 
L 579.811948 326.879594 
L 580.198442 325.989868 
L 580.584935 368.558777 
L 581.744416 330.963019 
L 582.130909 353.801598 
L 582.517403 307.819363 
L 582.903896 293.441105 
L 583.29039 331.860582 
L 584.44987 334.385433 
L 584.836364 288.649997 
L 585.222857 347.946516 
L 585.609351 360.43366 
L 585.995844 359.316482 
L 587.541818 345.832434 
L 587.928312 330.176039 
L 588.314805 351.362531 
L 588.701299 361.401135 
L 589.860779 331.829934 
L 590.247273 337.372625 
L 590.633766 362.436775 
L 591.02026 322.336254 
L 591.406753 300.813502 
L 592.566234 365.350624 
L 592.952727 357.321861 
L 593.725714 276.694206 
L 594.112208 356.50963 
L 595.271688 346.88635 
L 595.658182 286.183063 
L 596.044675 368.107111 
L 596.431169 336.455045 
L 596.817662 354.183144 
L 597.977143 368.947579 
L 598.363636 291.815311 
L 599.136623 362.07781 
L 599.523117 303.551803 
L 600.682597 334.166822 
L 601.455584 345.379284 
L 601.842078 334.268062 
L 602.228571 341.188184 
L 603.388052 310.31773 
L 603.774545 368.841658 
L 604.161039 293.771515 
L 604.547532 321.638715 
L 604.934026 298.397591 
L 606.093506 359.93582 
L 606.48 328.81096 
L 606.866494 288.429241 
L 607.252987 302.669381 
L 607.639481 342.419457 
L 608.798961 302.47094 
L 609.185455 333.213819 
L 609.571948 310.807866 
L 609.958442 264.664656 
L 610.344935 316.981432 
L 611.504416 359.574485 
L 611.890909 353.494611 
L 612.277403 363.762162 
L 613.05039 282.530507 
L 614.20987 364.705174 
L 614.596364 263.473823 
L 614.982857 360.447441 
L 615.369351 362.723472 
L 615.755844 362.210435 
L 616.915325 328.118266 
L 617.301818 358.05249 
L 617.688312 346.673702 
L 618.461299 366.047653 
L 619.620779 358.427693 
L 620.007273 363.901097 
L 620.393766 364.085751 
L 621.166753 336.563268 
L 622.326234 338.992566 
L 622.712727 366.202704 
L 623.485714 324.903502 
L 623.872208 346.482194 
L 625.031688 347.436384 
L 625.418182 343.669992 
L 625.804675 293.390273 
L 626.191169 354.573784 
L 626.577662 368.964819 
L 628.123636 336.604236 
L 628.51013 286.468991 
L 628.896623 311.942508 
L 629.283117 360.094484 
L 630.829091 345.721737 
L 631.215584 361.379763 
L 631.602078 367.317798 
L 631.988571 353.526113 
L 633.534545 337.571719 
L 633.921039 324.275661 
L 634.307532 350.14136 
L 634.694026 359.167876 
L 635.853506 290.825369 
L 636.24 361.101917 
L 636.626494 337.721505 
L 637.012987 365.629485 
L 637.399481 365.184196 
L 638.945455 348.437268 
L 639.331948 337.817991 
L 640.104935 300.790339 
L 641.264416 357.10567 
L 641.650909 353.040346 
L 642.037403 364.842636 
L 642.423896 339.982965 
L 642.81039 365.737556 
L 643.96987 327.191885 
L 644.356364 366.024398 
L 644.742857 278.376601 
L 645.129351 299.792588 
L 645.515844 309.818033 
L 646.675325 351.502566 
L 647.061818 356.456187 
L 647.448312 323.384087 
L 647.834805 366.195016 
L 648.221299 337.295284 
L 649.380779 364.070524 
L 649.767273 292.211966 
L 650.54026 336.855673 
L 650.926753 342.401716 
L 652.472727 335.627981 
L 652.859221 362.310425 
L 653.245714 252.220613 
L 653.632208 367.442347 
L 654.791688 348.125396 
L 655.178182 359.836004 
L 655.564675 360.090316 
L 656.337662 324.683123 
L 657.497143 362.699427 
L 657.883636 311.961797 
L 658.27013 340.647481 
L 658.656623 311.927974 
L 659.043117 332.676537 
L 660.202597 363.098144 
L 660.589091 306.949621 
L 660.975584 358.593969 
L 661.362078 353.275361 
L 661.748571 332.934066 
L 662.908052 334.087837 
L 663.294545 337.814874 
L 663.681039 319.70108 
L 664.067532 351.278858 
L 664.454026 361.526475 
L 665.613506 352.241759 
L 666 353.675919 
L 666.386494 321.220918 
L 666.772987 363.137268 
L 668.318961 358.09391 
L 668.705455 328.666017 
L 669.091948 363.27962 
L 669.478442 299.822269 
L 669.864935 307.518161 
L 671.024416 367.291702 
L 671.410909 361.295531 
L 671.797403 316.128784 
L 672.183896 327.814865 
L 672.57039 287.228749 
L 673.72987 301.598395 
L 674.116364 357.852365 
L 674.502857 336.895269 
L 674.889351 357.000646 
L 675.275844 320.079988 
L 676.435325 320.6617 
L 676.821818 302.722338 
L 677.208312 368.198595 
L 677.981299 312.454946 
L 679.140779 351.603737 
L 679.527273 280.513616 
L 679.913766 350.101585 
L 680.30026 318.454883 
L 680.686753 299.443304 
L 681.846234 311.806036 
L 682.232727 361.86679 
L 682.619221 369.36 
L 683.005714 340.927516 
L 683.392208 360.154382 
L 684.551688 368.039888 
L 684.938182 342.339564 
L 685.324675 304.099868 
L 685.711169 357.711195 
L 686.097662 362.866959 
L 687.257143 364.257772 
L 687.643636 355.385886 
L 688.03013 354.20301 
L 688.416623 327.865653 
L 688.803117 330.284988 
L 690.349091 367.997738 
L 690.735584 327.943177 
L 691.122078 335.798937 
L 691.508571 324.571349 
L 692.668052 363.139815 
L 693.054545 360.974635 
L 693.441039 303.370326 
L 693.827532 368.272042 
L 694.214026 363.137243 
L 695.373506 354.943788 
L 695.76 354.219619 
L 696.146494 321.926311 
L 696.532987 356.265224 
L 696.919481 367.184324 
L 698.078961 326.593147 
L 698.465455 355.276626 
L 699.238442 355.215175 
L 699.624935 360.6288 
L 700.784416 352.184114 
L 701.170909 347.38549 
L 701.557403 360.585128 
L 701.943896 364.308925 
L 702.33039 346.454649 
L 703.48987 354.414349 
L 703.876364 334.771426 
L 704.262857 340.963876 
L 705.035844 338.932027 
L 706.195325 363.696331 
L 706.581818 365.239735 
L 706.968312 312.461056 
L 707.354805 320.054613 
L 707.741299 338.551606 
L 708.900779 353.572512 
L 709.287273 333.69049 
L 709.673766 290.772546 
L 710.06026 325.405365 
L 710.446753 329.223702 
L 711.606234 309.221588 
L 711.992727 360.651534 
L 712.379221 238.104279 
L 712.765714 340.490578 
L 713.152208 307.566538 
L 714.311688 364.835174 
L 714.698182 341.518934 
L 715.084675 281.553719 
L 715.471169 292.102285 
L 715.857662 265.393647 
L 717.017143 198.832676 
L 717.403636 311.650373 
L 717.79013 325.866835 
L 718.176623 241.692099 
L 718.563117 343.266269 
L 719.722597 369.151173 
L 720.109091 275.739543 
L 720.495584 347.999042 
L 720.882078 279.679013 
L 721.268571 358.249512 
L 722.428052 315.15707 
L 722.814545 358.256759 
L 723.201039 345.676995 
L 723.587532 319.094272 
L 723.974026 305.388543 
L 725.133506 351.686189 
L 725.52 360.457581 
L 725.906494 335.79305 
L 726.292987 369.171887 
L 726.679481 313.099056 
L 728.225455 249.557309 
L 728.611948 360.40246 
L 728.998442 352.448908 
L 729.384935 271.795071 
L 730.544416 304.852825 
L 730.930909 344.376834 
L 731.317403 309.925693 
L 731.703896 327.533827 
L 732.09039 339.161246 
L 733.636364 367.909902 
L 734.022857 353.132996 
L 734.409351 275.027278 
L 734.795844 358.50168 
L 735.955325 353.667048 
L 736.341818 355.333915 
L 736.728312 358.949808 
L 737.114805 346.799432 
L 737.501299 362.363255 
L 738.660779 345.694511 
L 739.047273 316.880633 
L 739.433766 368.616754 
L 739.82026 359.959364 
L 740.206753 319.333479 
L 741.366234 315.398351 
L 741.752727 315.33987 
L 742.139221 329.659271 
L 742.525714 357.776479 
L 742.912208 335.570819 
L 744.071688 326.352809 
L 744.458182 326.574519 
L 744.844675 343.224926 
L 745.231169 368.432889 
L 745.617662 347.173566 
L 746.777143 359.165446 
L 747.163636 366.72977 
L 747.163636 366.72977 
" clip-path="url(#p0927427028)" style="fill: none; stroke: #000000; stroke-width: 1.5; stroke-linecap: square"/>
   </g>
   <g id="line2d_18">
    <path d="M 138.436364 269.35265 
L 138.822857 282.628246 
L 139.209351 285.985278 
L 140.755325 290.873996 
L 141.141818 301.265166 
L 141.528312 289.571415 
L 141.914805 297.006742 
L 142.301299 288.289711 
L 143.460779 297.466307 
L 143.847273 290.022221 
L 144.62026 310.25069 
L 145.006753 301.070998 
L 146.166234 306.05119 
L 146.552727 317.6693 
L 146.939221 311.6362 
L 147.325714 319.122474 
L 147.712208 312.118746 
L 148.871688 305.572282 
L 149.258182 317.356046 
L 149.644675 314.09811 
L 150.031169 320.963128 
L 150.417662 315.352929 
L 151.577143 319.228717 
L 151.963636 323.764202 
L 152.35013 324.802164 
L 152.736623 329.990061 
L 153.123117 333.290605 
L 154.282597 331.085838 
L 154.669091 335.142328 
L 155.055584 328.716778 
L 155.442078 333.895986 
L 155.828571 328.465609 
L 156.988052 321.726222 
L 157.374545 327.907824 
L 157.761039 331.08067 
L 158.147532 326.504021 
L 158.534026 329.404487 
L 159.693506 332.187253 
L 160.08 336.555345 
L 160.852987 337.633362 
L 161.239481 332.362755 
L 162.398961 338.924964 
L 162.785455 328.098304 
L 163.558442 330.780516 
L 163.944935 312.787296 
L 165.490909 299.068455 
L 166.263896 305.329767 
L 166.65039 306.13225 
L 167.80987 285.48565 
L 168.196364 310.308294 
L 168.582857 312.549014 
L 168.969351 310.768042 
L 169.355844 307.815618 
L 170.515325 306.738069 
L 170.901818 301.969952 
L 171.288312 304.252275 
L 171.674805 298.778891 
L 172.061299 286.138768 
L 173.607273 306.994973 
L 173.993766 296.580447 
L 174.766753 301.342743 
L 175.926234 294.802873 
L 176.312727 301.889649 
L 176.699221 297.481457 
L 177.085714 300.815504 
L 177.472208 308.088179 
L 179.018182 318.718695 
L 179.404675 305.563313 
L 179.791169 299.874535 
L 180.177662 287.03507 
L 181.337143 281.206542 
L 181.723636 291.24723 
L 182.11013 284.25824 
L 182.496623 280.527055 
L 182.883117 290.098801 
L 184.042597 293.791291 
L 184.429091 291.276407 
L 184.815584 269.162246 
L 185.202078 270.313713 
L 185.588571 263.581731 
L 186.748052 263.868434 
L 187.134545 267.972607 
L 188.294026 303.826857 
L 189.453506 291.963814 
L 189.84 311.592238 
L 190.226494 305.554961 
L 190.612987 322.951419 
L 190.999481 318.284637 
L 192.158961 326.575509 
L 192.545455 332.005823 
L 193.318442 314.828915 
L 193.704935 316.98465 
L 194.864416 310.930182 
L 195.250909 315.65748 
L 195.637403 323.418351 
L 196.41039 312.810831 
L 197.56987 318.641514 
L 197.956364 319.700452 
L 198.342857 325.783005 
L 198.729351 322.885029 
L 199.115844 314.796224 
L 200.275325 327.199989 
L 200.661818 319.339999 
L 201.048312 323.772247 
L 201.434805 319.788701 
L 201.821299 308.38859 
L 203.367273 300.419785 
L 203.753766 311.523786 
L 204.14026 310.066112 
L 204.526753 318.37417 
L 205.686234 316.329377 
L 206.459221 298.795153 
L 206.845714 304.341578 
L 208.391688 319.228702 
L 208.778182 329.11881 
L 209.164675 317.128727 
L 209.551169 317.057373 
L 211.097143 328.105312 
L 211.483636 320.687195 
L 211.87013 317.433718 
L 212.256623 320.270856 
L 212.643117 329.667559 
L 213.802597 331.649319 
L 214.575584 317.111823 
L 214.962078 329.610467 
L 215.348571 327.57866 
L 216.894545 325.017172 
L 217.667532 334.827701 
L 218.054026 333.981496 
L 219.213506 330.350045 
L 219.6 329.54114 
L 219.986494 324.666085 
L 220.372987 304.015246 
L 220.759481 302.854899 
L 221.918961 306.652316 
L 222.305455 306.971214 
L 222.691948 314.715394 
L 223.078442 309.237495 
L 223.464935 325.05405 
L 224.624416 332.84586 
L 225.010909 336.777572 
L 225.783896 325.473888 
L 226.17039 332.154525 
L 227.716364 339.080085 
L 228.489351 320.000013 
L 228.875844 320.018797 
L 230.035325 313.598289 
L 230.421818 312.726289 
L 230.808312 307.200527 
L 231.194805 322.557507 
L 231.581299 303.646523 
L 232.740779 285.150323 
L 233.127273 311.280904 
L 233.513766 307.290321 
L 233.90026 296.306686 
L 234.286753 289.643965 
L 235.446234 299.031905 
L 235.832727 294.717501 
L 236.219221 303.117796 
L 236.605714 307.445752 
L 236.992208 316.597567 
L 238.151688 316.965862 
L 238.538182 329.241491 
L 238.924675 320.614755 
L 239.311169 327.623536 
L 239.697662 322.213973 
L 240.857143 309.040601 
L 241.243636 324.769514 
L 242.016623 310.280755 
L 242.403117 313.554509 
L 243.562597 325.344078 
L 243.949091 309.275944 
L 244.335584 309.726186 
L 244.722078 318.390573 
L 246.654545 333.836401 
L 247.041039 322.835527 
L 247.427532 327.624909 
L 247.814026 335.491999 
L 248.973506 340.104445 
L 249.36 330.078526 
L 249.746494 334.577971 
L 250.132987 330.672349 
L 250.519481 335.419671 
L 251.678961 336.636971 
L 252.065455 330.98398 
L 252.451948 322.337309 
L 252.838442 326.857878 
L 253.224935 322.534766 
L 254.384416 325.687949 
L 254.770909 323.175605 
L 255.157403 315.442821 
L 255.543896 314.352795 
L 255.93039 324.598202 
L 257.08987 320.723123 
L 257.476364 320.017946 
L 257.862857 319.983793 
L 258.249351 316.880339 
L 258.635844 329.243918 
L 259.795325 334.236343 
L 260.181818 325.41867 
L 260.954805 299.323129 
L 261.341299 303.271468 
L 262.500779 320.760356 
L 262.887273 310.886042 
L 263.273766 306.589263 
L 263.66026 295.827198 
L 264.046753 310.096068 
L 265.206234 302.089273 
L 265.592727 323.198497 
L 265.979221 315.559496 
L 266.752208 328.467989 
L 268.298182 330.891043 
L 268.684675 323.393939 
L 269.071169 327.621962 
L 269.457662 326.801888 
L 270.617143 334.657339 
L 271.003636 326.657088 
L 271.39013 324.667766 
L 271.776623 320.438697 
L 272.163117 331.563709 
L 273.709091 339.124262 
L 274.095584 334.646916 
L 274.482078 332.609434 
L 274.868571 327.34326 
L 276.028052 324.36727 
L 276.801039 330.872998 
L 277.187532 324.401381 
L 277.574026 332.283311 
L 278.733506 337.112648 
L 279.12 338.06748 
L 279.506494 338.687027 
L 280.279481 345.515599 
L 281.825455 347.382586 
L 282.211948 339.095209 
L 282.598442 340.948609 
L 282.984935 333.616039 
L 284.144416 337.212392 
L 284.530909 339.97463 
L 284.917403 331.559181 
L 285.303896 331.314256 
L 285.69039 328.943097 
L 286.84987 324.750444 
L 287.236364 315.959114 
L 287.622857 317.935685 
L 288.009351 326.48152 
L 288.395844 326.318088 
L 289.555325 332.323919 
L 289.941818 329.428783 
L 290.328312 324.068801 
L 290.714805 317.054507 
L 291.101299 328.946015 
L 292.260779 326.528612 
L 292.647273 316.807616 
L 293.033766 324.936891 
L 293.42026 324.081246 
L 293.806753 328.097202 
L 294.966234 331.665132 
L 295.352727 325.521348 
L 295.739221 327.619539 
L 296.512208 339.610209 
L 297.671688 340.813759 
L 298.058182 341.003414 
L 299.217662 323.142642 
L 300.763636 339.522303 
L 301.15013 336.462098 
L 301.536623 338.187286 
L 301.923117 331.558951 
L 303.082597 339.260322 
L 303.469091 343.831899 
L 303.855584 336.521305 
L 304.242078 337.63983 
L 304.628571 343.027798 
L 306.174545 337.489452 
L 306.561039 335.099763 
L 306.947532 330.313981 
L 307.334026 328.954462 
L 308.88 322.197142 
L 309.266494 324.667917 
L 309.652987 329.432905 
L 310.039481 321.397963 
L 311.198961 320.110188 
L 311.585455 310.468815 
L 311.971948 294.88447 
L 312.358442 317.744195 
L 312.744935 329.5828 
L 313.904416 325.027196 
L 314.290909 322.032689 
L 314.677403 315.104869 
L 315.063896 305.813263 
L 315.45039 316.857248 
L 316.60987 321.643789 
L 316.996364 318.098409 
L 317.382857 316.375458 
L 317.769351 317.03446 
L 318.155844 325.577009 
L 319.315325 322.605875 
L 319.701818 319.80549 
L 320.088312 312.862013 
L 320.474805 322.306555 
L 320.861299 335.096087 
L 322.020779 338.629841 
L 322.407273 339.034003 
L 322.793766 341.658777 
L 323.566753 344.71255 
L 324.726234 339.485101 
L 325.112727 342.511286 
L 325.499221 341.270584 
L 325.885714 335.134422 
L 326.272208 337.664805 
L 327.431688 338.385905 
L 327.818182 338.282162 
L 328.591169 343.95683 
L 328.977662 344.157657 
L 330.137143 342.802035 
L 330.91013 333.935701 
L 331.296623 328.741737 
L 331.683117 326.791397 
L 332.842597 337.747512 
L 333.229091 331.142471 
L 333.615584 337.022152 
L 334.002078 332.747836 
L 334.388571 334.975315 
L 335.548052 330.936157 
L 335.934545 327.019739 
L 336.321039 326.259762 
L 337.094026 330.791777 
L 338.253506 313.48765 
L 338.64 310.297153 
L 339.026494 308.770636 
L 339.412987 296.308288 
L 339.799481 303.240447 
L 340.958961 300.479514 
L 341.345455 307.585293 
L 341.731948 317.855022 
L 342.118442 315.599866 
L 342.504935 314.890565 
L 343.664416 326.473128 
L 344.050909 323.033063 
L 344.437403 315.476786 
L 344.823896 327.549124 
L 345.21039 322.14195 
L 346.756364 306.536937 
L 347.142857 311.940788 
L 347.529351 319.62086 
L 349.075325 326.195692 
L 349.461818 328.709028 
L 349.848312 319.499252 
L 350.234805 326.382236 
L 350.621299 325.093993 
L 351.780779 322.673079 
L 352.167273 330.187531 
L 352.94026 313.763457 
L 353.326753 299.352437 
L 354.486234 303.604049 
L 354.872727 294.240107 
L 355.259221 307.942055 
L 355.645714 309.378967 
L 356.032208 305.333134 
L 357.578182 291.412794 
L 357.964675 300.46274 
L 358.351169 285.615031 
L 358.737662 279.845209 
L 359.897143 276.384877 
L 360.283636 260.389872 
L 360.67013 269.985257 
L 361.056623 253.667517 
L 361.443117 262.251586 
L 362.989091 289.877444 
L 363.375584 293.290075 
L 363.762078 301.412511 
L 364.148571 297.655866 
L 365.308052 295.357228 
L 365.694545 299.079705 
L 366.081039 315.516525 
L 366.467532 326.534864 
L 366.854026 311.93196 
L 368.013506 291.019519 
L 368.4 277.283356 
L 368.786494 294.443886 
L 369.172987 289.766288 
L 369.559481 290.710488 
L 371.105455 275.003183 
L 371.491948 273.613742 
L 371.878442 267.866838 
L 372.264935 268.881558 
L 373.424416 282.539778 
L 373.810909 261.890407 
L 374.197403 256.229673 
L 374.583896 269.236493 
L 374.97039 267.088954 
L 376.12987 259.767279 
L 376.516364 260.132561 
L 376.902857 244.888576 
L 377.289351 264.983911 
L 377.675844 255.020404 
L 378.835325 260.360606 
L 379.221818 252.254438 
L 379.994805 289.737752 
L 380.381299 297.678377 
L 381.540779 309.248296 
L 381.927273 296.895298 
L 382.313766 312.548607 
L 382.70026 308.163746 
L 383.086753 319.64715 
L 384.246234 326.529649 
L 385.019221 335.278167 
L 385.792208 317.874604 
L 386.951688 321.897091 
L 387.338182 330.667687 
L 388.111169 309.144668 
L 388.497662 309.178236 
L 389.657143 305.170221 
L 390.043636 297.582929 
L 390.43013 281.623236 
L 390.816623 298.012221 
L 392.362597 298.952772 
L 392.749091 275.172141 
L 393.135584 300.297958 
L 393.522078 286.139405 
L 393.908571 294.636066 
L 395.068052 275.379116 
L 395.454545 265.750622 
L 395.841039 269.673078 
L 396.227532 244.406676 
L 396.614026 279.502615 
L 397.773506 273.277424 
L 398.16 257.990316 
L 398.546494 256.732684 
L 398.932987 286.981893 
L 399.319481 272.881998 
L 400.478961 248.042607 
L 400.865455 253.149554 
L 401.251948 229.479693 
L 401.638442 250.333022 
L 402.024935 226.180124 
L 403.184416 262.563065 
L 403.570909 253.817556 
L 403.957403 273.515492 
L 404.343896 261.795152 
L 404.73039 238.733601 
L 405.88987 224.76814 
L 406.276364 267.184981 
L 406.662857 260.610138 
L 407.049351 265.196262 
L 407.435844 278.241338 
L 408.981818 290.328772 
L 409.368312 278.799531 
L 409.754805 273.844063 
L 410.141299 286.213605 
L 411.300779 282.270345 
L 411.687273 282.129902 
L 412.073766 296.852568 
L 412.46026 294.394291 
L 412.846753 287.223454 
L 414.006234 271.719923 
L 414.779221 220.937013 
L 415.165714 249.40488 
L 415.552208 248.863926 
L 417.098182 217.071191 
L 417.484675 255.675594 
L 417.871169 231.231274 
L 418.257662 250.80141 
L 419.417143 271.89976 
L 419.803636 254.686559 
L 420.19013 261.73688 
L 420.576623 227.765722 
L 420.963117 245.719678 
L 422.509091 256.160333 
L 422.895584 252.727879 
L 423.282078 260.565836 
L 423.668571 279.745527 
L 424.828052 261.364404 
L 425.214545 265.031595 
L 425.601039 259.692176 
L 425.987532 250.851903 
L 426.374026 252.482451 
L 427.533506 284.792981 
L 427.92 277.778045 
L 428.306494 285.100096 
L 428.692987 285.859134 
L 429.079481 296.687134 
L 430.238961 293.982227 
L 430.625455 286.254137 
L 431.011948 291.74774 
L 431.398442 305.963323 
L 431.784935 310.5423 
L 432.944416 316.040403 
L 433.330909 301.383626 
L 433.717403 293.673964 
L 434.103896 305.049162 
L 434.49039 294.321584 
L 435.64987 288.691589 
L 436.036364 283.232327 
L 436.422857 286.143451 
L 436.809351 306.822371 
L 437.195844 291.499878 
L 438.355325 308.051013 
L 438.741818 307.380433 
L 439.128312 307.017458 
L 439.901299 312.237723 
L 441.060779 309.598408 
L 441.447273 297.405342 
L 441.833766 278.291289 
L 442.22026 282.783234 
L 442.606753 301.550762 
L 443.766234 291.730564 
L 444.152727 270.63507 
L 444.539221 272.464416 
L 444.925714 269.660413 
L 445.312208 261.311791 
L 446.858182 270.331213 
L 447.244675 257.664626 
L 447.631169 277.990658 
L 449.177143 292.678487 
L 449.563636 294.038265 
L 449.95013 282.897809 
L 450.336623 266.274046 
L 450.723117 276.094854 
L 451.882597 267.680569 
L 452.269091 272.656585 
L 452.655584 272.725632 
L 453.042078 271.015314 
L 453.428571 260.989318 
L 454.588052 253.813286 
L 454.974545 244.284046 
L 455.361039 229.088319 
L 455.747532 261.679078 
L 456.134026 256.700974 
L 457.293506 246.258669 
L 458.066494 268.672579 
L 458.452987 243.67797 
L 458.839481 249.827442 
L 459.998961 251.972381 
L 460.385455 239.087221 
L 460.771948 231.965159 
L 461.158442 230.493285 
L 461.544935 262.724819 
L 462.704416 261.37258 
L 463.090909 263.745427 
L 463.477403 262.761154 
L 463.863896 257.241615 
L 464.25039 256.666216 
L 465.796364 273.640273 
L 466.182857 284.265674 
L 466.955844 275.998952 
L 468.115325 289.97782 
L 468.501818 285.360884 
L 468.888312 275.129333 
L 469.274805 286.72287 
L 469.661299 283.119245 
L 470.820779 288.211611 
L 471.207273 296.60598 
L 471.593766 295.963502 
L 471.98026 292.281662 
L 472.366753 300.455933 
L 473.526234 299.48329 
L 473.912727 287.745723 
L 474.299221 286.430884 
L 474.685714 286.954444 
L 475.072208 280.322002 
L 476.231688 286.939267 
L 476.618182 284.885166 
L 477.004675 298.886435 
L 477.777662 306.348584 
L 478.937143 288.508233 
L 479.323636 287.536739 
L 479.71013 273.93724 
L 480.096623 299.343578 
L 480.483117 281.538653 
L 481.642597 278.05321 
L 482.029091 284.492376 
L 482.415584 269.41134 
L 482.802078 247.404331 
L 483.188571 264.41606 
L 484.348052 268.379518 
L 484.734545 281.870712 
L 485.121039 288.002914 
L 485.507532 287.704444 
L 485.894026 287.798576 
L 487.44 266.660827 
L 487.826494 253.305868 
L 488.212987 287.953522 
L 488.599481 287.072115 
L 490.145455 279.379002 
L 490.531948 278.737145 
L 490.918442 280.490323 
L 491.304935 291.640395 
L 492.850909 276.349962 
L 493.237403 277.611113 
L 493.623896 287.201162 
L 494.01039 290.388568 
L 495.16987 298.906304 
L 495.556364 275.458092 
L 496.329351 300.541978 
L 496.715844 305.959016 
L 498.261818 316.412477 
L 498.648312 305.010853 
L 499.034805 305.713488 
L 499.421299 302.521117 
L 500.967273 314.615645 
L 501.353766 300.928116 
L 501.74026 293.882468 
L 502.126753 312.598218 
L 503.286234 312.470789 
L 503.672727 310.547573 
L 504.059221 312.881606 
L 504.445714 321.699628 
L 504.832208 323.439087 
L 505.991688 314.730111 
L 506.378182 306.997359 
L 506.764675 312.20155 
L 507.151169 310.626236 
L 507.537662 302.815457 
L 508.697143 294.313503 
L 509.083636 308.252699 
L 509.47013 295.037062 
L 509.856623 306.682867 
L 510.243117 306.389106 
L 511.789091 290.904088 
L 512.175584 294.455246 
L 512.562078 275.598076 
L 512.948571 291.992918 
L 514.108052 294.057805 
L 514.494545 286.285366 
L 514.881039 285.859813 
L 515.267532 288.833943 
L 515.654026 298.043951 
L 516.813506 313.164763 
L 517.2 307.594685 
L 517.586494 310.290899 
L 517.972987 305.779424 
L 518.359481 304.105217 
L 519.518961 288.71339 
L 519.905455 269.859452 
L 520.291948 293.621544 
L 520.678442 284.071271 
L 521.064935 295.0189 
L 522.610909 283.558414 
L 522.997403 304.110187 
L 523.383896 302.849532 
L 523.77039 290.88982 
L 525.316364 308.864256 
L 525.702857 307.581414 
L 526.089351 322.198677 
L 526.475844 324.899125 
L 528.021818 331.371687 
L 528.794805 318.785503 
L 530.340779 323.976757 
L 530.727273 324.547484 
L 531.113766 316.411637 
L 531.50026 316.443989 
L 531.886753 326.376324 
L 533.046234 321.121493 
L 533.432727 325.775939 
L 533.819221 326.298493 
L 534.205714 322.512819 
L 534.592208 327.32239 
L 535.751688 328.94311 
L 536.138182 330.692237 
L 536.524675 327.031892 
L 536.911169 316.471224 
L 537.297662 326.962605 
L 538.457143 330.447586 
L 538.843636 321.149193 
L 539.23013 321.224589 
L 540.003117 309.602093 
L 541.162597 320.00727 
L 541.549091 314.276873 
L 541.935584 313.449477 
L 542.322078 315.37664 
L 542.708571 310.196924 
L 543.868052 306.795297 
L 544.254545 314.819513 
L 544.641039 313.606344 
L 545.414026 326.899042 
L 546.96 309.976726 
L 547.346494 313.321521 
L 547.732987 306.017116 
L 548.119481 310.778431 
L 549.665455 320.882788 
L 550.051948 316.52059 
L 550.438442 316.883909 
L 550.824935 326.62051 
L 551.984416 335.44166 
L 552.370909 327.450678 
L 552.757403 333.869042 
L 553.143896 333.980739 
L 553.53039 338.828982 
L 554.68987 339.859828 
L 555.076364 340.955247 
L 555.462857 339.822148 
L 555.849351 339.447412 
L 556.235844 341.475475 
L 557.781818 336.363947 
L 558.168312 332.782668 
L 558.554805 330.952309 
L 558.941299 334.953188 
L 560.100779 332.37843 
L 560.487273 324.408121 
L 560.873766 330.700647 
L 561.26026 324.560629 
L 561.646753 330.902933 
L 562.806234 335.236883 
L 563.579221 331.733842 
L 563.965714 326.250331 
L 564.352208 323.441107 
L 565.511688 319.441633 
L 565.898182 320.739098 
L 566.671169 332.093296 
L 567.057662 334.376969 
L 568.217143 327.182652 
L 568.99013 338.481948 
L 569.376623 338.540019 
L 569.763117 334.420085 
L 570.922597 333.603418 
L 571.309091 338.081737 
L 571.695584 337.897629 
L 572.082078 334.010501 
L 572.468571 332.253583 
L 573.628052 336.897553 
L 574.014545 336.682675 
L 574.787532 327.948296 
L 575.174026 316.664228 
L 576.333506 314.262433 
L 576.72 322.492255 
L 577.106494 319.137212 
L 577.492987 317.541266 
L 577.879481 309.164308 
L 579.038961 310.861135 
L 579.425455 324.217357 
L 579.811948 322.930296 
L 580.584935 312.258569 
L 581.744416 296.796813 
L 582.130909 315.406074 
L 582.517403 310.047788 
L 582.903896 321.614784 
L 583.29039 317.203851 
L 584.44987 317.328847 
L 585.222857 332.072753 
L 585.609351 334.673742 
L 585.995844 330.253989 
L 587.541818 336.176792 
L 587.928312 333.908549 
L 588.314805 328.700268 
L 588.701299 325.528604 
L 589.860779 329.884293 
L 590.247273 335.497995 
L 590.633766 328.766425 
L 591.02026 327.279112 
L 591.406753 338.346015 
L 592.566234 331.402718 
L 593.339221 324.115368 
L 593.725714 322.656995 
L 594.112208 313.722262 
L 595.271688 298.950747 
L 595.658182 306.345238 
L 596.044675 305.472152 
L 596.431169 283.449058 
L 596.817662 305.129417 
L 597.977143 299.453857 
L 598.363636 291.206248 
L 598.75013 300.014185 
L 599.136623 301.683682 
L 599.523117 293.420516 
L 600.682597 309.419154 
L 601.069091 311.450588 
L 601.455584 314.43551 
L 601.842078 319.904545 
L 602.228571 317.69308 
L 603.388052 306.771862 
L 603.774545 317.547708 
L 604.161039 304.822616 
L 604.547532 309.157448 
L 604.934026 299.537511 
L 606.093506 294.7809 
L 606.48 285.958419 
L 606.866494 303.01281 
L 607.252987 304.748734 
L 607.639481 297.759269 
L 608.798961 287.457209 
L 609.185455 300.229778 
L 610.344935 327.737336 
L 611.504416 333.810191 
L 611.890909 333.871906 
L 612.277403 337.932184 
L 612.663896 339.306631 
L 613.05039 335.563674 
L 614.20987 339.569429 
L 614.596364 331.395636 
L 614.982857 335.991426 
L 615.369351 334.62417 
L 615.755844 334.117084 
L 616.915325 336.533892 
L 617.301818 341.482137 
L 617.688312 334.589297 
L 618.461299 338.620092 
L 619.620779 338.972458 
L 620.007273 334.575144 
L 620.393766 334.507417 
L 620.78026 330.583811 
L 621.166753 335.220431 
L 622.326234 339.615482 
L 622.712727 334.94786 
L 623.099221 327.990348 
L 623.485714 328.456616 
L 623.872208 331.953356 
L 625.031688 334.431286 
L 625.418182 335.533231 
L 625.804675 338.167109 
L 626.191169 342.086466 
L 626.577662 340.234844 
L 627.737143 335.582957 
L 628.123636 340.371967 
L 628.51013 340.80063 
L 628.896623 334.146836 
L 629.283117 332.060456 
L 630.829091 330.820976 
L 631.215584 334.323429 
L 631.602078 334.364048 
L 633.534545 332.969804 
L 633.921039 330.167631 
L 634.307532 326.208754 
L 634.694026 320.44387 
L 635.853506 322.794974 
L 636.24 332.64845 
L 636.626494 323.162058 
L 637.012987 328.644909 
L 637.399481 321.827621 
L 638.945455 324.654349 
L 639.331948 323.355364 
L 639.718442 321.290232 
L 640.104935 326.789061 
L 641.264416 331.592475 
L 641.650909 329.582072 
L 642.037403 333.18628 
L 642.423896 333.068874 
L 642.81039 337.009443 
L 643.96987 330.247155 
L 644.356364 336.126437 
L 644.742857 328.719983 
L 645.515844 327.437647 
L 646.675325 329.253508 
L 647.061818 323.745512 
L 647.448312 325.613135 
L 647.834805 334.190898 
L 648.221299 332.429093 
L 649.380779 339.024891 
L 649.767273 328.483701 
L 650.153766 322.850693 
L 650.54026 325.89451 
L 650.926753 329.888863 
L 652.472727 323.462062 
L 653.245714 310.091557 
L 653.632208 326.626407 
L 654.791688 322.149839 
L 655.178182 319.479524 
L 655.564675 321.832429 
L 655.951169 317.581647 
L 656.337662 326.629643 
L 657.497143 334.592084 
L 657.883636 327.377441 
L 658.27013 324.589149 
L 658.656623 324.682106 
L 659.043117 328.427152 
L 660.202597 322.016589 
L 660.589091 310.468633 
L 660.975584 324.601825 
L 661.362078 315.719229 
L 661.748571 311.028966 
L 662.908052 313.536378 
L 663.681039 323.86983 
L 664.067532 331.02328 
L 664.454026 331.459604 
L 665.613506 325.840707 
L 666 327.554068 
L 666.386494 324.50159 
L 666.772987 332.954557 
L 668.318961 331.294632 
L 668.705455 325.679614 
L 669.478442 320.047249 
L 669.864935 320.921264 
L 671.024416 318.618857 
L 671.410909 310.139221 
L 671.797403 316.862677 
L 672.183896 321.428577 
L 672.57039 324.664555 
L 673.72987 319.019744 
L 674.116364 305.476569 
L 674.502857 296.274564 
L 674.889351 303.93251 
L 675.275844 299.925895 
L 676.435325 302.225634 
L 676.821818 309.547288 
L 677.208312 321.365387 
L 677.594805 312.17399 
L 677.981299 318.476341 
L 679.527273 331.235924 
L 679.913766 328.363161 
L 680.30026 320.99976 
L 680.686753 329.463991 
L 681.846234 336.322242 
L 682.232727 337.789749 
L 682.619221 335.560349 
L 683.005714 330.334895 
L 683.392208 338.487343 
L 684.551688 341.07538 
L 684.938182 332.676813 
L 685.711169 343.880907 
L 686.097662 337.415252 
L 687.257143 338.509544 
L 687.643636 338.659298 
L 688.03013 341.387663 
L 688.416623 337.035008 
L 688.803117 333.948408 
L 690.349091 338.15523 
L 690.735584 334.063211 
L 691.122078 326.881316 
L 691.508571 323.271736 
L 692.668052 331.160706 
L 693.054545 329.98714 
L 693.441039 331.504401 
L 693.827532 338.598056 
L 694.214026 330.32069 
L 695.373506 328.479365 
L 695.76 332.222868 
L 696.146494 334.780807 
L 696.532987 340.222602 
L 696.919481 340.58045 
L 698.078961 333.638093 
L 698.465455 339.477798 
L 699.238442 340.528216 
L 699.624935 333.292724 
L 701.170909 326.542008 
L 701.943896 333.821634 
L 702.33039 335.335834 
L 703.48987 335.148035 
L 703.876364 337.416061 
L 704.262857 342.984183 
L 705.035844 344.492796 
L 706.195325 344.877209 
L 706.581818 344.010294 
L 706.968312 344.27986 
L 707.354805 345.982304 
L 707.741299 340.259493 
L 708.900779 342.028536 
L 709.287273 341.554332 
L 709.673766 342.410772 
L 710.446753 327.66365 
L 711.606234 320.194776 
L 711.992727 326.215416 
L 712.379221 320.593303 
L 712.765714 317.368706 
L 713.152208 305.089955 
L 714.311688 312.074001 
L 714.698182 303.262483 
L 715.084675 306.575491 
L 715.471169 317.551337 
L 715.857662 311.013424 
L 717.017143 294.361094 
L 717.403636 267.596225 
L 717.79013 273.378337 
L 718.176623 287.119648 
L 718.563117 293.78288 
L 719.722597 288.75434 
L 720.109091 270.765145 
L 720.495584 302.031215 
L 721.268571 333.360625 
L 722.428052 335.932867 
L 722.814545 340.562632 
L 723.201039 331.812748 
L 723.587532 332.811558 
L 723.974026 326.092116 
L 725.133506 331.982719 
L 725.52 324.760008 
L 725.906494 323.626797 
L 726.292987 315.921771 
L 726.679481 304.213121 
L 728.225455 321.127006 
L 728.998442 281.752007 
L 729.384935 290.563143 
L 730.544416 290.643524 
L 730.930909 294.376035 
L 731.317403 295.083718 
L 731.703896 303.961887 
L 732.09039 309.683268 
L 733.24987 317.746408 
L 733.636364 315.836989 
L 734.022857 316.356847 
L 734.409351 314.466739 
L 734.795844 327.86591 
L 735.955325 319.126609 
L 736.341818 322.512777 
L 736.728312 327.061514 
L 737.114805 321.504948 
L 737.501299 325.98534 
L 738.660779 315.739657 
L 739.047273 320.829664 
L 739.433766 314.175213 
L 739.82026 302.493615 
L 740.206753 302.760005 
L 741.366234 313.29226 
L 741.752727 306.575324 
L 742.139221 307.825893 
L 742.525714 313.180242 
L 742.912208 305.238193 
L 744.071688 311.756591 
L 744.458182 319.524775 
L 744.844675 314.702656 
L 745.231169 316.875478 
L 745.617662 311.30258 
L 746.777143 324.916191 
L 747.163636 324.263632 
L 747.163636 324.263632 
" clip-path="url(#p0927427028)" style="fill: none; stroke: #1f77b4; stroke-width: 1.5; stroke-linecap: square"/>
   </g>
   <g id="patch_3">
    <path d="M 108 384.48 
L 108 51.84 
" style="fill: none; stroke: #000000; stroke-width: 0.8; stroke-linejoin: miter; stroke-linecap: square"/>
   </g>
   <g id="patch_4">
    <path d="M 777.6 384.48 
L 777.6 51.84 
" style="fill: none; stroke: #000000; stroke-width: 0.8; stroke-linejoin: miter; stroke-linecap: square"/>
   </g>
   <g id="patch_5">
    <path d="M 108 384.48 
L 777.6 384.48 
" style="fill: none; stroke: #000000; stroke-width: 0.8; stroke-linejoin: miter; stroke-linecap: square"/>
   </g>
   <g id="patch_6">
    <path d="M 108 51.84 
L 777.6 51.84 
" style="fill: none; stroke: #000000; stroke-width: 0.8; stroke-linejoin: miter; stroke-linecap: square"/>
   </g>
   <g id="text_19">
    <!-- Volatility Prediction with LSTM with MAF non-linear flows -->
    <g transform="translate(273.659063 45.84) scale(0.12 -0.12)">
     <defs>
      <path id="DejaVuSans-20" transform="scale(0.015625)"/>
      <path id="DejaVuSans-50" d="M 1259 4147 
L 1259 2394 
L 2053 2394 
Q 2494 2394 2734 2622 
Q 2975 2850 2975 3272 
Q 2975 3691 2734 3919 
Q 2494 4147 2053 4147 
L 1259 4147 
z
M 628 4666 
L 2053 4666 
Q 2838 4666 3239 4311 
Q 3641 3956 3641 3272 
Q 3641 2581 3239 2228 
Q 2838 1875 2053 1875 
L 1259 1875 
L 1259 0 
L 628 0 
L 628 4666 
z
" transform="scale(0.015625)"/>
      <path id="DejaVuSans-72" d="M 2631 2963 
Q 2534 3019 2420 3045 
Q 2306 3072 2169 3072 
Q 1681 3072 1420 2755 
Q 1159 2438 1159 1844 
L 1159 0 
L 581 0 
L 581 3500 
L 1159 3500 
L 1159 2956 
Q 1341 3275 1631 3429 
Q 1922 3584 2338 3584 
Q 2397 3584 2469 3576 
Q 2541 3569 2628 3553 
L 2631 2963 
z
" transform="scale(0.015625)"/>
      <path id="DejaVuSans-64" d="M 2906 2969 
L 2906 4863 
L 3481 4863 
L 3481 0 
L 2906 0 
L 2906 525 
Q 2725 213 2448 61 
Q 2172 -91 1784 -91 
Q 1150 -91 751 415 
Q 353 922 353 1747 
Q 353 2572 751 3078 
Q 1150 3584 1784 3584 
Q 2172 3584 2448 3432 
Q 2725 3281 2906 2969 
z
M 947 1747 
Q 947 1113 1208 752 
Q 1469 391 1925 391 
Q 2381 391 2643 752 
Q 2906 1113 2906 1747 
Q 2906 2381 2643 2742 
Q 2381 3103 1925 3103 
Q 1469 3103 1208 2742 
Q 947 2381 947 1747 
z
" transform="scale(0.015625)"/>
      <path id="DejaVuSans-63" d="M 3122 3366 
L 3122 2828 
Q 2878 2963 2633 3030 
Q 2388 3097 2138 3097 
Q 1578 3097 1268 2742 
Q 959 2388 959 1747 
Q 959 1106 1268 751 
Q 1578 397 2138 397 
Q 2388 397 2633 464 
Q 2878 531 3122 666 
L 3122 134 
Q 2881 22 2623 -34 
Q 2366 -91 2075 -91 
Q 1284 -91 818 406 
Q 353 903 353 1747 
Q 353 2603 823 3093 
Q 1294 3584 2113 3584 
Q 2378 3584 2631 3529 
Q 2884 3475 3122 3366 
z
" transform="scale(0.015625)"/>
      <path id="DejaVuSans-6e" d="M 3513 2113 
L 3513 0 
L 2938 0 
L 2938 2094 
Q 2938 2591 2744 2837 
Q 2550 3084 2163 3084 
Q 1697 3084 1428 2787 
Q 1159 2491 1159 1978 
L 1159 0 
L 581 0 
L 581 3500 
L 1159 3500 
L 1159 2956 
Q 1366 3272 1645 3428 
Q 1925 3584 2291 3584 
Q 2894 3584 3203 3211 
Q 3513 2838 3513 2113 
z
" transform="scale(0.015625)"/>
      <path id="DejaVuSans-77" d="M 269 3500 
L 844 3500 
L 1563 769 
L 2278 3500 
L 2956 3500 
L 3675 769 
L 4391 3500 
L 4966 3500 
L 4050 0 
L 3372 0 
L 2619 2869 
L 1863 0 
L 1184 0 
L 269 3500 
z
" transform="scale(0.015625)"/>
      <path id="DejaVuSans-68" d="M 3513 2113 
L 3513 0 
L 2938 0 
L 2938 2094 
Q 2938 2591 2744 2837 
Q 2550 3084 2163 3084 
Q 1697 3084 1428 2787 
Q 1159 2491 1159 1978 
L 1159 0 
L 581 0 
L 581 4863 
L 1159 4863 
L 1159 2956 
Q 1366 3272 1645 3428 
Q 1925 3584 2291 3584 
Q 2894 3584 3203 3211 
Q 3513 2838 3513 2113 
z
" transform="scale(0.015625)"/>
      <path id="DejaVuSans-4c" d="M 628 4666 
L 1259 4666 
L 1259 531 
L 3531 531 
L 3531 0 
L 628 0 
L 628 4666 
z
" transform="scale(0.015625)"/>
      <path id="DejaVuSans-53" d="M 3425 4513 
L 3425 3897 
Q 3066 4069 2747 4153 
Q 2428 4238 2131 4238 
Q 1616 4238 1336 4038 
Q 1056 3838 1056 3469 
Q 1056 3159 1242 3001 
Q 1428 2844 1947 2747 
L 2328 2669 
Q 3034 2534 3370 2195 
Q 3706 1856 3706 1288 
Q 3706 609 3251 259 
Q 2797 -91 1919 -91 
Q 1588 -91 1214 -16 
Q 841 59 441 206 
L 441 856 
Q 825 641 1194 531 
Q 1563 422 1919 422 
Q 2459 422 2753 634 
Q 3047 847 3047 1241 
Q 3047 1584 2836 1778 
Q 2625 1972 2144 2069 
L 1759 2144 
Q 1053 2284 737 2584 
Q 422 2884 422 3419 
Q 422 4038 858 4394 
Q 1294 4750 2059 4750 
Q 2388 4750 2728 4690 
Q 3069 4631 3425 4513 
z
" transform="scale(0.015625)"/>
      <path id="DejaVuSans-54" d="M -19 4666 
L 3928 4666 
L 3928 4134 
L 2272 4134 
L 2272 0 
L 1638 0 
L 1638 4134 
L -19 4134 
L -19 4666 
z
" transform="scale(0.015625)"/>
      <path id="DejaVuSans-4d" d="M 628 4666 
L 1569 4666 
L 2759 1491 
L 3956 4666 
L 4897 4666 
L 4897 0 
L 4281 0 
L 4281 4097 
L 3078 897 
L 2444 897 
L 1241 4097 
L 1241 0 
L 628 0 
L 628 4666 
z
" transform="scale(0.015625)"/>
      <path id="DejaVuSans-41" d="M 2188 4044 
L 1331 1722 
L 3047 1722 
L 2188 4044 
z
M 1831 4666 
L 2547 4666 
L 4325 0 
L 3669 0 
L 3244 1197 
L 1141 1197 
L 716 0 
L 50 0 
L 1831 4666 
z
" transform="scale(0.015625)"/>
      <path id="DejaVuSans-46" d="M 628 4666 
L 3309 4666 
L 3309 4134 
L 1259 4134 
L 1259 2759 
L 3109 2759 
L 3109 2228 
L 1259 2228 
L 1259 0 
L 628 0 
L 628 4666 
z
" transform="scale(0.015625)"/>
      <path id="DejaVuSans-66" d="M 2375 4863 
L 2375 4384 
L 1825 4384 
Q 1516 4384 1395 4259 
Q 1275 4134 1275 3809 
L 1275 3500 
L 2222 3500 
L 2222 3053 
L 1275 3053 
L 1275 0 
L 697 0 
L 697 3053 
L 147 3053 
L 147 3500 
L 697 3500 
L 697 3744 
Q 697 4328 969 4595 
Q 1241 4863 1831 4863 
L 2375 4863 
z
" transform="scale(0.015625)"/>
      <path id="DejaVuSans-73" d="M 2834 3397 
L 2834 2853 
Q 2591 2978 2328 3040 
Q 2066 3103 1784 3103 
Q 1356 3103 1142 2972 
Q 928 2841 928 2578 
Q 928 2378 1081 2264 
Q 1234 2150 1697 2047 
L 1894 2003 
Q 2506 1872 2764 1633 
Q 3022 1394 3022 966 
Q 3022 478 2636 193 
Q 2250 -91 1575 -91 
Q 1294 -91 989 -36 
Q 684 19 347 128 
L 347 722 
Q 666 556 975 473 
Q 1284 391 1588 391 
Q 1994 391 2212 530 
Q 2431 669 2431 922 
Q 2431 1156 2273 1281 
Q 2116 1406 1581 1522 
L 1381 1569 
Q 847 1681 609 1914 
Q 372 2147 372 2553 
Q 372 3047 722 3315 
Q 1072 3584 1716 3584 
Q 2034 3584 2315 3537 
Q 2597 3491 2834 3397 
z
" transform="scale(0.015625)"/>
     </defs>
     <use xlink:href="#DejaVuSans-56"/>
     <use xlink:href="#DejaVuSans-6f" transform="translate(60.658203 0)"/>
     <use xlink:href="#DejaVuSans-6c" transform="translate(121.839844 0)"/>
     <use xlink:href="#DejaVuSans-61" transform="translate(149.623047 0)"/>
     <use xlink:href="#DejaVuSans-74" transform="translate(210.902344 0)"/>
     <use xlink:href="#DejaVuSans-69" transform="translate(250.111328 0)"/>
     <use xlink:href="#DejaVuSans-6c" transform="translate(277.894531 0)"/>
     <use xlink:href="#DejaVuSans-69" transform="translate(305.677734 0)"/>
     <use xlink:href="#DejaVuSans-74" transform="translate(333.460938 0)"/>
     <use xlink:href="#DejaVuSans-79" transform="translate(372.669922 0)"/>
     <use xlink:href="#DejaVuSans-20" transform="translate(431.849609 0)"/>
     <use xlink:href="#DejaVuSans-50" transform="translate(463.636719 0)"/>
     <use xlink:href="#DejaVuSans-72" transform="translate(522.189453 0)"/>
     <use xlink:href="#DejaVuSans-65" transform="translate(561.052734 0)"/>
     <use xlink:href="#DejaVuSans-64" transform="translate(622.576172 0)"/>
     <use xlink:href="#DejaVuSans-69" transform="translate(686.052734 0)"/>
     <use xlink:href="#DejaVuSans-63" transform="translate(713.835938 0)"/>
     <use xlink:href="#DejaVuSans-74" transform="translate(768.816406 0)"/>
     <use xlink:href="#DejaVuSans-69" transform="translate(808.025391 0)"/>
     <use xlink:href="#DejaVuSans-6f" transform="translate(835.808594 0)"/>
     <use xlink:href="#DejaVuSans-6e" transform="translate(896.990234 0)"/>
     <use xlink:href="#DejaVuSans-20" transform="translate(960.369141 0)"/>
     <use xlink:href="#DejaVuSans-77" transform="translate(992.15625 0)"/>
     <use xlink:href="#DejaVuSans-69" transform="translate(1073.943359 0)"/>
     <use xlink:href="#DejaVuSans-74" transform="translate(1101.726562 0)"/>
     <use xlink:href="#DejaVuSans-68" transform="translate(1140.935547 0)"/>
     <use xlink:href="#DejaVuSans-20" transform="translate(1204.314453 0)"/>
     <use xlink:href="#DejaVuSans-4c" transform="translate(1236.101562 0)"/>
     <use xlink:href="#DejaVuSans-53" transform="translate(1291.814453 0)"/>
     <use xlink:href="#DejaVuSans-54" transform="translate(1355.291016 0)"/>
     <use xlink:href="#DejaVuSans-4d" transform="translate(1416.375 0)"/>
     <use xlink:href="#DejaVuSans-20" transform="translate(1502.654297 0)"/>
     <use xlink:href="#DejaVuSans-77" transform="translate(1534.441406 0)"/>
     <use xlink:href="#DejaVuSans-69" transform="translate(1616.228516 0)"/>
     <use xlink:href="#DejaVuSans-74" transform="translate(1644.011719 0)"/>
     <use xlink:href="#DejaVuSans-68" transform="translate(1683.220703 0)"/>
     <use xlink:href="#DejaVuSans-20" transform="translate(1746.599609 0)"/>
     <use xlink:href="#DejaVuSans-4d" transform="translate(1778.386719 0)"/>
     <use xlink:href="#DejaVuSans-41" transform="translate(1864.666016 0)"/>
     <use xlink:href="#DejaVuSans-46" transform="translate(1933.074219 0)"/>
     <use xlink:href="#DejaVuSans-20" transform="translate(1990.59375 0)"/>
     <use xlink:href="#DejaVuSans-6e" transform="translate(2022.380859 0)"/>
     <use xlink:href="#DejaVuSans-6f" transform="translate(2085.759766 0)"/>
     <use xlink:href="#DejaVuSans-6e" transform="translate(2146.941406 0)"/>
     <use xlink:href="#DejaVuSans-2d" transform="translate(2210.320312 0)"/>
     <use xlink:href="#DejaVuSans-6c" transform="translate(2246.404297 0)"/>
     <use xlink:href="#DejaVuSans-69" transform="translate(2274.1875 0)"/>
     <use xlink:href="#DejaVuSans-6e" transform="translate(2301.970703 0)"/>
     <use xlink:href="#DejaVuSans-65" transform="translate(2365.349609 0)"/>
     <use xlink:href="#DejaVuSans-61" transform="translate(2426.873047 0)"/>
     <use xlink:href="#DejaVuSans-72" transform="translate(2488.152344 0)"/>
     <use xlink:href="#DejaVuSans-20" transform="translate(2529.265625 0)"/>
     <use xlink:href="#DejaVuSans-66" transform="translate(2561.052734 0)"/>
     <use xlink:href="#DejaVuSans-6c" transform="translate(2596.257812 0)"/>
     <use xlink:href="#DejaVuSans-6f" transform="translate(2624.041016 0)"/>
     <use xlink:href="#DejaVuSans-77" transform="translate(2685.222656 0)"/>
     <use xlink:href="#DejaVuSans-73" transform="translate(2767.009766 0)"/>
    </g>
   </g>
   <g id="legend_1">
    <g id="patch_7">
     <path d="M 481.090625 89.19625 
L 770.6 89.19625 
Q 772.6 89.19625 772.6 87.19625 
L 772.6 58.84 
Q 772.6 56.84 770.6 56.84 
L 481.090625 56.84 
Q 479.090625 56.84 479.090625 58.84 
L 479.090625 87.19625 
Q 479.090625 89.19625 481.090625 89.19625 
z
" style="fill: #ffffff; opacity: 0.8; stroke: #cccccc; stroke-linejoin: miter"/>
    </g>
    <g id="line2d_19">
     <path d="M 483.090625 64.938437 
L 493.090625 64.938437 
L 503.090625 64.938437 
" style="fill: none; stroke: #000000; stroke-width: 1.5; stroke-linecap: square"/>
    </g>
    <g id="text_20">
     <!-- Absolute Returns -->
     <g transform="translate(511.090625 68.438437) scale(0.1 -0.1)">
      <defs>
       <path id="DejaVuSans-62" d="M 3116 1747 
Q 3116 2381 2855 2742 
Q 2594 3103 2138 3103 
Q 1681 3103 1420 2742 
Q 1159 2381 1159 1747 
Q 1159 1113 1420 752 
Q 1681 391 2138 391 
Q 2594 391 2855 752 
Q 3116 1113 3116 1747 
z
M 1159 2969 
Q 1341 3281 1617 3432 
Q 1894 3584 2278 3584 
Q 2916 3584 3314 3078 
Q 3713 2572 3713 1747 
Q 3713 922 3314 415 
Q 2916 -91 2278 -91 
Q 1894 -91 1617 61 
Q 1341 213 1159 525 
L 1159 0 
L 581 0 
L 581 4863 
L 1159 4863 
L 1159 2969 
z
" transform="scale(0.015625)"/>
       <path id="DejaVuSans-75" d="M 544 1381 
L 544 3500 
L 1119 3500 
L 1119 1403 
Q 1119 906 1312 657 
Q 1506 409 1894 409 
Q 2359 409 2629 706 
Q 2900 1003 2900 1516 
L 2900 3500 
L 3475 3500 
L 3475 0 
L 2900 0 
L 2900 538 
Q 2691 219 2414 64 
Q 2138 -91 1772 -91 
Q 1169 -91 856 284 
Q 544 659 544 1381 
z
M 1991 3584 
L 1991 3584 
z
" transform="scale(0.015625)"/>
       <path id="DejaVuSans-52" d="M 2841 2188 
Q 3044 2119 3236 1894 
Q 3428 1669 3622 1275 
L 4263 0 
L 3584 0 
L 2988 1197 
Q 2756 1666 2539 1819 
Q 2322 1972 1947 1972 
L 1259 1972 
L 1259 0 
L 628 0 
L 628 4666 
L 2053 4666 
Q 2853 4666 3247 4331 
Q 3641 3997 3641 3322 
Q 3641 2881 3436 2590 
Q 3231 2300 2841 2188 
z
M 1259 4147 
L 1259 2491 
L 2053 2491 
Q 2509 2491 2742 2702 
Q 2975 2913 2975 3322 
Q 2975 3731 2742 3939 
Q 2509 4147 2053 4147 
L 1259 4147 
z
" transform="scale(0.015625)"/>
      </defs>
      <use xlink:href="#DejaVuSans-41"/>
      <use xlink:href="#DejaVuSans-62" transform="translate(68.408203 0)"/>
      <use xlink:href="#DejaVuSans-73" transform="translate(131.884766 0)"/>
      <use xlink:href="#DejaVuSans-6f" transform="translate(183.984375 0)"/>
      <use xlink:href="#DejaVuSans-6c" transform="translate(245.166016 0)"/>
      <use xlink:href="#DejaVuSans-75" transform="translate(272.949219 0)"/>
      <use xlink:href="#DejaVuSans-74" transform="translate(336.328125 0)"/>
      <use xlink:href="#DejaVuSans-65" transform="translate(375.537109 0)"/>
      <use xlink:href="#DejaVuSans-20" transform="translate(437.060547 0)"/>
      <use xlink:href="#DejaVuSans-52" transform="translate(468.847656 0)"/>
      <use xlink:href="#DejaVuSans-65" transform="translate(533.830078 0)"/>
      <use xlink:href="#DejaVuSans-74" transform="translate(595.353516 0)"/>
      <use xlink:href="#DejaVuSans-75" transform="translate(634.5625 0)"/>
      <use xlink:href="#DejaVuSans-72" transform="translate(697.941406 0)"/>
      <use xlink:href="#DejaVuSans-6e" transform="translate(737.304688 0)"/>
      <use xlink:href="#DejaVuSans-73" transform="translate(800.683594 0)"/>
     </g>
    </g>
    <g id="line2d_20">
     <path d="M 483.090625 79.616562 
L 493.090625 79.616562 
L 503.090625 79.616562 
" style="fill: none; stroke: #1f77b4; stroke-width: 1.5; stroke-linecap: square"/>
    </g>
    <g id="text_21">
     <!-- LSTM with MAF non-linear flows Volatility Prediction -->
     <g transform="translate(511.090625 83.116562) scale(0.1 -0.1)">
      <use xlink:href="#DejaVuSans-4c"/>
      <use xlink:href="#DejaVuSans-53" transform="translate(55.712891 0)"/>
      <use xlink:href="#DejaVuSans-54" transform="translate(119.189453 0)"/>
      <use xlink:href="#DejaVuSans-4d" transform="translate(180.273438 0)"/>
      <use xlink:href="#DejaVuSans-20" transform="translate(266.552734 0)"/>
      <use xlink:href="#DejaVuSans-77" transform="translate(298.339844 0)"/>
      <use xlink:href="#DejaVuSans-69" transform="translate(380.126953 0)"/>
      <use xlink:href="#DejaVuSans-74" transform="translate(407.910156 0)"/>
      <use xlink:href="#DejaVuSans-68" transform="translate(447.119141 0)"/>
      <use xlink:href="#DejaVuSans-20" transform="translate(510.498047 0)"/>
      <use xlink:href="#DejaVuSans-4d" transform="translate(542.285156 0)"/>
      <use xlink:href="#DejaVuSans-41" transform="translate(628.564453 0)"/>
      <use xlink:href="#DejaVuSans-46" transform="translate(696.972656 0)"/>
      <use xlink:href="#DejaVuSans-20" transform="translate(754.492188 0)"/>
      <use xlink:href="#DejaVuSans-6e" transform="translate(786.279297 0)"/>
      <use xlink:href="#DejaVuSans-6f" transform="translate(849.658203 0)"/>
      <use xlink:href="#DejaVuSans-6e" transform="translate(910.839844 0)"/>
      <use xlink:href="#DejaVuSans-2d" transform="translate(974.21875 0)"/>
      <use xlink:href="#DejaVuSans-6c" transform="translate(1010.302734 0)"/>
      <use xlink:href="#DejaVuSans-69" transform="translate(1038.085938 0)"/>
      <use xlink:href="#DejaVuSans-6e" transform="translate(1065.869141 0)"/>
      <use xlink:href="#DejaVuSans-65" transform="translate(1129.248047 0)"/>
      <use xlink:href="#DejaVuSans-61" transform="translate(1190.771484 0)"/>
      <use xlink:href="#DejaVuSans-72" transform="translate(1252.050781 0)"/>
      <use xlink:href="#DejaVuSans-20" transform="translate(1293.164062 0)"/>
      <use xlink:href="#DejaVuSans-66" transform="translate(1324.951172 0)"/>
      <use xlink:href="#DejaVuSans-6c" transform="translate(1360.15625 0)"/>
      <use xlink:href="#DejaVuSans-6f" transform="translate(1387.939453 0)"/>
      <use xlink:href="#DejaVuSans-77" transform="translate(1449.121094 0)"/>
      <use xlink:href="#DejaVuSans-73" transform="translate(1530.908203 0)"/>
      <use xlink:href="#DejaVuSans-20" transform="translate(1583.007812 0)"/>
      <use xlink:href="#DejaVuSans-56" transform="translate(1614.794922 0)"/>
      <use xlink:href="#DejaVuSans-6f" transform="translate(1675.453125 0)"/>
      <use xlink:href="#DejaVuSans-6c" transform="translate(1736.634766 0)"/>
      <use xlink:href="#DejaVuSans-61" transform="translate(1764.417969 0)"/>
      <use xlink:href="#DejaVuSans-74" transform="translate(1825.697266 0)"/>
      <use xlink:href="#DejaVuSans-69" transform="translate(1864.90625 0)"/>
      <use xlink:href="#DejaVuSans-6c" transform="translate(1892.689453 0)"/>
      <use xlink:href="#DejaVuSans-69" transform="translate(1920.472656 0)"/>
      <use xlink:href="#DejaVuSans-74" transform="translate(1948.255859 0)"/>
      <use xlink:href="#DejaVuSans-79" transform="translate(1987.464844 0)"/>
      <use xlink:href="#DejaVuSans-20" transform="translate(2046.644531 0)"/>
      <use xlink:href="#DejaVuSans-50" transform="translate(2078.431641 0)"/>
      <use xlink:href="#DejaVuSans-72" transform="translate(2136.984375 0)"/>
      <use xlink:href="#DejaVuSans-65" transform="translate(2175.847656 0)"/>
      <use xlink:href="#DejaVuSans-64" transform="translate(2237.371094 0)"/>
      <use xlink:href="#DejaVuSans-69" transform="translate(2300.847656 0)"/>
      <use xlink:href="#DejaVuSans-63" transform="translate(2328.630859 0)"/>
      <use xlink:href="#DejaVuSans-74" transform="translate(2383.611328 0)"/>
      <use xlink:href="#DejaVuSans-69" transform="translate(2422.820312 0)"/>
      <use xlink:href="#DejaVuSans-6f" transform="translate(2450.603516 0)"/>
      <use xlink:href="#DejaVuSans-6e" transform="translate(2511.785156 0)"/>
     </g>
    </g>
   </g>
  </g>
 </g>
 <defs>
  <clipPath id="p0927427028">
   <rect x="108" y="51.84" width="669.6" height="332.64"/>
  </clipPath>
 </defs>
</svg>
