<?xml version="1.0" encoding="utf-8" standalone="no"?>
<!DOCTYPE svg PUBLIC "-//W3C//DTD SVG 1.1//EN"
  "http://www.w3.org/Graphics/SVG/1.1/DTD/svg11.dtd">
<svg xmlns:xlink="http://www.w3.org/1999/xlink" width="864pt" height="432pt" viewBox="0 0 864 432" xmlns="http://www.w3.org/2000/svg" version="1.1">
 <metadata>
  <rdf:RDF xmlns:dc="http://purl.org/dc/elements/1.1/" xmlns:cc="http://creativecommons.org/ns#" xmlns:rdf="http://www.w3.org/1999/02/22-rdf-syntax-ns#">
   <cc:Work>
    <dc:type rdf:resource="http://purl.org/dc/dcmitype/StillImage"/>
    <dc:date>2025-02-04T09:56:58.523090</dc:date>
    <dc:format>image/svg+xml</dc:format>
    <dc:creator>
     <cc:Agent>
      <dc:title>Matplotlib v3.10.0, https://matplotlib.org/</dc:title>
     </cc:Agent>
    </dc:creator>
   </cc:Work>
  </rdf:RDF>
 </metadata>
 <defs>
  <style type="text/css">*{stroke-linejoin: round; stroke-linecap: butt}</style>
 </defs>
 <g id="figure_1">
  <g id="patch_1">
   <path d="M 0 432 
L 864 432 
L 864 0 
L 0 0 
z
" style="fill: #ffffff"/>
  </g>
  <g id="axes_1">
   <g id="patch_2">
    <path d="M 108 384.48 
L 777.6 384.48 
L 777.6 51.84 
L 108 51.84 
z
" style="fill: #ffffff"/>
   </g>
   <g id="matplotlib.axis_1">
    <g id="xtick_1">
     <g id="line2d_1">
      <defs>
       <path id="m2f8bae44dc" d="M 0 0 
L 0 3.5 
" style="stroke: #000000; stroke-width: 0.8"/>
      </defs>
      <g>
       <use xlink:href="#m2f8bae44dc" x="138.822612" y="384.48" style="stroke: #000000; stroke-width: 0.8"/>
      </g>
     </g>
     <g id="text_1">
      <!-- 2020-07 -->
      <g transform="translate(117.931206 399.078438) scale(0.1 -0.1)">
       <defs>
        <path id="DejaVuSans-32" d="M 1228 531 
L 3431 531 
L 3431 0 
L 469 0 
L 469 531 
Q 828 903 1448 1529 
Q 2069 2156 2228 2338 
Q 2531 2678 2651 2914 
Q 2772 3150 2772 3378 
Q 2772 3750 2511 3984 
Q 2250 4219 1831 4219 
Q 1534 4219 1204 4116 
Q 875 4013 500 3803 
L 500 4441 
Q 881 4594 1212 4672 
Q 1544 4750 1819 4750 
Q 2544 4750 2975 4387 
Q 3406 4025 3406 3419 
Q 3406 3131 3298 2873 
Q 3191 2616 2906 2266 
Q 2828 2175 2409 1742 
Q 1991 1309 1228 531 
z
" transform="scale(0.015625)"/>
        <path id="DejaVuSans-30" d="M 2034 4250 
Q 1547 4250 1301 3770 
Q 1056 3291 1056 2328 
Q 1056 1369 1301 889 
Q 1547 409 2034 409 
Q 2525 409 2770 889 
Q 3016 1369 3016 2328 
Q 3016 3291 2770 3770 
Q 2525 4250 2034 4250 
z
M 2034 4750 
Q 2819 4750 3233 4129 
Q 3647 3509 3647 2328 
Q 3647 1150 3233 529 
Q 2819 -91 2034 -91 
Q 1250 -91 836 529 
Q 422 1150 422 2328 
Q 422 3509 836 4129 
Q 1250 4750 2034 4750 
z
" transform="scale(0.015625)"/>
        <path id="DejaVuSans-2d" d="M 313 2009 
L 1997 2009 
L 1997 1497 
L 313 1497 
L 313 2009 
z
" transform="scale(0.015625)"/>
        <path id="DejaVuSans-37" d="M 525 4666 
L 3525 4666 
L 3525 4397 
L 1831 0 
L 1172 0 
L 2766 4134 
L 525 4134 
L 525 4666 
z
" transform="scale(0.015625)"/>
       </defs>
       <use xlink:href="#DejaVuSans-32"/>
       <use xlink:href="#DejaVuSans-30" transform="translate(63.623047 0)"/>
       <use xlink:href="#DejaVuSans-32" transform="translate(127.246094 0)"/>
       <use xlink:href="#DejaVuSans-30" transform="translate(190.869141 0)"/>
       <use xlink:href="#DejaVuSans-2d" transform="translate(254.492188 0)"/>
       <use xlink:href="#DejaVuSans-30" transform="translate(290.576172 0)"/>
       <use xlink:href="#DejaVuSans-37" transform="translate(354.199219 0)"/>
      </g>
     </g>
    </g>
    <g id="xtick_2">
     <g id="line2d_2">
      <g>
       <use xlink:href="#m2f8bae44dc" x="209.892293" y="384.48" style="stroke: #000000; stroke-width: 0.8"/>
      </g>
     </g>
     <g id="text_2">
      <!-- 2021-01 -->
      <g transform="translate(189.000887 399.078438) scale(0.1 -0.1)">
       <defs>
        <path id="DejaVuSans-31" d="M 794 531 
L 1825 531 
L 1825 4091 
L 703 3866 
L 703 4441 
L 1819 4666 
L 2450 4666 
L 2450 531 
L 3481 531 
L 3481 0 
L 794 0 
L 794 531 
z
" transform="scale(0.015625)"/>
       </defs>
       <use xlink:href="#DejaVuSans-32"/>
       <use xlink:href="#DejaVuSans-30" transform="translate(63.623047 0)"/>
       <use xlink:href="#DejaVuSans-32" transform="translate(127.246094 0)"/>
       <use xlink:href="#DejaVuSans-31" transform="translate(190.869141 0)"/>
       <use xlink:href="#DejaVuSans-2d" transform="translate(254.492188 0)"/>
       <use xlink:href="#DejaVuSans-30" transform="translate(290.576172 0)"/>
       <use xlink:href="#DejaVuSans-31" transform="translate(354.199219 0)"/>
      </g>
     </g>
    </g>
    <g id="xtick_3">
     <g id="line2d_3">
      <g>
       <use xlink:href="#m2f8bae44dc" x="279.80323" y="384.48" style="stroke: #000000; stroke-width: 0.8"/>
      </g>
     </g>
     <g id="text_3">
      <!-- 2021-07 -->
      <g transform="translate(258.911824 399.078438) scale(0.1 -0.1)">
       <use xlink:href="#DejaVuSans-32"/>
       <use xlink:href="#DejaVuSans-30" transform="translate(63.623047 0)"/>
       <use xlink:href="#DejaVuSans-32" transform="translate(127.246094 0)"/>
       <use xlink:href="#DejaVuSans-31" transform="translate(190.869141 0)"/>
       <use xlink:href="#DejaVuSans-2d" transform="translate(254.492188 0)"/>
       <use xlink:href="#DejaVuSans-30" transform="translate(290.576172 0)"/>
       <use xlink:href="#DejaVuSans-37" transform="translate(354.199219 0)"/>
      </g>
     </g>
    </g>
    <g id="xtick_4">
     <g id="line2d_4">
      <g>
       <use xlink:href="#m2f8bae44dc" x="350.872912" y="384.48" style="stroke: #000000; stroke-width: 0.8"/>
      </g>
     </g>
     <g id="text_4">
      <!-- 2022-01 -->
      <g transform="translate(329.981506 399.078438) scale(0.1 -0.1)">
       <use xlink:href="#DejaVuSans-32"/>
       <use xlink:href="#DejaVuSans-30" transform="translate(63.623047 0)"/>
       <use xlink:href="#DejaVuSans-32" transform="translate(127.246094 0)"/>
       <use xlink:href="#DejaVuSans-32" transform="translate(190.869141 0)"/>
       <use xlink:href="#DejaVuSans-2d" transform="translate(254.492188 0)"/>
       <use xlink:href="#DejaVuSans-30" transform="translate(290.576172 0)"/>
       <use xlink:href="#DejaVuSans-31" transform="translate(354.199219 0)"/>
      </g>
     </g>
    </g>
    <g id="xtick_5">
     <g id="line2d_5">
      <g>
       <use xlink:href="#m2f8bae44dc" x="420.783849" y="384.48" style="stroke: #000000; stroke-width: 0.8"/>
      </g>
     </g>
     <g id="text_5">
      <!-- 2022-07 -->
      <g transform="translate(399.892442 399.078438) scale(0.1 -0.1)">
       <use xlink:href="#DejaVuSans-32"/>
       <use xlink:href="#DejaVuSans-30" transform="translate(63.623047 0)"/>
       <use xlink:href="#DejaVuSans-32" transform="translate(127.246094 0)"/>
       <use xlink:href="#DejaVuSans-32" transform="translate(190.869141 0)"/>
       <use xlink:href="#DejaVuSans-2d" transform="translate(254.492188 0)"/>
       <use xlink:href="#DejaVuSans-30" transform="translate(290.576172 0)"/>
       <use xlink:href="#DejaVuSans-37" transform="translate(354.199219 0)"/>
      </g>
     </g>
    </g>
    <g id="xtick_6">
     <g id="line2d_6">
      <g>
       <use xlink:href="#m2f8bae44dc" x="491.85353" y="384.48" style="stroke: #000000; stroke-width: 0.8"/>
      </g>
     </g>
     <g id="text_6">
      <!-- 2023-01 -->
      <g transform="translate(470.962124 399.078438) scale(0.1 -0.1)">
       <defs>
        <path id="DejaVuSans-33" d="M 2597 2516 
Q 3050 2419 3304 2112 
Q 3559 1806 3559 1356 
Q 3559 666 3084 287 
Q 2609 -91 1734 -91 
Q 1441 -91 1130 -33 
Q 819 25 488 141 
L 488 750 
Q 750 597 1062 519 
Q 1375 441 1716 441 
Q 2309 441 2620 675 
Q 2931 909 2931 1356 
Q 2931 1769 2642 2001 
Q 2353 2234 1838 2234 
L 1294 2234 
L 1294 2753 
L 1863 2753 
Q 2328 2753 2575 2939 
Q 2822 3125 2822 3475 
Q 2822 3834 2567 4026 
Q 2313 4219 1838 4219 
Q 1578 4219 1281 4162 
Q 984 4106 628 3988 
L 628 4550 
Q 988 4650 1302 4700 
Q 1616 4750 1894 4750 
Q 2613 4750 3031 4423 
Q 3450 4097 3450 3541 
Q 3450 3153 3228 2886 
Q 3006 2619 2597 2516 
z
" transform="scale(0.015625)"/>
       </defs>
       <use xlink:href="#DejaVuSans-32"/>
       <use xlink:href="#DejaVuSans-30" transform="translate(63.623047 0)"/>
       <use xlink:href="#DejaVuSans-32" transform="translate(127.246094 0)"/>
       <use xlink:href="#DejaVuSans-33" transform="translate(190.869141 0)"/>
       <use xlink:href="#DejaVuSans-2d" transform="translate(254.492188 0)"/>
       <use xlink:href="#DejaVuSans-30" transform="translate(290.576172 0)"/>
       <use xlink:href="#DejaVuSans-31" transform="translate(354.199219 0)"/>
      </g>
     </g>
    </g>
    <g id="xtick_7">
     <g id="line2d_7">
      <g>
       <use xlink:href="#m2f8bae44dc" x="561.764467" y="384.48" style="stroke: #000000; stroke-width: 0.8"/>
      </g>
     </g>
     <g id="text_7">
      <!-- 2023-07 -->
      <g transform="translate(540.873061 399.078438) scale(0.1 -0.1)">
       <use xlink:href="#DejaVuSans-32"/>
       <use xlink:href="#DejaVuSans-30" transform="translate(63.623047 0)"/>
       <use xlink:href="#DejaVuSans-32" transform="translate(127.246094 0)"/>
       <use xlink:href="#DejaVuSans-33" transform="translate(190.869141 0)"/>
       <use xlink:href="#DejaVuSans-2d" transform="translate(254.492188 0)"/>
       <use xlink:href="#DejaVuSans-30" transform="translate(290.576172 0)"/>
       <use xlink:href="#DejaVuSans-37" transform="translate(354.199219 0)"/>
      </g>
     </g>
    </g>
    <g id="xtick_8">
     <g id="line2d_8">
      <g>
       <use xlink:href="#m2f8bae44dc" x="632.834149" y="384.48" style="stroke: #000000; stroke-width: 0.8"/>
      </g>
     </g>
     <g id="text_8">
      <!-- 2024-01 -->
      <g transform="translate(611.942742 399.078438) scale(0.1 -0.1)">
       <defs>
        <path id="DejaVuSans-34" d="M 2419 4116 
L 825 1625 
L 2419 1625 
L 2419 4116 
z
M 2253 4666 
L 3047 4666 
L 3047 1625 
L 3713 1625 
L 3713 1100 
L 3047 1100 
L 3047 0 
L 2419 0 
L 2419 1100 
L 313 1100 
L 313 1709 
L 2253 4666 
z
" transform="scale(0.015625)"/>
       </defs>
       <use xlink:href="#DejaVuSans-32"/>
       <use xlink:href="#DejaVuSans-30" transform="translate(63.623047 0)"/>
       <use xlink:href="#DejaVuSans-32" transform="translate(127.246094 0)"/>
       <use xlink:href="#DejaVuSans-34" transform="translate(190.869141 0)"/>
       <use xlink:href="#DejaVuSans-2d" transform="translate(254.492188 0)"/>
       <use xlink:href="#DejaVuSans-30" transform="translate(290.576172 0)"/>
       <use xlink:href="#DejaVuSans-31" transform="translate(354.199219 0)"/>
      </g>
     </g>
    </g>
    <g id="xtick_9">
     <g id="line2d_9">
      <g>
       <use xlink:href="#m2f8bae44dc" x="703.131334" y="384.48" style="stroke: #000000; stroke-width: 0.8"/>
      </g>
     </g>
     <g id="text_9">
      <!-- 2024-07 -->
      <g transform="translate(682.239927 399.078438) scale(0.1 -0.1)">
       <use xlink:href="#DejaVuSans-32"/>
       <use xlink:href="#DejaVuSans-30" transform="translate(63.623047 0)"/>
       <use xlink:href="#DejaVuSans-32" transform="translate(127.246094 0)"/>
       <use xlink:href="#DejaVuSans-34" transform="translate(190.869141 0)"/>
       <use xlink:href="#DejaVuSans-2d" transform="translate(254.492188 0)"/>
       <use xlink:href="#DejaVuSans-30" transform="translate(290.576172 0)"/>
       <use xlink:href="#DejaVuSans-37" transform="translate(354.199219 0)"/>
      </g>
     </g>
    </g>
    <g id="xtick_10">
     <g id="line2d_10">
      <g>
       <use xlink:href="#m2f8bae44dc" x="774.201015" y="384.48" style="stroke: #000000; stroke-width: 0.8"/>
      </g>
     </g>
     <g id="text_10">
      <!-- 2025-01 -->
      <g transform="translate(753.309609 399.078438) scale(0.1 -0.1)">
       <defs>
        <path id="DejaVuSans-35" d="M 691 4666 
L 3169 4666 
L 3169 4134 
L 1269 4134 
L 1269 2991 
Q 1406 3038 1543 3061 
Q 1681 3084 1819 3084 
Q 2600 3084 3056 2656 
Q 3513 2228 3513 1497 
Q 3513 744 3044 326 
Q 2575 -91 1722 -91 
Q 1428 -91 1123 -41 
Q 819 9 494 109 
L 494 744 
Q 775 591 1075 516 
Q 1375 441 1709 441 
Q 2250 441 2565 725 
Q 2881 1009 2881 1497 
Q 2881 1984 2565 2268 
Q 2250 2553 1709 2553 
Q 1456 2553 1204 2497 
Q 953 2441 691 2322 
L 691 4666 
z
" transform="scale(0.015625)"/>
       </defs>
       <use xlink:href="#DejaVuSans-32"/>
       <use xlink:href="#DejaVuSans-30" transform="translate(63.623047 0)"/>
       <use xlink:href="#DejaVuSans-32" transform="translate(127.246094 0)"/>
       <use xlink:href="#DejaVuSans-35" transform="translate(190.869141 0)"/>
       <use xlink:href="#DejaVuSans-2d" transform="translate(254.492188 0)"/>
       <use xlink:href="#DejaVuSans-30" transform="translate(290.576172 0)"/>
       <use xlink:href="#DejaVuSans-31" transform="translate(354.199219 0)"/>
      </g>
     </g>
    </g>
    <g id="text_11">
     <!-- Date -->
     <g transform="translate(430.849219 412.756563) scale(0.1 -0.1)">
      <defs>
       <path id="DejaVuSans-44" d="M 1259 4147 
L 1259 519 
L 2022 519 
Q 2988 519 3436 956 
Q 3884 1394 3884 2338 
Q 3884 3275 3436 3711 
Q 2988 4147 2022 4147 
L 1259 4147 
z
M 628 4666 
L 1925 4666 
Q 3281 4666 3915 4102 
Q 4550 3538 4550 2338 
Q 4550 1131 3912 565 
Q 3275 0 1925 0 
L 628 0 
L 628 4666 
z
" transform="scale(0.015625)"/>
       <path id="DejaVuSans-61" d="M 2194 1759 
Q 1497 1759 1228 1600 
Q 959 1441 959 1056 
Q 959 750 1161 570 
Q 1363 391 1709 391 
Q 2188 391 2477 730 
Q 2766 1069 2766 1631 
L 2766 1759 
L 2194 1759 
z
M 3341 1997 
L 3341 0 
L 2766 0 
L 2766 531 
Q 2569 213 2275 61 
Q 1981 -91 1556 -91 
Q 1019 -91 701 211 
Q 384 513 384 1019 
Q 384 1609 779 1909 
Q 1175 2209 1959 2209 
L 2766 2209 
L 2766 2266 
Q 2766 2663 2505 2880 
Q 2244 3097 1772 3097 
Q 1472 3097 1187 3025 
Q 903 2953 641 2809 
L 641 3341 
Q 956 3463 1253 3523 
Q 1550 3584 1831 3584 
Q 2591 3584 2966 3190 
Q 3341 2797 3341 1997 
z
" transform="scale(0.015625)"/>
       <path id="DejaVuSans-74" d="M 1172 4494 
L 1172 3500 
L 2356 3500 
L 2356 3053 
L 1172 3053 
L 1172 1153 
Q 1172 725 1289 603 
Q 1406 481 1766 481 
L 2356 481 
L 2356 0 
L 1766 0 
Q 1100 0 847 248 
Q 594 497 594 1153 
L 594 3053 
L 172 3053 
L 172 3500 
L 594 3500 
L 594 4494 
L 1172 4494 
z
" transform="scale(0.015625)"/>
       <path id="DejaVuSans-65" d="M 3597 1894 
L 3597 1613 
L 953 1613 
Q 991 1019 1311 708 
Q 1631 397 2203 397 
Q 2534 397 2845 478 
Q 3156 559 3463 722 
L 3463 178 
Q 3153 47 2828 -22 
Q 2503 -91 2169 -91 
Q 1331 -91 842 396 
Q 353 884 353 1716 
Q 353 2575 817 3079 
Q 1281 3584 2069 3584 
Q 2775 3584 3186 3129 
Q 3597 2675 3597 1894 
z
M 3022 2063 
Q 3016 2534 2758 2815 
Q 2500 3097 2075 3097 
Q 1594 3097 1305 2825 
Q 1016 2553 972 2059 
L 3022 2063 
z
" transform="scale(0.015625)"/>
      </defs>
      <use xlink:href="#DejaVuSans-44"/>
      <use xlink:href="#DejaVuSans-61" transform="translate(77.001953 0)"/>
      <use xlink:href="#DejaVuSans-74" transform="translate(138.28125 0)"/>
      <use xlink:href="#DejaVuSans-65" transform="translate(177.490234 0)"/>
     </g>
    </g>
   </g>
   <g id="matplotlib.axis_2">
    <g id="ytick_1">
     <g id="line2d_11">
      <defs>
       <path id="mc4976b8688" d="M 0 0 
L -3.5 0 
" style="stroke: #000000; stroke-width: 0.8"/>
      </defs>
      <g>
       <use xlink:href="#mc4976b8688" x="108" y="369.36" style="stroke: #000000; stroke-width: 0.8"/>
      </g>
     </g>
     <g id="text_12">
      <!-- 0.00 -->
      <g transform="translate(78.734375 373.159219) scale(0.1 -0.1)">
       <defs>
        <path id="DejaVuSans-2e" d="M 684 794 
L 1344 794 
L 1344 0 
L 684 0 
L 684 794 
z
" transform="scale(0.015625)"/>
       </defs>
       <use xlink:href="#DejaVuSans-30"/>
       <use xlink:href="#DejaVuSans-2e" transform="translate(63.623047 0)"/>
       <use xlink:href="#DejaVuSans-30" transform="translate(95.410156 0)"/>
       <use xlink:href="#DejaVuSans-30" transform="translate(159.033203 0)"/>
      </g>
     </g>
    </g>
    <g id="ytick_2">
     <g id="line2d_12">
      <g>
       <use xlink:href="#mc4976b8688" x="108" y="303.635617" style="stroke: #000000; stroke-width: 0.8"/>
      </g>
     </g>
     <g id="text_13">
      <!-- 0.02 -->
      <g transform="translate(78.734375 307.434835) scale(0.1 -0.1)">
       <use xlink:href="#DejaVuSans-30"/>
       <use xlink:href="#DejaVuSans-2e" transform="translate(63.623047 0)"/>
       <use xlink:href="#DejaVuSans-30" transform="translate(95.410156 0)"/>
       <use xlink:href="#DejaVuSans-32" transform="translate(159.033203 0)"/>
      </g>
     </g>
    </g>
    <g id="ytick_3">
     <g id="line2d_13">
      <g>
       <use xlink:href="#mc4976b8688" x="108" y="237.911233" style="stroke: #000000; stroke-width: 0.8"/>
      </g>
     </g>
     <g id="text_14">
      <!-- 0.04 -->
      <g transform="translate(78.734375 241.710452) scale(0.1 -0.1)">
       <use xlink:href="#DejaVuSans-30"/>
       <use xlink:href="#DejaVuSans-2e" transform="translate(63.623047 0)"/>
       <use xlink:href="#DejaVuSans-30" transform="translate(95.410156 0)"/>
       <use xlink:href="#DejaVuSans-34" transform="translate(159.033203 0)"/>
      </g>
     </g>
    </g>
    <g id="ytick_4">
     <g id="line2d_14">
      <g>
       <use xlink:href="#mc4976b8688" x="108" y="172.18685" style="stroke: #000000; stroke-width: 0.8"/>
      </g>
     </g>
     <g id="text_15">
      <!-- 0.06 -->
      <g transform="translate(78.734375 175.986069) scale(0.1 -0.1)">
       <defs>
        <path id="DejaVuSans-36" d="M 2113 2584 
Q 1688 2584 1439 2293 
Q 1191 2003 1191 1497 
Q 1191 994 1439 701 
Q 1688 409 2113 409 
Q 2538 409 2786 701 
Q 3034 994 3034 1497 
Q 3034 2003 2786 2293 
Q 2538 2584 2113 2584 
z
M 3366 4563 
L 3366 3988 
Q 3128 4100 2886 4159 
Q 2644 4219 2406 4219 
Q 1781 4219 1451 3797 
Q 1122 3375 1075 2522 
Q 1259 2794 1537 2939 
Q 1816 3084 2150 3084 
Q 2853 3084 3261 2657 
Q 3669 2231 3669 1497 
Q 3669 778 3244 343 
Q 2819 -91 2113 -91 
Q 1303 -91 875 529 
Q 447 1150 447 2328 
Q 447 3434 972 4092 
Q 1497 4750 2381 4750 
Q 2619 4750 2861 4703 
Q 3103 4656 3366 4563 
z
" transform="scale(0.015625)"/>
       </defs>
       <use xlink:href="#DejaVuSans-30"/>
       <use xlink:href="#DejaVuSans-2e" transform="translate(63.623047 0)"/>
       <use xlink:href="#DejaVuSans-30" transform="translate(95.410156 0)"/>
       <use xlink:href="#DejaVuSans-36" transform="translate(159.033203 0)"/>
      </g>
     </g>
    </g>
    <g id="ytick_5">
     <g id="line2d_15">
      <g>
       <use xlink:href="#mc4976b8688" x="108" y="106.462467" style="stroke: #000000; stroke-width: 0.8"/>
      </g>
     </g>
     <g id="text_16">
      <!-- 0.08 -->
      <g transform="translate(78.734375 110.261686) scale(0.1 -0.1)">
       <defs>
        <path id="DejaVuSans-38" d="M 2034 2216 
Q 1584 2216 1326 1975 
Q 1069 1734 1069 1313 
Q 1069 891 1326 650 
Q 1584 409 2034 409 
Q 2484 409 2743 651 
Q 3003 894 3003 1313 
Q 3003 1734 2745 1975 
Q 2488 2216 2034 2216 
z
M 1403 2484 
Q 997 2584 770 2862 
Q 544 3141 544 3541 
Q 544 4100 942 4425 
Q 1341 4750 2034 4750 
Q 2731 4750 3128 4425 
Q 3525 4100 3525 3541 
Q 3525 3141 3298 2862 
Q 3072 2584 2669 2484 
Q 3125 2378 3379 2068 
Q 3634 1759 3634 1313 
Q 3634 634 3220 271 
Q 2806 -91 2034 -91 
Q 1263 -91 848 271 
Q 434 634 434 1313 
Q 434 1759 690 2068 
Q 947 2378 1403 2484 
z
M 1172 3481 
Q 1172 3119 1398 2916 
Q 1625 2713 2034 2713 
Q 2441 2713 2670 2916 
Q 2900 3119 2900 3481 
Q 2900 3844 2670 4047 
Q 2441 4250 2034 4250 
Q 1625 4250 1398 4047 
Q 1172 3844 1172 3481 
z
" transform="scale(0.015625)"/>
       </defs>
       <use xlink:href="#DejaVuSans-30"/>
       <use xlink:href="#DejaVuSans-2e" transform="translate(63.623047 0)"/>
       <use xlink:href="#DejaVuSans-30" transform="translate(95.410156 0)"/>
       <use xlink:href="#DejaVuSans-38" transform="translate(159.033203 0)"/>
      </g>
     </g>
    </g>
    <g id="text_17">
     <!-- Volatility -->
     <g transform="translate(72.654687 239.752187) rotate(-90) scale(0.1 -0.1)">
      <defs>
       <path id="DejaVuSans-56" d="M 1831 0 
L 50 4666 
L 709 4666 
L 2188 738 
L 3669 4666 
L 4325 4666 
L 2547 0 
L 1831 0 
z
" transform="scale(0.015625)"/>
       <path id="DejaVuSans-6f" d="M 1959 3097 
Q 1497 3097 1228 2736 
Q 959 2375 959 1747 
Q 959 1119 1226 758 
Q 1494 397 1959 397 
Q 2419 397 2687 759 
Q 2956 1122 2956 1747 
Q 2956 2369 2687 2733 
Q 2419 3097 1959 3097 
z
M 1959 3584 
Q 2709 3584 3137 3096 
Q 3566 2609 3566 1747 
Q 3566 888 3137 398 
Q 2709 -91 1959 -91 
Q 1206 -91 779 398 
Q 353 888 353 1747 
Q 353 2609 779 3096 
Q 1206 3584 1959 3584 
z
" transform="scale(0.015625)"/>
       <path id="DejaVuSans-6c" d="M 603 4863 
L 1178 4863 
L 1178 0 
L 603 0 
L 603 4863 
z
" transform="scale(0.015625)"/>
       <path id="DejaVuSans-69" d="M 603 3500 
L 1178 3500 
L 1178 0 
L 603 0 
L 603 3500 
z
M 603 4863 
L 1178 4863 
L 1178 4134 
L 603 4134 
L 603 4863 
z
" transform="scale(0.015625)"/>
       <path id="DejaVuSans-79" d="M 2059 -325 
Q 1816 -950 1584 -1140 
Q 1353 -1331 966 -1331 
L 506 -1331 
L 506 -850 
L 844 -850 
Q 1081 -850 1212 -737 
Q 1344 -625 1503 -206 
L 1606 56 
L 191 3500 
L 800 3500 
L 1894 763 
L 2988 3500 
L 3597 3500 
L 2059 -325 
z
" transform="scale(0.015625)"/>
      </defs>
      <use xlink:href="#DejaVuSans-56"/>
      <use xlink:href="#DejaVuSans-6f" transform="translate(60.658203 0)"/>
      <use xlink:href="#DejaVuSans-6c" transform="translate(121.839844 0)"/>
      <use xlink:href="#DejaVuSans-61" transform="translate(149.623047 0)"/>
      <use xlink:href="#DejaVuSans-74" transform="translate(210.902344 0)"/>
      <use xlink:href="#DejaVuSans-69" transform="translate(250.111328 0)"/>
      <use xlink:href="#DejaVuSans-6c" transform="translate(277.894531 0)"/>
      <use xlink:href="#DejaVuSans-69" transform="translate(305.677734 0)"/>
      <use xlink:href="#DejaVuSans-74" transform="translate(333.460938 0)"/>
      <use xlink:href="#DejaVuSans-79" transform="translate(372.669922 0)"/>
     </g>
    </g>
   </g>
   <g id="line2d_16">
    <path d="M 138.436364 349.406127 
L 138.822612 344.225759 
L 139.20886 342.168265 
L 140.753853 292.456265 
L 141.140102 304.43162 
L 141.912598 349.941354 
L 142.298846 354.0929 
L 143.457591 353.049422 
L 143.843839 268.638133 
L 144.230088 268.360248 
L 144.616336 354.018259 
L 145.002584 333.409509 
L 146.161329 351.919799 
L 146.547577 349.343828 
L 146.933826 331.916244 
L 147.320074 296.039614 
L 147.706322 331.488042 
L 149.251315 308.126299 
L 149.637563 318.666898 
L 150.023812 348.801481 
L 150.41006 350.975821 
L 151.568805 319.098376 
L 151.955053 337.991412 
L 152.341301 362.395963 
L 152.72755 360.273582 
L 153.113798 357.51011 
L 154.272543 364.493217 
L 154.658791 348.454806 
L 155.045039 339.894973 
L 155.431287 346.095727 
L 155.817536 345.79633 
L 156.976281 366.068826 
L 157.362529 347.155796 
L 157.748777 369.058848 
L 158.135025 313.485145 
L 158.521274 340.696656 
L 159.680018 353.91245 
L 160.066267 364.528546 
L 160.452515 365.138411 
L 161.225012 318.681106 
L 162.383756 368.761235 
L 163.156253 305.616419 
L 163.542501 236.070565 
L 163.928749 368.753892 
L 165.473743 264.997511 
L 165.859991 315.994958 
L 166.246239 299.374929 
L 166.632487 361.806261 
L 167.791232 291.82119 
L 168.563729 346.686948 
L 168.949977 345.346737 
L 169.336225 339.014063 
L 170.49497 202.815839 
L 170.881218 333.672333 
L 171.267467 327.31549 
L 171.653715 340.850064 
L 172.039963 323.319256 
L 173.198708 291.903542 
L 173.584956 355.718648 
L 173.971204 358.45136 
L 174.357453 323.545562 
L 174.743701 356.46402 
L 175.902446 304.791038 
L 176.288694 328.146462 
L 176.674942 284.2437 
L 177.061191 355.723579 
L 177.447439 369.070391 
L 178.992432 317.98927 
L 179.37868 354.84872 
L 179.764928 343.974834 
L 180.151177 346.451356 
L 181.309922 310.043324 
L 181.69617 326.062678 
L 182.082418 359.62463 
L 182.468666 268.844122 
L 182.854915 335.154162 
L 184.013659 277.529017 
L 184.399908 329.612761 
L 184.786156 266.657268 
L 185.558653 359.763441 
L 186.717397 305.049406 
L 187.489894 352.95851 
L 187.876142 270.506264 
L 188.26239 345.240927 
L 189.421135 335.401329 
L 189.807383 362.340411 
L 190.57988 259.939191 
L 190.966128 283.290903 
L 192.124873 293.545182 
L 192.511121 349.124308 
L 192.89737 336.609447 
L 193.283618 332.990563 
L 193.669866 364.454939 
L 194.828611 351.864812 
L 195.214859 288.75938 
L 195.601108 358.827283 
L 196.373604 341.347429 
L 197.532349 340.844918 
L 198.304845 356.350101 
L 198.691094 354.103717 
L 199.077342 339.305392 
L 200.236087 357.470175 
L 200.622335 349.320945 
L 201.008583 360.00131 
L 201.394832 314.55349 
L 201.78108 359.341566 
L 202.939825 351.502334 
L 203.326073 337.984747 
L 203.712321 352.07785 
L 204.098569 336.626284 
L 204.484818 331.348258 
L 205.643563 336.75175 
L 206.029811 356.888425 
L 206.416059 366.553757 
L 206.802307 358.91249 
L 208.3473 352.358604 
L 208.733549 333.734076 
L 209.119797 333.734076 
L 209.506045 345.905621 
L 211.051038 312.325957 
L 211.437287 313.079906 
L 211.823535 288.668364 
L 212.596031 356.034287 
L 213.754776 361.600521 
L 214.141024 351.388112 
L 214.527273 357.649734 
L 214.913521 354.171826 
L 215.299769 317.389415 
L 216.844762 354.178818 
L 217.231011 329.870824 
L 217.617259 348.44058 
L 218.003507 348.05782 
L 219.162252 354.978229 
L 219.934749 254.917588 
L 220.320997 336.031479 
L 220.707245 317.924033 
L 221.86599 349.682767 
L 222.252238 334.235039 
L 222.638486 356.394548 
L 223.024735 320.61728 
L 223.410983 340.558918 
L 224.569728 299.063786 
L 224.955976 367.123807 
L 225.342224 347.163332 
L 225.728473 337.731836 
L 226.114721 288.329579 
L 227.659714 365.489016 
L 228.43221 289.159022 
L 228.818459 327.153482 
L 230.363452 302.964162 
L 230.7497 314.106536 
L 231.135948 257.383363 
L 231.522197 357.047602 
L 232.680941 259.311861 
L 233.06719 345.758911 
L 233.839686 219.048701 
L 234.225934 287.200218 
L 235.384679 357.594776 
L 235.770928 323.606461 
L 236.157176 363.543181 
L 236.543424 273.904124 
L 236.929672 360.631751 
L 238.088417 280.332653 
L 238.474665 342.300356 
L 238.860914 367.346647 
L 239.247162 355.737993 
L 239.63341 333.778162 
L 240.792155 348.472606 
L 241.178403 277.698368 
L 241.564652 331.974832 
L 241.9509 325.765428 
L 242.337148 269.503944 
L 243.495893 355.492046 
L 243.882141 338.442246 
L 244.268389 350.375767 
L 244.654638 315.996587 
L 246.199631 283.735126 
L 246.585879 343.472756 
L 246.972127 321.364016 
L 247.358376 331.969456 
L 247.744624 350.1028 
L 248.903369 333.645224 
L 249.289617 364.026379 
L 249.675865 363.540974 
L 250.062114 330.281075 
L 250.448362 367.441362 
L 251.607107 322.478751 
L 251.993355 334.123895 
L 252.379603 323.432194 
L 252.765851 363.04618 
L 253.1521 311.53625 
L 254.310844 360.773547 
L 254.697093 334.878749 
L 255.083341 333.539639 
L 255.469589 315.296287 
L 255.855838 306.523918 
L 257.014582 315.732536 
L 257.400831 360.419238 
L 257.787079 328.334155 
L 258.173327 366.905074 
L 258.559575 312.909236 
L 259.71832 318.30415 
L 260.104569 332.399807 
L 260.490817 261.555924 
L 260.877065 311.994773 
L 261.263313 316.444012 
L 262.422058 362.434381 
L 262.808306 329.586664 
L 263.194555 357.377145 
L 263.580803 337.125192 
L 263.967051 357.4947 
L 265.125796 333.891482 
L 265.512044 363.965891 
L 265.898293 362.496374 
L 266.284541 364.955014 
L 266.670789 365.938143 
L 268.215782 353.276419 
L 268.60203 361.104712 
L 268.988279 355.808621 
L 269.374527 315.706121 
L 270.533272 322.942971 
L 270.91952 368.395811 
L 271.305768 367.913553 
L 271.692017 363.096535 
L 272.078265 360.706975 
L 273.23701 362.63188 
L 273.623258 363.59204 
L 274.009506 359.259692 
L 274.395754 329.132849 
L 274.782003 314.780974 
L 275.940748 332.383173 
L 276.326996 344.937925 
L 276.713244 364.490158 
L 277.099492 339.76512 
L 277.485741 364.042854 
L 278.644485 346.701258 
L 279.030734 364.559168 
L 279.416982 365.039677 
L 280.189479 322.518086 
L 282.12072 344.326574 
L 282.506968 334.354699 
L 282.893216 312.313559 
L 284.051961 366.556613 
L 284.43821 348.747752 
L 284.824458 365.598323 
L 285.210706 333.408387 
L 285.596954 318.551164 
L 286.755699 338.298208 
L 287.141947 310.399722 
L 287.528196 296.414076 
L 287.914444 363.733585 
L 288.300692 324.154201 
L 289.459437 357.303771 
L 289.845685 353.060502 
L 290.231934 351.667207 
L 290.618182 314.561435 
L 291.00443 345.245081 
L 292.163175 360.757809 
L 292.549423 317.769875 
L 292.935671 356.873388 
L 293.32192 363.556841 
L 293.708168 367.129045 
L 294.866913 360.421686 
L 295.253161 360.421686 
L 295.639409 365.345439 
L 296.025658 360.90115 
L 296.411906 365.805186 
L 297.570651 346.786286 
L 297.956899 352.111815 
L 298.343147 360.479657 
L 298.729395 360.036168 
L 300.274389 334.682378 
L 300.660637 365.868918 
L 301.046885 350.223571 
L 301.433133 362.414396 
L 301.819382 320.616984 
L 302.978126 361.661917 
L 303.364375 356.519715 
L 303.750623 356.899939 
L 304.136871 347.906605 
L 304.52312 360.817509 
L 306.068113 323.830789 
L 306.454361 351.14389 
L 306.840609 354.539674 
L 307.226857 363.249377 
L 308.385602 345.030503 
L 308.77185 361.125712 
L 309.158099 339.983836 
L 309.544347 366.780655 
L 309.930595 336.970431 
L 311.08934 302.721281 
L 311.475588 354.7124 
L 311.861837 295.025126 
L 312.248085 305.61468 
L 312.634333 350.220768 
L 313.793078 360.016853 
L 314.179326 299.296155 
L 314.565575 321.219093 
L 314.951823 311.093075 
L 315.338071 308.008471 
L 316.496816 321.890346 
L 316.883064 322.771558 
L 317.269312 366.715618 
L 317.655561 322.516423 
L 318.041809 363.280063 
L 319.200554 340.160672 
L 319.586802 322.183319 
L 319.97305 350.319655 
L 320.359299 282.221946 
L 320.745547 341.956867 
L 322.29054 354.548673 
L 322.676788 347.477182 
L 323.063036 321.889738 
L 323.449285 361.495967 
L 324.60803 361.892247 
L 324.994278 354.373391 
L 325.380526 242.173824 
L 325.766774 332.271016 
L 326.153023 363.36171 
L 327.311767 361.236797 
L 327.698016 331.997015 
L 328.084264 347.060225 
L 328.470512 338.060452 
L 328.85676 274.385438 
L 330.015505 360.897147 
L 330.401754 343.701968 
L 330.788002 369.36 
L 331.560498 322.086911 
L 332.719243 332.798443 
L 333.105491 366.267017 
L 333.49174 363.945515 
L 333.877988 363.936579 
L 334.264236 354.660102 
L 335.422981 335.217263 
L 335.809229 348.366656 
L 336.195478 349.926359 
L 336.967974 263.190351 
L 338.126719 317.035115 
L 338.512967 274.893096 
L 338.899216 345.209896 
L 339.285464 309.516336 
L 339.671712 360.899221 
L 340.830457 326.187955 
L 341.216705 325.963978 
L 341.602953 357.188173 
L 341.989202 352.401364 
L 342.37545 323.810206 
L 343.534195 343.128123 
L 343.920443 324.638185 
L 344.306691 294.508751 
L 344.69294 337.264716 
L 345.079188 327.00257 
L 346.237933 315.532288 
L 346.624181 292.504671 
L 347.010429 332.76956 
L 347.396677 327.759284 
L 348.941671 297.896762 
L 349.327919 362.185166 
L 349.714167 338.573774 
L 350.100415 334.799317 
L 350.486664 352.785636 
L 351.645408 333.0896 
L 352.031657 359.11854 
L 352.417905 306.268393 
L 352.804153 366.65864 
L 353.190401 248.747676 
L 354.349146 361.346598 
L 354.735395 341.796485 
L 355.121643 358.637069 
L 355.507891 328.665871 
L 355.894139 359.308548 
L 357.439132 297.713996 
L 357.825381 313.744608 
L 358.211629 344.149208 
L 358.597877 332.030454 
L 359.756622 355.736595 
L 360.14287 311.931287 
L 360.529119 355.123899 
L 361.301615 279.498454 
L 362.46036 265.333322 
L 362.846608 349.896747 
L 363.232856 314.578354 
L 363.619105 312.500839 
L 364.005353 356.450905 
L 365.164098 336.231204 
L 365.550346 340.824129 
L 365.936594 313.842774 
L 366.322843 269.675195 
L 366.709091 265.245461 
L 367.867836 363.682552 
L 368.254084 304.977103 
L 368.640332 362.948124 
L 369.026581 305.975222 
L 369.412829 336.867951 
L 370.957822 313.273098 
L 371.34407 313.191317 
L 371.730318 305.745113 
L 372.116567 294.099875 
L 373.275311 333.242771 
L 373.66156 286.614644 
L 374.047808 279.70464 
L 374.434056 361.172889 
L 374.820305 363.760687 
L 375.979049 218.967851 
L 376.365298 356.699867 
L 376.751546 263.710369 
L 377.137794 341.162973 
L 377.524042 340.026675 
L 378.682787 273.325685 
L 379.455284 289.775802 
L 379.841532 339.356826 
L 380.22778 334.056388 
L 381.386525 339.678875 
L 381.772773 354.200872 
L 382.159022 304.918249 
L 382.54527 317.095835 
L 382.931518 358.484951 
L 384.090263 363.285682 
L 384.476511 302.847972 
L 384.86276 341.631563 
L 385.249008 310.575582 
L 385.635256 359.779126 
L 386.794001 351.146625 
L 387.180249 299.428571 
L 387.566497 310.074871 
L 387.952746 328.681095 
L 388.338994 338.561822 
L 389.497739 299.563132 
L 389.883987 366.61247 
L 390.270235 364.329227 
L 390.656484 298.685601 
L 392.201477 367.026061 
L 392.973973 303.930838 
L 393.360222 327.415541 
L 393.74647 267.778702 
L 394.905215 309.800935 
L 395.291463 267.409841 
L 395.677711 293.070587 
L 396.063959 214.292886 
L 396.450208 276.465029 
L 397.608952 365.22627 
L 397.995201 351.962643 
L 398.381449 280.616953 
L 398.767697 243.421986 
L 399.153946 335.007092 
L 400.31269 306.700548 
L 400.698939 366.981141 
L 401.085187 337.313159 
L 401.471435 356.887008 
L 401.857683 282.415225 
L 403.016428 325.702694 
L 403.402677 295.992388 
L 403.788925 220.949304 
L 404.175173 350.935942 
L 404.561421 328.770788 
L 405.720166 323.104625 
L 406.106414 349.887988 
L 406.492663 357.908187 
L 406.878911 313.905155 
L 407.265159 303.749593 
L 408.810152 347.635088 
L 409.582649 243.720932 
L 409.968897 318.751956 
L 411.127642 352.25013 
L 411.51389 353.715858 
L 411.900138 318.940728 
L 413.83138 254.007396 
L 414.217628 353.777257 
L 414.603876 339.904697 
L 414.990125 184.855891 
L 415.376373 348.920798 
L 416.921366 342.822507 
L 417.307614 366.248961 
L 417.693862 334.273624 
L 418.080111 277.254833 
L 419.238856 355.913089 
L 419.625104 299.031549 
L 420.011352 351.54027 
L 420.3976 368.8498 
L 420.783849 337.043981 
L 422.328842 359.066392 
L 422.71509 343.256502 
L 423.101338 300.747435 
L 423.487587 366.365844 
L 424.646331 323.651255 
L 425.418828 358.623265 
L 425.805076 340.298543 
L 426.191324 300.04674 
L 427.350069 324.321954 
L 427.736317 249.146199 
L 428.122566 318.746383 
L 428.508814 310.10453 
L 428.895062 363.247106 
L 430.053807 358.516558 
L 430.440055 366.525538 
L 430.826304 145.565866 
L 431.212552 270.204989 
L 431.5988 351.416559 
L 432.757545 343.266849 
L 433.143793 365.922781 
L 433.530042 336.848559 
L 433.91629 356.190246 
L 434.302538 368.088377 
L 435.461283 367.66516 
L 435.847531 318.131656 
L 436.233779 286.514911 
L 436.620028 350.848308 
L 437.006276 302.952435 
L 438.165021 363.164123 
L 438.551269 366.883051 
L 438.937517 366.470303 
L 439.710014 331.001424 
L 440.868759 294.245507 
L 441.255007 365.965944 
L 441.641255 349.796621 
L 442.027503 313.111572 
L 442.413752 245.449841 
L 443.572497 338.297896 
L 443.958745 343.322365 
L 444.344993 340.880766 
L 444.731241 365.782594 
L 445.11749 330.203272 
L 446.662483 358.511495 
L 447.048731 305.452439 
L 447.434979 341.594676 
L 447.821228 324.897754 
L 448.979972 347.782647 
L 449.366221 273.341253 
L 449.752469 357.380399 
L 450.138717 322.80329 
L 450.524965 362.138709 
L 451.68371 349.539249 
L 452.069958 323.227498 
L 452.456207 353.837221 
L 452.842455 264.274119 
L 453.228703 335.162817 
L 454.387448 343.476533 
L 454.773696 369.36 
L 455.159945 317.321913 
L 455.546193 299.468405 
L 455.932441 322.580333 
L 457.091186 252.215016 
L 457.477434 265.870447 
L 457.863683 356.993017 
L 458.249931 345.671957 
L 458.636179 266.549065 
L 459.794924 329.309589 
L 460.181172 290.678907 
L 460.56742 343.524487 
L 460.953669 267.688901 
L 461.339917 262.791479 
L 462.498662 257.576358 
L 462.88491 336.365699 
L 463.271158 368.422309 
L 463.657407 324.514109 
L 464.043655 256.763869 
L 465.2024 365.229157 
L 465.588648 318.833272 
L 465.974896 349.544339 
L 466.361144 338.079599 
L 466.747393 258.29302 
L 467.906138 343.460399 
L 468.292386 328.87418 
L 468.678634 249.92731 
L 469.064882 359.608546 
L 469.451131 281.151783 
L 470.609875 350.7803 
L 470.996124 364.597022 
L 471.382372 305.132454 
L 471.76862 173.250439 
L 472.154868 358.570446 
L 473.313613 342.31956 
L 473.699862 326.613905 
L 474.472358 362.289805 
L 474.858606 337.044473 
L 476.017351 363.583144 
L 476.403599 348.364266 
L 476.789848 368.94952 
L 477.562344 358.297485 
L 478.721089 264.631088 
L 479.107337 351.576088 
L 479.493586 243.167724 
L 479.879834 351.43132 
L 480.266082 359.185309 
L 481.424827 322.559862 
L 481.811075 318.945734 
L 482.197323 360.531196 
L 482.583572 307.223962 
L 482.96982 326.114142 
L 484.128565 299.781484 
L 484.514813 297.212727 
L 484.901061 359.322057 
L 485.28731 222.568834 
L 485.673558 348.690651 
L 486.832303 296.19173 
L 487.218551 357.266907 
L 487.604799 345.735227 
L 487.991048 338.398218 
L 488.377296 358.540805 
L 489.922289 346.034963 
L 490.308537 305.910832 
L 490.694785 294.309941 
L 491.081034 348.707979 
L 492.626027 358.157367 
L 493.012275 321.110986 
L 493.398523 333.989523 
L 493.784772 290.20065 
L 495.329765 361.892247 
L 495.716013 312.66434 
L 496.102261 360.411211 
L 496.488509 347.760219 
L 498.033503 356.301631 
L 498.419751 296.055383 
L 498.805999 305.016831 
L 499.192247 340.18645 
L 500.350992 334.190381 
L 500.73724 347.361912 
L 501.123489 366.048872 
L 501.509737 328.945714 
L 501.895985 358.47838 
L 503.05473 354.283627 
L 503.440978 307.817136 
L 503.827227 313.400294 
L 504.599723 350.491193 
L 505.758468 362.120731 
L 506.144716 351.231684 
L 506.530964 366.531071 
L 506.917213 330.315389 
L 507.303461 350.485459 
L 508.462206 318.321216 
L 508.848454 353.928011 
L 509.234702 339.778126 
L 509.620951 365.323433 
L 510.007199 356.003761 
L 511.552192 240.74788 
L 511.93844 338.42784 
L 512.324689 350.257853 
L 512.710937 321.6091 
L 513.869682 350.517826 
L 514.25593 345.534484 
L 514.642178 361.315292 
L 515.028426 341.9869 
L 515.414675 335.980012 
L 516.573419 368.114089 
L 516.959668 328.407273 
L 518.118413 307.655269 
L 519.277157 358.603136 
L 519.663406 311.68688 
L 520.049654 302.623863 
L 520.435902 297.545889 
L 520.82215 329.79982 
L 521.980895 331.91477 
L 522.367144 339.875459 
L 522.753392 338.182584 
L 523.13964 337.76352 
L 523.525888 359.730826 
L 524.684633 355.955404 
L 525.070881 360.954075 
L 525.45713 297.763739 
L 525.843378 334.545612 
L 526.229626 326.455287 
L 527.388371 349.191659 
L 527.774619 304.38926 
L 528.160868 303.500271 
L 528.547116 352.051695 
L 530.092109 336.51022 
L 530.478357 360.127811 
L 530.864605 365.575882 
L 531.250854 346.719424 
L 531.637102 347.981281 
L 532.795847 348.817222 
L 533.182095 360.571672 
L 533.568343 324.212553 
L 533.954592 361.27813 
L 534.34084 355.702653 
L 535.499585 362.524232 
L 535.885833 277.174622 
L 536.272081 326.950926 
L 536.658329 330.46427 
L 537.044578 339.616286 
L 538.589571 322.598702 
L 538.975819 346.16672 
L 539.362067 358.36267 
L 539.748316 319.94236 
L 541.293309 362.374717 
L 541.679557 357.580789 
L 542.065805 354.51999 
L 542.452054 368.484771 
L 543.610798 341.473618 
L 543.997047 326.122616 
L 544.383295 337.858204 
L 544.769543 340.31475 
L 545.155791 354.652822 
L 546.314536 348.185092 
L 546.700784 298.38635 
L 547.087033 294.118371 
L 547.473281 325.963596 
L 547.859529 252.785851 
L 549.404522 362.504058 
L 549.790771 312.364635 
L 550.177019 353.283943 
L 550.563267 294.372933 
L 551.722012 332.294465 
L 552.10826 335.26131 
L 552.494509 316.362011 
L 552.880757 365.607094 
L 553.267005 343.418437 
L 554.42575 311.89562 
L 554.811998 319.788254 
L 555.198246 367.326198 
L 555.584495 324.907021 
L 555.970743 358.14017 
L 557.515736 325.059869 
L 557.901984 356.410973 
L 558.288233 356.410973 
L 558.674481 334.304466 
L 559.833226 354.232321 
L 560.219474 301.53389 
L 560.605722 358.190562 
L 561.378219 310.815353 
L 562.536964 335.53145 
L 563.30946 360.750108 
L 563.695708 363.083952 
L 564.081957 366.217776 
L 565.240701 320.212282 
L 565.62695 368.19836 
L 566.013198 341.976324 
L 566.399446 363.220261 
L 566.785695 326.528357 
L 567.944439 347.295674 
L 568.330688 364.348568 
L 568.716936 362.418898 
L 569.103184 337.942475 
L 569.489432 341.965018 
L 570.648177 368.180553 
L 571.034425 341.175409 
L 571.420674 206.260384 
L 571.806922 363.060722 
L 572.19317 324.633745 
L 573.351915 341.706946 
L 573.738163 357.844191 
L 574.124412 360.44801 
L 574.51066 365.643591 
L 574.896908 325.238965 
L 576.055653 310.416347 
L 576.441901 365.290356 
L 577.600646 343.08795 
L 578.759391 358.450408 
L 579.145639 343.343006 
L 579.531887 333.964616 
L 580.304384 363.581758 
L 581.463129 360.11939 
L 581.849377 356.696257 
L 582.621874 338.007829 
L 583.008122 340.291683 
L 584.166867 356.059356 
L 584.553115 321.918261 
L 584.939363 355.185696 
L 585.325611 366.011976 
L 587.256853 347.022467 
L 587.643101 368.986338 
L 588.029349 323.840158 
L 588.415598 336.619339 
L 589.574342 348.003597 
L 589.960591 363.662941 
L 590.346839 365.943124 
L 590.733087 369.36 
L 591.119335 339.212705 
L 592.27808 349.866151 
L 592.664329 367.074292 
L 593.050577 312.507437 
L 593.436825 311.900952 
L 593.823073 368.965878 
L 594.981818 366.598317 
L 595.368066 297.535814 
L 595.754315 333.251686 
L 596.140563 301.4376 
L 596.526811 365.840362 
L 597.685556 316.508145 
L 598.071804 350.619101 
L 598.458053 323.298332 
L 598.844301 341.641515 
L 599.230549 340.458531 
L 600.389294 359.095407 
L 600.775542 355.549909 
L 601.16179 323.223137 
L 601.548039 349.889513 
L 601.934287 280.687746 
L 603.093032 310.505688 
L 603.47928 358.342719 
L 603.865528 285.011623 
L 604.251777 343.058715 
L 604.638025 327.246805 
L 605.79677 341.258345 
L 606.183018 366.041349 
L 606.569266 352.817143 
L 606.955515 347.158786 
L 607.341763 332.688149 
L 608.500508 341.714839 
L 608.886756 346.022908 
L 609.659252 310.707969 
L 610.045501 303.974151 
L 611.204246 353.037757 
L 611.590494 362.743651 
L 611.976742 344.56965 
L 612.36299 365.49862 
L 612.749239 310.016047 
L 613.907983 360.241188 
L 614.294232 281.512174 
L 614.68048 357.157923 
L 615.066728 350.590939 
L 615.452976 363.860274 
L 616.611721 363.860274 
L 616.99797 364.959483 
L 617.384218 354.003874 
L 618.156714 359.525765 
L 619.315459 360.620128 
L 619.701707 361.693463 
L 620.087956 359.506385 
L 620.860452 323.097155 
L 622.019197 354.72694 
L 622.405445 349.627089 
L 622.791694 336.774918 
L 623.177942 360.464377 
L 623.56419 342.816705 
L 624.722935 299.263615 
L 625.109183 361.777697 
L 625.495431 346.375817 
L 625.88168 278.997596 
L 626.267928 353.765776 
L 627.426673 345.440749 
L 627.812921 369.026743 
L 628.199169 326.735572 
L 628.971666 345.375284 
L 630.516659 353.467061 
L 630.902907 368.699432 
L 631.289156 368.368772 
L 631.675404 359.099177 
L 633.220397 292.215316 
L 633.606645 309.425209 
L 633.992893 353.769715 
L 634.379142 363.451159 
L 635.537886 296.421562 
L 635.924135 344.426647 
L 636.310383 357.040493 
L 637.08288 366.634481 
L 638.627873 357.077584 
L 639.400369 322.469612 
L 639.786617 338.579357 
L 640.945362 357.262217 
L 641.331611 368.353593 
L 641.717859 279.339065 
L 642.104107 364.466836 
L 642.490355 366.098617 
L 643.6491 345.301768 
L 644.035348 326.557871 
L 644.421597 315.200943 
L 645.194093 336.159106 
L 646.352838 354.397252 
L 646.739086 362.332662 
L 647.125335 322.057008 
L 647.511583 350.50258 
L 647.897831 355.911728 
L 649.056576 361.235005 
L 649.442824 307.774253 
L 649.829072 336.686323 
L 650.215321 320.484145 
L 650.601569 364.691806 
L 652.146562 340.897 
L 652.53281 357.131338 
L 652.919059 324.289463 
L 653.305307 338.021341 
L 654.464052 350.152179 
L 654.8503 364.492548 
L 655.236548 356.901371 
L 655.622796 342.476877 
L 656.009045 322.46656 
L 657.16779 336.605225 
L 657.554038 301.722879 
L 657.940286 343.386486 
L 658.326534 344.475611 
L 658.712783 341.500626 
L 659.871527 353.547021 
L 660.257776 347.896917 
L 660.644024 367.279465 
L 661.030272 334.989652 
L 661.416521 366.95577 
L 662.575265 360.652594 
L 662.961514 328.23688 
L 663.347762 335.772763 
L 663.73401 302.62352 
L 664.120258 369.072939 
L 665.279003 363.610927 
L 665.665251 343.943377 
L 666.0515 313.016671 
L 666.437748 367.935366 
L 667.982741 332.114005 
L 668.368989 340.709605 
L 668.755238 302.893756 
L 669.141486 361.660138 
L 669.527734 304.900123 
L 670.686479 348.013698 
L 671.072727 322.818658 
L 671.458976 363.066168 
L 671.845224 337.443781 
L 672.231472 295.947583 
L 673.390217 342.279214 
L 673.776465 364.101104 
L 674.162713 337.679644 
L 674.548962 351.330583 
L 674.93521 348.249657 
L 676.093955 319.332295 
L 676.480203 299.598572 
L 676.866451 310.922981 
L 677.2527 293.946128 
L 677.638948 328.74495 
L 678.797693 324.932668 
L 679.183941 332.560437 
L 679.570189 328.013182 
L 679.956437 321.760614 
L 680.342686 325.11867 
L 681.501431 312.248461 
L 681.887679 367.516111 
L 682.273927 319.93439 
L 683.046424 368.329733 
L 684.205168 358.781443 
L 684.591417 333.37742 
L 684.977665 283.579181 
L 685.363913 363.128309 
L 685.750162 364.373778 
L 686.908906 333.433924 
L 687.295155 319.471669 
L 687.681403 349.153856 
L 688.067651 324.972589 
L 688.453899 365.503214 
L 689.998892 314.389527 
L 690.385141 346.963948 
L 690.771389 369.36 
L 691.157637 352.027278 
L 692.316382 354.680003 
L 692.70263 325.933137 
L 693.088879 288.73868 
L 693.475127 309.142942 
L 693.861375 363.830574 
L 695.02012 289.834859 
L 695.406368 354.905454 
L 695.792617 298.025116 
L 696.178865 355.039078 
L 696.565113 334.883771 
L 697.723858 326.7958 
L 698.110106 342.386793 
L 698.882603 307.995757 
L 699.268851 355.464718 
L 700.427596 298.799906 
L 700.813844 335.824261 
L 701.200092 330.446576 
L 701.586341 353.25253 
L 701.972589 363.512004 
L 703.131334 362.05163 
L 703.517582 367.41372 
L 703.90383 358.191294 
L 704.676327 358.712388 
L 705.835072 368.393258 
L 706.607568 302.988921 
L 706.993816 346.282293 
L 707.380065 353.799911 
L 708.538809 362.296332 
L 708.925058 336.525465 
L 709.311306 66.96 
L 709.697554 287.989988 
L 710.083802 294.635389 
L 711.242547 274.231949 
L 711.628796 368.367722 
L 712.015044 150.45403 
L 712.401292 357.144367 
L 712.78754 259.477644 
L 713.946285 345.084416 
L 714.718782 248.521664 
L 715.10503 258.057709 
L 715.491278 207.252277 
L 716.650023 327.974026 
L 717.036271 286.554028 
L 717.42252 360.590906 
L 717.808768 244.242623 
L 718.195016 356.214054 
L 719.353761 346.871247 
L 719.740009 279.898486 
L 720.126257 368.345905 
L 720.512506 307.078909 
L 720.898754 356.898024 
L 722.443747 336.342388 
L 722.829995 360.545802 
L 723.216244 347.772592 
L 723.602492 340.445381 
L 724.761237 335.519329 
L 725.147485 362.450645 
L 725.533733 357.978069 
L 725.919982 344.666323 
L 726.30623 337.046098 
L 727.851223 87.71517 
L 728.237471 336.820237 
L 728.623719 339.475298 
L 729.009968 260.808391 
L 730.168713 321.393044 
L 730.554961 366.114811 
L 730.941209 301.412935 
L 731.327457 296.56852 
L 731.713706 362.633839 
L 732.87245 353.297967 
L 733.258699 332.1746 
L 733.644947 333.732355 
L 734.031195 267.639745 
L 734.417443 338.300854 
L 735.576188 357.371681 
L 735.962437 345.427316 
L 736.348685 329.877872 
L 736.734933 351.309285 
L 737.121181 334.169691 
L 738.279926 362.291419 
L 738.666174 290.760307 
L 739.052423 292.009054 
L 739.438671 365.656041 
L 739.824919 351.934743 
L 740.983664 345.746508 
L 741.369912 292.872581 
L 741.756161 338.345681 
L 742.142409 350.073777 
L 742.528657 318.848411 
L 743.687402 279.375168 
L 744.07365 286.385207 
L 744.459898 304.970675 
L 744.846147 342.980174 
L 745.232395 365.465132 
L 746.39114 340.492737 
L 746.777388 368.376775 
L 747.163636 290.673355 
L 747.163636 290.673355 
" clip-path="url(#p64edcda659)" style="fill: none; stroke: #000000; stroke-width: 1.5; stroke-linecap: square"/>
   </g>
   <g id="line2d_17">
    <path d="M 138.436364 260.111379 
L 138.822612 277.071937 
L 139.20886 277.139729 
L 140.753853 283.33924 
L 141.140102 282.551136 
L 141.52635 278.776065 
L 141.912598 279.744005 
L 142.298846 280.223109 
L 143.457591 285.41712 
L 143.843839 280.625175 
L 144.230088 278.692004 
L 145.002584 288.149933 
L 146.161329 291.387543 
L 146.547577 291.519793 
L 146.933826 293.84686 
L 147.320074 288.970371 
L 147.706322 286.957811 
L 148.865067 306.068569 
L 149.251315 306.620621 
L 149.637563 305.002303 
L 150.023812 306.536231 
L 150.41006 306.461755 
L 151.568805 308.681268 
L 151.955053 308.499803 
L 152.341301 308.016295 
L 152.72755 310.545872 
L 153.113798 311.251735 
L 154.272543 311.756587 
L 154.658791 313.845331 
L 155.045039 313.331396 
L 155.431287 313.617133 
L 155.817536 314.232642 
L 156.976281 313.636623 
L 157.362529 316.120078 
L 157.748777 315.836103 
L 158.135025 316.585706 
L 158.521274 314.804299 
L 159.680018 315.264077 
L 160.066267 315.673724 
L 160.452515 318.134641 
L 160.838763 319.291523 
L 161.225012 318.263581 
L 162.383756 318.019375 
L 162.770005 318.472699 
L 163.156253 317.806796 
L 163.542501 316.87858 
L 163.928749 287.471648 
L 165.473743 287.953736 
L 165.859991 277.186659 
L 166.246239 283.282175 
L 166.632487 281.902574 
L 167.791232 293.474456 
L 168.17748 302.617822 
L 168.563729 305.323978 
L 169.336225 307.542422 
L 170.49497 306.533763 
L 170.881218 293.378357 
L 171.267467 293.633259 
L 171.653715 291.65 
L 172.039963 291.798797 
L 173.198708 292.864915 
L 173.584956 292.736082 
L 173.971204 294.659125 
L 174.357453 295.003442 
L 174.743701 294.766276 
L 175.902446 295.676055 
L 176.288694 294.238108 
L 176.674942 292.286587 
L 177.061191 290.974219 
L 177.447439 295.055354 
L 178.606184 300.140046 
L 178.992432 298.486325 
L 179.37868 294.854126 
L 179.764928 296.432619 
L 180.151177 297.20278 
L 181.309922 304.097879 
L 181.69617 299.598352 
L 182.468666 303.543734 
L 182.854915 302.245477 
L 184.013659 303.390964 
L 184.399908 296.465573 
L 184.786156 294.544751 
L 185.172404 280.581521 
L 185.558653 279.561702 
L 186.717397 280.889722 
L 187.103646 285.583932 
L 187.489894 286.842705 
L 188.26239 304.644871 
L 189.421135 314.103966 
L 189.807383 312.89448 
L 190.193632 315.090135 
L 190.57988 313.963086 
L 190.966128 308.93852 
L 192.124873 308.683542 
L 192.511121 308.127888 
L 192.89737 308.596934 
L 193.283618 307.646539 
L 193.669866 307.715537 
L 194.828611 309.925361 
L 195.214859 309.633075 
L 195.601108 308.448955 
L 196.373604 309.390907 
L 197.532349 309.299655 
L 197.918597 308.789 
L 198.304845 311.638086 
L 198.691094 310.710288 
L 199.077342 311.591284 
L 200.236087 312.766508 
L 200.622335 311.71521 
L 201.008583 313.630324 
L 201.78108 314.705788 
L 202.939825 315.579955 
L 203.326073 314.509742 
L 203.712321 314.966435 
L 204.098569 314.915176 
L 204.484818 315.112662 
L 205.643563 314.786402 
L 206.029811 313.745989 
L 206.416059 313.812505 
L 206.802307 314.920865 
L 208.3473 316.350534 
L 208.733549 318.09298 
L 209.119797 317.464697 
L 211.051038 318.387642 
L 211.437287 315.702357 
L 211.823535 315.017453 
L 212.209783 313.667994 
L 212.596031 314.561158 
L 214.141024 316.942803 
L 214.527273 316.52547 
L 214.913521 317.492923 
L 215.299769 317.460113 
L 216.844762 314.9998 
L 217.617259 316.12929 
L 218.003507 316.147512 
L 219.162252 315.834476 
L 219.5485 315.925886 
L 219.934749 313.840149 
L 220.320997 287.984972 
L 220.707245 286.597422 
L 221.86599 284.506939 
L 222.252238 286.011959 
L 222.638486 303.528663 
L 223.024735 311.357016 
L 223.410983 313.683547 
L 224.569728 318.167199 
L 224.955976 315.632512 
L 225.342224 317.399157 
L 225.728473 316.288316 
L 226.114721 316.680375 
L 228.045962 315.158048 
L 228.43221 313.703301 
L 228.818459 309.791004 
L 229.977204 310.252879 
L 230.7497 304.055743 
L 231.135948 304.23386 
L 231.522197 291.003065 
L 232.680941 290.917298 
L 233.06719 292.34889 
L 233.453438 293.349133 
L 233.839686 286.524579 
L 234.225934 267.770222 
L 235.384679 267.172419 
L 235.770928 272.675052 
L 236.157176 274.533376 
L 238.088417 298.795404 
L 238.474665 299.119382 
L 238.860914 298.953707 
L 239.247162 302.881863 
L 239.63341 301.249201 
L 240.792155 299.376243 
L 241.178403 303.312476 
L 241.564652 297.676104 
L 241.9509 297.396828 
L 242.337148 297.40367 
L 243.495893 296.055689 
L 243.882141 296.494482 
L 244.268389 295.527955 
L 244.654638 298.829876 
L 246.199631 303.495262 
L 246.972127 299.885844 
L 247.358376 299.669255 
L 247.744624 304.128852 
L 248.903369 308.395843 
L 249.289617 304.773003 
L 249.675865 308.958181 
L 250.062114 308.204322 
L 250.448362 308.976347 
L 251.607107 314.833468 
L 251.993355 313.113566 
L 252.379603 311.921868 
L 252.765851 311.829269 
L 253.1521 312.04677 
L 254.310844 311.862795 
L 254.697093 313.346204 
L 255.083341 312.500341 
L 255.469589 311.992972 
L 255.855838 312.089787 
L 257.400831 307.523526 
L 257.787079 307.745586 
L 258.173327 309.779033 
L 258.559575 313.04837 
L 259.71832 313.137279 
L 260.104569 311.866725 
L 260.490817 310.147884 
L 260.877065 290.112529 
L 261.263313 288.621368 
L 262.422058 313.158732 
L 262.808306 316.66424 
L 263.194555 313.737339 
L 263.580803 314.230059 
L 263.967051 314.468688 
L 265.125796 316.274518 
L 265.512044 316.37874 
L 265.898293 316.194143 
L 266.284541 317.479413 
L 266.670789 319.584112 
L 268.215782 320.75111 
L 268.60203 318.7542 
L 268.988279 319.184435 
L 269.374527 318.84997 
L 270.533272 318.580684 
L 270.91952 316.97553 
L 271.305768 317.320998 
L 271.692017 317.363153 
L 272.078265 318.654312 
L 273.23701 319.594493 
L 273.623258 319.293005 
L 274.009506 320.478305 
L 274.395754 320.190662 
L 275.940748 318.1074 
L 276.326996 317.729054 
L 277.099492 317.686504 
L 277.485741 320.448969 
L 279.030734 321.169801 
L 279.416982 321.977606 
L 280.189479 322.00733 
L 281.734472 321.617466 
L 282.12072 320.904084 
L 282.506968 320.860239 
L 282.893216 319.692843 
L 284.051961 318.644963 
L 284.43821 321.246495 
L 284.824458 320.590375 
L 285.210706 320.693437 
L 285.596954 319.834354 
L 287.528196 313.989514 
L 287.914444 314.688322 
L 288.300692 315.955238 
L 290.231934 315.36153 
L 290.618182 316.146789 
L 291.00443 316.074942 
L 292.163175 316.519604 
L 292.549423 317.1874 
L 292.935671 316.704375 
L 293.32192 317.007532 
L 293.708168 318.606977 
L 294.866913 319.421644 
L 295.253161 319.21456 
L 295.639409 319.695048 
L 296.025658 320.813641 
L 296.411906 321.171162 
L 297.570651 322.043301 
L 297.956899 321.326149 
L 298.343147 320.891261 
L 298.729395 320.746414 
L 299.115644 321.062424 
L 300.274389 321.755455 
L 300.660637 321.570562 
L 301.046885 322.03758 
L 301.433133 321.767029 
L 301.819382 321.668332 
L 302.978126 321.952874 
L 303.364375 323.07615 
L 303.750623 322.892805 
L 304.136871 323.11425 
L 304.52312 323.10566 
L 306.068113 323.313405 
L 306.454361 322.231467 
L 307.226857 321.819007 
L 308.385602 322.040794 
L 308.77185 321.763246 
L 309.544347 321.885632 
L 309.930595 322.501288 
L 311.08934 320.963988 
L 311.475588 313.794957 
L 311.861837 313.447051 
L 312.248085 314.356411 
L 312.634333 318.2529 
L 313.793078 319.784094 
L 314.179326 319.635035 
L 314.565575 313.66407 
L 315.338071 310.086084 
L 316.496816 309.702092 
L 316.883064 307.648945 
L 317.269312 307.138572 
L 317.655561 310.450989 
L 318.041809 312.090852 
L 319.200554 317.609919 
L 319.586802 316.603432 
L 319.97305 315.021453 
L 320.359299 316.531188 
L 320.745547 316.411178 
L 321.904292 318.2755 
L 322.29054 317.980226 
L 322.676788 318.452804 
L 323.063036 319.113778 
L 323.449285 318.914689 
L 324.60803 319.117511 
L 324.994278 318.897962 
L 325.380526 318.538558 
L 325.766774 311.445688 
L 326.153023 311.671816 
L 327.311767 313.985377 
L 327.698016 314.068738 
L 328.084264 313.591951 
L 328.470512 314.936583 
L 328.85676 315.427958 
L 330.015505 312.893281 
L 330.401754 313.471353 
L 330.788002 313.437449 
L 331.17425 314.05417 
L 331.560498 314.117414 
L 332.719243 314.111393 
L 333.105491 314.774395 
L 333.49174 316.572039 
L 333.877988 316.047811 
L 334.264236 316.209109 
L 335.422981 317.381954 
L 335.809229 315.433544 
L 336.195478 315.628398 
L 336.967974 315.322963 
L 338.126719 284.859909 
L 338.512967 282.164128 
L 338.899216 274.757325 
L 339.285464 270.71403 
L 339.671712 270.472976 
L 340.830457 295.006344 
L 341.216705 295.69645 
L 341.602953 314.335208 
L 341.989202 315.52265 
L 342.37545 317.19551 
L 343.534195 318.487275 
L 344.306691 315.806136 
L 344.69294 315.661224 
L 346.237933 311.644353 
L 347.010429 307.14219 
L 347.396677 310.358771 
L 348.941671 312.745213 
L 349.327919 311.201364 
L 349.714167 313.04794 
L 350.100415 313.639144 
L 350.486664 312.979748 
L 351.645408 315.593794 
L 352.031657 312.666656 
L 352.417905 314.927427 
L 352.804153 309.336178 
L 353.190401 310.348193 
L 354.349146 299.239674 
L 354.735395 303.593139 
L 355.121643 304.03997 
L 355.507891 307.957087 
L 355.894139 305.855721 
L 357.439132 306.747065 
L 358.211629 297.550071 
L 358.597877 296.63784 
L 359.756622 292.148933 
L 360.14287 292.019949 
L 360.529119 286.969717 
L 360.915367 287.194603 
L 361.301615 284.161022 
L 362.46036 285.292802 
L 362.846608 289.438956 
L 363.232856 299.620146 
L 363.619105 305.457963 
L 364.005353 303.765764 
L 365.164098 304.421086 
L 365.550346 304.857052 
L 365.936594 308.084497 
L 366.322843 309.199413 
L 366.709091 301.105984 
L 367.867836 273.887003 
L 368.640332 275.51146 
L 369.026581 292.244546 
L 369.412829 287.686314 
L 371.34407 286.220187 
L 371.730318 283.157696 
L 372.116567 282.409589 
L 373.275311 282.939518 
L 373.66156 281.798559 
L 374.047808 274.689908 
L 374.434056 274.064574 
L 374.820305 285.634848 
L 375.979049 286.821183 
L 376.365298 267.871572 
L 376.751546 267.846771 
L 377.524042 272.129582 
L 378.682787 273.848998 
L 379.069036 268.756232 
L 379.455284 269.806925 
L 380.22778 293.725126 
L 381.386525 299.88426 
L 381.772773 295.820429 
L 382.159022 297.582555 
L 382.54527 294.969581 
L 382.931518 297.216237 
L 384.476511 310.052637 
L 384.86276 307.727591 
L 385.249008 306.517302 
L 385.635256 303.568118 
L 386.794001 309.832138 
L 387.180249 308.120846 
L 387.566497 303.583405 
L 387.952746 300.616666 
L 388.338994 301.38294 
L 389.497739 301.387241 
L 389.883987 296.472704 
L 390.656484 301.631062 
L 392.201477 298.028716 
L 392.973973 305.375584 
L 393.360222 304.717401 
L 393.74647 305.039319 
L 394.905215 287.055622 
L 395.291463 285.06606 
L 395.677711 273.065875 
L 396.063959 269.831378 
L 397.608952 249.184221 
L 397.995201 253.540097 
L 398.381449 274.86581 
L 398.767697 289.472978 
L 399.153946 281.194397 
L 400.31269 278.005802 
L 400.698939 273.075662 
L 401.085187 274.131895 
L 401.471435 274.783004 
L 401.857683 279.437286 
L 403.016428 278.190971 
L 403.402677 279.24725 
L 403.788925 281.463246 
L 404.175173 271.786451 
L 404.561421 272.30389 
L 405.720166 275.933138 
L 406.106414 276.738567 
L 406.492663 278.044274 
L 406.878911 278.385002 
L 407.265159 278.972825 
L 408.810152 283.494948 
L 409.196401 281.612404 
L 409.582649 278.715921 
L 409.968897 278.135838 
L 411.127642 277.594946 
L 411.51389 280.804547 
L 411.900138 285.078521 
L 412.286387 285.305609 
L 412.672635 282.76824 
L 413.83138 279.954951 
L 414.217628 267.415764 
L 414.603876 267.343191 
L 414.990125 272.801262 
L 415.376373 251.824701 
L 416.921366 254.049192 
L 417.693862 265.491278 
L 418.080111 268.991256 
L 419.238856 269.830796 
L 419.625104 275.293143 
L 420.011352 272.282943 
L 420.3976 272.526879 
L 420.783849 281.176629 
L 422.328842 282.510236 
L 422.71509 286.752791 
L 423.101338 286.798058 
L 423.487587 286.25925 
L 424.646331 298.787024 
L 425.03258 289.52723 
L 425.418828 289.032796 
L 425.805076 289.689175 
L 426.191324 290.865231 
L 427.350069 294.945953 
L 428.122566 289.443005 
L 428.508814 292.668642 
L 428.895062 292.459376 
L 430.053807 296.725828 
L 430.440055 291.955326 
L 430.826304 293.32214 
L 431.212552 290.63516 
L 431.5988 290.176512 
L 432.757545 296.95056 
L 433.143793 304.821426 
L 433.530042 305.249302 
L 433.91629 305.968984 
L 434.302538 309.74804 
L 435.461283 313.503656 
L 435.847531 313.748999 
L 436.233779 310.740127 
L 436.620028 311.187355 
L 437.006276 311.378889 
L 438.165021 310.544587 
L 438.551269 311.720186 
L 438.937517 311.525182 
L 439.323766 312.87586 
L 439.710014 313.321662 
L 440.868759 311.592013 
L 441.255007 306.04758 
L 441.641255 307.141368 
L 442.027503 306.156521 
L 442.413752 305.893085 
L 443.572497 283.430298 
L 443.958745 282.000339 
L 444.344993 282.761323 
L 444.731241 282.87797 
L 445.11749 285.317617 
L 446.662483 283.489986 
L 447.048731 285.343883 
L 447.434979 285.821019 
L 447.821228 297.62876 
L 448.979972 300.306332 
L 449.366221 301.78259 
L 449.752469 291.884127 
L 450.138717 291.853299 
L 450.524965 290.990653 
L 451.68371 292.414263 
L 452.069958 294.529592 
L 452.456207 291.794199 
L 452.842455 292.304966 
L 453.228703 286.425897 
L 454.387448 284.890434 
L 454.773696 284.07771 
L 455.159945 285.323088 
L 455.546193 285.107384 
L 455.932441 281.409487 
L 457.091186 278.759342 
L 457.477434 276.658252 
L 457.863683 279.058986 
L 458.249931 287.269884 
L 458.636179 289.104541 
L 459.794924 275.16336 
L 460.181172 280.120034 
L 460.56742 275.442903 
L 460.953669 275.326876 
L 461.339917 274.229312 
L 462.498662 266.972177 
L 462.88491 266.044046 
L 463.271158 268.923228 
L 463.657407 281.220786 
L 464.043655 278.846486 
L 465.2024 277.760029 
L 465.588648 285.266279 
L 465.974896 288.436071 
L 466.361144 293.526089 
L 466.747393 294.687643 
L 468.292386 292.438364 
L 468.678634 293.913068 
L 469.064882 287.046168 
L 469.451131 294.335958 
L 470.996124 292.044668 
L 471.382372 295.195344 
L 472.154868 286.032139 
L 473.313613 296.718848 
L 473.699862 295.507081 
L 474.08611 296.080944 
L 474.472358 295.389753 
L 474.858606 296.82147 
L 476.403599 301.993723 
L 476.789848 304.550454 
L 477.562344 308.243248 
L 478.721089 310.649427 
L 479.107337 304.007945 
L 479.493586 305.484417 
L 479.879834 303.419186 
L 480.266082 305.325887 
L 481.424827 306.312505 
L 481.811075 304.183922 
L 482.197323 301.130624 
L 482.583572 301.594024 
L 482.96982 300.618585 
L 484.128565 299.066796 
L 484.514813 297.934756 
L 484.901061 297.897944 
L 485.28731 300.867168 
L 485.673558 291.940107 
L 486.832303 293.85389 
L 487.218551 288.755265 
L 487.604799 292.892914 
L 487.991048 298.645664 
L 488.377296 297.832903 
L 490.308537 303.025747 
L 490.694785 299.599604 
L 491.081034 299.15328 
L 492.626027 298.972439 
L 493.012275 299.65402 
L 493.398523 299.678996 
L 493.784772 298.190897 
L 494.943516 298.243171 
L 495.329765 298.567278 
L 495.716013 300.953204 
L 496.102261 301.181984 
L 496.488509 305.605968 
L 498.033503 307.259764 
L 498.419751 307.985634 
L 498.805999 303.425739 
L 499.192247 301.830878 
L 500.350992 305.146916 
L 500.73724 304.533284 
L 501.123489 304.525377 
L 501.509737 305.363741 
L 501.895985 305.280751 
L 503.05473 309.207921 
L 503.440978 307.133278 
L 503.827227 311.998092 
L 504.213475 312.543939 
L 504.599723 313.726791 
L 505.758468 313.203562 
L 506.144716 313.916152 
L 506.530964 313.674806 
L 506.917213 314.480258 
L 507.303461 312.848933 
L 509.234702 313.570465 
L 509.620951 314.613735 
L 510.007199 314.701786 
L 511.552192 314.812551 
L 511.93844 305.044379 
L 512.324689 304.021232 
L 512.710937 306.020226 
L 513.869682 303.783474 
L 514.25593 304.262726 
L 515.028426 307.190031 
L 515.414675 309.53976 
L 516.573419 312.745256 
L 516.959668 313.234157 
L 517.345916 311.914572 
L 517.732164 311.832013 
L 518.118413 308.94803 
L 519.277157 301.489127 
L 519.663406 301.160952 
L 520.049654 300.150539 
L 520.435902 296.177864 
L 520.82215 295.031851 
L 521.980895 293.129627 
L 522.367144 293.266455 
L 522.753392 303.080433 
L 523.13964 303.802455 
L 523.525888 303.924636 
L 524.684633 308.23538 
L 525.070881 308.191246 
L 525.45713 310.355754 
L 525.843378 310.216849 
L 526.229626 310.644813 
L 527.388371 311.148969 
L 527.774619 310.602645 
L 528.160868 311.623955 
L 528.547116 309.378653 
L 530.092109 309.720669 
L 530.478357 310.290519 
L 530.864605 310.421134 
L 531.250854 310.81709 
L 531.637102 311.840189 
L 532.795847 311.830879 
L 533.182095 312.730071 
L 533.954592 311.52226 
L 534.34084 312.685887 
L 535.499585 314.288797 
L 535.885833 316.533797 
L 536.272081 309.950481 
L 536.658329 309.094283 
L 537.044578 311.368485 
L 538.203323 314.244242 
L 538.589571 314.552381 
L 538.975819 312.558642 
L 539.362067 311.922236 
L 539.748316 312.110349 
L 540.90706 312.436687 
L 541.293309 313.174374 
L 541.679557 313.235442 
L 542.065805 313.970697 
L 542.452054 314.434327 
L 543.997047 315.84701 
L 544.383295 314.384255 
L 544.769543 315.337587 
L 545.155791 317.052849 
L 546.700784 316.726583 
L 547.473281 307.590509 
L 547.859529 307.404319 
L 549.404522 305.003742 
L 549.790771 308.278627 
L 550.177019 305.833637 
L 550.563267 308.744297 
L 551.722012 312.307013 
L 552.10826 310.715733 
L 552.494509 311.656719 
L 552.880757 313.83167 
L 553.267005 316.941107 
L 554.42575 316.035202 
L 554.811998 314.714806 
L 555.198246 314.323535 
L 555.584495 315.689442 
L 555.970743 315.000973 
L 557.515736 315.845975 
L 557.901984 314.484274 
L 558.288233 315.54312 
L 558.674481 315.851755 
L 559.833226 314.918508 
L 560.219474 315.000726 
L 560.605722 314.254475 
L 560.99197 315.025044 
L 561.378219 315.153269 
L 562.536964 314.532512 
L 563.30946 313.287226 
L 563.695708 313.250555 
L 564.081957 313.430834 
L 565.240701 315.117259 
L 565.62695 315.418017 
L 566.013198 316.040943 
L 566.785695 318.733773 
L 567.944439 317.707697 
L 568.330688 318.125911 
L 568.716936 319.47777 
L 569.103184 319.424631 
L 569.489432 318.813339 
L 570.648177 318.422962 
L 571.034425 318.709665 
L 571.420674 318.656662 
L 571.806922 315.797135 
L 572.19317 316.994232 
L 573.351915 315.327051 
L 574.124412 316.199927 
L 574.896908 316.490885 
L 576.055653 313.436194 
L 576.441901 312.992945 
L 576.82815 313.751973 
L 577.214398 314.069974 
L 577.600646 313.829166 
L 578.759391 313.972406 
L 579.145639 316.43898 
L 579.531887 315.918216 
L 579.918136 314.82701 
L 580.304384 314.508549 
L 581.463129 314.709607 
L 581.849377 316.288504 
L 582.235625 316.703294 
L 582.621874 317.421562 
L 583.008122 316.761723 
L 584.166867 317.214695 
L 584.553115 319.5349 
L 584.939363 319.632725 
L 585.71186 321.454624 
L 587.256853 322.112561 
L 587.643101 321.516665 
L 588.029349 321.633983 
L 588.415598 321.387802 
L 589.574342 320.815024 
L 590.346839 321.255834 
L 590.733087 321.221763 
L 591.119335 321.943104 
L 592.27808 321.039499 
L 592.664329 321.202042 
L 593.050577 321.771038 
L 593.436825 319.525952 
L 593.823073 315.900378 
L 594.981818 316.019244 
L 595.368066 316.258303 
L 595.754315 310.194835 
L 596.140563 309.719108 
L 596.526811 309.047757 
L 597.685556 310.148673 
L 598.071804 308.478104 
L 598.458053 308.054921 
L 598.844301 307.392784 
L 599.230549 307.534545 
L 600.389294 309.368866 
L 600.775542 309.650032 
L 601.16179 311.123126 
L 601.548039 312.065751 
L 601.934287 312.329224 
L 603.093032 304.507819 
L 603.47928 304.057544 
L 603.865528 307.743535 
L 604.251777 302.065721 
L 604.638025 301.482088 
L 605.79677 297.671214 
L 606.183018 297.150342 
L 606.569266 307.272311 
L 606.955515 307.417312 
L 607.341763 307.354592 
L 608.500508 305.911038 
L 608.886756 307.266711 
L 609.273004 311.277069 
L 610.045501 314.736485 
L 611.204246 315.539311 
L 611.590494 315.396601 
L 611.976742 318.886078 
L 612.36299 318.966841 
L 612.749239 319.287816 
L 613.907983 318.437316 
L 614.294232 318.667565 
L 614.68048 317.081291 
L 615.066728 317.877949 
L 615.452976 317.913155 
L 616.611721 318.91424 
L 616.99797 318.903365 
L 617.384218 319.739422 
L 619.315459 320.773532 
L 619.701707 320.619313 
L 620.474204 321.026607 
L 620.860452 321.566283 
L 623.177942 321.333479 
L 623.56419 321.596326 
L 624.722935 321.566459 
L 625.109183 320.748051 
L 625.495431 321.07827 
L 625.88168 321.22682 
L 626.267928 320.153728 
L 627.426673 320.912973 
L 627.812921 320.615813 
L 628.199169 320.896085 
L 628.585418 319.439186 
L 628.971666 319.021011 
L 630.516659 319.228569 
L 631.289156 320.313389 
L 631.675404 321.279321 
L 633.220397 321.207622 
L 633.992893 316.133555 
L 634.379142 315.934512 
L 635.537886 316.441747 
L 635.924135 315.679886 
L 636.310383 315.335007 
L 637.08288 317.637329 
L 638.627873 319.228589 
L 639.400369 317.801305 
L 639.786617 317.563668 
L 640.945362 318.097065 
L 641.331611 318.434497 
L 641.717859 318.546593 
L 642.104107 317.186263 
L 642.490355 318.267212 
L 643.6491 318.69307 
L 644.035348 318.471358 
L 644.421597 318.388266 
L 644.807845 316.306377 
L 645.194093 315.832958 
L 646.352838 315.908308 
L 646.739086 316.222947 
L 647.125335 316.941988 
L 647.511583 317.025895 
L 647.897831 317.671624 
L 649.056576 318.552837 
L 649.442824 318.069033 
L 649.829072 314.534691 
L 650.601569 315.967088 
L 652.146562 316.272234 
L 652.53281 315.21899 
L 652.919059 315.876796 
L 653.305307 316.068271 
L 656.009045 318.48192 
L 657.554038 318.592613 
L 657.940286 315.756448 
L 658.326534 315.91581 
L 658.712783 316.527839 
L 660.257776 315.303404 
L 660.644024 315.78817 
L 661.030272 316.901203 
L 661.416521 316.681766 
L 662.575265 317.312723 
L 662.961514 317.92745 
L 663.347762 317.740385 
L 663.73401 318.350598 
L 664.120258 317.841577 
L 665.279003 318.837601 
L 666.0515 318.190919 
L 666.437748 318.992007 
L 667.982741 320.466323 
L 668.368989 318.765524 
L 668.755238 318.11944 
L 669.141486 317.188862 
L 669.527734 317.148359 
L 670.686479 315.146493 
L 671.072727 314.880993 
L 671.458976 313.654001 
L 671.845224 313.917119 
L 672.231472 314.02466 
L 673.390217 308.748412 
L 673.776465 307.887606 
L 674.162713 308.820206 
L 674.548962 309.266491 
L 674.93521 309.266356 
L 676.093955 308.808208 
L 676.480203 309.036193 
L 676.866451 311.458399 
L 677.2527 312.286421 
L 677.638948 311.854139 
L 678.797693 313.634431 
L 679.183941 313.938998 
L 679.570189 313.252428 
L 679.956437 312.24561 
L 680.342686 312.877868 
L 681.501431 315.022504 
L 681.887679 315.307567 
L 682.273927 316.152753 
L 682.660175 316.084784 
L 683.046424 317.076385 
L 684.205168 318.165567 
L 684.591417 317.755252 
L 684.977665 317.681069 
L 685.363913 317.366183 
L 685.750162 317.737132 
L 686.908906 319.420402 
L 687.295155 318.286883 
L 687.681403 318.306518 
L 688.453899 317.744289 
L 689.998892 319.348526 
L 690.385141 317.453215 
L 690.771389 316.819971 
L 691.157637 317.272151 
L 692.70263 317.215546 
L 693.861375 314.754917 
L 695.02012 316.621851 
L 695.406368 314.847382 
L 695.792617 315.307041 
L 696.178865 314.78055 
L 696.565113 316.403028 
L 697.723858 315.295451 
L 698.110106 315.184212 
L 698.882603 315.890194 
L 699.268851 313.460581 
L 700.427596 314.35946 
L 700.813844 311.287263 
L 701.200092 311.541931 
L 701.586341 310.763778 
L 701.972589 312.604281 
L 703.131334 313.553696 
L 703.517582 314.646426 
L 703.90383 316.711056 
L 704.676327 317.535946 
L 706.22132 317.06741 
L 706.607568 317.130065 
L 706.993816 316.154538 
L 707.380065 316.168885 
L 708.538809 316.919103 
L 709.311306 316.522499 
L 709.697554 269.197552 
L 710.083802 267.407541 
L 711.242547 260.811801 
L 711.628796 262.457434 
L 712.015044 293.202456 
L 712.401292 247.692763 
L 712.78754 247.478577 
L 713.946285 250.389691 
L 714.332533 257.762975 
L 714.718782 254.966349 
L 715.10503 254.097144 
L 715.491278 248.550092 
L 716.650023 226.253634 
L 717.036271 221.224628 
L 717.42252 218.084573 
L 717.808768 284.795269 
L 718.195016 278.109623 
L 719.353761 288.225714 
L 719.740009 289.319009 
L 720.126257 289.699918 
L 720.512506 319.894801 
L 720.898754 302.490567 
L 722.057499 308.029512 
L 722.443747 303.903371 
L 722.829995 297.039173 
L 723.216244 299.867572 
L 723.602492 293.417884 
L 724.761237 297.679279 
L 725.147485 292.504184 
L 725.533733 294.214828 
L 725.919982 302.325664 
L 726.30623 303.894436 
L 727.851223 307.861175 
L 728.237471 258.591667 
L 728.623719 256.908439 
L 729.009968 264.956797 
L 730.168713 255.960027 
L 730.554961 256.652075 
L 730.941209 271.86562 
L 731.327457 270.105238 
L 732.87245 292.030094 
L 733.258699 286.925761 
L 733.644947 291.844015 
L 734.031195 287.386817 
L 734.417443 288.6893 
L 735.576188 295.032584 
L 735.962437 291.206249 
L 736.348685 293.204861 
L 736.734933 291.343711 
L 737.121181 294.46072 
L 738.279926 291.720772 
L 738.666174 293.707636 
L 739.052423 286.460021 
L 739.438671 281.476749 
L 739.824919 282.424939 
L 740.983664 284.657333 
L 741.756161 280.708372 
L 742.142409 282.804188 
L 742.528657 282.60808 
L 743.687402 282.483052 
L 744.07365 282.12653 
L 744.459898 296.650988 
L 744.846147 297.814835 
L 745.232395 300.916625 
L 746.39114 307.19893 
L 746.777388 306.772066 
L 747.163636 308.496066 
L 747.163636 308.496066 
" clip-path="url(#p64edcda659)" style="fill: none; stroke: #1f77b4; stroke-width: 1.5; stroke-linecap: square"/>
   </g>
   <g id="patch_3">
    <path d="M 108 384.48 
L 108 51.84 
" style="fill: none; stroke: #000000; stroke-width: 0.8; stroke-linejoin: miter; stroke-linecap: square"/>
   </g>
   <g id="patch_4">
    <path d="M 777.6 384.48 
L 777.6 51.84 
" style="fill: none; stroke: #000000; stroke-width: 0.8; stroke-linejoin: miter; stroke-linecap: square"/>
   </g>
   <g id="patch_5">
    <path d="M 108 384.48 
L 777.6 384.48 
" style="fill: none; stroke: #000000; stroke-width: 0.8; stroke-linejoin: miter; stroke-linecap: square"/>
   </g>
   <g id="patch_6">
    <path d="M 108 51.84 
L 777.6 51.84 
" style="fill: none; stroke: #000000; stroke-width: 0.8; stroke-linejoin: miter; stroke-linecap: square"/>
   </g>
   <g id="text_18">
    <!-- Volatility Prediction with LSTM MDN v2 -->
    <g transform="translate(327.174375 45.84) scale(0.12 -0.12)">
     <defs>
      <path id="DejaVuSans-20" transform="scale(0.015625)"/>
      <path id="DejaVuSans-50" d="M 1259 4147 
L 1259 2394 
L 2053 2394 
Q 2494 2394 2734 2622 
Q 2975 2850 2975 3272 
Q 2975 3691 2734 3919 
Q 2494 4147 2053 4147 
L 1259 4147 
z
M 628 4666 
L 2053 4666 
Q 2838 4666 3239 4311 
Q 3641 3956 3641 3272 
Q 3641 2581 3239 2228 
Q 2838 1875 2053 1875 
L 1259 1875 
L 1259 0 
L 628 0 
L 628 4666 
z
" transform="scale(0.015625)"/>
      <path id="DejaVuSans-72" d="M 2631 2963 
Q 2534 3019 2420 3045 
Q 2306 3072 2169 3072 
Q 1681 3072 1420 2755 
Q 1159 2438 1159 1844 
L 1159 0 
L 581 0 
L 581 3500 
L 1159 3500 
L 1159 2956 
Q 1341 3275 1631 3429 
Q 1922 3584 2338 3584 
Q 2397 3584 2469 3576 
Q 2541 3569 2628 3553 
L 2631 2963 
z
" transform="scale(0.015625)"/>
      <path id="DejaVuSans-64" d="M 2906 2969 
L 2906 4863 
L 3481 4863 
L 3481 0 
L 2906 0 
L 2906 525 
Q 2725 213 2448 61 
Q 2172 -91 1784 -91 
Q 1150 -91 751 415 
Q 353 922 353 1747 
Q 353 2572 751 3078 
Q 1150 3584 1784 3584 
Q 2172 3584 2448 3432 
Q 2725 3281 2906 2969 
z
M 947 1747 
Q 947 1113 1208 752 
Q 1469 391 1925 391 
Q 2381 391 2643 752 
Q 2906 1113 2906 1747 
Q 2906 2381 2643 2742 
Q 2381 3103 1925 3103 
Q 1469 3103 1208 2742 
Q 947 2381 947 1747 
z
" transform="scale(0.015625)"/>
      <path id="DejaVuSans-63" d="M 3122 3366 
L 3122 2828 
Q 2878 2963 2633 3030 
Q 2388 3097 2138 3097 
Q 1578 3097 1268 2742 
Q 959 2388 959 1747 
Q 959 1106 1268 751 
Q 1578 397 2138 397 
Q 2388 397 2633 464 
Q 2878 531 3122 666 
L 3122 134 
Q 2881 22 2623 -34 
Q 2366 -91 2075 -91 
Q 1284 -91 818 406 
Q 353 903 353 1747 
Q 353 2603 823 3093 
Q 1294 3584 2113 3584 
Q 2378 3584 2631 3529 
Q 2884 3475 3122 3366 
z
" transform="scale(0.015625)"/>
      <path id="DejaVuSans-6e" d="M 3513 2113 
L 3513 0 
L 2938 0 
L 2938 2094 
Q 2938 2591 2744 2837 
Q 2550 3084 2163 3084 
Q 1697 3084 1428 2787 
Q 1159 2491 1159 1978 
L 1159 0 
L 581 0 
L 581 3500 
L 1159 3500 
L 1159 2956 
Q 1366 3272 1645 3428 
Q 1925 3584 2291 3584 
Q 2894 3584 3203 3211 
Q 3513 2838 3513 2113 
z
" transform="scale(0.015625)"/>
      <path id="DejaVuSans-77" d="M 269 3500 
L 844 3500 
L 1563 769 
L 2278 3500 
L 2956 3500 
L 3675 769 
L 4391 3500 
L 4966 3500 
L 4050 0 
L 3372 0 
L 2619 2869 
L 1863 0 
L 1184 0 
L 269 3500 
z
" transform="scale(0.015625)"/>
      <path id="DejaVuSans-68" d="M 3513 2113 
L 3513 0 
L 2938 0 
L 2938 2094 
Q 2938 2591 2744 2837 
Q 2550 3084 2163 3084 
Q 1697 3084 1428 2787 
Q 1159 2491 1159 1978 
L 1159 0 
L 581 0 
L 581 4863 
L 1159 4863 
L 1159 2956 
Q 1366 3272 1645 3428 
Q 1925 3584 2291 3584 
Q 2894 3584 3203 3211 
Q 3513 2838 3513 2113 
z
" transform="scale(0.015625)"/>
      <path id="DejaVuSans-4c" d="M 628 4666 
L 1259 4666 
L 1259 531 
L 3531 531 
L 3531 0 
L 628 0 
L 628 4666 
z
" transform="scale(0.015625)"/>
      <path id="DejaVuSans-53" d="M 3425 4513 
L 3425 3897 
Q 3066 4069 2747 4153 
Q 2428 4238 2131 4238 
Q 1616 4238 1336 4038 
Q 1056 3838 1056 3469 
Q 1056 3159 1242 3001 
Q 1428 2844 1947 2747 
L 2328 2669 
Q 3034 2534 3370 2195 
Q 3706 1856 3706 1288 
Q 3706 609 3251 259 
Q 2797 -91 1919 -91 
Q 1588 -91 1214 -16 
Q 841 59 441 206 
L 441 856 
Q 825 641 1194 531 
Q 1563 422 1919 422 
Q 2459 422 2753 634 
Q 3047 847 3047 1241 
Q 3047 1584 2836 1778 
Q 2625 1972 2144 2069 
L 1759 2144 
Q 1053 2284 737 2584 
Q 422 2884 422 3419 
Q 422 4038 858 4394 
Q 1294 4750 2059 4750 
Q 2388 4750 2728 4690 
Q 3069 4631 3425 4513 
z
" transform="scale(0.015625)"/>
      <path id="DejaVuSans-54" d="M -19 4666 
L 3928 4666 
L 3928 4134 
L 2272 4134 
L 2272 0 
L 1638 0 
L 1638 4134 
L -19 4134 
L -19 4666 
z
" transform="scale(0.015625)"/>
      <path id="DejaVuSans-4d" d="M 628 4666 
L 1569 4666 
L 2759 1491 
L 3956 4666 
L 4897 4666 
L 4897 0 
L 4281 0 
L 4281 4097 
L 3078 897 
L 2444 897 
L 1241 4097 
L 1241 0 
L 628 0 
L 628 4666 
z
" transform="scale(0.015625)"/>
      <path id="DejaVuSans-4e" d="M 628 4666 
L 1478 4666 
L 3547 763 
L 3547 4666 
L 4159 4666 
L 4159 0 
L 3309 0 
L 1241 3903 
L 1241 0 
L 628 0 
L 628 4666 
z
" transform="scale(0.015625)"/>
      <path id="DejaVuSans-76" d="M 191 3500 
L 800 3500 
L 1894 563 
L 2988 3500 
L 3597 3500 
L 2284 0 
L 1503 0 
L 191 3500 
z
" transform="scale(0.015625)"/>
     </defs>
     <use xlink:href="#DejaVuSans-56"/>
     <use xlink:href="#DejaVuSans-6f" transform="translate(60.658203 0)"/>
     <use xlink:href="#DejaVuSans-6c" transform="translate(121.839844 0)"/>
     <use xlink:href="#DejaVuSans-61" transform="translate(149.623047 0)"/>
     <use xlink:href="#DejaVuSans-74" transform="translate(210.902344 0)"/>
     <use xlink:href="#DejaVuSans-69" transform="translate(250.111328 0)"/>
     <use xlink:href="#DejaVuSans-6c" transform="translate(277.894531 0)"/>
     <use xlink:href="#DejaVuSans-69" transform="translate(305.677734 0)"/>
     <use xlink:href="#DejaVuSans-74" transform="translate(333.460938 0)"/>
     <use xlink:href="#DejaVuSans-79" transform="translate(372.669922 0)"/>
     <use xlink:href="#DejaVuSans-20" transform="translate(431.849609 0)"/>
     <use xlink:href="#DejaVuSans-50" transform="translate(463.636719 0)"/>
     <use xlink:href="#DejaVuSans-72" transform="translate(522.189453 0)"/>
     <use xlink:href="#DejaVuSans-65" transform="translate(561.052734 0)"/>
     <use xlink:href="#DejaVuSans-64" transform="translate(622.576172 0)"/>
     <use xlink:href="#DejaVuSans-69" transform="translate(686.052734 0)"/>
     <use xlink:href="#DejaVuSans-63" transform="translate(713.835938 0)"/>
     <use xlink:href="#DejaVuSans-74" transform="translate(768.816406 0)"/>
     <use xlink:href="#DejaVuSans-69" transform="translate(808.025391 0)"/>
     <use xlink:href="#DejaVuSans-6f" transform="translate(835.808594 0)"/>
     <use xlink:href="#DejaVuSans-6e" transform="translate(896.990234 0)"/>
     <use xlink:href="#DejaVuSans-20" transform="translate(960.369141 0)"/>
     <use xlink:href="#DejaVuSans-77" transform="translate(992.15625 0)"/>
     <use xlink:href="#DejaVuSans-69" transform="translate(1073.943359 0)"/>
     <use xlink:href="#DejaVuSans-74" transform="translate(1101.726562 0)"/>
     <use xlink:href="#DejaVuSans-68" transform="translate(1140.935547 0)"/>
     <use xlink:href="#DejaVuSans-20" transform="translate(1204.314453 0)"/>
     <use xlink:href="#DejaVuSans-4c" transform="translate(1236.101562 0)"/>
     <use xlink:href="#DejaVuSans-53" transform="translate(1291.814453 0)"/>
     <use xlink:href="#DejaVuSans-54" transform="translate(1355.291016 0)"/>
     <use xlink:href="#DejaVuSans-4d" transform="translate(1416.375 0)"/>
     <use xlink:href="#DejaVuSans-20" transform="translate(1502.654297 0)"/>
     <use xlink:href="#DejaVuSans-4d" transform="translate(1534.441406 0)"/>
     <use xlink:href="#DejaVuSans-44" transform="translate(1620.720703 0)"/>
     <use xlink:href="#DejaVuSans-4e" transform="translate(1697.722656 0)"/>
     <use xlink:href="#DejaVuSans-20" transform="translate(1772.527344 0)"/>
     <use xlink:href="#DejaVuSans-76" transform="translate(1804.314453 0)"/>
     <use xlink:href="#DejaVuSans-32" transform="translate(1863.494141 0)"/>
    </g>
   </g>
   <g id="legend_1">
    <g id="patch_7">
     <path d="M 115 89.19625 
L 315.317188 89.19625 
Q 317.317188 89.19625 317.317188 87.19625 
L 317.317188 58.84 
Q 317.317188 56.84 315.317188 56.84 
L 115 56.84 
Q 113 56.84 113 58.84 
L 113 87.19625 
Q 113 89.19625 115 89.19625 
z
" style="fill: #ffffff; opacity: 0.8; stroke: #cccccc; stroke-linejoin: miter"/>
    </g>
    <g id="line2d_18">
     <path d="M 117 64.938437 
L 127 64.938437 
L 137 64.938437 
" style="fill: none; stroke: #000000; stroke-width: 1.5; stroke-linecap: square"/>
    </g>
    <g id="text_19">
     <!-- Absolute Returns -->
     <g transform="translate(145 68.438437) scale(0.1 -0.1)">
      <defs>
       <path id="DejaVuSans-41" d="M 2188 4044 
L 1331 1722 
L 3047 1722 
L 2188 4044 
z
M 1831 4666 
L 2547 4666 
L 4325 0 
L 3669 0 
L 3244 1197 
L 1141 1197 
L 716 0 
L 50 0 
L 1831 4666 
z
" transform="scale(0.015625)"/>
       <path id="DejaVuSans-62" d="M 3116 1747 
Q 3116 2381 2855 2742 
Q 2594 3103 2138 3103 
Q 1681 3103 1420 2742 
Q 1159 2381 1159 1747 
Q 1159 1113 1420 752 
Q 1681 391 2138 391 
Q 2594 391 2855 752 
Q 3116 1113 3116 1747 
z
M 1159 2969 
Q 1341 3281 1617 3432 
Q 1894 3584 2278 3584 
Q 2916 3584 3314 3078 
Q 3713 2572 3713 1747 
Q 3713 922 3314 415 
Q 2916 -91 2278 -91 
Q 1894 -91 1617 61 
Q 1341 213 1159 525 
L 1159 0 
L 581 0 
L 581 4863 
L 1159 4863 
L 1159 2969 
z
" transform="scale(0.015625)"/>
       <path id="DejaVuSans-73" d="M 2834 3397 
L 2834 2853 
Q 2591 2978 2328 3040 
Q 2066 3103 1784 3103 
Q 1356 3103 1142 2972 
Q 928 2841 928 2578 
Q 928 2378 1081 2264 
Q 1234 2150 1697 2047 
L 1894 2003 
Q 2506 1872 2764 1633 
Q 3022 1394 3022 966 
Q 3022 478 2636 193 
Q 2250 -91 1575 -91 
Q 1294 -91 989 -36 
Q 684 19 347 128 
L 347 722 
Q 666 556 975 473 
Q 1284 391 1588 391 
Q 1994 391 2212 530 
Q 2431 669 2431 922 
Q 2431 1156 2273 1281 
Q 2116 1406 1581 1522 
L 1381 1569 
Q 847 1681 609 1914 
Q 372 2147 372 2553 
Q 372 3047 722 3315 
Q 1072 3584 1716 3584 
Q 2034 3584 2315 3537 
Q 2597 3491 2834 3397 
z
" transform="scale(0.015625)"/>
       <path id="DejaVuSans-75" d="M 544 1381 
L 544 3500 
L 1119 3500 
L 1119 1403 
Q 1119 906 1312 657 
Q 1506 409 1894 409 
Q 2359 409 2629 706 
Q 2900 1003 2900 1516 
L 2900 3500 
L 3475 3500 
L 3475 0 
L 2900 0 
L 2900 538 
Q 2691 219 2414 64 
Q 2138 -91 1772 -91 
Q 1169 -91 856 284 
Q 544 659 544 1381 
z
M 1991 3584 
L 1991 3584 
z
" transform="scale(0.015625)"/>
       <path id="DejaVuSans-52" d="M 2841 2188 
Q 3044 2119 3236 1894 
Q 3428 1669 3622 1275 
L 4263 0 
L 3584 0 
L 2988 1197 
Q 2756 1666 2539 1819 
Q 2322 1972 1947 1972 
L 1259 1972 
L 1259 0 
L 628 0 
L 628 4666 
L 2053 4666 
Q 2853 4666 3247 4331 
Q 3641 3997 3641 3322 
Q 3641 2881 3436 2590 
Q 3231 2300 2841 2188 
z
M 1259 4147 
L 1259 2491 
L 2053 2491 
Q 2509 2491 2742 2702 
Q 2975 2913 2975 3322 
Q 2975 3731 2742 3939 
Q 2509 4147 2053 4147 
L 1259 4147 
z
" transform="scale(0.015625)"/>
      </defs>
      <use xlink:href="#DejaVuSans-41"/>
      <use xlink:href="#DejaVuSans-62" transform="translate(68.408203 0)"/>
      <use xlink:href="#DejaVuSans-73" transform="translate(131.884766 0)"/>
      <use xlink:href="#DejaVuSans-6f" transform="translate(183.984375 0)"/>
      <use xlink:href="#DejaVuSans-6c" transform="translate(245.166016 0)"/>
      <use xlink:href="#DejaVuSans-75" transform="translate(272.949219 0)"/>
      <use xlink:href="#DejaVuSans-74" transform="translate(336.328125 0)"/>
      <use xlink:href="#DejaVuSans-65" transform="translate(375.537109 0)"/>
      <use xlink:href="#DejaVuSans-20" transform="translate(437.060547 0)"/>
      <use xlink:href="#DejaVuSans-52" transform="translate(468.847656 0)"/>
      <use xlink:href="#DejaVuSans-65" transform="translate(533.830078 0)"/>
      <use xlink:href="#DejaVuSans-74" transform="translate(595.353516 0)"/>
      <use xlink:href="#DejaVuSans-75" transform="translate(634.5625 0)"/>
      <use xlink:href="#DejaVuSans-72" transform="translate(697.941406 0)"/>
      <use xlink:href="#DejaVuSans-6e" transform="translate(737.304688 0)"/>
      <use xlink:href="#DejaVuSans-73" transform="translate(800.683594 0)"/>
     </g>
    </g>
    <g id="line2d_19">
     <path d="M 117 79.616562 
L 127 79.616562 
L 137 79.616562 
" style="fill: none; stroke: #1f77b4; stroke-width: 1.5; stroke-linecap: square"/>
    </g>
    <g id="text_20">
     <!-- LSTM MDN v2 Volatility Prediction -->
     <g transform="translate(145 83.116562) scale(0.1 -0.1)">
      <use xlink:href="#DejaVuSans-4c"/>
      <use xlink:href="#DejaVuSans-53" transform="translate(55.712891 0)"/>
      <use xlink:href="#DejaVuSans-54" transform="translate(119.189453 0)"/>
      <use xlink:href="#DejaVuSans-4d" transform="translate(180.273438 0)"/>
      <use xlink:href="#DejaVuSans-20" transform="translate(266.552734 0)"/>
      <use xlink:href="#DejaVuSans-4d" transform="translate(298.339844 0)"/>
      <use xlink:href="#DejaVuSans-44" transform="translate(384.619141 0)"/>
      <use xlink:href="#DejaVuSans-4e" transform="translate(461.621094 0)"/>
      <use xlink:href="#DejaVuSans-20" transform="translate(536.425781 0)"/>
      <use xlink:href="#DejaVuSans-76" transform="translate(568.212891 0)"/>
      <use xlink:href="#DejaVuSans-32" transform="translate(627.392578 0)"/>
      <use xlink:href="#DejaVuSans-20" transform="translate(691.015625 0)"/>
      <use xlink:href="#DejaVuSans-56" transform="translate(722.802734 0)"/>
      <use xlink:href="#DejaVuSans-6f" transform="translate(783.460938 0)"/>
      <use xlink:href="#DejaVuSans-6c" transform="translate(844.642578 0)"/>
      <use xlink:href="#DejaVuSans-61" transform="translate(872.425781 0)"/>
      <use xlink:href="#DejaVuSans-74" transform="translate(933.705078 0)"/>
      <use xlink:href="#DejaVuSans-69" transform="translate(972.914062 0)"/>
      <use xlink:href="#DejaVuSans-6c" transform="translate(1000.697266 0)"/>
      <use xlink:href="#DejaVuSans-69" transform="translate(1028.480469 0)"/>
      <use xlink:href="#DejaVuSans-74" transform="translate(1056.263672 0)"/>
      <use xlink:href="#DejaVuSans-79" transform="translate(1095.472656 0)"/>
      <use xlink:href="#DejaVuSans-20" transform="translate(1154.652344 0)"/>
      <use xlink:href="#DejaVuSans-50" transform="translate(1186.439453 0)"/>
      <use xlink:href="#DejaVuSans-72" transform="translate(1244.992188 0)"/>
      <use xlink:href="#DejaVuSans-65" transform="translate(1283.855469 0)"/>
      <use xlink:href="#DejaVuSans-64" transform="translate(1345.378906 0)"/>
      <use xlink:href="#DejaVuSans-69" transform="translate(1408.855469 0)"/>
      <use xlink:href="#DejaVuSans-63" transform="translate(1436.638672 0)"/>
      <use xlink:href="#DejaVuSans-74" transform="translate(1491.619141 0)"/>
      <use xlink:href="#DejaVuSans-69" transform="translate(1530.828125 0)"/>
      <use xlink:href="#DejaVuSans-6f" transform="translate(1558.611328 0)"/>
      <use xlink:href="#DejaVuSans-6e" transform="translate(1619.792969 0)"/>
     </g>
    </g>
   </g>
  </g>
 </g>
 <defs>
  <clipPath id="p64edcda659">
   <rect x="108" y="51.84" width="669.6" height="332.64"/>
  </clipPath>
 </defs>
</svg>
