<?xml version="1.0" encoding="utf-8" standalone="no"?>
<!DOCTYPE svg PUBLIC "-//W3C//DTD SVG 1.1//EN"
  "http://www.w3.org/Graphics/SVG/1.1/DTD/svg11.dtd">
<svg xmlns:xlink="http://www.w3.org/1999/xlink" width="864pt" height="432pt" viewBox="0 0 864 432" xmlns="http://www.w3.org/2000/svg" version="1.1">
 <metadata>
  <rdf:RDF xmlns:dc="http://purl.org/dc/elements/1.1/" xmlns:cc="http://creativecommons.org/ns#" xmlns:rdf="http://www.w3.org/1999/02/22-rdf-syntax-ns#">
   <cc:Work>
    <dc:type rdf:resource="http://purl.org/dc/dcmitype/StillImage"/>
    <dc:date>2024-11-09T18:52:26.737677</dc:date>
    <dc:format>image/svg+xml</dc:format>
    <dc:creator>
     <cc:Agent>
      <dc:title>Matplotlib v3.6.3, https://matplotlib.org/</dc:title>
     </cc:Agent>
    </dc:creator>
   </cc:Work>
  </rdf:RDF>
 </metadata>
 <defs>
  <style type="text/css">*{stroke-linejoin: round; stroke-linecap: butt}</style>
 </defs>
 <g id="figure_1">
  <g id="patch_1">
   <path d="M 0 432 
L 864 432 
L 864 0 
L 0 0 
z
" style="fill: #ffffff"/>
  </g>
  <g id="axes_1">
   <g id="patch_2">
    <path d="M 108 384.48 
L 777.6 384.48 
L 777.6 51.84 
L 108 51.84 
z
" style="fill: #ffffff"/>
   </g>
   <g id="matplotlib.axis_1">
    <g id="xtick_1">
     <g id="line2d_1">
      <defs>
       <path id="m1c8c1eefeb" d="M 0 0 
L 0 3.5 
" style="stroke: #000000; stroke-width: 0.8"/>
      </defs>
      <g>
       <use xlink:href="#m1c8c1eefeb" x="138.822612" y="384.48" style="stroke: #000000; stroke-width: 0.8"/>
      </g>
     </g>
     <g id="text_1">
      <!-- 2020-07 -->
      <g transform="translate(117.931206 399.078438) scale(0.1 -0.1)">
       <defs>
        <path id="DejaVuSans-32" d="M 1228 531 
L 3431 531 
L 3431 0 
L 469 0 
L 469 531 
Q 828 903 1448 1529 
Q 2069 2156 2228 2338 
Q 2531 2678 2651 2914 
Q 2772 3150 2772 3378 
Q 2772 3750 2511 3984 
Q 2250 4219 1831 4219 
Q 1534 4219 1204 4116 
Q 875 4013 500 3803 
L 500 4441 
Q 881 4594 1212 4672 
Q 1544 4750 1819 4750 
Q 2544 4750 2975 4387 
Q 3406 4025 3406 3419 
Q 3406 3131 3298 2873 
Q 3191 2616 2906 2266 
Q 2828 2175 2409 1742 
Q 1991 1309 1228 531 
z
" transform="scale(0.015625)"/>
        <path id="DejaVuSans-30" d="M 2034 4250 
Q 1547 4250 1301 3770 
Q 1056 3291 1056 2328 
Q 1056 1369 1301 889 
Q 1547 409 2034 409 
Q 2525 409 2770 889 
Q 3016 1369 3016 2328 
Q 3016 3291 2770 3770 
Q 2525 4250 2034 4250 
z
M 2034 4750 
Q 2819 4750 3233 4129 
Q 3647 3509 3647 2328 
Q 3647 1150 3233 529 
Q 2819 -91 2034 -91 
Q 1250 -91 836 529 
Q 422 1150 422 2328 
Q 422 3509 836 4129 
Q 1250 4750 2034 4750 
z
" transform="scale(0.015625)"/>
        <path id="DejaVuSans-2d" d="M 313 2009 
L 1997 2009 
L 1997 1497 
L 313 1497 
L 313 2009 
z
" transform="scale(0.015625)"/>
        <path id="DejaVuSans-37" d="M 525 4666 
L 3525 4666 
L 3525 4397 
L 1831 0 
L 1172 0 
L 2766 4134 
L 525 4134 
L 525 4666 
z
" transform="scale(0.015625)"/>
       </defs>
       <use xlink:href="#DejaVuSans-32"/>
       <use xlink:href="#DejaVuSans-30" x="63.623047"/>
       <use xlink:href="#DejaVuSans-32" x="127.246094"/>
       <use xlink:href="#DejaVuSans-30" x="190.869141"/>
       <use xlink:href="#DejaVuSans-2d" x="254.492188"/>
       <use xlink:href="#DejaVuSans-30" x="290.576172"/>
       <use xlink:href="#DejaVuSans-37" x="354.199219"/>
      </g>
     </g>
    </g>
    <g id="xtick_2">
     <g id="line2d_2">
      <g>
       <use xlink:href="#m1c8c1eefeb" x="209.892293" y="384.48" style="stroke: #000000; stroke-width: 0.8"/>
      </g>
     </g>
     <g id="text_2">
      <!-- 2021-01 -->
      <g transform="translate(189.000887 399.078438) scale(0.1 -0.1)">
       <defs>
        <path id="DejaVuSans-31" d="M 794 531 
L 1825 531 
L 1825 4091 
L 703 3866 
L 703 4441 
L 1819 4666 
L 2450 4666 
L 2450 531 
L 3481 531 
L 3481 0 
L 794 0 
L 794 531 
z
" transform="scale(0.015625)"/>
       </defs>
       <use xlink:href="#DejaVuSans-32"/>
       <use xlink:href="#DejaVuSans-30" x="63.623047"/>
       <use xlink:href="#DejaVuSans-32" x="127.246094"/>
       <use xlink:href="#DejaVuSans-31" x="190.869141"/>
       <use xlink:href="#DejaVuSans-2d" x="254.492188"/>
       <use xlink:href="#DejaVuSans-30" x="290.576172"/>
       <use xlink:href="#DejaVuSans-31" x="354.199219"/>
      </g>
     </g>
    </g>
    <g id="xtick_3">
     <g id="line2d_3">
      <g>
       <use xlink:href="#m1c8c1eefeb" x="279.80323" y="384.48" style="stroke: #000000; stroke-width: 0.8"/>
      </g>
     </g>
     <g id="text_3">
      <!-- 2021-07 -->
      <g transform="translate(258.911824 399.078438) scale(0.1 -0.1)">
       <use xlink:href="#DejaVuSans-32"/>
       <use xlink:href="#DejaVuSans-30" x="63.623047"/>
       <use xlink:href="#DejaVuSans-32" x="127.246094"/>
       <use xlink:href="#DejaVuSans-31" x="190.869141"/>
       <use xlink:href="#DejaVuSans-2d" x="254.492188"/>
       <use xlink:href="#DejaVuSans-30" x="290.576172"/>
       <use xlink:href="#DejaVuSans-37" x="354.199219"/>
      </g>
     </g>
    </g>
    <g id="xtick_4">
     <g id="line2d_4">
      <g>
       <use xlink:href="#m1c8c1eefeb" x="350.872912" y="384.48" style="stroke: #000000; stroke-width: 0.8"/>
      </g>
     </g>
     <g id="text_4">
      <!-- 2022-01 -->
      <g transform="translate(329.981506 399.078438) scale(0.1 -0.1)">
       <use xlink:href="#DejaVuSans-32"/>
       <use xlink:href="#DejaVuSans-30" x="63.623047"/>
       <use xlink:href="#DejaVuSans-32" x="127.246094"/>
       <use xlink:href="#DejaVuSans-32" x="190.869141"/>
       <use xlink:href="#DejaVuSans-2d" x="254.492188"/>
       <use xlink:href="#DejaVuSans-30" x="290.576172"/>
       <use xlink:href="#DejaVuSans-31" x="354.199219"/>
      </g>
     </g>
    </g>
    <g id="xtick_5">
     <g id="line2d_5">
      <g>
       <use xlink:href="#m1c8c1eefeb" x="420.783849" y="384.48" style="stroke: #000000; stroke-width: 0.8"/>
      </g>
     </g>
     <g id="text_5">
      <!-- 2022-07 -->
      <g transform="translate(399.892442 399.078438) scale(0.1 -0.1)">
       <use xlink:href="#DejaVuSans-32"/>
       <use xlink:href="#DejaVuSans-30" x="63.623047"/>
       <use xlink:href="#DejaVuSans-32" x="127.246094"/>
       <use xlink:href="#DejaVuSans-32" x="190.869141"/>
       <use xlink:href="#DejaVuSans-2d" x="254.492188"/>
       <use xlink:href="#DejaVuSans-30" x="290.576172"/>
       <use xlink:href="#DejaVuSans-37" x="354.199219"/>
      </g>
     </g>
    </g>
    <g id="xtick_6">
     <g id="line2d_6">
      <g>
       <use xlink:href="#m1c8c1eefeb" x="491.85353" y="384.48" style="stroke: #000000; stroke-width: 0.8"/>
      </g>
     </g>
     <g id="text_6">
      <!-- 2023-01 -->
      <g transform="translate(470.962124 399.078438) scale(0.1 -0.1)">
       <defs>
        <path id="DejaVuSans-33" d="M 2597 2516 
Q 3050 2419 3304 2112 
Q 3559 1806 3559 1356 
Q 3559 666 3084 287 
Q 2609 -91 1734 -91 
Q 1441 -91 1130 -33 
Q 819 25 488 141 
L 488 750 
Q 750 597 1062 519 
Q 1375 441 1716 441 
Q 2309 441 2620 675 
Q 2931 909 2931 1356 
Q 2931 1769 2642 2001 
Q 2353 2234 1838 2234 
L 1294 2234 
L 1294 2753 
L 1863 2753 
Q 2328 2753 2575 2939 
Q 2822 3125 2822 3475 
Q 2822 3834 2567 4026 
Q 2313 4219 1838 4219 
Q 1578 4219 1281 4162 
Q 984 4106 628 3988 
L 628 4550 
Q 988 4650 1302 4700 
Q 1616 4750 1894 4750 
Q 2613 4750 3031 4423 
Q 3450 4097 3450 3541 
Q 3450 3153 3228 2886 
Q 3006 2619 2597 2516 
z
" transform="scale(0.015625)"/>
       </defs>
       <use xlink:href="#DejaVuSans-32"/>
       <use xlink:href="#DejaVuSans-30" x="63.623047"/>
       <use xlink:href="#DejaVuSans-32" x="127.246094"/>
       <use xlink:href="#DejaVuSans-33" x="190.869141"/>
       <use xlink:href="#DejaVuSans-2d" x="254.492188"/>
       <use xlink:href="#DejaVuSans-30" x="290.576172"/>
       <use xlink:href="#DejaVuSans-31" x="354.199219"/>
      </g>
     </g>
    </g>
    <g id="xtick_7">
     <g id="line2d_7">
      <g>
       <use xlink:href="#m1c8c1eefeb" x="561.764467" y="384.48" style="stroke: #000000; stroke-width: 0.8"/>
      </g>
     </g>
     <g id="text_7">
      <!-- 2023-07 -->
      <g transform="translate(540.873061 399.078438) scale(0.1 -0.1)">
       <use xlink:href="#DejaVuSans-32"/>
       <use xlink:href="#DejaVuSans-30" x="63.623047"/>
       <use xlink:href="#DejaVuSans-32" x="127.246094"/>
       <use xlink:href="#DejaVuSans-33" x="190.869141"/>
       <use xlink:href="#DejaVuSans-2d" x="254.492188"/>
       <use xlink:href="#DejaVuSans-30" x="290.576172"/>
       <use xlink:href="#DejaVuSans-37" x="354.199219"/>
      </g>
     </g>
    </g>
    <g id="xtick_8">
     <g id="line2d_8">
      <g>
       <use xlink:href="#m1c8c1eefeb" x="632.834149" y="384.48" style="stroke: #000000; stroke-width: 0.8"/>
      </g>
     </g>
     <g id="text_8">
      <!-- 2024-01 -->
      <g transform="translate(611.942742 399.078438) scale(0.1 -0.1)">
       <defs>
        <path id="DejaVuSans-34" d="M 2419 4116 
L 825 1625 
L 2419 1625 
L 2419 4116 
z
M 2253 4666 
L 3047 4666 
L 3047 1625 
L 3713 1625 
L 3713 1100 
L 3047 1100 
L 3047 0 
L 2419 0 
L 2419 1100 
L 313 1100 
L 313 1709 
L 2253 4666 
z
" transform="scale(0.015625)"/>
       </defs>
       <use xlink:href="#DejaVuSans-32"/>
       <use xlink:href="#DejaVuSans-30" x="63.623047"/>
       <use xlink:href="#DejaVuSans-32" x="127.246094"/>
       <use xlink:href="#DejaVuSans-34" x="190.869141"/>
       <use xlink:href="#DejaVuSans-2d" x="254.492188"/>
       <use xlink:href="#DejaVuSans-30" x="290.576172"/>
       <use xlink:href="#DejaVuSans-31" x="354.199219"/>
      </g>
     </g>
    </g>
    <g id="xtick_9">
     <g id="line2d_9">
      <g>
       <use xlink:href="#m1c8c1eefeb" x="703.131334" y="384.48" style="stroke: #000000; stroke-width: 0.8"/>
      </g>
     </g>
     <g id="text_9">
      <!-- 2024-07 -->
      <g transform="translate(682.239927 399.078438) scale(0.1 -0.1)">
       <use xlink:href="#DejaVuSans-32"/>
       <use xlink:href="#DejaVuSans-30" x="63.623047"/>
       <use xlink:href="#DejaVuSans-32" x="127.246094"/>
       <use xlink:href="#DejaVuSans-34" x="190.869141"/>
       <use xlink:href="#DejaVuSans-2d" x="254.492188"/>
       <use xlink:href="#DejaVuSans-30" x="290.576172"/>
       <use xlink:href="#DejaVuSans-37" x="354.199219"/>
      </g>
     </g>
    </g>
    <g id="xtick_10">
     <g id="line2d_10">
      <g>
       <use xlink:href="#m1c8c1eefeb" x="774.201015" y="384.48" style="stroke: #000000; stroke-width: 0.8"/>
      </g>
     </g>
     <g id="text_10">
      <!-- 2025-01 -->
      <g transform="translate(753.309609 399.078438) scale(0.1 -0.1)">
       <defs>
        <path id="DejaVuSans-35" d="M 691 4666 
L 3169 4666 
L 3169 4134 
L 1269 4134 
L 1269 2991 
Q 1406 3038 1543 3061 
Q 1681 3084 1819 3084 
Q 2600 3084 3056 2656 
Q 3513 2228 3513 1497 
Q 3513 744 3044 326 
Q 2575 -91 1722 -91 
Q 1428 -91 1123 -41 
Q 819 9 494 109 
L 494 744 
Q 775 591 1075 516 
Q 1375 441 1709 441 
Q 2250 441 2565 725 
Q 2881 1009 2881 1497 
Q 2881 1984 2565 2268 
Q 2250 2553 1709 2553 
Q 1456 2553 1204 2497 
Q 953 2441 691 2322 
L 691 4666 
z
" transform="scale(0.015625)"/>
       </defs>
       <use xlink:href="#DejaVuSans-32"/>
       <use xlink:href="#DejaVuSans-30" x="63.623047"/>
       <use xlink:href="#DejaVuSans-32" x="127.246094"/>
       <use xlink:href="#DejaVuSans-35" x="190.869141"/>
       <use xlink:href="#DejaVuSans-2d" x="254.492188"/>
       <use xlink:href="#DejaVuSans-30" x="290.576172"/>
       <use xlink:href="#DejaVuSans-31" x="354.199219"/>
      </g>
     </g>
    </g>
    <g id="text_11">
     <!-- Date -->
     <g transform="translate(430.849219 412.756563) scale(0.1 -0.1)">
      <defs>
       <path id="DejaVuSans-44" d="M 1259 4147 
L 1259 519 
L 2022 519 
Q 2988 519 3436 956 
Q 3884 1394 3884 2338 
Q 3884 3275 3436 3711 
Q 2988 4147 2022 4147 
L 1259 4147 
z
M 628 4666 
L 1925 4666 
Q 3281 4666 3915 4102 
Q 4550 3538 4550 2338 
Q 4550 1131 3912 565 
Q 3275 0 1925 0 
L 628 0 
L 628 4666 
z
" transform="scale(0.015625)"/>
       <path id="DejaVuSans-61" d="M 2194 1759 
Q 1497 1759 1228 1600 
Q 959 1441 959 1056 
Q 959 750 1161 570 
Q 1363 391 1709 391 
Q 2188 391 2477 730 
Q 2766 1069 2766 1631 
L 2766 1759 
L 2194 1759 
z
M 3341 1997 
L 3341 0 
L 2766 0 
L 2766 531 
Q 2569 213 2275 61 
Q 1981 -91 1556 -91 
Q 1019 -91 701 211 
Q 384 513 384 1019 
Q 384 1609 779 1909 
Q 1175 2209 1959 2209 
L 2766 2209 
L 2766 2266 
Q 2766 2663 2505 2880 
Q 2244 3097 1772 3097 
Q 1472 3097 1187 3025 
Q 903 2953 641 2809 
L 641 3341 
Q 956 3463 1253 3523 
Q 1550 3584 1831 3584 
Q 2591 3584 2966 3190 
Q 3341 2797 3341 1997 
z
" transform="scale(0.015625)"/>
       <path id="DejaVuSans-74" d="M 1172 4494 
L 1172 3500 
L 2356 3500 
L 2356 3053 
L 1172 3053 
L 1172 1153 
Q 1172 725 1289 603 
Q 1406 481 1766 481 
L 2356 481 
L 2356 0 
L 1766 0 
Q 1100 0 847 248 
Q 594 497 594 1153 
L 594 3053 
L 172 3053 
L 172 3500 
L 594 3500 
L 594 4494 
L 1172 4494 
z
" transform="scale(0.015625)"/>
       <path id="DejaVuSans-65" d="M 3597 1894 
L 3597 1613 
L 953 1613 
Q 991 1019 1311 708 
Q 1631 397 2203 397 
Q 2534 397 2845 478 
Q 3156 559 3463 722 
L 3463 178 
Q 3153 47 2828 -22 
Q 2503 -91 2169 -91 
Q 1331 -91 842 396 
Q 353 884 353 1716 
Q 353 2575 817 3079 
Q 1281 3584 2069 3584 
Q 2775 3584 3186 3129 
Q 3597 2675 3597 1894 
z
M 3022 2063 
Q 3016 2534 2758 2815 
Q 2500 3097 2075 3097 
Q 1594 3097 1305 2825 
Q 1016 2553 972 2059 
L 3022 2063 
z
" transform="scale(0.015625)"/>
      </defs>
      <use xlink:href="#DejaVuSans-44"/>
      <use xlink:href="#DejaVuSans-61" x="77.001953"/>
      <use xlink:href="#DejaVuSans-74" x="138.28125"/>
      <use xlink:href="#DejaVuSans-65" x="177.490234"/>
     </g>
    </g>
   </g>
   <g id="matplotlib.axis_2">
    <g id="ytick_1">
     <g id="line2d_11">
      <defs>
       <path id="mcbc32c434f" d="M 0 0 
L -3.5 0 
" style="stroke: #000000; stroke-width: 0.8"/>
      </defs>
      <g>
       <use xlink:href="#mcbc32c434f" x="108" y="369.36" style="stroke: #000000; stroke-width: 0.8"/>
      </g>
     </g>
     <g id="text_12">
      <!-- 0.00 -->
      <g transform="translate(78.734375 373.159219) scale(0.1 -0.1)">
       <defs>
        <path id="DejaVuSans-2e" d="M 684 794 
L 1344 794 
L 1344 0 
L 684 0 
L 684 794 
z
" transform="scale(0.015625)"/>
       </defs>
       <use xlink:href="#DejaVuSans-30"/>
       <use xlink:href="#DejaVuSans-2e" x="63.623047"/>
       <use xlink:href="#DejaVuSans-30" x="95.410156"/>
       <use xlink:href="#DejaVuSans-30" x="159.033203"/>
      </g>
     </g>
    </g>
    <g id="ytick_2">
     <g id="line2d_12">
      <g>
       <use xlink:href="#mcbc32c434f" x="108" y="308.015862" style="stroke: #000000; stroke-width: 0.8"/>
      </g>
     </g>
     <g id="text_13">
      <!-- 0.01 -->
      <g transform="translate(78.734375 311.815081) scale(0.1 -0.1)">
       <use xlink:href="#DejaVuSans-30"/>
       <use xlink:href="#DejaVuSans-2e" x="63.623047"/>
       <use xlink:href="#DejaVuSans-30" x="95.410156"/>
       <use xlink:href="#DejaVuSans-31" x="159.033203"/>
      </g>
     </g>
    </g>
    <g id="ytick_3">
     <g id="line2d_13">
      <g>
       <use xlink:href="#mcbc32c434f" x="108" y="246.671724" style="stroke: #000000; stroke-width: 0.8"/>
      </g>
     </g>
     <g id="text_14">
      <!-- 0.02 -->
      <g transform="translate(78.734375 250.470942) scale(0.1 -0.1)">
       <use xlink:href="#DejaVuSans-30"/>
       <use xlink:href="#DejaVuSans-2e" x="63.623047"/>
       <use xlink:href="#DejaVuSans-30" x="95.410156"/>
       <use xlink:href="#DejaVuSans-32" x="159.033203"/>
      </g>
     </g>
    </g>
    <g id="ytick_4">
     <g id="line2d_14">
      <g>
       <use xlink:href="#mcbc32c434f" x="108" y="185.327585" style="stroke: #000000; stroke-width: 0.8"/>
      </g>
     </g>
     <g id="text_15">
      <!-- 0.03 -->
      <g transform="translate(78.734375 189.126804) scale(0.1 -0.1)">
       <use xlink:href="#DejaVuSans-30"/>
       <use xlink:href="#DejaVuSans-2e" x="63.623047"/>
       <use xlink:href="#DejaVuSans-30" x="95.410156"/>
       <use xlink:href="#DejaVuSans-33" x="159.033203"/>
      </g>
     </g>
    </g>
    <g id="ytick_5">
     <g id="line2d_15">
      <g>
       <use xlink:href="#mcbc32c434f" x="108" y="123.983447" style="stroke: #000000; stroke-width: 0.8"/>
      </g>
     </g>
     <g id="text_16">
      <!-- 0.04 -->
      <g transform="translate(78.734375 127.782666) scale(0.1 -0.1)">
       <use xlink:href="#DejaVuSans-30"/>
       <use xlink:href="#DejaVuSans-2e" x="63.623047"/>
       <use xlink:href="#DejaVuSans-30" x="95.410156"/>
       <use xlink:href="#DejaVuSans-34" x="159.033203"/>
      </g>
     </g>
    </g>
    <g id="ytick_6">
     <g id="line2d_16">
      <g>
       <use xlink:href="#mcbc32c434f" x="108" y="62.639309" style="stroke: #000000; stroke-width: 0.8"/>
      </g>
     </g>
     <g id="text_17">
      <!-- 0.05 -->
      <g transform="translate(78.734375 66.438528) scale(0.1 -0.1)">
       <use xlink:href="#DejaVuSans-30"/>
       <use xlink:href="#DejaVuSans-2e" x="63.623047"/>
       <use xlink:href="#DejaVuSans-30" x="95.410156"/>
       <use xlink:href="#DejaVuSans-35" x="159.033203"/>
      </g>
     </g>
    </g>
    <g id="text_18">
     <!-- Volatility -->
     <g transform="translate(72.654687 239.752187) rotate(-90) scale(0.1 -0.1)">
      <defs>
       <path id="DejaVuSans-56" d="M 1831 0 
L 50 4666 
L 709 4666 
L 2188 738 
L 3669 4666 
L 4325 4666 
L 2547 0 
L 1831 0 
z
" transform="scale(0.015625)"/>
       <path id="DejaVuSans-6f" d="M 1959 3097 
Q 1497 3097 1228 2736 
Q 959 2375 959 1747 
Q 959 1119 1226 758 
Q 1494 397 1959 397 
Q 2419 397 2687 759 
Q 2956 1122 2956 1747 
Q 2956 2369 2687 2733 
Q 2419 3097 1959 3097 
z
M 1959 3584 
Q 2709 3584 3137 3096 
Q 3566 2609 3566 1747 
Q 3566 888 3137 398 
Q 2709 -91 1959 -91 
Q 1206 -91 779 398 
Q 353 888 353 1747 
Q 353 2609 779 3096 
Q 1206 3584 1959 3584 
z
" transform="scale(0.015625)"/>
       <path id="DejaVuSans-6c" d="M 603 4863 
L 1178 4863 
L 1178 0 
L 603 0 
L 603 4863 
z
" transform="scale(0.015625)"/>
       <path id="DejaVuSans-69" d="M 603 3500 
L 1178 3500 
L 1178 0 
L 603 0 
L 603 3500 
z
M 603 4863 
L 1178 4863 
L 1178 4134 
L 603 4134 
L 603 4863 
z
" transform="scale(0.015625)"/>
       <path id="DejaVuSans-79" d="M 2059 -325 
Q 1816 -950 1584 -1140 
Q 1353 -1331 966 -1331 
L 506 -1331 
L 506 -850 
L 844 -850 
Q 1081 -850 1212 -737 
Q 1344 -625 1503 -206 
L 1606 56 
L 191 3500 
L 800 3500 
L 1894 763 
L 2988 3500 
L 3597 3500 
L 2059 -325 
z
" transform="scale(0.015625)"/>
      </defs>
      <use xlink:href="#DejaVuSans-56"/>
      <use xlink:href="#DejaVuSans-6f" x="60.658203"/>
      <use xlink:href="#DejaVuSans-6c" x="121.839844"/>
      <use xlink:href="#DejaVuSans-61" x="149.623047"/>
      <use xlink:href="#DejaVuSans-74" x="210.902344"/>
      <use xlink:href="#DejaVuSans-69" x="250.111328"/>
      <use xlink:href="#DejaVuSans-6c" x="277.894531"/>
      <use xlink:href="#DejaVuSans-69" x="305.677734"/>
      <use xlink:href="#DejaVuSans-74" x="333.460938"/>
      <use xlink:href="#DejaVuSans-79" x="372.669922"/>
     </g>
    </g>
   </g>
   <g id="line2d_17">
    <path d="M 138.436364 368.55395 
L 138.822612 367.97856 
L 139.20886 362.944102 
L 140.753853 362.558057 
L 141.140102 359.321512 
L 141.52635 369.357477 
L 142.298846 359.240294 
L 143.843839 363.364751 
L 144.230088 364.307546 
L 144.616336 369.341563 
L 145.002584 366.119328 
L 146.161329 367.753527 
L 146.547577 369.344155 
L 146.933826 369.151287 
L 147.320074 369.314175 
L 147.706322 368.725118 
L 148.865067 368.055623 
L 149.251315 365.6637 
L 149.637563 369.345224 
L 150.023812 368.752635 
L 150.41006 369.09864 
L 151.568805 368.684282 
L 151.955053 365.909281 
L 152.341301 360.684769 
L 152.72755 346.381475 
L 153.113798 368.305236 
L 154.272543 362.923349 
L 154.658791 348.556806 
L 155.045039 367.869291 
L 155.431287 369.112487 
L 155.817536 368.907618 
L 157.362529 369.225946 
L 157.748777 369.358197 
L 158.135025 368.308327 
L 158.521274 368.071616 
L 159.680018 365.631194 
L 160.066267 368.780048 
L 160.838763 368.92571 
L 161.225012 368.327463 
L 162.383756 368.107085 
L 162.770005 341.199236 
L 163.156253 366.131654 
L 163.542501 341.714867 
L 163.928749 367.711682 
L 165.473743 367.624198 
L 165.859991 365.772057 
L 166.632487 367.88729 
L 167.791232 362.580098 
L 168.17748 369.329261 
L 168.563729 369.138088 
L 168.949977 364.975217 
L 169.336225 365.495 
L 170.49497 364.088319 
L 170.881218 369.351807 
L 171.267467 193.870582 
L 171.653715 361.713507 
L 172.039963 368.084504 
L 173.198708 369.272398 
L 173.584956 365.963457 
L 173.971204 364.727645 
L 174.357453 364.208924 
L 174.743701 364.16902 
L 175.902446 347.673369 
L 176.288694 368.641507 
L 176.674942 363.470517 
L 177.061191 369.315764 
L 177.447439 368.802315 
L 178.606184 368.560603 
L 178.992432 369.332835 
L 179.37868 369.153798 
L 179.764928 369.320409 
L 180.151177 368.758059 
L 181.309922 368.847497 
L 181.69617 368.665812 
L 182.082418 365.710743 
L 182.468666 368.802002 
L 182.854915 367.813053 
L 184.013659 366.668217 
L 184.399908 369.025745 
L 184.786156 355.617626 
L 185.558653 369.139901 
L 186.717397 360.406031 
L 187.103646 368.965203 
L 187.489894 357.553891 
L 187.876142 278.80455 
L 188.26239 345.968878 
L 189.421135 359.836039 
L 189.807383 368.718314 
L 190.193632 369.180307 
L 190.57988 369.357863 
L 190.966128 363.135516 
L 192.124873 353.251185 
L 192.511121 369.010091 
L 192.89737 368.606755 
L 193.283618 369.14898 
L 193.669866 367.694529 
L 194.828611 355.741571 
L 195.214859 365.94643 
L 195.601108 367.23679 
L 196.373604 366.520631 
L 197.532349 368.423967 
L 197.918597 369.357311 
L 198.304845 369.227515 
L 198.691094 365.0695 
L 199.077342 350.548161 
L 200.236087 369.168517 
L 200.622335 364.611036 
L 201.008583 368.774074 
L 201.394832 368.978314 
L 201.78108 366.942388 
L 202.939825 363.887445 
L 203.712321 367.831917 
L 204.098569 368.410296 
L 204.484818 368.712256 
L 205.643563 366.332978 
L 206.029811 364.026471 
L 206.416059 365.653466 
L 206.802307 369.340064 
L 208.3473 369.358248 
L 208.733549 365.927565 
L 209.119797 366.711534 
L 209.506045 368.487375 
L 211.051038 362.246519 
L 211.437287 343.199189 
L 211.823535 337.526808 
L 212.596031 369.358189 
L 213.754776 360.644757 
L 214.527273 368.116449 
L 215.299769 368.431435 
L 216.844762 364.560254 
L 217.231011 364.655028 
L 217.617259 366.602686 
L 218.003507 367.900705 
L 219.162252 367.303319 
L 219.5485 368.891132 
L 219.934749 360.527859 
L 220.320997 368.016937 
L 220.707245 366.240071 
L 221.86599 366.240071 
L 222.252238 367.553054 
L 222.638486 357.200552 
L 223.024735 357.442906 
L 223.410983 368.061632 
L 224.569728 364.70445 
L 224.955976 367.38921 
L 225.342224 367.633537 
L 226.114721 364.012346 
L 227.659714 367.992399 
L 228.045962 363.987033 
L 228.43221 298.840711 
L 228.818459 309.323901 
L 229.977204 369.334296 
L 230.363452 368.473449 
L 230.7497 359.636712 
L 231.135948 355.686107 
L 231.522197 365.822956 
L 232.680941 364.730466 
L 233.06719 369.205304 
L 233.453438 357.102787 
L 233.839686 360.472866 
L 234.225934 367.667705 
L 235.384679 366.276292 
L 236.157176 357.579555 
L 236.543424 349.269718 
L 236.929672 365.509916 
L 238.088417 368.770032 
L 238.474665 366.366751 
L 238.860914 369.283389 
L 239.247162 366.395482 
L 239.63341 369.083792 
L 240.792155 369.247564 
L 241.178403 360.480355 
L 241.564652 369.352688 
L 241.9509 367.874029 
L 242.337148 368.7682 
L 243.495893 364.925221 
L 243.882141 369.060174 
L 244.268389 369.210299 
L 244.654638 363.389753 
L 246.199631 369.286746 
L 246.585879 367.455956 
L 246.972127 345.78621 
L 247.358376 367.57827 
L 247.744624 368.98325 
L 248.903369 369.317123 
L 249.289617 369.148439 
L 249.675865 364.251815 
L 250.062114 367.799241 
L 250.448362 368.74061 
L 251.607107 361.695341 
L 251.993355 348.218534 
L 252.379603 363.822442 
L 252.765851 367.414523 
L 253.1521 362.160277 
L 254.310844 349.906192 
L 254.697093 369.217539 
L 255.083341 369.333866 
L 255.469589 368.675507 
L 255.855838 369.294169 
L 257.014582 368.315649 
L 257.787079 363.609801 
L 258.173327 320.293721 
L 258.559575 345.340783 
L 259.71832 366.878566 
L 260.104569 369.110659 
L 260.490817 360.755198 
L 260.877065 366.957512 
L 261.263313 360.466388 
L 262.422058 360.760047 
L 262.808306 368.766263 
L 263.194555 367.982572 
L 263.580803 369.107682 
L 263.967051 368.744889 
L 265.125796 369.359976 
L 265.512044 368.760421 
L 265.898293 365.178457 
L 266.284541 360.285379 
L 266.670789 368.882897 
L 268.215782 365.307579 
L 268.60203 369.11952 
L 268.988279 368.333072 
L 269.374527 363.299102 
L 270.533272 367.78332 
L 270.91952 363.778275 
L 271.305768 368.822414 
L 271.692017 360.255046 
L 272.078265 368.122522 
L 273.23701 368.635052 
L 273.623258 368.188842 
L 274.009506 369.234256 
L 274.395754 368.909711 
L 274.782003 361.111908 
L 275.940748 366.513123 
L 276.326996 369.353203 
L 276.713244 368.346785 
L 277.099492 368.165395 
L 277.485741 369.218157 
L 278.644485 368.228896 
L 279.030734 368.866149 
L 279.416982 369.176031 
L 279.80323 366.662319 
L 280.189479 368.962056 
L 281.734472 368.428468 
L 282.12072 368.891202 
L 282.506968 368.385247 
L 282.893216 357.338744 
L 284.051961 342.61456 
L 284.43821 368.135784 
L 284.824458 368.364493 
L 285.210706 367.378517 
L 285.596954 364.47632 
L 286.755699 368.090805 
L 287.141947 353.89381 
L 287.528196 367.840855 
L 287.914444 368.280659 
L 288.300692 368.388982 
L 289.459437 366.025635 
L 289.845685 363.659239 
L 290.231934 364.220995 
L 290.618182 358.702566 
L 291.00443 367.838017 
L 292.163175 369.253571 
L 292.935671 369.357192 
L 293.32192 350.539631 
L 293.708168 361.260411 
L 294.866913 366.809679 
L 295.253161 362.869492 
L 295.639409 368.354999 
L 296.025658 369.326758 
L 296.411906 369.167896 
L 297.570651 359.333348 
L 297.956899 358.157976 
L 298.343147 369.146737 
L 299.115644 364.115978 
L 300.274389 361.002549 
L 300.660637 369.173588 
L 301.046885 366.536918 
L 301.433133 367.992758 
L 301.819382 365.382328 
L 302.978126 369.348088 
L 303.364375 369.353702 
L 303.750623 368.704453 
L 304.136871 366.908405 
L 304.52312 368.87058 
L 306.068113 368.352356 
L 306.454361 369.333158 
L 306.840609 367.563535 
L 307.226857 368.835668 
L 308.385602 353.271135 
L 308.77185 369.151415 
L 309.158099 367.958528 
L 309.544347 368.515049 
L 309.930595 367.096173 
L 311.08934 353.139907 
L 311.475588 369.225854 
L 311.861837 363.509546 
L 312.248085 365.229007 
L 312.634333 368.465795 
L 313.793078 367.260396 
L 314.179326 365.070518 
L 314.565575 368.538082 
L 314.951823 369.36 
L 315.338071 369.359181 
L 316.496816 367.59653 
L 316.883064 362.752999 
L 317.269312 369.35995 
L 317.655561 369.359392 
L 318.041809 362.634694 
L 319.200554 369.252117 
L 319.586802 368.390014 
L 319.97305 363.529692 
L 320.359299 362.385675 
L 320.745547 368.600345 
L 321.904292 361.861143 
L 322.29054 369.258861 
L 323.063036 369.246364 
L 323.449285 368.565341 
L 324.60803 362.401545 
L 324.994278 368.192893 
L 325.380526 367.180223 
L 325.766774 346.887466 
L 326.153023 367.554826 
L 327.311767 366.568947 
L 328.084264 369.024517 
L 328.470512 359.509612 
L 328.85676 369.358143 
L 330.015505 366.440806 
L 330.401754 368.108455 
L 330.788002 362.820478 
L 331.560498 367.996644 
L 332.719243 367.223869 
L 333.105491 369.244448 
L 333.877988 369.228237 
L 334.264236 365.722846 
L 335.422981 368.928597 
L 335.809229 363.496368 
L 336.195478 369.322443 
L 336.967974 364.484536 
L 338.512967 361.988249 
L 339.285464 369.145806 
L 339.671712 360.177346 
L 340.830457 368.517397 
L 341.216705 357.875363 
L 341.602953 367.027827 
L 341.989202 364.731891 
L 342.37545 366.717127 
L 343.534195 350.7965 
L 343.920443 366.862337 
L 344.306691 367.647584 
L 344.69294 360.644831 
L 345.079188 369.232588 
L 346.237933 352.501793 
L 346.624181 364.813434 
L 347.010429 369.218272 
L 347.396677 368.50804 
L 348.941671 366.237685 
L 349.327919 369.349826 
L 349.714167 369.351739 
L 350.100415 368.987116 
L 350.486664 369.322332 
L 351.645408 368.427541 
L 352.031657 365.628114 
L 352.417905 364.19158 
L 352.804153 368.790266 
L 353.190401 368.583818 
L 354.349146 359.982266 
L 354.735395 349.757211 
L 355.121643 369.274177 
L 355.507891 365.67071 
L 355.894139 369.088404 
L 357.439132 363.059387 
L 357.825381 363.969247 
L 358.211629 368.530401 
L 358.597877 366.789411 
L 359.756622 369.266268 
L 360.14287 364.45251 
L 360.529119 369.337973 
L 361.301615 369.26733 
L 362.46036 340.999865 
L 362.846608 366.90542 
L 363.232856 367.667275 
L 363.619105 364.035842 
L 364.005353 369.238307 
L 365.164098 367.533353 
L 365.936594 358.503468 
L 366.322843 369.343281 
L 366.709091 366.374767 
L 367.867836 368.157603 
L 368.254084 348.386036 
L 368.640332 367.16463 
L 369.026581 66.96 
L 369.412829 362.964305 
L 370.957822 369.160848 
L 371.34407 352.318323 
L 371.730318 368.474373 
L 372.116567 358.94073 
L 373.275311 366.827493 
L 373.66156 354.36327 
L 374.047808 365.589526 
L 374.434056 365.407875 
L 374.820305 359.670913 
L 375.979049 359.662728 
L 376.365298 354.606018 
L 377.137794 369.09242 
L 377.524042 367.063035 
L 378.682787 355.850953 
L 379.069036 363.233808 
L 379.455284 354.116109 
L 379.841532 365.078358 
L 380.22778 368.808949 
L 381.386525 369.329849 
L 381.772773 362.169365 
L 382.159022 368.383834 
L 382.54527 364.506045 
L 382.931518 367.811122 
L 384.090263 367.979189 
L 384.476511 360.837297 
L 384.86276 369.304533 
L 385.249008 368.862783 
L 385.635256 367.607204 
L 386.794001 369.208647 
L 387.180249 359.821202 
L 387.952746 369.340227 
L 388.338994 369.260847 
L 389.497739 365.831886 
L 389.883987 369.220505 
L 390.270235 361.482759 
L 390.656484 369.00518 
L 392.201477 369.153509 
L 392.587725 359.716916 
L 392.973973 369.24068 
L 393.360222 355.869565 
L 393.74647 362.934118 
L 394.905215 368.62787 
L 395.291463 350.516812 
L 395.677711 365.964184 
L 396.063959 367.859574 
L 396.450208 368.397968 
L 397.608952 369.029593 
L 397.995201 364.078307 
L 398.381449 320.759438 
L 398.767697 316.159005 
L 399.153946 365.622813 
L 400.31269 320.138234 
L 400.698939 369.354487 
L 401.085187 360.185135 
L 401.471435 369.336203 
L 401.857683 339.701016 
L 403.016428 368.619659 
L 403.402677 350.481181 
L 403.788925 368.212263 
L 404.175173 368.315103 
L 404.561421 368.603669 
L 405.720166 364.848165 
L 406.106414 369.355421 
L 406.492663 365.981257 
L 406.878911 338.218342 
L 407.265159 347.007341 
L 408.810152 359.775275 
L 409.196401 328.955951 
L 409.582649 356.677615 
L 409.968897 369.332654 
L 411.127642 364.670425 
L 411.51389 369.359077 
L 411.900138 367.649966 
L 412.286387 355.338657 
L 412.672635 366.777793 
L 413.83138 344.356129 
L 414.217628 369.207704 
L 414.603876 360.668743 
L 414.990125 345.854451 
L 415.376373 355.422328 
L 417.307614 369.358938 
L 417.693862 368.448418 
L 418.080111 353.424475 
L 419.238856 368.956728 
L 419.625104 367.933151 
L 420.011352 352.800497 
L 420.3976 368.186892 
L 420.783849 367.261145 
L 422.328842 366.03644 
L 422.71509 368.659774 
L 423.101338 365.99388 
L 423.487587 368.100254 
L 424.646331 363.795041 
L 425.418828 369.354822 
L 425.805076 369.290674 
L 426.191324 366.823377 
L 427.350069 367.844002 
L 427.736317 361.057963 
L 428.122566 360.926457 
L 428.508814 364.766023 
L 428.895062 367.255607 
L 430.053807 364.816208 
L 430.440055 368.629412 
L 430.826304 359.537644 
L 431.212552 368.903423 
L 431.5988 362.577593 
L 432.757545 367.380033 
L 433.143793 367.741122 
L 433.91629 367.002665 
L 434.302538 368.305446 
L 435.461283 364.420502 
L 435.847531 369.356682 
L 436.233779 348.641106 
L 436.620028 365.713126 
L 437.006276 348.714429 
L 438.165021 368.876848 
L 438.551269 368.537743 
L 438.937517 368.559268 
L 439.323766 369.077607 
L 439.710014 362.040677 
L 440.868759 366.701572 
L 441.255007 367.110829 
L 441.641255 365.802296 
L 442.027503 364.975686 
L 442.413752 365.28875 
L 443.572497 368.599818 
L 443.958745 357.615661 
L 444.344993 367.418288 
L 444.731241 358.581474 
L 445.11749 368.576751 
L 446.662483 365.243553 
L 447.048731 356.489995 
L 447.434979 358.085212 
L 447.821228 363.75953 
L 448.979972 368.565021 
L 449.366221 369.273075 
L 449.752469 363.97978 
L 450.138717 340.659941 
L 450.524965 369.335808 
L 451.68371 362.692891 
L 452.069958 363.149075 
L 452.456207 368.846411 
L 452.842455 356.243171 
L 453.228703 368.750176 
L 454.387448 367.681826 
L 454.773696 367.504234 
L 455.159945 363.763227 
L 455.546193 356.349963 
L 455.932441 369.272607 
L 457.091186 362.046714 
L 457.477434 361.384592 
L 457.863683 365.555348 
L 458.249931 368.007961 
L 458.636179 363.693641 
L 459.794924 366.848955 
L 460.181172 367.250122 
L 460.56742 327.919845 
L 460.953669 367.387154 
L 461.339917 334.728538 
L 462.498662 357.747674 
L 462.88491 368.057936 
L 463.271158 367.134042 
L 463.657407 369.242535 
L 464.043655 350.35042 
L 465.2024 369.333668 
L 465.588648 359.859959 
L 465.974896 369.319951 
L 466.361144 369.359969 
L 466.747393 369.046491 
L 467.906138 369.35342 
L 468.292386 369.300537 
L 468.678634 356.513251 
L 469.064882 363.9414 
L 469.451131 360.832457 
L 470.609875 369.19095 
L 470.996124 342.707912 
L 471.382372 367.050756 
L 471.76862 342.225079 
L 472.154868 368.110932 
L 473.313613 364.500841 
L 473.699862 341.853109 
L 474.08611 363.386274 
L 474.472358 362.663548 
L 474.858606 369.342367 
L 476.017351 366.634731 
L 476.403599 369.356622 
L 476.789848 369.309922 
L 477.562344 359.638068 
L 479.107337 368.054843 
L 479.493586 364.169202 
L 479.879834 368.775652 
L 480.266082 363.025426 
L 481.424827 339.84659 
L 481.811075 364.661065 
L 482.197323 369.346671 
L 482.583572 369.12782 
L 482.96982 368.628831 
L 484.128565 365.873574 
L 484.514813 368.77278 
L 484.901061 350.710923 
L 485.28731 363.785905 
L 485.673558 368.775045 
L 486.832303 359.550558 
L 487.218551 369.357118 
L 487.604799 369.274522 
L 487.991048 364.19998 
L 488.377296 369.245128 
L 489.922289 348.687949 
L 490.308537 369.358073 
L 490.694785 367.809542 
L 491.081034 369.311599 
L 492.626027 368.625509 
L 493.012275 358.838312 
L 493.398523 366.272295 
L 493.784772 368.197661 
L 494.943516 368.671828 
L 495.329765 369.358777 
L 495.716013 350.8018 
L 496.102261 364.64516 
L 496.488509 369.259994 
L 498.419751 369.304837 
L 498.805999 367.04541 
L 499.192247 360.277217 
L 500.350992 355.380431 
L 500.73724 368.013691 
L 501.509737 363.54882 
L 501.895985 368.95849 
L 503.05473 361.765649 
L 503.440978 362.173913 
L 503.827227 367.850389 
L 504.213475 368.024308 
L 504.599723 368.732408 
L 505.758468 360.983769 
L 506.144716 368.852196 
L 506.530964 359.106739 
L 506.917213 369.310586 
L 508.848454 369.310222 
L 509.234702 368.997135 
L 509.620951 356.402179 
L 510.007199 305.957521 
L 511.552192 344.055726 
L 511.93844 367.286141 
L 512.324689 363.99092 
L 512.710937 367.54425 
L 513.869682 363.979907 
L 514.25593 368.670754 
L 514.642178 369.09372 
L 515.028426 368.864683 
L 515.414675 361.72644 
L 516.573419 368.793762 
L 516.959668 363.235641 
L 517.345916 367.518517 
L 517.732164 341.515639 
L 518.118413 353.822901 
L 519.277157 368.800399 
L 519.663406 368.674351 
L 520.049654 354.112342 
L 520.435902 369.35412 
L 520.82215 364.225363 
L 521.980895 366.298581 
L 522.367144 357.142831 
L 523.13964 369.330922 
L 523.525888 368.756223 
L 525.070881 369.293403 
L 525.45713 364.388229 
L 525.843378 368.858671 
L 526.229626 369.11546 
L 527.388371 368.494502 
L 527.774619 358.84194 
L 528.160868 344.758911 
L 528.547116 368.699885 
L 530.092109 365.194023 
L 530.478357 368.816341 
L 530.864605 369.359985 
L 531.250854 369.102908 
L 531.637102 369.214822 
L 532.795847 368.832785 
L 533.182095 369.302395 
L 533.568343 369.034418 
L 533.954592 351.411221 
L 534.34084 301.300038 
L 535.499585 349.358669 
L 535.885833 359.302312 
L 536.272081 365.410303 
L 536.658329 365.166659 
L 537.044578 369.308146 
L 538.203323 356.846414 
L 538.589571 366.37121 
L 538.975819 369.310878 
L 540.90706 362.346593 
L 541.293309 354.769437 
L 541.679557 369.28961 
L 542.065805 366.805519 
L 542.452054 368.183749 
L 543.610798 359.61786 
L 543.997047 368.820361 
L 544.383295 368.588148 
L 544.769543 368.711227 
L 545.155791 364.229743 
L 546.314536 368.556406 
L 546.700784 356.770491 
L 547.087033 367.387463 
L 547.473281 361.928016 
L 547.859529 369.219097 
L 549.404522 368.684118 
L 549.790771 358.465672 
L 550.177019 368.7051 
L 550.563267 344.622618 
L 551.722012 368.675114 
L 552.10826 362.636067 
L 552.494509 365.071256 
L 552.880757 369.278308 
L 553.267005 369.261902 
L 554.42575 368.875963 
L 554.811998 356.35024 
L 555.198246 368.86331 
L 555.584495 367.381394 
L 555.970743 368.485883 
L 557.515736 367.461046 
L 557.901984 368.971796 
L 558.674481 365.184493 
L 559.833226 366.217811 
L 560.219474 368.949465 
L 560.605722 356.737695 
L 560.99197 368.853902 
L 561.378219 367.238907 
L 562.536964 364.794295 
L 563.30946 369.353271 
L 563.695708 369.112533 
L 564.081957 358.125921 
L 565.240701 368.770421 
L 565.62695 369.296578 
L 566.013198 367.365713 
L 566.399446 369.033333 
L 566.785695 364.941073 
L 567.944439 368.733325 
L 568.330688 369.316778 
L 568.716936 367.096148 
L 569.103184 358.890847 
L 569.489432 362.907297 
L 570.648177 365.731037 
L 571.034425 368.959587 
L 571.420674 368.507836 
L 571.806922 367.010761 
L 572.19317 368.728634 
L 573.351915 366.874799 
L 573.738163 366.803065 
L 574.124412 365.579153 
L 574.896908 369.275786 
L 576.055653 367.62174 
L 576.441901 369.167173 
L 576.82815 369.029885 
L 577.214398 368.288481 
L 577.600646 366.377543 
L 578.759391 368.689455 
L 579.145639 368.955793 
L 579.531887 368.203219 
L 579.918136 369.115362 
L 580.304384 369.267694 
L 581.463129 365.464636 
L 581.849377 369.358596 
L 582.235625 367.132359 
L 582.621874 369.178621 
L 583.008122 369.190499 
L 584.166867 369.358295 
L 584.553115 358.602659 
L 584.939363 369.249782 
L 585.325611 369.357761 
L 585.71186 368.989649 
L 587.256853 369.315515 
L 587.643101 349.998294 
L 588.029349 368.480057 
L 588.415598 367.611639 
L 589.574342 368.722311 
L 589.960591 368.666895 
L 590.346839 369.350464 
L 590.733087 369.332672 
L 592.27808 368.454537 
L 592.664329 368.861428 
L 593.050577 363.342314 
L 593.436825 363.063739 
L 593.823073 369.244965 
L 594.981818 368.979249 
L 595.368066 367.002214 
L 595.754315 369.120202 
L 596.140563 348.48146 
L 596.526811 368.194527 
L 597.685556 356.430527 
L 598.071804 361.696799 
L 598.458053 368.703672 
L 598.844301 366.5231 
L 599.230549 363.632992 
L 600.389294 365.238255 
L 600.775542 359.624331 
L 601.16179 367.660917 
L 601.548039 361.515158 
L 601.934287 357.258966 
L 603.093032 365.124398 
L 603.47928 368.69913 
L 603.865528 304.259536 
L 604.251777 350.105934 
L 604.638025 358.781987 
L 605.79677 367.490453 
L 606.183018 366.527659 
L 606.569266 364.357475 
L 606.955515 369.355943 
L 607.341763 369.159912 
L 608.500508 351.66514 
L 608.886756 369.209268 
L 609.273004 363.618158 
L 609.659252 368.256854 
L 610.045501 365.017935 
L 611.204246 340.245033 
L 611.590494 366.406927 
L 611.976742 365.303631 
L 612.36299 360.613561 
L 612.749239 366.768106 
L 613.907983 365.785453 
L 614.294232 316.295793 
L 614.68048 367.152484 
L 615.066728 359.091583 
L 615.452976 360.34916 
L 616.611721 366.101727 
L 616.99797 362.684983 
L 617.384218 369.278704 
L 618.156714 367.405302 
L 619.315459 343.574784 
L 619.701707 365.344515 
L 620.087956 369.247285 
L 620.474204 367.534721 
L 620.860452 359.773492 
L 622.019197 353.885087 
L 622.405445 348.97991 
L 622.791694 357.732017 
L 623.177942 348.804863 
L 623.56419 366.6952 
L 624.722935 368.56366 
L 625.109183 368.617337 
L 625.495431 319.107111 
L 625.88168 359.157406 
L 626.267928 368.9686 
L 627.426673 368.981921 
L 627.812921 366.78545 
L 628.199169 357.524846 
L 628.585418 366.837081 
L 628.971666 363.310663 
L 630.516659 367.941226 
L 630.902907 366.819272 
L 631.289156 369.356674 
L 631.675404 362.398604 
L 633.220397 367.681201 
L 633.606645 355.948987 
L 634.379142 369.356678 
L 635.537886 369.174001 
L 635.924135 366.514738 
L 636.310383 369.17604 
L 636.696631 362.759376 
L 637.08288 366.802892 
L 638.627873 369.356136 
L 639.014121 358.239594 
L 639.400369 366.196701 
L 639.786617 365.6664 
L 640.945362 355.4256 
L 641.331611 367.957004 
L 641.717859 369.026926 
L 642.104107 364.892668 
L 642.490355 368.52505 
L 643.6491 364.669581 
L 644.035348 365.903506 
L 644.421597 355.575674 
L 644.807845 367.454806 
L 645.194093 366.417126 
L 646.352838 354.316242 
L 647.125335 367.415918 
L 647.511583 369.118236 
L 647.897831 368.385666 
L 649.056576 361.165199 
L 649.442824 341.029112 
L 649.829072 367.067719 
L 650.215321 364.945901 
L 650.601569 358.328107 
L 652.146562 343.058108 
L 652.53281 363.090464 
L 652.919059 369.300057 
L 653.305307 366.735294 
L 654.464052 369.043313 
L 654.8503 349.742611 
L 655.236548 365.010612 
L 655.622796 358.064986 
L 656.009045 361.725108 
L 657.16779 339.649608 
L 657.554038 131.674083 
L 657.940286 320.705637 
L 658.326534 365.418779 
L 658.712783 361.436727 
L 659.871527 352.235952 
L 660.257776 369.093202 
L 660.644024 367.998654 
L 661.030272 355.203212 
L 661.416521 367.239273 
L 662.575265 366.959879 
L 662.961514 362.693204 
L 663.347762 363.108809 
L 663.73401 369.293636 
L 664.120258 362.856476 
L 665.279003 366.658192 
L 665.665251 369.17028 
L 666.0515 331.023449 
L 666.437748 366.235241 
L 667.982741 366.997725 
L 668.368989 366.623069 
L 668.755238 367.210292 
L 669.141486 345.762352 
L 669.527734 367.132782 
L 670.686479 343.748614 
L 671.072727 367.051557 
L 671.458976 368.511651 
L 671.845224 366.750718 
L 672.231472 346.419711 
L 673.390217 367.563268 
L 673.776465 351.148048 
L 674.162713 369.323155 
L 674.548962 366.142471 
L 674.93521 369.300067 
L 676.093955 369.350453 
L 676.480203 367.596729 
L 676.866451 368.836449 
L 677.2527 369.321077 
L 677.638948 367.712197 
L 678.797693 336.67953 
L 679.183941 357.448632 
L 679.570189 368.624706 
L 679.956437 353.034735 
L 680.342686 366.363791 
L 681.501431 366.73013 
L 681.887679 369.14859 
L 682.273927 368.935329 
L 683.046424 363.887173 
L 684.205168 368.074542 
L 684.591417 363.987599 
L 684.977665 347.267856 
L 685.363913 368.383165 
L 685.750162 368.011104 
L 686.908906 369.021777 
L 687.295155 364.774952 
L 687.681403 369.350196 
L 688.453899 360.9419 
L 689.998892 369.349124 
L 690.385141 362.101501 
L 690.771389 369.31359 
L 691.157637 368.787521 
L 692.316382 368.163764 
L 692.70263 366.505143 
L 693.088879 369.309481 
L 693.475127 369.26336 
L 693.861375 364.619552 
L 695.02012 368.997643 
L 695.406368 369.356178 
L 695.792617 368.527481 
L 696.178865 359.531655 
L 696.565113 357.162935 
L 697.723858 364.475491 
L 698.110106 368.632398 
L 698.882603 347.641669 
L 699.268851 368.837016 
L 700.427596 367.324763 
L 700.813844 360.322473 
L 701.200092 332.188333 
L 701.586341 359.143627 
L 701.972589 368.984761 
L 703.131334 367.005015 
L 703.517582 369.280516 
L 703.90383 363.56314 
L 704.676327 367.473337 
L 705.835072 368.957388 
L 706.22132 317.871353 
L 706.993816 368.64745 
L 707.380065 369.355905 
L 708.538809 365.642086 
L 708.925058 366.119862 
L 709.311306 364.793026 
L 709.697554 368.250727 
L 710.083802 367.259336 
L 711.242547 367.800662 
L 711.628796 366.229722 
L 712.015044 369.094363 
L 712.401292 369.349318 
L 712.78754 367.006489 
L 714.332533 368.849593 
L 714.718782 368.407442 
L 715.10503 369.184274 
L 715.491278 340.464236 
L 716.650023 359.194879 
L 717.036271 354.66024 
L 717.42252 369.144483 
L 717.808768 362.08519 
L 718.195016 369.330252 
L 719.353761 337.816178 
L 719.740009 367.804246 
L 720.512506 327.28727 
L 720.898754 369.308336 
L 722.057499 358.504872 
L 722.443747 367.535482 
L 722.829995 353.591922 
L 723.216244 367.002438 
L 723.602492 359.137381 
L 724.761237 367.50534 
L 725.147485 369.35876 
L 725.533733 368.6076 
L 725.919982 359.228255 
L 726.30623 367.90641 
L 727.851223 339.009344 
L 728.237471 369.018485 
L 728.623719 365.309516 
L 729.009968 337.99604 
L 730.168713 367.040381 
L 730.554961 369.316116 
L 730.941209 269.8323 
L 731.327457 368.863226 
L 731.713706 368.469315 
L 732.87245 366.495714 
L 733.258699 369.191149 
L 733.644947 361.132087 
L 734.031195 363.406454 
L 734.417443 360.66833 
L 735.576188 363.587204 
L 735.962437 367.018974 
L 736.348685 357.570587 
L 736.734933 314.466927 
L 737.121181 368.840312 
L 738.279926 368.149165 
L 738.666174 369.255552 
L 739.438671 369.320173 
L 739.824919 330.815376 
L 740.983664 366.102122 
L 741.369912 358.980976 
L 741.756161 367.705791 
L 742.142409 368.727721 
L 742.528657 368.843971 
L 743.687402 365.824607 
L 744.07365 359.776183 
L 744.459898 365.251616 
L 744.846147 360.908286 
L 745.232395 369.209549 
L 746.39114 368.198809 
L 746.777388 364.708277 
L 747.163636 365.130024 
L 747.163636 365.130024 
" clip-path="url(#pc24a75176c)" style="fill: none; stroke: #000000; stroke-width: 1.5; stroke-linecap: square"/>
   </g>
   <g id="line2d_18">
    <path d="M 138.436364 225.441254 
L 138.822612 225.973764 
L 139.20886 226.047929 
L 140.753853 225.753127 
L 141.140102 224.554861 
L 141.912598 224.225069 
L 142.298846 225.279342 
L 143.457591 224.62718 
L 144.230088 225.658835 
L 144.616336 225.745281 
L 145.002584 225.609422 
L 146.161329 225.541545 
L 146.547577 224.608341 
L 146.933826 225.907972 
L 147.320074 225.278238 
L 147.706322 225.186835 
L 149.251315 225.765764 
L 149.637563 225.730154 
L 150.41006 225.993657 
L 152.341301 225.954201 
L 152.72755 225.431162 
L 153.113798 220.173933 
L 154.272543 223.493835 
L 154.658791 222.163287 
L 155.045039 223.244581 
L 155.431287 225.553004 
L 155.817536 225.965764 
L 157.362529 225.85878 
L 157.748777 225.419176 
L 158.135025 222.987893 
L 158.521274 225.992866 
L 159.680018 225.530436 
L 160.066267 224.986773 
L 160.452515 225.965593 
L 162.770005 226.045837 
L 163.156253 223.889412 
L 163.542501 225.78137 
L 163.928749 220.31827 
L 165.473743 224.214101 
L 165.859991 223.780422 
L 166.632487 225.440155 
L 167.791232 225.779928 
L 168.17748 223.054985 
L 168.563729 222.963325 
L 168.949977 225.954581 
L 169.336225 221.981561 
L 170.49497 225.847695 
L 170.881218 225.212888 
L 171.267467 225.790713 
L 171.653715 215.072972 
L 172.039963 225.323092 
L 173.198708 224.070138 
L 173.584956 225.436309 
L 173.971204 223.24079 
L 174.357453 225.092205 
L 175.902446 222.863493 
L 176.288694 222.574433 
L 176.674942 224.477476 
L 177.447439 225.957219 
L 178.992432 225.947539 
L 179.37868 225.75063 
L 179.764928 225.162193 
L 180.151177 225.661369 
L 181.309922 225.081581 
L 181.69617 226.000258 
L 182.082418 225.758262 
L 182.854915 226.031691 
L 184.786156 225.934375 
L 185.172404 223.667482 
L 185.558653 224.712215 
L 186.717397 225.473361 
L 187.103646 225.16161 
L 187.489894 225.888342 
L 187.876142 224.779755 
L 188.26239 220.921055 
L 189.421135 217.628863 
L 189.807383 219.374631 
L 190.193632 222.995217 
L 190.966128 225.253645 
L 192.124873 225.106143 
L 192.511121 222.092931 
L 192.89737 217.156114 
L 193.283618 225.494868 
L 193.669866 224.662796 
L 194.828611 225.467865 
L 195.214859 224.616199 
L 195.601108 225.915088 
L 196.373604 225.944153 
L 197.532349 225.301211 
L 197.918597 225.291433 
L 198.304845 225.94522 
L 198.691094 225.978984 
L 199.077342 225.7572 
L 200.236087 223.817014 
L 200.622335 225.191644 
L 201.008583 225.860909 
L 201.394832 225.860111 
L 201.78108 226.007595 
L 202.939825 226.026734 
L 203.326073 225.546011 
L 203.712321 225.64664 
L 204.098569 225.103358 
L 204.484818 225.002134 
L 205.643563 225.930547 
L 206.029811 225.835653 
L 206.802307 225.944625 
L 208.3473 225.797522 
L 208.733549 225.25416 
L 209.119797 225.777542 
L 209.506045 225.760832 
L 211.051038 225.986333 
L 211.437287 225.696997 
L 211.823535 223.983643 
L 212.209783 226.455272 
L 212.596031 224.214132 
L 213.754776 226.186542 
L 214.141024 225.039989 
L 214.527273 224.984503 
L 215.299769 224.032412 
L 216.844762 220.670422 
L 217.231011 224.116337 
L 217.617259 224.807918 
L 218.003507 225.142385 
L 219.162252 225.796872 
L 219.5485 224.621389 
L 219.934749 225.71491 
L 220.320997 225.250688 
L 220.707245 225.774383 
L 222.252238 225.373566 
L 222.638486 225.274263 
L 223.410983 221.974911 
L 224.569728 224.571026 
L 224.955976 224.758113 
L 225.342224 224.411108 
L 225.728473 225.687477 
L 226.114721 225.585498 
L 228.045962 225.988321 
L 228.43221 223.73604 
L 228.818459 212.214482 
L 229.977204 218.489202 
L 230.363452 226.815019 
L 230.7497 224.451435 
L 231.135948 223.155859 
L 231.522197 222.85239 
L 232.680941 221.473895 
L 233.06719 223.875573 
L 233.453438 218.785629 
L 233.839686 218.317236 
L 234.225934 221.209459 
L 235.384679 224.325072 
L 235.770928 223.541131 
L 236.157176 224.227032 
L 236.543424 221.800307 
L 236.929672 223.545229 
L 238.088417 224.300516 
L 238.474665 225.363751 
L 238.860914 223.341364 
L 239.63341 225.471306 
L 240.792155 225.602674 
L 241.178403 224.886819 
L 241.564652 223.807475 
L 241.9509 224.879893 
L 242.337148 225.346759 
L 243.495893 225.971911 
L 243.882141 225.180369 
L 244.268389 225.888808 
L 244.654638 225.60603 
L 246.199631 225.772058 
L 246.585879 225.960771 
L 246.972127 224.646025 
L 247.358376 220.994165 
L 247.744624 224.982583 
L 248.903369 225.423611 
L 249.289617 224.781375 
L 249.675865 225.833531 
L 250.062114 225.914573 
L 250.448362 225.750722 
L 251.607107 225.963366 
L 251.993355 225.644346 
L 252.379603 215.878874 
L 252.765851 224.382944 
L 253.1521 224.425106 
L 254.310844 225.073434 
L 254.697093 222.484325 
L 255.083341 225.704285 
L 255.855838 225.966243 
L 257.014582 225.456553 
L 257.400831 223.063843 
L 257.787079 225.686753 
L 258.173327 225.710628 
L 258.559575 213.492747 
L 260.104569 224.381491 
L 260.490817 225.719511 
L 260.877065 221.212679 
L 261.263313 225.041701 
L 262.422058 223.999176 
L 262.808306 218.126824 
L 263.194555 224.571406 
L 263.580803 223.875543 
L 263.967051 224.169099 
L 265.125796 224.851785 
L 265.512044 225.906714 
L 265.898293 224.811335 
L 266.284541 225.922333 
L 266.670789 224.815543 
L 268.215782 224.781859 
L 268.60203 225.957489 
L 269.374527 226.03063 
L 270.533272 225.818195 
L 270.91952 226.030495 
L 271.305768 225.825378 
L 271.692017 225.880539 
L 272.078265 225.024126 
L 273.23701 225.75336 
L 273.623258 225.752471 
L 274.009506 225.936454 
L 274.395754 225.95844 
L 274.782003 225.700905 
L 275.940748 225.42842 
L 276.326996 225.46046 
L 276.713244 225.851253 
L 277.099492 224.588147 
L 277.485741 225.979119 
L 279.80323 225.972389 
L 280.189479 224.736256 
L 281.734472 226.011662 
L 282.893216 226.035347 
L 284.051961 224.784417 
L 284.43821 224.081358 
L 284.824458 226.113297 
L 285.596954 225.927909 
L 287.141947 225.846597 
L 287.528196 224.356119 
L 287.914444 225.636217 
L 288.300692 223.216191 
L 289.459437 224.998901 
L 289.845685 225.91645 
L 290.231934 225.875404 
L 290.618182 225.70399 
L 291.00443 223.576312 
L 292.163175 225.655608 
L 292.549423 225.078207 
L 292.935671 225.952907 
L 293.32192 225.970138 
L 293.708168 224.336065 
L 294.866913 224.772283 
L 295.639409 225.487084 
L 296.025658 225.501003 
L 296.411906 225.96877 
L 297.570651 225.978892 
L 298.343147 224.053569 
L 298.729395 224.669103 
L 299.115644 225.023739 
L 300.274389 225.534994 
L 300.660637 224.954291 
L 301.046885 225.939233 
L 301.819382 226.035212 
L 302.978126 224.40831 
L 303.364375 224.439964 
L 303.750623 225.960286 
L 304.136871 225.744324 
L 306.068113 225.602435 
L 306.454361 226.030562 
L 307.226857 225.926437 
L 308.385602 225.971433 
L 308.77185 223.690688 
L 309.158099 225.638892 
L 309.930595 225.916793 
L 311.08934 225.910506 
L 311.475588 223.553774 
L 311.861837 225.659823 
L 312.248085 225.526319 
L 312.634333 225.585596 
L 313.793078 223.434282 
L 314.179326 226.001276 
L 314.565575 225.744324 
L 314.951823 225.811416 
L 315.338071 225.734945 
L 316.496816 223.741726 
L 316.883064 225.951882 
L 317.269312 225.458166 
L 317.655561 225.874447 
L 318.041809 225.940386 
L 319.200554 225.153415 
L 319.586802 225.192472 
L 319.97305 225.895182 
L 320.745547 225.625593 
L 321.904292 225.937141 
L 322.29054 225.377278 
L 322.676788 225.96604 
L 323.063036 225.9579 
L 323.449285 225.086421 
L 324.60803 226.02728 
L 324.994278 225.71529 
L 325.380526 225.780444 
L 325.766774 225.680416 
L 326.153023 223.808573 
L 327.698016 225.938601 
L 328.470512 225.956054 
L 328.85676 225.245842 
L 330.015505 225.605552 
L 330.401754 225.885937 
L 330.788002 225.571205 
L 331.17425 224.780111 
L 331.560498 225.711793 
L 333.49174 225.854253 
L 333.877988 225.418194 
L 334.264236 225.957698 
L 335.809229 225.94733 
L 336.195478 224.394551 
L 336.967974 225.824384 
L 338.126719 225.350771 
L 338.512967 225.02415 
L 338.899216 224.236172 
L 339.285464 224.52449 
L 339.671712 225.49147 
L 340.830457 223.867243 
L 341.216705 224.591907 
L 341.602953 223.078216 
L 341.989202 225.741766 
L 342.37545 224.307221 
L 343.534195 225.327908 
L 343.920443 220.369504 
L 344.306691 222.996794 
L 344.69294 224.644467 
L 345.079188 222.330026 
L 346.237933 224.785135 
L 346.624181 221.441524 
L 347.010429 221.658394 
L 347.396677 223.521243 
L 348.941671 225.636494 
L 349.327919 223.259457 
L 349.714167 225.768567 
L 350.100415 225.906254 
L 350.486664 224.791134 
L 351.645408 225.95171 
L 352.031657 223.567337 
L 352.417905 225.842076 
L 352.804153 225.660068 
L 353.190401 225.888992 
L 354.349146 225.891072 
L 355.121643 223.289203 
L 355.507891 225.807282 
L 355.894139 225.468595 
L 357.439132 225.825348 
L 357.825381 225.151838 
L 358.211629 224.109902 
L 358.597877 225.114498 
L 359.756622 225.068747 
L 360.14287 224.541918 
L 360.529119 224.696456 
L 360.915367 225.82593 
L 361.301615 225.504236 
L 362.46036 225.9473 
L 362.846608 221.666804 
L 363.232856 225.042333 
L 363.619105 226.01676 
L 364.005353 225.384351 
L 365.164098 225.790682 
L 365.550346 225.137257 
L 365.936594 225.730418 
L 366.322843 224.756254 
L 366.709091 225.37418 
L 367.867836 224.84324 
L 368.254084 225.956863 
L 368.640332 223.886989 
L 369.026581 225.13368 
L 369.412829 228.963303 
L 370.957822 227.376575 
L 371.730318 220.331704 
L 372.116567 220.992356 
L 373.275311 218.332364 
L 374.047808 222.906593 
L 374.434056 223.499687 
L 374.820305 224.407065 
L 375.979049 220.800324 
L 376.365298 220.341758 
L 376.751546 219.492013 
L 377.137794 224.623732 
L 377.524042 224.424474 
L 378.682787 225.848094 
L 379.069036 221.853345 
L 379.455284 224.868459 
L 379.841532 222.607995 
L 380.22778 221.725786 
L 381.386525 223.566288 
L 381.772773 225.030628 
L 382.159022 225.297788 
L 382.54527 225.950717 
L 382.931518 225.683465 
L 384.090263 223.616897 
L 384.476511 224.922405 
L 384.86276 224.520582 
L 385.249008 225.865694 
L 385.635256 226.021784 
L 386.794001 225.954244 
L 387.952746 224.833253 
L 388.338994 225.706855 
L 389.497739 225.718879 
L 389.883987 225.355237 
L 390.270235 225.859706 
L 390.656484 225.46849 
L 392.201477 226.006098 
L 392.587725 225.99194 
L 392.973973 223.069432 
L 393.360222 225.424985 
L 393.74647 224.664164 
L 394.905215 223.892118 
L 395.291463 223.953075 
L 395.677711 219.375202 
L 396.063959 223.937335 
L 396.450208 224.799066 
L 397.608952 225.478992 
L 397.995201 225.211201 
L 398.381449 225.829734 
L 399.153946 216.706425 
L 400.31269 217.07084 
L 400.698939 215.049139 
L 401.085187 225.320626 
L 401.471435 222.243825 
L 401.857683 222.768109 
L 403.016428 215.530525 
L 403.402677 221.326859 
L 403.788925 223.441103 
L 404.175173 223.326979 
L 404.561421 225.832776 
L 405.720166 223.443465 
L 406.106414 225.838727 
L 406.492663 224.577559 
L 406.878911 225.470104 
L 407.265159 224.399606 
L 408.810152 224.290143 
L 409.196401 218.907354 
L 409.582649 210.037624 
L 409.968897 222.255481 
L 411.127642 224.521282 
L 411.51389 223.433276 
L 411.900138 225.713572 
L 412.286387 221.861369 
L 412.672635 223.25858 
L 413.83138 223.907834 
L 414.217628 213.996523 
L 414.603876 221.20795 
L 414.990125 224.03862 
L 415.376373 218.592874 
L 416.921366 221.979733 
L 417.307614 224.98616 
L 417.693862 226.103543 
L 418.080111 223.758044 
L 419.625104 222.523745 
L 420.011352 226.003767 
L 420.3976 221.598129 
L 420.783849 221.332049 
L 422.328842 224.890445 
L 422.71509 225.088181 
L 423.101338 225.548409 
L 423.487587 225.621789 
L 424.646331 225.151703 
L 425.03258 225.526663 
L 425.418828 225.666853 
L 425.805076 223.656292 
L 426.191324 225.886213 
L 427.350069 225.817575 
L 428.508814 225.230316 
L 428.895062 225.861215 
L 430.053807 225.18148 
L 430.826304 225.996559 
L 431.212552 225.198527 
L 431.5988 225.879177 
L 432.757545 225.659927 
L 433.143793 224.95604 
L 433.91629 225.79459 
L 434.302538 225.722682 
L 435.461283 225.68463 
L 435.847531 225.822379 
L 436.233779 225.365089 
L 436.620028 224.306816 
L 437.006276 225.426218 
L 438.165021 223.934212 
L 438.551269 225.920627 
L 439.323766 225.769555 
L 439.710014 225.929485 
L 440.868759 225.402404 
L 441.255007 225.448112 
L 441.641255 225.222132 
L 442.027503 225.257344 
L 442.413752 224.910688 
L 443.572497 225.792939 
L 443.958745 225.926228 
L 444.344993 224.173914 
L 444.731241 225.062245 
L 445.11749 221.449725 
L 446.662483 224.635394 
L 447.048731 225.157384 
L 447.434979 224.410445 
L 447.821228 224.033553 
L 448.979972 225.003569 
L 449.366221 226.026986 
L 449.752469 224.32306 
L 450.138717 225.711039 
L 450.524965 217.911561 
L 451.68371 225.756311 
L 452.456207 223.961467 
L 452.842455 225.000956 
L 453.228703 223.29784 
L 454.387448 224.208592 
L 455.159945 225.181614 
L 455.546193 219.727121 
L 455.932441 223.712876 
L 457.091186 225.052031 
L 457.477434 224.021143 
L 457.863683 225.301536 
L 458.249931 221.909254 
L 458.636179 225.712137 
L 459.794924 225.066232 
L 460.181172 225.060908 
L 460.56742 225.224874 
L 460.953669 212.575965 
L 461.339917 225.308124 
L 462.498662 218.198566 
L 462.88491 213.315787 
L 463.657407 224.32403 
L 464.043655 223.96378 
L 465.2024 223.528819 
L 465.588648 225.476103 
L 465.974896 222.169317 
L 466.361144 225.910849 
L 466.747393 222.041034 
L 467.906138 225.406042 
L 468.292386 225.956054 
L 468.678634 225.974451 
L 469.064882 224.385355 
L 469.451131 224.406206 
L 470.609875 224.949777 
L 470.996124 225.322001 
L 471.382372 224.086867 
L 471.76862 225.910506 
L 472.154868 225.78948 
L 473.313613 226.147588 
L 473.699862 225.771162 
L 474.08611 216.731594 
L 474.472358 221.299187 
L 474.858606 220.052343 
L 476.017351 223.098276 
L 476.403599 224.786552 
L 476.789848 225.060981 
L 477.562344 224.839836 
L 478.721089 224.780043 
L 479.107337 223.317961 
L 479.493586 222.395247 
L 479.879834 224.743182 
L 481.424827 225.762501 
L 481.811075 219.057825 
L 482.583572 225.544355 
L 482.96982 224.262912 
L 484.128565 224.887549 
L 484.514813 225.96593 
L 484.901061 225.561973 
L 485.28731 223.455789 
L 485.673558 223.401714 
L 487.218551 220.396355 
L 487.604799 225.773015 
L 487.991048 225.909604 
L 488.377296 225.439352 
L 489.922289 225.75693 
L 490.308537 221.622673 
L 490.694785 204.960869 
L 491.081034 224.746838 
L 492.626027 225.955366 
L 493.012275 224.148739 
L 493.784772 225.790817 
L 494.943516 225.150777 
L 495.329765 225.890704 
L 495.716013 223.104815 
L 496.488509 225.769598 
L 498.419751 225.941895 
L 498.805999 225.368628 
L 499.192247 225.601061 
L 500.350992 225.262754 
L 500.73724 223.838669 
L 501.123489 225.724467 
L 501.509737 224.984092 
L 501.895985 225.687992 
L 503.05473 225.960016 
L 503.440978 225.530472 
L 503.827227 225.271576 
L 504.213475 225.35885 
L 504.599723 223.898921 
L 505.758468 225.244161 
L 506.144716 225.265601 
L 506.530964 225.692789 
L 506.917213 223.914594 
L 507.303461 225.563758 
L 508.462206 224.41626 
L 508.848454 225.535171 
L 509.234702 225.946613 
L 509.620951 225.984763 
L 510.007199 224.49883 
L 511.552192 209.891619 
L 511.93844 213.150373 
L 512.324689 213.99959 
L 512.710937 222.262179 
L 513.869682 224.373338 
L 514.25593 224.361167 
L 514.642178 225.479134 
L 515.028426 225.862332 
L 515.414675 224.071273 
L 516.573419 223.164613 
L 516.959668 222.461842 
L 517.345916 225.778297 
L 517.732164 225.604423 
L 518.118413 218.769508 
L 519.277157 219.267027 
L 519.663406 221.192828 
L 520.049654 223.97911 
L 520.435902 220.523582 
L 520.82215 225.36161 
L 521.980895 223.818333 
L 522.367144 223.047176 
L 522.753392 224.31819 
L 523.13964 221.106039 
L 523.525888 222.008288 
L 524.684633 225.777468 
L 525.070881 225.825176 
L 525.45713 222.957245 
L 525.843378 225.874355 
L 526.229626 225.317737 
L 527.388371 225.966175 
L 527.774619 225.410299 
L 528.160868 223.871414 
L 528.547116 219.549394 
L 530.092109 224.459968 
L 530.864605 225.520357 
L 531.637102 225.988253 
L 532.795847 225.994308 
L 533.182095 225.74822 
L 533.568343 224.53874 
L 533.954592 222.716519 
L 534.34084 223.262592 
L 535.499585 210.599653 
L 535.885833 222.208049 
L 536.272081 217.031806 
L 537.044578 224.63367 
L 538.203323 225.311756 
L 538.589571 224.0357 
L 538.975819 225.381596 
L 539.362067 221.571874 
L 539.748316 223.605493 
L 540.90706 224.759555 
L 541.293309 223.949401 
L 541.679557 224.303565 
L 542.065805 225.886765 
L 542.452054 225.928283 
L 543.610798 224.25257 
L 543.997047 224.757346 
L 544.383295 225.934927 
L 544.769543 225.958305 
L 545.155791 225.855774 
L 546.314536 225.004336 
L 546.700784 225.148366 
L 547.087033 224.640093 
L 547.473281 225.869798 
L 547.859529 225.037511 
L 549.404522 225.151771 
L 549.790771 225.875852 
L 550.177019 224.463692 
L 550.563267 225.252467 
L 551.722012 222.627748 
L 552.10826 225.89877 
L 552.494509 224.950194 
L 552.880757 225.745422 
L 553.267005 224.950703 
L 554.42575 225.952213 
L 554.811998 225.972291 
L 555.198246 222.516046 
L 555.584495 225.639101 
L 555.970743 224.8145 
L 557.515736 225.992903 
L 557.901984 225.592013 
L 558.288233 225.858369 
L 558.674481 225.987738 
L 559.833226 225.663736 
L 560.219474 225.688642 
L 560.605722 225.159543 
L 560.99197 224.071102 
L 561.378219 225.351936 
L 563.30946 225.666031 
L 563.695708 225.94395 
L 564.081957 225.823612 
L 565.240701 224.243546 
L 565.62695 225.938343 
L 566.013198 225.973077 
L 566.399446 224.137838 
L 566.785695 226.013515 
L 568.330688 225.75336 
L 568.716936 225.889164 
L 569.103184 225.822513 
L 569.489432 224.12341 
L 570.648177 223.961737 
L 571.034425 224.216898 
L 571.420674 225.180167 
L 571.806922 225.580149 
L 572.19317 225.177425 
L 573.351915 225.953722 
L 573.738163 225.944018 
L 574.124412 225.748956 
L 574.51066 223.950542 
L 574.896908 224.843099 
L 576.055653 225.461834 
L 576.441901 225.931289 
L 576.82815 225.935528 
L 577.214398 225.815944 
L 577.600646 226.038494 
L 578.759391 225.943184 
L 579.531887 225.559102 
L 579.918136 225.904893 
L 580.304384 225.974027 
L 581.849377 225.914198 
L 582.621874 225.94538 
L 583.008122 225.713407 
L 584.166867 225.991406 
L 584.553115 225.957771 
L 584.939363 225.045498 
L 585.325611 225.96228 
L 587.643101 225.938816 
L 588.029349 222.668689 
L 588.415598 224.841615 
L 589.574342 225.291709 
L 589.960591 225.646014 
L 590.346839 225.458129 
L 590.733087 225.950576 
L 592.27808 226.008969 
L 592.664329 226.02517 
L 593.050577 223.347566 
L 593.436825 225.657798 
L 593.823073 224.890714 
L 594.981818 225.669221 
L 596.140563 225.907076 
L 596.526811 223.780054 
L 597.685556 226.034145 
L 598.071804 224.849099 
L 598.458053 222.828361 
L 599.230549 225.142489 
L 600.389294 224.985099 
L 600.775542 225.181056 
L 601.16179 224.513362 
L 601.548039 224.409304 
L 601.934287 225.330969 
L 603.093032 221.332435 
L 603.865528 225.409821 
L 604.251777 216.254699 
L 604.638025 211.308877 
L 605.79677 213.108094 
L 606.183018 218.986856 
L 606.569266 217.56847 
L 606.955515 223.027497 
L 607.341763 222.544086 
L 608.500508 225.767114 
L 608.886756 222.947087 
L 609.273004 222.235728 
L 609.659252 221.023868 
L 610.045501 223.272027 
L 611.204246 224.728668 
L 611.590494 217.954815 
L 611.976742 218.524739 
L 612.36299 224.384325 
L 612.749239 222.418681 
L 613.907983 218.910256 
L 614.294232 224.828873 
L 614.68048 221.172683 
L 615.066728 223.848619 
L 616.611721 220.474611 
L 616.99797 223.99709 
L 617.384218 221.08674 
L 618.156714 223.951413 
L 619.315459 225.363236 
L 619.701707 216.098498 
L 620.087956 222.447414 
L 620.474204 224.762217 
L 620.860452 222.80875 
L 622.019197 224.409108 
L 622.405445 221.449989 
L 622.791694 199.397821 
L 623.177942 221.280906 
L 623.56419 221.142931 
L 624.722935 220.532385 
L 625.109183 225.261202 
L 625.495431 225.832052 
L 625.88168 222.711593 
L 626.267928 217.594277 
L 627.426673 222.92066 
L 627.812921 219.924802 
L 628.199169 221.508082 
L 628.585418 224.175546 
L 628.971666 225.306106 
L 630.516659 225.347888 
L 630.902907 222.802996 
L 631.289156 225.751176 
L 631.675404 225.369726 
L 633.220397 225.327049 
L 633.606645 225.598939 
L 634.379142 221.030438 
L 635.537886 225.670178 
L 635.924135 225.621489 
L 636.310383 225.797626 
L 636.696631 225.641775 
L 637.08288 225.189098 
L 638.627873 224.617923 
L 639.014121 225.767678 
L 639.400369 221.480054 
L 639.786617 224.217205 
L 640.945362 224.909204 
L 641.331611 223.867838 
L 641.717859 225.544968 
L 642.104107 225.965967 
L 642.490355 224.774522 
L 644.035348 225.868767 
L 644.421597 224.144254 
L 644.807845 222.937934 
L 645.194093 224.02486 
L 646.352838 224.48626 
L 646.739086 221.326289 
L 647.125335 223.566221 
L 647.511583 224.119527 
L 647.897831 225.670901 
L 649.056576 225.398349 
L 649.442824 224.878623 
L 649.829072 215.383606 
L 650.215321 222.405792 
L 650.601569 221.564022 
L 652.146562 219.585637 
L 652.53281 213.698936 
L 652.919059 222.71474 
L 653.305307 225.018586 
L 654.464052 223.939482 
L 654.8503 224.584938 
L 655.236548 218.577697 
L 655.622796 225.489899 
L 656.009045 224.164394 
L 657.16779 223.957854 
L 657.554038 210.615246 
L 657.940286 212.615053 
L 658.326534 187.4673 
L 658.712783 217.76182 
L 659.871527 220.993098 
L 660.257776 213.099304 
L 660.644024 217.742699 
L 661.030272 220.113024 
L 661.416521 219.753842 
L 662.575265 212.615133 
L 662.961514 219.328917 
L 663.347762 223.925415 
L 663.73401 224.412255 
L 664.120258 224.556604 
L 665.279003 224.298713 
L 665.665251 225.272091 
L 666.0515 225.602018 
L 666.437748 220.01834 
L 668.368989 225.882563 
L 668.755238 224.731422 
L 669.141486 225.355783 
L 669.527734 220.665042 
L 670.686479 222.74232 
L 671.072727 221.732326 
L 671.458976 222.894999 
L 671.845224 224.681525 
L 672.231472 225.883827 
L 673.390217 218.182923 
L 673.776465 222.15998 
L 674.162713 218.496398 
L 674.548962 218.887154 
L 674.93521 224.375062 
L 676.093955 224.702695 
L 676.866451 225.920517 
L 677.2527 225.94265 
L 677.638948 222.938511 
L 678.797693 225.869252 
L 679.183941 218.244114 
L 679.570189 221.474588 
L 679.956437 223.028822 
L 680.342686 223.019473 
L 681.501431 224.972425 
L 681.887679 225.912824 
L 682.273927 225.29404 
L 682.660175 225.8985 
L 683.046424 224.736458 
L 684.205168 224.259048 
L 684.591417 223.767908 
L 684.977665 225.626826 
L 685.363913 220.413825 
L 685.750162 224.656717 
L 686.908906 225.170444 
L 687.295155 225.689329 
L 687.681403 223.932728 
L 688.067651 225.812238 
L 688.453899 224.004727 
L 689.998892 225.149016 
L 690.385141 225.64921 
L 690.771389 221.140042 
L 691.157637 225.802724 
L 692.70263 226.006202 
L 693.088879 225.296242 
L 693.475127 225.87 
L 693.861375 225.349329 
L 695.02012 225.366217 
L 695.406368 225.823814 
L 695.792617 224.933839 
L 696.178865 226.007871 
L 696.565113 225.10913 
L 697.723858 223.181201 
L 698.110106 223.310765 
L 698.882603 224.705566 
L 699.268851 218.593021 
L 700.427596 222.728199 
L 700.813844 225.377106 
L 701.200092 223.912159 
L 701.586341 223.357062 
L 703.131334 200.001827 
L 703.517582 220.152015 
L 703.90383 225.321381 
L 704.676327 217.635592 
L 705.835072 224.823941 
L 706.22132 225.811386 
L 706.607568 216.158922 
L 706.993816 221.205858 
L 707.380065 218.789825 
L 708.538809 225.890385 
L 708.925058 225.582621 
L 709.311306 225.787014 
L 709.697554 223.384317 
L 710.083802 225.223948 
L 711.242547 225.776788 
L 711.628796 223.469144 
L 712.401292 225.885974 
L 712.78754 225.902426 
L 713.946285 225.460908 
L 714.332533 226.017208 
L 714.718782 225.418219 
L 715.10503 225.969144 
L 715.491278 225.85594 
L 716.650023 220.090597 
L 717.036271 219.480873 
L 717.42252 216.13985 
L 717.808768 224.373117 
L 718.195016 224.452883 
L 719.353761 225.832979 
L 719.740009 218.499919 
L 720.126257 225.36815 
L 720.512506 217.165623 
L 720.898754 205.172083 
L 722.057499 223.750683 
L 722.443747 221.42966 
L 722.829995 225.840027 
L 723.216244 223.790814 
L 723.602492 225.075968 
L 724.761237 220.870723 
L 725.147485 225.673226 
L 725.533733 222.644133 
L 725.919982 225.747477 
L 726.30623 225.119307 
L 727.851223 225.403502 
L 728.237471 220.173142 
L 728.623719 224.669894 
L 729.009968 223.448587 
L 730.168713 217.661633 
L 730.554961 219.825014 
L 730.941209 225.728099 
L 731.327457 208.144673 
L 731.713706 225.371812 
L 732.87245 222.980943 
L 733.258699 219.81315 
L 733.644947 223.339272 
L 734.031195 223.22124 
L 734.417443 221.026052 
L 735.962437 223.551069 
L 736.348685 222.351018 
L 736.734933 223.208738 
L 737.121181 226.184192 
L 738.279926 224.888371 
L 738.666174 225.836132 
L 739.052423 224.494376 
L 739.438671 225.516382 
L 739.824919 224.466777 
L 740.983664 223.841263 
L 741.369912 224.513957 
L 741.756161 220.47482 
L 742.142409 221.918327 
L 742.528657 225.071054 
L 743.687402 225.57261 
L 744.07365 225.907628 
L 744.459898 224.45987 
L 744.846147 223.857783 
L 745.232395 222.684528 
L 746.39114 224.857509 
L 746.777388 223.303232 
L 747.163636 225.831126 
L 747.163636 225.831126 
" clip-path="url(#pc24a75176c)" style="fill: none; stroke: #1f77b4; stroke-width: 1.5; stroke-linecap: square"/>
   </g>
   <g id="patch_3">
    <path d="M 108 384.48 
L 108 51.84 
" style="fill: none; stroke: #000000; stroke-width: 0.8; stroke-linejoin: miter; stroke-linecap: square"/>
   </g>
   <g id="patch_4">
    <path d="M 777.6 384.48 
L 777.6 51.84 
" style="fill: none; stroke: #000000; stroke-width: 0.8; stroke-linejoin: miter; stroke-linecap: square"/>
   </g>
   <g id="patch_5">
    <path d="M 108 384.48 
L 777.6 384.48 
" style="fill: none; stroke: #000000; stroke-width: 0.8; stroke-linejoin: miter; stroke-linecap: square"/>
   </g>
   <g id="patch_6">
    <path d="M 108 51.84 
L 777.6 51.84 
" style="fill: none; stroke: #000000; stroke-width: 0.8; stroke-linejoin: miter; stroke-linecap: square"/>
   </g>
   <g id="text_19">
    <!-- Volatility Prediction with LSTM -->
    <g transform="translate(352.6425 45.84) scale(0.12 -0.12)">
     <defs>
      <path id="DejaVuSans-20" transform="scale(0.015625)"/>
      <path id="DejaVuSans-50" d="M 1259 4147 
L 1259 2394 
L 2053 2394 
Q 2494 2394 2734 2622 
Q 2975 2850 2975 3272 
Q 2975 3691 2734 3919 
Q 2494 4147 2053 4147 
L 1259 4147 
z
M 628 4666 
L 2053 4666 
Q 2838 4666 3239 4311 
Q 3641 3956 3641 3272 
Q 3641 2581 3239 2228 
Q 2838 1875 2053 1875 
L 1259 1875 
L 1259 0 
L 628 0 
L 628 4666 
z
" transform="scale(0.015625)"/>
      <path id="DejaVuSans-72" d="M 2631 2963 
Q 2534 3019 2420 3045 
Q 2306 3072 2169 3072 
Q 1681 3072 1420 2755 
Q 1159 2438 1159 1844 
L 1159 0 
L 581 0 
L 581 3500 
L 1159 3500 
L 1159 2956 
Q 1341 3275 1631 3429 
Q 1922 3584 2338 3584 
Q 2397 3584 2469 3576 
Q 2541 3569 2628 3553 
L 2631 2963 
z
" transform="scale(0.015625)"/>
      <path id="DejaVuSans-64" d="M 2906 2969 
L 2906 4863 
L 3481 4863 
L 3481 0 
L 2906 0 
L 2906 525 
Q 2725 213 2448 61 
Q 2172 -91 1784 -91 
Q 1150 -91 751 415 
Q 353 922 353 1747 
Q 353 2572 751 3078 
Q 1150 3584 1784 3584 
Q 2172 3584 2448 3432 
Q 2725 3281 2906 2969 
z
M 947 1747 
Q 947 1113 1208 752 
Q 1469 391 1925 391 
Q 2381 391 2643 752 
Q 2906 1113 2906 1747 
Q 2906 2381 2643 2742 
Q 2381 3103 1925 3103 
Q 1469 3103 1208 2742 
Q 947 2381 947 1747 
z
" transform="scale(0.015625)"/>
      <path id="DejaVuSans-63" d="M 3122 3366 
L 3122 2828 
Q 2878 2963 2633 3030 
Q 2388 3097 2138 3097 
Q 1578 3097 1268 2742 
Q 959 2388 959 1747 
Q 959 1106 1268 751 
Q 1578 397 2138 397 
Q 2388 397 2633 464 
Q 2878 531 3122 666 
L 3122 134 
Q 2881 22 2623 -34 
Q 2366 -91 2075 -91 
Q 1284 -91 818 406 
Q 353 903 353 1747 
Q 353 2603 823 3093 
Q 1294 3584 2113 3584 
Q 2378 3584 2631 3529 
Q 2884 3475 3122 3366 
z
" transform="scale(0.015625)"/>
      <path id="DejaVuSans-6e" d="M 3513 2113 
L 3513 0 
L 2938 0 
L 2938 2094 
Q 2938 2591 2744 2837 
Q 2550 3084 2163 3084 
Q 1697 3084 1428 2787 
Q 1159 2491 1159 1978 
L 1159 0 
L 581 0 
L 581 3500 
L 1159 3500 
L 1159 2956 
Q 1366 3272 1645 3428 
Q 1925 3584 2291 3584 
Q 2894 3584 3203 3211 
Q 3513 2838 3513 2113 
z
" transform="scale(0.015625)"/>
      <path id="DejaVuSans-77" d="M 269 3500 
L 844 3500 
L 1563 769 
L 2278 3500 
L 2956 3500 
L 3675 769 
L 4391 3500 
L 4966 3500 
L 4050 0 
L 3372 0 
L 2619 2869 
L 1863 0 
L 1184 0 
L 269 3500 
z
" transform="scale(0.015625)"/>
      <path id="DejaVuSans-68" d="M 3513 2113 
L 3513 0 
L 2938 0 
L 2938 2094 
Q 2938 2591 2744 2837 
Q 2550 3084 2163 3084 
Q 1697 3084 1428 2787 
Q 1159 2491 1159 1978 
L 1159 0 
L 581 0 
L 581 4863 
L 1159 4863 
L 1159 2956 
Q 1366 3272 1645 3428 
Q 1925 3584 2291 3584 
Q 2894 3584 3203 3211 
Q 3513 2838 3513 2113 
z
" transform="scale(0.015625)"/>
      <path id="DejaVuSans-4c" d="M 628 4666 
L 1259 4666 
L 1259 531 
L 3531 531 
L 3531 0 
L 628 0 
L 628 4666 
z
" transform="scale(0.015625)"/>
      <path id="DejaVuSans-53" d="M 3425 4513 
L 3425 3897 
Q 3066 4069 2747 4153 
Q 2428 4238 2131 4238 
Q 1616 4238 1336 4038 
Q 1056 3838 1056 3469 
Q 1056 3159 1242 3001 
Q 1428 2844 1947 2747 
L 2328 2669 
Q 3034 2534 3370 2195 
Q 3706 1856 3706 1288 
Q 3706 609 3251 259 
Q 2797 -91 1919 -91 
Q 1588 -91 1214 -16 
Q 841 59 441 206 
L 441 856 
Q 825 641 1194 531 
Q 1563 422 1919 422 
Q 2459 422 2753 634 
Q 3047 847 3047 1241 
Q 3047 1584 2836 1778 
Q 2625 1972 2144 2069 
L 1759 2144 
Q 1053 2284 737 2584 
Q 422 2884 422 3419 
Q 422 4038 858 4394 
Q 1294 4750 2059 4750 
Q 2388 4750 2728 4690 
Q 3069 4631 3425 4513 
z
" transform="scale(0.015625)"/>
      <path id="DejaVuSans-54" d="M -19 4666 
L 3928 4666 
L 3928 4134 
L 2272 4134 
L 2272 0 
L 1638 0 
L 1638 4134 
L -19 4134 
L -19 4666 
z
" transform="scale(0.015625)"/>
      <path id="DejaVuSans-4d" d="M 628 4666 
L 1569 4666 
L 2759 1491 
L 3956 4666 
L 4897 4666 
L 4897 0 
L 4281 0 
L 4281 4097 
L 3078 897 
L 2444 897 
L 1241 4097 
L 1241 0 
L 628 0 
L 628 4666 
z
" transform="scale(0.015625)"/>
     </defs>
     <use xlink:href="#DejaVuSans-56"/>
     <use xlink:href="#DejaVuSans-6f" x="60.658203"/>
     <use xlink:href="#DejaVuSans-6c" x="121.839844"/>
     <use xlink:href="#DejaVuSans-61" x="149.623047"/>
     <use xlink:href="#DejaVuSans-74" x="210.902344"/>
     <use xlink:href="#DejaVuSans-69" x="250.111328"/>
     <use xlink:href="#DejaVuSans-6c" x="277.894531"/>
     <use xlink:href="#DejaVuSans-69" x="305.677734"/>
     <use xlink:href="#DejaVuSans-74" x="333.460938"/>
     <use xlink:href="#DejaVuSans-79" x="372.669922"/>
     <use xlink:href="#DejaVuSans-20" x="431.849609"/>
     <use xlink:href="#DejaVuSans-50" x="463.636719"/>
     <use xlink:href="#DejaVuSans-72" x="522.189453"/>
     <use xlink:href="#DejaVuSans-65" x="561.052734"/>
     <use xlink:href="#DejaVuSans-64" x="622.576172"/>
     <use xlink:href="#DejaVuSans-69" x="686.052734"/>
     <use xlink:href="#DejaVuSans-63" x="713.835938"/>
     <use xlink:href="#DejaVuSans-74" x="768.816406"/>
     <use xlink:href="#DejaVuSans-69" x="808.025391"/>
     <use xlink:href="#DejaVuSans-6f" x="835.808594"/>
     <use xlink:href="#DejaVuSans-6e" x="896.990234"/>
     <use xlink:href="#DejaVuSans-20" x="960.369141"/>
     <use xlink:href="#DejaVuSans-77" x="992.15625"/>
     <use xlink:href="#DejaVuSans-69" x="1073.943359"/>
     <use xlink:href="#DejaVuSans-74" x="1101.726562"/>
     <use xlink:href="#DejaVuSans-68" x="1140.935547"/>
     <use xlink:href="#DejaVuSans-20" x="1204.314453"/>
     <use xlink:href="#DejaVuSans-4c" x="1236.101562"/>
     <use xlink:href="#DejaVuSans-53" x="1291.814453"/>
     <use xlink:href="#DejaVuSans-54" x="1355.291016"/>
     <use xlink:href="#DejaVuSans-4d" x="1416.375"/>
    </g>
   </g>
   <g id="legend_1">
    <g id="patch_7">
     <path d="M 612.729687 89.19625 
L 770.6 89.19625 
Q 772.6 89.19625 772.6 87.19625 
L 772.6 58.84 
Q 772.6 56.84 770.6 56.84 
L 612.729687 56.84 
Q 610.729687 56.84 610.729687 58.84 
L 610.729687 87.19625 
Q 610.729687 89.19625 612.729687 89.19625 
z
" style="fill: #ffffff; opacity: 0.8; stroke: #cccccc; stroke-linejoin: miter"/>
    </g>
    <g id="line2d_19">
     <path d="M 614.729687 64.938437 
L 624.729687 64.938437 
L 634.729687 64.938437 
" style="fill: none; stroke: #000000; stroke-width: 1.5; stroke-linecap: square"/>
    </g>
    <g id="text_20">
     <!-- Absolute Returns -->
     <g transform="translate(642.729687 68.438437) scale(0.1 -0.1)">
      <defs>
       <path id="DejaVuSans-41" d="M 2188 4044 
L 1331 1722 
L 3047 1722 
L 2188 4044 
z
M 1831 4666 
L 2547 4666 
L 4325 0 
L 3669 0 
L 3244 1197 
L 1141 1197 
L 716 0 
L 50 0 
L 1831 4666 
z
" transform="scale(0.015625)"/>
       <path id="DejaVuSans-62" d="M 3116 1747 
Q 3116 2381 2855 2742 
Q 2594 3103 2138 3103 
Q 1681 3103 1420 2742 
Q 1159 2381 1159 1747 
Q 1159 1113 1420 752 
Q 1681 391 2138 391 
Q 2594 391 2855 752 
Q 3116 1113 3116 1747 
z
M 1159 2969 
Q 1341 3281 1617 3432 
Q 1894 3584 2278 3584 
Q 2916 3584 3314 3078 
Q 3713 2572 3713 1747 
Q 3713 922 3314 415 
Q 2916 -91 2278 -91 
Q 1894 -91 1617 61 
Q 1341 213 1159 525 
L 1159 0 
L 581 0 
L 581 4863 
L 1159 4863 
L 1159 2969 
z
" transform="scale(0.015625)"/>
       <path id="DejaVuSans-73" d="M 2834 3397 
L 2834 2853 
Q 2591 2978 2328 3040 
Q 2066 3103 1784 3103 
Q 1356 3103 1142 2972 
Q 928 2841 928 2578 
Q 928 2378 1081 2264 
Q 1234 2150 1697 2047 
L 1894 2003 
Q 2506 1872 2764 1633 
Q 3022 1394 3022 966 
Q 3022 478 2636 193 
Q 2250 -91 1575 -91 
Q 1294 -91 989 -36 
Q 684 19 347 128 
L 347 722 
Q 666 556 975 473 
Q 1284 391 1588 391 
Q 1994 391 2212 530 
Q 2431 669 2431 922 
Q 2431 1156 2273 1281 
Q 2116 1406 1581 1522 
L 1381 1569 
Q 847 1681 609 1914 
Q 372 2147 372 2553 
Q 372 3047 722 3315 
Q 1072 3584 1716 3584 
Q 2034 3584 2315 3537 
Q 2597 3491 2834 3397 
z
" transform="scale(0.015625)"/>
       <path id="DejaVuSans-75" d="M 544 1381 
L 544 3500 
L 1119 3500 
L 1119 1403 
Q 1119 906 1312 657 
Q 1506 409 1894 409 
Q 2359 409 2629 706 
Q 2900 1003 2900 1516 
L 2900 3500 
L 3475 3500 
L 3475 0 
L 2900 0 
L 2900 538 
Q 2691 219 2414 64 
Q 2138 -91 1772 -91 
Q 1169 -91 856 284 
Q 544 659 544 1381 
z
M 1991 3584 
L 1991 3584 
z
" transform="scale(0.015625)"/>
       <path id="DejaVuSans-52" d="M 2841 2188 
Q 3044 2119 3236 1894 
Q 3428 1669 3622 1275 
L 4263 0 
L 3584 0 
L 2988 1197 
Q 2756 1666 2539 1819 
Q 2322 1972 1947 1972 
L 1259 1972 
L 1259 0 
L 628 0 
L 628 4666 
L 2053 4666 
Q 2853 4666 3247 4331 
Q 3641 3997 3641 3322 
Q 3641 2881 3436 2590 
Q 3231 2300 2841 2188 
z
M 1259 4147 
L 1259 2491 
L 2053 2491 
Q 2509 2491 2742 2702 
Q 2975 2913 2975 3322 
Q 2975 3731 2742 3939 
Q 2509 4147 2053 4147 
L 1259 4147 
z
" transform="scale(0.015625)"/>
      </defs>
      <use xlink:href="#DejaVuSans-41"/>
      <use xlink:href="#DejaVuSans-62" x="68.408203"/>
      <use xlink:href="#DejaVuSans-73" x="131.884766"/>
      <use xlink:href="#DejaVuSans-6f" x="183.984375"/>
      <use xlink:href="#DejaVuSans-6c" x="245.166016"/>
      <use xlink:href="#DejaVuSans-75" x="272.949219"/>
      <use xlink:href="#DejaVuSans-74" x="336.328125"/>
      <use xlink:href="#DejaVuSans-65" x="375.537109"/>
      <use xlink:href="#DejaVuSans-20" x="437.060547"/>
      <use xlink:href="#DejaVuSans-52" x="468.847656"/>
      <use xlink:href="#DejaVuSans-65" x="533.830078"/>
      <use xlink:href="#DejaVuSans-74" x="595.353516"/>
      <use xlink:href="#DejaVuSans-75" x="634.5625"/>
      <use xlink:href="#DejaVuSans-72" x="697.941406"/>
      <use xlink:href="#DejaVuSans-6e" x="737.304688"/>
      <use xlink:href="#DejaVuSans-73" x="800.683594"/>
     </g>
    </g>
    <g id="line2d_20">
     <path d="M 614.729687 79.616562 
L 624.729687 79.616562 
L 634.729687 79.616562 
" style="fill: none; stroke: #1f77b4; stroke-width: 1.5; stroke-linecap: square"/>
    </g>
    <g id="text_21">
     <!-- LSTM Volatility Prediction -->
     <g transform="translate(642.729687 83.116562) scale(0.1 -0.1)">
      <use xlink:href="#DejaVuSans-4c"/>
      <use xlink:href="#DejaVuSans-53" x="55.712891"/>
      <use xlink:href="#DejaVuSans-54" x="119.189453"/>
      <use xlink:href="#DejaVuSans-4d" x="180.273438"/>
      <use xlink:href="#DejaVuSans-20" x="266.552734"/>
      <use xlink:href="#DejaVuSans-56" x="298.339844"/>
      <use xlink:href="#DejaVuSans-6f" x="358.998047"/>
      <use xlink:href="#DejaVuSans-6c" x="420.179688"/>
      <use xlink:href="#DejaVuSans-61" x="447.962891"/>
      <use xlink:href="#DejaVuSans-74" x="509.242188"/>
      <use xlink:href="#DejaVuSans-69" x="548.451172"/>
      <use xlink:href="#DejaVuSans-6c" x="576.234375"/>
      <use xlink:href="#DejaVuSans-69" x="604.017578"/>
      <use xlink:href="#DejaVuSans-74" x="631.800781"/>
      <use xlink:href="#DejaVuSans-79" x="671.009766"/>
      <use xlink:href="#DejaVuSans-20" x="730.189453"/>
      <use xlink:href="#DejaVuSans-50" x="761.976562"/>
      <use xlink:href="#DejaVuSans-72" x="820.529297"/>
      <use xlink:href="#DejaVuSans-65" x="859.392578"/>
      <use xlink:href="#DejaVuSans-64" x="920.916016"/>
      <use xlink:href="#DejaVuSans-69" x="984.392578"/>
      <use xlink:href="#DejaVuSans-63" x="1012.175781"/>
      <use xlink:href="#DejaVuSans-74" x="1067.15625"/>
      <use xlink:href="#DejaVuSans-69" x="1106.365234"/>
      <use xlink:href="#DejaVuSans-6f" x="1134.148438"/>
      <use xlink:href="#DejaVuSans-6e" x="1195.330078"/>
     </g>
    </g>
   </g>
  </g>
 </g>
 <defs>
  <clipPath id="pc24a75176c">
   <rect x="108" y="51.84" width="669.6" height="332.64"/>
  </clipPath>
 </defs>
</svg>
