<?xml version="1.0" encoding="utf-8" standalone="no"?>
<!DOCTYPE svg PUBLIC "-//W3C//DTD SVG 1.1//EN"
  "http://www.w3.org/Graphics/SVG/1.1/DTD/svg11.dtd">
<svg xmlns:xlink="http://www.w3.org/1999/xlink" width="864pt" height="432pt" viewBox="0 0 864 432" xmlns="http://www.w3.org/2000/svg" version="1.1">
 <metadata>
  <rdf:RDF xmlns:dc="http://purl.org/dc/elements/1.1/" xmlns:cc="http://creativecommons.org/ns#" xmlns:rdf="http://www.w3.org/1999/02/22-rdf-syntax-ns#">
   <cc:Work>
    <dc:type rdf:resource="http://purl.org/dc/dcmitype/StillImage"/>
    <dc:date>2025-02-10T14:00:42.359496</dc:date>
    <dc:format>image/svg+xml</dc:format>
    <dc:creator>
     <cc:Agent>
      <dc:title>Matplotlib v3.10.0, https://matplotlib.org/</dc:title>
     </cc:Agent>
    </dc:creator>
   </cc:Work>
  </rdf:RDF>
 </metadata>
 <defs>
  <style type="text/css">*{stroke-linejoin: round; stroke-linecap: butt}</style>
 </defs>
 <g id="figure_1">
  <g id="patch_1">
   <path d="M 0 432 
L 864 432 
L 864 0 
L 0 0 
z
" style="fill: #ffffff"/>
  </g>
  <g id="axes_1">
   <g id="patch_2">
    <path d="M 108 384.48 
L 777.6 384.48 
L 777.6 51.84 
L 108 51.84 
z
" style="fill: #ffffff"/>
   </g>
   <g id="matplotlib.axis_1">
    <g id="xtick_1">
     <g id="line2d_1">
      <defs>
       <path id="m1c609159c3" d="M 0 0 
L 0 3.5 
" style="stroke: #000000; stroke-width: 0.8"/>
      </defs>
      <g>
       <use xlink:href="#m1c609159c3" x="138.822612" y="384.48" style="stroke: #000000; stroke-width: 0.8"/>
      </g>
     </g>
     <g id="text_1">
      <!-- 2020-07 -->
      <g transform="translate(117.931206 399.078438) scale(0.1 -0.1)">
       <defs>
        <path id="DejaVuSans-32" d="M 1228 531 
L 3431 531 
L 3431 0 
L 469 0 
L 469 531 
Q 828 903 1448 1529 
Q 2069 2156 2228 2338 
Q 2531 2678 2651 2914 
Q 2772 3150 2772 3378 
Q 2772 3750 2511 3984 
Q 2250 4219 1831 4219 
Q 1534 4219 1204 4116 
Q 875 4013 500 3803 
L 500 4441 
Q 881 4594 1212 4672 
Q 1544 4750 1819 4750 
Q 2544 4750 2975 4387 
Q 3406 4025 3406 3419 
Q 3406 3131 3298 2873 
Q 3191 2616 2906 2266 
Q 2828 2175 2409 1742 
Q 1991 1309 1228 531 
z
" transform="scale(0.015625)"/>
        <path id="DejaVuSans-30" d="M 2034 4250 
Q 1547 4250 1301 3770 
Q 1056 3291 1056 2328 
Q 1056 1369 1301 889 
Q 1547 409 2034 409 
Q 2525 409 2770 889 
Q 3016 1369 3016 2328 
Q 3016 3291 2770 3770 
Q 2525 4250 2034 4250 
z
M 2034 4750 
Q 2819 4750 3233 4129 
Q 3647 3509 3647 2328 
Q 3647 1150 3233 529 
Q 2819 -91 2034 -91 
Q 1250 -91 836 529 
Q 422 1150 422 2328 
Q 422 3509 836 4129 
Q 1250 4750 2034 4750 
z
" transform="scale(0.015625)"/>
        <path id="DejaVuSans-2d" d="M 313 2009 
L 1997 2009 
L 1997 1497 
L 313 1497 
L 313 2009 
z
" transform="scale(0.015625)"/>
        <path id="DejaVuSans-37" d="M 525 4666 
L 3525 4666 
L 3525 4397 
L 1831 0 
L 1172 0 
L 2766 4134 
L 525 4134 
L 525 4666 
z
" transform="scale(0.015625)"/>
       </defs>
       <use xlink:href="#DejaVuSans-32"/>
       <use xlink:href="#DejaVuSans-30" transform="translate(63.623047 0)"/>
       <use xlink:href="#DejaVuSans-32" transform="translate(127.246094 0)"/>
       <use xlink:href="#DejaVuSans-30" transform="translate(190.869141 0)"/>
       <use xlink:href="#DejaVuSans-2d" transform="translate(254.492188 0)"/>
       <use xlink:href="#DejaVuSans-30" transform="translate(290.576172 0)"/>
       <use xlink:href="#DejaVuSans-37" transform="translate(354.199219 0)"/>
      </g>
     </g>
    </g>
    <g id="xtick_2">
     <g id="line2d_2">
      <g>
       <use xlink:href="#m1c609159c3" x="209.892293" y="384.48" style="stroke: #000000; stroke-width: 0.8"/>
      </g>
     </g>
     <g id="text_2">
      <!-- 2021-01 -->
      <g transform="translate(189.000887 399.078438) scale(0.1 -0.1)">
       <defs>
        <path id="DejaVuSans-31" d="M 794 531 
L 1825 531 
L 1825 4091 
L 703 3866 
L 703 4441 
L 1819 4666 
L 2450 4666 
L 2450 531 
L 3481 531 
L 3481 0 
L 794 0 
L 794 531 
z
" transform="scale(0.015625)"/>
       </defs>
       <use xlink:href="#DejaVuSans-32"/>
       <use xlink:href="#DejaVuSans-30" transform="translate(63.623047 0)"/>
       <use xlink:href="#DejaVuSans-32" transform="translate(127.246094 0)"/>
       <use xlink:href="#DejaVuSans-31" transform="translate(190.869141 0)"/>
       <use xlink:href="#DejaVuSans-2d" transform="translate(254.492188 0)"/>
       <use xlink:href="#DejaVuSans-30" transform="translate(290.576172 0)"/>
       <use xlink:href="#DejaVuSans-31" transform="translate(354.199219 0)"/>
      </g>
     </g>
    </g>
    <g id="xtick_3">
     <g id="line2d_3">
      <g>
       <use xlink:href="#m1c609159c3" x="279.80323" y="384.48" style="stroke: #000000; stroke-width: 0.8"/>
      </g>
     </g>
     <g id="text_3">
      <!-- 2021-07 -->
      <g transform="translate(258.911824 399.078438) scale(0.1 -0.1)">
       <use xlink:href="#DejaVuSans-32"/>
       <use xlink:href="#DejaVuSans-30" transform="translate(63.623047 0)"/>
       <use xlink:href="#DejaVuSans-32" transform="translate(127.246094 0)"/>
       <use xlink:href="#DejaVuSans-31" transform="translate(190.869141 0)"/>
       <use xlink:href="#DejaVuSans-2d" transform="translate(254.492188 0)"/>
       <use xlink:href="#DejaVuSans-30" transform="translate(290.576172 0)"/>
       <use xlink:href="#DejaVuSans-37" transform="translate(354.199219 0)"/>
      </g>
     </g>
    </g>
    <g id="xtick_4">
     <g id="line2d_4">
      <g>
       <use xlink:href="#m1c609159c3" x="350.872912" y="384.48" style="stroke: #000000; stroke-width: 0.8"/>
      </g>
     </g>
     <g id="text_4">
      <!-- 2022-01 -->
      <g transform="translate(329.981506 399.078438) scale(0.1 -0.1)">
       <use xlink:href="#DejaVuSans-32"/>
       <use xlink:href="#DejaVuSans-30" transform="translate(63.623047 0)"/>
       <use xlink:href="#DejaVuSans-32" transform="translate(127.246094 0)"/>
       <use xlink:href="#DejaVuSans-32" transform="translate(190.869141 0)"/>
       <use xlink:href="#DejaVuSans-2d" transform="translate(254.492188 0)"/>
       <use xlink:href="#DejaVuSans-30" transform="translate(290.576172 0)"/>
       <use xlink:href="#DejaVuSans-31" transform="translate(354.199219 0)"/>
      </g>
     </g>
    </g>
    <g id="xtick_5">
     <g id="line2d_5">
      <g>
       <use xlink:href="#m1c609159c3" x="420.783849" y="384.48" style="stroke: #000000; stroke-width: 0.8"/>
      </g>
     </g>
     <g id="text_5">
      <!-- 2022-07 -->
      <g transform="translate(399.892442 399.078438) scale(0.1 -0.1)">
       <use xlink:href="#DejaVuSans-32"/>
       <use xlink:href="#DejaVuSans-30" transform="translate(63.623047 0)"/>
       <use xlink:href="#DejaVuSans-32" transform="translate(127.246094 0)"/>
       <use xlink:href="#DejaVuSans-32" transform="translate(190.869141 0)"/>
       <use xlink:href="#DejaVuSans-2d" transform="translate(254.492188 0)"/>
       <use xlink:href="#DejaVuSans-30" transform="translate(290.576172 0)"/>
       <use xlink:href="#DejaVuSans-37" transform="translate(354.199219 0)"/>
      </g>
     </g>
    </g>
    <g id="xtick_6">
     <g id="line2d_6">
      <g>
       <use xlink:href="#m1c609159c3" x="491.85353" y="384.48" style="stroke: #000000; stroke-width: 0.8"/>
      </g>
     </g>
     <g id="text_6">
      <!-- 2023-01 -->
      <g transform="translate(470.962124 399.078438) scale(0.1 -0.1)">
       <defs>
        <path id="DejaVuSans-33" d="M 2597 2516 
Q 3050 2419 3304 2112 
Q 3559 1806 3559 1356 
Q 3559 666 3084 287 
Q 2609 -91 1734 -91 
Q 1441 -91 1130 -33 
Q 819 25 488 141 
L 488 750 
Q 750 597 1062 519 
Q 1375 441 1716 441 
Q 2309 441 2620 675 
Q 2931 909 2931 1356 
Q 2931 1769 2642 2001 
Q 2353 2234 1838 2234 
L 1294 2234 
L 1294 2753 
L 1863 2753 
Q 2328 2753 2575 2939 
Q 2822 3125 2822 3475 
Q 2822 3834 2567 4026 
Q 2313 4219 1838 4219 
Q 1578 4219 1281 4162 
Q 984 4106 628 3988 
L 628 4550 
Q 988 4650 1302 4700 
Q 1616 4750 1894 4750 
Q 2613 4750 3031 4423 
Q 3450 4097 3450 3541 
Q 3450 3153 3228 2886 
Q 3006 2619 2597 2516 
z
" transform="scale(0.015625)"/>
       </defs>
       <use xlink:href="#DejaVuSans-32"/>
       <use xlink:href="#DejaVuSans-30" transform="translate(63.623047 0)"/>
       <use xlink:href="#DejaVuSans-32" transform="translate(127.246094 0)"/>
       <use xlink:href="#DejaVuSans-33" transform="translate(190.869141 0)"/>
       <use xlink:href="#DejaVuSans-2d" transform="translate(254.492188 0)"/>
       <use xlink:href="#DejaVuSans-30" transform="translate(290.576172 0)"/>
       <use xlink:href="#DejaVuSans-31" transform="translate(354.199219 0)"/>
      </g>
     </g>
    </g>
    <g id="xtick_7">
     <g id="line2d_7">
      <g>
       <use xlink:href="#m1c609159c3" x="561.764467" y="384.48" style="stroke: #000000; stroke-width: 0.8"/>
      </g>
     </g>
     <g id="text_7">
      <!-- 2023-07 -->
      <g transform="translate(540.873061 399.078438) scale(0.1 -0.1)">
       <use xlink:href="#DejaVuSans-32"/>
       <use xlink:href="#DejaVuSans-30" transform="translate(63.623047 0)"/>
       <use xlink:href="#DejaVuSans-32" transform="translate(127.246094 0)"/>
       <use xlink:href="#DejaVuSans-33" transform="translate(190.869141 0)"/>
       <use xlink:href="#DejaVuSans-2d" transform="translate(254.492188 0)"/>
       <use xlink:href="#DejaVuSans-30" transform="translate(290.576172 0)"/>
       <use xlink:href="#DejaVuSans-37" transform="translate(354.199219 0)"/>
      </g>
     </g>
    </g>
    <g id="xtick_8">
     <g id="line2d_8">
      <g>
       <use xlink:href="#m1c609159c3" x="632.834149" y="384.48" style="stroke: #000000; stroke-width: 0.8"/>
      </g>
     </g>
     <g id="text_8">
      <!-- 2024-01 -->
      <g transform="translate(611.942742 399.078438) scale(0.1 -0.1)">
       <defs>
        <path id="DejaVuSans-34" d="M 2419 4116 
L 825 1625 
L 2419 1625 
L 2419 4116 
z
M 2253 4666 
L 3047 4666 
L 3047 1625 
L 3713 1625 
L 3713 1100 
L 3047 1100 
L 3047 0 
L 2419 0 
L 2419 1100 
L 313 1100 
L 313 1709 
L 2253 4666 
z
" transform="scale(0.015625)"/>
       </defs>
       <use xlink:href="#DejaVuSans-32"/>
       <use xlink:href="#DejaVuSans-30" transform="translate(63.623047 0)"/>
       <use xlink:href="#DejaVuSans-32" transform="translate(127.246094 0)"/>
       <use xlink:href="#DejaVuSans-34" transform="translate(190.869141 0)"/>
       <use xlink:href="#DejaVuSans-2d" transform="translate(254.492188 0)"/>
       <use xlink:href="#DejaVuSans-30" transform="translate(290.576172 0)"/>
       <use xlink:href="#DejaVuSans-31" transform="translate(354.199219 0)"/>
      </g>
     </g>
    </g>
    <g id="xtick_9">
     <g id="line2d_9">
      <g>
       <use xlink:href="#m1c609159c3" x="703.131334" y="384.48" style="stroke: #000000; stroke-width: 0.8"/>
      </g>
     </g>
     <g id="text_9">
      <!-- 2024-07 -->
      <g transform="translate(682.239927 399.078438) scale(0.1 -0.1)">
       <use xlink:href="#DejaVuSans-32"/>
       <use xlink:href="#DejaVuSans-30" transform="translate(63.623047 0)"/>
       <use xlink:href="#DejaVuSans-32" transform="translate(127.246094 0)"/>
       <use xlink:href="#DejaVuSans-34" transform="translate(190.869141 0)"/>
       <use xlink:href="#DejaVuSans-2d" transform="translate(254.492188 0)"/>
       <use xlink:href="#DejaVuSans-30" transform="translate(290.576172 0)"/>
       <use xlink:href="#DejaVuSans-37" transform="translate(354.199219 0)"/>
      </g>
     </g>
    </g>
    <g id="xtick_10">
     <g id="line2d_10">
      <g>
       <use xlink:href="#m1c609159c3" x="774.201015" y="384.48" style="stroke: #000000; stroke-width: 0.8"/>
      </g>
     </g>
     <g id="text_10">
      <!-- 2025-01 -->
      <g transform="translate(753.309609 399.078438) scale(0.1 -0.1)">
       <defs>
        <path id="DejaVuSans-35" d="M 691 4666 
L 3169 4666 
L 3169 4134 
L 1269 4134 
L 1269 2991 
Q 1406 3038 1543 3061 
Q 1681 3084 1819 3084 
Q 2600 3084 3056 2656 
Q 3513 2228 3513 1497 
Q 3513 744 3044 326 
Q 2575 -91 1722 -91 
Q 1428 -91 1123 -41 
Q 819 9 494 109 
L 494 744 
Q 775 591 1075 516 
Q 1375 441 1709 441 
Q 2250 441 2565 725 
Q 2881 1009 2881 1497 
Q 2881 1984 2565 2268 
Q 2250 2553 1709 2553 
Q 1456 2553 1204 2497 
Q 953 2441 691 2322 
L 691 4666 
z
" transform="scale(0.015625)"/>
       </defs>
       <use xlink:href="#DejaVuSans-32"/>
       <use xlink:href="#DejaVuSans-30" transform="translate(63.623047 0)"/>
       <use xlink:href="#DejaVuSans-32" transform="translate(127.246094 0)"/>
       <use xlink:href="#DejaVuSans-35" transform="translate(190.869141 0)"/>
       <use xlink:href="#DejaVuSans-2d" transform="translate(254.492188 0)"/>
       <use xlink:href="#DejaVuSans-30" transform="translate(290.576172 0)"/>
       <use xlink:href="#DejaVuSans-31" transform="translate(354.199219 0)"/>
      </g>
     </g>
    </g>
    <g id="text_11">
     <!-- Date -->
     <g transform="translate(430.849219 412.756563) scale(0.1 -0.1)">
      <defs>
       <path id="DejaVuSans-44" d="M 1259 4147 
L 1259 519 
L 2022 519 
Q 2988 519 3436 956 
Q 3884 1394 3884 2338 
Q 3884 3275 3436 3711 
Q 2988 4147 2022 4147 
L 1259 4147 
z
M 628 4666 
L 1925 4666 
Q 3281 4666 3915 4102 
Q 4550 3538 4550 2338 
Q 4550 1131 3912 565 
Q 3275 0 1925 0 
L 628 0 
L 628 4666 
z
" transform="scale(0.015625)"/>
       <path id="DejaVuSans-61" d="M 2194 1759 
Q 1497 1759 1228 1600 
Q 959 1441 959 1056 
Q 959 750 1161 570 
Q 1363 391 1709 391 
Q 2188 391 2477 730 
Q 2766 1069 2766 1631 
L 2766 1759 
L 2194 1759 
z
M 3341 1997 
L 3341 0 
L 2766 0 
L 2766 531 
Q 2569 213 2275 61 
Q 1981 -91 1556 -91 
Q 1019 -91 701 211 
Q 384 513 384 1019 
Q 384 1609 779 1909 
Q 1175 2209 1959 2209 
L 2766 2209 
L 2766 2266 
Q 2766 2663 2505 2880 
Q 2244 3097 1772 3097 
Q 1472 3097 1187 3025 
Q 903 2953 641 2809 
L 641 3341 
Q 956 3463 1253 3523 
Q 1550 3584 1831 3584 
Q 2591 3584 2966 3190 
Q 3341 2797 3341 1997 
z
" transform="scale(0.015625)"/>
       <path id="DejaVuSans-74" d="M 1172 4494 
L 1172 3500 
L 2356 3500 
L 2356 3053 
L 1172 3053 
L 1172 1153 
Q 1172 725 1289 603 
Q 1406 481 1766 481 
L 2356 481 
L 2356 0 
L 1766 0 
Q 1100 0 847 248 
Q 594 497 594 1153 
L 594 3053 
L 172 3053 
L 172 3500 
L 594 3500 
L 594 4494 
L 1172 4494 
z
" transform="scale(0.015625)"/>
       <path id="DejaVuSans-65" d="M 3597 1894 
L 3597 1613 
L 953 1613 
Q 991 1019 1311 708 
Q 1631 397 2203 397 
Q 2534 397 2845 478 
Q 3156 559 3463 722 
L 3463 178 
Q 3153 47 2828 -22 
Q 2503 -91 2169 -91 
Q 1331 -91 842 396 
Q 353 884 353 1716 
Q 353 2575 817 3079 
Q 1281 3584 2069 3584 
Q 2775 3584 3186 3129 
Q 3597 2675 3597 1894 
z
M 3022 2063 
Q 3016 2534 2758 2815 
Q 2500 3097 2075 3097 
Q 1594 3097 1305 2825 
Q 1016 2553 972 2059 
L 3022 2063 
z
" transform="scale(0.015625)"/>
      </defs>
      <use xlink:href="#DejaVuSans-44"/>
      <use xlink:href="#DejaVuSans-61" transform="translate(77.001953 0)"/>
      <use xlink:href="#DejaVuSans-74" transform="translate(138.28125 0)"/>
      <use xlink:href="#DejaVuSans-65" transform="translate(177.490234 0)"/>
     </g>
    </g>
   </g>
   <g id="matplotlib.axis_2">
    <g id="ytick_1">
     <g id="line2d_11">
      <defs>
       <path id="m1034648af4" d="M 0 0 
L -3.5 0 
" style="stroke: #000000; stroke-width: 0.8"/>
      </defs>
      <g>
       <use xlink:href="#m1034648af4" x="108" y="369.36" style="stroke: #000000; stroke-width: 0.8"/>
      </g>
     </g>
     <g id="text_12">
      <!-- 0.00 -->
      <g transform="translate(78.734375 373.159219) scale(0.1 -0.1)">
       <defs>
        <path id="DejaVuSans-2e" d="M 684 794 
L 1344 794 
L 1344 0 
L 684 0 
L 684 794 
z
" transform="scale(0.015625)"/>
       </defs>
       <use xlink:href="#DejaVuSans-30"/>
       <use xlink:href="#DejaVuSans-2e" transform="translate(63.623047 0)"/>
       <use xlink:href="#DejaVuSans-30" transform="translate(95.410156 0)"/>
       <use xlink:href="#DejaVuSans-30" transform="translate(159.033203 0)"/>
      </g>
     </g>
    </g>
    <g id="ytick_2">
     <g id="line2d_12">
      <g>
       <use xlink:href="#m1034648af4" x="108" y="301.25995" style="stroke: #000000; stroke-width: 0.8"/>
      </g>
     </g>
     <g id="text_13">
      <!-- 0.05 -->
      <g transform="translate(78.734375 305.059168) scale(0.1 -0.1)">
       <use xlink:href="#DejaVuSans-30"/>
       <use xlink:href="#DejaVuSans-2e" transform="translate(63.623047 0)"/>
       <use xlink:href="#DejaVuSans-30" transform="translate(95.410156 0)"/>
       <use xlink:href="#DejaVuSans-35" transform="translate(159.033203 0)"/>
      </g>
     </g>
    </g>
    <g id="ytick_3">
     <g id="line2d_13">
      <g>
       <use xlink:href="#m1034648af4" x="108" y="233.159899" style="stroke: #000000; stroke-width: 0.8"/>
      </g>
     </g>
     <g id="text_14">
      <!-- 0.10 -->
      <g transform="translate(78.734375 236.959118) scale(0.1 -0.1)">
       <use xlink:href="#DejaVuSans-30"/>
       <use xlink:href="#DejaVuSans-2e" transform="translate(63.623047 0)"/>
       <use xlink:href="#DejaVuSans-31" transform="translate(95.410156 0)"/>
       <use xlink:href="#DejaVuSans-30" transform="translate(159.033203 0)"/>
      </g>
     </g>
    </g>
    <g id="ytick_4">
     <g id="line2d_14">
      <g>
       <use xlink:href="#m1034648af4" x="108" y="165.059849" style="stroke: #000000; stroke-width: 0.8"/>
      </g>
     </g>
     <g id="text_15">
      <!-- 0.15 -->
      <g transform="translate(78.734375 168.859068) scale(0.1 -0.1)">
       <use xlink:href="#DejaVuSans-30"/>
       <use xlink:href="#DejaVuSans-2e" transform="translate(63.623047 0)"/>
       <use xlink:href="#DejaVuSans-31" transform="translate(95.410156 0)"/>
       <use xlink:href="#DejaVuSans-35" transform="translate(159.033203 0)"/>
      </g>
     </g>
    </g>
    <g id="ytick_5">
     <g id="line2d_15">
      <g>
       <use xlink:href="#m1034648af4" x="108" y="96.959799" style="stroke: #000000; stroke-width: 0.8"/>
      </g>
     </g>
     <g id="text_16">
      <!-- 0.20 -->
      <g transform="translate(78.734375 100.759018) scale(0.1 -0.1)">
       <use xlink:href="#DejaVuSans-30"/>
       <use xlink:href="#DejaVuSans-2e" transform="translate(63.623047 0)"/>
       <use xlink:href="#DejaVuSans-32" transform="translate(95.410156 0)"/>
       <use xlink:href="#DejaVuSans-30" transform="translate(159.033203 0)"/>
      </g>
     </g>
    </g>
    <g id="text_17">
     <!-- Volatility -->
     <g transform="translate(72.654687 239.752187) rotate(-90) scale(0.1 -0.1)">
      <defs>
       <path id="DejaVuSans-56" d="M 1831 0 
L 50 4666 
L 709 4666 
L 2188 738 
L 3669 4666 
L 4325 4666 
L 2547 0 
L 1831 0 
z
" transform="scale(0.015625)"/>
       <path id="DejaVuSans-6f" d="M 1959 3097 
Q 1497 3097 1228 2736 
Q 959 2375 959 1747 
Q 959 1119 1226 758 
Q 1494 397 1959 397 
Q 2419 397 2687 759 
Q 2956 1122 2956 1747 
Q 2956 2369 2687 2733 
Q 2419 3097 1959 3097 
z
M 1959 3584 
Q 2709 3584 3137 3096 
Q 3566 2609 3566 1747 
Q 3566 888 3137 398 
Q 2709 -91 1959 -91 
Q 1206 -91 779 398 
Q 353 888 353 1747 
Q 353 2609 779 3096 
Q 1206 3584 1959 3584 
z
" transform="scale(0.015625)"/>
       <path id="DejaVuSans-6c" d="M 603 4863 
L 1178 4863 
L 1178 0 
L 603 0 
L 603 4863 
z
" transform="scale(0.015625)"/>
       <path id="DejaVuSans-69" d="M 603 3500 
L 1178 3500 
L 1178 0 
L 603 0 
L 603 3500 
z
M 603 4863 
L 1178 4863 
L 1178 4134 
L 603 4134 
L 603 4863 
z
" transform="scale(0.015625)"/>
       <path id="DejaVuSans-79" d="M 2059 -325 
Q 1816 -950 1584 -1140 
Q 1353 -1331 966 -1331 
L 506 -1331 
L 506 -850 
L 844 -850 
Q 1081 -850 1212 -737 
Q 1344 -625 1503 -206 
L 1606 56 
L 191 3500 
L 800 3500 
L 1894 763 
L 2988 3500 
L 3597 3500 
L 2059 -325 
z
" transform="scale(0.015625)"/>
      </defs>
      <use xlink:href="#DejaVuSans-56"/>
      <use xlink:href="#DejaVuSans-6f" transform="translate(60.658203 0)"/>
      <use xlink:href="#DejaVuSans-6c" transform="translate(121.839844 0)"/>
      <use xlink:href="#DejaVuSans-61" transform="translate(149.623047 0)"/>
      <use xlink:href="#DejaVuSans-74" transform="translate(210.902344 0)"/>
      <use xlink:href="#DejaVuSans-69" transform="translate(250.111328 0)"/>
      <use xlink:href="#DejaVuSans-6c" transform="translate(277.894531 0)"/>
      <use xlink:href="#DejaVuSans-69" transform="translate(305.677734 0)"/>
      <use xlink:href="#DejaVuSans-74" transform="translate(333.460938 0)"/>
      <use xlink:href="#DejaVuSans-79" transform="translate(372.669922 0)"/>
     </g>
    </g>
   </g>
   <g id="line2d_16">
    <path d="M 138.436364 353.747518 
L 138.822612 348.921132 
L 139.20886 325.312666 
L 140.753853 324.006859 
L 141.140102 314.263367 
L 141.52635 368.486589 
L 141.912598 330.367121 
L 142.298846 314.040933 
L 144.230088 330.272125 
L 144.616336 366.998806 
L 145.002584 338.05538 
L 146.161329 347.319189 
L 146.547577 367.171051 
L 146.933826 361.415523 
L 147.320074 365.637445 
L 147.706322 355.504019 
L 148.865067 349.499398 
L 149.251315 335.927065 
L 149.637563 367.246148 
L 150.023812 355.80761 
L 150.41006 360.469822 
L 151.568805 355.065344 
L 152.341301 318.140963 
L 152.72755 286.001101 
L 153.113798 351.50053 
L 154.272543 325.241485 
L 154.658791 290.044895 
L 155.045039 348.128176 
L 155.431287 360.70853 
L 155.817536 357.663835 
L 156.976281 360.189197 
L 157.362529 362.993071 
L 157.748777 368.621543 
L 158.135025 351.526717 
L 158.521274 349.621523 
L 159.680018 335.78038 
L 160.066267 356.116978 
L 160.452515 357.302127 
L 160.838763 357.9001 
L 161.225012 351.689711 
L 162.383756 349.895119 
L 162.770005 277.078826 
L 163.156253 338.114972 
L 163.542501 277.927575 
L 163.928749 347.033978 
L 165.473743 346.449164 
L 165.859991 336.420755 
L 166.632487 348.256742 
L 167.791232 324.080399 
L 168.17748 366.311139 
L 168.563729 361.168165 
L 168.949977 332.946287 
L 169.336225 335.172633 
L 170.49497 329.433112 
L 170.881218 367.786002 
L 171.267467 138.995072 
L 171.653715 321.273626 
L 172.039963 349.720501 
L 173.198708 364.213089 
L 173.584956 337.311371 
L 173.971204 331.932416 
L 174.357453 329.892478 
L 174.743701 329.7399 
L 175.902446 288.378291 
L 176.288694 354.619837 
L 176.674942 327.158344 
L 177.061191 365.702564 
L 177.447439 356.373701 
L 178.606184 353.81209 
L 178.992432 366.493879 
L 179.37868 361.463444 
L 179.764928 365.89988 
L 180.151177 355.868263 
L 181.309922 356.91087 
L 181.69617 354.8713 
L 182.082418 336.140496 
L 182.468666 356.370058 
L 182.854915 347.731387 
L 184.013659 340.829402 
L 184.399908 359.306211 
L 184.786156 304.895327 
L 185.172404 325.223055 
L 185.558653 361.201699 
L 186.717397 317.324626 
L 187.103646 358.433586 
L 187.489894 309.609121 
L 187.876142 203.87898 
L 188.26239 285.256045 
L 189.421135 315.693942 
L 189.807383 355.429963 
L 190.57988 368.556158 
L 190.966128 325.974703 
L 192.124873 299.565261 
L 192.511121 359.073482 
L 192.89737 354.267575 
L 193.283618 361.371725 
L 194.828611 305.186697 
L 195.214859 337.231139 
L 195.601108 344.021124 
L 196.373604 340.057693 
L 197.532349 352.535717 
L 197.918597 368.458215 
L 198.304845 363.030425 
L 198.691094 333.339907 
L 199.077342 293.936528 
L 200.236087 361.750503 
L 200.622335 331.464265 
L 201.008583 356.048947 
L 201.394832 358.616545 
L 201.78108 342.321399 
L 202.939825 328.679531 
L 203.326073 335.671911 
L 203.712321 347.863666 
L 204.098569 352.413301 
L 204.484818 355.364371 
L 205.643563 339.104895 
L 206.029811 329.199582 
L 206.416059 335.880816 
L 206.802307 366.904676 
L 208.3473 368.63203 
L 208.733549 337.142485 
L 209.119797 341.05989 
L 209.506045 353.115565 
L 211.051038 322.979868 
L 211.437287 280.416034 
L 211.823535 271.245999 
L 212.209783 301.834056 
L 212.596031 368.619938 
L 213.754776 318.022982 
L 214.141024 329.911819 
L 214.527273 349.967999 
L 214.913521 350.938574 
L 215.299769 352.602974 
L 216.844762 331.262188 
L 217.231011 331.640198 
L 218.003507 348.35308 
L 219.162252 344.421269 
L 219.5485 357.452616 
L 219.934749 317.679834 
L 220.320997 349.207031 
L 220.707245 338.6441 
L 221.86599 338.6441 
L 222.252238 345.984362 
L 222.638486 308.721588 
L 223.024735 309.328931 
L 223.410983 349.545197 
L 224.569728 331.838827 
L 224.955976 344.947567 
L 225.342224 346.51088 
L 226.114721 329.146437 
L 227.659714 349.023765 
L 228.045962 329.051374 
L 228.43221 223.329068 
L 228.818459 234.619819 
L 229.977204 366.571985 
L 230.363452 352.986456 
L 230.7497 315.135262 
L 231.135948 305.056148 
L 231.522197 336.655228 
L 232.680941 331.943812 
L 233.06719 362.520408 
L 233.453438 308.478301 
L 233.839686 317.519191 
L 234.225934 346.738109 
L 235.384679 338.82292 
L 235.770928 321.048244 
L 236.157176 309.674101 
L 236.543424 291.41578 
L 236.929672 335.238665 
L 238.088417 356.003114 
L 238.474665 339.274146 
L 238.860914 364.54678 
L 239.247162 339.418889 
L 239.63341 360.220785 
L 240.792155 363.528986 
L 241.178403 317.541039 
L 241.564652 367.872964 
L 241.9509 348.161942 
L 242.337148 355.982395 
L 243.495893 332.739279 
L 243.882141 359.83805 
L 244.268389 362.631737 
L 244.654638 326.869971 
L 246.199631 364.653414 
L 246.585879 345.364525 
L 246.972127 284.928287 
L 247.358376 346.148039 
L 247.744624 358.686235 
L 248.903369 365.759147 
L 249.289617 361.361501 
L 249.675865 330.057137 
L 250.062114 347.635046 
L 250.448362 355.674108 
L 251.607107 321.216538 
L 251.993355 289.402641 
L 252.379603 328.438643 
L 252.765851 345.104849 
L 253.1521 322.699565 
L 254.310844 292.660381 
L 254.697093 362.796454 
L 255.083341 366.548802 
L 255.469589 354.972826 
L 255.855838 364.898251 
L 257.014582 351.588906 
L 257.400831 337.145329 
L 257.787079 327.660357 
L 258.173327 247.550137 
L 258.559575 284.134351 
L 260.104569 360.676635 
L 260.490817 318.349294 
L 260.877065 342.406109 
L 261.263313 317.500302 
L 262.422058 318.363669 
L 262.808306 355.960516 
L 263.194555 348.950827 
L 263.580803 360.624952 
L 263.967051 355.721466 
L 265.125796 369.2747 
L 265.512044 355.894755 
L 266.284541 316.975218 
L 266.670789 357.348507 
L 268.215782 334.353541 
L 268.60203 360.832336 
L 268.988279 351.737768 
L 269.374527 326.548604 
L 270.533272 347.524522 
L 270.91952 328.275772 
L 271.305768 356.609859 
L 271.692017 316.88774 
L 272.078265 350.015408 
L 273.23701 354.553775 
L 273.623258 350.540913 
L 274.009506 363.193555 
L 274.395754 357.690924 
L 274.782003 319.417805 
L 275.940748 340.018977 
L 276.326996 367.926286 
L 276.713244 351.855826 
L 277.099492 350.353464 
L 277.485741 362.8107 
L 278.644485 350.865519 
L 279.416982 361.901296 
L 279.80323 340.798157 
L 280.189479 358.390126 
L 281.734472 352.576219 
L 282.12072 357.453511 
L 282.506968 352.191268 
L 282.893216 309.067148 
L 284.051961 279.427687 
L 284.43821 350.119346 
L 284.824458 352.009461 
L 285.210706 344.881426 
L 285.596954 330.930522 
L 286.755699 349.769067 
L 287.141947 300.971581 
L 287.528196 347.926625 
L 287.914444 351.293656 
L 288.300692 352.224191 
L 289.459437 337.60607 
L 289.845685 327.840002 
L 290.231934 329.938746 
L 290.618182 312.590219 
L 291.00443 347.906618 
L 292.549423 368.833458 
L 292.935671 368.438443 
L 293.32192 293.919431 
L 293.708168 319.869437 
L 294.866913 341.589202 
L 295.253161 325.057294 
L 295.639409 351.926922 
L 296.025658 366.189474 
L 296.411906 361.738179 
L 297.570651 314.295859 
L 297.956899 311.157833 
L 298.343147 361.329392 
L 298.729395 341.681817 
L 299.115644 329.537991 
L 300.274389 319.08781 
L 300.660637 361.851936 
L 301.046885 340.141853 
L 301.433133 349.026432 
L 301.819382 334.677899 
L 302.978126 367.462051 
L 303.364375 367.979999 
L 304.136871 342.132028 
L 304.52312 357.194451 
L 306.068113 351.904012 
L 306.454361 366.510982 
L 306.840609 346.052254 
L 307.226857 356.768017 
L 308.385602 299.608493 
L 308.77185 361.417957 
L 309.158099 348.773469 
L 309.544347 353.37522 
L 309.930595 343.195493 
L 311.08934 299.324608 
L 311.475588 362.990869 
L 311.861837 327.298411 
L 312.248085 334.015801 
L 312.634333 352.915929 
L 313.793078 344.162375 
L 314.179326 333.344179 
L 314.951823 369.36 
L 315.338071 368.862295 
L 316.496816 346.267285 
L 316.883064 324.661486 
L 317.269312 369.237481 
L 317.655561 368.931236 
L 318.041809 324.263075 
L 319.200554 363.64827 
L 319.586802 352.233305 
L 319.97305 327.370892 
L 320.359299 323.435761 
L 320.745547 354.20349 
L 321.904292 321.740104 
L 322.29054 363.829687 
L 322.676788 364.850066 
L 323.063036 363.49796 
L 324.60803 323.48804 
L 324.994278 350.573489 
L 325.380526 343.685801 
L 325.766774 286.924 
L 326.153023 345.995826 
L 327.311767 340.308074 
L 327.698016 347.446732 
L 328.084264 359.287753 
L 328.470512 314.782006 
L 328.85676 368.610539 
L 330.015505 339.648651 
L 330.401754 349.905768 
L 330.788002 324.890331 
L 331.560498 349.05535 
L 332.719243 343.944137 
L 333.105491 363.448739 
L 333.49174 364.768858 
L 333.877988 363.047695 
L 334.264236 336.195629 
L 335.422981 357.938261 
L 335.809229 327.251067 
L 336.195478 365.989972 
L 336.967974 330.962859 
L 338.512967 322.14541 
L 338.899216 334.99383 
L 339.285464 361.311887 
L 339.671712 316.66432 
L 340.830457 353.397441 
L 341.216705 310.428223 
L 341.602953 342.803474 
L 341.989202 331.949572 
L 342.37545 341.089787 
L 343.534195 294.436023 
L 343.920443 341.877401 
L 344.306691 346.604019 
L 344.69294 318.023199 
L 345.079188 363.152801 
L 346.237933 297.960267 
L 347.010429 362.813352 
L 347.396677 353.309055 
L 348.941671 338.632355 
L 349.327919 367.605956 
L 349.714167 367.779418 
L 350.100415 358.74115 
L 350.486664 365.984953 
L 351.645408 352.567871 
L 352.031657 335.766514 
L 352.417905 329.826087 
L 352.804153 356.234169 
L 353.190401 354.039507 
L 354.349146 316.107518 
L 354.735395 292.367251 
L 355.121643 364.265599 
L 355.507891 335.958781 
L 355.894139 360.297402 
L 357.439132 325.710197 
L 357.825381 328.984715 
L 358.211629 353.521097 
L 358.597877 341.479072 
L 359.756622 364.036032 
L 360.14287 330.836957 
L 360.529119 366.77914 
L 360.915367 368.100866 
L 361.301615 364.06628 
L 362.46036 276.75274 
L 362.846608 342.115459 
L 363.232856 346.735234 
L 363.619105 329.23488 
L 364.005353 363.293691 
L 365.164098 345.857277 
L 365.936594 312.062397 
L 366.322843 367.111478 
L 366.709091 339.314462 
L 367.867836 350.291575 
L 368.254084 289.720017 
L 368.640332 343.594134 
L 369.026581 66.96 
L 369.412829 325.382072 
L 370.957822 361.599613 
L 371.34407 297.572793 
L 371.730318 352.994986 
L 372.116567 313.228127 
L 373.275311 341.686362 
L 373.66156 302.017509 
L 374.047808 335.593281 
L 374.434056 334.789456 
L 374.820305 315.230711 
L 375.979049 315.207852 
L 376.365298 302.56476 
L 376.751546 322.038605 
L 377.137794 360.364665 
L 377.524042 343.004692 
L 378.682787 305.444933 
L 379.069036 326.318618 
L 379.455284 301.464842 
L 380.22778 356.451178 
L 381.386525 366.340433 
L 381.772773 322.729022 
L 382.159022 352.178828 
L 382.54527 331.047651 
L 382.931518 347.717897 
L 384.090263 348.925783 
L 384.476511 318.593226 
L 384.86276 365.2645 
L 385.249008 357.097923 
L 385.635256 346.337282 
L 386.794001 362.59471 
L 387.180249 315.652155 
L 387.566497 332.31936 
L 387.952746 366.914724 
L 388.338994 363.884249 
L 389.497739 336.69654 
L 389.883987 362.865145 
L 390.270235 320.553467 
L 390.656484 359.001546 
L 392.201477 361.457929 
L 392.587725 315.359365 
L 392.973973 363.353148 
L 393.360222 305.488977 
L 393.74647 325.27841 
L 394.905215 354.480613 
L 395.291463 293.873709 
L 395.677711 337.314803 
L 396.063959 348.059086 
L 396.450208 352.303669 
L 397.608952 359.364242 
L 397.995201 329.395215 
L 398.381449 248.1296 
L 398.767697 242.521595 
L 399.153946 335.742663 
L 400.31269 247.357287 
L 400.698939 368.068875 
L 401.085187 316.686676 
L 401.471435 366.677398 
L 401.857683 274.655846 
L 403.016428 354.39741 
L 403.402677 293.802374 
L 403.788925 350.730037 
L 404.175173 351.584261 
L 404.561421 354.236688 
L 405.720166 332.422501 
L 406.106414 368.183228 
L 406.492663 337.395461 
L 406.878911 272.317549 
L 407.265159 287.144161 
L 408.810152 315.523015 
L 409.196401 258.824104 
L 409.968897 366.484354 
L 411.127642 331.701968 
L 411.51389 368.831733 
L 411.900138 346.619855 
L 412.286387 304.244301 
L 412.672635 341.416139 
L 413.83138 282.405008 
L 414.217628 362.573668 
L 414.990125 285.050583 
L 415.376373 304.438879 
L 416.921366 342.078952 
L 417.307614 368.79327 
L 417.693862 352.756916 
L 418.080111 299.941682 
L 419.238856 358.316921 
L 419.625104 348.587923 
L 420.011352 298.595646 
L 420.3976 350.525248 
L 420.783849 344.166871 
L 422.328842 337.657565 
L 422.71509 354.808421 
L 423.101338 337.455224 
L 423.487587 349.84213 
L 424.646331 328.337522 
L 425.03258 341.818854 
L 425.418828 368.108659 
L 425.805076 364.781349 
L 426.191324 341.663883 
L 427.350069 347.948842 
L 427.736317 319.254751 
L 428.122566 318.859471 
L 428.895062 344.133657 
L 430.053807 332.291918 
L 430.440055 354.496292 
L 430.826304 314.85972 
L 431.212552 357.609726 
L 431.5988 324.072035 
L 432.757545 344.890794 
L 433.143793 347.234252 
L 433.91629 342.660595 
L 434.302538 351.502311 
L 435.461283 330.71153 
L 435.847531 368.358365 
L 436.233779 290.20576 
L 436.620028 336.151347 
L 437.006276 290.345947 
L 438.165021 357.272608 
L 438.551269 353.591343 
L 438.937517 353.79911 
L 439.323766 360.119027 
L 439.710014 322.313604 
L 440.868759 341.006718 
L 441.255007 343.280325 
L 441.641255 336.559852 
L 442.027503 332.948238 
L 442.413752 334.272308 
L 443.572497 354.198234 
L 443.958745 309.765637 
L 444.344993 345.128333 
L 444.731241 312.268614 
L 445.11749 353.969924 
L 446.662483 334.078083 
L 447.048731 306.974991 
L 447.434979 310.96911 
L 447.821228 328.206844 
L 449.366221 364.233 
L 449.752469 329.024178 
L 450.138717 276.199397 
L 450.524965 366.655275 
L 451.68371 324.458623 
L 452.069958 326.021981 
L 452.456207 356.897679 
L 452.842455 306.379615 
L 453.228703 355.780206 
L 454.387448 346.832684 
L 454.773696 345.670688 
L 455.546193 306.636517 
L 455.932441 364.219204 
L 457.091186 322.33301 
L 457.477434 320.250294 
L 458.249931 349.139798 
L 458.636179 327.965471 
L 459.794924 341.803876 
L 460.181172 344.1008 
L 460.56742 257.415805 
L 460.953669 344.934836 
L 461.339917 267.024502 
L 462.498662 310.10152 
L 462.88491 349.517012 
L 463.271158 343.415256 
L 463.657407 363.400017 
L 464.043655 293.541156 
L 465.2024 366.538151 
L 465.588648 315.761378 
L 465.974896 365.879951 
L 466.361144 369.263365 
L 466.747393 359.623202 
L 467.906138 367.94939 
L 468.292386 365.119532 
L 468.678634 307.031381 
L 469.064882 328.880566 
L 469.451131 318.578814 
L 470.609875 362.210122 
L 470.996124 279.584772 
L 471.382372 342.934344 
L 471.76862 278.775233 
L 472.154868 349.92503 
L 473.313613 331.027122 
L 473.699862 278.15647 
L 474.08611 326.857591 
L 474.472358 324.35992 
L 474.858606 367.050809 
L 476.017351 340.652484 
L 476.403599 368.349315 
L 476.789848 365.468509 
L 477.562344 315.139042 
L 478.721089 335.442686 
L 479.107337 349.493462 
L 479.493586 329.740593 
L 479.879834 356.066886 
L 480.266082 325.592717 
L 481.424827 274.888548 
L 481.811075 331.664404 
L 482.197323 367.352369 
L 484.128565 336.890089 
L 484.514813 356.034256 
L 484.901061 294.263522 
L 485.673558 356.05998 
L 486.832303 314.89556 
L 487.218551 368.426382 
L 487.604799 364.275858 
L 487.991048 329.858227 
L 488.377296 363.46616 
L 489.922289 290.295292 
L 490.308537 368.596552 
L 490.694785 347.706862 
L 491.081034 365.534236 
L 492.626027 354.456647 
L 493.012275 312.952921 
L 493.398523 338.803135 
L 493.784772 350.611895 
L 494.943516 354.934216 
L 495.329765 368.751791 
L 495.716013 294.446718 
L 496.488509 363.860751 
L 498.033503 364.644988 
L 498.419751 365.275724 
L 499.192247 316.951664 
L 500.350992 304.341374 
L 500.73724 349.18269 
L 501.509737 327.439827 
L 501.895985 358.341078 
L 503.05473 321.437859 
L 503.440978 322.743771 
L 503.827227 347.993987 
L 504.213475 349.262406 
L 504.599723 355.583792 
L 505.758468 319.031359 
L 506.144716 356.968074 
L 506.530964 313.677092 
L 506.917213 365.494395 
L 507.303461 364.783411 
L 508.462206 361.0598 
L 508.848454 365.4802 
L 509.234702 358.884771 
L 509.620951 306.762517 
L 510.007199 230.893724 
L 511.552192 281.884218 
L 511.93844 344.317337 
L 512.324689 329.065957 
L 512.710937 345.927486 
L 513.869682 329.024653 
L 514.25593 354.92296 
L 514.642178 360.386541 
L 515.028426 357.121379 
L 515.414675 321.314309 
L 516.573419 356.274493 
L 516.959668 326.325059 
L 517.345916 345.762027 
L 517.732164 277.598708 
L 518.118413 300.814988 
L 519.277157 356.351416 
L 519.663406 354.960688 
L 520.049654 301.456452 
L 520.435902 368.026561 
L 520.82215 329.955506 
L 521.980895 338.933479 
L 522.367144 308.577831 
L 522.753392 327.042291 
L 523.13964 366.394662 
L 523.525888 355.847701 
L 525.070881 364.872341 
L 525.45713 330.585476 
L 525.843378 357.047328 
L 526.229626 360.760648 
L 527.388371 353.182034 
L 528.160868 283.108221 
L 528.547116 355.231351 
L 530.092109 333.866457 
L 530.478357 356.538044 
L 530.864605 369.29241 
L 531.250854 360.542702 
L 531.637102 362.734162 
L 532.795847 356.733446 
L 533.182095 365.186314 
L 533.568343 359.437507 
L 534.34084 225.898045 
L 536.272081 334.800076 
L 536.658329 333.750079 
L 537.044578 365.400102 
L 538.203323 307.844893 
L 538.975819 365.505837 
L 539.362067 347.946491 
L 539.748316 338.312598 
L 540.90706 323.307268 
L 541.293309 302.93571 
L 541.679557 364.746335 
L 542.065805 341.566565 
L 542.452054 350.500031 
L 543.610798 315.082721 
L 543.997047 356.585545 
L 544.383295 354.082306 
L 544.769543 355.353257 
L 545.155791 329.972314 
L 546.314536 353.77132 
L 546.700784 307.658561 
L 547.087033 344.936746 
L 547.473281 321.952914 
L 547.859529 362.832429 
L 549.404522 355.063608 
L 549.790771 311.962747 
L 550.177019 355.287268 
L 550.563267 282.869629 
L 551.722012 354.968698 
L 552.10826 324.267681 
L 552.494509 333.347276 
L 552.880757 364.389717 
L 553.267005 363.913444 
L 554.42575 357.261536 
L 554.811998 306.637186 
L 555.198246 357.104431 
L 555.584495 344.899205 
L 555.970743 353.101681 
L 557.515736 345.396619 
L 557.901984 358.525197 
L 558.288233 343.216198 
L 558.674481 333.825886 
L 559.833226 338.53472 
L 560.219474 358.217927 
L 560.605722 307.578247 
L 560.99197 356.988906 
L 561.378219 344.033756 
L 562.536964 332.202644 
L 563.30946 367.933505 
L 563.695708 360.709334 
L 564.081957 311.07462 
L 565.240701 356.007522 
L 565.62695 364.980639 
L 566.013198 344.802467 
L 566.399446 359.420983 
L 566.785695 332.804788 
L 567.944439 355.593865 
L 568.330688 365.744724 
L 568.716936 343.195349 
L 569.103184 313.09392 
L 569.489432 325.186507 
L 570.648177 336.232997 
L 571.034425 358.356136 
L 571.420674 353.307135 
L 571.806922 342.706487 
L 572.19317 355.54244 
L 573.351915 341.946049 
L 573.738163 341.553218 
L 574.124412 335.546867 
L 574.51066 345.386259 
L 574.896908 364.313592 
L 576.055653 346.432947 
L 576.441901 361.723846 
L 576.82815 359.368668 
L 577.214398 351.359237 
L 577.600646 339.328431 
L 578.759391 355.120165 
L 579.145639 358.304138 
L 579.531887 350.656776 
L 579.918136 360.758929 
L 580.304384 364.076688 
L 581.463129 335.038605 
L 581.849377 368.708403 
L 582.235625 343.405448 
L 582.621874 361.95398 
L 583.008122 362.200601 
L 584.166867 368.641942 
L 584.553115 312.324748 
L 584.939363 363.586787 
L 585.325611 368.537175 
L 585.71186 358.777272 
L 587.256853 365.692256 
L 587.643101 292.842159 
L 588.029349 353.047591 
L 588.415598 346.366426 
L 589.574342 355.473423 
L 589.960591 354.882601 
L 590.346839 367.661822 
L 590.733087 366.485262 
L 591.119335 361.013846 
L 592.27808 352.812738 
L 592.664329 357.081233 
L 593.050577 326.701492 
L 593.436825 325.725274 
L 593.823073 363.461994 
L 594.981818 358.629707 
L 595.368066 342.658045 
L 595.754315 360.844427 
L 596.140563 289.901391 
L 596.526811 350.586643 
L 597.685556 306.831025 
L 598.071804 321.221117 
L 598.458053 355.271938 
L 599.230549 327.744532 
L 600.389294 334.055389 
L 600.775542 315.100748 
L 601.16179 346.692784 
L 601.548039 320.653941 
L 601.934287 308.867415 
L 603.093032 333.571091 
L 603.47928 355.223271 
L 603.865528 229.051838 
L 604.251777 293.055153 
L 604.638025 312.802144 
L 605.79677 345.582889 
L 606.183018 340.093978 
L 606.569266 330.46574 
L 606.955515 368.252389 
L 607.341763 361.581402 
L 608.500508 296.209978 
L 608.886756 362.608601 
L 609.273004 327.69067 
L 609.659252 351.095516 
L 611.204246 275.528416 
L 611.590494 339.47674 
L 611.976742 334.336496 
L 612.36299 317.931182 
L 612.749239 341.363773 
L 613.907983 336.482304 
L 614.294232 242.684761 
L 614.68048 343.522958 
L 615.066728 313.635954 
L 615.452976 317.159634 
L 616.611721 337.970485 
L 616.99797 324.432001 
L 617.384218 364.401786 
L 618.156714 345.047441 
L 619.315459 281.056834 
L 619.701707 334.513441 
L 620.087956 363.52175 
L 620.474204 345.866076 
L 620.860452 315.51801 
L 622.019197 300.952299 
L 622.405445 290.85561 
L 622.791694 310.061585 
L 623.177942 290.519188 
L 623.56419 340.972757 
L 624.722935 353.84184 
L 625.109183 354.373968 
L 625.495431 246.086022 
L 625.88168 313.814842 
L 626.267928 358.480688 
L 627.426673 358.667432 
L 627.812921 341.457599 
L 628.199169 309.535669 
L 628.585418 341.738798 
L 628.971666 326.589456 
L 630.516659 348.646783 
L 630.902907 341.641486 
L 631.289156 368.357154 
L 631.675404 323.478345 
L 633.220397 346.828495 
L 633.606645 305.677267 
L 633.992893 327.427714 
L 634.379142 368.357736 
L 635.537886 361.860251 
L 635.924135 340.0273 
L 636.310383 361.901485 
L 636.696631 324.683063 
L 637.08288 341.55228 
L 638.627873 368.278981 
L 639.014121 311.370252 
L 639.400369 338.431346 
L 639.786617 335.939279 
L 640.945362 304.446499 
L 641.331611 348.762279 
L 641.717859 359.323991 
L 642.104107 332.605119 
L 642.490355 353.4701 
L 643.6491 331.698579 
L 644.035348 337.029771 
L 644.421597 304.797006 
L 644.807845 345.357277 
L 645.194093 339.528388 
L 646.352838 301.912002 
L 646.739086 316.654663 
L 647.125335 345.113551 
L 647.511583 360.809598 
L 647.897831 352.194962 
L 649.056576 319.579404 
L 649.442824 276.800502 
L 649.829072 343.031579 
L 650.215321 332.824764 
L 650.601569 311.6015 
L 652.146562 280.176525 
L 652.919059 365.102453 
L 653.305307 341.187123 
L 654.464052 359.573987 
L 654.8503 292.338586 
L 655.236548 333.093555 
L 655.622796 310.916761 
L 656.009045 321.310117 
L 657.16779 274.573806 
L 657.554038 101.26259 
L 657.940286 248.062518 
L 658.326534 334.837177 
L 658.712783 320.411069 
L 659.871527 297.399511 
L 660.257776 360.377818 
L 660.644024 349.070319 
L 661.030272 303.930552 
L 661.416521 344.035945 
L 662.575265 342.419386 
L 662.961514 324.459677 
L 663.347762 325.881729 
L 663.73401 364.880229 
L 664.120258 325.012895 
L 665.279003 340.776321 
L 665.665251 361.785615 
L 666.0515 261.689331 
L 666.437748 338.620335 
L 667.982741 342.632636 
L 668.368989 340.591128 
L 668.755238 343.863495 
L 669.141486 284.885573 
L 669.527734 343.407917 
L 670.686479 281.354982 
L 671.072727 342.938924 
L 671.458976 353.343115 
L 671.845224 341.270019 
L 672.231472 286.070485 
L 673.390217 346.050524 
L 673.776465 295.148853 
L 674.162713 366.022067 
L 674.548962 338.167359 
L 674.93521 365.102812 
L 676.093955 367.660844 
L 676.480203 346.268591 
L 677.2527 365.929196 
L 677.638948 347.037465 
L 678.797693 269.948863 
L 679.570189 354.448497 
L 679.956437 299.097919 
L 680.342686 339.259273 
L 681.501431 341.15942 
L 681.887679 361.364349 
L 682.273927 358.027726 
L 682.660175 337.476585 
L 683.046424 328.678519 
L 684.205168 349.64395 
L 684.591417 329.0535 
L 684.977665 287.624669 
L 685.363913 352.172941 
L 685.750162 349.16331 
L 686.908906 359.246717 
L 687.295155 332.124018 
L 687.681403 367.63817 
L 688.067651 330.806552 
L 688.453899 318.905728 
L 689.998892 367.546426 
L 690.385141 322.509491 
L 690.771389 365.613736 
L 691.157637 356.202577 
L 692.316382 350.340489 
L 692.70263 339.977881 
L 693.088879 365.451441 
L 693.475127 363.954072 
L 693.861375 331.49826 
L 695.406368 368.284921 
L 695.792617 353.493252 
L 696.178865 314.843108 
L 696.565113 308.627863 
L 697.723858 330.927259 
L 698.110106 354.5267 
L 698.882603 288.319126 
L 699.268851 356.784219 
L 700.427596 344.551623 
L 700.813844 317.082394 
L 701.200092 263.337775 
L 701.972589 358.707662 
L 703.131334 342.673909 
L 703.517582 364.45735 
L 703.90383 327.491509 
L 704.676327 345.474295 
L 705.835072 358.325965 
L 706.22132 244.579525 
L 706.607568 275.843353 
L 706.993816 354.680927 
L 707.380065 368.247221 
L 708.538809 335.829459 
L 708.925058 338.05796 
L 709.311306 332.19748 
L 709.697554 351.044862 
L 710.083802 344.156016 
L 711.242547 347.644942 
L 711.628796 338.593201 
L 712.015044 360.397378 
L 712.401292 367.562728 
L 712.78754 342.68226 
L 714.332533 356.936347 
L 714.718782 352.387863 
L 715.10503 362.070317 
L 715.491278 275.882307 
L 716.650023 313.916942 
L 717.036271 302.687612 
L 717.42252 361.287057 
L 717.808768 322.45688 
L 718.195016 366.360726 
L 719.353761 271.692954 
L 719.740009 347.669907 
L 720.126257 290.015276 
L 720.512506 256.564638 
L 720.898754 365.407378 
L 722.057499 312.066101 
L 722.443747 345.870977 
L 722.829995 300.307362 
L 723.216244 342.659311 
L 723.602492 313.760359 
L 724.761237 345.677747 
L 725.147485 368.747575 
L 725.533733 354.276045 
L 725.919982 314.008039 
L 726.30623 348.394182 
L 727.851223 273.55792 
L 728.237471 359.197616 
L 728.623719 334.361907 
L 729.009968 271.971799 
L 730.554961 365.71714 
L 730.941209 195.874622 
L 731.327457 357.103394 
L 732.87245 339.929402 
L 733.258699 362.214344 
L 733.644947 319.478932 
L 734.031195 326.92944 
L 734.417443 318.092457 
L 735.576188 327.578503 
L 735.962437 342.753117 
L 736.348685 309.651387 
L 736.734933 240.520311 
L 737.121181 356.823906 
L 738.279926 350.224786 
L 738.666174 363.739936 
L 739.052423 365.745154 
L 739.438671 365.889594 
L 739.824919 261.397533 
L 740.983664 337.972388 
L 741.369912 313.336639 
L 741.756161 346.994117 
L 742.142409 355.532448 
L 742.528657 356.868115 
L 743.687402 336.662864 
L 744.07365 315.525565 
L 744.459898 334.112655 
L 744.846147 318.805097 
L 745.232395 362.614903 
L 746.39114 350.621155 
L 746.777388 331.854252 
L 747.163636 333.594868 
L 747.163636 333.594868 
" clip-path="url(#pf78318c5a0)" style="fill: none; stroke: #000000; stroke-width: 1.5; stroke-linecap: square"/>
   </g>
   <g id="line2d_17">
    <path d="M 138.436364 331.263804 
L 138.822612 334.396369 
L 139.20886 334.770731 
L 140.753853 335.591626 
L 141.140102 335.442721 
L 141.52635 332.768042 
L 141.912598 334.94139 
L 142.298846 333.558995 
L 143.843839 331.671764 
L 144.230088 330.181936 
L 144.616336 334.75202 
L 145.002584 332.608404 
L 146.161329 332.811821 
L 147.320074 337.564724 
L 148.865067 343.169433 
L 149.251315 343.847538 
L 149.637563 343.027895 
L 150.023812 344.834032 
L 150.41006 344.727613 
L 151.568805 344.603439 
L 151.955053 345.027449 
L 152.341301 345.18169 
L 152.72755 344.235039 
L 153.113798 341.440355 
L 154.272543 341.83211 
L 154.658791 341.469688 
L 155.045039 339.154501 
L 155.431287 338.562398 
L 155.817536 340.765419 
L 156.976281 341.815227 
L 157.362529 342.46284 
L 157.748777 344.275988 
L 158.135025 345.236192 
L 160.066267 344.901911 
L 160.838763 346.018667 
L 161.225012 345.66292 
L 162.383756 345.881255 
L 162.770005 345.414591 
L 163.156253 341.070021 
L 163.542501 340.483474 
L 163.928749 328.596604 
L 165.473743 327.844164 
L 166.632487 330.748674 
L 167.791232 332.620211 
L 168.563729 338.239352 
L 168.949977 339.030798 
L 169.336225 339.052376 
L 170.49497 338.503287 
L 170.881218 336.982576 
L 171.267467 338.45617 
L 171.653715 321.868973 
L 172.039963 320.988551 
L 173.198708 323.204551 
L 173.584956 328.306763 
L 173.971204 328.720361 
L 174.357453 328.791593 
L 174.743701 327.169567 
L 175.902446 326.648703 
L 176.288694 324.665138 
L 176.674942 324.940723 
L 177.061191 324.447354 
L 177.447439 329.777645 
L 178.606184 331.067857 
L 178.992432 331.735678 
L 179.37868 333.41237 
L 180.151177 335.590201 
L 181.309922 337.708667 
L 181.69617 337.691033 
L 182.082418 338.089709 
L 182.468666 337.918486 
L 182.854915 338.500675 
L 184.013659 338.904138 
L 184.399908 337.406244 
L 184.786156 337.236546 
L 185.172404 329.625564 
L 185.558653 327.885248 
L 186.717397 329.821376 
L 187.103646 329.057637 
L 187.489894 331.342305 
L 187.876142 335.927819 
L 188.26239 335.881293 
L 189.421135 336.089275 
L 189.807383 336.721877 
L 190.193632 337.869997 
L 190.966128 342.586892 
L 192.124873 341.962481 
L 192.511121 342.061938 
L 192.89737 342.386048 
L 194.828611 342.536224 
L 195.214859 341.297751 
L 195.601108 341.487728 
L 196.373604 340.720783 
L 197.532349 340.785566 
L 197.918597 340.979704 
L 198.304845 341.984227 
L 198.691094 342.303289 
L 199.077342 341.035459 
L 200.236087 338.419805 
L 200.622335 339.753119 
L 201.394832 339.294518 
L 201.78108 340.723414 
L 202.939825 339.485534 
L 203.326073 336.904134 
L 203.712321 337.019243 
L 204.098569 337.315485 
L 204.484818 338.959511 
L 205.643563 341.020445 
L 206.029811 340.876845 
L 206.416059 339.855789 
L 206.802307 340.169349 
L 208.3473 341.843793 
L 208.733549 344.679537 
L 209.119797 343.492795 
L 209.506045 343.39344 
L 211.051038 343.190299 
L 211.437287 341.455302 
L 211.823535 337.851628 
L 212.209783 335.562572 
L 212.596031 335.25756 
L 213.754776 340.930953 
L 214.141024 338.806742 
L 214.527273 338.06385 
L 214.913521 338.667666 
L 215.299769 339.55882 
L 216.844762 339.003448 
L 217.617259 338.39947 
L 218.003507 338.230091 
L 219.5485 337.909613 
L 219.934749 337.977236 
L 220.320997 331.672755 
L 220.707245 330.668346 
L 221.86599 330.884403 
L 222.252238 330.449463 
L 222.638486 335.34593 
L 223.024735 336.548825 
L 223.410983 335.938083 
L 224.955976 338.805805 
L 225.728473 338.131755 
L 226.114721 338.409244 
L 227.659714 338.439485 
L 228.045962 338.271143 
L 228.43221 336.404622 
L 228.818459 326.792328 
L 229.977204 320.945778 
L 230.363452 325.081696 
L 230.7497 324.795872 
L 231.135948 325.581247 
L 231.522197 319.505833 
L 232.680941 317.509848 
L 233.06719 320.18187 
L 233.453438 328.743884 
L 234.225934 320.29325 
L 235.384679 321.443007 
L 235.770928 323.385021 
L 236.157176 323.678233 
L 236.929672 325.627346 
L 238.088417 325.83671 
L 238.474665 330.1947 
L 238.860914 330.342752 
L 239.247162 333.303638 
L 239.63341 332.659408 
L 240.792155 333.019766 
L 241.178403 336.357998 
L 241.564652 334.5688 
L 241.9509 335.73666 
L 242.337148 336.225946 
L 243.495893 338.401232 
L 243.882141 337.10748 
L 244.268389 337.310933 
L 244.654638 339.754279 
L 246.199631 340.784423 
L 246.585879 343.065883 
L 246.972127 342.84725 
L 247.358376 338.620476 
L 247.744624 339.808599 
L 248.903369 341.771263 
L 249.289617 343.275749 
L 249.675865 344.263765 
L 250.062114 343.562278 
L 250.448362 343.855506 
L 251.607107 345.19415 
L 251.993355 344.400947 
L 252.379603 338.873774 
L 252.765851 338.30631 
L 253.1521 339.15633 
L 254.310844 338.293118 
L 254.697093 337.145138 
L 255.083341 337.797119 
L 255.469589 339.453727 
L 255.855838 339.469214 
L 257.014582 340.610518 
L 257.400831 340.268201 
L 257.787079 338.802792 
L 258.173327 338.348245 
L 258.559575 330.578742 
L 260.104569 328.354587 
L 260.490817 329.020423 
L 260.877065 322.310819 
L 261.263313 321.728475 
L 262.422058 333.82495 
L 263.194555 334.877256 
L 263.580803 335.007515 
L 263.967051 336.692015 
L 265.125796 338.918054 
L 265.512044 342.238249 
L 265.898293 342.603464 
L 266.284541 342.518924 
L 266.670789 342.663436 
L 268.215782 342.915849 
L 268.60203 342.624234 
L 268.988279 343.549811 
L 269.374527 343.427991 
L 270.533272 342.666186 
L 270.91952 342.986868 
L 271.692017 342.261699 
L 272.078265 340.123454 
L 273.23701 342.179341 
L 273.623258 342.228386 
L 274.009506 341.64894 
L 274.395754 341.955882 
L 274.782003 341.926256 
L 275.940748 338.130205 
L 276.326996 340.392796 
L 276.713244 343.668504 
L 277.099492 344.649919 
L 277.485741 346.141676 
L 278.644485 347.16443 
L 279.416982 348.120446 
L 279.80323 348.635791 
L 280.189479 348.578913 
L 281.734472 348.526389 
L 282.12072 348.118689 
L 282.506968 348.058221 
L 284.824458 343.750546 
L 285.210706 343.455644 
L 285.596954 343.713385 
L 287.141947 340.173551 
L 287.528196 337.414069 
L 287.914444 341.324063 
L 288.300692 343.058194 
L 289.459437 343.111992 
L 289.845685 342.998515 
L 290.231934 340.973388 
L 291.00443 340.147948 
L 292.163175 340.444623 
L 292.935671 343.681359 
L 293.32192 345.05058 
L 293.708168 343.504798 
L 294.866913 343.023876 
L 295.253161 343.378803 
L 295.639409 342.531015 
L 296.025658 342.528471 
L 296.411906 344.293795 
L 297.570651 344.77175 
L 297.956899 342.43104 
L 298.343147 339.003207 
L 298.729395 339.018235 
L 299.115644 336.896831 
L 300.274389 336.983594 
L 301.046885 341.082326 
L 301.433133 341.027914 
L 301.819382 340.432842 
L 302.978126 340.528134 
L 303.364375 345.203707 
L 303.750623 346.43367 
L 304.136871 346.824213 
L 306.068113 346.67592 
L 306.454361 346.280544 
L 306.840609 347.077286 
L 308.385602 346.349783 
L 308.77185 341.994578 
L 309.158099 343.578707 
L 309.544347 343.785443 
L 309.930595 343.852626 
L 311.08934 342.597691 
L 311.475588 335.210327 
L 311.861837 335.543686 
L 312.248085 337.683884 
L 312.634333 341.379563 
L 313.793078 342.088891 
L 314.179326 341.619088 
L 314.565575 339.596507 
L 314.951823 340.092387 
L 315.338071 341.933502 
L 316.496816 343.395307 
L 316.883064 343.072991 
L 317.269312 342.052463 
L 318.041809 345.336765 
L 319.200554 344.17385 
L 319.586802 344.819774 
L 319.97305 344.747311 
L 320.359299 344.449331 
L 320.745547 344.769658 
L 321.904292 345.117372 
L 322.29054 344.686306 
L 323.449285 346.595075 
L 324.60803 346.495204 
L 324.994278 346.337597 
L 325.380526 345.761998 
L 325.766774 344.765548 
L 326.153023 341.650845 
L 327.311767 342.031556 
L 327.698016 343.586574 
L 328.084264 343.613029 
L 328.470512 344.840043 
L 328.85676 343.924134 
L 330.015505 344.5662 
L 330.401754 344.059701 
L 330.788002 343.991733 
L 331.17425 341.259996 
L 331.560498 340.613684 
L 332.719243 341.927593 
L 333.105491 341.98409 
L 333.49174 343.360334 
L 333.877988 344.156659 
L 334.264236 344.569639 
L 335.422981 344.21792 
L 335.809229 344.360711 
L 336.195478 341.759491 
L 336.967974 342.723997 
L 338.126719 335.996339 
L 338.512967 344.212583 
L 338.899216 331.865384 
L 339.285464 328.03845 
L 339.671712 329.351961 
L 340.830457 325.985587 
L 341.216705 326.556004 
L 341.989202 341.584989 
L 342.37545 341.120169 
L 343.534195 341.84333 
L 343.920443 340.174642 
L 344.306691 339.4638 
L 344.69294 339.321915 
L 345.079188 337.797779 
L 346.237933 338.127629 
L 346.624181 333.423998 
L 347.010429 333.100918 
L 347.396677 337.862998 
L 348.941671 340.698261 
L 349.327919 341.091805 
L 350.100415 343.495311 
L 350.486664 344.247928 
L 351.645408 344.610916 
L 352.031657 344.914023 
L 352.417905 344.618116 
L 352.804153 341.976989 
L 353.190401 341.767371 
L 354.349146 342.083307 
L 355.121643 338.256691 
L 355.507891 340.820489 
L 355.894139 339.467919 
L 357.439132 339.219596 
L 357.825381 337.364271 
L 358.211629 334.117742 
L 358.597877 333.619485 
L 359.756622 330.252134 
L 360.14287 330.687076 
L 360.529119 327.287341 
L 361.301615 331.545348 
L 362.46036 335.132744 
L 362.846608 335.521401 
L 363.232856 338.423648 
L 363.619105 340.387485 
L 364.005353 339.257469 
L 365.164098 339.907229 
L 365.550346 341.127813 
L 365.936594 341.349281 
L 366.322843 341.283094 
L 366.709091 341.738011 
L 368.254084 337.560863 
L 368.640332 335.225647 
L 369.026581 337.326061 
L 369.412829 309.32819 
L 370.957822 304.695595 
L 371.34407 309.244331 
L 371.730318 304.835875 
L 372.116567 307.334477 
L 373.275311 308.507912 
L 373.66156 311.935895 
L 374.047808 306.61562 
L 374.434056 307.901455 
L 374.820305 310.212873 
L 375.979049 307.319331 
L 376.751546 301.202582 
L 377.137794 308.795066 
L 377.524042 313.765938 
L 378.682787 314.86823 
L 379.069036 311.517512 
L 379.455284 313.095548 
L 380.22778 321.676879 
L 381.386525 325.576666 
L 381.772773 330.915582 
L 382.159022 331.245 
L 382.54527 332.541296 
L 382.931518 333.093727 
L 384.86276 336.276142 
L 385.249008 338.079773 
L 385.635256 337.978451 
L 386.794001 340.806353 
L 387.180249 343.131158 
L 387.566497 340.181037 
L 387.952746 338.693134 
L 388.338994 339.846166 
L 389.497739 340.755752 
L 389.883987 338.768249 
L 390.270235 339.693141 
L 390.656484 339.182273 
L 392.201477 340.055626 
L 392.587725 341.081547 
L 392.973973 341.147981 
L 393.360222 342.67742 
L 393.74647 340.003422 
L 394.905215 334.991268 
L 395.291463 334.570865 
L 395.677711 328.090397 
L 396.063959 326.997469 
L 396.450208 329.853176 
L 397.608952 328.910937 
L 397.995201 328.847215 
L 398.381449 330.321663 
L 398.767697 331.049357 
L 399.153946 327.076379 
L 400.31269 326.070219 
L 400.698939 316.673937 
L 401.085187 318.058816 
L 401.471435 317.360845 
L 401.857683 322.222404 
L 403.016428 319.394743 
L 403.402677 322.734088 
L 404.175173 323.516681 
L 404.561421 324.29362 
L 405.720166 325.212951 
L 406.106414 325.902402 
L 406.492663 330.041006 
L 406.878911 328.859357 
L 407.265159 326.92833 
L 408.810152 325.154292 
L 409.196401 323.664253 
L 409.582649 317.70025 
L 409.968897 318.497616 
L 411.127642 321.182474 
L 411.51389 322.880645 
L 411.900138 327.52892 
L 412.286387 329.113483 
L 412.672635 325.017847 
L 413.83138 322.817064 
L 414.217628 312.963872 
L 414.603876 313.521266 
L 414.990125 312.995972 
L 415.376373 307.923526 
L 416.921366 306.402566 
L 417.307614 311.722501 
L 417.693862 318.756736 
L 418.080111 320.031524 
L 419.238856 319.737365 
L 419.625104 323.319046 
L 420.011352 324.441594 
L 420.3976 320.873799 
L 420.783849 321.826097 
L 422.328842 321.668644 
L 422.71509 321.888449 
L 423.101338 322.479035 
L 423.487587 324.1535 
L 424.646331 325.783561 
L 425.03258 324.90853 
L 425.418828 324.716349 
L 426.191324 331.814643 
L 427.350069 334.262034 
L 427.736317 335.484943 
L 428.122566 334.192167 
L 428.508814 334.333601 
L 428.895062 333.969334 
L 430.053807 333.440822 
L 430.440055 334.330723 
L 430.826304 334.720542 
L 431.212552 338.892695 
L 431.5988 337.291165 
L 432.757545 337.594518 
L 433.143793 338.889446 
L 433.530042 339.665003 
L 433.91629 339.316546 
L 434.302538 339.323297 
L 435.461283 340.075313 
L 435.847531 340.500111 
L 436.233779 341.337264 
L 436.620028 340.358994 
L 437.006276 341.514822 
L 438.165021 339.096722 
L 438.551269 340.444727 
L 439.323766 340.916188 
L 439.710014 342.085159 
L 440.868759 339.065328 
L 442.027503 337.769614 
L 442.413752 338.08511 
L 443.958745 334.126149 
L 444.344993 330.398445 
L 444.731241 330.521412 
L 445.11749 328.127755 
L 446.662483 330.036924 
L 447.048731 329.975837 
L 447.434979 329.126635 
L 447.821228 330.515438 
L 448.979972 331.046883 
L 449.752469 332.971171 
L 450.138717 332.103408 
L 450.524965 327.913697 
L 451.68371 330.858223 
L 452.069958 330.617258 
L 452.456207 328.758882 
L 452.842455 328.602661 
L 453.228703 325.954251 
L 454.387448 326.068526 
L 454.773696 325.990347 
L 455.159945 325.788335 
L 455.546193 326.509467 
L 455.932441 322.286497 
L 457.091186 323.023347 
L 457.863683 325.864972 
L 458.249931 325.301596 
L 458.636179 326.942015 
L 459.794924 324.188576 
L 460.181172 325.846771 
L 460.56742 325.315938 
L 460.953669 319.786745 
L 461.339917 322.813858 
L 462.498662 314.977881 
L 462.88491 314.874975 
L 464.043655 322.379445 
L 465.2024 321.439234 
L 465.588648 325.17094 
L 465.974896 325.125362 
L 466.747393 334.871449 
L 467.906138 335.418829 
L 468.292386 337.640145 
L 468.678634 338.938855 
L 469.064882 336.325714 
L 469.451131 336.899805 
L 470.609875 335.895555 
L 470.996124 337.823503 
L 471.382372 334.935727 
L 471.76862 334.015471 
L 472.154868 351.26453 
L 473.313613 333.309609 
L 473.699862 332.599925 
L 474.08611 327.094284 
L 474.858606 324.379672 
L 476.017351 327.657184 
L 476.403599 329.110293 
L 476.789848 333.671351 
L 477.562344 337.686458 
L 478.721089 335.312892 
L 479.493586 336.623534 
L 479.879834 339.321329 
L 480.266082 337.358915 
L 481.424827 336.990695 
L 481.811075 331.974088 
L 482.197323 329.36721 
L 482.583572 330.698984 
L 482.96982 331.299153 
L 484.128565 331.5789 
L 484.514813 330.493506 
L 484.901061 332.837371 
L 485.28731 328.437168 
L 485.673558 326.60924 
L 486.832303 326.860588 
L 487.218551 324.65773 
L 487.991048 333.130246 
L 488.377296 332.219567 
L 489.922289 334.107993 
L 490.308537 330.396284 
L 491.081034 334.5163 
L 493.012275 336.74073 
L 493.398523 335.139734 
L 493.784772 334.270388 
L 494.943516 334.699335 
L 495.329765 335.842002 
L 495.716013 337.959371 
L 496.102261 336.954129 
L 496.488509 337.347496 
L 498.033503 339.791183 
L 498.805999 342.050704 
L 499.192247 342.542158 
L 500.350992 341.573263 
L 500.73724 340.179502 
L 501.123489 340.513731 
L 501.509737 340.612555 
L 501.895985 340.538337 
L 503.05473 341.389862 
L 503.440978 340.329879 
L 503.827227 339.918843 
L 504.599723 342.340521 
L 505.758468 341.893502 
L 506.144716 339.484948 
L 506.530964 340.580659 
L 506.917213 337.883269 
L 507.303461 339.613717 
L 508.462206 340.259213 
L 509.234702 342.737762 
L 509.620951 344.262612 
L 510.007199 342.963952 
L 511.552192 331.796169 
L 511.93844 325.424866 
L 512.324689 325.183503 
L 512.710937 326.13273 
L 513.869682 326.457313 
L 514.25593 326.3812 
L 515.414675 329.756474 
L 516.573419 330.741659 
L 516.959668 332.502915 
L 517.345916 331.101122 
L 517.732164 331.53017 
L 518.118413 324.70066 
L 519.277157 316.867964 
L 519.663406 316.557155 
L 520.049654 319.47339 
L 520.435902 316.014945 
L 520.82215 320.164872 
L 521.980895 318.622077 
L 522.367144 318.871706 
L 522.753392 322.683994 
L 523.13964 323.217949 
L 523.525888 325.424844 
L 524.684633 327.438415 
L 525.070881 331.306397 
L 525.45713 333.599174 
L 526.229626 335.007996 
L 527.388371 336.037658 
L 527.774619 338.496841 
L 528.160868 337.647391 
L 528.547116 333.057951 
L 530.092109 333.664408 
L 530.478357 334.260383 
L 530.864605 335.305811 
L 531.637102 338.436158 
L 532.795847 340.404162 
L 533.182095 341.767213 
L 533.954592 343.256807 
L 535.499585 329.9647 
L 535.885833 330.077682 
L 536.272081 325.753672 
L 536.658329 324.823244 
L 537.044578 327.617621 
L 538.203323 331.618887 
L 538.589571 330.970095 
L 538.975819 329.823485 
L 539.362067 330.842375 
L 539.748316 331.43524 
L 540.90706 331.319663 
L 541.293309 333.779045 
L 541.679557 331.866469 
L 542.065805 332.966452 
L 542.452054 334.462974 
L 543.610798 334.331955 
L 543.997047 333.750428 
L 544.383295 334.627113 
L 544.769543 335.891217 
L 545.155791 338.911058 
L 546.314536 337.11668 
L 546.700784 337.668334 
L 547.087033 335.567137 
L 547.473281 334.187012 
L 547.859529 331.330445 
L 549.404522 333.251625 
L 549.790771 334.36254 
L 550.177019 331.138164 
L 550.563267 333.103563 
L 551.722012 334.14841 
L 552.10826 337.612974 
L 552.494509 338.426056 
L 553.267005 341.774796 
L 554.42575 343.108432 
L 554.811998 342.874355 
L 555.198246 341.518816 
L 555.584495 342.287821 
L 555.970743 342.462234 
L 557.515736 342.234858 
L 557.901984 343.070435 
L 558.674481 343.735636 
L 560.219474 341.657431 
L 560.605722 342.288085 
L 560.99197 340.199387 
L 561.378219 341.236611 
L 562.536964 340.929389 
L 563.30946 340.103644 
L 563.695708 341.69707 
L 564.081957 341.664218 
L 565.240701 339.799808 
L 566.013198 342.440628 
L 566.399446 342.886016 
L 566.785695 343.716208 
L 567.944439 342.988638 
L 568.330688 343.782211 
L 568.716936 345.152874 
L 569.103184 344.493301 
L 569.489432 342.050512 
L 570.648177 339.810205 
L 571.034425 338.665889 
L 571.420674 339.40623 
L 571.806922 339.789125 
L 572.19317 339.559764 
L 573.351915 339.827862 
L 573.738163 340.780964 
L 574.124412 339.865938 
L 574.51066 337.720736 
L 574.896908 336.473644 
L 576.055653 338.108364 
L 576.441901 337.996651 
L 576.82815 339.438015 
L 577.214398 339.723384 
L 577.600646 340.531411 
L 578.759391 339.714392 
L 579.145639 340.610243 
L 579.531887 341.013166 
L 579.918136 340.162139 
L 580.304384 340.813045 
L 581.463129 342.408332 
L 581.849377 342.346182 
L 582.235625 344.05112 
L 584.166867 345.339873 
L 584.553115 347.206408 
L 584.939363 346.457673 
L 585.325611 347.792371 
L 585.71186 349.971145 
L 587.256853 351.000521 
L 587.643101 351.77601 
L 588.029349 348.167131 
L 588.415598 347.849574 
L 589.574342 347.314724 
L 589.960591 347.747787 
L 590.346839 347.502081 
L 590.733087 348.637697 
L 591.119335 350.380302 
L 592.27808 350.591339 
L 592.664329 350.027597 
L 593.050577 350.024526 
L 593.436825 347.828419 
L 593.823073 344.68168 
L 594.981818 344.674658 
L 595.368066 345.178578 
L 595.754315 343.418678 
L 596.140563 343.32637 
L 596.526811 341.236289 
L 597.685556 340.762909 
L 598.458053 334.569018 
L 598.844301 334.753629 
L 599.230549 334.730477 
L 600.389294 334.444589 
L 601.16179 332.896418 
L 601.548039 335.186657 
L 601.934287 335.219952 
L 603.093032 330.209229 
L 603.47928 329.662752 
L 603.865528 332.725191 
L 604.251777 322.955708 
L 604.638025 316.565232 
L 605.79677 310.058776 
L 606.183018 310.667304 
L 606.569266 316.89756 
L 606.955515 316.16124 
L 607.341763 317.908319 
L 608.500508 318.861695 
L 608.886756 315.812798 
L 609.273004 321.241604 
L 609.659252 323.306122 
L 610.045501 328.935249 
L 611.204246 330.997192 
L 611.590494 328.272211 
L 611.976742 329.985601 
L 612.36299 329.744355 
L 612.749239 328.468445 
L 613.907983 328.989315 
L 614.294232 329.346631 
L 614.68048 325.431918 
L 615.066728 327.092628 
L 615.452976 324.936022 
L 616.611721 324.699949 
L 616.99797 327.048863 
L 617.384218 325.972981 
L 618.156714 329.178568 
L 619.315459 330.887932 
L 619.701707 327.298904 
L 620.087956 327.729585 
L 620.860452 330.506351 
L 622.019197 330.762403 
L 622.405445 329.001595 
L 622.791694 323.945547 
L 623.177942 323.252262 
L 623.56419 321.535532 
L 624.722935 322.495089 
L 625.109183 323.884761 
L 625.495431 327.110386 
L 625.88168 323.30523 
L 626.267928 323.494003 
L 628.199169 328.597767 
L 628.585418 324.414931 
L 628.971666 324.417603 
L 630.516659 324.916263 
L 630.902907 328.10639 
L 631.289156 328.49559 
L 631.675404 334.803503 
L 633.220397 332.435417 
L 633.606645 333.619824 
L 633.992893 329.913679 
L 634.379142 327.713507 
L 635.537886 330.950279 
L 635.924135 334.042482 
L 636.310383 333.630314 
L 636.696631 335.814757 
L 637.08288 334.477602 
L 638.627873 333.723272 
L 639.014121 335.168675 
L 639.400369 331.130321 
L 639.786617 330.499458 
L 641.331611 330.934947 
L 641.717859 333.456312 
L 642.104107 334.80265 
L 642.490355 333.155928 
L 643.6491 334.03056 
L 644.035348 335.200125 
L 644.421597 334.307704 
L 644.807845 329.864504 
L 645.194093 329.923746 
L 646.352838 329.430895 
L 646.739086 327.636162 
L 647.125335 328.420971 
L 647.511583 331.42357 
L 647.897831 332.992899 
L 649.056576 334.267738 
L 649.442824 333.004574 
L 649.829072 325.38432 
L 650.215321 325.428787 
L 650.601569 329.213059 
L 652.146562 328.554349 
L 652.53281 321.701242 
L 652.919059 320.695693 
L 653.305307 323.699234 
L 654.464052 325.970989 
L 654.8503 330.113076 
L 655.236548 328.9288 
L 656.009045 329.804099 
L 657.16779 330.655609 
L 657.554038 326.126506 
L 657.940286 304.370787 
L 658.326534 299.854828 
L 658.712783 302.222925 
L 659.871527 300.608999 
L 660.257776 299.636404 
L 660.644024 303.415188 
L 661.030272 311.686262 
L 661.416521 310.030645 
L 662.575265 311.629404 
L 662.961514 314.175955 
L 663.347762 314.128579 
L 663.73401 317.241524 
L 664.120258 323.318114 
L 665.279003 321.787093 
L 665.665251 321.672763 
L 666.0515 324.484723 
L 666.437748 322.761688 
L 667.982741 323.834021 
L 668.368989 323.051162 
L 668.755238 321.889205 
L 669.141486 323.495215 
L 669.527734 316.87318 
L 670.686479 316.201283 
L 671.072727 315.645105 
L 671.458976 317.337682 
L 672.231472 319.589442 
L 673.390217 311.287437 
L 673.776465 310.030833 
L 674.162713 305.78258 
L 674.548962 319.222121 
L 674.93521 320.411882 
L 676.093955 324.519311 
L 676.866451 334.132481 
L 677.2527 336.579542 
L 677.638948 337.823549 
L 678.797693 339.250767 
L 679.183941 337.560488 
L 679.570189 335.197246 
L 679.956437 335.472746 
L 680.342686 334.616858 
L 681.501431 335.995172 
L 682.273927 339.437749 
L 682.660175 339.974561 
L 683.046424 340.873919 
L 684.205168 339.587082 
L 684.591417 340.126475 
L 684.977665 339.407536 
L 685.363913 335.516462 
L 685.750162 338.10941 
L 686.908906 338.74915 
L 687.295155 339.818784 
L 687.681403 338.693052 
L 688.067651 340.106335 
L 688.453899 338.36497 
L 689.998892 338.740379 
L 690.385141 341.104637 
L 690.771389 338.78943 
L 691.157637 339.346954 
L 692.316382 339.872983 
L 692.70263 340.301188 
L 693.088879 339.164255 
L 693.475127 340.86279 
L 693.861375 341.637727 
L 695.02012 339.952975 
L 695.406368 340.454701 
L 695.792617 341.835526 
L 696.178865 342.527107 
L 696.565113 340.993515 
L 697.723858 338.074547 
L 698.110106 336.148187 
L 698.882603 336.273498 
L 699.268851 331.517848 
L 700.427596 332.147123 
L 700.813844 332.898897 
L 701.972589 327.345693 
L 703.517582 330.93365 
L 703.90383 332.958185 
L 704.676327 332.666978 
L 705.835072 332.546254 
L 706.22132 333.931386 
L 706.607568 326.403977 
L 706.993816 323.588792 
L 708.538809 328.84296 
L 708.925058 327.912363 
L 709.311306 328.203402 
L 709.697554 326.278546 
L 710.083802 325.812783 
L 711.242547 323.730719 
L 712.015044 327.257599 
L 712.401292 327.351317 
L 713.946285 329.36676 
L 714.332533 332.339211 
L 714.718782 334.414678 
L 715.491278 336.619487 
L 716.650023 325.650759 
L 717.036271 313.017151 
L 717.42252 304.223857 
L 717.808768 331.420767 
L 718.195016 331.902525 
L 719.353761 338.976619 
L 719.740009 335.00742 
L 720.126257 336.53864 
L 720.512506 337.362382 
L 720.898754 337.736611 
L 722.057499 340.536825 
L 722.443747 340.292903 
L 722.829995 340.879204 
L 723.602492 338.336559 
L 724.761237 336.272925 
L 725.147485 336.393165 
L 725.533733 338.496081 
L 725.919982 338.303484 
L 726.30623 336.804189 
L 727.851223 337.26782 
L 728.237471 328.94134 
L 728.623719 328.633139 
L 729.009968 326.732696 
L 730.168713 314.249067 
L 730.554961 314.876982 
L 730.941209 326.85647 
L 731.327457 319.586981 
L 731.713706 321.851136 
L 732.87245 323.411293 
L 733.644947 328.637875 
L 734.031195 327.175097 
L 734.417443 328.485896 
L 735.576188 326.361369 
L 735.962437 326.811714 
L 736.348685 329.29934 
L 736.734933 327.159315 
L 737.121181 323.825096 
L 738.279926 325.568807 
L 738.666174 324.895328 
L 739.052423 325.91025 
L 739.438671 326.563273 
L 739.824919 329.808501 
L 740.983664 322.763734 
L 741.369912 323.201409 
L 741.756161 317.917938 
L 742.528657 323.394965 
L 743.687402 324.593048 
L 744.07365 324.468529 
L 744.459898 323.352431 
L 744.846147 323.989023 
L 745.232395 323.827871 
L 746.39114 331.153592 
L 746.777388 332.451155 
L 747.163636 332.398009 
L 747.163636 332.398009 
" clip-path="url(#pf78318c5a0)" style="fill: none; stroke: #1f77b4; stroke-width: 1.5; stroke-linecap: square"/>
   </g>
   <g id="patch_3">
    <path d="M 108 384.48 
L 108 51.84 
" style="fill: none; stroke: #000000; stroke-width: 0.8; stroke-linejoin: miter; stroke-linecap: square"/>
   </g>
   <g id="patch_4">
    <path d="M 777.6 384.48 
L 777.6 51.84 
" style="fill: none; stroke: #000000; stroke-width: 0.8; stroke-linejoin: miter; stroke-linecap: square"/>
   </g>
   <g id="patch_5">
    <path d="M 108 384.48 
L 777.6 384.48 
" style="fill: none; stroke: #000000; stroke-width: 0.8; stroke-linejoin: miter; stroke-linecap: square"/>
   </g>
   <g id="patch_6">
    <path d="M 108 51.84 
L 777.6 51.84 
" style="fill: none; stroke: #000000; stroke-width: 0.8; stroke-linejoin: miter; stroke-linecap: square"/>
   </g>
   <g id="text_18">
    <!-- Volatility Prediction with LSTM MDN v2 -->
    <g transform="translate(327.174375 45.84) scale(0.12 -0.12)">
     <defs>
      <path id="DejaVuSans-20" transform="scale(0.015625)"/>
      <path id="DejaVuSans-50" d="M 1259 4147 
L 1259 2394 
L 2053 2394 
Q 2494 2394 2734 2622 
Q 2975 2850 2975 3272 
Q 2975 3691 2734 3919 
Q 2494 4147 2053 4147 
L 1259 4147 
z
M 628 4666 
L 2053 4666 
Q 2838 4666 3239 4311 
Q 3641 3956 3641 3272 
Q 3641 2581 3239 2228 
Q 2838 1875 2053 1875 
L 1259 1875 
L 1259 0 
L 628 0 
L 628 4666 
z
" transform="scale(0.015625)"/>
      <path id="DejaVuSans-72" d="M 2631 2963 
Q 2534 3019 2420 3045 
Q 2306 3072 2169 3072 
Q 1681 3072 1420 2755 
Q 1159 2438 1159 1844 
L 1159 0 
L 581 0 
L 581 3500 
L 1159 3500 
L 1159 2956 
Q 1341 3275 1631 3429 
Q 1922 3584 2338 3584 
Q 2397 3584 2469 3576 
Q 2541 3569 2628 3553 
L 2631 2963 
z
" transform="scale(0.015625)"/>
      <path id="DejaVuSans-64" d="M 2906 2969 
L 2906 4863 
L 3481 4863 
L 3481 0 
L 2906 0 
L 2906 525 
Q 2725 213 2448 61 
Q 2172 -91 1784 -91 
Q 1150 -91 751 415 
Q 353 922 353 1747 
Q 353 2572 751 3078 
Q 1150 3584 1784 3584 
Q 2172 3584 2448 3432 
Q 2725 3281 2906 2969 
z
M 947 1747 
Q 947 1113 1208 752 
Q 1469 391 1925 391 
Q 2381 391 2643 752 
Q 2906 1113 2906 1747 
Q 2906 2381 2643 2742 
Q 2381 3103 1925 3103 
Q 1469 3103 1208 2742 
Q 947 2381 947 1747 
z
" transform="scale(0.015625)"/>
      <path id="DejaVuSans-63" d="M 3122 3366 
L 3122 2828 
Q 2878 2963 2633 3030 
Q 2388 3097 2138 3097 
Q 1578 3097 1268 2742 
Q 959 2388 959 1747 
Q 959 1106 1268 751 
Q 1578 397 2138 397 
Q 2388 397 2633 464 
Q 2878 531 3122 666 
L 3122 134 
Q 2881 22 2623 -34 
Q 2366 -91 2075 -91 
Q 1284 -91 818 406 
Q 353 903 353 1747 
Q 353 2603 823 3093 
Q 1294 3584 2113 3584 
Q 2378 3584 2631 3529 
Q 2884 3475 3122 3366 
z
" transform="scale(0.015625)"/>
      <path id="DejaVuSans-6e" d="M 3513 2113 
L 3513 0 
L 2938 0 
L 2938 2094 
Q 2938 2591 2744 2837 
Q 2550 3084 2163 3084 
Q 1697 3084 1428 2787 
Q 1159 2491 1159 1978 
L 1159 0 
L 581 0 
L 581 3500 
L 1159 3500 
L 1159 2956 
Q 1366 3272 1645 3428 
Q 1925 3584 2291 3584 
Q 2894 3584 3203 3211 
Q 3513 2838 3513 2113 
z
" transform="scale(0.015625)"/>
      <path id="DejaVuSans-77" d="M 269 3500 
L 844 3500 
L 1563 769 
L 2278 3500 
L 2956 3500 
L 3675 769 
L 4391 3500 
L 4966 3500 
L 4050 0 
L 3372 0 
L 2619 2869 
L 1863 0 
L 1184 0 
L 269 3500 
z
" transform="scale(0.015625)"/>
      <path id="DejaVuSans-68" d="M 3513 2113 
L 3513 0 
L 2938 0 
L 2938 2094 
Q 2938 2591 2744 2837 
Q 2550 3084 2163 3084 
Q 1697 3084 1428 2787 
Q 1159 2491 1159 1978 
L 1159 0 
L 581 0 
L 581 4863 
L 1159 4863 
L 1159 2956 
Q 1366 3272 1645 3428 
Q 1925 3584 2291 3584 
Q 2894 3584 3203 3211 
Q 3513 2838 3513 2113 
z
" transform="scale(0.015625)"/>
      <path id="DejaVuSans-4c" d="M 628 4666 
L 1259 4666 
L 1259 531 
L 3531 531 
L 3531 0 
L 628 0 
L 628 4666 
z
" transform="scale(0.015625)"/>
      <path id="DejaVuSans-53" d="M 3425 4513 
L 3425 3897 
Q 3066 4069 2747 4153 
Q 2428 4238 2131 4238 
Q 1616 4238 1336 4038 
Q 1056 3838 1056 3469 
Q 1056 3159 1242 3001 
Q 1428 2844 1947 2747 
L 2328 2669 
Q 3034 2534 3370 2195 
Q 3706 1856 3706 1288 
Q 3706 609 3251 259 
Q 2797 -91 1919 -91 
Q 1588 -91 1214 -16 
Q 841 59 441 206 
L 441 856 
Q 825 641 1194 531 
Q 1563 422 1919 422 
Q 2459 422 2753 634 
Q 3047 847 3047 1241 
Q 3047 1584 2836 1778 
Q 2625 1972 2144 2069 
L 1759 2144 
Q 1053 2284 737 2584 
Q 422 2884 422 3419 
Q 422 4038 858 4394 
Q 1294 4750 2059 4750 
Q 2388 4750 2728 4690 
Q 3069 4631 3425 4513 
z
" transform="scale(0.015625)"/>
      <path id="DejaVuSans-54" d="M -19 4666 
L 3928 4666 
L 3928 4134 
L 2272 4134 
L 2272 0 
L 1638 0 
L 1638 4134 
L -19 4134 
L -19 4666 
z
" transform="scale(0.015625)"/>
      <path id="DejaVuSans-4d" d="M 628 4666 
L 1569 4666 
L 2759 1491 
L 3956 4666 
L 4897 4666 
L 4897 0 
L 4281 0 
L 4281 4097 
L 3078 897 
L 2444 897 
L 1241 4097 
L 1241 0 
L 628 0 
L 628 4666 
z
" transform="scale(0.015625)"/>
      <path id="DejaVuSans-4e" d="M 628 4666 
L 1478 4666 
L 3547 763 
L 3547 4666 
L 4159 4666 
L 4159 0 
L 3309 0 
L 1241 3903 
L 1241 0 
L 628 0 
L 628 4666 
z
" transform="scale(0.015625)"/>
      <path id="DejaVuSans-76" d="M 191 3500 
L 800 3500 
L 1894 563 
L 2988 3500 
L 3597 3500 
L 2284 0 
L 1503 0 
L 191 3500 
z
" transform="scale(0.015625)"/>
     </defs>
     <use xlink:href="#DejaVuSans-56"/>
     <use xlink:href="#DejaVuSans-6f" transform="translate(60.658203 0)"/>
     <use xlink:href="#DejaVuSans-6c" transform="translate(121.839844 0)"/>
     <use xlink:href="#DejaVuSans-61" transform="translate(149.623047 0)"/>
     <use xlink:href="#DejaVuSans-74" transform="translate(210.902344 0)"/>
     <use xlink:href="#DejaVuSans-69" transform="translate(250.111328 0)"/>
     <use xlink:href="#DejaVuSans-6c" transform="translate(277.894531 0)"/>
     <use xlink:href="#DejaVuSans-69" transform="translate(305.677734 0)"/>
     <use xlink:href="#DejaVuSans-74" transform="translate(333.460938 0)"/>
     <use xlink:href="#DejaVuSans-79" transform="translate(372.669922 0)"/>
     <use xlink:href="#DejaVuSans-20" transform="translate(431.849609 0)"/>
     <use xlink:href="#DejaVuSans-50" transform="translate(463.636719 0)"/>
     <use xlink:href="#DejaVuSans-72" transform="translate(522.189453 0)"/>
     <use xlink:href="#DejaVuSans-65" transform="translate(561.052734 0)"/>
     <use xlink:href="#DejaVuSans-64" transform="translate(622.576172 0)"/>
     <use xlink:href="#DejaVuSans-69" transform="translate(686.052734 0)"/>
     <use xlink:href="#DejaVuSans-63" transform="translate(713.835938 0)"/>
     <use xlink:href="#DejaVuSans-74" transform="translate(768.816406 0)"/>
     <use xlink:href="#DejaVuSans-69" transform="translate(808.025391 0)"/>
     <use xlink:href="#DejaVuSans-6f" transform="translate(835.808594 0)"/>
     <use xlink:href="#DejaVuSans-6e" transform="translate(896.990234 0)"/>
     <use xlink:href="#DejaVuSans-20" transform="translate(960.369141 0)"/>
     <use xlink:href="#DejaVuSans-77" transform="translate(992.15625 0)"/>
     <use xlink:href="#DejaVuSans-69" transform="translate(1073.943359 0)"/>
     <use xlink:href="#DejaVuSans-74" transform="translate(1101.726562 0)"/>
     <use xlink:href="#DejaVuSans-68" transform="translate(1140.935547 0)"/>
     <use xlink:href="#DejaVuSans-20" transform="translate(1204.314453 0)"/>
     <use xlink:href="#DejaVuSans-4c" transform="translate(1236.101562 0)"/>
     <use xlink:href="#DejaVuSans-53" transform="translate(1291.814453 0)"/>
     <use xlink:href="#DejaVuSans-54" transform="translate(1355.291016 0)"/>
     <use xlink:href="#DejaVuSans-4d" transform="translate(1416.375 0)"/>
     <use xlink:href="#DejaVuSans-20" transform="translate(1502.654297 0)"/>
     <use xlink:href="#DejaVuSans-4d" transform="translate(1534.441406 0)"/>
     <use xlink:href="#DejaVuSans-44" transform="translate(1620.720703 0)"/>
     <use xlink:href="#DejaVuSans-4e" transform="translate(1697.722656 0)"/>
     <use xlink:href="#DejaVuSans-20" transform="translate(1772.527344 0)"/>
     <use xlink:href="#DejaVuSans-76" transform="translate(1804.314453 0)"/>
     <use xlink:href="#DejaVuSans-32" transform="translate(1863.494141 0)"/>
    </g>
   </g>
   <g id="legend_1">
    <g id="patch_7">
     <path d="M 570.282812 89.19625 
L 770.6 89.19625 
Q 772.6 89.19625 772.6 87.19625 
L 772.6 58.84 
Q 772.6 56.84 770.6 56.84 
L 570.282812 56.84 
Q 568.282812 56.84 568.282812 58.84 
L 568.282812 87.19625 
Q 568.282812 89.19625 570.282812 89.19625 
z
" style="fill: #ffffff; opacity: 0.8; stroke: #cccccc; stroke-linejoin: miter"/>
    </g>
    <g id="line2d_18">
     <path d="M 572.282812 64.938437 
L 582.282812 64.938437 
L 592.282812 64.938437 
" style="fill: none; stroke: #000000; stroke-width: 1.5; stroke-linecap: square"/>
    </g>
    <g id="text_19">
     <!-- Absolute Returns -->
     <g transform="translate(600.282812 68.438437) scale(0.1 -0.1)">
      <defs>
       <path id="DejaVuSans-41" d="M 2188 4044 
L 1331 1722 
L 3047 1722 
L 2188 4044 
z
M 1831 4666 
L 2547 4666 
L 4325 0 
L 3669 0 
L 3244 1197 
L 1141 1197 
L 716 0 
L 50 0 
L 1831 4666 
z
" transform="scale(0.015625)"/>
       <path id="DejaVuSans-62" d="M 3116 1747 
Q 3116 2381 2855 2742 
Q 2594 3103 2138 3103 
Q 1681 3103 1420 2742 
Q 1159 2381 1159 1747 
Q 1159 1113 1420 752 
Q 1681 391 2138 391 
Q 2594 391 2855 752 
Q 3116 1113 3116 1747 
z
M 1159 2969 
Q 1341 3281 1617 3432 
Q 1894 3584 2278 3584 
Q 2916 3584 3314 3078 
Q 3713 2572 3713 1747 
Q 3713 922 3314 415 
Q 2916 -91 2278 -91 
Q 1894 -91 1617 61 
Q 1341 213 1159 525 
L 1159 0 
L 581 0 
L 581 4863 
L 1159 4863 
L 1159 2969 
z
" transform="scale(0.015625)"/>
       <path id="DejaVuSans-73" d="M 2834 3397 
L 2834 2853 
Q 2591 2978 2328 3040 
Q 2066 3103 1784 3103 
Q 1356 3103 1142 2972 
Q 928 2841 928 2578 
Q 928 2378 1081 2264 
Q 1234 2150 1697 2047 
L 1894 2003 
Q 2506 1872 2764 1633 
Q 3022 1394 3022 966 
Q 3022 478 2636 193 
Q 2250 -91 1575 -91 
Q 1294 -91 989 -36 
Q 684 19 347 128 
L 347 722 
Q 666 556 975 473 
Q 1284 391 1588 391 
Q 1994 391 2212 530 
Q 2431 669 2431 922 
Q 2431 1156 2273 1281 
Q 2116 1406 1581 1522 
L 1381 1569 
Q 847 1681 609 1914 
Q 372 2147 372 2553 
Q 372 3047 722 3315 
Q 1072 3584 1716 3584 
Q 2034 3584 2315 3537 
Q 2597 3491 2834 3397 
z
" transform="scale(0.015625)"/>
       <path id="DejaVuSans-75" d="M 544 1381 
L 544 3500 
L 1119 3500 
L 1119 1403 
Q 1119 906 1312 657 
Q 1506 409 1894 409 
Q 2359 409 2629 706 
Q 2900 1003 2900 1516 
L 2900 3500 
L 3475 3500 
L 3475 0 
L 2900 0 
L 2900 538 
Q 2691 219 2414 64 
Q 2138 -91 1772 -91 
Q 1169 -91 856 284 
Q 544 659 544 1381 
z
M 1991 3584 
L 1991 3584 
z
" transform="scale(0.015625)"/>
       <path id="DejaVuSans-52" d="M 2841 2188 
Q 3044 2119 3236 1894 
Q 3428 1669 3622 1275 
L 4263 0 
L 3584 0 
L 2988 1197 
Q 2756 1666 2539 1819 
Q 2322 1972 1947 1972 
L 1259 1972 
L 1259 0 
L 628 0 
L 628 4666 
L 2053 4666 
Q 2853 4666 3247 4331 
Q 3641 3997 3641 3322 
Q 3641 2881 3436 2590 
Q 3231 2300 2841 2188 
z
M 1259 4147 
L 1259 2491 
L 2053 2491 
Q 2509 2491 2742 2702 
Q 2975 2913 2975 3322 
Q 2975 3731 2742 3939 
Q 2509 4147 2053 4147 
L 1259 4147 
z
" transform="scale(0.015625)"/>
      </defs>
      <use xlink:href="#DejaVuSans-41"/>
      <use xlink:href="#DejaVuSans-62" transform="translate(68.408203 0)"/>
      <use xlink:href="#DejaVuSans-73" transform="translate(131.884766 0)"/>
      <use xlink:href="#DejaVuSans-6f" transform="translate(183.984375 0)"/>
      <use xlink:href="#DejaVuSans-6c" transform="translate(245.166016 0)"/>
      <use xlink:href="#DejaVuSans-75" transform="translate(272.949219 0)"/>
      <use xlink:href="#DejaVuSans-74" transform="translate(336.328125 0)"/>
      <use xlink:href="#DejaVuSans-65" transform="translate(375.537109 0)"/>
      <use xlink:href="#DejaVuSans-20" transform="translate(437.060547 0)"/>
      <use xlink:href="#DejaVuSans-52" transform="translate(468.847656 0)"/>
      <use xlink:href="#DejaVuSans-65" transform="translate(533.830078 0)"/>
      <use xlink:href="#DejaVuSans-74" transform="translate(595.353516 0)"/>
      <use xlink:href="#DejaVuSans-75" transform="translate(634.5625 0)"/>
      <use xlink:href="#DejaVuSans-72" transform="translate(697.941406 0)"/>
      <use xlink:href="#DejaVuSans-6e" transform="translate(737.304688 0)"/>
      <use xlink:href="#DejaVuSans-73" transform="translate(800.683594 0)"/>
     </g>
    </g>
    <g id="line2d_19">
     <path d="M 572.282812 79.616562 
L 582.282812 79.616562 
L 592.282812 79.616562 
" style="fill: none; stroke: #1f77b4; stroke-width: 1.5; stroke-linecap: square"/>
    </g>
    <g id="text_20">
     <!-- LSTM MDN v2 Volatility Prediction -->
     <g transform="translate(600.282812 83.116562) scale(0.1 -0.1)">
      <use xlink:href="#DejaVuSans-4c"/>
      <use xlink:href="#DejaVuSans-53" transform="translate(55.712891 0)"/>
      <use xlink:href="#DejaVuSans-54" transform="translate(119.189453 0)"/>
      <use xlink:href="#DejaVuSans-4d" transform="translate(180.273438 0)"/>
      <use xlink:href="#DejaVuSans-20" transform="translate(266.552734 0)"/>
      <use xlink:href="#DejaVuSans-4d" transform="translate(298.339844 0)"/>
      <use xlink:href="#DejaVuSans-44" transform="translate(384.619141 0)"/>
      <use xlink:href="#DejaVuSans-4e" transform="translate(461.621094 0)"/>
      <use xlink:href="#DejaVuSans-20" transform="translate(536.425781 0)"/>
      <use xlink:href="#DejaVuSans-76" transform="translate(568.212891 0)"/>
      <use xlink:href="#DejaVuSans-32" transform="translate(627.392578 0)"/>
      <use xlink:href="#DejaVuSans-20" transform="translate(691.015625 0)"/>
      <use xlink:href="#DejaVuSans-56" transform="translate(722.802734 0)"/>
      <use xlink:href="#DejaVuSans-6f" transform="translate(783.460938 0)"/>
      <use xlink:href="#DejaVuSans-6c" transform="translate(844.642578 0)"/>
      <use xlink:href="#DejaVuSans-61" transform="translate(872.425781 0)"/>
      <use xlink:href="#DejaVuSans-74" transform="translate(933.705078 0)"/>
      <use xlink:href="#DejaVuSans-69" transform="translate(972.914062 0)"/>
      <use xlink:href="#DejaVuSans-6c" transform="translate(1000.697266 0)"/>
      <use xlink:href="#DejaVuSans-69" transform="translate(1028.480469 0)"/>
      <use xlink:href="#DejaVuSans-74" transform="translate(1056.263672 0)"/>
      <use xlink:href="#DejaVuSans-79" transform="translate(1095.472656 0)"/>
      <use xlink:href="#DejaVuSans-20" transform="translate(1154.652344 0)"/>
      <use xlink:href="#DejaVuSans-50" transform="translate(1186.439453 0)"/>
      <use xlink:href="#DejaVuSans-72" transform="translate(1244.992188 0)"/>
      <use xlink:href="#DejaVuSans-65" transform="translate(1283.855469 0)"/>
      <use xlink:href="#DejaVuSans-64" transform="translate(1345.378906 0)"/>
      <use xlink:href="#DejaVuSans-69" transform="translate(1408.855469 0)"/>
      <use xlink:href="#DejaVuSans-63" transform="translate(1436.638672 0)"/>
      <use xlink:href="#DejaVuSans-74" transform="translate(1491.619141 0)"/>
      <use xlink:href="#DejaVuSans-69" transform="translate(1530.828125 0)"/>
      <use xlink:href="#DejaVuSans-6f" transform="translate(1558.611328 0)"/>
      <use xlink:href="#DejaVuSans-6e" transform="translate(1619.792969 0)"/>
     </g>
    </g>
   </g>
  </g>
 </g>
 <defs>
  <clipPath id="pf78318c5a0">
   <rect x="108" y="51.84" width="669.6" height="332.64"/>
  </clipPath>
 </defs>
</svg>
