<?xml version="1.0" encoding="utf-8" standalone="no"?>
<!DOCTYPE svg PUBLIC "-//W3C//DTD SVG 1.1//EN"
  "http://www.w3.org/Graphics/SVG/1.1/DTD/svg11.dtd">
<svg xmlns:xlink="http://www.w3.org/1999/xlink" width="864pt" height="432pt" viewBox="0 0 864 432" xmlns="http://www.w3.org/2000/svg" version="1.1">
 <metadata>
  <rdf:RDF xmlns:dc="http://purl.org/dc/elements/1.1/" xmlns:cc="http://creativecommons.org/ns#" xmlns:rdf="http://www.w3.org/1999/02/22-rdf-syntax-ns#">
   <cc:Work>
    <dc:type rdf:resource="http://purl.org/dc/dcmitype/StillImage"/>
    <dc:date>2025-02-11T16:46:22.033349</dc:date>
    <dc:format>image/svg+xml</dc:format>
    <dc:creator>
     <cc:Agent>
      <dc:title>Matplotlib v3.10.0, https://matplotlib.org/</dc:title>
     </cc:Agent>
    </dc:creator>
   </cc:Work>
  </rdf:RDF>
 </metadata>
 <defs>
  <style type="text/css">*{stroke-linejoin: round; stroke-linecap: butt}</style>
 </defs>
 <g id="figure_1">
  <g id="patch_1">
   <path d="M 0 432 
L 864 432 
L 864 0 
L 0 0 
z
" style="fill: #ffffff"/>
  </g>
  <g id="axes_1">
   <g id="patch_2">
    <path d="M 108 384.48 
L 777.6 384.48 
L 777.6 51.84 
L 108 51.84 
z
" style="fill: #ffffff"/>
   </g>
   <g id="matplotlib.axis_1">
    <g id="xtick_1">
     <g id="line2d_1">
      <defs>
       <path id="m943ec3b6a0" d="M 0 0 
L 0 3.5 
" style="stroke: #000000; stroke-width: 0.8"/>
      </defs>
      <g>
       <use xlink:href="#m943ec3b6a0" x="138.822612" y="384.48" style="stroke: #000000; stroke-width: 0.8"/>
      </g>
     </g>
     <g id="text_1">
      <!-- 2020-07 -->
      <g transform="translate(117.931206 399.078438) scale(0.1 -0.1)">
       <defs>
        <path id="DejaVuSans-32" d="M 1228 531 
L 3431 531 
L 3431 0 
L 469 0 
L 469 531 
Q 828 903 1448 1529 
Q 2069 2156 2228 2338 
Q 2531 2678 2651 2914 
Q 2772 3150 2772 3378 
Q 2772 3750 2511 3984 
Q 2250 4219 1831 4219 
Q 1534 4219 1204 4116 
Q 875 4013 500 3803 
L 500 4441 
Q 881 4594 1212 4672 
Q 1544 4750 1819 4750 
Q 2544 4750 2975 4387 
Q 3406 4025 3406 3419 
Q 3406 3131 3298 2873 
Q 3191 2616 2906 2266 
Q 2828 2175 2409 1742 
Q 1991 1309 1228 531 
z
" transform="scale(0.015625)"/>
        <path id="DejaVuSans-30" d="M 2034 4250 
Q 1547 4250 1301 3770 
Q 1056 3291 1056 2328 
Q 1056 1369 1301 889 
Q 1547 409 2034 409 
Q 2525 409 2770 889 
Q 3016 1369 3016 2328 
Q 3016 3291 2770 3770 
Q 2525 4250 2034 4250 
z
M 2034 4750 
Q 2819 4750 3233 4129 
Q 3647 3509 3647 2328 
Q 3647 1150 3233 529 
Q 2819 -91 2034 -91 
Q 1250 -91 836 529 
Q 422 1150 422 2328 
Q 422 3509 836 4129 
Q 1250 4750 2034 4750 
z
" transform="scale(0.015625)"/>
        <path id="DejaVuSans-2d" d="M 313 2009 
L 1997 2009 
L 1997 1497 
L 313 1497 
L 313 2009 
z
" transform="scale(0.015625)"/>
        <path id="DejaVuSans-37" d="M 525 4666 
L 3525 4666 
L 3525 4397 
L 1831 0 
L 1172 0 
L 2766 4134 
L 525 4134 
L 525 4666 
z
" transform="scale(0.015625)"/>
       </defs>
       <use xlink:href="#DejaVuSans-32"/>
       <use xlink:href="#DejaVuSans-30" transform="translate(63.623047 0)"/>
       <use xlink:href="#DejaVuSans-32" transform="translate(127.246094 0)"/>
       <use xlink:href="#DejaVuSans-30" transform="translate(190.869141 0)"/>
       <use xlink:href="#DejaVuSans-2d" transform="translate(254.492188 0)"/>
       <use xlink:href="#DejaVuSans-30" transform="translate(290.576172 0)"/>
       <use xlink:href="#DejaVuSans-37" transform="translate(354.199219 0)"/>
      </g>
     </g>
    </g>
    <g id="xtick_2">
     <g id="line2d_2">
      <g>
       <use xlink:href="#m943ec3b6a0" x="209.892293" y="384.48" style="stroke: #000000; stroke-width: 0.8"/>
      </g>
     </g>
     <g id="text_2">
      <!-- 2021-01 -->
      <g transform="translate(189.000887 399.078438) scale(0.1 -0.1)">
       <defs>
        <path id="DejaVuSans-31" d="M 794 531 
L 1825 531 
L 1825 4091 
L 703 3866 
L 703 4441 
L 1819 4666 
L 2450 4666 
L 2450 531 
L 3481 531 
L 3481 0 
L 794 0 
L 794 531 
z
" transform="scale(0.015625)"/>
       </defs>
       <use xlink:href="#DejaVuSans-32"/>
       <use xlink:href="#DejaVuSans-30" transform="translate(63.623047 0)"/>
       <use xlink:href="#DejaVuSans-32" transform="translate(127.246094 0)"/>
       <use xlink:href="#DejaVuSans-31" transform="translate(190.869141 0)"/>
       <use xlink:href="#DejaVuSans-2d" transform="translate(254.492188 0)"/>
       <use xlink:href="#DejaVuSans-30" transform="translate(290.576172 0)"/>
       <use xlink:href="#DejaVuSans-31" transform="translate(354.199219 0)"/>
      </g>
     </g>
    </g>
    <g id="xtick_3">
     <g id="line2d_3">
      <g>
       <use xlink:href="#m943ec3b6a0" x="279.80323" y="384.48" style="stroke: #000000; stroke-width: 0.8"/>
      </g>
     </g>
     <g id="text_3">
      <!-- 2021-07 -->
      <g transform="translate(258.911824 399.078438) scale(0.1 -0.1)">
       <use xlink:href="#DejaVuSans-32"/>
       <use xlink:href="#DejaVuSans-30" transform="translate(63.623047 0)"/>
       <use xlink:href="#DejaVuSans-32" transform="translate(127.246094 0)"/>
       <use xlink:href="#DejaVuSans-31" transform="translate(190.869141 0)"/>
       <use xlink:href="#DejaVuSans-2d" transform="translate(254.492188 0)"/>
       <use xlink:href="#DejaVuSans-30" transform="translate(290.576172 0)"/>
       <use xlink:href="#DejaVuSans-37" transform="translate(354.199219 0)"/>
      </g>
     </g>
    </g>
    <g id="xtick_4">
     <g id="line2d_4">
      <g>
       <use xlink:href="#m943ec3b6a0" x="350.872912" y="384.48" style="stroke: #000000; stroke-width: 0.8"/>
      </g>
     </g>
     <g id="text_4">
      <!-- 2022-01 -->
      <g transform="translate(329.981506 399.078438) scale(0.1 -0.1)">
       <use xlink:href="#DejaVuSans-32"/>
       <use xlink:href="#DejaVuSans-30" transform="translate(63.623047 0)"/>
       <use xlink:href="#DejaVuSans-32" transform="translate(127.246094 0)"/>
       <use xlink:href="#DejaVuSans-32" transform="translate(190.869141 0)"/>
       <use xlink:href="#DejaVuSans-2d" transform="translate(254.492188 0)"/>
       <use xlink:href="#DejaVuSans-30" transform="translate(290.576172 0)"/>
       <use xlink:href="#DejaVuSans-31" transform="translate(354.199219 0)"/>
      </g>
     </g>
    </g>
    <g id="xtick_5">
     <g id="line2d_5">
      <g>
       <use xlink:href="#m943ec3b6a0" x="420.783849" y="384.48" style="stroke: #000000; stroke-width: 0.8"/>
      </g>
     </g>
     <g id="text_5">
      <!-- 2022-07 -->
      <g transform="translate(399.892442 399.078438) scale(0.1 -0.1)">
       <use xlink:href="#DejaVuSans-32"/>
       <use xlink:href="#DejaVuSans-30" transform="translate(63.623047 0)"/>
       <use xlink:href="#DejaVuSans-32" transform="translate(127.246094 0)"/>
       <use xlink:href="#DejaVuSans-32" transform="translate(190.869141 0)"/>
       <use xlink:href="#DejaVuSans-2d" transform="translate(254.492188 0)"/>
       <use xlink:href="#DejaVuSans-30" transform="translate(290.576172 0)"/>
       <use xlink:href="#DejaVuSans-37" transform="translate(354.199219 0)"/>
      </g>
     </g>
    </g>
    <g id="xtick_6">
     <g id="line2d_6">
      <g>
       <use xlink:href="#m943ec3b6a0" x="491.85353" y="384.48" style="stroke: #000000; stroke-width: 0.8"/>
      </g>
     </g>
     <g id="text_6">
      <!-- 2023-01 -->
      <g transform="translate(470.962124 399.078438) scale(0.1 -0.1)">
       <defs>
        <path id="DejaVuSans-33" d="M 2597 2516 
Q 3050 2419 3304 2112 
Q 3559 1806 3559 1356 
Q 3559 666 3084 287 
Q 2609 -91 1734 -91 
Q 1441 -91 1130 -33 
Q 819 25 488 141 
L 488 750 
Q 750 597 1062 519 
Q 1375 441 1716 441 
Q 2309 441 2620 675 
Q 2931 909 2931 1356 
Q 2931 1769 2642 2001 
Q 2353 2234 1838 2234 
L 1294 2234 
L 1294 2753 
L 1863 2753 
Q 2328 2753 2575 2939 
Q 2822 3125 2822 3475 
Q 2822 3834 2567 4026 
Q 2313 4219 1838 4219 
Q 1578 4219 1281 4162 
Q 984 4106 628 3988 
L 628 4550 
Q 988 4650 1302 4700 
Q 1616 4750 1894 4750 
Q 2613 4750 3031 4423 
Q 3450 4097 3450 3541 
Q 3450 3153 3228 2886 
Q 3006 2619 2597 2516 
z
" transform="scale(0.015625)"/>
       </defs>
       <use xlink:href="#DejaVuSans-32"/>
       <use xlink:href="#DejaVuSans-30" transform="translate(63.623047 0)"/>
       <use xlink:href="#DejaVuSans-32" transform="translate(127.246094 0)"/>
       <use xlink:href="#DejaVuSans-33" transform="translate(190.869141 0)"/>
       <use xlink:href="#DejaVuSans-2d" transform="translate(254.492188 0)"/>
       <use xlink:href="#DejaVuSans-30" transform="translate(290.576172 0)"/>
       <use xlink:href="#DejaVuSans-31" transform="translate(354.199219 0)"/>
      </g>
     </g>
    </g>
    <g id="xtick_7">
     <g id="line2d_7">
      <g>
       <use xlink:href="#m943ec3b6a0" x="561.764467" y="384.48" style="stroke: #000000; stroke-width: 0.8"/>
      </g>
     </g>
     <g id="text_7">
      <!-- 2023-07 -->
      <g transform="translate(540.873061 399.078438) scale(0.1 -0.1)">
       <use xlink:href="#DejaVuSans-32"/>
       <use xlink:href="#DejaVuSans-30" transform="translate(63.623047 0)"/>
       <use xlink:href="#DejaVuSans-32" transform="translate(127.246094 0)"/>
       <use xlink:href="#DejaVuSans-33" transform="translate(190.869141 0)"/>
       <use xlink:href="#DejaVuSans-2d" transform="translate(254.492188 0)"/>
       <use xlink:href="#DejaVuSans-30" transform="translate(290.576172 0)"/>
       <use xlink:href="#DejaVuSans-37" transform="translate(354.199219 0)"/>
      </g>
     </g>
    </g>
    <g id="xtick_8">
     <g id="line2d_8">
      <g>
       <use xlink:href="#m943ec3b6a0" x="632.834149" y="384.48" style="stroke: #000000; stroke-width: 0.8"/>
      </g>
     </g>
     <g id="text_8">
      <!-- 2024-01 -->
      <g transform="translate(611.942742 399.078438) scale(0.1 -0.1)">
       <defs>
        <path id="DejaVuSans-34" d="M 2419 4116 
L 825 1625 
L 2419 1625 
L 2419 4116 
z
M 2253 4666 
L 3047 4666 
L 3047 1625 
L 3713 1625 
L 3713 1100 
L 3047 1100 
L 3047 0 
L 2419 0 
L 2419 1100 
L 313 1100 
L 313 1709 
L 2253 4666 
z
" transform="scale(0.015625)"/>
       </defs>
       <use xlink:href="#DejaVuSans-32"/>
       <use xlink:href="#DejaVuSans-30" transform="translate(63.623047 0)"/>
       <use xlink:href="#DejaVuSans-32" transform="translate(127.246094 0)"/>
       <use xlink:href="#DejaVuSans-34" transform="translate(190.869141 0)"/>
       <use xlink:href="#DejaVuSans-2d" transform="translate(254.492188 0)"/>
       <use xlink:href="#DejaVuSans-30" transform="translate(290.576172 0)"/>
       <use xlink:href="#DejaVuSans-31" transform="translate(354.199219 0)"/>
      </g>
     </g>
    </g>
    <g id="xtick_9">
     <g id="line2d_9">
      <g>
       <use xlink:href="#m943ec3b6a0" x="703.131334" y="384.48" style="stroke: #000000; stroke-width: 0.8"/>
      </g>
     </g>
     <g id="text_9">
      <!-- 2024-07 -->
      <g transform="translate(682.239927 399.078438) scale(0.1 -0.1)">
       <use xlink:href="#DejaVuSans-32"/>
       <use xlink:href="#DejaVuSans-30" transform="translate(63.623047 0)"/>
       <use xlink:href="#DejaVuSans-32" transform="translate(127.246094 0)"/>
       <use xlink:href="#DejaVuSans-34" transform="translate(190.869141 0)"/>
       <use xlink:href="#DejaVuSans-2d" transform="translate(254.492188 0)"/>
       <use xlink:href="#DejaVuSans-30" transform="translate(290.576172 0)"/>
       <use xlink:href="#DejaVuSans-37" transform="translate(354.199219 0)"/>
      </g>
     </g>
    </g>
    <g id="xtick_10">
     <g id="line2d_10">
      <g>
       <use xlink:href="#m943ec3b6a0" x="774.201015" y="384.48" style="stroke: #000000; stroke-width: 0.8"/>
      </g>
     </g>
     <g id="text_10">
      <!-- 2025-01 -->
      <g transform="translate(753.309609 399.078438) scale(0.1 -0.1)">
       <defs>
        <path id="DejaVuSans-35" d="M 691 4666 
L 3169 4666 
L 3169 4134 
L 1269 4134 
L 1269 2991 
Q 1406 3038 1543 3061 
Q 1681 3084 1819 3084 
Q 2600 3084 3056 2656 
Q 3513 2228 3513 1497 
Q 3513 744 3044 326 
Q 2575 -91 1722 -91 
Q 1428 -91 1123 -41 
Q 819 9 494 109 
L 494 744 
Q 775 591 1075 516 
Q 1375 441 1709 441 
Q 2250 441 2565 725 
Q 2881 1009 2881 1497 
Q 2881 1984 2565 2268 
Q 2250 2553 1709 2553 
Q 1456 2553 1204 2497 
Q 953 2441 691 2322 
L 691 4666 
z
" transform="scale(0.015625)"/>
       </defs>
       <use xlink:href="#DejaVuSans-32"/>
       <use xlink:href="#DejaVuSans-30" transform="translate(63.623047 0)"/>
       <use xlink:href="#DejaVuSans-32" transform="translate(127.246094 0)"/>
       <use xlink:href="#DejaVuSans-35" transform="translate(190.869141 0)"/>
       <use xlink:href="#DejaVuSans-2d" transform="translate(254.492188 0)"/>
       <use xlink:href="#DejaVuSans-30" transform="translate(290.576172 0)"/>
       <use xlink:href="#DejaVuSans-31" transform="translate(354.199219 0)"/>
      </g>
     </g>
    </g>
    <g id="text_11">
     <!-- Date -->
     <g transform="translate(430.849219 412.756563) scale(0.1 -0.1)">
      <defs>
       <path id="DejaVuSans-44" d="M 1259 4147 
L 1259 519 
L 2022 519 
Q 2988 519 3436 956 
Q 3884 1394 3884 2338 
Q 3884 3275 3436 3711 
Q 2988 4147 2022 4147 
L 1259 4147 
z
M 628 4666 
L 1925 4666 
Q 3281 4666 3915 4102 
Q 4550 3538 4550 2338 
Q 4550 1131 3912 565 
Q 3275 0 1925 0 
L 628 0 
L 628 4666 
z
" transform="scale(0.015625)"/>
       <path id="DejaVuSans-61" d="M 2194 1759 
Q 1497 1759 1228 1600 
Q 959 1441 959 1056 
Q 959 750 1161 570 
Q 1363 391 1709 391 
Q 2188 391 2477 730 
Q 2766 1069 2766 1631 
L 2766 1759 
L 2194 1759 
z
M 3341 1997 
L 3341 0 
L 2766 0 
L 2766 531 
Q 2569 213 2275 61 
Q 1981 -91 1556 -91 
Q 1019 -91 701 211 
Q 384 513 384 1019 
Q 384 1609 779 1909 
Q 1175 2209 1959 2209 
L 2766 2209 
L 2766 2266 
Q 2766 2663 2505 2880 
Q 2244 3097 1772 3097 
Q 1472 3097 1187 3025 
Q 903 2953 641 2809 
L 641 3341 
Q 956 3463 1253 3523 
Q 1550 3584 1831 3584 
Q 2591 3584 2966 3190 
Q 3341 2797 3341 1997 
z
" transform="scale(0.015625)"/>
       <path id="DejaVuSans-74" d="M 1172 4494 
L 1172 3500 
L 2356 3500 
L 2356 3053 
L 1172 3053 
L 1172 1153 
Q 1172 725 1289 603 
Q 1406 481 1766 481 
L 2356 481 
L 2356 0 
L 1766 0 
Q 1100 0 847 248 
Q 594 497 594 1153 
L 594 3053 
L 172 3053 
L 172 3500 
L 594 3500 
L 594 4494 
L 1172 4494 
z
" transform="scale(0.015625)"/>
       <path id="DejaVuSans-65" d="M 3597 1894 
L 3597 1613 
L 953 1613 
Q 991 1019 1311 708 
Q 1631 397 2203 397 
Q 2534 397 2845 478 
Q 3156 559 3463 722 
L 3463 178 
Q 3153 47 2828 -22 
Q 2503 -91 2169 -91 
Q 1331 -91 842 396 
Q 353 884 353 1716 
Q 353 2575 817 3079 
Q 1281 3584 2069 3584 
Q 2775 3584 3186 3129 
Q 3597 2675 3597 1894 
z
M 3022 2063 
Q 3016 2534 2758 2815 
Q 2500 3097 2075 3097 
Q 1594 3097 1305 2825 
Q 1016 2553 972 2059 
L 3022 2063 
z
" transform="scale(0.015625)"/>
      </defs>
      <use xlink:href="#DejaVuSans-44"/>
      <use xlink:href="#DejaVuSans-61" transform="translate(77.001953 0)"/>
      <use xlink:href="#DejaVuSans-74" transform="translate(138.28125 0)"/>
      <use xlink:href="#DejaVuSans-65" transform="translate(177.490234 0)"/>
     </g>
    </g>
   </g>
   <g id="matplotlib.axis_2">
    <g id="ytick_1">
     <g id="line2d_11">
      <defs>
       <path id="mec0fb8be36" d="M 0 0 
L -3.5 0 
" style="stroke: #000000; stroke-width: 0.8"/>
      </defs>
      <g>
       <use xlink:href="#mec0fb8be36" x="108" y="369.513808" style="stroke: #000000; stroke-width: 0.8"/>
      </g>
     </g>
     <g id="text_12">
      <!-- 0.00 -->
      <g transform="translate(78.734375 373.313026) scale(0.1 -0.1)">
       <defs>
        <path id="DejaVuSans-2e" d="M 684 794 
L 1344 794 
L 1344 0 
L 684 0 
L 684 794 
z
" transform="scale(0.015625)"/>
       </defs>
       <use xlink:href="#DejaVuSans-30"/>
       <use xlink:href="#DejaVuSans-2e" transform="translate(63.623047 0)"/>
       <use xlink:href="#DejaVuSans-30" transform="translate(95.410156 0)"/>
       <use xlink:href="#DejaVuSans-30" transform="translate(159.033203 0)"/>
      </g>
     </g>
    </g>
    <g id="ytick_2">
     <g id="line2d_12">
      <g>
       <use xlink:href="#mec0fb8be36" x="108" y="309.78732" style="stroke: #000000; stroke-width: 0.8"/>
      </g>
     </g>
     <g id="text_13">
      <!-- 0.02 -->
      <g transform="translate(78.734375 313.586539) scale(0.1 -0.1)">
       <use xlink:href="#DejaVuSans-30"/>
       <use xlink:href="#DejaVuSans-2e" transform="translate(63.623047 0)"/>
       <use xlink:href="#DejaVuSans-30" transform="translate(95.410156 0)"/>
       <use xlink:href="#DejaVuSans-32" transform="translate(159.033203 0)"/>
      </g>
     </g>
    </g>
    <g id="ytick_3">
     <g id="line2d_13">
      <g>
       <use xlink:href="#mec0fb8be36" x="108" y="250.060833" style="stroke: #000000; stroke-width: 0.8"/>
      </g>
     </g>
     <g id="text_14">
      <!-- 0.04 -->
      <g transform="translate(78.734375 253.860052) scale(0.1 -0.1)">
       <use xlink:href="#DejaVuSans-30"/>
       <use xlink:href="#DejaVuSans-2e" transform="translate(63.623047 0)"/>
       <use xlink:href="#DejaVuSans-30" transform="translate(95.410156 0)"/>
       <use xlink:href="#DejaVuSans-34" transform="translate(159.033203 0)"/>
      </g>
     </g>
    </g>
    <g id="ytick_4">
     <g id="line2d_14">
      <g>
       <use xlink:href="#mec0fb8be36" x="108" y="190.334346" style="stroke: #000000; stroke-width: 0.8"/>
      </g>
     </g>
     <g id="text_15">
      <!-- 0.06 -->
      <g transform="translate(78.734375 194.133565) scale(0.1 -0.1)">
       <defs>
        <path id="DejaVuSans-36" d="M 2113 2584 
Q 1688 2584 1439 2293 
Q 1191 2003 1191 1497 
Q 1191 994 1439 701 
Q 1688 409 2113 409 
Q 2538 409 2786 701 
Q 3034 994 3034 1497 
Q 3034 2003 2786 2293 
Q 2538 2584 2113 2584 
z
M 3366 4563 
L 3366 3988 
Q 3128 4100 2886 4159 
Q 2644 4219 2406 4219 
Q 1781 4219 1451 3797 
Q 1122 3375 1075 2522 
Q 1259 2794 1537 2939 
Q 1816 3084 2150 3084 
Q 2853 3084 3261 2657 
Q 3669 2231 3669 1497 
Q 3669 778 3244 343 
Q 2819 -91 2113 -91 
Q 1303 -91 875 529 
Q 447 1150 447 2328 
Q 447 3434 972 4092 
Q 1497 4750 2381 4750 
Q 2619 4750 2861 4703 
Q 3103 4656 3366 4563 
z
" transform="scale(0.015625)"/>
       </defs>
       <use xlink:href="#DejaVuSans-30"/>
       <use xlink:href="#DejaVuSans-2e" transform="translate(63.623047 0)"/>
       <use xlink:href="#DejaVuSans-30" transform="translate(95.410156 0)"/>
       <use xlink:href="#DejaVuSans-36" transform="translate(159.033203 0)"/>
      </g>
     </g>
    </g>
    <g id="ytick_5">
     <g id="line2d_15">
      <g>
       <use xlink:href="#mec0fb8be36" x="108" y="130.607859" style="stroke: #000000; stroke-width: 0.8"/>
      </g>
     </g>
     <g id="text_16">
      <!-- 0.08 -->
      <g transform="translate(78.734375 134.407078) scale(0.1 -0.1)">
       <defs>
        <path id="DejaVuSans-38" d="M 2034 2216 
Q 1584 2216 1326 1975 
Q 1069 1734 1069 1313 
Q 1069 891 1326 650 
Q 1584 409 2034 409 
Q 2484 409 2743 651 
Q 3003 894 3003 1313 
Q 3003 1734 2745 1975 
Q 2488 2216 2034 2216 
z
M 1403 2484 
Q 997 2584 770 2862 
Q 544 3141 544 3541 
Q 544 4100 942 4425 
Q 1341 4750 2034 4750 
Q 2731 4750 3128 4425 
Q 3525 4100 3525 3541 
Q 3525 3141 3298 2862 
Q 3072 2584 2669 2484 
Q 3125 2378 3379 2068 
Q 3634 1759 3634 1313 
Q 3634 634 3220 271 
Q 2806 -91 2034 -91 
Q 1263 -91 848 271 
Q 434 634 434 1313 
Q 434 1759 690 2068 
Q 947 2378 1403 2484 
z
M 1172 3481 
Q 1172 3119 1398 2916 
Q 1625 2713 2034 2713 
Q 2441 2713 2670 2916 
Q 2900 3119 2900 3481 
Q 2900 3844 2670 4047 
Q 2441 4250 2034 4250 
Q 1625 4250 1398 4047 
Q 1172 3844 1172 3481 
z
" transform="scale(0.015625)"/>
       </defs>
       <use xlink:href="#DejaVuSans-30"/>
       <use xlink:href="#DejaVuSans-2e" transform="translate(63.623047 0)"/>
       <use xlink:href="#DejaVuSans-30" transform="translate(95.410156 0)"/>
       <use xlink:href="#DejaVuSans-38" transform="translate(159.033203 0)"/>
      </g>
     </g>
    </g>
    <g id="ytick_6">
     <g id="line2d_16">
      <g>
       <use xlink:href="#mec0fb8be36" x="108" y="70.881372" style="stroke: #000000; stroke-width: 0.8"/>
      </g>
     </g>
     <g id="text_17">
      <!-- 0.10 -->
      <g transform="translate(78.734375 74.680591) scale(0.1 -0.1)">
       <use xlink:href="#DejaVuSans-30"/>
       <use xlink:href="#DejaVuSans-2e" transform="translate(63.623047 0)"/>
       <use xlink:href="#DejaVuSans-31" transform="translate(95.410156 0)"/>
       <use xlink:href="#DejaVuSans-30" transform="translate(159.033203 0)"/>
      </g>
     </g>
    </g>
    <g id="text_18">
     <!-- Volatility -->
     <g transform="translate(72.654687 239.752187) rotate(-90) scale(0.1 -0.1)">
      <defs>
       <path id="DejaVuSans-56" d="M 1831 0 
L 50 4666 
L 709 4666 
L 2188 738 
L 3669 4666 
L 4325 4666 
L 2547 0 
L 1831 0 
z
" transform="scale(0.015625)"/>
       <path id="DejaVuSans-6f" d="M 1959 3097 
Q 1497 3097 1228 2736 
Q 959 2375 959 1747 
Q 959 1119 1226 758 
Q 1494 397 1959 397 
Q 2419 397 2687 759 
Q 2956 1122 2956 1747 
Q 2956 2369 2687 2733 
Q 2419 3097 1959 3097 
z
M 1959 3584 
Q 2709 3584 3137 3096 
Q 3566 2609 3566 1747 
Q 3566 888 3137 398 
Q 2709 -91 1959 -91 
Q 1206 -91 779 398 
Q 353 888 353 1747 
Q 353 2609 779 3096 
Q 1206 3584 1959 3584 
z
" transform="scale(0.015625)"/>
       <path id="DejaVuSans-6c" d="M 603 4863 
L 1178 4863 
L 1178 0 
L 603 0 
L 603 4863 
z
" transform="scale(0.015625)"/>
       <path id="DejaVuSans-69" d="M 603 3500 
L 1178 3500 
L 1178 0 
L 603 0 
L 603 3500 
z
M 603 4863 
L 1178 4863 
L 1178 4134 
L 603 4134 
L 603 4863 
z
" transform="scale(0.015625)"/>
       <path id="DejaVuSans-79" d="M 2059 -325 
Q 1816 -950 1584 -1140 
Q 1353 -1331 966 -1331 
L 506 -1331 
L 506 -850 
L 844 -850 
Q 1081 -850 1212 -737 
Q 1344 -625 1503 -206 
L 1606 56 
L 191 3500 
L 800 3500 
L 1894 763 
L 2988 3500 
L 3597 3500 
L 2059 -325 
z
" transform="scale(0.015625)"/>
      </defs>
      <use xlink:href="#DejaVuSans-56"/>
      <use xlink:href="#DejaVuSans-6f" transform="translate(60.658203 0)"/>
      <use xlink:href="#DejaVuSans-6c" transform="translate(121.839844 0)"/>
      <use xlink:href="#DejaVuSans-61" transform="translate(149.623047 0)"/>
      <use xlink:href="#DejaVuSans-74" transform="translate(210.902344 0)"/>
      <use xlink:href="#DejaVuSans-69" transform="translate(250.111328 0)"/>
      <use xlink:href="#DejaVuSans-6c" transform="translate(277.894531 0)"/>
      <use xlink:href="#DejaVuSans-69" transform="translate(305.677734 0)"/>
      <use xlink:href="#DejaVuSans-74" transform="translate(333.460938 0)"/>
      <use xlink:href="#DejaVuSans-79" transform="translate(372.669922 0)"/>
     </g>
    </g>
   </g>
   <g id="line2d_17">
    <path d="M 138.436364 329.873948 
L 138.822612 318.344876 
L 139.20886 314.656909 
L 140.753853 306.968463 
L 141.140102 348.435254 
L 141.52635 347.836356 
L 141.912598 339.739741 
L 142.298846 309.349633 
L 143.457591 310.041366 
L 143.843839 351.311743 
L 145.002584 364.689884 
L 146.161329 272.256806 
L 146.547577 355.557624 
L 146.933826 350.279161 
L 147.320074 267.234501 
L 147.706322 361.997629 
L 148.865067 333.52501 
L 149.251315 310.663068 
L 149.637563 326.670068 
L 150.023812 351.068315 
L 150.41006 273.429117 
L 151.568805 352.3274 
L 151.955053 350.250926 
L 152.341301 351.953033 
L 152.72755 316.307617 
L 153.113798 358.324976 
L 154.272543 366.29849 
L 155.045039 316.923192 
L 155.431287 346.156757 
L 155.817536 348.355967 
L 156.976281 349.280398 
L 157.362529 290.65258 
L 157.748777 348.227777 
L 158.135025 304.197823 
L 158.521274 367.001811 
L 159.680018 354.848972 
L 160.066267 332.105107 
L 160.452515 288.618173 
L 160.838763 336.712658 
L 161.225012 351.151806 
L 162.383756 350.877718 
L 162.770005 321.421826 
L 163.156253 250.414729 
L 163.542501 216.288156 
L 163.928749 275.654577 
L 165.473743 257.349504 
L 165.859991 322.011544 
L 166.246239 321.29035 
L 166.632487 347.405597 
L 167.791232 366.684413 
L 168.17748 326.270252 
L 168.563729 329.452907 
L 168.949977 319.278984 
L 169.336225 297.689483 
L 170.49497 309.953801 
L 170.881218 298.785891 
L 171.267467 265.317009 
L 171.653715 342.039667 
L 172.039963 334.861196 
L 173.198708 329.360106 
L 173.584956 359.72168 
L 173.971204 368.964936 
L 174.357453 328.164449 
L 174.743701 305.35886 
L 175.902446 313.526755 
L 176.288694 303.312018 
L 176.674942 355.472189 
L 177.061191 317.53456 
L 177.447439 311.221325 
L 178.606184 265.071996 
L 178.992432 364.702607 
L 179.37868 362.665647 
L 180.151177 343.045981 
L 181.309922 295.707753 
L 181.69617 328.310938 
L 182.082418 298.618106 
L 182.468666 328.524337 
L 182.854915 322.429776 
L 184.013659 276.075106 
L 184.399908 343.695315 
L 184.786156 201.74698 
L 185.172404 271.467067 
L 185.558653 268.775248 
L 186.717397 360.279965 
L 187.103646 325.432413 
L 187.489894 195.662067 
L 187.876142 345.299813 
L 188.26239 366.768981 
L 189.421135 367.395697 
L 189.807383 330.96727 
L 190.57988 364.619756 
L 190.966128 323.484209 
L 192.124873 362.19562 
L 192.511121 350.628106 
L 192.89737 329.824876 
L 193.283618 340.35373 
L 193.669866 332.496267 
L 194.828611 356.922765 
L 195.214859 311.51967 
L 195.601108 365.21177 
L 196.373604 333.05378 
L 197.532349 314.977691 
L 197.918597 306.811944 
L 198.304845 320.345255 
L 198.691094 367.585479 
L 199.077342 367.520168 
L 200.236087 355.578886 
L 200.622335 367.986964 
L 201.008583 312.449369 
L 201.394832 354.747861 
L 201.78108 358.70058 
L 202.939825 332.903315 
L 203.326073 356.460751 
L 203.712321 361.445047 
L 204.098569 343.825769 
L 204.484818 340.516635 
L 205.643563 355.125944 
L 206.029811 342.141708 
L 206.416059 354.166844 
L 206.802307 358.381627 
L 208.3473 306.232582 
L 208.733549 340.164078 
L 209.119797 336.73278 
L 209.506045 348.369652 
L 211.051038 328.94179 
L 211.437287 347.68347 
L 211.823535 359.840818 
L 212.209783 281.406568 
L 212.596031 336.347626 
L 213.754776 301.845258 
L 214.141024 335.223944 
L 214.527273 356.12156 
L 214.913521 345.21007 
L 215.299769 362.658668 
L 216.844762 276.929191 
L 217.231011 213.510193 
L 217.617259 362.637191 
L 218.003507 354.079419 
L 219.162252 366.920833 
L 219.5485 341.595894 
L 219.934749 231.727466 
L 220.320997 317.254265 
L 220.707245 325.317815 
L 221.86599 264.644747 
L 222.252238 328.705924 
L 222.638486 156.429441 
L 223.024735 358.384861 
L 223.410983 318.361894 
L 224.569728 362.259785 
L 224.955976 356.070921 
L 225.342224 352.548699 
L 225.728473 368.786902 
L 226.114721 357.824594 
L 227.659714 344.370832 
L 228.045962 360.50621 
L 228.818459 346.77468 
L 229.977204 317.528167 
L 230.363452 360.877872 
L 230.7497 334.661268 
L 231.135948 277.149303 
L 231.522197 361.43908 
L 232.680941 304.75785 
L 233.06719 361.367989 
L 233.453438 297.985143 
L 233.839686 336.71811 
L 234.225934 284.104907 
L 235.384679 247.564246 
L 235.770928 327.716484 
L 236.157176 366.125957 
L 236.543424 283.938868 
L 236.929672 293.93445 
L 238.088417 362.902289 
L 238.474665 332.132343 
L 238.860914 367.458055 
L 239.247162 290.120677 
L 239.63341 359.294236 
L 240.792155 362.768055 
L 241.178403 348.536913 
L 241.9509 368.491565 
L 242.337148 356.616505 
L 243.495893 339.734129 
L 243.882141 368.918207 
L 244.268389 350.556642 
L 244.654638 271.361505 
L 246.199631 249.313662 
L 246.585879 368.440326 
L 246.972127 336.23595 
L 247.358376 348.666175 
L 247.744624 342.69055 
L 248.903369 328.618485 
L 249.289617 353.030411 
L 249.675865 353.096494 
L 250.062114 314.634403 
L 250.448362 368.083823 
L 251.607107 363.489372 
L 251.993355 358.116988 
L 252.379603 369.070938 
L 253.1521 307.76821 
L 254.310844 354.794617 
L 254.697093 344.225281 
L 255.083341 276.750681 
L 255.855838 345.117118 
L 257.014582 350.931975 
L 257.400831 318.053514 
L 257.787079 366.357046 
L 258.173327 338.491155 
L 258.559575 347.847314 
L 259.71832 297.654817 
L 260.104569 327.258911 
L 260.490817 277.996327 
L 260.877065 339.139741 
L 261.263313 298.814108 
L 262.422058 362.7523 
L 262.808306 346.293759 
L 263.194555 362.676289 
L 263.580803 308.848117 
L 263.967051 355.551498 
L 265.125796 292.12005 
L 265.512044 366.537365 
L 265.898293 339.345679 
L 266.284541 331.202816 
L 266.670789 358.285791 
L 268.215782 346.999277 
L 268.60203 359.011723 
L 268.988279 348.882402 
L 269.374527 311.524194 
L 270.533272 352.110223 
L 270.91952 349.286733 
L 271.305768 359.247749 
L 271.692017 333.532075 
L 272.078265 360.416424 
L 273.23701 353.980891 
L 273.623258 361.964716 
L 274.009506 361.529982 
L 274.395754 353.531747 
L 274.782003 350.465234 
L 275.940748 348.480864 
L 276.326996 356.682786 
L 276.713244 356.83629 
L 277.099492 350.200804 
L 277.485741 362.772653 
L 278.644485 365.384044 
L 279.030734 350.592117 
L 279.416982 352.819749 
L 279.80323 344.537154 
L 280.189479 314.477497 
L 281.734472 345.206202 
L 282.12072 362.468789 
L 282.506968 348.76826 
L 282.893216 360.338677 
L 284.051961 346.795231 
L 284.43821 359.683135 
L 284.824458 344.812814 
L 285.596954 356.370245 
L 286.755699 310.231163 
L 287.141947 327.130698 
L 287.528196 335.562398 
L 287.914444 353.162935 
L 288.300692 270.656425 
L 289.459437 330.152583 
L 289.845685 307.978982 
L 290.231934 360.440562 
L 290.618182 366.034312 
L 291.00443 340.514134 
L 292.163175 352.589514 
L 292.549423 363.141312 
L 292.935671 363.99766 
L 293.32192 349.569808 
L 293.708168 367.421169 
L 294.866913 348.536259 
L 295.253161 367.469604 
L 296.025658 354.370153 
L 296.411906 369.157557 
L 297.570651 358.530108 
L 297.956899 334.581475 
L 298.343147 353.582827 
L 298.729395 362.012259 
L 299.115644 336.467147 
L 300.274389 312.624297 
L 300.660637 342.146768 
L 301.046885 357.970343 
L 301.433133 352.187124 
L 301.819382 318.937163 
L 302.978126 350.588115 
L 303.364375 369.36 
L 303.750623 361.72282 
L 304.136871 336.094227 
L 304.52312 358.022927 
L 306.068113 354.206291 
L 306.454361 356.443628 
L 306.840609 368.89554 
L 307.226857 307.199979 
L 308.385602 337.200357 
L 308.77185 368.285627 
L 309.158099 332.263679 
L 309.544347 352.343469 
L 309.930595 308.70632 
L 311.08934 317.415812 
L 311.475588 356.02156 
L 311.861837 342.011407 
L 312.248085 350.757129 
L 312.634333 352.580351 
L 313.793078 345.718677 
L 314.179326 255.137944 
L 314.565575 332.821847 
L 314.951823 341.511371 
L 315.338071 298.71879 
L 316.496816 309.890998 
L 316.883064 316.145205 
L 317.269312 343.813384 
L 317.655561 329.956894 
L 318.041809 350.8948 
L 319.200554 343.634004 
L 319.586802 323.248429 
L 319.97305 343.697268 
L 320.359299 294.411056 
L 320.745547 363.964948 
L 321.904292 342.539505 
L 322.29054 351.571571 
L 322.676788 340.154704 
L 323.063036 361.859205 
L 323.449285 281.309563 
L 324.60803 366.327331 
L 324.994278 350.230134 
L 325.380526 228.458757 
L 325.766774 363.419661 
L 326.153023 326.067328 
L 327.311767 277.548094 
L 327.698016 326.435381 
L 328.084264 350.59521 
L 328.470512 331.248345 
L 328.85676 358.327284 
L 330.015505 367.303429 
L 330.401754 367.453647 
L 330.788002 316.57357 
L 331.17425 367.030195 
L 331.560498 311.124368 
L 332.719243 364.370872 
L 333.105491 363.270355 
L 333.49174 369.233192 
L 333.877988 336.698524 
L 334.264236 354.485878 
L 335.422981 311.722245 
L 335.809229 362.978779 
L 336.195478 368.709821 
L 336.967974 288.817659 
L 338.126719 301.126789 
L 338.512967 293.714754 
L 338.899216 351.978688 
L 339.285464 324.340346 
L 339.671712 343.311066 
L 340.830457 342.895911 
L 341.216705 282.731826 
L 341.602953 355.747213 
L 341.989202 357.148977 
L 342.37545 358.062796 
L 343.534195 329.669109 
L 343.920443 334.006287 
L 344.306691 320.520335 
L 344.69294 317.79988 
L 345.079188 327.247401 
L 346.237933 361.10596 
L 346.624181 331.608849 
L 347.010429 313.543486 
L 347.396677 365.584119 
L 348.941671 350.869994 
L 349.327919 336.741352 
L 349.714167 368.361831 
L 350.100415 359.263571 
L 350.486664 342.329954 
L 351.645408 361.371963 
L 352.031657 355.938439 
L 352.417905 226.284226 
L 352.804153 367.289107 
L 353.190401 357.625434 
L 354.349146 335.497381 
L 354.735395 338.566791 
L 355.121643 334.939208 
L 355.507891 315.971521 
L 355.894139 355.477068 
L 357.439132 293.877266 
L 357.825381 355.490375 
L 358.597877 292.143185 
L 359.756622 363.093208 
L 360.14287 285.031747 
L 360.529119 311.074506 
L 360.915367 366.762754 
L 361.301615 274.627754 
L 362.46036 316.022668 
L 362.846608 321.919872 
L 363.232856 157.227843 
L 364.005353 361.871826 
L 365.164098 283.123202 
L 365.550346 363.608948 
L 365.936594 321.84487 
L 366.322843 308.719854 
L 366.709091 271.560695 
L 367.867836 343.577454 
L 368.254084 344.774593 
L 368.640332 346.356954 
L 369.026581 254.84883 
L 369.412829 327.668865 
L 370.957822 345.036487 
L 371.34407 327.272633 
L 371.730318 252.723548 
L 372.116567 328.248749 
L 373.275311 361.277771 
L 373.66156 353.464248 
L 374.434056 359.66895 
L 374.820305 320.508323 
L 375.979049 238.82015 
L 376.365298 350.353592 
L 376.751546 218.818942 
L 377.137794 342.983481 
L 377.524042 319.433409 
L 378.682787 282.791504 
L 379.069036 301.50344 
L 379.455284 278.10863 
L 379.841532 349.255723 
L 380.22778 321.07602 
L 381.386525 362.454547 
L 381.772773 287.522834 
L 382.159022 331.506789 
L 382.54527 309.564445 
L 382.931518 365.089688 
L 384.090263 360.485507 
L 384.476511 342.288999 
L 384.86276 356.864247 
L 385.249008 306.14468 
L 385.635256 347.133725 
L 386.794001 307.703929 
L 387.180249 315.398736 
L 387.566497 286.070265 
L 387.952746 353.995102 
L 388.338994 315.312008 
L 389.497739 274.099696 
L 389.883987 336.616328 
L 390.270235 325.375177 
L 390.656484 299.17159 
L 392.201477 352.944782 
L 392.587725 310.129933 
L 392.973973 316.762161 
L 393.360222 291.472871 
L 393.74647 239.478094 
L 394.905215 280.08852 
L 395.291463 277.390894 
L 395.677711 255.268455 
L 396.063959 257.630783 
L 396.450208 256.228407 
L 397.608952 313.149563 
L 397.995201 344.827071 
L 398.381449 259.194294 
L 398.767697 224.025576 
L 399.153946 341.591624 
L 400.31269 302.249891 
L 401.085187 353.219532 
L 401.471435 348.476165 
L 401.857683 282.275134 
L 403.016428 325.02308 
L 403.402677 320.259726 
L 403.788925 257.387633 
L 404.175173 325.202491 
L 404.561421 330.633642 
L 405.720166 305.901043 
L 406.106414 211.907683 
L 406.492663 367.074097 
L 407.265159 247.853017 
L 408.810152 336.864317 
L 409.196401 366.948608 
L 409.582649 276.548663 
L 409.968897 287.70006 
L 411.127642 306.412736 
L 411.51389 363.929701 
L 411.900138 369.297307 
L 412.286387 309.825475 
L 412.672635 277.401564 
L 413.83138 244.983646 
L 414.217628 360.655507 
L 414.603876 281.76417 
L 414.990125 266.178249 
L 415.376373 335.278845 
L 416.921366 256.786956 
L 417.307614 369.007385 
L 417.693862 352.224403 
L 418.080111 218.281241 
L 419.238856 320.862404 
L 419.625104 263.936483 
L 420.011352 361.145632 
L 420.3976 291.788837 
L 420.783849 361.544121 
L 422.328842 240.755445 
L 422.71509 334.931576 
L 423.101338 265.277106 
L 423.487587 348.002332 
L 424.646331 277.503457 
L 425.03258 326.326237 
L 425.418828 299.468054 
L 425.805076 349.562954 
L 426.191324 334.163562 
L 427.350069 292.879213 
L 427.736317 244.206292 
L 428.122566 367.430355 
L 428.508814 360.674573 
L 428.895062 190.869259 
L 430.053807 365.377009 
L 430.440055 292.073396 
L 430.826304 146.909012 
L 431.212552 343.601424 
L 431.5988 316.561037 
L 432.757545 339.665856 
L 433.143793 358.672316 
L 433.530042 296.213674 
L 433.91629 367.251817 
L 434.302538 353.139264 
L 435.461283 367.492218 
L 435.847531 353.292025 
L 436.233779 290.50919 
L 436.620028 348.898641 
L 437.006276 299.800547 
L 438.165021 363.919037 
L 438.551269 360.508337 
L 438.937517 315.647029 
L 439.323766 356.141052 
L 439.710014 301.032087 
L 440.868759 291.390237 
L 441.255007 361.717889 
L 441.641255 367.691854 
L 442.413752 202.549301 
L 443.572497 343.643844 
L 443.958745 357.853429 
L 444.344993 348.792344 
L 445.11749 318.566673 
L 446.662483 336.356731 
L 447.048731 287.301121 
L 447.434979 340.72305 
L 447.821228 305.788719 
L 448.979972 367.110221 
L 449.366221 189.052767 
L 449.752469 353.675555 
L 450.138717 313.421559 
L 450.524965 361.743164 
L 451.68371 363.180713 
L 452.069958 310.854151 
L 452.456207 315.656727 
L 452.842455 352.838778 
L 453.228703 327.650113 
L 454.387448 358.653319 
L 454.773696 347.673616 
L 455.159945 289.905771 
L 455.546193 289.905771 
L 455.932441 309.859293 
L 457.091186 273.246316 
L 457.477434 277.419154 
L 457.863683 363.9681 
L 458.249931 368.929669 
L 458.636179 290.489518 
L 459.794924 343.608453 
L 460.181172 349.479557 
L 460.56742 361.909209 
L 461.339917 292.762191 
L 462.498662 260.886322 
L 462.88491 351.492685 
L 463.271158 336.9376 
L 463.657407 362.375955 
L 464.043655 341.425666 
L 465.2024 325.98536 
L 465.588648 313.204367 
L 465.974896 66.96 
L 466.361144 298.764113 
L 466.747393 243.841591 
L 467.906138 309.548008 
L 468.292386 235.303277 
L 468.678634 254.129816 
L 469.064882 244.131335 
L 469.451131 256.848719 
L 470.609875 303.091381 
L 470.996124 360.768017 
L 471.382372 318.359973 
L 471.76862 146.715077 
L 472.154868 289.414655 
L 473.313613 347.824143 
L 473.699862 287.010796 
L 474.08611 361.357437 
L 474.858606 348.215522 
L 476.017351 308.745688 
L 476.403599 323.131777 
L 476.789848 324.143403 
L 477.562344 332.416096 
L 478.721089 327.918775 
L 479.107337 344.275873 
L 479.493586 187.144256 
L 479.879834 364.505473 
L 480.266082 356.215712 
L 481.424827 340.944894 
L 481.811075 291.96603 
L 482.197323 302.479415 
L 482.583572 331.611629 
L 482.96982 341.410111 
L 484.128565 353.832557 
L 484.514813 297.299892 
L 484.901061 352.641845 
L 485.28731 237.877085 
L 485.673558 358.359896 
L 486.832303 312.775121 
L 487.218551 353.478162 
L 487.604799 348.927454 
L 487.991048 302.92902 
L 488.377296 317.524073 
L 489.922289 306.337358 
L 490.308537 319.166833 
L 490.694785 284.72456 
L 491.081034 362.118799 
L 492.626027 337.044559 
L 493.012275 336.371213 
L 493.398523 303.481066 
L 493.784772 322.05369 
L 495.329765 354.753418 
L 495.716013 270.124885 
L 496.102261 358.163314 
L 496.488509 340.735211 
L 498.033503 348.847141 
L 498.419751 357.17479 
L 498.805999 301.000001 
L 499.192247 203.452634 
L 500.350992 312.016825 
L 500.73724 309.910504 
L 501.123489 293.91447 
L 501.509737 295.419764 
L 501.895985 323.194882 
L 503.05473 286.529894 
L 503.440978 311.542519 
L 503.827227 323.227152 
L 504.213475 160.045688 
L 504.599723 269.597503 
L 505.758468 319.42813 
L 506.144716 240.445436 
L 506.530964 138.577309 
L 506.917213 230.760565 
L 507.303461 350.68451 
L 508.462206 365.109682 
L 508.848454 367.941548 
L 509.234702 302.647155 
L 509.620951 328.63856 
L 510.007199 332.178307 
L 511.552192 288.226708 
L 511.93844 361.39217 
L 512.324689 345.671315 
L 512.710937 312.572923 
L 513.869682 344.551352 
L 514.25593 362.892092 
L 514.642178 362.576961 
L 515.028426 310.706851 
L 515.414675 314.69971 
L 516.573419 320.370488 
L 516.959668 325.131138 
L 517.345916 354.330577 
L 517.732164 306.057478 
L 518.118413 315.857008 
L 519.277157 348.261018 
L 519.663406 286.300753 
L 520.049654 297.512888 
L 520.435902 232.882592 
L 520.82215 328.723225 
L 521.980895 354.026242 
L 522.367144 257.102051 
L 522.753392 323.451474 
L 523.13964 311.624268 
L 523.525888 363.887595 
L 524.684633 283.825323 
L 525.45713 353.646232 
L 525.843378 352.467471 
L 526.229626 291.549608 
L 527.774619 363.542036 
L 528.160868 364.680251 
L 528.547116 259.180988 
L 530.092109 315.554997 
L 530.478357 346.247797 
L 530.864605 344.078843 
L 531.250854 286.387811 
L 531.637102 334.662763 
L 532.795847 285.401995 
L 533.568343 366.67141 
L 533.954592 344.594452 
L 534.34084 369.231766 
L 535.499585 345.082926 
L 535.885833 308.200159 
L 536.272081 364.942652 
L 536.658329 259.489064 
L 537.044578 365.377391 
L 538.203323 355.407063 
L 538.589571 321.159264 
L 538.975819 365.571482 
L 539.362067 343.794952 
L 539.748316 341.122932 
L 540.90706 313.115111 
L 541.293309 361.22549 
L 541.679557 251.792302 
L 542.065805 249.09583 
L 542.452054 343.570021 
L 543.610798 345.102324 
L 543.997047 290.646645 
L 544.383295 335.14648 
L 544.769543 319.78138 
L 545.155791 362.978995 
L 546.314536 306.696961 
L 546.700784 307.666018 
L 547.087033 329.277705 
L 547.473281 303.71224 
L 547.859529 343.689035 
L 549.404522 350.645436 
L 549.790771 338.929113 
L 550.177019 345.405141 
L 550.563267 348.934874 
L 551.722012 336.313784 
L 552.10826 339.47887 
L 552.494509 251.164373 
L 552.880757 362.947946 
L 553.267005 364.648786 
L 554.42575 333.7578 
L 554.811998 367.593143 
L 555.198246 368.313491 
L 555.584495 335.850515 
L 555.970743 328.157524 
L 557.515736 364.454508 
L 557.901984 306.400454 
L 558.288233 305.918142 
L 558.674481 348.950772 
L 559.833226 272.555508 
L 560.219474 367.507183 
L 560.605722 318.017755 
L 560.99197 343.005972 
L 561.378219 345.720266 
L 562.536964 359.375066 
L 563.30946 318.674218 
L 563.695708 327.825314 
L 564.081957 349.941008 
L 565.240701 287.104709 
L 565.62695 348.126543 
L 566.013198 321.445602 
L 566.399446 242.198583 
L 566.785695 348.772994 
L 567.944439 354.270149 
L 568.716936 338.060622 
L 569.103184 289.40043 
L 569.489432 350.089712 
L 570.648177 330.795495 
L 571.034425 347.299571 
L 571.420674 206.938067 
L 571.806922 364.681205 
L 572.19317 298.169445 
L 573.351915 367.269326 
L 573.738163 342.016863 
L 574.124412 295.003711 
L 574.51066 366.497322 
L 574.896908 364.174819 
L 576.055653 291.549227 
L 576.441901 367.249415 
L 576.82815 330.985882 
L 577.214398 368.137116 
L 577.600646 368.596084 
L 578.759391 331.671245 
L 579.145639 333.964677 
L 579.531887 342.802649 
L 579.918136 338.450184 
L 580.304384 315.230066 
L 581.463129 350.460192 
L 581.849377 351.961861 
L 582.235625 289.540416 
L 582.621874 306.30263 
L 583.008122 363.337708 
L 584.166867 344.48372 
L 584.553115 286.827916 
L 584.939363 337.942639 
L 585.325611 360.367699 
L 585.71186 357.531392 
L 587.256853 367.548554 
L 587.643101 340.097889 
L 588.029349 351.25949 
L 588.415598 347.667884 
L 589.574342 357.782937 
L 589.960591 333.085497 
L 590.346839 338.293566 
L 590.733087 337.326874 
L 591.119335 354.651567 
L 592.27808 355.296188 
L 592.664329 366.718626 
L 593.050577 276.886737 
L 593.436825 296.971681 
L 593.823073 367.012018 
L 594.981818 348.65416 
L 595.368066 307.415354 
L 595.754315 323.500548 
L 596.526811 340.662414 
L 597.685556 295.249079 
L 598.071804 327.911377 
L 598.458053 303.707185 
L 598.844301 363.371389 
L 599.230549 309.942092 
L 600.389294 352.984401 
L 600.775542 363.084624 
L 601.16179 316.356042 
L 601.548039 339.649178 
L 601.934287 332.88991 
L 603.093032 328.635323 
L 603.47928 358.904431 
L 603.865528 333.072533 
L 604.251777 363.074457 
L 604.638025 320.990055 
L 605.79677 344.287167 
L 606.183018 321.820945 
L 606.569266 68.152175 
L 606.955515 292.376938 
L 607.341763 368.545928 
L 608.500508 313.177739 
L 608.886756 358.808066 
L 609.273004 315.89631 
L 609.659252 345.963469 
L 610.045501 328.227183 
L 611.204246 344.87662 
L 611.590494 348.009079 
L 611.976742 350.178945 
L 612.749239 316.247491 
L 613.907983 360.14323 
L 614.294232 329.780061 
L 614.68048 348.638518 
L 615.066728 319.140003 
L 615.452976 331.37721 
L 616.99797 354.395398 
L 617.384218 339.504357 
L 618.156714 330.874735 
L 619.315459 365.838637 
L 619.701707 357.209014 
L 620.087956 321.300674 
L 620.474204 314.717421 
L 620.860452 356.104361 
L 622.019197 308.642449 
L 622.791694 347.780018 
L 623.177942 214.12074 
L 623.56419 330.215266 
L 624.722935 326.81037 
L 625.495431 362.148664 
L 625.88168 352.300132 
L 626.267928 355.199477 
L 627.426673 295.68645 
L 627.812921 349.770439 
L 628.585418 324.101633 
L 628.971666 350.201123 
L 630.516659 367.421977 
L 630.902907 340.517998 
L 631.289156 366.133623 
L 631.675404 362.106329 
L 633.220397 340.341413 
L 633.606645 352.444108 
L 633.992893 319.740425 
L 634.379142 355.418783 
L 635.537886 302.030678 
L 635.924135 326.684045 
L 636.310383 343.650686 
L 636.696631 366.812748 
L 637.08288 357.689078 
L 638.627873 366.199276 
L 639.400369 325.944192 
L 639.786617 308.757796 
L 640.945362 364.261994 
L 641.717859 336.157598 
L 642.104107 304.871086 
L 642.490355 366.599775 
L 643.6491 349.19393 
L 644.035348 334.789973 
L 644.421597 141.516753 
L 644.807845 350.410259 
L 645.194093 352.195966 
L 646.352838 340.734237 
L 646.739086 359.639386 
L 647.125335 343.544941 
L 647.511583 358.539718 
L 647.897831 309.271225 
L 649.056576 339.745107 
L 649.442824 321.747777 
L 649.829072 353.844918 
L 650.215321 303.850665 
L 650.601569 323.939168 
L 652.146562 360.259046 
L 652.53281 335.269479 
L 652.919059 338.943664 
L 653.305307 368.896956 
L 654.464052 231.969841 
L 654.8503 340.597992 
L 655.236548 312.051391 
L 655.622796 318.880361 
L 656.009045 332.971624 
L 657.16779 284.397475 
L 657.554038 360.153021 
L 657.940286 342.155207 
L 658.326534 309.740543 
L 658.712783 346.417871 
L 659.871527 312.005312 
L 660.257776 354.933949 
L 660.644024 345.017074 
L 661.030272 294.723646 
L 661.416521 324.276696 
L 662.575265 239.827511 
L 662.961514 358.229487 
L 663.347762 334.191389 
L 663.73401 350.700619 
L 664.120258 309.290417 
L 665.279003 357.289097 
L 665.665251 358.666924 
L 666.0515 364.792859 
L 666.437748 363.231096 
L 667.982741 287.490049 
L 668.368989 357.467827 
L 668.755238 359.949604 
L 669.141486 283.689114 
L 669.527734 330.461017 
L 670.686479 327.137552 
L 671.072727 331.504839 
L 671.458976 360.435758 
L 671.845224 310.807792 
L 672.231472 339.648619 
L 673.390217 315.373827 
L 673.776465 363.20322 
L 674.162713 352.715119 
L 674.548962 358.493412 
L 674.93521 336.329861 
L 676.093955 327.051329 
L 676.480203 332.497807 
L 676.866451 347.559398 
L 677.2527 310.543398 
L 677.638948 85.832085 
L 678.797693 268.266699 
L 679.570189 352.692314 
L 679.956437 317.837667 
L 680.342686 360.133162 
L 681.501431 354.706496 
L 681.887679 314.631113 
L 682.660175 362.194841 
L 683.046424 346.976573 
L 684.205168 358.835525 
L 684.591417 351.569521 
L 684.977665 335.833864 
L 685.363913 343.011293 
L 685.750162 338.017908 
L 686.908906 349.870506 
L 687.295155 351.495931 
L 687.681403 343.788306 
L 688.067651 319.777197 
L 688.453899 347.927188 
L 689.998892 341.028222 
L 690.385141 359.094844 
L 690.771389 304.162015 
L 691.157637 362.639052 
L 692.316382 361.627681 
L 692.70263 357.382134 
L 693.088879 336.614688 
L 693.475127 348.004 
L 693.861375 329.054788 
L 695.02012 357.994568 
L 695.406368 343.25436 
L 695.792617 346.64158 
L 696.178865 322.241359 
L 696.565113 342.098573 
L 697.723858 362.65728 
L 698.110106 330.337831 
L 698.882603 348.264577 
L 699.268851 326.967117 
L 700.427596 360.746327 
L 700.813844 291.421526 
L 701.200092 366.132499 
L 701.586341 345.605667 
L 701.972589 314.024671 
L 703.131334 352.143266 
L 703.517582 335.393291 
L 703.90383 357.057483 
L 704.676327 297.558177 
L 705.835072 346.400039 
L 706.22132 368.886731 
L 706.607568 334.902908 
L 706.993816 285.253559 
L 707.380065 361.211293 
L 708.538809 347.054688 
L 708.925058 326.519034 
L 709.311306 322.785543 
L 709.697554 313.39075 
L 710.083802 366.682488 
L 711.242547 304.308238 
L 711.628796 365.444691 
L 712.015044 215.479015 
L 712.401292 278.925402 
L 712.78754 361.027723 
L 713.946285 326.450578 
L 714.332533 356.802024 
L 714.718782 347.181954 
L 715.10503 357.416465 
L 715.491278 298.543044 
L 716.650023 228.630274 
L 717.036271 367.654099 
L 717.42252 365.609869 
L 717.808768 312.654322 
L 718.195016 341.394583 
L 719.353761 343.3989 
L 719.740009 333.664525 
L 720.126257 298.485657 
L 720.512506 348.576403 
L 720.898754 340.917016 
L 722.057499 303.893634 
L 722.443747 359.599286 
L 723.216244 331.144331 
L 723.602492 334.709671 
L 724.761237 360.608969 
L 725.147485 341.822147 
L 725.533733 335.577851 
L 725.919982 349.477288 
L 726.30623 338.42385 
L 727.851223 249.572392 
L 728.237471 354.413158 
L 728.623719 354.601342 
L 729.009968 245.133705 
L 730.168713 318.2339 
L 730.554961 360.142569 
L 731.327457 303.707003 
L 731.713706 315.666955 
L 732.87245 357.845327 
L 733.258699 345.38151 
L 733.644947 359.655203 
L 734.031195 324.724869 
L 734.417443 344.011421 
L 735.576188 340.899842 
L 735.962437 359.093662 
L 736.348685 357.628218 
L 736.734933 354.162807 
L 737.121181 343.018689 
L 738.279926 335.381797 
L 738.666174 347.624218 
L 739.052423 349.766785 
L 739.438671 367.728533 
L 739.824919 345.500154 
L 740.983664 294.706068 
L 741.369912 345.810586 
L 741.756161 321.551379 
L 742.142409 367.316993 
L 742.528657 345.090667 
L 743.687402 336.479476 
L 744.07365 359.656683 
L 744.459898 366.649779 
L 744.846147 329.30468 
L 745.232395 359.72717 
L 746.39114 355.974457 
L 746.777388 351.198174 
L 747.163636 327.327573 
L 747.163636 327.327573 
" clip-path="url(#pf6558b8ec9)" style="fill: none; stroke: #000000; stroke-width: 1.5; stroke-linecap: square"/>
   </g>
   <g id="line2d_18">
    <path d="M 138.436364 308.93241 
L 138.822612 316.721655 
L 139.20886 317.616343 
L 140.753853 317.437167 
L 141.140102 317.101277 
L 141.52635 315.986213 
L 141.912598 320.36564 
L 143.457591 317.360776 
L 143.843839 306.973161 
L 144.230088 316.419738 
L 144.616336 316.728112 
L 145.002584 319.694723 
L 146.161329 321.569012 
L 146.547577 316.549876 
L 146.933826 317.317284 
L 147.320074 321.071628 
L 147.706322 306.051593 
L 149.251315 320.50101 
L 149.637563 311.331662 
L 150.023812 315.811068 
L 150.41006 318.640387 
L 151.568805 306.712565 
L 151.955053 310.936139 
L 152.341301 312.5477 
L 152.72755 315.574163 
L 153.113798 315.362161 
L 154.272543 315.219206 
L 154.658791 327.530728 
L 155.045039 320.534979 
L 155.431287 321.252596 
L 155.817536 323.784426 
L 156.976281 321.801784 
L 157.362529 324.55379 
L 157.748777 319.94108 
L 158.135025 320.414923 
L 158.521274 320.241125 
L 159.680018 324.786639 
L 160.066267 327.963142 
L 160.452515 325.600601 
L 160.838763 320.883884 
L 161.225012 319.025554 
L 162.383756 326.124814 
L 162.770005 323.413814 
L 163.156253 322.51427 
L 163.542501 316.269556 
L 163.928749 300.121329 
L 165.473743 293.100024 
L 165.859991 289.115341 
L 166.246239 298.258287 
L 166.632487 300.694187 
L 167.791232 304.791851 
L 168.17748 317.307336 
L 168.563729 316.356401 
L 168.949977 311.198156 
L 169.336225 308.324873 
L 170.49497 303.017222 
L 170.881218 300.008291 
L 171.267467 303.147706 
L 171.653715 292.772755 
L 172.039963 293.844437 
L 173.584956 301.022662 
L 173.971204 303.660825 
L 174.357453 307.735907 
L 174.743701 303.622839 
L 175.902446 294.349418 
L 176.288694 296.269419 
L 176.674942 289.03971 
L 177.061191 295.11266 
L 177.447439 298.626665 
L 178.606184 299.583122 
L 178.992432 298.883115 
L 179.37868 302.679746 
L 179.764928 303.7644 
L 180.151177 302.762393 
L 181.309922 309.490749 
L 181.69617 302.340144 
L 182.082418 309.726835 
L 182.468666 310.117677 
L 182.854915 312.723352 
L 184.013659 314.458356 
L 184.399908 302.026613 
L 184.786156 306.74471 
L 185.172404 289.934738 
L 185.558653 289.374491 
L 186.717397 298.115039 
L 187.103646 308.410177 
L 187.489894 310.065395 
L 187.876142 308.418924 
L 188.26239 314.658392 
L 189.807383 321.573868 
L 190.193632 313.352475 
L 190.57988 317.819667 
L 190.966128 318.382828 
L 192.124873 318.13473 
L 192.511121 321.573029 
L 192.89737 319.572696 
L 193.283618 315.44556 
L 193.669866 319.051078 
L 194.828611 314.483841 
L 195.214859 318.257038 
L 195.601108 317.263673 
L 196.373604 321.854621 
L 197.532349 318.810231 
L 197.918597 312.88387 
L 198.304845 317.78671 
L 198.691094 319.178128 
L 199.077342 323.325691 
L 200.236087 325.173428 
L 200.622335 321.261191 
L 201.008583 328.840294 
L 201.394832 318.089469 
L 201.78108 330.4274 
L 202.939825 332.785702 
L 203.326073 327.11381 
L 203.712321 331.682074 
L 204.098569 331.707867 
L 204.484818 328.985289 
L 205.643563 327.804905 
L 206.029811 330.886825 
L 206.416059 327.264808 
L 206.802307 331.613474 
L 208.3473 332.024379 
L 208.733549 327.420509 
L 209.506045 325.684519 
L 211.051038 329.924927 
L 211.437287 325.081897 
L 211.823535 328.304828 
L 212.209783 329.368383 
L 212.596031 324.263344 
L 213.754776 327.921593 
L 214.141024 317.87942 
L 214.527273 319.223084 
L 214.913521 329.49475 
L 215.299769 326.022103 
L 216.844762 328.009361 
L 217.617259 316.65595 
L 218.003507 327.578903 
L 219.162252 328.66881 
L 219.5485 331.029162 
L 219.934749 329.582345 
L 220.320997 302.815737 
L 220.707245 310.916868 
L 221.86599 314.320328 
L 222.252238 313.028056 
L 222.638486 319.282957 
L 223.024735 310.072544 
L 223.410983 318.37547 
L 224.569728 324.696613 
L 224.955976 325.786989 
L 225.342224 325.392397 
L 225.728473 326.32385 
L 226.114721 328.784303 
L 227.659714 328.01261 
L 228.045962 326.010792 
L 228.43221 328.293435 
L 228.818459 325.439447 
L 229.977204 322.343608 
L 230.363452 316.364649 
L 230.7497 323.080454 
L 231.135948 325.375925 
L 231.522197 310.19364 
L 232.680941 316.288677 
L 233.06719 319.689202 
L 233.453438 320.3774 
L 233.839686 309.933871 
L 234.225934 313.583924 
L 235.384679 313.503568 
L 235.770928 302.276312 
L 236.543424 314.565744 
L 236.929672 315.454919 
L 238.088417 307.659797 
L 238.474665 318.1374 
L 238.860914 316.320472 
L 239.247162 319.048695 
L 239.63341 306.239128 
L 240.792155 311.841816 
L 241.178403 314.387589 
L 241.564652 313.867795 
L 241.9509 311.697768 
L 242.337148 315.098878 
L 243.495893 312.741491 
L 243.882141 313.501911 
L 244.268389 315.243914 
L 244.654638 315.316115 
L 246.199631 311.349801 
L 246.585879 309.197223 
L 246.972127 315.467471 
L 247.358376 316.273754 
L 247.744624 316.752632 
L 248.903369 321.452381 
L 249.289617 315.449114 
L 249.675865 320.052028 
L 250.062114 318.302496 
L 250.448362 321.544315 
L 251.607107 326.058634 
L 251.993355 326.173079 
L 252.379603 329.851971 
L 252.765851 331.679846 
L 253.1521 325.587558 
L 254.310844 326.199511 
L 254.697093 332.582824 
L 255.469589 325.413325 
L 255.855838 328.054162 
L 257.400831 333.000799 
L 257.787079 327.199909 
L 258.173327 334.257026 
L 258.559575 332.541921 
L 259.71832 332.98177 
L 260.104569 322.112649 
L 260.490817 320.664717 
L 260.877065 309.545153 
L 261.263313 317.46952 
L 262.422058 321.001142 
L 262.808306 325.106582 
L 263.194555 318.715531 
L 263.580803 324.084274 
L 263.967051 320.889462 
L 265.125796 323.399614 
L 265.512044 322.418069 
L 265.898293 327.321076 
L 266.284541 325.88505 
L 266.670789 321.712684 
L 268.215782 326.526367 
L 268.60203 325.329268 
L 268.988279 324.848528 
L 269.374527 322.339836 
L 270.533272 323.233507 
L 270.91952 325.605833 
L 271.305768 325.47625 
L 271.692017 326.761485 
L 272.078265 325.592657 
L 273.23701 325.737766 
L 273.623258 328.132493 
L 274.009506 327.026164 
L 274.395754 329.821418 
L 274.782003 329.812202 
L 275.940748 328.044447 
L 276.326996 328.638681 
L 276.713244 332.602394 
L 277.099492 332.511457 
L 277.485741 335.497993 
L 279.030734 336.386586 
L 279.416982 334.931102 
L 280.189479 335.127301 
L 281.734472 332.747601 
L 282.506968 336.29562 
L 282.893216 333.781118 
L 284.051961 336.024088 
L 284.43821 335.565092 
L 284.824458 335.989713 
L 285.210706 334.933621 
L 285.596954 334.445135 
L 286.755699 335.718632 
L 287.141947 326.972826 
L 287.528196 331.111108 
L 288.300692 334.82151 
L 289.459437 327.546305 
L 289.845685 331.996349 
L 290.231934 325.349151 
L 290.618182 332.934565 
L 291.00443 334.931628 
L 292.163175 330.185057 
L 292.549423 332.562511 
L 292.935671 334.076046 
L 293.708168 333.479265 
L 294.866913 334.788398 
L 295.253161 333.155359 
L 295.639409 334.833309 
L 296.025658 333.938317 
L 296.411906 334.229436 
L 297.570651 335.306316 
L 297.956899 334.413559 
L 298.343147 328.596911 
L 298.729395 329.819112 
L 299.115644 333.204165 
L 300.274389 332.131949 
L 300.660637 330.508019 
L 301.433133 333.680905 
L 301.819382 332.021461 
L 302.978126 331.386129 
L 303.364375 334.867655 
L 303.750623 335.699457 
L 304.136871 335.420737 
L 304.52312 331.328272 
L 306.068113 334.481069 
L 306.454361 334.527916 
L 306.840609 334.835528 
L 307.226857 336.564964 
L 308.385602 326.817847 
L 308.77185 332.301599 
L 309.158099 335.365846 
L 309.544347 332.868191 
L 309.930595 333.301525 
L 311.475588 321.443912 
L 311.861837 329.422603 
L 312.634333 332.013559 
L 313.793078 331.855774 
L 314.179326 328.85292 
L 314.565575 308.879666 
L 315.338071 322.249981 
L 316.496816 321.178461 
L 316.883064 313.793176 
L 317.655561 321.37941 
L 318.041809 322.700835 
L 319.200554 324.761981 
L 319.586802 320.918949 
L 319.97305 315.727454 
L 320.359299 321.634069 
L 320.745547 319.286639 
L 321.904292 324.752535 
L 322.29054 322.991127 
L 322.676788 323.409938 
L 323.063036 320.174915 
L 323.449285 324.790984 
L 324.60803 312.624588 
L 324.994278 322.15658 
L 325.380526 321.129034 
L 325.766774 311.358112 
L 326.153023 317.933894 
L 327.311767 320.327143 
L 327.698016 309.254438 
L 328.470512 319.160347 
L 328.85676 318.683745 
L 330.015505 320.003894 
L 330.401754 322.746281 
L 330.788002 326.620051 
L 331.17425 317.499243 
L 331.560498 325.787993 
L 332.719243 321.569941 
L 333.105491 327.550245 
L 333.49174 328.023736 
L 333.877988 328.919321 
L 334.264236 326.579497 
L 335.422981 326.254779 
L 335.809229 318.361434 
L 336.195478 325.448379 
L 336.967974 327.963393 
L 338.126719 310.620547 
L 338.512967 300.965545 
L 338.899216 306.940714 
L 339.285464 308.333721 
L 339.671712 312.972444 
L 340.830457 310.676221 
L 341.216705 318.813746 
L 341.602953 319.587658 
L 341.989202 323.489275 
L 342.37545 323.184867 
L 343.534195 326.048015 
L 343.920443 319.297058 
L 344.69294 325.053078 
L 345.079188 318.077632 
L 346.237933 315.143619 
L 346.624181 320.67304 
L 347.010429 320.305504 
L 347.396677 320.376922 
L 348.941671 327.640935 
L 349.327919 325.666085 
L 349.714167 320.617599 
L 350.100415 327.980376 
L 350.486664 325.537867 
L 351.645408 321.823199 
L 352.031657 326.178475 
L 352.417905 323.976497 
L 352.804153 305.062221 
L 353.190401 314.943642 
L 354.349146 319.339231 
L 354.735395 322.238615 
L 355.121643 322.460699 
L 355.507891 324.664155 
L 355.894139 316.400422 
L 357.439132 323.687857 
L 357.825381 311.824531 
L 358.211629 315.274118 
L 358.597877 311.599601 
L 359.756622 302.710311 
L 360.14287 311.38713 
L 360.529119 300.949192 
L 360.915367 302.701251 
L 361.301615 312.167131 
L 362.46036 309.898337 
L 362.846608 312.262667 
L 363.232856 315.383244 
L 363.619105 307.005768 
L 364.005353 296.214184 
L 365.164098 305.664141 
L 365.550346 298.734835 
L 365.936594 306.123644 
L 366.322843 306.74881 
L 366.709091 296.022061 
L 367.867836 283.294042 
L 368.254084 288.249182 
L 368.640332 296.140365 
L 369.026581 298.715135 
L 369.412829 288.623876 
L 370.957822 279.020723 
L 371.34407 283.181452 
L 371.730318 282.642205 
L 372.116567 282.864436 
L 373.275311 284.487897 
L 373.66156 293.643114 
L 374.047808 292.072313 
L 374.434056 299.160909 
L 374.820305 299.467046 
L 375.979049 294.150878 
L 376.365298 281.075708 
L 376.751546 284.354391 
L 377.137794 291.233472 
L 377.524042 286.623896 
L 378.682787 288.09641 
L 379.069036 279.566453 
L 379.841532 289.284203 
L 380.22778 296.642978 
L 381.386525 303.318563 
L 381.772773 304.08617 
L 382.159022 305.380163 
L 382.54527 300.691445 
L 382.931518 303.984325 
L 384.090263 310.483185 
L 384.476511 314.998976 
L 384.86276 313.72444 
L 385.249008 311.782254 
L 385.635256 303.658717 
L 386.794001 314.618136 
L 387.180249 314.846453 
L 387.566497 308.779732 
L 387.952746 300.539032 
L 388.338994 305.835359 
L 389.497739 302.895493 
L 389.883987 294.463693 
L 390.270235 292.570244 
L 390.656484 300.390358 
L 392.201477 294.748409 
L 392.973973 309.065165 
L 393.74647 297.308277 
L 394.905215 282.909852 
L 395.291463 283.166568 
L 395.677711 278.468862 
L 396.063959 264.797759 
L 396.450208 262.887676 
L 397.608952 252.294723 
L 398.381449 275.360257 
L 398.767697 279.375576 
L 399.153946 261.762945 
L 400.31269 269.079129 
L 400.698939 265.658286 
L 401.471435 275.990332 
L 401.857683 277.097151 
L 403.016428 276.876073 
L 403.402677 273.369134 
L 403.788925 278.269982 
L 404.175173 266.402072 
L 404.561421 269.315835 
L 405.720166 272.327629 
L 406.106414 276.259039 
L 406.492663 258.756413 
L 406.878911 272.139386 
L 407.265159 277.492809 
L 408.810152 275.216346 
L 409.196401 277.335092 
L 409.582649 288.924515 
L 409.968897 287.285653 
L 411.127642 277.033855 
L 411.51389 283.0856 
L 412.286387 300.638734 
L 412.672635 293.582984 
L 413.83138 281.894424 
L 414.217628 270.374648 
L 414.990125 283.213185 
L 415.376373 269.154346 
L 417.307614 280.940669 
L 418.080111 298.141471 
L 419.238856 295.885126 
L 420.011352 277.390378 
L 420.3976 283.24071 
L 420.783849 278.665577 
L 422.71509 290.933866 
L 423.101338 290.587103 
L 423.487587 293.071286 
L 424.646331 302.330597 
L 425.03258 292.82111 
L 425.805076 284.332925 
L 427.350069 296.986728 
L 427.736317 288.338538 
L 428.122566 290.588053 
L 428.508814 297.667595 
L 428.895062 301.988161 
L 430.053807 282.125834 
L 430.440055 286.931406 
L 430.826304 283.021125 
L 431.212552 284.890475 
L 431.5988 282.100653 
L 432.757545 293.72668 
L 433.143793 295.48346 
L 433.530042 301.272954 
L 433.91629 300.724525 
L 434.302538 305.513636 
L 435.461283 301.702412 
L 435.847531 305.065165 
L 436.233779 302.210902 
L 436.620028 306.209907 
L 437.006276 304.000182 
L 438.165021 307.783416 
L 438.551269 310.823826 
L 438.937517 310.14085 
L 439.323766 302.412921 
L 439.710014 308.961467 
L 440.868759 299.478093 
L 441.255007 294.891018 
L 441.641255 300.459312 
L 442.027503 310.633839 
L 442.413752 307.493301 
L 443.572497 288.0037 
L 443.958745 286.187964 
L 444.344993 297.438415 
L 445.11749 302.445994 
L 446.662483 304.533355 
L 447.048731 302.899139 
L 447.434979 309.444434 
L 447.821228 308.78198 
L 448.979972 310.813675 
L 449.366221 316.11246 
L 449.752469 292.668571 
L 450.138717 295.84026 
L 450.524965 296.022139 
L 451.68371 299.869976 
L 452.069958 306.230907 
L 452.456207 295.667546 
L 452.842455 290.590469 
L 453.228703 298.39478 
L 454.387448 294.202076 
L 455.159945 296.406855 
L 455.546193 297.192677 
L 455.932441 288.641152 
L 457.091186 283.412438 
L 457.863683 295.548197 
L 458.249931 300.312863 
L 458.636179 307.490649 
L 459.794924 294.083991 
L 460.181172 300.495584 
L 460.56742 303.147584 
L 460.953669 307.897285 
L 461.339917 307.58872 
L 462.498662 296.58914 
L 462.88491 299.177875 
L 463.271158 303.54839 
L 463.657407 301.834658 
L 464.043655 308.742068 
L 465.2024 308.337042 
L 465.588648 306.258247 
L 465.974896 312.79552 
L 466.361144 283.895811 
L 466.747393 281.464961 
L 467.906138 289.637428 
L 468.292386 285.967872 
L 468.678634 279.965369 
L 469.064882 271.635047 
L 469.451131 259.720652 
L 470.609875 262.863773 
L 470.996124 269.353549 
L 471.382372 283.191053 
L 471.76862 281.994896 
L 472.154868 281.613052 
L 473.313613 277.708194 
L 473.699862 283.820824 
L 474.08611 285.416895 
L 474.472358 289.489328 
L 474.858606 291.896305 
L 476.017351 293.311279 
L 476.403599 287.089676 
L 476.789848 290.835031 
L 477.562344 293.499707 
L 478.721089 290.719574 
L 479.107337 289.165992 
L 479.493586 289.931716 
L 479.879834 288.989859 
L 480.266082 287.619008 
L 481.424827 293.978436 
L 481.811075 291.224588 
L 482.197323 280.436865 
L 482.583572 274.289181 
L 482.96982 283.243863 
L 484.128565 285.843318 
L 484.514813 297.01502 
L 484.901061 298.383518 
L 485.28731 306.02313 
L 485.673558 298.987726 
L 486.832303 307.437937 
L 487.218551 304.835517 
L 487.604799 310.723488 
L 487.991048 313.189962 
L 488.377296 304.243738 
L 489.922289 306.197585 
L 490.308537 300.886115 
L 490.694785 297.821113 
L 491.081034 301.280459 
L 492.626027 302.728011 
L 493.012275 305.958446 
L 493.398523 302.617753 
L 493.784772 298.145732 
L 494.943516 302.860431 
L 495.716013 308.915338 
L 496.102261 305.773933 
L 496.488509 306.599431 
L 498.033503 309.577824 
L 498.419751 306.960546 
L 498.805999 306.911445 
L 499.192247 307.029892 
L 500.350992 305.371532 
L 500.73724 309.529323 
L 501.509737 301.034649 
L 501.895985 305.213887 
L 503.05473 307.908516 
L 503.440978 299.303491 
L 503.827227 308.936472 
L 504.213475 312.409534 
L 504.599723 306.529677 
L 505.758468 296.454389 
L 506.144716 295.777374 
L 506.530964 300.546865 
L 506.917213 277.021056 
L 507.303461 263.152213 
L 508.462206 273.259876 
L 508.848454 291.32489 
L 509.234702 297.203469 
L 509.620951 295.920559 
L 510.007199 288.215675 
L 511.552192 287.056829 
L 511.93844 276.989096 
L 512.710937 285.234774 
L 513.869682 279.338106 
L 514.25593 283.606522 
L 514.642178 292.104025 
L 515.028426 295.369048 
L 515.414675 293.962143 
L 516.573419 293.304333 
L 516.959668 292.283392 
L 517.345916 287.017538 
L 517.732164 293.408589 
L 518.118413 286.566492 
L 519.277157 278.067557 
L 520.049654 286.172516 
L 520.82215 278.717799 
L 521.980895 279.413735 
L 522.367144 291.674782 
L 522.753392 296.386366 
L 523.13964 293.444568 
L 523.525888 311.459208 
L 524.684633 323.591184 
L 525.070881 311.371951 
L 525.45713 311.121652 
L 525.843378 318.571534 
L 526.229626 316.272028 
L 527.388371 315.645921 
L 527.774619 319.673114 
L 528.160868 326.353644 
L 528.547116 325.446733 
L 530.092109 318.266896 
L 530.478357 315.562439 
L 530.864605 319.157331 
L 531.250854 319.074031 
L 531.637102 318.777898 
L 532.795847 321.339229 
L 533.182095 311.317504 
L 533.568343 311.71327 
L 533.954592 320.817062 
L 534.34084 320.314839 
L 535.499585 326.038662 
L 535.885833 324.287723 
L 536.272081 314.285681 
L 536.658329 318.917037 
L 537.044578 315.58179 
L 538.203323 320.152566 
L 538.589571 319.505334 
L 538.975819 312.803407 
L 539.362067 319.833764 
L 539.748316 316.490173 
L 540.90706 320.137189 
L 541.293309 318.077784 
L 541.679557 323.23889 
L 542.065805 317.701946 
L 542.452054 315.903361 
L 543.610798 323.639401 
L 543.997047 323.55599 
L 544.383295 320.707084 
L 544.769543 323.736328 
L 546.314536 326.125017 
L 546.700784 324.514911 
L 547.087033 316.98765 
L 547.473281 316.341421 
L 547.859529 319.879887 
L 549.404522 323.426721 
L 549.790771 327.817078 
L 550.177019 326.426122 
L 550.563267 329.823487 
L 551.722012 331.2652 
L 552.10826 330.046061 
L 552.494509 330.005301 
L 552.880757 314.315171 
L 553.267005 325.252294 
L 554.42575 329.491572 
L 554.811998 325.960811 
L 555.198246 329.200588 
L 555.584495 330.391518 
L 555.970743 327.539794 
L 557.515736 322.430731 
L 557.901984 328.207286 
L 558.288233 318.319679 
L 558.674481 321.543613 
L 559.833226 322.067041 
L 560.219474 309.273852 
L 560.605722 319.352517 
L 560.99197 318.396858 
L 561.378219 316.616184 
L 562.536964 319.516535 
L 563.30946 318.800713 
L 563.695708 317.107479 
L 564.081957 312.992701 
L 565.240701 317.24465 
L 565.62695 309.170997 
L 566.013198 315.892532 
L 566.399446 316.747248 
L 566.785695 311.747929 
L 567.944439 316.996884 
L 568.330688 317.863844 
L 568.716936 316.947153 
L 569.103184 314.5218 
L 569.489432 306.809403 
L 570.648177 318.176885 
L 571.034425 318.699169 
L 571.420674 319.888324 
L 571.806922 311.064046 
L 572.19317 319.539375 
L 573.351915 317.235213 
L 573.738163 322.293814 
L 574.124412 317.999229 
L 574.51066 308.761279 
L 574.896908 318.883345 
L 576.055653 318.684041 
L 576.441901 315.498803 
L 576.82815 324.715813 
L 577.214398 318.36124 
L 577.600646 325.743419 
L 578.759391 326.996056 
L 579.145639 324.310207 
L 579.531887 319.555868 
L 579.918136 318.470934 
L 580.304384 322.68725 
L 581.463129 315.37135 
L 581.849377 325.841514 
L 582.235625 326.28736 
L 582.621874 321.342255 
L 583.008122 314.934364 
L 584.166867 324.298416 
L 584.553115 324.847922 
L 584.939363 320.403387 
L 585.325611 323.795708 
L 585.71186 330.45416 
L 587.256853 329.279496 
L 587.643101 330.86194 
L 588.029349 325.34547 
L 588.415598 328.02845 
L 589.574342 328.118419 
L 589.960591 329.251857 
L 590.346839 322.696161 
L 591.119335 330.250466 
L 592.27808 330.197274 
L 593.050577 332.1046 
L 593.436825 315.769905 
L 593.823073 311.272309 
L 594.981818 320.748737 
L 595.368066 322.957504 
L 595.754315 312.660556 
L 596.140563 315.809109 
L 596.526811 320.239713 
L 597.685556 317.384177 
L 598.071804 319.740659 
L 598.458053 315.516485 
L 598.844301 317.214282 
L 599.230549 322.973191 
L 600.389294 323.159518 
L 600.775542 325.511961 
L 601.16179 326.352411 
L 601.934287 321.756222 
L 603.093032 317.810433 
L 603.865528 324.970131 
L 604.251777 318.618509 
L 604.638025 320.263875 
L 605.79677 313.089078 
L 606.183018 318.012022 
L 606.569266 320.154973 
L 606.955515 286.484276 
L 607.341763 281.921301 
L 608.886756 306.97741 
L 609.273004 309.027077 
L 610.045501 316.939558 
L 611.204246 316.274187 
L 611.590494 317.336829 
L 611.976742 320.028293 
L 612.36299 320.334979 
L 612.749239 314.76512 
L 613.907983 316.265449 
L 614.294232 318.06726 
L 614.68048 318.665684 
L 615.066728 319.481419 
L 615.452976 317.118469 
L 616.611721 313.616923 
L 616.99797 319.130206 
L 617.384218 320.542105 
L 618.156714 319.640984 
L 619.315459 315.316458 
L 619.701707 321.676929 
L 620.087956 322.230907 
L 620.474204 313.733109 
L 620.860452 310.692135 
L 622.019197 315.706854 
L 622.405445 309.981865 
L 622.791694 314.073239 
L 623.177942 314.791462 
L 623.56419 317.99004 
L 624.722935 324.042131 
L 625.109183 324.522747 
L 625.495431 326.225686 
L 625.88168 331.485553 
L 626.267928 326.744688 
L 627.426673 330.425035 
L 627.812921 325.637515 
L 628.199169 329.067553 
L 628.585418 328.445143 
L 628.971666 326.586383 
L 630.516659 329.747073 
L 630.902907 332.144124 
L 631.289156 326.916847 
L 631.675404 330.823228 
L 633.220397 330.343359 
L 633.606645 326.533176 
L 633.992893 330.016646 
L 634.379142 321.853003 
L 635.537886 326.533457 
L 635.924135 324.232243 
L 636.310383 325.956529 
L 637.08288 330.453252 
L 638.627873 331.500204 
L 639.014121 332.629333 
L 639.400369 328.877491 
L 639.786617 330.632987 
L 640.945362 329.623565 
L 641.331611 333.37122 
L 641.717859 333.252024 
L 642.104107 332.710052 
L 642.490355 330.196403 
L 643.6491 336.083223 
L 644.035348 335.08712 
L 644.421597 331.845996 
L 644.807845 295.912768 
L 645.194093 319.227567 
L 646.352838 329.413973 
L 646.739086 328.521614 
L 647.125335 330.619337 
L 647.511583 329.195063 
L 647.897831 330.771926 
L 649.056576 326.266984 
L 649.442824 326.012033 
L 649.829072 321.160089 
L 650.215321 328.585472 
L 650.601569 318.81655 
L 652.146562 319.344194 
L 652.53281 327.317361 
L 652.919059 325.310025 
L 653.305307 326.565148 
L 654.464052 329.45407 
L 654.8503 306.30704 
L 655.236548 315.957855 
L 655.622796 311.755487 
L 656.009045 316.193533 
L 657.16779 314.26061 
L 657.554038 306.129542 
L 657.940286 311.883392 
L 658.326534 309.888193 
L 659.871527 312.275377 
L 660.257776 310.848535 
L 660.644024 314.184214 
L 661.030272 315.665867 
L 661.416521 318.416382 
L 662.575265 315.055179 
L 662.961514 312.282263 
L 663.347762 318.729914 
L 663.73401 322.06525 
L 664.120258 320.570929 
L 665.279003 318.635453 
L 666.0515 324.975809 
L 666.437748 327.276424 
L 667.982741 326.792956 
L 668.368989 320.830667 
L 669.141486 328.59526 
L 669.527734 311.988328 
L 671.072727 320.078188 
L 671.458976 327.024833 
L 671.845224 329.068613 
L 672.231472 327.336169 
L 673.390217 326.432328 
L 673.776465 320.888563 
L 674.162713 331.892007 
L 674.548962 332.416752 
L 674.93521 333.193922 
L 676.093955 328.425281 
L 676.480203 329.499973 
L 677.2527 332.585055 
L 677.638948 324.605593 
L 678.797693 309.527044 
L 679.183941 308.158227 
L 679.570189 309.039545 
L 679.956437 316.26318 
L 680.342686 316.090821 
L 681.501431 319.73652 
L 681.887679 319.77986 
L 682.660175 313.513537 
L 683.046424 319.885982 
L 684.205168 315.868477 
L 684.591417 318.375446 
L 684.977665 318.056617 
L 685.363913 318.083524 
L 685.750162 320.957858 
L 686.908906 320.895497 
L 687.681403 322.457972 
L 688.067651 318.692823 
L 688.453899 313.702481 
L 690.385141 320.513078 
L 690.771389 319.763247 
L 691.157637 309.515774 
L 692.316382 318.551824 
L 692.70263 320.541203 
L 693.088879 320.203799 
L 693.475127 318.794084 
L 693.861375 319.82573 
L 695.02012 316.782842 
L 695.406368 324.831888 
L 695.792617 329.14257 
L 696.178865 331.614311 
L 696.565113 325.660366 
L 697.723858 328.479704 
L 698.110106 331.52029 
L 698.882603 325.089687 
L 699.268851 328.551606 
L 700.427596 327.356984 
L 700.813844 330.414302 
L 701.200092 324.760315 
L 701.586341 330.358156 
L 701.972589 329.801783 
L 703.131334 321.29066 
L 703.517582 327.614942 
L 703.90383 327.197995 
L 704.676327 329.110574 
L 705.835072 323.79893 
L 706.22132 325.334934 
L 706.607568 331.502181 
L 706.993816 328.995626 
L 707.380065 316.191559 
L 708.538809 323.379955 
L 708.925058 329.234608 
L 709.311306 322.787349 
L 709.697554 319.252834 
L 710.083802 314.033256 
L 711.242547 324.245449 
L 711.628796 320.454862 
L 712.015044 326.806069 
L 712.401292 299.999839 
L 712.78754 291.445794 
L 713.946285 306.158249 
L 714.332533 312.54531 
L 714.718782 314.933346 
L 715.10503 314.980703 
L 715.491278 313.990602 
L 716.650023 303.157456 
L 717.036271 280.04539 
L 717.42252 286.060824 
L 717.808768 303.152009 
L 718.195016 302.599312 
L 719.740009 303.58155 
L 720.126257 307.597586 
L 720.512506 304.373637 
L 720.898754 308.525509 
L 722.057499 308.912345 
L 722.443747 306.979943 
L 722.829995 307.934972 
L 723.602492 302.044334 
L 724.761237 305.975349 
L 725.147485 309.128958 
L 725.533733 305.676794 
L 725.919982 303.526853 
L 726.30623 307.085518 
L 727.851223 310.715207 
L 728.237471 293.580036 
L 728.623719 291.480179 
L 729.009968 311.960481 
L 730.554961 295.091559 
L 730.941209 307.322438 
L 731.327457 307.455876 
L 731.713706 307.156545 
L 732.87245 307.976613 
L 733.258699 313.226581 
L 733.644947 320.473434 
L 734.031195 320.949377 
L 734.417443 319.364869 
L 735.576188 319.497641 
L 735.962437 315.974271 
L 736.348685 321.078532 
L 736.734933 319.930467 
L 737.121181 323.591647 
L 738.279926 321.662394 
L 738.666174 320.575525 
L 739.052423 320.968032 
L 739.438671 317.709268 
L 739.824919 323.639676 
L 740.983664 323.054201 
L 741.369912 309.027295 
L 741.756161 316.45188 
L 742.142409 312.631615 
L 742.528657 321.81516 
L 743.687402 320.402309 
L 744.07365 320.65563 
L 744.459898 327.930474 
L 744.846147 328.976025 
L 745.232395 322.37635 
L 746.39114 333.078972 
L 746.777388 334.49615 
L 747.163636 334.080128 
L 747.163636 334.080128 
" clip-path="url(#pf6558b8ec9)" style="fill: none; stroke: #1f77b4; stroke-width: 1.5; stroke-linecap: square"/>
   </g>
   <g id="patch_3">
    <path d="M 108 384.48 
L 108 51.84 
" style="fill: none; stroke: #000000; stroke-width: 0.8; stroke-linejoin: miter; stroke-linecap: square"/>
   </g>
   <g id="patch_4">
    <path d="M 777.6 384.48 
L 777.6 51.84 
" style="fill: none; stroke: #000000; stroke-width: 0.8; stroke-linejoin: miter; stroke-linecap: square"/>
   </g>
   <g id="patch_5">
    <path d="M 108 384.48 
L 777.6 384.48 
" style="fill: none; stroke: #000000; stroke-width: 0.8; stroke-linejoin: miter; stroke-linecap: square"/>
   </g>
   <g id="patch_6">
    <path d="M 108 51.84 
L 777.6 51.84 
" style="fill: none; stroke: #000000; stroke-width: 0.8; stroke-linejoin: miter; stroke-linecap: square"/>
   </g>
   <g id="text_19">
    <!-- Volatility Prediction with LSTM MDN v3 -->
    <g transform="translate(327.174375 45.84) scale(0.12 -0.12)">
     <defs>
      <path id="DejaVuSans-20" transform="scale(0.015625)"/>
      <path id="DejaVuSans-50" d="M 1259 4147 
L 1259 2394 
L 2053 2394 
Q 2494 2394 2734 2622 
Q 2975 2850 2975 3272 
Q 2975 3691 2734 3919 
Q 2494 4147 2053 4147 
L 1259 4147 
z
M 628 4666 
L 2053 4666 
Q 2838 4666 3239 4311 
Q 3641 3956 3641 3272 
Q 3641 2581 3239 2228 
Q 2838 1875 2053 1875 
L 1259 1875 
L 1259 0 
L 628 0 
L 628 4666 
z
" transform="scale(0.015625)"/>
      <path id="DejaVuSans-72" d="M 2631 2963 
Q 2534 3019 2420 3045 
Q 2306 3072 2169 3072 
Q 1681 3072 1420 2755 
Q 1159 2438 1159 1844 
L 1159 0 
L 581 0 
L 581 3500 
L 1159 3500 
L 1159 2956 
Q 1341 3275 1631 3429 
Q 1922 3584 2338 3584 
Q 2397 3584 2469 3576 
Q 2541 3569 2628 3553 
L 2631 2963 
z
" transform="scale(0.015625)"/>
      <path id="DejaVuSans-64" d="M 2906 2969 
L 2906 4863 
L 3481 4863 
L 3481 0 
L 2906 0 
L 2906 525 
Q 2725 213 2448 61 
Q 2172 -91 1784 -91 
Q 1150 -91 751 415 
Q 353 922 353 1747 
Q 353 2572 751 3078 
Q 1150 3584 1784 3584 
Q 2172 3584 2448 3432 
Q 2725 3281 2906 2969 
z
M 947 1747 
Q 947 1113 1208 752 
Q 1469 391 1925 391 
Q 2381 391 2643 752 
Q 2906 1113 2906 1747 
Q 2906 2381 2643 2742 
Q 2381 3103 1925 3103 
Q 1469 3103 1208 2742 
Q 947 2381 947 1747 
z
" transform="scale(0.015625)"/>
      <path id="DejaVuSans-63" d="M 3122 3366 
L 3122 2828 
Q 2878 2963 2633 3030 
Q 2388 3097 2138 3097 
Q 1578 3097 1268 2742 
Q 959 2388 959 1747 
Q 959 1106 1268 751 
Q 1578 397 2138 397 
Q 2388 397 2633 464 
Q 2878 531 3122 666 
L 3122 134 
Q 2881 22 2623 -34 
Q 2366 -91 2075 -91 
Q 1284 -91 818 406 
Q 353 903 353 1747 
Q 353 2603 823 3093 
Q 1294 3584 2113 3584 
Q 2378 3584 2631 3529 
Q 2884 3475 3122 3366 
z
" transform="scale(0.015625)"/>
      <path id="DejaVuSans-6e" d="M 3513 2113 
L 3513 0 
L 2938 0 
L 2938 2094 
Q 2938 2591 2744 2837 
Q 2550 3084 2163 3084 
Q 1697 3084 1428 2787 
Q 1159 2491 1159 1978 
L 1159 0 
L 581 0 
L 581 3500 
L 1159 3500 
L 1159 2956 
Q 1366 3272 1645 3428 
Q 1925 3584 2291 3584 
Q 2894 3584 3203 3211 
Q 3513 2838 3513 2113 
z
" transform="scale(0.015625)"/>
      <path id="DejaVuSans-77" d="M 269 3500 
L 844 3500 
L 1563 769 
L 2278 3500 
L 2956 3500 
L 3675 769 
L 4391 3500 
L 4966 3500 
L 4050 0 
L 3372 0 
L 2619 2869 
L 1863 0 
L 1184 0 
L 269 3500 
z
" transform="scale(0.015625)"/>
      <path id="DejaVuSans-68" d="M 3513 2113 
L 3513 0 
L 2938 0 
L 2938 2094 
Q 2938 2591 2744 2837 
Q 2550 3084 2163 3084 
Q 1697 3084 1428 2787 
Q 1159 2491 1159 1978 
L 1159 0 
L 581 0 
L 581 4863 
L 1159 4863 
L 1159 2956 
Q 1366 3272 1645 3428 
Q 1925 3584 2291 3584 
Q 2894 3584 3203 3211 
Q 3513 2838 3513 2113 
z
" transform="scale(0.015625)"/>
      <path id="DejaVuSans-4c" d="M 628 4666 
L 1259 4666 
L 1259 531 
L 3531 531 
L 3531 0 
L 628 0 
L 628 4666 
z
" transform="scale(0.015625)"/>
      <path id="DejaVuSans-53" d="M 3425 4513 
L 3425 3897 
Q 3066 4069 2747 4153 
Q 2428 4238 2131 4238 
Q 1616 4238 1336 4038 
Q 1056 3838 1056 3469 
Q 1056 3159 1242 3001 
Q 1428 2844 1947 2747 
L 2328 2669 
Q 3034 2534 3370 2195 
Q 3706 1856 3706 1288 
Q 3706 609 3251 259 
Q 2797 -91 1919 -91 
Q 1588 -91 1214 -16 
Q 841 59 441 206 
L 441 856 
Q 825 641 1194 531 
Q 1563 422 1919 422 
Q 2459 422 2753 634 
Q 3047 847 3047 1241 
Q 3047 1584 2836 1778 
Q 2625 1972 2144 2069 
L 1759 2144 
Q 1053 2284 737 2584 
Q 422 2884 422 3419 
Q 422 4038 858 4394 
Q 1294 4750 2059 4750 
Q 2388 4750 2728 4690 
Q 3069 4631 3425 4513 
z
" transform="scale(0.015625)"/>
      <path id="DejaVuSans-54" d="M -19 4666 
L 3928 4666 
L 3928 4134 
L 2272 4134 
L 2272 0 
L 1638 0 
L 1638 4134 
L -19 4134 
L -19 4666 
z
" transform="scale(0.015625)"/>
      <path id="DejaVuSans-4d" d="M 628 4666 
L 1569 4666 
L 2759 1491 
L 3956 4666 
L 4897 4666 
L 4897 0 
L 4281 0 
L 4281 4097 
L 3078 897 
L 2444 897 
L 1241 4097 
L 1241 0 
L 628 0 
L 628 4666 
z
" transform="scale(0.015625)"/>
      <path id="DejaVuSans-4e" d="M 628 4666 
L 1478 4666 
L 3547 763 
L 3547 4666 
L 4159 4666 
L 4159 0 
L 3309 0 
L 1241 3903 
L 1241 0 
L 628 0 
L 628 4666 
z
" transform="scale(0.015625)"/>
      <path id="DejaVuSans-76" d="M 191 3500 
L 800 3500 
L 1894 563 
L 2988 3500 
L 3597 3500 
L 2284 0 
L 1503 0 
L 191 3500 
z
" transform="scale(0.015625)"/>
     </defs>
     <use xlink:href="#DejaVuSans-56"/>
     <use xlink:href="#DejaVuSans-6f" transform="translate(60.658203 0)"/>
     <use xlink:href="#DejaVuSans-6c" transform="translate(121.839844 0)"/>
     <use xlink:href="#DejaVuSans-61" transform="translate(149.623047 0)"/>
     <use xlink:href="#DejaVuSans-74" transform="translate(210.902344 0)"/>
     <use xlink:href="#DejaVuSans-69" transform="translate(250.111328 0)"/>
     <use xlink:href="#DejaVuSans-6c" transform="translate(277.894531 0)"/>
     <use xlink:href="#DejaVuSans-69" transform="translate(305.677734 0)"/>
     <use xlink:href="#DejaVuSans-74" transform="translate(333.460938 0)"/>
     <use xlink:href="#DejaVuSans-79" transform="translate(372.669922 0)"/>
     <use xlink:href="#DejaVuSans-20" transform="translate(431.849609 0)"/>
     <use xlink:href="#DejaVuSans-50" transform="translate(463.636719 0)"/>
     <use xlink:href="#DejaVuSans-72" transform="translate(522.189453 0)"/>
     <use xlink:href="#DejaVuSans-65" transform="translate(561.052734 0)"/>
     <use xlink:href="#DejaVuSans-64" transform="translate(622.576172 0)"/>
     <use xlink:href="#DejaVuSans-69" transform="translate(686.052734 0)"/>
     <use xlink:href="#DejaVuSans-63" transform="translate(713.835938 0)"/>
     <use xlink:href="#DejaVuSans-74" transform="translate(768.816406 0)"/>
     <use xlink:href="#DejaVuSans-69" transform="translate(808.025391 0)"/>
     <use xlink:href="#DejaVuSans-6f" transform="translate(835.808594 0)"/>
     <use xlink:href="#DejaVuSans-6e" transform="translate(896.990234 0)"/>
     <use xlink:href="#DejaVuSans-20" transform="translate(960.369141 0)"/>
     <use xlink:href="#DejaVuSans-77" transform="translate(992.15625 0)"/>
     <use xlink:href="#DejaVuSans-69" transform="translate(1073.943359 0)"/>
     <use xlink:href="#DejaVuSans-74" transform="translate(1101.726562 0)"/>
     <use xlink:href="#DejaVuSans-68" transform="translate(1140.935547 0)"/>
     <use xlink:href="#DejaVuSans-20" transform="translate(1204.314453 0)"/>
     <use xlink:href="#DejaVuSans-4c" transform="translate(1236.101562 0)"/>
     <use xlink:href="#DejaVuSans-53" transform="translate(1291.814453 0)"/>
     <use xlink:href="#DejaVuSans-54" transform="translate(1355.291016 0)"/>
     <use xlink:href="#DejaVuSans-4d" transform="translate(1416.375 0)"/>
     <use xlink:href="#DejaVuSans-20" transform="translate(1502.654297 0)"/>
     <use xlink:href="#DejaVuSans-4d" transform="translate(1534.441406 0)"/>
     <use xlink:href="#DejaVuSans-44" transform="translate(1620.720703 0)"/>
     <use xlink:href="#DejaVuSans-4e" transform="translate(1697.722656 0)"/>
     <use xlink:href="#DejaVuSans-20" transform="translate(1772.527344 0)"/>
     <use xlink:href="#DejaVuSans-76" transform="translate(1804.314453 0)"/>
     <use xlink:href="#DejaVuSans-33" transform="translate(1863.494141 0)"/>
    </g>
   </g>
   <g id="legend_1">
    <g id="patch_7">
     <path d="M 115 89.19625 
L 315.317188 89.19625 
Q 317.317188 89.19625 317.317188 87.19625 
L 317.317188 58.84 
Q 317.317188 56.84 315.317188 56.84 
L 115 56.84 
Q 113 56.84 113 58.84 
L 113 87.19625 
Q 113 89.19625 115 89.19625 
z
" style="fill: #ffffff; opacity: 0.8; stroke: #cccccc; stroke-linejoin: miter"/>
    </g>
    <g id="line2d_19">
     <path d="M 117 64.938437 
L 127 64.938437 
L 137 64.938437 
" style="fill: none; stroke: #000000; stroke-width: 1.5; stroke-linecap: square"/>
    </g>
    <g id="text_20">
     <!-- Absolute Returns -->
     <g transform="translate(145 68.438437) scale(0.1 -0.1)">
      <defs>
       <path id="DejaVuSans-41" d="M 2188 4044 
L 1331 1722 
L 3047 1722 
L 2188 4044 
z
M 1831 4666 
L 2547 4666 
L 4325 0 
L 3669 0 
L 3244 1197 
L 1141 1197 
L 716 0 
L 50 0 
L 1831 4666 
z
" transform="scale(0.015625)"/>
       <path id="DejaVuSans-62" d="M 3116 1747 
Q 3116 2381 2855 2742 
Q 2594 3103 2138 3103 
Q 1681 3103 1420 2742 
Q 1159 2381 1159 1747 
Q 1159 1113 1420 752 
Q 1681 391 2138 391 
Q 2594 391 2855 752 
Q 3116 1113 3116 1747 
z
M 1159 2969 
Q 1341 3281 1617 3432 
Q 1894 3584 2278 3584 
Q 2916 3584 3314 3078 
Q 3713 2572 3713 1747 
Q 3713 922 3314 415 
Q 2916 -91 2278 -91 
Q 1894 -91 1617 61 
Q 1341 213 1159 525 
L 1159 0 
L 581 0 
L 581 4863 
L 1159 4863 
L 1159 2969 
z
" transform="scale(0.015625)"/>
       <path id="DejaVuSans-73" d="M 2834 3397 
L 2834 2853 
Q 2591 2978 2328 3040 
Q 2066 3103 1784 3103 
Q 1356 3103 1142 2972 
Q 928 2841 928 2578 
Q 928 2378 1081 2264 
Q 1234 2150 1697 2047 
L 1894 2003 
Q 2506 1872 2764 1633 
Q 3022 1394 3022 966 
Q 3022 478 2636 193 
Q 2250 -91 1575 -91 
Q 1294 -91 989 -36 
Q 684 19 347 128 
L 347 722 
Q 666 556 975 473 
Q 1284 391 1588 391 
Q 1994 391 2212 530 
Q 2431 669 2431 922 
Q 2431 1156 2273 1281 
Q 2116 1406 1581 1522 
L 1381 1569 
Q 847 1681 609 1914 
Q 372 2147 372 2553 
Q 372 3047 722 3315 
Q 1072 3584 1716 3584 
Q 2034 3584 2315 3537 
Q 2597 3491 2834 3397 
z
" transform="scale(0.015625)"/>
       <path id="DejaVuSans-75" d="M 544 1381 
L 544 3500 
L 1119 3500 
L 1119 1403 
Q 1119 906 1312 657 
Q 1506 409 1894 409 
Q 2359 409 2629 706 
Q 2900 1003 2900 1516 
L 2900 3500 
L 3475 3500 
L 3475 0 
L 2900 0 
L 2900 538 
Q 2691 219 2414 64 
Q 2138 -91 1772 -91 
Q 1169 -91 856 284 
Q 544 659 544 1381 
z
M 1991 3584 
L 1991 3584 
z
" transform="scale(0.015625)"/>
       <path id="DejaVuSans-52" d="M 2841 2188 
Q 3044 2119 3236 1894 
Q 3428 1669 3622 1275 
L 4263 0 
L 3584 0 
L 2988 1197 
Q 2756 1666 2539 1819 
Q 2322 1972 1947 1972 
L 1259 1972 
L 1259 0 
L 628 0 
L 628 4666 
L 2053 4666 
Q 2853 4666 3247 4331 
Q 3641 3997 3641 3322 
Q 3641 2881 3436 2590 
Q 3231 2300 2841 2188 
z
M 1259 4147 
L 1259 2491 
L 2053 2491 
Q 2509 2491 2742 2702 
Q 2975 2913 2975 3322 
Q 2975 3731 2742 3939 
Q 2509 4147 2053 4147 
L 1259 4147 
z
" transform="scale(0.015625)"/>
      </defs>
      <use xlink:href="#DejaVuSans-41"/>
      <use xlink:href="#DejaVuSans-62" transform="translate(68.408203 0)"/>
      <use xlink:href="#DejaVuSans-73" transform="translate(131.884766 0)"/>
      <use xlink:href="#DejaVuSans-6f" transform="translate(183.984375 0)"/>
      <use xlink:href="#DejaVuSans-6c" transform="translate(245.166016 0)"/>
      <use xlink:href="#DejaVuSans-75" transform="translate(272.949219 0)"/>
      <use xlink:href="#DejaVuSans-74" transform="translate(336.328125 0)"/>
      <use xlink:href="#DejaVuSans-65" transform="translate(375.537109 0)"/>
      <use xlink:href="#DejaVuSans-20" transform="translate(437.060547 0)"/>
      <use xlink:href="#DejaVuSans-52" transform="translate(468.847656 0)"/>
      <use xlink:href="#DejaVuSans-65" transform="translate(533.830078 0)"/>
      <use xlink:href="#DejaVuSans-74" transform="translate(595.353516 0)"/>
      <use xlink:href="#DejaVuSans-75" transform="translate(634.5625 0)"/>
      <use xlink:href="#DejaVuSans-72" transform="translate(697.941406 0)"/>
      <use xlink:href="#DejaVuSans-6e" transform="translate(737.304688 0)"/>
      <use xlink:href="#DejaVuSans-73" transform="translate(800.683594 0)"/>
     </g>
    </g>
    <g id="line2d_20">
     <path d="M 117 79.616562 
L 127 79.616562 
L 137 79.616562 
" style="fill: none; stroke: #1f77b4; stroke-width: 1.5; stroke-linecap: square"/>
    </g>
    <g id="text_21">
     <!-- LSTM MDN v3 Volatility Prediction -->
     <g transform="translate(145 83.116562) scale(0.1 -0.1)">
      <use xlink:href="#DejaVuSans-4c"/>
      <use xlink:href="#DejaVuSans-53" transform="translate(55.712891 0)"/>
      <use xlink:href="#DejaVuSans-54" transform="translate(119.189453 0)"/>
      <use xlink:href="#DejaVuSans-4d" transform="translate(180.273438 0)"/>
      <use xlink:href="#DejaVuSans-20" transform="translate(266.552734 0)"/>
      <use xlink:href="#DejaVuSans-4d" transform="translate(298.339844 0)"/>
      <use xlink:href="#DejaVuSans-44" transform="translate(384.619141 0)"/>
      <use xlink:href="#DejaVuSans-4e" transform="translate(461.621094 0)"/>
      <use xlink:href="#DejaVuSans-20" transform="translate(536.425781 0)"/>
      <use xlink:href="#DejaVuSans-76" transform="translate(568.212891 0)"/>
      <use xlink:href="#DejaVuSans-33" transform="translate(627.392578 0)"/>
      <use xlink:href="#DejaVuSans-20" transform="translate(691.015625 0)"/>
      <use xlink:href="#DejaVuSans-56" transform="translate(722.802734 0)"/>
      <use xlink:href="#DejaVuSans-6f" transform="translate(783.460938 0)"/>
      <use xlink:href="#DejaVuSans-6c" transform="translate(844.642578 0)"/>
      <use xlink:href="#DejaVuSans-61" transform="translate(872.425781 0)"/>
      <use xlink:href="#DejaVuSans-74" transform="translate(933.705078 0)"/>
      <use xlink:href="#DejaVuSans-69" transform="translate(972.914062 0)"/>
      <use xlink:href="#DejaVuSans-6c" transform="translate(1000.697266 0)"/>
      <use xlink:href="#DejaVuSans-69" transform="translate(1028.480469 0)"/>
      <use xlink:href="#DejaVuSans-74" transform="translate(1056.263672 0)"/>
      <use xlink:href="#DejaVuSans-79" transform="translate(1095.472656 0)"/>
      <use xlink:href="#DejaVuSans-20" transform="translate(1154.652344 0)"/>
      <use xlink:href="#DejaVuSans-50" transform="translate(1186.439453 0)"/>
      <use xlink:href="#DejaVuSans-72" transform="translate(1244.992188 0)"/>
      <use xlink:href="#DejaVuSans-65" transform="translate(1283.855469 0)"/>
      <use xlink:href="#DejaVuSans-64" transform="translate(1345.378906 0)"/>
      <use xlink:href="#DejaVuSans-69" transform="translate(1408.855469 0)"/>
      <use xlink:href="#DejaVuSans-63" transform="translate(1436.638672 0)"/>
      <use xlink:href="#DejaVuSans-74" transform="translate(1491.619141 0)"/>
      <use xlink:href="#DejaVuSans-69" transform="translate(1530.828125 0)"/>
      <use xlink:href="#DejaVuSans-6f" transform="translate(1558.611328 0)"/>
      <use xlink:href="#DejaVuSans-6e" transform="translate(1619.792969 0)"/>
     </g>
    </g>
   </g>
  </g>
 </g>
 <defs>
  <clipPath id="pf6558b8ec9">
   <rect x="108" y="51.84" width="669.6" height="332.64"/>
  </clipPath>
 </defs>
</svg>
