<?xml version="1.0" encoding="utf-8" standalone="no"?>
<!DOCTYPE svg PUBLIC "-//W3C//DTD SVG 1.1//EN"
  "http://www.w3.org/Graphics/SVG/1.1/DTD/svg11.dtd">
<svg xmlns:xlink="http://www.w3.org/1999/xlink" width="864pt" height="432pt" viewBox="0 0 864 432" xmlns="http://www.w3.org/2000/svg" version="1.1">
 <metadata>
  <rdf:RDF xmlns:dc="http://purl.org/dc/elements/1.1/" xmlns:cc="http://creativecommons.org/ns#" xmlns:rdf="http://www.w3.org/1999/02/22-rdf-syntax-ns#">
   <cc:Work>
    <dc:type rdf:resource="http://purl.org/dc/dcmitype/StillImage"/>
    <dc:date>2025-02-11T12:33:11.723521</dc:date>
    <dc:format>image/svg+xml</dc:format>
    <dc:creator>
     <cc:Agent>
      <dc:title>Matplotlib v3.10.0, https://matplotlib.org/</dc:title>
     </cc:Agent>
    </dc:creator>
   </cc:Work>
  </rdf:RDF>
 </metadata>
 <defs>
  <style type="text/css">*{stroke-linejoin: round; stroke-linecap: butt}</style>
 </defs>
 <g id="figure_1">
  <g id="patch_1">
   <path d="M 0 432 
L 864 432 
L 864 0 
L 0 0 
z
" style="fill: #ffffff"/>
  </g>
  <g id="axes_1">
   <g id="patch_2">
    <path d="M 108 384.48 
L 777.6 384.48 
L 777.6 51.84 
L 108 51.84 
z
" style="fill: #ffffff"/>
   </g>
   <g id="matplotlib.axis_1">
    <g id="xtick_1">
     <g id="line2d_1">
      <defs>
       <path id="m368cde8fb3" d="M 0 0 
L 0 3.5 
" style="stroke: #000000; stroke-width: 0.8"/>
      </defs>
      <g>
       <use xlink:href="#m368cde8fb3" x="138.822857" y="384.48" style="stroke: #000000; stroke-width: 0.8"/>
      </g>
     </g>
     <g id="text_1">
      <!-- 2020-07 -->
      <g transform="translate(117.931451 399.078438) scale(0.1 -0.1)">
       <defs>
        <path id="DejaVuSans-32" d="M 1228 531 
L 3431 531 
L 3431 0 
L 469 0 
L 469 531 
Q 828 903 1448 1529 
Q 2069 2156 2228 2338 
Q 2531 2678 2651 2914 
Q 2772 3150 2772 3378 
Q 2772 3750 2511 3984 
Q 2250 4219 1831 4219 
Q 1534 4219 1204 4116 
Q 875 4013 500 3803 
L 500 4441 
Q 881 4594 1212 4672 
Q 1544 4750 1819 4750 
Q 2544 4750 2975 4387 
Q 3406 4025 3406 3419 
Q 3406 3131 3298 2873 
Q 3191 2616 2906 2266 
Q 2828 2175 2409 1742 
Q 1991 1309 1228 531 
z
" transform="scale(0.015625)"/>
        <path id="DejaVuSans-30" d="M 2034 4250 
Q 1547 4250 1301 3770 
Q 1056 3291 1056 2328 
Q 1056 1369 1301 889 
Q 1547 409 2034 409 
Q 2525 409 2770 889 
Q 3016 1369 3016 2328 
Q 3016 3291 2770 3770 
Q 2525 4250 2034 4250 
z
M 2034 4750 
Q 2819 4750 3233 4129 
Q 3647 3509 3647 2328 
Q 3647 1150 3233 529 
Q 2819 -91 2034 -91 
Q 1250 -91 836 529 
Q 422 1150 422 2328 
Q 422 3509 836 4129 
Q 1250 4750 2034 4750 
z
" transform="scale(0.015625)"/>
        <path id="DejaVuSans-2d" d="M 313 2009 
L 1997 2009 
L 1997 1497 
L 313 1497 
L 313 2009 
z
" transform="scale(0.015625)"/>
        <path id="DejaVuSans-37" d="M 525 4666 
L 3525 4666 
L 3525 4397 
L 1831 0 
L 1172 0 
L 2766 4134 
L 525 4134 
L 525 4666 
z
" transform="scale(0.015625)"/>
       </defs>
       <use xlink:href="#DejaVuSans-32"/>
       <use xlink:href="#DejaVuSans-30" transform="translate(63.623047 0)"/>
       <use xlink:href="#DejaVuSans-32" transform="translate(127.246094 0)"/>
       <use xlink:href="#DejaVuSans-30" transform="translate(190.869141 0)"/>
       <use xlink:href="#DejaVuSans-2d" transform="translate(254.492188 0)"/>
       <use xlink:href="#DejaVuSans-30" transform="translate(290.576172 0)"/>
       <use xlink:href="#DejaVuSans-37" transform="translate(354.199219 0)"/>
      </g>
     </g>
    </g>
    <g id="xtick_2">
     <g id="line2d_2">
      <g>
       <use xlink:href="#m368cde8fb3" x="209.937662" y="384.48" style="stroke: #000000; stroke-width: 0.8"/>
      </g>
     </g>
     <g id="text_2">
      <!-- 2021-01 -->
      <g transform="translate(189.046256 399.078438) scale(0.1 -0.1)">
       <defs>
        <path id="DejaVuSans-31" d="M 794 531 
L 1825 531 
L 1825 4091 
L 703 3866 
L 703 4441 
L 1819 4666 
L 2450 4666 
L 2450 531 
L 3481 531 
L 3481 0 
L 794 0 
L 794 531 
z
" transform="scale(0.015625)"/>
       </defs>
       <use xlink:href="#DejaVuSans-32"/>
       <use xlink:href="#DejaVuSans-30" transform="translate(63.623047 0)"/>
       <use xlink:href="#DejaVuSans-32" transform="translate(127.246094 0)"/>
       <use xlink:href="#DejaVuSans-31" transform="translate(190.869141 0)"/>
       <use xlink:href="#DejaVuSans-2d" transform="translate(254.492188 0)"/>
       <use xlink:href="#DejaVuSans-30" transform="translate(290.576172 0)"/>
       <use xlink:href="#DejaVuSans-31" transform="translate(354.199219 0)"/>
      </g>
     </g>
    </g>
    <g id="xtick_3">
     <g id="line2d_3">
      <g>
       <use xlink:href="#m368cde8fb3" x="279.892987" y="384.48" style="stroke: #000000; stroke-width: 0.8"/>
      </g>
     </g>
     <g id="text_3">
      <!-- 2021-07 -->
      <g transform="translate(259.001581 399.078438) scale(0.1 -0.1)">
       <use xlink:href="#DejaVuSans-32"/>
       <use xlink:href="#DejaVuSans-30" transform="translate(63.623047 0)"/>
       <use xlink:href="#DejaVuSans-32" transform="translate(127.246094 0)"/>
       <use xlink:href="#DejaVuSans-31" transform="translate(190.869141 0)"/>
       <use xlink:href="#DejaVuSans-2d" transform="translate(254.492188 0)"/>
       <use xlink:href="#DejaVuSans-30" transform="translate(290.576172 0)"/>
       <use xlink:href="#DejaVuSans-37" transform="translate(354.199219 0)"/>
      </g>
     </g>
    </g>
    <g id="xtick_4">
     <g id="line2d_4">
      <g>
       <use xlink:href="#m368cde8fb3" x="351.007792" y="384.48" style="stroke: #000000; stroke-width: 0.8"/>
      </g>
     </g>
     <g id="text_4">
      <!-- 2022-01 -->
      <g transform="translate(330.116386 399.078438) scale(0.1 -0.1)">
       <use xlink:href="#DejaVuSans-32"/>
       <use xlink:href="#DejaVuSans-30" transform="translate(63.623047 0)"/>
       <use xlink:href="#DejaVuSans-32" transform="translate(127.246094 0)"/>
       <use xlink:href="#DejaVuSans-32" transform="translate(190.869141 0)"/>
       <use xlink:href="#DejaVuSans-2d" transform="translate(254.492188 0)"/>
       <use xlink:href="#DejaVuSans-30" transform="translate(290.576172 0)"/>
       <use xlink:href="#DejaVuSans-31" transform="translate(354.199219 0)"/>
      </g>
     </g>
    </g>
    <g id="xtick_5">
     <g id="line2d_5">
      <g>
       <use xlink:href="#m368cde8fb3" x="420.963117" y="384.48" style="stroke: #000000; stroke-width: 0.8"/>
      </g>
     </g>
     <g id="text_5">
      <!-- 2022-07 -->
      <g transform="translate(400.071711 399.078438) scale(0.1 -0.1)">
       <use xlink:href="#DejaVuSans-32"/>
       <use xlink:href="#DejaVuSans-30" transform="translate(63.623047 0)"/>
       <use xlink:href="#DejaVuSans-32" transform="translate(127.246094 0)"/>
       <use xlink:href="#DejaVuSans-32" transform="translate(190.869141 0)"/>
       <use xlink:href="#DejaVuSans-2d" transform="translate(254.492188 0)"/>
       <use xlink:href="#DejaVuSans-30" transform="translate(290.576172 0)"/>
       <use xlink:href="#DejaVuSans-37" transform="translate(354.199219 0)"/>
      </g>
     </g>
    </g>
    <g id="xtick_6">
     <g id="line2d_6">
      <g>
       <use xlink:href="#m368cde8fb3" x="492.077922" y="384.48" style="stroke: #000000; stroke-width: 0.8"/>
      </g>
     </g>
     <g id="text_6">
      <!-- 2023-01 -->
      <g transform="translate(471.186516 399.078438) scale(0.1 -0.1)">
       <defs>
        <path id="DejaVuSans-33" d="M 2597 2516 
Q 3050 2419 3304 2112 
Q 3559 1806 3559 1356 
Q 3559 666 3084 287 
Q 2609 -91 1734 -91 
Q 1441 -91 1130 -33 
Q 819 25 488 141 
L 488 750 
Q 750 597 1062 519 
Q 1375 441 1716 441 
Q 2309 441 2620 675 
Q 2931 909 2931 1356 
Q 2931 1769 2642 2001 
Q 2353 2234 1838 2234 
L 1294 2234 
L 1294 2753 
L 1863 2753 
Q 2328 2753 2575 2939 
Q 2822 3125 2822 3475 
Q 2822 3834 2567 4026 
Q 2313 4219 1838 4219 
Q 1578 4219 1281 4162 
Q 984 4106 628 3988 
L 628 4550 
Q 988 4650 1302 4700 
Q 1616 4750 1894 4750 
Q 2613 4750 3031 4423 
Q 3450 4097 3450 3541 
Q 3450 3153 3228 2886 
Q 3006 2619 2597 2516 
z
" transform="scale(0.015625)"/>
       </defs>
       <use xlink:href="#DejaVuSans-32"/>
       <use xlink:href="#DejaVuSans-30" transform="translate(63.623047 0)"/>
       <use xlink:href="#DejaVuSans-32" transform="translate(127.246094 0)"/>
       <use xlink:href="#DejaVuSans-33" transform="translate(190.869141 0)"/>
       <use xlink:href="#DejaVuSans-2d" transform="translate(254.492188 0)"/>
       <use xlink:href="#DejaVuSans-30" transform="translate(290.576172 0)"/>
       <use xlink:href="#DejaVuSans-31" transform="translate(354.199219 0)"/>
      </g>
     </g>
    </g>
    <g id="xtick_7">
     <g id="line2d_7">
      <g>
       <use xlink:href="#m368cde8fb3" x="562.033247" y="384.48" style="stroke: #000000; stroke-width: 0.8"/>
      </g>
     </g>
     <g id="text_7">
      <!-- 2023-07 -->
      <g transform="translate(541.141841 399.078438) scale(0.1 -0.1)">
       <use xlink:href="#DejaVuSans-32"/>
       <use xlink:href="#DejaVuSans-30" transform="translate(63.623047 0)"/>
       <use xlink:href="#DejaVuSans-32" transform="translate(127.246094 0)"/>
       <use xlink:href="#DejaVuSans-33" transform="translate(190.869141 0)"/>
       <use xlink:href="#DejaVuSans-2d" transform="translate(254.492188 0)"/>
       <use xlink:href="#DejaVuSans-30" transform="translate(290.576172 0)"/>
       <use xlink:href="#DejaVuSans-37" transform="translate(354.199219 0)"/>
      </g>
     </g>
    </g>
    <g id="xtick_8">
     <g id="line2d_8">
      <g>
       <use xlink:href="#m368cde8fb3" x="633.148052" y="384.48" style="stroke: #000000; stroke-width: 0.8"/>
      </g>
     </g>
     <g id="text_8">
      <!-- 2024-01 -->
      <g transform="translate(612.256646 399.078438) scale(0.1 -0.1)">
       <defs>
        <path id="DejaVuSans-34" d="M 2419 4116 
L 825 1625 
L 2419 1625 
L 2419 4116 
z
M 2253 4666 
L 3047 4666 
L 3047 1625 
L 3713 1625 
L 3713 1100 
L 3047 1100 
L 3047 0 
L 2419 0 
L 2419 1100 
L 313 1100 
L 313 1709 
L 2253 4666 
z
" transform="scale(0.015625)"/>
       </defs>
       <use xlink:href="#DejaVuSans-32"/>
       <use xlink:href="#DejaVuSans-30" transform="translate(63.623047 0)"/>
       <use xlink:href="#DejaVuSans-32" transform="translate(127.246094 0)"/>
       <use xlink:href="#DejaVuSans-34" transform="translate(190.869141 0)"/>
       <use xlink:href="#DejaVuSans-2d" transform="translate(254.492188 0)"/>
       <use xlink:href="#DejaVuSans-30" transform="translate(290.576172 0)"/>
       <use xlink:href="#DejaVuSans-31" transform="translate(354.199219 0)"/>
      </g>
     </g>
    </g>
    <g id="xtick_9">
     <g id="line2d_9">
      <g>
       <use xlink:href="#m368cde8fb3" x="703.48987" y="384.48" style="stroke: #000000; stroke-width: 0.8"/>
      </g>
     </g>
     <g id="text_9">
      <!-- 2024-07 -->
      <g transform="translate(682.598464 399.078438) scale(0.1 -0.1)">
       <use xlink:href="#DejaVuSans-32"/>
       <use xlink:href="#DejaVuSans-30" transform="translate(63.623047 0)"/>
       <use xlink:href="#DejaVuSans-32" transform="translate(127.246094 0)"/>
       <use xlink:href="#DejaVuSans-34" transform="translate(190.869141 0)"/>
       <use xlink:href="#DejaVuSans-2d" transform="translate(254.492188 0)"/>
       <use xlink:href="#DejaVuSans-30" transform="translate(290.576172 0)"/>
       <use xlink:href="#DejaVuSans-37" transform="translate(354.199219 0)"/>
      </g>
     </g>
    </g>
    <g id="xtick_10">
     <g id="line2d_10">
      <g>
       <use xlink:href="#m368cde8fb3" x="774.604675" y="384.48" style="stroke: #000000; stroke-width: 0.8"/>
      </g>
     </g>
     <g id="text_10">
      <!-- 2025-01 -->
      <g transform="translate(753.713269 399.078438) scale(0.1 -0.1)">
       <defs>
        <path id="DejaVuSans-35" d="M 691 4666 
L 3169 4666 
L 3169 4134 
L 1269 4134 
L 1269 2991 
Q 1406 3038 1543 3061 
Q 1681 3084 1819 3084 
Q 2600 3084 3056 2656 
Q 3513 2228 3513 1497 
Q 3513 744 3044 326 
Q 2575 -91 1722 -91 
Q 1428 -91 1123 -41 
Q 819 9 494 109 
L 494 744 
Q 775 591 1075 516 
Q 1375 441 1709 441 
Q 2250 441 2565 725 
Q 2881 1009 2881 1497 
Q 2881 1984 2565 2268 
Q 2250 2553 1709 2553 
Q 1456 2553 1204 2497 
Q 953 2441 691 2322 
L 691 4666 
z
" transform="scale(0.015625)"/>
       </defs>
       <use xlink:href="#DejaVuSans-32"/>
       <use xlink:href="#DejaVuSans-30" transform="translate(63.623047 0)"/>
       <use xlink:href="#DejaVuSans-32" transform="translate(127.246094 0)"/>
       <use xlink:href="#DejaVuSans-35" transform="translate(190.869141 0)"/>
       <use xlink:href="#DejaVuSans-2d" transform="translate(254.492188 0)"/>
       <use xlink:href="#DejaVuSans-30" transform="translate(290.576172 0)"/>
       <use xlink:href="#DejaVuSans-31" transform="translate(354.199219 0)"/>
      </g>
     </g>
    </g>
    <g id="text_11">
     <!-- Date -->
     <g transform="translate(430.849219 412.756563) scale(0.1 -0.1)">
      <defs>
       <path id="DejaVuSans-44" d="M 1259 4147 
L 1259 519 
L 2022 519 
Q 2988 519 3436 956 
Q 3884 1394 3884 2338 
Q 3884 3275 3436 3711 
Q 2988 4147 2022 4147 
L 1259 4147 
z
M 628 4666 
L 1925 4666 
Q 3281 4666 3915 4102 
Q 4550 3538 4550 2338 
Q 4550 1131 3912 565 
Q 3275 0 1925 0 
L 628 0 
L 628 4666 
z
" transform="scale(0.015625)"/>
       <path id="DejaVuSans-61" d="M 2194 1759 
Q 1497 1759 1228 1600 
Q 959 1441 959 1056 
Q 959 750 1161 570 
Q 1363 391 1709 391 
Q 2188 391 2477 730 
Q 2766 1069 2766 1631 
L 2766 1759 
L 2194 1759 
z
M 3341 1997 
L 3341 0 
L 2766 0 
L 2766 531 
Q 2569 213 2275 61 
Q 1981 -91 1556 -91 
Q 1019 -91 701 211 
Q 384 513 384 1019 
Q 384 1609 779 1909 
Q 1175 2209 1959 2209 
L 2766 2209 
L 2766 2266 
Q 2766 2663 2505 2880 
Q 2244 3097 1772 3097 
Q 1472 3097 1187 3025 
Q 903 2953 641 2809 
L 641 3341 
Q 956 3463 1253 3523 
Q 1550 3584 1831 3584 
Q 2591 3584 2966 3190 
Q 3341 2797 3341 1997 
z
" transform="scale(0.015625)"/>
       <path id="DejaVuSans-74" d="M 1172 4494 
L 1172 3500 
L 2356 3500 
L 2356 3053 
L 1172 3053 
L 1172 1153 
Q 1172 725 1289 603 
Q 1406 481 1766 481 
L 2356 481 
L 2356 0 
L 1766 0 
Q 1100 0 847 248 
Q 594 497 594 1153 
L 594 3053 
L 172 3053 
L 172 3500 
L 594 3500 
L 594 4494 
L 1172 4494 
z
" transform="scale(0.015625)"/>
       <path id="DejaVuSans-65" d="M 3597 1894 
L 3597 1613 
L 953 1613 
Q 991 1019 1311 708 
Q 1631 397 2203 397 
Q 2534 397 2845 478 
Q 3156 559 3463 722 
L 3463 178 
Q 3153 47 2828 -22 
Q 2503 -91 2169 -91 
Q 1331 -91 842 396 
Q 353 884 353 1716 
Q 353 2575 817 3079 
Q 1281 3584 2069 3584 
Q 2775 3584 3186 3129 
Q 3597 2675 3597 1894 
z
M 3022 2063 
Q 3016 2534 2758 2815 
Q 2500 3097 2075 3097 
Q 1594 3097 1305 2825 
Q 1016 2553 972 2059 
L 3022 2063 
z
" transform="scale(0.015625)"/>
      </defs>
      <use xlink:href="#DejaVuSans-44"/>
      <use xlink:href="#DejaVuSans-61" transform="translate(77.001953 0)"/>
      <use xlink:href="#DejaVuSans-74" transform="translate(138.28125 0)"/>
      <use xlink:href="#DejaVuSans-65" transform="translate(177.490234 0)"/>
     </g>
    </g>
   </g>
   <g id="matplotlib.axis_2">
    <g id="ytick_1">
     <g id="line2d_11">
      <defs>
       <path id="mdca7e972ff" d="M 0 0 
L -3.5 0 
" style="stroke: #000000; stroke-width: 0.8"/>
      </defs>
      <g>
       <use xlink:href="#mdca7e972ff" x="108" y="369.392416" style="stroke: #000000; stroke-width: 0.8"/>
      </g>
     </g>
     <g id="text_12">
      <!-- 0.00 -->
      <g transform="translate(78.734375 373.191635) scale(0.1 -0.1)">
       <defs>
        <path id="DejaVuSans-2e" d="M 684 794 
L 1344 794 
L 1344 0 
L 684 0 
L 684 794 
z
" transform="scale(0.015625)"/>
       </defs>
       <use xlink:href="#DejaVuSans-30"/>
       <use xlink:href="#DejaVuSans-2e" transform="translate(63.623047 0)"/>
       <use xlink:href="#DejaVuSans-30" transform="translate(95.410156 0)"/>
       <use xlink:href="#DejaVuSans-30" transform="translate(159.033203 0)"/>
      </g>
     </g>
    </g>
    <g id="ytick_2">
     <g id="line2d_12">
      <g>
       <use xlink:href="#mdca7e972ff" x="108" y="313.337108" style="stroke: #000000; stroke-width: 0.8"/>
      </g>
     </g>
     <g id="text_13">
      <!-- 0.01 -->
      <g transform="translate(78.734375 317.136327) scale(0.1 -0.1)">
       <use xlink:href="#DejaVuSans-30"/>
       <use xlink:href="#DejaVuSans-2e" transform="translate(63.623047 0)"/>
       <use xlink:href="#DejaVuSans-30" transform="translate(95.410156 0)"/>
       <use xlink:href="#DejaVuSans-31" transform="translate(159.033203 0)"/>
      </g>
     </g>
    </g>
    <g id="ytick_3">
     <g id="line2d_13">
      <g>
       <use xlink:href="#mdca7e972ff" x="108" y="257.2818" style="stroke: #000000; stroke-width: 0.8"/>
      </g>
     </g>
     <g id="text_14">
      <!-- 0.02 -->
      <g transform="translate(78.734375 261.081019) scale(0.1 -0.1)">
       <use xlink:href="#DejaVuSans-30"/>
       <use xlink:href="#DejaVuSans-2e" transform="translate(63.623047 0)"/>
       <use xlink:href="#DejaVuSans-30" transform="translate(95.410156 0)"/>
       <use xlink:href="#DejaVuSans-32" transform="translate(159.033203 0)"/>
      </g>
     </g>
    </g>
    <g id="ytick_4">
     <g id="line2d_14">
      <g>
       <use xlink:href="#mdca7e972ff" x="108" y="201.226493" style="stroke: #000000; stroke-width: 0.8"/>
      </g>
     </g>
     <g id="text_15">
      <!-- 0.03 -->
      <g transform="translate(78.734375 205.025711) scale(0.1 -0.1)">
       <use xlink:href="#DejaVuSans-30"/>
       <use xlink:href="#DejaVuSans-2e" transform="translate(63.623047 0)"/>
       <use xlink:href="#DejaVuSans-30" transform="translate(95.410156 0)"/>
       <use xlink:href="#DejaVuSans-33" transform="translate(159.033203 0)"/>
      </g>
     </g>
    </g>
    <g id="ytick_5">
     <g id="line2d_15">
      <g>
       <use xlink:href="#mdca7e972ff" x="108" y="145.171185" style="stroke: #000000; stroke-width: 0.8"/>
      </g>
     </g>
     <g id="text_16">
      <!-- 0.04 -->
      <g transform="translate(78.734375 148.970403) scale(0.1 -0.1)">
       <use xlink:href="#DejaVuSans-30"/>
       <use xlink:href="#DejaVuSans-2e" transform="translate(63.623047 0)"/>
       <use xlink:href="#DejaVuSans-30" transform="translate(95.410156 0)"/>
       <use xlink:href="#DejaVuSans-34" transform="translate(159.033203 0)"/>
      </g>
     </g>
    </g>
    <g id="ytick_6">
     <g id="line2d_16">
      <g>
       <use xlink:href="#mdca7e972ff" x="108" y="89.115877" style="stroke: #000000; stroke-width: 0.8"/>
      </g>
     </g>
     <g id="text_17">
      <!-- 0.05 -->
      <g transform="translate(78.734375 92.915095) scale(0.1 -0.1)">
       <use xlink:href="#DejaVuSans-30"/>
       <use xlink:href="#DejaVuSans-2e" transform="translate(63.623047 0)"/>
       <use xlink:href="#DejaVuSans-30" transform="translate(95.410156 0)"/>
       <use xlink:href="#DejaVuSans-35" transform="translate(159.033203 0)"/>
      </g>
     </g>
    </g>
    <g id="text_18">
     <!-- Volatility -->
     <g transform="translate(72.654687 239.752187) rotate(-90) scale(0.1 -0.1)">
      <defs>
       <path id="DejaVuSans-56" d="M 1831 0 
L 50 4666 
L 709 4666 
L 2188 738 
L 3669 4666 
L 4325 4666 
L 2547 0 
L 1831 0 
z
" transform="scale(0.015625)"/>
       <path id="DejaVuSans-6f" d="M 1959 3097 
Q 1497 3097 1228 2736 
Q 959 2375 959 1747 
Q 959 1119 1226 758 
Q 1494 397 1959 397 
Q 2419 397 2687 759 
Q 2956 1122 2956 1747 
Q 2956 2369 2687 2733 
Q 2419 3097 1959 3097 
z
M 1959 3584 
Q 2709 3584 3137 3096 
Q 3566 2609 3566 1747 
Q 3566 888 3137 398 
Q 2709 -91 1959 -91 
Q 1206 -91 779 398 
Q 353 888 353 1747 
Q 353 2609 779 3096 
Q 1206 3584 1959 3584 
z
" transform="scale(0.015625)"/>
       <path id="DejaVuSans-6c" d="M 603 4863 
L 1178 4863 
L 1178 0 
L 603 0 
L 603 4863 
z
" transform="scale(0.015625)"/>
       <path id="DejaVuSans-69" d="M 603 3500 
L 1178 3500 
L 1178 0 
L 603 0 
L 603 3500 
z
M 603 4863 
L 1178 4863 
L 1178 4134 
L 603 4134 
L 603 4863 
z
" transform="scale(0.015625)"/>
       <path id="DejaVuSans-79" d="M 2059 -325 
Q 1816 -950 1584 -1140 
Q 1353 -1331 966 -1331 
L 506 -1331 
L 506 -850 
L 844 -850 
Q 1081 -850 1212 -737 
Q 1344 -625 1503 -206 
L 1606 56 
L 191 3500 
L 800 3500 
L 1894 763 
L 2988 3500 
L 3597 3500 
L 2059 -325 
z
" transform="scale(0.015625)"/>
      </defs>
      <use xlink:href="#DejaVuSans-56"/>
      <use xlink:href="#DejaVuSans-6f" transform="translate(60.658203 0)"/>
      <use xlink:href="#DejaVuSans-6c" transform="translate(121.839844 0)"/>
      <use xlink:href="#DejaVuSans-61" transform="translate(149.623047 0)"/>
      <use xlink:href="#DejaVuSans-74" transform="translate(210.902344 0)"/>
      <use xlink:href="#DejaVuSans-69" transform="translate(250.111328 0)"/>
      <use xlink:href="#DejaVuSans-6c" transform="translate(277.894531 0)"/>
      <use xlink:href="#DejaVuSans-69" transform="translate(305.677734 0)"/>
      <use xlink:href="#DejaVuSans-74" transform="translate(333.460938 0)"/>
      <use xlink:href="#DejaVuSans-79" transform="translate(372.669922 0)"/>
     </g>
    </g>
   </g>
   <g id="line2d_17">
    <path d="M 138.436364 283.67068 
L 138.822857 341.311152 
L 139.209351 343.993921 
L 140.755325 281.066455 
L 141.141818 308.418378 
L 141.528312 325.68617 
L 141.914805 337.667403 
L 142.301299 311.028696 
L 143.460779 316.663178 
L 143.847273 294.741878 
L 144.233766 318.712493 
L 144.62026 350.266819 
L 145.006753 353.447133 
L 146.166234 322.464048 
L 146.552727 359.988413 
L 146.939221 337.26919 
L 147.325714 299.904134 
L 147.712208 334.584089 
L 148.871688 328.091265 
L 149.258182 332.987658 
L 149.644675 300.154114 
L 150.031169 348.330747 
L 150.417662 326.559232 
L 151.577143 329.282811 
L 151.963636 349.182105 
L 152.35013 333.46567 
L 152.736623 333.477075 
L 153.123117 365.845073 
L 154.282597 354.041864 
L 155.055584 291.478327 
L 155.442078 357.905155 
L 155.828571 368.42884 
L 156.988052 354.222856 
L 157.374545 356.495545 
L 157.761039 344.648913 
L 158.147532 351.714508 
L 158.534026 350.136298 
L 159.693506 313.372898 
L 160.08 349.269123 
L 160.466494 312.529905 
L 160.852987 360.021952 
L 161.239481 331.779289 
L 162.398961 357.074962 
L 162.785455 327.368698 
L 163.171948 283.913395 
L 163.558442 168.952122 
L 163.944935 323.616078 
L 165.490909 211.603288 
L 165.877403 257.591446 
L 166.263896 269.943315 
L 166.65039 366.405059 
L 167.80987 298.418914 
L 168.196364 340.211223 
L 168.582857 343.440788 
L 169.355844 306.354989 
L 170.515325 304.152087 
L 170.901818 310.741657 
L 171.288312 234.81854 
L 171.674805 352.671087 
L 172.061299 280.542291 
L 173.220779 279.803747 
L 173.607273 342.349751 
L 173.993766 323.315836 
L 174.38026 339.801102 
L 174.766753 315.445837 
L 175.926234 269.540485 
L 176.312727 290.511026 
L 176.699221 272.71291 
L 177.085714 324.670298 
L 177.472208 320.31546 
L 178.631688 278.120192 
L 179.018182 333.926831 
L 179.404675 332.142699 
L 179.791169 360.821989 
L 180.177662 368.636171 
L 181.337143 277.099238 
L 181.723636 342.955639 
L 182.11013 357.070822 
L 182.496623 340.213645 
L 182.883117 350.110296 
L 184.042597 264.207585 
L 184.429091 352.406507 
L 184.815584 168.010683 
L 185.202078 302.81819 
L 185.588571 300.984126 
L 186.748052 300.764179 
L 187.521039 247.14966 
L 187.907532 261.355453 
L 188.294026 367.779244 
L 189.453506 304.188958 
L 189.84 361.540281 
L 190.226494 326.66295 
L 190.612987 313.176505 
L 190.999481 293.613775 
L 192.158961 304.476265 
L 192.545455 342.466538 
L 192.931948 304.193291 
L 193.318442 347.314014 
L 193.704935 331.186556 
L 194.864416 337.888646 
L 195.250909 279.522012 
L 195.637403 360.503883 
L 196.41039 355.972146 
L 197.56987 343.572576 
L 197.956364 306.564791 
L 198.342857 359.361047 
L 198.729351 365.892651 
L 199.115844 320.078033 
L 200.275325 358.53171 
L 200.661818 353.790763 
L 201.048312 324.65492 
L 201.434805 362.184026 
L 201.821299 362.297002 
L 202.980779 344.902995 
L 203.367273 297.425951 
L 203.753766 359.463764 
L 204.14026 337.210201 
L 204.526753 349.676052 
L 205.686234 347.452755 
L 206.459221 365.213307 
L 206.845714 349.602853 
L 208.391688 320.710095 
L 208.778182 356.892793 
L 209.164675 361.877372 
L 209.551169 333.414866 
L 211.097143 286.06748 
L 211.483636 329.830654 
L 211.87013 337.476725 
L 212.256623 286.776714 
L 212.643117 338.691825 
L 213.802597 332.528645 
L 214.189091 367.062236 
L 214.962078 348.312669 
L 215.348571 328.942959 
L 216.894545 323.968253 
L 217.281039 291.815115 
L 217.667532 367.617253 
L 218.054026 352.490882 
L 219.213506 349.160329 
L 219.6 361.04048 
L 219.986494 223.573973 
L 220.372987 314.944166 
L 220.759481 260.082438 
L 221.918961 280.128287 
L 222.305455 292.021844 
L 222.691948 363.740673 
L 223.078442 308.881519 
L 223.464935 347.587335 
L 224.624416 328.067855 
L 225.010909 363.147051 
L 225.397403 367.457134 
L 225.783896 360.08121 
L 226.17039 343.046578 
L 227.716364 366.20042 
L 228.102857 367.596119 
L 228.489351 344.58451 
L 228.875844 358.985095 
L 230.035325 325.877225 
L 230.421818 362.354531 
L 230.808312 306.119068 
L 231.194805 230.468399 
L 231.581299 342.701479 
L 232.740779 237.594156 
L 233.127273 323.910838 
L 233.513766 295.666692 
L 233.90026 293.672694 
L 234.286753 261.158934 
L 235.446234 339.270358 
L 235.832727 290.604498 
L 236.219221 335.690704 
L 236.605714 311.421037 
L 236.992208 363.703457 
L 238.151688 333.119441 
L 238.538182 360.586707 
L 238.924675 353.275223 
L 239.311169 286.035114 
L 239.697662 366.01287 
L 240.857143 330.150565 
L 241.243636 326.453343 
L 241.63013 338.661048 
L 242.016623 340.094681 
L 242.403117 276.932472 
L 243.562597 364.524704 
L 243.949091 351.662992 
L 244.335584 349.122998 
L 244.722078 303.494781 
L 246.268052 289.037194 
L 246.654545 363.932561 
L 247.041039 361.128923 
L 247.814026 326.284246 
L 248.973506 368.293142 
L 249.36 350.955435 
L 249.746494 346.431696 
L 250.132987 307.546116 
L 250.519481 349.199472 
L 251.678961 339.567191 
L 252.065455 331.131422 
L 252.451948 317.468241 
L 252.838442 317.522602 
L 253.224935 308.46366 
L 254.384416 359.410728 
L 254.770909 368.187685 
L 255.157403 364.650764 
L 255.543896 331.610958 
L 255.93039 328.916475 
L 257.08987 354.008949 
L 257.476364 331.831226 
L 257.862857 365.450633 
L 258.249351 323.806525 
L 258.635844 328.212528 
L 259.795325 310.587734 
L 260.181818 320.558403 
L 260.568312 247.848855 
L 260.954805 301.567432 
L 261.341299 286.386954 
L 262.500779 355.192104 
L 262.887273 321.444064 
L 263.273766 352.868706 
L 263.66026 310.537598 
L 264.046753 364.996699 
L 265.206234 314.107939 
L 265.592727 357.466424 
L 265.979221 358.881792 
L 266.365714 362.863944 
L 266.752208 365.084055 
L 268.298182 366.631845 
L 268.684675 361.287412 
L 269.071169 349.014639 
L 269.457662 320.090124 
L 270.617143 364.924516 
L 271.003636 368.411323 
L 271.39013 359.159285 
L 271.776623 343.37456 
L 272.163117 358.481119 
L 273.322597 359.226419 
L 273.709091 358.104392 
L 274.095584 339.096247 
L 274.482078 366.949509 
L 274.868571 295.335713 
L 276.028052 291.446652 
L 276.414545 340.740273 
L 276.801039 363.316744 
L 277.187532 336.91155 
L 277.574026 350.753621 
L 278.733506 356.430768 
L 279.12 367.838069 
L 279.506494 361.95231 
L 279.892987 340.198633 
L 280.279481 327.507355 
L 281.825455 358.047373 
L 282.211948 350.595056 
L 282.598442 321.196676 
L 282.984935 306.527339 
L 284.144416 350.08003 
L 284.530909 349.644097 
L 284.917403 362.866196 
L 285.303896 351.075957 
L 285.69039 326.973076 
L 286.84987 279.721864 
L 287.236364 285.035772 
L 288.009351 358.099216 
L 288.395844 312.8084 
L 289.555325 356.054758 
L 289.941818 342.91428 
L 290.328312 368.348126 
L 290.714805 345.8641 
L 291.101299 339.006486 
L 292.260779 359.052995 
L 292.647273 323.595505 
L 293.033766 343.365151 
L 293.42026 335.829432 
L 293.806753 360.009545 
L 294.966234 364.121282 
L 295.352727 363.830685 
L 295.739221 362.245698 
L 296.125714 346.197835 
L 296.512208 360.38987 
L 297.671688 354.720326 
L 298.444675 308.815339 
L 298.831169 362.352393 
L 299.217662 323.939409 
L 300.377143 321.814486 
L 300.763636 361.014279 
L 301.15013 356.961346 
L 301.923117 320.237137 
L 303.082597 345.303661 
L 303.469091 361.824877 
L 303.855584 367.645593 
L 304.242078 353.480464 
L 304.628571 367.514099 
L 306.174545 350.326019 
L 306.561039 361.996224 
L 307.334026 325.935255 
L 308.493506 356.646001 
L 309.266494 322.091286 
L 309.652987 360.690694 
L 310.039481 318.087022 
L 311.198961 273.408545 
L 311.585455 364.836787 
L 311.971948 316.282331 
L 312.358442 301.780224 
L 312.744935 361.208662 
L 313.904416 353.807695 
L 314.290909 254.06242 
L 314.677403 360.603172 
L 315.063896 302.231313 
L 315.45039 305.343889 
L 316.60987 296.122893 
L 316.996364 310.705284 
L 317.382857 346.441122 
L 317.769351 323.06804 
L 318.155844 358.654605 
L 319.315325 330.773442 
L 319.701818 355.828732 
L 320.088312 352.475175 
L 320.474805 274.551482 
L 320.861299 327.729258 
L 322.020779 350.506821 
L 322.407273 328.101304 
L 322.793766 348.891193 
L 323.18026 352.624 
L 323.566753 363.376936 
L 324.726234 342.839217 
L 325.112727 359.20084 
L 325.499221 341.00401 
L 325.885714 314.563159 
L 326.272208 358.475949 
L 327.431688 359.311147 
L 327.818182 348.799875 
L 328.204675 333.290052 
L 328.591169 345.999211 
L 328.977662 348.507081 
L 330.137143 364.418114 
L 330.523636 349.745525 
L 330.91013 323.091664 
L 331.296623 366.305026 
L 331.683117 329.05108 
L 332.842597 369.332205 
L 333.229091 347.767514 
L 333.615584 354.789899 
L 334.002078 350.450985 
L 334.388571 361.546759 
L 335.548052 351.441963 
L 335.934545 360.11094 
L 336.321039 356.54885 
L 337.094026 240.53795 
L 338.253506 295.882407 
L 338.64 262.083627 
L 339.026494 302.767599 
L 339.412987 290.384435 
L 339.799481 321.832569 
L 340.958961 304.017413 
L 341.345455 254.503655 
L 341.731948 352.124333 
L 342.118442 328.993381 
L 342.504935 316.118775 
L 343.664416 317.943973 
L 344.050909 327.358059 
L 344.437403 278.491575 
L 344.823896 320.165382 
L 345.21039 311.425803 
L 346.36987 305.19006 
L 346.756364 270.613076 
L 347.142857 312.615494 
L 347.529351 334.613486 
L 349.075325 292.349714 
L 349.461818 363.727152 
L 349.848312 361.539507 
L 350.234805 352.608121 
L 350.621299 354.651925 
L 351.780779 333.775839 
L 352.167273 365.861845 
L 352.553766 259.617897 
L 352.94026 363.987343 
L 353.326753 346.642723 
L 354.486234 361.308781 
L 354.872727 318.279563 
L 355.259221 353.619587 
L 355.645714 288.975323 
L 356.032208 364.79789 
L 357.578182 265.358822 
L 357.964675 314.812532 
L 358.351169 307.178057 
L 358.737662 262.349149 
L 359.897143 353.876766 
L 360.283636 300.74376 
L 360.67013 360.996719 
L 361.056623 339.130214 
L 361.443117 234.545989 
L 362.602597 264.513918 
L 362.989091 331.053093 
L 363.375584 316.821435 
L 363.762078 230.972327 
L 364.148571 340.559298 
L 365.308052 348.603812 
L 365.694545 322.495937 
L 366.081039 288.600708 
L 366.467532 266.913084 
L 366.854026 262.036996 
L 368.013506 347.822404 
L 368.4 281.701078 
L 368.786494 364.454881 
L 369.172987 249.431232 
L 369.559481 329.077588 
L 371.105455 312.24558 
L 371.491948 265.220669 
L 371.878442 286.17211 
L 372.264935 245.364 
L 373.424416 355.683528 
L 373.810909 281.977245 
L 374.197403 265.852489 
L 374.583896 339.859567 
L 374.97039 324.740548 
L 376.12987 201.436177 
L 376.516364 328.696081 
L 376.902857 227.159914 
L 377.289351 345.2827 
L 377.675844 296.261179 
L 378.835325 327.638633 
L 379.221818 250.652576 
L 379.608312 245.303179 
L 379.994805 300.600268 
L 380.381299 304.397321 
L 381.540779 366.955437 
L 381.927273 306.382314 
L 382.313766 300.1717 
L 382.70026 289.55828 
L 383.086753 341.065538 
L 384.246234 329.483629 
L 384.632727 301.105566 
L 385.019221 334.001402 
L 385.405714 280.957732 
L 385.792208 350.308839 
L 386.951688 324.220995 
L 387.338182 298.588089 
L 387.724675 314.6576 
L 388.111169 345.600443 
L 388.497662 354.512243 
L 389.657143 273.978801 
L 390.043636 350.202987 
L 390.43013 307.100438 
L 390.816623 300.901348 
L 392.362597 368.243906 
L 392.749091 280.095958 
L 393.135584 365.92442 
L 393.908571 211.69716 
L 395.068052 337.543149 
L 395.454545 209.354491 
L 395.841039 357.644024 
L 396.227532 232.361595 
L 396.614026 162.216741 
L 397.773506 337.66961 
L 398.16 342.34312 
L 398.546494 204.448486 
L 398.932987 165.907856 
L 399.319481 337.494755 
L 400.478961 186.867889 
L 400.865455 355.631583 
L 401.251948 276.339327 
L 401.638442 362.123212 
L 402.024935 237.162069 
L 403.184416 347.226955 
L 403.570909 257.456006 
L 403.957403 138.25498 
L 404.343896 336.595203 
L 404.73039 368.573229 
L 405.88987 266.334748 
L 406.276364 323.685221 
L 406.662857 316.664632 
L 407.049351 259.029806 
L 407.435844 232.386971 
L 408.981818 334.110491 
L 409.368312 327.289837 
L 409.754805 267.017403 
L 410.141299 276.999763 
L 411.300779 351.833064 
L 411.687273 316.261337 
L 412.073766 308.557644 
L 412.46026 234.375107 
L 412.846753 203.791446 
L 414.006234 147.750146 
L 414.392727 348.198928 
L 414.779221 288.184777 
L 415.165714 184.117207 
L 415.552208 357.068904 
L 417.098182 233.836885 
L 417.484675 362.09173 
L 417.871169 316.212322 
L 418.257662 200.634901 
L 419.417143 352.701924 
L 419.803636 255.327241 
L 420.19013 365.401389 
L 420.576623 320.0757 
L 420.963117 310.542681 
L 422.509091 360.519582 
L 422.895584 349.398612 
L 423.282078 286.12947 
L 423.668571 364.73642 
L 424.828052 304.39948 
L 425.214545 317.334563 
L 425.601039 344.353301 
L 425.987532 352.558298 
L 426.374026 262.779571 
L 427.533506 322.313028 
L 427.92 216.622046 
L 428.306494 336.440282 
L 428.692987 314.384897 
L 429.079481 316.833305 
L 430.238961 362.025058 
L 430.625455 304.310196 
L 431.011948 224.657278 
L 431.398442 301.787956 
L 431.784935 290.310854 
L 432.944416 353.545228 
L 433.330909 331.92111 
L 433.717403 282.40881 
L 434.103896 365.033291 
L 434.49039 360.271831 
L 435.64987 362.451104 
L 436.036364 345.525424 
L 436.422857 251.299836 
L 436.809351 365.436485 
L 437.195844 273.122744 
L 438.355325 347.185119 
L 438.741818 358.88803 
L 439.128312 328.673139 
L 439.514805 356.68473 
L 439.901299 296.610675 
L 441.060779 248.131448 
L 441.447273 356.834024 
L 441.833766 353.069631 
L 442.22026 290.952865 
L 442.606753 177.298863 
L 443.766234 331.898848 
L 444.152727 307.230344 
L 444.539221 325.401695 
L 444.925714 352.622054 
L 445.312208 308.883202 
L 446.858182 346.390273 
L 447.244675 267.512707 
L 447.631169 332.45778 
L 448.017662 284.434874 
L 449.177143 310.373666 
L 449.563636 121.632528 
L 449.95013 350.438451 
L 450.336623 305.588756 
L 450.723117 328.9875 
L 451.882597 331.085934 
L 452.269091 305.847419 
L 452.655584 272.614753 
L 453.042078 321.951224 
L 453.428571 271.952449 
L 454.588052 311.126417 
L 454.974545 357.494055 
L 455.361039 260.190262 
L 455.747532 249.698771 
L 456.134026 284.292811 
L 457.293506 226.145466 
L 457.68 200.523886 
L 458.066494 358.069317 
L 458.452987 311.667107 
L 458.839481 210.177434 
L 459.998961 327.235082 
L 460.385455 332.729346 
L 460.771948 350.915403 
L 461.158442 225.698759 
L 461.544935 235.156162 
L 462.704416 222.888904 
L 463.090909 305.698114 
L 463.477403 331.866394 
L 463.863896 324.645194 
L 464.25039 237.955232 
L 465.40987 303.180204 
L 465.796364 278.942889 
L 466.182857 327.826633 
L 466.569351 335.19196 
L 466.955844 233.020726 
L 468.115325 327.449971 
L 468.501818 346.355545 
L 468.888312 227.461187 
L 469.274805 309.736062 
L 469.661299 293.567476 
L 470.820779 315.758351 
L 471.207273 338.100697 
L 471.593766 251.694351 
L 471.98026 66.96 
L 472.366753 317.831014 
L 473.526234 319.07755 
L 474.299221 322.943318 
L 474.685714 352.048432 
L 475.072208 342.781346 
L 476.231688 347.57982 
L 476.618182 293.781529 
L 477.004675 336.335154 
L 477.777662 367.805568 
L 478.937143 282.143995 
L 479.323636 360.462139 
L 479.71013 198.543476 
L 480.096623 364.526814 
L 480.483117 362.691731 
L 481.642597 268.177503 
L 482.029091 288.090499 
L 482.415584 358.943088 
L 482.802078 327.386601 
L 483.188571 328.042027 
L 484.348052 289.915445 
L 484.734545 328.678256 
L 485.121039 335.360633 
L 485.507532 227.922912 
L 485.894026 306.609116 
L 487.053506 318.671723 
L 487.44 363.580606 
L 487.826494 286.662952 
L 488.212987 287.791977 
L 488.599481 336.594688 
L 490.145455 346.646001 
L 490.531948 301.602139 
L 490.918442 272.357209 
L 491.304935 355.132125 
L 492.850909 346.922251 
L 493.623896 303.729923 
L 494.01039 242.798002 
L 495.16987 365.087762 
L 495.942857 297.823413 
L 496.329351 350.277101 
L 496.715844 347.032511 
L 498.261818 357.998888 
L 498.648312 281.469799 
L 499.034805 326.411059 
L 499.421299 264.335402 
L 500.580779 303.183653 
L 500.967273 365.402655 
L 501.353766 368.373631 
L 501.74026 308.024786 
L 502.126753 355.424824 
L 503.286234 296.220147 
L 503.672727 287.908684 
L 504.059221 311.105742 
L 504.445714 287.594362 
L 504.832208 311.04671 
L 505.991688 334.865752 
L 506.378182 297.695667 
L 506.764675 306.93243 
L 507.151169 319.676859 
L 507.537662 357.100243 
L 508.697143 305.581571 
L 509.083636 367.8204 
L 509.47013 353.86883 
L 509.856623 291.561344 
L 510.243117 353.858166 
L 511.789091 255.909657 
L 512.175584 360.564766 
L 512.562078 339.597348 
L 512.948571 310.010325 
L 514.108052 352.192939 
L 514.494545 352.348111 
L 514.881039 342.842034 
L 515.267532 327.050521 
L 515.654026 279.598818 
L 516.813506 365.541845 
L 517.2 282.811689 
L 517.586494 361.467339 
L 517.972987 264.951022 
L 519.518961 360.922978 
L 519.905455 277.784698 
L 520.291948 330.123643 
L 520.678442 271.802496 
L 521.064935 307.279705 
L 522.224416 319.621605 
L 522.997403 276.339277 
L 523.383896 352.687465 
L 523.77039 337.867146 
L 524.92987 360.168012 
L 525.316364 360.563252 
L 525.702857 290.147667 
L 526.089351 337.446528 
L 526.475844 289.04648 
L 527.635325 348.69668 
L 528.021818 336.802715 
L 528.408312 355.403937 
L 528.794805 349.365177 
L 530.340779 363.810313 
L 530.727273 369.160502 
L 531.113766 346.166268 
L 531.50026 295.536773 
L 531.886753 357.780431 
L 533.046234 350.890204 
L 533.432727 364.600492 
L 533.819221 368.92006 
L 534.205714 335.925492 
L 534.592208 364.331822 
L 535.751688 364.620921 
L 536.138182 280.056118 
L 536.524675 347.819053 
L 536.911169 260.772972 
L 537.297662 323.318678 
L 538.457143 367.227617 
L 538.843636 304.066136 
L 539.23013 330.025259 
L 539.616623 328.780871 
L 540.003117 266.776677 
L 541.162597 366.858591 
L 541.549091 343.663366 
L 541.935584 344.313615 
L 542.322078 359.873888 
L 542.708571 360.510161 
L 543.868052 352.834822 
L 544.254545 333.527603 
L 544.641039 303.131205 
L 545.027532 316.696354 
L 545.414026 361.281728 
L 546.573506 368.523435 
L 546.96 306.13138 
L 547.346494 328.216842 
L 547.732987 320.51517 
L 548.119481 296.718512 
L 549.665455 369.299379 
L 550.051948 335.045377 
L 550.824935 288.505655 
L 551.984416 358.149983 
L 552.370909 356.213029 
L 552.757403 347.983218 
L 553.143896 334.808635 
L 553.53039 362.960608 
L 554.68987 317.384458 
L 555.076364 330.666198 
L 555.462857 364.801082 
L 555.849351 301.539817 
L 556.235844 348.773164 
L 557.781818 342.786689 
L 558.168312 339.912343 
L 558.554805 348.629914 
L 558.941299 326.295556 
L 560.100779 344.184653 
L 560.487273 305.541221 
L 560.873766 367.407268 
L 561.26026 344.371848 
L 561.646753 301.036536 
L 562.806234 362.834061 
L 563.579221 358.348098 
L 563.965714 324.805656 
L 564.352208 353.309017 
L 565.511688 355.927142 
L 565.898182 331.725557 
L 566.284675 328.001697 
L 566.671169 322.112766 
L 567.057662 363.647149 
L 568.217143 347.822526 
L 568.603636 329.637544 
L 568.99013 356.190678 
L 569.376623 331.387882 
L 569.763117 367.576022 
L 570.922597 346.824325 
L 571.309091 353.636748 
L 571.695584 368.520983 
L 572.082078 333.262621 
L 572.468571 314.293578 
L 573.628052 361.165517 
L 574.014545 354.433219 
L 574.401039 291.272545 
L 574.787532 355.091443 
L 575.174026 339.603741 
L 576.333506 319.034534 
L 576.72 345.696761 
L 577.106494 329.79711 
L 577.492987 367.987229 
L 577.879481 363.39298 
L 579.038961 337.250288 
L 579.425455 304.266643 
L 579.811948 326.879594 
L 580.198442 325.989868 
L 580.584935 368.558777 
L 581.744416 330.963019 
L 582.130909 353.801598 
L 582.517403 307.819363 
L 582.903896 293.441105 
L 583.29039 331.860582 
L 584.44987 334.385433 
L 584.836364 288.649997 
L 585.222857 347.946516 
L 585.609351 360.43366 
L 585.995844 359.316482 
L 587.541818 345.832434 
L 587.928312 330.176039 
L 588.314805 351.362531 
L 588.701299 361.401135 
L 589.860779 331.829934 
L 590.247273 337.372625 
L 590.633766 362.436775 
L 591.02026 322.336254 
L 591.406753 300.813502 
L 592.566234 365.350624 
L 592.952727 357.321861 
L 593.725714 276.694206 
L 594.112208 356.50963 
L 595.271688 346.88635 
L 595.658182 286.183063 
L 596.044675 368.107111 
L 596.431169 336.455045 
L 596.817662 354.183144 
L 597.977143 368.947579 
L 598.363636 291.815311 
L 599.136623 362.07781 
L 599.523117 303.551803 
L 600.682597 334.166822 
L 601.455584 345.379284 
L 601.842078 334.268062 
L 602.228571 341.188184 
L 603.388052 310.31773 
L 603.774545 368.841658 
L 604.161039 293.771515 
L 604.547532 321.638715 
L 604.934026 298.397591 
L 606.093506 359.93582 
L 606.48 328.81096 
L 606.866494 288.429241 
L 607.252987 302.669381 
L 607.639481 342.419457 
L 608.798961 302.47094 
L 609.185455 333.213819 
L 609.571948 310.807866 
L 609.958442 264.664656 
L 610.344935 316.981432 
L 611.504416 359.574485 
L 611.890909 353.494611 
L 612.277403 363.762162 
L 613.05039 282.530507 
L 614.20987 364.705174 
L 614.596364 263.473823 
L 614.982857 360.447441 
L 615.369351 362.723472 
L 615.755844 362.210435 
L 616.915325 328.118266 
L 617.301818 358.05249 
L 617.688312 346.673702 
L 618.461299 366.047653 
L 619.620779 358.427693 
L 620.007273 363.901097 
L 620.393766 364.085751 
L 621.166753 336.563268 
L 622.326234 338.992566 
L 622.712727 366.202704 
L 623.485714 324.903502 
L 623.872208 346.482194 
L 625.031688 347.436384 
L 625.418182 343.669992 
L 625.804675 293.390273 
L 626.191169 354.573784 
L 626.577662 368.964819 
L 628.123636 336.604236 
L 628.51013 286.468991 
L 628.896623 311.942508 
L 629.283117 360.094484 
L 630.829091 345.721737 
L 631.215584 361.379763 
L 631.602078 367.317798 
L 631.988571 353.526113 
L 633.534545 337.571719 
L 633.921039 324.275661 
L 634.307532 350.14136 
L 634.694026 359.167876 
L 635.853506 290.825369 
L 636.24 361.101917 
L 636.626494 337.721505 
L 637.012987 365.629485 
L 637.399481 365.184196 
L 638.945455 348.437268 
L 639.331948 337.817991 
L 640.104935 300.790339 
L 641.264416 357.10567 
L 641.650909 353.040346 
L 642.037403 364.842636 
L 642.423896 339.982965 
L 642.81039 365.737556 
L 643.96987 327.191885 
L 644.356364 366.024398 
L 644.742857 278.376601 
L 645.129351 299.792588 
L 645.515844 309.818033 
L 646.675325 351.502566 
L 647.061818 356.456187 
L 647.448312 323.384087 
L 647.834805 366.195016 
L 648.221299 337.295284 
L 649.380779 364.070524 
L 649.767273 292.211966 
L 650.54026 336.855673 
L 650.926753 342.401716 
L 652.472727 335.627981 
L 652.859221 362.310425 
L 653.245714 252.220613 
L 653.632208 367.442347 
L 654.791688 348.125396 
L 655.178182 359.836004 
L 655.564675 360.090316 
L 656.337662 324.683123 
L 657.497143 362.699427 
L 657.883636 311.961797 
L 658.27013 340.647481 
L 658.656623 311.927974 
L 659.043117 332.676537 
L 660.202597 363.098144 
L 660.589091 306.949621 
L 660.975584 358.593969 
L 661.362078 353.275361 
L 661.748571 332.934066 
L 662.908052 334.087837 
L 663.294545 337.814874 
L 663.681039 319.70108 
L 664.067532 351.278858 
L 664.454026 361.526475 
L 665.613506 352.241759 
L 666 353.675919 
L 666.386494 321.220918 
L 666.772987 363.137268 
L 668.318961 358.09391 
L 668.705455 328.666017 
L 669.091948 363.27962 
L 669.478442 299.822269 
L 669.864935 307.518161 
L 671.024416 367.291702 
L 671.410909 361.295531 
L 671.797403 316.128784 
L 672.183896 327.814865 
L 672.57039 287.228749 
L 673.72987 301.598395 
L 674.116364 357.852365 
L 674.502857 336.895269 
L 674.889351 357.000646 
L 675.275844 320.079988 
L 676.435325 320.6617 
L 676.821818 302.722338 
L 677.208312 368.198595 
L 677.981299 312.454946 
L 679.140779 351.603737 
L 679.527273 280.513616 
L 679.913766 350.101585 
L 680.30026 318.454883 
L 680.686753 299.443304 
L 681.846234 311.806036 
L 682.232727 361.86679 
L 682.619221 369.36 
L 683.005714 340.927516 
L 683.392208 360.154382 
L 684.551688 368.039888 
L 684.938182 342.339564 
L 685.324675 304.099868 
L 685.711169 357.711195 
L 686.097662 362.866959 
L 687.257143 364.257772 
L 687.643636 355.385886 
L 688.03013 354.20301 
L 688.416623 327.865653 
L 688.803117 330.284988 
L 690.349091 367.997738 
L 690.735584 327.943177 
L 691.122078 335.798937 
L 691.508571 324.571349 
L 692.668052 363.139815 
L 693.054545 360.974635 
L 693.441039 303.370326 
L 693.827532 368.272042 
L 694.214026 363.137243 
L 695.373506 354.943788 
L 695.76 354.219619 
L 696.146494 321.926311 
L 696.532987 356.265224 
L 696.919481 367.184324 
L 698.078961 326.593147 
L 698.465455 355.276626 
L 699.238442 355.215175 
L 699.624935 360.6288 
L 700.784416 352.184114 
L 701.170909 347.38549 
L 701.557403 360.585128 
L 701.943896 364.308925 
L 702.33039 346.454649 
L 703.48987 354.414349 
L 703.876364 334.771426 
L 704.262857 340.963876 
L 705.035844 338.932027 
L 706.195325 363.696331 
L 706.581818 365.239735 
L 706.968312 312.461056 
L 707.354805 320.054613 
L 707.741299 338.551606 
L 708.900779 353.572512 
L 709.287273 333.69049 
L 709.673766 290.772546 
L 710.06026 325.405365 
L 710.446753 329.223702 
L 711.606234 309.221588 
L 711.992727 360.651534 
L 712.379221 238.104279 
L 712.765714 340.490578 
L 713.152208 307.566538 
L 714.311688 364.835174 
L 714.698182 341.518934 
L 715.084675 281.553719 
L 715.471169 292.102285 
L 715.857662 265.393647 
L 717.017143 198.832676 
L 717.403636 311.650373 
L 717.79013 325.866835 
L 718.176623 241.692099 
L 718.563117 343.266269 
L 719.722597 369.151173 
L 720.109091 275.739543 
L 720.495584 347.999042 
L 720.882078 279.679013 
L 721.268571 358.249512 
L 722.428052 315.15707 
L 722.814545 358.256759 
L 723.201039 345.676995 
L 723.587532 319.094272 
L 723.974026 305.388543 
L 725.133506 351.686189 
L 725.52 360.457581 
L 725.906494 335.79305 
L 726.292987 369.171887 
L 726.679481 313.099056 
L 728.225455 249.557309 
L 728.611948 360.40246 
L 728.998442 352.448908 
L 729.384935 271.795071 
L 730.544416 304.852825 
L 730.930909 344.376834 
L 731.317403 309.925693 
L 731.703896 327.533827 
L 732.09039 339.161246 
L 733.636364 367.909902 
L 734.022857 353.132996 
L 734.409351 275.027278 
L 734.795844 358.50168 
L 735.955325 353.667048 
L 736.341818 355.333915 
L 736.728312 358.949808 
L 737.114805 346.799432 
L 737.501299 362.363255 
L 738.660779 345.694511 
L 739.047273 316.880633 
L 739.433766 368.616754 
L 739.82026 359.959364 
L 740.206753 319.333479 
L 741.366234 315.398351 
L 741.752727 315.33987 
L 742.139221 329.659271 
L 742.525714 357.776479 
L 742.912208 335.570819 
L 744.071688 326.352809 
L 744.458182 326.574519 
L 744.844675 343.224926 
L 745.231169 368.432889 
L 745.617662 347.173566 
L 746.777143 359.165446 
L 747.163636 366.72977 
L 747.163636 366.72977 
" clip-path="url(#pdcfdbd2dd6)" style="fill: none; stroke: #000000; stroke-width: 1.5; stroke-linecap: square"/>
   </g>
   <g id="line2d_18">
    <path d="M 138.436364 297.169126 
L 138.822857 301.929674 
L 139.209351 292.906552 
L 140.755325 289.688778 
L 141.141818 307.180234 
L 141.528312 297.645602 
L 141.914805 304.07079 
L 142.301299 297.931232 
L 143.460779 302.543194 
L 144.233766 312.770412 
L 144.62026 315.375072 
L 145.006753 311.023297 
L 146.166234 308.630705 
L 146.552727 317.143443 
L 146.939221 310.685037 
L 147.325714 314.55919 
L 147.712208 316.171696 
L 148.871688 313.218137 
L 149.258182 319.439093 
L 149.644675 318.650059 
L 150.031169 322.787142 
L 150.417662 320.355575 
L 151.577143 321.651551 
L 151.963636 324.022797 
L 152.35013 322.22373 
L 152.736623 323.637114 
L 153.123117 324.085176 
L 154.282597 318.720072 
L 154.669091 323.22448 
L 155.055584 324.078157 
L 155.442078 327.049633 
L 155.828571 323.978547 
L 156.988052 320.589836 
L 157.374545 325.128427 
L 157.761039 325.463805 
L 158.147532 324.570721 
L 158.534026 325.732473 
L 159.693506 325.266042 
L 160.08 327.755759 
L 160.466494 327.20231 
L 160.852987 327.797287 
L 161.239481 326.010765 
L 162.398961 327.536172 
L 162.785455 326.182939 
L 163.558442 327.634345 
L 163.944935 298.326394 
L 165.490909 291.66898 
L 165.877403 291.262657 
L 166.263896 300.178635 
L 166.65039 286.370284 
L 167.80987 281.478713 
L 168.196364 309.010519 
L 168.582857 316.896878 
L 168.969351 308.676087 
L 169.355844 311.176874 
L 170.515325 305.306664 
L 171.288312 309.881035 
L 172.061299 291.456222 
L 173.220779 305.10713 
L 173.607273 311.22467 
L 173.993766 295.70985 
L 174.38026 306.863696 
L 174.766753 303.837399 
L 175.926234 298.316595 
L 176.312727 314.166946 
L 176.699221 304.119004 
L 177.085714 313.183082 
L 177.472208 313.99242 
L 178.631688 314.69761 
L 179.018182 321.579795 
L 179.404675 314.586234 
L 179.791169 310.790179 
L 180.177662 303.9254 
L 181.337143 292.115331 
L 181.723636 305.6135 
L 182.11013 301.38712 
L 182.496623 295.723017 
L 182.883117 309.605187 
L 184.042597 306.189591 
L 184.429091 307.983288 
L 184.815584 296.636834 
L 185.202078 291.209533 
L 185.588571 288.12777 
L 186.748052 277.099185 
L 187.134545 287.917041 
L 187.521039 295.210515 
L 187.907532 309.004128 
L 188.294026 312.22353 
L 189.453506 276.357511 
L 189.84 315.796883 
L 190.226494 299.488902 
L 190.612987 315.076364 
L 190.999481 310.982617 
L 192.158961 311.794164 
L 192.545455 316.039456 
L 192.931948 305.68349 
L 193.318442 307.621407 
L 193.704935 302.953726 
L 194.864416 295.961743 
L 195.637403 315.158256 
L 196.41039 292.398528 
L 197.56987 301.342338 
L 198.342857 321.187548 
L 198.729351 313.222817 
L 199.115844 309.246282 
L 200.275325 319.790913 
L 200.661818 318.268271 
L 201.048312 319.752274 
L 201.434805 322.221174 
L 201.821299 317.408501 
L 202.980779 314.838881 
L 203.753766 324.171966 
L 204.14026 320.391697 
L 204.526753 324.139751 
L 205.686234 320.530434 
L 206.072727 321.751414 
L 206.459221 319.522593 
L 206.845714 319.979449 
L 208.391688 322.225563 
L 208.778182 327.584406 
L 209.164675 324.689558 
L 209.551169 323.678152 
L 211.097143 327.212075 
L 211.483636 323.855181 
L 212.256623 324.292378 
L 212.643117 326.712863 
L 213.802597 325.208916 
L 214.189091 322.441763 
L 214.575584 317.668945 
L 214.962078 325.586365 
L 215.348571 324.096342 
L 216.894545 320.442388 
L 217.281039 325.339161 
L 217.667532 327.395101 
L 218.054026 323.980941 
L 219.213506 321.696311 
L 219.6 324.47733 
L 219.986494 321.24371 
L 220.372987 306.074594 
L 220.759481 304.662774 
L 221.918961 299.872713 
L 222.305455 304.940573 
L 222.691948 312.46107 
L 223.078442 306.018466 
L 223.464935 317.942887 
L 224.624416 320.367778 
L 225.010909 323.842462 
L 225.397403 318.106737 
L 225.783896 316.422723 
L 226.17039 319.094409 
L 227.716364 319.687463 
L 228.102857 313.465458 
L 228.489351 310.972959 
L 228.875844 317.49611 
L 230.035325 313.230643 
L 230.421818 319.153082 
L 230.808312 314.306714 
L 231.194805 322.76935 
L 231.581299 309.531138 
L 232.740779 294.655982 
L 233.127273 319.318793 
L 233.513766 312.622992 
L 233.90026 307.962565 
L 234.286753 301.05474 
L 235.446234 306.910238 
L 235.832727 310.395326 
L 236.219221 317.002108 
L 236.605714 315.580229 
L 236.992208 319.435079 
L 238.151688 308.637633 
L 238.538182 321.649724 
L 238.924675 313.439622 
L 239.311169 318.442189 
L 239.697662 315.941365 
L 240.857143 297.208769 
L 241.243636 316.771785 
L 241.63013 312.660084 
L 242.016623 306.368453 
L 242.403117 311.131091 
L 243.562597 318.024358 
L 243.949091 309.478726 
L 244.722078 317.818523 
L 246.268052 323.238942 
L 246.654545 327.608237 
L 247.041039 320.068381 
L 247.427532 321.319317 
L 247.814026 326.474227 
L 248.973506 326.393413 
L 249.36 322.287112 
L 249.746494 325.635615 
L 250.132987 325.928911 
L 250.519481 328.044597 
L 251.678961 325.09203 
L 252.065455 325.149296 
L 252.451948 323.393963 
L 252.838442 325.990746 
L 253.224935 322.744843 
L 254.384416 323.962611 
L 254.770909 322.630367 
L 255.157403 319.442507 
L 255.543896 321.247292 
L 255.93039 327.446358 
L 257.08987 322.565292 
L 257.476364 325.034304 
L 257.862857 323.706382 
L 258.249351 321.923016 
L 258.635844 327.000851 
L 259.795325 327.192477 
L 260.181818 324.566377 
L 260.568312 317.527243 
L 260.954805 304.175762 
L 261.341299 308.708762 
L 262.500779 315.836127 
L 263.273766 302.553183 
L 263.66026 300.634987 
L 264.046753 316.394743 
L 265.206234 305.986907 
L 265.592727 322.828275 
L 265.979221 315.199333 
L 266.365714 317.318179 
L 266.752208 318.536171 
L 268.298182 315.530816 
L 268.684675 316.457904 
L 269.071169 319.201475 
L 269.457662 319.4368 
L 270.617143 323.223465 
L 271.003636 317.882375 
L 271.39013 316.380671 
L 271.776623 318.044801 
L 272.163117 324.018974 
L 273.322597 321.841696 
L 273.709091 325.624225 
L 274.095584 326.273648 
L 274.482078 326.252578 
L 274.868571 324.496369 
L 276.028052 321.492107 
L 276.414545 324.609209 
L 276.801039 325.480908 
L 277.187532 322.598281 
L 277.574026 326.514196 
L 278.733506 325.485695 
L 279.12 325.886109 
L 279.506494 325.810149 
L 279.892987 326.833945 
L 280.279481 328.599601 
L 281.825455 328.163474 
L 282.211948 326.652629 
L 282.598442 327.603319 
L 282.984935 325.300718 
L 284.144416 326.677074 
L 284.530909 327.527177 
L 284.917403 324.501521 
L 285.303896 324.082922 
L 285.69039 324.580228 
L 286.84987 320.79349 
L 287.236364 315.819013 
L 288.009351 323.823476 
L 288.395844 322.836387 
L 289.555325 324.802258 
L 289.941818 324.01366 
L 290.328312 322.282981 
L 290.714805 321.497237 
L 291.101299 326.467383 
L 292.647273 319.541915 
L 293.033766 325.075264 
L 293.42026 322.561755 
L 293.806753 326.033761 
L 294.966234 323.227238 
L 295.352727 322.845742 
L 296.125714 325.435638 
L 296.512208 327.391438 
L 297.671688 325.118264 
L 298.058182 326.889639 
L 298.444675 325.483257 
L 298.831169 320.573327 
L 299.217662 318.515428 
L 300.377143 323.385235 
L 300.763636 327.27078 
L 301.15013 325.867891 
L 301.536623 326.787038 
L 301.923117 325.221131 
L 303.469091 329.269692 
L 303.855584 326.526362 
L 304.242078 326.146488 
L 304.628571 328.315445 
L 306.174545 324.619142 
L 306.561039 326.8568 
L 306.947532 324.865718 
L 307.334026 324.79455 
L 308.493506 319.493366 
L 308.88 321.003356 
L 309.266494 321.084804 
L 309.652987 324.09943 
L 310.039481 321.563785 
L 311.198961 316.441199 
L 311.971948 303.332189 
L 312.358442 316.978887 
L 312.744935 322.092819 
L 313.904416 316.025297 
L 314.290909 316.526403 
L 314.677403 307.970373 
L 315.063896 309.68529 
L 315.45039 309.666669 
L 316.60987 312.874927 
L 316.996364 306.858508 
L 317.382857 309.271989 
L 317.769351 310.05252 
L 318.155844 320.131211 
L 319.315325 308.172839 
L 319.701818 314.146441 
L 320.088312 308.057281 
L 320.861299 324.227607 
L 322.020779 321.577373 
L 322.407273 321.313599 
L 322.793766 324.651284 
L 323.18026 324.174006 
L 323.566753 324.271212 
L 324.726234 318.074354 
L 325.112727 324.869423 
L 325.499221 322.311911 
L 325.885714 323.946747 
L 326.272208 326.336981 
L 327.431688 322.335919 
L 327.818182 324.207382 
L 328.204675 326.789061 
L 328.591169 328.438898 
L 328.977662 328.267348 
L 330.137143 326.707328 
L 330.523636 325.255072 
L 330.91013 326.922743 
L 331.296623 326.356352 
L 331.683117 323.179557 
L 332.842597 327.810155 
L 333.229091 326.406966 
L 333.615584 329.24769 
L 334.002078 328.550014 
L 334.388571 329.16521 
L 335.548052 327.400634 
L 335.934545 327.949556 
L 336.321039 327.156304 
L 337.094026 327.157468 
L 338.253506 308.646417 
L 338.64 309.782608 
L 339.026494 300.063991 
L 339.412987 274.242797 
L 339.799481 294.931735 
L 340.958961 276.088894 
L 341.345455 290.186395 
L 341.731948 319.435612 
L 342.118442 315.647529 
L 342.504935 315.657064 
L 343.664416 320.334229 
L 344.437403 315.580812 
L 344.823896 321.792306 
L 345.21039 314.252867 
L 346.36987 302.772774 
L 346.756364 304.775041 
L 347.529351 314.029935 
L 349.075325 312.672696 
L 349.461818 318.478938 
L 349.848312 307.102839 
L 350.234805 313.491003 
L 350.621299 316.731084 
L 351.780779 313.39484 
L 352.167273 321.203546 
L 352.553766 314.050269 
L 352.94026 315.415157 
L 353.326753 303.605593 
L 354.486234 306.998739 
L 354.872727 307.245337 
L 355.259221 316.772878 
L 355.645714 313.442375 
L 356.032208 312.310327 
L 357.578182 303.536079 
L 357.964675 308.511144 
L 358.351169 297.543492 
L 358.737662 294.952083 
L 359.897143 277.392393 
L 360.283636 269.319616 
L 360.67013 279.835738 
L 361.056623 263.653512 
L 361.443117 283.370322 
L 362.602597 298.335332 
L 362.989091 309.148734 
L 363.375584 312.105826 
L 363.762078 318.219952 
L 364.148571 306.11455 
L 365.308052 302.870052 
L 365.694545 300.673794 
L 366.081039 314.564165 
L 366.467532 319.802651 
L 366.854026 305.059006 
L 368.013506 274.708757 
L 368.4 273.801597 
L 368.786494 295.284693 
L 369.172987 279.194017 
L 369.559481 283.762446 
L 371.105455 255.80069 
L 371.491948 276.851482 
L 371.878442 275.349211 
L 372.264935 283.55045 
L 373.424416 288.108985 
L 373.810909 269.174921 
L 374.197403 276.158952 
L 374.583896 290.82963 
L 374.97039 283.128012 
L 376.12987 276.776659 
L 376.516364 271.989889 
L 376.902857 251.473736 
L 377.289351 284.74662 
L 377.675844 266.122799 
L 378.835325 261.718348 
L 379.221818 262.551526 
L 379.608312 288.576447 
L 379.994805 306.231529 
L 380.381299 307.746572 
L 381.540779 305.739955 
L 381.927273 282.010829 
L 382.313766 313.051854 
L 382.70026 307.682748 
L 383.086753 314.354938 
L 384.246234 302.573323 
L 384.632727 312.904289 
L 385.019221 316.310445 
L 385.405714 310.122463 
L 385.792208 310.441272 
L 386.951688 296.916295 
L 387.338182 314.542432 
L 387.724675 312.027001 
L 388.111169 302.321713 
L 388.497662 299.743618 
L 389.657143 290.634641 
L 390.043636 299.445151 
L 390.43013 284.283906 
L 390.816623 300.199572 
L 392.362597 297.456802 
L 392.749091 284.504018 
L 393.135584 312.891317 
L 393.522078 295.702518 
L 393.908571 305.41146 
L 395.454545 268.57384 
L 395.841039 264.988189 
L 396.227532 226.277256 
L 396.614026 274.20658 
L 397.773506 226.060115 
L 398.16 217.729483 
L 398.932987 290.212758 
L 399.319481 268.210865 
L 400.478961 217.857116 
L 400.865455 229.283878 
L 401.251948 209.945161 
L 401.638442 232.434259 
L 402.024935 192.693047 
L 403.184416 244.009395 
L 403.570909 245.845172 
L 403.957403 283.12272 
L 404.343896 263.521362 
L 404.73039 227.417102 
L 405.88987 186.925309 
L 406.276364 266.434349 
L 406.662857 249.660341 
L 407.049351 259.331384 
L 407.435844 278.380665 
L 408.981818 290.953394 
L 409.368312 279.64617 
L 409.754805 279.008961 
L 410.141299 298.328137 
L 411.687273 276.054611 
L 412.073766 296.795125 
L 412.46026 296.156852 
L 412.846753 288.112029 
L 414.006234 258.208075 
L 414.392727 231.79047 
L 414.779221 181.979751 
L 415.165714 231.414933 
L 415.552208 222.180707 
L 417.098182 148.503034 
L 417.484675 249.903588 
L 417.871169 212.001175 
L 418.257662 270.342631 
L 419.417143 287.712047 
L 419.803636 260.118956 
L 420.19013 276.64919 
L 420.576623 224.950831 
L 420.963117 258.309221 
L 422.509091 264.193745 
L 422.895584 251.693793 
L 423.282078 264.927677 
L 423.668571 292.99397 
L 424.828052 246.593062 
L 425.214545 283.721699 
L 425.601039 278.297844 
L 425.987532 268.10663 
L 426.374026 270.889479 
L 427.533506 295.870885 
L 427.92 296.15313 
L 428.306494 309.514658 
L 428.692987 305.453798 
L 429.079481 313.993325 
L 430.238961 304.395642 
L 430.625455 294.524712 
L 431.398442 319.06225 
L 432.944416 316.11813 
L 433.330909 306.731596 
L 433.717403 308.005038 
L 434.103896 317.281059 
L 434.49039 296.342227 
L 435.64987 294.285327 
L 436.036364 296.669147 
L 436.422857 304.891513 
L 436.809351 320.629854 
L 437.195844 303.009361 
L 438.355325 316.543416 
L 438.741818 313.655318 
L 439.128312 308.272245 
L 439.514805 315.990587 
L 439.901299 313.814447 
L 441.060779 312.376433 
L 441.447273 306.224945 
L 441.833766 288.438064 
L 442.22026 297.833628 
L 442.606753 315.196659 
L 443.766234 292.678098 
L 444.152727 278.009276 
L 444.539221 284.02868 
L 444.925714 287.567413 
L 445.312208 286.201754 
L 446.858182 284.281591 
L 447.244675 278.249451 
L 447.631169 305.950695 
L 448.017662 305.034572 
L 449.177143 310.193045 
L 449.563636 313.846931 
L 449.95013 291.028122 
L 450.336623 275.14179 
L 450.723117 280.967993 
L 451.882597 265.33474 
L 452.269091 279.671356 
L 452.655584 275.487819 
L 453.042078 275.281065 
L 453.428571 280.439067 
L 454.588052 271.449269 
L 454.974545 270.330411 
L 455.361039 256.095782 
L 455.747532 289.80939 
L 456.134026 282.652921 
L 457.293506 265.292362 
L 457.68 288.98397 
L 458.066494 300.685442 
L 458.452987 268.057441 
L 458.839481 277.843224 
L 459.998961 259.520711 
L 460.385455 259.476192 
L 460.771948 256.228802 
L 461.158442 254.897847 
L 461.544935 292.046641 
L 462.704416 272.298216 
L 463.090909 293.370342 
L 463.477403 293.278927 
L 463.863896 282.78344 
L 464.25039 282.359393 
L 465.40987 291.700881 
L 465.796364 295.931588 
L 466.182857 303.88717 
L 466.569351 292.926586 
L 466.955844 290.136136 
L 468.115325 304.505822 
L 468.501818 295.893891 
L 468.888312 290.719902 
L 469.274805 298.18384 
L 469.661299 288.074495 
L 470.820779 291.126555 
L 471.207273 302.686765 
L 471.593766 298.081135 
L 471.98026 295.682534 
L 472.366753 310.456746 
L 473.526234 284.21109 
L 473.912727 281.884352 
L 474.299221 286.015297 
L 475.072208 272.554148 
L 476.231688 277.2835 
L 476.618182 289.952801 
L 477.004675 306.687211 
L 477.777662 296.659909 
L 478.937143 272.673439 
L 479.323636 305.291283 
L 479.71013 287.466911 
L 480.096623 314.939887 
L 480.483117 285.052979 
L 481.642597 278.130799 
L 482.029091 300.877398 
L 482.415584 292.678625 
L 482.802078 276.358543 
L 483.188571 295.907848 
L 484.348052 291.930119 
L 484.734545 306.335722 
L 485.121039 306.542252 
L 485.507532 309.199391 
L 485.894026 306.842131 
L 487.053506 295.610169 
L 487.44 296.546133 
L 487.826494 283.481289 
L 488.212987 308.987788 
L 488.599481 300.571549 
L 490.145455 295.620144 
L 490.531948 299.422012 
L 490.918442 301.100829 
L 491.304935 310.573116 
L 492.850909 294.802264 
L 493.237403 300.053077 
L 493.623896 310.461718 
L 494.01039 307.317503 
L 495.16987 314.915878 
L 495.556364 302.674352 
L 495.942857 315.410011 
L 496.329351 319.734746 
L 496.715844 316.769526 
L 498.261818 317.087427 
L 498.648312 313.782754 
L 499.034805 315.773233 
L 499.421299 311.916762 
L 500.580779 318.604452 
L 500.967273 322.291899 
L 501.353766 306.183571 
L 501.74026 306.050532 
L 502.126753 322.639935 
L 503.286234 315.591614 
L 503.672727 317.768561 
L 504.059221 322.469241 
L 504.445714 323.764427 
L 504.832208 323.113743 
L 505.991688 314.146973 
L 506.378182 313.414229 
L 506.764675 321.239427 
L 507.151169 317.973443 
L 507.537662 310.89613 
L 508.697143 301.127169 
L 509.083636 318.560908 
L 509.47013 304.514639 
L 509.856623 316.551208 
L 511.789091 300.881852 
L 512.175584 303.98678 
L 512.562078 288.552915 
L 512.948571 303.78187 
L 514.108052 296.576185 
L 514.494545 296.544799 
L 515.267532 299.736011 
L 515.654026 311.645163 
L 516.813506 318.713625 
L 517.2 311.338028 
L 517.586494 314.686937 
L 517.972987 307.13372 
L 518.359481 305.441853 
L 519.518961 282.35085 
L 519.905455 270.052237 
L 520.291948 295.967228 
L 520.678442 287.6021 
L 521.064935 299.930517 
L 522.224416 284.820534 
L 522.997403 314.003135 
L 523.383896 308.858519 
L 523.77039 301.706663 
L 524.92987 307.193441 
L 525.316364 306.131765 
L 525.702857 306.716915 
L 526.089351 321.371056 
L 526.475844 317.100768 
L 527.635325 320.580043 
L 528.021818 317.564189 
L 528.408312 317.497343 
L 528.794805 312.118729 
L 530.340779 314.490032 
L 530.727273 314.053843 
L 531.113766 310.197854 
L 531.886753 325.504681 
L 533.046234 317.142389 
L 533.432727 323.503983 
L 533.819221 320.056385 
L 534.205714 320.882114 
L 534.592208 324.899541 
L 535.751688 320.569796 
L 536.138182 324.811837 
L 536.524675 323.749634 
L 536.911169 318.409817 
L 537.297662 325.352485 
L 538.457143 321.977754 
L 538.843636 315.052457 
L 539.23013 318.558969 
L 539.616623 313.685077 
L 540.003117 313.798545 
L 541.162597 319.331209 
L 541.549091 313.37924 
L 541.935584 313.561907 
L 542.322078 316.194556 
L 542.708571 314.158436 
L 543.868052 310.851358 
L 544.254545 319.478102 
L 544.641039 317.496519 
L 545.027532 322.238663 
L 545.414026 324.741544 
L 546.573506 314.544523 
L 546.96 313.330264 
L 547.346494 315.982106 
L 547.732987 311.657697 
L 548.119481 317.529816 
L 549.665455 321.688402 
L 550.051948 317.192469 
L 550.438442 320.412735 
L 550.824935 325.842584 
L 551.984416 328.303894 
L 552.370909 324.851878 
L 552.757403 327.071987 
L 553.143896 326.396157 
L 553.53039 328.53627 
L 554.68987 325.468464 
L 555.076364 327.565521 
L 555.462857 326.007611 
L 555.849351 323.333373 
L 556.235844 325.566485 
L 557.781818 322.425406 
L 558.168312 324.905069 
L 558.554805 324.634523 
L 558.941299 327.174735 
L 560.100779 324.434114 
L 560.487273 322.67673 
L 560.873766 327.629777 
L 561.26026 321.61872 
L 561.646753 326.945889 
L 562.806234 327.298895 
L 563.579221 322.855768 
L 563.965714 325.080864 
L 564.352208 325.483279 
L 565.511688 320.875051 
L 566.284675 326.612233 
L 566.671169 328.256606 
L 567.057662 328.595128 
L 568.217143 322.921692 
L 568.603636 328.436362 
L 568.99013 328.604932 
L 569.376623 327.356098 
L 569.763117 327.740391 
L 570.922597 324.108192 
L 571.309091 328.183618 
L 571.695584 327.606923 
L 572.082078 325.799353 
L 572.468571 327.459016 
L 573.628052 328.323719 
L 574.401039 327.426817 
L 574.787532 325.110528 
L 575.174026 320.659653 
L 576.333506 317.297113 
L 576.72 324.609466 
L 577.879481 316.278011 
L 579.038961 317.024421 
L 579.425455 324.924469 
L 580.584935 311.791226 
L 581.744416 303.960028 
L 582.130909 317.0763 
L 582.517403 311.772666 
L 582.903896 319.585795 
L 583.29039 314.700048 
L 584.44987 315.744566 
L 584.836364 323.529438 
L 585.222857 326.656298 
L 585.609351 324.582369 
L 585.995844 320.583563 
L 587.541818 321.542137 
L 587.928312 324.06122 
L 588.701299 317.462628 
L 589.860779 315.732895 
L 590.247273 323.995467 
L 590.633766 319.527666 
L 591.02026 317.015121 
L 591.406753 325.922203 
L 592.566234 321.277906 
L 592.952727 318.347343 
L 593.339221 318.196347 
L 593.725714 317.704742 
L 594.112208 309.15129 
L 595.271688 293.895384 
L 595.658182 306.078792 
L 596.044675 303.056736 
L 596.431169 290.152381 
L 596.817662 308.661745 
L 597.977143 302.902699 
L 598.363636 306.496847 
L 598.75013 306.484434 
L 599.136623 308.901816 
L 599.523117 305.462588 
L 601.069091 318.493967 
L 601.455584 319.079381 
L 601.842078 320.385943 
L 602.228571 319.386194 
L 603.388052 310.984725 
L 603.774545 320.018352 
L 604.161039 311.313489 
L 604.547532 313.301513 
L 604.934026 305.241293 
L 606.093506 292.907017 
L 606.48 291.237371 
L 606.866494 308.785782 
L 607.252987 303.181888 
L 607.639481 294.081454 
L 608.798961 285.232171 
L 609.185455 304.705513 
L 609.571948 310.763598 
L 609.958442 318.896668 
L 610.344935 324.645454 
L 611.504416 322.04442 
L 611.890909 319.725239 
L 612.277403 322.147013 
L 612.663896 319.261549 
L 613.05039 321.801353 
L 614.20987 322.923121 
L 614.596364 312.710797 
L 614.982857 322.736048 
L 615.369351 313.672442 
L 615.755844 312.145182 
L 616.915325 310.863197 
L 617.301818 322.815786 
L 617.688312 317.420183 
L 618.461299 320.832381 
L 619.620779 316.558826 
L 620.007273 322.03585 
L 620.393766 321.722556 
L 620.78026 321.058077 
L 621.166753 325.456647 
L 622.326234 326.335746 
L 622.712727 327.013359 
L 623.099221 323.772976 
L 623.872208 328.487449 
L 625.031688 327.383719 
L 625.418182 328.250892 
L 625.804675 328.722059 
L 626.191169 328.549271 
L 626.577662 327.616595 
L 627.737143 326.383439 
L 628.123636 329.38232 
L 628.51013 328.922489 
L 629.283117 327.129298 
L 630.829091 324.766427 
L 631.215584 326.077647 
L 631.602078 324.137374 
L 631.988571 323.758872 
L 633.534545 323.562163 
L 633.921039 325.966386 
L 634.307532 323.943193 
L 634.694026 320.991096 
L 635.853506 321.210945 
L 636.24 326.886069 
L 636.626494 321.120186 
L 637.012987 325.775077 
L 637.399481 321.453878 
L 638.945455 322.627415 
L 639.331948 324.242744 
L 639.718442 321.835603 
L 640.104935 325.688935 
L 641.264416 326.940373 
L 641.650909 326.156229 
L 642.037403 327.503843 
L 642.423896 326.943548 
L 642.81039 328.85039 
L 643.96987 325.75619 
L 644.356364 329.350807 
L 644.742857 325.932344 
L 645.129351 325.175563 
L 645.515844 325.218053 
L 646.675325 324.410913 
L 647.061818 320.7329 
L 647.448312 322.385769 
L 647.834805 326.838551 
L 648.221299 321.991235 
L 649.380779 326.677104 
L 649.767273 323.095166 
L 650.153766 321.971806 
L 650.54026 324.361971 
L 650.926753 325.013564 
L 652.472727 319.06137 
L 652.859221 319.32173 
L 653.245714 316.73082 
L 653.632208 325.826472 
L 654.791688 319.128849 
L 655.178182 321.028794 
L 655.564675 320.830902 
L 655.951169 319.413268 
L 656.337662 324.890489 
L 657.497143 326.141609 
L 657.883636 323.853275 
L 658.27013 323.683573 
L 658.656623 324.230768 
L 659.043117 326.1609 
L 660.202597 320.743982 
L 660.589091 317.642515 
L 660.975584 324.6556 
L 661.362078 319.888197 
L 661.748571 320.865028 
L 662.908052 317.916802 
L 663.294545 323.353323 
L 664.067532 327.592476 
L 665.613506 322.69677 
L 666 324.765452 
L 666.386494 324.000952 
L 666.772987 327.897122 
L 668.318961 324.531062 
L 668.705455 324.58029 
L 669.091948 323.220915 
L 669.864935 319.27072 
L 671.024416 320.161175 
L 671.410909 317.651809 
L 671.797403 322.160147 
L 672.183896 321.147205 
L 672.57039 324.696739 
L 673.72987 317.157664 
L 674.116364 310.319354 
L 674.502857 306.802349 
L 674.889351 307.44592 
L 675.275844 304.167716 
L 676.435325 302.184229 
L 677.208312 320.779112 
L 677.594805 316.84195 
L 677.981299 316.824466 
L 679.140779 323.158346 
L 679.527273 324.643032 
L 679.913766 321.65411 
L 680.30026 315.427226 
L 680.686753 321.884007 
L 681.846234 323.494476 
L 682.232727 325.286856 
L 683.005714 313.892219 
L 683.392208 324.904816 
L 684.551688 320.738691 
L 684.938182 318.833965 
L 685.324675 325.224023 
L 685.711169 327.460585 
L 686.097662 323.706875 
L 687.257143 321.744855 
L 687.643636 323.022092 
L 688.03013 325.3504 
L 688.416623 325.809992 
L 688.803117 325.33508 
L 690.349091 326.090123 
L 690.735584 323.35343 
L 691.122078 323.277839 
L 691.508571 321.838434 
L 692.668052 324.694474 
L 693.054545 324.726482 
L 693.441039 326.096875 
L 693.827532 329.490725 
L 694.214026 326.006384 
L 695.373506 325.756571 
L 695.76 328.182731 
L 696.146494 327.830463 
L 696.532987 329.362448 
L 696.919481 328.068306 
L 698.078961 325.25241 
L 698.465455 329.157351 
L 699.238442 327.815216 
L 699.624935 327.393291 
L 700.784416 325.214135 
L 701.170909 326.183038 
L 701.557403 327.842778 
L 701.943896 327.622178 
L 702.33039 327.750259 
L 703.48987 326.554449 
L 703.876364 328.749792 
L 704.262857 330.096726 
L 705.035844 329.857437 
L 706.195325 329.657008 
L 706.581818 328.507264 
L 706.968312 328.614194 
L 707.354805 328.94205 
L 707.741299 328.218786 
L 708.900779 328.426822 
L 709.287273 327.39039 
L 709.673766 327.359177 
L 710.06026 325.930089 
L 710.446753 322.613539 
L 711.606234 319.500804 
L 711.992727 325.96661 
L 712.379221 320.327261 
L 712.765714 311.023022 
L 713.152208 298.822921 
L 714.311688 315.583839 
L 714.698182 313.484559 
L 715.084675 313.328627 
L 715.471169 319.977033 
L 715.857662 309.24039 
L 717.017143 292.401213 
L 717.403636 241.676995 
L 717.79013 240.255802 
L 718.176623 271.450206 
L 718.563117 290.762498 
L 719.722597 282.124235 
L 720.109091 280.132466 
L 720.495584 313.836673 
L 720.882078 317.234247 
L 721.268571 324.370929 
L 722.428052 314.152203 
L 722.814545 322.570152 
L 723.201039 311.012949 
L 723.587532 315.818441 
L 723.974026 313.733593 
L 725.133506 314.373072 
L 725.906494 305.298861 
L 726.292987 309.010788 
L 726.679481 298.431223 
L 728.225455 318.488364 
L 728.611948 310.559887 
L 728.998442 287.039181 
L 729.384935 301.94885 
L 730.544416 298.779629 
L 730.930909 309.25279 
L 731.317403 310.230193 
L 732.09039 322.022783 
L 733.24987 318.929584 
L 733.636364 317.369273 
L 734.022857 317.936531 
L 734.409351 319.925849 
L 734.795844 326.839627 
L 735.955325 316.681609 
L 736.341818 320.146393 
L 736.728312 320.355171 
L 737.114805 317.972311 
L 737.501299 322.274163 
L 738.660779 313.516099 
L 739.047273 320.240555 
L 739.433766 318.077364 
L 739.82026 309.911692 
L 740.206753 313.797014 
L 741.366234 319.769814 
L 741.752727 318.457817 
L 742.525714 323.755133 
L 742.912208 322.004061 
L 744.071688 323.471527 
L 744.458182 327.478943 
L 744.844675 325.031395 
L 745.231169 326.71084 
L 745.617662 322.259286 
L 746.777143 327.258637 
L 747.163636 326.794917 
L 747.163636 326.794917 
" clip-path="url(#pdcfdbd2dd6)" style="fill: none; stroke: #1f77b4; stroke-width: 1.5; stroke-linecap: square"/>
   </g>
   <g id="patch_3">
    <path d="M 108 384.48 
L 108 51.84 
" style="fill: none; stroke: #000000; stroke-width: 0.8; stroke-linejoin: miter; stroke-linecap: square"/>
   </g>
   <g id="patch_4">
    <path d="M 777.6 384.48 
L 777.6 51.84 
" style="fill: none; stroke: #000000; stroke-width: 0.8; stroke-linejoin: miter; stroke-linecap: square"/>
   </g>
   <g id="patch_5">
    <path d="M 108 384.48 
L 777.6 384.48 
" style="fill: none; stroke: #000000; stroke-width: 0.8; stroke-linejoin: miter; stroke-linecap: square"/>
   </g>
   <g id="patch_6">
    <path d="M 108 51.84 
L 777.6 51.84 
" style="fill: none; stroke: #000000; stroke-width: 0.8; stroke-linejoin: miter; stroke-linecap: square"/>
   </g>
   <g id="text_19">
    <!-- Volatility Prediction with LSTM MDN vbig -->
    <g transform="translate(321.706875 45.84) scale(0.12 -0.12)">
     <defs>
      <path id="DejaVuSans-20" transform="scale(0.015625)"/>
      <path id="DejaVuSans-50" d="M 1259 4147 
L 1259 2394 
L 2053 2394 
Q 2494 2394 2734 2622 
Q 2975 2850 2975 3272 
Q 2975 3691 2734 3919 
Q 2494 4147 2053 4147 
L 1259 4147 
z
M 628 4666 
L 2053 4666 
Q 2838 4666 3239 4311 
Q 3641 3956 3641 3272 
Q 3641 2581 3239 2228 
Q 2838 1875 2053 1875 
L 1259 1875 
L 1259 0 
L 628 0 
L 628 4666 
z
" transform="scale(0.015625)"/>
      <path id="DejaVuSans-72" d="M 2631 2963 
Q 2534 3019 2420 3045 
Q 2306 3072 2169 3072 
Q 1681 3072 1420 2755 
Q 1159 2438 1159 1844 
L 1159 0 
L 581 0 
L 581 3500 
L 1159 3500 
L 1159 2956 
Q 1341 3275 1631 3429 
Q 1922 3584 2338 3584 
Q 2397 3584 2469 3576 
Q 2541 3569 2628 3553 
L 2631 2963 
z
" transform="scale(0.015625)"/>
      <path id="DejaVuSans-64" d="M 2906 2969 
L 2906 4863 
L 3481 4863 
L 3481 0 
L 2906 0 
L 2906 525 
Q 2725 213 2448 61 
Q 2172 -91 1784 -91 
Q 1150 -91 751 415 
Q 353 922 353 1747 
Q 353 2572 751 3078 
Q 1150 3584 1784 3584 
Q 2172 3584 2448 3432 
Q 2725 3281 2906 2969 
z
M 947 1747 
Q 947 1113 1208 752 
Q 1469 391 1925 391 
Q 2381 391 2643 752 
Q 2906 1113 2906 1747 
Q 2906 2381 2643 2742 
Q 2381 3103 1925 3103 
Q 1469 3103 1208 2742 
Q 947 2381 947 1747 
z
" transform="scale(0.015625)"/>
      <path id="DejaVuSans-63" d="M 3122 3366 
L 3122 2828 
Q 2878 2963 2633 3030 
Q 2388 3097 2138 3097 
Q 1578 3097 1268 2742 
Q 959 2388 959 1747 
Q 959 1106 1268 751 
Q 1578 397 2138 397 
Q 2388 397 2633 464 
Q 2878 531 3122 666 
L 3122 134 
Q 2881 22 2623 -34 
Q 2366 -91 2075 -91 
Q 1284 -91 818 406 
Q 353 903 353 1747 
Q 353 2603 823 3093 
Q 1294 3584 2113 3584 
Q 2378 3584 2631 3529 
Q 2884 3475 3122 3366 
z
" transform="scale(0.015625)"/>
      <path id="DejaVuSans-6e" d="M 3513 2113 
L 3513 0 
L 2938 0 
L 2938 2094 
Q 2938 2591 2744 2837 
Q 2550 3084 2163 3084 
Q 1697 3084 1428 2787 
Q 1159 2491 1159 1978 
L 1159 0 
L 581 0 
L 581 3500 
L 1159 3500 
L 1159 2956 
Q 1366 3272 1645 3428 
Q 1925 3584 2291 3584 
Q 2894 3584 3203 3211 
Q 3513 2838 3513 2113 
z
" transform="scale(0.015625)"/>
      <path id="DejaVuSans-77" d="M 269 3500 
L 844 3500 
L 1563 769 
L 2278 3500 
L 2956 3500 
L 3675 769 
L 4391 3500 
L 4966 3500 
L 4050 0 
L 3372 0 
L 2619 2869 
L 1863 0 
L 1184 0 
L 269 3500 
z
" transform="scale(0.015625)"/>
      <path id="DejaVuSans-68" d="M 3513 2113 
L 3513 0 
L 2938 0 
L 2938 2094 
Q 2938 2591 2744 2837 
Q 2550 3084 2163 3084 
Q 1697 3084 1428 2787 
Q 1159 2491 1159 1978 
L 1159 0 
L 581 0 
L 581 4863 
L 1159 4863 
L 1159 2956 
Q 1366 3272 1645 3428 
Q 1925 3584 2291 3584 
Q 2894 3584 3203 3211 
Q 3513 2838 3513 2113 
z
" transform="scale(0.015625)"/>
      <path id="DejaVuSans-4c" d="M 628 4666 
L 1259 4666 
L 1259 531 
L 3531 531 
L 3531 0 
L 628 0 
L 628 4666 
z
" transform="scale(0.015625)"/>
      <path id="DejaVuSans-53" d="M 3425 4513 
L 3425 3897 
Q 3066 4069 2747 4153 
Q 2428 4238 2131 4238 
Q 1616 4238 1336 4038 
Q 1056 3838 1056 3469 
Q 1056 3159 1242 3001 
Q 1428 2844 1947 2747 
L 2328 2669 
Q 3034 2534 3370 2195 
Q 3706 1856 3706 1288 
Q 3706 609 3251 259 
Q 2797 -91 1919 -91 
Q 1588 -91 1214 -16 
Q 841 59 441 206 
L 441 856 
Q 825 641 1194 531 
Q 1563 422 1919 422 
Q 2459 422 2753 634 
Q 3047 847 3047 1241 
Q 3047 1584 2836 1778 
Q 2625 1972 2144 2069 
L 1759 2144 
Q 1053 2284 737 2584 
Q 422 2884 422 3419 
Q 422 4038 858 4394 
Q 1294 4750 2059 4750 
Q 2388 4750 2728 4690 
Q 3069 4631 3425 4513 
z
" transform="scale(0.015625)"/>
      <path id="DejaVuSans-54" d="M -19 4666 
L 3928 4666 
L 3928 4134 
L 2272 4134 
L 2272 0 
L 1638 0 
L 1638 4134 
L -19 4134 
L -19 4666 
z
" transform="scale(0.015625)"/>
      <path id="DejaVuSans-4d" d="M 628 4666 
L 1569 4666 
L 2759 1491 
L 3956 4666 
L 4897 4666 
L 4897 0 
L 4281 0 
L 4281 4097 
L 3078 897 
L 2444 897 
L 1241 4097 
L 1241 0 
L 628 0 
L 628 4666 
z
" transform="scale(0.015625)"/>
      <path id="DejaVuSans-4e" d="M 628 4666 
L 1478 4666 
L 3547 763 
L 3547 4666 
L 4159 4666 
L 4159 0 
L 3309 0 
L 1241 3903 
L 1241 0 
L 628 0 
L 628 4666 
z
" transform="scale(0.015625)"/>
      <path id="DejaVuSans-76" d="M 191 3500 
L 800 3500 
L 1894 563 
L 2988 3500 
L 3597 3500 
L 2284 0 
L 1503 0 
L 191 3500 
z
" transform="scale(0.015625)"/>
      <path id="DejaVuSans-62" d="M 3116 1747 
Q 3116 2381 2855 2742 
Q 2594 3103 2138 3103 
Q 1681 3103 1420 2742 
Q 1159 2381 1159 1747 
Q 1159 1113 1420 752 
Q 1681 391 2138 391 
Q 2594 391 2855 752 
Q 3116 1113 3116 1747 
z
M 1159 2969 
Q 1341 3281 1617 3432 
Q 1894 3584 2278 3584 
Q 2916 3584 3314 3078 
Q 3713 2572 3713 1747 
Q 3713 922 3314 415 
Q 2916 -91 2278 -91 
Q 1894 -91 1617 61 
Q 1341 213 1159 525 
L 1159 0 
L 581 0 
L 581 4863 
L 1159 4863 
L 1159 2969 
z
" transform="scale(0.015625)"/>
      <path id="DejaVuSans-67" d="M 2906 1791 
Q 2906 2416 2648 2759 
Q 2391 3103 1925 3103 
Q 1463 3103 1205 2759 
Q 947 2416 947 1791 
Q 947 1169 1205 825 
Q 1463 481 1925 481 
Q 2391 481 2648 825 
Q 2906 1169 2906 1791 
z
M 3481 434 
Q 3481 -459 3084 -895 
Q 2688 -1331 1869 -1331 
Q 1566 -1331 1297 -1286 
Q 1028 -1241 775 -1147 
L 775 -588 
Q 1028 -725 1275 -790 
Q 1522 -856 1778 -856 
Q 2344 -856 2625 -561 
Q 2906 -266 2906 331 
L 2906 616 
Q 2728 306 2450 153 
Q 2172 0 1784 0 
Q 1141 0 747 490 
Q 353 981 353 1791 
Q 353 2603 747 3093 
Q 1141 3584 1784 3584 
Q 2172 3584 2450 3431 
Q 2728 3278 2906 2969 
L 2906 3500 
L 3481 3500 
L 3481 434 
z
" transform="scale(0.015625)"/>
     </defs>
     <use xlink:href="#DejaVuSans-56"/>
     <use xlink:href="#DejaVuSans-6f" transform="translate(60.658203 0)"/>
     <use xlink:href="#DejaVuSans-6c" transform="translate(121.839844 0)"/>
     <use xlink:href="#DejaVuSans-61" transform="translate(149.623047 0)"/>
     <use xlink:href="#DejaVuSans-74" transform="translate(210.902344 0)"/>
     <use xlink:href="#DejaVuSans-69" transform="translate(250.111328 0)"/>
     <use xlink:href="#DejaVuSans-6c" transform="translate(277.894531 0)"/>
     <use xlink:href="#DejaVuSans-69" transform="translate(305.677734 0)"/>
     <use xlink:href="#DejaVuSans-74" transform="translate(333.460938 0)"/>
     <use xlink:href="#DejaVuSans-79" transform="translate(372.669922 0)"/>
     <use xlink:href="#DejaVuSans-20" transform="translate(431.849609 0)"/>
     <use xlink:href="#DejaVuSans-50" transform="translate(463.636719 0)"/>
     <use xlink:href="#DejaVuSans-72" transform="translate(522.189453 0)"/>
     <use xlink:href="#DejaVuSans-65" transform="translate(561.052734 0)"/>
     <use xlink:href="#DejaVuSans-64" transform="translate(622.576172 0)"/>
     <use xlink:href="#DejaVuSans-69" transform="translate(686.052734 0)"/>
     <use xlink:href="#DejaVuSans-63" transform="translate(713.835938 0)"/>
     <use xlink:href="#DejaVuSans-74" transform="translate(768.816406 0)"/>
     <use xlink:href="#DejaVuSans-69" transform="translate(808.025391 0)"/>
     <use xlink:href="#DejaVuSans-6f" transform="translate(835.808594 0)"/>
     <use xlink:href="#DejaVuSans-6e" transform="translate(896.990234 0)"/>
     <use xlink:href="#DejaVuSans-20" transform="translate(960.369141 0)"/>
     <use xlink:href="#DejaVuSans-77" transform="translate(992.15625 0)"/>
     <use xlink:href="#DejaVuSans-69" transform="translate(1073.943359 0)"/>
     <use xlink:href="#DejaVuSans-74" transform="translate(1101.726562 0)"/>
     <use xlink:href="#DejaVuSans-68" transform="translate(1140.935547 0)"/>
     <use xlink:href="#DejaVuSans-20" transform="translate(1204.314453 0)"/>
     <use xlink:href="#DejaVuSans-4c" transform="translate(1236.101562 0)"/>
     <use xlink:href="#DejaVuSans-53" transform="translate(1291.814453 0)"/>
     <use xlink:href="#DejaVuSans-54" transform="translate(1355.291016 0)"/>
     <use xlink:href="#DejaVuSans-4d" transform="translate(1416.375 0)"/>
     <use xlink:href="#DejaVuSans-20" transform="translate(1502.654297 0)"/>
     <use xlink:href="#DejaVuSans-4d" transform="translate(1534.441406 0)"/>
     <use xlink:href="#DejaVuSans-44" transform="translate(1620.720703 0)"/>
     <use xlink:href="#DejaVuSans-4e" transform="translate(1697.722656 0)"/>
     <use xlink:href="#DejaVuSans-20" transform="translate(1772.527344 0)"/>
     <use xlink:href="#DejaVuSans-76" transform="translate(1804.314453 0)"/>
     <use xlink:href="#DejaVuSans-62" transform="translate(1863.494141 0)"/>
     <use xlink:href="#DejaVuSans-69" transform="translate(1926.970703 0)"/>
     <use xlink:href="#DejaVuSans-67" transform="translate(1954.753906 0)"/>
    </g>
   </g>
   <g id="legend_1">
    <g id="patch_7">
     <path d="M 561.170313 89.19625 
L 770.6 89.19625 
Q 772.6 89.19625 772.6 87.19625 
L 772.6 58.84 
Q 772.6 56.84 770.6 56.84 
L 561.170313 56.84 
Q 559.170313 56.84 559.170313 58.84 
L 559.170313 87.19625 
Q 559.170313 89.19625 561.170313 89.19625 
z
" style="fill: #ffffff; opacity: 0.8; stroke: #cccccc; stroke-linejoin: miter"/>
    </g>
    <g id="line2d_19">
     <path d="M 563.170313 64.938437 
L 573.170313 64.938437 
L 583.170313 64.938437 
" style="fill: none; stroke: #000000; stroke-width: 1.5; stroke-linecap: square"/>
    </g>
    <g id="text_20">
     <!-- Absolute Returns -->
     <g transform="translate(591.170313 68.438437) scale(0.1 -0.1)">
      <defs>
       <path id="DejaVuSans-41" d="M 2188 4044 
L 1331 1722 
L 3047 1722 
L 2188 4044 
z
M 1831 4666 
L 2547 4666 
L 4325 0 
L 3669 0 
L 3244 1197 
L 1141 1197 
L 716 0 
L 50 0 
L 1831 4666 
z
" transform="scale(0.015625)"/>
       <path id="DejaVuSans-73" d="M 2834 3397 
L 2834 2853 
Q 2591 2978 2328 3040 
Q 2066 3103 1784 3103 
Q 1356 3103 1142 2972 
Q 928 2841 928 2578 
Q 928 2378 1081 2264 
Q 1234 2150 1697 2047 
L 1894 2003 
Q 2506 1872 2764 1633 
Q 3022 1394 3022 966 
Q 3022 478 2636 193 
Q 2250 -91 1575 -91 
Q 1294 -91 989 -36 
Q 684 19 347 128 
L 347 722 
Q 666 556 975 473 
Q 1284 391 1588 391 
Q 1994 391 2212 530 
Q 2431 669 2431 922 
Q 2431 1156 2273 1281 
Q 2116 1406 1581 1522 
L 1381 1569 
Q 847 1681 609 1914 
Q 372 2147 372 2553 
Q 372 3047 722 3315 
Q 1072 3584 1716 3584 
Q 2034 3584 2315 3537 
Q 2597 3491 2834 3397 
z
" transform="scale(0.015625)"/>
       <path id="DejaVuSans-75" d="M 544 1381 
L 544 3500 
L 1119 3500 
L 1119 1403 
Q 1119 906 1312 657 
Q 1506 409 1894 409 
Q 2359 409 2629 706 
Q 2900 1003 2900 1516 
L 2900 3500 
L 3475 3500 
L 3475 0 
L 2900 0 
L 2900 538 
Q 2691 219 2414 64 
Q 2138 -91 1772 -91 
Q 1169 -91 856 284 
Q 544 659 544 1381 
z
M 1991 3584 
L 1991 3584 
z
" transform="scale(0.015625)"/>
       <path id="DejaVuSans-52" d="M 2841 2188 
Q 3044 2119 3236 1894 
Q 3428 1669 3622 1275 
L 4263 0 
L 3584 0 
L 2988 1197 
Q 2756 1666 2539 1819 
Q 2322 1972 1947 1972 
L 1259 1972 
L 1259 0 
L 628 0 
L 628 4666 
L 2053 4666 
Q 2853 4666 3247 4331 
Q 3641 3997 3641 3322 
Q 3641 2881 3436 2590 
Q 3231 2300 2841 2188 
z
M 1259 4147 
L 1259 2491 
L 2053 2491 
Q 2509 2491 2742 2702 
Q 2975 2913 2975 3322 
Q 2975 3731 2742 3939 
Q 2509 4147 2053 4147 
L 1259 4147 
z
" transform="scale(0.015625)"/>
      </defs>
      <use xlink:href="#DejaVuSans-41"/>
      <use xlink:href="#DejaVuSans-62" transform="translate(68.408203 0)"/>
      <use xlink:href="#DejaVuSans-73" transform="translate(131.884766 0)"/>
      <use xlink:href="#DejaVuSans-6f" transform="translate(183.984375 0)"/>
      <use xlink:href="#DejaVuSans-6c" transform="translate(245.166016 0)"/>
      <use xlink:href="#DejaVuSans-75" transform="translate(272.949219 0)"/>
      <use xlink:href="#DejaVuSans-74" transform="translate(336.328125 0)"/>
      <use xlink:href="#DejaVuSans-65" transform="translate(375.537109 0)"/>
      <use xlink:href="#DejaVuSans-20" transform="translate(437.060547 0)"/>
      <use xlink:href="#DejaVuSans-52" transform="translate(468.847656 0)"/>
      <use xlink:href="#DejaVuSans-65" transform="translate(533.830078 0)"/>
      <use xlink:href="#DejaVuSans-74" transform="translate(595.353516 0)"/>
      <use xlink:href="#DejaVuSans-75" transform="translate(634.5625 0)"/>
      <use xlink:href="#DejaVuSans-72" transform="translate(697.941406 0)"/>
      <use xlink:href="#DejaVuSans-6e" transform="translate(737.304688 0)"/>
      <use xlink:href="#DejaVuSans-73" transform="translate(800.683594 0)"/>
     </g>
    </g>
    <g id="line2d_20">
     <path d="M 563.170313 79.616562 
L 573.170313 79.616562 
L 583.170313 79.616562 
" style="fill: none; stroke: #1f77b4; stroke-width: 1.5; stroke-linecap: square"/>
    </g>
    <g id="text_21">
     <!-- LSTM MDN vbig Volatility Prediction -->
     <g transform="translate(591.170313 83.116562) scale(0.1 -0.1)">
      <use xlink:href="#DejaVuSans-4c"/>
      <use xlink:href="#DejaVuSans-53" transform="translate(55.712891 0)"/>
      <use xlink:href="#DejaVuSans-54" transform="translate(119.189453 0)"/>
      <use xlink:href="#DejaVuSans-4d" transform="translate(180.273438 0)"/>
      <use xlink:href="#DejaVuSans-20" transform="translate(266.552734 0)"/>
      <use xlink:href="#DejaVuSans-4d" transform="translate(298.339844 0)"/>
      <use xlink:href="#DejaVuSans-44" transform="translate(384.619141 0)"/>
      <use xlink:href="#DejaVuSans-4e" transform="translate(461.621094 0)"/>
      <use xlink:href="#DejaVuSans-20" transform="translate(536.425781 0)"/>
      <use xlink:href="#DejaVuSans-76" transform="translate(568.212891 0)"/>
      <use xlink:href="#DejaVuSans-62" transform="translate(627.392578 0)"/>
      <use xlink:href="#DejaVuSans-69" transform="translate(690.869141 0)"/>
      <use xlink:href="#DejaVuSans-67" transform="translate(718.652344 0)"/>
      <use xlink:href="#DejaVuSans-20" transform="translate(782.128906 0)"/>
      <use xlink:href="#DejaVuSans-56" transform="translate(813.916016 0)"/>
      <use xlink:href="#DejaVuSans-6f" transform="translate(874.574219 0)"/>
      <use xlink:href="#DejaVuSans-6c" transform="translate(935.755859 0)"/>
      <use xlink:href="#DejaVuSans-61" transform="translate(963.539062 0)"/>
      <use xlink:href="#DejaVuSans-74" transform="translate(1024.818359 0)"/>
      <use xlink:href="#DejaVuSans-69" transform="translate(1064.027344 0)"/>
      <use xlink:href="#DejaVuSans-6c" transform="translate(1091.810547 0)"/>
      <use xlink:href="#DejaVuSans-69" transform="translate(1119.59375 0)"/>
      <use xlink:href="#DejaVuSans-74" transform="translate(1147.376953 0)"/>
      <use xlink:href="#DejaVuSans-79" transform="translate(1186.585938 0)"/>
      <use xlink:href="#DejaVuSans-20" transform="translate(1245.765625 0)"/>
      <use xlink:href="#DejaVuSans-50" transform="translate(1277.552734 0)"/>
      <use xlink:href="#DejaVuSans-72" transform="translate(1336.105469 0)"/>
      <use xlink:href="#DejaVuSans-65" transform="translate(1374.96875 0)"/>
      <use xlink:href="#DejaVuSans-64" transform="translate(1436.492188 0)"/>
      <use xlink:href="#DejaVuSans-69" transform="translate(1499.96875 0)"/>
      <use xlink:href="#DejaVuSans-63" transform="translate(1527.751953 0)"/>
      <use xlink:href="#DejaVuSans-74" transform="translate(1582.732422 0)"/>
      <use xlink:href="#DejaVuSans-69" transform="translate(1621.941406 0)"/>
      <use xlink:href="#DejaVuSans-6f" transform="translate(1649.724609 0)"/>
      <use xlink:href="#DejaVuSans-6e" transform="translate(1710.90625 0)"/>
     </g>
    </g>
   </g>
  </g>
 </g>
 <defs>
  <clipPath id="pdcfdbd2dd6">
   <rect x="108" y="51.84" width="669.6" height="332.64"/>
  </clipPath>
 </defs>
</svg>
