<?xml version="1.0" encoding="utf-8" standalone="no"?>
<!DOCTYPE svg PUBLIC "-//W3C//DTD SVG 1.1//EN"
  "http://www.w3.org/Graphics/SVG/1.1/DTD/svg11.dtd">
<svg xmlns:xlink="http://www.w3.org/1999/xlink" width="864pt" height="432pt" viewBox="0 0 864 432" xmlns="http://www.w3.org/2000/svg" version="1.1">
 <metadata>
  <rdf:RDF xmlns:dc="http://purl.org/dc/elements/1.1/" xmlns:cc="http://creativecommons.org/ns#" xmlns:rdf="http://www.w3.org/1999/02/22-rdf-syntax-ns#">
   <cc:Work>
    <dc:type rdf:resource="http://purl.org/dc/dcmitype/StillImage"/>
    <dc:date>2024-11-09T18:52:28.213939</dc:date>
    <dc:format>image/svg+xml</dc:format>
    <dc:creator>
     <cc:Agent>
      <dc:title>Matplotlib v3.6.3, https://matplotlib.org/</dc:title>
     </cc:Agent>
    </dc:creator>
   </cc:Work>
  </rdf:RDF>
 </metadata>
 <defs>
  <style type="text/css">*{stroke-linejoin: round; stroke-linecap: butt}</style>
 </defs>
 <g id="figure_1">
  <g id="patch_1">
   <path d="M 0 432 
L 864 432 
L 864 0 
L 0 0 
z
" style="fill: #ffffff"/>
  </g>
  <g id="axes_1">
   <g id="patch_2">
    <path d="M 108 384.48 
L 777.6 384.48 
L 777.6 51.84 
L 108 51.84 
z
" style="fill: #ffffff"/>
   </g>
   <g id="matplotlib.axis_1">
    <g id="xtick_1">
     <g id="line2d_1">
      <defs>
       <path id="m1ee954e1c0" d="M 0 0 
L 0 3.5 
" style="stroke: #000000; stroke-width: 0.8"/>
      </defs>
      <g>
       <use xlink:href="#m1ee954e1c0" x="138.822612" y="384.48" style="stroke: #000000; stroke-width: 0.8"/>
      </g>
     </g>
     <g id="text_1">
      <!-- 2020-07 -->
      <g transform="translate(117.931206 399.078438) scale(0.1 -0.1)">
       <defs>
        <path id="DejaVuSans-32" d="M 1228 531 
L 3431 531 
L 3431 0 
L 469 0 
L 469 531 
Q 828 903 1448 1529 
Q 2069 2156 2228 2338 
Q 2531 2678 2651 2914 
Q 2772 3150 2772 3378 
Q 2772 3750 2511 3984 
Q 2250 4219 1831 4219 
Q 1534 4219 1204 4116 
Q 875 4013 500 3803 
L 500 4441 
Q 881 4594 1212 4672 
Q 1544 4750 1819 4750 
Q 2544 4750 2975 4387 
Q 3406 4025 3406 3419 
Q 3406 3131 3298 2873 
Q 3191 2616 2906 2266 
Q 2828 2175 2409 1742 
Q 1991 1309 1228 531 
z
" transform="scale(0.015625)"/>
        <path id="DejaVuSans-30" d="M 2034 4250 
Q 1547 4250 1301 3770 
Q 1056 3291 1056 2328 
Q 1056 1369 1301 889 
Q 1547 409 2034 409 
Q 2525 409 2770 889 
Q 3016 1369 3016 2328 
Q 3016 3291 2770 3770 
Q 2525 4250 2034 4250 
z
M 2034 4750 
Q 2819 4750 3233 4129 
Q 3647 3509 3647 2328 
Q 3647 1150 3233 529 
Q 2819 -91 2034 -91 
Q 1250 -91 836 529 
Q 422 1150 422 2328 
Q 422 3509 836 4129 
Q 1250 4750 2034 4750 
z
" transform="scale(0.015625)"/>
        <path id="DejaVuSans-2d" d="M 313 2009 
L 1997 2009 
L 1997 1497 
L 313 1497 
L 313 2009 
z
" transform="scale(0.015625)"/>
        <path id="DejaVuSans-37" d="M 525 4666 
L 3525 4666 
L 3525 4397 
L 1831 0 
L 1172 0 
L 2766 4134 
L 525 4134 
L 525 4666 
z
" transform="scale(0.015625)"/>
       </defs>
       <use xlink:href="#DejaVuSans-32"/>
       <use xlink:href="#DejaVuSans-30" x="63.623047"/>
       <use xlink:href="#DejaVuSans-32" x="127.246094"/>
       <use xlink:href="#DejaVuSans-30" x="190.869141"/>
       <use xlink:href="#DejaVuSans-2d" x="254.492188"/>
       <use xlink:href="#DejaVuSans-30" x="290.576172"/>
       <use xlink:href="#DejaVuSans-37" x="354.199219"/>
      </g>
     </g>
    </g>
    <g id="xtick_2">
     <g id="line2d_2">
      <g>
       <use xlink:href="#m1ee954e1c0" x="209.892293" y="384.48" style="stroke: #000000; stroke-width: 0.8"/>
      </g>
     </g>
     <g id="text_2">
      <!-- 2021-01 -->
      <g transform="translate(189.000887 399.078438) scale(0.1 -0.1)">
       <defs>
        <path id="DejaVuSans-31" d="M 794 531 
L 1825 531 
L 1825 4091 
L 703 3866 
L 703 4441 
L 1819 4666 
L 2450 4666 
L 2450 531 
L 3481 531 
L 3481 0 
L 794 0 
L 794 531 
z
" transform="scale(0.015625)"/>
       </defs>
       <use xlink:href="#DejaVuSans-32"/>
       <use xlink:href="#DejaVuSans-30" x="63.623047"/>
       <use xlink:href="#DejaVuSans-32" x="127.246094"/>
       <use xlink:href="#DejaVuSans-31" x="190.869141"/>
       <use xlink:href="#DejaVuSans-2d" x="254.492188"/>
       <use xlink:href="#DejaVuSans-30" x="290.576172"/>
       <use xlink:href="#DejaVuSans-31" x="354.199219"/>
      </g>
     </g>
    </g>
    <g id="xtick_3">
     <g id="line2d_3">
      <g>
       <use xlink:href="#m1ee954e1c0" x="279.80323" y="384.48" style="stroke: #000000; stroke-width: 0.8"/>
      </g>
     </g>
     <g id="text_3">
      <!-- 2021-07 -->
      <g transform="translate(258.911824 399.078438) scale(0.1 -0.1)">
       <use xlink:href="#DejaVuSans-32"/>
       <use xlink:href="#DejaVuSans-30" x="63.623047"/>
       <use xlink:href="#DejaVuSans-32" x="127.246094"/>
       <use xlink:href="#DejaVuSans-31" x="190.869141"/>
       <use xlink:href="#DejaVuSans-2d" x="254.492188"/>
       <use xlink:href="#DejaVuSans-30" x="290.576172"/>
       <use xlink:href="#DejaVuSans-37" x="354.199219"/>
      </g>
     </g>
    </g>
    <g id="xtick_4">
     <g id="line2d_4">
      <g>
       <use xlink:href="#m1ee954e1c0" x="350.872912" y="384.48" style="stroke: #000000; stroke-width: 0.8"/>
      </g>
     </g>
     <g id="text_4">
      <!-- 2022-01 -->
      <g transform="translate(329.981506 399.078438) scale(0.1 -0.1)">
       <use xlink:href="#DejaVuSans-32"/>
       <use xlink:href="#DejaVuSans-30" x="63.623047"/>
       <use xlink:href="#DejaVuSans-32" x="127.246094"/>
       <use xlink:href="#DejaVuSans-32" x="190.869141"/>
       <use xlink:href="#DejaVuSans-2d" x="254.492188"/>
       <use xlink:href="#DejaVuSans-30" x="290.576172"/>
       <use xlink:href="#DejaVuSans-31" x="354.199219"/>
      </g>
     </g>
    </g>
    <g id="xtick_5">
     <g id="line2d_5">
      <g>
       <use xlink:href="#m1ee954e1c0" x="420.783849" y="384.48" style="stroke: #000000; stroke-width: 0.8"/>
      </g>
     </g>
     <g id="text_5">
      <!-- 2022-07 -->
      <g transform="translate(399.892442 399.078438) scale(0.1 -0.1)">
       <use xlink:href="#DejaVuSans-32"/>
       <use xlink:href="#DejaVuSans-30" x="63.623047"/>
       <use xlink:href="#DejaVuSans-32" x="127.246094"/>
       <use xlink:href="#DejaVuSans-32" x="190.869141"/>
       <use xlink:href="#DejaVuSans-2d" x="254.492188"/>
       <use xlink:href="#DejaVuSans-30" x="290.576172"/>
       <use xlink:href="#DejaVuSans-37" x="354.199219"/>
      </g>
     </g>
    </g>
    <g id="xtick_6">
     <g id="line2d_6">
      <g>
       <use xlink:href="#m1ee954e1c0" x="491.85353" y="384.48" style="stroke: #000000; stroke-width: 0.8"/>
      </g>
     </g>
     <g id="text_6">
      <!-- 2023-01 -->
      <g transform="translate(470.962124 399.078438) scale(0.1 -0.1)">
       <defs>
        <path id="DejaVuSans-33" d="M 2597 2516 
Q 3050 2419 3304 2112 
Q 3559 1806 3559 1356 
Q 3559 666 3084 287 
Q 2609 -91 1734 -91 
Q 1441 -91 1130 -33 
Q 819 25 488 141 
L 488 750 
Q 750 597 1062 519 
Q 1375 441 1716 441 
Q 2309 441 2620 675 
Q 2931 909 2931 1356 
Q 2931 1769 2642 2001 
Q 2353 2234 1838 2234 
L 1294 2234 
L 1294 2753 
L 1863 2753 
Q 2328 2753 2575 2939 
Q 2822 3125 2822 3475 
Q 2822 3834 2567 4026 
Q 2313 4219 1838 4219 
Q 1578 4219 1281 4162 
Q 984 4106 628 3988 
L 628 4550 
Q 988 4650 1302 4700 
Q 1616 4750 1894 4750 
Q 2613 4750 3031 4423 
Q 3450 4097 3450 3541 
Q 3450 3153 3228 2886 
Q 3006 2619 2597 2516 
z
" transform="scale(0.015625)"/>
       </defs>
       <use xlink:href="#DejaVuSans-32"/>
       <use xlink:href="#DejaVuSans-30" x="63.623047"/>
       <use xlink:href="#DejaVuSans-32" x="127.246094"/>
       <use xlink:href="#DejaVuSans-33" x="190.869141"/>
       <use xlink:href="#DejaVuSans-2d" x="254.492188"/>
       <use xlink:href="#DejaVuSans-30" x="290.576172"/>
       <use xlink:href="#DejaVuSans-31" x="354.199219"/>
      </g>
     </g>
    </g>
    <g id="xtick_7">
     <g id="line2d_7">
      <g>
       <use xlink:href="#m1ee954e1c0" x="561.764467" y="384.48" style="stroke: #000000; stroke-width: 0.8"/>
      </g>
     </g>
     <g id="text_7">
      <!-- 2023-07 -->
      <g transform="translate(540.873061 399.078438) scale(0.1 -0.1)">
       <use xlink:href="#DejaVuSans-32"/>
       <use xlink:href="#DejaVuSans-30" x="63.623047"/>
       <use xlink:href="#DejaVuSans-32" x="127.246094"/>
       <use xlink:href="#DejaVuSans-33" x="190.869141"/>
       <use xlink:href="#DejaVuSans-2d" x="254.492188"/>
       <use xlink:href="#DejaVuSans-30" x="290.576172"/>
       <use xlink:href="#DejaVuSans-37" x="354.199219"/>
      </g>
     </g>
    </g>
    <g id="xtick_8">
     <g id="line2d_8">
      <g>
       <use xlink:href="#m1ee954e1c0" x="632.834149" y="384.48" style="stroke: #000000; stroke-width: 0.8"/>
      </g>
     </g>
     <g id="text_8">
      <!-- 2024-01 -->
      <g transform="translate(611.942742 399.078438) scale(0.1 -0.1)">
       <defs>
        <path id="DejaVuSans-34" d="M 2419 4116 
L 825 1625 
L 2419 1625 
L 2419 4116 
z
M 2253 4666 
L 3047 4666 
L 3047 1625 
L 3713 1625 
L 3713 1100 
L 3047 1100 
L 3047 0 
L 2419 0 
L 2419 1100 
L 313 1100 
L 313 1709 
L 2253 4666 
z
" transform="scale(0.015625)"/>
       </defs>
       <use xlink:href="#DejaVuSans-32"/>
       <use xlink:href="#DejaVuSans-30" x="63.623047"/>
       <use xlink:href="#DejaVuSans-32" x="127.246094"/>
       <use xlink:href="#DejaVuSans-34" x="190.869141"/>
       <use xlink:href="#DejaVuSans-2d" x="254.492188"/>
       <use xlink:href="#DejaVuSans-30" x="290.576172"/>
       <use xlink:href="#DejaVuSans-31" x="354.199219"/>
      </g>
     </g>
    </g>
    <g id="xtick_9">
     <g id="line2d_9">
      <g>
       <use xlink:href="#m1ee954e1c0" x="703.131334" y="384.48" style="stroke: #000000; stroke-width: 0.8"/>
      </g>
     </g>
     <g id="text_9">
      <!-- 2024-07 -->
      <g transform="translate(682.239927 399.078438) scale(0.1 -0.1)">
       <use xlink:href="#DejaVuSans-32"/>
       <use xlink:href="#DejaVuSans-30" x="63.623047"/>
       <use xlink:href="#DejaVuSans-32" x="127.246094"/>
       <use xlink:href="#DejaVuSans-34" x="190.869141"/>
       <use xlink:href="#DejaVuSans-2d" x="254.492188"/>
       <use xlink:href="#DejaVuSans-30" x="290.576172"/>
       <use xlink:href="#DejaVuSans-37" x="354.199219"/>
      </g>
     </g>
    </g>
    <g id="xtick_10">
     <g id="line2d_10">
      <g>
       <use xlink:href="#m1ee954e1c0" x="774.201015" y="384.48" style="stroke: #000000; stroke-width: 0.8"/>
      </g>
     </g>
     <g id="text_10">
      <!-- 2025-01 -->
      <g transform="translate(753.309609 399.078438) scale(0.1 -0.1)">
       <defs>
        <path id="DejaVuSans-35" d="M 691 4666 
L 3169 4666 
L 3169 4134 
L 1269 4134 
L 1269 2991 
Q 1406 3038 1543 3061 
Q 1681 3084 1819 3084 
Q 2600 3084 3056 2656 
Q 3513 2228 3513 1497 
Q 3513 744 3044 326 
Q 2575 -91 1722 -91 
Q 1428 -91 1123 -41 
Q 819 9 494 109 
L 494 744 
Q 775 591 1075 516 
Q 1375 441 1709 441 
Q 2250 441 2565 725 
Q 2881 1009 2881 1497 
Q 2881 1984 2565 2268 
Q 2250 2553 1709 2553 
Q 1456 2553 1204 2497 
Q 953 2441 691 2322 
L 691 4666 
z
" transform="scale(0.015625)"/>
       </defs>
       <use xlink:href="#DejaVuSans-32"/>
       <use xlink:href="#DejaVuSans-30" x="63.623047"/>
       <use xlink:href="#DejaVuSans-32" x="127.246094"/>
       <use xlink:href="#DejaVuSans-35" x="190.869141"/>
       <use xlink:href="#DejaVuSans-2d" x="254.492188"/>
       <use xlink:href="#DejaVuSans-30" x="290.576172"/>
       <use xlink:href="#DejaVuSans-31" x="354.199219"/>
      </g>
     </g>
    </g>
    <g id="text_11">
     <!-- Date -->
     <g transform="translate(430.849219 412.756563) scale(0.1 -0.1)">
      <defs>
       <path id="DejaVuSans-44" d="M 1259 4147 
L 1259 519 
L 2022 519 
Q 2988 519 3436 956 
Q 3884 1394 3884 2338 
Q 3884 3275 3436 3711 
Q 2988 4147 2022 4147 
L 1259 4147 
z
M 628 4666 
L 1925 4666 
Q 3281 4666 3915 4102 
Q 4550 3538 4550 2338 
Q 4550 1131 3912 565 
Q 3275 0 1925 0 
L 628 0 
L 628 4666 
z
" transform="scale(0.015625)"/>
       <path id="DejaVuSans-61" d="M 2194 1759 
Q 1497 1759 1228 1600 
Q 959 1441 959 1056 
Q 959 750 1161 570 
Q 1363 391 1709 391 
Q 2188 391 2477 730 
Q 2766 1069 2766 1631 
L 2766 1759 
L 2194 1759 
z
M 3341 1997 
L 3341 0 
L 2766 0 
L 2766 531 
Q 2569 213 2275 61 
Q 1981 -91 1556 -91 
Q 1019 -91 701 211 
Q 384 513 384 1019 
Q 384 1609 779 1909 
Q 1175 2209 1959 2209 
L 2766 2209 
L 2766 2266 
Q 2766 2663 2505 2880 
Q 2244 3097 1772 3097 
Q 1472 3097 1187 3025 
Q 903 2953 641 2809 
L 641 3341 
Q 956 3463 1253 3523 
Q 1550 3584 1831 3584 
Q 2591 3584 2966 3190 
Q 3341 2797 3341 1997 
z
" transform="scale(0.015625)"/>
       <path id="DejaVuSans-74" d="M 1172 4494 
L 1172 3500 
L 2356 3500 
L 2356 3053 
L 1172 3053 
L 1172 1153 
Q 1172 725 1289 603 
Q 1406 481 1766 481 
L 2356 481 
L 2356 0 
L 1766 0 
Q 1100 0 847 248 
Q 594 497 594 1153 
L 594 3053 
L 172 3053 
L 172 3500 
L 594 3500 
L 594 4494 
L 1172 4494 
z
" transform="scale(0.015625)"/>
       <path id="DejaVuSans-65" d="M 3597 1894 
L 3597 1613 
L 953 1613 
Q 991 1019 1311 708 
Q 1631 397 2203 397 
Q 2534 397 2845 478 
Q 3156 559 3463 722 
L 3463 178 
Q 3153 47 2828 -22 
Q 2503 -91 2169 -91 
Q 1331 -91 842 396 
Q 353 884 353 1716 
Q 353 2575 817 3079 
Q 1281 3584 2069 3584 
Q 2775 3584 3186 3129 
Q 3597 2675 3597 1894 
z
M 3022 2063 
Q 3016 2534 2758 2815 
Q 2500 3097 2075 3097 
Q 1594 3097 1305 2825 
Q 1016 2553 972 2059 
L 3022 2063 
z
" transform="scale(0.015625)"/>
      </defs>
      <use xlink:href="#DejaVuSans-44"/>
      <use xlink:href="#DejaVuSans-61" x="77.001953"/>
      <use xlink:href="#DejaVuSans-74" x="138.28125"/>
      <use xlink:href="#DejaVuSans-65" x="177.490234"/>
     </g>
    </g>
   </g>
   <g id="matplotlib.axis_2">
    <g id="ytick_1">
     <g id="line2d_11">
      <defs>
       <path id="m6c5343e734" d="M 0 0 
L -3.5 0 
" style="stroke: #000000; stroke-width: 0.8"/>
      </defs>
      <g>
       <use xlink:href="#m6c5343e734" x="108" y="369.36" style="stroke: #000000; stroke-width: 0.8"/>
      </g>
     </g>
     <g id="text_12">
      <!-- 0.00 -->
      <g transform="translate(78.734375 373.159219) scale(0.1 -0.1)">
       <defs>
        <path id="DejaVuSans-2e" d="M 684 794 
L 1344 794 
L 1344 0 
L 684 0 
L 684 794 
z
" transform="scale(0.015625)"/>
       </defs>
       <use xlink:href="#DejaVuSans-30"/>
       <use xlink:href="#DejaVuSans-2e" x="63.623047"/>
       <use xlink:href="#DejaVuSans-30" x="95.410156"/>
       <use xlink:href="#DejaVuSans-30" x="159.033203"/>
      </g>
     </g>
    </g>
    <g id="ytick_2">
     <g id="line2d_12">
      <g>
       <use xlink:href="#m6c5343e734" x="108" y="317.355868" style="stroke: #000000; stroke-width: 0.8"/>
      </g>
     </g>
     <g id="text_13">
      <!-- 0.02 -->
      <g transform="translate(78.734375 321.155086) scale(0.1 -0.1)">
       <use xlink:href="#DejaVuSans-30"/>
       <use xlink:href="#DejaVuSans-2e" x="63.623047"/>
       <use xlink:href="#DejaVuSans-30" x="95.410156"/>
       <use xlink:href="#DejaVuSans-32" x="159.033203"/>
      </g>
     </g>
    </g>
    <g id="ytick_3">
     <g id="line2d_13">
      <g>
       <use xlink:href="#m6c5343e734" x="108" y="265.351735" style="stroke: #000000; stroke-width: 0.8"/>
      </g>
     </g>
     <g id="text_14">
      <!-- 0.04 -->
      <g transform="translate(78.734375 269.150954) scale(0.1 -0.1)">
       <use xlink:href="#DejaVuSans-30"/>
       <use xlink:href="#DejaVuSans-2e" x="63.623047"/>
       <use xlink:href="#DejaVuSans-30" x="95.410156"/>
       <use xlink:href="#DejaVuSans-34" x="159.033203"/>
      </g>
     </g>
    </g>
    <g id="ytick_4">
     <g id="line2d_14">
      <g>
       <use xlink:href="#m6c5343e734" x="108" y="213.347603" style="stroke: #000000; stroke-width: 0.8"/>
      </g>
     </g>
     <g id="text_15">
      <!-- 0.06 -->
      <g transform="translate(78.734375 217.146821) scale(0.1 -0.1)">
       <defs>
        <path id="DejaVuSans-36" d="M 2113 2584 
Q 1688 2584 1439 2293 
Q 1191 2003 1191 1497 
Q 1191 994 1439 701 
Q 1688 409 2113 409 
Q 2538 409 2786 701 
Q 3034 994 3034 1497 
Q 3034 2003 2786 2293 
Q 2538 2584 2113 2584 
z
M 3366 4563 
L 3366 3988 
Q 3128 4100 2886 4159 
Q 2644 4219 2406 4219 
Q 1781 4219 1451 3797 
Q 1122 3375 1075 2522 
Q 1259 2794 1537 2939 
Q 1816 3084 2150 3084 
Q 2853 3084 3261 2657 
Q 3669 2231 3669 1497 
Q 3669 778 3244 343 
Q 2819 -91 2113 -91 
Q 1303 -91 875 529 
Q 447 1150 447 2328 
Q 447 3434 972 4092 
Q 1497 4750 2381 4750 
Q 2619 4750 2861 4703 
Q 3103 4656 3366 4563 
z
" transform="scale(0.015625)"/>
       </defs>
       <use xlink:href="#DejaVuSans-30"/>
       <use xlink:href="#DejaVuSans-2e" x="63.623047"/>
       <use xlink:href="#DejaVuSans-30" x="95.410156"/>
       <use xlink:href="#DejaVuSans-36" x="159.033203"/>
      </g>
     </g>
    </g>
    <g id="ytick_5">
     <g id="line2d_15">
      <g>
       <use xlink:href="#m6c5343e734" x="108" y="161.34347" style="stroke: #000000; stroke-width: 0.8"/>
      </g>
     </g>
     <g id="text_16">
      <!-- 0.08 -->
      <g transform="translate(78.734375 165.142689) scale(0.1 -0.1)">
       <defs>
        <path id="DejaVuSans-38" d="M 2034 2216 
Q 1584 2216 1326 1975 
Q 1069 1734 1069 1313 
Q 1069 891 1326 650 
Q 1584 409 2034 409 
Q 2484 409 2743 651 
Q 3003 894 3003 1313 
Q 3003 1734 2745 1975 
Q 2488 2216 2034 2216 
z
M 1403 2484 
Q 997 2584 770 2862 
Q 544 3141 544 3541 
Q 544 4100 942 4425 
Q 1341 4750 2034 4750 
Q 2731 4750 3128 4425 
Q 3525 4100 3525 3541 
Q 3525 3141 3298 2862 
Q 3072 2584 2669 2484 
Q 3125 2378 3379 2068 
Q 3634 1759 3634 1313 
Q 3634 634 3220 271 
Q 2806 -91 2034 -91 
Q 1263 -91 848 271 
Q 434 634 434 1313 
Q 434 1759 690 2068 
Q 947 2378 1403 2484 
z
M 1172 3481 
Q 1172 3119 1398 2916 
Q 1625 2713 2034 2713 
Q 2441 2713 2670 2916 
Q 2900 3119 2900 3481 
Q 2900 3844 2670 4047 
Q 2441 4250 2034 4250 
Q 1625 4250 1398 4047 
Q 1172 3844 1172 3481 
z
" transform="scale(0.015625)"/>
       </defs>
       <use xlink:href="#DejaVuSans-30"/>
       <use xlink:href="#DejaVuSans-2e" x="63.623047"/>
       <use xlink:href="#DejaVuSans-30" x="95.410156"/>
       <use xlink:href="#DejaVuSans-38" x="159.033203"/>
      </g>
     </g>
    </g>
    <g id="ytick_6">
     <g id="line2d_16">
      <g>
       <use xlink:href="#m6c5343e734" x="108" y="109.339338" style="stroke: #000000; stroke-width: 0.8"/>
      </g>
     </g>
     <g id="text_17">
      <!-- 0.10 -->
      <g transform="translate(78.734375 113.138556) scale(0.1 -0.1)">
       <use xlink:href="#DejaVuSans-30"/>
       <use xlink:href="#DejaVuSans-2e" x="63.623047"/>
       <use xlink:href="#DejaVuSans-31" x="95.410156"/>
       <use xlink:href="#DejaVuSans-30" x="159.033203"/>
      </g>
     </g>
    </g>
    <g id="ytick_7">
     <g id="line2d_17">
      <g>
       <use xlink:href="#m6c5343e734" x="108" y="57.335205" style="stroke: #000000; stroke-width: 0.8"/>
      </g>
     </g>
     <g id="text_18">
      <!-- 0.12 -->
      <g transform="translate(78.734375 61.134424) scale(0.1 -0.1)">
       <use xlink:href="#DejaVuSans-30"/>
       <use xlink:href="#DejaVuSans-2e" x="63.623047"/>
       <use xlink:href="#DejaVuSans-31" x="95.410156"/>
       <use xlink:href="#DejaVuSans-32" x="159.033203"/>
      </g>
     </g>
    </g>
    <g id="text_19">
     <!-- Volatility -->
     <g transform="translate(72.654687 239.752187) rotate(-90) scale(0.1 -0.1)">
      <defs>
       <path id="DejaVuSans-56" d="M 1831 0 
L 50 4666 
L 709 4666 
L 2188 738 
L 3669 4666 
L 4325 4666 
L 2547 0 
L 1831 0 
z
" transform="scale(0.015625)"/>
       <path id="DejaVuSans-6f" d="M 1959 3097 
Q 1497 3097 1228 2736 
Q 959 2375 959 1747 
Q 959 1119 1226 758 
Q 1494 397 1959 397 
Q 2419 397 2687 759 
Q 2956 1122 2956 1747 
Q 2956 2369 2687 2733 
Q 2419 3097 1959 3097 
z
M 1959 3584 
Q 2709 3584 3137 3096 
Q 3566 2609 3566 1747 
Q 3566 888 3137 398 
Q 2709 -91 1959 -91 
Q 1206 -91 779 398 
Q 353 888 353 1747 
Q 353 2609 779 3096 
Q 1206 3584 1959 3584 
z
" transform="scale(0.015625)"/>
       <path id="DejaVuSans-6c" d="M 603 4863 
L 1178 4863 
L 1178 0 
L 603 0 
L 603 4863 
z
" transform="scale(0.015625)"/>
       <path id="DejaVuSans-69" d="M 603 3500 
L 1178 3500 
L 1178 0 
L 603 0 
L 603 3500 
z
M 603 4863 
L 1178 4863 
L 1178 4134 
L 603 4134 
L 603 4863 
z
" transform="scale(0.015625)"/>
       <path id="DejaVuSans-79" d="M 2059 -325 
Q 1816 -950 1584 -1140 
Q 1353 -1331 966 -1331 
L 506 -1331 
L 506 -850 
L 844 -850 
Q 1081 -850 1212 -737 
Q 1344 -625 1503 -206 
L 1606 56 
L 191 3500 
L 800 3500 
L 1894 763 
L 2988 3500 
L 3597 3500 
L 2059 -325 
z
" transform="scale(0.015625)"/>
      </defs>
      <use xlink:href="#DejaVuSans-56"/>
      <use xlink:href="#DejaVuSans-6f" x="60.658203"/>
      <use xlink:href="#DejaVuSans-6c" x="121.839844"/>
      <use xlink:href="#DejaVuSans-61" x="149.623047"/>
      <use xlink:href="#DejaVuSans-74" x="210.902344"/>
      <use xlink:href="#DejaVuSans-69" x="250.111328"/>
      <use xlink:href="#DejaVuSans-6c" x="277.894531"/>
      <use xlink:href="#DejaVuSans-69" x="305.677734"/>
      <use xlink:href="#DejaVuSans-74" x="333.460938"/>
      <use xlink:href="#DejaVuSans-79" x="372.669922"/>
     </g>
    </g>
   </g>
   <g id="line2d_18">
    <path d="M 138.436364 369.018338 
L 138.822612 368.774446 
L 139.20886 366.64048 
L 140.753853 366.476847 
L 141.140102 365.104965 
L 141.52635 369.358931 
L 142.298846 365.070539 
L 143.843839 366.818781 
L 144.230088 367.218406 
L 144.616336 369.352185 
L 145.002584 367.98637 
L 146.161329 368.679061 
L 146.547577 369.353284 
L 146.933826 369.271533 
L 147.320074 369.340576 
L 147.706322 369.090891 
L 148.865067 368.807111 
L 149.251315 367.793242 
L 149.637563 369.353737 
L 150.023812 369.102555 
L 150.41006 369.249217 
L 151.568805 369.073582 
L 151.955053 367.897337 
L 152.341301 365.682812 
L 152.72755 359.620045 
L 153.113798 368.912915 
L 154.272543 366.631683 
L 154.658791 360.542107 
L 155.045039 368.72813 
L 155.431287 369.255086 
L 155.817536 369.168248 
L 157.748777 369.359236 
L 158.135025 368.914225 
L 158.521274 368.81389 
L 159.680018 367.779463 
L 160.066267 369.114174 
L 160.838763 369.175917 
L 161.225012 368.922337 
L 162.383756 368.828924 
L 162.770005 357.423439 
L 163.156253 367.991594 
L 163.542501 357.642 
L 163.928749 368.661324 
L 165.473743 368.624242 
L 165.859991 367.839171 
L 166.632487 368.735759 
L 167.791232 366.486189 
L 168.17748 369.34697 
L 168.563729 369.265938 
L 168.949977 367.501413 
L 169.336225 367.721734 
L 170.49497 367.125482 
L 170.881218 369.356527 
L 171.267467 294.974939 
L 171.653715 366.118865 
L 172.039963 368.819353 
L 173.198708 369.322868 
L 173.584956 367.9203 
L 173.971204 367.396474 
L 174.357453 367.176603 
L 174.743701 367.159689 
L 175.902446 360.167643 
L 176.288694 369.055451 
L 176.674942 366.863613 
L 177.061191 369.34125 
L 177.447439 369.123613 
L 178.606184 369.021158 
L 178.992432 369.348486 
L 179.37868 369.272597 
L 179.764928 369.343218 
L 180.151177 369.104854 
L 181.69617 369.065753 
L 182.082418 367.813182 
L 182.468666 369.12348 
L 182.854915 368.704292 
L 184.013659 368.219029 
L 184.399908 369.218319 
L 184.786156 363.534991 
L 185.558653 369.266706 
L 186.717397 365.564663 
L 187.103646 369.192657 
L 187.489894 364.35572 
L 187.876142 330.976075 
L 188.26239 359.445157 
L 189.421135 365.323059 
L 189.807383 369.088007 
L 190.57988 369.359094 
L 190.966128 366.721615 
L 192.124873 362.531923 
L 192.511121 369.211683 
L 192.89737 369.04072 
L 193.283618 369.270554 
L 193.669866 368.654053 
L 194.828611 363.587529 
L 195.214859 367.913083 
L 195.601108 368.460031 
L 196.373604 368.156471 
L 197.918597 369.35886 
L 198.304845 369.303843 
L 198.691094 367.541377 
L 199.077342 361.386187 
L 200.236087 369.278836 
L 200.622335 367.347047 
L 201.008583 369.111642 
L 201.394832 369.198214 
L 201.78108 368.335242 
L 202.939825 367.040337 
L 203.712321 368.712288 
L 204.484818 369.08544 
L 205.643563 368.07693 
L 206.029811 367.099266 
L 206.416059 367.788904 
L 206.802307 369.35155 
L 208.3473 369.359257 
L 208.733549 367.905087 
L 209.119797 368.237389 
L 209.506045 368.990119 
L 211.051038 366.344794 
L 211.437287 358.271163 
L 211.823535 355.866799 
L 212.596031 369.359232 
L 213.754776 365.665852 
L 214.527273 368.832894 
L 215.299769 368.966407 
L 216.844762 367.325522 
L 217.231011 367.365694 
L 217.617259 368.191252 
L 218.003507 368.741446 
L 219.162252 368.48823 
L 219.5485 369.16126 
L 219.934749 365.616302 
L 220.320997 368.790713 
L 220.707245 368.037549 
L 221.86599 368.037549 
L 222.252238 368.594086 
L 222.638486 364.20595 
L 223.024735 364.308677 
L 223.410983 368.809658 
L 224.569728 367.386642 
L 224.955976 368.524637 
L 225.342224 368.628201 
L 226.114721 367.093279 
L 227.659714 368.780312 
L 228.045962 367.082549 
L 228.43221 339.468844 
L 228.818459 343.912375 
L 229.977204 369.349105 
L 230.363452 368.984216 
L 230.7497 365.23857 
L 231.135948 363.564019 
L 231.522197 367.860746 
L 232.680941 367.39767 
L 233.06719 369.294429 
L 233.453438 364.16451 
L 233.839686 365.592992 
L 234.225934 368.642684 
L 235.384679 368.052902 
L 236.157176 364.366599 
L 236.543424 360.844291 
L 236.929672 367.728057 
L 238.088417 369.109929 
L 238.474665 368.091245 
L 238.860914 369.327527 
L 239.247162 368.103424 
L 239.63341 369.242923 
L 240.792155 369.312341 
L 241.178403 365.596167 
L 241.564652 369.3569 
L 241.9509 368.730138 
L 242.337148 369.109153 
L 243.495893 367.480221 
L 243.882141 369.232912 
L 244.268389 369.296546 
L 244.654638 366.829379 
L 246.199631 369.32895 
L 246.585879 368.552929 
L 246.972127 359.367729 
L 247.358376 368.604774 
L 247.744624 369.200306 
L 248.903369 369.341825 
L 249.289617 369.270325 
L 249.675865 367.194783 
L 250.062114 368.698438 
L 250.448362 369.097458 
L 251.607107 366.111165 
L 251.993355 360.398723 
L 252.379603 367.012784 
L 252.765851 368.535367 
L 253.1521 366.308239 
L 254.310844 361.114074 
L 254.697093 369.299615 
L 255.083341 369.348923 
L 255.469589 369.069862 
L 255.855838 369.332096 
L 257.014582 368.917329 
L 257.787079 366.922651 
L 258.173327 348.562175 
L 258.559575 359.178925 
L 259.71832 368.308189 
L 260.104569 369.254311 
L 260.490817 365.712665 
L 260.877065 368.341653 
L 261.263313 365.590246 
L 262.422058 365.71472 
L 262.808306 369.108331 
L 263.194555 368.776147 
L 263.580803 369.253049 
L 263.967051 369.099272 
L 265.125796 369.35999 
L 265.512044 369.105855 
L 265.898293 367.587561 
L 266.284541 365.513522 
L 266.670789 369.157769 
L 268.215782 367.642292 
L 268.60203 369.258067 
L 268.988279 368.924714 
L 269.374527 366.790955 
L 270.533272 368.691689 
L 270.91952 366.994063 
L 271.305768 369.132132 
L 271.692017 365.500664 
L 272.078265 368.835468 
L 273.23701 369.052715 
L 273.623258 368.863579 
L 274.009506 369.306701 
L 274.395754 369.169135 
L 274.782003 365.863864 
L 275.940748 368.153288 
L 276.326996 369.357119 
L 276.713244 368.930527 
L 277.099492 368.853641 
L 277.485741 369.299877 
L 278.644485 368.880557 
L 279.030734 369.15067 
L 279.416982 369.282021 
L 279.80323 368.216528 
L 280.189479 369.191323 
L 281.734472 368.96515 
L 282.12072 369.16129 
L 282.506968 368.946829 
L 282.893216 364.264525 
L 284.051961 358.023355 
L 284.43821 368.841089 
L 284.824458 368.938033 
L 285.210706 368.520105 
L 285.596954 367.289945 
L 286.755699 368.822024 
L 287.141947 362.804314 
L 287.528196 368.716077 
L 287.914444 368.902497 
L 288.300692 368.948412 
L 289.459437 367.946656 
L 289.845685 366.943607 
L 290.231934 367.181719 
L 290.618182 364.842612 
L 291.00443 368.714874 
L 292.163175 369.314888 
L 292.935671 369.35881 
L 293.32192 361.382572 
L 293.708168 365.92681 
L 294.866913 368.27899 
L 295.253161 366.608855 
L 295.639409 368.934008 
L 296.025658 369.34591 
L 296.411906 369.278573 
L 297.570651 365.109982 
L 297.956899 364.611775 
L 298.343147 369.269604 
L 299.115644 367.137205 
L 300.274389 365.81751 
L 300.660637 369.280985 
L 301.046885 368.163374 
L 301.433133 368.780464 
L 301.819382 367.673976 
L 302.978126 369.354951 
L 303.364375 369.357331 
L 303.750623 369.082132 
L 304.136871 368.320837 
L 304.52312 369.152549 
L 306.068113 368.932888 
L 306.454361 369.348623 
L 306.840609 368.598529 
L 307.226857 369.13775 
L 308.385602 362.54038 
L 308.77185 369.271587 
L 309.158099 368.765955 
L 309.544347 369.001849 
L 309.930595 368.400427 
L 311.08934 362.484756 
L 311.475588 369.303139 
L 311.861837 366.880156 
L 312.248085 367.608987 
L 312.634333 368.980972 
L 313.793078 368.470036 
L 314.179326 367.541808 
L 314.565575 369.011612 
L 314.951823 369.36 
L 315.338071 369.359653 
L 316.496816 368.612514 
L 316.883064 366.559477 
L 317.269312 369.359979 
L 317.655561 369.359742 
L 318.041809 366.50933 
L 319.200554 369.314271 
L 319.586802 368.94885 
L 319.97305 366.888695 
L 320.359299 366.403779 
L 320.745547 369.038003 
L 321.904292 366.181444 
L 322.29054 369.31713 
L 323.063036 369.311833 
L 323.449285 369.023166 
L 324.60803 366.410505 
L 324.994278 368.865296 
L 325.380526 368.436054 
L 325.766774 359.834521 
L 326.153023 368.594837 
L 327.311767 368.176951 
L 328.084264 369.217798 
L 328.470512 365.184696 
L 328.85676 369.359213 
L 330.015505 368.122635 
L 330.401754 368.829505 
L 330.788002 366.588079 
L 331.560498 368.782112 
L 332.719243 368.454554 
L 333.105491 369.311021 
L 333.877988 369.304149 
L 334.264236 367.818312 
L 335.422981 369.177141 
L 335.809229 366.87457 
L 336.195478 369.344081 
L 336.967974 367.293427 
L 338.512967 366.235321 
L 339.285464 369.269209 
L 339.671712 365.467729 
L 340.830457 369.002844 
L 341.216705 364.491983 
L 341.602953 368.371457 
L 341.989202 367.398274 
L 342.37545 368.23976 
L 343.534195 361.491451 
L 343.920443 368.301311 
L 344.306691 368.634155 
L 344.69294 365.665883 
L 345.079188 369.305994 
L 346.237933 362.214277 
L 346.624181 367.432838 
L 347.010429 369.299925 
L 347.396677 368.998878 
L 348.941671 368.036538 
L 349.327919 369.355687 
L 349.714167 369.356498 
L 350.100415 369.201945 
L 350.486664 369.344033 
L 351.645408 368.964757 
L 352.031657 367.778158 
L 352.417905 367.169251 
L 352.804153 369.118506 
L 353.190401 369.030998 
L 354.349146 365.38504 
L 354.735395 361.050925 
L 355.121643 369.323622 
L 355.507891 367.796213 
L 355.894139 369.244878 
L 357.439132 366.689346 
L 357.825381 367.075011 
L 358.211629 369.008356 
L 358.597877 368.270399 
L 359.756622 369.32027 
L 360.14287 367.279852 
L 360.529119 369.350664 
L 361.301615 369.32072 
L 362.46036 357.338931 
L 362.846608 368.319572 
L 363.232856 368.642501 
L 363.619105 367.103238 
L 364.005353 369.308418 
L 365.164098 368.585735 
L 365.936594 364.758219 
L 366.322843 369.352913 
L 366.709091 368.094643 
L 367.867836 368.850338 
L 368.254084 360.469723 
L 368.640332 368.429444 
L 369.026581 241.181089 
L 369.412829 366.649044 
L 370.957822 369.275585 
L 371.34407 362.136509 
L 371.730318 368.984607 
L 372.116567 364.943563 
L 373.275311 368.286541 
L 373.66156 363.003305 
L 374.047808 367.761801 
L 374.434056 367.684805 
L 374.820305 365.253067 
L 375.979049 365.249597 
L 376.365298 363.106199 
L 377.137794 369.246581 
L 377.524042 368.386381 
L 378.682787 363.633892 
L 379.069036 366.763278 
L 379.455284 362.898541 
L 379.841532 367.545132 
L 380.22778 369.126425 
L 381.386525 369.34722 
L 381.772773 366.312091 
L 382.159022 368.94623 
L 382.54527 367.302544 
L 382.931518 368.703474 
L 384.090263 368.774713 
L 384.476511 365.747464 
L 384.86276 369.336489 
L 385.249008 369.149243 
L 385.635256 368.617039 
L 386.794001 369.295846 
L 387.180249 365.31677 
L 387.952746 369.351619 
L 388.338994 369.317972 
L 389.497739 367.864531 
L 389.883987 369.300872 
L 390.270235 366.021058 
L 390.656484 369.209602 
L 392.201477 369.272474 
L 392.587725 365.272566 
L 392.973973 369.309424 
L 393.360222 363.641782 
L 393.74647 366.636248 
L 394.905215 369.04967 
L 395.291463 361.372899 
L 395.677711 367.920609 
L 396.063959 368.724011 
L 396.450208 368.952222 
L 397.608952 369.21995 
L 397.995201 367.121238 
L 398.381449 348.75958 
L 398.767697 346.809584 
L 399.153946 367.775911 
L 400.31269 348.496269 
L 400.698939 369.357663 
L 401.085187 365.471031 
L 401.471435 369.349913 
L 401.857683 356.788385 
L 403.016428 369.04619 
L 403.402677 361.357796 
L 403.788925 368.873507 
L 404.561421 369.039412 
L 405.720166 367.447559 
L 406.106414 369.358059 
L 406.492663 367.927845 
L 406.878911 356.159921 
L 407.265159 359.885332 
L 408.810152 365.297303 
L 409.196401 352.233853 
L 409.582649 363.984291 
L 409.968897 369.348409 
L 411.127642 367.37222 
L 411.51389 369.359609 
L 411.900138 368.635164 
L 412.286387 363.416744 
L 412.672635 368.265475 
L 413.83138 358.761558 
L 414.217628 369.295446 
L 414.603876 365.676019 
L 414.990125 359.396655 
L 415.376373 363.45221 
L 417.307614 369.35955 
L 417.693862 368.973606 
L 418.080111 362.605376 
L 419.238856 369.189064 
L 419.625104 368.755198 
L 420.011352 362.340889 
L 420.3976 368.862752 
L 420.783849 368.470354 
L 422.328842 367.951236 
L 422.71509 369.063194 
L 423.101338 367.933196 
L 423.487587 368.826029 
L 424.646331 367.001169 
L 425.418828 369.357805 
L 425.805076 369.330615 
L 426.191324 368.284796 
L 427.350069 368.717411 
L 427.736317 365.840999 
L 428.122566 365.785257 
L 428.508814 367.412742 
L 428.895062 368.468007 
L 430.053807 367.434014 
L 430.440055 369.050324 
L 430.826304 365.196578 
L 431.212552 369.16647 
L 431.5988 366.485127 
L 432.757545 368.520747 
L 433.143793 368.673803 
L 433.91629 368.360791 
L 434.302538 368.913004 
L 435.461283 367.266285 
L 435.847531 369.358594 
L 436.233779 360.57784 
L 436.620028 367.814192 
L 437.006276 360.608919 
L 438.165021 369.155206 
L 438.551269 369.011468 
L 438.937517 369.020592 
L 439.323766 369.240302 
L 439.710014 366.257543 
L 440.868759 368.233167 
L 441.255007 368.406639 
L 441.641255 367.851989 
L 442.027503 367.501612 
L 442.413752 367.634311 
L 443.572497 369.03778 
L 443.958745 364.381903 
L 444.344993 368.536963 
L 444.731241 364.791284 
L 445.11749 369.028003 
L 446.662483 367.615153 
L 447.048731 363.904765 
L 447.434979 364.580932 
L 447.821228 366.986117 
L 448.979972 369.023031 
L 449.366221 369.323155 
L 449.752469 367.079475 
L 450.138717 357.194847 
L 450.524965 369.349746 
L 451.68371 366.533999 
L 452.069958 366.727362 
L 452.456207 369.142304 
L 452.842455 363.800143 
L 453.228703 369.101513 
L 454.773696 368.573393 
L 455.159945 366.987684 
L 455.546193 363.845409 
L 455.932441 369.322956 
L 457.091186 366.260102 
L 457.477434 365.979448 
L 457.863683 367.747314 
L 458.249931 368.786908 
L 458.636179 366.958189 
L 459.794924 368.295638 
L 460.181172 368.465682 
L 460.56742 351.794676 
L 460.953669 368.523766 
L 461.339917 354.680691 
L 462.498662 364.437859 
L 462.88491 368.808091 
L 463.271158 368.416479 
L 463.657407 369.31021 
L 464.043655 361.30237 
L 465.2024 369.348839 
L 465.588648 365.333198 
L 465.974896 369.343024 
L 466.361144 369.359987 
L 466.747393 369.227112 
L 468.292386 369.334795 
L 468.678634 363.914622 
L 469.064882 367.063207 
L 469.451131 365.745413 
L 470.609875 369.288344 
L 470.996124 358.062924 
L 471.382372 368.381176 
L 471.76862 357.858265 
L 472.154868 368.830555 
L 473.313613 367.300338 
L 473.699862 357.700597 
L 474.08611 366.827904 
L 474.472358 366.521561 
L 474.858606 369.352526 
L 476.017351 368.204834 
L 476.403599 369.358568 
L 476.789848 369.338773 
L 477.562344 365.239145 
L 479.107337 368.806781 
L 479.493586 367.159766 
L 479.879834 369.112311 
L 480.266082 366.674951 
L 481.424827 356.85009 
L 481.811075 367.368253 
L 482.197323 369.35435 
L 482.583572 369.261585 
L 482.96982 369.050078 
L 484.128565 367.882202 
L 484.514813 369.111094 
L 484.901061 361.455177 
L 485.28731 366.997297 
L 485.673558 369.112054 
L 486.832303 365.202052 
L 487.218551 369.358778 
L 487.604799 369.323768 
L 487.991048 367.172812 
L 488.377296 369.311309 
L 489.922289 360.597695 
L 490.308537 369.359183 
L 490.694785 368.702804 
L 491.081034 369.339484 
L 492.626027 369.04867 
L 493.012275 364.90015 
L 493.398523 368.051208 
L 493.784772 368.867317 
L 494.943516 369.068303 
L 495.329765 369.359481 
L 495.716013 361.493697 
L 496.102261 367.361511 
L 496.488509 369.31761 
L 498.419751 369.336618 
L 498.805999 368.37891 
L 499.192247 365.510062 
L 500.350992 363.434451 
L 500.73724 368.789337 
L 501.509737 366.896803 
L 501.895985 369.189811 
L 503.05473 366.140967 
L 503.440978 366.314018 
L 503.827227 368.720118 
L 504.213475 368.793837 
L 504.599723 369.093981 
L 505.758468 365.80955 
L 506.144716 369.144756 
L 506.530964 365.013929 
L 506.917213 369.339055 
L 509.234702 369.206192 
L 509.620951 363.867542 
L 510.007199 342.485461 
L 511.552192 358.634225 
L 511.93844 368.480949 
L 512.324689 367.084197 
L 512.710937 368.590354 
L 513.869682 367.079529 
L 514.25593 369.067848 
L 514.642178 369.247132 
L 515.028426 369.150049 
L 515.414675 366.124347 
L 516.573419 369.119987 
L 516.959668 366.764055 
L 517.345916 368.579447 
L 517.732164 357.557554 
L 518.118413 362.774258 
L 519.277157 369.122801 
L 519.663406 369.069373 
L 520.049654 362.896944 
L 520.435902 369.357508 
L 520.82215 367.183571 
L 521.980895 368.06235 
L 522.367144 364.181483 
L 523.13964 369.347675 
L 523.525888 369.104076 
L 525.070881 369.331771 
L 525.45713 367.252605 
L 525.843378 369.147501 
L 526.229626 369.256346 
L 527.388371 368.99314 
L 527.774619 364.901688 
L 528.160868 358.932286 
L 528.547116 369.080196 
L 530.092109 367.594159 
L 530.478357 369.129558 
L 530.864605 369.359994 
L 531.250854 369.251026 
L 531.637102 369.298463 
L 532.795847 369.136528 
L 533.182095 369.335583 
L 533.568343 369.221995 
L 533.954592 361.752014 
L 534.34084 340.511284 
L 535.499585 360.881995 
L 535.885833 365.096827 
L 536.272081 367.685834 
L 536.658329 367.58256 
L 537.044578 369.33802 
L 538.203323 364.055841 
L 538.589571 368.093136 
L 538.975819 369.339178 
L 540.90706 366.387213 
L 541.293309 363.175468 
L 541.679557 369.330164 
L 542.065805 368.277227 
L 542.452054 368.86142 
L 543.610798 365.230579 
L 543.997047 369.131262 
L 544.383295 369.032834 
L 544.769543 369.085003 
L 545.155791 367.185427 
L 546.314536 369.019379 
L 546.700784 364.023659 
L 547.087033 368.523896 
L 547.473281 366.20979 
L 547.859529 369.300275 
L 549.404522 369.073512 
L 549.790771 364.742199 
L 550.177019 369.082406 
L 550.563267 358.874515 
L 551.722012 369.069696 
L 552.10826 366.509913 
L 552.494509 367.542121 
L 552.880757 369.325373 
L 553.267005 369.318419 
L 554.42575 369.15483 
L 554.811998 363.845526 
L 555.198246 369.149467 
L 555.584495 368.521324 
L 555.970743 368.989486 
L 557.515736 368.555087 
L 557.901984 369.195451 
L 558.674481 367.590119 
L 559.833226 368.028114 
L 560.219474 369.185986 
L 560.605722 364.009758 
L 560.99197 369.145479 
L 561.378219 368.460928 
L 562.536964 367.424725 
L 563.30946 369.357148 
L 563.695708 369.255106 
L 564.081957 364.598188 
L 565.240701 369.110094 
L 565.62695 369.333117 
L 566.013198 368.514677 
L 566.399446 369.221535 
L 566.785695 367.48694 
L 567.944439 369.09437 
L 568.330688 369.34168 
L 568.716936 368.400416 
L 569.103184 364.922419 
L 569.489432 366.624879 
L 570.648177 367.821784 
L 571.034425 369.190276 
L 571.420674 368.998791 
L 571.806922 368.364223 
L 572.19317 369.092382 
L 573.351915 368.306593 
L 573.738163 368.276187 
L 574.124412 367.757405 
L 574.896908 369.324304 
L 576.055653 368.6232 
L 576.441901 369.278266 
L 576.82815 369.220074 
L 577.214398 368.905813 
L 577.600646 368.09582 
L 578.759391 369.075775 
L 579.145639 369.188668 
L 579.531887 368.869673 
L 579.918136 369.256305 
L 580.304384 369.320874 
L 581.463129 367.708864 
L 581.849377 369.359405 
L 582.235625 368.415765 
L 582.621874 369.283118 
L 584.166867 369.359277 
L 584.553115 364.800264 
L 584.939363 369.313282 
L 585.325611 369.359051 
L 585.71186 369.203019 
L 587.256853 369.341144 
L 587.643101 361.153114 
L 588.029349 368.987017 
L 588.415598 368.618919 
L 589.574342 369.089702 
L 589.960591 369.066212 
L 590.346839 369.355958 
L 591.119335 369.26236 
L 592.27808 368.9762 
L 592.664329 369.148669 
L 593.050577 366.809271 
L 593.436825 366.691191 
L 593.823073 369.31124 
L 594.981818 369.19861 
L 595.368066 368.3606 
L 595.754315 369.258356 
L 596.140563 360.51017 
L 596.526811 368.865989 
L 597.685556 363.879558 
L 598.071804 366.111783 
L 598.458053 369.081801 
L 598.844301 368.157518 
L 599.230549 366.932481 
L 600.389294 367.612908 
L 600.775542 365.233322 
L 601.16179 368.639806 
L 601.548039 366.034791 
L 601.934287 364.23071 
L 603.093032 367.564647 
L 603.47928 369.079876 
L 603.865528 341.765732 
L 604.251777 361.198739 
L 604.638025 364.876276 
L 605.79677 368.567551 
L 606.183018 368.15945 
L 606.569266 367.23957 
L 606.955515 369.35828 
L 607.341763 369.275188 
L 608.500508 361.859643 
L 608.886756 369.296109 
L 609.273004 366.926193 
L 609.659252 368.892407 
L 610.045501 367.51952 
L 611.204246 357.018979 
L 611.590494 368.108275 
L 611.976742 367.640619 
L 612.36299 365.652629 
L 612.749239 368.261369 
L 613.907983 367.84485 
L 614.294232 346.867565 
L 614.68048 368.424296 
L 615.066728 365.007505 
L 615.452976 365.540556 
L 616.611721 367.978909 
L 616.99797 366.530647 
L 617.384218 369.325541 
L 618.156714 368.531458 
L 619.315459 358.430368 
L 619.701707 367.657948 
L 620.087956 369.312223 
L 620.474204 368.586315 
L 620.860452 365.296547 
L 622.019197 362.800617 
L 622.405445 360.721449 
L 622.791694 364.431223 
L 623.177942 360.647252 
L 623.56419 368.230466 
L 624.722935 369.022454 
L 625.109183 369.045206 
L 625.495431 348.059204 
L 625.88168 365.035405 
L 626.267928 369.194096 
L 627.426673 369.199743 
L 627.812921 368.26872 
L 628.199169 364.343409 
L 628.585418 368.290605 
L 628.971666 366.795855 
L 630.516659 368.758621 
L 630.902907 368.283057 
L 631.289156 369.35859 
L 631.675404 366.409259 
L 633.220397 368.648404 
L 633.606645 363.675446 
L 634.379142 369.358592 
L 635.537886 369.28116 
L 635.924135 368.153973 
L 636.310383 369.282025 
L 636.696631 366.56218 
L 637.08288 368.276114 
L 638.627873 369.358362 
L 639.014121 364.646371 
L 639.400369 368.019166 
L 639.786617 367.794386 
L 640.945362 363.453597 
L 641.331611 368.765309 
L 641.717859 369.218819 
L 642.104107 367.466423 
L 642.490355 369.006088 
L 643.6491 367.371863 
L 644.035348 367.894889 
L 644.421597 363.517209 
L 644.807845 368.552441 
L 645.194093 368.112598 
L 646.352838 362.983371 
L 647.125335 368.535958 
L 647.511583 369.257523 
L 647.897831 368.947007 
L 649.056576 365.886453 
L 649.442824 357.351328 
L 649.829072 368.388366 
L 650.215321 367.488987 
L 650.601569 364.683889 
L 652.146562 358.211363 
L 652.53281 366.702519 
L 652.919059 369.334592 
L 653.305307 368.247461 
L 654.464052 369.225765 
L 654.8503 361.044737 
L 655.236548 367.516416 
L 655.622796 364.572359 
L 656.009045 366.123783 
L 657.16779 356.766595 
L 657.554038 268.611581 
L 657.940286 348.736775 
L 658.326534 367.689426 
L 658.712783 366.001546 
L 659.871527 362.101595 
L 660.257776 369.246912 
L 660.644024 368.782963 
L 661.030272 363.359333 
L 661.416521 368.461083 
L 662.575265 368.342656 
L 662.961514 366.534132 
L 663.347762 366.710295 
L 663.73401 369.33187 
L 664.120258 366.603338 
L 665.279003 368.214779 
L 665.665251 369.279583 
L 666.0515 353.110207 
L 666.437748 368.035502 
L 667.982741 368.358698 
L 668.368989 368.199891 
L 668.755238 368.448799 
L 669.141486 359.357616 
L 669.527734 368.415945 
L 670.686479 358.504049 
L 671.072727 368.381515 
L 671.458976 369.000409 
L 671.845224 368.253998 
L 672.231472 359.636253 
L 673.390217 368.598416 
L 673.776465 361.640462 
L 674.162713 369.344383 
L 674.548962 367.996179 
L 674.93521 369.334596 
L 676.093955 369.355953 
L 676.480203 368.612599 
L 676.866451 369.138081 
L 677.2527 369.343501 
L 677.638948 368.661542 
L 678.797693 355.507662 
L 679.183941 364.311104 
L 679.570189 369.048329 
L 679.956437 362.440176 
L 680.342686 368.089991 
L 681.501431 368.245272 
L 681.887679 369.270389 
L 682.273927 369.179994 
L 683.046424 367.040221 
L 684.205168 368.81513 
L 684.591417 367.082789 
L 684.977665 359.995757 
L 685.363913 368.945947 
L 685.750162 368.78824 
L 686.908906 369.216637 
L 687.295155 367.416526 
L 687.681403 369.355844 
L 688.453899 365.791802 
L 689.998892 369.35539 
L 690.385141 366.283325 
L 690.771389 369.340328 
L 691.157637 369.117342 
L 692.316382 368.852949 
L 692.70263 368.149906 
L 693.088879 369.338587 
L 693.475127 369.319037 
L 693.861375 367.350657 
L 695.02012 369.206407 
L 695.406368 369.35838 
L 695.792617 369.007119 
L 696.178865 365.194039 
L 696.565113 364.190005 
L 697.723858 367.289593 
L 698.110106 369.05159 
L 698.882603 360.154206 
L 699.268851 369.138322 
L 700.427596 368.49732 
L 700.813844 365.529245 
L 701.200092 353.603969 
L 701.586341 365.029565 
L 701.972589 369.200947 
L 703.131334 368.361788 
L 703.517582 369.326309 
L 703.90383 366.902873 
L 704.676327 368.560296 
L 705.835072 369.189344 
L 706.22132 347.535401 
L 706.993816 369.05797 
L 707.380065 369.358264 
L 708.538809 367.78408 
L 708.925058 367.986596 
L 709.311306 367.424187 
L 709.697554 368.88981 
L 710.083802 368.469587 
L 711.242547 368.69904 
L 711.628796 368.033163 
L 712.015044 369.247404 
L 712.401292 369.355472 
L 712.78754 368.362412 
L 714.332533 369.143653 
L 714.718782 368.956237 
L 715.10503 369.285515 
L 715.491278 357.111893 
L 716.650023 365.051289 
L 717.036271 363.129183 
L 717.42252 369.268648 
L 717.808768 366.276411 
L 718.195016 369.347391 
L 719.353761 355.989455 
L 719.740009 368.700559 
L 720.512506 351.526545 
L 720.898754 369.338101 
L 722.057499 364.758814 
L 722.443747 368.586638 
L 722.829995 362.676352 
L 723.216244 368.360695 
L 723.602492 365.026917 
L 724.761237 368.573862 
L 725.147485 369.359474 
L 725.533733 369.041079 
L 725.919982 365.065436 
L 726.30623 368.743864 
L 727.851223 356.495205 
L 728.237471 369.215241 
L 728.623719 367.643113 
L 729.009968 356.065693 
L 730.168713 368.376778 
L 730.554961 369.341399 
L 730.941209 327.172989 
L 731.327457 369.149431 
L 731.713706 368.982464 
L 732.87245 368.145909 
L 733.258699 369.288429 
L 733.644947 365.872417 
L 734.031195 366.836458 
L 734.417443 365.675844 
L 735.576188 366.913073 
L 735.962437 368.367705 
L 736.348685 364.362797 
L 736.734933 346.09236 
L 737.121181 369.139719 
L 738.279926 368.846761 
L 738.666174 369.315727 
L 739.438671 369.343118 
L 739.824919 353.022011 
L 740.983664 367.979077 
L 741.369912 364.960622 
L 741.756161 368.658827 
L 742.142409 369.091995 
L 742.528657 369.14127 
L 743.687402 367.861446 
L 744.07365 365.297688 
L 744.459898 367.618571 
L 744.846147 365.777555 
L 745.232395 369.296228 
L 746.39114 368.867803 
L 746.777388 367.388264 
L 747.163636 367.567031 
L 747.163636 367.567031 
" clip-path="url(#pc10df9ee6d)" style="fill: none; stroke: #000000; stroke-width: 1.5; stroke-linecap: square"/>
   </g>
   <g id="line2d_19">
    <path d="M 138.436364 316.276844 
L 138.822612 319.54047 
L 139.20886 318.111727 
L 140.753853 307.599591 
L 141.52635 284.513698 
L 141.912598 305.158727 
L 142.298846 298.548313 
L 143.457591 283.265144 
L 143.843839 275.229634 
L 144.230088 271.053416 
L 144.616336 269.039853 
L 145.002584 296.460586 
L 146.161329 295.176391 
L 146.547577 300.576708 
L 146.933826 316.385231 
L 147.706322 328.930696 
L 148.865067 330.275397 
L 149.251315 329.472537 
L 149.637563 324.703882 
L 150.023812 331.197831 
L 150.41006 330.35052 
L 151.568805 332.238161 
L 151.955053 331.568438 
L 152.341301 325.369244 
L 152.72755 313.225575 
L 153.113798 287.19423 
L 154.272543 295.921142 
L 154.658791 285.481547 
L 155.045039 258.317092 
L 155.431287 273.052497 
L 155.817536 292.961964 
L 156.976281 303.591744 
L 158.135025 329.844361 
L 158.521274 330.248516 
L 159.680018 328.930269 
L 160.066267 324.283541 
L 160.452515 327.750682 
L 160.838763 328.507751 
L 161.225012 328.891204 
L 162.383756 327.213529 
L 162.770005 325.210754 
L 163.156253 300.393269 
L 163.542501 298.689229 
L 163.928749 265.763569 
L 165.473743 278.454912 
L 165.859991 286.001926 
L 166.246239 284.020257 
L 166.632487 286.654643 
L 167.791232 293.317571 
L 168.17748 284.4503 
L 168.563729 305.929093 
L 168.949977 316.955737 
L 169.336225 310.933409 
L 170.49497 308.928743 
L 170.881218 301.631492 
L 171.267467 316.327824 
L 171.653715 243.734233 
L 172.039963 246.856395 
L 173.198708 266.198232 
L 173.584956 292.788242 
L 174.743701 281.370698 
L 175.902446 278.494539 
L 176.288694 251.713261 
L 176.674942 276.084634 
L 177.061191 277.844989 
L 177.447439 302.071453 
L 178.606184 309.129802 
L 178.992432 312.944339 
L 179.37868 323.334294 
L 180.151177 332.987678 
L 181.309922 333.399415 
L 181.69617 334.894955 
L 182.082418 334.005131 
L 182.468666 329.192806 
L 182.854915 329.222425 
L 184.013659 326.119552 
L 184.399908 321.092104 
L 184.786156 323.818946 
L 185.172404 306.381724 
L 185.558653 296.585654 
L 186.717397 308.603939 
L 187.103646 294.028993 
L 187.489894 305.657502 
L 187.876142 289.094934 
L 188.26239 221.334917 
L 189.421135 198.383335 
L 189.807383 202.723067 
L 190.57988 280.055378 
L 190.966128 303.671469 
L 192.124873 293.925348 
L 192.511121 275.113457 
L 192.89737 294.870282 
L 193.283618 304.660798 
L 193.669866 317.781979 
L 194.828611 318.538551 
L 195.214859 303.313959 
L 195.601108 299.943761 
L 196.373604 299.61556 
L 197.532349 297.659492 
L 197.918597 305.253531 
L 198.304845 319.7441 
L 198.691094 324.859167 
L 200.236087 297.415078 
L 200.622335 311.140308 
L 201.008583 305.423421 
L 201.78108 317.709597 
L 202.939825 314.593712 
L 203.326073 305.829263 
L 203.712321 301.033819 
L 204.098569 303.473775 
L 204.484818 308.978875 
L 205.643563 315.687809 
L 206.029811 310.981258 
L 206.416059 304.215458 
L 206.802307 300.069026 
L 208.3473 314.598832 
L 208.733549 324.323152 
L 209.119797 319.478338 
L 209.506045 316.815201 
L 211.051038 318.821401 
L 211.437287 307.832697 
L 212.596031 227.773981 
L 213.754776 272.128966 
L 214.141024 257.979439 
L 214.527273 258.447308 
L 214.913521 276.38222 
L 215.299769 288.662678 
L 216.844762 298.100365 
L 217.231011 293.900834 
L 217.617259 292.552588 
L 218.003507 296.53204 
L 219.162252 302.755767 
L 219.5485 302.86553 
L 219.934749 312.193722 
L 220.320997 300.15497 
L 220.707245 304.730234 
L 221.86599 301.759997 
L 222.252238 299.580582 
L 222.638486 302.797077 
L 223.410983 271.426442 
L 224.569728 284.301146 
L 224.955976 280.774127 
L 225.728473 294.009026 
L 226.114721 292.09629 
L 227.659714 287.166392 
L 228.045962 295.618257 
L 228.43221 289.419365 
L 228.818459 234.427082 
L 229.977204 180.262782 
L 230.363452 246.576696 
L 230.7497 269.924614 
L 231.135948 257.583254 
L 231.522197 241.663525 
L 233.06719 258.984739 
L 233.453438 287.640971 
L 233.839686 271.228826 
L 234.225934 267.737191 
L 235.384679 284.196252 
L 235.770928 284.430543 
L 236.157176 274.784619 
L 236.543424 262.040554 
L 236.929672 239.743964 
L 238.088417 251.742082 
L 238.474665 277.437469 
L 238.860914 279.703999 
L 239.247162 302.927979 
L 239.63341 301.93906 
L 240.792155 312.724931 
L 241.178403 321.596217 
L 241.564652 310.830043 
L 241.9509 323.754433 
L 242.337148 323.701781 
L 243.495893 325.751282 
L 243.882141 318.249221 
L 244.654638 326.913795 
L 246.199631 318.277386 
L 246.585879 325.013684 
L 246.972127 321.429754 
L 247.358376 300.418816 
L 247.744624 302.587435 
L 248.903369 310.815625 
L 249.289617 320.149002 
L 249.675865 325.12541 
L 250.062114 316.706664 
L 250.448362 316.168252 
L 251.607107 320.215632 
L 251.993355 308.353053 
L 252.379603 284.565572 
L 252.765851 283.801311 
L 253.1521 288.407052 
L 254.310844 276.889029 
L 254.697093 249.451446 
L 255.083341 281.898316 
L 255.469589 303.955268 
L 255.855838 310.039352 
L 257.014582 320.188561 
L 257.400831 321.731334 
L 257.787079 318.714535 
L 258.173327 311.489817 
L 258.559575 272.551733 
L 259.71832 246.202123 
L 260.490817 285.353809 
L 260.877065 270.97281 
L 261.263313 277.942001 
L 262.422058 265.858817 
L 262.808306 257.991549 
L 263.194555 282.071937 
L 263.580803 291.745691 
L 263.967051 308.559847 
L 265.125796 315.718793 
L 265.512044 325.450142 
L 265.898293 326.459924 
L 266.284541 321.413201 
L 266.670789 310.247602 
L 268.215782 317.669954 
L 268.60203 312.180304 
L 268.988279 318.523196 
L 269.374527 318.654439 
L 270.533272 308.327659 
L 270.91952 309.099221 
L 271.305768 300.150441 
L 271.692017 308.58476 
L 272.078265 295.79076 
L 273.23701 303.291246 
L 273.623258 308.775492 
L 274.009506 311.689523 
L 274.395754 319.888581 
L 274.782003 323.140022 
L 275.940748 313.014687 
L 276.326996 310.719087 
L 276.713244 322.521386 
L 277.099492 322.030722 
L 277.485741 322.769092 
L 278.644485 327.356652 
L 279.030734 325.913135 
L 279.416982 327.420347 
L 279.80323 330.022977 
L 280.189479 325.3402 
L 281.734472 328.633666 
L 282.12072 328.067798 
L 282.506968 328.81256 
L 282.893216 327.846601 
L 284.051961 314.048394 
L 284.43821 286.548567 
L 284.824458 295.010064 
L 285.210706 300.259792 
L 285.596954 300.168832 
L 286.755699 294.117829 
L 287.141947 299.603641 
L 287.528196 278.213717 
L 288.300692 296.557574 
L 289.459437 304.803503 
L 289.845685 304.014995 
L 290.618182 290.474731 
L 291.00443 276.081488 
L 292.163175 287.438311 
L 292.935671 319.408216 
L 293.32192 327.31176 
L 293.708168 309.309494 
L 294.866913 299.08588 
L 295.253161 299.777332 
L 295.639409 291.259383 
L 296.025658 299.938383 
L 296.411906 315.001854 
L 297.570651 320.744725 
L 298.343147 290.33478 
L 298.729395 305.465336 
L 299.115644 305.756107 
L 300.274389 299.753501 
L 300.660637 288.062317 
L 301.046885 305.27283 
L 301.433133 301.945613 
L 301.819382 304.674673 
L 302.978126 299.43638 
L 303.364375 316.145726 
L 303.750623 325.996809 
L 304.136871 326.450959 
L 304.52312 323.204811 
L 306.068113 326.358563 
L 306.454361 326.719875 
L 306.840609 331.28066 
L 307.226857 328.374477 
L 308.385602 329.237985 
L 308.77185 313.706959 
L 309.158099 320.219558 
L 309.544347 318.279261 
L 309.930595 319.426243 
L 311.08934 316.552216 
L 311.475588 296.315729 
L 311.861837 310.348173 
L 312.248085 299.880659 
L 312.634333 295.789931 
L 314.179326 304.862626 
L 314.565575 298.640303 
L 314.951823 305.873995 
L 315.338071 318.674209 
L 316.496816 327.036218 
L 316.883064 325.830942 
L 317.269312 316.388926 
L 317.655561 326.588278 
L 318.041809 332.180303 
L 319.200554 322.828925 
L 319.586802 328.162911 
L 319.97305 327.31332 
L 320.745547 306.070414 
L 321.904292 310.299133 
L 322.29054 298.012462 
L 322.676788 312.516545 
L 323.063036 320.440129 
L 323.449285 325.727649 
L 324.60803 326.809257 
L 324.994278 316.978786 
L 325.380526 318.350272 
L 325.766774 316.690584 
L 326.153023 294.362589 
L 327.311767 297.861851 
L 327.698016 297.476903 
L 328.084264 299.246331 
L 328.470512 308.549399 
L 328.85676 293.307773 
L 330.015505 311.696765 
L 330.401754 308.979414 
L 330.788002 311.458209 
L 331.17425 302.062687 
L 331.560498 301.575411 
L 332.719243 304.99304 
L 333.105491 304.839557 
L 333.49174 315.736927 
L 334.264236 328.601764 
L 335.422981 322.73497 
L 335.809229 326.271661 
L 336.195478 317.788914 
L 336.967974 326.685799 
L 338.126719 319.251208 
L 338.899216 297.923101 
L 339.285464 292.449934 
L 339.671712 305.203147 
L 340.830457 289.988069 
L 341.216705 300.496177 
L 341.602953 283.004954 
L 341.989202 289.107301 
L 342.37545 284.299181 
L 343.534195 288.378712 
L 343.920443 265.270642 
L 344.69294 285.442869 
L 345.079188 272.910549 
L 346.237933 297.964645 
L 346.624181 274.794656 
L 347.010429 277.379823 
L 347.396677 298.908668 
L 348.941671 306.010199 
L 349.327919 303.53903 
L 349.714167 319.105734 
L 350.100415 327.146166 
L 350.486664 329.120986 
L 351.645408 334.006044 
L 352.031657 332.469501 
L 352.417905 328.560834 
L 352.804153 321.877419 
L 353.190401 323.123656 
L 354.349146 323.03008 
L 354.735395 310.063112 
L 355.121643 285.118592 
L 355.507891 303.342179 
L 355.894139 297.304587 
L 357.439132 308.319125 
L 357.825381 298.381642 
L 358.211629 292.770498 
L 358.597877 302.518477 
L 359.756622 300.914771 
L 360.14287 313.778412 
L 360.529119 307.506709 
L 360.915367 321.364952 
L 361.301615 328.022955 
L 362.46036 331.99948 
L 362.846608 311.757682 
L 363.232856 312.398249 
L 363.619105 312.628354 
L 364.005353 303.236504 
L 365.164098 314.506288 
L 365.550346 311.692875 
L 365.936594 303.212439 
L 366.322843 286.413138 
L 366.709091 306.374126 
L 367.867836 302.402945 
L 368.254084 309.061739 
L 368.640332 284.64492 
L 369.026581 290.129426 
L 369.412829 167.363859 
L 370.957822 193.702261 
L 371.34407 247.547574 
L 371.730318 225.977612 
L 372.116567 260.477817 
L 373.275311 247.11165 
L 373.66156 262.319205 
L 374.047808 243.2168 
L 374.434056 257.156768 
L 374.820305 263.014758 
L 375.979049 261.64475 
L 376.365298 253.479808 
L 376.751546 235.251618 
L 377.137794 239.570998 
L 377.524042 273.957223 
L 378.682787 281.96218 
L 379.069036 264.274324 
L 379.455284 265.262514 
L 379.841532 246.854533 
L 381.386525 281.39643 
L 381.772773 304.375906 
L 382.159022 295.424308 
L 382.54527 304.302947 
L 382.931518 297.338637 
L 384.090263 302.050185 
L 384.476511 307.06373 
L 384.86276 295.736372 
L 385.249008 313.387957 
L 385.635256 318.108864 
L 386.794001 316.273245 
L 387.180249 322.739824 
L 387.566497 311.203526 
L 387.952746 305.429045 
L 388.338994 318.843667 
L 389.497739 324.85256 
L 389.883987 318.955907 
L 390.270235 325.964109 
L 390.656484 314.124939 
L 392.201477 319.623214 
L 392.587725 324.404263 
L 392.973973 310.914074 
L 393.360222 321.337437 
L 393.74647 304.955097 
L 394.905215 294.927941 
L 395.291463 302.480865 
L 395.677711 278.215919 
L 396.063959 279.546991 
L 396.450208 289.362854 
L 397.608952 297.224907 
L 397.995201 307.807454 
L 398.381449 301.527791 
L 399.153946 209.941709 
L 400.31269 233.303115 
L 400.698939 176.236336 
L 401.085187 247.759257 
L 401.471435 239.221557 
L 401.857683 279.177489 
L 403.016428 241.502312 
L 403.402677 270.248072 
L 403.788925 245.962213 
L 404.175173 273.592084 
L 404.561421 290.402503 
L 405.720166 300.616798 
L 406.106414 298.663554 
L 406.492663 314.187581 
L 406.878911 310.422245 
L 407.265159 279.359121 
L 408.810152 257.769106 
L 409.196401 248.107128 
L 409.582649 205.222243 
L 409.968897 199.732411 
L 411.127642 255.680828 
L 411.51389 256.490447 
L 411.900138 290.071424 
L 412.286387 294.204397 
L 412.672635 276.082905 
L 413.83138 285.703987 
L 414.217628 258.153141 
L 414.603876 289.42412 
L 414.990125 280.5173 
L 415.376373 253.328458 
L 416.921366 235.638555 
L 417.307614 254.334764 
L 417.693862 287.010689 
L 418.080111 296.527711 
L 419.238856 277.300405 
L 419.625104 296.297234 
L 420.011352 302.880119 
L 420.3976 280.507728 
L 420.783849 293.52389 
L 422.328842 298.272447 
L 422.71509 297.785126 
L 423.101338 305.837095 
L 423.487587 301.533644 
L 424.646331 305.724038 
L 425.03258 299.889611 
L 425.418828 299.735645 
L 425.805076 315.196404 
L 426.191324 324.389764 
L 427.350069 320.452578 
L 427.736317 320.050293 
L 428.508814 296.792768 
L 428.895062 292.42921 
L 430.053807 294.499219 
L 430.440055 290.182829 
L 430.826304 300.19661 
L 431.212552 284.474991 
L 431.5988 298.872213 
L 432.757545 289.536379 
L 433.91629 302.840032 
L 434.302538 303.411635 
L 435.461283 308.246699 
L 435.847531 302.010912 
L 436.233779 316.644225 
L 436.620028 295.286208 
L 437.006276 293.630046 
L 438.165021 268.54055 
L 438.551269 289.027365 
L 439.710014 314.09857 
L 440.868759 302.974757 
L 441.255007 303.323886 
L 441.641255 303.052625 
L 442.027503 301.996062 
L 442.413752 297.537366 
L 443.572497 296.323722 
L 443.958745 303.719045 
L 444.344993 286.216695 
L 444.731241 291.641366 
L 445.11749 275.50368 
L 446.662483 292.125142 
L 447.048731 288.99324 
L 447.821228 259.195616 
L 448.979972 260.350316 
L 449.752469 301.371883 
L 450.138717 295.525287 
L 450.524965 263.969868 
L 451.68371 296.281463 
L 452.069958 285.969436 
L 452.456207 280.448592 
L 452.842455 297.677215 
L 453.228703 280.652651 
L 454.387448 296.407607 
L 454.773696 298.90438 
L 455.159945 300.467354 
L 455.546193 294.103629 
L 455.932441 280.080756 
L 457.091186 301.070209 
L 457.863683 282.010115 
L 458.249931 281.439099 
L 458.636179 292.401159 
L 459.794924 284.856088 
L 460.56742 292.556371 
L 460.953669 251.772208 
L 461.339917 271.244942 
L 462.498662 228.307813 
L 462.88491 224.293354 
L 463.271158 255.195552 
L 463.657407 267.970421 
L 464.043655 293.38729 
L 465.2024 269.342228 
L 465.588648 298.100745 
L 465.974896 284.31616 
L 466.361144 308.273276 
L 466.747393 320.297897 
L 467.906138 326.028664 
L 468.292386 332.552952 
L 468.678634 335.1951 
L 469.064882 323.643193 
L 469.451131 315.658388 
L 470.609875 306.038689 
L 470.996124 314.285271 
L 471.382372 287.144654 
L 471.76862 288.538532 
L 472.154868 252.026604 
L 473.313613 270.49666 
L 473.699862 267.508908 
L 474.08611 232.034456 
L 474.472358 241.579632 
L 474.858606 243.503109 
L 476.017351 283.327728 
L 476.403599 284.939924 
L 476.789848 308.491082 
L 477.562344 319.523655 
L 479.107337 305.079803 
L 479.493586 308.949894 
L 479.879834 304.063637 
L 480.266082 311.717478 
L 481.424827 302.4481 
L 481.811075 268.545142 
L 482.197323 269.696077 
L 482.583572 295.62747 
L 482.96982 307.174197 
L 484.128565 313.242413 
L 484.514813 309.195738 
L 484.901061 314.978025 
L 485.28731 294.489273 
L 485.673558 288.635813 
L 486.832303 301.469406 
L 487.218551 290.020148 
L 487.604799 309.772417 
L 487.991048 318.213273 
L 488.377296 309.402922 
L 489.922289 319.106847 
L 490.308537 297.629842 
L 490.694785 314.364452 
L 491.081034 315.509263 
L 492.626027 324.292223 
L 493.012275 324.306787 
L 493.398523 312.269247 
L 493.784772 308.087322 
L 494.943516 309.666641 
L 495.329765 314.556938 
L 495.716013 323.474429 
L 496.102261 306.311183 
L 496.488509 300.107197 
L 498.033503 312.843318 
L 498.805999 326.82315 
L 499.192247 324.23903 
L 500.350992 312.97758 
L 500.73724 295.102111 
L 501.123489 299.79292 
L 501.895985 290.138907 
L 503.05473 303.371608 
L 503.827227 280.111917 
L 504.599723 296.02993 
L 505.758468 306.382286 
L 506.144716 296.038656 
L 506.530964 306.730227 
L 506.917213 292.491964 
L 507.303461 310.936925 
L 508.462206 319.992903 
L 509.234702 331.198222 
L 509.620951 332.327132 
L 510.007199 319.783098 
L 511.552192 280.694426 
L 511.93844 254.300389 
L 512.324689 265.679751 
L 512.710937 264.296797 
L 513.869682 273.200329 
L 514.25593 267.890208 
L 515.028426 300.94476 
L 515.414675 309.488116 
L 516.573419 300.341163 
L 516.959668 312.464406 
L 517.345916 305.763782 
L 517.732164 307.213216 
L 518.118413 278.443619 
L 519.277157 258.863296 
L 519.663406 282.572547 
L 520.049654 294.022175 
L 520.435902 271.50054 
L 520.82215 298.542299 
L 521.980895 292.658655 
L 522.367144 292.427559 
L 522.753392 276.766601 
L 523.13964 273.090176 
L 523.525888 301.193451 
L 524.684633 309.797798 
L 525.45713 325.057563 
L 525.843378 319.038472 
L 526.229626 322.495946 
L 527.388371 327.022536 
L 527.774619 327.213685 
L 528.160868 316.304261 
L 528.547116 293.213979 
L 530.092109 301.913877 
L 530.478357 294.803087 
L 530.864605 303.516117 
L 531.250854 316.364549 
L 531.637102 322.175481 
L 532.795847 326.825053 
L 533.182095 327.9017 
L 533.568343 332.281644 
L 533.954592 334.184407 
L 535.499585 283.201522 
L 535.885833 259.670921 
L 536.272081 244.583568 
L 536.658329 249.238073 
L 537.044578 252.2959 
L 538.203323 284.220563 
L 538.589571 265.040327 
L 538.975819 272.059462 
L 539.362067 297.491394 
L 539.748316 303.03842 
L 540.90706 304.268575 
L 541.293309 297.002859 
L 541.679557 279.671133 
L 542.065805 302.288078 
L 542.452054 301.130854 
L 543.610798 304.817351 
L 543.997047 292.528471 
L 544.383295 304.195775 
L 545.155791 314.111959 
L 546.314536 307.006437 
L 546.700784 313.231695 
L 547.087033 298.502308 
L 547.473281 300.27977 
L 547.859529 289.627402 
L 549.404522 306.008982 
L 549.790771 312.424183 
L 550.177019 296.561357 
L 550.563267 305.712277 
L 551.722012 276.784753 
L 552.10826 294.006384 
L 552.494509 283.983495 
L 552.880757 284.283091 
L 553.267005 303.842092 
L 554.811998 319.528678 
L 555.198246 303.454781 
L 555.584495 313.530171 
L 555.970743 311.899305 
L 557.515736 317.171781 
L 557.901984 315.128458 
L 558.288233 320.891127 
L 558.674481 318.163666 
L 559.833226 311.055289 
L 560.219474 306.864075 
L 560.605722 313.90523 
L 560.99197 298.89083 
L 561.378219 308.069193 
L 562.536964 307.08176 
L 563.30946 300.520031 
L 563.695708 315.73402 
L 564.081957 320.976655 
L 565.240701 306.873038 
L 566.013198 322.953624 
L 566.399446 319.751201 
L 566.785695 325.185064 
L 567.944439 317.689822 
L 568.330688 320.892037 
L 568.716936 327.70734 
L 569.103184 323.355605 
L 569.489432 309.685773 
L 570.648177 302.66391 
L 571.034425 297.921544 
L 571.420674 306.867776 
L 571.806922 310.867325 
L 572.19317 308.316265 
L 573.351915 314.333179 
L 574.51066 304.645246 
L 574.896908 307.206395 
L 576.055653 318.69409 
L 576.441901 317.453575 
L 576.82815 323.116183 
L 577.214398 326.127509 
L 577.600646 325.848941 
L 578.759391 321.226743 
L 579.531887 326.390129 
L 579.918136 325.787643 
L 580.304384 328.835938 
L 581.463129 331.772695 
L 581.849377 325.823906 
L 582.235625 331.549385 
L 582.621874 327.267169 
L 583.008122 330.439088 
L 584.166867 332.847896 
L 584.553115 336.081321 
L 584.939363 325.063566 
L 585.71186 333.37748 
L 587.256853 333.098946 
L 587.643101 336.024441 
L 588.029349 320.857454 
L 588.415598 322.673891 
L 589.574342 318.909189 
L 590.346839 320.85989 
L 590.733087 328.882027 
L 591.119335 332.320912 
L 592.27808 333.435956 
L 592.664329 332.126401 
L 593.050577 332.355479 
L 593.436825 326.266568 
L 593.823073 317.34074 
L 594.981818 323.876788 
L 595.368066 325.262732 
L 595.754315 320.559556 
L 596.140563 324.316751 
L 596.526811 302.682402 
L 597.685556 307.114317 
L 598.071804 288.345648 
L 598.458053 278.073709 
L 598.844301 293.813441 
L 599.230549 293.997567 
L 600.775542 283.360246 
L 601.16179 270.814704 
L 601.548039 281.505422 
L 601.934287 274.635773 
L 603.093032 259.229252 
L 603.47928 266.005921 
L 603.865528 286.367039 
L 604.251777 227.584977 
L 604.638025 210.945038 
L 605.79677 211.516077 
L 606.183018 242.30886 
L 606.569266 257.504605 
L 606.955515 259.484018 
L 607.341763 292.772747 
L 608.500508 308.04802 
L 608.886756 286.987984 
L 609.273004 305.430503 
L 609.659252 300.788487 
L 610.045501 308.195756 
L 611.204246 303.568389 
L 611.590494 271.938084 
L 611.976742 278.068306 
L 612.36299 277.69151 
L 612.749239 265.275081 
L 613.907983 272.815922 
L 614.294232 277.564048 
L 614.68048 223.468569 
L 615.066728 250.633031 
L 615.452976 240.38102 
L 616.611721 237.448715 
L 616.99797 254.991844 
L 617.384218 253.237918 
L 618.156714 286.77989 
L 619.315459 292.550021 
L 619.701707 262.614394 
L 620.087956 269.12672 
L 620.474204 297.614834 
L 620.860452 300.062637 
L 622.019197 288.162635 
L 622.405445 269.851166 
L 622.791694 244.663181 
L 623.177942 235.878731 
L 623.56419 209.752016 
L 624.722935 236.095653 
L 625.109183 267.731746 
L 625.495431 285.703838 
L 625.88168 235.207729 
L 626.267928 232.859355 
L 627.426673 270.271136 
L 627.812921 292.192404 
L 628.199169 295.433473 
L 628.585418 281.105477 
L 628.971666 288.716802 
L 630.516659 281.956077 
L 630.902907 290.643295 
L 631.289156 292.0442 
L 631.675404 313.290637 
L 633.220397 303.832671 
L 633.606645 305.648931 
L 633.992893 286.788782 
L 634.379142 282.067371 
L 635.924135 315.232016 
L 636.310383 312.13705 
L 636.696631 319.858449 
L 637.08288 309.992433 
L 638.627873 307.929926 
L 639.014121 320.971543 
L 639.400369 306.040008 
L 639.786617 305.565361 
L 640.945362 301.709636 
L 641.331611 280.765255 
L 641.717859 289.080425 
L 642.104107 302.776015 
L 642.490355 295.906901 
L 643.6491 304.907761 
L 644.035348 298.751592 
L 644.421597 296.21559 
L 644.807845 279.566402 
L 645.194093 287.995478 
L 646.352838 289.320539 
L 646.739086 271.034705 
L 647.125335 261.002291 
L 647.511583 272.834012 
L 647.897831 294.591475 
L 649.056576 301.541107 
L 649.442824 290.778651 
L 649.829072 259.72923 
L 650.215321 274.764925 
L 650.601569 273.980027 
L 652.146562 260.356977 
L 652.53281 231.17904 
L 652.919059 238.976232 
L 653.305307 277.79882 
L 654.464052 280.874703 
L 654.8503 298.368054 
L 655.236548 274.971746 
L 655.622796 279.615923 
L 656.009045 264.972695 
L 657.16779 260.237909 
L 657.554038 226.500319 
L 657.940286 96.594607 
L 658.326534 66.96 
L 658.712783 135.179463 
L 659.871527 162.492683 
L 660.257776 157.76855 
L 660.644024 231.108366 
L 661.030272 257.825268 
L 661.416521 242.736966 
L 662.575265 263.205514 
L 662.961514 275.844045 
L 663.347762 276.550193 
L 663.73401 275.966273 
L 664.120258 300.184771 
L 665.279003 291.846286 
L 665.665251 295.513206 
L 666.0515 308.52093 
L 666.437748 272.462421 
L 667.982741 281.165172 
L 668.368989 285.630817 
L 668.755238 287.804207 
L 669.141486 292.603292 
L 669.527734 264.531682 
L 670.686479 274.733351 
L 671.072727 243.437948 
L 671.845224 279.521631 
L 672.231472 286.648462 
L 673.390217 258.392706 
L 673.776465 274.229912 
L 674.162713 250.143309 
L 674.548962 286.342319 
L 674.93521 288.664093 
L 676.093955 307.431162 
L 676.480203 321.180615 
L 676.866451 319.524991 
L 677.2527 322.756572 
L 677.638948 329.223369 
L 678.797693 328.337143 
L 679.183941 305.059301 
L 679.570189 293.500178 
L 679.956437 300.604205 
L 680.342686 277.157258 
L 681.501431 278.53018 
L 681.887679 280.819298 
L 682.273927 299.051911 
L 682.660175 307.96642 
L 683.046424 303.78145 
L 684.205168 297.239447 
L 684.591417 305.498148 
L 684.977665 299.655658 
L 685.363913 272.742885 
L 685.750162 290.328561 
L 686.908906 296.503677 
L 687.295155 307.738124 
L 687.681403 300.448913 
L 688.067651 315.503322 
L 688.453899 308.357592 
L 689.998892 297.84807 
L 690.385141 314.169868 
L 690.771389 303.643998 
L 691.157637 318.643576 
L 692.316382 320.731981 
L 692.70263 320.317061 
L 693.088879 315.586297 
L 693.475127 324.464315 
L 693.861375 328.585786 
L 695.02012 322.042277 
L 695.792617 331.47046 
L 696.178865 331.210668 
L 696.565113 319.304 
L 697.723858 303.875564 
L 698.110106 296.994822 
L 698.882603 304.50497 
L 699.268851 275.162289 
L 700.427596 291.538681 
L 700.813844 294.560184 
L 701.200092 280.359951 
L 701.586341 238.491601 
L 701.972589 233.271499 
L 703.131334 270.420328 
L 703.517582 279.120929 
L 703.90383 301.496393 
L 704.676327 292.967112 
L 705.835072 299.472166 
L 706.22132 309.145923 
L 706.607568 267.627839 
L 706.993816 238.410646 
L 707.380065 272.534421 
L 708.538809 299.173715 
L 708.925058 293.787392 
L 709.311306 292.831051 
L 709.697554 287.659038 
L 710.083802 297.464425 
L 711.242547 299.10845 
L 711.628796 302.254684 
L 712.015044 303.419309 
L 712.78754 324.223086 
L 713.946285 320.333026 
L 714.332533 322.243752 
L 714.718782 325.094693 
L 715.10503 325.597797 
L 715.491278 329.19542 
L 716.650023 307.459525 
L 717.036271 294.570392 
L 717.42252 274.305495 
L 717.808768 293.702225 
L 718.195016 280.999872 
L 719.353761 303.264058 
L 719.740009 267.982957 
L 720.126257 281.018188 
L 720.512506 252.462121 
L 720.898754 204.88289 
L 722.057499 264.000652 
L 722.443747 251.443573 
L 722.829995 270.097437 
L 723.216244 247.155939 
L 723.602492 264.092829 
L 724.761237 251.40471 
L 725.147485 271.384932 
L 725.533733 298.165719 
L 725.919982 307.235518 
L 726.30623 296.291848 
L 727.851223 301.05186 
L 728.237471 270.223508 
L 728.623719 292.540679 
L 729.009968 290.838238 
L 730.168713 255.054459 
L 730.554961 270.509627 
L 730.941209 295.745342 
L 731.327457 224.576865 
L 731.713706 264.273705 
L 732.87245 282.767043 
L 733.258699 284.77117 
L 733.644947 305.030537 
L 734.031195 292.058309 
L 734.417443 286.588106 
L 735.576188 279.07976 
L 735.962437 274.697054 
L 736.348685 280.361802 
L 736.734933 270.554806 
L 737.121181 214.449042 
L 738.666174 274.021409 
L 739.438671 313.006642 
L 739.824919 323.176425 
L 740.983664 295.98789 
L 741.369912 298.079215 
L 741.756161 283.346239 
L 742.142409 292.582766 
L 742.528657 305.975075 
L 743.687402 311.316342 
L 744.07365 305.790029 
L 744.459898 290.906464 
L 744.846147 287.756675 
L 745.232395 275.865827 
L 746.39114 300.849088 
L 746.777388 305.383832 
L 747.163636 300.634786 
L 747.163636 300.634786 
" clip-path="url(#pc10df9ee6d)" style="fill: none; stroke: #1f77b4; stroke-width: 1.5; stroke-linecap: square"/>
   </g>
   <g id="patch_3">
    <path d="M 108 384.48 
L 108 51.84 
" style="fill: none; stroke: #000000; stroke-width: 0.8; stroke-linejoin: miter; stroke-linecap: square"/>
   </g>
   <g id="patch_4">
    <path d="M 777.6 384.48 
L 777.6 51.84 
" style="fill: none; stroke: #000000; stroke-width: 0.8; stroke-linejoin: miter; stroke-linecap: square"/>
   </g>
   <g id="patch_5">
    <path d="M 108 384.48 
L 777.6 384.48 
" style="fill: none; stroke: #000000; stroke-width: 0.8; stroke-linejoin: miter; stroke-linecap: square"/>
   </g>
   <g id="patch_6">
    <path d="M 108 51.84 
L 777.6 51.84 
" style="fill: none; stroke: #000000; stroke-width: 0.8; stroke-linejoin: miter; stroke-linecap: square"/>
   </g>
   <g id="text_20">
    <!-- Volatility Prediction with Mini LSTM -->
    <g transform="translate(338.4225 45.84) scale(0.12 -0.12)">
     <defs>
      <path id="DejaVuSans-20" transform="scale(0.015625)"/>
      <path id="DejaVuSans-50" d="M 1259 4147 
L 1259 2394 
L 2053 2394 
Q 2494 2394 2734 2622 
Q 2975 2850 2975 3272 
Q 2975 3691 2734 3919 
Q 2494 4147 2053 4147 
L 1259 4147 
z
M 628 4666 
L 2053 4666 
Q 2838 4666 3239 4311 
Q 3641 3956 3641 3272 
Q 3641 2581 3239 2228 
Q 2838 1875 2053 1875 
L 1259 1875 
L 1259 0 
L 628 0 
L 628 4666 
z
" transform="scale(0.015625)"/>
      <path id="DejaVuSans-72" d="M 2631 2963 
Q 2534 3019 2420 3045 
Q 2306 3072 2169 3072 
Q 1681 3072 1420 2755 
Q 1159 2438 1159 1844 
L 1159 0 
L 581 0 
L 581 3500 
L 1159 3500 
L 1159 2956 
Q 1341 3275 1631 3429 
Q 1922 3584 2338 3584 
Q 2397 3584 2469 3576 
Q 2541 3569 2628 3553 
L 2631 2963 
z
" transform="scale(0.015625)"/>
      <path id="DejaVuSans-64" d="M 2906 2969 
L 2906 4863 
L 3481 4863 
L 3481 0 
L 2906 0 
L 2906 525 
Q 2725 213 2448 61 
Q 2172 -91 1784 -91 
Q 1150 -91 751 415 
Q 353 922 353 1747 
Q 353 2572 751 3078 
Q 1150 3584 1784 3584 
Q 2172 3584 2448 3432 
Q 2725 3281 2906 2969 
z
M 947 1747 
Q 947 1113 1208 752 
Q 1469 391 1925 391 
Q 2381 391 2643 752 
Q 2906 1113 2906 1747 
Q 2906 2381 2643 2742 
Q 2381 3103 1925 3103 
Q 1469 3103 1208 2742 
Q 947 2381 947 1747 
z
" transform="scale(0.015625)"/>
      <path id="DejaVuSans-63" d="M 3122 3366 
L 3122 2828 
Q 2878 2963 2633 3030 
Q 2388 3097 2138 3097 
Q 1578 3097 1268 2742 
Q 959 2388 959 1747 
Q 959 1106 1268 751 
Q 1578 397 2138 397 
Q 2388 397 2633 464 
Q 2878 531 3122 666 
L 3122 134 
Q 2881 22 2623 -34 
Q 2366 -91 2075 -91 
Q 1284 -91 818 406 
Q 353 903 353 1747 
Q 353 2603 823 3093 
Q 1294 3584 2113 3584 
Q 2378 3584 2631 3529 
Q 2884 3475 3122 3366 
z
" transform="scale(0.015625)"/>
      <path id="DejaVuSans-6e" d="M 3513 2113 
L 3513 0 
L 2938 0 
L 2938 2094 
Q 2938 2591 2744 2837 
Q 2550 3084 2163 3084 
Q 1697 3084 1428 2787 
Q 1159 2491 1159 1978 
L 1159 0 
L 581 0 
L 581 3500 
L 1159 3500 
L 1159 2956 
Q 1366 3272 1645 3428 
Q 1925 3584 2291 3584 
Q 2894 3584 3203 3211 
Q 3513 2838 3513 2113 
z
" transform="scale(0.015625)"/>
      <path id="DejaVuSans-77" d="M 269 3500 
L 844 3500 
L 1563 769 
L 2278 3500 
L 2956 3500 
L 3675 769 
L 4391 3500 
L 4966 3500 
L 4050 0 
L 3372 0 
L 2619 2869 
L 1863 0 
L 1184 0 
L 269 3500 
z
" transform="scale(0.015625)"/>
      <path id="DejaVuSans-68" d="M 3513 2113 
L 3513 0 
L 2938 0 
L 2938 2094 
Q 2938 2591 2744 2837 
Q 2550 3084 2163 3084 
Q 1697 3084 1428 2787 
Q 1159 2491 1159 1978 
L 1159 0 
L 581 0 
L 581 4863 
L 1159 4863 
L 1159 2956 
Q 1366 3272 1645 3428 
Q 1925 3584 2291 3584 
Q 2894 3584 3203 3211 
Q 3513 2838 3513 2113 
z
" transform="scale(0.015625)"/>
      <path id="DejaVuSans-4d" d="M 628 4666 
L 1569 4666 
L 2759 1491 
L 3956 4666 
L 4897 4666 
L 4897 0 
L 4281 0 
L 4281 4097 
L 3078 897 
L 2444 897 
L 1241 4097 
L 1241 0 
L 628 0 
L 628 4666 
z
" transform="scale(0.015625)"/>
      <path id="DejaVuSans-4c" d="M 628 4666 
L 1259 4666 
L 1259 531 
L 3531 531 
L 3531 0 
L 628 0 
L 628 4666 
z
" transform="scale(0.015625)"/>
      <path id="DejaVuSans-53" d="M 3425 4513 
L 3425 3897 
Q 3066 4069 2747 4153 
Q 2428 4238 2131 4238 
Q 1616 4238 1336 4038 
Q 1056 3838 1056 3469 
Q 1056 3159 1242 3001 
Q 1428 2844 1947 2747 
L 2328 2669 
Q 3034 2534 3370 2195 
Q 3706 1856 3706 1288 
Q 3706 609 3251 259 
Q 2797 -91 1919 -91 
Q 1588 -91 1214 -16 
Q 841 59 441 206 
L 441 856 
Q 825 641 1194 531 
Q 1563 422 1919 422 
Q 2459 422 2753 634 
Q 3047 847 3047 1241 
Q 3047 1584 2836 1778 
Q 2625 1972 2144 2069 
L 1759 2144 
Q 1053 2284 737 2584 
Q 422 2884 422 3419 
Q 422 4038 858 4394 
Q 1294 4750 2059 4750 
Q 2388 4750 2728 4690 
Q 3069 4631 3425 4513 
z
" transform="scale(0.015625)"/>
      <path id="DejaVuSans-54" d="M -19 4666 
L 3928 4666 
L 3928 4134 
L 2272 4134 
L 2272 0 
L 1638 0 
L 1638 4134 
L -19 4134 
L -19 4666 
z
" transform="scale(0.015625)"/>
     </defs>
     <use xlink:href="#DejaVuSans-56"/>
     <use xlink:href="#DejaVuSans-6f" x="60.658203"/>
     <use xlink:href="#DejaVuSans-6c" x="121.839844"/>
     <use xlink:href="#DejaVuSans-61" x="149.623047"/>
     <use xlink:href="#DejaVuSans-74" x="210.902344"/>
     <use xlink:href="#DejaVuSans-69" x="250.111328"/>
     <use xlink:href="#DejaVuSans-6c" x="277.894531"/>
     <use xlink:href="#DejaVuSans-69" x="305.677734"/>
     <use xlink:href="#DejaVuSans-74" x="333.460938"/>
     <use xlink:href="#DejaVuSans-79" x="372.669922"/>
     <use xlink:href="#DejaVuSans-20" x="431.849609"/>
     <use xlink:href="#DejaVuSans-50" x="463.636719"/>
     <use xlink:href="#DejaVuSans-72" x="522.189453"/>
     <use xlink:href="#DejaVuSans-65" x="561.052734"/>
     <use xlink:href="#DejaVuSans-64" x="622.576172"/>
     <use xlink:href="#DejaVuSans-69" x="686.052734"/>
     <use xlink:href="#DejaVuSans-63" x="713.835938"/>
     <use xlink:href="#DejaVuSans-74" x="768.816406"/>
     <use xlink:href="#DejaVuSans-69" x="808.025391"/>
     <use xlink:href="#DejaVuSans-6f" x="835.808594"/>
     <use xlink:href="#DejaVuSans-6e" x="896.990234"/>
     <use xlink:href="#DejaVuSans-20" x="960.369141"/>
     <use xlink:href="#DejaVuSans-77" x="992.15625"/>
     <use xlink:href="#DejaVuSans-69" x="1073.943359"/>
     <use xlink:href="#DejaVuSans-74" x="1101.726562"/>
     <use xlink:href="#DejaVuSans-68" x="1140.935547"/>
     <use xlink:href="#DejaVuSans-20" x="1204.314453"/>
     <use xlink:href="#DejaVuSans-4d" x="1236.101562"/>
     <use xlink:href="#DejaVuSans-69" x="1322.380859"/>
     <use xlink:href="#DejaVuSans-6e" x="1350.164062"/>
     <use xlink:href="#DejaVuSans-69" x="1413.542969"/>
     <use xlink:href="#DejaVuSans-20" x="1441.326172"/>
     <use xlink:href="#DejaVuSans-4c" x="1473.113281"/>
     <use xlink:href="#DejaVuSans-53" x="1528.826172"/>
     <use xlink:href="#DejaVuSans-54" x="1592.302734"/>
     <use xlink:href="#DejaVuSans-4d" x="1653.386719"/>
    </g>
   </g>
   <g id="legend_1">
    <g id="patch_7">
     <path d="M 115 89.19625 
L 296.570312 89.19625 
Q 298.570312 89.19625 298.570312 87.19625 
L 298.570312 58.84 
Q 298.570312 56.84 296.570312 56.84 
L 115 56.84 
Q 113 56.84 113 58.84 
L 113 87.19625 
Q 113 89.19625 115 89.19625 
z
" style="fill: #ffffff; opacity: 0.8; stroke: #cccccc; stroke-linejoin: miter"/>
    </g>
    <g id="line2d_20">
     <path d="M 117 64.938437 
L 127 64.938437 
L 137 64.938437 
" style="fill: none; stroke: #000000; stroke-width: 1.5; stroke-linecap: square"/>
    </g>
    <g id="text_21">
     <!-- Absolute Returns -->
     <g transform="translate(145 68.438437) scale(0.1 -0.1)">
      <defs>
       <path id="DejaVuSans-41" d="M 2188 4044 
L 1331 1722 
L 3047 1722 
L 2188 4044 
z
M 1831 4666 
L 2547 4666 
L 4325 0 
L 3669 0 
L 3244 1197 
L 1141 1197 
L 716 0 
L 50 0 
L 1831 4666 
z
" transform="scale(0.015625)"/>
       <path id="DejaVuSans-62" d="M 3116 1747 
Q 3116 2381 2855 2742 
Q 2594 3103 2138 3103 
Q 1681 3103 1420 2742 
Q 1159 2381 1159 1747 
Q 1159 1113 1420 752 
Q 1681 391 2138 391 
Q 2594 391 2855 752 
Q 3116 1113 3116 1747 
z
M 1159 2969 
Q 1341 3281 1617 3432 
Q 1894 3584 2278 3584 
Q 2916 3584 3314 3078 
Q 3713 2572 3713 1747 
Q 3713 922 3314 415 
Q 2916 -91 2278 -91 
Q 1894 -91 1617 61 
Q 1341 213 1159 525 
L 1159 0 
L 581 0 
L 581 4863 
L 1159 4863 
L 1159 2969 
z
" transform="scale(0.015625)"/>
       <path id="DejaVuSans-73" d="M 2834 3397 
L 2834 2853 
Q 2591 2978 2328 3040 
Q 2066 3103 1784 3103 
Q 1356 3103 1142 2972 
Q 928 2841 928 2578 
Q 928 2378 1081 2264 
Q 1234 2150 1697 2047 
L 1894 2003 
Q 2506 1872 2764 1633 
Q 3022 1394 3022 966 
Q 3022 478 2636 193 
Q 2250 -91 1575 -91 
Q 1294 -91 989 -36 
Q 684 19 347 128 
L 347 722 
Q 666 556 975 473 
Q 1284 391 1588 391 
Q 1994 391 2212 530 
Q 2431 669 2431 922 
Q 2431 1156 2273 1281 
Q 2116 1406 1581 1522 
L 1381 1569 
Q 847 1681 609 1914 
Q 372 2147 372 2553 
Q 372 3047 722 3315 
Q 1072 3584 1716 3584 
Q 2034 3584 2315 3537 
Q 2597 3491 2834 3397 
z
" transform="scale(0.015625)"/>
       <path id="DejaVuSans-75" d="M 544 1381 
L 544 3500 
L 1119 3500 
L 1119 1403 
Q 1119 906 1312 657 
Q 1506 409 1894 409 
Q 2359 409 2629 706 
Q 2900 1003 2900 1516 
L 2900 3500 
L 3475 3500 
L 3475 0 
L 2900 0 
L 2900 538 
Q 2691 219 2414 64 
Q 2138 -91 1772 -91 
Q 1169 -91 856 284 
Q 544 659 544 1381 
z
M 1991 3584 
L 1991 3584 
z
" transform="scale(0.015625)"/>
       <path id="DejaVuSans-52" d="M 2841 2188 
Q 3044 2119 3236 1894 
Q 3428 1669 3622 1275 
L 4263 0 
L 3584 0 
L 2988 1197 
Q 2756 1666 2539 1819 
Q 2322 1972 1947 1972 
L 1259 1972 
L 1259 0 
L 628 0 
L 628 4666 
L 2053 4666 
Q 2853 4666 3247 4331 
Q 3641 3997 3641 3322 
Q 3641 2881 3436 2590 
Q 3231 2300 2841 2188 
z
M 1259 4147 
L 1259 2491 
L 2053 2491 
Q 2509 2491 2742 2702 
Q 2975 2913 2975 3322 
Q 2975 3731 2742 3939 
Q 2509 4147 2053 4147 
L 1259 4147 
z
" transform="scale(0.015625)"/>
      </defs>
      <use xlink:href="#DejaVuSans-41"/>
      <use xlink:href="#DejaVuSans-62" x="68.408203"/>
      <use xlink:href="#DejaVuSans-73" x="131.884766"/>
      <use xlink:href="#DejaVuSans-6f" x="183.984375"/>
      <use xlink:href="#DejaVuSans-6c" x="245.166016"/>
      <use xlink:href="#DejaVuSans-75" x="272.949219"/>
      <use xlink:href="#DejaVuSans-74" x="336.328125"/>
      <use xlink:href="#DejaVuSans-65" x="375.537109"/>
      <use xlink:href="#DejaVuSans-20" x="437.060547"/>
      <use xlink:href="#DejaVuSans-52" x="468.847656"/>
      <use xlink:href="#DejaVuSans-65" x="533.830078"/>
      <use xlink:href="#DejaVuSans-74" x="595.353516"/>
      <use xlink:href="#DejaVuSans-75" x="634.5625"/>
      <use xlink:href="#DejaVuSans-72" x="697.941406"/>
      <use xlink:href="#DejaVuSans-6e" x="737.304688"/>
      <use xlink:href="#DejaVuSans-73" x="800.683594"/>
     </g>
    </g>
    <g id="line2d_21">
     <path d="M 117 79.616562 
L 127 79.616562 
L 137 79.616562 
" style="fill: none; stroke: #1f77b4; stroke-width: 1.5; stroke-linecap: square"/>
    </g>
    <g id="text_22">
     <!-- Mini LSTM Volatility Prediction -->
     <g transform="translate(145 83.116562) scale(0.1 -0.1)">
      <use xlink:href="#DejaVuSans-4d"/>
      <use xlink:href="#DejaVuSans-69" x="86.279297"/>
      <use xlink:href="#DejaVuSans-6e" x="114.0625"/>
      <use xlink:href="#DejaVuSans-69" x="177.441406"/>
      <use xlink:href="#DejaVuSans-20" x="205.224609"/>
      <use xlink:href="#DejaVuSans-4c" x="237.011719"/>
      <use xlink:href="#DejaVuSans-53" x="292.724609"/>
      <use xlink:href="#DejaVuSans-54" x="356.201172"/>
      <use xlink:href="#DejaVuSans-4d" x="417.285156"/>
      <use xlink:href="#DejaVuSans-20" x="503.564453"/>
      <use xlink:href="#DejaVuSans-56" x="535.351562"/>
      <use xlink:href="#DejaVuSans-6f" x="596.009766"/>
      <use xlink:href="#DejaVuSans-6c" x="657.191406"/>
      <use xlink:href="#DejaVuSans-61" x="684.974609"/>
      <use xlink:href="#DejaVuSans-74" x="746.253906"/>
      <use xlink:href="#DejaVuSans-69" x="785.462891"/>
      <use xlink:href="#DejaVuSans-6c" x="813.246094"/>
      <use xlink:href="#DejaVuSans-69" x="841.029297"/>
      <use xlink:href="#DejaVuSans-74" x="868.8125"/>
      <use xlink:href="#DejaVuSans-79" x="908.021484"/>
      <use xlink:href="#DejaVuSans-20" x="967.201172"/>
      <use xlink:href="#DejaVuSans-50" x="998.988281"/>
      <use xlink:href="#DejaVuSans-72" x="1057.541016"/>
      <use xlink:href="#DejaVuSans-65" x="1096.404297"/>
      <use xlink:href="#DejaVuSans-64" x="1157.927734"/>
      <use xlink:href="#DejaVuSans-69" x="1221.404297"/>
      <use xlink:href="#DejaVuSans-63" x="1249.1875"/>
      <use xlink:href="#DejaVuSans-74" x="1304.167969"/>
      <use xlink:href="#DejaVuSans-69" x="1343.376953"/>
      <use xlink:href="#DejaVuSans-6f" x="1371.160156"/>
      <use xlink:href="#DejaVuSans-6e" x="1432.341797"/>
     </g>
    </g>
   </g>
  </g>
 </g>
 <defs>
  <clipPath id="pc10df9ee6d">
   <rect x="108" y="51.84" width="669.6" height="332.64"/>
  </clipPath>
 </defs>
</svg>
