<?xml version="1.0" encoding="utf-8" standalone="no"?>
<!DOCTYPE svg PUBLIC "-//W3C//DTD SVG 1.1//EN"
  "http://www.w3.org/Graphics/SVG/1.1/DTD/svg11.dtd">
<svg xmlns:xlink="http://www.w3.org/1999/xlink" width="864pt" height="432pt" viewBox="0 0 864 432" xmlns="http://www.w3.org/2000/svg" version="1.1">
 <metadata>
  <rdf:RDF xmlns:dc="http://purl.org/dc/elements/1.1/" xmlns:cc="http://creativecommons.org/ns#" xmlns:rdf="http://www.w3.org/1999/02/22-rdf-syntax-ns#">
   <cc:Work>
    <dc:type rdf:resource="http://purl.org/dc/dcmitype/StillImage"/>
    <dc:date>2024-11-10T13:10:40.279177</dc:date>
    <dc:format>image/svg+xml</dc:format>
    <dc:creator>
     <cc:Agent>
      <dc:title>Matplotlib v3.6.3, https://matplotlib.org/</dc:title>
     </cc:Agent>
    </dc:creator>
   </cc:Work>
  </rdf:RDF>
 </metadata>
 <defs>
  <style type="text/css">*{stroke-linejoin: round; stroke-linecap: butt}</style>
 </defs>
 <g id="figure_1">
  <g id="patch_1">
   <path d="M 0 432 
L 864 432 
L 864 0 
L 0 0 
z
" style="fill: #ffffff"/>
  </g>
  <g id="axes_1">
   <g id="patch_2">
    <path d="M 108 384.48 
L 777.6 384.48 
L 777.6 51.84 
L 108 51.84 
z
" style="fill: #ffffff"/>
   </g>
   <g id="matplotlib.axis_1">
    <g id="xtick_1">
     <g id="line2d_1">
      <defs>
       <path id="mca5173f26d" d="M 0 0 
L 0 3.5 
" style="stroke: #000000; stroke-width: 0.8"/>
      </defs>
      <g>
       <use xlink:href="#mca5173f26d" x="138.822857" y="384.48" style="stroke: #000000; stroke-width: 0.8"/>
      </g>
     </g>
     <g id="text_1">
      <!-- 2020-07 -->
      <g transform="translate(117.931451 399.078438) scale(0.1 -0.1)">
       <defs>
        <path id="DejaVuSans-32" d="M 1228 531 
L 3431 531 
L 3431 0 
L 469 0 
L 469 531 
Q 828 903 1448 1529 
Q 2069 2156 2228 2338 
Q 2531 2678 2651 2914 
Q 2772 3150 2772 3378 
Q 2772 3750 2511 3984 
Q 2250 4219 1831 4219 
Q 1534 4219 1204 4116 
Q 875 4013 500 3803 
L 500 4441 
Q 881 4594 1212 4672 
Q 1544 4750 1819 4750 
Q 2544 4750 2975 4387 
Q 3406 4025 3406 3419 
Q 3406 3131 3298 2873 
Q 3191 2616 2906 2266 
Q 2828 2175 2409 1742 
Q 1991 1309 1228 531 
z
" transform="scale(0.015625)"/>
        <path id="DejaVuSans-30" d="M 2034 4250 
Q 1547 4250 1301 3770 
Q 1056 3291 1056 2328 
Q 1056 1369 1301 889 
Q 1547 409 2034 409 
Q 2525 409 2770 889 
Q 3016 1369 3016 2328 
Q 3016 3291 2770 3770 
Q 2525 4250 2034 4250 
z
M 2034 4750 
Q 2819 4750 3233 4129 
Q 3647 3509 3647 2328 
Q 3647 1150 3233 529 
Q 2819 -91 2034 -91 
Q 1250 -91 836 529 
Q 422 1150 422 2328 
Q 422 3509 836 4129 
Q 1250 4750 2034 4750 
z
" transform="scale(0.015625)"/>
        <path id="DejaVuSans-2d" d="M 313 2009 
L 1997 2009 
L 1997 1497 
L 313 1497 
L 313 2009 
z
" transform="scale(0.015625)"/>
        <path id="DejaVuSans-37" d="M 525 4666 
L 3525 4666 
L 3525 4397 
L 1831 0 
L 1172 0 
L 2766 4134 
L 525 4134 
L 525 4666 
z
" transform="scale(0.015625)"/>
       </defs>
       <use xlink:href="#DejaVuSans-32"/>
       <use xlink:href="#DejaVuSans-30" x="63.623047"/>
       <use xlink:href="#DejaVuSans-32" x="127.246094"/>
       <use xlink:href="#DejaVuSans-30" x="190.869141"/>
       <use xlink:href="#DejaVuSans-2d" x="254.492188"/>
       <use xlink:href="#DejaVuSans-30" x="290.576172"/>
       <use xlink:href="#DejaVuSans-37" x="354.199219"/>
      </g>
     </g>
    </g>
    <g id="xtick_2">
     <g id="line2d_2">
      <g>
       <use xlink:href="#mca5173f26d" x="209.937662" y="384.48" style="stroke: #000000; stroke-width: 0.8"/>
      </g>
     </g>
     <g id="text_2">
      <!-- 2021-01 -->
      <g transform="translate(189.046256 399.078438) scale(0.1 -0.1)">
       <defs>
        <path id="DejaVuSans-31" d="M 794 531 
L 1825 531 
L 1825 4091 
L 703 3866 
L 703 4441 
L 1819 4666 
L 2450 4666 
L 2450 531 
L 3481 531 
L 3481 0 
L 794 0 
L 794 531 
z
" transform="scale(0.015625)"/>
       </defs>
       <use xlink:href="#DejaVuSans-32"/>
       <use xlink:href="#DejaVuSans-30" x="63.623047"/>
       <use xlink:href="#DejaVuSans-32" x="127.246094"/>
       <use xlink:href="#DejaVuSans-31" x="190.869141"/>
       <use xlink:href="#DejaVuSans-2d" x="254.492188"/>
       <use xlink:href="#DejaVuSans-30" x="290.576172"/>
       <use xlink:href="#DejaVuSans-31" x="354.199219"/>
      </g>
     </g>
    </g>
    <g id="xtick_3">
     <g id="line2d_3">
      <g>
       <use xlink:href="#mca5173f26d" x="279.892987" y="384.48" style="stroke: #000000; stroke-width: 0.8"/>
      </g>
     </g>
     <g id="text_3">
      <!-- 2021-07 -->
      <g transform="translate(259.001581 399.078438) scale(0.1 -0.1)">
       <use xlink:href="#DejaVuSans-32"/>
       <use xlink:href="#DejaVuSans-30" x="63.623047"/>
       <use xlink:href="#DejaVuSans-32" x="127.246094"/>
       <use xlink:href="#DejaVuSans-31" x="190.869141"/>
       <use xlink:href="#DejaVuSans-2d" x="254.492188"/>
       <use xlink:href="#DejaVuSans-30" x="290.576172"/>
       <use xlink:href="#DejaVuSans-37" x="354.199219"/>
      </g>
     </g>
    </g>
    <g id="xtick_4">
     <g id="line2d_4">
      <g>
       <use xlink:href="#mca5173f26d" x="351.007792" y="384.48" style="stroke: #000000; stroke-width: 0.8"/>
      </g>
     </g>
     <g id="text_4">
      <!-- 2022-01 -->
      <g transform="translate(330.116386 399.078438) scale(0.1 -0.1)">
       <use xlink:href="#DejaVuSans-32"/>
       <use xlink:href="#DejaVuSans-30" x="63.623047"/>
       <use xlink:href="#DejaVuSans-32" x="127.246094"/>
       <use xlink:href="#DejaVuSans-32" x="190.869141"/>
       <use xlink:href="#DejaVuSans-2d" x="254.492188"/>
       <use xlink:href="#DejaVuSans-30" x="290.576172"/>
       <use xlink:href="#DejaVuSans-31" x="354.199219"/>
      </g>
     </g>
    </g>
    <g id="xtick_5">
     <g id="line2d_5">
      <g>
       <use xlink:href="#mca5173f26d" x="420.963117" y="384.48" style="stroke: #000000; stroke-width: 0.8"/>
      </g>
     </g>
     <g id="text_5">
      <!-- 2022-07 -->
      <g transform="translate(400.071711 399.078438) scale(0.1 -0.1)">
       <use xlink:href="#DejaVuSans-32"/>
       <use xlink:href="#DejaVuSans-30" x="63.623047"/>
       <use xlink:href="#DejaVuSans-32" x="127.246094"/>
       <use xlink:href="#DejaVuSans-32" x="190.869141"/>
       <use xlink:href="#DejaVuSans-2d" x="254.492188"/>
       <use xlink:href="#DejaVuSans-30" x="290.576172"/>
       <use xlink:href="#DejaVuSans-37" x="354.199219"/>
      </g>
     </g>
    </g>
    <g id="xtick_6">
     <g id="line2d_6">
      <g>
       <use xlink:href="#mca5173f26d" x="492.077922" y="384.48" style="stroke: #000000; stroke-width: 0.8"/>
      </g>
     </g>
     <g id="text_6">
      <!-- 2023-01 -->
      <g transform="translate(471.186516 399.078438) scale(0.1 -0.1)">
       <defs>
        <path id="DejaVuSans-33" d="M 2597 2516 
Q 3050 2419 3304 2112 
Q 3559 1806 3559 1356 
Q 3559 666 3084 287 
Q 2609 -91 1734 -91 
Q 1441 -91 1130 -33 
Q 819 25 488 141 
L 488 750 
Q 750 597 1062 519 
Q 1375 441 1716 441 
Q 2309 441 2620 675 
Q 2931 909 2931 1356 
Q 2931 1769 2642 2001 
Q 2353 2234 1838 2234 
L 1294 2234 
L 1294 2753 
L 1863 2753 
Q 2328 2753 2575 2939 
Q 2822 3125 2822 3475 
Q 2822 3834 2567 4026 
Q 2313 4219 1838 4219 
Q 1578 4219 1281 4162 
Q 984 4106 628 3988 
L 628 4550 
Q 988 4650 1302 4700 
Q 1616 4750 1894 4750 
Q 2613 4750 3031 4423 
Q 3450 4097 3450 3541 
Q 3450 3153 3228 2886 
Q 3006 2619 2597 2516 
z
" transform="scale(0.015625)"/>
       </defs>
       <use xlink:href="#DejaVuSans-32"/>
       <use xlink:href="#DejaVuSans-30" x="63.623047"/>
       <use xlink:href="#DejaVuSans-32" x="127.246094"/>
       <use xlink:href="#DejaVuSans-33" x="190.869141"/>
       <use xlink:href="#DejaVuSans-2d" x="254.492188"/>
       <use xlink:href="#DejaVuSans-30" x="290.576172"/>
       <use xlink:href="#DejaVuSans-31" x="354.199219"/>
      </g>
     </g>
    </g>
    <g id="xtick_7">
     <g id="line2d_7">
      <g>
       <use xlink:href="#mca5173f26d" x="562.033247" y="384.48" style="stroke: #000000; stroke-width: 0.8"/>
      </g>
     </g>
     <g id="text_7">
      <!-- 2023-07 -->
      <g transform="translate(541.141841 399.078438) scale(0.1 -0.1)">
       <use xlink:href="#DejaVuSans-32"/>
       <use xlink:href="#DejaVuSans-30" x="63.623047"/>
       <use xlink:href="#DejaVuSans-32" x="127.246094"/>
       <use xlink:href="#DejaVuSans-33" x="190.869141"/>
       <use xlink:href="#DejaVuSans-2d" x="254.492188"/>
       <use xlink:href="#DejaVuSans-30" x="290.576172"/>
       <use xlink:href="#DejaVuSans-37" x="354.199219"/>
      </g>
     </g>
    </g>
    <g id="xtick_8">
     <g id="line2d_8">
      <g>
       <use xlink:href="#mca5173f26d" x="633.148052" y="384.48" style="stroke: #000000; stroke-width: 0.8"/>
      </g>
     </g>
     <g id="text_8">
      <!-- 2024-01 -->
      <g transform="translate(612.256646 399.078438) scale(0.1 -0.1)">
       <defs>
        <path id="DejaVuSans-34" d="M 2419 4116 
L 825 1625 
L 2419 1625 
L 2419 4116 
z
M 2253 4666 
L 3047 4666 
L 3047 1625 
L 3713 1625 
L 3713 1100 
L 3047 1100 
L 3047 0 
L 2419 0 
L 2419 1100 
L 313 1100 
L 313 1709 
L 2253 4666 
z
" transform="scale(0.015625)"/>
       </defs>
       <use xlink:href="#DejaVuSans-32"/>
       <use xlink:href="#DejaVuSans-30" x="63.623047"/>
       <use xlink:href="#DejaVuSans-32" x="127.246094"/>
       <use xlink:href="#DejaVuSans-34" x="190.869141"/>
       <use xlink:href="#DejaVuSans-2d" x="254.492188"/>
       <use xlink:href="#DejaVuSans-30" x="290.576172"/>
       <use xlink:href="#DejaVuSans-31" x="354.199219"/>
      </g>
     </g>
    </g>
    <g id="xtick_9">
     <g id="line2d_9">
      <g>
       <use xlink:href="#mca5173f26d" x="703.48987" y="384.48" style="stroke: #000000; stroke-width: 0.8"/>
      </g>
     </g>
     <g id="text_9">
      <!-- 2024-07 -->
      <g transform="translate(682.598464 399.078438) scale(0.1 -0.1)">
       <use xlink:href="#DejaVuSans-32"/>
       <use xlink:href="#DejaVuSans-30" x="63.623047"/>
       <use xlink:href="#DejaVuSans-32" x="127.246094"/>
       <use xlink:href="#DejaVuSans-34" x="190.869141"/>
       <use xlink:href="#DejaVuSans-2d" x="254.492188"/>
       <use xlink:href="#DejaVuSans-30" x="290.576172"/>
       <use xlink:href="#DejaVuSans-37" x="354.199219"/>
      </g>
     </g>
    </g>
    <g id="xtick_10">
     <g id="line2d_10">
      <g>
       <use xlink:href="#mca5173f26d" x="774.604675" y="384.48" style="stroke: #000000; stroke-width: 0.8"/>
      </g>
     </g>
     <g id="text_10">
      <!-- 2025-01 -->
      <g transform="translate(753.713269 399.078438) scale(0.1 -0.1)">
       <defs>
        <path id="DejaVuSans-35" d="M 691 4666 
L 3169 4666 
L 3169 4134 
L 1269 4134 
L 1269 2991 
Q 1406 3038 1543 3061 
Q 1681 3084 1819 3084 
Q 2600 3084 3056 2656 
Q 3513 2228 3513 1497 
Q 3513 744 3044 326 
Q 2575 -91 1722 -91 
Q 1428 -91 1123 -41 
Q 819 9 494 109 
L 494 744 
Q 775 591 1075 516 
Q 1375 441 1709 441 
Q 2250 441 2565 725 
Q 2881 1009 2881 1497 
Q 2881 1984 2565 2268 
Q 2250 2553 1709 2553 
Q 1456 2553 1204 2497 
Q 953 2441 691 2322 
L 691 4666 
z
" transform="scale(0.015625)"/>
       </defs>
       <use xlink:href="#DejaVuSans-32"/>
       <use xlink:href="#DejaVuSans-30" x="63.623047"/>
       <use xlink:href="#DejaVuSans-32" x="127.246094"/>
       <use xlink:href="#DejaVuSans-35" x="190.869141"/>
       <use xlink:href="#DejaVuSans-2d" x="254.492188"/>
       <use xlink:href="#DejaVuSans-30" x="290.576172"/>
       <use xlink:href="#DejaVuSans-31" x="354.199219"/>
      </g>
     </g>
    </g>
    <g id="text_11">
     <!-- Date -->
     <g transform="translate(430.849219 412.756563) scale(0.1 -0.1)">
      <defs>
       <path id="DejaVuSans-44" d="M 1259 4147 
L 1259 519 
L 2022 519 
Q 2988 519 3436 956 
Q 3884 1394 3884 2338 
Q 3884 3275 3436 3711 
Q 2988 4147 2022 4147 
L 1259 4147 
z
M 628 4666 
L 1925 4666 
Q 3281 4666 3915 4102 
Q 4550 3538 4550 2338 
Q 4550 1131 3912 565 
Q 3275 0 1925 0 
L 628 0 
L 628 4666 
z
" transform="scale(0.015625)"/>
       <path id="DejaVuSans-61" d="M 2194 1759 
Q 1497 1759 1228 1600 
Q 959 1441 959 1056 
Q 959 750 1161 570 
Q 1363 391 1709 391 
Q 2188 391 2477 730 
Q 2766 1069 2766 1631 
L 2766 1759 
L 2194 1759 
z
M 3341 1997 
L 3341 0 
L 2766 0 
L 2766 531 
Q 2569 213 2275 61 
Q 1981 -91 1556 -91 
Q 1019 -91 701 211 
Q 384 513 384 1019 
Q 384 1609 779 1909 
Q 1175 2209 1959 2209 
L 2766 2209 
L 2766 2266 
Q 2766 2663 2505 2880 
Q 2244 3097 1772 3097 
Q 1472 3097 1187 3025 
Q 903 2953 641 2809 
L 641 3341 
Q 956 3463 1253 3523 
Q 1550 3584 1831 3584 
Q 2591 3584 2966 3190 
Q 3341 2797 3341 1997 
z
" transform="scale(0.015625)"/>
       <path id="DejaVuSans-74" d="M 1172 4494 
L 1172 3500 
L 2356 3500 
L 2356 3053 
L 1172 3053 
L 1172 1153 
Q 1172 725 1289 603 
Q 1406 481 1766 481 
L 2356 481 
L 2356 0 
L 1766 0 
Q 1100 0 847 248 
Q 594 497 594 1153 
L 594 3053 
L 172 3053 
L 172 3500 
L 594 3500 
L 594 4494 
L 1172 4494 
z
" transform="scale(0.015625)"/>
       <path id="DejaVuSans-65" d="M 3597 1894 
L 3597 1613 
L 953 1613 
Q 991 1019 1311 708 
Q 1631 397 2203 397 
Q 2534 397 2845 478 
Q 3156 559 3463 722 
L 3463 178 
Q 3153 47 2828 -22 
Q 2503 -91 2169 -91 
Q 1331 -91 842 396 
Q 353 884 353 1716 
Q 353 2575 817 3079 
Q 1281 3584 2069 3584 
Q 2775 3584 3186 3129 
Q 3597 2675 3597 1894 
z
M 3022 2063 
Q 3016 2534 2758 2815 
Q 2500 3097 2075 3097 
Q 1594 3097 1305 2825 
Q 1016 2553 972 2059 
L 3022 2063 
z
" transform="scale(0.015625)"/>
      </defs>
      <use xlink:href="#DejaVuSans-44"/>
      <use xlink:href="#DejaVuSans-61" x="77.001953"/>
      <use xlink:href="#DejaVuSans-74" x="138.28125"/>
      <use xlink:href="#DejaVuSans-65" x="177.490234"/>
     </g>
    </g>
   </g>
   <g id="matplotlib.axis_2">
    <g id="ytick_1">
     <g id="line2d_11">
      <defs>
       <path id="m9915084b0f" d="M 0 0 
L -3.5 0 
" style="stroke: #000000; stroke-width: 0.8"/>
      </defs>
      <g>
       <use xlink:href="#m9915084b0f" x="108" y="369.392416" style="stroke: #000000; stroke-width: 0.8"/>
      </g>
     </g>
     <g id="text_12">
      <!-- 0.00 -->
      <g transform="translate(78.734375 373.191635) scale(0.1 -0.1)">
       <defs>
        <path id="DejaVuSans-2e" d="M 684 794 
L 1344 794 
L 1344 0 
L 684 0 
L 684 794 
z
" transform="scale(0.015625)"/>
       </defs>
       <use xlink:href="#DejaVuSans-30"/>
       <use xlink:href="#DejaVuSans-2e" x="63.623047"/>
       <use xlink:href="#DejaVuSans-30" x="95.410156"/>
       <use xlink:href="#DejaVuSans-30" x="159.033203"/>
      </g>
     </g>
    </g>
    <g id="ytick_2">
     <g id="line2d_12">
      <g>
       <use xlink:href="#m9915084b0f" x="108" y="313.337108" style="stroke: #000000; stroke-width: 0.8"/>
      </g>
     </g>
     <g id="text_13">
      <!-- 0.01 -->
      <g transform="translate(78.734375 317.136327) scale(0.1 -0.1)">
       <use xlink:href="#DejaVuSans-30"/>
       <use xlink:href="#DejaVuSans-2e" x="63.623047"/>
       <use xlink:href="#DejaVuSans-30" x="95.410156"/>
       <use xlink:href="#DejaVuSans-31" x="159.033203"/>
      </g>
     </g>
    </g>
    <g id="ytick_3">
     <g id="line2d_13">
      <g>
       <use xlink:href="#m9915084b0f" x="108" y="257.2818" style="stroke: #000000; stroke-width: 0.8"/>
      </g>
     </g>
     <g id="text_14">
      <!-- 0.02 -->
      <g transform="translate(78.734375 261.081019) scale(0.1 -0.1)">
       <use xlink:href="#DejaVuSans-30"/>
       <use xlink:href="#DejaVuSans-2e" x="63.623047"/>
       <use xlink:href="#DejaVuSans-30" x="95.410156"/>
       <use xlink:href="#DejaVuSans-32" x="159.033203"/>
      </g>
     </g>
    </g>
    <g id="ytick_4">
     <g id="line2d_14">
      <g>
       <use xlink:href="#m9915084b0f" x="108" y="201.226493" style="stroke: #000000; stroke-width: 0.8"/>
      </g>
     </g>
     <g id="text_15">
      <!-- 0.03 -->
      <g transform="translate(78.734375 205.025711) scale(0.1 -0.1)">
       <use xlink:href="#DejaVuSans-30"/>
       <use xlink:href="#DejaVuSans-2e" x="63.623047"/>
       <use xlink:href="#DejaVuSans-30" x="95.410156"/>
       <use xlink:href="#DejaVuSans-33" x="159.033203"/>
      </g>
     </g>
    </g>
    <g id="ytick_5">
     <g id="line2d_15">
      <g>
       <use xlink:href="#m9915084b0f" x="108" y="145.171185" style="stroke: #000000; stroke-width: 0.8"/>
      </g>
     </g>
     <g id="text_16">
      <!-- 0.04 -->
      <g transform="translate(78.734375 148.970403) scale(0.1 -0.1)">
       <use xlink:href="#DejaVuSans-30"/>
       <use xlink:href="#DejaVuSans-2e" x="63.623047"/>
       <use xlink:href="#DejaVuSans-30" x="95.410156"/>
       <use xlink:href="#DejaVuSans-34" x="159.033203"/>
      </g>
     </g>
    </g>
    <g id="ytick_6">
     <g id="line2d_16">
      <g>
       <use xlink:href="#m9915084b0f" x="108" y="89.115877" style="stroke: #000000; stroke-width: 0.8"/>
      </g>
     </g>
     <g id="text_17">
      <!-- 0.05 -->
      <g transform="translate(78.734375 92.915095) scale(0.1 -0.1)">
       <use xlink:href="#DejaVuSans-30"/>
       <use xlink:href="#DejaVuSans-2e" x="63.623047"/>
       <use xlink:href="#DejaVuSans-30" x="95.410156"/>
       <use xlink:href="#DejaVuSans-35" x="159.033203"/>
      </g>
     </g>
    </g>
    <g id="text_18">
     <!-- Volatility -->
     <g transform="translate(72.654687 239.752187) rotate(-90) scale(0.1 -0.1)">
      <defs>
       <path id="DejaVuSans-56" d="M 1831 0 
L 50 4666 
L 709 4666 
L 2188 738 
L 3669 4666 
L 4325 4666 
L 2547 0 
L 1831 0 
z
" transform="scale(0.015625)"/>
       <path id="DejaVuSans-6f" d="M 1959 3097 
Q 1497 3097 1228 2736 
Q 959 2375 959 1747 
Q 959 1119 1226 758 
Q 1494 397 1959 397 
Q 2419 397 2687 759 
Q 2956 1122 2956 1747 
Q 2956 2369 2687 2733 
Q 2419 3097 1959 3097 
z
M 1959 3584 
Q 2709 3584 3137 3096 
Q 3566 2609 3566 1747 
Q 3566 888 3137 398 
Q 2709 -91 1959 -91 
Q 1206 -91 779 398 
Q 353 888 353 1747 
Q 353 2609 779 3096 
Q 1206 3584 1959 3584 
z
" transform="scale(0.015625)"/>
       <path id="DejaVuSans-6c" d="M 603 4863 
L 1178 4863 
L 1178 0 
L 603 0 
L 603 4863 
z
" transform="scale(0.015625)"/>
       <path id="DejaVuSans-69" d="M 603 3500 
L 1178 3500 
L 1178 0 
L 603 0 
L 603 3500 
z
M 603 4863 
L 1178 4863 
L 1178 4134 
L 603 4134 
L 603 4863 
z
" transform="scale(0.015625)"/>
       <path id="DejaVuSans-79" d="M 2059 -325 
Q 1816 -950 1584 -1140 
Q 1353 -1331 966 -1331 
L 506 -1331 
L 506 -850 
L 844 -850 
Q 1081 -850 1212 -737 
Q 1344 -625 1503 -206 
L 1606 56 
L 191 3500 
L 800 3500 
L 1894 763 
L 2988 3500 
L 3597 3500 
L 2059 -325 
z
" transform="scale(0.015625)"/>
      </defs>
      <use xlink:href="#DejaVuSans-56"/>
      <use xlink:href="#DejaVuSans-6f" x="60.658203"/>
      <use xlink:href="#DejaVuSans-6c" x="121.839844"/>
      <use xlink:href="#DejaVuSans-61" x="149.623047"/>
      <use xlink:href="#DejaVuSans-74" x="210.902344"/>
      <use xlink:href="#DejaVuSans-69" x="250.111328"/>
      <use xlink:href="#DejaVuSans-6c" x="277.894531"/>
      <use xlink:href="#DejaVuSans-69" x="305.677734"/>
      <use xlink:href="#DejaVuSans-74" x="333.460938"/>
      <use xlink:href="#DejaVuSans-79" x="372.669922"/>
     </g>
    </g>
   </g>
   <g id="line2d_17">
    <path d="M 138.436364 283.67068 
L 138.822857 341.311152 
L 139.209351 343.993921 
L 140.755325 281.066455 
L 141.141818 308.418378 
L 141.528312 325.68617 
L 141.914805 337.667403 
L 142.301299 311.028696 
L 143.460779 316.663178 
L 143.847273 294.741878 
L 144.233766 318.712493 
L 144.62026 350.266819 
L 145.006753 353.447133 
L 146.166234 322.464048 
L 146.552727 359.988413 
L 146.939221 337.26919 
L 147.325714 299.904134 
L 147.712208 334.584089 
L 148.871688 328.091265 
L 149.258182 332.987658 
L 149.644675 300.154114 
L 150.031169 348.330747 
L 150.417662 326.559232 
L 151.577143 329.282811 
L 151.963636 349.182105 
L 152.35013 333.46567 
L 152.736623 333.477075 
L 153.123117 365.845073 
L 154.282597 354.041864 
L 155.055584 291.478327 
L 155.442078 357.905155 
L 155.828571 368.42884 
L 156.988052 354.222856 
L 157.374545 356.495545 
L 157.761039 344.648913 
L 158.147532 351.714508 
L 158.534026 350.136298 
L 159.693506 313.372898 
L 160.08 349.269123 
L 160.466494 312.529905 
L 160.852987 360.021952 
L 161.239481 331.779289 
L 162.398961 357.074962 
L 162.785455 327.368698 
L 163.171948 283.913395 
L 163.558442 168.952122 
L 163.944935 323.616078 
L 165.490909 211.603288 
L 165.877403 257.591446 
L 166.263896 269.943315 
L 166.65039 366.405059 
L 167.80987 298.418914 
L 168.196364 340.211223 
L 168.582857 343.440788 
L 169.355844 306.354989 
L 170.515325 304.152087 
L 170.901818 310.741657 
L 171.288312 234.81854 
L 171.674805 352.671087 
L 172.061299 280.542291 
L 173.220779 279.803747 
L 173.607273 342.349751 
L 173.993766 323.315836 
L 174.38026 339.801102 
L 174.766753 315.445837 
L 175.926234 269.540485 
L 176.312727 290.511026 
L 176.699221 272.71291 
L 177.085714 324.670298 
L 177.472208 320.31546 
L 178.631688 278.120192 
L 179.018182 333.926831 
L 179.404675 332.142699 
L 179.791169 360.821989 
L 180.177662 368.636171 
L 181.337143 277.099238 
L 181.723636 342.955639 
L 182.11013 357.070822 
L 182.496623 340.213645 
L 182.883117 350.110296 
L 184.042597 264.207585 
L 184.429091 352.406507 
L 184.815584 168.010683 
L 185.202078 302.81819 
L 185.588571 300.984126 
L 186.748052 300.764179 
L 187.521039 247.14966 
L 187.907532 261.355453 
L 188.294026 367.779244 
L 189.453506 304.188958 
L 189.84 361.540281 
L 190.226494 326.66295 
L 190.612987 313.176505 
L 190.999481 293.613775 
L 192.158961 304.476265 
L 192.545455 342.466538 
L 192.931948 304.193291 
L 193.318442 347.314014 
L 193.704935 331.186556 
L 194.864416 337.888646 
L 195.250909 279.522012 
L 195.637403 360.503883 
L 196.41039 355.972146 
L 197.56987 343.572576 
L 197.956364 306.564791 
L 198.342857 359.361047 
L 198.729351 365.892651 
L 199.115844 320.078033 
L 200.275325 358.53171 
L 200.661818 353.790763 
L 201.048312 324.65492 
L 201.434805 362.184026 
L 201.821299 362.297002 
L 202.980779 344.902995 
L 203.367273 297.425951 
L 203.753766 359.463764 
L 204.14026 337.210201 
L 204.526753 349.676052 
L 205.686234 347.452755 
L 206.459221 365.213307 
L 206.845714 349.602853 
L 208.391688 320.710095 
L 208.778182 356.892793 
L 209.164675 361.877372 
L 209.551169 333.414866 
L 211.097143 286.06748 
L 211.483636 329.830654 
L 211.87013 337.476725 
L 212.256623 286.776714 
L 212.643117 338.691825 
L 213.802597 332.528645 
L 214.189091 367.062236 
L 214.962078 348.312669 
L 215.348571 328.942959 
L 216.894545 323.968253 
L 217.281039 291.815115 
L 217.667532 367.617253 
L 218.054026 352.490882 
L 219.213506 349.160329 
L 219.6 361.04048 
L 219.986494 223.573973 
L 220.372987 314.944166 
L 220.759481 260.082438 
L 221.918961 280.128287 
L 222.305455 292.021844 
L 222.691948 363.740673 
L 223.078442 308.881519 
L 223.464935 347.587335 
L 224.624416 328.067855 
L 225.010909 363.147051 
L 225.397403 367.457134 
L 225.783896 360.08121 
L 226.17039 343.046578 
L 227.716364 366.20042 
L 228.102857 367.596119 
L 228.489351 344.58451 
L 228.875844 358.985095 
L 230.035325 325.877225 
L 230.421818 362.354531 
L 230.808312 306.119068 
L 231.194805 230.468399 
L 231.581299 342.701479 
L 232.740779 237.594156 
L 233.127273 323.910838 
L 233.513766 295.666692 
L 233.90026 293.672694 
L 234.286753 261.158934 
L 235.446234 339.270358 
L 235.832727 290.604498 
L 236.219221 335.690704 
L 236.605714 311.421037 
L 236.992208 363.703457 
L 238.151688 333.119441 
L 238.538182 360.586707 
L 238.924675 353.275223 
L 239.311169 286.035114 
L 239.697662 366.01287 
L 240.857143 330.150565 
L 241.243636 326.453343 
L 241.63013 338.661048 
L 242.016623 340.094681 
L 242.403117 276.932472 
L 243.562597 364.524704 
L 243.949091 351.662992 
L 244.335584 349.122998 
L 244.722078 303.494781 
L 246.268052 289.037194 
L 246.654545 363.932561 
L 247.041039 361.128923 
L 247.814026 326.284246 
L 248.973506 368.293142 
L 249.36 350.955435 
L 249.746494 346.431696 
L 250.132987 307.546116 
L 250.519481 349.199472 
L 251.678961 339.567191 
L 252.065455 331.131422 
L 252.451948 317.468241 
L 252.838442 317.522602 
L 253.224935 308.46366 
L 254.384416 359.410728 
L 254.770909 368.187685 
L 255.157403 364.650764 
L 255.543896 331.610958 
L 255.93039 328.916475 
L 257.08987 354.008949 
L 257.476364 331.831226 
L 257.862857 365.450633 
L 258.249351 323.806525 
L 258.635844 328.212528 
L 259.795325 310.587734 
L 260.181818 320.558403 
L 260.568312 247.848855 
L 260.954805 301.567432 
L 261.341299 286.386954 
L 262.500779 355.192104 
L 262.887273 321.444064 
L 263.273766 352.868706 
L 263.66026 310.537598 
L 264.046753 364.996699 
L 265.206234 314.107939 
L 265.592727 357.466424 
L 265.979221 358.881792 
L 266.365714 362.863944 
L 266.752208 365.084055 
L 268.298182 366.631845 
L 268.684675 361.287412 
L 269.071169 349.014639 
L 269.457662 320.090124 
L 270.617143 364.924516 
L 271.003636 368.411323 
L 271.39013 359.159285 
L 271.776623 343.37456 
L 272.163117 358.481119 
L 273.322597 359.226419 
L 273.709091 358.104392 
L 274.095584 339.096247 
L 274.482078 366.949509 
L 274.868571 295.335713 
L 276.028052 291.446652 
L 276.414545 340.740273 
L 276.801039 363.316744 
L 277.187532 336.91155 
L 277.574026 350.753621 
L 278.733506 356.430768 
L 279.12 367.838069 
L 279.506494 361.95231 
L 279.892987 340.198633 
L 280.279481 327.507355 
L 281.825455 358.047373 
L 282.211948 350.595056 
L 282.598442 321.196676 
L 282.984935 306.527339 
L 284.144416 350.08003 
L 284.530909 349.644097 
L 284.917403 362.866196 
L 285.303896 351.075957 
L 285.69039 326.973076 
L 286.84987 279.721864 
L 287.236364 285.035772 
L 288.009351 358.099216 
L 288.395844 312.8084 
L 289.555325 356.054758 
L 289.941818 342.91428 
L 290.328312 368.348126 
L 290.714805 345.8641 
L 291.101299 339.006486 
L 292.260779 359.052995 
L 292.647273 323.595505 
L 293.033766 343.365151 
L 293.42026 335.829432 
L 293.806753 360.009545 
L 294.966234 364.121282 
L 295.352727 363.830685 
L 295.739221 362.245698 
L 296.125714 346.197835 
L 296.512208 360.38987 
L 297.671688 354.720326 
L 298.444675 308.815339 
L 298.831169 362.352393 
L 299.217662 323.939409 
L 300.377143 321.814486 
L 300.763636 361.014279 
L 301.15013 356.961346 
L 301.923117 320.237137 
L 303.082597 345.303661 
L 303.469091 361.824877 
L 303.855584 367.645593 
L 304.242078 353.480464 
L 304.628571 367.514099 
L 306.174545 350.326019 
L 306.561039 361.996224 
L 307.334026 325.935255 
L 308.493506 356.646001 
L 309.266494 322.091286 
L 309.652987 360.690694 
L 310.039481 318.087022 
L 311.198961 273.408545 
L 311.585455 364.836787 
L 311.971948 316.282331 
L 312.358442 301.780224 
L 312.744935 361.208662 
L 313.904416 353.807695 
L 314.290909 254.06242 
L 314.677403 360.603172 
L 315.063896 302.231313 
L 315.45039 305.343889 
L 316.60987 296.122893 
L 316.996364 310.705284 
L 317.382857 346.441122 
L 317.769351 323.06804 
L 318.155844 358.654605 
L 319.315325 330.773442 
L 319.701818 355.828732 
L 320.088312 352.475175 
L 320.474805 274.551482 
L 320.861299 327.729258 
L 322.020779 350.506821 
L 322.407273 328.101304 
L 322.793766 348.891193 
L 323.18026 352.624 
L 323.566753 363.376936 
L 324.726234 342.839217 
L 325.112727 359.20084 
L 325.499221 341.00401 
L 325.885714 314.563159 
L 326.272208 358.475949 
L 327.431688 359.311147 
L 327.818182 348.799875 
L 328.204675 333.290052 
L 328.591169 345.999211 
L 328.977662 348.507081 
L 330.137143 364.418114 
L 330.523636 349.745525 
L 330.91013 323.091664 
L 331.296623 366.305026 
L 331.683117 329.05108 
L 332.842597 369.332205 
L 333.229091 347.767514 
L 333.615584 354.789899 
L 334.002078 350.450985 
L 334.388571 361.546759 
L 335.548052 351.441963 
L 335.934545 360.11094 
L 336.321039 356.54885 
L 337.094026 240.53795 
L 338.253506 295.882407 
L 338.64 262.083627 
L 339.026494 302.767599 
L 339.412987 290.384435 
L 339.799481 321.832569 
L 340.958961 304.017413 
L 341.345455 254.503655 
L 341.731948 352.124333 
L 342.118442 328.993381 
L 342.504935 316.118775 
L 343.664416 317.943973 
L 344.050909 327.358059 
L 344.437403 278.491575 
L 344.823896 320.165382 
L 345.21039 311.425803 
L 346.36987 305.19006 
L 346.756364 270.613076 
L 347.142857 312.615494 
L 347.529351 334.613486 
L 349.075325 292.349714 
L 349.461818 363.727152 
L 349.848312 361.539507 
L 350.234805 352.608121 
L 350.621299 354.651925 
L 351.780779 333.775839 
L 352.167273 365.861845 
L 352.553766 259.617897 
L 352.94026 363.987343 
L 353.326753 346.642723 
L 354.486234 361.308781 
L 354.872727 318.279563 
L 355.259221 353.619587 
L 355.645714 288.975323 
L 356.032208 364.79789 
L 357.578182 265.358822 
L 357.964675 314.812532 
L 358.351169 307.178057 
L 358.737662 262.349149 
L 359.897143 353.876766 
L 360.283636 300.74376 
L 360.67013 360.996719 
L 361.056623 339.130214 
L 361.443117 234.545989 
L 362.602597 264.513918 
L 362.989091 331.053093 
L 363.375584 316.821435 
L 363.762078 230.972327 
L 364.148571 340.559298 
L 365.308052 348.603812 
L 365.694545 322.495937 
L 366.081039 288.600708 
L 366.467532 266.913084 
L 366.854026 262.036996 
L 368.013506 347.822404 
L 368.4 281.701078 
L 368.786494 364.454881 
L 369.172987 249.431232 
L 369.559481 329.077588 
L 371.105455 312.24558 
L 371.491948 265.220669 
L 371.878442 286.17211 
L 372.264935 245.364 
L 373.424416 355.683528 
L 373.810909 281.977245 
L 374.197403 265.852489 
L 374.583896 339.859567 
L 374.97039 324.740548 
L 376.12987 201.436177 
L 376.516364 328.696081 
L 376.902857 227.159914 
L 377.289351 345.2827 
L 377.675844 296.261179 
L 378.835325 327.638633 
L 379.221818 250.652576 
L 379.608312 245.303179 
L 379.994805 300.600268 
L 380.381299 304.397321 
L 381.540779 366.955437 
L 381.927273 306.382314 
L 382.313766 300.1717 
L 382.70026 289.55828 
L 383.086753 341.065538 
L 384.246234 329.483629 
L 384.632727 301.105566 
L 385.019221 334.001402 
L 385.405714 280.957732 
L 385.792208 350.308839 
L 386.951688 324.220995 
L 387.338182 298.588089 
L 387.724675 314.6576 
L 388.111169 345.600443 
L 388.497662 354.512243 
L 389.657143 273.978801 
L 390.043636 350.202987 
L 390.43013 307.100438 
L 390.816623 300.901348 
L 392.362597 368.243906 
L 392.749091 280.095958 
L 393.135584 365.92442 
L 393.908571 211.69716 
L 395.068052 337.543149 
L 395.454545 209.354491 
L 395.841039 357.644024 
L 396.227532 232.361595 
L 396.614026 162.216741 
L 397.773506 337.66961 
L 398.16 342.34312 
L 398.546494 204.448486 
L 398.932987 165.907856 
L 399.319481 337.494755 
L 400.478961 186.867889 
L 400.865455 355.631583 
L 401.251948 276.339327 
L 401.638442 362.123212 
L 402.024935 237.162069 
L 403.184416 347.226955 
L 403.570909 257.456006 
L 403.957403 138.25498 
L 404.343896 336.595203 
L 404.73039 368.573229 
L 405.88987 266.334748 
L 406.276364 323.685221 
L 406.662857 316.664632 
L 407.049351 259.029806 
L 407.435844 232.386971 
L 408.981818 334.110491 
L 409.368312 327.289837 
L 409.754805 267.017403 
L 410.141299 276.999763 
L 411.300779 351.833064 
L 411.687273 316.261337 
L 412.073766 308.557644 
L 412.46026 234.375107 
L 412.846753 203.791446 
L 414.006234 147.750146 
L 414.392727 348.198928 
L 414.779221 288.184777 
L 415.165714 184.117207 
L 415.552208 357.068904 
L 417.098182 233.836885 
L 417.484675 362.09173 
L 417.871169 316.212322 
L 418.257662 200.634901 
L 419.417143 352.701924 
L 419.803636 255.327241 
L 420.19013 365.401389 
L 420.576623 320.0757 
L 420.963117 310.542681 
L 422.509091 360.519582 
L 422.895584 349.398612 
L 423.282078 286.12947 
L 423.668571 364.73642 
L 424.828052 304.39948 
L 425.214545 317.334563 
L 425.601039 344.353301 
L 425.987532 352.558298 
L 426.374026 262.779571 
L 427.533506 322.313028 
L 427.92 216.622046 
L 428.306494 336.440282 
L 428.692987 314.384897 
L 429.079481 316.833305 
L 430.238961 362.025058 
L 430.625455 304.310196 
L 431.011948 224.657278 
L 431.398442 301.787956 
L 431.784935 290.310854 
L 432.944416 353.545228 
L 433.330909 331.92111 
L 433.717403 282.40881 
L 434.103896 365.033291 
L 434.49039 360.271831 
L 435.64987 362.451104 
L 436.036364 345.525424 
L 436.422857 251.299836 
L 436.809351 365.436485 
L 437.195844 273.122744 
L 438.355325 347.185119 
L 438.741818 358.88803 
L 439.128312 328.673139 
L 439.514805 356.68473 
L 439.901299 296.610675 
L 441.060779 248.131448 
L 441.447273 356.834024 
L 441.833766 353.069631 
L 442.22026 290.952865 
L 442.606753 177.298863 
L 443.766234 331.898848 
L 444.152727 307.230344 
L 444.539221 325.401695 
L 444.925714 352.622054 
L 445.312208 308.883202 
L 446.858182 346.390273 
L 447.244675 267.512707 
L 447.631169 332.45778 
L 448.017662 284.434874 
L 449.177143 310.373666 
L 449.563636 121.632528 
L 449.95013 350.438451 
L 450.336623 305.588756 
L 450.723117 328.9875 
L 451.882597 331.085934 
L 452.269091 305.847419 
L 452.655584 272.614753 
L 453.042078 321.951224 
L 453.428571 271.952449 
L 454.588052 311.126417 
L 454.974545 357.494055 
L 455.361039 260.190262 
L 455.747532 249.698771 
L 456.134026 284.292811 
L 457.293506 226.145466 
L 457.68 200.523886 
L 458.066494 358.069317 
L 458.452987 311.667107 
L 458.839481 210.177434 
L 459.998961 327.235082 
L 460.385455 332.729346 
L 460.771948 350.915403 
L 461.158442 225.698759 
L 461.544935 235.156162 
L 462.704416 222.888904 
L 463.090909 305.698114 
L 463.477403 331.866394 
L 463.863896 324.645194 
L 464.25039 237.955232 
L 465.40987 303.180204 
L 465.796364 278.942889 
L 466.182857 327.826633 
L 466.569351 335.19196 
L 466.955844 233.020726 
L 468.115325 327.449971 
L 468.501818 346.355545 
L 468.888312 227.461187 
L 469.274805 309.736062 
L 469.661299 293.567476 
L 470.820779 315.758351 
L 471.207273 338.100697 
L 471.593766 251.694351 
L 471.98026 66.96 
L 472.366753 317.831014 
L 473.526234 319.07755 
L 474.299221 322.943318 
L 474.685714 352.048432 
L 475.072208 342.781346 
L 476.231688 347.57982 
L 476.618182 293.781529 
L 477.004675 336.335154 
L 477.777662 367.805568 
L 478.937143 282.143995 
L 479.323636 360.462139 
L 479.71013 198.543476 
L 480.096623 364.526814 
L 480.483117 362.691731 
L 481.642597 268.177503 
L 482.029091 288.090499 
L 482.415584 358.943088 
L 482.802078 327.386601 
L 483.188571 328.042027 
L 484.348052 289.915445 
L 484.734545 328.678256 
L 485.121039 335.360633 
L 485.507532 227.922912 
L 485.894026 306.609116 
L 487.053506 318.671723 
L 487.44 363.580606 
L 487.826494 286.662952 
L 488.212987 287.791977 
L 488.599481 336.594688 
L 490.145455 346.646001 
L 490.531948 301.602139 
L 490.918442 272.357209 
L 491.304935 355.132125 
L 492.850909 346.922251 
L 493.623896 303.729923 
L 494.01039 242.798002 
L 495.16987 365.087762 
L 495.942857 297.823413 
L 496.329351 350.277101 
L 496.715844 347.032511 
L 498.261818 357.998888 
L 498.648312 281.469799 
L 499.034805 326.411059 
L 499.421299 264.335402 
L 500.580779 303.183653 
L 500.967273 365.402655 
L 501.353766 368.373631 
L 501.74026 308.024786 
L 502.126753 355.424824 
L 503.286234 296.220147 
L 503.672727 287.908684 
L 504.059221 311.105742 
L 504.445714 287.594362 
L 504.832208 311.04671 
L 505.991688 334.865752 
L 506.378182 297.695667 
L 506.764675 306.93243 
L 507.151169 319.676859 
L 507.537662 357.100243 
L 508.697143 305.581571 
L 509.083636 367.8204 
L 509.47013 353.86883 
L 509.856623 291.561344 
L 510.243117 353.858166 
L 511.789091 255.909657 
L 512.175584 360.564766 
L 512.562078 339.597348 
L 512.948571 310.010325 
L 514.108052 352.192939 
L 514.494545 352.348111 
L 514.881039 342.842034 
L 515.267532 327.050521 
L 515.654026 279.598818 
L 516.813506 365.541845 
L 517.2 282.811689 
L 517.586494 361.467339 
L 517.972987 264.951022 
L 519.518961 360.922978 
L 519.905455 277.784698 
L 520.291948 330.123643 
L 520.678442 271.802496 
L 521.064935 307.279705 
L 522.224416 319.621605 
L 522.997403 276.339277 
L 523.383896 352.687465 
L 523.77039 337.867146 
L 524.92987 360.168012 
L 525.316364 360.563252 
L 525.702857 290.147667 
L 526.089351 337.446528 
L 526.475844 289.04648 
L 527.635325 348.69668 
L 528.021818 336.802715 
L 528.408312 355.403937 
L 528.794805 349.365177 
L 530.340779 363.810313 
L 530.727273 369.160502 
L 531.113766 346.166268 
L 531.50026 295.536773 
L 531.886753 357.780431 
L 533.046234 350.890204 
L 533.432727 364.600492 
L 533.819221 368.92006 
L 534.205714 335.925492 
L 534.592208 364.331822 
L 535.751688 364.620921 
L 536.138182 280.056118 
L 536.524675 347.819053 
L 536.911169 260.772972 
L 537.297662 323.318678 
L 538.457143 367.227617 
L 538.843636 304.066136 
L 539.23013 330.025259 
L 539.616623 328.780871 
L 540.003117 266.776677 
L 541.162597 366.858591 
L 541.549091 343.663366 
L 541.935584 344.313615 
L 542.322078 359.873888 
L 542.708571 360.510161 
L 543.868052 352.834822 
L 544.254545 333.527603 
L 544.641039 303.131205 
L 545.027532 316.696354 
L 545.414026 361.281728 
L 546.573506 368.523435 
L 546.96 306.13138 
L 547.346494 328.216842 
L 547.732987 320.51517 
L 548.119481 296.718512 
L 549.665455 369.299379 
L 550.051948 335.045377 
L 550.824935 288.505655 
L 551.984416 358.149983 
L 552.370909 356.213029 
L 552.757403 347.983218 
L 553.143896 334.808635 
L 553.53039 362.960608 
L 554.68987 317.384458 
L 555.076364 330.666198 
L 555.462857 364.801082 
L 555.849351 301.539817 
L 556.235844 348.773164 
L 557.781818 342.786689 
L 558.168312 339.912343 
L 558.554805 348.629914 
L 558.941299 326.295556 
L 560.100779 344.184653 
L 560.487273 305.541221 
L 560.873766 367.407268 
L 561.26026 344.371848 
L 561.646753 301.036536 
L 562.806234 362.834061 
L 563.579221 358.348098 
L 563.965714 324.805656 
L 564.352208 353.309017 
L 565.511688 355.927142 
L 565.898182 331.725557 
L 566.284675 328.001697 
L 566.671169 322.112766 
L 567.057662 363.647149 
L 568.217143 347.822526 
L 568.603636 329.637544 
L 568.99013 356.190678 
L 569.376623 331.387882 
L 569.763117 367.576022 
L 570.922597 346.824325 
L 571.309091 353.636748 
L 571.695584 368.520983 
L 572.082078 333.262621 
L 572.468571 314.293578 
L 573.628052 361.165517 
L 574.014545 354.433219 
L 574.401039 291.272545 
L 574.787532 355.091443 
L 575.174026 339.603741 
L 576.333506 319.034534 
L 576.72 345.696761 
L 577.106494 329.79711 
L 577.492987 367.987229 
L 577.879481 363.39298 
L 579.038961 337.250288 
L 579.425455 304.266643 
L 579.811948 326.879594 
L 580.198442 325.989868 
L 580.584935 368.558777 
L 581.744416 330.963019 
L 582.130909 353.801598 
L 582.517403 307.819363 
L 582.903896 293.441105 
L 583.29039 331.860582 
L 584.44987 334.385433 
L 584.836364 288.649997 
L 585.222857 347.946516 
L 585.609351 360.43366 
L 585.995844 359.316482 
L 587.541818 345.832434 
L 587.928312 330.176039 
L 588.314805 351.362531 
L 588.701299 361.401135 
L 589.860779 331.829934 
L 590.247273 337.372625 
L 590.633766 362.436775 
L 591.02026 322.336254 
L 591.406753 300.813502 
L 592.566234 365.350624 
L 592.952727 357.321861 
L 593.725714 276.694206 
L 594.112208 356.50963 
L 595.271688 346.88635 
L 595.658182 286.183063 
L 596.044675 368.107111 
L 596.431169 336.455045 
L 596.817662 354.183144 
L 597.977143 368.947579 
L 598.363636 291.815311 
L 599.136623 362.07781 
L 599.523117 303.551803 
L 600.682597 334.166822 
L 601.455584 345.379284 
L 601.842078 334.268062 
L 602.228571 341.188184 
L 603.388052 310.31773 
L 603.774545 368.841658 
L 604.161039 293.771515 
L 604.547532 321.638715 
L 604.934026 298.397591 
L 606.093506 359.93582 
L 606.48 328.81096 
L 606.866494 288.429241 
L 607.252987 302.669381 
L 607.639481 342.419457 
L 608.798961 302.47094 
L 609.185455 333.213819 
L 609.571948 310.807866 
L 609.958442 264.664656 
L 610.344935 316.981432 
L 611.504416 359.574485 
L 611.890909 353.494611 
L 612.277403 363.762162 
L 613.05039 282.530507 
L 614.20987 364.705174 
L 614.596364 263.473823 
L 614.982857 360.447441 
L 615.369351 362.723472 
L 615.755844 362.210435 
L 616.915325 328.118266 
L 617.301818 358.05249 
L 617.688312 346.673702 
L 618.461299 366.047653 
L 619.620779 358.427693 
L 620.007273 363.901097 
L 620.393766 364.085751 
L 621.166753 336.563268 
L 622.326234 338.992566 
L 622.712727 366.202704 
L 623.485714 324.903502 
L 623.872208 346.482194 
L 625.031688 347.436384 
L 625.418182 343.669992 
L 625.804675 293.390273 
L 626.191169 354.573784 
L 626.577662 368.964819 
L 628.123636 336.604236 
L 628.51013 286.468991 
L 628.896623 311.942508 
L 629.283117 360.094484 
L 630.829091 345.721737 
L 631.215584 361.379763 
L 631.602078 367.317798 
L 631.988571 353.526113 
L 633.534545 337.571719 
L 633.921039 324.275661 
L 634.307532 350.14136 
L 634.694026 359.167876 
L 635.853506 290.825369 
L 636.24 361.101917 
L 636.626494 337.721505 
L 637.012987 365.629485 
L 637.399481 365.184196 
L 638.945455 348.437268 
L 639.331948 337.817991 
L 640.104935 300.790339 
L 641.264416 357.10567 
L 641.650909 353.040346 
L 642.037403 364.842636 
L 642.423896 339.982965 
L 642.81039 365.737556 
L 643.96987 327.191885 
L 644.356364 366.024398 
L 644.742857 278.376601 
L 645.129351 299.792588 
L 645.515844 309.818033 
L 646.675325 351.502566 
L 647.061818 356.456187 
L 647.448312 323.384087 
L 647.834805 366.195016 
L 648.221299 337.295284 
L 649.380779 364.070524 
L 649.767273 292.211966 
L 650.54026 336.855673 
L 650.926753 342.401716 
L 652.472727 335.627981 
L 652.859221 362.310425 
L 653.245714 252.220613 
L 653.632208 367.442347 
L 654.791688 348.125396 
L 655.178182 359.836004 
L 655.564675 360.090316 
L 656.337662 324.683123 
L 657.497143 362.699427 
L 657.883636 311.961797 
L 658.27013 340.647481 
L 658.656623 311.927974 
L 659.043117 332.676537 
L 660.202597 363.098144 
L 660.589091 306.949621 
L 660.975584 358.593969 
L 661.362078 353.275361 
L 661.748571 332.934066 
L 662.908052 334.087837 
L 663.294545 337.814874 
L 663.681039 319.70108 
L 664.067532 351.278858 
L 664.454026 361.526475 
L 665.613506 352.241759 
L 666 353.675919 
L 666.386494 321.220918 
L 666.772987 363.137268 
L 668.318961 358.09391 
L 668.705455 328.666017 
L 669.091948 363.27962 
L 669.478442 299.822269 
L 669.864935 307.518161 
L 671.024416 367.291702 
L 671.410909 361.295531 
L 671.797403 316.128784 
L 672.183896 327.814865 
L 672.57039 287.228749 
L 673.72987 301.598395 
L 674.116364 357.852365 
L 674.502857 336.895269 
L 674.889351 357.000646 
L 675.275844 320.079988 
L 676.435325 320.6617 
L 676.821818 302.722338 
L 677.208312 368.198595 
L 677.981299 312.454946 
L 679.140779 351.603737 
L 679.527273 280.513616 
L 679.913766 350.101585 
L 680.30026 318.454883 
L 680.686753 299.443304 
L 681.846234 311.806036 
L 682.232727 361.86679 
L 682.619221 369.36 
L 683.005714 340.927516 
L 683.392208 360.154382 
L 684.551688 368.039888 
L 684.938182 342.339564 
L 685.324675 304.099868 
L 685.711169 357.711195 
L 686.097662 362.866959 
L 687.257143 364.257772 
L 687.643636 355.385886 
L 688.03013 354.20301 
L 688.416623 327.865653 
L 688.803117 330.284988 
L 690.349091 367.997738 
L 690.735584 327.943177 
L 691.122078 335.798937 
L 691.508571 324.571349 
L 692.668052 363.139815 
L 693.054545 360.974635 
L 693.441039 303.370326 
L 693.827532 368.272042 
L 694.214026 363.137243 
L 695.373506 354.943788 
L 695.76 354.219619 
L 696.146494 321.926311 
L 696.532987 356.265224 
L 696.919481 367.184324 
L 698.078961 326.593147 
L 698.465455 355.276626 
L 699.238442 355.215175 
L 699.624935 360.6288 
L 700.784416 352.184114 
L 701.170909 347.38549 
L 701.557403 360.585128 
L 701.943896 364.308925 
L 702.33039 346.454649 
L 703.48987 354.414349 
L 703.876364 334.771426 
L 704.262857 340.963876 
L 705.035844 338.932027 
L 706.195325 363.696331 
L 706.581818 365.239735 
L 706.968312 312.461056 
L 707.354805 320.054613 
L 707.741299 338.551606 
L 708.900779 353.572512 
L 709.287273 333.69049 
L 709.673766 290.772546 
L 710.06026 325.405365 
L 710.446753 329.223702 
L 711.606234 309.221588 
L 711.992727 360.651534 
L 712.379221 238.104279 
L 712.765714 340.490578 
L 713.152208 307.566538 
L 714.311688 364.835174 
L 714.698182 341.518934 
L 715.084675 281.553719 
L 715.471169 292.102285 
L 715.857662 265.393647 
L 717.017143 198.832676 
L 717.403636 311.650373 
L 717.79013 325.866835 
L 718.176623 241.692099 
L 718.563117 343.266269 
L 719.722597 369.151173 
L 720.109091 275.739543 
L 720.495584 347.999042 
L 720.882078 279.679013 
L 721.268571 358.249512 
L 722.428052 315.15707 
L 722.814545 358.256759 
L 723.201039 345.676995 
L 723.587532 319.094272 
L 723.974026 305.388543 
L 725.133506 351.686189 
L 725.52 360.457581 
L 725.906494 335.79305 
L 726.292987 369.171887 
L 726.679481 313.099056 
L 728.225455 249.557309 
L 728.611948 360.40246 
L 728.998442 352.448908 
L 729.384935 271.795071 
L 730.544416 304.852825 
L 730.930909 344.376834 
L 731.317403 309.925693 
L 731.703896 327.533827 
L 732.09039 339.161246 
L 733.636364 367.909902 
L 734.022857 353.132996 
L 734.409351 275.027278 
L 734.795844 358.50168 
L 735.955325 353.667048 
L 736.341818 355.333915 
L 736.728312 358.949808 
L 737.114805 346.799432 
L 737.501299 362.363255 
L 738.660779 345.694511 
L 739.047273 316.880633 
L 739.433766 368.616754 
L 739.82026 359.959364 
L 740.206753 319.333479 
L 741.366234 315.398351 
L 741.752727 315.33987 
L 742.139221 329.659271 
L 742.525714 357.776479 
L 742.912208 335.570819 
L 744.071688 326.352809 
L 744.458182 326.574519 
L 744.844675 343.224926 
L 745.231169 368.432889 
L 745.617662 347.173566 
L 746.777143 359.165446 
L 747.163636 366.72977 
L 747.163636 366.72977 
" clip-path="url(#p82562d18dc)" style="fill: none; stroke: #000000; stroke-width: 1.5; stroke-linecap: square"/>
   </g>
   <g id="line2d_18">
    <path d="M 138.436364 263.981951 
L 138.822857 263.969726 
L 139.209351 265.05462 
L 140.755325 271.894842 
L 141.141818 271.081687 
L 141.528312 268.420113 
L 142.301299 272.297168 
L 143.460779 273.355716 
L 143.847273 300.461496 
L 144.233766 298.495513 
L 144.62026 297.726978 
L 145.006753 302.313714 
L 146.166234 305.427548 
L 146.552727 305.903362 
L 146.939221 302.228533 
L 147.325714 308.293061 
L 147.712208 302.315536 
L 149.258182 308.041014 
L 149.644675 315.074733 
L 150.031169 315.125447 
L 150.417662 317.273447 
L 151.577143 318.822944 
L 151.963636 317.333992 
L 152.736623 322.554025 
L 153.123117 321.832596 
L 154.282597 321.825054 
L 154.669091 327.483265 
L 155.055584 326.074685 
L 155.442078 323.54228 
L 155.828571 324.170088 
L 156.988052 326.543302 
L 157.374545 329.574938 
L 157.761039 328.154991 
L 158.147532 327.967129 
L 158.534026 327.080848 
L 159.693506 329.510188 
L 160.08 328.265231 
L 160.466494 327.549492 
L 160.852987 327.686763 
L 161.239481 328.927396 
L 162.398961 330.762826 
L 162.785455 329.698862 
L 163.171948 330.068656 
L 163.558442 325.307142 
L 163.944935 307.134314 
L 165.490909 307.592504 
L 166.263896 294.583093 
L 166.65039 292.878569 
L 167.80987 295.520041 
L 168.196364 306.648012 
L 168.582857 295.750002 
L 168.969351 298.015399 
L 169.355844 297.893473 
L 170.515325 294.196592 
L 170.901818 292.118756 
L 171.288312 291.251524 
L 171.674805 286.534966 
L 172.061299 285.733978 
L 173.220779 291.588181 
L 173.607273 282.312127 
L 173.993766 282.80774 
L 174.38026 286.983131 
L 174.766753 285.695832 
L 175.926234 288.410922 
L 176.312727 293.904869 
L 176.699221 290.375145 
L 177.085714 295.479378 
L 177.472208 298.521287 
L 178.631688 302.697519 
L 179.018182 299.243408 
L 179.404675 299.487013 
L 179.791169 301.755006 
L 180.177662 301.8385 
L 181.337143 306.978968 
L 181.723636 312.891895 
L 182.11013 300.916917 
L 182.496623 304.525091 
L 182.883117 313.097909 
L 184.042597 310.02984 
L 184.815584 309.083379 
L 185.202078 299.140182 
L 185.588571 293.450765 
L 186.748052 294.945211 
L 187.134545 294.694077 
L 187.521039 294.099751 
L 187.907532 290.118523 
L 188.294026 289.16301 
L 189.453506 290.466918 
L 189.84 304.568791 
L 190.226494 294.96511 
L 190.612987 303.02324 
L 190.999481 295.20149 
L 192.158961 291.678285 
L 192.545455 289.423567 
L 192.931948 292.537018 
L 193.318442 294.148788 
L 193.704935 291.352811 
L 194.864416 295.235588 
L 195.250909 293.040838 
L 195.637403 293.977046 
L 196.41039 290.928209 
L 197.56987 311.471644 
L 197.956364 311.311399 
L 198.342857 308.009152 
L 198.729351 306.509095 
L 199.115844 314.680575 
L 200.275325 322.584917 
L 200.661818 320.423906 
L 201.048312 322.750084 
L 201.434805 323.370095 
L 201.821299 320.975182 
L 202.980779 324.968574 
L 203.367273 326.881319 
L 203.753766 324.08799 
L 204.14026 324.466307 
L 204.526753 327.254644 
L 205.686234 327.681027 
L 206.459221 328.327157 
L 206.845714 329.435377 
L 208.391688 334.478542 
L 208.778182 331.556852 
L 209.164675 330.406889 
L 209.551169 331.822232 
L 211.097143 334.004534 
L 211.483636 328.2484 
L 211.87013 326.812572 
L 212.256623 328.185323 
L 212.643117 325.298285 
L 213.802597 324.210414 
L 214.189091 325.602292 
L 214.575584 325.027163 
L 214.962078 329.00277 
L 215.348571 327.929502 
L 216.894545 328.524304 
L 217.281039 326.761413 
L 217.667532 323.913114 
L 218.054026 323.29669 
L 219.213506 328.595481 
L 219.6 326.470544 
L 219.986494 325.624676 
L 220.759481 314.736299 
L 221.918961 310.503849 
L 222.305455 306.518843 
L 222.691948 305.282224 
L 223.078442 308.623771 
L 223.464935 315.165935 
L 224.624416 309.13518 
L 225.010909 312.858065 
L 225.397403 311.372874 
L 225.783896 316.685752 
L 226.17039 320.018015 
L 227.716364 317.868255 
L 228.102857 313.137434 
L 228.489351 318.550706 
L 228.875844 321.448126 
L 230.035325 317.152603 
L 230.421818 318.104293 
L 230.808312 314.202967 
L 231.194805 317.761817 
L 231.581299 304.601886 
L 232.740779 311.417444 
L 233.127273 307.872478 
L 233.513766 309.551144 
L 233.90026 312.025829 
L 234.286753 311.228084 
L 235.446234 306.585224 
L 235.832727 307.997751 
L 236.219221 308.192263 
L 236.605714 306.695233 
L 236.992208 307.076235 
L 238.151688 305.869146 
L 238.538182 313.170613 
L 238.924675 307.671767 
L 239.311169 312.14132 
L 239.697662 308.219629 
L 240.857143 302.778217 
L 241.243636 312.192445 
L 241.63013 304.946402 
L 242.016623 303.799589 
L 242.403117 305.786514 
L 243.562597 309.175859 
L 243.949091 306.696743 
L 244.335584 320.296431 
L 244.722078 318.014369 
L 246.268052 317.722567 
L 246.654545 314.571334 
L 247.427532 324.025729 
L 247.814026 326.385013 
L 248.973506 323.716242 
L 249.36 323.575958 
L 249.746494 328.220079 
L 250.519481 323.617974 
L 251.678961 322.157333 
L 252.065455 326.319703 
L 252.451948 325.056104 
L 253.224935 323.685086 
L 254.384416 322.440115 
L 254.770909 322.741373 
L 255.157403 328.506213 
L 255.543896 330.48774 
L 255.93039 330.515876 
L 257.08987 326.430476 
L 257.476364 327.58133 
L 257.862857 331.258745 
L 258.249351 329.843186 
L 258.635844 331.890281 
L 260.181818 327.814321 
L 260.568312 326.082816 
L 260.954805 319.43666 
L 261.341299 317.277438 
L 262.500779 316.448217 
L 262.887273 316.73188 
L 263.273766 319.396637 
L 263.66026 317.670966 
L 264.046753 319.368772 
L 265.206234 317.699714 
L 265.592727 323.285793 
L 265.979221 318.342231 
L 266.365714 321.036165 
L 266.752208 321.60775 
L 268.298182 323.080323 
L 269.071169 325.589683 
L 269.457662 324.611126 
L 271.003636 319.110491 
L 271.39013 323.94793 
L 271.776623 327.227084 
L 272.163117 326.166293 
L 273.322597 329.716517 
L 273.709091 332.252737 
L 274.095584 335.798339 
L 274.482078 335.260592 
L 274.868571 335.287951 
L 276.028052 334.392514 
L 276.414545 330.573002 
L 276.801039 329.917288 
L 277.187532 332.062993 
L 277.574026 333.557923 
L 278.733506 331.680042 
L 279.12 331.991785 
L 279.506494 332.077869 
L 279.892987 333.862632 
L 280.279481 333.341605 
L 281.825455 330.851472 
L 282.211948 331.537489 
L 282.598442 332.62947 
L 282.984935 331.089595 
L 284.144416 328.29188 
L 284.530909 328.184028 
L 284.917403 329.323707 
L 285.303896 329.218215 
L 285.69039 330.933879 
L 286.84987 329.292718 
L 287.236364 324.15747 
L 287.622857 323.03887 
L 288.009351 324.921902 
L 288.395844 325.931994 
L 289.555325 326.758212 
L 289.941818 324.881318 
L 290.328312 326.874056 
L 290.714805 325.42349 
L 291.101299 329.188183 
L 292.260779 325.896544 
L 292.647273 325.276665 
L 293.033766 327.000934 
L 293.42026 324.41991 
L 293.806753 324.787711 
L 294.966234 325.31846 
L 295.352727 328.500142 
L 295.739221 329.753019 
L 296.125714 330.060156 
L 296.512208 330.009605 
L 297.671688 327.8594 
L 298.444675 332.268962 
L 298.831169 332.389857 
L 299.217662 332.946364 
L 300.377143 334.047259 
L 300.763636 332.76446 
L 301.15013 332.524838 
L 301.536623 334.367989 
L 301.923117 333.760355 
L 303.082597 331.718255 
L 303.469091 331.502002 
L 303.855584 331.913254 
L 304.628571 335.580965 
L 306.174545 334.332562 
L 306.561039 335.87523 
L 306.947532 334.174901 
L 307.334026 334.845375 
L 308.88 332.310534 
L 309.266494 333.059014 
L 309.652987 331.143775 
L 310.039481 331.392514 
L 311.198961 333.702139 
L 311.585455 327.009929 
L 311.971948 327.501973 
L 312.358442 331.047021 
L 312.744935 325.875317 
L 313.904416 325.563791 
L 314.290909 328.917095 
L 314.677403 323.576502 
L 315.063896 321.083532 
L 315.45039 323.229149 
L 317.382857 314.827249 
L 317.769351 315.331164 
L 318.155844 316.331802 
L 319.315325 315.238168 
L 319.701818 318.839071 
L 320.088312 315.827147 
L 320.474805 318.436045 
L 320.861299 315.464082 
L 322.020779 311.10081 
L 322.407273 313.540516 
L 322.793766 318.160811 
L 323.18026 316.252584 
L 323.566753 318.593947 
L 324.726234 320.644899 
L 325.112727 323.194418 
L 325.499221 319.827332 
L 325.885714 326.572833 
L 326.272208 323.180048 
L 327.431688 324.021031 
L 327.818182 327.816354 
L 328.204675 330.187855 
L 328.591169 329.825929 
L 328.977662 328.929387 
L 330.137143 330.285139 
L 330.523636 330.134603 
L 330.91013 332.824108 
L 331.296623 330.403321 
L 331.683117 329.065198 
L 332.842597 335.557522 
L 333.229091 333.892049 
L 333.615584 336.284745 
L 334.002078 335.756474 
L 334.388571 335.962776 
L 335.548052 335.605809 
L 335.934545 336.786198 
L 336.321039 335.988997 
L 337.094026 336.782254 
L 338.253506 329.441399 
L 338.64 317.308986 
L 339.026494 314.142573 
L 339.799481 310.36417 
L 340.958961 309.761357 
L 341.345455 308.940528 
L 341.731948 303.335639 
L 342.118442 303.990245 
L 342.504935 308.199466 
L 343.664416 305.384127 
L 344.050909 303.630683 
L 344.437403 303.403306 
L 345.21039 299.029425 
L 346.36987 299.337592 
L 346.756364 297.728239 
L 347.142857 294.17922 
L 347.529351 292.737708 
L 349.075325 294.134783 
L 349.461818 298.535222 
L 349.848312 301.578751 
L 350.234805 311.162205 
L 350.621299 314.666724 
L 351.780779 313.289859 
L 352.167273 315.004872 
L 352.553766 312.453425 
L 352.94026 316.478145 
L 353.326753 312.959548 
L 354.486234 319.353953 
L 354.872727 316.611927 
L 355.259221 319.383122 
L 355.645714 315.584848 
L 356.032208 316.060797 
L 357.578182 315.595162 
L 357.964675 318.99349 
L 358.351169 312.3479 
L 358.737662 312.857768 
L 359.897143 311.46946 
L 360.283636 312.238363 
L 360.67013 314.627636 
L 361.056623 313.870088 
L 361.443117 318.593106 
L 362.602597 308.136695 
L 362.989091 301.344888 
L 363.375584 302.108726 
L 363.762078 303.664759 
L 364.148571 296.573132 
L 365.308052 299.354286 
L 365.694545 302.92164 
L 366.081039 303.887812 
L 366.854026 294.214092 
L 368.013506 289.742717 
L 368.786494 294.933994 
L 369.172987 293.477795 
L 369.559481 301.594458 
L 371.105455 290.530045 
L 371.491948 295.565765 
L 371.878442 290.972279 
L 372.264935 289.230518 
L 373.424416 284.645597 
L 373.810909 285.18731 
L 374.197403 296.433064 
L 374.583896 288.638007 
L 374.97039 288.923836 
L 376.12987 293.18268 
L 376.516364 287.586864 
L 376.902857 284.544215 
L 377.289351 276.344479 
L 377.675844 280.2147 
L 378.835325 286.144292 
L 379.221818 284.450754 
L 379.608312 284.817154 
L 379.994805 276.811722 
L 380.381299 277.929768 
L 381.540779 279.163489 
L 381.927273 283.204953 
L 382.313766 298.11543 
L 382.70026 283.210592 
L 383.086753 282.5353 
L 384.246234 284.00313 
L 384.632727 291.853704 
L 385.019221 288.752697 
L 385.405714 288.336396 
L 385.792208 291.120913 
L 386.951688 289.265115 
L 387.338182 302.043556 
L 387.724675 297.35009 
L 388.111169 301.89233 
L 388.497662 302.398179 
L 389.657143 306.863337 
L 390.043636 305.935224 
L 390.43013 305.627026 
L 390.816623 313.119003 
L 392.362597 308.533438 
L 392.749091 308.983433 
L 393.135584 316.85304 
L 393.522078 309.896316 
L 393.908571 317.871411 
L 395.068052 300.767678 
L 395.454545 300.961739 
L 395.841039 296.290913 
L 396.227532 294.216749 
L 396.614026 296.551246 
L 397.773506 276.24109 
L 398.16 277.270826 
L 398.546494 283.888357 
L 398.932987 278.243711 
L 399.319481 261.201563 
L 400.478961 262.911631 
L 400.865455 261.75373 
L 401.251948 258.329474 
L 401.638442 269.945737 
L 402.024935 259.798039 
L 403.184416 274.210251 
L 403.570909 257.764465 
L 403.957403 263.237834 
L 404.343896 244.327688 
L 404.73039 243.949998 
L 405.88987 252.523097 
L 406.276364 278.243038 
L 406.662857 251.879997 
L 407.049351 259.209941 
L 407.435844 255.272419 
L 408.981818 251.582814 
L 409.368312 261.282849 
L 409.754805 266.652286 
L 410.141299 263.102068 
L 411.300779 263.201897 
L 411.687273 273.671532 
L 412.073766 281.007355 
L 412.46026 282.536275 
L 412.846753 275.396897 
L 414.006234 267.486142 
L 414.392727 255.163896 
L 414.779221 260.939348 
L 415.165714 269.398211 
L 415.552208 256.571658 
L 417.098182 267.142882 
L 417.484675 275.156908 
L 417.871169 263.178068 
L 418.257662 281.830606 
L 419.417143 261.989981 
L 419.803636 258.579655 
L 420.19013 269.301796 
L 420.576623 263.070733 
L 420.963117 283.484949 
L 422.509091 268.195433 
L 422.895584 268.14986 
L 423.282078 282.666307 
L 423.668571 276.631571 
L 424.828052 267.519108 
L 425.214545 285.377707 
L 425.601039 273.532419 
L 425.987532 280.069909 
L 426.374026 295.898425 
L 427.533506 294.03129 
L 427.92 288.270708 
L 428.306494 292.751391 
L 428.692987 290.184416 
L 429.079481 299.429293 
L 430.238961 296.886036 
L 430.625455 298.074616 
L 431.011948 313.447459 
L 431.398442 298.069851 
L 431.784935 300.12499 
L 432.944416 298.908461 
L 433.330909 299.786405 
L 433.717403 305.280341 
L 434.103896 299.722283 
L 434.49039 297.452447 
L 435.64987 309.710526 
L 436.036364 308.927198 
L 436.422857 311.421581 
L 436.809351 301.867626 
L 437.195844 296.822223 
L 438.355325 306.031986 
L 438.741818 298.775335 
L 439.128312 302.96677 
L 439.514805 312.953713 
L 439.901299 308.45357 
L 441.060779 310.696713 
L 441.447273 301.165469 
L 441.833766 300.905599 
L 442.22026 308.675028 
L 442.606753 313.28389 
L 443.766234 295.584768 
L 444.539221 299.483387 
L 444.925714 298.274789 
L 445.312208 301.71223 
L 446.858182 303.852318 
L 447.244675 299.752009 
L 447.631169 298.999349 
L 448.017662 294.90864 
L 449.177143 299.095372 
L 449.563636 294.386535 
L 449.95013 278.315647 
L 450.336623 277.62435 
L 450.723117 285.692682 
L 451.882597 280.254157 
L 452.655584 285.499639 
L 453.042078 280.187345 
L 453.428571 278.837785 
L 454.588052 280.008259 
L 454.974545 287.62617 
L 455.361039 289.264056 
L 455.747532 294.247804 
L 456.134026 281.309135 
L 457.293506 279.756251 
L 457.68 276.530823 
L 458.066494 267.792154 
L 458.452987 271.956592 
L 458.839481 283.894691 
L 459.998961 269.764426 
L 460.385455 267.478962 
L 460.771948 273.059766 
L 461.158442 289.682357 
L 461.544935 286.173155 
L 463.090909 269.434832 
L 463.477403 269.789057 
L 464.25039 278.078533 
L 465.40987 272.6205 
L 465.796364 270.232258 
L 466.182857 270.932142 
L 466.569351 270.24125 
L 466.955844 276.199245 
L 468.115325 275.381706 
L 468.501818 271.591067 
L 468.888312 280.100022 
L 469.274805 284.252033 
L 469.661299 276.237676 
L 470.820779 278.021553 
L 471.207273 283.589972 
L 471.593766 284.978319 
L 471.98026 283.18544 
L 472.366753 254.7406 
L 473.526234 259.817451 
L 473.912727 268.659279 
L 474.299221 273.076611 
L 475.072208 274.317945 
L 476.618182 282.603939 
L 477.004675 282.543618 
L 477.777662 278.184578 
L 478.937143 280.775253 
L 479.323636 298.314107 
L 479.71013 281.681981 
L 480.096623 285.045114 
L 480.483117 277.000023 
L 481.642597 293.491444 
L 482.029091 295.195481 
L 482.415584 277.407439 
L 482.802078 278.119616 
L 483.188571 291.755484 
L 484.348052 310.606666 
L 484.734545 307.32118 
L 485.121039 306.210699 
L 485.507532 308.005436 
L 485.894026 301.750852 
L 487.053506 297.694124 
L 487.44 298.925137 
L 487.826494 299.706072 
L 488.212987 307.855174 
L 488.599481 296.451916 
L 490.145455 296.319804 
L 490.918442 301.264454 
L 491.304935 294.220752 
L 492.850909 303.593373 
L 493.237403 308.4725 
L 493.623896 306.710609 
L 494.01039 306.09886 
L 495.16987 300.970646 
L 495.556364 300.381914 
L 495.942857 311.039379 
L 496.329351 302.823518 
L 496.715844 303.101504 
L 498.261818 307.226643 
L 498.648312 307.334084 
L 499.034805 313.434712 
L 499.421299 308.669887 
L 500.580779 306.506287 
L 500.967273 303.376125 
L 501.353766 306.841531 
L 501.74026 316.297406 
L 502.126753 319.163382 
L 503.286234 309.508783 
L 503.672727 312.592744 
L 504.059221 309.065935 
L 504.832208 305.775135 
L 505.991688 304.751549 
L 506.378182 306.949567 
L 506.764675 311.834776 
L 507.151169 308.795115 
L 507.537662 308.730326 
L 508.697143 311.317043 
L 509.083636 313.58619 
L 509.47013 309.164037 
L 509.856623 317.682712 
L 510.243117 314.554843 
L 511.789091 310.17 
L 512.175584 312.572674 
L 512.562078 310.335111 
L 512.948571 316.084497 
L 514.108052 311.518736 
L 514.494545 310.997203 
L 514.881039 313.843344 
L 515.267532 315.852672 
L 515.654026 316.271127 
L 516.813506 312.972138 
L 517.2 314.30728 
L 517.586494 319.782622 
L 517.972987 313.561795 
L 518.359481 316.422412 
L 519.518961 308.964963 
L 519.905455 310.598235 
L 520.291948 313.591241 
L 520.678442 309.090874 
L 521.064935 306.8554 
L 522.224416 304.027241 
L 522.610909 306.516013 
L 522.997403 304.906558 
L 523.383896 302.050126 
L 523.77039 302.482867 
L 524.92987 308.067982 
L 525.316364 306.236067 
L 525.702857 310.631336 
L 526.089351 309.960443 
L 526.475844 302.282408 
L 527.635325 304.60428 
L 528.021818 302.481118 
L 528.408312 308.38604 
L 528.794805 307.033588 
L 530.340779 313.527444 
L 530.727273 314.479841 
L 531.113766 317.586263 
L 531.50026 323.29553 
L 531.886753 315.882232 
L 533.046234 316.000246 
L 533.432727 320.801691 
L 533.819221 322.806363 
L 534.592208 332.830491 
L 535.751688 328.726349 
L 536.138182 331.300304 
L 536.524675 329.004158 
L 536.911169 324.49374 
L 537.297662 323.354242 
L 538.457143 321.102529 
L 539.23013 327.526875 
L 539.616623 322.678064 
L 540.003117 322.370203 
L 541.162597 317.789554 
L 541.549091 316.755322 
L 541.935584 323.414855 
L 542.322078 319.678589 
L 542.708571 321.05227 
L 544.254545 323.832792 
L 544.641039 322.080643 
L 545.027532 318.038837 
L 545.414026 315.765962 
L 546.573506 316.773686 
L 547.346494 323.06498 
L 547.732987 318.239694 
L 548.119481 317.650553 
L 549.665455 320.293365 
L 550.051948 320.279424 
L 550.438442 326.090002 
L 550.824935 322.520683 
L 551.984416 319.112291 
L 552.370909 319.654609 
L 552.757403 327.044795 
L 553.143896 326.877554 
L 553.53039 325.794308 
L 554.68987 324.946617 
L 555.076364 326.913835 
L 555.462857 322.986057 
L 555.849351 323.042502 
L 556.235844 325.879402 
L 557.781818 323.40148 
L 558.168312 325.787479 
L 558.554805 325.142446 
L 558.941299 324.794578 
L 560.100779 326.193212 
L 560.487273 325.659121 
L 560.873766 325.449085 
L 561.26026 326.411502 
L 561.646753 330.437544 
L 562.806234 326.503131 
L 563.579221 325.993601 
L 563.965714 331.689291 
L 564.352208 330.588355 
L 565.511688 328.589817 
L 565.898182 329.970198 
L 566.284675 329.865585 
L 566.671169 328.787134 
L 567.057662 328.339981 
L 568.217143 327.98903 
L 568.603636 332.708306 
L 568.99013 330.736603 
L 569.376623 330.033406 
L 569.763117 331.077652 
L 570.922597 329.653651 
L 571.309091 333.462012 
L 571.695584 331.596787 
L 572.468571 334.632776 
L 573.628052 330.967915 
L 574.401039 333.926176 
L 574.787532 330.631119 
L 575.174026 328.811662 
L 576.333506 331.134495 
L 576.72 329.216888 
L 577.106494 328.533946 
L 577.492987 329.259 
L 577.879481 329.394404 
L 579.038961 333.113253 
L 579.425455 332.881595 
L 579.811948 328.557491 
L 580.584935 327.091895 
L 581.744416 327.381037 
L 582.130909 330.791617 
L 582.517403 327.727641 
L 582.903896 326.866453 
L 583.29039 322.024364 
L 584.44987 322.139322 
L 584.836364 323.637714 
L 585.222857 320.647931 
L 585.609351 319.725648 
L 585.995844 323.986143 
L 587.928312 326.323133 
L 588.701299 324.046088 
L 589.860779 325.590625 
L 590.247273 326.890859 
L 590.633766 323.799708 
L 591.02026 324.111314 
L 591.406753 327.991 
L 592.566234 323.242765 
L 592.952727 323.479092 
L 593.339221 327.74898 
L 593.725714 326.415733 
L 594.112208 319.328462 
L 595.271688 320.671654 
L 595.658182 325.98937 
L 596.044675 319.572712 
L 596.431169 320.845403 
L 596.817662 326.608597 
L 597.977143 322.60878 
L 598.363636 323.129679 
L 598.75013 325.381511 
L 599.136623 318.792349 
L 599.523117 319.271095 
L 600.682597 321.734435 
L 601.069091 317.458609 
L 601.455584 318.283042 
L 601.842078 318.567175 
L 602.228571 319.303686 
L 603.388052 320.237522 
L 604.161039 317.376942 
L 604.547532 323.08389 
L 604.934026 319.219082 
L 606.093506 317.201438 
L 606.48 317.175025 
L 606.866494 323.342874 
L 607.252987 320.731252 
L 607.639481 317.327714 
L 608.798961 317.943291 
L 609.185455 317.485173 
L 609.571948 315.650965 
L 609.958442 317.363359 
L 610.344935 312.453391 
L 611.504416 311.034956 
L 611.890909 313.804918 
L 612.277403 318.454212 
L 612.663896 317.637044 
L 613.05039 320.296431 
L 614.20987 312.037074 
L 614.596364 311.006233 
L 614.982857 315.621351 
L 615.369351 308.143475 
L 615.755844 315.7347 
L 616.915325 318.383841 
L 617.301818 319.894783 
L 617.688312 314.264403 
L 618.461299 317.778589 
L 619.620779 317.815221 
L 620.007273 323.861588 
L 620.393766 322.184329 
L 620.78026 325.012176 
L 621.166753 326.061913 
L 622.326234 323.922991 
L 622.712727 327.237063 
L 623.099221 327.873825 
L 623.485714 330.961413 
L 623.872208 328.248361 
L 625.031688 326.812161 
L 625.418182 328.30314 
L 625.804675 331.839888 
L 626.191169 328.191546 
L 626.577662 333.467962 
L 627.737143 333.980468 
L 628.123636 335.542768 
L 629.283117 328.127806 
L 630.829091 328.528394 
L 631.215584 330.530496 
L 631.602078 329.188619 
L 631.988571 330.251271 
L 633.534545 331.996987 
L 634.307532 327.962364 
L 634.694026 327.681165 
L 635.853506 328.550284 
L 636.24 327.141932 
L 636.626494 325.000766 
L 637.012987 327.843376 
L 637.399481 325.794973 
L 638.945455 328.933188 
L 639.331948 332.364556 
L 640.104935 327.76445 
L 641.264416 325.315099 
L 641.650909 325.575832 
L 642.037403 330.57703 
L 642.423896 331.306422 
L 642.81039 332.805044 
L 643.96987 330.583073 
L 644.356364 332.303069 
L 644.742857 329.266069 
L 645.129351 329.035211 
L 645.515844 323.017126 
L 646.675325 322.66738 
L 647.061818 323.047586 
L 647.448312 324.691481 
L 647.834805 327.325586 
L 648.221299 324.894115 
L 649.380779 329.17812 
L 649.767273 325.852717 
L 650.153766 326.283685 
L 650.54026 320.976337 
L 650.926753 321.184588 
L 652.472727 322.511933 
L 652.859221 324.591972 
L 653.245714 324.048891 
L 653.632208 321.98022 
L 654.791688 317.038138 
L 655.178182 324.097693 
L 655.564675 320.712053 
L 655.951169 322.944562 
L 656.337662 323.363262 
L 657.497143 322.871191 
L 657.883636 323.791121 
L 658.27013 327.078137 
L 658.656623 323.4137 
L 659.043117 322.91057 
L 660.202597 322.584962 
L 660.589091 322.907526 
L 660.975584 325.288879 
L 661.362078 321.325662 
L 661.748571 326.655334 
L 662.908052 326.513919 
L 663.294545 324.979325 
L 663.681039 324.941034 
L 664.454026 323.528944 
L 665.613506 330.613281 
L 666 331.694972 
L 666.772987 330.04744 
L 668.318961 328.500669 
L 668.705455 331.117359 
L 669.091948 331.512585 
L 669.478442 329.451726 
L 669.864935 331.043041 
L 671.024416 327.071842 
L 671.797403 333.852073 
L 672.183896 333.740153 
L 672.57039 331.299448 
L 673.72987 327.447913 
L 674.116364 326.748474 
L 674.502857 326.91378 
L 674.889351 328.772061 
L 675.275844 328.186832 
L 676.435325 328.890265 
L 676.821818 326.224386 
L 677.208312 325.01797 
L 677.594805 324.593351 
L 677.981299 329.254779 
L 679.913766 322.479718 
L 680.30026 320.298948 
L 680.686753 321.156426 
L 681.846234 318.214817 
L 682.232727 316.286856 
L 682.619221 316.697686 
L 683.392208 325.073476 
L 684.551688 320.272019 
L 685.324675 328.692813 
L 685.711169 322.481484 
L 686.097662 321.10712 
L 687.257143 323.757089 
L 688.03013 328.122253 
L 688.416623 328.289284 
L 688.803117 326.910298 
L 690.349091 324.927037 
L 690.735584 325.771953 
L 691.122078 329.527204 
L 692.668052 328.164899 
L 693.054545 329.290744 
L 693.441039 333.419948 
L 693.827532 333.188047 
L 694.214026 330.48567 
L 695.373506 333.402288 
L 695.76 333.734423 
L 696.919481 330.358746 
L 698.465455 334.68151 
L 699.238442 332.079251 
L 699.624935 332.8643 
L 700.784416 332.84565 
L 701.170909 333.580348 
L 701.943896 333.815497 
L 702.33039 334.427893 
L 703.48987 335.872504 
L 703.876364 335.049106 
L 704.262857 335.642508 
L 705.035844 334.673928 
L 706.195325 336.548914 
L 706.581818 336.124421 
L 706.968312 337.133691 
L 707.354805 336.659732 
L 707.741299 333.468164 
L 708.900779 334.201002 
L 709.673766 334.321447 
L 710.06026 331.365 
L 710.446753 329.987926 
L 711.606234 329.631305 
L 711.992727 328.054132 
L 712.379221 327.757471 
L 713.152208 319.675596 
L 714.311688 319.820006 
L 714.698182 318.960515 
L 715.084675 323.976445 
L 715.857662 313.311345 
L 717.017143 308.903176 
L 717.403636 299.388676 
L 717.79013 299.339347 
L 718.176623 301.163914 
L 718.563117 296.657487 
L 719.722597 295.784852 
L 720.109091 299.594438 
L 720.495584 307.944195 
L 720.882078 295.115417 
L 721.268571 297.81249 
L 722.428052 294.20972 
L 722.814545 301.404778 
L 723.201039 296.479086 
L 723.587532 302.601962 
L 723.974026 303.882722 
L 725.133506 299.60168 
L 725.52 300.321397 
L 726.292987 308.092439 
L 726.679481 304.554262 
L 728.225455 314.660591 
L 728.611948 303.618531 
L 729.384935 317.17128 
L 730.544416 312.900076 
L 730.930909 313.795349 
L 731.317403 314.165034 
L 731.703896 314.765678 
L 732.09039 315.5907 
L 733.24987 315.930126 
L 733.636364 320.145513 
L 734.022857 322.830989 
L 734.409351 326.618309 
L 734.795844 319.650679 
L 735.955325 315.838745 
L 736.341818 320.518968 
L 736.728312 321.149615 
L 737.114805 321.215744 
L 737.501299 322.000588 
L 738.660779 320.259339 
L 739.047273 322.857458 
L 739.433766 319.848712 
L 739.82026 323.362763 
L 740.206753 327.991248 
L 741.366234 326.384032 
L 741.752727 326.059107 
L 742.139221 326.115927 
L 742.525714 325.651313 
L 742.912208 327.394061 
L 744.071688 329.941338 
L 744.458182 327.698257 
L 744.844675 326.40677 
L 745.231169 326.228237 
L 745.617662 326.49318 
L 746.777143 334.022179 
L 747.163636 331.791771 
L 747.163636 331.791771 
" clip-path="url(#p82562d18dc)" style="fill: none; stroke: #1f77b4; stroke-width: 1.5; stroke-linecap: square"/>
   </g>
   <g id="patch_3">
    <path d="M 108 384.48 
L 108 51.84 
" style="fill: none; stroke: #000000; stroke-width: 0.8; stroke-linejoin: miter; stroke-linecap: square"/>
   </g>
   <g id="patch_4">
    <path d="M 777.6 384.48 
L 777.6 51.84 
" style="fill: none; stroke: #000000; stroke-width: 0.8; stroke-linejoin: miter; stroke-linecap: square"/>
   </g>
   <g id="patch_5">
    <path d="M 108 384.48 
L 777.6 384.48 
" style="fill: none; stroke: #000000; stroke-width: 0.8; stroke-linejoin: miter; stroke-linecap: square"/>
   </g>
   <g id="patch_6">
    <path d="M 108 51.84 
L 777.6 51.84 
" style="fill: none; stroke: #000000; stroke-width: 0.8; stroke-linejoin: miter; stroke-linecap: square"/>
   </g>
   <g id="text_19">
    <!-- Volatility Prediction with Mini LSTM w/ RVOL &amp; VIX -->
    <g transform="translate(293.29875 45.84) scale(0.12 -0.12)">
     <defs>
      <path id="DejaVuSans-20" transform="scale(0.015625)"/>
      <path id="DejaVuSans-50" d="M 1259 4147 
L 1259 2394 
L 2053 2394 
Q 2494 2394 2734 2622 
Q 2975 2850 2975 3272 
Q 2975 3691 2734 3919 
Q 2494 4147 2053 4147 
L 1259 4147 
z
M 628 4666 
L 2053 4666 
Q 2838 4666 3239 4311 
Q 3641 3956 3641 3272 
Q 3641 2581 3239 2228 
Q 2838 1875 2053 1875 
L 1259 1875 
L 1259 0 
L 628 0 
L 628 4666 
z
" transform="scale(0.015625)"/>
      <path id="DejaVuSans-72" d="M 2631 2963 
Q 2534 3019 2420 3045 
Q 2306 3072 2169 3072 
Q 1681 3072 1420 2755 
Q 1159 2438 1159 1844 
L 1159 0 
L 581 0 
L 581 3500 
L 1159 3500 
L 1159 2956 
Q 1341 3275 1631 3429 
Q 1922 3584 2338 3584 
Q 2397 3584 2469 3576 
Q 2541 3569 2628 3553 
L 2631 2963 
z
" transform="scale(0.015625)"/>
      <path id="DejaVuSans-64" d="M 2906 2969 
L 2906 4863 
L 3481 4863 
L 3481 0 
L 2906 0 
L 2906 525 
Q 2725 213 2448 61 
Q 2172 -91 1784 -91 
Q 1150 -91 751 415 
Q 353 922 353 1747 
Q 353 2572 751 3078 
Q 1150 3584 1784 3584 
Q 2172 3584 2448 3432 
Q 2725 3281 2906 2969 
z
M 947 1747 
Q 947 1113 1208 752 
Q 1469 391 1925 391 
Q 2381 391 2643 752 
Q 2906 1113 2906 1747 
Q 2906 2381 2643 2742 
Q 2381 3103 1925 3103 
Q 1469 3103 1208 2742 
Q 947 2381 947 1747 
z
" transform="scale(0.015625)"/>
      <path id="DejaVuSans-63" d="M 3122 3366 
L 3122 2828 
Q 2878 2963 2633 3030 
Q 2388 3097 2138 3097 
Q 1578 3097 1268 2742 
Q 959 2388 959 1747 
Q 959 1106 1268 751 
Q 1578 397 2138 397 
Q 2388 397 2633 464 
Q 2878 531 3122 666 
L 3122 134 
Q 2881 22 2623 -34 
Q 2366 -91 2075 -91 
Q 1284 -91 818 406 
Q 353 903 353 1747 
Q 353 2603 823 3093 
Q 1294 3584 2113 3584 
Q 2378 3584 2631 3529 
Q 2884 3475 3122 3366 
z
" transform="scale(0.015625)"/>
      <path id="DejaVuSans-6e" d="M 3513 2113 
L 3513 0 
L 2938 0 
L 2938 2094 
Q 2938 2591 2744 2837 
Q 2550 3084 2163 3084 
Q 1697 3084 1428 2787 
Q 1159 2491 1159 1978 
L 1159 0 
L 581 0 
L 581 3500 
L 1159 3500 
L 1159 2956 
Q 1366 3272 1645 3428 
Q 1925 3584 2291 3584 
Q 2894 3584 3203 3211 
Q 3513 2838 3513 2113 
z
" transform="scale(0.015625)"/>
      <path id="DejaVuSans-77" d="M 269 3500 
L 844 3500 
L 1563 769 
L 2278 3500 
L 2956 3500 
L 3675 769 
L 4391 3500 
L 4966 3500 
L 4050 0 
L 3372 0 
L 2619 2869 
L 1863 0 
L 1184 0 
L 269 3500 
z
" transform="scale(0.015625)"/>
      <path id="DejaVuSans-68" d="M 3513 2113 
L 3513 0 
L 2938 0 
L 2938 2094 
Q 2938 2591 2744 2837 
Q 2550 3084 2163 3084 
Q 1697 3084 1428 2787 
Q 1159 2491 1159 1978 
L 1159 0 
L 581 0 
L 581 4863 
L 1159 4863 
L 1159 2956 
Q 1366 3272 1645 3428 
Q 1925 3584 2291 3584 
Q 2894 3584 3203 3211 
Q 3513 2838 3513 2113 
z
" transform="scale(0.015625)"/>
      <path id="DejaVuSans-4d" d="M 628 4666 
L 1569 4666 
L 2759 1491 
L 3956 4666 
L 4897 4666 
L 4897 0 
L 4281 0 
L 4281 4097 
L 3078 897 
L 2444 897 
L 1241 4097 
L 1241 0 
L 628 0 
L 628 4666 
z
" transform="scale(0.015625)"/>
      <path id="DejaVuSans-4c" d="M 628 4666 
L 1259 4666 
L 1259 531 
L 3531 531 
L 3531 0 
L 628 0 
L 628 4666 
z
" transform="scale(0.015625)"/>
      <path id="DejaVuSans-53" d="M 3425 4513 
L 3425 3897 
Q 3066 4069 2747 4153 
Q 2428 4238 2131 4238 
Q 1616 4238 1336 4038 
Q 1056 3838 1056 3469 
Q 1056 3159 1242 3001 
Q 1428 2844 1947 2747 
L 2328 2669 
Q 3034 2534 3370 2195 
Q 3706 1856 3706 1288 
Q 3706 609 3251 259 
Q 2797 -91 1919 -91 
Q 1588 -91 1214 -16 
Q 841 59 441 206 
L 441 856 
Q 825 641 1194 531 
Q 1563 422 1919 422 
Q 2459 422 2753 634 
Q 3047 847 3047 1241 
Q 3047 1584 2836 1778 
Q 2625 1972 2144 2069 
L 1759 2144 
Q 1053 2284 737 2584 
Q 422 2884 422 3419 
Q 422 4038 858 4394 
Q 1294 4750 2059 4750 
Q 2388 4750 2728 4690 
Q 3069 4631 3425 4513 
z
" transform="scale(0.015625)"/>
      <path id="DejaVuSans-54" d="M -19 4666 
L 3928 4666 
L 3928 4134 
L 2272 4134 
L 2272 0 
L 1638 0 
L 1638 4134 
L -19 4134 
L -19 4666 
z
" transform="scale(0.015625)"/>
      <path id="DejaVuSans-2f" d="M 1625 4666 
L 2156 4666 
L 531 -594 
L 0 -594 
L 1625 4666 
z
" transform="scale(0.015625)"/>
      <path id="DejaVuSans-52" d="M 2841 2188 
Q 3044 2119 3236 1894 
Q 3428 1669 3622 1275 
L 4263 0 
L 3584 0 
L 2988 1197 
Q 2756 1666 2539 1819 
Q 2322 1972 1947 1972 
L 1259 1972 
L 1259 0 
L 628 0 
L 628 4666 
L 2053 4666 
Q 2853 4666 3247 4331 
Q 3641 3997 3641 3322 
Q 3641 2881 3436 2590 
Q 3231 2300 2841 2188 
z
M 1259 4147 
L 1259 2491 
L 2053 2491 
Q 2509 2491 2742 2702 
Q 2975 2913 2975 3322 
Q 2975 3731 2742 3939 
Q 2509 4147 2053 4147 
L 1259 4147 
z
" transform="scale(0.015625)"/>
      <path id="DejaVuSans-4f" d="M 2522 4238 
Q 1834 4238 1429 3725 
Q 1025 3213 1025 2328 
Q 1025 1447 1429 934 
Q 1834 422 2522 422 
Q 3209 422 3611 934 
Q 4013 1447 4013 2328 
Q 4013 3213 3611 3725 
Q 3209 4238 2522 4238 
z
M 2522 4750 
Q 3503 4750 4090 4092 
Q 4678 3434 4678 2328 
Q 4678 1225 4090 567 
Q 3503 -91 2522 -91 
Q 1538 -91 948 565 
Q 359 1222 359 2328 
Q 359 3434 948 4092 
Q 1538 4750 2522 4750 
z
" transform="scale(0.015625)"/>
      <path id="DejaVuSans-26" d="M 1556 2509 
Q 1272 2256 1139 2004 
Q 1006 1753 1006 1478 
Q 1006 1022 1337 719 
Q 1669 416 2169 416 
Q 2466 416 2725 514 
Q 2984 613 3213 813 
L 1556 2509 
z
M 1997 2859 
L 3584 1234 
Q 3769 1513 3872 1830 
Q 3975 2147 3994 2503 
L 4575 2503 
Q 4538 2091 4375 1687 
Q 4213 1284 3922 891 
L 4794 0 
L 4006 0 
L 3559 459 
Q 3234 181 2878 45 
Q 2522 -91 2113 -91 
Q 1359 -91 881 339 
Q 403 769 403 1441 
Q 403 1841 612 2192 
Q 822 2544 1241 2853 
Q 1091 3050 1012 3245 
Q 934 3441 934 3628 
Q 934 4134 1281 4442 
Q 1628 4750 2203 4750 
Q 2463 4750 2720 4694 
Q 2978 4638 3244 4525 
L 3244 3956 
Q 2972 4103 2725 4179 
Q 2478 4256 2266 4256 
Q 1938 4256 1733 4082 
Q 1528 3909 1528 3634 
Q 1528 3475 1620 3314 
Q 1713 3153 1997 2859 
z
" transform="scale(0.015625)"/>
      <path id="DejaVuSans-49" d="M 628 4666 
L 1259 4666 
L 1259 0 
L 628 0 
L 628 4666 
z
" transform="scale(0.015625)"/>
      <path id="DejaVuSans-58" d="M 403 4666 
L 1081 4666 
L 2241 2931 
L 3406 4666 
L 4084 4666 
L 2584 2425 
L 4184 0 
L 3506 0 
L 2194 1984 
L 872 0 
L 191 0 
L 1856 2491 
L 403 4666 
z
" transform="scale(0.015625)"/>
     </defs>
     <use xlink:href="#DejaVuSans-56"/>
     <use xlink:href="#DejaVuSans-6f" x="60.658203"/>
     <use xlink:href="#DejaVuSans-6c" x="121.839844"/>
     <use xlink:href="#DejaVuSans-61" x="149.623047"/>
     <use xlink:href="#DejaVuSans-74" x="210.902344"/>
     <use xlink:href="#DejaVuSans-69" x="250.111328"/>
     <use xlink:href="#DejaVuSans-6c" x="277.894531"/>
     <use xlink:href="#DejaVuSans-69" x="305.677734"/>
     <use xlink:href="#DejaVuSans-74" x="333.460938"/>
     <use xlink:href="#DejaVuSans-79" x="372.669922"/>
     <use xlink:href="#DejaVuSans-20" x="431.849609"/>
     <use xlink:href="#DejaVuSans-50" x="463.636719"/>
     <use xlink:href="#DejaVuSans-72" x="522.189453"/>
     <use xlink:href="#DejaVuSans-65" x="561.052734"/>
     <use xlink:href="#DejaVuSans-64" x="622.576172"/>
     <use xlink:href="#DejaVuSans-69" x="686.052734"/>
     <use xlink:href="#DejaVuSans-63" x="713.835938"/>
     <use xlink:href="#DejaVuSans-74" x="768.816406"/>
     <use xlink:href="#DejaVuSans-69" x="808.025391"/>
     <use xlink:href="#DejaVuSans-6f" x="835.808594"/>
     <use xlink:href="#DejaVuSans-6e" x="896.990234"/>
     <use xlink:href="#DejaVuSans-20" x="960.369141"/>
     <use xlink:href="#DejaVuSans-77" x="992.15625"/>
     <use xlink:href="#DejaVuSans-69" x="1073.943359"/>
     <use xlink:href="#DejaVuSans-74" x="1101.726562"/>
     <use xlink:href="#DejaVuSans-68" x="1140.935547"/>
     <use xlink:href="#DejaVuSans-20" x="1204.314453"/>
     <use xlink:href="#DejaVuSans-4d" x="1236.101562"/>
     <use xlink:href="#DejaVuSans-69" x="1322.380859"/>
     <use xlink:href="#DejaVuSans-6e" x="1350.164062"/>
     <use xlink:href="#DejaVuSans-69" x="1413.542969"/>
     <use xlink:href="#DejaVuSans-20" x="1441.326172"/>
     <use xlink:href="#DejaVuSans-4c" x="1473.113281"/>
     <use xlink:href="#DejaVuSans-53" x="1528.826172"/>
     <use xlink:href="#DejaVuSans-54" x="1592.302734"/>
     <use xlink:href="#DejaVuSans-4d" x="1653.386719"/>
     <use xlink:href="#DejaVuSans-20" x="1739.666016"/>
     <use xlink:href="#DejaVuSans-77" x="1771.453125"/>
     <use xlink:href="#DejaVuSans-2f" x="1853.240234"/>
     <use xlink:href="#DejaVuSans-20" x="1886.931641"/>
     <use xlink:href="#DejaVuSans-52" x="1918.71875"/>
     <use xlink:href="#DejaVuSans-56" x="1982.701172"/>
     <use xlink:href="#DejaVuSans-4f" x="2049.359375"/>
     <use xlink:href="#DejaVuSans-4c" x="2128.070312"/>
     <use xlink:href="#DejaVuSans-20" x="2183.783203"/>
     <use xlink:href="#DejaVuSans-26" x="2215.570312"/>
     <use xlink:href="#DejaVuSans-20" x="2293.548828"/>
     <use xlink:href="#DejaVuSans-56" x="2325.335938"/>
     <use xlink:href="#DejaVuSans-49" x="2393.744141"/>
     <use xlink:href="#DejaVuSans-58" x="2423.236328"/>
    </g>
   </g>
   <g id="legend_1">
    <g id="patch_7">
     <path d="M 513.823437 89.19625 
L 770.6 89.19625 
Q 772.6 89.19625 772.6 87.19625 
L 772.6 58.84 
Q 772.6 56.84 770.6 56.84 
L 513.823437 56.84 
Q 511.823437 56.84 511.823437 58.84 
L 511.823437 87.19625 
Q 511.823437 89.19625 513.823437 89.19625 
z
" style="fill: #ffffff; opacity: 0.8; stroke: #cccccc; stroke-linejoin: miter"/>
    </g>
    <g id="line2d_19">
     <path d="M 515.823437 64.938437 
L 525.823437 64.938437 
L 535.823437 64.938437 
" style="fill: none; stroke: #000000; stroke-width: 1.5; stroke-linecap: square"/>
    </g>
    <g id="text_20">
     <!-- Absolute Returns -->
     <g transform="translate(543.823437 68.438437) scale(0.1 -0.1)">
      <defs>
       <path id="DejaVuSans-41" d="M 2188 4044 
L 1331 1722 
L 3047 1722 
L 2188 4044 
z
M 1831 4666 
L 2547 4666 
L 4325 0 
L 3669 0 
L 3244 1197 
L 1141 1197 
L 716 0 
L 50 0 
L 1831 4666 
z
" transform="scale(0.015625)"/>
       <path id="DejaVuSans-62" d="M 3116 1747 
Q 3116 2381 2855 2742 
Q 2594 3103 2138 3103 
Q 1681 3103 1420 2742 
Q 1159 2381 1159 1747 
Q 1159 1113 1420 752 
Q 1681 391 2138 391 
Q 2594 391 2855 752 
Q 3116 1113 3116 1747 
z
M 1159 2969 
Q 1341 3281 1617 3432 
Q 1894 3584 2278 3584 
Q 2916 3584 3314 3078 
Q 3713 2572 3713 1747 
Q 3713 922 3314 415 
Q 2916 -91 2278 -91 
Q 1894 -91 1617 61 
Q 1341 213 1159 525 
L 1159 0 
L 581 0 
L 581 4863 
L 1159 4863 
L 1159 2969 
z
" transform="scale(0.015625)"/>
       <path id="DejaVuSans-73" d="M 2834 3397 
L 2834 2853 
Q 2591 2978 2328 3040 
Q 2066 3103 1784 3103 
Q 1356 3103 1142 2972 
Q 928 2841 928 2578 
Q 928 2378 1081 2264 
Q 1234 2150 1697 2047 
L 1894 2003 
Q 2506 1872 2764 1633 
Q 3022 1394 3022 966 
Q 3022 478 2636 193 
Q 2250 -91 1575 -91 
Q 1294 -91 989 -36 
Q 684 19 347 128 
L 347 722 
Q 666 556 975 473 
Q 1284 391 1588 391 
Q 1994 391 2212 530 
Q 2431 669 2431 922 
Q 2431 1156 2273 1281 
Q 2116 1406 1581 1522 
L 1381 1569 
Q 847 1681 609 1914 
Q 372 2147 372 2553 
Q 372 3047 722 3315 
Q 1072 3584 1716 3584 
Q 2034 3584 2315 3537 
Q 2597 3491 2834 3397 
z
" transform="scale(0.015625)"/>
       <path id="DejaVuSans-75" d="M 544 1381 
L 544 3500 
L 1119 3500 
L 1119 1403 
Q 1119 906 1312 657 
Q 1506 409 1894 409 
Q 2359 409 2629 706 
Q 2900 1003 2900 1516 
L 2900 3500 
L 3475 3500 
L 3475 0 
L 2900 0 
L 2900 538 
Q 2691 219 2414 64 
Q 2138 -91 1772 -91 
Q 1169 -91 856 284 
Q 544 659 544 1381 
z
M 1991 3584 
L 1991 3584 
z
" transform="scale(0.015625)"/>
      </defs>
      <use xlink:href="#DejaVuSans-41"/>
      <use xlink:href="#DejaVuSans-62" x="68.408203"/>
      <use xlink:href="#DejaVuSans-73" x="131.884766"/>
      <use xlink:href="#DejaVuSans-6f" x="183.984375"/>
      <use xlink:href="#DejaVuSans-6c" x="245.166016"/>
      <use xlink:href="#DejaVuSans-75" x="272.949219"/>
      <use xlink:href="#DejaVuSans-74" x="336.328125"/>
      <use xlink:href="#DejaVuSans-65" x="375.537109"/>
      <use xlink:href="#DejaVuSans-20" x="437.060547"/>
      <use xlink:href="#DejaVuSans-52" x="468.847656"/>
      <use xlink:href="#DejaVuSans-65" x="533.830078"/>
      <use xlink:href="#DejaVuSans-74" x="595.353516"/>
      <use xlink:href="#DejaVuSans-75" x="634.5625"/>
      <use xlink:href="#DejaVuSans-72" x="697.941406"/>
      <use xlink:href="#DejaVuSans-6e" x="737.304688"/>
      <use xlink:href="#DejaVuSans-73" x="800.683594"/>
     </g>
    </g>
    <g id="line2d_20">
     <path d="M 515.823437 79.616562 
L 525.823437 79.616562 
L 535.823437 79.616562 
" style="fill: none; stroke: #1f77b4; stroke-width: 1.5; stroke-linecap: square"/>
    </g>
    <g id="text_21">
     <!-- Mini LSTM w/ RVOL &amp; VIX Volatility Prediction -->
     <g transform="translate(543.823437 83.116562) scale(0.1 -0.1)">
      <use xlink:href="#DejaVuSans-4d"/>
      <use xlink:href="#DejaVuSans-69" x="86.279297"/>
      <use xlink:href="#DejaVuSans-6e" x="114.0625"/>
      <use xlink:href="#DejaVuSans-69" x="177.441406"/>
      <use xlink:href="#DejaVuSans-20" x="205.224609"/>
      <use xlink:href="#DejaVuSans-4c" x="237.011719"/>
      <use xlink:href="#DejaVuSans-53" x="292.724609"/>
      <use xlink:href="#DejaVuSans-54" x="356.201172"/>
      <use xlink:href="#DejaVuSans-4d" x="417.285156"/>
      <use xlink:href="#DejaVuSans-20" x="503.564453"/>
      <use xlink:href="#DejaVuSans-77" x="535.351562"/>
      <use xlink:href="#DejaVuSans-2f" x="617.138672"/>
      <use xlink:href="#DejaVuSans-20" x="650.830078"/>
      <use xlink:href="#DejaVuSans-52" x="682.617188"/>
      <use xlink:href="#DejaVuSans-56" x="746.599609"/>
      <use xlink:href="#DejaVuSans-4f" x="813.257812"/>
      <use xlink:href="#DejaVuSans-4c" x="891.96875"/>
      <use xlink:href="#DejaVuSans-20" x="947.681641"/>
      <use xlink:href="#DejaVuSans-26" x="979.46875"/>
      <use xlink:href="#DejaVuSans-20" x="1057.447266"/>
      <use xlink:href="#DejaVuSans-56" x="1089.234375"/>
      <use xlink:href="#DejaVuSans-49" x="1157.642578"/>
      <use xlink:href="#DejaVuSans-58" x="1187.134766"/>
      <use xlink:href="#DejaVuSans-20" x="1255.640625"/>
      <use xlink:href="#DejaVuSans-56" x="1287.427734"/>
      <use xlink:href="#DejaVuSans-6f" x="1348.085938"/>
      <use xlink:href="#DejaVuSans-6c" x="1409.267578"/>
      <use xlink:href="#DejaVuSans-61" x="1437.050781"/>
      <use xlink:href="#DejaVuSans-74" x="1498.330078"/>
      <use xlink:href="#DejaVuSans-69" x="1537.539062"/>
      <use xlink:href="#DejaVuSans-6c" x="1565.322266"/>
      <use xlink:href="#DejaVuSans-69" x="1593.105469"/>
      <use xlink:href="#DejaVuSans-74" x="1620.888672"/>
      <use xlink:href="#DejaVuSans-79" x="1660.097656"/>
      <use xlink:href="#DejaVuSans-20" x="1719.277344"/>
      <use xlink:href="#DejaVuSans-50" x="1751.064453"/>
      <use xlink:href="#DejaVuSans-72" x="1809.617188"/>
      <use xlink:href="#DejaVuSans-65" x="1848.480469"/>
      <use xlink:href="#DejaVuSans-64" x="1910.003906"/>
      <use xlink:href="#DejaVuSans-69" x="1973.480469"/>
      <use xlink:href="#DejaVuSans-63" x="2001.263672"/>
      <use xlink:href="#DejaVuSans-74" x="2056.244141"/>
      <use xlink:href="#DejaVuSans-69" x="2095.453125"/>
      <use xlink:href="#DejaVuSans-6f" x="2123.236328"/>
      <use xlink:href="#DejaVuSans-6e" x="2184.417969"/>
     </g>
    </g>
   </g>
  </g>
 </g>
 <defs>
  <clipPath id="p82562d18dc">
   <rect x="108" y="51.84" width="669.6" height="332.64"/>
  </clipPath>
 </defs>
</svg>
