<?xml version="1.0" encoding="utf-8" standalone="no"?>
<!DOCTYPE svg PUBLIC "-//W3C//DTD SVG 1.1//EN"
  "http://www.w3.org/Graphics/SVG/1.1/DTD/svg11.dtd">
<svg xmlns:xlink="http://www.w3.org/1999/xlink" width="864pt" height="432pt" viewBox="0 0 864 432" xmlns="http://www.w3.org/2000/svg" version="1.1">
 <metadata>
  <rdf:RDF xmlns:dc="http://purl.org/dc/elements/1.1/" xmlns:cc="http://creativecommons.org/ns#" xmlns:rdf="http://www.w3.org/1999/02/22-rdf-syntax-ns#">
   <cc:Work>
    <dc:type rdf:resource="http://purl.org/dc/dcmitype/StillImage"/>
    <dc:date>2024-11-10T20:33:15.339343</dc:date>
    <dc:format>image/svg+xml</dc:format>
    <dc:creator>
     <cc:Agent>
      <dc:title>Matplotlib v3.6.3, https://matplotlib.org/</dc:title>
     </cc:Agent>
    </dc:creator>
   </cc:Work>
  </rdf:RDF>
 </metadata>
 <defs>
  <style type="text/css">*{stroke-linejoin: round; stroke-linecap: butt}</style>
 </defs>
 <g id="figure_1">
  <g id="patch_1">
   <path d="M 0 432 
L 864 432 
L 864 0 
L 0 0 
z
" style="fill: #ffffff"/>
  </g>
  <g id="axes_1">
   <g id="patch_2">
    <path d="M 108 384.48 
L 777.6 384.48 
L 777.6 51.84 
L 108 51.84 
z
" style="fill: #ffffff"/>
   </g>
   <g id="matplotlib.axis_1">
    <g id="xtick_1">
     <g id="line2d_1">
      <defs>
       <path id="me02a5e8bbb" d="M 0 0 
L 0 3.5 
" style="stroke: #000000; stroke-width: 0.8"/>
      </defs>
      <g>
       <use xlink:href="#me02a5e8bbb" x="138.822857" y="384.48" style="stroke: #000000; stroke-width: 0.8"/>
      </g>
     </g>
     <g id="text_1">
      <!-- 2020-07 -->
      <g transform="translate(117.931451 399.078438) scale(0.1 -0.1)">
       <defs>
        <path id="DejaVuSans-32" d="M 1228 531 
L 3431 531 
L 3431 0 
L 469 0 
L 469 531 
Q 828 903 1448 1529 
Q 2069 2156 2228 2338 
Q 2531 2678 2651 2914 
Q 2772 3150 2772 3378 
Q 2772 3750 2511 3984 
Q 2250 4219 1831 4219 
Q 1534 4219 1204 4116 
Q 875 4013 500 3803 
L 500 4441 
Q 881 4594 1212 4672 
Q 1544 4750 1819 4750 
Q 2544 4750 2975 4387 
Q 3406 4025 3406 3419 
Q 3406 3131 3298 2873 
Q 3191 2616 2906 2266 
Q 2828 2175 2409 1742 
Q 1991 1309 1228 531 
z
" transform="scale(0.015625)"/>
        <path id="DejaVuSans-30" d="M 2034 4250 
Q 1547 4250 1301 3770 
Q 1056 3291 1056 2328 
Q 1056 1369 1301 889 
Q 1547 409 2034 409 
Q 2525 409 2770 889 
Q 3016 1369 3016 2328 
Q 3016 3291 2770 3770 
Q 2525 4250 2034 4250 
z
M 2034 4750 
Q 2819 4750 3233 4129 
Q 3647 3509 3647 2328 
Q 3647 1150 3233 529 
Q 2819 -91 2034 -91 
Q 1250 -91 836 529 
Q 422 1150 422 2328 
Q 422 3509 836 4129 
Q 1250 4750 2034 4750 
z
" transform="scale(0.015625)"/>
        <path id="DejaVuSans-2d" d="M 313 2009 
L 1997 2009 
L 1997 1497 
L 313 1497 
L 313 2009 
z
" transform="scale(0.015625)"/>
        <path id="DejaVuSans-37" d="M 525 4666 
L 3525 4666 
L 3525 4397 
L 1831 0 
L 1172 0 
L 2766 4134 
L 525 4134 
L 525 4666 
z
" transform="scale(0.015625)"/>
       </defs>
       <use xlink:href="#DejaVuSans-32"/>
       <use xlink:href="#DejaVuSans-30" x="63.623047"/>
       <use xlink:href="#DejaVuSans-32" x="127.246094"/>
       <use xlink:href="#DejaVuSans-30" x="190.869141"/>
       <use xlink:href="#DejaVuSans-2d" x="254.492188"/>
       <use xlink:href="#DejaVuSans-30" x="290.576172"/>
       <use xlink:href="#DejaVuSans-37" x="354.199219"/>
      </g>
     </g>
    </g>
    <g id="xtick_2">
     <g id="line2d_2">
      <g>
       <use xlink:href="#me02a5e8bbb" x="209.937662" y="384.48" style="stroke: #000000; stroke-width: 0.8"/>
      </g>
     </g>
     <g id="text_2">
      <!-- 2021-01 -->
      <g transform="translate(189.046256 399.078438) scale(0.1 -0.1)">
       <defs>
        <path id="DejaVuSans-31" d="M 794 531 
L 1825 531 
L 1825 4091 
L 703 3866 
L 703 4441 
L 1819 4666 
L 2450 4666 
L 2450 531 
L 3481 531 
L 3481 0 
L 794 0 
L 794 531 
z
" transform="scale(0.015625)"/>
       </defs>
       <use xlink:href="#DejaVuSans-32"/>
       <use xlink:href="#DejaVuSans-30" x="63.623047"/>
       <use xlink:href="#DejaVuSans-32" x="127.246094"/>
       <use xlink:href="#DejaVuSans-31" x="190.869141"/>
       <use xlink:href="#DejaVuSans-2d" x="254.492188"/>
       <use xlink:href="#DejaVuSans-30" x="290.576172"/>
       <use xlink:href="#DejaVuSans-31" x="354.199219"/>
      </g>
     </g>
    </g>
    <g id="xtick_3">
     <g id="line2d_3">
      <g>
       <use xlink:href="#me02a5e8bbb" x="279.892987" y="384.48" style="stroke: #000000; stroke-width: 0.8"/>
      </g>
     </g>
     <g id="text_3">
      <!-- 2021-07 -->
      <g transform="translate(259.001581 399.078438) scale(0.1 -0.1)">
       <use xlink:href="#DejaVuSans-32"/>
       <use xlink:href="#DejaVuSans-30" x="63.623047"/>
       <use xlink:href="#DejaVuSans-32" x="127.246094"/>
       <use xlink:href="#DejaVuSans-31" x="190.869141"/>
       <use xlink:href="#DejaVuSans-2d" x="254.492188"/>
       <use xlink:href="#DejaVuSans-30" x="290.576172"/>
       <use xlink:href="#DejaVuSans-37" x="354.199219"/>
      </g>
     </g>
    </g>
    <g id="xtick_4">
     <g id="line2d_4">
      <g>
       <use xlink:href="#me02a5e8bbb" x="351.007792" y="384.48" style="stroke: #000000; stroke-width: 0.8"/>
      </g>
     </g>
     <g id="text_4">
      <!-- 2022-01 -->
      <g transform="translate(330.116386 399.078438) scale(0.1 -0.1)">
       <use xlink:href="#DejaVuSans-32"/>
       <use xlink:href="#DejaVuSans-30" x="63.623047"/>
       <use xlink:href="#DejaVuSans-32" x="127.246094"/>
       <use xlink:href="#DejaVuSans-32" x="190.869141"/>
       <use xlink:href="#DejaVuSans-2d" x="254.492188"/>
       <use xlink:href="#DejaVuSans-30" x="290.576172"/>
       <use xlink:href="#DejaVuSans-31" x="354.199219"/>
      </g>
     </g>
    </g>
    <g id="xtick_5">
     <g id="line2d_5">
      <g>
       <use xlink:href="#me02a5e8bbb" x="420.963117" y="384.48" style="stroke: #000000; stroke-width: 0.8"/>
      </g>
     </g>
     <g id="text_5">
      <!-- 2022-07 -->
      <g transform="translate(400.071711 399.078438) scale(0.1 -0.1)">
       <use xlink:href="#DejaVuSans-32"/>
       <use xlink:href="#DejaVuSans-30" x="63.623047"/>
       <use xlink:href="#DejaVuSans-32" x="127.246094"/>
       <use xlink:href="#DejaVuSans-32" x="190.869141"/>
       <use xlink:href="#DejaVuSans-2d" x="254.492188"/>
       <use xlink:href="#DejaVuSans-30" x="290.576172"/>
       <use xlink:href="#DejaVuSans-37" x="354.199219"/>
      </g>
     </g>
    </g>
    <g id="xtick_6">
     <g id="line2d_6">
      <g>
       <use xlink:href="#me02a5e8bbb" x="492.077922" y="384.48" style="stroke: #000000; stroke-width: 0.8"/>
      </g>
     </g>
     <g id="text_6">
      <!-- 2023-01 -->
      <g transform="translate(471.186516 399.078438) scale(0.1 -0.1)">
       <defs>
        <path id="DejaVuSans-33" d="M 2597 2516 
Q 3050 2419 3304 2112 
Q 3559 1806 3559 1356 
Q 3559 666 3084 287 
Q 2609 -91 1734 -91 
Q 1441 -91 1130 -33 
Q 819 25 488 141 
L 488 750 
Q 750 597 1062 519 
Q 1375 441 1716 441 
Q 2309 441 2620 675 
Q 2931 909 2931 1356 
Q 2931 1769 2642 2001 
Q 2353 2234 1838 2234 
L 1294 2234 
L 1294 2753 
L 1863 2753 
Q 2328 2753 2575 2939 
Q 2822 3125 2822 3475 
Q 2822 3834 2567 4026 
Q 2313 4219 1838 4219 
Q 1578 4219 1281 4162 
Q 984 4106 628 3988 
L 628 4550 
Q 988 4650 1302 4700 
Q 1616 4750 1894 4750 
Q 2613 4750 3031 4423 
Q 3450 4097 3450 3541 
Q 3450 3153 3228 2886 
Q 3006 2619 2597 2516 
z
" transform="scale(0.015625)"/>
       </defs>
       <use xlink:href="#DejaVuSans-32"/>
       <use xlink:href="#DejaVuSans-30" x="63.623047"/>
       <use xlink:href="#DejaVuSans-32" x="127.246094"/>
       <use xlink:href="#DejaVuSans-33" x="190.869141"/>
       <use xlink:href="#DejaVuSans-2d" x="254.492188"/>
       <use xlink:href="#DejaVuSans-30" x="290.576172"/>
       <use xlink:href="#DejaVuSans-31" x="354.199219"/>
      </g>
     </g>
    </g>
    <g id="xtick_7">
     <g id="line2d_7">
      <g>
       <use xlink:href="#me02a5e8bbb" x="562.033247" y="384.48" style="stroke: #000000; stroke-width: 0.8"/>
      </g>
     </g>
     <g id="text_7">
      <!-- 2023-07 -->
      <g transform="translate(541.141841 399.078438) scale(0.1 -0.1)">
       <use xlink:href="#DejaVuSans-32"/>
       <use xlink:href="#DejaVuSans-30" x="63.623047"/>
       <use xlink:href="#DejaVuSans-32" x="127.246094"/>
       <use xlink:href="#DejaVuSans-33" x="190.869141"/>
       <use xlink:href="#DejaVuSans-2d" x="254.492188"/>
       <use xlink:href="#DejaVuSans-30" x="290.576172"/>
       <use xlink:href="#DejaVuSans-37" x="354.199219"/>
      </g>
     </g>
    </g>
    <g id="xtick_8">
     <g id="line2d_8">
      <g>
       <use xlink:href="#me02a5e8bbb" x="633.148052" y="384.48" style="stroke: #000000; stroke-width: 0.8"/>
      </g>
     </g>
     <g id="text_8">
      <!-- 2024-01 -->
      <g transform="translate(612.256646 399.078438) scale(0.1 -0.1)">
       <defs>
        <path id="DejaVuSans-34" d="M 2419 4116 
L 825 1625 
L 2419 1625 
L 2419 4116 
z
M 2253 4666 
L 3047 4666 
L 3047 1625 
L 3713 1625 
L 3713 1100 
L 3047 1100 
L 3047 0 
L 2419 0 
L 2419 1100 
L 313 1100 
L 313 1709 
L 2253 4666 
z
" transform="scale(0.015625)"/>
       </defs>
       <use xlink:href="#DejaVuSans-32"/>
       <use xlink:href="#DejaVuSans-30" x="63.623047"/>
       <use xlink:href="#DejaVuSans-32" x="127.246094"/>
       <use xlink:href="#DejaVuSans-34" x="190.869141"/>
       <use xlink:href="#DejaVuSans-2d" x="254.492188"/>
       <use xlink:href="#DejaVuSans-30" x="290.576172"/>
       <use xlink:href="#DejaVuSans-31" x="354.199219"/>
      </g>
     </g>
    </g>
    <g id="xtick_9">
     <g id="line2d_9">
      <g>
       <use xlink:href="#me02a5e8bbb" x="703.48987" y="384.48" style="stroke: #000000; stroke-width: 0.8"/>
      </g>
     </g>
     <g id="text_9">
      <!-- 2024-07 -->
      <g transform="translate(682.598464 399.078438) scale(0.1 -0.1)">
       <use xlink:href="#DejaVuSans-32"/>
       <use xlink:href="#DejaVuSans-30" x="63.623047"/>
       <use xlink:href="#DejaVuSans-32" x="127.246094"/>
       <use xlink:href="#DejaVuSans-34" x="190.869141"/>
       <use xlink:href="#DejaVuSans-2d" x="254.492188"/>
       <use xlink:href="#DejaVuSans-30" x="290.576172"/>
       <use xlink:href="#DejaVuSans-37" x="354.199219"/>
      </g>
     </g>
    </g>
    <g id="xtick_10">
     <g id="line2d_10">
      <g>
       <use xlink:href="#me02a5e8bbb" x="774.604675" y="384.48" style="stroke: #000000; stroke-width: 0.8"/>
      </g>
     </g>
     <g id="text_10">
      <!-- 2025-01 -->
      <g transform="translate(753.713269 399.078438) scale(0.1 -0.1)">
       <defs>
        <path id="DejaVuSans-35" d="M 691 4666 
L 3169 4666 
L 3169 4134 
L 1269 4134 
L 1269 2991 
Q 1406 3038 1543 3061 
Q 1681 3084 1819 3084 
Q 2600 3084 3056 2656 
Q 3513 2228 3513 1497 
Q 3513 744 3044 326 
Q 2575 -91 1722 -91 
Q 1428 -91 1123 -41 
Q 819 9 494 109 
L 494 744 
Q 775 591 1075 516 
Q 1375 441 1709 441 
Q 2250 441 2565 725 
Q 2881 1009 2881 1497 
Q 2881 1984 2565 2268 
Q 2250 2553 1709 2553 
Q 1456 2553 1204 2497 
Q 953 2441 691 2322 
L 691 4666 
z
" transform="scale(0.015625)"/>
       </defs>
       <use xlink:href="#DejaVuSans-32"/>
       <use xlink:href="#DejaVuSans-30" x="63.623047"/>
       <use xlink:href="#DejaVuSans-32" x="127.246094"/>
       <use xlink:href="#DejaVuSans-35" x="190.869141"/>
       <use xlink:href="#DejaVuSans-2d" x="254.492188"/>
       <use xlink:href="#DejaVuSans-30" x="290.576172"/>
       <use xlink:href="#DejaVuSans-31" x="354.199219"/>
      </g>
     </g>
    </g>
    <g id="text_11">
     <!-- Date -->
     <g transform="translate(430.849219 412.756563) scale(0.1 -0.1)">
      <defs>
       <path id="DejaVuSans-44" d="M 1259 4147 
L 1259 519 
L 2022 519 
Q 2988 519 3436 956 
Q 3884 1394 3884 2338 
Q 3884 3275 3436 3711 
Q 2988 4147 2022 4147 
L 1259 4147 
z
M 628 4666 
L 1925 4666 
Q 3281 4666 3915 4102 
Q 4550 3538 4550 2338 
Q 4550 1131 3912 565 
Q 3275 0 1925 0 
L 628 0 
L 628 4666 
z
" transform="scale(0.015625)"/>
       <path id="DejaVuSans-61" d="M 2194 1759 
Q 1497 1759 1228 1600 
Q 959 1441 959 1056 
Q 959 750 1161 570 
Q 1363 391 1709 391 
Q 2188 391 2477 730 
Q 2766 1069 2766 1631 
L 2766 1759 
L 2194 1759 
z
M 3341 1997 
L 3341 0 
L 2766 0 
L 2766 531 
Q 2569 213 2275 61 
Q 1981 -91 1556 -91 
Q 1019 -91 701 211 
Q 384 513 384 1019 
Q 384 1609 779 1909 
Q 1175 2209 1959 2209 
L 2766 2209 
L 2766 2266 
Q 2766 2663 2505 2880 
Q 2244 3097 1772 3097 
Q 1472 3097 1187 3025 
Q 903 2953 641 2809 
L 641 3341 
Q 956 3463 1253 3523 
Q 1550 3584 1831 3584 
Q 2591 3584 2966 3190 
Q 3341 2797 3341 1997 
z
" transform="scale(0.015625)"/>
       <path id="DejaVuSans-74" d="M 1172 4494 
L 1172 3500 
L 2356 3500 
L 2356 3053 
L 1172 3053 
L 1172 1153 
Q 1172 725 1289 603 
Q 1406 481 1766 481 
L 2356 481 
L 2356 0 
L 1766 0 
Q 1100 0 847 248 
Q 594 497 594 1153 
L 594 3053 
L 172 3053 
L 172 3500 
L 594 3500 
L 594 4494 
L 1172 4494 
z
" transform="scale(0.015625)"/>
       <path id="DejaVuSans-65" d="M 3597 1894 
L 3597 1613 
L 953 1613 
Q 991 1019 1311 708 
Q 1631 397 2203 397 
Q 2534 397 2845 478 
Q 3156 559 3463 722 
L 3463 178 
Q 3153 47 2828 -22 
Q 2503 -91 2169 -91 
Q 1331 -91 842 396 
Q 353 884 353 1716 
Q 353 2575 817 3079 
Q 1281 3584 2069 3584 
Q 2775 3584 3186 3129 
Q 3597 2675 3597 1894 
z
M 3022 2063 
Q 3016 2534 2758 2815 
Q 2500 3097 2075 3097 
Q 1594 3097 1305 2825 
Q 1016 2553 972 2059 
L 3022 2063 
z
" transform="scale(0.015625)"/>
      </defs>
      <use xlink:href="#DejaVuSans-44"/>
      <use xlink:href="#DejaVuSans-61" x="77.001953"/>
      <use xlink:href="#DejaVuSans-74" x="138.28125"/>
      <use xlink:href="#DejaVuSans-65" x="177.490234"/>
     </g>
    </g>
   </g>
   <g id="matplotlib.axis_2">
    <g id="ytick_1">
     <g id="line2d_11">
      <defs>
       <path id="mfcde99fc99" d="M 0 0 
L -3.5 0 
" style="stroke: #000000; stroke-width: 0.8"/>
      </defs>
      <g>
       <use xlink:href="#mfcde99fc99" x="108" y="369.392416" style="stroke: #000000; stroke-width: 0.8"/>
      </g>
     </g>
     <g id="text_12">
      <!-- 0.00 -->
      <g transform="translate(78.734375 373.191635) scale(0.1 -0.1)">
       <defs>
        <path id="DejaVuSans-2e" d="M 684 794 
L 1344 794 
L 1344 0 
L 684 0 
L 684 794 
z
" transform="scale(0.015625)"/>
       </defs>
       <use xlink:href="#DejaVuSans-30"/>
       <use xlink:href="#DejaVuSans-2e" x="63.623047"/>
       <use xlink:href="#DejaVuSans-30" x="95.410156"/>
       <use xlink:href="#DejaVuSans-30" x="159.033203"/>
      </g>
     </g>
    </g>
    <g id="ytick_2">
     <g id="line2d_12">
      <g>
       <use xlink:href="#mfcde99fc99" x="108" y="313.337108" style="stroke: #000000; stroke-width: 0.8"/>
      </g>
     </g>
     <g id="text_13">
      <!-- 0.01 -->
      <g transform="translate(78.734375 317.136327) scale(0.1 -0.1)">
       <use xlink:href="#DejaVuSans-30"/>
       <use xlink:href="#DejaVuSans-2e" x="63.623047"/>
       <use xlink:href="#DejaVuSans-30" x="95.410156"/>
       <use xlink:href="#DejaVuSans-31" x="159.033203"/>
      </g>
     </g>
    </g>
    <g id="ytick_3">
     <g id="line2d_13">
      <g>
       <use xlink:href="#mfcde99fc99" x="108" y="257.2818" style="stroke: #000000; stroke-width: 0.8"/>
      </g>
     </g>
     <g id="text_14">
      <!-- 0.02 -->
      <g transform="translate(78.734375 261.081019) scale(0.1 -0.1)">
       <use xlink:href="#DejaVuSans-30"/>
       <use xlink:href="#DejaVuSans-2e" x="63.623047"/>
       <use xlink:href="#DejaVuSans-30" x="95.410156"/>
       <use xlink:href="#DejaVuSans-32" x="159.033203"/>
      </g>
     </g>
    </g>
    <g id="ytick_4">
     <g id="line2d_14">
      <g>
       <use xlink:href="#mfcde99fc99" x="108" y="201.226493" style="stroke: #000000; stroke-width: 0.8"/>
      </g>
     </g>
     <g id="text_15">
      <!-- 0.03 -->
      <g transform="translate(78.734375 205.025711) scale(0.1 -0.1)">
       <use xlink:href="#DejaVuSans-30"/>
       <use xlink:href="#DejaVuSans-2e" x="63.623047"/>
       <use xlink:href="#DejaVuSans-30" x="95.410156"/>
       <use xlink:href="#DejaVuSans-33" x="159.033203"/>
      </g>
     </g>
    </g>
    <g id="ytick_5">
     <g id="line2d_15">
      <g>
       <use xlink:href="#mfcde99fc99" x="108" y="145.171185" style="stroke: #000000; stroke-width: 0.8"/>
      </g>
     </g>
     <g id="text_16">
      <!-- 0.04 -->
      <g transform="translate(78.734375 148.970403) scale(0.1 -0.1)">
       <use xlink:href="#DejaVuSans-30"/>
       <use xlink:href="#DejaVuSans-2e" x="63.623047"/>
       <use xlink:href="#DejaVuSans-30" x="95.410156"/>
       <use xlink:href="#DejaVuSans-34" x="159.033203"/>
      </g>
     </g>
    </g>
    <g id="ytick_6">
     <g id="line2d_16">
      <g>
       <use xlink:href="#mfcde99fc99" x="108" y="89.115877" style="stroke: #000000; stroke-width: 0.8"/>
      </g>
     </g>
     <g id="text_17">
      <!-- 0.05 -->
      <g transform="translate(78.734375 92.915095) scale(0.1 -0.1)">
       <use xlink:href="#DejaVuSans-30"/>
       <use xlink:href="#DejaVuSans-2e" x="63.623047"/>
       <use xlink:href="#DejaVuSans-30" x="95.410156"/>
       <use xlink:href="#DejaVuSans-35" x="159.033203"/>
      </g>
     </g>
    </g>
    <g id="text_18">
     <!-- Volatility -->
     <g transform="translate(72.654687 239.752187) rotate(-90) scale(0.1 -0.1)">
      <defs>
       <path id="DejaVuSans-56" d="M 1831 0 
L 50 4666 
L 709 4666 
L 2188 738 
L 3669 4666 
L 4325 4666 
L 2547 0 
L 1831 0 
z
" transform="scale(0.015625)"/>
       <path id="DejaVuSans-6f" d="M 1959 3097 
Q 1497 3097 1228 2736 
Q 959 2375 959 1747 
Q 959 1119 1226 758 
Q 1494 397 1959 397 
Q 2419 397 2687 759 
Q 2956 1122 2956 1747 
Q 2956 2369 2687 2733 
Q 2419 3097 1959 3097 
z
M 1959 3584 
Q 2709 3584 3137 3096 
Q 3566 2609 3566 1747 
Q 3566 888 3137 398 
Q 2709 -91 1959 -91 
Q 1206 -91 779 398 
Q 353 888 353 1747 
Q 353 2609 779 3096 
Q 1206 3584 1959 3584 
z
" transform="scale(0.015625)"/>
       <path id="DejaVuSans-6c" d="M 603 4863 
L 1178 4863 
L 1178 0 
L 603 0 
L 603 4863 
z
" transform="scale(0.015625)"/>
       <path id="DejaVuSans-69" d="M 603 3500 
L 1178 3500 
L 1178 0 
L 603 0 
L 603 3500 
z
M 603 4863 
L 1178 4863 
L 1178 4134 
L 603 4134 
L 603 4863 
z
" transform="scale(0.015625)"/>
       <path id="DejaVuSans-79" d="M 2059 -325 
Q 1816 -950 1584 -1140 
Q 1353 -1331 966 -1331 
L 506 -1331 
L 506 -850 
L 844 -850 
Q 1081 -850 1212 -737 
Q 1344 -625 1503 -206 
L 1606 56 
L 191 3500 
L 800 3500 
L 1894 763 
L 2988 3500 
L 3597 3500 
L 2059 -325 
z
" transform="scale(0.015625)"/>
      </defs>
      <use xlink:href="#DejaVuSans-56"/>
      <use xlink:href="#DejaVuSans-6f" x="60.658203"/>
      <use xlink:href="#DejaVuSans-6c" x="121.839844"/>
      <use xlink:href="#DejaVuSans-61" x="149.623047"/>
      <use xlink:href="#DejaVuSans-74" x="210.902344"/>
      <use xlink:href="#DejaVuSans-69" x="250.111328"/>
      <use xlink:href="#DejaVuSans-6c" x="277.894531"/>
      <use xlink:href="#DejaVuSans-69" x="305.677734"/>
      <use xlink:href="#DejaVuSans-74" x="333.460938"/>
      <use xlink:href="#DejaVuSans-79" x="372.669922"/>
     </g>
    </g>
   </g>
   <g id="line2d_17">
    <path d="M 138.436364 283.67068 
L 138.822857 341.311152 
L 139.209351 343.993921 
L 140.755325 281.066455 
L 141.141818 308.418378 
L 141.528312 325.68617 
L 141.914805 337.667403 
L 142.301299 311.028696 
L 143.460779 316.663178 
L 143.847273 294.741878 
L 144.233766 318.712493 
L 144.62026 350.266819 
L 145.006753 353.447133 
L 146.166234 322.464048 
L 146.552727 359.988413 
L 146.939221 337.26919 
L 147.325714 299.904134 
L 147.712208 334.584089 
L 148.871688 328.091265 
L 149.258182 332.987658 
L 149.644675 300.154114 
L 150.031169 348.330747 
L 150.417662 326.559232 
L 151.577143 329.282811 
L 151.963636 349.182105 
L 152.35013 333.46567 
L 152.736623 333.477075 
L 153.123117 365.845073 
L 154.282597 354.041864 
L 155.055584 291.478327 
L 155.442078 357.905155 
L 155.828571 368.42884 
L 156.988052 354.222856 
L 157.374545 356.495545 
L 157.761039 344.648913 
L 158.147532 351.714508 
L 158.534026 350.136298 
L 159.693506 313.372898 
L 160.08 349.269123 
L 160.466494 312.529905 
L 160.852987 360.021952 
L 161.239481 331.779289 
L 162.398961 357.074962 
L 162.785455 327.368698 
L 163.171948 283.913395 
L 163.558442 168.952122 
L 163.944935 323.616078 
L 165.490909 211.603288 
L 165.877403 257.591446 
L 166.263896 269.943315 
L 166.65039 366.405059 
L 167.80987 298.418914 
L 168.196364 340.211223 
L 168.582857 343.440788 
L 169.355844 306.354989 
L 170.515325 304.152087 
L 170.901818 310.741657 
L 171.288312 234.81854 
L 171.674805 352.671087 
L 172.061299 280.542291 
L 173.220779 279.803747 
L 173.607273 342.349751 
L 173.993766 323.315836 
L 174.38026 339.801102 
L 174.766753 315.445837 
L 175.926234 269.540485 
L 176.312727 290.511026 
L 176.699221 272.71291 
L 177.085714 324.670298 
L 177.472208 320.31546 
L 178.631688 278.120192 
L 179.018182 333.926831 
L 179.404675 332.142699 
L 179.791169 360.821989 
L 180.177662 368.636171 
L 181.337143 277.099238 
L 181.723636 342.955639 
L 182.11013 357.070822 
L 182.496623 340.213645 
L 182.883117 350.110296 
L 184.042597 264.207585 
L 184.429091 352.406507 
L 184.815584 168.010683 
L 185.202078 302.81819 
L 185.588571 300.984126 
L 186.748052 300.764179 
L 187.521039 247.14966 
L 187.907532 261.355453 
L 188.294026 367.779244 
L 189.453506 304.188958 
L 189.84 361.540281 
L 190.226494 326.66295 
L 190.612987 313.176505 
L 190.999481 293.613775 
L 192.158961 304.476265 
L 192.545455 342.466538 
L 192.931948 304.193291 
L 193.318442 347.314014 
L 193.704935 331.186556 
L 194.864416 337.888646 
L 195.250909 279.522012 
L 195.637403 360.503883 
L 196.41039 355.972146 
L 197.56987 343.572576 
L 197.956364 306.564791 
L 198.342857 359.361047 
L 198.729351 365.892651 
L 199.115844 320.078033 
L 200.275325 358.53171 
L 200.661818 353.790763 
L 201.048312 324.65492 
L 201.434805 362.184026 
L 201.821299 362.297002 
L 202.980779 344.902995 
L 203.367273 297.425951 
L 203.753766 359.463764 
L 204.14026 337.210201 
L 204.526753 349.676052 
L 205.686234 347.452755 
L 206.459221 365.213307 
L 206.845714 349.602853 
L 208.391688 320.710095 
L 208.778182 356.892793 
L 209.164675 361.877372 
L 209.551169 333.414866 
L 211.097143 286.06748 
L 211.483636 329.830654 
L 211.87013 337.476725 
L 212.256623 286.776714 
L 212.643117 338.691825 
L 213.802597 332.528645 
L 214.189091 367.062236 
L 214.962078 348.312669 
L 215.348571 328.942959 
L 216.894545 323.968253 
L 217.281039 291.815115 
L 217.667532 367.617253 
L 218.054026 352.490882 
L 219.213506 349.160329 
L 219.6 361.04048 
L 219.986494 223.573973 
L 220.372987 314.944166 
L 220.759481 260.082438 
L 221.918961 280.128287 
L 222.305455 292.021844 
L 222.691948 363.740673 
L 223.078442 308.881519 
L 223.464935 347.587335 
L 224.624416 328.067855 
L 225.010909 363.147051 
L 225.397403 367.457134 
L 225.783896 360.08121 
L 226.17039 343.046578 
L 227.716364 366.20042 
L 228.102857 367.596119 
L 228.489351 344.58451 
L 228.875844 358.985095 
L 230.035325 325.877225 
L 230.421818 362.354531 
L 230.808312 306.119068 
L 231.194805 230.468399 
L 231.581299 342.701479 
L 232.740779 237.594156 
L 233.127273 323.910838 
L 233.513766 295.666692 
L 233.90026 293.672694 
L 234.286753 261.158934 
L 235.446234 339.270358 
L 235.832727 290.604498 
L 236.219221 335.690704 
L 236.605714 311.421037 
L 236.992208 363.703457 
L 238.151688 333.119441 
L 238.538182 360.586707 
L 238.924675 353.275223 
L 239.311169 286.035114 
L 239.697662 366.01287 
L 240.857143 330.150565 
L 241.243636 326.453343 
L 241.63013 338.661048 
L 242.016623 340.094681 
L 242.403117 276.932472 
L 243.562597 364.524704 
L 243.949091 351.662992 
L 244.335584 349.122998 
L 244.722078 303.494781 
L 246.268052 289.037194 
L 246.654545 363.932561 
L 247.041039 361.128923 
L 247.814026 326.284246 
L 248.973506 368.293142 
L 249.36 350.955435 
L 249.746494 346.431696 
L 250.132987 307.546116 
L 250.519481 349.199472 
L 251.678961 339.567191 
L 252.065455 331.131422 
L 252.451948 317.468241 
L 252.838442 317.522602 
L 253.224935 308.46366 
L 254.384416 359.410728 
L 254.770909 368.187685 
L 255.157403 364.650764 
L 255.543896 331.610958 
L 255.93039 328.916475 
L 257.08987 354.008949 
L 257.476364 331.831226 
L 257.862857 365.450633 
L 258.249351 323.806525 
L 258.635844 328.212528 
L 259.795325 310.587734 
L 260.181818 320.558403 
L 260.568312 247.848855 
L 260.954805 301.567432 
L 261.341299 286.386954 
L 262.500779 355.192104 
L 262.887273 321.444064 
L 263.273766 352.868706 
L 263.66026 310.537598 
L 264.046753 364.996699 
L 265.206234 314.107939 
L 265.592727 357.466424 
L 265.979221 358.881792 
L 266.365714 362.863944 
L 266.752208 365.084055 
L 268.298182 366.631845 
L 268.684675 361.287412 
L 269.071169 349.014639 
L 269.457662 320.090124 
L 270.617143 364.924516 
L 271.003636 368.411323 
L 271.39013 359.159285 
L 271.776623 343.37456 
L 272.163117 358.481119 
L 273.322597 359.226419 
L 273.709091 358.104392 
L 274.095584 339.096247 
L 274.482078 366.949509 
L 274.868571 295.335713 
L 276.028052 291.446652 
L 276.414545 340.740273 
L 276.801039 363.316744 
L 277.187532 336.91155 
L 277.574026 350.753621 
L 278.733506 356.430768 
L 279.12 367.838069 
L 279.506494 361.95231 
L 279.892987 340.198633 
L 280.279481 327.507355 
L 281.825455 358.047373 
L 282.211948 350.595056 
L 282.598442 321.196676 
L 282.984935 306.527339 
L 284.144416 350.08003 
L 284.530909 349.644097 
L 284.917403 362.866196 
L 285.303896 351.075957 
L 285.69039 326.973076 
L 286.84987 279.721864 
L 287.236364 285.035772 
L 288.009351 358.099216 
L 288.395844 312.8084 
L 289.555325 356.054758 
L 289.941818 342.91428 
L 290.328312 368.348126 
L 290.714805 345.8641 
L 291.101299 339.006486 
L 292.260779 359.052995 
L 292.647273 323.595505 
L 293.033766 343.365151 
L 293.42026 335.829432 
L 293.806753 360.009545 
L 294.966234 364.121282 
L 295.352727 363.830685 
L 295.739221 362.245698 
L 296.125714 346.197835 
L 296.512208 360.38987 
L 297.671688 354.720326 
L 298.444675 308.815339 
L 298.831169 362.352393 
L 299.217662 323.939409 
L 300.377143 321.814486 
L 300.763636 361.014279 
L 301.15013 356.961346 
L 301.923117 320.237137 
L 303.082597 345.303661 
L 303.469091 361.824877 
L 303.855584 367.645593 
L 304.242078 353.480464 
L 304.628571 367.514099 
L 306.174545 350.326019 
L 306.561039 361.996224 
L 307.334026 325.935255 
L 308.493506 356.646001 
L 309.266494 322.091286 
L 309.652987 360.690694 
L 310.039481 318.087022 
L 311.198961 273.408545 
L 311.585455 364.836787 
L 311.971948 316.282331 
L 312.358442 301.780224 
L 312.744935 361.208662 
L 313.904416 353.807695 
L 314.290909 254.06242 
L 314.677403 360.603172 
L 315.063896 302.231313 
L 315.45039 305.343889 
L 316.60987 296.122893 
L 316.996364 310.705284 
L 317.382857 346.441122 
L 317.769351 323.06804 
L 318.155844 358.654605 
L 319.315325 330.773442 
L 319.701818 355.828732 
L 320.088312 352.475175 
L 320.474805 274.551482 
L 320.861299 327.729258 
L 322.020779 350.506821 
L 322.407273 328.101304 
L 322.793766 348.891193 
L 323.18026 352.624 
L 323.566753 363.376936 
L 324.726234 342.839217 
L 325.112727 359.20084 
L 325.499221 341.00401 
L 325.885714 314.563159 
L 326.272208 358.475949 
L 327.431688 359.311147 
L 327.818182 348.799875 
L 328.204675 333.290052 
L 328.591169 345.999211 
L 328.977662 348.507081 
L 330.137143 364.418114 
L 330.523636 349.745525 
L 330.91013 323.091664 
L 331.296623 366.305026 
L 331.683117 329.05108 
L 332.842597 369.332205 
L 333.229091 347.767514 
L 333.615584 354.789899 
L 334.002078 350.450985 
L 334.388571 361.546759 
L 335.548052 351.441963 
L 335.934545 360.11094 
L 336.321039 356.54885 
L 337.094026 240.53795 
L 338.253506 295.882407 
L 338.64 262.083627 
L 339.026494 302.767599 
L 339.412987 290.384435 
L 339.799481 321.832569 
L 340.958961 304.017413 
L 341.345455 254.503655 
L 341.731948 352.124333 
L 342.118442 328.993381 
L 342.504935 316.118775 
L 343.664416 317.943973 
L 344.050909 327.358059 
L 344.437403 278.491575 
L 344.823896 320.165382 
L 345.21039 311.425803 
L 346.36987 305.19006 
L 346.756364 270.613076 
L 347.142857 312.615494 
L 347.529351 334.613486 
L 349.075325 292.349714 
L 349.461818 363.727152 
L 349.848312 361.539507 
L 350.234805 352.608121 
L 350.621299 354.651925 
L 351.780779 333.775839 
L 352.167273 365.861845 
L 352.553766 259.617897 
L 352.94026 363.987343 
L 353.326753 346.642723 
L 354.486234 361.308781 
L 354.872727 318.279563 
L 355.259221 353.619587 
L 355.645714 288.975323 
L 356.032208 364.79789 
L 357.578182 265.358822 
L 357.964675 314.812532 
L 358.351169 307.178057 
L 358.737662 262.349149 
L 359.897143 353.876766 
L 360.283636 300.74376 
L 360.67013 360.996719 
L 361.056623 339.130214 
L 361.443117 234.545989 
L 362.602597 264.513918 
L 362.989091 331.053093 
L 363.375584 316.821435 
L 363.762078 230.972327 
L 364.148571 340.559298 
L 365.308052 348.603812 
L 365.694545 322.495937 
L 366.081039 288.600708 
L 366.467532 266.913084 
L 366.854026 262.036996 
L 368.013506 347.822404 
L 368.4 281.701078 
L 368.786494 364.454881 
L 369.172987 249.431232 
L 369.559481 329.077588 
L 371.105455 312.24558 
L 371.491948 265.220669 
L 371.878442 286.17211 
L 372.264935 245.364 
L 373.424416 355.683528 
L 373.810909 281.977245 
L 374.197403 265.852489 
L 374.583896 339.859567 
L 374.97039 324.740548 
L 376.12987 201.436177 
L 376.516364 328.696081 
L 376.902857 227.159914 
L 377.289351 345.2827 
L 377.675844 296.261179 
L 378.835325 327.638633 
L 379.221818 250.652576 
L 379.608312 245.303179 
L 379.994805 300.600268 
L 380.381299 304.397321 
L 381.540779 366.955437 
L 381.927273 306.382314 
L 382.313766 300.1717 
L 382.70026 289.55828 
L 383.086753 341.065538 
L 384.246234 329.483629 
L 384.632727 301.105566 
L 385.019221 334.001402 
L 385.405714 280.957732 
L 385.792208 350.308839 
L 386.951688 324.220995 
L 387.338182 298.588089 
L 387.724675 314.6576 
L 388.111169 345.600443 
L 388.497662 354.512243 
L 389.657143 273.978801 
L 390.043636 350.202987 
L 390.43013 307.100438 
L 390.816623 300.901348 
L 392.362597 368.243906 
L 392.749091 280.095958 
L 393.135584 365.92442 
L 393.908571 211.69716 
L 395.068052 337.543149 
L 395.454545 209.354491 
L 395.841039 357.644024 
L 396.227532 232.361595 
L 396.614026 162.216741 
L 397.773506 337.66961 
L 398.16 342.34312 
L 398.546494 204.448486 
L 398.932987 165.907856 
L 399.319481 337.494755 
L 400.478961 186.867889 
L 400.865455 355.631583 
L 401.251948 276.339327 
L 401.638442 362.123212 
L 402.024935 237.162069 
L 403.184416 347.226955 
L 403.570909 257.456006 
L 403.957403 138.25498 
L 404.343896 336.595203 
L 404.73039 368.573229 
L 405.88987 266.334748 
L 406.276364 323.685221 
L 406.662857 316.664632 
L 407.049351 259.029806 
L 407.435844 232.386971 
L 408.981818 334.110491 
L 409.368312 327.289837 
L 409.754805 267.017403 
L 410.141299 276.999763 
L 411.300779 351.833064 
L 411.687273 316.261337 
L 412.073766 308.557644 
L 412.46026 234.375107 
L 412.846753 203.791446 
L 414.006234 147.750146 
L 414.392727 348.198928 
L 414.779221 288.184777 
L 415.165714 184.117207 
L 415.552208 357.068904 
L 417.098182 233.836885 
L 417.484675 362.09173 
L 417.871169 316.212322 
L 418.257662 200.634901 
L 419.417143 352.701924 
L 419.803636 255.327241 
L 420.19013 365.401389 
L 420.576623 320.0757 
L 420.963117 310.542681 
L 422.509091 360.519582 
L 422.895584 349.398612 
L 423.282078 286.12947 
L 423.668571 364.73642 
L 424.828052 304.39948 
L 425.214545 317.334563 
L 425.601039 344.353301 
L 425.987532 352.558298 
L 426.374026 262.779571 
L 427.533506 322.313028 
L 427.92 216.622046 
L 428.306494 336.440282 
L 428.692987 314.384897 
L 429.079481 316.833305 
L 430.238961 362.025058 
L 430.625455 304.310196 
L 431.011948 224.657278 
L 431.398442 301.787956 
L 431.784935 290.310854 
L 432.944416 353.545228 
L 433.330909 331.92111 
L 433.717403 282.40881 
L 434.103896 365.033291 
L 434.49039 360.271831 
L 435.64987 362.451104 
L 436.036364 345.525424 
L 436.422857 251.299836 
L 436.809351 365.436485 
L 437.195844 273.122744 
L 438.355325 347.185119 
L 438.741818 358.88803 
L 439.128312 328.673139 
L 439.514805 356.68473 
L 439.901299 296.610675 
L 441.060779 248.131448 
L 441.447273 356.834024 
L 441.833766 353.069631 
L 442.22026 290.952865 
L 442.606753 177.298863 
L 443.766234 331.898848 
L 444.152727 307.230344 
L 444.539221 325.401695 
L 444.925714 352.622054 
L 445.312208 308.883202 
L 446.858182 346.390273 
L 447.244675 267.512707 
L 447.631169 332.45778 
L 448.017662 284.434874 
L 449.177143 310.373666 
L 449.563636 121.632528 
L 449.95013 350.438451 
L 450.336623 305.588756 
L 450.723117 328.9875 
L 451.882597 331.085934 
L 452.269091 305.847419 
L 452.655584 272.614753 
L 453.042078 321.951224 
L 453.428571 271.952449 
L 454.588052 311.126417 
L 454.974545 357.494055 
L 455.361039 260.190262 
L 455.747532 249.698771 
L 456.134026 284.292811 
L 457.293506 226.145466 
L 457.68 200.523886 
L 458.066494 358.069317 
L 458.452987 311.667107 
L 458.839481 210.177434 
L 459.998961 327.235082 
L 460.385455 332.729346 
L 460.771948 350.915403 
L 461.158442 225.698759 
L 461.544935 235.156162 
L 462.704416 222.888904 
L 463.090909 305.698114 
L 463.477403 331.866394 
L 463.863896 324.645194 
L 464.25039 237.955232 
L 465.40987 303.180204 
L 465.796364 278.942889 
L 466.182857 327.826633 
L 466.569351 335.19196 
L 466.955844 233.020726 
L 468.115325 327.449971 
L 468.501818 346.355545 
L 468.888312 227.461187 
L 469.274805 309.736062 
L 469.661299 293.567476 
L 470.820779 315.758351 
L 471.207273 338.100697 
L 471.593766 251.694351 
L 471.98026 66.96 
L 472.366753 317.831014 
L 473.526234 319.07755 
L 474.299221 322.943318 
L 474.685714 352.048432 
L 475.072208 342.781346 
L 476.231688 347.57982 
L 476.618182 293.781529 
L 477.004675 336.335154 
L 477.777662 367.805568 
L 478.937143 282.143995 
L 479.323636 360.462139 
L 479.71013 198.543476 
L 480.096623 364.526814 
L 480.483117 362.691731 
L 481.642597 268.177503 
L 482.029091 288.090499 
L 482.415584 358.943088 
L 482.802078 327.386601 
L 483.188571 328.042027 
L 484.348052 289.915445 
L 484.734545 328.678256 
L 485.121039 335.360633 
L 485.507532 227.922912 
L 485.894026 306.609116 
L 487.053506 318.671723 
L 487.44 363.580606 
L 487.826494 286.662952 
L 488.212987 287.791977 
L 488.599481 336.594688 
L 490.145455 346.646001 
L 490.531948 301.602139 
L 490.918442 272.357209 
L 491.304935 355.132125 
L 492.850909 346.922251 
L 493.623896 303.729923 
L 494.01039 242.798002 
L 495.16987 365.087762 
L 495.942857 297.823413 
L 496.329351 350.277101 
L 496.715844 347.032511 
L 498.261818 357.998888 
L 498.648312 281.469799 
L 499.034805 326.411059 
L 499.421299 264.335402 
L 500.580779 303.183653 
L 500.967273 365.402655 
L 501.353766 368.373631 
L 501.74026 308.024786 
L 502.126753 355.424824 
L 503.286234 296.220147 
L 503.672727 287.908684 
L 504.059221 311.105742 
L 504.445714 287.594362 
L 504.832208 311.04671 
L 505.991688 334.865752 
L 506.378182 297.695667 
L 506.764675 306.93243 
L 507.151169 319.676859 
L 507.537662 357.100243 
L 508.697143 305.581571 
L 509.083636 367.8204 
L 509.47013 353.86883 
L 509.856623 291.561344 
L 510.243117 353.858166 
L 511.789091 255.909657 
L 512.175584 360.564766 
L 512.562078 339.597348 
L 512.948571 310.010325 
L 514.108052 352.192939 
L 514.494545 352.348111 
L 514.881039 342.842034 
L 515.267532 327.050521 
L 515.654026 279.598818 
L 516.813506 365.541845 
L 517.2 282.811689 
L 517.586494 361.467339 
L 517.972987 264.951022 
L 519.518961 360.922978 
L 519.905455 277.784698 
L 520.291948 330.123643 
L 520.678442 271.802496 
L 521.064935 307.279705 
L 522.224416 319.621605 
L 522.997403 276.339277 
L 523.383896 352.687465 
L 523.77039 337.867146 
L 524.92987 360.168012 
L 525.316364 360.563252 
L 525.702857 290.147667 
L 526.089351 337.446528 
L 526.475844 289.04648 
L 527.635325 348.69668 
L 528.021818 336.802715 
L 528.408312 355.403937 
L 528.794805 349.365177 
L 530.340779 363.810313 
L 530.727273 369.160502 
L 531.113766 346.166268 
L 531.50026 295.536773 
L 531.886753 357.780431 
L 533.046234 350.890204 
L 533.432727 364.600492 
L 533.819221 368.92006 
L 534.205714 335.925492 
L 534.592208 364.331822 
L 535.751688 364.620921 
L 536.138182 280.056118 
L 536.524675 347.819053 
L 536.911169 260.772972 
L 537.297662 323.318678 
L 538.457143 367.227617 
L 538.843636 304.066136 
L 539.23013 330.025259 
L 539.616623 328.780871 
L 540.003117 266.776677 
L 541.162597 366.858591 
L 541.549091 343.663366 
L 541.935584 344.313615 
L 542.322078 359.873888 
L 542.708571 360.510161 
L 543.868052 352.834822 
L 544.254545 333.527603 
L 544.641039 303.131205 
L 545.027532 316.696354 
L 545.414026 361.281728 
L 546.573506 368.523435 
L 546.96 306.13138 
L 547.346494 328.216842 
L 547.732987 320.51517 
L 548.119481 296.718512 
L 549.665455 369.299379 
L 550.051948 335.045377 
L 550.824935 288.505655 
L 551.984416 358.149983 
L 552.370909 356.213029 
L 552.757403 347.983218 
L 553.143896 334.808635 
L 553.53039 362.960608 
L 554.68987 317.384458 
L 555.076364 330.666198 
L 555.462857 364.801082 
L 555.849351 301.539817 
L 556.235844 348.773164 
L 557.781818 342.786689 
L 558.168312 339.912343 
L 558.554805 348.629914 
L 558.941299 326.295556 
L 560.100779 344.184653 
L 560.487273 305.541221 
L 560.873766 367.407268 
L 561.26026 344.371848 
L 561.646753 301.036536 
L 562.806234 362.834061 
L 563.579221 358.348098 
L 563.965714 324.805656 
L 564.352208 353.309017 
L 565.511688 355.927142 
L 565.898182 331.725557 
L 566.284675 328.001697 
L 566.671169 322.112766 
L 567.057662 363.647149 
L 568.217143 347.822526 
L 568.603636 329.637544 
L 568.99013 356.190678 
L 569.376623 331.387882 
L 569.763117 367.576022 
L 570.922597 346.824325 
L 571.309091 353.636748 
L 571.695584 368.520983 
L 572.082078 333.262621 
L 572.468571 314.293578 
L 573.628052 361.165517 
L 574.014545 354.433219 
L 574.401039 291.272545 
L 574.787532 355.091443 
L 575.174026 339.603741 
L 576.333506 319.034534 
L 576.72 345.696761 
L 577.106494 329.79711 
L 577.492987 367.987229 
L 577.879481 363.39298 
L 579.038961 337.250288 
L 579.425455 304.266643 
L 579.811948 326.879594 
L 580.198442 325.989868 
L 580.584935 368.558777 
L 581.744416 330.963019 
L 582.130909 353.801598 
L 582.517403 307.819363 
L 582.903896 293.441105 
L 583.29039 331.860582 
L 584.44987 334.385433 
L 584.836364 288.649997 
L 585.222857 347.946516 
L 585.609351 360.43366 
L 585.995844 359.316482 
L 587.541818 345.832434 
L 587.928312 330.176039 
L 588.314805 351.362531 
L 588.701299 361.401135 
L 589.860779 331.829934 
L 590.247273 337.372625 
L 590.633766 362.436775 
L 591.02026 322.336254 
L 591.406753 300.813502 
L 592.566234 365.350624 
L 592.952727 357.321861 
L 593.725714 276.694206 
L 594.112208 356.50963 
L 595.271688 346.88635 
L 595.658182 286.183063 
L 596.044675 368.107111 
L 596.431169 336.455045 
L 596.817662 354.183144 
L 597.977143 368.947579 
L 598.363636 291.815311 
L 599.136623 362.07781 
L 599.523117 303.551803 
L 600.682597 334.166822 
L 601.455584 345.379284 
L 601.842078 334.268062 
L 602.228571 341.188184 
L 603.388052 310.31773 
L 603.774545 368.841658 
L 604.161039 293.771515 
L 604.547532 321.638715 
L 604.934026 298.397591 
L 606.093506 359.93582 
L 606.48 328.81096 
L 606.866494 288.429241 
L 607.252987 302.669381 
L 607.639481 342.419457 
L 608.798961 302.47094 
L 609.185455 333.213819 
L 609.571948 310.807866 
L 609.958442 264.664656 
L 610.344935 316.981432 
L 611.504416 359.574485 
L 611.890909 353.494611 
L 612.277403 363.762162 
L 613.05039 282.530507 
L 614.20987 364.705174 
L 614.596364 263.473823 
L 614.982857 360.447441 
L 615.369351 362.723472 
L 615.755844 362.210435 
L 616.915325 328.118266 
L 617.301818 358.05249 
L 617.688312 346.673702 
L 618.461299 366.047653 
L 619.620779 358.427693 
L 620.007273 363.901097 
L 620.393766 364.085751 
L 621.166753 336.563268 
L 622.326234 338.992566 
L 622.712727 366.202704 
L 623.485714 324.903502 
L 623.872208 346.482194 
L 625.031688 347.436384 
L 625.418182 343.669992 
L 625.804675 293.390273 
L 626.191169 354.573784 
L 626.577662 368.964819 
L 628.123636 336.604236 
L 628.51013 286.468991 
L 628.896623 311.942508 
L 629.283117 360.094484 
L 630.829091 345.721737 
L 631.215584 361.379763 
L 631.602078 367.317798 
L 631.988571 353.526113 
L 633.534545 337.571719 
L 633.921039 324.275661 
L 634.307532 350.14136 
L 634.694026 359.167876 
L 635.853506 290.825369 
L 636.24 361.101917 
L 636.626494 337.721505 
L 637.012987 365.629485 
L 637.399481 365.184196 
L 638.945455 348.437268 
L 639.331948 337.817991 
L 640.104935 300.790339 
L 641.264416 357.10567 
L 641.650909 353.040346 
L 642.037403 364.842636 
L 642.423896 339.982965 
L 642.81039 365.737556 
L 643.96987 327.191885 
L 644.356364 366.024398 
L 644.742857 278.376601 
L 645.129351 299.792588 
L 645.515844 309.818033 
L 646.675325 351.502566 
L 647.061818 356.456187 
L 647.448312 323.384087 
L 647.834805 366.195016 
L 648.221299 337.295284 
L 649.380779 364.070524 
L 649.767273 292.211966 
L 650.54026 336.855673 
L 650.926753 342.401716 
L 652.472727 335.627981 
L 652.859221 362.310425 
L 653.245714 252.220613 
L 653.632208 367.442347 
L 654.791688 348.125396 
L 655.178182 359.836004 
L 655.564675 360.090316 
L 656.337662 324.683123 
L 657.497143 362.699427 
L 657.883636 311.961797 
L 658.27013 340.647481 
L 658.656623 311.927974 
L 659.043117 332.676537 
L 660.202597 363.098144 
L 660.589091 306.949621 
L 660.975584 358.593969 
L 661.362078 353.275361 
L 661.748571 332.934066 
L 662.908052 334.087837 
L 663.294545 337.814874 
L 663.681039 319.70108 
L 664.067532 351.278858 
L 664.454026 361.526475 
L 665.613506 352.241759 
L 666 353.675919 
L 666.386494 321.220918 
L 666.772987 363.137268 
L 668.318961 358.09391 
L 668.705455 328.666017 
L 669.091948 363.27962 
L 669.478442 299.822269 
L 669.864935 307.518161 
L 671.024416 367.291702 
L 671.410909 361.295531 
L 671.797403 316.128784 
L 672.183896 327.814865 
L 672.57039 287.228749 
L 673.72987 301.598395 
L 674.116364 357.852365 
L 674.502857 336.895269 
L 674.889351 357.000646 
L 675.275844 320.079988 
L 676.435325 320.6617 
L 676.821818 302.722338 
L 677.208312 368.198595 
L 677.981299 312.454946 
L 679.140779 351.603737 
L 679.527273 280.513616 
L 679.913766 350.101585 
L 680.30026 318.454883 
L 680.686753 299.443304 
L 681.846234 311.806036 
L 682.232727 361.86679 
L 682.619221 369.36 
L 683.005714 340.927516 
L 683.392208 360.154382 
L 684.551688 368.039888 
L 684.938182 342.339564 
L 685.324675 304.099868 
L 685.711169 357.711195 
L 686.097662 362.866959 
L 687.257143 364.257772 
L 687.643636 355.385886 
L 688.03013 354.20301 
L 688.416623 327.865653 
L 688.803117 330.284988 
L 690.349091 367.997738 
L 690.735584 327.943177 
L 691.122078 335.798937 
L 691.508571 324.571349 
L 692.668052 363.139815 
L 693.054545 360.974635 
L 693.441039 303.370326 
L 693.827532 368.272042 
L 694.214026 363.137243 
L 695.373506 354.943788 
L 695.76 354.219619 
L 696.146494 321.926311 
L 696.532987 356.265224 
L 696.919481 367.184324 
L 698.078961 326.593147 
L 698.465455 355.276626 
L 699.238442 355.215175 
L 699.624935 360.6288 
L 700.784416 352.184114 
L 701.170909 347.38549 
L 701.557403 360.585128 
L 701.943896 364.308925 
L 702.33039 346.454649 
L 703.48987 354.414349 
L 703.876364 334.771426 
L 704.262857 340.963876 
L 705.035844 338.932027 
L 706.195325 363.696331 
L 706.581818 365.239735 
L 706.968312 312.461056 
L 707.354805 320.054613 
L 707.741299 338.551606 
L 708.900779 353.572512 
L 709.287273 333.69049 
L 709.673766 290.772546 
L 710.06026 325.405365 
L 710.446753 329.223702 
L 711.606234 309.221588 
L 711.992727 360.651534 
L 712.379221 238.104279 
L 712.765714 340.490578 
L 713.152208 307.566538 
L 714.311688 364.835174 
L 714.698182 341.518934 
L 715.084675 281.553719 
L 715.471169 292.102285 
L 715.857662 265.393647 
L 717.017143 198.832676 
L 717.403636 311.650373 
L 717.79013 325.866835 
L 718.176623 241.692099 
L 718.563117 343.266269 
L 719.722597 369.151173 
L 720.109091 275.739543 
L 720.495584 347.999042 
L 720.882078 279.679013 
L 721.268571 358.249512 
L 722.428052 315.15707 
L 722.814545 358.256759 
L 723.201039 345.676995 
L 723.587532 319.094272 
L 723.974026 305.388543 
L 725.133506 351.686189 
L 725.52 360.457581 
L 725.906494 335.79305 
L 726.292987 369.171887 
L 726.679481 313.099056 
L 728.225455 249.557309 
L 728.611948 360.40246 
L 728.998442 352.448908 
L 729.384935 271.795071 
L 730.544416 304.852825 
L 730.930909 344.376834 
L 731.317403 309.925693 
L 731.703896 327.533827 
L 732.09039 339.161246 
L 733.636364 367.909902 
L 734.022857 353.132996 
L 734.409351 275.027278 
L 734.795844 358.50168 
L 735.955325 353.667048 
L 736.341818 355.333915 
L 736.728312 358.949808 
L 737.114805 346.799432 
L 737.501299 362.363255 
L 738.660779 345.694511 
L 739.047273 316.880633 
L 739.433766 368.616754 
L 739.82026 359.959364 
L 740.206753 319.333479 
L 741.366234 315.398351 
L 741.752727 315.33987 
L 742.139221 329.659271 
L 742.525714 357.776479 
L 742.912208 335.570819 
L 744.071688 326.352809 
L 744.458182 326.574519 
L 744.844675 343.224926 
L 745.231169 368.432889 
L 745.617662 347.173566 
L 746.777143 359.165446 
L 747.163636 366.72977 
L 747.163636 366.72977 
" clip-path="url(#pce846bb8d6)" style="fill: none; stroke: #000000; stroke-width: 1.5; stroke-linecap: square"/>
   </g>
   <g id="line2d_18">
    <path d="M 138.436364 281.32372 
L 138.822857 293.94251 
L 139.209351 281.972902 
L 140.755325 286.834658 
L 141.528312 278.784757 
L 141.914805 282.693191 
L 142.301299 283.501587 
L 143.460779 284.679757 
L 143.847273 305.890825 
L 144.233766 296.144133 
L 144.62026 313.982703 
L 145.006753 303.838256 
L 146.166234 307.039233 
L 146.552727 312.374538 
L 146.939221 300.855122 
L 147.325714 305.99078 
L 147.712208 303.085506 
L 148.871688 306.89049 
L 149.258182 312.634147 
L 149.644675 316.714441 
L 150.031169 316.783484 
L 150.417662 318.405685 
L 151.577143 316.402857 
L 151.963636 318.448994 
L 152.35013 319.716483 
L 152.736623 322.640883 
L 153.123117 322.10209 
L 154.282597 318.790443 
L 154.669091 322.880906 
L 155.055584 320.758921 
L 155.442078 323.547331 
L 155.828571 325.184712 
L 156.988052 320.774028 
L 157.374545 324.638369 
L 157.761039 324.445482 
L 158.147532 322.562321 
L 158.534026 322.472851 
L 159.693506 327.127546 
L 160.08 326.852817 
L 160.466494 326.226853 
L 160.852987 325.306736 
L 161.239481 323.32235 
L 162.398961 328.560377 
L 162.785455 325.206652 
L 163.171948 323.194737 
L 163.558442 326.097917 
L 163.944935 297.019829 
L 165.490909 305.629448 
L 165.877403 313.24233 
L 166.263896 304.641316 
L 166.65039 306.755896 
L 167.80987 297.258282 
L 168.196364 312.24662 
L 168.582857 298.748445 
L 168.969351 299.762133 
L 169.355844 298.640511 
L 170.515325 301.219902 
L 170.901818 296.985613 
L 171.288312 295.90511 
L 171.674805 298.113286 
L 172.061299 285.110352 
L 173.220779 304.331756 
L 173.607273 297.911949 
L 173.993766 289.205876 
L 174.38026 293.164014 
L 174.766753 289.985123 
L 175.926234 292.340533 
L 176.312727 301.323273 
L 176.699221 295.570272 
L 177.085714 305.14534 
L 177.472208 310.064891 
L 178.631688 311.226049 
L 179.018182 306.929045 
L 179.404675 300.846086 
L 179.791169 301.866001 
L 180.177662 298.813789 
L 181.337143 297.467262 
L 181.723636 304.575283 
L 182.11013 298.840841 
L 182.883117 312.88 
L 184.042597 309.216729 
L 184.429091 305.326536 
L 184.815584 298.8705 
L 185.202078 295.140328 
L 185.588571 294.435752 
L 186.748052 308.792295 
L 187.134545 299.988204 
L 187.521039 307.450505 
L 187.907532 311.432383 
L 188.294026 312.653895 
L 189.453506 297.919275 
L 189.84 305.485172 
L 190.226494 291.83325 
L 190.612987 307.93544 
L 190.999481 296.972187 
L 192.158961 299.97271 
L 192.545455 306.184944 
L 192.931948 295.954425 
L 193.318442 296.276008 
L 193.704935 293.988582 
L 194.864416 299.657825 
L 195.250909 296.485952 
L 195.637403 306.90947 
L 196.41039 294.770996 
L 197.56987 310.439699 
L 197.956364 308.172677 
L 198.342857 309.709792 
L 198.729351 303.511028 
L 199.115844 308.271446 
L 200.275325 318.843662 
L 200.661818 317.605759 
L 201.048312 318.164216 
L 201.434805 320.296156 
L 201.821299 313.247235 
L 202.980779 318.816711 
L 203.367273 318.790875 
L 203.753766 324.048936 
L 204.14026 325.379706 
L 204.526753 324.725277 
L 205.686234 326.623483 
L 206.072727 320.714503 
L 206.459221 321.027566 
L 206.845714 327.923785 
L 208.391688 332.87078 
L 208.778182 330.787714 
L 209.164675 325.551941 
L 211.097143 331.836683 
L 211.483636 322.109422 
L 211.87013 322.821176 
L 212.256623 329.867989 
L 212.643117 327.403123 
L 213.802597 327.804479 
L 214.189091 321.248172 
L 214.575584 317.827834 
L 214.962078 326.612709 
L 215.348571 323.458707 
L 216.894545 323.980694 
L 217.667532 327.588999 
L 218.054026 322.258524 
L 219.213506 322.366831 
L 219.6 319.80287 
L 219.986494 319.927559 
L 220.372987 295.937233 
L 220.759481 304.233609 
L 221.918961 323.810051 
L 222.305455 305.959484 
L 222.691948 322.583123 
L 223.078442 317.199252 
L 223.464935 317.574548 
L 224.624416 311.835717 
L 225.010909 313.89038 
L 225.397403 305.510179 
L 226.17039 311.382805 
L 227.716364 316.347993 
L 228.102857 306.85265 
L 228.489351 305.388611 
L 228.875844 312.623376 
L 230.035325 311.251262 
L 230.421818 314.330924 
L 230.808312 307.788586 
L 231.194805 319.907738 
L 231.581299 296.984065 
L 232.740779 299.739257 
L 233.127273 322.980802 
L 233.513766 317.588556 
L 233.90026 306.834171 
L 234.286753 307.999309 
L 235.446234 315.648768 
L 235.832727 315.818509 
L 236.219221 309.840294 
L 236.605714 315.210202 
L 236.992208 312.584353 
L 238.151688 307.357156 
L 238.538182 313.331604 
L 238.924675 305.658209 
L 239.311169 309.116559 
L 239.697662 304.262303 
L 240.857143 294.887687 
L 241.243636 315.823677 
L 242.016623 297.596632 
L 242.403117 309.437604 
L 243.562597 317.669976 
L 243.949091 300.451036 
L 244.335584 314.322393 
L 244.722078 317.512237 
L 246.268052 321.115693 
L 246.654545 320.017006 
L 247.041039 313.630126 
L 247.427532 320.06106 
L 247.814026 323.971849 
L 248.973506 322.159841 
L 249.36 319.914963 
L 249.746494 322.46224 
L 250.132987 322.603101 
L 250.519481 322.4559 
L 251.678961 322.187591 
L 252.065455 323.208022 
L 252.451948 318.503401 
L 252.838442 323.952137 
L 253.224935 324.064816 
L 254.384416 322.028445 
L 254.770909 322.995814 
L 255.157403 322.736855 
L 255.543896 324.454838 
L 255.93039 325.639632 
L 257.08987 322.447475 
L 257.476364 324.352049 
L 257.862857 328.780803 
L 258.249351 324.39311 
L 258.635844 330.31213 
L 259.795325 330.245579 
L 260.181818 325.54068 
L 260.568312 315.205673 
L 260.954805 309.378146 
L 261.341299 317.519316 
L 262.500779 331.132322 
L 262.887273 319.283349 
L 263.273766 311.08688 
L 263.66026 311.906274 
L 264.046753 320.356758 
L 265.206234 318.18957 
L 265.592727 323.063315 
L 265.979221 317.964356 
L 266.365714 317.537439 
L 266.752208 320.357666 
L 268.298182 316.027629 
L 268.684675 313.384088 
L 269.071169 315.482255 
L 269.457662 319.27424 
L 270.617143 320.5195 
L 271.003636 319.613616 
L 271.39013 314.082955 
L 271.776623 316.777099 
L 272.163117 323.499437 
L 273.322597 330.697617 
L 273.709091 327.236575 
L 274.095584 331.356667 
L 274.482078 330.513677 
L 274.868571 331.850831 
L 276.028052 328.726995 
L 276.414545 329.555246 
L 276.801039 333.987701 
L 277.187532 330.420995 
L 277.574026 331.009856 
L 278.733506 330.026119 
L 279.12 329.11286 
L 279.506494 326.975174 
L 280.279481 330.35543 
L 281.825455 330.086785 
L 282.211948 327.642103 
L 282.598442 327.31478 
L 282.984935 326.189688 
L 284.144416 326.987872 
L 284.530909 331.405939 
L 284.917403 323.501819 
L 285.69039 327.212826 
L 286.84987 323.045518 
L 287.236364 314.860243 
L 288.009351 331.760814 
L 288.395844 325.224175 
L 289.555325 325.351897 
L 290.328312 319.997942 
L 290.714805 319.427893 
L 291.101299 327.176508 
L 292.260779 322.601857 
L 292.647273 318.581503 
L 293.033766 324.948411 
L 293.42026 325.409224 
L 293.806753 323.660517 
L 294.966234 325.444685 
L 295.352727 324.355648 
L 295.739221 321.813226 
L 296.125714 325.465319 
L 296.512208 327.26024 
L 297.671688 324.619178 
L 298.058182 324.824758 
L 298.444675 326.731319 
L 298.831169 324.773159 
L 299.217662 326.092221 
L 300.377143 334.896961 
L 300.763636 335.870487 
L 301.15013 330.897165 
L 301.536623 331.121658 
L 301.923117 329.226367 
L 303.082597 330.366036 
L 303.469091 333.632439 
L 303.855584 327.566263 
L 304.242078 330.045531 
L 304.628571 331.410319 
L 306.174545 329.941468 
L 306.561039 329.988147 
L 306.947532 328.36117 
L 307.334026 331.564106 
L 308.493506 327.215865 
L 308.88 329.248677 
L 309.266494 332.710718 
L 309.652987 330.449863 
L 310.039481 329.983525 
L 311.198961 328.183999 
L 311.585455 316.199388 
L 311.971948 320.579314 
L 312.358442 333.588526 
L 312.744935 331.344054 
L 313.904416 326.61961 
L 314.290909 324.088617 
L 314.677403 311.984298 
L 315.063896 311.908118 
L 315.45039 323.474229 
L 316.996364 318.972915 
L 317.382857 314.8411 
L 317.769351 319.549819 
L 318.155844 317.940365 
L 319.315325 317.445609 
L 319.701818 314.667009 
L 320.088312 310.194911 
L 320.474805 318.364216 
L 320.861299 321.103902 
L 322.020779 317.529003 
L 322.407273 313.057465 
L 322.793766 318.710083 
L 323.18026 316.442402 
L 323.566753 317.180031 
L 324.726234 316.003895 
L 325.112727 317.17739 
L 325.499221 314.75362 
L 325.885714 320.364185 
L 326.272208 320.95431 
L 327.431688 323.558345 
L 327.818182 323.479363 
L 328.591169 329.666087 
L 328.977662 327.6398 
L 330.137143 325.258273 
L 330.523636 323.172337 
L 330.91013 327.34795 
L 331.296623 326.116943 
L 331.683117 325.780271 
L 332.842597 335.740027 
L 333.229091 331.900345 
L 334.002078 332.729846 
L 334.388571 331.973497 
L 335.548052 332.001659 
L 335.934545 332.52206 
L 336.321039 331.484804 
L 337.094026 334.686707 
L 338.64 307.101174 
L 339.026494 324.467792 
L 339.412987 293.002619 
L 339.799481 316.513253 
L 340.958961 313.436197 
L 341.345455 311.222105 
L 341.731948 323.46804 
L 342.118442 317.167205 
L 342.504935 306.497436 
L 344.050909 311.524784 
L 344.437403 294.139959 
L 344.823896 311.374713 
L 345.21039 307.712939 
L 346.36987 295.424537 
L 347.142857 304.01899 
L 347.529351 311.424821 
L 349.075325 305.681669 
L 349.461818 305.969064 
L 349.848312 302.017933 
L 350.234805 306.277366 
L 350.621299 308.907254 
L 351.780779 307.619742 
L 352.167273 315.236683 
L 352.553766 308.747771 
L 353.326753 303.915035 
L 354.486234 318.30834 
L 354.872727 311.621973 
L 355.259221 316.945534 
L 355.645714 317.786824 
L 356.032208 311.540867 
L 357.578182 308.481727 
L 357.964675 314.563632 
L 358.351169 302.110217 
L 358.737662 313.39549 
L 359.897143 306.479285 
L 360.283636 305.48492 
L 360.67013 313.077662 
L 361.056623 308.610149 
L 361.443117 316.539307 
L 362.602597 316.954632 
L 362.989091 316.558327 
L 363.375584 315.242647 
L 363.762078 311.369405 
L 364.148571 296.705 
L 365.308052 302.015685 
L 365.694545 307.702704 
L 366.081039 307.901022 
L 366.467532 310.88507 
L 366.854026 295.360827 
L 368.013506 277.355408 
L 368.786494 305.335493 
L 369.172987 302.954258 
L 369.559481 295.229725 
L 371.105455 287.384964 
L 371.491948 303.900993 
L 371.878442 291.245768 
L 372.264935 297.874521 
L 373.424416 304.422487 
L 373.810909 289.312078 
L 374.197403 288.331463 
L 374.583896 299.757553 
L 374.97039 301.802025 
L 376.12987 293.56218 
L 376.516364 288.214913 
L 376.902857 287.975019 
L 377.289351 299.935097 
L 377.675844 297.38013 
L 378.835325 296.291934 
L 379.221818 288.068805 
L 379.608312 299.162717 
L 379.994805 302.500463 
L 380.381299 299.293538 
L 381.540779 295.931212 
L 381.927273 290.953176 
L 382.313766 296.554906 
L 382.70026 291.987312 
L 383.086753 297.486276 
L 384.246234 299.490169 
L 384.632727 301.009061 
L 385.019221 301.29561 
L 385.405714 294.879458 
L 385.792208 294.168183 
L 386.951688 292.847991 
L 387.338182 311.171574 
L 387.724675 296.812357 
L 388.111169 297.952342 
L 388.497662 304.602722 
L 389.657143 307.878599 
L 390.043636 300.647112 
L 390.43013 299.728729 
L 390.816623 320.418441 
L 392.362597 313.467908 
L 392.749091 303.949896 
L 393.135584 317.226669 
L 393.522078 310.137242 
L 393.908571 313.079114 
L 395.068052 285.668612 
L 395.454545 298.499919 
L 395.841039 297.562315 
L 396.227532 283.465016 
L 396.614026 311.67536 
L 397.773506 284.807137 
L 398.16 282.929789 
L 398.546494 300.263889 
L 398.932987 303.679003 
L 399.319481 276.415691 
L 400.478961 259.471153 
L 400.865455 280.511782 
L 401.251948 257.636956 
L 401.638442 291.397184 
L 402.024935 265.978961 
L 403.184416 292.500661 
L 403.570909 280.300515 
L 403.957403 285.453343 
L 404.343896 260.784601 
L 404.73039 252.546696 
L 406.276364 277.68082 
L 406.662857 269.100625 
L 407.435844 282.163569 
L 408.981818 283.173299 
L 409.368312 281.43351 
L 409.754805 276.609979 
L 410.141299 285.77917 
L 411.300779 284.543234 
L 411.687273 281.53552 
L 412.46026 296.089395 
L 412.846753 282.830655 
L 414.006234 277.143143 
L 414.392727 259.793757 
L 414.779221 262.552048 
L 415.165714 296.461753 
L 415.552208 275.599862 
L 417.098182 273.120878 
L 417.484675 294.579876 
L 417.871169 273.078147 
L 418.257662 288.635575 
L 419.417143 283.332883 
L 419.803636 278.456026 
L 420.19013 277.998329 
L 420.576623 265.793053 
L 420.963117 284.109467 
L 422.509091 282.773731 
L 422.895584 279.137216 
L 423.282078 279.337748 
L 423.668571 289.700794 
L 424.828052 277.502671 
L 425.214545 286.3185 
L 425.601039 274.766152 
L 426.374026 300.115903 
L 427.533506 303.483067 
L 427.92 298.840914 
L 428.306494 301.800528 
L 428.692987 300.666103 
L 429.079481 307.220987 
L 430.238961 303.155906 
L 430.625455 296.621275 
L 431.011948 310.294751 
L 431.398442 304.276474 
L 431.784935 313.177659 
L 432.944416 307.82315 
L 433.330909 299.938152 
L 433.717403 298.537543 
L 434.103896 307.939621 
L 434.49039 303.299167 
L 435.64987 303.285209 
L 436.036364 300.834661 
L 436.422857 303.80122 
L 436.809351 309.060733 
L 437.195844 300.993057 
L 438.355325 304.170776 
L 438.741818 302.762782 
L 439.128312 299.564095 
L 439.514805 312.359403 
L 439.901299 305.548218 
L 441.060779 310.041124 
L 441.447273 296.014645 
L 441.833766 293.987853 
L 442.22026 310.09071 
L 442.606753 317.789212 
L 443.766234 296.006904 
L 444.152727 292.48876 
L 444.539221 305.934338 
L 444.925714 302.883797 
L 445.312208 304.202717 
L 446.858182 305.881965 
L 447.244675 298.313423 
L 447.631169 306.036695 
L 448.017662 307.771315 
L 449.177143 307.893701 
L 449.563636 299.637124 
L 449.95013 280.089102 
L 450.336623 281.153301 
L 450.723117 297.823325 
L 451.882597 285.918863 
L 452.269091 292.949653 
L 452.655584 291.873694 
L 453.042078 286.241974 
L 453.428571 290.769118 
L 454.588052 288.446057 
L 454.974545 286.968366 
L 455.361039 287.625901 
L 455.747532 303.860633 
L 456.134026 295.309693 
L 457.293506 288.498155 
L 457.68 297.753766 
L 458.066494 292.238703 
L 458.452987 283.335669 
L 458.839481 284.881001 
L 459.998961 279.034803 
L 460.385455 279.300987 
L 460.771948 278.257529 
L 461.158442 293.627821 
L 461.544935 297.259998 
L 462.704416 293.82374 
L 463.090909 288.509573 
L 463.477403 289.291169 
L 463.863896 285.510009 
L 464.25039 288.308262 
L 465.40987 290.53581 
L 465.796364 285.242625 
L 466.182857 289.798879 
L 466.569351 289.317294 
L 466.955844 287.162021 
L 468.115325 292.877588 
L 468.501818 288.418332 
L 468.888312 285.659503 
L 469.274805 295.848099 
L 469.661299 289.221084 
L 470.820779 294.70998 
L 471.207273 295.934463 
L 471.593766 288.030385 
L 471.98026 289.748592 
L 472.366753 286.147706 
L 473.526234 290.805128 
L 473.912727 278.730327 
L 474.299221 278.565367 
L 474.685714 284.874353 
L 475.072208 283.042802 
L 476.231688 286.769634 
L 477.004675 294.748423 
L 477.777662 292.83433 
L 478.937143 282.648565 
L 479.323636 290.384282 
L 479.71013 278.409399 
L 480.096623 299.228514 
L 480.483117 286.916667 
L 481.642597 291.149986 
L 482.029091 290.399114 
L 482.415584 277.758406 
L 482.802078 279.438894 
L 483.188571 294.280557 
L 484.348052 314.658652 
L 484.734545 303.116225 
L 485.507532 317.368121 
L 485.894026 304.788506 
L 487.053506 300.075656 
L 487.44 306.603633 
L 487.826494 300.494613 
L 488.212987 312.353803 
L 488.599481 300.637627 
L 490.145455 297.789513 
L 490.531948 303.264143 
L 490.918442 300.03223 
L 491.304935 303.648178 
L 492.850909 307.191574 
L 493.237403 301.755006 
L 494.01039 311.339555 
L 495.16987 308.766112 
L 495.556364 301.521479 
L 495.942857 307.76238 
L 496.329351 308.862292 
L 496.715844 307.674093 
L 498.261818 313.253653 
L 498.648312 300.339497 
L 499.034805 309.926429 
L 499.421299 308.380653 
L 500.580779 312.808412 
L 501.353766 306.328098 
L 502.126753 313.224202 
L 503.286234 309.074192 
L 503.672727 310.312622 
L 504.059221 310.573083 
L 504.445714 316.403821 
L 504.832208 311.204198 
L 505.991688 306.590931 
L 506.378182 308.569498 
L 506.764675 313.409128 
L 507.151169 312.040241 
L 507.537662 305.581184 
L 508.697143 309.03955 
L 509.083636 314.137242 
L 509.47013 309.244785 
L 509.856623 315.441458 
L 510.243117 309.868384 
L 511.789091 304.307041 
L 512.175584 310.951613 
L 512.562078 302.281073 
L 512.948571 318.238576 
L 514.494545 310.460098 
L 514.881039 313.40336 
L 515.267532 313.744109 
L 515.654026 317.965374 
L 516.813506 319.231879 
L 517.2 313.497214 
L 517.586494 314.55787 
L 517.972987 309.688799 
L 518.359481 310.800875 
L 519.518961 298.47285 
L 519.905455 304.526548 
L 520.291948 315.288887 
L 521.064935 310.357791 
L 522.224416 311.835095 
L 522.610909 304.825323 
L 522.997403 318.353823 
L 523.383896 310.486993 
L 523.77039 298.826502 
L 524.92987 310.060737 
L 525.316364 307.80691 
L 525.702857 308.426355 
L 526.089351 310.934443 
L 526.475844 306.816318 
L 527.635325 309.586835 
L 528.021818 304.944805 
L 528.408312 307.936028 
L 528.794805 303.30878 
L 530.340779 312.965798 
L 531.113766 306.722972 
L 531.50026 316.259558 
L 531.886753 317.552843 
L 533.046234 318.988394 
L 533.432727 318.146603 
L 533.819221 318.495071 
L 534.592208 327.659626 
L 535.751688 323.479515 
L 536.138182 327.005782 
L 536.524675 321.561644 
L 536.911169 319.2349 
L 537.297662 327.091671 
L 538.457143 326.462599 
L 538.843636 322.22655 
L 539.23013 319.441515 
L 539.616623 317.505622 
L 540.003117 318.497213 
L 541.162597 321.136064 
L 541.549091 321.119172 
L 541.935584 315.084767 
L 542.708571 319.676866 
L 543.868052 316.586993 
L 544.254545 318.380147 
L 544.641039 317.40618 
L 545.027532 318.815155 
L 545.414026 321.490588 
L 546.96 310.363251 
L 547.346494 314.700354 
L 547.732987 312.415399 
L 548.119481 317.451433 
L 549.665455 325.641426 
L 550.051948 319.263124 
L 550.438442 320.949683 
L 550.824935 324.78997 
L 551.984416 326.797453 
L 552.370909 318.464684 
L 552.757403 324.75729 
L 553.143896 324.635588 
L 555.076364 320.591876 
L 555.462857 320.14659 
L 555.849351 322.675116 
L 556.235844 322.660104 
L 557.781818 322.064051 
L 558.168312 325.464865 
L 558.554805 322.942466 
L 558.941299 324.981786 
L 560.100779 323.750453 
L 560.487273 320.640518 
L 560.873766 324.403004 
L 561.26026 325.330747 
L 561.646753 325.853995 
L 562.806234 324.711633 
L 563.579221 323.080721 
L 563.965714 326.800212 
L 564.352208 323.84485 
L 565.511688 325.006971 
L 565.898182 327.830931 
L 566.284675 326.712516 
L 566.671169 330.188231 
L 567.057662 329.477789 
L 568.217143 324.369651 
L 568.603636 329.80398 
L 569.376623 327.035863 
L 569.763117 327.331965 
L 570.922597 326.384415 
L 571.309091 329.664932 
L 571.695584 327.591844 
L 572.082078 331.004946 
L 572.468571 329.884734 
L 573.628052 328.817925 
L 574.014545 331.859242 
L 574.401039 328.78798 
L 574.787532 324.672663 
L 575.174026 322.542522 
L 576.333506 328.406821 
L 576.72 327.430469 
L 577.106494 329.084694 
L 577.492987 326.613405 
L 577.879481 326.369771 
L 579.038961 329.648253 
L 579.425455 330.351649 
L 579.811948 324.063886 
L 580.198442 323.535508 
L 580.584935 324.489032 
L 581.744416 322.614424 
L 582.130909 328.202044 
L 582.517403 324.899721 
L 582.903896 327.083239 
L 583.29039 322.002407 
L 584.44987 321.924311 
L 584.836364 327.221218 
L 585.222857 322.530426 
L 585.609351 321.446635 
L 585.995844 322.397844 
L 587.541818 322.094355 
L 587.928312 321.093319 
L 588.314805 319.568216 
L 588.701299 321.427156 
L 589.860779 322.964753 
L 590.247273 324.524767 
L 590.633766 320.816801 
L 591.02026 321.31518 
L 591.406753 328.100423 
L 592.566234 321.782771 
L 592.952727 316.705248 
L 593.339221 322.332186 
L 593.725714 321.109082 
L 594.112208 311.738372 
L 595.271688 315.100479 
L 595.658182 325.414068 
L 596.044675 314.299144 
L 596.431169 315.207803 
L 596.817662 325.399314 
L 597.977143 319.945867 
L 598.363636 316.821602 
L 598.75013 317.027667 
L 599.136623 316.635162 
L 599.523117 320.056792 
L 600.682597 320.436098 
L 601.455584 317.534199 
L 601.842078 320.530742 
L 603.388052 311.313377 
L 603.774545 317.961072 
L 604.161039 318.283362 
L 604.547532 313.518952 
L 604.934026 313.849185 
L 606.093506 314.080508 
L 606.48 317.884724 
L 606.866494 325.12397 
L 607.252987 321.145904 
L 607.639481 314.589704 
L 608.798961 316.590026 
L 609.571948 321.919916 
L 609.958442 322.893602 
L 610.344935 320.09309 
L 611.504416 317.899276 
L 611.890909 313.385574 
L 612.277403 313.871999 
L 612.663896 313.29366 
L 613.05039 314.804255 
L 614.20987 314.333833 
L 614.596364 311.281291 
L 614.982857 312.881513 
L 615.369351 309.233428 
L 615.755844 309.097595 
L 616.915325 312.005069 
L 617.301818 318.01357 
L 617.688312 311.91984 
L 618.461299 315.936376 
L 619.620779 315.706606 
L 620.007273 317.201343 
L 620.393766 314.200321 
L 620.78026 317.554469 
L 621.166753 319.151412 
L 622.326234 322.546099 
L 622.712727 325.742488 
L 623.099221 323.117369 
L 623.485714 326.906027 
L 623.872208 325.385715 
L 625.031688 326.216382 
L 625.418182 326.936406 
L 625.804675 330.157187 
L 626.191169 328.000496 
L 626.577662 331.609138 
L 627.737143 329.999153 
L 628.123636 331.698647 
L 628.51013 330.317492 
L 629.283117 325.223118 
L 631.215584 328.30216 
L 631.602078 326.242972 
L 631.988571 326.235544 
L 633.534545 326.092337 
L 633.921039 325.388013 
L 634.307532 323.03193 
L 635.853506 326.604481 
L 636.24 327.075676 
L 636.626494 323.105957 
L 637.012987 325.426075 
L 637.399481 322.035634 
L 638.945455 322.810136 
L 639.331948 324.861438 
L 639.718442 322.522808 
L 640.104935 326.44588 
L 641.264416 328.246167 
L 641.650909 324.920786 
L 642.037403 328.76469 
L 642.423896 327.415653 
L 642.81039 326.745231 
L 643.96987 326.773526 
L 644.356364 328.525274 
L 644.742857 325.081021 
L 645.129351 324.762184 
L 645.515844 321.609109 
L 646.675325 325.021226 
L 647.061818 321.116711 
L 647.448312 323.086567 
L 647.834805 326.91149 
L 648.221299 321.024589 
L 649.380779 324.812897 
L 649.767273 318.466674 
L 650.153766 316.524682 
L 650.926753 325.436125 
L 652.472727 320.120356 
L 652.859221 320.29429 
L 653.245714 317.575389 
L 653.632208 322.755062 
L 654.791688 317.616937 
L 655.178182 320.270449 
L 655.564675 316.119935 
L 656.337662 318.760544 
L 657.497143 324.052294 
L 657.883636 319.939768 
L 658.27013 321.290987 
L 658.656623 319.571686 
L 659.043117 323.102638 
L 660.202597 321.363351 
L 660.589091 317.354553 
L 660.975584 324.482498 
L 661.362078 322.134574 
L 661.748571 321.096222 
L 662.908052 322.494416 
L 663.294545 324.030903 
L 663.681039 324.578583 
L 664.067532 325.930875 
L 664.454026 323.316427 
L 665.613506 327.651347 
L 666 326.740695 
L 666.386494 327.264586 
L 666.772987 328.651938 
L 668.318961 325.714331 
L 668.705455 324.553663 
L 669.091948 326.010827 
L 669.478442 324.675732 
L 669.864935 326.293288 
L 671.024416 322.818359 
L 671.410909 330.692231 
L 672.183896 329.927708 
L 672.57039 329.921709 
L 673.72987 325.011075 
L 674.116364 318.458624 
L 674.889351 327.948163 
L 675.275844 325.310234 
L 676.435325 326.024891 
L 676.821818 326.735788 
L 677.208312 329.867936 
L 677.594805 322.056304 
L 677.981299 324.637079 
L 679.140779 325.562454 
L 679.527273 322.6902 
L 679.913766 320.74257 
L 680.30026 316.717557 
L 680.686753 322.993762 
L 681.846234 323.1139 
L 682.232727 320.308247 
L 682.619221 313.806684 
L 683.005714 315.717071 
L 683.392208 319.738647 
L 684.938182 316.076217 
L 685.711169 324.476935 
L 686.097662 321.203484 
L 687.257143 319.314017 
L 688.416623 324.158984 
L 688.803117 321.635346 
L 690.349091 324.928825 
L 691.122078 318.83762 
L 691.508571 325.588747 
L 692.668052 329.535596 
L 693.054545 329.036384 
L 693.441039 328.322067 
L 693.827532 331.581458 
L 694.214026 328.189773 
L 695.76 329.063798 
L 696.146494 327.53728 
L 696.532987 330.686374 
L 696.919481 329.61273 
L 698.078961 329.011019 
L 699.238442 330.345662 
L 699.624935 328.837018 
L 700.784416 327.03498 
L 701.170909 330.416757 
L 701.557403 331.508852 
L 701.943896 332.156546 
L 702.33039 331.267706 
L 703.48987 332.675298 
L 703.876364 332.337524 
L 704.262857 334.38085 
L 705.035844 333.00628 
L 706.195325 334.723624 
L 706.581818 333.058149 
L 706.968312 333.92837 
L 707.354805 333.083732 
L 707.741299 331.650152 
L 708.900779 333.602476 
L 709.287273 331.779841 
L 709.673766 330.818759 
L 710.06026 328.602557 
L 710.446753 323.996064 
L 711.606234 325.567065 
L 711.992727 329.236787 
L 712.379221 328.254954 
L 712.765714 313.867991 
L 713.152208 310.353284 
L 714.311688 324.872999 
L 714.698182 319.278562 
L 715.084675 315.379063 
L 715.471169 318.891545 
L 715.857662 314.789367 
L 717.017143 292.382721 
L 717.403636 259.115257 
L 717.79013 300.657902 
L 718.176623 323.782421 
L 718.563117 304.446058 
L 719.722597 317.088677 
L 720.109091 300.677572 
L 720.495584 308.813383 
L 720.882078 310.888016 
L 721.268571 309.592188 
L 722.428052 299.254328 
L 722.814545 304.034001 
L 723.201039 291.277736 
L 723.587532 294.436643 
L 723.974026 302.075715 
L 725.133506 305.362479 
L 725.52 307.614091 
L 725.906494 299.927247 
L 726.292987 303.030348 
L 726.679481 298.233639 
L 728.225455 317.301172 
L 728.611948 290.370414 
L 728.998442 292.429998 
L 729.384935 318.382476 
L 730.544416 310.179608 
L 730.930909 317.306127 
L 731.317403 321.210076 
L 731.703896 317.019824 
L 732.09039 320.985805 
L 733.24987 316.942132 
L 733.636364 316.953937 
L 734.022857 312.785575 
L 734.409351 318.045199 
L 734.795844 320.643789 
L 735.955325 319.091494 
L 736.341818 316.210341 
L 736.728312 318.947443 
L 737.114805 317.176544 
L 737.501299 317.464528 
L 738.660779 311.798003 
L 739.047273 314.740593 
L 739.433766 315.166989 
L 739.82026 315.370711 
L 740.206753 320.882119 
L 741.366234 321.547538 
L 741.752727 324.179819 
L 742.139221 321.36753 
L 742.525714 328.437315 
L 742.912208 324.720921 
L 744.071688 327.820438 
L 744.458182 327.715506 
L 744.844675 325.061917 
L 745.231169 324.322794 
L 745.617662 325.063352 
L 746.777143 331.758615 
L 747.163636 328.897989 
L 747.163636 328.897989 
" clip-path="url(#pce846bb8d6)" style="fill: none; stroke: #1f77b4; stroke-width: 1.5; stroke-linecap: square"/>
   </g>
   <g id="patch_3">
    <path d="M 108 384.48 
L 108 51.84 
" style="fill: none; stroke: #000000; stroke-width: 0.8; stroke-linejoin: miter; stroke-linecap: square"/>
   </g>
   <g id="patch_4">
    <path d="M 777.6 384.48 
L 777.6 51.84 
" style="fill: none; stroke: #000000; stroke-width: 0.8; stroke-linejoin: miter; stroke-linecap: square"/>
   </g>
   <g id="patch_5">
    <path d="M 108 384.48 
L 777.6 384.48 
" style="fill: none; stroke: #000000; stroke-width: 0.8; stroke-linejoin: miter; stroke-linecap: square"/>
   </g>
   <g id="patch_6">
    <path d="M 108 51.84 
L 777.6 51.84 
" style="fill: none; stroke: #000000; stroke-width: 0.8; stroke-linejoin: miter; stroke-linecap: square"/>
   </g>
   <g id="text_19">
    <!-- Volatility Prediction with Mini LSTM w/ RVOL &amp; VIX -->
    <g transform="translate(293.29875 45.84) scale(0.12 -0.12)">
     <defs>
      <path id="DejaVuSans-20" transform="scale(0.015625)"/>
      <path id="DejaVuSans-50" d="M 1259 4147 
L 1259 2394 
L 2053 2394 
Q 2494 2394 2734 2622 
Q 2975 2850 2975 3272 
Q 2975 3691 2734 3919 
Q 2494 4147 2053 4147 
L 1259 4147 
z
M 628 4666 
L 2053 4666 
Q 2838 4666 3239 4311 
Q 3641 3956 3641 3272 
Q 3641 2581 3239 2228 
Q 2838 1875 2053 1875 
L 1259 1875 
L 1259 0 
L 628 0 
L 628 4666 
z
" transform="scale(0.015625)"/>
      <path id="DejaVuSans-72" d="M 2631 2963 
Q 2534 3019 2420 3045 
Q 2306 3072 2169 3072 
Q 1681 3072 1420 2755 
Q 1159 2438 1159 1844 
L 1159 0 
L 581 0 
L 581 3500 
L 1159 3500 
L 1159 2956 
Q 1341 3275 1631 3429 
Q 1922 3584 2338 3584 
Q 2397 3584 2469 3576 
Q 2541 3569 2628 3553 
L 2631 2963 
z
" transform="scale(0.015625)"/>
      <path id="DejaVuSans-64" d="M 2906 2969 
L 2906 4863 
L 3481 4863 
L 3481 0 
L 2906 0 
L 2906 525 
Q 2725 213 2448 61 
Q 2172 -91 1784 -91 
Q 1150 -91 751 415 
Q 353 922 353 1747 
Q 353 2572 751 3078 
Q 1150 3584 1784 3584 
Q 2172 3584 2448 3432 
Q 2725 3281 2906 2969 
z
M 947 1747 
Q 947 1113 1208 752 
Q 1469 391 1925 391 
Q 2381 391 2643 752 
Q 2906 1113 2906 1747 
Q 2906 2381 2643 2742 
Q 2381 3103 1925 3103 
Q 1469 3103 1208 2742 
Q 947 2381 947 1747 
z
" transform="scale(0.015625)"/>
      <path id="DejaVuSans-63" d="M 3122 3366 
L 3122 2828 
Q 2878 2963 2633 3030 
Q 2388 3097 2138 3097 
Q 1578 3097 1268 2742 
Q 959 2388 959 1747 
Q 959 1106 1268 751 
Q 1578 397 2138 397 
Q 2388 397 2633 464 
Q 2878 531 3122 666 
L 3122 134 
Q 2881 22 2623 -34 
Q 2366 -91 2075 -91 
Q 1284 -91 818 406 
Q 353 903 353 1747 
Q 353 2603 823 3093 
Q 1294 3584 2113 3584 
Q 2378 3584 2631 3529 
Q 2884 3475 3122 3366 
z
" transform="scale(0.015625)"/>
      <path id="DejaVuSans-6e" d="M 3513 2113 
L 3513 0 
L 2938 0 
L 2938 2094 
Q 2938 2591 2744 2837 
Q 2550 3084 2163 3084 
Q 1697 3084 1428 2787 
Q 1159 2491 1159 1978 
L 1159 0 
L 581 0 
L 581 3500 
L 1159 3500 
L 1159 2956 
Q 1366 3272 1645 3428 
Q 1925 3584 2291 3584 
Q 2894 3584 3203 3211 
Q 3513 2838 3513 2113 
z
" transform="scale(0.015625)"/>
      <path id="DejaVuSans-77" d="M 269 3500 
L 844 3500 
L 1563 769 
L 2278 3500 
L 2956 3500 
L 3675 769 
L 4391 3500 
L 4966 3500 
L 4050 0 
L 3372 0 
L 2619 2869 
L 1863 0 
L 1184 0 
L 269 3500 
z
" transform="scale(0.015625)"/>
      <path id="DejaVuSans-68" d="M 3513 2113 
L 3513 0 
L 2938 0 
L 2938 2094 
Q 2938 2591 2744 2837 
Q 2550 3084 2163 3084 
Q 1697 3084 1428 2787 
Q 1159 2491 1159 1978 
L 1159 0 
L 581 0 
L 581 4863 
L 1159 4863 
L 1159 2956 
Q 1366 3272 1645 3428 
Q 1925 3584 2291 3584 
Q 2894 3584 3203 3211 
Q 3513 2838 3513 2113 
z
" transform="scale(0.015625)"/>
      <path id="DejaVuSans-4d" d="M 628 4666 
L 1569 4666 
L 2759 1491 
L 3956 4666 
L 4897 4666 
L 4897 0 
L 4281 0 
L 4281 4097 
L 3078 897 
L 2444 897 
L 1241 4097 
L 1241 0 
L 628 0 
L 628 4666 
z
" transform="scale(0.015625)"/>
      <path id="DejaVuSans-4c" d="M 628 4666 
L 1259 4666 
L 1259 531 
L 3531 531 
L 3531 0 
L 628 0 
L 628 4666 
z
" transform="scale(0.015625)"/>
      <path id="DejaVuSans-53" d="M 3425 4513 
L 3425 3897 
Q 3066 4069 2747 4153 
Q 2428 4238 2131 4238 
Q 1616 4238 1336 4038 
Q 1056 3838 1056 3469 
Q 1056 3159 1242 3001 
Q 1428 2844 1947 2747 
L 2328 2669 
Q 3034 2534 3370 2195 
Q 3706 1856 3706 1288 
Q 3706 609 3251 259 
Q 2797 -91 1919 -91 
Q 1588 -91 1214 -16 
Q 841 59 441 206 
L 441 856 
Q 825 641 1194 531 
Q 1563 422 1919 422 
Q 2459 422 2753 634 
Q 3047 847 3047 1241 
Q 3047 1584 2836 1778 
Q 2625 1972 2144 2069 
L 1759 2144 
Q 1053 2284 737 2584 
Q 422 2884 422 3419 
Q 422 4038 858 4394 
Q 1294 4750 2059 4750 
Q 2388 4750 2728 4690 
Q 3069 4631 3425 4513 
z
" transform="scale(0.015625)"/>
      <path id="DejaVuSans-54" d="M -19 4666 
L 3928 4666 
L 3928 4134 
L 2272 4134 
L 2272 0 
L 1638 0 
L 1638 4134 
L -19 4134 
L -19 4666 
z
" transform="scale(0.015625)"/>
      <path id="DejaVuSans-2f" d="M 1625 4666 
L 2156 4666 
L 531 -594 
L 0 -594 
L 1625 4666 
z
" transform="scale(0.015625)"/>
      <path id="DejaVuSans-52" d="M 2841 2188 
Q 3044 2119 3236 1894 
Q 3428 1669 3622 1275 
L 4263 0 
L 3584 0 
L 2988 1197 
Q 2756 1666 2539 1819 
Q 2322 1972 1947 1972 
L 1259 1972 
L 1259 0 
L 628 0 
L 628 4666 
L 2053 4666 
Q 2853 4666 3247 4331 
Q 3641 3997 3641 3322 
Q 3641 2881 3436 2590 
Q 3231 2300 2841 2188 
z
M 1259 4147 
L 1259 2491 
L 2053 2491 
Q 2509 2491 2742 2702 
Q 2975 2913 2975 3322 
Q 2975 3731 2742 3939 
Q 2509 4147 2053 4147 
L 1259 4147 
z
" transform="scale(0.015625)"/>
      <path id="DejaVuSans-4f" d="M 2522 4238 
Q 1834 4238 1429 3725 
Q 1025 3213 1025 2328 
Q 1025 1447 1429 934 
Q 1834 422 2522 422 
Q 3209 422 3611 934 
Q 4013 1447 4013 2328 
Q 4013 3213 3611 3725 
Q 3209 4238 2522 4238 
z
M 2522 4750 
Q 3503 4750 4090 4092 
Q 4678 3434 4678 2328 
Q 4678 1225 4090 567 
Q 3503 -91 2522 -91 
Q 1538 -91 948 565 
Q 359 1222 359 2328 
Q 359 3434 948 4092 
Q 1538 4750 2522 4750 
z
" transform="scale(0.015625)"/>
      <path id="DejaVuSans-26" d="M 1556 2509 
Q 1272 2256 1139 2004 
Q 1006 1753 1006 1478 
Q 1006 1022 1337 719 
Q 1669 416 2169 416 
Q 2466 416 2725 514 
Q 2984 613 3213 813 
L 1556 2509 
z
M 1997 2859 
L 3584 1234 
Q 3769 1513 3872 1830 
Q 3975 2147 3994 2503 
L 4575 2503 
Q 4538 2091 4375 1687 
Q 4213 1284 3922 891 
L 4794 0 
L 4006 0 
L 3559 459 
Q 3234 181 2878 45 
Q 2522 -91 2113 -91 
Q 1359 -91 881 339 
Q 403 769 403 1441 
Q 403 1841 612 2192 
Q 822 2544 1241 2853 
Q 1091 3050 1012 3245 
Q 934 3441 934 3628 
Q 934 4134 1281 4442 
Q 1628 4750 2203 4750 
Q 2463 4750 2720 4694 
Q 2978 4638 3244 4525 
L 3244 3956 
Q 2972 4103 2725 4179 
Q 2478 4256 2266 4256 
Q 1938 4256 1733 4082 
Q 1528 3909 1528 3634 
Q 1528 3475 1620 3314 
Q 1713 3153 1997 2859 
z
" transform="scale(0.015625)"/>
      <path id="DejaVuSans-49" d="M 628 4666 
L 1259 4666 
L 1259 0 
L 628 0 
L 628 4666 
z
" transform="scale(0.015625)"/>
      <path id="DejaVuSans-58" d="M 403 4666 
L 1081 4666 
L 2241 2931 
L 3406 4666 
L 4084 4666 
L 2584 2425 
L 4184 0 
L 3506 0 
L 2194 1984 
L 872 0 
L 191 0 
L 1856 2491 
L 403 4666 
z
" transform="scale(0.015625)"/>
     </defs>
     <use xlink:href="#DejaVuSans-56"/>
     <use xlink:href="#DejaVuSans-6f" x="60.658203"/>
     <use xlink:href="#DejaVuSans-6c" x="121.839844"/>
     <use xlink:href="#DejaVuSans-61" x="149.623047"/>
     <use xlink:href="#DejaVuSans-74" x="210.902344"/>
     <use xlink:href="#DejaVuSans-69" x="250.111328"/>
     <use xlink:href="#DejaVuSans-6c" x="277.894531"/>
     <use xlink:href="#DejaVuSans-69" x="305.677734"/>
     <use xlink:href="#DejaVuSans-74" x="333.460938"/>
     <use xlink:href="#DejaVuSans-79" x="372.669922"/>
     <use xlink:href="#DejaVuSans-20" x="431.849609"/>
     <use xlink:href="#DejaVuSans-50" x="463.636719"/>
     <use xlink:href="#DejaVuSans-72" x="522.189453"/>
     <use xlink:href="#DejaVuSans-65" x="561.052734"/>
     <use xlink:href="#DejaVuSans-64" x="622.576172"/>
     <use xlink:href="#DejaVuSans-69" x="686.052734"/>
     <use xlink:href="#DejaVuSans-63" x="713.835938"/>
     <use xlink:href="#DejaVuSans-74" x="768.816406"/>
     <use xlink:href="#DejaVuSans-69" x="808.025391"/>
     <use xlink:href="#DejaVuSans-6f" x="835.808594"/>
     <use xlink:href="#DejaVuSans-6e" x="896.990234"/>
     <use xlink:href="#DejaVuSans-20" x="960.369141"/>
     <use xlink:href="#DejaVuSans-77" x="992.15625"/>
     <use xlink:href="#DejaVuSans-69" x="1073.943359"/>
     <use xlink:href="#DejaVuSans-74" x="1101.726562"/>
     <use xlink:href="#DejaVuSans-68" x="1140.935547"/>
     <use xlink:href="#DejaVuSans-20" x="1204.314453"/>
     <use xlink:href="#DejaVuSans-4d" x="1236.101562"/>
     <use xlink:href="#DejaVuSans-69" x="1322.380859"/>
     <use xlink:href="#DejaVuSans-6e" x="1350.164062"/>
     <use xlink:href="#DejaVuSans-69" x="1413.542969"/>
     <use xlink:href="#DejaVuSans-20" x="1441.326172"/>
     <use xlink:href="#DejaVuSans-4c" x="1473.113281"/>
     <use xlink:href="#DejaVuSans-53" x="1528.826172"/>
     <use xlink:href="#DejaVuSans-54" x="1592.302734"/>
     <use xlink:href="#DejaVuSans-4d" x="1653.386719"/>
     <use xlink:href="#DejaVuSans-20" x="1739.666016"/>
     <use xlink:href="#DejaVuSans-77" x="1771.453125"/>
     <use xlink:href="#DejaVuSans-2f" x="1853.240234"/>
     <use xlink:href="#DejaVuSans-20" x="1886.931641"/>
     <use xlink:href="#DejaVuSans-52" x="1918.71875"/>
     <use xlink:href="#DejaVuSans-56" x="1982.701172"/>
     <use xlink:href="#DejaVuSans-4f" x="2049.359375"/>
     <use xlink:href="#DejaVuSans-4c" x="2128.070312"/>
     <use xlink:href="#DejaVuSans-20" x="2183.783203"/>
     <use xlink:href="#DejaVuSans-26" x="2215.570312"/>
     <use xlink:href="#DejaVuSans-20" x="2293.548828"/>
     <use xlink:href="#DejaVuSans-56" x="2325.335938"/>
     <use xlink:href="#DejaVuSans-49" x="2393.744141"/>
     <use xlink:href="#DejaVuSans-58" x="2423.236328"/>
    </g>
   </g>
   <g id="legend_1">
    <g id="patch_7">
     <path d="M 513.823437 89.19625 
L 770.6 89.19625 
Q 772.6 89.19625 772.6 87.19625 
L 772.6 58.84 
Q 772.6 56.84 770.6 56.84 
L 513.823437 56.84 
Q 511.823437 56.84 511.823437 58.84 
L 511.823437 87.19625 
Q 511.823437 89.19625 513.823437 89.19625 
z
" style="fill: #ffffff; opacity: 0.8; stroke: #cccccc; stroke-linejoin: miter"/>
    </g>
    <g id="line2d_19">
     <path d="M 515.823437 64.938437 
L 525.823437 64.938437 
L 535.823437 64.938437 
" style="fill: none; stroke: #000000; stroke-width: 1.5; stroke-linecap: square"/>
    </g>
    <g id="text_20">
     <!-- Absolute Returns -->
     <g transform="translate(543.823437 68.438437) scale(0.1 -0.1)">
      <defs>
       <path id="DejaVuSans-41" d="M 2188 4044 
L 1331 1722 
L 3047 1722 
L 2188 4044 
z
M 1831 4666 
L 2547 4666 
L 4325 0 
L 3669 0 
L 3244 1197 
L 1141 1197 
L 716 0 
L 50 0 
L 1831 4666 
z
" transform="scale(0.015625)"/>
       <path id="DejaVuSans-62" d="M 3116 1747 
Q 3116 2381 2855 2742 
Q 2594 3103 2138 3103 
Q 1681 3103 1420 2742 
Q 1159 2381 1159 1747 
Q 1159 1113 1420 752 
Q 1681 391 2138 391 
Q 2594 391 2855 752 
Q 3116 1113 3116 1747 
z
M 1159 2969 
Q 1341 3281 1617 3432 
Q 1894 3584 2278 3584 
Q 2916 3584 3314 3078 
Q 3713 2572 3713 1747 
Q 3713 922 3314 415 
Q 2916 -91 2278 -91 
Q 1894 -91 1617 61 
Q 1341 213 1159 525 
L 1159 0 
L 581 0 
L 581 4863 
L 1159 4863 
L 1159 2969 
z
" transform="scale(0.015625)"/>
       <path id="DejaVuSans-73" d="M 2834 3397 
L 2834 2853 
Q 2591 2978 2328 3040 
Q 2066 3103 1784 3103 
Q 1356 3103 1142 2972 
Q 928 2841 928 2578 
Q 928 2378 1081 2264 
Q 1234 2150 1697 2047 
L 1894 2003 
Q 2506 1872 2764 1633 
Q 3022 1394 3022 966 
Q 3022 478 2636 193 
Q 2250 -91 1575 -91 
Q 1294 -91 989 -36 
Q 684 19 347 128 
L 347 722 
Q 666 556 975 473 
Q 1284 391 1588 391 
Q 1994 391 2212 530 
Q 2431 669 2431 922 
Q 2431 1156 2273 1281 
Q 2116 1406 1581 1522 
L 1381 1569 
Q 847 1681 609 1914 
Q 372 2147 372 2553 
Q 372 3047 722 3315 
Q 1072 3584 1716 3584 
Q 2034 3584 2315 3537 
Q 2597 3491 2834 3397 
z
" transform="scale(0.015625)"/>
       <path id="DejaVuSans-75" d="M 544 1381 
L 544 3500 
L 1119 3500 
L 1119 1403 
Q 1119 906 1312 657 
Q 1506 409 1894 409 
Q 2359 409 2629 706 
Q 2900 1003 2900 1516 
L 2900 3500 
L 3475 3500 
L 3475 0 
L 2900 0 
L 2900 538 
Q 2691 219 2414 64 
Q 2138 -91 1772 -91 
Q 1169 -91 856 284 
Q 544 659 544 1381 
z
M 1991 3584 
L 1991 3584 
z
" transform="scale(0.015625)"/>
      </defs>
      <use xlink:href="#DejaVuSans-41"/>
      <use xlink:href="#DejaVuSans-62" x="68.408203"/>
      <use xlink:href="#DejaVuSans-73" x="131.884766"/>
      <use xlink:href="#DejaVuSans-6f" x="183.984375"/>
      <use xlink:href="#DejaVuSans-6c" x="245.166016"/>
      <use xlink:href="#DejaVuSans-75" x="272.949219"/>
      <use xlink:href="#DejaVuSans-74" x="336.328125"/>
      <use xlink:href="#DejaVuSans-65" x="375.537109"/>
      <use xlink:href="#DejaVuSans-20" x="437.060547"/>
      <use xlink:href="#DejaVuSans-52" x="468.847656"/>
      <use xlink:href="#DejaVuSans-65" x="533.830078"/>
      <use xlink:href="#DejaVuSans-74" x="595.353516"/>
      <use xlink:href="#DejaVuSans-75" x="634.5625"/>
      <use xlink:href="#DejaVuSans-72" x="697.941406"/>
      <use xlink:href="#DejaVuSans-6e" x="737.304688"/>
      <use xlink:href="#DejaVuSans-73" x="800.683594"/>
     </g>
    </g>
    <g id="line2d_20">
     <path d="M 515.823437 79.616562 
L 525.823437 79.616562 
L 535.823437 79.616562 
" style="fill: none; stroke: #1f77b4; stroke-width: 1.5; stroke-linecap: square"/>
    </g>
    <g id="text_21">
     <!-- Mini LSTM w/ RVOL &amp; VIX Volatility Prediction -->
     <g transform="translate(543.823437 83.116562) scale(0.1 -0.1)">
      <use xlink:href="#DejaVuSans-4d"/>
      <use xlink:href="#DejaVuSans-69" x="86.279297"/>
      <use xlink:href="#DejaVuSans-6e" x="114.0625"/>
      <use xlink:href="#DejaVuSans-69" x="177.441406"/>
      <use xlink:href="#DejaVuSans-20" x="205.224609"/>
      <use xlink:href="#DejaVuSans-4c" x="237.011719"/>
      <use xlink:href="#DejaVuSans-53" x="292.724609"/>
      <use xlink:href="#DejaVuSans-54" x="356.201172"/>
      <use xlink:href="#DejaVuSans-4d" x="417.285156"/>
      <use xlink:href="#DejaVuSans-20" x="503.564453"/>
      <use xlink:href="#DejaVuSans-77" x="535.351562"/>
      <use xlink:href="#DejaVuSans-2f" x="617.138672"/>
      <use xlink:href="#DejaVuSans-20" x="650.830078"/>
      <use xlink:href="#DejaVuSans-52" x="682.617188"/>
      <use xlink:href="#DejaVuSans-56" x="746.599609"/>
      <use xlink:href="#DejaVuSans-4f" x="813.257812"/>
      <use xlink:href="#DejaVuSans-4c" x="891.96875"/>
      <use xlink:href="#DejaVuSans-20" x="947.681641"/>
      <use xlink:href="#DejaVuSans-26" x="979.46875"/>
      <use xlink:href="#DejaVuSans-20" x="1057.447266"/>
      <use xlink:href="#DejaVuSans-56" x="1089.234375"/>
      <use xlink:href="#DejaVuSans-49" x="1157.642578"/>
      <use xlink:href="#DejaVuSans-58" x="1187.134766"/>
      <use xlink:href="#DejaVuSans-20" x="1255.640625"/>
      <use xlink:href="#DejaVuSans-56" x="1287.427734"/>
      <use xlink:href="#DejaVuSans-6f" x="1348.085938"/>
      <use xlink:href="#DejaVuSans-6c" x="1409.267578"/>
      <use xlink:href="#DejaVuSans-61" x="1437.050781"/>
      <use xlink:href="#DejaVuSans-74" x="1498.330078"/>
      <use xlink:href="#DejaVuSans-69" x="1537.539062"/>
      <use xlink:href="#DejaVuSans-6c" x="1565.322266"/>
      <use xlink:href="#DejaVuSans-69" x="1593.105469"/>
      <use xlink:href="#DejaVuSans-74" x="1620.888672"/>
      <use xlink:href="#DejaVuSans-79" x="1660.097656"/>
      <use xlink:href="#DejaVuSans-20" x="1719.277344"/>
      <use xlink:href="#DejaVuSans-50" x="1751.064453"/>
      <use xlink:href="#DejaVuSans-72" x="1809.617188"/>
      <use xlink:href="#DejaVuSans-65" x="1848.480469"/>
      <use xlink:href="#DejaVuSans-64" x="1910.003906"/>
      <use xlink:href="#DejaVuSans-69" x="1973.480469"/>
      <use xlink:href="#DejaVuSans-63" x="2001.263672"/>
      <use xlink:href="#DejaVuSans-74" x="2056.244141"/>
      <use xlink:href="#DejaVuSans-69" x="2095.453125"/>
      <use xlink:href="#DejaVuSans-6f" x="2123.236328"/>
      <use xlink:href="#DejaVuSans-6e" x="2184.417969"/>
     </g>
    </g>
   </g>
  </g>
 </g>
 <defs>
  <clipPath id="pce846bb8d6">
   <rect x="108" y="51.84" width="669.6" height="332.64"/>
  </clipPath>
 </defs>
</svg>
