<?xml version="1.0" encoding="utf-8" standalone="no"?>
<!DOCTYPE svg PUBLIC "-//W3C//DTD SVG 1.1//EN"
  "http://www.w3.org/Graphics/SVG/1.1/DTD/svg11.dtd">
<svg xmlns:xlink="http://www.w3.org/1999/xlink" width="864pt" height="432pt" viewBox="0 0 864 432" xmlns="http://www.w3.org/2000/svg" version="1.1">
 <metadata>
  <rdf:RDF xmlns:dc="http://purl.org/dc/elements/1.1/" xmlns:cc="http://creativecommons.org/ns#" xmlns:rdf="http://www.w3.org/1999/02/22-rdf-syntax-ns#">
   <cc:Work>
    <dc:type rdf:resource="http://purl.org/dc/dcmitype/StillImage"/>
    <dc:date>2024-11-13T14:16:20.668552</dc:date>
    <dc:format>image/svg+xml</dc:format>
    <dc:creator>
     <cc:Agent>
      <dc:title>Matplotlib v3.6.3, https://matplotlib.org/</dc:title>
     </cc:Agent>
    </dc:creator>
   </cc:Work>
  </rdf:RDF>
 </metadata>
 <defs>
  <style type="text/css">*{stroke-linejoin: round; stroke-linecap: butt}</style>
 </defs>
 <g id="figure_1">
  <g id="patch_1">
   <path d="M 0 432 
L 864 432 
L 864 0 
L 0 0 
z
" style="fill: #ffffff"/>
  </g>
  <g id="axes_1">
   <g id="patch_2">
    <path d="M 108 384.48 
L 777.6 384.48 
L 777.6 51.84 
L 108 51.84 
z
" style="fill: #ffffff"/>
   </g>
   <g id="matplotlib.axis_1">
    <g id="xtick_1">
     <g id="line2d_1">
      <defs>
       <path id="mde1503ac44" d="M 0 0 
L 0 3.5 
" style="stroke: #000000; stroke-width: 0.8"/>
      </defs>
      <g>
       <use xlink:href="#mde1503ac44" x="138.822857" y="384.48" style="stroke: #000000; stroke-width: 0.8"/>
      </g>
     </g>
     <g id="text_1">
      <!-- 2020-07 -->
      <g transform="translate(117.931451 399.078438) scale(0.1 -0.1)">
       <defs>
        <path id="DejaVuSans-32" d="M 1228 531 
L 3431 531 
L 3431 0 
L 469 0 
L 469 531 
Q 828 903 1448 1529 
Q 2069 2156 2228 2338 
Q 2531 2678 2651 2914 
Q 2772 3150 2772 3378 
Q 2772 3750 2511 3984 
Q 2250 4219 1831 4219 
Q 1534 4219 1204 4116 
Q 875 4013 500 3803 
L 500 4441 
Q 881 4594 1212 4672 
Q 1544 4750 1819 4750 
Q 2544 4750 2975 4387 
Q 3406 4025 3406 3419 
Q 3406 3131 3298 2873 
Q 3191 2616 2906 2266 
Q 2828 2175 2409 1742 
Q 1991 1309 1228 531 
z
" transform="scale(0.015625)"/>
        <path id="DejaVuSans-30" d="M 2034 4250 
Q 1547 4250 1301 3770 
Q 1056 3291 1056 2328 
Q 1056 1369 1301 889 
Q 1547 409 2034 409 
Q 2525 409 2770 889 
Q 3016 1369 3016 2328 
Q 3016 3291 2770 3770 
Q 2525 4250 2034 4250 
z
M 2034 4750 
Q 2819 4750 3233 4129 
Q 3647 3509 3647 2328 
Q 3647 1150 3233 529 
Q 2819 -91 2034 -91 
Q 1250 -91 836 529 
Q 422 1150 422 2328 
Q 422 3509 836 4129 
Q 1250 4750 2034 4750 
z
" transform="scale(0.015625)"/>
        <path id="DejaVuSans-2d" d="M 313 2009 
L 1997 2009 
L 1997 1497 
L 313 1497 
L 313 2009 
z
" transform="scale(0.015625)"/>
        <path id="DejaVuSans-37" d="M 525 4666 
L 3525 4666 
L 3525 4397 
L 1831 0 
L 1172 0 
L 2766 4134 
L 525 4134 
L 525 4666 
z
" transform="scale(0.015625)"/>
       </defs>
       <use xlink:href="#DejaVuSans-32"/>
       <use xlink:href="#DejaVuSans-30" x="63.623047"/>
       <use xlink:href="#DejaVuSans-32" x="127.246094"/>
       <use xlink:href="#DejaVuSans-30" x="190.869141"/>
       <use xlink:href="#DejaVuSans-2d" x="254.492188"/>
       <use xlink:href="#DejaVuSans-30" x="290.576172"/>
       <use xlink:href="#DejaVuSans-37" x="354.199219"/>
      </g>
     </g>
    </g>
    <g id="xtick_2">
     <g id="line2d_2">
      <g>
       <use xlink:href="#mde1503ac44" x="209.937662" y="384.48" style="stroke: #000000; stroke-width: 0.8"/>
      </g>
     </g>
     <g id="text_2">
      <!-- 2021-01 -->
      <g transform="translate(189.046256 399.078438) scale(0.1 -0.1)">
       <defs>
        <path id="DejaVuSans-31" d="M 794 531 
L 1825 531 
L 1825 4091 
L 703 3866 
L 703 4441 
L 1819 4666 
L 2450 4666 
L 2450 531 
L 3481 531 
L 3481 0 
L 794 0 
L 794 531 
z
" transform="scale(0.015625)"/>
       </defs>
       <use xlink:href="#DejaVuSans-32"/>
       <use xlink:href="#DejaVuSans-30" x="63.623047"/>
       <use xlink:href="#DejaVuSans-32" x="127.246094"/>
       <use xlink:href="#DejaVuSans-31" x="190.869141"/>
       <use xlink:href="#DejaVuSans-2d" x="254.492188"/>
       <use xlink:href="#DejaVuSans-30" x="290.576172"/>
       <use xlink:href="#DejaVuSans-31" x="354.199219"/>
      </g>
     </g>
    </g>
    <g id="xtick_3">
     <g id="line2d_3">
      <g>
       <use xlink:href="#mde1503ac44" x="279.892987" y="384.48" style="stroke: #000000; stroke-width: 0.8"/>
      </g>
     </g>
     <g id="text_3">
      <!-- 2021-07 -->
      <g transform="translate(259.001581 399.078438) scale(0.1 -0.1)">
       <use xlink:href="#DejaVuSans-32"/>
       <use xlink:href="#DejaVuSans-30" x="63.623047"/>
       <use xlink:href="#DejaVuSans-32" x="127.246094"/>
       <use xlink:href="#DejaVuSans-31" x="190.869141"/>
       <use xlink:href="#DejaVuSans-2d" x="254.492188"/>
       <use xlink:href="#DejaVuSans-30" x="290.576172"/>
       <use xlink:href="#DejaVuSans-37" x="354.199219"/>
      </g>
     </g>
    </g>
    <g id="xtick_4">
     <g id="line2d_4">
      <g>
       <use xlink:href="#mde1503ac44" x="351.007792" y="384.48" style="stroke: #000000; stroke-width: 0.8"/>
      </g>
     </g>
     <g id="text_4">
      <!-- 2022-01 -->
      <g transform="translate(330.116386 399.078438) scale(0.1 -0.1)">
       <use xlink:href="#DejaVuSans-32"/>
       <use xlink:href="#DejaVuSans-30" x="63.623047"/>
       <use xlink:href="#DejaVuSans-32" x="127.246094"/>
       <use xlink:href="#DejaVuSans-32" x="190.869141"/>
       <use xlink:href="#DejaVuSans-2d" x="254.492188"/>
       <use xlink:href="#DejaVuSans-30" x="290.576172"/>
       <use xlink:href="#DejaVuSans-31" x="354.199219"/>
      </g>
     </g>
    </g>
    <g id="xtick_5">
     <g id="line2d_5">
      <g>
       <use xlink:href="#mde1503ac44" x="420.963117" y="384.48" style="stroke: #000000; stroke-width: 0.8"/>
      </g>
     </g>
     <g id="text_5">
      <!-- 2022-07 -->
      <g transform="translate(400.071711 399.078438) scale(0.1 -0.1)">
       <use xlink:href="#DejaVuSans-32"/>
       <use xlink:href="#DejaVuSans-30" x="63.623047"/>
       <use xlink:href="#DejaVuSans-32" x="127.246094"/>
       <use xlink:href="#DejaVuSans-32" x="190.869141"/>
       <use xlink:href="#DejaVuSans-2d" x="254.492188"/>
       <use xlink:href="#DejaVuSans-30" x="290.576172"/>
       <use xlink:href="#DejaVuSans-37" x="354.199219"/>
      </g>
     </g>
    </g>
    <g id="xtick_6">
     <g id="line2d_6">
      <g>
       <use xlink:href="#mde1503ac44" x="492.077922" y="384.48" style="stroke: #000000; stroke-width: 0.8"/>
      </g>
     </g>
     <g id="text_6">
      <!-- 2023-01 -->
      <g transform="translate(471.186516 399.078438) scale(0.1 -0.1)">
       <defs>
        <path id="DejaVuSans-33" d="M 2597 2516 
Q 3050 2419 3304 2112 
Q 3559 1806 3559 1356 
Q 3559 666 3084 287 
Q 2609 -91 1734 -91 
Q 1441 -91 1130 -33 
Q 819 25 488 141 
L 488 750 
Q 750 597 1062 519 
Q 1375 441 1716 441 
Q 2309 441 2620 675 
Q 2931 909 2931 1356 
Q 2931 1769 2642 2001 
Q 2353 2234 1838 2234 
L 1294 2234 
L 1294 2753 
L 1863 2753 
Q 2328 2753 2575 2939 
Q 2822 3125 2822 3475 
Q 2822 3834 2567 4026 
Q 2313 4219 1838 4219 
Q 1578 4219 1281 4162 
Q 984 4106 628 3988 
L 628 4550 
Q 988 4650 1302 4700 
Q 1616 4750 1894 4750 
Q 2613 4750 3031 4423 
Q 3450 4097 3450 3541 
Q 3450 3153 3228 2886 
Q 3006 2619 2597 2516 
z
" transform="scale(0.015625)"/>
       </defs>
       <use xlink:href="#DejaVuSans-32"/>
       <use xlink:href="#DejaVuSans-30" x="63.623047"/>
       <use xlink:href="#DejaVuSans-32" x="127.246094"/>
       <use xlink:href="#DejaVuSans-33" x="190.869141"/>
       <use xlink:href="#DejaVuSans-2d" x="254.492188"/>
       <use xlink:href="#DejaVuSans-30" x="290.576172"/>
       <use xlink:href="#DejaVuSans-31" x="354.199219"/>
      </g>
     </g>
    </g>
    <g id="xtick_7">
     <g id="line2d_7">
      <g>
       <use xlink:href="#mde1503ac44" x="562.033247" y="384.48" style="stroke: #000000; stroke-width: 0.8"/>
      </g>
     </g>
     <g id="text_7">
      <!-- 2023-07 -->
      <g transform="translate(541.141841 399.078438) scale(0.1 -0.1)">
       <use xlink:href="#DejaVuSans-32"/>
       <use xlink:href="#DejaVuSans-30" x="63.623047"/>
       <use xlink:href="#DejaVuSans-32" x="127.246094"/>
       <use xlink:href="#DejaVuSans-33" x="190.869141"/>
       <use xlink:href="#DejaVuSans-2d" x="254.492188"/>
       <use xlink:href="#DejaVuSans-30" x="290.576172"/>
       <use xlink:href="#DejaVuSans-37" x="354.199219"/>
      </g>
     </g>
    </g>
    <g id="xtick_8">
     <g id="line2d_8">
      <g>
       <use xlink:href="#mde1503ac44" x="633.148052" y="384.48" style="stroke: #000000; stroke-width: 0.8"/>
      </g>
     </g>
     <g id="text_8">
      <!-- 2024-01 -->
      <g transform="translate(612.256646 399.078438) scale(0.1 -0.1)">
       <defs>
        <path id="DejaVuSans-34" d="M 2419 4116 
L 825 1625 
L 2419 1625 
L 2419 4116 
z
M 2253 4666 
L 3047 4666 
L 3047 1625 
L 3713 1625 
L 3713 1100 
L 3047 1100 
L 3047 0 
L 2419 0 
L 2419 1100 
L 313 1100 
L 313 1709 
L 2253 4666 
z
" transform="scale(0.015625)"/>
       </defs>
       <use xlink:href="#DejaVuSans-32"/>
       <use xlink:href="#DejaVuSans-30" x="63.623047"/>
       <use xlink:href="#DejaVuSans-32" x="127.246094"/>
       <use xlink:href="#DejaVuSans-34" x="190.869141"/>
       <use xlink:href="#DejaVuSans-2d" x="254.492188"/>
       <use xlink:href="#DejaVuSans-30" x="290.576172"/>
       <use xlink:href="#DejaVuSans-31" x="354.199219"/>
      </g>
     </g>
    </g>
    <g id="xtick_9">
     <g id="line2d_9">
      <g>
       <use xlink:href="#mde1503ac44" x="703.48987" y="384.48" style="stroke: #000000; stroke-width: 0.8"/>
      </g>
     </g>
     <g id="text_9">
      <!-- 2024-07 -->
      <g transform="translate(682.598464 399.078438) scale(0.1 -0.1)">
       <use xlink:href="#DejaVuSans-32"/>
       <use xlink:href="#DejaVuSans-30" x="63.623047"/>
       <use xlink:href="#DejaVuSans-32" x="127.246094"/>
       <use xlink:href="#DejaVuSans-34" x="190.869141"/>
       <use xlink:href="#DejaVuSans-2d" x="254.492188"/>
       <use xlink:href="#DejaVuSans-30" x="290.576172"/>
       <use xlink:href="#DejaVuSans-37" x="354.199219"/>
      </g>
     </g>
    </g>
    <g id="xtick_10">
     <g id="line2d_10">
      <g>
       <use xlink:href="#mde1503ac44" x="774.604675" y="384.48" style="stroke: #000000; stroke-width: 0.8"/>
      </g>
     </g>
     <g id="text_10">
      <!-- 2025-01 -->
      <g transform="translate(753.713269 399.078438) scale(0.1 -0.1)">
       <defs>
        <path id="DejaVuSans-35" d="M 691 4666 
L 3169 4666 
L 3169 4134 
L 1269 4134 
L 1269 2991 
Q 1406 3038 1543 3061 
Q 1681 3084 1819 3084 
Q 2600 3084 3056 2656 
Q 3513 2228 3513 1497 
Q 3513 744 3044 326 
Q 2575 -91 1722 -91 
Q 1428 -91 1123 -41 
Q 819 9 494 109 
L 494 744 
Q 775 591 1075 516 
Q 1375 441 1709 441 
Q 2250 441 2565 725 
Q 2881 1009 2881 1497 
Q 2881 1984 2565 2268 
Q 2250 2553 1709 2553 
Q 1456 2553 1204 2497 
Q 953 2441 691 2322 
L 691 4666 
z
" transform="scale(0.015625)"/>
       </defs>
       <use xlink:href="#DejaVuSans-32"/>
       <use xlink:href="#DejaVuSans-30" x="63.623047"/>
       <use xlink:href="#DejaVuSans-32" x="127.246094"/>
       <use xlink:href="#DejaVuSans-35" x="190.869141"/>
       <use xlink:href="#DejaVuSans-2d" x="254.492188"/>
       <use xlink:href="#DejaVuSans-30" x="290.576172"/>
       <use xlink:href="#DejaVuSans-31" x="354.199219"/>
      </g>
     </g>
    </g>
    <g id="text_11">
     <!-- Date -->
     <g transform="translate(430.849219 412.756563) scale(0.1 -0.1)">
      <defs>
       <path id="DejaVuSans-44" d="M 1259 4147 
L 1259 519 
L 2022 519 
Q 2988 519 3436 956 
Q 3884 1394 3884 2338 
Q 3884 3275 3436 3711 
Q 2988 4147 2022 4147 
L 1259 4147 
z
M 628 4666 
L 1925 4666 
Q 3281 4666 3915 4102 
Q 4550 3538 4550 2338 
Q 4550 1131 3912 565 
Q 3275 0 1925 0 
L 628 0 
L 628 4666 
z
" transform="scale(0.015625)"/>
       <path id="DejaVuSans-61" d="M 2194 1759 
Q 1497 1759 1228 1600 
Q 959 1441 959 1056 
Q 959 750 1161 570 
Q 1363 391 1709 391 
Q 2188 391 2477 730 
Q 2766 1069 2766 1631 
L 2766 1759 
L 2194 1759 
z
M 3341 1997 
L 3341 0 
L 2766 0 
L 2766 531 
Q 2569 213 2275 61 
Q 1981 -91 1556 -91 
Q 1019 -91 701 211 
Q 384 513 384 1019 
Q 384 1609 779 1909 
Q 1175 2209 1959 2209 
L 2766 2209 
L 2766 2266 
Q 2766 2663 2505 2880 
Q 2244 3097 1772 3097 
Q 1472 3097 1187 3025 
Q 903 2953 641 2809 
L 641 3341 
Q 956 3463 1253 3523 
Q 1550 3584 1831 3584 
Q 2591 3584 2966 3190 
Q 3341 2797 3341 1997 
z
" transform="scale(0.015625)"/>
       <path id="DejaVuSans-74" d="M 1172 4494 
L 1172 3500 
L 2356 3500 
L 2356 3053 
L 1172 3053 
L 1172 1153 
Q 1172 725 1289 603 
Q 1406 481 1766 481 
L 2356 481 
L 2356 0 
L 1766 0 
Q 1100 0 847 248 
Q 594 497 594 1153 
L 594 3053 
L 172 3053 
L 172 3500 
L 594 3500 
L 594 4494 
L 1172 4494 
z
" transform="scale(0.015625)"/>
       <path id="DejaVuSans-65" d="M 3597 1894 
L 3597 1613 
L 953 1613 
Q 991 1019 1311 708 
Q 1631 397 2203 397 
Q 2534 397 2845 478 
Q 3156 559 3463 722 
L 3463 178 
Q 3153 47 2828 -22 
Q 2503 -91 2169 -91 
Q 1331 -91 842 396 
Q 353 884 353 1716 
Q 353 2575 817 3079 
Q 1281 3584 2069 3584 
Q 2775 3584 3186 3129 
Q 3597 2675 3597 1894 
z
M 3022 2063 
Q 3016 2534 2758 2815 
Q 2500 3097 2075 3097 
Q 1594 3097 1305 2825 
Q 1016 2553 972 2059 
L 3022 2063 
z
" transform="scale(0.015625)"/>
      </defs>
      <use xlink:href="#DejaVuSans-44"/>
      <use xlink:href="#DejaVuSans-61" x="77.001953"/>
      <use xlink:href="#DejaVuSans-74" x="138.28125"/>
      <use xlink:href="#DejaVuSans-65" x="177.490234"/>
     </g>
    </g>
   </g>
   <g id="matplotlib.axis_2">
    <g id="ytick_1">
     <g id="line2d_11">
      <defs>
       <path id="m4ef61de566" d="M 0 0 
L -3.5 0 
" style="stroke: #000000; stroke-width: 0.8"/>
      </defs>
      <g>
       <use xlink:href="#m4ef61de566" x="108" y="369.392416" style="stroke: #000000; stroke-width: 0.8"/>
      </g>
     </g>
     <g id="text_12">
      <!-- 0.00 -->
      <g transform="translate(78.734375 373.191635) scale(0.1 -0.1)">
       <defs>
        <path id="DejaVuSans-2e" d="M 684 794 
L 1344 794 
L 1344 0 
L 684 0 
L 684 794 
z
" transform="scale(0.015625)"/>
       </defs>
       <use xlink:href="#DejaVuSans-30"/>
       <use xlink:href="#DejaVuSans-2e" x="63.623047"/>
       <use xlink:href="#DejaVuSans-30" x="95.410156"/>
       <use xlink:href="#DejaVuSans-30" x="159.033203"/>
      </g>
     </g>
    </g>
    <g id="ytick_2">
     <g id="line2d_12">
      <g>
       <use xlink:href="#m4ef61de566" x="108" y="313.337108" style="stroke: #000000; stroke-width: 0.8"/>
      </g>
     </g>
     <g id="text_13">
      <!-- 0.01 -->
      <g transform="translate(78.734375 317.136327) scale(0.1 -0.1)">
       <use xlink:href="#DejaVuSans-30"/>
       <use xlink:href="#DejaVuSans-2e" x="63.623047"/>
       <use xlink:href="#DejaVuSans-30" x="95.410156"/>
       <use xlink:href="#DejaVuSans-31" x="159.033203"/>
      </g>
     </g>
    </g>
    <g id="ytick_3">
     <g id="line2d_13">
      <g>
       <use xlink:href="#m4ef61de566" x="108" y="257.2818" style="stroke: #000000; stroke-width: 0.8"/>
      </g>
     </g>
     <g id="text_14">
      <!-- 0.02 -->
      <g transform="translate(78.734375 261.081019) scale(0.1 -0.1)">
       <use xlink:href="#DejaVuSans-30"/>
       <use xlink:href="#DejaVuSans-2e" x="63.623047"/>
       <use xlink:href="#DejaVuSans-30" x="95.410156"/>
       <use xlink:href="#DejaVuSans-32" x="159.033203"/>
      </g>
     </g>
    </g>
    <g id="ytick_4">
     <g id="line2d_14">
      <g>
       <use xlink:href="#m4ef61de566" x="108" y="201.226493" style="stroke: #000000; stroke-width: 0.8"/>
      </g>
     </g>
     <g id="text_15">
      <!-- 0.03 -->
      <g transform="translate(78.734375 205.025711) scale(0.1 -0.1)">
       <use xlink:href="#DejaVuSans-30"/>
       <use xlink:href="#DejaVuSans-2e" x="63.623047"/>
       <use xlink:href="#DejaVuSans-30" x="95.410156"/>
       <use xlink:href="#DejaVuSans-33" x="159.033203"/>
      </g>
     </g>
    </g>
    <g id="ytick_5">
     <g id="line2d_15">
      <g>
       <use xlink:href="#m4ef61de566" x="108" y="145.171185" style="stroke: #000000; stroke-width: 0.8"/>
      </g>
     </g>
     <g id="text_16">
      <!-- 0.04 -->
      <g transform="translate(78.734375 148.970403) scale(0.1 -0.1)">
       <use xlink:href="#DejaVuSans-30"/>
       <use xlink:href="#DejaVuSans-2e" x="63.623047"/>
       <use xlink:href="#DejaVuSans-30" x="95.410156"/>
       <use xlink:href="#DejaVuSans-34" x="159.033203"/>
      </g>
     </g>
    </g>
    <g id="ytick_6">
     <g id="line2d_16">
      <g>
       <use xlink:href="#m4ef61de566" x="108" y="89.115877" style="stroke: #000000; stroke-width: 0.8"/>
      </g>
     </g>
     <g id="text_17">
      <!-- 0.05 -->
      <g transform="translate(78.734375 92.915095) scale(0.1 -0.1)">
       <use xlink:href="#DejaVuSans-30"/>
       <use xlink:href="#DejaVuSans-2e" x="63.623047"/>
       <use xlink:href="#DejaVuSans-30" x="95.410156"/>
       <use xlink:href="#DejaVuSans-35" x="159.033203"/>
      </g>
     </g>
    </g>
    <g id="text_18">
     <!-- Volatility -->
     <g transform="translate(72.654687 239.752187) rotate(-90) scale(0.1 -0.1)">
      <defs>
       <path id="DejaVuSans-56" d="M 1831 0 
L 50 4666 
L 709 4666 
L 2188 738 
L 3669 4666 
L 4325 4666 
L 2547 0 
L 1831 0 
z
" transform="scale(0.015625)"/>
       <path id="DejaVuSans-6f" d="M 1959 3097 
Q 1497 3097 1228 2736 
Q 959 2375 959 1747 
Q 959 1119 1226 758 
Q 1494 397 1959 397 
Q 2419 397 2687 759 
Q 2956 1122 2956 1747 
Q 2956 2369 2687 2733 
Q 2419 3097 1959 3097 
z
M 1959 3584 
Q 2709 3584 3137 3096 
Q 3566 2609 3566 1747 
Q 3566 888 3137 398 
Q 2709 -91 1959 -91 
Q 1206 -91 779 398 
Q 353 888 353 1747 
Q 353 2609 779 3096 
Q 1206 3584 1959 3584 
z
" transform="scale(0.015625)"/>
       <path id="DejaVuSans-6c" d="M 603 4863 
L 1178 4863 
L 1178 0 
L 603 0 
L 603 4863 
z
" transform="scale(0.015625)"/>
       <path id="DejaVuSans-69" d="M 603 3500 
L 1178 3500 
L 1178 0 
L 603 0 
L 603 3500 
z
M 603 4863 
L 1178 4863 
L 1178 4134 
L 603 4134 
L 603 4863 
z
" transform="scale(0.015625)"/>
       <path id="DejaVuSans-79" d="M 2059 -325 
Q 1816 -950 1584 -1140 
Q 1353 -1331 966 -1331 
L 506 -1331 
L 506 -850 
L 844 -850 
Q 1081 -850 1212 -737 
Q 1344 -625 1503 -206 
L 1606 56 
L 191 3500 
L 800 3500 
L 1894 763 
L 2988 3500 
L 3597 3500 
L 2059 -325 
z
" transform="scale(0.015625)"/>
      </defs>
      <use xlink:href="#DejaVuSans-56"/>
      <use xlink:href="#DejaVuSans-6f" x="60.658203"/>
      <use xlink:href="#DejaVuSans-6c" x="121.839844"/>
      <use xlink:href="#DejaVuSans-61" x="149.623047"/>
      <use xlink:href="#DejaVuSans-74" x="210.902344"/>
      <use xlink:href="#DejaVuSans-69" x="250.111328"/>
      <use xlink:href="#DejaVuSans-6c" x="277.894531"/>
      <use xlink:href="#DejaVuSans-69" x="305.677734"/>
      <use xlink:href="#DejaVuSans-74" x="333.460938"/>
      <use xlink:href="#DejaVuSans-79" x="372.669922"/>
     </g>
    </g>
   </g>
   <g id="line2d_17">
    <path d="M 138.436364 283.67068 
L 138.822857 341.311152 
L 139.209351 343.993921 
L 140.755325 281.066455 
L 141.141818 308.418378 
L 141.528312 325.68617 
L 141.914805 337.667403 
L 142.301299 311.028696 
L 143.460779 316.663178 
L 143.847273 294.741878 
L 144.233766 318.712493 
L 144.62026 350.266819 
L 145.006753 353.447133 
L 146.166234 322.464048 
L 146.552727 359.988413 
L 146.939221 337.26919 
L 147.325714 299.904134 
L 147.712208 334.584089 
L 148.871688 328.091265 
L 149.258182 332.987658 
L 149.644675 300.154114 
L 150.031169 348.330747 
L 150.417662 326.559232 
L 151.577143 329.282811 
L 151.963636 349.182105 
L 152.35013 333.46567 
L 152.736623 333.477075 
L 153.123117 365.845073 
L 154.282597 354.041864 
L 155.055584 291.478327 
L 155.442078 357.905155 
L 155.828571 368.42884 
L 156.988052 354.222856 
L 157.374545 356.495545 
L 157.761039 344.648913 
L 158.147532 351.714508 
L 158.534026 350.136298 
L 159.693506 313.372898 
L 160.08 349.269123 
L 160.466494 312.529905 
L 160.852987 360.021952 
L 161.239481 331.779289 
L 162.398961 357.074962 
L 162.785455 327.368698 
L 163.171948 283.913395 
L 163.558442 168.952122 
L 163.944935 323.616078 
L 165.490909 211.603288 
L 165.877403 257.591446 
L 166.263896 269.943315 
L 166.65039 366.405059 
L 167.80987 298.418914 
L 168.196364 340.211223 
L 168.582857 343.440788 
L 169.355844 306.354989 
L 170.515325 304.152087 
L 170.901818 310.741657 
L 171.288312 234.81854 
L 171.674805 352.671087 
L 172.061299 280.542291 
L 173.220779 279.803747 
L 173.607273 342.349751 
L 173.993766 323.315836 
L 174.38026 339.801102 
L 174.766753 315.445837 
L 175.926234 269.540485 
L 176.312727 290.511026 
L 176.699221 272.71291 
L 177.085714 324.670298 
L 177.472208 320.31546 
L 178.631688 278.120192 
L 179.018182 333.926831 
L 179.404675 332.142699 
L 179.791169 360.821989 
L 180.177662 368.636171 
L 181.337143 277.099238 
L 181.723636 342.955639 
L 182.11013 357.070822 
L 182.496623 340.213645 
L 182.883117 350.110296 
L 184.042597 264.207585 
L 184.429091 352.406507 
L 184.815584 168.010683 
L 185.202078 302.81819 
L 185.588571 300.984126 
L 186.748052 300.764179 
L 187.521039 247.14966 
L 187.907532 261.355453 
L 188.294026 367.779244 
L 189.453506 304.188958 
L 189.84 361.540281 
L 190.226494 326.66295 
L 190.612987 313.176505 
L 190.999481 293.613775 
L 192.158961 304.476265 
L 192.545455 342.466538 
L 192.931948 304.193291 
L 193.318442 347.314014 
L 193.704935 331.186556 
L 194.864416 337.888646 
L 195.250909 279.522012 
L 195.637403 360.503883 
L 196.41039 355.972146 
L 197.56987 343.572576 
L 197.956364 306.564791 
L 198.342857 359.361047 
L 198.729351 365.892651 
L 199.115844 320.078033 
L 200.275325 358.53171 
L 200.661818 353.790763 
L 201.048312 324.65492 
L 201.434805 362.184026 
L 201.821299 362.297002 
L 202.980779 344.902995 
L 203.367273 297.425951 
L 203.753766 359.463764 
L 204.14026 337.210201 
L 204.526753 349.676052 
L 205.686234 347.452755 
L 206.459221 365.213307 
L 206.845714 349.602853 
L 208.391688 320.710095 
L 208.778182 356.892793 
L 209.164675 361.877372 
L 209.551169 333.414866 
L 211.097143 286.06748 
L 211.483636 329.830654 
L 211.87013 337.476725 
L 212.256623 286.776714 
L 212.643117 338.691825 
L 213.802597 332.528645 
L 214.189091 367.062236 
L 214.962078 348.312669 
L 215.348571 328.942959 
L 216.894545 323.968253 
L 217.281039 291.815115 
L 217.667532 367.617253 
L 218.054026 352.490882 
L 219.213506 349.160329 
L 219.6 361.04048 
L 219.986494 223.573973 
L 220.372987 314.944166 
L 220.759481 260.082438 
L 221.918961 280.128287 
L 222.305455 292.021844 
L 222.691948 363.740673 
L 223.078442 308.881519 
L 223.464935 347.587335 
L 224.624416 328.067855 
L 225.010909 363.147051 
L 225.397403 367.457134 
L 225.783896 360.08121 
L 226.17039 343.046578 
L 227.716364 366.20042 
L 228.102857 367.596119 
L 228.489351 344.58451 
L 228.875844 358.985095 
L 230.035325 325.877225 
L 230.421818 362.354531 
L 230.808312 306.119068 
L 231.194805 230.468399 
L 231.581299 342.701479 
L 232.740779 237.594156 
L 233.127273 323.910838 
L 233.513766 295.666692 
L 233.90026 293.672694 
L 234.286753 261.158934 
L 235.446234 339.270358 
L 235.832727 290.604498 
L 236.219221 335.690704 
L 236.605714 311.421037 
L 236.992208 363.703457 
L 238.151688 333.119441 
L 238.538182 360.586707 
L 238.924675 353.275223 
L 239.311169 286.035114 
L 239.697662 366.01287 
L 240.857143 330.150565 
L 241.243636 326.453343 
L 241.63013 338.661048 
L 242.016623 340.094681 
L 242.403117 276.932472 
L 243.562597 364.524704 
L 243.949091 351.662992 
L 244.335584 349.122998 
L 244.722078 303.494781 
L 246.268052 289.037194 
L 246.654545 363.932561 
L 247.041039 361.128923 
L 247.814026 326.284246 
L 248.973506 368.293142 
L 249.36 350.955435 
L 249.746494 346.431696 
L 250.132987 307.546116 
L 250.519481 349.199472 
L 251.678961 339.567191 
L 252.065455 331.131422 
L 252.451948 317.468241 
L 252.838442 317.522602 
L 253.224935 308.46366 
L 254.384416 359.410728 
L 254.770909 368.187685 
L 255.157403 364.650764 
L 255.543896 331.610958 
L 255.93039 328.916475 
L 257.08987 354.008949 
L 257.476364 331.831226 
L 257.862857 365.450633 
L 258.249351 323.806525 
L 258.635844 328.212528 
L 259.795325 310.587734 
L 260.181818 320.558403 
L 260.568312 247.848855 
L 260.954805 301.567432 
L 261.341299 286.386954 
L 262.500779 355.192104 
L 262.887273 321.444064 
L 263.273766 352.868706 
L 263.66026 310.537598 
L 264.046753 364.996699 
L 265.206234 314.107939 
L 265.592727 357.466424 
L 265.979221 358.881792 
L 266.365714 362.863944 
L 266.752208 365.084055 
L 268.298182 366.631845 
L 268.684675 361.287412 
L 269.071169 349.014639 
L 269.457662 320.090124 
L 270.617143 364.924516 
L 271.003636 368.411323 
L 271.39013 359.159285 
L 271.776623 343.37456 
L 272.163117 358.481119 
L 273.322597 359.226419 
L 273.709091 358.104392 
L 274.095584 339.096247 
L 274.482078 366.949509 
L 274.868571 295.335713 
L 276.028052 291.446652 
L 276.414545 340.740273 
L 276.801039 363.316744 
L 277.187532 336.91155 
L 277.574026 350.753621 
L 278.733506 356.430768 
L 279.12 367.838069 
L 279.506494 361.95231 
L 279.892987 340.198633 
L 280.279481 327.507355 
L 281.825455 358.047373 
L 282.211948 350.595056 
L 282.598442 321.196676 
L 282.984935 306.527339 
L 284.144416 350.08003 
L 284.530909 349.644097 
L 284.917403 362.866196 
L 285.303896 351.075957 
L 285.69039 326.973076 
L 286.84987 279.721864 
L 287.236364 285.035772 
L 288.009351 358.099216 
L 288.395844 312.8084 
L 289.555325 356.054758 
L 289.941818 342.91428 
L 290.328312 368.348126 
L 290.714805 345.8641 
L 291.101299 339.006486 
L 292.260779 359.052995 
L 292.647273 323.595505 
L 293.033766 343.365151 
L 293.42026 335.829432 
L 293.806753 360.009545 
L 294.966234 364.121282 
L 295.352727 363.830685 
L 295.739221 362.245698 
L 296.125714 346.197835 
L 296.512208 360.38987 
L 297.671688 354.720326 
L 298.444675 308.815339 
L 298.831169 362.352393 
L 299.217662 323.939409 
L 300.377143 321.814486 
L 300.763636 361.014279 
L 301.15013 356.961346 
L 301.923117 320.237137 
L 303.082597 345.303661 
L 303.469091 361.824877 
L 303.855584 367.645593 
L 304.242078 353.480464 
L 304.628571 367.514099 
L 306.174545 350.326019 
L 306.561039 361.996224 
L 307.334026 325.935255 
L 308.493506 356.646001 
L 309.266494 322.091286 
L 309.652987 360.690694 
L 310.039481 318.087022 
L 311.198961 273.408545 
L 311.585455 364.836787 
L 311.971948 316.282331 
L 312.358442 301.780224 
L 312.744935 361.208662 
L 313.904416 353.807695 
L 314.290909 254.06242 
L 314.677403 360.603172 
L 315.063896 302.231313 
L 315.45039 305.343889 
L 316.60987 296.122893 
L 316.996364 310.705284 
L 317.382857 346.441122 
L 317.769351 323.06804 
L 318.155844 358.654605 
L 319.315325 330.773442 
L 319.701818 355.828732 
L 320.088312 352.475175 
L 320.474805 274.551482 
L 320.861299 327.729258 
L 322.020779 350.506821 
L 322.407273 328.101304 
L 322.793766 348.891193 
L 323.18026 352.624 
L 323.566753 363.376936 
L 324.726234 342.839217 
L 325.112727 359.20084 
L 325.499221 341.00401 
L 325.885714 314.563159 
L 326.272208 358.475949 
L 327.431688 359.311147 
L 327.818182 348.799875 
L 328.204675 333.290052 
L 328.591169 345.999211 
L 328.977662 348.507081 
L 330.137143 364.418114 
L 330.523636 349.745525 
L 330.91013 323.091664 
L 331.296623 366.305026 
L 331.683117 329.05108 
L 332.842597 369.332205 
L 333.229091 347.767514 
L 333.615584 354.789899 
L 334.002078 350.450985 
L 334.388571 361.546759 
L 335.548052 351.441963 
L 335.934545 360.11094 
L 336.321039 356.54885 
L 337.094026 240.53795 
L 338.253506 295.882407 
L 338.64 262.083627 
L 339.026494 302.767599 
L 339.412987 290.384435 
L 339.799481 321.832569 
L 340.958961 304.017413 
L 341.345455 254.503655 
L 341.731948 352.124333 
L 342.118442 328.993381 
L 342.504935 316.118775 
L 343.664416 317.943973 
L 344.050909 327.358059 
L 344.437403 278.491575 
L 344.823896 320.165382 
L 345.21039 311.425803 
L 346.36987 305.19006 
L 346.756364 270.613076 
L 347.142857 312.615494 
L 347.529351 334.613486 
L 349.075325 292.349714 
L 349.461818 363.727152 
L 349.848312 361.539507 
L 350.234805 352.608121 
L 350.621299 354.651925 
L 351.780779 333.775839 
L 352.167273 365.861845 
L 352.553766 259.617897 
L 352.94026 363.987343 
L 353.326753 346.642723 
L 354.486234 361.308781 
L 354.872727 318.279563 
L 355.259221 353.619587 
L 355.645714 288.975323 
L 356.032208 364.79789 
L 357.578182 265.358822 
L 357.964675 314.812532 
L 358.351169 307.178057 
L 358.737662 262.349149 
L 359.897143 353.876766 
L 360.283636 300.74376 
L 360.67013 360.996719 
L 361.056623 339.130214 
L 361.443117 234.545989 
L 362.602597 264.513918 
L 362.989091 331.053093 
L 363.375584 316.821435 
L 363.762078 230.972327 
L 364.148571 340.559298 
L 365.308052 348.603812 
L 365.694545 322.495937 
L 366.081039 288.600708 
L 366.467532 266.913084 
L 366.854026 262.036996 
L 368.013506 347.822404 
L 368.4 281.701078 
L 368.786494 364.454881 
L 369.172987 249.431232 
L 369.559481 329.077588 
L 371.105455 312.24558 
L 371.491948 265.220669 
L 371.878442 286.17211 
L 372.264935 245.364 
L 373.424416 355.683528 
L 373.810909 281.977245 
L 374.197403 265.852489 
L 374.583896 339.859567 
L 374.97039 324.740548 
L 376.12987 201.436177 
L 376.516364 328.696081 
L 376.902857 227.159914 
L 377.289351 345.2827 
L 377.675844 296.261179 
L 378.835325 327.638633 
L 379.221818 250.652576 
L 379.608312 245.303179 
L 379.994805 300.600268 
L 380.381299 304.397321 
L 381.540779 366.955437 
L 381.927273 306.382314 
L 382.313766 300.1717 
L 382.70026 289.55828 
L 383.086753 341.065538 
L 384.246234 329.483629 
L 384.632727 301.105566 
L 385.019221 334.001402 
L 385.405714 280.957732 
L 385.792208 350.308839 
L 386.951688 324.220995 
L 387.338182 298.588089 
L 387.724675 314.6576 
L 388.111169 345.600443 
L 388.497662 354.512243 
L 389.657143 273.978801 
L 390.043636 350.202987 
L 390.43013 307.100438 
L 390.816623 300.901348 
L 392.362597 368.243906 
L 392.749091 280.095958 
L 393.135584 365.92442 
L 393.908571 211.69716 
L 395.068052 337.543149 
L 395.454545 209.354491 
L 395.841039 357.644024 
L 396.227532 232.361595 
L 396.614026 162.216741 
L 397.773506 337.66961 
L 398.16 342.34312 
L 398.546494 204.448486 
L 398.932987 165.907856 
L 399.319481 337.494755 
L 400.478961 186.867889 
L 400.865455 355.631583 
L 401.251948 276.339327 
L 401.638442 362.123212 
L 402.024935 237.162069 
L 403.184416 347.226955 
L 403.570909 257.456006 
L 403.957403 138.25498 
L 404.343896 336.595203 
L 404.73039 368.573229 
L 405.88987 266.334748 
L 406.276364 323.685221 
L 406.662857 316.664632 
L 407.049351 259.029806 
L 407.435844 232.386971 
L 408.981818 334.110491 
L 409.368312 327.289837 
L 409.754805 267.017403 
L 410.141299 276.999763 
L 411.300779 351.833064 
L 411.687273 316.261337 
L 412.073766 308.557644 
L 412.46026 234.375107 
L 412.846753 203.791446 
L 414.006234 147.750146 
L 414.392727 348.198928 
L 414.779221 288.184777 
L 415.165714 184.117207 
L 415.552208 357.068904 
L 417.098182 233.836885 
L 417.484675 362.09173 
L 417.871169 316.212322 
L 418.257662 200.634901 
L 419.417143 352.701924 
L 419.803636 255.327241 
L 420.19013 365.401389 
L 420.576623 320.0757 
L 420.963117 310.542681 
L 422.509091 360.519582 
L 422.895584 349.398612 
L 423.282078 286.12947 
L 423.668571 364.73642 
L 424.828052 304.39948 
L 425.214545 317.334563 
L 425.601039 344.353301 
L 425.987532 352.558298 
L 426.374026 262.779571 
L 427.533506 322.313028 
L 427.92 216.622046 
L 428.306494 336.440282 
L 428.692987 314.384897 
L 429.079481 316.833305 
L 430.238961 362.025058 
L 430.625455 304.310196 
L 431.011948 224.657278 
L 431.398442 301.787956 
L 431.784935 290.310854 
L 432.944416 353.545228 
L 433.330909 331.92111 
L 433.717403 282.40881 
L 434.103896 365.033291 
L 434.49039 360.271831 
L 435.64987 362.451104 
L 436.036364 345.525424 
L 436.422857 251.299836 
L 436.809351 365.436485 
L 437.195844 273.122744 
L 438.355325 347.185119 
L 438.741818 358.88803 
L 439.128312 328.673139 
L 439.514805 356.68473 
L 439.901299 296.610675 
L 441.060779 248.131448 
L 441.447273 356.834024 
L 441.833766 353.069631 
L 442.22026 290.952865 
L 442.606753 177.298863 
L 443.766234 331.898848 
L 444.152727 307.230344 
L 444.539221 325.401695 
L 444.925714 352.622054 
L 445.312208 308.883202 
L 446.858182 346.390273 
L 447.244675 267.512707 
L 447.631169 332.45778 
L 448.017662 284.434874 
L 449.177143 310.373666 
L 449.563636 121.632528 
L 449.95013 350.438451 
L 450.336623 305.588756 
L 450.723117 328.9875 
L 451.882597 331.085934 
L 452.269091 305.847419 
L 452.655584 272.614753 
L 453.042078 321.951224 
L 453.428571 271.952449 
L 454.588052 311.126417 
L 454.974545 357.494055 
L 455.361039 260.190262 
L 455.747532 249.698771 
L 456.134026 284.292811 
L 457.293506 226.145466 
L 457.68 200.523886 
L 458.066494 358.069317 
L 458.452987 311.667107 
L 458.839481 210.177434 
L 459.998961 327.235082 
L 460.385455 332.729346 
L 460.771948 350.915403 
L 461.158442 225.698759 
L 461.544935 235.156162 
L 462.704416 222.888904 
L 463.090909 305.698114 
L 463.477403 331.866394 
L 463.863896 324.645194 
L 464.25039 237.955232 
L 465.40987 303.180204 
L 465.796364 278.942889 
L 466.182857 327.826633 
L 466.569351 335.19196 
L 466.955844 233.020726 
L 468.115325 327.449971 
L 468.501818 346.355545 
L 468.888312 227.461187 
L 469.274805 309.736062 
L 469.661299 293.567476 
L 470.820779 315.758351 
L 471.207273 338.100697 
L 471.593766 251.694351 
L 471.98026 66.96 
L 472.366753 317.831014 
L 473.526234 319.07755 
L 474.299221 322.943318 
L 474.685714 352.048432 
L 475.072208 342.781346 
L 476.231688 347.57982 
L 476.618182 293.781529 
L 477.004675 336.335154 
L 477.777662 367.805568 
L 478.937143 282.143995 
L 479.323636 360.462139 
L 479.71013 198.543476 
L 480.096623 364.526814 
L 480.483117 362.691731 
L 481.642597 268.177503 
L 482.029091 288.090499 
L 482.415584 358.943088 
L 482.802078 327.386601 
L 483.188571 328.042027 
L 484.348052 289.915445 
L 484.734545 328.678256 
L 485.121039 335.360633 
L 485.507532 227.922912 
L 485.894026 306.609116 
L 487.053506 318.671723 
L 487.44 363.580606 
L 487.826494 286.662952 
L 488.212987 287.791977 
L 488.599481 336.594688 
L 490.145455 346.646001 
L 490.531948 301.602139 
L 490.918442 272.357209 
L 491.304935 355.132125 
L 492.850909 346.922251 
L 493.623896 303.729923 
L 494.01039 242.798002 
L 495.16987 365.087762 
L 495.942857 297.823413 
L 496.329351 350.277101 
L 496.715844 347.032511 
L 498.261818 357.998888 
L 498.648312 281.469799 
L 499.034805 326.411059 
L 499.421299 264.335402 
L 500.580779 303.183653 
L 500.967273 365.402655 
L 501.353766 368.373631 
L 501.74026 308.024786 
L 502.126753 355.424824 
L 503.286234 296.220147 
L 503.672727 287.908684 
L 504.059221 311.105742 
L 504.445714 287.594362 
L 504.832208 311.04671 
L 505.991688 334.865752 
L 506.378182 297.695667 
L 506.764675 306.93243 
L 507.151169 319.676859 
L 507.537662 357.100243 
L 508.697143 305.581571 
L 509.083636 367.8204 
L 509.47013 353.86883 
L 509.856623 291.561344 
L 510.243117 353.858166 
L 511.789091 255.909657 
L 512.175584 360.564766 
L 512.562078 339.597348 
L 512.948571 310.010325 
L 514.108052 352.192939 
L 514.494545 352.348111 
L 514.881039 342.842034 
L 515.267532 327.050521 
L 515.654026 279.598818 
L 516.813506 365.541845 
L 517.2 282.811689 
L 517.586494 361.467339 
L 517.972987 264.951022 
L 519.518961 360.922978 
L 519.905455 277.784698 
L 520.291948 330.123643 
L 520.678442 271.802496 
L 521.064935 307.279705 
L 522.224416 319.621605 
L 522.997403 276.339277 
L 523.383896 352.687465 
L 523.77039 337.867146 
L 524.92987 360.168012 
L 525.316364 360.563252 
L 525.702857 290.147667 
L 526.089351 337.446528 
L 526.475844 289.04648 
L 527.635325 348.69668 
L 528.021818 336.802715 
L 528.408312 355.403937 
L 528.794805 349.365177 
L 530.340779 363.810313 
L 530.727273 369.160502 
L 531.113766 346.166268 
L 531.50026 295.536773 
L 531.886753 357.780431 
L 533.046234 350.890204 
L 533.432727 364.600492 
L 533.819221 368.92006 
L 534.205714 335.925492 
L 534.592208 364.331822 
L 535.751688 364.620921 
L 536.138182 280.056118 
L 536.524675 347.819053 
L 536.911169 260.772972 
L 537.297662 323.318678 
L 538.457143 367.227617 
L 538.843636 304.066136 
L 539.23013 330.025259 
L 539.616623 328.780871 
L 540.003117 266.776677 
L 541.162597 366.858591 
L 541.549091 343.663366 
L 541.935584 344.313615 
L 542.322078 359.873888 
L 542.708571 360.510161 
L 543.868052 352.834822 
L 544.254545 333.527603 
L 544.641039 303.131205 
L 545.027532 316.696354 
L 545.414026 361.281728 
L 546.573506 368.523435 
L 546.96 306.13138 
L 547.346494 328.216842 
L 547.732987 320.51517 
L 548.119481 296.718512 
L 549.665455 369.299379 
L 550.051948 335.045377 
L 550.824935 288.505655 
L 551.984416 358.149983 
L 552.370909 356.213029 
L 552.757403 347.983218 
L 553.143896 334.808635 
L 553.53039 362.960608 
L 554.68987 317.384458 
L 555.076364 330.666198 
L 555.462857 364.801082 
L 555.849351 301.539817 
L 556.235844 348.773164 
L 557.781818 342.786689 
L 558.168312 339.912343 
L 558.554805 348.629914 
L 558.941299 326.295556 
L 560.100779 344.184653 
L 560.487273 305.541221 
L 560.873766 367.407268 
L 561.26026 344.371848 
L 561.646753 301.036536 
L 562.806234 362.834061 
L 563.579221 358.348098 
L 563.965714 324.805656 
L 564.352208 353.309017 
L 565.511688 355.927142 
L 565.898182 331.725557 
L 566.284675 328.001697 
L 566.671169 322.112766 
L 567.057662 363.647149 
L 568.217143 347.822526 
L 568.603636 329.637544 
L 568.99013 356.190678 
L 569.376623 331.387882 
L 569.763117 367.576022 
L 570.922597 346.824325 
L 571.309091 353.636748 
L 571.695584 368.520983 
L 572.082078 333.262621 
L 572.468571 314.293578 
L 573.628052 361.165517 
L 574.014545 354.433219 
L 574.401039 291.272545 
L 574.787532 355.091443 
L 575.174026 339.603741 
L 576.333506 319.034534 
L 576.72 345.696761 
L 577.106494 329.79711 
L 577.492987 367.987229 
L 577.879481 363.39298 
L 579.038961 337.250288 
L 579.425455 304.266643 
L 579.811948 326.879594 
L 580.198442 325.989868 
L 580.584935 368.558777 
L 581.744416 330.963019 
L 582.130909 353.801598 
L 582.517403 307.819363 
L 582.903896 293.441105 
L 583.29039 331.860582 
L 584.44987 334.385433 
L 584.836364 288.649997 
L 585.222857 347.946516 
L 585.609351 360.43366 
L 585.995844 359.316482 
L 587.541818 345.832434 
L 587.928312 330.176039 
L 588.314805 351.362531 
L 588.701299 361.401135 
L 589.860779 331.829934 
L 590.247273 337.372625 
L 590.633766 362.436775 
L 591.02026 322.336254 
L 591.406753 300.813502 
L 592.566234 365.350624 
L 592.952727 357.321861 
L 593.725714 276.694206 
L 594.112208 356.50963 
L 595.271688 346.88635 
L 595.658182 286.183063 
L 596.044675 368.107111 
L 596.431169 336.455045 
L 596.817662 354.183144 
L 597.977143 368.947579 
L 598.363636 291.815311 
L 599.136623 362.07781 
L 599.523117 303.551803 
L 600.682597 334.166822 
L 601.455584 345.379284 
L 601.842078 334.268062 
L 602.228571 341.188184 
L 603.388052 310.31773 
L 603.774545 368.841658 
L 604.161039 293.771515 
L 604.547532 321.638715 
L 604.934026 298.397591 
L 606.093506 359.93582 
L 606.48 328.81096 
L 606.866494 288.429241 
L 607.252987 302.669381 
L 607.639481 342.419457 
L 608.798961 302.47094 
L 609.185455 333.213819 
L 609.571948 310.807866 
L 609.958442 264.664656 
L 610.344935 316.981432 
L 611.504416 359.574485 
L 611.890909 353.494611 
L 612.277403 363.762162 
L 613.05039 282.530507 
L 614.20987 364.705174 
L 614.596364 263.473823 
L 614.982857 360.447441 
L 615.369351 362.723472 
L 615.755844 362.210435 
L 616.915325 328.118266 
L 617.301818 358.05249 
L 617.688312 346.673702 
L 618.461299 366.047653 
L 619.620779 358.427693 
L 620.007273 363.901097 
L 620.393766 364.085751 
L 621.166753 336.563268 
L 622.326234 338.992566 
L 622.712727 366.202704 
L 623.485714 324.903502 
L 623.872208 346.482194 
L 625.031688 347.436384 
L 625.418182 343.669992 
L 625.804675 293.390273 
L 626.191169 354.573784 
L 626.577662 368.964819 
L 628.123636 336.604236 
L 628.51013 286.468991 
L 628.896623 311.942508 
L 629.283117 360.094484 
L 630.829091 345.721737 
L 631.215584 361.379763 
L 631.602078 367.317798 
L 631.988571 353.526113 
L 633.534545 337.571719 
L 633.921039 324.275661 
L 634.307532 350.14136 
L 634.694026 359.167876 
L 635.853506 290.825369 
L 636.24 361.101917 
L 636.626494 337.721505 
L 637.012987 365.629485 
L 637.399481 365.184196 
L 638.945455 348.437268 
L 639.331948 337.817991 
L 640.104935 300.790339 
L 641.264416 357.10567 
L 641.650909 353.040346 
L 642.037403 364.842636 
L 642.423896 339.982965 
L 642.81039 365.737556 
L 643.96987 327.191885 
L 644.356364 366.024398 
L 644.742857 278.376601 
L 645.129351 299.792588 
L 645.515844 309.818033 
L 646.675325 351.502566 
L 647.061818 356.456187 
L 647.448312 323.384087 
L 647.834805 366.195016 
L 648.221299 337.295284 
L 649.380779 364.070524 
L 649.767273 292.211966 
L 650.54026 336.855673 
L 650.926753 342.401716 
L 652.472727 335.627981 
L 652.859221 362.310425 
L 653.245714 252.220613 
L 653.632208 367.442347 
L 654.791688 348.125396 
L 655.178182 359.836004 
L 655.564675 360.090316 
L 656.337662 324.683123 
L 657.497143 362.699427 
L 657.883636 311.961797 
L 658.27013 340.647481 
L 658.656623 311.927974 
L 659.043117 332.676537 
L 660.202597 363.098144 
L 660.589091 306.949621 
L 660.975584 358.593969 
L 661.362078 353.275361 
L 661.748571 332.934066 
L 662.908052 334.087837 
L 663.294545 337.814874 
L 663.681039 319.70108 
L 664.067532 351.278858 
L 664.454026 361.526475 
L 665.613506 352.241759 
L 666 353.675919 
L 666.386494 321.220918 
L 666.772987 363.137268 
L 668.318961 358.09391 
L 668.705455 328.666017 
L 669.091948 363.27962 
L 669.478442 299.822269 
L 669.864935 307.518161 
L 671.024416 367.291702 
L 671.410909 361.295531 
L 671.797403 316.128784 
L 672.183896 327.814865 
L 672.57039 287.228749 
L 673.72987 301.598395 
L 674.116364 357.852365 
L 674.502857 336.895269 
L 674.889351 357.000646 
L 675.275844 320.079988 
L 676.435325 320.6617 
L 676.821818 302.722338 
L 677.208312 368.198595 
L 677.981299 312.454946 
L 679.140779 351.603737 
L 679.527273 280.513616 
L 679.913766 350.101585 
L 680.30026 318.454883 
L 680.686753 299.443304 
L 681.846234 311.806036 
L 682.232727 361.86679 
L 682.619221 369.36 
L 683.005714 340.927516 
L 683.392208 360.154382 
L 684.551688 368.039888 
L 684.938182 342.339564 
L 685.324675 304.099868 
L 685.711169 357.711195 
L 686.097662 362.866959 
L 687.257143 364.257772 
L 687.643636 355.385886 
L 688.03013 354.20301 
L 688.416623 327.865653 
L 688.803117 330.284988 
L 690.349091 367.997738 
L 690.735584 327.943177 
L 691.122078 335.798937 
L 691.508571 324.571349 
L 692.668052 363.139815 
L 693.054545 360.974635 
L 693.441039 303.370326 
L 693.827532 368.272042 
L 694.214026 363.137243 
L 695.373506 354.943788 
L 695.76 354.219619 
L 696.146494 321.926311 
L 696.532987 356.265224 
L 696.919481 367.184324 
L 698.078961 326.593147 
L 698.465455 355.276626 
L 699.238442 355.215175 
L 699.624935 360.6288 
L 700.784416 352.184114 
L 701.170909 347.38549 
L 701.557403 360.585128 
L 701.943896 364.308925 
L 702.33039 346.454649 
L 703.48987 354.414349 
L 703.876364 334.771426 
L 704.262857 340.963876 
L 705.035844 338.932027 
L 706.195325 363.696331 
L 706.581818 365.239735 
L 706.968312 312.461056 
L 707.354805 320.054613 
L 707.741299 338.551606 
L 708.900779 353.572512 
L 709.287273 333.69049 
L 709.673766 290.772546 
L 710.06026 325.405365 
L 710.446753 329.223702 
L 711.606234 309.221588 
L 711.992727 360.651534 
L 712.379221 238.104279 
L 712.765714 340.490578 
L 713.152208 307.566538 
L 714.311688 364.835174 
L 714.698182 341.518934 
L 715.084675 281.553719 
L 715.471169 292.102285 
L 715.857662 265.393647 
L 717.017143 198.832676 
L 717.403636 311.650373 
L 717.79013 325.866835 
L 718.176623 241.692099 
L 718.563117 343.266269 
L 719.722597 369.151173 
L 720.109091 275.739543 
L 720.495584 347.999042 
L 720.882078 279.679013 
L 721.268571 358.249512 
L 722.428052 315.15707 
L 722.814545 358.256759 
L 723.201039 345.676995 
L 723.587532 319.094272 
L 723.974026 305.388543 
L 725.133506 351.686189 
L 725.52 360.457581 
L 725.906494 335.79305 
L 726.292987 369.171887 
L 726.679481 313.099056 
L 728.225455 249.557309 
L 728.611948 360.40246 
L 728.998442 352.448908 
L 729.384935 271.795071 
L 730.544416 304.852825 
L 730.930909 344.376834 
L 731.317403 309.925693 
L 731.703896 327.533827 
L 732.09039 339.161246 
L 733.636364 367.909902 
L 734.022857 353.132996 
L 734.409351 275.027278 
L 734.795844 358.50168 
L 735.955325 353.667048 
L 736.341818 355.333915 
L 736.728312 358.949808 
L 737.114805 346.799432 
L 737.501299 362.363255 
L 738.660779 345.694511 
L 739.047273 316.880633 
L 739.433766 368.616754 
L 739.82026 359.959364 
L 740.206753 319.333479 
L 741.366234 315.398351 
L 741.752727 315.33987 
L 742.139221 329.659271 
L 742.525714 357.776479 
L 742.912208 335.570819 
L 744.071688 326.352809 
L 744.458182 326.574519 
L 744.844675 343.224926 
L 745.231169 368.432889 
L 745.617662 347.173566 
L 746.777143 359.165446 
L 747.163636 366.72977 
L 747.163636 366.72977 
" clip-path="url(#p0c0019682d)" style="fill: none; stroke: #000000; stroke-width: 1.5; stroke-linecap: square"/>
   </g>
   <g id="line2d_18">
    <path d="M 138.436364 279.578618 
L 138.822857 292.639269 
L 139.209351 285.25091 
L 140.755325 285.195466 
L 141.141818 295.058218 
L 141.528312 287.835615 
L 141.914805 291.0843 
L 142.301299 291.682702 
L 143.460779 287.623008 
L 143.847273 296.785702 
L 144.233766 287.782788 
L 144.62026 318.59608 
L 145.006753 307.779017 
L 146.166234 312.768231 
L 146.552727 321.501088 
L 146.939221 312.293706 
L 147.325714 319.04369 
L 147.712208 316.727546 
L 148.871688 312.09439 
L 149.644675 321.048105 
L 150.031169 318.273838 
L 150.417662 323.522016 
L 151.577143 320.478611 
L 151.963636 326.283129 
L 152.35013 325.803934 
L 153.123117 329.943062 
L 154.282597 325.490008 
L 154.669091 329.399744 
L 155.055584 328.160021 
L 155.442078 330.320669 
L 155.828571 330.119031 
L 156.988052 325.895162 
L 157.374545 329.662489 
L 157.761039 329.299621 
L 158.147532 327.316058 
L 158.534026 329.125293 
L 159.693506 329.810795 
L 160.08 330.663964 
L 160.466494 330.648039 
L 160.852987 327.825079 
L 161.239481 323.256919 
L 162.398961 330.030959 
L 162.785455 327.614429 
L 163.171948 321.727391 
L 163.558442 324.337155 
L 163.944935 285.513277 
L 165.490909 276.77546 
L 165.877403 285.748765 
L 166.263896 278.552127 
L 166.65039 287.210469 
L 167.80987 277.626962 
L 168.196364 303.419557 
L 168.582857 312.676115 
L 168.969351 310.471494 
L 169.355844 309.617738 
L 170.515325 309.125522 
L 170.901818 304.534912 
L 171.288312 296.347333 
L 171.674805 291.779907 
L 172.061299 272.861617 
L 173.220779 293.996508 
L 173.607273 296.995209 
L 173.993766 284.527864 
L 174.38026 292.333554 
L 174.766753 288.674085 
L 175.926234 292.96138 
L 176.312727 301.89409 
L 176.699221 289.452188 
L 177.085714 300.981549 
L 177.472208 304.979604 
L 178.631688 314.458259 
L 179.018182 314.298961 
L 179.791169 307.110972 
L 180.177662 306.796628 
L 181.337143 299.766323 
L 181.723636 301.720459 
L 182.11013 285.886572 
L 182.496623 290.67374 
L 182.883117 306.436952 
L 184.042597 306.190959 
L 184.429091 305.710279 
L 184.815584 286.972397 
L 185.202078 282.195885 
L 185.588571 273.517452 
L 186.748052 275.628753 
L 187.134545 272.818476 
L 187.521039 278.591512 
L 187.907532 307.855639 
L 188.294026 317.200765 
L 189.453506 315.114056 
L 189.84 322.963859 
L 190.226494 315.116444 
L 190.612987 323.035176 
L 190.999481 319.63337 
L 192.158961 315.373545 
L 192.545455 314.792215 
L 192.931948 303.948119 
L 193.318442 302.843053 
L 193.704935 299.198872 
L 194.864416 296.843221 
L 195.250909 301.56833 
L 195.637403 308.645419 
L 196.41039 295.764728 
L 197.56987 310.649708 
L 197.956364 313.901972 
L 198.342857 322.129969 
L 198.729351 312.638648 
L 199.115844 313.738963 
L 200.275325 322.047871 
L 200.661818 321.274691 
L 201.048312 322.366845 
L 201.434805 324.367375 
L 201.821299 314.713333 
L 202.980779 319.057867 
L 203.367273 318.066119 
L 203.753766 322.521115 
L 204.14026 325.053377 
L 204.526753 325.625907 
L 205.686234 330.902914 
L 206.072727 325.008188 
L 206.459221 324.296364 
L 206.845714 331.303211 
L 208.391688 336.305114 
L 208.778182 335.846072 
L 209.551169 328.460713 
L 211.097143 337.782811 
L 211.87013 324.196759 
L 212.256623 324.659485 
L 212.643117 327.790196 
L 213.802597 332.102172 
L 214.575584 317.04987 
L 214.962078 332.882501 
L 215.348571 331.042089 
L 216.894545 329.573674 
L 217.281039 327.534786 
L 217.667532 330.638433 
L 218.054026 329.475006 
L 219.213506 328.191707 
L 219.6 323.592203 
L 219.986494 323.166653 
L 220.759481 273.859182 
L 221.918961 293.898434 
L 222.305455 275.475498 
L 222.691948 301.5924 
L 223.464935 316.701027 
L 225.010909 330.165848 
L 225.397403 323.968519 
L 225.783896 325.984924 
L 226.17039 321.724025 
L 227.716364 322.755157 
L 228.102857 312.006927 
L 228.489351 305.133025 
L 228.875844 311.648933 
L 230.035325 311.148244 
L 230.421818 314.854329 
L 230.808312 305.272201 
L 231.194805 315.193671 
L 231.581299 295.98012 
L 232.740779 277.136854 
L 233.127273 312.353125 
L 233.513766 316.958337 
L 233.90026 302.398997 
L 234.286753 300.854404 
L 235.446234 302.394877 
L 235.832727 322.590147 
L 236.605714 316.636294 
L 236.992208 316.973954 
L 238.151688 318.563778 
L 238.538182 325.722402 
L 238.924675 319.565711 
L 239.311169 321.018961 
L 239.697662 318.307516 
L 240.857143 301.200658 
L 241.243636 317.876142 
L 241.63013 312.136858 
L 242.016623 297.624492 
L 242.403117 305.505885 
L 243.562597 316.769622 
L 243.949091 307.20648 
L 244.335584 318.282571 
L 244.722078 316.355563 
L 246.268052 328.647901 
L 246.654545 329.313574 
L 247.041039 322.956558 
L 247.427532 324.331942 
L 247.814026 332.987272 
L 248.973506 331.425532 
L 249.746494 327.742029 
L 250.132987 329.604155 
L 250.519481 330.00121 
L 251.678961 327.885981 
L 252.065455 326.556965 
L 252.451948 320.443102 
L 252.838442 325.437636 
L 253.224935 324.24305 
L 254.384416 323.890518 
L 254.770909 322.90978 
L 255.157403 320.974655 
L 255.543896 325.940138 
L 255.93039 332.735989 
L 257.08987 326.650291 
L 257.862857 329.663407 
L 258.249351 325.549043 
L 258.635844 332.678552 
L 259.795325 333.898042 
L 260.181818 330.201238 
L 260.568312 318.533654 
L 260.954805 296.81912 
L 261.341299 301.338077 
L 262.500779 325.87667 
L 262.887273 317.09213 
L 263.273766 298.157656 
L 263.66026 304.398257 
L 264.046753 321.345601 
L 265.592727 331.850112 
L 265.979221 321.412632 
L 266.365714 323.289131 
L 266.752208 329.176007 
L 268.298182 328.952654 
L 268.684675 324.800492 
L 269.457662 323.798582 
L 270.617143 327.187139 
L 271.003636 323.825471 
L 271.39013 316.407913 
L 271.776623 317.457594 
L 272.163117 327.502307 
L 273.322597 333.979543 
L 273.709091 333.086204 
L 274.095584 336.316257 
L 274.482078 334.717915 
L 274.868571 336.918519 
L 276.028052 334.711831 
L 276.414545 331.524477 
L 276.801039 334.100723 
L 277.187532 333.59409 
L 277.574026 335.366358 
L 278.733506 337.344153 
L 279.12 335.591656 
L 279.506494 337.122674 
L 279.892987 335.883251 
L 280.279481 336.056627 
L 281.825455 335.952014 
L 282.211948 332.188273 
L 282.984935 328.134774 
L 284.144416 328.237656 
L 284.530909 332.893083 
L 284.917403 324.887008 
L 285.303896 323.225758 
L 285.69039 329.451645 
L 286.84987 324.262725 
L 287.236364 319.107585 
L 287.622857 311.395495 
L 288.009351 326.676842 
L 288.395844 325.782474 
L 289.555325 326.549617 
L 289.941818 324.530465 
L 290.328312 323.604479 
L 290.714805 329.289642 
L 291.101299 332.766435 
L 292.260779 326.851186 
L 292.647273 319.053758 
L 293.033766 324.419686 
L 293.806753 330.395484 
L 294.966234 330.6206 
L 295.352727 329.265659 
L 295.739221 328.82038 
L 296.125714 333.613003 
L 296.512208 334.578655 
L 297.671688 332.972565 
L 298.058182 331.921391 
L 298.444675 329.775456 
L 299.217662 320.456346 
L 300.763636 337.157828 
L 301.15013 332.352476 
L 301.536623 334.370897 
L 301.923117 334.867657 
L 303.469091 341.162216 
L 303.855584 335.701687 
L 304.242078 334.50919 
L 304.628571 336.325592 
L 306.174545 334.660865 
L 306.561039 336.837284 
L 306.947532 330.537366 
L 307.334026 332.148042 
L 308.493506 326.699087 
L 308.88 323.740873 
L 309.266494 330.739568 
L 309.652987 330.122259 
L 310.039481 332.501348 
L 311.198961 329.568593 
L 311.585455 314.044313 
L 311.971948 313.714809 
L 312.358442 328.932131 
L 312.744935 333.933211 
L 314.290909 327.012255 
L 314.677403 319.714252 
L 315.063896 322.302981 
L 315.45039 326.507043 
L 316.60987 320.678128 
L 317.382857 301.59298 
L 317.769351 310.544343 
L 318.155844 324.78525 
L 319.315325 324.946858 
L 319.701818 324.453083 
L 320.088312 316.861844 
L 320.474805 325.544026 
L 320.861299 330.031338 
L 322.020779 328.570297 
L 322.407273 323.130537 
L 322.793766 326.158191 
L 323.18026 327.220242 
L 323.566753 329.649133 
L 324.726234 326.053406 
L 325.112727 325.40085 
L 325.499221 321.008956 
L 325.885714 323.0984 
L 326.272208 322.175388 
L 327.431688 325.480577 
L 327.818182 322.652301 
L 328.204675 328.97474 
L 328.591169 332.980271 
L 328.977662 334.026155 
L 330.137143 332.752848 
L 330.523636 327.874853 
L 330.91013 329.793103 
L 331.296623 327.944544 
L 331.683117 324.256654 
L 332.842597 335.151023 
L 333.229091 333.258913 
L 333.615584 337.627493 
L 334.002078 338.180429 
L 334.388571 337.724878 
L 335.548052 338.577917 
L 335.934545 336.958507 
L 336.321039 331.167663 
L 337.094026 335.039751 
L 338.253506 307.214821 
L 338.64 279.120444 
L 339.026494 298.728479 
L 339.412987 244.544762 
L 339.799481 267.909876 
L 340.958961 270.353909 
L 341.345455 261.227876 
L 341.731948 325.848601 
L 342.118442 320.563114 
L 342.504935 318.274225 
L 343.664416 327.595451 
L 344.050909 326.081916 
L 344.437403 319.437854 
L 344.823896 324.857803 
L 345.21039 314.777214 
L 346.36987 294.158755 
L 346.756364 297.262195 
L 347.142857 291.868077 
L 347.529351 308.703397 
L 349.075325 312.966768 
L 349.461818 311.482939 
L 349.848312 307.136209 
L 350.234805 316.979983 
L 350.621299 322.490111 
L 351.780779 320.263936 
L 352.167273 322.494819 
L 352.553766 315.421892 
L 352.94026 312.546712 
L 353.326753 298.598876 
L 354.486234 310.508266 
L 354.872727 310.011297 
L 355.259221 314.307117 
L 355.645714 314.83989 
L 356.032208 309.994727 
L 357.578182 311.282939 
L 357.964675 314.154154 
L 358.351169 294.192819 
L 358.737662 295.923199 
L 359.897143 279.43191 
L 360.283636 256.013897 
L 360.67013 280.542444 
L 361.056623 262.121072 
L 361.443117 292.686311 
L 362.602597 308.322675 
L 362.989091 316.891334 
L 363.375584 322.029213 
L 363.762078 323.848975 
L 364.148571 318.732023 
L 365.308052 317.987754 
L 365.694545 317.21145 
L 366.081039 321.233687 
L 366.467532 319.782379 
L 366.854026 301.459269 
L 368.013506 268.915385 
L 368.4 273.438235 
L 368.786494 289.314018 
L 369.172987 289.27618 
L 369.559481 277.425197 
L 371.105455 252.754903 
L 371.491948 281.672883 
L 372.264935 292.008058 
L 373.424416 293.076607 
L 373.810909 269.124678 
L 374.197403 273.983726 
L 374.583896 286.29373 
L 374.97039 292.571526 
L 376.12987 292.630109 
L 376.516364 281.72534 
L 376.902857 260.448757 
L 377.289351 285.137869 
L 377.675844 297.12861 
L 379.221818 286.60297 
L 379.608312 297.315408 
L 379.994805 314.14255 
L 380.381299 314.288417 
L 381.540779 310.680956 
L 381.927273 304.056037 
L 382.313766 310.70604 
L 382.70026 312.32003 
L 383.086753 313.03474 
L 384.246234 310.462009 
L 384.632727 312.825223 
L 385.019221 313.468625 
L 385.792208 305.345085 
L 386.951688 304.191382 
L 387.338182 315.497727 
L 387.724675 303.63857 
L 388.497662 291.227998 
L 389.657143 303.188497 
L 390.043636 298.28896 
L 390.43013 286.126354 
L 390.816623 304.997906 
L 392.362597 314.223029 
L 392.749091 306.630085 
L 393.135584 317.898491 
L 393.522078 312.415458 
L 393.908571 321.003692 
L 395.068052 299.415279 
L 395.454545 277.20986 
L 395.841039 269.497418 
L 396.227532 241.719838 
L 396.614026 269.084649 
L 397.773506 240.019798 
L 398.16 227.415914 
L 398.546494 274.977772 
L 398.932987 298.590308 
L 400.478961 262.937209 
L 400.865455 257.891721 
L 401.251948 249.147671 
L 401.638442 274.835206 
L 402.024935 245.675616 
L 403.184416 262.385451 
L 403.957403 291.255661 
L 404.343896 279.535646 
L 404.73039 263.508217 
L 405.88987 255.464213 
L 406.276364 281.6299 
L 406.662857 259.084349 
L 407.435844 265.08258 
L 408.981818 289.609765 
L 409.368312 285.685406 
L 409.754805 283.166202 
L 410.141299 295.676682 
L 411.300779 293.09265 
L 411.687273 287.667561 
L 412.073766 296.304126 
L 412.46026 301.579065 
L 412.846753 288.105617 
L 414.006234 282.48545 
L 414.392727 236.862948 
L 414.779221 218.692082 
L 415.165714 254.609784 
L 415.552208 244.638526 
L 417.098182 220.028429 
L 417.484675 263.169329 
L 417.871169 262.459343 
L 418.257662 289.244929 
L 419.417143 298.170605 
L 419.803636 279.962714 
L 420.19013 286.698326 
L 420.576623 271.72648 
L 420.963117 280.200663 
L 422.509091 284.656208 
L 422.895584 274.144638 
L 423.282078 275.78332 
L 423.668571 286.357537 
L 424.828052 281.206884 
L 425.214545 290.8051 
L 425.601039 281.136877 
L 425.987532 281.446207 
L 426.374026 295.53767 
L 427.533506 307.835745 
L 427.92 307.21079 
L 428.306494 302.529623 
L 428.692987 306.182293 
L 429.079481 316.324795 
L 430.238961 313.303655 
L 430.625455 308.245902 
L 431.011948 310.938227 
L 431.398442 311.851699 
L 431.784935 320.511454 
L 432.944416 312.433699 
L 433.330909 307.152296 
L 433.717403 298.482867 
L 434.103896 310.286607 
L 434.49039 308.284894 
L 435.64987 307.52271 
L 436.036364 303.052933 
L 436.422857 304.116543 
L 436.809351 314.958276 
L 437.195844 311.455864 
L 438.355325 312.010016 
L 438.741818 307.645796 
L 439.128312 301.933256 
L 439.514805 315.741147 
L 439.901299 311.143356 
L 441.060779 315.035893 
L 441.833766 277.896387 
L 442.606753 311.077087 
L 443.766234 289.421291 
L 444.152727 270.441176 
L 444.539221 276.359221 
L 444.925714 296.899674 
L 445.312208 296.083559 
L 446.858182 297.582439 
L 447.244675 281.214205 
L 447.631169 304.678486 
L 448.017662 311.815936 
L 449.177143 313.880912 
L 449.563636 308.477494 
L 450.336623 272.446415 
L 450.723117 286.538916 
L 451.882597 279.158421 
L 452.269091 274.421299 
L 452.655584 271.656147 
L 453.042078 268.086562 
L 453.428571 285.75214 
L 454.588052 279.225677 
L 455.361039 258.960494 
L 455.747532 288.611633 
L 456.134026 283.127182 
L 457.293506 277.503495 
L 458.066494 291.824202 
L 458.452987 285.383711 
L 458.839481 286.747621 
L 459.998961 279.08523 
L 460.385455 270.151875 
L 460.771948 266.443233 
L 461.158442 273.544987 
L 461.544935 283.726189 
L 462.704416 289.713883 
L 463.090909 280.886012 
L 463.477403 288.022313 
L 463.863896 284.788914 
L 464.25039 293.294785 
L 465.40987 296.771448 
L 465.796364 289.528617 
L 466.182857 291.618748 
L 466.569351 295.158759 
L 466.955844 291.239596 
L 468.115325 300.901479 
L 468.888312 292.802569 
L 469.274805 303.975412 
L 469.661299 298.802079 
L 470.820779 300.197783 
L 471.207273 300.959087 
L 471.593766 290.560172 
L 471.98026 293.842872 
L 472.366753 292.104529 
L 473.526234 293.922162 
L 473.912727 272.62591 
L 474.299221 279.685448 
L 474.685714 275.799997 
L 475.072208 281.336097 
L 476.231688 288.808404 
L 476.618182 289.715309 
L 477.004675 294.351153 
L 477.777662 299.728388 
L 478.937143 292.629476 
L 479.323636 300.937103 
L 479.71013 283.977109 
L 480.096623 304.972451 
L 480.483117 290.424308 
L 481.642597 289.417305 
L 482.029091 295.039568 
L 482.415584 274.704233 
L 482.802078 271.448244 
L 483.188571 287.129537 
L 484.348052 303.374057 
L 484.734545 291.664546 
L 485.121039 306.323202 
L 485.507532 314.184121 
L 485.894026 314.378891 
L 487.053506 307.692283 
L 487.44 306.409317 
L 487.826494 300.989301 
L 488.212987 319.046868 
L 488.599481 308.945024 
L 490.145455 296.289804 
L 490.531948 304.263985 
L 491.304935 305.823292 
L 492.850909 304.815844 
L 493.237403 292.549765 
L 493.623896 309.291345 
L 494.01039 308.521913 
L 495.16987 311.592908 
L 495.556364 304.456899 
L 496.329351 312.008183 
L 496.715844 314.794558 
L 498.261818 319.454424 
L 498.648312 313.62646 
L 499.034805 315.947666 
L 499.421299 314.346721 
L 500.580779 318.482106 
L 500.967273 316.519828 
L 501.353766 303.60547 
L 501.74026 305.02238 
L 502.126753 317.213582 
L 503.286234 315.889223 
L 503.672727 316.516487 
L 504.059221 314.945049 
L 504.445714 320.303326 
L 504.832208 317.794621 
L 505.991688 311.159971 
L 506.378182 308.236871 
L 506.764675 312.999207 
L 507.151169 315.846015 
L 507.537662 309.380231 
L 508.697143 298.07803 
L 509.083636 310.77389 
L 509.47013 305.895716 
L 509.856623 316.845066 
L 510.243117 312.737715 
L 511.789091 304.696637 
L 512.175584 312.400256 
L 512.562078 297.789726 
L 512.948571 313.422043 
L 514.108052 308.897556 
L 514.494545 300.341801 
L 514.881039 310.888439 
L 515.267532 314.239363 
L 515.654026 323.930247 
L 516.813506 328.159163 
L 517.2 322.024835 
L 517.586494 323.592127 
L 517.972987 318.560656 
L 518.359481 315.02231 
L 519.518961 296.768398 
L 519.905455 278.476705 
L 520.291948 293.346502 
L 520.678442 291.079227 
L 521.064935 294.281297 
L 522.224416 294.865791 
L 522.610909 298.356753 
L 522.997403 320.561208 
L 523.383896 322.001653 
L 523.77039 305.544754 
L 524.92987 316.20931 
L 525.316364 313.005659 
L 526.089351 322.971699 
L 526.475844 315.095362 
L 527.635325 318.21049 
L 528.021818 316.833379 
L 528.408312 317.13744 
L 528.794805 309.455973 
L 530.340779 316.480875 
L 530.727273 311.021189 
L 531.113766 309.741609 
L 531.50026 317.369357 
L 531.886753 321.062673 
L 533.046234 324.688807 
L 533.432727 324.638402 
L 533.819221 325.407745 
L 534.205714 328.574197 
L 534.592208 334.33539 
L 535.751688 332.611972 
L 536.138182 333.947636 
L 536.911169 321.776504 
L 537.297662 327.764007 
L 538.457143 329.724199 
L 538.843636 325.640601 
L 539.23013 323.333042 
L 539.616623 318.730044 
L 541.162597 325.546358 
L 541.549091 321.423126 
L 541.935584 311.625034 
L 542.322078 314.237615 
L 542.708571 321.743275 
L 543.868052 321.863014 
L 544.254545 327.399584 
L 544.641039 321.162626 
L 545.027532 321.385698 
L 545.414026 326.809082 
L 546.573506 317.483368 
L 546.96 311.149074 
L 547.346494 315.573199 
L 547.732987 308.643228 
L 548.119481 314.014526 
L 549.665455 324.157296 
L 550.051948 315.051285 
L 550.824935 328.858111 
L 551.984416 334.413873 
L 552.370909 332.39914 
L 552.757403 333.665471 
L 553.143896 334.053951 
L 553.53039 335.479297 
L 554.68987 333.072845 
L 555.076364 329.848141 
L 555.462857 324.95618 
L 555.849351 325.867594 
L 556.235844 325.922915 
L 557.781818 324.596047 
L 558.168312 326.85709 
L 558.554805 327.799682 
L 558.941299 332.169579 
L 560.100779 331.437552 
L 560.487273 325.60727 
L 560.873766 330.146213 
L 561.26026 327.73571 
L 561.646753 329.954729 
L 562.806234 329.601119 
L 563.579221 324.335311 
L 563.965714 328.085038 
L 564.352208 328.16126 
L 565.511688 326.672296 
L 565.898182 326.720078 
L 566.284675 327.732751 
L 566.671169 332.648678 
L 567.057662 333.269636 
L 568.217143 329.972998 
L 568.603636 335.981721 
L 568.99013 335.304584 
L 569.376623 334.873636 
L 569.763117 333.989619 
L 570.922597 329.500158 
L 571.309091 332.978212 
L 571.695584 330.797423 
L 572.082078 333.59423 
L 572.468571 333.55265 
L 573.628052 334.54564 
L 574.014545 335.830091 
L 574.787532 329.768005 
L 575.174026 321.085157 
L 576.333506 320.647399 
L 576.72 326.389548 
L 577.106494 325.476435 
L 577.492987 323.265961 
L 577.879481 322.234392 
L 579.425455 336.085748 
L 579.811948 333.564068 
L 580.198442 327.038677 
L 580.584935 325.172318 
L 581.744416 321.163455 
L 582.130909 327.629325 
L 582.517403 321.990921 
L 582.903896 325.807505 
L 583.29039 326.985604 
L 584.44987 325.74383 
L 584.836364 332.379766 
L 585.222857 331.780448 
L 585.995844 329.805079 
L 587.541818 330.161478 
L 587.928312 332.476321 
L 588.314805 328.60075 
L 588.701299 326.341222 
L 589.860779 326.865258 
L 590.247273 328.50563 
L 591.02026 320.904738 
L 591.406753 332.099793 
L 592.566234 329.918487 
L 592.952727 322.963795 
L 593.725714 323.797948 
L 594.112208 311.699638 
L 595.271688 299.777711 
L 595.658182 308.82043 
L 596.044675 304.303409 
L 596.431169 296.360635 
L 596.817662 312.036737 
L 597.977143 316.189685 
L 598.363636 318.899538 
L 598.75013 318.338873 
L 599.136623 312.793921 
L 599.523117 321.245498 
L 600.682597 324.479446 
L 601.069091 320.87208 
L 601.455584 319.650864 
L 602.228571 327.780116 
L 603.388052 318.767539 
L 603.774545 321.548309 
L 604.161039 319.466784 
L 604.547532 316.139879 
L 604.934026 307.385772 
L 606.093506 297.239655 
L 606.48 304.424225 
L 606.866494 324.679709 
L 607.639481 313.012649 
L 608.798961 315.243774 
L 609.185455 323.633857 
L 609.571948 328.901708 
L 609.958442 329.716214 
L 610.344935 328.66913 
L 611.504416 329.966756 
L 611.890909 326.395489 
L 612.277403 328.246441 
L 612.663896 327.454635 
L 613.05039 326.280978 
L 614.20987 324.469793 
L 614.596364 316.435089 
L 614.982857 317.72921 
L 615.369351 312.789092 
L 615.755844 310.041 
L 616.915325 312.877382 
L 617.301818 323.763726 
L 617.688312 317.550618 
L 618.461299 322.838068 
L 619.620779 321.921687 
L 620.007273 324.146001 
L 620.393766 323.323614 
L 621.166753 324.13183 
L 622.326234 328.048966 
L 622.712727 328.930834 
L 623.099221 325.142084 
L 623.485714 331.452102 
L 623.872208 330.557306 
L 625.031688 331.395578 
L 625.418182 332.058404 
L 625.804675 334.214306 
L 626.191169 334.66596 
L 626.577662 336.849591 
L 627.737143 333.286419 
L 628.123636 339.075567 
L 628.51013 335.745324 
L 628.896623 333.483442 
L 629.283117 326.231864 
L 630.829091 327.197112 
L 631.215584 329.170758 
L 631.602078 327.175365 
L 631.988571 328.239096 
L 633.534545 329.261507 
L 633.921039 331.590966 
L 634.307532 328.579754 
L 634.694026 324.43685 
L 635.853506 326.795552 
L 636.24 328.996683 
L 636.626494 324.717552 
L 637.012987 326.534151 
L 637.399481 326.753843 
L 638.945455 328.986093 
L 639.331948 330.483882 
L 639.718442 324.554583 
L 640.104935 328.008309 
L 641.264416 329.820004 
L 641.650909 326.767103 
L 642.037403 329.76033 
L 642.423896 329.872219 
L 642.81039 333.128118 
L 643.96987 333.88847 
L 644.356364 334.638165 
L 644.742857 329.620721 
L 645.129351 328.937012 
L 645.515844 321.802418 
L 646.675325 324.267605 
L 647.061818 321.941424 
L 647.448312 323.464576 
L 647.834805 330.260845 
L 648.221299 324.369312 
L 649.380779 331.853625 
L 649.767273 324.568916 
L 650.153766 320.239944 
L 650.54026 319.901115 
L 650.926753 323.084319 
L 652.472727 318.303715 
L 652.859221 315.43985 
L 653.245714 309.433209 
L 653.632208 323.460467 
L 654.791688 325.003334 
L 655.564675 319.99309 
L 655.951169 320.772778 
L 656.337662 325.877619 
L 657.497143 330.628736 
L 657.883636 326.033905 
L 658.27013 326.259469 
L 658.656623 322.743357 
L 659.043117 324.311325 
L 660.202597 323.541826 
L 660.589091 314.679274 
L 660.975584 323.336635 
L 661.362078 323.058612 
L 661.748571 324.523898 
L 662.908052 326.076406 
L 663.294545 328.4883 
L 663.681039 329.754225 
L 664.067532 333.106885 
L 664.454026 329.62293 
L 665.613506 331.182682 
L 666 332.332969 
L 666.386494 335.536167 
L 666.772987 335.724797 
L 668.318961 332.728271 
L 668.705455 328.660205 
L 669.091948 328.408256 
L 669.478442 323.745357 
L 669.864935 325.613738 
L 671.024416 318.723082 
L 671.410909 324.006034 
L 672.183896 331.92522 
L 672.57039 333.157079 
L 673.72987 327.375191 
L 674.116364 321.639387 
L 674.502857 317.741452 
L 674.889351 322.405282 
L 675.275844 318.446113 
L 676.435325 322.590483 
L 676.821818 321.997093 
L 677.208312 334.167519 
L 677.594805 331.623148 
L 677.981299 332.813906 
L 679.140779 334.28373 
L 679.527273 332.265969 
L 679.913766 331.944917 
L 680.30026 325.195581 
L 680.686753 325.94255 
L 681.846234 330.016856 
L 682.232727 327.650907 
L 682.619221 321.209723 
L 683.005714 320.555076 
L 683.392208 328.370012 
L 684.551688 326.752744 
L 684.938182 323.474537 
L 685.324675 323.878018 
L 685.711169 329.882447 
L 686.097662 327.630883 
L 687.257143 324.50522 
L 688.03013 326.847346 
L 688.416623 330.770612 
L 688.803117 329.337608 
L 690.349091 329.976125 
L 691.122078 319.372438 
L 691.508571 322.620882 
L 692.668052 327.487697 
L 693.054545 330.788824 
L 693.441039 330.846505 
L 693.827532 334.28937 
L 694.214026 333.747564 
L 695.373506 336.547913 
L 695.76 337.103685 
L 696.146494 333.088437 
L 696.532987 336.236856 
L 696.919481 335.681259 
L 698.078961 332.850314 
L 698.465455 333.757351 
L 699.238442 334.381958 
L 699.624935 332.905361 
L 700.784416 330.725078 
L 701.170909 331.303627 
L 701.557403 332.885179 
L 701.943896 335.095705 
L 702.33039 335.869724 
L 703.48987 336.941735 
L 703.876364 338.125293 
L 704.262857 340.157256 
L 705.035844 339.878058 
L 706.195325 339.99819 
L 706.581818 337.502372 
L 706.968312 338.350194 
L 707.354805 338.262901 
L 707.741299 335.938857 
L 708.900779 336.021705 
L 709.287273 334.191637 
L 709.673766 333.961514 
L 710.06026 330.023191 
L 710.446753 320.04125 
L 711.606234 317.49658 
L 711.992727 324.289592 
L 712.379221 322.135544 
L 712.765714 306.878343 
L 713.152208 286.79175 
L 714.311688 312.106717 
L 714.698182 316.941924 
L 715.084675 314.3316 
L 715.471169 313.222756 
L 715.857662 305.614184 
L 717.017143 289.124629 
L 717.403636 222.545935 
L 717.79013 219.176882 
L 718.176623 271.203495 
L 718.563117 269.843498 
L 719.722597 284.872593 
L 720.109091 283.130999 
L 720.495584 316.470225 
L 721.268571 330.809654 
L 722.428052 321.038031 
L 722.814545 325.603232 
L 723.201039 312.212443 
L 723.587532 310.985218 
L 723.974026 308.881838 
L 725.133506 303.723847 
L 725.52 304.037802 
L 725.906494 294.346439 
L 726.292987 296.456619 
L 726.679481 294.403167 
L 728.225455 318.425181 
L 728.611948 300.806634 
L 728.998442 269.299946 
L 729.384935 298.012568 
L 730.544416 296.887146 
L 730.930909 307.639809 
L 731.703896 311.106208 
L 732.09039 327.922141 
L 733.24987 328.410057 
L 733.636364 326.5072 
L 734.022857 325.439337 
L 734.795844 328.134706 
L 735.955325 326.058019 
L 736.341818 320.83311 
L 736.728312 323.424491 
L 737.114805 323.64638 
L 737.501299 326.116157 
L 738.660779 320.863559 
L 739.433766 313.656086 
L 739.82026 305.404049 
L 741.366234 314.386823 
L 741.752727 312.679972 
L 742.139221 312.798187 
L 742.525714 323.005814 
L 742.912208 326.128358 
L 744.071688 328.141674 
L 744.458182 332.726101 
L 744.844675 329.0988 
L 745.231169 332.084888 
L 745.617662 330.898435 
L 746.777143 336.454032 
L 747.163636 335.166671 
L 747.163636 335.166671 
" clip-path="url(#p0c0019682d)" style="fill: none; stroke: #1f77b4; stroke-width: 1.5; stroke-linecap: square"/>
   </g>
   <g id="patch_3">
    <path d="M 108 384.48 
L 108 51.84 
" style="fill: none; stroke: #000000; stroke-width: 0.8; stroke-linejoin: miter; stroke-linecap: square"/>
   </g>
   <g id="patch_4">
    <path d="M 777.6 384.48 
L 777.6 51.84 
" style="fill: none; stroke: #000000; stroke-width: 0.8; stroke-linejoin: miter; stroke-linecap: square"/>
   </g>
   <g id="patch_5">
    <path d="M 108 384.48 
L 777.6 384.48 
" style="fill: none; stroke: #000000; stroke-width: 0.8; stroke-linejoin: miter; stroke-linecap: square"/>
   </g>
   <g id="patch_6">
    <path d="M 108 51.84 
L 777.6 51.84 
" style="fill: none; stroke: #000000; stroke-width: 0.8; stroke-linejoin: miter; stroke-linecap: square"/>
   </g>
   <g id="text_19">
    <!-- Volatility Prediction with Mini LSTM w/ RVOL &amp; VIX -->
    <g transform="translate(293.29875 45.84) scale(0.12 -0.12)">
     <defs>
      <path id="DejaVuSans-20" transform="scale(0.015625)"/>
      <path id="DejaVuSans-50" d="M 1259 4147 
L 1259 2394 
L 2053 2394 
Q 2494 2394 2734 2622 
Q 2975 2850 2975 3272 
Q 2975 3691 2734 3919 
Q 2494 4147 2053 4147 
L 1259 4147 
z
M 628 4666 
L 2053 4666 
Q 2838 4666 3239 4311 
Q 3641 3956 3641 3272 
Q 3641 2581 3239 2228 
Q 2838 1875 2053 1875 
L 1259 1875 
L 1259 0 
L 628 0 
L 628 4666 
z
" transform="scale(0.015625)"/>
      <path id="DejaVuSans-72" d="M 2631 2963 
Q 2534 3019 2420 3045 
Q 2306 3072 2169 3072 
Q 1681 3072 1420 2755 
Q 1159 2438 1159 1844 
L 1159 0 
L 581 0 
L 581 3500 
L 1159 3500 
L 1159 2956 
Q 1341 3275 1631 3429 
Q 1922 3584 2338 3584 
Q 2397 3584 2469 3576 
Q 2541 3569 2628 3553 
L 2631 2963 
z
" transform="scale(0.015625)"/>
      <path id="DejaVuSans-64" d="M 2906 2969 
L 2906 4863 
L 3481 4863 
L 3481 0 
L 2906 0 
L 2906 525 
Q 2725 213 2448 61 
Q 2172 -91 1784 -91 
Q 1150 -91 751 415 
Q 353 922 353 1747 
Q 353 2572 751 3078 
Q 1150 3584 1784 3584 
Q 2172 3584 2448 3432 
Q 2725 3281 2906 2969 
z
M 947 1747 
Q 947 1113 1208 752 
Q 1469 391 1925 391 
Q 2381 391 2643 752 
Q 2906 1113 2906 1747 
Q 2906 2381 2643 2742 
Q 2381 3103 1925 3103 
Q 1469 3103 1208 2742 
Q 947 2381 947 1747 
z
" transform="scale(0.015625)"/>
      <path id="DejaVuSans-63" d="M 3122 3366 
L 3122 2828 
Q 2878 2963 2633 3030 
Q 2388 3097 2138 3097 
Q 1578 3097 1268 2742 
Q 959 2388 959 1747 
Q 959 1106 1268 751 
Q 1578 397 2138 397 
Q 2388 397 2633 464 
Q 2878 531 3122 666 
L 3122 134 
Q 2881 22 2623 -34 
Q 2366 -91 2075 -91 
Q 1284 -91 818 406 
Q 353 903 353 1747 
Q 353 2603 823 3093 
Q 1294 3584 2113 3584 
Q 2378 3584 2631 3529 
Q 2884 3475 3122 3366 
z
" transform="scale(0.015625)"/>
      <path id="DejaVuSans-6e" d="M 3513 2113 
L 3513 0 
L 2938 0 
L 2938 2094 
Q 2938 2591 2744 2837 
Q 2550 3084 2163 3084 
Q 1697 3084 1428 2787 
Q 1159 2491 1159 1978 
L 1159 0 
L 581 0 
L 581 3500 
L 1159 3500 
L 1159 2956 
Q 1366 3272 1645 3428 
Q 1925 3584 2291 3584 
Q 2894 3584 3203 3211 
Q 3513 2838 3513 2113 
z
" transform="scale(0.015625)"/>
      <path id="DejaVuSans-77" d="M 269 3500 
L 844 3500 
L 1563 769 
L 2278 3500 
L 2956 3500 
L 3675 769 
L 4391 3500 
L 4966 3500 
L 4050 0 
L 3372 0 
L 2619 2869 
L 1863 0 
L 1184 0 
L 269 3500 
z
" transform="scale(0.015625)"/>
      <path id="DejaVuSans-68" d="M 3513 2113 
L 3513 0 
L 2938 0 
L 2938 2094 
Q 2938 2591 2744 2837 
Q 2550 3084 2163 3084 
Q 1697 3084 1428 2787 
Q 1159 2491 1159 1978 
L 1159 0 
L 581 0 
L 581 4863 
L 1159 4863 
L 1159 2956 
Q 1366 3272 1645 3428 
Q 1925 3584 2291 3584 
Q 2894 3584 3203 3211 
Q 3513 2838 3513 2113 
z
" transform="scale(0.015625)"/>
      <path id="DejaVuSans-4d" d="M 628 4666 
L 1569 4666 
L 2759 1491 
L 3956 4666 
L 4897 4666 
L 4897 0 
L 4281 0 
L 4281 4097 
L 3078 897 
L 2444 897 
L 1241 4097 
L 1241 0 
L 628 0 
L 628 4666 
z
" transform="scale(0.015625)"/>
      <path id="DejaVuSans-4c" d="M 628 4666 
L 1259 4666 
L 1259 531 
L 3531 531 
L 3531 0 
L 628 0 
L 628 4666 
z
" transform="scale(0.015625)"/>
      <path id="DejaVuSans-53" d="M 3425 4513 
L 3425 3897 
Q 3066 4069 2747 4153 
Q 2428 4238 2131 4238 
Q 1616 4238 1336 4038 
Q 1056 3838 1056 3469 
Q 1056 3159 1242 3001 
Q 1428 2844 1947 2747 
L 2328 2669 
Q 3034 2534 3370 2195 
Q 3706 1856 3706 1288 
Q 3706 609 3251 259 
Q 2797 -91 1919 -91 
Q 1588 -91 1214 -16 
Q 841 59 441 206 
L 441 856 
Q 825 641 1194 531 
Q 1563 422 1919 422 
Q 2459 422 2753 634 
Q 3047 847 3047 1241 
Q 3047 1584 2836 1778 
Q 2625 1972 2144 2069 
L 1759 2144 
Q 1053 2284 737 2584 
Q 422 2884 422 3419 
Q 422 4038 858 4394 
Q 1294 4750 2059 4750 
Q 2388 4750 2728 4690 
Q 3069 4631 3425 4513 
z
" transform="scale(0.015625)"/>
      <path id="DejaVuSans-54" d="M -19 4666 
L 3928 4666 
L 3928 4134 
L 2272 4134 
L 2272 0 
L 1638 0 
L 1638 4134 
L -19 4134 
L -19 4666 
z
" transform="scale(0.015625)"/>
      <path id="DejaVuSans-2f" d="M 1625 4666 
L 2156 4666 
L 531 -594 
L 0 -594 
L 1625 4666 
z
" transform="scale(0.015625)"/>
      <path id="DejaVuSans-52" d="M 2841 2188 
Q 3044 2119 3236 1894 
Q 3428 1669 3622 1275 
L 4263 0 
L 3584 0 
L 2988 1197 
Q 2756 1666 2539 1819 
Q 2322 1972 1947 1972 
L 1259 1972 
L 1259 0 
L 628 0 
L 628 4666 
L 2053 4666 
Q 2853 4666 3247 4331 
Q 3641 3997 3641 3322 
Q 3641 2881 3436 2590 
Q 3231 2300 2841 2188 
z
M 1259 4147 
L 1259 2491 
L 2053 2491 
Q 2509 2491 2742 2702 
Q 2975 2913 2975 3322 
Q 2975 3731 2742 3939 
Q 2509 4147 2053 4147 
L 1259 4147 
z
" transform="scale(0.015625)"/>
      <path id="DejaVuSans-4f" d="M 2522 4238 
Q 1834 4238 1429 3725 
Q 1025 3213 1025 2328 
Q 1025 1447 1429 934 
Q 1834 422 2522 422 
Q 3209 422 3611 934 
Q 4013 1447 4013 2328 
Q 4013 3213 3611 3725 
Q 3209 4238 2522 4238 
z
M 2522 4750 
Q 3503 4750 4090 4092 
Q 4678 3434 4678 2328 
Q 4678 1225 4090 567 
Q 3503 -91 2522 -91 
Q 1538 -91 948 565 
Q 359 1222 359 2328 
Q 359 3434 948 4092 
Q 1538 4750 2522 4750 
z
" transform="scale(0.015625)"/>
      <path id="DejaVuSans-26" d="M 1556 2509 
Q 1272 2256 1139 2004 
Q 1006 1753 1006 1478 
Q 1006 1022 1337 719 
Q 1669 416 2169 416 
Q 2466 416 2725 514 
Q 2984 613 3213 813 
L 1556 2509 
z
M 1997 2859 
L 3584 1234 
Q 3769 1513 3872 1830 
Q 3975 2147 3994 2503 
L 4575 2503 
Q 4538 2091 4375 1687 
Q 4213 1284 3922 891 
L 4794 0 
L 4006 0 
L 3559 459 
Q 3234 181 2878 45 
Q 2522 -91 2113 -91 
Q 1359 -91 881 339 
Q 403 769 403 1441 
Q 403 1841 612 2192 
Q 822 2544 1241 2853 
Q 1091 3050 1012 3245 
Q 934 3441 934 3628 
Q 934 4134 1281 4442 
Q 1628 4750 2203 4750 
Q 2463 4750 2720 4694 
Q 2978 4638 3244 4525 
L 3244 3956 
Q 2972 4103 2725 4179 
Q 2478 4256 2266 4256 
Q 1938 4256 1733 4082 
Q 1528 3909 1528 3634 
Q 1528 3475 1620 3314 
Q 1713 3153 1997 2859 
z
" transform="scale(0.015625)"/>
      <path id="DejaVuSans-49" d="M 628 4666 
L 1259 4666 
L 1259 0 
L 628 0 
L 628 4666 
z
" transform="scale(0.015625)"/>
      <path id="DejaVuSans-58" d="M 403 4666 
L 1081 4666 
L 2241 2931 
L 3406 4666 
L 4084 4666 
L 2584 2425 
L 4184 0 
L 3506 0 
L 2194 1984 
L 872 0 
L 191 0 
L 1856 2491 
L 403 4666 
z
" transform="scale(0.015625)"/>
     </defs>
     <use xlink:href="#DejaVuSans-56"/>
     <use xlink:href="#DejaVuSans-6f" x="60.658203"/>
     <use xlink:href="#DejaVuSans-6c" x="121.839844"/>
     <use xlink:href="#DejaVuSans-61" x="149.623047"/>
     <use xlink:href="#DejaVuSans-74" x="210.902344"/>
     <use xlink:href="#DejaVuSans-69" x="250.111328"/>
     <use xlink:href="#DejaVuSans-6c" x="277.894531"/>
     <use xlink:href="#DejaVuSans-69" x="305.677734"/>
     <use xlink:href="#DejaVuSans-74" x="333.460938"/>
     <use xlink:href="#DejaVuSans-79" x="372.669922"/>
     <use xlink:href="#DejaVuSans-20" x="431.849609"/>
     <use xlink:href="#DejaVuSans-50" x="463.636719"/>
     <use xlink:href="#DejaVuSans-72" x="522.189453"/>
     <use xlink:href="#DejaVuSans-65" x="561.052734"/>
     <use xlink:href="#DejaVuSans-64" x="622.576172"/>
     <use xlink:href="#DejaVuSans-69" x="686.052734"/>
     <use xlink:href="#DejaVuSans-63" x="713.835938"/>
     <use xlink:href="#DejaVuSans-74" x="768.816406"/>
     <use xlink:href="#DejaVuSans-69" x="808.025391"/>
     <use xlink:href="#DejaVuSans-6f" x="835.808594"/>
     <use xlink:href="#DejaVuSans-6e" x="896.990234"/>
     <use xlink:href="#DejaVuSans-20" x="960.369141"/>
     <use xlink:href="#DejaVuSans-77" x="992.15625"/>
     <use xlink:href="#DejaVuSans-69" x="1073.943359"/>
     <use xlink:href="#DejaVuSans-74" x="1101.726562"/>
     <use xlink:href="#DejaVuSans-68" x="1140.935547"/>
     <use xlink:href="#DejaVuSans-20" x="1204.314453"/>
     <use xlink:href="#DejaVuSans-4d" x="1236.101562"/>
     <use xlink:href="#DejaVuSans-69" x="1322.380859"/>
     <use xlink:href="#DejaVuSans-6e" x="1350.164062"/>
     <use xlink:href="#DejaVuSans-69" x="1413.542969"/>
     <use xlink:href="#DejaVuSans-20" x="1441.326172"/>
     <use xlink:href="#DejaVuSans-4c" x="1473.113281"/>
     <use xlink:href="#DejaVuSans-53" x="1528.826172"/>
     <use xlink:href="#DejaVuSans-54" x="1592.302734"/>
     <use xlink:href="#DejaVuSans-4d" x="1653.386719"/>
     <use xlink:href="#DejaVuSans-20" x="1739.666016"/>
     <use xlink:href="#DejaVuSans-77" x="1771.453125"/>
     <use xlink:href="#DejaVuSans-2f" x="1853.240234"/>
     <use xlink:href="#DejaVuSans-20" x="1886.931641"/>
     <use xlink:href="#DejaVuSans-52" x="1918.71875"/>
     <use xlink:href="#DejaVuSans-56" x="1982.701172"/>
     <use xlink:href="#DejaVuSans-4f" x="2049.359375"/>
     <use xlink:href="#DejaVuSans-4c" x="2128.070312"/>
     <use xlink:href="#DejaVuSans-20" x="2183.783203"/>
     <use xlink:href="#DejaVuSans-26" x="2215.570312"/>
     <use xlink:href="#DejaVuSans-20" x="2293.548828"/>
     <use xlink:href="#DejaVuSans-56" x="2325.335938"/>
     <use xlink:href="#DejaVuSans-49" x="2393.744141"/>
     <use xlink:href="#DejaVuSans-58" x="2423.236328"/>
    </g>
   </g>
   <g id="legend_1">
    <g id="patch_7">
     <path d="M 513.823437 89.19625 
L 770.6 89.19625 
Q 772.6 89.19625 772.6 87.19625 
L 772.6 58.84 
Q 772.6 56.84 770.6 56.84 
L 513.823437 56.84 
Q 511.823437 56.84 511.823437 58.84 
L 511.823437 87.19625 
Q 511.823437 89.19625 513.823437 89.19625 
z
" style="fill: #ffffff; opacity: 0.8; stroke: #cccccc; stroke-linejoin: miter"/>
    </g>
    <g id="line2d_19">
     <path d="M 515.823437 64.938437 
L 525.823437 64.938437 
L 535.823437 64.938437 
" style="fill: none; stroke: #000000; stroke-width: 1.5; stroke-linecap: square"/>
    </g>
    <g id="text_20">
     <!-- Absolute Returns -->
     <g transform="translate(543.823437 68.438437) scale(0.1 -0.1)">
      <defs>
       <path id="DejaVuSans-41" d="M 2188 4044 
L 1331 1722 
L 3047 1722 
L 2188 4044 
z
M 1831 4666 
L 2547 4666 
L 4325 0 
L 3669 0 
L 3244 1197 
L 1141 1197 
L 716 0 
L 50 0 
L 1831 4666 
z
" transform="scale(0.015625)"/>
       <path id="DejaVuSans-62" d="M 3116 1747 
Q 3116 2381 2855 2742 
Q 2594 3103 2138 3103 
Q 1681 3103 1420 2742 
Q 1159 2381 1159 1747 
Q 1159 1113 1420 752 
Q 1681 391 2138 391 
Q 2594 391 2855 752 
Q 3116 1113 3116 1747 
z
M 1159 2969 
Q 1341 3281 1617 3432 
Q 1894 3584 2278 3584 
Q 2916 3584 3314 3078 
Q 3713 2572 3713 1747 
Q 3713 922 3314 415 
Q 2916 -91 2278 -91 
Q 1894 -91 1617 61 
Q 1341 213 1159 525 
L 1159 0 
L 581 0 
L 581 4863 
L 1159 4863 
L 1159 2969 
z
" transform="scale(0.015625)"/>
       <path id="DejaVuSans-73" d="M 2834 3397 
L 2834 2853 
Q 2591 2978 2328 3040 
Q 2066 3103 1784 3103 
Q 1356 3103 1142 2972 
Q 928 2841 928 2578 
Q 928 2378 1081 2264 
Q 1234 2150 1697 2047 
L 1894 2003 
Q 2506 1872 2764 1633 
Q 3022 1394 3022 966 
Q 3022 478 2636 193 
Q 2250 -91 1575 -91 
Q 1294 -91 989 -36 
Q 684 19 347 128 
L 347 722 
Q 666 556 975 473 
Q 1284 391 1588 391 
Q 1994 391 2212 530 
Q 2431 669 2431 922 
Q 2431 1156 2273 1281 
Q 2116 1406 1581 1522 
L 1381 1569 
Q 847 1681 609 1914 
Q 372 2147 372 2553 
Q 372 3047 722 3315 
Q 1072 3584 1716 3584 
Q 2034 3584 2315 3537 
Q 2597 3491 2834 3397 
z
" transform="scale(0.015625)"/>
       <path id="DejaVuSans-75" d="M 544 1381 
L 544 3500 
L 1119 3500 
L 1119 1403 
Q 1119 906 1312 657 
Q 1506 409 1894 409 
Q 2359 409 2629 706 
Q 2900 1003 2900 1516 
L 2900 3500 
L 3475 3500 
L 3475 0 
L 2900 0 
L 2900 538 
Q 2691 219 2414 64 
Q 2138 -91 1772 -91 
Q 1169 -91 856 284 
Q 544 659 544 1381 
z
M 1991 3584 
L 1991 3584 
z
" transform="scale(0.015625)"/>
      </defs>
      <use xlink:href="#DejaVuSans-41"/>
      <use xlink:href="#DejaVuSans-62" x="68.408203"/>
      <use xlink:href="#DejaVuSans-73" x="131.884766"/>
      <use xlink:href="#DejaVuSans-6f" x="183.984375"/>
      <use xlink:href="#DejaVuSans-6c" x="245.166016"/>
      <use xlink:href="#DejaVuSans-75" x="272.949219"/>
      <use xlink:href="#DejaVuSans-74" x="336.328125"/>
      <use xlink:href="#DejaVuSans-65" x="375.537109"/>
      <use xlink:href="#DejaVuSans-20" x="437.060547"/>
      <use xlink:href="#DejaVuSans-52" x="468.847656"/>
      <use xlink:href="#DejaVuSans-65" x="533.830078"/>
      <use xlink:href="#DejaVuSans-74" x="595.353516"/>
      <use xlink:href="#DejaVuSans-75" x="634.5625"/>
      <use xlink:href="#DejaVuSans-72" x="697.941406"/>
      <use xlink:href="#DejaVuSans-6e" x="737.304688"/>
      <use xlink:href="#DejaVuSans-73" x="800.683594"/>
     </g>
    </g>
    <g id="line2d_20">
     <path d="M 515.823437 79.616562 
L 525.823437 79.616562 
L 535.823437 79.616562 
" style="fill: none; stroke: #1f77b4; stroke-width: 1.5; stroke-linecap: square"/>
    </g>
    <g id="text_21">
     <!-- Mini LSTM w/ RVOL &amp; VIX Volatility Prediction -->
     <g transform="translate(543.823437 83.116562) scale(0.1 -0.1)">
      <use xlink:href="#DejaVuSans-4d"/>
      <use xlink:href="#DejaVuSans-69" x="86.279297"/>
      <use xlink:href="#DejaVuSans-6e" x="114.0625"/>
      <use xlink:href="#DejaVuSans-69" x="177.441406"/>
      <use xlink:href="#DejaVuSans-20" x="205.224609"/>
      <use xlink:href="#DejaVuSans-4c" x="237.011719"/>
      <use xlink:href="#DejaVuSans-53" x="292.724609"/>
      <use xlink:href="#DejaVuSans-54" x="356.201172"/>
      <use xlink:href="#DejaVuSans-4d" x="417.285156"/>
      <use xlink:href="#DejaVuSans-20" x="503.564453"/>
      <use xlink:href="#DejaVuSans-77" x="535.351562"/>
      <use xlink:href="#DejaVuSans-2f" x="617.138672"/>
      <use xlink:href="#DejaVuSans-20" x="650.830078"/>
      <use xlink:href="#DejaVuSans-52" x="682.617188"/>
      <use xlink:href="#DejaVuSans-56" x="746.599609"/>
      <use xlink:href="#DejaVuSans-4f" x="813.257812"/>
      <use xlink:href="#DejaVuSans-4c" x="891.96875"/>
      <use xlink:href="#DejaVuSans-20" x="947.681641"/>
      <use xlink:href="#DejaVuSans-26" x="979.46875"/>
      <use xlink:href="#DejaVuSans-20" x="1057.447266"/>
      <use xlink:href="#DejaVuSans-56" x="1089.234375"/>
      <use xlink:href="#DejaVuSans-49" x="1157.642578"/>
      <use xlink:href="#DejaVuSans-58" x="1187.134766"/>
      <use xlink:href="#DejaVuSans-20" x="1255.640625"/>
      <use xlink:href="#DejaVuSans-56" x="1287.427734"/>
      <use xlink:href="#DejaVuSans-6f" x="1348.085938"/>
      <use xlink:href="#DejaVuSans-6c" x="1409.267578"/>
      <use xlink:href="#DejaVuSans-61" x="1437.050781"/>
      <use xlink:href="#DejaVuSans-74" x="1498.330078"/>
      <use xlink:href="#DejaVuSans-69" x="1537.539062"/>
      <use xlink:href="#DejaVuSans-6c" x="1565.322266"/>
      <use xlink:href="#DejaVuSans-69" x="1593.105469"/>
      <use xlink:href="#DejaVuSans-74" x="1620.888672"/>
      <use xlink:href="#DejaVuSans-79" x="1660.097656"/>
      <use xlink:href="#DejaVuSans-20" x="1719.277344"/>
      <use xlink:href="#DejaVuSans-50" x="1751.064453"/>
      <use xlink:href="#DejaVuSans-72" x="1809.617188"/>
      <use xlink:href="#DejaVuSans-65" x="1848.480469"/>
      <use xlink:href="#DejaVuSans-64" x="1910.003906"/>
      <use xlink:href="#DejaVuSans-69" x="1973.480469"/>
      <use xlink:href="#DejaVuSans-63" x="2001.263672"/>
      <use xlink:href="#DejaVuSans-74" x="2056.244141"/>
      <use xlink:href="#DejaVuSans-69" x="2095.453125"/>
      <use xlink:href="#DejaVuSans-6f" x="2123.236328"/>
      <use xlink:href="#DejaVuSans-6e" x="2184.417969"/>
     </g>
    </g>
   </g>
  </g>
 </g>
 <defs>
  <clipPath id="p0c0019682d">
   <rect x="108" y="51.84" width="669.6" height="332.64"/>
  </clipPath>
 </defs>
</svg>
