<?xml version="1.0" encoding="utf-8" standalone="no"?>
<!DOCTYPE svg PUBLIC "-//W3C//DTD SVG 1.1//EN"
  "http://www.w3.org/Graphics/SVG/1.1/DTD/svg11.dtd">
<svg xmlns:xlink="http://www.w3.org/1999/xlink" width="864pt" height="432pt" viewBox="0 0 864 432" xmlns="http://www.w3.org/2000/svg" version="1.1">
 <metadata>
  <rdf:RDF xmlns:dc="http://purl.org/dc/elements/1.1/" xmlns:cc="http://creativecommons.org/ns#" xmlns:rdf="http://www.w3.org/1999/02/22-rdf-syntax-ns#">
   <cc:Work>
    <dc:type rdf:resource="http://purl.org/dc/dcmitype/StillImage"/>
    <dc:date>2025-02-16T20:04:00.633012</dc:date>
    <dc:format>image/svg+xml</dc:format>
    <dc:creator>
     <cc:Agent>
      <dc:title>Matplotlib v3.10.0, https://matplotlib.org/</dc:title>
     </cc:Agent>
    </dc:creator>
   </cc:Work>
  </rdf:RDF>
 </metadata>
 <defs>
  <style type="text/css">*{stroke-linejoin: round; stroke-linecap: butt}</style>
 </defs>
 <g id="figure_1">
  <g id="patch_1">
   <path d="M 0 432 
L 864 432 
L 864 0 
L 0 0 
z
" style="fill: #ffffff"/>
  </g>
  <g id="axes_1">
   <g id="patch_2">
    <path d="M 108 384.48 
L 777.6 384.48 
L 777.6 51.84 
L 108 51.84 
z
" style="fill: #ffffff"/>
   </g>
   <g id="matplotlib.axis_1">
    <g id="xtick_1">
     <g id="line2d_1">
      <defs>
       <path id="mb0f14204b9" d="M 0 0 
L 0 3.5 
" style="stroke: #000000; stroke-width: 0.8"/>
      </defs>
      <g>
       <use xlink:href="#mb0f14204b9" x="139.272527" y="384.48" style="stroke: #000000; stroke-width: 0.8"/>
      </g>
     </g>
     <g id="text_1">
      <!-- 2022-01 -->
      <g transform="translate(118.381121 399.078438) scale(0.1 -0.1)">
       <defs>
        <path id="DejaVuSans-32" d="M 1228 531 
L 3431 531 
L 3431 0 
L 469 0 
L 469 531 
Q 828 903 1448 1529 
Q 2069 2156 2228 2338 
Q 2531 2678 2651 2914 
Q 2772 3150 2772 3378 
Q 2772 3750 2511 3984 
Q 2250 4219 1831 4219 
Q 1534 4219 1204 4116 
Q 875 4013 500 3803 
L 500 4441 
Q 881 4594 1212 4672 
Q 1544 4750 1819 4750 
Q 2544 4750 2975 4387 
Q 3406 4025 3406 3419 
Q 3406 3131 3298 2873 
Q 3191 2616 2906 2266 
Q 2828 2175 2409 1742 
Q 1991 1309 1228 531 
z
" transform="scale(0.015625)"/>
        <path id="DejaVuSans-30" d="M 2034 4250 
Q 1547 4250 1301 3770 
Q 1056 3291 1056 2328 
Q 1056 1369 1301 889 
Q 1547 409 2034 409 
Q 2525 409 2770 889 
Q 3016 1369 3016 2328 
Q 3016 3291 2770 3770 
Q 2525 4250 2034 4250 
z
M 2034 4750 
Q 2819 4750 3233 4129 
Q 3647 3509 3647 2328 
Q 3647 1150 3233 529 
Q 2819 -91 2034 -91 
Q 1250 -91 836 529 
Q 422 1150 422 2328 
Q 422 3509 836 4129 
Q 1250 4750 2034 4750 
z
" transform="scale(0.015625)"/>
        <path id="DejaVuSans-2d" d="M 313 2009 
L 1997 2009 
L 1997 1497 
L 313 1497 
L 313 2009 
z
" transform="scale(0.015625)"/>
        <path id="DejaVuSans-31" d="M 794 531 
L 1825 531 
L 1825 4091 
L 703 3866 
L 703 4441 
L 1819 4666 
L 2450 4666 
L 2450 531 
L 3481 531 
L 3481 0 
L 794 0 
L 794 531 
z
" transform="scale(0.015625)"/>
       </defs>
       <use xlink:href="#DejaVuSans-32"/>
       <use xlink:href="#DejaVuSans-30" transform="translate(63.623047 0)"/>
       <use xlink:href="#DejaVuSans-32" transform="translate(127.246094 0)"/>
       <use xlink:href="#DejaVuSans-32" transform="translate(190.869141 0)"/>
       <use xlink:href="#DejaVuSans-2d" transform="translate(254.492188 0)"/>
       <use xlink:href="#DejaVuSans-30" transform="translate(290.576172 0)"/>
       <use xlink:href="#DejaVuSans-31" transform="translate(354.199219 0)"/>
      </g>
     </g>
    </g>
    <g id="xtick_2">
     <g id="line2d_2">
      <g>
       <use xlink:href="#mb0f14204b9" x="214.527273" y="384.48" style="stroke: #000000; stroke-width: 0.8"/>
      </g>
     </g>
     <g id="text_2">
      <!-- 2022-04 -->
      <g transform="translate(193.635866 399.078438) scale(0.1 -0.1)">
       <defs>
        <path id="DejaVuSans-34" d="M 2419 4116 
L 825 1625 
L 2419 1625 
L 2419 4116 
z
M 2253 4666 
L 3047 4666 
L 3047 1625 
L 3713 1625 
L 3713 1100 
L 3047 1100 
L 3047 0 
L 2419 0 
L 2419 1100 
L 313 1100 
L 313 1709 
L 2253 4666 
z
" transform="scale(0.015625)"/>
       </defs>
       <use xlink:href="#DejaVuSans-32"/>
       <use xlink:href="#DejaVuSans-30" transform="translate(63.623047 0)"/>
       <use xlink:href="#DejaVuSans-32" transform="translate(127.246094 0)"/>
       <use xlink:href="#DejaVuSans-32" transform="translate(190.869141 0)"/>
       <use xlink:href="#DejaVuSans-2d" transform="translate(254.492188 0)"/>
       <use xlink:href="#DejaVuSans-30" transform="translate(290.576172 0)"/>
       <use xlink:href="#DejaVuSans-34" transform="translate(354.199219 0)"/>
      </g>
     </g>
    </g>
    <g id="xtick_3">
     <g id="line2d_3">
      <g>
       <use xlink:href="#mb0f14204b9" x="290.618182" y="384.48" style="stroke: #000000; stroke-width: 0.8"/>
      </g>
     </g>
     <g id="text_3">
      <!-- 2022-07 -->
      <g transform="translate(269.726776 399.078438) scale(0.1 -0.1)">
       <defs>
        <path id="DejaVuSans-37" d="M 525 4666 
L 3525 4666 
L 3525 4397 
L 1831 0 
L 1172 0 
L 2766 4134 
L 525 4134 
L 525 4666 
z
" transform="scale(0.015625)"/>
       </defs>
       <use xlink:href="#DejaVuSans-32"/>
       <use xlink:href="#DejaVuSans-30" transform="translate(63.623047 0)"/>
       <use xlink:href="#DejaVuSans-32" transform="translate(127.246094 0)"/>
       <use xlink:href="#DejaVuSans-32" transform="translate(190.869141 0)"/>
       <use xlink:href="#DejaVuSans-2d" transform="translate(254.492188 0)"/>
       <use xlink:href="#DejaVuSans-30" transform="translate(290.576172 0)"/>
       <use xlink:href="#DejaVuSans-37" transform="translate(354.199219 0)"/>
      </g>
     </g>
    </g>
    <g id="xtick_4">
     <g id="line2d_4">
      <g>
       <use xlink:href="#mb0f14204b9" x="367.545255" y="384.48" style="stroke: #000000; stroke-width: 0.8"/>
      </g>
     </g>
     <g id="text_4">
      <!-- 2022-10 -->
      <g transform="translate(346.653848 399.078438) scale(0.1 -0.1)">
       <use xlink:href="#DejaVuSans-32"/>
       <use xlink:href="#DejaVuSans-30" transform="translate(63.623047 0)"/>
       <use xlink:href="#DejaVuSans-32" transform="translate(127.246094 0)"/>
       <use xlink:href="#DejaVuSans-32" transform="translate(190.869141 0)"/>
       <use xlink:href="#DejaVuSans-2d" transform="translate(254.492188 0)"/>
       <use xlink:href="#DejaVuSans-31" transform="translate(290.576172 0)"/>
       <use xlink:href="#DejaVuSans-30" transform="translate(354.199219 0)"/>
      </g>
     </g>
    </g>
    <g id="xtick_5">
     <g id="line2d_5">
      <g>
       <use xlink:href="#mb0f14204b9" x="444.472328" y="384.48" style="stroke: #000000; stroke-width: 0.8"/>
      </g>
     </g>
     <g id="text_5">
      <!-- 2023-01 -->
      <g transform="translate(423.580921 399.078438) scale(0.1 -0.1)">
       <defs>
        <path id="DejaVuSans-33" d="M 2597 2516 
Q 3050 2419 3304 2112 
Q 3559 1806 3559 1356 
Q 3559 666 3084 287 
Q 2609 -91 1734 -91 
Q 1441 -91 1130 -33 
Q 819 25 488 141 
L 488 750 
Q 750 597 1062 519 
Q 1375 441 1716 441 
Q 2309 441 2620 675 
Q 2931 909 2931 1356 
Q 2931 1769 2642 2001 
Q 2353 2234 1838 2234 
L 1294 2234 
L 1294 2753 
L 1863 2753 
Q 2328 2753 2575 2939 
Q 2822 3125 2822 3475 
Q 2822 3834 2567 4026 
Q 2313 4219 1838 4219 
Q 1578 4219 1281 4162 
Q 984 4106 628 3988 
L 628 4550 
Q 988 4650 1302 4700 
Q 1616 4750 1894 4750 
Q 2613 4750 3031 4423 
Q 3450 4097 3450 3541 
Q 3450 3153 3228 2886 
Q 3006 2619 2597 2516 
z
" transform="scale(0.015625)"/>
       </defs>
       <use xlink:href="#DejaVuSans-32"/>
       <use xlink:href="#DejaVuSans-30" transform="translate(63.623047 0)"/>
       <use xlink:href="#DejaVuSans-32" transform="translate(127.246094 0)"/>
       <use xlink:href="#DejaVuSans-33" transform="translate(190.869141 0)"/>
       <use xlink:href="#DejaVuSans-2d" transform="translate(254.492188 0)"/>
       <use xlink:href="#DejaVuSans-30" transform="translate(290.576172 0)"/>
       <use xlink:href="#DejaVuSans-31" transform="translate(354.199219 0)"/>
      </g>
     </g>
    </g>
    <g id="xtick_6">
     <g id="line2d_6">
      <g>
       <use xlink:href="#mb0f14204b9" x="519.727073" y="384.48" style="stroke: #000000; stroke-width: 0.8"/>
      </g>
     </g>
     <g id="text_6">
      <!-- 2023-04 -->
      <g transform="translate(498.835667 399.078438) scale(0.1 -0.1)">
       <use xlink:href="#DejaVuSans-32"/>
       <use xlink:href="#DejaVuSans-30" transform="translate(63.623047 0)"/>
       <use xlink:href="#DejaVuSans-32" transform="translate(127.246094 0)"/>
       <use xlink:href="#DejaVuSans-33" transform="translate(190.869141 0)"/>
       <use xlink:href="#DejaVuSans-2d" transform="translate(254.492188 0)"/>
       <use xlink:href="#DejaVuSans-30" transform="translate(290.576172 0)"/>
       <use xlink:href="#DejaVuSans-34" transform="translate(354.199219 0)"/>
      </g>
     </g>
    </g>
    <g id="xtick_7">
     <g id="line2d_7">
      <g>
       <use xlink:href="#mb0f14204b9" x="595.817982" y="384.48" style="stroke: #000000; stroke-width: 0.8"/>
      </g>
     </g>
     <g id="text_7">
      <!-- 2023-07 -->
      <g transform="translate(574.926576 399.078438) scale(0.1 -0.1)">
       <use xlink:href="#DejaVuSans-32"/>
       <use xlink:href="#DejaVuSans-30" transform="translate(63.623047 0)"/>
       <use xlink:href="#DejaVuSans-32" transform="translate(127.246094 0)"/>
       <use xlink:href="#DejaVuSans-33" transform="translate(190.869141 0)"/>
       <use xlink:href="#DejaVuSans-2d" transform="translate(254.492188 0)"/>
       <use xlink:href="#DejaVuSans-30" transform="translate(290.576172 0)"/>
       <use xlink:href="#DejaVuSans-37" transform="translate(354.199219 0)"/>
      </g>
     </g>
    </g>
    <g id="xtick_8">
     <g id="line2d_8">
      <g>
       <use xlink:href="#mb0f14204b9" x="672.745055" y="384.48" style="stroke: #000000; stroke-width: 0.8"/>
      </g>
     </g>
     <g id="text_8">
      <!-- 2023-10 -->
      <g transform="translate(651.853649 399.078438) scale(0.1 -0.1)">
       <use xlink:href="#DejaVuSans-32"/>
       <use xlink:href="#DejaVuSans-30" transform="translate(63.623047 0)"/>
       <use xlink:href="#DejaVuSans-32" transform="translate(127.246094 0)"/>
       <use xlink:href="#DejaVuSans-33" transform="translate(190.869141 0)"/>
       <use xlink:href="#DejaVuSans-2d" transform="translate(254.492188 0)"/>
       <use xlink:href="#DejaVuSans-31" transform="translate(290.576172 0)"/>
       <use xlink:href="#DejaVuSans-30" transform="translate(354.199219 0)"/>
      </g>
     </g>
    </g>
    <g id="xtick_9">
     <g id="line2d_9">
      <g>
       <use xlink:href="#mb0f14204b9" x="749.672128" y="384.48" style="stroke: #000000; stroke-width: 0.8"/>
      </g>
     </g>
     <g id="text_9">
      <!-- 2024-01 -->
      <g transform="translate(728.780722 399.078438) scale(0.1 -0.1)">
       <use xlink:href="#DejaVuSans-32"/>
       <use xlink:href="#DejaVuSans-30" transform="translate(63.623047 0)"/>
       <use xlink:href="#DejaVuSans-32" transform="translate(127.246094 0)"/>
       <use xlink:href="#DejaVuSans-34" transform="translate(190.869141 0)"/>
       <use xlink:href="#DejaVuSans-2d" transform="translate(254.492188 0)"/>
       <use xlink:href="#DejaVuSans-30" transform="translate(290.576172 0)"/>
       <use xlink:href="#DejaVuSans-31" transform="translate(354.199219 0)"/>
      </g>
     </g>
    </g>
    <g id="text_10">
     <!-- Date -->
     <g transform="translate(430.849219 412.756563) scale(0.1 -0.1)">
      <defs>
       <path id="DejaVuSans-44" d="M 1259 4147 
L 1259 519 
L 2022 519 
Q 2988 519 3436 956 
Q 3884 1394 3884 2338 
Q 3884 3275 3436 3711 
Q 2988 4147 2022 4147 
L 1259 4147 
z
M 628 4666 
L 1925 4666 
Q 3281 4666 3915 4102 
Q 4550 3538 4550 2338 
Q 4550 1131 3912 565 
Q 3275 0 1925 0 
L 628 0 
L 628 4666 
z
" transform="scale(0.015625)"/>
       <path id="DejaVuSans-61" d="M 2194 1759 
Q 1497 1759 1228 1600 
Q 959 1441 959 1056 
Q 959 750 1161 570 
Q 1363 391 1709 391 
Q 2188 391 2477 730 
Q 2766 1069 2766 1631 
L 2766 1759 
L 2194 1759 
z
M 3341 1997 
L 3341 0 
L 2766 0 
L 2766 531 
Q 2569 213 2275 61 
Q 1981 -91 1556 -91 
Q 1019 -91 701 211 
Q 384 513 384 1019 
Q 384 1609 779 1909 
Q 1175 2209 1959 2209 
L 2766 2209 
L 2766 2266 
Q 2766 2663 2505 2880 
Q 2244 3097 1772 3097 
Q 1472 3097 1187 3025 
Q 903 2953 641 2809 
L 641 3341 
Q 956 3463 1253 3523 
Q 1550 3584 1831 3584 
Q 2591 3584 2966 3190 
Q 3341 2797 3341 1997 
z
" transform="scale(0.015625)"/>
       <path id="DejaVuSans-74" d="M 1172 4494 
L 1172 3500 
L 2356 3500 
L 2356 3053 
L 1172 3053 
L 1172 1153 
Q 1172 725 1289 603 
Q 1406 481 1766 481 
L 2356 481 
L 2356 0 
L 1766 0 
Q 1100 0 847 248 
Q 594 497 594 1153 
L 594 3053 
L 172 3053 
L 172 3500 
L 594 3500 
L 594 4494 
L 1172 4494 
z
" transform="scale(0.015625)"/>
       <path id="DejaVuSans-65" d="M 3597 1894 
L 3597 1613 
L 953 1613 
Q 991 1019 1311 708 
Q 1631 397 2203 397 
Q 2534 397 2845 478 
Q 3156 559 3463 722 
L 3463 178 
Q 3153 47 2828 -22 
Q 2503 -91 2169 -91 
Q 1331 -91 842 396 
Q 353 884 353 1716 
Q 353 2575 817 3079 
Q 1281 3584 2069 3584 
Q 2775 3584 3186 3129 
Q 3597 2675 3597 1894 
z
M 3022 2063 
Q 3016 2534 2758 2815 
Q 2500 3097 2075 3097 
Q 1594 3097 1305 2825 
Q 1016 2553 972 2059 
L 3022 2063 
z
" transform="scale(0.015625)"/>
      </defs>
      <use xlink:href="#DejaVuSans-44"/>
      <use xlink:href="#DejaVuSans-61" transform="translate(77.001953 0)"/>
      <use xlink:href="#DejaVuSans-74" transform="translate(138.28125 0)"/>
      <use xlink:href="#DejaVuSans-65" transform="translate(177.490234 0)"/>
     </g>
    </g>
   </g>
   <g id="matplotlib.axis_2">
    <g id="ytick_1">
     <g id="line2d_10">
      <defs>
       <path id="m9f2da21c5f" d="M 0 0 
L -3.5 0 
" style="stroke: #000000; stroke-width: 0.8"/>
      </defs>
      <g>
       <use xlink:href="#m9f2da21c5f" x="108" y="369.453056" style="stroke: #000000; stroke-width: 0.8"/>
      </g>
     </g>
     <g id="text_11">
      <!-- 0.00 -->
      <g transform="translate(78.734375 373.252274) scale(0.1 -0.1)">
       <defs>
        <path id="DejaVuSans-2e" d="M 684 794 
L 1344 794 
L 1344 0 
L 684 0 
L 684 794 
z
" transform="scale(0.015625)"/>
       </defs>
       <use xlink:href="#DejaVuSans-30"/>
       <use xlink:href="#DejaVuSans-2e" transform="translate(63.623047 0)"/>
       <use xlink:href="#DejaVuSans-30" transform="translate(95.410156 0)"/>
       <use xlink:href="#DejaVuSans-30" transform="translate(159.033203 0)"/>
      </g>
     </g>
    </g>
    <g id="ytick_2">
     <g id="line2d_11">
      <g>
       <use xlink:href="#m9f2da21c5f" x="108" y="313.386508" style="stroke: #000000; stroke-width: 0.8"/>
      </g>
     </g>
     <g id="text_12">
      <!-- 0.01 -->
      <g transform="translate(78.734375 317.185727) scale(0.1 -0.1)">
       <use xlink:href="#DejaVuSans-30"/>
       <use xlink:href="#DejaVuSans-2e" transform="translate(63.623047 0)"/>
       <use xlink:href="#DejaVuSans-30" transform="translate(95.410156 0)"/>
       <use xlink:href="#DejaVuSans-31" transform="translate(159.033203 0)"/>
      </g>
     </g>
    </g>
    <g id="ytick_3">
     <g id="line2d_12">
      <g>
       <use xlink:href="#m9f2da21c5f" x="108" y="257.319961" style="stroke: #000000; stroke-width: 0.8"/>
      </g>
     </g>
     <g id="text_13">
      <!-- 0.02 -->
      <g transform="translate(78.734375 261.11918) scale(0.1 -0.1)">
       <use xlink:href="#DejaVuSans-30"/>
       <use xlink:href="#DejaVuSans-2e" transform="translate(63.623047 0)"/>
       <use xlink:href="#DejaVuSans-30" transform="translate(95.410156 0)"/>
       <use xlink:href="#DejaVuSans-32" transform="translate(159.033203 0)"/>
      </g>
     </g>
    </g>
    <g id="ytick_4">
     <g id="line2d_13">
      <g>
       <use xlink:href="#m9f2da21c5f" x="108" y="201.253414" style="stroke: #000000; stroke-width: 0.8"/>
      </g>
     </g>
     <g id="text_14">
      <!-- 0.03 -->
      <g transform="translate(78.734375 205.052632) scale(0.1 -0.1)">
       <use xlink:href="#DejaVuSans-30"/>
       <use xlink:href="#DejaVuSans-2e" transform="translate(63.623047 0)"/>
       <use xlink:href="#DejaVuSans-30" transform="translate(95.410156 0)"/>
       <use xlink:href="#DejaVuSans-33" transform="translate(159.033203 0)"/>
      </g>
     </g>
    </g>
    <g id="ytick_5">
     <g id="line2d_14">
      <g>
       <use xlink:href="#m9f2da21c5f" x="108" y="145.186866" style="stroke: #000000; stroke-width: 0.8"/>
      </g>
     </g>
     <g id="text_15">
      <!-- 0.04 -->
      <g transform="translate(78.734375 148.986085) scale(0.1 -0.1)">
       <use xlink:href="#DejaVuSans-30"/>
       <use xlink:href="#DejaVuSans-2e" transform="translate(63.623047 0)"/>
       <use xlink:href="#DejaVuSans-30" transform="translate(95.410156 0)"/>
       <use xlink:href="#DejaVuSans-34" transform="translate(159.033203 0)"/>
      </g>
     </g>
    </g>
    <g id="ytick_6">
     <g id="line2d_15">
      <g>
       <use xlink:href="#m9f2da21c5f" x="108" y="89.120319" style="stroke: #000000; stroke-width: 0.8"/>
      </g>
     </g>
     <g id="text_16">
      <!-- 0.05 -->
      <g transform="translate(78.734375 92.919538) scale(0.1 -0.1)">
       <defs>
        <path id="DejaVuSans-35" d="M 691 4666 
L 3169 4666 
L 3169 4134 
L 1269 4134 
L 1269 2991 
Q 1406 3038 1543 3061 
Q 1681 3084 1819 3084 
Q 2600 3084 3056 2656 
Q 3513 2228 3513 1497 
Q 3513 744 3044 326 
Q 2575 -91 1722 -91 
Q 1428 -91 1123 -41 
Q 819 9 494 109 
L 494 744 
Q 775 591 1075 516 
Q 1375 441 1709 441 
Q 2250 441 2565 725 
Q 2881 1009 2881 1497 
Q 2881 1984 2565 2268 
Q 2250 2553 1709 2553 
Q 1456 2553 1204 2497 
Q 953 2441 691 2322 
L 691 4666 
z
" transform="scale(0.015625)"/>
       </defs>
       <use xlink:href="#DejaVuSans-30"/>
       <use xlink:href="#DejaVuSans-2e" transform="translate(63.623047 0)"/>
       <use xlink:href="#DejaVuSans-30" transform="translate(95.410156 0)"/>
       <use xlink:href="#DejaVuSans-35" transform="translate(159.033203 0)"/>
      </g>
     </g>
    </g>
    <g id="text_17">
     <!-- Volatility -->
     <g transform="translate(72.654687 239.752187) rotate(-90) scale(0.1 -0.1)">
      <defs>
       <path id="DejaVuSans-56" d="M 1831 0 
L 50 4666 
L 709 4666 
L 2188 738 
L 3669 4666 
L 4325 4666 
L 2547 0 
L 1831 0 
z
" transform="scale(0.015625)"/>
       <path id="DejaVuSans-6f" d="M 1959 3097 
Q 1497 3097 1228 2736 
Q 959 2375 959 1747 
Q 959 1119 1226 758 
Q 1494 397 1959 397 
Q 2419 397 2687 759 
Q 2956 1122 2956 1747 
Q 2956 2369 2687 2733 
Q 2419 3097 1959 3097 
z
M 1959 3584 
Q 2709 3584 3137 3096 
Q 3566 2609 3566 1747 
Q 3566 888 3137 398 
Q 2709 -91 1959 -91 
Q 1206 -91 779 398 
Q 353 888 353 1747 
Q 353 2609 779 3096 
Q 1206 3584 1959 3584 
z
" transform="scale(0.015625)"/>
       <path id="DejaVuSans-6c" d="M 603 4863 
L 1178 4863 
L 1178 0 
L 603 0 
L 603 4863 
z
" transform="scale(0.015625)"/>
       <path id="DejaVuSans-69" d="M 603 3500 
L 1178 3500 
L 1178 0 
L 603 0 
L 603 3500 
z
M 603 4863 
L 1178 4863 
L 1178 4134 
L 603 4134 
L 603 4863 
z
" transform="scale(0.015625)"/>
       <path id="DejaVuSans-79" d="M 2059 -325 
Q 1816 -950 1584 -1140 
Q 1353 -1331 966 -1331 
L 506 -1331 
L 506 -850 
L 844 -850 
Q 1081 -850 1212 -737 
Q 1344 -625 1503 -206 
L 1606 56 
L 191 3500 
L 800 3500 
L 1894 763 
L 2988 3500 
L 3597 3500 
L 2059 -325 
z
" transform="scale(0.015625)"/>
      </defs>
      <use xlink:href="#DejaVuSans-56"/>
      <use xlink:href="#DejaVuSans-6f" transform="translate(60.658203 0)"/>
      <use xlink:href="#DejaVuSans-6c" transform="translate(121.839844 0)"/>
      <use xlink:href="#DejaVuSans-61" transform="translate(149.623047 0)"/>
      <use xlink:href="#DejaVuSans-74" transform="translate(210.902344 0)"/>
      <use xlink:href="#DejaVuSans-69" transform="translate(250.111328 0)"/>
      <use xlink:href="#DejaVuSans-6c" transform="translate(277.894531 0)"/>
      <use xlink:href="#DejaVuSans-69" transform="translate(305.677734 0)"/>
      <use xlink:href="#DejaVuSans-74" transform="translate(333.460938 0)"/>
      <use xlink:href="#DejaVuSans-79" transform="translate(372.669922 0)"/>
     </g>
    </g>
   </g>
   <g id="line2d_16">
    <path d="M 138.436364 354.709609 
L 140.944855 333.829337 
L 141.781019 365.921777 
L 142.617183 259.656526 
L 143.453347 364.046898 
L 144.28951 346.698801 
L 146.798002 361.367799 
L 147.634166 318.329954 
L 148.47033 353.677064 
L 149.306494 289.019838 
L 150.142657 364.857608 
L 153.487313 265.398602 
L 154.323477 314.862228 
L 155.15964 307.226222 
L 155.995804 262.388326 
L 158.504296 353.934295 
L 159.34046 300.790635 
L 160.176623 361.055675 
L 161.012787 339.184785 
L 161.848951 234.579591 
L 164.357443 264.553529 
L 165.193606 331.106045 
L 166.02977 316.871533 
L 166.865934 231.005213 
L 167.702098 340.614156 
L 170.210589 348.660283 
L 171.046753 322.547173 
L 171.882917 288.645148 
L 172.719081 266.953176 
L 173.555245 262.07611 
L 176.063736 347.878719 
L 176.8999 281.744135 
L 177.736064 364.51453 
L 178.572228 249.467819 
L 179.408392 329.130144 
L 182.753047 312.294761 
L 183.589211 265.260421 
L 184.425375 286.216063 
L 185.261538 245.399771 
L 187.77003 355.741419 
L 188.606194 282.020357 
L 189.442358 265.892369 
L 190.278521 339.914285 
L 191.114685 324.792235 
L 193.623177 201.46314 
L 194.459341 328.74856 
L 195.295504 227.192035 
L 196.131668 345.338506 
L 196.967832 296.307155 
L 199.476324 327.6909 
L 200.312488 250.689408 
L 201.148651 245.338938 
L 201.984815 300.647114 
L 202.820979 304.444928 
L 205.329471 367.015587 
L 206.165634 306.430319 
L 207.001798 300.218461 
L 207.837962 289.602913 
L 208.674126 341.120498 
L 211.182617 329.536266 
L 212.018781 301.152514 
L 212.854945 334.054945 
L 213.691109 281.00064 
L 214.527273 350.365652 
L 217.035764 324.272577 
L 217.871928 298.634532 
L 218.708092 314.707264 
L 219.544256 345.656312 
L 220.38042 354.569899 
L 222.888911 274.02031 
L 223.725075 350.259779 
L 224.561239 307.148587 
L 225.397403 300.948254 
L 228.742058 368.304315 
L 229.578222 280.138693 
L 230.414386 365.984364 
L 232.086713 211.72618 
L 234.595205 337.597402 
L 235.431369 209.383042 
L 236.267532 357.702308 
L 237.103696 232.394759 
L 237.93986 162.23584 
L 240.448352 337.723889 
L 241.284515 342.398336 
L 242.120679 204.476053 
L 242.956843 165.927695 
L 243.793007 337.548999 
L 246.301499 186.891931 
L 247.137662 355.689463 
L 247.973826 276.381309 
L 248.80999 362.182394 
L 249.646154 237.196196 
L 252.154645 347.28315 
L 252.990809 257.494201 
L 253.826973 138.269275 
L 254.663137 336.649266 
L 255.499301 368.633704 
L 258.007792 266.374723 
L 258.843956 323.736696 
L 259.68012 316.714699 
L 260.516284 259.068317 
L 261.352448 232.42014 
L 264.697103 334.164056 
L 265.533267 327.342034 
L 266.369431 267.057516 
L 267.205594 277.041877 
L 269.714086 351.890183 
L 270.55025 316.311324 
L 271.386414 308.606086 
L 272.222577 234.408675 
L 273.058741 203.818881 
L 275.567233 147.766345 
L 276.403397 348.255318 
L 277.23956 288.229134 
L 278.075724 184.140698 
L 278.911888 357.127072 
L 282.256543 233.870345 
L 283.092707 362.150905 
L 283.928871 316.262298 
L 284.765035 200.661704 
L 287.273526 352.759217 
L 288.10969 255.36501 
L 288.945854 365.461228 
L 289.782018 320.126451 
L 290.618182 310.591521 
L 293.962837 360.578443 
L 294.799001 349.455243 
L 295.635165 286.173415 
L 296.471329 364.796126 
L 298.97982 304.447088 
L 299.815984 317.384765 
L 300.652148 344.408919 
L 301.488312 352.615562 
L 302.324476 262.818833 
L 304.832967 322.364227 
L 305.669131 216.652054 
L 306.505295 336.494314 
L 307.341459 314.434507 
L 308.177622 316.883406 
L 310.686114 362.08422 
L 311.522278 304.357786 
L 312.358442 224.688898 
L 313.194605 301.83504 
L 314.030769 290.355637 
L 316.539261 353.60269 
L 317.375425 331.974236 
L 318.211588 282.452009 
L 319.047752 365.093057 
L 319.883916 360.330641 
L 322.392408 362.510351 
L 323.228571 345.581278 
L 324.064735 251.336798 
L 324.900899 365.496331 
L 325.737063 273.164081 
L 328.245554 347.241306 
L 329.081718 358.946563 
L 329.917882 328.725614 
L 330.754046 356.742821 
L 331.59021 296.656721 
L 334.098701 248.167773 
L 334.934865 356.892145 
L 335.771029 353.126997 
L 336.607193 290.997777 
L 337.443357 177.320986 
L 339.951848 331.95197 
L 340.788012 307.27852 
L 341.624176 325.453514 
L 342.46034 352.67933 
L 343.296503 308.931709 
L 346.641159 346.446301 
L 347.477323 267.552919 
L 348.313487 332.511013 
L 349.14965 284.478479 
L 351.658142 310.422472 
L 352.494306 121.64349 
L 353.33047 350.49529 
L 354.166633 305.636603 
L 355.002797 329.040038 
L 357.511289 331.138893 
L 358.347453 305.895318 
L 359.183616 272.655988 
L 360.01978 322.002351 
L 360.855944 271.993552 
L 363.364436 311.175373 
L 364.200599 357.552309 
L 365.036763 260.229005 
L 365.872927 249.735412 
L 366.709091 284.336387 
L 369.217582 226.177384 
L 370.053746 200.550666 
L 370.88991 358.127686 
L 371.726074 311.716172 
L 372.562238 210.20615 
L 375.070729 327.287268 
L 375.906893 332.782635 
L 376.743057 350.972338 
L 377.579221 225.730587 
L 378.415385 235.189886 
L 380.923876 222.920168 
L 381.76004 305.745983 
L 382.596204 331.919509 
L 383.432368 324.696861 
L 384.268531 237.989517 
L 386.777023 303.227567 
L 387.613187 278.985393 
L 388.449351 327.878938 
L 389.285514 335.245742 
L 390.121678 233.054022 
L 392.63017 327.5022 
L 393.466334 346.411565 
L 394.302498 227.493369 
L 395.138661 309.78474 
L 395.974825 293.612912 
L 398.483317 315.808237 
L 399.319481 338.155062 
L 400.155644 251.731392 
L 400.991808 66.96 
L 401.827972 317.881315 
L 404.336464 319.128101 
L 405.172627 320.813188 
L 406.008791 322.994645 
L 406.844955 352.105593 
L 407.681119 342.83665 
L 410.18961 347.636086 
L 411.025774 293.827008 
L 411.861938 336.389165 
L 413.534266 367.86589 
L 416.042757 282.18714 
L 416.878921 360.520988 
L 417.715085 198.569859 
L 418.551249 364.586478 
L 419.387413 362.751026 
L 421.895904 268.217848 
L 422.732068 288.134837 
L 423.568232 359.001633 
L 424.404396 327.438818 
L 425.240559 328.094375 
L 427.749051 289.960148 
L 428.585215 328.730732 
L 429.421379 335.414449 
L 430.257542 227.955186 
L 431.093706 306.657167 
L 433.602198 318.722192 
L 434.438362 363.64008 
L 435.274525 286.707004 
L 436.110689 287.836255 
L 436.946853 336.648751 
L 440.291508 346.702079 
L 441.127672 301.649186 
L 441.963836 272.398392 
L 442.8 355.189905 
L 446.144655 346.978385 
L 446.980819 327.343153 
L 447.816983 303.777397 
L 448.653147 242.833259 
L 451.161638 365.147538 
L 452.833966 297.869703 
L 453.67013 350.333907 
L 454.506294 347.088667 
L 457.850949 358.057243 
L 458.687113 281.51281 
L 459.523277 326.463081 
L 460.359441 264.374977 
L 462.867932 303.231017 
L 463.704096 365.462494 
L 464.54026 368.434066 
L 465.376424 308.073121 
L 466.212587 355.482663 
L 468.721079 296.266115 
L 469.557243 287.952985 
L 470.393407 311.154694 
L 471.22957 287.6386 
L 472.065734 311.095651 
L 474.574226 334.919468 
L 475.41039 297.74193 
L 476.246553 306.980546 
L 477.082717 319.72753 
L 477.918881 357.158417 
L 480.427373 305.629416 
L 481.263536 367.880724 
L 482.0997 353.926356 
L 482.935864 291.606377 
L 483.772028 353.915691 
L 487.116683 255.947542 
L 487.952847 360.623636 
L 488.789011 339.652013 
L 489.625175 310.059058 
L 492.133666 352.25013 
L 492.96983 352.405333 
L 493.805994 342.89735 
L 494.642158 327.102671 
L 495.478322 279.641453 
L 497.986813 365.601713 
L 498.822977 282.854969 
L 499.659141 361.52639 
L 500.495305 264.99072 
L 501.331469 287.685747 
L 503.83996 360.981919 
L 504.676124 277.826969 
L 505.512288 330.176409 
L 506.348452 271.843569 
L 507.184615 307.32789 
L 509.693107 319.672265 
L 511.365435 276.381259 
L 512.201598 352.744755 
L 513.037762 337.921464 
L 515.546254 360.226802 
L 516.382418 360.622121 
L 517.218581 290.192417 
L 518.054745 337.500762 
L 518.890909 289.091009 
L 521.399401 348.75317 
L 522.235564 336.85682 
L 523.071728 355.461772 
L 523.907892 349.421801 
L 527.252547 363.869833 
L 528.088711 369.221095 
L 528.924875 346.22225 
L 529.761039 295.582604 
L 530.597203 357.838742 
L 533.105694 350.947133 
L 533.941858 364.66017 
L 534.778022 368.980605 
L 535.614186 335.979421 
L 536.45035 364.391446 
L 538.958841 364.680604 
L 539.795005 280.098845 
L 540.631169 347.875367 
L 541.467333 260.811833 
L 542.303497 323.37008 
L 544.811988 367.287823 
L 545.648152 304.113678 
L 546.484316 330.078005 
L 547.32048 328.833368 
L 548.156643 266.816742 
L 550.665135 366.918723 
L 551.501299 343.718846 
L 552.337463 344.369226 
L 553.173626 359.932619 
L 554.00979 360.569019 
L 556.518282 352.892142 
L 557.354446 333.581052 
L 558.190609 303.178559 
L 559.026773 316.746427 
L 559.862937 361.340742 
L 562.371429 368.5839 
L 563.207592 306.179335 
L 564.043756 328.269226 
L 564.87992 320.566009 
L 565.716084 296.76458 
L 569.060739 369.36 
L 569.896903 335.099129 
L 570.733067 314.473049 
L 571.569231 288.550076 
L 574.077722 358.208368 
L 574.913886 356.271026 
L 575.75005 348.039565 
L 576.586214 334.862341 
L 577.422378 363.019958 
L 579.930869 317.43467 
L 580.767033 330.719072 
L 581.603197 364.860801 
L 582.439361 301.586852 
L 583.275524 348.829669 
L 586.62018 342.841994 
L 587.456344 339.967071 
L 588.292507 348.686391 
L 589.128671 326.347554 
L 591.637163 344.240238 
L 592.473327 305.589058 
L 593.309491 367.467509 
L 594.145654 344.42747 
L 594.981818 301.08347 
L 597.49031 362.893385 
L 599.162637 358.406523 
L 599.998801 324.857356 
L 600.834965 353.366432 
L 603.343457 355.985081 
L 604.17962 331.778644 
L 605.015784 328.054037 
L 605.851948 322.163925 
L 606.688112 363.706636 
L 609.196603 347.87884 
L 610.032767 329.690213 
L 610.868931 356.24867 
L 611.705095 331.440901 
L 612.541259 367.636297 
L 615.04975 346.880439 
L 615.885914 353.694228 
L 616.722078 368.581448 
L 617.558242 333.316016 
L 618.394406 314.343169 
L 620.902897 361.224507 
L 621.739061 354.490859 
L 622.575225 291.317521 
L 623.411389 355.149215 
L 624.247552 339.658407 
L 626.756044 319.085076 
L 627.592208 345.752649 
L 628.428372 329.84981 
L 629.264535 368.047587 
L 630.100699 363.452417 
L 632.609191 337.304483 
L 633.445355 304.314224 
L 634.281518 326.931709 
L 635.117682 326.041805 
L 635.953846 368.619249 
L 638.462338 331.015953 
L 639.298501 353.859112 
L 640.134665 307.867657 
L 640.970829 293.486516 
L 641.806993 331.913696 
L 644.315485 334.439054 
L 645.151648 288.694447 
L 645.987812 348.002855 
L 646.823976 360.492503 
L 647.66014 359.375101 
L 651.004795 345.88835 
L 651.840959 330.228815 
L 652.677123 351.419555 
L 653.513287 361.460172 
L 656.021778 331.883042 
L 656.857942 337.426844 
L 657.694106 362.496019 
L 658.53027 322.387458 
L 659.366434 300.860391 
L 661.874925 365.410453 
L 662.711089 357.38008 
L 664.383417 276.736258 
L 665.21958 356.567686 
L 667.728072 346.942477 
L 668.564236 286.227018 
L 669.4004 368.167493 
L 670.236563 336.50908 
L 671.072727 354.240733 
L 673.581219 369.008129 
L 674.417383 291.860396 
L 675.253546 324.167845 
L 676.08971 362.136983 
L 676.925874 303.599241 
L 679.434366 334.220399 
L 680.270529 340.329523 
L 681.106693 345.435109 
L 681.942857 334.321659 
L 682.779021 341.243169 
L 685.287512 310.366524 
L 686.123676 368.902187 
L 686.95984 293.816991 
L 687.796004 321.68978 
L 688.632168 298.443995 
L 691.140659 359.994564 
L 691.976823 328.863463 
L 692.812987 288.473646 
L 693.649151 302.716642 
L 694.485315 342.474688 
L 696.993806 302.518161 
L 697.82997 333.267204 
L 698.666134 310.856759 
L 699.502298 264.704297 
L 700.338462 317.031562 
L 702.846953 359.633156 
L 703.683117 353.552062 
L 704.519281 363.821673 
L 706.191608 282.57373 
L 708.7001 364.764874 
L 709.536264 263.513226 
L 710.372428 360.506287 
L 711.208591 362.782774 
L 712.044755 362.269635 
L 714.553247 328.17063 
L 715.389411 358.110856 
L 716.225574 346.729786 
L 717.897902 366.107622 
L 720.406394 358.486134 
L 721.242557 363.960636 
L 722.078721 364.145327 
L 722.914885 348.277139 
L 723.751049 336.617325 
L 726.25954 339.04711 
L 727.095704 366.262704 
L 727.931868 347.509602 
L 728.768032 324.955221 
L 729.604196 346.538239 
L 732.112687 347.492621 
L 732.948851 343.725474 
L 733.785015 293.435674 
L 734.621179 354.631453 
L 735.457343 369.025372 
L 738.801998 336.658301 
L 739.638162 286.513004 
L 740.474326 311.991628 
L 741.31049 360.153259 
L 744.655145 345.777631 
L 745.491309 361.438795 
L 746.327473 367.378021 
L 747.163636 353.583571 
L 747.163636 353.583571 
" clip-path="url(#p9a52f0d554)" style="fill: none; stroke: #000000; stroke-width: 1.5; stroke-linecap: square"/>
   </g>
   <g id="line2d_17">
    <path d="M 138.436364 313.050558 
L 140.944855 315.213964 
L 141.781019 314.025325 
L 142.617183 319.76969 
L 143.453347 311.23147 
L 144.28951 319.045759 
L 146.798002 318.733945 
L 147.634166 321.534259 
L 148.47033 317.551014 
L 149.306494 319.768395 
L 150.142657 314.619182 
L 153.487313 321.619645 
L 154.323477 314.637852 
L 155.995804 312.1317 
L 158.504296 308.699082 
L 159.34046 315.132634 
L 160.176623 311.976191 
L 161.012787 318.649856 
L 161.848951 317.753268 
L 164.357443 308.229847 
L 165.193606 301.949925 
L 166.02977 303.324111 
L 166.865934 302.155073 
L 167.702098 293.216876 
L 170.210589 298.909862 
L 171.046753 303.385986 
L 171.882917 301.488234 
L 172.719081 296.393327 
L 173.555245 290.60967 
L 176.063736 284.801927 
L 176.8999 292.506138 
L 177.736064 286.947137 
L 178.572228 300.108167 
L 179.408392 289.466136 
L 182.753047 290.297727 
L 183.589211 289.902766 
L 184.425375 284.228472 
L 185.261538 282.246133 
L 187.77003 275.752164 
L 188.606194 287.105774 
L 190.278521 279.318809 
L 191.114685 285.950814 
L 193.623177 287.005006 
L 194.459341 276.847345 
L 195.295504 280.844924 
L 196.131668 268.193911 
L 196.967832 277.241471 
L 199.476324 274.186371 
L 200.312488 277.847612 
L 201.984815 265.806951 
L 202.820979 267.309904 
L 205.329471 268.257586 
L 206.165634 287.709193 
L 207.001798 281.806162 
L 207.837962 277.323877 
L 208.674126 274.123212 
L 211.182617 280.499957 
L 212.018781 283.651475 
L 212.854945 281.053054 
L 213.691109 284.713443 
L 214.527273 281.122565 
L 217.871928 292.573176 
L 218.708092 291.047185 
L 219.544256 294.932429 
L 220.38042 301.414108 
L 222.888911 307.632662 
L 223.725075 300.829547 
L 224.561239 307.296734 
L 225.397403 307.453204 
L 228.742058 306.355741 
L 229.578222 316.492074 
L 230.414386 310.00038 
L 231.250549 317.787609 
L 232.086713 312.106178 
L 234.595205 301.624829 
L 235.431369 303.752947 
L 236.267532 292.544481 
L 237.103696 300.655001 
L 237.93986 288.754845 
L 240.448352 272.676028 
L 241.284515 276.829252 
L 242.120679 280.395057 
L 243.793007 251.062133 
L 246.301499 258.478229 
L 247.137662 244.061568 
L 247.973826 259.158663 
L 248.80999 250.509782 
L 249.646154 265.805173 
L 252.154645 250.589587 
L 252.990809 257.720545 
L 253.826973 246.626641 
L 254.663137 230.153241 
L 255.499301 239.480174 
L 258.007792 259.632717 
L 258.843956 246.125557 
L 259.68012 245.911035 
L 260.516284 246.780762 
L 261.352448 239.665542 
L 264.697103 234.244002 
L 265.533267 247.997737 
L 266.369431 252.99168 
L 267.205594 246.826086 
L 269.714086 246.641812 
L 270.55025 264.910643 
L 271.386414 265.343039 
L 272.222577 268.357474 
L 273.058741 261.07998 
L 275.567233 252.664812 
L 276.403397 239.884566 
L 277.23956 255.379879 
L 278.075724 251.218127 
L 278.911888 239.515569 
L 282.256543 261.888712 
L 283.092707 251.654022 
L 283.928871 268.546087 
L 284.765035 264.043405 
L 287.273526 248.700256 
L 288.10969 260.001865 
L 288.945854 249.816373 
L 289.782018 269.742233 
L 290.618182 264.254047 
L 293.962837 259.658446 
L 294.799001 272.14344 
L 295.635165 274.3279 
L 296.471329 264.075873 
L 298.97982 277.5379 
L 299.815984 268.229014 
L 300.652148 266.382446 
L 301.488312 274.187374 
L 302.324476 287.365614 
L 304.832967 280.755705 
L 305.669131 283.28785 
L 306.505295 278.313003 
L 307.341459 285.851425 
L 308.177622 289.437184 
L 310.686114 291.229463 
L 311.522278 302.506789 
L 312.358442 302.416965 
L 313.194605 294.078333 
L 314.030769 295.324143 
L 316.539261 293.836443 
L 317.375425 301.93042 
L 318.211588 302.086974 
L 319.047752 296.485349 
L 319.883916 306.605736 
L 322.392408 310.368816 
L 323.228571 312.915762 
L 324.064735 310.487178 
L 324.900899 299.887007 
L 325.737063 308.292829 
L 328.245554 298.514935 
L 329.081718 302.089312 
L 329.917882 307.357045 
L 330.754046 307.5082 
L 331.59021 312.452838 
L 334.098701 307.377279 
L 334.934865 299.919514 
L 335.771029 306.786231 
L 336.607193 309.695754 
L 337.443357 307.031152 
L 339.951848 294.776496 
L 340.788012 297.72877 
L 341.624176 295.884685 
L 342.46034 296.726379 
L 343.296503 303.226715 
L 346.641159 299.684007 
L 347.477323 302.648699 
L 348.313487 294.773934 
L 349.14965 295.922656 
L 352.494306 291.756763 
L 353.33047 273.518551 
L 354.166633 281.032393 
L 355.002797 276.416205 
L 357.511289 276.855424 
L 358.347453 277.976632 
L 359.183616 276.256236 
L 360.01978 270.766093 
L 360.855944 272.804981 
L 363.364436 268.007961 
L 364.200599 274.400298 
L 365.036763 288.223421 
L 366.709091 273.209086 
L 369.217582 270.859146 
L 370.053746 263.485683 
L 370.88991 254.209989 
L 371.726074 271.68042 
L 372.562238 268.580103 
L 375.070729 256.361644 
L 375.906893 260.883657 
L 376.743057 264.652591 
L 377.579221 279.492941 
L 378.415385 269.652684 
L 380.923876 262.638434 
L 381.76004 255.544261 
L 382.596204 258.383302 
L 383.432368 264.465474 
L 384.268531 267.243975 
L 386.777023 258.201372 
L 387.613187 259.44028 
L 388.449351 256.913837 
L 390.121678 267.165987 
L 392.63017 258.478016 
L 393.466334 263.843932 
L 394.302498 273.207062 
L 395.138661 265.389658 
L 395.974825 267.35506 
L 398.483317 266.22616 
L 399.319481 271.443124 
L 400.155644 278.250119 
L 400.991808 270.516288 
L 401.827972 247.329295 
L 404.336464 251.564242 
L 406.008791 259.852711 
L 406.844955 262.813445 
L 407.681119 271.920167 
L 410.18961 273.865721 
L 411.025774 278.261714 
L 411.861938 271.556216 
L 413.534266 274.780682 
L 416.042757 288.758341 
L 416.878921 279.34017 
L 417.715085 288.580515 
L 418.551249 270.945982 
L 419.387413 285.82097 
L 421.895904 292.575946 
L 422.732068 279.913815 
L 423.568232 273.120871 
L 424.404396 283.383376 
L 425.240559 281.579653 
L 427.749051 295.42982 
L 428.585215 297.883996 
L 429.421379 302.767185 
L 430.257542 306.258 
L 431.093706 297.809085 
L 433.602198 296.585556 
L 434.438362 296.810249 
L 435.274525 306.547376 
L 436.110689 299.746751 
L 436.946853 294.849719 
L 440.291508 297.123352 
L 441.127672 300.198989 
L 441.963836 296.459098 
L 442.8 290.632444 
L 446.144655 302.802417 
L 446.980819 306.521199 
L 447.816983 305.276852 
L 448.653147 303.364753 
L 451.161638 297.107816 
L 451.997802 308.488496 
L 452.833966 306.194578 
L 453.67013 301.362886 
L 454.506294 306.180068 
L 457.850949 308.122992 
L 458.687113 311.833084 
L 459.523277 307.191402 
L 460.359441 308.518895 
L 462.867932 303.608183 
L 463.704096 302.277875 
L 464.54026 313.101685 
L 465.376424 319.204383 
L 466.212587 313.184781 
L 468.721079 315.54109 
L 469.557243 310.416153 
L 470.393407 307.585869 
L 471.22957 306.926941 
L 472.065734 303.837775 
L 474.574226 303.466817 
L 475.41039 306.414232 
L 476.246553 306.6146 
L 477.082717 306.65905 
L 477.918881 307.512932 
L 480.427373 314.335805 
L 481.263536 310.69375 
L 482.0997 318.118542 
L 482.935864 317.797034 
L 483.772028 311.998284 
L 487.116683 315.347929 
L 487.952847 308.83908 
L 488.789011 316.025062 
L 489.625175 315.308352 
L 492.133666 311.641617 
L 492.96983 315.038548 
L 493.805994 316.59176 
L 494.642158 316.574705 
L 495.478322 315.821467 
L 497.986813 311.753077 
L 498.822977 320.313407 
L 499.659141 314.829359 
L 500.495305 319.938838 
L 501.331469 312.881366 
L 503.83996 309.25742 
L 504.676124 316.29352 
L 505.512288 309.759905 
L 506.348452 310.450017 
L 507.184615 305.146077 
L 509.693107 303.686396 
L 510.529271 304.721799 
L 511.365435 302.466847 
L 512.201598 298.855354 
L 513.037762 305.604029 
L 515.546254 306.537397 
L 516.382418 311.824186 
L 517.218581 314.450197 
L 518.054745 306.341915 
L 518.890909 306.072089 
L 521.399401 301.766879 
L 522.235564 305.923888 
L 523.071728 307.078444 
L 523.907892 311.091716 
L 527.252547 313.423557 
L 528.088711 319.027229 
L 528.924875 322.347473 
L 529.761039 320.562959 
L 530.597203 315.16148 
L 533.105694 320.08927 
L 533.941858 321.460607 
L 534.778022 325.946234 
L 535.614186 329.508687 
L 536.45035 328.600006 
L 538.958841 331.10139 
L 539.795005 332.128524 
L 540.631169 326.07454 
L 541.467333 326.728917 
L 542.303497 321.766007 
L 544.811988 321.721182 
L 545.648152 327.968655 
L 546.484316 323.993357 
L 548.156643 322.854135 
L 550.665135 317.67986 
L 551.501299 323.921026 
L 552.337463 322.337533 
L 553.173626 321.671518 
L 554.00979 324.536112 
L 556.518282 325.771687 
L 557.354446 325.019016 
L 558.190609 322.604533 
L 559.026773 318.73778 
L 559.862937 317.040786 
L 562.371429 321.925298 
L 563.207592 325.282411 
L 564.043756 319.306093 
L 564.87992 318.951836 
L 565.716084 317.923324 
L 569.060739 317.624181 
L 569.896903 325.393294 
L 571.569231 321.714112 
L 574.077722 318.688481 
L 574.913886 323.316471 
L 575.75005 326.620742 
L 576.586214 326.770666 
L 577.422378 325.679521 
L 579.930869 328.537725 
L 580.767033 325.016869 
L 581.603197 323.99059 
L 582.439361 327.686546 
L 583.275524 323.107237 
L 586.62018 325.045749 
L 587.456344 325.676021 
L 588.292507 325.544511 
L 589.128671 326.21565 
L 591.637163 325.184014 
L 592.473327 326.277783 
L 593.309491 324.113323 
L 594.145654 329.696458 
L 597.49031 325.273867 
L 599.998801 330.875529 
L 600.834965 328.615517 
L 603.343457 329.723938 
L 604.17962 330.519184 
L 605.015784 328.698498 
L 606.688112 327.316999 
L 609.196603 330.615641 
L 610.032767 330.71534 
L 610.868931 329.385807 
L 611.705095 330.919949 
L 612.541259 329.518575 
L 615.04975 332.373876 
L 615.885914 331.304841 
L 616.722078 331.570887 
L 617.558242 334.048298 
L 618.394406 331.660179 
L 620.902897 329.54586 
L 621.739061 332.710486 
L 622.575225 332.835358 
L 623.411389 328.694483 
L 624.247552 330.286889 
L 626.756044 329.842988 
L 627.592208 328.13009 
L 628.428372 328.939342 
L 629.264535 328.189938 
L 630.100699 331.964372 
L 632.609191 332.826838 
L 633.445355 330.630053 
L 634.281518 327.547343 
L 635.117682 327.284178 
L 635.953846 326.658551 
L 638.462338 330.827197 
L 639.298501 328.240271 
L 640.134665 329.124962 
L 641.806993 322.343285 
L 644.315485 322.860017 
L 645.151648 323.558096 
L 645.987812 320.060855 
L 646.823976 322.289966 
L 647.66014 326.149702 
L 651.004795 327.372837 
L 651.840959 326.22942 
L 652.677123 324.788002 
L 653.513287 326.068775 
L 656.021778 328.240886 
L 656.857942 325.738509 
L 657.694106 324.907217 
L 658.53027 327.805978 
L 659.366434 325.533713 
L 661.874925 322.836441 
L 662.711089 327.840664 
L 663.547253 328.135784 
L 664.383417 324.838022 
L 665.21958 319.884834 
L 668.564236 325.301356 
L 669.4004 319.782546 
L 670.236563 326.270604 
L 671.072727 324.33626 
L 673.581219 325.352573 
L 674.417383 328.124912 
L 675.253546 321.870409 
L 676.08971 320.382335 
L 676.925874 324.354224 
L 679.434366 319.685804 
L 680.270529 319.438343 
L 681.106693 319.913103 
L 681.942857 320.614896 
L 682.779021 319.926021 
L 685.287512 321.059378 
L 686.123676 318.581907 
L 686.95984 324.46421 
L 687.796004 318.955879 
L 688.632168 319.021544 
L 691.140659 316.706248 
L 691.976823 321.813097 
L 692.812987 321.055044 
L 693.649151 318.786104 
L 694.485315 317.24632 
L 696.993806 319.526244 
L 697.82997 316.716357 
L 698.666134 317.233344 
L 699.502298 316.201722 
L 700.338462 311.568612 
L 702.846953 311.472284 
L 703.683117 317.91848 
L 704.519281 319.548811 
L 705.355445 322.62743 
L 706.191608 318.398897 
L 708.7001 312.702126 
L 709.536264 319.11337 
L 710.372428 311.081083 
L 711.208591 315.963994 
L 712.044755 319.52339 
L 714.553247 321.28499 
L 715.389411 317.701653 
L 716.225574 319.927607 
L 717.897902 319.159473 
L 720.406394 323.530993 
L 721.242557 324.318554 
L 722.914885 327.161809 
L 723.751049 325.381453 
L 726.25954 324.055266 
L 727.095704 325.921017 
L 727.931868 330.36372 
L 728.768032 329.392151 
L 729.604196 327.343286 
L 732.112687 327.846783 
L 732.948851 328.441136 
L 733.785015 330.013742 
L 734.621179 326.789906 
L 735.457343 331.791061 
L 737.965834 334.522935 
L 738.801998 332.913702 
L 739.638162 331.766967 
L 740.474326 328.555654 
L 741.31049 327.36413 
L 744.655145 330.347749 
L 745.491309 329.687809 
L 747.163636 332.274164 
L 747.163636 332.274164 
" clip-path="url(#p9a52f0d554)" style="fill: none; stroke: #1f77b4; stroke-width: 1.5; stroke-linecap: square"/>
   </g>
   <g id="patch_3">
    <path d="M 108 384.48 
L 108 51.84 
" style="fill: none; stroke: #000000; stroke-width: 0.8; stroke-linejoin: miter; stroke-linecap: square"/>
   </g>
   <g id="patch_4">
    <path d="M 777.6 384.48 
L 777.6 51.84 
" style="fill: none; stroke: #000000; stroke-width: 0.8; stroke-linejoin: miter; stroke-linecap: square"/>
   </g>
   <g id="patch_5">
    <path d="M 108 384.48 
L 777.6 384.48 
" style="fill: none; stroke: #000000; stroke-width: 0.8; stroke-linejoin: miter; stroke-linecap: square"/>
   </g>
   <g id="patch_6">
    <path d="M 108 51.84 
L 777.6 51.84 
" style="fill: none; stroke: #000000; stroke-width: 0.8; stroke-linejoin: miter; stroke-linecap: square"/>
   </g>
   <g id="text_18">
    <!-- Volatility Prediction with Mini LSTM w RVOL -->
    <g transform="translate(313.797188 45.84) scale(0.12 -0.12)">
     <defs>
      <path id="DejaVuSans-20" transform="scale(0.015625)"/>
      <path id="DejaVuSans-50" d="M 1259 4147 
L 1259 2394 
L 2053 2394 
Q 2494 2394 2734 2622 
Q 2975 2850 2975 3272 
Q 2975 3691 2734 3919 
Q 2494 4147 2053 4147 
L 1259 4147 
z
M 628 4666 
L 2053 4666 
Q 2838 4666 3239 4311 
Q 3641 3956 3641 3272 
Q 3641 2581 3239 2228 
Q 2838 1875 2053 1875 
L 1259 1875 
L 1259 0 
L 628 0 
L 628 4666 
z
" transform="scale(0.015625)"/>
      <path id="DejaVuSans-72" d="M 2631 2963 
Q 2534 3019 2420 3045 
Q 2306 3072 2169 3072 
Q 1681 3072 1420 2755 
Q 1159 2438 1159 1844 
L 1159 0 
L 581 0 
L 581 3500 
L 1159 3500 
L 1159 2956 
Q 1341 3275 1631 3429 
Q 1922 3584 2338 3584 
Q 2397 3584 2469 3576 
Q 2541 3569 2628 3553 
L 2631 2963 
z
" transform="scale(0.015625)"/>
      <path id="DejaVuSans-64" d="M 2906 2969 
L 2906 4863 
L 3481 4863 
L 3481 0 
L 2906 0 
L 2906 525 
Q 2725 213 2448 61 
Q 2172 -91 1784 -91 
Q 1150 -91 751 415 
Q 353 922 353 1747 
Q 353 2572 751 3078 
Q 1150 3584 1784 3584 
Q 2172 3584 2448 3432 
Q 2725 3281 2906 2969 
z
M 947 1747 
Q 947 1113 1208 752 
Q 1469 391 1925 391 
Q 2381 391 2643 752 
Q 2906 1113 2906 1747 
Q 2906 2381 2643 2742 
Q 2381 3103 1925 3103 
Q 1469 3103 1208 2742 
Q 947 2381 947 1747 
z
" transform="scale(0.015625)"/>
      <path id="DejaVuSans-63" d="M 3122 3366 
L 3122 2828 
Q 2878 2963 2633 3030 
Q 2388 3097 2138 3097 
Q 1578 3097 1268 2742 
Q 959 2388 959 1747 
Q 959 1106 1268 751 
Q 1578 397 2138 397 
Q 2388 397 2633 464 
Q 2878 531 3122 666 
L 3122 134 
Q 2881 22 2623 -34 
Q 2366 -91 2075 -91 
Q 1284 -91 818 406 
Q 353 903 353 1747 
Q 353 2603 823 3093 
Q 1294 3584 2113 3584 
Q 2378 3584 2631 3529 
Q 2884 3475 3122 3366 
z
" transform="scale(0.015625)"/>
      <path id="DejaVuSans-6e" d="M 3513 2113 
L 3513 0 
L 2938 0 
L 2938 2094 
Q 2938 2591 2744 2837 
Q 2550 3084 2163 3084 
Q 1697 3084 1428 2787 
Q 1159 2491 1159 1978 
L 1159 0 
L 581 0 
L 581 3500 
L 1159 3500 
L 1159 2956 
Q 1366 3272 1645 3428 
Q 1925 3584 2291 3584 
Q 2894 3584 3203 3211 
Q 3513 2838 3513 2113 
z
" transform="scale(0.015625)"/>
      <path id="DejaVuSans-77" d="M 269 3500 
L 844 3500 
L 1563 769 
L 2278 3500 
L 2956 3500 
L 3675 769 
L 4391 3500 
L 4966 3500 
L 4050 0 
L 3372 0 
L 2619 2869 
L 1863 0 
L 1184 0 
L 269 3500 
z
" transform="scale(0.015625)"/>
      <path id="DejaVuSans-68" d="M 3513 2113 
L 3513 0 
L 2938 0 
L 2938 2094 
Q 2938 2591 2744 2837 
Q 2550 3084 2163 3084 
Q 1697 3084 1428 2787 
Q 1159 2491 1159 1978 
L 1159 0 
L 581 0 
L 581 4863 
L 1159 4863 
L 1159 2956 
Q 1366 3272 1645 3428 
Q 1925 3584 2291 3584 
Q 2894 3584 3203 3211 
Q 3513 2838 3513 2113 
z
" transform="scale(0.015625)"/>
      <path id="DejaVuSans-4d" d="M 628 4666 
L 1569 4666 
L 2759 1491 
L 3956 4666 
L 4897 4666 
L 4897 0 
L 4281 0 
L 4281 4097 
L 3078 897 
L 2444 897 
L 1241 4097 
L 1241 0 
L 628 0 
L 628 4666 
z
" transform="scale(0.015625)"/>
      <path id="DejaVuSans-4c" d="M 628 4666 
L 1259 4666 
L 1259 531 
L 3531 531 
L 3531 0 
L 628 0 
L 628 4666 
z
" transform="scale(0.015625)"/>
      <path id="DejaVuSans-53" d="M 3425 4513 
L 3425 3897 
Q 3066 4069 2747 4153 
Q 2428 4238 2131 4238 
Q 1616 4238 1336 4038 
Q 1056 3838 1056 3469 
Q 1056 3159 1242 3001 
Q 1428 2844 1947 2747 
L 2328 2669 
Q 3034 2534 3370 2195 
Q 3706 1856 3706 1288 
Q 3706 609 3251 259 
Q 2797 -91 1919 -91 
Q 1588 -91 1214 -16 
Q 841 59 441 206 
L 441 856 
Q 825 641 1194 531 
Q 1563 422 1919 422 
Q 2459 422 2753 634 
Q 3047 847 3047 1241 
Q 3047 1584 2836 1778 
Q 2625 1972 2144 2069 
L 1759 2144 
Q 1053 2284 737 2584 
Q 422 2884 422 3419 
Q 422 4038 858 4394 
Q 1294 4750 2059 4750 
Q 2388 4750 2728 4690 
Q 3069 4631 3425 4513 
z
" transform="scale(0.015625)"/>
      <path id="DejaVuSans-54" d="M -19 4666 
L 3928 4666 
L 3928 4134 
L 2272 4134 
L 2272 0 
L 1638 0 
L 1638 4134 
L -19 4134 
L -19 4666 
z
" transform="scale(0.015625)"/>
      <path id="DejaVuSans-52" d="M 2841 2188 
Q 3044 2119 3236 1894 
Q 3428 1669 3622 1275 
L 4263 0 
L 3584 0 
L 2988 1197 
Q 2756 1666 2539 1819 
Q 2322 1972 1947 1972 
L 1259 1972 
L 1259 0 
L 628 0 
L 628 4666 
L 2053 4666 
Q 2853 4666 3247 4331 
Q 3641 3997 3641 3322 
Q 3641 2881 3436 2590 
Q 3231 2300 2841 2188 
z
M 1259 4147 
L 1259 2491 
L 2053 2491 
Q 2509 2491 2742 2702 
Q 2975 2913 2975 3322 
Q 2975 3731 2742 3939 
Q 2509 4147 2053 4147 
L 1259 4147 
z
" transform="scale(0.015625)"/>
      <path id="DejaVuSans-4f" d="M 2522 4238 
Q 1834 4238 1429 3725 
Q 1025 3213 1025 2328 
Q 1025 1447 1429 934 
Q 1834 422 2522 422 
Q 3209 422 3611 934 
Q 4013 1447 4013 2328 
Q 4013 3213 3611 3725 
Q 3209 4238 2522 4238 
z
M 2522 4750 
Q 3503 4750 4090 4092 
Q 4678 3434 4678 2328 
Q 4678 1225 4090 567 
Q 3503 -91 2522 -91 
Q 1538 -91 948 565 
Q 359 1222 359 2328 
Q 359 3434 948 4092 
Q 1538 4750 2522 4750 
z
" transform="scale(0.015625)"/>
     </defs>
     <use xlink:href="#DejaVuSans-56"/>
     <use xlink:href="#DejaVuSans-6f" transform="translate(60.658203 0)"/>
     <use xlink:href="#DejaVuSans-6c" transform="translate(121.839844 0)"/>
     <use xlink:href="#DejaVuSans-61" transform="translate(149.623047 0)"/>
     <use xlink:href="#DejaVuSans-74" transform="translate(210.902344 0)"/>
     <use xlink:href="#DejaVuSans-69" transform="translate(250.111328 0)"/>
     <use xlink:href="#DejaVuSans-6c" transform="translate(277.894531 0)"/>
     <use xlink:href="#DejaVuSans-69" transform="translate(305.677734 0)"/>
     <use xlink:href="#DejaVuSans-74" transform="translate(333.460938 0)"/>
     <use xlink:href="#DejaVuSans-79" transform="translate(372.669922 0)"/>
     <use xlink:href="#DejaVuSans-20" transform="translate(431.849609 0)"/>
     <use xlink:href="#DejaVuSans-50" transform="translate(463.636719 0)"/>
     <use xlink:href="#DejaVuSans-72" transform="translate(522.189453 0)"/>
     <use xlink:href="#DejaVuSans-65" transform="translate(561.052734 0)"/>
     <use xlink:href="#DejaVuSans-64" transform="translate(622.576172 0)"/>
     <use xlink:href="#DejaVuSans-69" transform="translate(686.052734 0)"/>
     <use xlink:href="#DejaVuSans-63" transform="translate(713.835938 0)"/>
     <use xlink:href="#DejaVuSans-74" transform="translate(768.816406 0)"/>
     <use xlink:href="#DejaVuSans-69" transform="translate(808.025391 0)"/>
     <use xlink:href="#DejaVuSans-6f" transform="translate(835.808594 0)"/>
     <use xlink:href="#DejaVuSans-6e" transform="translate(896.990234 0)"/>
     <use xlink:href="#DejaVuSans-20" transform="translate(960.369141 0)"/>
     <use xlink:href="#DejaVuSans-77" transform="translate(992.15625 0)"/>
     <use xlink:href="#DejaVuSans-69" transform="translate(1073.943359 0)"/>
     <use xlink:href="#DejaVuSans-74" transform="translate(1101.726562 0)"/>
     <use xlink:href="#DejaVuSans-68" transform="translate(1140.935547 0)"/>
     <use xlink:href="#DejaVuSans-20" transform="translate(1204.314453 0)"/>
     <use xlink:href="#DejaVuSans-4d" transform="translate(1236.101562 0)"/>
     <use xlink:href="#DejaVuSans-69" transform="translate(1322.380859 0)"/>
     <use xlink:href="#DejaVuSans-6e" transform="translate(1350.164062 0)"/>
     <use xlink:href="#DejaVuSans-69" transform="translate(1413.542969 0)"/>
     <use xlink:href="#DejaVuSans-20" transform="translate(1441.326172 0)"/>
     <use xlink:href="#DejaVuSans-4c" transform="translate(1473.113281 0)"/>
     <use xlink:href="#DejaVuSans-53" transform="translate(1528.826172 0)"/>
     <use xlink:href="#DejaVuSans-54" transform="translate(1592.302734 0)"/>
     <use xlink:href="#DejaVuSans-4d" transform="translate(1653.386719 0)"/>
     <use xlink:href="#DejaVuSans-20" transform="translate(1739.666016 0)"/>
     <use xlink:href="#DejaVuSans-77" transform="translate(1771.453125 0)"/>
     <use xlink:href="#DejaVuSans-20" transform="translate(1853.240234 0)"/>
     <use xlink:href="#DejaVuSans-52" transform="translate(1885.027344 0)"/>
     <use xlink:href="#DejaVuSans-56" transform="translate(1949.009766 0)"/>
     <use xlink:href="#DejaVuSans-4f" transform="translate(2015.667969 0)"/>
     <use xlink:href="#DejaVuSans-4c" transform="translate(2094.378906 0)"/>
    </g>
   </g>
   <g id="legend_1">
    <g id="patch_7">
     <path d="M 547.9875 89.19625 
L 770.6 89.19625 
Q 772.6 89.19625 772.6 87.19625 
L 772.6 58.84 
Q 772.6 56.84 770.6 56.84 
L 547.9875 56.84 
Q 545.9875 56.84 545.9875 58.84 
L 545.9875 87.19625 
Q 545.9875 89.19625 547.9875 89.19625 
z
" style="fill: #ffffff; opacity: 0.8; stroke: #cccccc; stroke-linejoin: miter"/>
    </g>
    <g id="line2d_18">
     <path d="M 549.9875 64.938437 
L 559.9875 64.938437 
L 569.9875 64.938437 
" style="fill: none; stroke: #000000; stroke-width: 1.5; stroke-linecap: square"/>
    </g>
    <g id="text_19">
     <!-- Absolute Returns -->
     <g transform="translate(577.9875 68.438437) scale(0.1 -0.1)">
      <defs>
       <path id="DejaVuSans-41" d="M 2188 4044 
L 1331 1722 
L 3047 1722 
L 2188 4044 
z
M 1831 4666 
L 2547 4666 
L 4325 0 
L 3669 0 
L 3244 1197 
L 1141 1197 
L 716 0 
L 50 0 
L 1831 4666 
z
" transform="scale(0.015625)"/>
       <path id="DejaVuSans-62" d="M 3116 1747 
Q 3116 2381 2855 2742 
Q 2594 3103 2138 3103 
Q 1681 3103 1420 2742 
Q 1159 2381 1159 1747 
Q 1159 1113 1420 752 
Q 1681 391 2138 391 
Q 2594 391 2855 752 
Q 3116 1113 3116 1747 
z
M 1159 2969 
Q 1341 3281 1617 3432 
Q 1894 3584 2278 3584 
Q 2916 3584 3314 3078 
Q 3713 2572 3713 1747 
Q 3713 922 3314 415 
Q 2916 -91 2278 -91 
Q 1894 -91 1617 61 
Q 1341 213 1159 525 
L 1159 0 
L 581 0 
L 581 4863 
L 1159 4863 
L 1159 2969 
z
" transform="scale(0.015625)"/>
       <path id="DejaVuSans-73" d="M 2834 3397 
L 2834 2853 
Q 2591 2978 2328 3040 
Q 2066 3103 1784 3103 
Q 1356 3103 1142 2972 
Q 928 2841 928 2578 
Q 928 2378 1081 2264 
Q 1234 2150 1697 2047 
L 1894 2003 
Q 2506 1872 2764 1633 
Q 3022 1394 3022 966 
Q 3022 478 2636 193 
Q 2250 -91 1575 -91 
Q 1294 -91 989 -36 
Q 684 19 347 128 
L 347 722 
Q 666 556 975 473 
Q 1284 391 1588 391 
Q 1994 391 2212 530 
Q 2431 669 2431 922 
Q 2431 1156 2273 1281 
Q 2116 1406 1581 1522 
L 1381 1569 
Q 847 1681 609 1914 
Q 372 2147 372 2553 
Q 372 3047 722 3315 
Q 1072 3584 1716 3584 
Q 2034 3584 2315 3537 
Q 2597 3491 2834 3397 
z
" transform="scale(0.015625)"/>
       <path id="DejaVuSans-75" d="M 544 1381 
L 544 3500 
L 1119 3500 
L 1119 1403 
Q 1119 906 1312 657 
Q 1506 409 1894 409 
Q 2359 409 2629 706 
Q 2900 1003 2900 1516 
L 2900 3500 
L 3475 3500 
L 3475 0 
L 2900 0 
L 2900 538 
Q 2691 219 2414 64 
Q 2138 -91 1772 -91 
Q 1169 -91 856 284 
Q 544 659 544 1381 
z
M 1991 3584 
L 1991 3584 
z
" transform="scale(0.015625)"/>
      </defs>
      <use xlink:href="#DejaVuSans-41"/>
      <use xlink:href="#DejaVuSans-62" transform="translate(68.408203 0)"/>
      <use xlink:href="#DejaVuSans-73" transform="translate(131.884766 0)"/>
      <use xlink:href="#DejaVuSans-6f" transform="translate(183.984375 0)"/>
      <use xlink:href="#DejaVuSans-6c" transform="translate(245.166016 0)"/>
      <use xlink:href="#DejaVuSans-75" transform="translate(272.949219 0)"/>
      <use xlink:href="#DejaVuSans-74" transform="translate(336.328125 0)"/>
      <use xlink:href="#DejaVuSans-65" transform="translate(375.537109 0)"/>
      <use xlink:href="#DejaVuSans-20" transform="translate(437.060547 0)"/>
      <use xlink:href="#DejaVuSans-52" transform="translate(468.847656 0)"/>
      <use xlink:href="#DejaVuSans-65" transform="translate(533.830078 0)"/>
      <use xlink:href="#DejaVuSans-74" transform="translate(595.353516 0)"/>
      <use xlink:href="#DejaVuSans-75" transform="translate(634.5625 0)"/>
      <use xlink:href="#DejaVuSans-72" transform="translate(697.941406 0)"/>
      <use xlink:href="#DejaVuSans-6e" transform="translate(737.304688 0)"/>
      <use xlink:href="#DejaVuSans-73" transform="translate(800.683594 0)"/>
     </g>
    </g>
    <g id="line2d_19">
     <path d="M 549.9875 79.616562 
L 559.9875 79.616562 
L 569.9875 79.616562 
" style="fill: none; stroke: #1f77b4; stroke-width: 1.5; stroke-linecap: square"/>
    </g>
    <g id="text_20">
     <!-- Mini LSTM w RVOL Volatility Prediction -->
     <g transform="translate(577.9875 83.116562) scale(0.1 -0.1)">
      <use xlink:href="#DejaVuSans-4d"/>
      <use xlink:href="#DejaVuSans-69" transform="translate(86.279297 0)"/>
      <use xlink:href="#DejaVuSans-6e" transform="translate(114.0625 0)"/>
      <use xlink:href="#DejaVuSans-69" transform="translate(177.441406 0)"/>
      <use xlink:href="#DejaVuSans-20" transform="translate(205.224609 0)"/>
      <use xlink:href="#DejaVuSans-4c" transform="translate(237.011719 0)"/>
      <use xlink:href="#DejaVuSans-53" transform="translate(292.724609 0)"/>
      <use xlink:href="#DejaVuSans-54" transform="translate(356.201172 0)"/>
      <use xlink:href="#DejaVuSans-4d" transform="translate(417.285156 0)"/>
      <use xlink:href="#DejaVuSans-20" transform="translate(503.564453 0)"/>
      <use xlink:href="#DejaVuSans-77" transform="translate(535.351562 0)"/>
      <use xlink:href="#DejaVuSans-20" transform="translate(617.138672 0)"/>
      <use xlink:href="#DejaVuSans-52" transform="translate(648.925781 0)"/>
      <use xlink:href="#DejaVuSans-56" transform="translate(712.908203 0)"/>
      <use xlink:href="#DejaVuSans-4f" transform="translate(779.566406 0)"/>
      <use xlink:href="#DejaVuSans-4c" transform="translate(858.277344 0)"/>
      <use xlink:href="#DejaVuSans-20" transform="translate(913.990234 0)"/>
      <use xlink:href="#DejaVuSans-56" transform="translate(945.777344 0)"/>
      <use xlink:href="#DejaVuSans-6f" transform="translate(1006.435547 0)"/>
      <use xlink:href="#DejaVuSans-6c" transform="translate(1067.617188 0)"/>
      <use xlink:href="#DejaVuSans-61" transform="translate(1095.400391 0)"/>
      <use xlink:href="#DejaVuSans-74" transform="translate(1156.679688 0)"/>
      <use xlink:href="#DejaVuSans-69" transform="translate(1195.888672 0)"/>
      <use xlink:href="#DejaVuSans-6c" transform="translate(1223.671875 0)"/>
      <use xlink:href="#DejaVuSans-69" transform="translate(1251.455078 0)"/>
      <use xlink:href="#DejaVuSans-74" transform="translate(1279.238281 0)"/>
      <use xlink:href="#DejaVuSans-79" transform="translate(1318.447266 0)"/>
      <use xlink:href="#DejaVuSans-20" transform="translate(1377.626953 0)"/>
      <use xlink:href="#DejaVuSans-50" transform="translate(1409.414062 0)"/>
      <use xlink:href="#DejaVuSans-72" transform="translate(1467.966797 0)"/>
      <use xlink:href="#DejaVuSans-65" transform="translate(1506.830078 0)"/>
      <use xlink:href="#DejaVuSans-64" transform="translate(1568.353516 0)"/>
      <use xlink:href="#DejaVuSans-69" transform="translate(1631.830078 0)"/>
      <use xlink:href="#DejaVuSans-63" transform="translate(1659.613281 0)"/>
      <use xlink:href="#DejaVuSans-74" transform="translate(1714.59375 0)"/>
      <use xlink:href="#DejaVuSans-69" transform="translate(1753.802734 0)"/>
      <use xlink:href="#DejaVuSans-6f" transform="translate(1781.585938 0)"/>
      <use xlink:href="#DejaVuSans-6e" transform="translate(1842.767578 0)"/>
     </g>
    </g>
   </g>
  </g>
 </g>
 <defs>
  <clipPath id="p9a52f0d554">
   <rect x="108" y="51.84" width="669.6" height="332.64"/>
  </clipPath>
 </defs>
</svg>
