<?xml version="1.0" encoding="utf-8" standalone="no"?>
<!DOCTYPE svg PUBLIC "-//W3C//DTD SVG 1.1//EN"
  "http://www.w3.org/Graphics/SVG/1.1/DTD/svg11.dtd">
<svg xmlns:xlink="http://www.w3.org/1999/xlink" width="720pt" height="1080pt" viewBox="0 0 720 1080" xmlns="http://www.w3.org/2000/svg" version="1.1">
 <metadata>
  <rdf:RDF xmlns:dc="http://purl.org/dc/elements/1.1/" xmlns:cc="http://creativecommons.org/ns#" xmlns:rdf="http://www.w3.org/1999/02/22-rdf-syntax-ns#">
   <cc:Work>
    <dc:type rdf:resource="http://purl.org/dc/dcmitype/StillImage"/>
    <dc:date>2025-02-28T15:18:30.068356</dc:date>
    <dc:format>image/svg+xml</dc:format>
    <dc:creator>
     <cc:Agent>
      <dc:title>Matplotlib v3.10.0, https://matplotlib.org/</dc:title>
     </cc:Agent>
    </dc:creator>
   </cc:Work>
  </rdf:RDF>
 </metadata>
 <defs>
  <style type="text/css">*{stroke-linejoin: round; stroke-linecap: butt}</style>
 </defs>
 <g id="figure_1">
  <g id="patch_1">
   <path d="M 0 1080 
L 720 1080 
L 720 0 
L 0 0 
z
" style="fill: #ffffff"/>
  </g>
  <g id="axes_1">
   <g id="patch_2">
    <path d="M 90 961.2 
L 648 961.2 
L 648 129.6 
L 90 129.6 
z
" style="fill: #ffffff"/>
   </g>
   <g id="patch_3">
    <path d="M -4653 923.4 
L 604.649402 923.4 
L 604.649402 913.252349 
L -4653 913.252349 
z
" clip-path="url(#pee3d597a1b)" style="fill: #1f77b4"/>
   </g>
   <g id="patch_4">
    <path d="M -4653 898.030872 
L 515.7251 898.030872 
L 515.7251 887.883221 
L -4653 887.883221 
z
" clip-path="url(#pee3d597a1b)" style="fill: #1f77b4"/>
   </g>
   <g id="patch_5">
    <path d="M -4653 872.661745 
L 460.14741 872.661745 
L 460.14741 862.514094 
L -4653 862.514094 
z
" clip-path="url(#pee3d597a1b)" style="fill: #1f77b4"/>
   </g>
   <g id="patch_6">
    <path d="M -4653 847.292617 
L 460.14741 847.292617 
L 460.14741 837.144966 
L -4653 837.144966 
z
" clip-path="url(#pee3d597a1b)" style="fill: #1f77b4"/>
   </g>
   <g id="patch_7">
    <path d="M -4653 821.92349 
L 282.298805 821.92349 
L 282.298805 811.775839 
L -4653 811.775839 
z
" clip-path="url(#pee3d597a1b)" style="fill: #1f77b4"/>
   </g>
   <g id="patch_8">
    <path d="M -4653 796.554362 
L 437.916335 796.554362 
L 437.916335 786.406711 
L -4653 786.406711 
z
" clip-path="url(#pee3d597a1b)" style="fill: #1f77b4"/>
   </g>
   <g id="patch_9">
    <path d="M -4653 771.185235 
L 504.609562 771.185235 
L 504.609562 761.037584 
L -4653 761.037584 
z
" clip-path="url(#pee3d597a1b)" style="fill: #1f77b4"/>
   </g>
   <g id="patch_10">
    <path d="M -4653 745.816107 
L 615.76494 745.816107 
L 615.76494 735.668456 
L -4653 735.668456 
z
" clip-path="url(#pee3d597a1b)" style="fill: #1f77b4"/>
   </g>
   <g id="patch_11">
    <path d="M -4653 720.44698 
L 371.223108 720.44698 
L 371.223108 710.299329 
L -4653 710.299329 
z
" clip-path="url(#pee3d597a1b)" style="fill: #1f77b4"/>
   </g>
   <g id="patch_12">
    <path d="M -4653 695.077852 
L 382.338645 695.077852 
L 382.338645 684.930201 
L -4653 684.930201 
z
" clip-path="url(#pee3d597a1b)" style="fill: #1f77b4"/>
   </g>
   <g id="patch_13">
    <path d="M -4653 669.708725 
L 537.956175 669.708725 
L 537.956175 659.561074 
L -4653 659.561074 
z
" clip-path="url(#pee3d597a1b)" style="fill: #1f77b4"/>
   </g>
   <g id="patch_14">
    <path d="M -4653 644.339597 
L 393.454183 644.339597 
L 393.454183 634.191946 
L -4653 634.191946 
z
" clip-path="url(#pee3d597a1b)" style="fill: #1f77b4"/>
   </g>
   <g id="patch_15">
    <path d="M -4653 618.97047 
L 460.14741 618.97047 
L 460.14741 608.822819 
L -4653 608.822819 
z
" clip-path="url(#pee3d597a1b)" style="fill: #1f77b4"/>
   </g>
   <g id="patch_16">
    <path d="M -4653 593.601342 
L 493.494024 593.601342 
L 493.494024 583.453691 
L -4653 583.453691 
z
" clip-path="url(#pee3d597a1b)" style="fill: #1f77b4"/>
   </g>
   <g id="patch_17">
    <path d="M -4653 568.232215 
L 560.187251 568.232215 
L 560.187251 558.084564 
L -4653 558.084564 
z
" clip-path="url(#pee3d597a1b)" style="fill: #1f77b4"/>
   </g>
   <g id="patch_18">
    <path d="M -4653 542.863087 
L 382.338645 542.863087 
L 382.338645 532.715436 
L -4653 532.715436 
z
" clip-path="url(#pee3d597a1b)" style="fill: #1f77b4"/>
   </g>
   <g id="patch_19">
    <path d="M -4653 517.49396 
L 437.916335 517.49396 
L 437.916335 507.346309 
L -4653 507.346309 
z
" clip-path="url(#pee3d597a1b)" style="fill: #1f77b4"/>
   </g>
   <g id="patch_20">
    <path d="M -4653 492.124832 
L 393.454183 492.124832 
L 393.454183 481.977181 
L -4653 481.977181 
z
" clip-path="url(#pee3d597a1b)" style="fill: #1f77b4"/>
   </g>
   <g id="patch_21">
    <path d="M -4653 466.755705 
L 515.7251 466.755705 
L 515.7251 456.608054 
L -4653 456.608054 
z
" clip-path="url(#pee3d597a1b)" style="fill: #1f77b4"/>
   </g>
   <g id="patch_22">
    <path d="M -4653 441.386577 
L 526.840637 441.386577 
L 526.840637 431.238926 
L -4653 431.238926 
z
" clip-path="url(#pee3d597a1b)" style="fill: #1f77b4"/>
   </g>
   <g id="patch_23">
    <path d="M -4653 416.01745 
L 371.223108 416.01745 
L 371.223108 405.869799 
L -4653 405.869799 
z
" clip-path="url(#pee3d597a1b)" style="fill: #1f77b4"/>
   </g>
   <g id="patch_24">
    <path d="M -4653 390.648322 
L 571.302789 390.648322 
L 571.302789 380.500671 
L -4653 380.500671 
z
" clip-path="url(#pee3d597a1b)" style="fill: #1f77b4"/>
   </g>
   <g id="patch_25">
    <path d="M -4653 365.279195 
L 415.685259 365.279195 
L 415.685259 355.131544 
L -4653 355.131544 
z
" clip-path="url(#pee3d597a1b)" style="fill: #1f77b4"/>
   </g>
   <g id="patch_26">
    <path d="M -4653 339.910067 
L 426.800797 339.910067 
L 426.800797 329.762416 
L -4653 329.762416 
z
" clip-path="url(#pee3d597a1b)" style="fill: #1f77b4"/>
   </g>
   <g id="patch_27">
    <path d="M -4653 314.54094 
L 460.14741 314.54094 
L 460.14741 304.393289 
L -4653 304.393289 
z
" clip-path="url(#pee3d597a1b)" style="fill: #1f77b4"/>
   </g>
   <g id="patch_28">
    <path d="M -4653 289.171812 
L 471.262948 289.171812 
L 471.262948 279.024161 
L -4653 279.024161 
z
" clip-path="url(#pee3d597a1b)" style="fill: #1f77b4"/>
   </g>
   <g id="patch_29">
    <path d="M -4653 263.802685 
L 560.187251 263.802685 
L 560.187251 253.655034 
L -4653 253.655034 
z
" clip-path="url(#pee3d597a1b)" style="fill: #1f77b4"/>
   </g>
   <g id="patch_30">
    <path d="M -4653 238.433557 
L 415.685259 238.433557 
L 415.685259 228.285906 
L -4653 228.285906 
z
" clip-path="url(#pee3d597a1b)" style="fill: #1f77b4"/>
   </g>
   <g id="patch_31">
    <path d="M -4653 213.06443 
L 426.800797 213.06443 
L 426.800797 202.916779 
L -4653 202.916779 
z
" clip-path="url(#pee3d597a1b)" style="fill: #1f77b4"/>
   </g>
   <g id="patch_32">
    <path d="M -4653 187.695302 
L 593.533865 187.695302 
L 593.533865 177.547651 
L -4653 177.547651 
z
" clip-path="url(#pee3d597a1b)" style="fill: #1f77b4"/>
   </g>
   <g id="patch_33">
    <path d="M -4653 913.252349 
L 515.7251 913.252349 
L 515.7251 903.104698 
L -4653 903.104698 
z
" clip-path="url(#pee3d597a1b)" style="fill: #ff7f0e"/>
   </g>
   <g id="patch_34">
    <path d="M -4653 887.883221 
L 549.071713 887.883221 
L 549.071713 877.73557 
L -4653 877.73557 
z
" clip-path="url(#pee3d597a1b)" style="fill: #ff7f0e"/>
   </g>
   <g id="patch_35">
    <path d="M -4653 862.514094 
L 337.876494 862.514094 
L 337.876494 852.366443 
L -4653 852.366443 
z
" clip-path="url(#pee3d597a1b)" style="fill: #ff7f0e"/>
   </g>
   <g id="patch_36">
    <path d="M -4653 837.144966 
L 326.760956 837.144966 
L 326.760956 826.997315 
L -4653 826.997315 
z
" clip-path="url(#pee3d597a1b)" style="fill: #ff7f0e"/>
   </g>
   <g id="patch_37">
    <path d="M -4653 811.775839 
L 348.992032 811.775839 
L 348.992032 801.628188 
L -4653 801.628188 
z
" clip-path="url(#pee3d597a1b)" style="fill: #ff7f0e"/>
   </g>
   <g id="patch_38">
    <path d="M -4653 786.406711 
L 371.223108 786.406711 
L 371.223108 776.25906 
L -4653 776.25906 
z
" clip-path="url(#pee3d597a1b)" style="fill: #ff7f0e"/>
   </g>
   <g id="patch_39">
    <path d="M -4653 761.037584 
L 226.721116 761.037584 
L 226.721116 750.889933 
L -4653 750.889933 
z
" clip-path="url(#pee3d597a1b)" style="fill: #ff7f0e"/>
   </g>
   <g id="patch_40">
    <path d="M -4653 735.668456 
L 482.378486 735.668456 
L 482.378486 725.520805 
L -4653 725.520805 
z
" clip-path="url(#pee3d597a1b)" style="fill: #ff7f0e"/>
   </g>
   <g id="patch_41">
    <path d="M -4653 710.299329 
L 393.454183 710.299329 
L 393.454183 700.151678 
L -4653 700.151678 
z
" clip-path="url(#pee3d597a1b)" style="fill: #ff7f0e"/>
   </g>
   <g id="patch_42">
    <path d="M -4653 684.930201 
L 82.219124 684.930201 
L 82.219124 674.78255 
L -4653 674.78255 
z
" clip-path="url(#pee3d597a1b)" style="fill: #ff7f0e"/>
   </g>
   <g id="patch_43">
    <path d="M -4653 659.561074 
L -4653 659.561074 
L -4653 649.413423 
L -4653 649.413423 
z
" clip-path="url(#pee3d597a1b)" style="fill: #ff7f0e"/>
   </g>
   <g id="patch_44">
    <path d="M -4653 634.191946 
L 493.494024 634.191946 
L 493.494024 624.044295 
L -4653 624.044295 
z
" clip-path="url(#pee3d597a1b)" style="fill: #ff7f0e"/>
   </g>
   <g id="patch_45">
    <path d="M -4653 608.822819 
L 360.10757 608.822819 
L 360.10757 598.675168 
L -4653 598.675168 
z
" clip-path="url(#pee3d597a1b)" style="fill: #ff7f0e"/>
   </g>
   <g id="patch_46">
    <path d="M -4653 583.453691 
L 515.7251 583.453691 
L 515.7251 573.30604 
L -4653 573.30604 
z
" clip-path="url(#pee3d597a1b)" style="fill: #ff7f0e"/>
   </g>
   <g id="patch_47">
    <path d="M -4653 558.084564 
L 460.14741 558.084564 
L 460.14741 547.936913 
L -4653 547.936913 
z
" clip-path="url(#pee3d597a1b)" style="fill: #ff7f0e"/>
   </g>
   <g id="patch_48">
    <path d="M -4653 532.715436 
L 204.49004 532.715436 
L 204.49004 522.567785 
L -4653 522.567785 
z
" clip-path="url(#pee3d597a1b)" style="fill: #ff7f0e"/>
   </g>
   <g id="patch_49">
    <path d="M -4653 507.346309 
L 482.378486 507.346309 
L 482.378486 497.198658 
L -4653 497.198658 
z
" clip-path="url(#pee3d597a1b)" style="fill: #ff7f0e"/>
   </g>
   <g id="patch_50">
    <path d="M -4653 481.977181 
L 482.378486 481.977181 
L 482.378486 471.82953 
L -4653 471.82953 
z
" clip-path="url(#pee3d597a1b)" style="fill: #ff7f0e"/>
   </g>
   <g id="patch_51">
    <path d="M -4653 456.608054 
L 526.840637 456.608054 
L 526.840637 446.460403 
L -4653 446.460403 
z
" clip-path="url(#pee3d597a1b)" style="fill: #ff7f0e"/>
   </g>
   <g id="patch_52">
    <path d="M -4653 431.238926 
L 526.840637 431.238926 
L 526.840637 421.091275 
L -4653 421.091275 
z
" clip-path="url(#pee3d597a1b)" style="fill: #ff7f0e"/>
   </g>
   <g id="patch_53">
    <path d="M -4653 405.869799 
L 193.374502 405.869799 
L 193.374502 395.722148 
L -4653 395.722148 
z
" clip-path="url(#pee3d597a1b)" style="fill: #ff7f0e"/>
   </g>
   <g id="patch_54">
    <path d="M -4653 380.500671 
L 482.378486 380.500671 
L 482.378486 370.35302 
L -4653 370.35302 
z
" clip-path="url(#pee3d597a1b)" style="fill: #ff7f0e"/>
   </g>
   <g id="patch_55">
    <path d="M -4653 355.131544 
L 260.067729 355.131544 
L 260.067729 344.983893 
L -4653 344.983893 
z
" clip-path="url(#pee3d597a1b)" style="fill: #ff7f0e"/>
   </g>
   <g id="patch_56">
    <path d="M -4653 329.762416 
L 126.681275 329.762416 
L 126.681275 319.614765 
L -4653 319.614765 
z
" clip-path="url(#pee3d597a1b)" style="fill: #ff7f0e"/>
   </g>
   <g id="patch_57">
    <path d="M -4653 304.393289 
L 449.031873 304.393289 
L 449.031873 294.245638 
L -4653 294.245638 
z
" clip-path="url(#pee3d597a1b)" style="fill: #ff7f0e"/>
   </g>
   <g id="patch_58">
    <path d="M -4653 279.024161 
L 526.840637 279.024161 
L 526.840637 268.87651 
L -4653 268.87651 
z
" clip-path="url(#pee3d597a1b)" style="fill: #ff7f0e"/>
   </g>
   <g id="patch_59">
    <path d="M -4653 253.655034 
L 549.071713 253.655034 
L 549.071713 243.507383 
L -4653 243.507383 
z
" clip-path="url(#pee3d597a1b)" style="fill: #ff7f0e"/>
   </g>
   <g id="patch_60">
    <path d="M -4653 228.285906 
L 471.262948 228.285906 
L 471.262948 218.138255 
L -4653 218.138255 
z
" clip-path="url(#pee3d597a1b)" style="fill: #ff7f0e"/>
   </g>
   <g id="patch_61">
    <path d="M -4653 202.916779 
L 248.952191 202.916779 
L 248.952191 192.769128 
L -4653 192.769128 
z
" clip-path="url(#pee3d597a1b)" style="fill: #ff7f0e"/>
   </g>
   <g id="patch_62">
    <path d="M -4653 177.547651 
L 504.609562 177.547651 
L 504.609562 167.4 
L -4653 167.4 
z
" clip-path="url(#pee3d597a1b)" style="fill: #ff7f0e"/>
   </g>
   <g id="matplotlib.axis_1">
    <g id="xtick_1">
     <g id="line2d_1">
      <defs>
       <path id="mf65f2dac20" d="M 0 0 
L 0 3.5 
" style="stroke: #000000; stroke-width: 0.8"/>
      </defs>
      <g>
       <use xlink:href="#mf65f2dac20" x="145.8" y="961.2" style="stroke: #000000; stroke-width: 0.8"/>
      </g>
     </g>
     <g id="text_1">
      <!-- 86.0% -->
      <g transform="translate(129.916406 975.798437) scale(0.1 -0.1)">
       <defs>
        <path id="DejaVuSans-38" d="M 2034 2216 
Q 1584 2216 1326 1975 
Q 1069 1734 1069 1313 
Q 1069 891 1326 650 
Q 1584 409 2034 409 
Q 2484 409 2743 651 
Q 3003 894 3003 1313 
Q 3003 1734 2745 1975 
Q 2488 2216 2034 2216 
z
M 1403 2484 
Q 997 2584 770 2862 
Q 544 3141 544 3541 
Q 544 4100 942 4425 
Q 1341 4750 2034 4750 
Q 2731 4750 3128 4425 
Q 3525 4100 3525 3541 
Q 3525 3141 3298 2862 
Q 3072 2584 2669 2484 
Q 3125 2378 3379 2068 
Q 3634 1759 3634 1313 
Q 3634 634 3220 271 
Q 2806 -91 2034 -91 
Q 1263 -91 848 271 
Q 434 634 434 1313 
Q 434 1759 690 2068 
Q 947 2378 1403 2484 
z
M 1172 3481 
Q 1172 3119 1398 2916 
Q 1625 2713 2034 2713 
Q 2441 2713 2670 2916 
Q 2900 3119 2900 3481 
Q 2900 3844 2670 4047 
Q 2441 4250 2034 4250 
Q 1625 4250 1398 4047 
Q 1172 3844 1172 3481 
z
" transform="scale(0.015625)"/>
        <path id="DejaVuSans-36" d="M 2113 2584 
Q 1688 2584 1439 2293 
Q 1191 2003 1191 1497 
Q 1191 994 1439 701 
Q 1688 409 2113 409 
Q 2538 409 2786 701 
Q 3034 994 3034 1497 
Q 3034 2003 2786 2293 
Q 2538 2584 2113 2584 
z
M 3366 4563 
L 3366 3988 
Q 3128 4100 2886 4159 
Q 2644 4219 2406 4219 
Q 1781 4219 1451 3797 
Q 1122 3375 1075 2522 
Q 1259 2794 1537 2939 
Q 1816 3084 2150 3084 
Q 2853 3084 3261 2657 
Q 3669 2231 3669 1497 
Q 3669 778 3244 343 
Q 2819 -91 2113 -91 
Q 1303 -91 875 529 
Q 447 1150 447 2328 
Q 447 3434 972 4092 
Q 1497 4750 2381 4750 
Q 2619 4750 2861 4703 
Q 3103 4656 3366 4563 
z
" transform="scale(0.015625)"/>
        <path id="DejaVuSans-2e" d="M 684 794 
L 1344 794 
L 1344 0 
L 684 0 
L 684 794 
z
" transform="scale(0.015625)"/>
        <path id="DejaVuSans-30" d="M 2034 4250 
Q 1547 4250 1301 3770 
Q 1056 3291 1056 2328 
Q 1056 1369 1301 889 
Q 1547 409 2034 409 
Q 2525 409 2770 889 
Q 3016 1369 3016 2328 
Q 3016 3291 2770 3770 
Q 2525 4250 2034 4250 
z
M 2034 4750 
Q 2819 4750 3233 4129 
Q 3647 3509 3647 2328 
Q 3647 1150 3233 529 
Q 2819 -91 2034 -91 
Q 1250 -91 836 529 
Q 422 1150 422 2328 
Q 422 3509 836 4129 
Q 1250 4750 2034 4750 
z
" transform="scale(0.015625)"/>
        <path id="DejaVuSans-25" d="M 4653 2053 
Q 4381 2053 4226 1822 
Q 4072 1591 4072 1178 
Q 4072 772 4226 539 
Q 4381 306 4653 306 
Q 4919 306 5073 539 
Q 5228 772 5228 1178 
Q 5228 1588 5073 1820 
Q 4919 2053 4653 2053 
z
M 4653 2450 
Q 5147 2450 5437 2106 
Q 5728 1763 5728 1178 
Q 5728 594 5436 251 
Q 5144 -91 4653 -91 
Q 4153 -91 3862 251 
Q 3572 594 3572 1178 
Q 3572 1766 3864 2108 
Q 4156 2450 4653 2450 
z
M 1428 4353 
Q 1159 4353 1004 4120 
Q 850 3888 850 3481 
Q 850 3069 1003 2837 
Q 1156 2606 1428 2606 
Q 1700 2606 1854 2837 
Q 2009 3069 2009 3481 
Q 2009 3884 1853 4118 
Q 1697 4353 1428 4353 
z
M 4250 4750 
L 4750 4750 
L 1831 -91 
L 1331 -91 
L 4250 4750 
z
M 1428 4750 
Q 1922 4750 2215 4408 
Q 2509 4066 2509 3481 
Q 2509 2891 2217 2550 
Q 1925 2209 1428 2209 
Q 931 2209 642 2551 
Q 353 2894 353 3481 
Q 353 4063 643 4406 
Q 934 4750 1428 4750 
z
" transform="scale(0.015625)"/>
       </defs>
       <use xlink:href="#DejaVuSans-38"/>
       <use xlink:href="#DejaVuSans-36" transform="translate(63.623047 0)"/>
       <use xlink:href="#DejaVuSans-2e" transform="translate(127.246094 0)"/>
       <use xlink:href="#DejaVuSans-30" transform="translate(159.033203 0)"/>
       <use xlink:href="#DejaVuSans-25" transform="translate(222.65625 0)"/>
      </g>
     </g>
    </g>
    <g id="xtick_2">
     <g id="line2d_2">
      <g>
       <use xlink:href="#mf65f2dac20" x="257.4" y="961.2" style="stroke: #000000; stroke-width: 0.8"/>
      </g>
     </g>
     <g id="text_2">
      <!-- 88.0% -->
      <g transform="translate(241.516406 975.798437) scale(0.1 -0.1)">
       <use xlink:href="#DejaVuSans-38"/>
       <use xlink:href="#DejaVuSans-38" transform="translate(63.623047 0)"/>
       <use xlink:href="#DejaVuSans-2e" transform="translate(127.246094 0)"/>
       <use xlink:href="#DejaVuSans-30" transform="translate(159.033203 0)"/>
       <use xlink:href="#DejaVuSans-25" transform="translate(222.65625 0)"/>
      </g>
     </g>
    </g>
    <g id="xtick_3">
     <g id="line2d_3">
      <g>
       <use xlink:href="#mf65f2dac20" x="369" y="961.2" style="stroke: #000000; stroke-width: 0.8"/>
      </g>
     </g>
     <g id="text_3">
      <!-- 90.0% -->
      <g transform="translate(353.116406 975.798437) scale(0.1 -0.1)">
       <defs>
        <path id="DejaVuSans-39" d="M 703 97 
L 703 672 
Q 941 559 1184 500 
Q 1428 441 1663 441 
Q 2288 441 2617 861 
Q 2947 1281 2994 2138 
Q 2813 1869 2534 1725 
Q 2256 1581 1919 1581 
Q 1219 1581 811 2004 
Q 403 2428 403 3163 
Q 403 3881 828 4315 
Q 1253 4750 1959 4750 
Q 2769 4750 3195 4129 
Q 3622 3509 3622 2328 
Q 3622 1225 3098 567 
Q 2575 -91 1691 -91 
Q 1453 -91 1209 -44 
Q 966 3 703 97 
z
M 1959 2075 
Q 2384 2075 2632 2365 
Q 2881 2656 2881 3163 
Q 2881 3666 2632 3958 
Q 2384 4250 1959 4250 
Q 1534 4250 1286 3958 
Q 1038 3666 1038 3163 
Q 1038 2656 1286 2365 
Q 1534 2075 1959 2075 
z
" transform="scale(0.015625)"/>
       </defs>
       <use xlink:href="#DejaVuSans-39"/>
       <use xlink:href="#DejaVuSans-30" transform="translate(63.623047 0)"/>
       <use xlink:href="#DejaVuSans-2e" transform="translate(127.246094 0)"/>
       <use xlink:href="#DejaVuSans-30" transform="translate(159.033203 0)"/>
       <use xlink:href="#DejaVuSans-25" transform="translate(222.65625 0)"/>
      </g>
     </g>
    </g>
    <g id="xtick_4">
     <g id="line2d_4">
      <g>
       <use xlink:href="#mf65f2dac20" x="480.6" y="961.2" style="stroke: #000000; stroke-width: 0.8"/>
      </g>
     </g>
     <g id="text_4">
      <!-- 92.0% -->
      <g transform="translate(464.716406 975.798437) scale(0.1 -0.1)">
       <defs>
        <path id="DejaVuSans-32" d="M 1228 531 
L 3431 531 
L 3431 0 
L 469 0 
L 469 531 
Q 828 903 1448 1529 
Q 2069 2156 2228 2338 
Q 2531 2678 2651 2914 
Q 2772 3150 2772 3378 
Q 2772 3750 2511 3984 
Q 2250 4219 1831 4219 
Q 1534 4219 1204 4116 
Q 875 4013 500 3803 
L 500 4441 
Q 881 4594 1212 4672 
Q 1544 4750 1819 4750 
Q 2544 4750 2975 4387 
Q 3406 4025 3406 3419 
Q 3406 3131 3298 2873 
Q 3191 2616 2906 2266 
Q 2828 2175 2409 1742 
Q 1991 1309 1228 531 
z
" transform="scale(0.015625)"/>
       </defs>
       <use xlink:href="#DejaVuSans-39"/>
       <use xlink:href="#DejaVuSans-32" transform="translate(63.623047 0)"/>
       <use xlink:href="#DejaVuSans-2e" transform="translate(127.246094 0)"/>
       <use xlink:href="#DejaVuSans-30" transform="translate(159.033203 0)"/>
       <use xlink:href="#DejaVuSans-25" transform="translate(222.65625 0)"/>
      </g>
     </g>
    </g>
    <g id="xtick_5">
     <g id="line2d_5">
      <g>
       <use xlink:href="#mf65f2dac20" x="592.2" y="961.2" style="stroke: #000000; stroke-width: 0.8"/>
      </g>
     </g>
     <g id="text_5">
      <!-- 94.0% -->
      <g transform="translate(576.316406 975.798437) scale(0.1 -0.1)">
       <defs>
        <path id="DejaVuSans-34" d="M 2419 4116 
L 825 1625 
L 2419 1625 
L 2419 4116 
z
M 2253 4666 
L 3047 4666 
L 3047 1625 
L 3713 1625 
L 3713 1100 
L 3047 1100 
L 3047 0 
L 2419 0 
L 2419 1100 
L 313 1100 
L 313 1709 
L 2253 4666 
z
" transform="scale(0.015625)"/>
       </defs>
       <use xlink:href="#DejaVuSans-39"/>
       <use xlink:href="#DejaVuSans-34" transform="translate(63.623047 0)"/>
       <use xlink:href="#DejaVuSans-2e" transform="translate(127.246094 0)"/>
       <use xlink:href="#DejaVuSans-30" transform="translate(159.033203 0)"/>
       <use xlink:href="#DejaVuSans-25" transform="translate(222.65625 0)"/>
      </g>
     </g>
    </g>
   </g>
   <g id="matplotlib.axis_2">
    <g id="ytick_1">
     <g id="line2d_6">
      <defs>
       <path id="md724013568" d="M 0 0 
L -3.5 0 
" style="stroke: #000000; stroke-width: 0.8"/>
      </defs>
      <g>
       <use xlink:href="#md724013568" x="90" y="913.252349" style="stroke: #000000; stroke-width: 0.8"/>
      </g>
     </g>
     <g id="text_6">
      <!-- AAPL -->
      <g transform="translate(57.442188 917.051568) scale(0.1 -0.1)">
       <defs>
        <path id="DejaVuSans-41" d="M 2188 4044 
L 1331 1722 
L 3047 1722 
L 2188 4044 
z
M 1831 4666 
L 2547 4666 
L 4325 0 
L 3669 0 
L 3244 1197 
L 1141 1197 
L 716 0 
L 50 0 
L 1831 4666 
z
" transform="scale(0.015625)"/>
        <path id="DejaVuSans-50" d="M 1259 4147 
L 1259 2394 
L 2053 2394 
Q 2494 2394 2734 2622 
Q 2975 2850 2975 3272 
Q 2975 3691 2734 3919 
Q 2494 4147 2053 4147 
L 1259 4147 
z
M 628 4666 
L 2053 4666 
Q 2838 4666 3239 4311 
Q 3641 3956 3641 3272 
Q 3641 2581 3239 2228 
Q 2838 1875 2053 1875 
L 1259 1875 
L 1259 0 
L 628 0 
L 628 4666 
z
" transform="scale(0.015625)"/>
        <path id="DejaVuSans-4c" d="M 628 4666 
L 1259 4666 
L 1259 531 
L 3531 531 
L 3531 0 
L 628 0 
L 628 4666 
z
" transform="scale(0.015625)"/>
       </defs>
       <use xlink:href="#DejaVuSans-41"/>
       <use xlink:href="#DejaVuSans-41" transform="translate(71.158203 0)"/>
       <use xlink:href="#DejaVuSans-50" transform="translate(139.566406 0)"/>
       <use xlink:href="#DejaVuSans-4c" transform="translate(199.869141 0)"/>
      </g>
     </g>
    </g>
    <g id="ytick_2">
     <g id="line2d_7">
      <g>
       <use xlink:href="#md724013568" x="90" y="887.883221" style="stroke: #000000; stroke-width: 0.8"/>
      </g>
     </g>
     <g id="text_7">
      <!-- AMGN -->
      <g transform="translate(52.301563 891.68244) scale(0.1 -0.1)">
       <defs>
        <path id="DejaVuSans-4d" d="M 628 4666 
L 1569 4666 
L 2759 1491 
L 3956 4666 
L 4897 4666 
L 4897 0 
L 4281 0 
L 4281 4097 
L 3078 897 
L 2444 897 
L 1241 4097 
L 1241 0 
L 628 0 
L 628 4666 
z
" transform="scale(0.015625)"/>
        <path id="DejaVuSans-47" d="M 3809 666 
L 3809 1919 
L 2778 1919 
L 2778 2438 
L 4434 2438 
L 4434 434 
Q 4069 175 3628 42 
Q 3188 -91 2688 -91 
Q 1594 -91 976 548 
Q 359 1188 359 2328 
Q 359 3472 976 4111 
Q 1594 4750 2688 4750 
Q 3144 4750 3555 4637 
Q 3966 4525 4313 4306 
L 4313 3634 
Q 3963 3931 3569 4081 
Q 3175 4231 2741 4231 
Q 1884 4231 1454 3753 
Q 1025 3275 1025 2328 
Q 1025 1384 1454 906 
Q 1884 428 2741 428 
Q 3075 428 3337 486 
Q 3600 544 3809 666 
z
" transform="scale(0.015625)"/>
        <path id="DejaVuSans-4e" d="M 628 4666 
L 1478 4666 
L 3547 763 
L 3547 4666 
L 4159 4666 
L 4159 0 
L 3309 0 
L 1241 3903 
L 1241 0 
L 628 0 
L 628 4666 
z
" transform="scale(0.015625)"/>
       </defs>
       <use xlink:href="#DejaVuSans-41"/>
       <use xlink:href="#DejaVuSans-4d" transform="translate(68.408203 0)"/>
       <use xlink:href="#DejaVuSans-47" transform="translate(154.6875 0)"/>
       <use xlink:href="#DejaVuSans-4e" transform="translate(232.177734 0)"/>
      </g>
     </g>
    </g>
    <g id="ytick_3">
     <g id="line2d_8">
      <g>
       <use xlink:href="#md724013568" x="90" y="862.514094" style="stroke: #000000; stroke-width: 0.8"/>
      </g>
     </g>
     <g id="text_8">
      <!-- AMZN -->
      <g transform="translate(53.2 866.313313) scale(0.1 -0.1)">
       <defs>
        <path id="DejaVuSans-5a" d="M 359 4666 
L 4025 4666 
L 4025 4184 
L 1075 531 
L 4097 531 
L 4097 0 
L 288 0 
L 288 481 
L 3238 4134 
L 359 4134 
L 359 4666 
z
" transform="scale(0.015625)"/>
       </defs>
       <use xlink:href="#DejaVuSans-41"/>
       <use xlink:href="#DejaVuSans-4d" transform="translate(68.408203 0)"/>
       <use xlink:href="#DejaVuSans-5a" transform="translate(154.6875 0)"/>
       <use xlink:href="#DejaVuSans-4e" transform="translate(223.193359 0)"/>
      </g>
     </g>
    </g>
    <g id="ytick_4">
     <g id="line2d_9">
      <g>
       <use xlink:href="#md724013568" x="90" y="837.144966" style="stroke: #000000; stroke-width: 0.8"/>
      </g>
     </g>
     <g id="text_9">
      <!-- AXP -->
      <g transform="translate(63.279687 840.944185) scale(0.1 -0.1)">
       <defs>
        <path id="DejaVuSans-58" d="M 403 4666 
L 1081 4666 
L 2241 2931 
L 3406 4666 
L 4084 4666 
L 2584 2425 
L 4184 0 
L 3506 0 
L 2194 1984 
L 872 0 
L 191 0 
L 1856 2491 
L 403 4666 
z
" transform="scale(0.015625)"/>
       </defs>
       <use xlink:href="#DejaVuSans-41"/>
       <use xlink:href="#DejaVuSans-58" transform="translate(68.408203 0)"/>
       <use xlink:href="#DejaVuSans-50" transform="translate(136.914062 0)"/>
      </g>
     </g>
    </g>
    <g id="ytick_5">
     <g id="line2d_10">
      <g>
       <use xlink:href="#md724013568" x="90" y="811.775839" style="stroke: #000000; stroke-width: 0.8"/>
      </g>
     </g>
     <g id="text_10">
      <!-- BA -->
      <g transform="translate(69.298438 815.575058) scale(0.1 -0.1)">
       <defs>
        <path id="DejaVuSans-42" d="M 1259 2228 
L 1259 519 
L 2272 519 
Q 2781 519 3026 730 
Q 3272 941 3272 1375 
Q 3272 1813 3026 2020 
Q 2781 2228 2272 2228 
L 1259 2228 
z
M 1259 4147 
L 1259 2741 
L 2194 2741 
Q 2656 2741 2882 2914 
Q 3109 3088 3109 3444 
Q 3109 3797 2882 3972 
Q 2656 4147 2194 4147 
L 1259 4147 
z
M 628 4666 
L 2241 4666 
Q 2963 4666 3353 4366 
Q 3744 4066 3744 3513 
Q 3744 3084 3544 2831 
Q 3344 2578 2956 2516 
Q 3422 2416 3680 2098 
Q 3938 1781 3938 1306 
Q 3938 681 3513 340 
Q 3088 0 2303 0 
L 628 0 
L 628 4666 
z
" transform="scale(0.015625)"/>
       </defs>
       <use xlink:href="#DejaVuSans-42"/>
       <use xlink:href="#DejaVuSans-41" transform="translate(68.603516 0)"/>
      </g>
     </g>
    </g>
    <g id="ytick_6">
     <g id="line2d_11">
      <g>
       <use xlink:href="#md724013568" x="90" y="786.406711" style="stroke: #000000; stroke-width: 0.8"/>
      </g>
     </g>
     <g id="text_11">
      <!-- CAT -->
      <g transform="translate(63.84375 790.20593) scale(0.1 -0.1)">
       <defs>
        <path id="DejaVuSans-43" d="M 4122 4306 
L 4122 3641 
Q 3803 3938 3442 4084 
Q 3081 4231 2675 4231 
Q 1875 4231 1450 3742 
Q 1025 3253 1025 2328 
Q 1025 1406 1450 917 
Q 1875 428 2675 428 
Q 3081 428 3442 575 
Q 3803 722 4122 1019 
L 4122 359 
Q 3791 134 3420 21 
Q 3050 -91 2638 -91 
Q 1578 -91 968 557 
Q 359 1206 359 2328 
Q 359 3453 968 4101 
Q 1578 4750 2638 4750 
Q 3056 4750 3426 4639 
Q 3797 4528 4122 4306 
z
" transform="scale(0.015625)"/>
        <path id="DejaVuSans-54" d="M -19 4666 
L 3928 4666 
L 3928 4134 
L 2272 4134 
L 2272 0 
L 1638 0 
L 1638 4134 
L -19 4134 
L -19 4666 
z
" transform="scale(0.015625)"/>
       </defs>
       <use xlink:href="#DejaVuSans-43"/>
       <use xlink:href="#DejaVuSans-41" transform="translate(69.824219 0)"/>
       <use xlink:href="#DejaVuSans-54" transform="translate(130.482422 0)"/>
      </g>
     </g>
    </g>
    <g id="ytick_7">
     <g id="line2d_12">
      <g>
       <use xlink:href="#md724013568" x="90" y="761.037584" style="stroke: #000000; stroke-width: 0.8"/>
      </g>
     </g>
     <g id="text_12">
      <!-- CRM -->
      <g transform="translate(60.440625 764.836803) scale(0.1 -0.1)">
       <defs>
        <path id="DejaVuSans-52" d="M 2841 2188 
Q 3044 2119 3236 1894 
Q 3428 1669 3622 1275 
L 4263 0 
L 3584 0 
L 2988 1197 
Q 2756 1666 2539 1819 
Q 2322 1972 1947 1972 
L 1259 1972 
L 1259 0 
L 628 0 
L 628 4666 
L 2053 4666 
Q 2853 4666 3247 4331 
Q 3641 3997 3641 3322 
Q 3641 2881 3436 2590 
Q 3231 2300 2841 2188 
z
M 1259 4147 
L 1259 2491 
L 2053 2491 
Q 2509 2491 2742 2702 
Q 2975 2913 2975 3322 
Q 2975 3731 2742 3939 
Q 2509 4147 2053 4147 
L 1259 4147 
z
" transform="scale(0.015625)"/>
       </defs>
       <use xlink:href="#DejaVuSans-43"/>
       <use xlink:href="#DejaVuSans-52" transform="translate(69.824219 0)"/>
       <use xlink:href="#DejaVuSans-4d" transform="translate(139.306641 0)"/>
      </g>
     </g>
    </g>
    <g id="ytick_8">
     <g id="line2d_13">
      <g>
       <use xlink:href="#md724013568" x="90" y="735.668456" style="stroke: #000000; stroke-width: 0.8"/>
      </g>
     </g>
     <g id="text_13">
      <!-- CSCO -->
      <g transform="translate(54.814062 739.467675) scale(0.1 -0.1)">
       <defs>
        <path id="DejaVuSans-53" d="M 3425 4513 
L 3425 3897 
Q 3066 4069 2747 4153 
Q 2428 4238 2131 4238 
Q 1616 4238 1336 4038 
Q 1056 3838 1056 3469 
Q 1056 3159 1242 3001 
Q 1428 2844 1947 2747 
L 2328 2669 
Q 3034 2534 3370 2195 
Q 3706 1856 3706 1288 
Q 3706 609 3251 259 
Q 2797 -91 1919 -91 
Q 1588 -91 1214 -16 
Q 841 59 441 206 
L 441 856 
Q 825 641 1194 531 
Q 1563 422 1919 422 
Q 2459 422 2753 634 
Q 3047 847 3047 1241 
Q 3047 1584 2836 1778 
Q 2625 1972 2144 2069 
L 1759 2144 
Q 1053 2284 737 2584 
Q 422 2884 422 3419 
Q 422 4038 858 4394 
Q 1294 4750 2059 4750 
Q 2388 4750 2728 4690 
Q 3069 4631 3425 4513 
z
" transform="scale(0.015625)"/>
        <path id="DejaVuSans-4f" d="M 2522 4238 
Q 1834 4238 1429 3725 
Q 1025 3213 1025 2328 
Q 1025 1447 1429 934 
Q 1834 422 2522 422 
Q 3209 422 3611 934 
Q 4013 1447 4013 2328 
Q 4013 3213 3611 3725 
Q 3209 4238 2522 4238 
z
M 2522 4750 
Q 3503 4750 4090 4092 
Q 4678 3434 4678 2328 
Q 4678 1225 4090 567 
Q 3503 -91 2522 -91 
Q 1538 -91 948 565 
Q 359 1222 359 2328 
Q 359 3434 948 4092 
Q 1538 4750 2522 4750 
z
" transform="scale(0.015625)"/>
       </defs>
       <use xlink:href="#DejaVuSans-43"/>
       <use xlink:href="#DejaVuSans-53" transform="translate(69.824219 0)"/>
       <use xlink:href="#DejaVuSans-43" transform="translate(133.300781 0)"/>
       <use xlink:href="#DejaVuSans-4f" transform="translate(203.125 0)"/>
      </g>
     </g>
    </g>
    <g id="ytick_9">
     <g id="line2d_14">
      <g>
       <use xlink:href="#md724013568" x="90" y="710.299329" style="stroke: #000000; stroke-width: 0.8"/>
      </g>
     </g>
     <g id="text_14">
      <!-- CVX -->
      <g transform="translate(62.326562 714.098548) scale(0.1 -0.1)">
       <defs>
        <path id="DejaVuSans-56" d="M 1831 0 
L 50 4666 
L 709 4666 
L 2188 738 
L 3669 4666 
L 4325 4666 
L 2547 0 
L 1831 0 
z
" transform="scale(0.015625)"/>
       </defs>
       <use xlink:href="#DejaVuSans-43"/>
       <use xlink:href="#DejaVuSans-56" transform="translate(69.824219 0)"/>
       <use xlink:href="#DejaVuSans-58" transform="translate(138.232422 0)"/>
      </g>
     </g>
    </g>
    <g id="ytick_10">
     <g id="line2d_15">
      <g>
       <use xlink:href="#md724013568" x="90" y="684.930201" style="stroke: #000000; stroke-width: 0.8"/>
      </g>
     </g>
     <g id="text_15">
      <!-- DIS -->
      <g transform="translate(66.001563 688.72942) scale(0.1 -0.1)">
       <defs>
        <path id="DejaVuSans-44" d="M 1259 4147 
L 1259 519 
L 2022 519 
Q 2988 519 3436 956 
Q 3884 1394 3884 2338 
Q 3884 3275 3436 3711 
Q 2988 4147 2022 4147 
L 1259 4147 
z
M 628 4666 
L 1925 4666 
Q 3281 4666 3915 4102 
Q 4550 3538 4550 2338 
Q 4550 1131 3912 565 
Q 3275 0 1925 0 
L 628 0 
L 628 4666 
z
" transform="scale(0.015625)"/>
        <path id="DejaVuSans-49" d="M 628 4666 
L 1259 4666 
L 1259 0 
L 628 0 
L 628 4666 
z
" transform="scale(0.015625)"/>
       </defs>
       <use xlink:href="#DejaVuSans-44"/>
       <use xlink:href="#DejaVuSans-49" transform="translate(77.001953 0)"/>
       <use xlink:href="#DejaVuSans-53" transform="translate(106.494141 0)"/>
      </g>
     </g>
    </g>
    <g id="ytick_11">
     <g id="line2d_16">
      <g>
       <use xlink:href="#md724013568" x="90" y="659.561074" style="stroke: #000000; stroke-width: 0.8"/>
      </g>
     </g>
     <g id="text_16">
      <!-- DOW -->
      <g transform="translate(57.540625 663.360293) scale(0.1 -0.1)">
       <defs>
        <path id="DejaVuSans-57" d="M 213 4666 
L 850 4666 
L 1831 722 
L 2809 4666 
L 3519 4666 
L 4500 722 
L 5478 4666 
L 6119 4666 
L 4947 0 
L 4153 0 
L 3169 4050 
L 2175 0 
L 1381 0 
L 213 4666 
z
" transform="scale(0.015625)"/>
       </defs>
       <use xlink:href="#DejaVuSans-44"/>
       <use xlink:href="#DejaVuSans-4f" transform="translate(77.001953 0)"/>
       <use xlink:href="#DejaVuSans-57" transform="translate(155.712891 0)"/>
      </g>
     </g>
    </g>
    <g id="ytick_12">
     <g id="line2d_17">
      <g>
       <use xlink:href="#md724013568" x="90" y="634.191946" style="stroke: #000000; stroke-width: 0.8"/>
      </g>
     </g>
     <g id="text_17">
      <!-- GS -->
      <g transform="translate(68.903125 637.991165) scale(0.1 -0.1)">
       <use xlink:href="#DejaVuSans-47"/>
       <use xlink:href="#DejaVuSans-53" transform="translate(77.490234 0)"/>
      </g>
     </g>
    </g>
    <g id="ytick_13">
     <g id="line2d_18">
      <g>
       <use xlink:href="#md724013568" x="90" y="608.822819" style="stroke: #000000; stroke-width: 0.8"/>
      </g>
     </g>
     <g id="text_18">
      <!-- HD -->
      <g transform="translate(67.779687 612.622038) scale(0.1 -0.1)">
       <defs>
        <path id="DejaVuSans-48" d="M 628 4666 
L 1259 4666 
L 1259 2753 
L 3553 2753 
L 3553 4666 
L 4184 4666 
L 4184 0 
L 3553 0 
L 3553 2222 
L 1259 2222 
L 1259 0 
L 628 0 
L 628 4666 
z
" transform="scale(0.015625)"/>
       </defs>
       <use xlink:href="#DejaVuSans-48"/>
       <use xlink:href="#DejaVuSans-44" transform="translate(75.195312 0)"/>
      </g>
     </g>
    </g>
    <g id="ytick_14">
     <g id="line2d_19">
      <g>
       <use xlink:href="#md724013568" x="90" y="583.453691" style="stroke: #000000; stroke-width: 0.8"/>
      </g>
     </g>
     <g id="text_19">
      <!-- HON -->
      <g transform="translate(60.126562 587.25291) scale(0.1 -0.1)">
       <use xlink:href="#DejaVuSans-48"/>
       <use xlink:href="#DejaVuSans-4f" transform="translate(75.195312 0)"/>
       <use xlink:href="#DejaVuSans-4e" transform="translate(153.90625 0)"/>
      </g>
     </g>
    </g>
    <g id="ytick_15">
     <g id="line2d_20">
      <g>
       <use xlink:href="#md724013568" x="90" y="558.084564" style="stroke: #000000; stroke-width: 0.8"/>
      </g>
     </g>
     <g id="text_20">
      <!-- IBM -->
      <g transform="translate(64.560937 561.883783) scale(0.1 -0.1)">
       <use xlink:href="#DejaVuSans-49"/>
       <use xlink:href="#DejaVuSans-42" transform="translate(29.492188 0)"/>
       <use xlink:href="#DejaVuSans-4d" transform="translate(98.095703 0)"/>
      </g>
     </g>
    </g>
    <g id="ytick_16">
     <g id="line2d_21">
      <g>
       <use xlink:href="#md724013568" x="90" y="532.715436" style="stroke: #000000; stroke-width: 0.8"/>
      </g>
     </g>
     <g id="text_21">
      <!-- INTC -->
      <g transform="translate(60.065625 536.514655) scale(0.1 -0.1)">
       <use xlink:href="#DejaVuSans-49"/>
       <use xlink:href="#DejaVuSans-4e" transform="translate(29.492188 0)"/>
       <use xlink:href="#DejaVuSans-54" transform="translate(104.296875 0)"/>
       <use xlink:href="#DejaVuSans-43" transform="translate(159.505859 0)"/>
      </g>
     </g>
    </g>
    <g id="ytick_17">
     <g id="line2d_22">
      <g>
       <use xlink:href="#md724013568" x="90" y="507.346309" style="stroke: #000000; stroke-width: 0.8"/>
      </g>
     </g>
     <g id="text_22">
      <!-- JNJ -->
      <g transform="translate(69.61875 511.145527) scale(0.1 -0.1)">
       <defs>
        <path id="DejaVuSans-4a" d="M 628 4666 
L 1259 4666 
L 1259 325 
Q 1259 -519 939 -900 
Q 619 -1281 -91 -1281 
L -331 -1281 
L -331 -750 
L -134 -750 
Q 284 -750 456 -515 
Q 628 -281 628 325 
L 628 4666 
z
" transform="scale(0.015625)"/>
       </defs>
       <use xlink:href="#DejaVuSans-4a"/>
       <use xlink:href="#DejaVuSans-4e" transform="translate(29.492188 0)"/>
       <use xlink:href="#DejaVuSans-4a" transform="translate(104.296875 0)"/>
      </g>
     </g>
    </g>
    <g id="ytick_18">
     <g id="line2d_23">
      <g>
       <use xlink:href="#md724013568" x="90" y="481.977181" style="stroke: #000000; stroke-width: 0.8"/>
      </g>
     </g>
     <g id="text_23">
      <!-- JPM -->
      <g transform="translate(65.392188 485.7764) scale(0.1 -0.1)">
       <use xlink:href="#DejaVuSans-4a"/>
       <use xlink:href="#DejaVuSans-50" transform="translate(29.492188 0)"/>
       <use xlink:href="#DejaVuSans-4d" transform="translate(89.794922 0)"/>
      </g>
     </g>
    </g>
    <g id="ytick_19">
     <g id="line2d_24">
      <g>
       <use xlink:href="#md724013568" x="90" y="456.608054" style="stroke: #000000; stroke-width: 0.8"/>
      </g>
     </g>
     <g id="text_24">
      <!-- KO -->
      <g transform="translate(69.120312 460.407272) scale(0.1 -0.1)">
       <defs>
        <path id="DejaVuSans-4b" d="M 628 4666 
L 1259 4666 
L 1259 2694 
L 3353 4666 
L 4166 4666 
L 1850 2491 
L 4331 0 
L 3500 0 
L 1259 2247 
L 1259 0 
L 628 0 
L 628 4666 
z
" transform="scale(0.015625)"/>
       </defs>
       <use xlink:href="#DejaVuSans-4b"/>
       <use xlink:href="#DejaVuSans-4f" transform="translate(60.076172 0)"/>
      </g>
     </g>
    </g>
    <g id="ytick_20">
     <g id="line2d_25">
      <g>
       <use xlink:href="#md724013568" x="90" y="431.238926" style="stroke: #000000; stroke-width: 0.8"/>
      </g>
     </g>
     <g id="text_25">
      <!-- MCD -->
      <g transform="translate(59.689062 435.038145) scale(0.1 -0.1)">
       <use xlink:href="#DejaVuSans-4d"/>
       <use xlink:href="#DejaVuSans-43" transform="translate(86.279297 0)"/>
       <use xlink:href="#DejaVuSans-44" transform="translate(156.103516 0)"/>
      </g>
     </g>
    </g>
    <g id="ytick_21">
     <g id="line2d_26">
      <g>
       <use xlink:href="#md724013568" x="90" y="405.869799" style="stroke: #000000; stroke-width: 0.8"/>
      </g>
     </g>
     <g id="text_26">
      <!-- MMM -->
      <g transform="translate(57.115625 409.669017) scale(0.1 -0.1)">
       <use xlink:href="#DejaVuSans-4d"/>
       <use xlink:href="#DejaVuSans-4d" transform="translate(86.279297 0)"/>
       <use xlink:href="#DejaVuSans-4d" transform="translate(172.558594 0)"/>
      </g>
     </g>
    </g>
    <g id="ytick_22">
     <g id="line2d_27">
      <g>
       <use xlink:href="#md724013568" x="90" y="380.500671" style="stroke: #000000; stroke-width: 0.8"/>
      </g>
     </g>
     <g id="text_27">
      <!-- MRK -->
      <g transform="translate(60.865625 384.29989) scale(0.1 -0.1)">
       <use xlink:href="#DejaVuSans-4d"/>
       <use xlink:href="#DejaVuSans-52" transform="translate(86.279297 0)"/>
       <use xlink:href="#DejaVuSans-4b" transform="translate(155.761719 0)"/>
      </g>
     </g>
    </g>
    <g id="ytick_23">
     <g id="line2d_28">
      <g>
       <use xlink:href="#md724013568" x="90" y="355.131544" style="stroke: #000000; stroke-width: 0.8"/>
      </g>
     </g>
     <g id="text_28">
      <!-- MSFT -->
      <g transform="translate(56.339062 358.930762) scale(0.1 -0.1)">
       <defs>
        <path id="DejaVuSans-46" d="M 628 4666 
L 3309 4666 
L 3309 4134 
L 1259 4134 
L 1259 2759 
L 3109 2759 
L 3109 2228 
L 1259 2228 
L 1259 0 
L 628 0 
L 628 4666 
z
" transform="scale(0.015625)"/>
       </defs>
       <use xlink:href="#DejaVuSans-4d"/>
       <use xlink:href="#DejaVuSans-53" transform="translate(86.279297 0)"/>
       <use xlink:href="#DejaVuSans-46" transform="translate(149.755859 0)"/>
       <use xlink:href="#DejaVuSans-54" transform="translate(205.525391 0)"/>
      </g>
     </g>
    </g>
    <g id="ytick_24">
     <g id="line2d_29">
      <g>
       <use xlink:href="#md724013568" x="90" y="329.762416" style="stroke: #000000; stroke-width: 0.8"/>
      </g>
     </g>
     <g id="text_29">
      <!-- NKE -->
      <g transform="translate(62.642187 333.561635) scale(0.1 -0.1)">
       <defs>
        <path id="DejaVuSans-45" d="M 628 4666 
L 3578 4666 
L 3578 4134 
L 1259 4134 
L 1259 2753 
L 3481 2753 
L 3481 2222 
L 1259 2222 
L 1259 531 
L 3634 531 
L 3634 0 
L 628 0 
L 628 4666 
z
" transform="scale(0.015625)"/>
       </defs>
       <use xlink:href="#DejaVuSans-4e"/>
       <use xlink:href="#DejaVuSans-4b" transform="translate(74.804688 0)"/>
       <use xlink:href="#DejaVuSans-45" transform="translate(140.380859 0)"/>
      </g>
     </g>
    </g>
    <g id="ytick_25">
     <g id="line2d_30">
      <g>
       <use xlink:href="#md724013568" x="90" y="304.393289" style="stroke: #000000; stroke-width: 0.8"/>
      </g>
     </g>
     <g id="text_30">
      <!-- PG -->
      <g transform="translate(69.221875 308.192507) scale(0.1 -0.1)">
       <use xlink:href="#DejaVuSans-50"/>
       <use xlink:href="#DejaVuSans-47" transform="translate(60.302734 0)"/>
      </g>
     </g>
    </g>
    <g id="ytick_26">
     <g id="line2d_31">
      <g>
       <use xlink:href="#md724013568" x="90" y="279.024161" style="stroke: #000000; stroke-width: 0.8"/>
      </g>
     </g>
     <g id="text_31">
      <!-- TRV -->
      <g transform="translate(63.653125 282.82338) scale(0.1 -0.1)">
       <use xlink:href="#DejaVuSans-54"/>
       <use xlink:href="#DejaVuSans-52" transform="translate(61.083984 0)"/>
       <use xlink:href="#DejaVuSans-56" transform="translate(125.066406 0)"/>
      </g>
     </g>
    </g>
    <g id="ytick_27">
     <g id="line2d_32">
      <g>
       <use xlink:href="#md724013568" x="90" y="253.655034" style="stroke: #000000; stroke-width: 0.8"/>
      </g>
     </g>
     <g id="text_32">
      <!-- UNH -->
      <g transform="translate(60.679688 257.454252) scale(0.1 -0.1)">
       <defs>
        <path id="DejaVuSans-55" d="M 556 4666 
L 1191 4666 
L 1191 1831 
Q 1191 1081 1462 751 
Q 1734 422 2344 422 
Q 2950 422 3222 751 
Q 3494 1081 3494 1831 
L 3494 4666 
L 4128 4666 
L 4128 1753 
Q 4128 841 3676 375 
Q 3225 -91 2344 -91 
Q 1459 -91 1007 375 
Q 556 841 556 1753 
L 556 4666 
z
" transform="scale(0.015625)"/>
       </defs>
       <use xlink:href="#DejaVuSans-55"/>
       <use xlink:href="#DejaVuSans-4e" transform="translate(73.193359 0)"/>
       <use xlink:href="#DejaVuSans-48" transform="translate(147.998047 0)"/>
      </g>
     </g>
    </g>
    <g id="ytick_28">
     <g id="line2d_33">
      <g>
       <use xlink:href="#md724013568" x="90" y="228.285906" style="stroke: #000000; stroke-width: 0.8"/>
      </g>
     </g>
     <g id="text_33">
      <!-- V -->
      <g transform="translate(76.159375 232.085125) scale(0.1 -0.1)">
       <use xlink:href="#DejaVuSans-56"/>
      </g>
     </g>
    </g>
    <g id="ytick_29">
     <g id="line2d_34">
      <g>
       <use xlink:href="#md724013568" x="90" y="202.916779" style="stroke: #000000; stroke-width: 0.8"/>
      </g>
     </g>
     <g id="text_34">
      <!-- VZ -->
      <g transform="translate(69.309375 206.715997) scale(0.1 -0.1)">
       <use xlink:href="#DejaVuSans-56"/>
       <use xlink:href="#DejaVuSans-5a" transform="translate(68.408203 0)"/>
      </g>
     </g>
    </g>
    <g id="ytick_30">
     <g id="line2d_35">
      <g>
       <use xlink:href="#md724013568" x="90" y="177.547651" style="stroke: #000000; stroke-width: 0.8"/>
      </g>
     </g>
     <g id="text_35">
      <!-- WMT -->
      <g transform="translate(58.376562 181.34687) scale(0.1 -0.1)">
       <use xlink:href="#DejaVuSans-57"/>
       <use xlink:href="#DejaVuSans-4d" transform="translate(98.876953 0)"/>
       <use xlink:href="#DejaVuSans-54" transform="translate(185.15625 0)"/>
      </g>
     </g>
    </g>
   </g>
   <g id="line2d_36">
    <path d="M 369 961.2 
L 369 129.6 
" clip-path="url(#pee3d597a1b)" style="fill: none; stroke-dasharray: 5.55,2.4; stroke-dashoffset: 0; stroke: #000000; stroke-width: 1.5"/>
   </g>
   <g id="patch_63">
    <path d="M 90 961.2 
L 90 129.6 
" style="fill: none; stroke: #000000; stroke-width: 0.8; stroke-linejoin: miter; stroke-linecap: square"/>
   </g>
   <g id="patch_64">
    <path d="M 648 961.2 
L 648 129.6 
" style="fill: none; stroke: #000000; stroke-width: 0.8; stroke-linejoin: miter; stroke-linecap: square"/>
   </g>
   <g id="patch_65">
    <path d="M 90 961.2 
L 648 961.2 
" style="fill: none; stroke: #000000; stroke-width: 0.8; stroke-linejoin: miter; stroke-linecap: square"/>
   </g>
   <g id="patch_66">
    <path d="M 90 129.6 
L 648 129.6 
" style="fill: none; stroke: #000000; stroke-width: 0.8; stroke-linejoin: miter; stroke-linecap: square"/>
   </g>
   <g id="text_36">
    <!-- ✗ -->
    <g style="fill: #ffffff" transform="translate(593.489402 921.085549) scale(0.1 -0.1)">
     <defs>
      <path id="DejaVuSans-2717" d="M 3975 4688 
Q 4006 4688 4056 4638 
Q 4109 4588 4166 4506 
Q 4256 4666 4309 4666 
Q 4356 4666 4438 4581 
Q 4488 4528 4488 4463 
Q 4488 4378 4419 4306 
Q 3769 3600 3156 2753 
Q 3409 2134 3856 1388 
Q 3894 1325 3894 1288 
Q 3894 1216 3800 1138 
L 3700 1069 
Q 3713 1031 3713 969 
Q 3713 875 3644 825 
Q 3563 769 3525 769 
Q 3444 769 3381 850 
Q 3006 1331 2606 1981 
Q 2069 1281 1375 113 
Q 1275 -56 1038 -56 
Q 925 -56 913 75 
Q 753 163 753 353 
Q 753 603 788 700 
Q 803 744 888 875 
Q 1525 1869 2238 2700 
Q 1856 3606 1731 4097 
Q 1703 4206 1703 4238 
Q 1703 4281 1759 4363 
Q 1819 4444 1869 4444 
Q 1916 4444 1988 4353 
Q 2016 4406 2056 4444 
Q 2113 4494 2200 4494 
Q 2300 4494 2331 4400 
Q 2500 3875 2775 3400 
Q 3219 3975 3856 4613 
Q 3931 4688 3975 4688 
z
" transform="scale(0.015625)"/>
     </defs>
     <use xlink:href="#DejaVuSans-2717"/>
    </g>
   </g>
   <g id="text_37">
    <!-- ✗ -->
    <g style="fill: #ffffff" transform="translate(504.5651 895.716422) scale(0.1 -0.1)">
     <use xlink:href="#DejaVuSans-2717"/>
    </g>
   </g>
   <g id="text_38">
    <!-- ✓ -->
    <g style="fill: #ffffff" transform="translate(448.98741 870.347294) scale(0.1 -0.1)">
     <defs>
      <path id="DejaVuSans-2713" d="M 1416 2044 
Q 1538 2044 1600 1844 
Q 1725 1469 1778 1469 
Q 1819 1469 1863 1531 
Q 2741 2938 3488 3806 
Q 3681 4031 4103 4031 
Q 4203 4031 4237 4012 
Q 4272 3994 4272 3966 
Q 4272 3922 4169 3794 
Q 2963 2344 1931 731 
Q 1859 619 1638 619 
Q 1413 619 1372 638 
Q 1266 684 1122 1116 
Q 959 1594 959 1716 
Q 959 1847 1178 1969 
Q 1313 2044 1416 2044 
z
" transform="scale(0.015625)"/>
     </defs>
     <use xlink:href="#DejaVuSans-2713"/>
    </g>
   </g>
   <g id="text_39">
    <!-- ✓ -->
    <g style="fill: #ffffff" transform="translate(448.98741 844.978167) scale(0.1 -0.1)">
     <use xlink:href="#DejaVuSans-2713"/>
    </g>
   </g>
   <g id="text_40">
    <!-- ✓ -->
    <g style="fill: #ffffff" transform="translate(271.138805 819.609039) scale(0.1 -0.1)">
     <use xlink:href="#DejaVuSans-2713"/>
    </g>
   </g>
   <g id="text_41">
    <!-- ✓ -->
    <g style="fill: #ffffff" transform="translate(426.756335 794.239912) scale(0.1 -0.1)">
     <use xlink:href="#DejaVuSans-2713"/>
    </g>
   </g>
   <g id="text_42">
    <!-- ✓ -->
    <g style="fill: #ffffff" transform="translate(493.449562 768.870784) scale(0.1 -0.1)">
     <use xlink:href="#DejaVuSans-2713"/>
    </g>
   </g>
   <g id="text_43">
    <!-- ✗ -->
    <g style="fill: #ffffff" transform="translate(604.60494 743.501657) scale(0.1 -0.1)">
     <use xlink:href="#DejaVuSans-2717"/>
    </g>
   </g>
   <g id="text_44">
    <!-- ✓ -->
    <g style="fill: #ffffff" transform="translate(360.063108 718.132529) scale(0.1 -0.1)">
     <use xlink:href="#DejaVuSans-2713"/>
    </g>
   </g>
   <g id="text_45">
    <!-- ✓ -->
    <g style="fill: #ffffff" transform="translate(371.178645 692.763402) scale(0.1 -0.1)">
     <use xlink:href="#DejaVuSans-2713"/>
    </g>
   </g>
   <g id="text_46">
    <!-- ✗ -->
    <g style="fill: #ffffff" transform="translate(526.796175 667.394274) scale(0.1 -0.1)">
     <use xlink:href="#DejaVuSans-2717"/>
    </g>
   </g>
   <g id="text_47">
    <!-- ✓ -->
    <g style="fill: #ffffff" transform="translate(382.294183 642.025147) scale(0.1 -0.1)">
     <use xlink:href="#DejaVuSans-2713"/>
    </g>
   </g>
   <g id="text_48">
    <!-- ✓ -->
    <g style="fill: #ffffff" transform="translate(448.98741 616.656019) scale(0.1 -0.1)">
     <use xlink:href="#DejaVuSans-2713"/>
    </g>
   </g>
   <g id="text_49">
    <!-- ✓ -->
    <g style="fill: #ffffff" transform="translate(482.334024 591.286892) scale(0.1 -0.1)">
     <use xlink:href="#DejaVuSans-2713"/>
    </g>
   </g>
   <g id="text_50">
    <!-- ✗ -->
    <g style="fill: #ffffff" transform="translate(549.027251 565.917764) scale(0.1 -0.1)">
     <use xlink:href="#DejaVuSans-2717"/>
    </g>
   </g>
   <g id="text_51">
    <!-- ✓ -->
    <g style="fill: #ffffff" transform="translate(371.178645 540.548637) scale(0.1 -0.1)">
     <use xlink:href="#DejaVuSans-2713"/>
    </g>
   </g>
   <g id="text_52">
    <!-- ✓ -->
    <g style="fill: #ffffff" transform="translate(426.756335 515.179509) scale(0.1 -0.1)">
     <use xlink:href="#DejaVuSans-2713"/>
    </g>
   </g>
   <g id="text_53">
    <!-- ✓ -->
    <g style="fill: #ffffff" transform="translate(382.294183 489.810382) scale(0.1 -0.1)">
     <use xlink:href="#DejaVuSans-2713"/>
    </g>
   </g>
   <g id="text_54">
    <!-- ✗ -->
    <g style="fill: #ffffff" transform="translate(504.5651 464.441254) scale(0.1 -0.1)">
     <use xlink:href="#DejaVuSans-2717"/>
    </g>
   </g>
   <g id="text_55">
    <!-- ✗ -->
    <g style="fill: #ffffff" transform="translate(515.680637 439.072127) scale(0.1 -0.1)">
     <use xlink:href="#DejaVuSans-2717"/>
    </g>
   </g>
   <g id="text_56">
    <!-- ✓ -->
    <g style="fill: #ffffff" transform="translate(360.063108 413.702999) scale(0.1 -0.1)">
     <use xlink:href="#DejaVuSans-2713"/>
    </g>
   </g>
   <g id="text_57">
    <!-- ✗ -->
    <g style="fill: #ffffff" transform="translate(560.142789 388.333872) scale(0.1 -0.1)">
     <use xlink:href="#DejaVuSans-2717"/>
    </g>
   </g>
   <g id="text_58">
    <!-- ✓ -->
    <g style="fill: #ffffff" transform="translate(404.525259 362.964744) scale(0.1 -0.1)">
     <use xlink:href="#DejaVuSans-2713"/>
    </g>
   </g>
   <g id="text_59">
    <!-- ✓ -->
    <g style="fill: #ffffff" transform="translate(415.640797 337.595617) scale(0.1 -0.1)">
     <use xlink:href="#DejaVuSans-2713"/>
    </g>
   </g>
   <g id="text_60">
    <!-- ✓ -->
    <g style="fill: #ffffff" transform="translate(448.98741 312.226489) scale(0.1 -0.1)">
     <use xlink:href="#DejaVuSans-2713"/>
    </g>
   </g>
   <g id="text_61">
    <!-- ✓ -->
    <g style="fill: #ffffff" transform="translate(460.102948 286.857362) scale(0.1 -0.1)">
     <use xlink:href="#DejaVuSans-2713"/>
    </g>
   </g>
   <g id="text_62">
    <!-- ✗ -->
    <g style="fill: #ffffff" transform="translate(549.027251 261.488234) scale(0.1 -0.1)">
     <use xlink:href="#DejaVuSans-2717"/>
    </g>
   </g>
   <g id="text_63">
    <!-- ✓ -->
    <g style="fill: #ffffff" transform="translate(404.525259 236.119107) scale(0.1 -0.1)">
     <use xlink:href="#DejaVuSans-2713"/>
    </g>
   </g>
   <g id="text_64">
    <!-- ✓ -->
    <g style="fill: #ffffff" transform="translate(415.640797 210.749979) scale(0.1 -0.1)">
     <use xlink:href="#DejaVuSans-2713"/>
    </g>
   </g>
   <g id="text_65">
    <!-- ✗ -->
    <g style="fill: #ffffff" transform="translate(582.373865 185.380852) scale(0.1 -0.1)">
     <use xlink:href="#DejaVuSans-2717"/>
    </g>
   </g>
   <g id="text_66">
    <!-- ✗ -->
    <g style="fill: #ffffff" transform="translate(504.5651 910.937898) scale(0.1 -0.1)">
     <use xlink:href="#DejaVuSans-2717"/>
    </g>
   </g>
   <g id="text_67">
    <!-- ✗ -->
    <g style="fill: #ffffff" transform="translate(537.911713 885.568771) scale(0.1 -0.1)">
     <use xlink:href="#DejaVuSans-2717"/>
    </g>
   </g>
   <g id="text_68">
    <!-- ✓ -->
    <g style="fill: #ffffff" transform="translate(326.716494 860.199643) scale(0.1 -0.1)">
     <use xlink:href="#DejaVuSans-2713"/>
    </g>
   </g>
   <g id="text_69">
    <!-- ✓ -->
    <g style="fill: #ffffff" transform="translate(315.600956 834.830516) scale(0.1 -0.1)">
     <use xlink:href="#DejaVuSans-2713"/>
    </g>
   </g>
   <g id="text_70">
    <!-- ✓ -->
    <g style="fill: #ffffff" transform="translate(337.832032 809.461388) scale(0.1 -0.1)">
     <use xlink:href="#DejaVuSans-2713"/>
    </g>
   </g>
   <g id="text_71">
    <!-- ✓ -->
    <g style="fill: #ffffff" transform="translate(360.063108 784.092261) scale(0.1 -0.1)">
     <use xlink:href="#DejaVuSans-2713"/>
    </g>
   </g>
   <g id="text_72">
    <!-- ✓ -->
    <g style="fill: #ffffff" transform="translate(215.561116 758.723133) scale(0.1 -0.1)">
     <use xlink:href="#DejaVuSans-2713"/>
    </g>
   </g>
   <g id="text_73">
    <!-- ✓ -->
    <g style="fill: #ffffff" transform="translate(471.218486 733.354006) scale(0.1 -0.1)">
     <use xlink:href="#DejaVuSans-2713"/>
    </g>
   </g>
   <g id="text_74">
    <!-- ✓ -->
    <g style="fill: #ffffff" transform="translate(382.294183 707.984878) scale(0.1 -0.1)">
     <use xlink:href="#DejaVuSans-2713"/>
    </g>
   </g>
   <g id="text_75">
    <!-- ✓ -->
    <g style="fill: #ffffff" transform="translate(482.334024 631.877496) scale(0.1 -0.1)">
     <use xlink:href="#DejaVuSans-2713"/>
    </g>
   </g>
   <g id="text_76">
    <!-- ✓ -->
    <g style="fill: #ffffff" transform="translate(348.94757 606.508368) scale(0.1 -0.1)">
     <use xlink:href="#DejaVuSans-2713"/>
    </g>
   </g>
   <g id="text_77">
    <!-- ✗ -->
    <g style="fill: #ffffff" transform="translate(504.5651 581.139241) scale(0.1 -0.1)">
     <use xlink:href="#DejaVuSans-2717"/>
    </g>
   </g>
   <g id="text_78">
    <!-- ✓ -->
    <g style="fill: #ffffff" transform="translate(448.98741 555.770113) scale(0.1 -0.1)">
     <use xlink:href="#DejaVuSans-2713"/>
    </g>
   </g>
   <g id="text_79">
    <!-- ✗ -->
    <g style="fill: #ffffff" transform="translate(193.33004 530.400986) scale(0.1 -0.1)">
     <use xlink:href="#DejaVuSans-2717"/>
    </g>
   </g>
   <g id="text_80">
    <!-- ✓ -->
    <g style="fill: #ffffff" transform="translate(471.218486 505.031858) scale(0.1 -0.1)">
     <use xlink:href="#DejaVuSans-2713"/>
    </g>
   </g>
   <g id="text_81">
    <!-- ✓ -->
    <g style="fill: #ffffff" transform="translate(471.218486 479.662731) scale(0.1 -0.1)">
     <use xlink:href="#DejaVuSans-2713"/>
    </g>
   </g>
   <g id="text_82">
    <!-- ✗ -->
    <g style="fill: #ffffff" transform="translate(515.680637 454.293603) scale(0.1 -0.1)">
     <use xlink:href="#DejaVuSans-2717"/>
    </g>
   </g>
   <g id="text_83">
    <!-- ✗ -->
    <g style="fill: #ffffff" transform="translate(515.680637 428.924476) scale(0.1 -0.1)">
     <use xlink:href="#DejaVuSans-2717"/>
    </g>
   </g>
   <g id="text_84">
    <!-- ✗ -->
    <g style="fill: #ffffff" transform="translate(182.214502 403.555348) scale(0.1 -0.1)">
     <use xlink:href="#DejaVuSans-2717"/>
    </g>
   </g>
   <g id="text_85">
    <!-- ✓ -->
    <g style="fill: #ffffff" transform="translate(471.218486 378.186221) scale(0.1 -0.1)">
     <use xlink:href="#DejaVuSans-2713"/>
    </g>
   </g>
   <g id="text_86">
    <!-- ✓ -->
    <g style="fill: #ffffff" transform="translate(248.907729 352.817093) scale(0.1 -0.1)">
     <use xlink:href="#DejaVuSans-2713"/>
    </g>
   </g>
   <g id="text_87">
    <!-- ✗ -->
    <g style="fill: #ffffff" transform="translate(115.521275 327.447966) scale(0.1 -0.1)">
     <use xlink:href="#DejaVuSans-2717"/>
    </g>
   </g>
   <g id="text_88">
    <!-- ✓ -->
    <g style="fill: #ffffff" transform="translate(437.871873 302.078838) scale(0.1 -0.1)">
     <use xlink:href="#DejaVuSans-2713"/>
    </g>
   </g>
   <g id="text_89">
    <!-- ✗ -->
    <g style="fill: #ffffff" transform="translate(515.680637 276.709711) scale(0.1 -0.1)">
     <use xlink:href="#DejaVuSans-2717"/>
    </g>
   </g>
   <g id="text_90">
    <!-- ✗ -->
    <g style="fill: #ffffff" transform="translate(537.911713 251.340583) scale(0.1 -0.1)">
     <use xlink:href="#DejaVuSans-2717"/>
    </g>
   </g>
   <g id="text_91">
    <!-- ✓ -->
    <g style="fill: #ffffff" transform="translate(460.102948 225.971456) scale(0.1 -0.1)">
     <use xlink:href="#DejaVuSans-2713"/>
    </g>
   </g>
   <g id="text_92">
    <!-- ✓ -->
    <g style="fill: #ffffff" transform="translate(237.792191 200.602328) scale(0.1 -0.1)">
     <use xlink:href="#DejaVuSans-2713"/>
    </g>
   </g>
   <g id="text_93">
    <!-- ✓ -->
    <g style="fill: #ffffff" transform="translate(493.449562 175.233201) scale(0.1 -0.1)">
     <use xlink:href="#DejaVuSans-2713"/>
    </g>
   </g>
   <g id="text_94">
    <!-- PICP by ticker (90% interval) -->
    <g transform="translate(283.190625 123.6) scale(0.12 -0.12)">
     <defs>
      <path id="DejaVuSans-20" transform="scale(0.015625)"/>
      <path id="DejaVuSans-62" d="M 3116 1747 
Q 3116 2381 2855 2742 
Q 2594 3103 2138 3103 
Q 1681 3103 1420 2742 
Q 1159 2381 1159 1747 
Q 1159 1113 1420 752 
Q 1681 391 2138 391 
Q 2594 391 2855 752 
Q 3116 1113 3116 1747 
z
M 1159 2969 
Q 1341 3281 1617 3432 
Q 1894 3584 2278 3584 
Q 2916 3584 3314 3078 
Q 3713 2572 3713 1747 
Q 3713 922 3314 415 
Q 2916 -91 2278 -91 
Q 1894 -91 1617 61 
Q 1341 213 1159 525 
L 1159 0 
L 581 0 
L 581 4863 
L 1159 4863 
L 1159 2969 
z
" transform="scale(0.015625)"/>
      <path id="DejaVuSans-79" d="M 2059 -325 
Q 1816 -950 1584 -1140 
Q 1353 -1331 966 -1331 
L 506 -1331 
L 506 -850 
L 844 -850 
Q 1081 -850 1212 -737 
Q 1344 -625 1503 -206 
L 1606 56 
L 191 3500 
L 800 3500 
L 1894 763 
L 2988 3500 
L 3597 3500 
L 2059 -325 
z
" transform="scale(0.015625)"/>
      <path id="DejaVuSans-74" d="M 1172 4494 
L 1172 3500 
L 2356 3500 
L 2356 3053 
L 1172 3053 
L 1172 1153 
Q 1172 725 1289 603 
Q 1406 481 1766 481 
L 2356 481 
L 2356 0 
L 1766 0 
Q 1100 0 847 248 
Q 594 497 594 1153 
L 594 3053 
L 172 3053 
L 172 3500 
L 594 3500 
L 594 4494 
L 1172 4494 
z
" transform="scale(0.015625)"/>
      <path id="DejaVuSans-69" d="M 603 3500 
L 1178 3500 
L 1178 0 
L 603 0 
L 603 3500 
z
M 603 4863 
L 1178 4863 
L 1178 4134 
L 603 4134 
L 603 4863 
z
" transform="scale(0.015625)"/>
      <path id="DejaVuSans-63" d="M 3122 3366 
L 3122 2828 
Q 2878 2963 2633 3030 
Q 2388 3097 2138 3097 
Q 1578 3097 1268 2742 
Q 959 2388 959 1747 
Q 959 1106 1268 751 
Q 1578 397 2138 397 
Q 2388 397 2633 464 
Q 2878 531 3122 666 
L 3122 134 
Q 2881 22 2623 -34 
Q 2366 -91 2075 -91 
Q 1284 -91 818 406 
Q 353 903 353 1747 
Q 353 2603 823 3093 
Q 1294 3584 2113 3584 
Q 2378 3584 2631 3529 
Q 2884 3475 3122 3366 
z
" transform="scale(0.015625)"/>
      <path id="DejaVuSans-6b" d="M 581 4863 
L 1159 4863 
L 1159 1991 
L 2875 3500 
L 3609 3500 
L 1753 1863 
L 3688 0 
L 2938 0 
L 1159 1709 
L 1159 0 
L 581 0 
L 581 4863 
z
" transform="scale(0.015625)"/>
      <path id="DejaVuSans-65" d="M 3597 1894 
L 3597 1613 
L 953 1613 
Q 991 1019 1311 708 
Q 1631 397 2203 397 
Q 2534 397 2845 478 
Q 3156 559 3463 722 
L 3463 178 
Q 3153 47 2828 -22 
Q 2503 -91 2169 -91 
Q 1331 -91 842 396 
Q 353 884 353 1716 
Q 353 2575 817 3079 
Q 1281 3584 2069 3584 
Q 2775 3584 3186 3129 
Q 3597 2675 3597 1894 
z
M 3022 2063 
Q 3016 2534 2758 2815 
Q 2500 3097 2075 3097 
Q 1594 3097 1305 2825 
Q 1016 2553 972 2059 
L 3022 2063 
z
" transform="scale(0.015625)"/>
      <path id="DejaVuSans-72" d="M 2631 2963 
Q 2534 3019 2420 3045 
Q 2306 3072 2169 3072 
Q 1681 3072 1420 2755 
Q 1159 2438 1159 1844 
L 1159 0 
L 581 0 
L 581 3500 
L 1159 3500 
L 1159 2956 
Q 1341 3275 1631 3429 
Q 1922 3584 2338 3584 
Q 2397 3584 2469 3576 
Q 2541 3569 2628 3553 
L 2631 2963 
z
" transform="scale(0.015625)"/>
      <path id="DejaVuSans-28" d="M 1984 4856 
Q 1566 4138 1362 3434 
Q 1159 2731 1159 2009 
Q 1159 1288 1364 580 
Q 1569 -128 1984 -844 
L 1484 -844 
Q 1016 -109 783 600 
Q 550 1309 550 2009 
Q 550 2706 781 3412 
Q 1013 4119 1484 4856 
L 1984 4856 
z
" transform="scale(0.015625)"/>
      <path id="DejaVuSans-6e" d="M 3513 2113 
L 3513 0 
L 2938 0 
L 2938 2094 
Q 2938 2591 2744 2837 
Q 2550 3084 2163 3084 
Q 1697 3084 1428 2787 
Q 1159 2491 1159 1978 
L 1159 0 
L 581 0 
L 581 3500 
L 1159 3500 
L 1159 2956 
Q 1366 3272 1645 3428 
Q 1925 3584 2291 3584 
Q 2894 3584 3203 3211 
Q 3513 2838 3513 2113 
z
" transform="scale(0.015625)"/>
      <path id="DejaVuSans-76" d="M 191 3500 
L 800 3500 
L 1894 563 
L 2988 3500 
L 3597 3500 
L 2284 0 
L 1503 0 
L 191 3500 
z
" transform="scale(0.015625)"/>
      <path id="DejaVuSans-61" d="M 2194 1759 
Q 1497 1759 1228 1600 
Q 959 1441 959 1056 
Q 959 750 1161 570 
Q 1363 391 1709 391 
Q 2188 391 2477 730 
Q 2766 1069 2766 1631 
L 2766 1759 
L 2194 1759 
z
M 3341 1997 
L 3341 0 
L 2766 0 
L 2766 531 
Q 2569 213 2275 61 
Q 1981 -91 1556 -91 
Q 1019 -91 701 211 
Q 384 513 384 1019 
Q 384 1609 779 1909 
Q 1175 2209 1959 2209 
L 2766 2209 
L 2766 2266 
Q 2766 2663 2505 2880 
Q 2244 3097 1772 3097 
Q 1472 3097 1187 3025 
Q 903 2953 641 2809 
L 641 3341 
Q 956 3463 1253 3523 
Q 1550 3584 1831 3584 
Q 2591 3584 2966 3190 
Q 3341 2797 3341 1997 
z
" transform="scale(0.015625)"/>
      <path id="DejaVuSans-6c" d="M 603 4863 
L 1178 4863 
L 1178 0 
L 603 0 
L 603 4863 
z
" transform="scale(0.015625)"/>
      <path id="DejaVuSans-29" d="M 513 4856 
L 1013 4856 
Q 1481 4119 1714 3412 
Q 1947 2706 1947 2009 
Q 1947 1309 1714 600 
Q 1481 -109 1013 -844 
L 513 -844 
Q 928 -128 1133 580 
Q 1338 1288 1338 2009 
Q 1338 2731 1133 3434 
Q 928 4138 513 4856 
z
" transform="scale(0.015625)"/>
     </defs>
     <use xlink:href="#DejaVuSans-50"/>
     <use xlink:href="#DejaVuSans-49" transform="translate(60.302734 0)"/>
     <use xlink:href="#DejaVuSans-43" transform="translate(89.794922 0)"/>
     <use xlink:href="#DejaVuSans-50" transform="translate(159.619141 0)"/>
     <use xlink:href="#DejaVuSans-20" transform="translate(219.921875 0)"/>
     <use xlink:href="#DejaVuSans-62" transform="translate(251.708984 0)"/>
     <use xlink:href="#DejaVuSans-79" transform="translate(315.185547 0)"/>
     <use xlink:href="#DejaVuSans-20" transform="translate(374.365234 0)"/>
     <use xlink:href="#DejaVuSans-74" transform="translate(406.152344 0)"/>
     <use xlink:href="#DejaVuSans-69" transform="translate(445.361328 0)"/>
     <use xlink:href="#DejaVuSans-63" transform="translate(473.144531 0)"/>
     <use xlink:href="#DejaVuSans-6b" transform="translate(528.125 0)"/>
     <use xlink:href="#DejaVuSans-65" transform="translate(582.410156 0)"/>
     <use xlink:href="#DejaVuSans-72" transform="translate(643.933594 0)"/>
     <use xlink:href="#DejaVuSans-20" transform="translate(685.046875 0)"/>
     <use xlink:href="#DejaVuSans-28" transform="translate(716.833984 0)"/>
     <use xlink:href="#DejaVuSans-39" transform="translate(755.847656 0)"/>
     <use xlink:href="#DejaVuSans-30" transform="translate(819.470703 0)"/>
     <use xlink:href="#DejaVuSans-25" transform="translate(883.09375 0)"/>
     <use xlink:href="#DejaVuSans-20" transform="translate(978.113281 0)"/>
     <use xlink:href="#DejaVuSans-69" transform="translate(1009.900391 0)"/>
     <use xlink:href="#DejaVuSans-6e" transform="translate(1037.683594 0)"/>
     <use xlink:href="#DejaVuSans-74" transform="translate(1101.0625 0)"/>
     <use xlink:href="#DejaVuSans-65" transform="translate(1140.271484 0)"/>
     <use xlink:href="#DejaVuSans-72" transform="translate(1201.794922 0)"/>
     <use xlink:href="#DejaVuSans-76" transform="translate(1242.908203 0)"/>
     <use xlink:href="#DejaVuSans-61" transform="translate(1302.087891 0)"/>
     <use xlink:href="#DejaVuSans-6c" transform="translate(1363.367188 0)"/>
     <use xlink:href="#DejaVuSans-29" transform="translate(1391.150391 0)"/>
    </g>
   </g>
   <g id="legend_1">
    <g id="patch_67">
     <path d="M 97 181.634375 
L 231.692187 181.634375 
Q 233.692187 181.634375 233.692187 179.634375 
L 233.692187 136.6 
Q 233.692187 134.6 231.692187 134.6 
L 97 134.6 
Q 95 134.6 95 136.6 
L 95 179.634375 
Q 95 181.634375 97 181.634375 
z
" style="fill: #ffffff; opacity: 0.8; stroke: #cccccc; stroke-linejoin: miter"/>
    </g>
    <g id="line2d_37">
     <path d="M 99 142.698437 
L 109 142.698437 
L 119 142.698437 
" style="fill: none; stroke-dasharray: 5.55,2.4; stroke-dashoffset: 0; stroke: #000000; stroke-width: 1.5"/>
    </g>
    <g id="text_95">
     <!-- Target -->
     <g transform="translate(127 146.198437) scale(0.1 -0.1)">
      <defs>
       <path id="DejaVuSans-67" d="M 2906 1791 
Q 2906 2416 2648 2759 
Q 2391 3103 1925 3103 
Q 1463 3103 1205 2759 
Q 947 2416 947 1791 
Q 947 1169 1205 825 
Q 1463 481 1925 481 
Q 2391 481 2648 825 
Q 2906 1169 2906 1791 
z
M 3481 434 
Q 3481 -459 3084 -895 
Q 2688 -1331 1869 -1331 
Q 1566 -1331 1297 -1286 
Q 1028 -1241 775 -1147 
L 775 -588 
Q 1028 -725 1275 -790 
Q 1522 -856 1778 -856 
Q 2344 -856 2625 -561 
Q 2906 -266 2906 331 
L 2906 616 
Q 2728 306 2450 153 
Q 2172 0 1784 0 
Q 1141 0 747 490 
Q 353 981 353 1791 
Q 353 2603 747 3093 
Q 1141 3584 1784 3584 
Q 2172 3584 2450 3431 
Q 2728 3278 2906 2969 
L 2906 3500 
L 3481 3500 
L 3481 434 
z
" transform="scale(0.015625)"/>
      </defs>
      <use xlink:href="#DejaVuSans-54"/>
      <use xlink:href="#DejaVuSans-61" transform="translate(44.583984 0)"/>
      <use xlink:href="#DejaVuSans-72" transform="translate(105.863281 0)"/>
      <use xlink:href="#DejaVuSans-67" transform="translate(145.226562 0)"/>
      <use xlink:href="#DejaVuSans-65" transform="translate(208.703125 0)"/>
      <use xlink:href="#DejaVuSans-74" transform="translate(270.226562 0)"/>
     </g>
    </g>
    <g id="patch_68">
     <path d="M 99 160.876562 
L 119 160.876562 
L 119 153.876562 
L 99 153.876562 
z
" style="fill: #1f77b4"/>
    </g>
    <g id="text_96">
     <!-- GARCH -->
     <g transform="translate(127 160.876562) scale(0.1 -0.1)">
      <use xlink:href="#DejaVuSans-47"/>
      <use xlink:href="#DejaVuSans-41" transform="translate(77.490234 0)"/>
      <use xlink:href="#DejaVuSans-52" transform="translate(145.898438 0)"/>
      <use xlink:href="#DejaVuSans-43" transform="translate(210.380859 0)"/>
      <use xlink:href="#DejaVuSans-48" transform="translate(280.205078 0)"/>
     </g>
    </g>
    <g id="patch_69">
     <path d="M 99 175.554688 
L 119 175.554688 
L 119 168.554688 
L 99 168.554688 
z
" style="fill: #ff7f0e"/>
    </g>
    <g id="text_97">
     <!-- LSTM MDN rv-data-2 -->
     <g transform="translate(127 175.554688) scale(0.1 -0.1)">
      <defs>
       <path id="DejaVuSans-2d" d="M 313 2009 
L 1997 2009 
L 1997 1497 
L 313 1497 
L 313 2009 
z
" transform="scale(0.015625)"/>
       <path id="DejaVuSans-64" d="M 2906 2969 
L 2906 4863 
L 3481 4863 
L 3481 0 
L 2906 0 
L 2906 525 
Q 2725 213 2448 61 
Q 2172 -91 1784 -91 
Q 1150 -91 751 415 
Q 353 922 353 1747 
Q 353 2572 751 3078 
Q 1150 3584 1784 3584 
Q 2172 3584 2448 3432 
Q 2725 3281 2906 2969 
z
M 947 1747 
Q 947 1113 1208 752 
Q 1469 391 1925 391 
Q 2381 391 2643 752 
Q 2906 1113 2906 1747 
Q 2906 2381 2643 2742 
Q 2381 3103 1925 3103 
Q 1469 3103 1208 2742 
Q 947 2381 947 1747 
z
" transform="scale(0.015625)"/>
      </defs>
      <use xlink:href="#DejaVuSans-4c"/>
      <use xlink:href="#DejaVuSans-53" transform="translate(55.712891 0)"/>
      <use xlink:href="#DejaVuSans-54" transform="translate(119.189453 0)"/>
      <use xlink:href="#DejaVuSans-4d" transform="translate(180.273438 0)"/>
      <use xlink:href="#DejaVuSans-20" transform="translate(266.552734 0)"/>
      <use xlink:href="#DejaVuSans-4d" transform="translate(298.339844 0)"/>
      <use xlink:href="#DejaVuSans-44" transform="translate(384.619141 0)"/>
      <use xlink:href="#DejaVuSans-4e" transform="translate(461.621094 0)"/>
      <use xlink:href="#DejaVuSans-20" transform="translate(536.425781 0)"/>
      <use xlink:href="#DejaVuSans-72" transform="translate(568.212891 0)"/>
      <use xlink:href="#DejaVuSans-76" transform="translate(609.326172 0)"/>
      <use xlink:href="#DejaVuSans-2d" transform="translate(665.880859 0)"/>
      <use xlink:href="#DejaVuSans-64" transform="translate(701.964844 0)"/>
      <use xlink:href="#DejaVuSans-61" transform="translate(765.441406 0)"/>
      <use xlink:href="#DejaVuSans-74" transform="translate(826.720703 0)"/>
      <use xlink:href="#DejaVuSans-61" transform="translate(865.929688 0)"/>
      <use xlink:href="#DejaVuSans-2d" transform="translate(927.208984 0)"/>
      <use xlink:href="#DejaVuSans-32" transform="translate(963.292969 0)"/>
     </g>
    </g>
   </g>
  </g>
 </g>
 <defs>
  <clipPath id="pee3d597a1b">
   <rect x="90" y="129.6" width="558" height="831.6"/>
  </clipPath>
 </defs>
</svg>
