<?xml version="1.0" encoding="utf-8" standalone="no"?>
<!DOCTYPE svg PUBLIC "-//W3C//DTD SVG 1.1//EN"
  "http://www.w3.org/Graphics/SVG/1.1/DTD/svg11.dtd">
<svg xmlns:xlink="http://www.w3.org/1999/xlink" width="720pt" height="1044pt" viewBox="0 0 720 1044" xmlns="http://www.w3.org/2000/svg" version="1.1">
 <metadata>
  <rdf:RDF xmlns:dc="http://purl.org/dc/elements/1.1/" xmlns:cc="http://creativecommons.org/ns#" xmlns:rdf="http://www.w3.org/1999/02/22-rdf-syntax-ns#">
   <cc:Work>
    <dc:type rdf:resource="http://purl.org/dc/dcmitype/StillImage"/>
    <dc:date>2025-03-31T18:41:32.323771</dc:date>
    <dc:format>image/svg+xml</dc:format>
    <dc:creator>
     <cc:Agent>
      <dc:title>Matplotlib v3.10.1, https://matplotlib.org/</dc:title>
     </cc:Agent>
    </dc:creator>
   </cc:Work>
  </rdf:RDF>
 </metadata>
 <defs>
  <style type="text/css">*{stroke-linejoin: round; stroke-linecap: butt}</style>
 </defs>
 <g id="figure_1">
  <g id="patch_1">
   <path d="M 0 1044 
L 720 1044 
L 720 0 
L 0 0 
z
" style="fill: #ffffff"/>
  </g>
  <g id="axes_1">
   <g id="patch_2">
    <path d="M 90 929.16 
L 648 929.16 
L 648 125.28 
L 90 125.28 
z
" style="fill: #ffffff"/>
   </g>
   <g id="patch_3">
    <path d="M -1500.3 892.62 
L 760.407395 892.62 
L 760.407395 882.47 
L -1500.3 882.47 
z
" clip-path="url(#pcfcc3921f2)" style="fill: #1f77b4"/>
   </g>
   <g id="patch_4">
    <path d="M -1500.3 867.245 
L 670.696785 867.245 
L 670.696785 857.095 
L -1500.3 857.095 
z
" clip-path="url(#pcfcc3921f2)" style="fill: #1f77b4"/>
   </g>
   <g id="patch_5">
    <path d="M -1500.3 841.87 
L 733.494212 841.87 
L 733.494212 831.72 
L -1500.3 831.72 
z
" clip-path="url(#pcfcc3921f2)" style="fill: #1f77b4"/>
   </g>
   <g id="patch_6">
    <path d="M -1500.3 816.495 
L 527.159807 816.495 
L 527.159807 806.345 
L -1500.3 806.345 
z
" clip-path="url(#pcfcc3921f2)" style="fill: #1f77b4"/>
   </g>
   <g id="patch_7">
    <path d="M -1500.3 791.12 
L 589.957235 791.12 
L 589.957235 780.97 
L -1500.3 780.97 
z
" clip-path="url(#pcfcc3921f2)" style="fill: #1f77b4"/>
   </g>
   <g id="patch_8">
    <path d="M -1500.3 765.745 
L 652.754662 765.745 
L 652.754662 755.595 
L -1500.3 755.595 
z
" clip-path="url(#pcfcc3921f2)" style="fill: #1f77b4"/>
   </g>
   <g id="patch_9">
    <path d="M -1500.3 740.37 
L 625.841479 740.37 
L 625.841479 730.22 
L -1500.3 730.22 
z
" clip-path="url(#pcfcc3921f2)" style="fill: #1f77b4"/>
   </g>
   <g id="patch_10">
    <path d="M -1500.3 714.995 
L 832.175884 714.995 
L 832.175884 704.845 
L -1500.3 704.845 
z
" clip-path="url(#pcfcc3921f2)" style="fill: #1f77b4"/>
   </g>
   <g id="patch_11">
    <path d="M -1500.3 689.62 
L 536.130868 689.62 
L 536.130868 679.47 
L -1500.3 679.47 
z
" clip-path="url(#pcfcc3921f2)" style="fill: #1f77b4"/>
   </g>
   <g id="patch_12">
    <path d="M -1500.3 664.245 
L 634.81254 664.245 
L 634.81254 654.095 
L -1500.3 654.095 
z
" clip-path="url(#pcfcc3921f2)" style="fill: #1f77b4"/>
   </g>
   <g id="patch_13">
    <path d="M -1500.3 638.87 
L 545.101929 638.87 
L 545.101929 628.72 
L -1500.3 628.72 
z
" clip-path="url(#pcfcc3921f2)" style="fill: #1f77b4"/>
   </g>
   <g id="patch_14">
    <path d="M -1500.3 613.495 
L 643.783601 613.495 
L 643.783601 603.345 
L -1500.3 603.345 
z
" clip-path="url(#pcfcc3921f2)" style="fill: #1f77b4"/>
   </g>
   <g id="patch_15">
    <path d="M -1500.3 588.12 
L 572.015113 588.12 
L 572.015113 577.97 
L -1500.3 577.97 
z
" clip-path="url(#pcfcc3921f2)" style="fill: #1f77b4"/>
   </g>
   <g id="patch_16">
    <path d="M -1500.3 562.745 
L 688.638907 562.745 
L 688.638907 552.595 
L -1500.3 552.595 
z
" clip-path="url(#pcfcc3921f2)" style="fill: #1f77b4"/>
   </g>
   <g id="patch_17">
    <path d="M -1500.3 537.37 
L 554.07299 537.37 
L 554.07299 527.22 
L -1500.3 527.22 
z
" clip-path="url(#pcfcc3921f2)" style="fill: #1f77b4"/>
   </g>
   <g id="patch_18">
    <path d="M -1500.3 511.995 
L 598.928296 511.995 
L 598.928296 501.845 
L -1500.3 501.845 
z
" clip-path="url(#pcfcc3921f2)" style="fill: #1f77b4"/>
   </g>
   <g id="patch_19">
    <path d="M -1500.3 486.62 
L 616.870418 486.62 
L 616.870418 476.47 
L -1500.3 476.47 
z
" clip-path="url(#pcfcc3921f2)" style="fill: #1f77b4"/>
   </g>
   <g id="patch_20">
    <path d="M -1500.3 461.245 
L 616.870418 461.245 
L 616.870418 451.095 
L -1500.3 451.095 
z
" clip-path="url(#pcfcc3921f2)" style="fill: #1f77b4"/>
   </g>
   <g id="patch_21">
    <path d="M -1500.3 435.87 
L 580.986174 435.87 
L 580.986174 425.72 
L -1500.3 425.72 
z
" clip-path="url(#pcfcc3921f2)" style="fill: #1f77b4"/>
   </g>
   <g id="patch_22">
    <path d="M -1500.3 410.495 
L 580.986174 410.495 
L 580.986174 400.345 
L -1500.3 400.345 
z
" clip-path="url(#pcfcc3921f2)" style="fill: #1f77b4"/>
   </g>
   <g id="patch_23">
    <path d="M -1500.3 385.12 
L 742.465273 385.12 
L 742.465273 374.97 
L -1500.3 374.97 
z
" clip-path="url(#pcfcc3921f2)" style="fill: #1f77b4"/>
   </g>
   <g id="patch_24">
    <path d="M -1500.3 359.745 
L 464.362379 359.745 
L 464.362379 349.595 
L -1500.3 349.595 
z
" clip-path="url(#pcfcc3921f2)" style="fill: #1f77b4"/>
   </g>
   <g id="patch_25">
    <path d="M -1500.3 334.37 
L 706.581029 334.37 
L 706.581029 324.22 
L -1500.3 324.22 
z
" clip-path="url(#pcfcc3921f2)" style="fill: #1f77b4"/>
   </g>
   <g id="patch_26">
    <path d="M -1500.3 308.995 
L 625.841479 308.995 
L 625.841479 298.845 
L -1500.3 298.845 
z
" clip-path="url(#pcfcc3921f2)" style="fill: #1f77b4"/>
   </g>
   <g id="patch_27">
    <path d="M -1500.3 283.62 
L 616.870418 283.62 
L 616.870418 273.47 
L -1500.3 273.47 
z
" clip-path="url(#pcfcc3921f2)" style="fill: #1f77b4"/>
   </g>
   <g id="patch_28">
    <path d="M -1500.3 258.245 
L 778.349518 258.245 
L 778.349518 248.095 
L -1500.3 248.095 
z
" clip-path="url(#pcfcc3921f2)" style="fill: #1f77b4"/>
   </g>
   <g id="patch_29">
    <path d="M -1500.3 232.87 
L 688.638907 232.87 
L 688.638907 222.72 
L -1500.3 222.72 
z
" clip-path="url(#pcfcc3921f2)" style="fill: #1f77b4"/>
   </g>
   <g id="patch_30">
    <path d="M -1500.3 207.495 
L 580.986174 207.495 
L 580.986174 197.345 
L -1500.3 197.345 
z
" clip-path="url(#pcfcc3921f2)" style="fill: #1f77b4"/>
   </g>
   <g id="patch_31">
    <path d="M -1500.3 182.12 
L 733.494212 182.12 
L 733.494212 171.97 
L -1500.3 171.97 
z
" clip-path="url(#pcfcc3921f2)" style="fill: #1f77b4"/>
   </g>
   <g id="patch_32">
    <path d="M -1500.3 882.47 
L 575.46 882.47 
L 575.46 872.32 
L -1500.3 872.32 
z
" clip-path="url(#pcfcc3921f2)" style="fill: #ff7f0e"/>
   </g>
   <g id="patch_33">
    <path d="M -1500.3 857.095 
L 441.54 857.095 
L 441.54 846.945 
L -1500.3 846.945 
z
" clip-path="url(#pcfcc3921f2)" style="fill: #ff7f0e"/>
   </g>
   <g id="patch_34">
    <path d="M -1500.3 831.72 
L 229.5 831.72 
L 229.5 821.57 
L -1500.3 821.57 
z
" clip-path="url(#pcfcc3921f2)" style="fill: #ff7f0e"/>
   </g>
   <g id="patch_35">
    <path d="M -1500.3 806.345 
L 251.82 806.345 
L 251.82 796.195 
L -1500.3 796.195 
z
" clip-path="url(#pcfcc3921f2)" style="fill: #ff7f0e"/>
   </g>
   <g id="patch_36">
    <path d="M -1500.3 780.97 
L 508.5 780.97 
L 508.5 770.82 
L -1500.3 770.82 
z
" clip-path="url(#pcfcc3921f2)" style="fill: #ff7f0e"/>
   </g>
   <g id="patch_37">
    <path d="M -1500.3 755.595 
L 430.38 755.595 
L 430.38 745.445 
L -1500.3 745.445 
z
" clip-path="url(#pcfcc3921f2)" style="fill: #ff7f0e"/>
   </g>
   <g id="patch_38">
    <path d="M -1500.3 730.22 
L 229.5 730.22 
L 229.5 720.07 
L -1500.3 720.07 
z
" clip-path="url(#pcfcc3921f2)" style="fill: #ff7f0e"/>
   </g>
   <g id="patch_39">
    <path d="M -1500.3 704.845 
L 475.02 704.845 
L 475.02 694.695 
L -1500.3 694.695 
z
" clip-path="url(#pcfcc3921f2)" style="fill: #ff7f0e"/>
   </g>
   <g id="patch_40">
    <path d="M -1500.3 679.47 
L 441.54 679.47 
L 441.54 669.32 
L -1500.3 669.32 
z
" clip-path="url(#pcfcc3921f2)" style="fill: #ff7f0e"/>
   </g>
   <g id="patch_41">
    <path d="M -1500.3 654.095 
L 296.46 654.095 
L 296.46 643.945 
L -1500.3 643.945 
z
" clip-path="url(#pcfcc3921f2)" style="fill: #ff7f0e"/>
   </g>
   <g id="patch_42">
    <path d="M -1500.3 628.72 
L 396.9 628.72 
L 396.9 618.57 
L -1500.3 618.57 
z
" clip-path="url(#pcfcc3921f2)" style="fill: #ff7f0e"/>
   </g>
   <g id="patch_43">
    <path d="M -1500.3 603.345 
L 452.7 603.345 
L 452.7 593.195 
L -1500.3 593.195 
z
" clip-path="url(#pcfcc3921f2)" style="fill: #ff7f0e"/>
   </g>
   <g id="patch_44">
    <path d="M -1500.3 577.97 
L 352.26 577.97 
L 352.26 567.82 
L -1500.3 567.82 
z
" clip-path="url(#pcfcc3921f2)" style="fill: #ff7f0e"/>
   </g>
   <g id="patch_45">
    <path d="M -1500.3 552.595 
L 519.66 552.595 
L 519.66 542.445 
L -1500.3 542.445 
z
" clip-path="url(#pcfcc3921f2)" style="fill: #ff7f0e"/>
   </g>
   <g id="patch_46">
    <path d="M -1500.3 527.22 
L 73.26 527.22 
L 73.26 517.07 
L -1500.3 517.07 
z
" clip-path="url(#pcfcc3921f2)" style="fill: #ff7f0e"/>
   </g>
   <g id="patch_47">
    <path d="M -1500.3 501.845 
L 452.7 501.845 
L 452.7 491.695 
L -1500.3 491.695 
z
" clip-path="url(#pcfcc3921f2)" style="fill: #ff7f0e"/>
   </g>
   <g id="patch_48">
    <path d="M -1500.3 476.47 
L 475.02 476.47 
L 475.02 466.32 
L -1500.3 466.32 
z
" clip-path="url(#pcfcc3921f2)" style="fill: #ff7f0e"/>
   </g>
   <g id="patch_49">
    <path d="M -1500.3 451.095 
L 597.78 451.095 
L 597.78 440.945 
L -1500.3 440.945 
z
" clip-path="url(#pcfcc3921f2)" style="fill: #ff7f0e"/>
   </g>
   <g id="patch_50">
    <path d="M -1500.3 425.72 
L 497.34 425.72 
L 497.34 415.57 
L -1500.3 415.57 
z
" clip-path="url(#pcfcc3921f2)" style="fill: #ff7f0e"/>
   </g>
   <g id="patch_51">
    <path d="M -1500.3 400.345 
L 296.46 400.345 
L 296.46 390.195 
L -1500.3 390.195 
z
" clip-path="url(#pcfcc3921f2)" style="fill: #ff7f0e"/>
   </g>
   <g id="patch_52">
    <path d="M -1500.3 374.97 
L 318.78 374.97 
L 318.78 364.82 
L -1500.3 364.82 
z
" clip-path="url(#pcfcc3921f2)" style="fill: #ff7f0e"/>
   </g>
   <g id="patch_53">
    <path d="M -1500.3 349.595 
L 207.18 349.595 
L 207.18 339.445 
L -1500.3 339.445 
z
" clip-path="url(#pcfcc3921f2)" style="fill: #ff7f0e"/>
   </g>
   <g id="patch_54">
    <path d="M -1500.3 324.22 
L 285.3 324.22 
L 285.3 314.07 
L -1500.3 314.07 
z
" clip-path="url(#pcfcc3921f2)" style="fill: #ff7f0e"/>
   </g>
   <g id="patch_55">
    <path d="M -1500.3 298.845 
L 374.58 298.845 
L 374.58 288.695 
L -1500.3 288.695 
z
" clip-path="url(#pcfcc3921f2)" style="fill: #ff7f0e"/>
   </g>
   <g id="patch_56">
    <path d="M -1500.3 273.47 
L 475.02 273.47 
L 475.02 263.32 
L -1500.3 263.32 
z
" clip-path="url(#pcfcc3921f2)" style="fill: #ff7f0e"/>
   </g>
   <g id="patch_57">
    <path d="M -1500.3 248.095 
L 597.78 248.095 
L 597.78 237.945 
L -1500.3 237.945 
z
" clip-path="url(#pcfcc3921f2)" style="fill: #ff7f0e"/>
   </g>
   <g id="patch_58">
    <path d="M -1500.3 222.72 
L 553.14 222.72 
L 553.14 212.57 
L -1500.3 212.57 
z
" clip-path="url(#pcfcc3921f2)" style="fill: #ff7f0e"/>
   </g>
   <g id="patch_59">
    <path d="M -1500.3 197.345 
L 363.42 197.345 
L 363.42 187.195 
L -1500.3 187.195 
z
" clip-path="url(#pcfcc3921f2)" style="fill: #ff7f0e"/>
   </g>
   <g id="patch_60">
    <path d="M -1500.3 171.97 
L 486.18 171.97 
L 486.18 161.82 
L -1500.3 161.82 
z
" clip-path="url(#pcfcc3921f2)" style="fill: #ff7f0e"/>
   </g>
   <g id="matplotlib.axis_1">
    <g id="xtick_1">
     <g id="line2d_1">
      <defs>
       <path id="medddb64630" d="M 0 0 
L 0 3.5 
" style="stroke: #000000; stroke-width: 0.8"/>
      </defs>
      <g>
       <use xlink:href="#medddb64630" x="103.95" y="929.16" style="stroke: #000000; stroke-width: 0.8"/>
      </g>
     </g>
     <g id="text_1">
      <!-- 57.5% -->
      <g transform="translate(88.066406 943.758438) scale(0.1 -0.1)">
       <defs>
        <path id="DejaVuSans-35" d="M 691 4666 
L 3169 4666 
L 3169 4134 
L 1269 4134 
L 1269 2991 
Q 1406 3038 1543 3061 
Q 1681 3084 1819 3084 
Q 2600 3084 3056 2656 
Q 3513 2228 3513 1497 
Q 3513 744 3044 326 
Q 2575 -91 1722 -91 
Q 1428 -91 1123 -41 
Q 819 9 494 109 
L 494 744 
Q 775 591 1075 516 
Q 1375 441 1709 441 
Q 2250 441 2565 725 
Q 2881 1009 2881 1497 
Q 2881 1984 2565 2268 
Q 2250 2553 1709 2553 
Q 1456 2553 1204 2497 
Q 953 2441 691 2322 
L 691 4666 
z
" transform="scale(0.015625)"/>
        <path id="DejaVuSans-37" d="M 525 4666 
L 3525 4666 
L 3525 4397 
L 1831 0 
L 1172 0 
L 2766 4134 
L 525 4134 
L 525 4666 
z
" transform="scale(0.015625)"/>
        <path id="DejaVuSans-2e" d="M 684 794 
L 1344 794 
L 1344 0 
L 684 0 
L 684 794 
z
" transform="scale(0.015625)"/>
        <path id="DejaVuSans-25" d="M 4653 2053 
Q 4381 2053 4226 1822 
Q 4072 1591 4072 1178 
Q 4072 772 4226 539 
Q 4381 306 4653 306 
Q 4919 306 5073 539 
Q 5228 772 5228 1178 
Q 5228 1588 5073 1820 
Q 4919 2053 4653 2053 
z
M 4653 2450 
Q 5147 2450 5437 2106 
Q 5728 1763 5728 1178 
Q 5728 594 5436 251 
Q 5144 -91 4653 -91 
Q 4153 -91 3862 251 
Q 3572 594 3572 1178 
Q 3572 1766 3864 2108 
Q 4156 2450 4653 2450 
z
M 1428 4353 
Q 1159 4353 1004 4120 
Q 850 3888 850 3481 
Q 850 3069 1003 2837 
Q 1156 2606 1428 2606 
Q 1700 2606 1854 2837 
Q 2009 3069 2009 3481 
Q 2009 3884 1853 4118 
Q 1697 4353 1428 4353 
z
M 4250 4750 
L 4750 4750 
L 1831 -91 
L 1331 -91 
L 4250 4750 
z
M 1428 4750 
Q 1922 4750 2215 4408 
Q 2509 4066 2509 3481 
Q 2509 2891 2217 2550 
Q 1925 2209 1428 2209 
Q 931 2209 642 2551 
Q 353 2894 353 3481 
Q 353 4063 643 4406 
Q 934 4750 1428 4750 
z
" transform="scale(0.015625)"/>
       </defs>
       <use xlink:href="#DejaVuSans-35"/>
       <use xlink:href="#DejaVuSans-37" transform="translate(63.623047 0)"/>
       <use xlink:href="#DejaVuSans-2e" transform="translate(127.246094 0)"/>
       <use xlink:href="#DejaVuSans-35" transform="translate(159.033203 0)"/>
       <use xlink:href="#DejaVuSans-25" transform="translate(222.65625 0)"/>
      </g>
     </g>
    </g>
    <g id="xtick_2">
     <g id="line2d_2">
      <g>
       <use xlink:href="#medddb64630" x="173.7" y="929.16" style="stroke: #000000; stroke-width: 0.8"/>
      </g>
     </g>
     <g id="text_2">
      <!-- 60.0% -->
      <g transform="translate(157.816406 943.758438) scale(0.1 -0.1)">
       <defs>
        <path id="DejaVuSans-36" d="M 2113 2584 
Q 1688 2584 1439 2293 
Q 1191 2003 1191 1497 
Q 1191 994 1439 701 
Q 1688 409 2113 409 
Q 2538 409 2786 701 
Q 3034 994 3034 1497 
Q 3034 2003 2786 2293 
Q 2538 2584 2113 2584 
z
M 3366 4563 
L 3366 3988 
Q 3128 4100 2886 4159 
Q 2644 4219 2406 4219 
Q 1781 4219 1451 3797 
Q 1122 3375 1075 2522 
Q 1259 2794 1537 2939 
Q 1816 3084 2150 3084 
Q 2853 3084 3261 2657 
Q 3669 2231 3669 1497 
Q 3669 778 3244 343 
Q 2819 -91 2113 -91 
Q 1303 -91 875 529 
Q 447 1150 447 2328 
Q 447 3434 972 4092 
Q 1497 4750 2381 4750 
Q 2619 4750 2861 4703 
Q 3103 4656 3366 4563 
z
" transform="scale(0.015625)"/>
        <path id="DejaVuSans-30" d="M 2034 4250 
Q 1547 4250 1301 3770 
Q 1056 3291 1056 2328 
Q 1056 1369 1301 889 
Q 1547 409 2034 409 
Q 2525 409 2770 889 
Q 3016 1369 3016 2328 
Q 3016 3291 2770 3770 
Q 2525 4250 2034 4250 
z
M 2034 4750 
Q 2819 4750 3233 4129 
Q 3647 3509 3647 2328 
Q 3647 1150 3233 529 
Q 2819 -91 2034 -91 
Q 1250 -91 836 529 
Q 422 1150 422 2328 
Q 422 3509 836 4129 
Q 1250 4750 2034 4750 
z
" transform="scale(0.015625)"/>
       </defs>
       <use xlink:href="#DejaVuSans-36"/>
       <use xlink:href="#DejaVuSans-30" transform="translate(63.623047 0)"/>
       <use xlink:href="#DejaVuSans-2e" transform="translate(127.246094 0)"/>
       <use xlink:href="#DejaVuSans-30" transform="translate(159.033203 0)"/>
       <use xlink:href="#DejaVuSans-25" transform="translate(222.65625 0)"/>
      </g>
     </g>
    </g>
    <g id="xtick_3">
     <g id="line2d_3">
      <g>
       <use xlink:href="#medddb64630" x="243.45" y="929.16" style="stroke: #000000; stroke-width: 0.8"/>
      </g>
     </g>
     <g id="text_3">
      <!-- 62.5% -->
      <g transform="translate(227.566406 943.758438) scale(0.1 -0.1)">
       <defs>
        <path id="DejaVuSans-32" d="M 1228 531 
L 3431 531 
L 3431 0 
L 469 0 
L 469 531 
Q 828 903 1448 1529 
Q 2069 2156 2228 2338 
Q 2531 2678 2651 2914 
Q 2772 3150 2772 3378 
Q 2772 3750 2511 3984 
Q 2250 4219 1831 4219 
Q 1534 4219 1204 4116 
Q 875 4013 500 3803 
L 500 4441 
Q 881 4594 1212 4672 
Q 1544 4750 1819 4750 
Q 2544 4750 2975 4387 
Q 3406 4025 3406 3419 
Q 3406 3131 3298 2873 
Q 3191 2616 2906 2266 
Q 2828 2175 2409 1742 
Q 1991 1309 1228 531 
z
" transform="scale(0.015625)"/>
       </defs>
       <use xlink:href="#DejaVuSans-36"/>
       <use xlink:href="#DejaVuSans-32" transform="translate(63.623047 0)"/>
       <use xlink:href="#DejaVuSans-2e" transform="translate(127.246094 0)"/>
       <use xlink:href="#DejaVuSans-35" transform="translate(159.033203 0)"/>
       <use xlink:href="#DejaVuSans-25" transform="translate(222.65625 0)"/>
      </g>
     </g>
    </g>
    <g id="xtick_4">
     <g id="line2d_4">
      <g>
       <use xlink:href="#medddb64630" x="313.2" y="929.16" style="stroke: #000000; stroke-width: 0.8"/>
      </g>
     </g>
     <g id="text_4">
      <!-- 65.0% -->
      <g transform="translate(297.316406 943.758438) scale(0.1 -0.1)">
       <use xlink:href="#DejaVuSans-36"/>
       <use xlink:href="#DejaVuSans-35" transform="translate(63.623047 0)"/>
       <use xlink:href="#DejaVuSans-2e" transform="translate(127.246094 0)"/>
       <use xlink:href="#DejaVuSans-30" transform="translate(159.033203 0)"/>
       <use xlink:href="#DejaVuSans-25" transform="translate(222.65625 0)"/>
      </g>
     </g>
    </g>
    <g id="xtick_5">
     <g id="line2d_5">
      <g>
       <use xlink:href="#medddb64630" x="382.95" y="929.16" style="stroke: #000000; stroke-width: 0.8"/>
      </g>
     </g>
     <g id="text_5">
      <!-- 67.5% -->
      <g transform="translate(367.066406 943.758438) scale(0.1 -0.1)">
       <use xlink:href="#DejaVuSans-36"/>
       <use xlink:href="#DejaVuSans-37" transform="translate(63.623047 0)"/>
       <use xlink:href="#DejaVuSans-2e" transform="translate(127.246094 0)"/>
       <use xlink:href="#DejaVuSans-35" transform="translate(159.033203 0)"/>
       <use xlink:href="#DejaVuSans-25" transform="translate(222.65625 0)"/>
      </g>
     </g>
    </g>
    <g id="xtick_6">
     <g id="line2d_6">
      <g>
       <use xlink:href="#medddb64630" x="452.7" y="929.16" style="stroke: #000000; stroke-width: 0.8"/>
      </g>
     </g>
     <g id="text_6">
      <!-- 70.0% -->
      <g transform="translate(436.816406 943.758438) scale(0.1 -0.1)">
       <use xlink:href="#DejaVuSans-37"/>
       <use xlink:href="#DejaVuSans-30" transform="translate(63.623047 0)"/>
       <use xlink:href="#DejaVuSans-2e" transform="translate(127.246094 0)"/>
       <use xlink:href="#DejaVuSans-30" transform="translate(159.033203 0)"/>
       <use xlink:href="#DejaVuSans-25" transform="translate(222.65625 0)"/>
      </g>
     </g>
    </g>
    <g id="xtick_7">
     <g id="line2d_7">
      <g>
       <use xlink:href="#medddb64630" x="522.45" y="929.16" style="stroke: #000000; stroke-width: 0.8"/>
      </g>
     </g>
     <g id="text_7">
      <!-- 72.5% -->
      <g transform="translate(506.566406 943.758438) scale(0.1 -0.1)">
       <use xlink:href="#DejaVuSans-37"/>
       <use xlink:href="#DejaVuSans-32" transform="translate(63.623047 0)"/>
       <use xlink:href="#DejaVuSans-2e" transform="translate(127.246094 0)"/>
       <use xlink:href="#DejaVuSans-35" transform="translate(159.033203 0)"/>
       <use xlink:href="#DejaVuSans-25" transform="translate(222.65625 0)"/>
      </g>
     </g>
    </g>
    <g id="xtick_8">
     <g id="line2d_8">
      <g>
       <use xlink:href="#medddb64630" x="592.2" y="929.16" style="stroke: #000000; stroke-width: 0.8"/>
      </g>
     </g>
     <g id="text_8">
      <!-- 75.0% -->
      <g transform="translate(576.316406 943.758438) scale(0.1 -0.1)">
       <use xlink:href="#DejaVuSans-37"/>
       <use xlink:href="#DejaVuSans-35" transform="translate(63.623047 0)"/>
       <use xlink:href="#DejaVuSans-2e" transform="translate(127.246094 0)"/>
       <use xlink:href="#DejaVuSans-30" transform="translate(159.033203 0)"/>
       <use xlink:href="#DejaVuSans-25" transform="translate(222.65625 0)"/>
      </g>
     </g>
    </g>
   </g>
   <g id="matplotlib.axis_2">
    <g id="ytick_1">
     <g id="line2d_9">
      <defs>
       <path id="mea8a2d0e7c" d="M 0 0 
L -3.5 0 
" style="stroke: #000000; stroke-width: 0.8"/>
      </defs>
      <g>
       <use xlink:href="#mea8a2d0e7c" x="90" y="882.47" style="stroke: #000000; stroke-width: 0.8"/>
      </g>
     </g>
     <g id="text_9">
      <!-- AAPL -->
      <g transform="translate(57.442188 886.269219) scale(0.1 -0.1)">
       <defs>
        <path id="DejaVuSans-41" d="M 2188 4044 
L 1331 1722 
L 3047 1722 
L 2188 4044 
z
M 1831 4666 
L 2547 4666 
L 4325 0 
L 3669 0 
L 3244 1197 
L 1141 1197 
L 716 0 
L 50 0 
L 1831 4666 
z
" transform="scale(0.015625)"/>
        <path id="DejaVuSans-50" d="M 1259 4147 
L 1259 2394 
L 2053 2394 
Q 2494 2394 2734 2622 
Q 2975 2850 2975 3272 
Q 2975 3691 2734 3919 
Q 2494 4147 2053 4147 
L 1259 4147 
z
M 628 4666 
L 2053 4666 
Q 2838 4666 3239 4311 
Q 3641 3956 3641 3272 
Q 3641 2581 3239 2228 
Q 2838 1875 2053 1875 
L 1259 1875 
L 1259 0 
L 628 0 
L 628 4666 
z
" transform="scale(0.015625)"/>
        <path id="DejaVuSans-4c" d="M 628 4666 
L 1259 4666 
L 1259 531 
L 3531 531 
L 3531 0 
L 628 0 
L 628 4666 
z
" transform="scale(0.015625)"/>
       </defs>
       <use xlink:href="#DejaVuSans-41"/>
       <use xlink:href="#DejaVuSans-41" transform="translate(71.158203 0)"/>
       <use xlink:href="#DejaVuSans-50" transform="translate(139.566406 0)"/>
       <use xlink:href="#DejaVuSans-4c" transform="translate(199.869141 0)"/>
      </g>
     </g>
    </g>
    <g id="ytick_2">
     <g id="line2d_10">
      <g>
       <use xlink:href="#mea8a2d0e7c" x="90" y="857.095" style="stroke: #000000; stroke-width: 0.8"/>
      </g>
     </g>
     <g id="text_10">
      <!-- AMGN -->
      <g transform="translate(52.301563 860.894219) scale(0.1 -0.1)">
       <defs>
        <path id="DejaVuSans-4d" d="M 628 4666 
L 1569 4666 
L 2759 1491 
L 3956 4666 
L 4897 4666 
L 4897 0 
L 4281 0 
L 4281 4097 
L 3078 897 
L 2444 897 
L 1241 4097 
L 1241 0 
L 628 0 
L 628 4666 
z
" transform="scale(0.015625)"/>
        <path id="DejaVuSans-47" d="M 3809 666 
L 3809 1919 
L 2778 1919 
L 2778 2438 
L 4434 2438 
L 4434 434 
Q 4069 175 3628 42 
Q 3188 -91 2688 -91 
Q 1594 -91 976 548 
Q 359 1188 359 2328 
Q 359 3472 976 4111 
Q 1594 4750 2688 4750 
Q 3144 4750 3555 4637 
Q 3966 4525 4313 4306 
L 4313 3634 
Q 3963 3931 3569 4081 
Q 3175 4231 2741 4231 
Q 1884 4231 1454 3753 
Q 1025 3275 1025 2328 
Q 1025 1384 1454 906 
Q 1884 428 2741 428 
Q 3075 428 3337 486 
Q 3600 544 3809 666 
z
" transform="scale(0.015625)"/>
        <path id="DejaVuSans-4e" d="M 628 4666 
L 1478 4666 
L 3547 763 
L 3547 4666 
L 4159 4666 
L 4159 0 
L 3309 0 
L 1241 3903 
L 1241 0 
L 628 0 
L 628 4666 
z
" transform="scale(0.015625)"/>
       </defs>
       <use xlink:href="#DejaVuSans-41"/>
       <use xlink:href="#DejaVuSans-4d" transform="translate(68.408203 0)"/>
       <use xlink:href="#DejaVuSans-47" transform="translate(154.6875 0)"/>
       <use xlink:href="#DejaVuSans-4e" transform="translate(232.177734 0)"/>
      </g>
     </g>
    </g>
    <g id="ytick_3">
     <g id="line2d_11">
      <g>
       <use xlink:href="#mea8a2d0e7c" x="90" y="831.72" style="stroke: #000000; stroke-width: 0.8"/>
      </g>
     </g>
     <g id="text_11">
      <!-- AMZN -->
      <g transform="translate(53.2 835.519219) scale(0.1 -0.1)">
       <defs>
        <path id="DejaVuSans-5a" d="M 359 4666 
L 4025 4666 
L 4025 4184 
L 1075 531 
L 4097 531 
L 4097 0 
L 288 0 
L 288 481 
L 3238 4134 
L 359 4134 
L 359 4666 
z
" transform="scale(0.015625)"/>
       </defs>
       <use xlink:href="#DejaVuSans-41"/>
       <use xlink:href="#DejaVuSans-4d" transform="translate(68.408203 0)"/>
       <use xlink:href="#DejaVuSans-5a" transform="translate(154.6875 0)"/>
       <use xlink:href="#DejaVuSans-4e" transform="translate(223.193359 0)"/>
      </g>
     </g>
    </g>
    <g id="ytick_4">
     <g id="line2d_12">
      <g>
       <use xlink:href="#mea8a2d0e7c" x="90" y="806.345" style="stroke: #000000; stroke-width: 0.8"/>
      </g>
     </g>
     <g id="text_12">
      <!-- AXP -->
      <g transform="translate(63.279687 810.144219) scale(0.1 -0.1)">
       <defs>
        <path id="DejaVuSans-58" d="M 403 4666 
L 1081 4666 
L 2241 2931 
L 3406 4666 
L 4084 4666 
L 2584 2425 
L 4184 0 
L 3506 0 
L 2194 1984 
L 872 0 
L 191 0 
L 1856 2491 
L 403 4666 
z
" transform="scale(0.015625)"/>
       </defs>
       <use xlink:href="#DejaVuSans-41"/>
       <use xlink:href="#DejaVuSans-58" transform="translate(68.408203 0)"/>
       <use xlink:href="#DejaVuSans-50" transform="translate(136.914062 0)"/>
      </g>
     </g>
    </g>
    <g id="ytick_5">
     <g id="line2d_13">
      <g>
       <use xlink:href="#mea8a2d0e7c" x="90" y="780.97" style="stroke: #000000; stroke-width: 0.8"/>
      </g>
     </g>
     <g id="text_13">
      <!-- BA -->
      <g transform="translate(69.298438 784.769219) scale(0.1 -0.1)">
       <defs>
        <path id="DejaVuSans-42" d="M 1259 2228 
L 1259 519 
L 2272 519 
Q 2781 519 3026 730 
Q 3272 941 3272 1375 
Q 3272 1813 3026 2020 
Q 2781 2228 2272 2228 
L 1259 2228 
z
M 1259 4147 
L 1259 2741 
L 2194 2741 
Q 2656 2741 2882 2914 
Q 3109 3088 3109 3444 
Q 3109 3797 2882 3972 
Q 2656 4147 2194 4147 
L 1259 4147 
z
M 628 4666 
L 2241 4666 
Q 2963 4666 3353 4366 
Q 3744 4066 3744 3513 
Q 3744 3084 3544 2831 
Q 3344 2578 2956 2516 
Q 3422 2416 3680 2098 
Q 3938 1781 3938 1306 
Q 3938 681 3513 340 
Q 3088 0 2303 0 
L 628 0 
L 628 4666 
z
" transform="scale(0.015625)"/>
       </defs>
       <use xlink:href="#DejaVuSans-42"/>
       <use xlink:href="#DejaVuSans-41" transform="translate(68.603516 0)"/>
      </g>
     </g>
    </g>
    <g id="ytick_6">
     <g id="line2d_14">
      <g>
       <use xlink:href="#mea8a2d0e7c" x="90" y="755.595" style="stroke: #000000; stroke-width: 0.8"/>
      </g>
     </g>
     <g id="text_14">
      <!-- CAT -->
      <g transform="translate(63.84375 759.394219) scale(0.1 -0.1)">
       <defs>
        <path id="DejaVuSans-43" d="M 4122 4306 
L 4122 3641 
Q 3803 3938 3442 4084 
Q 3081 4231 2675 4231 
Q 1875 4231 1450 3742 
Q 1025 3253 1025 2328 
Q 1025 1406 1450 917 
Q 1875 428 2675 428 
Q 3081 428 3442 575 
Q 3803 722 4122 1019 
L 4122 359 
Q 3791 134 3420 21 
Q 3050 -91 2638 -91 
Q 1578 -91 968 557 
Q 359 1206 359 2328 
Q 359 3453 968 4101 
Q 1578 4750 2638 4750 
Q 3056 4750 3426 4639 
Q 3797 4528 4122 4306 
z
" transform="scale(0.015625)"/>
        <path id="DejaVuSans-54" d="M -19 4666 
L 3928 4666 
L 3928 4134 
L 2272 4134 
L 2272 0 
L 1638 0 
L 1638 4134 
L -19 4134 
L -19 4666 
z
" transform="scale(0.015625)"/>
       </defs>
       <use xlink:href="#DejaVuSans-43"/>
       <use xlink:href="#DejaVuSans-41" transform="translate(69.824219 0)"/>
       <use xlink:href="#DejaVuSans-54" transform="translate(130.482422 0)"/>
      </g>
     </g>
    </g>
    <g id="ytick_7">
     <g id="line2d_15">
      <g>
       <use xlink:href="#mea8a2d0e7c" x="90" y="730.22" style="stroke: #000000; stroke-width: 0.8"/>
      </g>
     </g>
     <g id="text_15">
      <!-- CRM -->
      <g transform="translate(60.440625 734.019219) scale(0.1 -0.1)">
       <defs>
        <path id="DejaVuSans-52" d="M 2841 2188 
Q 3044 2119 3236 1894 
Q 3428 1669 3622 1275 
L 4263 0 
L 3584 0 
L 2988 1197 
Q 2756 1666 2539 1819 
Q 2322 1972 1947 1972 
L 1259 1972 
L 1259 0 
L 628 0 
L 628 4666 
L 2053 4666 
Q 2853 4666 3247 4331 
Q 3641 3997 3641 3322 
Q 3641 2881 3436 2590 
Q 3231 2300 2841 2188 
z
M 1259 4147 
L 1259 2491 
L 2053 2491 
Q 2509 2491 2742 2702 
Q 2975 2913 2975 3322 
Q 2975 3731 2742 3939 
Q 2509 4147 2053 4147 
L 1259 4147 
z
" transform="scale(0.015625)"/>
       </defs>
       <use xlink:href="#DejaVuSans-43"/>
       <use xlink:href="#DejaVuSans-52" transform="translate(69.824219 0)"/>
       <use xlink:href="#DejaVuSans-4d" transform="translate(139.306641 0)"/>
      </g>
     </g>
    </g>
    <g id="ytick_8">
     <g id="line2d_16">
      <g>
       <use xlink:href="#mea8a2d0e7c" x="90" y="704.845" style="stroke: #000000; stroke-width: 0.8"/>
      </g>
     </g>
     <g id="text_16">
      <!-- CSCO -->
      <g transform="translate(54.814062 708.644219) scale(0.1 -0.1)">
       <defs>
        <path id="DejaVuSans-53" d="M 3425 4513 
L 3425 3897 
Q 3066 4069 2747 4153 
Q 2428 4238 2131 4238 
Q 1616 4238 1336 4038 
Q 1056 3838 1056 3469 
Q 1056 3159 1242 3001 
Q 1428 2844 1947 2747 
L 2328 2669 
Q 3034 2534 3370 2195 
Q 3706 1856 3706 1288 
Q 3706 609 3251 259 
Q 2797 -91 1919 -91 
Q 1588 -91 1214 -16 
Q 841 59 441 206 
L 441 856 
Q 825 641 1194 531 
Q 1563 422 1919 422 
Q 2459 422 2753 634 
Q 3047 847 3047 1241 
Q 3047 1584 2836 1778 
Q 2625 1972 2144 2069 
L 1759 2144 
Q 1053 2284 737 2584 
Q 422 2884 422 3419 
Q 422 4038 858 4394 
Q 1294 4750 2059 4750 
Q 2388 4750 2728 4690 
Q 3069 4631 3425 4513 
z
" transform="scale(0.015625)"/>
        <path id="DejaVuSans-4f" d="M 2522 4238 
Q 1834 4238 1429 3725 
Q 1025 3213 1025 2328 
Q 1025 1447 1429 934 
Q 1834 422 2522 422 
Q 3209 422 3611 934 
Q 4013 1447 4013 2328 
Q 4013 3213 3611 3725 
Q 3209 4238 2522 4238 
z
M 2522 4750 
Q 3503 4750 4090 4092 
Q 4678 3434 4678 2328 
Q 4678 1225 4090 567 
Q 3503 -91 2522 -91 
Q 1538 -91 948 565 
Q 359 1222 359 2328 
Q 359 3434 948 4092 
Q 1538 4750 2522 4750 
z
" transform="scale(0.015625)"/>
       </defs>
       <use xlink:href="#DejaVuSans-43"/>
       <use xlink:href="#DejaVuSans-53" transform="translate(69.824219 0)"/>
       <use xlink:href="#DejaVuSans-43" transform="translate(133.300781 0)"/>
       <use xlink:href="#DejaVuSans-4f" transform="translate(203.125 0)"/>
      </g>
     </g>
    </g>
    <g id="ytick_9">
     <g id="line2d_17">
      <g>
       <use xlink:href="#mea8a2d0e7c" x="90" y="679.47" style="stroke: #000000; stroke-width: 0.8"/>
      </g>
     </g>
     <g id="text_17">
      <!-- CVX -->
      <g transform="translate(62.326562 683.269219) scale(0.1 -0.1)">
       <defs>
        <path id="DejaVuSans-56" d="M 1831 0 
L 50 4666 
L 709 4666 
L 2188 738 
L 3669 4666 
L 4325 4666 
L 2547 0 
L 1831 0 
z
" transform="scale(0.015625)"/>
       </defs>
       <use xlink:href="#DejaVuSans-43"/>
       <use xlink:href="#DejaVuSans-56" transform="translate(69.824219 0)"/>
       <use xlink:href="#DejaVuSans-58" transform="translate(138.232422 0)"/>
      </g>
     </g>
    </g>
    <g id="ytick_10">
     <g id="line2d_18">
      <g>
       <use xlink:href="#mea8a2d0e7c" x="90" y="654.095" style="stroke: #000000; stroke-width: 0.8"/>
      </g>
     </g>
     <g id="text_18">
      <!-- DIS -->
      <g transform="translate(66.001563 657.894219) scale(0.1 -0.1)">
       <defs>
        <path id="DejaVuSans-44" d="M 1259 4147 
L 1259 519 
L 2022 519 
Q 2988 519 3436 956 
Q 3884 1394 3884 2338 
Q 3884 3275 3436 3711 
Q 2988 4147 2022 4147 
L 1259 4147 
z
M 628 4666 
L 1925 4666 
Q 3281 4666 3915 4102 
Q 4550 3538 4550 2338 
Q 4550 1131 3912 565 
Q 3275 0 1925 0 
L 628 0 
L 628 4666 
z
" transform="scale(0.015625)"/>
        <path id="DejaVuSans-49" d="M 628 4666 
L 1259 4666 
L 1259 0 
L 628 0 
L 628 4666 
z
" transform="scale(0.015625)"/>
       </defs>
       <use xlink:href="#DejaVuSans-44"/>
       <use xlink:href="#DejaVuSans-49" transform="translate(77.001953 0)"/>
       <use xlink:href="#DejaVuSans-53" transform="translate(106.494141 0)"/>
      </g>
     </g>
    </g>
    <g id="ytick_11">
     <g id="line2d_19">
      <g>
       <use xlink:href="#mea8a2d0e7c" x="90" y="628.72" style="stroke: #000000; stroke-width: 0.8"/>
      </g>
     </g>
     <g id="text_19">
      <!-- GS -->
      <g transform="translate(68.903125 632.519219) scale(0.1 -0.1)">
       <use xlink:href="#DejaVuSans-47"/>
       <use xlink:href="#DejaVuSans-53" transform="translate(77.490234 0)"/>
      </g>
     </g>
    </g>
    <g id="ytick_12">
     <g id="line2d_20">
      <g>
       <use xlink:href="#mea8a2d0e7c" x="90" y="603.345" style="stroke: #000000; stroke-width: 0.8"/>
      </g>
     </g>
     <g id="text_20">
      <!-- HD -->
      <g transform="translate(67.779687 607.144219) scale(0.1 -0.1)">
       <defs>
        <path id="DejaVuSans-48" d="M 628 4666 
L 1259 4666 
L 1259 2753 
L 3553 2753 
L 3553 4666 
L 4184 4666 
L 4184 0 
L 3553 0 
L 3553 2222 
L 1259 2222 
L 1259 0 
L 628 0 
L 628 4666 
z
" transform="scale(0.015625)"/>
       </defs>
       <use xlink:href="#DejaVuSans-48"/>
       <use xlink:href="#DejaVuSans-44" transform="translate(75.195312 0)"/>
      </g>
     </g>
    </g>
    <g id="ytick_13">
     <g id="line2d_21">
      <g>
       <use xlink:href="#mea8a2d0e7c" x="90" y="577.97" style="stroke: #000000; stroke-width: 0.8"/>
      </g>
     </g>
     <g id="text_21">
      <!-- HON -->
      <g transform="translate(60.126562 581.769219) scale(0.1 -0.1)">
       <use xlink:href="#DejaVuSans-48"/>
       <use xlink:href="#DejaVuSans-4f" transform="translate(75.195312 0)"/>
       <use xlink:href="#DejaVuSans-4e" transform="translate(153.90625 0)"/>
      </g>
     </g>
    </g>
    <g id="ytick_14">
     <g id="line2d_22">
      <g>
       <use xlink:href="#mea8a2d0e7c" x="90" y="552.595" style="stroke: #000000; stroke-width: 0.8"/>
      </g>
     </g>
     <g id="text_22">
      <!-- IBM -->
      <g transform="translate(64.560937 556.394219) scale(0.1 -0.1)">
       <use xlink:href="#DejaVuSans-49"/>
       <use xlink:href="#DejaVuSans-42" transform="translate(29.492188 0)"/>
       <use xlink:href="#DejaVuSans-4d" transform="translate(98.095703 0)"/>
      </g>
     </g>
    </g>
    <g id="ytick_15">
     <g id="line2d_23">
      <g>
       <use xlink:href="#mea8a2d0e7c" x="90" y="527.22" style="stroke: #000000; stroke-width: 0.8"/>
      </g>
     </g>
     <g id="text_23">
      <!-- INTC -->
      <g transform="translate(60.065625 531.019219) scale(0.1 -0.1)">
       <use xlink:href="#DejaVuSans-49"/>
       <use xlink:href="#DejaVuSans-4e" transform="translate(29.492188 0)"/>
       <use xlink:href="#DejaVuSans-54" transform="translate(104.296875 0)"/>
       <use xlink:href="#DejaVuSans-43" transform="translate(159.505859 0)"/>
      </g>
     </g>
    </g>
    <g id="ytick_16">
     <g id="line2d_24">
      <g>
       <use xlink:href="#mea8a2d0e7c" x="90" y="501.845" style="stroke: #000000; stroke-width: 0.8"/>
      </g>
     </g>
     <g id="text_24">
      <!-- JNJ -->
      <g transform="translate(69.61875 505.644219) scale(0.1 -0.1)">
       <defs>
        <path id="DejaVuSans-4a" d="M 628 4666 
L 1259 4666 
L 1259 325 
Q 1259 -519 939 -900 
Q 619 -1281 -91 -1281 
L -331 -1281 
L -331 -750 
L -134 -750 
Q 284 -750 456 -515 
Q 628 -281 628 325 
L 628 4666 
z
" transform="scale(0.015625)"/>
       </defs>
       <use xlink:href="#DejaVuSans-4a"/>
       <use xlink:href="#DejaVuSans-4e" transform="translate(29.492188 0)"/>
       <use xlink:href="#DejaVuSans-4a" transform="translate(104.296875 0)"/>
      </g>
     </g>
    </g>
    <g id="ytick_17">
     <g id="line2d_25">
      <g>
       <use xlink:href="#mea8a2d0e7c" x="90" y="476.47" style="stroke: #000000; stroke-width: 0.8"/>
      </g>
     </g>
     <g id="text_25">
      <!-- JPM -->
      <g transform="translate(65.392188 480.269219) scale(0.1 -0.1)">
       <use xlink:href="#DejaVuSans-4a"/>
       <use xlink:href="#DejaVuSans-50" transform="translate(29.492188 0)"/>
       <use xlink:href="#DejaVuSans-4d" transform="translate(89.794922 0)"/>
      </g>
     </g>
    </g>
    <g id="ytick_18">
     <g id="line2d_26">
      <g>
       <use xlink:href="#mea8a2d0e7c" x="90" y="451.095" style="stroke: #000000; stroke-width: 0.8"/>
      </g>
     </g>
     <g id="text_26">
      <!-- KO -->
      <g transform="translate(69.120312 454.894219) scale(0.1 -0.1)">
       <defs>
        <path id="DejaVuSans-4b" d="M 628 4666 
L 1259 4666 
L 1259 2694 
L 3353 4666 
L 4166 4666 
L 1850 2491 
L 4331 0 
L 3500 0 
L 1259 2247 
L 1259 0 
L 628 0 
L 628 4666 
z
" transform="scale(0.015625)"/>
       </defs>
       <use xlink:href="#DejaVuSans-4b"/>
       <use xlink:href="#DejaVuSans-4f" transform="translate(60.076172 0)"/>
      </g>
     </g>
    </g>
    <g id="ytick_19">
     <g id="line2d_27">
      <g>
       <use xlink:href="#mea8a2d0e7c" x="90" y="425.72" style="stroke: #000000; stroke-width: 0.8"/>
      </g>
     </g>
     <g id="text_27">
      <!-- MCD -->
      <g transform="translate(59.689062 429.519219) scale(0.1 -0.1)">
       <use xlink:href="#DejaVuSans-4d"/>
       <use xlink:href="#DejaVuSans-43" transform="translate(86.279297 0)"/>
       <use xlink:href="#DejaVuSans-44" transform="translate(156.103516 0)"/>
      </g>
     </g>
    </g>
    <g id="ytick_20">
     <g id="line2d_28">
      <g>
       <use xlink:href="#mea8a2d0e7c" x="90" y="400.345" style="stroke: #000000; stroke-width: 0.8"/>
      </g>
     </g>
     <g id="text_28">
      <!-- MMM -->
      <g transform="translate(57.115625 404.144219) scale(0.1 -0.1)">
       <use xlink:href="#DejaVuSans-4d"/>
       <use xlink:href="#DejaVuSans-4d" transform="translate(86.279297 0)"/>
       <use xlink:href="#DejaVuSans-4d" transform="translate(172.558594 0)"/>
      </g>
     </g>
    </g>
    <g id="ytick_21">
     <g id="line2d_29">
      <g>
       <use xlink:href="#mea8a2d0e7c" x="90" y="374.97" style="stroke: #000000; stroke-width: 0.8"/>
      </g>
     </g>
     <g id="text_29">
      <!-- MRK -->
      <g transform="translate(60.865625 378.769219) scale(0.1 -0.1)">
       <use xlink:href="#DejaVuSans-4d"/>
       <use xlink:href="#DejaVuSans-52" transform="translate(86.279297 0)"/>
       <use xlink:href="#DejaVuSans-4b" transform="translate(155.761719 0)"/>
      </g>
     </g>
    </g>
    <g id="ytick_22">
     <g id="line2d_30">
      <g>
       <use xlink:href="#mea8a2d0e7c" x="90" y="349.595" style="stroke: #000000; stroke-width: 0.8"/>
      </g>
     </g>
     <g id="text_30">
      <!-- MSFT -->
      <g transform="translate(56.339062 353.394219) scale(0.1 -0.1)">
       <defs>
        <path id="DejaVuSans-46" d="M 628 4666 
L 3309 4666 
L 3309 4134 
L 1259 4134 
L 1259 2759 
L 3109 2759 
L 3109 2228 
L 1259 2228 
L 1259 0 
L 628 0 
L 628 4666 
z
" transform="scale(0.015625)"/>
       </defs>
       <use xlink:href="#DejaVuSans-4d"/>
       <use xlink:href="#DejaVuSans-53" transform="translate(86.279297 0)"/>
       <use xlink:href="#DejaVuSans-46" transform="translate(149.755859 0)"/>
       <use xlink:href="#DejaVuSans-54" transform="translate(205.525391 0)"/>
      </g>
     </g>
    </g>
    <g id="ytick_23">
     <g id="line2d_31">
      <g>
       <use xlink:href="#mea8a2d0e7c" x="90" y="324.22" style="stroke: #000000; stroke-width: 0.8"/>
      </g>
     </g>
     <g id="text_31">
      <!-- NKE -->
      <g transform="translate(62.642187 328.019219) scale(0.1 -0.1)">
       <defs>
        <path id="DejaVuSans-45" d="M 628 4666 
L 3578 4666 
L 3578 4134 
L 1259 4134 
L 1259 2753 
L 3481 2753 
L 3481 2222 
L 1259 2222 
L 1259 531 
L 3634 531 
L 3634 0 
L 628 0 
L 628 4666 
z
" transform="scale(0.015625)"/>
       </defs>
       <use xlink:href="#DejaVuSans-4e"/>
       <use xlink:href="#DejaVuSans-4b" transform="translate(74.804688 0)"/>
       <use xlink:href="#DejaVuSans-45" transform="translate(140.380859 0)"/>
      </g>
     </g>
    </g>
    <g id="ytick_24">
     <g id="line2d_32">
      <g>
       <use xlink:href="#mea8a2d0e7c" x="90" y="298.845" style="stroke: #000000; stroke-width: 0.8"/>
      </g>
     </g>
     <g id="text_32">
      <!-- PG -->
      <g transform="translate(69.221875 302.644219) scale(0.1 -0.1)">
       <use xlink:href="#DejaVuSans-50"/>
       <use xlink:href="#DejaVuSans-47" transform="translate(60.302734 0)"/>
      </g>
     </g>
    </g>
    <g id="ytick_25">
     <g id="line2d_33">
      <g>
       <use xlink:href="#mea8a2d0e7c" x="90" y="273.47" style="stroke: #000000; stroke-width: 0.8"/>
      </g>
     </g>
     <g id="text_33">
      <!-- TRV -->
      <g transform="translate(63.653125 277.269219) scale(0.1 -0.1)">
       <use xlink:href="#DejaVuSans-54"/>
       <use xlink:href="#DejaVuSans-52" transform="translate(61.083984 0)"/>
       <use xlink:href="#DejaVuSans-56" transform="translate(125.066406 0)"/>
      </g>
     </g>
    </g>
    <g id="ytick_26">
     <g id="line2d_34">
      <g>
       <use xlink:href="#mea8a2d0e7c" x="90" y="248.095" style="stroke: #000000; stroke-width: 0.8"/>
      </g>
     </g>
     <g id="text_34">
      <!-- UNH -->
      <g transform="translate(60.679688 251.894219) scale(0.1 -0.1)">
       <defs>
        <path id="DejaVuSans-55" d="M 556 4666 
L 1191 4666 
L 1191 1831 
Q 1191 1081 1462 751 
Q 1734 422 2344 422 
Q 2950 422 3222 751 
Q 3494 1081 3494 1831 
L 3494 4666 
L 4128 4666 
L 4128 1753 
Q 4128 841 3676 375 
Q 3225 -91 2344 -91 
Q 1459 -91 1007 375 
Q 556 841 556 1753 
L 556 4666 
z
" transform="scale(0.015625)"/>
       </defs>
       <use xlink:href="#DejaVuSans-55"/>
       <use xlink:href="#DejaVuSans-4e" transform="translate(73.193359 0)"/>
       <use xlink:href="#DejaVuSans-48" transform="translate(147.998047 0)"/>
      </g>
     </g>
    </g>
    <g id="ytick_27">
     <g id="line2d_35">
      <g>
       <use xlink:href="#mea8a2d0e7c" x="90" y="222.72" style="stroke: #000000; stroke-width: 0.8"/>
      </g>
     </g>
     <g id="text_35">
      <!-- V -->
      <g transform="translate(76.159375 226.519219) scale(0.1 -0.1)">
       <use xlink:href="#DejaVuSans-56"/>
      </g>
     </g>
    </g>
    <g id="ytick_28">
     <g id="line2d_36">
      <g>
       <use xlink:href="#mea8a2d0e7c" x="90" y="197.345" style="stroke: #000000; stroke-width: 0.8"/>
      </g>
     </g>
     <g id="text_36">
      <!-- VZ -->
      <g transform="translate(69.309375 201.144219) scale(0.1 -0.1)">
       <use xlink:href="#DejaVuSans-56"/>
       <use xlink:href="#DejaVuSans-5a" transform="translate(68.408203 0)"/>
      </g>
     </g>
    </g>
    <g id="ytick_29">
     <g id="line2d_37">
      <g>
       <use xlink:href="#mea8a2d0e7c" x="90" y="171.97" style="stroke: #000000; stroke-width: 0.8"/>
      </g>
     </g>
     <g id="text_37">
      <!-- WMT -->
      <g transform="translate(58.376562 175.769219) scale(0.1 -0.1)">
       <defs>
        <path id="DejaVuSans-57" d="M 213 4666 
L 850 4666 
L 1831 722 
L 2809 4666 
L 3519 4666 
L 4500 722 
L 5478 4666 
L 6119 4666 
L 4947 0 
L 4153 0 
L 3169 4050 
L 2175 0 
L 1381 0 
L 213 4666 
z
" transform="scale(0.015625)"/>
       </defs>
       <use xlink:href="#DejaVuSans-57"/>
       <use xlink:href="#DejaVuSans-4d" transform="translate(98.876953 0)"/>
       <use xlink:href="#DejaVuSans-54" transform="translate(185.15625 0)"/>
      </g>
     </g>
    </g>
   </g>
   <g id="line2d_38">
    <path d="M 369 929.16 
L 369 125.28 
" clip-path="url(#pcfcc3921f2)" style="fill: none; stroke-dasharray: 5.55,2.4; stroke-dashoffset: 0; stroke: #000000; stroke-width: 1.5"/>
   </g>
   <g id="patch_61">
    <path d="M 90 929.16 
L 90 125.28 
" style="fill: none; stroke: #000000; stroke-width: 0.8; stroke-linejoin: miter; stroke-linecap: square"/>
   </g>
   <g id="patch_62">
    <path d="M 648 929.16 
L 648 125.28 
" style="fill: none; stroke: #000000; stroke-width: 0.8; stroke-linejoin: miter; stroke-linecap: square"/>
   </g>
   <g id="patch_63">
    <path d="M 90 929.16 
L 648 929.16 
" style="fill: none; stroke: #000000; stroke-width: 0.8; stroke-linejoin: miter; stroke-linecap: square"/>
   </g>
   <g id="patch_64">
    <path d="M 90 125.28 
L 648 125.28 
" style="fill: none; stroke: #000000; stroke-width: 0.8; stroke-linejoin: miter; stroke-linecap: square"/>
   </g>
   <g id="text_38">
    <!-- ✗ -->
    <g style="fill: #ffffff" transform="translate(521.579807 814.179375) scale(0.1 -0.1)">
     <defs>
      <path id="DejaVuSans-2717" d="M 3975 4688 
Q 4006 4688 4056 4638 
Q 4109 4588 4166 4506 
Q 4256 4666 4309 4666 
Q 4356 4666 4438 4581 
Q 4488 4528 4488 4463 
Q 4488 4378 4419 4306 
Q 3769 3600 3156 2753 
Q 3409 2134 3856 1388 
Q 3894 1325 3894 1288 
Q 3894 1216 3800 1138 
L 3700 1069 
Q 3713 1031 3713 969 
Q 3713 875 3644 825 
Q 3563 769 3525 769 
Q 3444 769 3381 850 
Q 3006 1331 2606 1981 
Q 2069 1281 1375 113 
Q 1275 -56 1038 -56 
Q 925 -56 913 75 
Q 753 163 753 353 
Q 753 603 788 700 
Q 803 744 888 875 
Q 1525 1869 2238 2700 
Q 1856 3606 1731 4097 
Q 1703 4206 1703 4238 
Q 1703 4281 1759 4363 
Q 1819 4444 1869 4444 
Q 1916 4444 1988 4353 
Q 2016 4406 2056 4444 
Q 2113 4494 2200 4494 
Q 2300 4494 2331 4400 
Q 2500 3875 2775 3400 
Q 3219 3975 3856 4613 
Q 3931 4688 3975 4688 
z
" transform="scale(0.015625)"/>
     </defs>
     <use xlink:href="#DejaVuSans-2717"/>
    </g>
   </g>
   <g id="text_39">
    <!-- ✗ -->
    <g style="fill: #ffffff" transform="translate(584.377235 788.804375) scale(0.1 -0.1)">
     <use xlink:href="#DejaVuSans-2717"/>
    </g>
   </g>
   <g id="text_40">
    <!-- ✗ -->
    <g style="fill: #ffffff" transform="translate(620.261479 738.054375) scale(0.1 -0.1)">
     <use xlink:href="#DejaVuSans-2717"/>
    </g>
   </g>
   <g id="text_41">
    <!-- ✗ -->
    <g style="fill: #ffffff" transform="translate(530.550868 687.304375) scale(0.1 -0.1)">
     <use xlink:href="#DejaVuSans-2717"/>
    </g>
   </g>
   <g id="text_42">
    <!-- ✗ -->
    <g style="fill: #ffffff" transform="translate(629.23254 661.929375) scale(0.1 -0.1)">
     <use xlink:href="#DejaVuSans-2717"/>
    </g>
   </g>
   <g id="text_43">
    <!-- ✗ -->
    <g style="fill: #ffffff" transform="translate(539.521929 636.554375) scale(0.1 -0.1)">
     <use xlink:href="#DejaVuSans-2717"/>
    </g>
   </g>
   <g id="text_44">
    <!-- ✗ -->
    <g style="fill: #ffffff" transform="translate(638.203601 611.179375) scale(0.1 -0.1)">
     <use xlink:href="#DejaVuSans-2717"/>
    </g>
   </g>
   <g id="text_45">
    <!-- ✗ -->
    <g style="fill: #ffffff" transform="translate(566.435113 585.804375) scale(0.1 -0.1)">
     <use xlink:href="#DejaVuSans-2717"/>
    </g>
   </g>
   <g id="text_46">
    <!-- ✗ -->
    <g style="fill: #ffffff" transform="translate(548.49299 535.054375) scale(0.1 -0.1)">
     <use xlink:href="#DejaVuSans-2717"/>
    </g>
   </g>
   <g id="text_47">
    <!-- ✗ -->
    <g style="fill: #ffffff" transform="translate(593.348296 509.679375) scale(0.1 -0.1)">
     <use xlink:href="#DejaVuSans-2717"/>
    </g>
   </g>
   <g id="text_48">
    <!-- ✗ -->
    <g style="fill: #ffffff" transform="translate(611.290418 484.304375) scale(0.1 -0.1)">
     <use xlink:href="#DejaVuSans-2717"/>
    </g>
   </g>
   <g id="text_49">
    <!-- ✗ -->
    <g style="fill: #ffffff" transform="translate(611.290418 458.929375) scale(0.1 -0.1)">
     <use xlink:href="#DejaVuSans-2717"/>
    </g>
   </g>
   <g id="text_50">
    <!-- ✗ -->
    <g style="fill: #ffffff" transform="translate(575.406174 433.554375) scale(0.1 -0.1)">
     <use xlink:href="#DejaVuSans-2717"/>
    </g>
   </g>
   <g id="text_51">
    <!-- ✗ -->
    <g style="fill: #ffffff" transform="translate(575.406174 408.179375) scale(0.1 -0.1)">
     <use xlink:href="#DejaVuSans-2717"/>
    </g>
   </g>
   <g id="text_52">
    <!-- ✓ -->
    <g style="fill: #ffffff" transform="translate(458.782379 357.429375) scale(0.1 -0.1)">
     <defs>
      <path id="DejaVuSans-2713" d="M 1416 2044 
Q 1538 2044 1600 1844 
Q 1725 1469 1778 1469 
Q 1819 1469 1863 1531 
Q 2741 2938 3488 3806 
Q 3681 4031 4103 4031 
Q 4203 4031 4237 4012 
Q 4272 3994 4272 3966 
Q 4272 3922 4169 3794 
Q 2963 2344 1931 731 
Q 1859 619 1638 619 
Q 1413 619 1372 638 
Q 1266 684 1122 1116 
Q 959 1594 959 1716 
Q 959 1847 1178 1969 
Q 1313 2044 1416 2044 
z
" transform="scale(0.015625)"/>
     </defs>
     <use xlink:href="#DejaVuSans-2713"/>
    </g>
   </g>
   <g id="text_53">
    <!-- ✗ -->
    <g style="fill: #ffffff" transform="translate(620.261479 306.679375) scale(0.1 -0.1)">
     <use xlink:href="#DejaVuSans-2717"/>
    </g>
   </g>
   <g id="text_54">
    <!-- ✗ -->
    <g style="fill: #ffffff" transform="translate(611.290418 281.304375) scale(0.1 -0.1)">
     <use xlink:href="#DejaVuSans-2717"/>
    </g>
   </g>
   <g id="text_55">
    <!-- ✗ -->
    <g style="fill: #ffffff" transform="translate(575.406174 205.179375) scale(0.1 -0.1)">
     <use xlink:href="#DejaVuSans-2717"/>
    </g>
   </g>
   <g id="text_56">
    <!-- ✗ -->
    <g style="fill: #ffffff" transform="translate(569.88 880.154375) scale(0.1 -0.1)">
     <use xlink:href="#DejaVuSans-2717"/>
    </g>
   </g>
   <g id="text_57">
    <!-- ✓ -->
    <g style="fill: #ffffff" transform="translate(435.96 854.779375) scale(0.1 -0.1)">
     <use xlink:href="#DejaVuSans-2713"/>
    </g>
   </g>
   <g id="text_58">
    <!-- ✓ -->
    <g style="fill: #ffffff" transform="translate(223.92 829.404375) scale(0.1 -0.1)">
     <use xlink:href="#DejaVuSans-2713"/>
    </g>
   </g>
   <g id="text_59">
    <!-- ✓ -->
    <g style="fill: #ffffff" transform="translate(246.24 804.029375) scale(0.1 -0.1)">
     <use xlink:href="#DejaVuSans-2713"/>
    </g>
   </g>
   <g id="text_60">
    <!-- ✓ -->
    <g style="fill: #ffffff" transform="translate(502.92 778.654375) scale(0.1 -0.1)">
     <use xlink:href="#DejaVuSans-2713"/>
    </g>
   </g>
   <g id="text_61">
    <!-- ✓ -->
    <g style="fill: #ffffff" transform="translate(424.8 753.279375) scale(0.1 -0.1)">
     <use xlink:href="#DejaVuSans-2713"/>
    </g>
   </g>
   <g id="text_62">
    <!-- ✓ -->
    <g style="fill: #ffffff" transform="translate(223.92 727.904375) scale(0.1 -0.1)">
     <use xlink:href="#DejaVuSans-2713"/>
    </g>
   </g>
   <g id="text_63">
    <!-- ✓ -->
    <g style="fill: #ffffff" transform="translate(469.44 702.529375) scale(0.1 -0.1)">
     <use xlink:href="#DejaVuSans-2713"/>
    </g>
   </g>
   <g id="text_64">
    <!-- ✓ -->
    <g style="fill: #ffffff" transform="translate(435.96 677.154375) scale(0.1 -0.1)">
     <use xlink:href="#DejaVuSans-2713"/>
    </g>
   </g>
   <g id="text_65">
    <!-- ✓ -->
    <g style="fill: #ffffff" transform="translate(290.88 651.779375) scale(0.1 -0.1)">
     <use xlink:href="#DejaVuSans-2713"/>
    </g>
   </g>
   <g id="text_66">
    <!-- ✓ -->
    <g style="fill: #ffffff" transform="translate(391.32 626.404375) scale(0.1 -0.1)">
     <use xlink:href="#DejaVuSans-2713"/>
    </g>
   </g>
   <g id="text_67">
    <!-- ✓ -->
    <g style="fill: #ffffff" transform="translate(447.12 601.029375) scale(0.1 -0.1)">
     <use xlink:href="#DejaVuSans-2713"/>
    </g>
   </g>
   <g id="text_68">
    <!-- ✓ -->
    <g style="fill: #ffffff" transform="translate(346.68 575.654375) scale(0.1 -0.1)">
     <use xlink:href="#DejaVuSans-2713"/>
    </g>
   </g>
   <g id="text_69">
    <!-- ✓ -->
    <g style="fill: #ffffff" transform="translate(514.08 550.279375) scale(0.1 -0.1)">
     <use xlink:href="#DejaVuSans-2713"/>
    </g>
   </g>
   <g id="text_70">
    <!-- ✓ -->
    <g style="fill: #ffffff" transform="translate(447.12 499.529375) scale(0.1 -0.1)">
     <use xlink:href="#DejaVuSans-2713"/>
    </g>
   </g>
   <g id="text_71">
    <!-- ✓ -->
    <g style="fill: #ffffff" transform="translate(469.44 474.154375) scale(0.1 -0.1)">
     <use xlink:href="#DejaVuSans-2713"/>
    </g>
   </g>
   <g id="text_72">
    <!-- ✗ -->
    <g style="fill: #ffffff" transform="translate(592.2 448.779375) scale(0.1 -0.1)">
     <use xlink:href="#DejaVuSans-2717"/>
    </g>
   </g>
   <g id="text_73">
    <!-- ✓ -->
    <g style="fill: #ffffff" transform="translate(491.76 423.404375) scale(0.1 -0.1)">
     <use xlink:href="#DejaVuSans-2713"/>
    </g>
   </g>
   <g id="text_74">
    <!-- ✓ -->
    <g style="fill: #ffffff" transform="translate(290.88 398.029375) scale(0.1 -0.1)">
     <use xlink:href="#DejaVuSans-2713"/>
    </g>
   </g>
   <g id="text_75">
    <!-- ✓ -->
    <g style="fill: #ffffff" transform="translate(313.2 372.654375) scale(0.1 -0.1)">
     <use xlink:href="#DejaVuSans-2713"/>
    </g>
   </g>
   <g id="text_76">
    <!-- ✓ -->
    <g style="fill: #ffffff" transform="translate(201.6 347.279375) scale(0.1 -0.1)">
     <use xlink:href="#DejaVuSans-2713"/>
    </g>
   </g>
   <g id="text_77">
    <!-- ✓ -->
    <g style="fill: #ffffff" transform="translate(279.72 321.904375) scale(0.1 -0.1)">
     <use xlink:href="#DejaVuSans-2713"/>
    </g>
   </g>
   <g id="text_78">
    <!-- ✓ -->
    <g style="fill: #ffffff" transform="translate(369 296.529375) scale(0.1 -0.1)">
     <use xlink:href="#DejaVuSans-2713"/>
    </g>
   </g>
   <g id="text_79">
    <!-- ✓ -->
    <g style="fill: #ffffff" transform="translate(469.44 271.154375) scale(0.1 -0.1)">
     <use xlink:href="#DejaVuSans-2713"/>
    </g>
   </g>
   <g id="text_80">
    <!-- ✗ -->
    <g style="fill: #ffffff" transform="translate(592.2 245.779375) scale(0.1 -0.1)">
     <use xlink:href="#DejaVuSans-2717"/>
    </g>
   </g>
   <g id="text_81">
    <!-- ✗ -->
    <g style="fill: #ffffff" transform="translate(547.56 220.404375) scale(0.1 -0.1)">
     <use xlink:href="#DejaVuSans-2717"/>
    </g>
   </g>
   <g id="text_82">
    <!-- ✓ -->
    <g style="fill: #ffffff" transform="translate(357.84 195.029375) scale(0.1 -0.1)">
     <use xlink:href="#DejaVuSans-2713"/>
    </g>
   </g>
   <g id="text_83">
    <!-- ✓ -->
    <g style="fill: #ffffff" transform="translate(480.6 169.654375) scale(0.1 -0.1)">
     <use xlink:href="#DejaVuSans-2713"/>
    </g>
   </g>
   <g id="text_84">
    <!-- PICP by ticker (67% interval) -->
    <g transform="translate(283.190625 119.28) scale(0.12 -0.12)">
     <defs>
      <path id="DejaVuSans-20" transform="scale(0.015625)"/>
      <path id="DejaVuSans-62" d="M 3116 1747 
Q 3116 2381 2855 2742 
Q 2594 3103 2138 3103 
Q 1681 3103 1420 2742 
Q 1159 2381 1159 1747 
Q 1159 1113 1420 752 
Q 1681 391 2138 391 
Q 2594 391 2855 752 
Q 3116 1113 3116 1747 
z
M 1159 2969 
Q 1341 3281 1617 3432 
Q 1894 3584 2278 3584 
Q 2916 3584 3314 3078 
Q 3713 2572 3713 1747 
Q 3713 922 3314 415 
Q 2916 -91 2278 -91 
Q 1894 -91 1617 61 
Q 1341 213 1159 525 
L 1159 0 
L 581 0 
L 581 4863 
L 1159 4863 
L 1159 2969 
z
" transform="scale(0.015625)"/>
      <path id="DejaVuSans-79" d="M 2059 -325 
Q 1816 -950 1584 -1140 
Q 1353 -1331 966 -1331 
L 506 -1331 
L 506 -850 
L 844 -850 
Q 1081 -850 1212 -737 
Q 1344 -625 1503 -206 
L 1606 56 
L 191 3500 
L 800 3500 
L 1894 763 
L 2988 3500 
L 3597 3500 
L 2059 -325 
z
" transform="scale(0.015625)"/>
      <path id="DejaVuSans-74" d="M 1172 4494 
L 1172 3500 
L 2356 3500 
L 2356 3053 
L 1172 3053 
L 1172 1153 
Q 1172 725 1289 603 
Q 1406 481 1766 481 
L 2356 481 
L 2356 0 
L 1766 0 
Q 1100 0 847 248 
Q 594 497 594 1153 
L 594 3053 
L 172 3053 
L 172 3500 
L 594 3500 
L 594 4494 
L 1172 4494 
z
" transform="scale(0.015625)"/>
      <path id="DejaVuSans-69" d="M 603 3500 
L 1178 3500 
L 1178 0 
L 603 0 
L 603 3500 
z
M 603 4863 
L 1178 4863 
L 1178 4134 
L 603 4134 
L 603 4863 
z
" transform="scale(0.015625)"/>
      <path id="DejaVuSans-63" d="M 3122 3366 
L 3122 2828 
Q 2878 2963 2633 3030 
Q 2388 3097 2138 3097 
Q 1578 3097 1268 2742 
Q 959 2388 959 1747 
Q 959 1106 1268 751 
Q 1578 397 2138 397 
Q 2388 397 2633 464 
Q 2878 531 3122 666 
L 3122 134 
Q 2881 22 2623 -34 
Q 2366 -91 2075 -91 
Q 1284 -91 818 406 
Q 353 903 353 1747 
Q 353 2603 823 3093 
Q 1294 3584 2113 3584 
Q 2378 3584 2631 3529 
Q 2884 3475 3122 3366 
z
" transform="scale(0.015625)"/>
      <path id="DejaVuSans-6b" d="M 581 4863 
L 1159 4863 
L 1159 1991 
L 2875 3500 
L 3609 3500 
L 1753 1863 
L 3688 0 
L 2938 0 
L 1159 1709 
L 1159 0 
L 581 0 
L 581 4863 
z
" transform="scale(0.015625)"/>
      <path id="DejaVuSans-65" d="M 3597 1894 
L 3597 1613 
L 953 1613 
Q 991 1019 1311 708 
Q 1631 397 2203 397 
Q 2534 397 2845 478 
Q 3156 559 3463 722 
L 3463 178 
Q 3153 47 2828 -22 
Q 2503 -91 2169 -91 
Q 1331 -91 842 396 
Q 353 884 353 1716 
Q 353 2575 817 3079 
Q 1281 3584 2069 3584 
Q 2775 3584 3186 3129 
Q 3597 2675 3597 1894 
z
M 3022 2063 
Q 3016 2534 2758 2815 
Q 2500 3097 2075 3097 
Q 1594 3097 1305 2825 
Q 1016 2553 972 2059 
L 3022 2063 
z
" transform="scale(0.015625)"/>
      <path id="DejaVuSans-72" d="M 2631 2963 
Q 2534 3019 2420 3045 
Q 2306 3072 2169 3072 
Q 1681 3072 1420 2755 
Q 1159 2438 1159 1844 
L 1159 0 
L 581 0 
L 581 3500 
L 1159 3500 
L 1159 2956 
Q 1341 3275 1631 3429 
Q 1922 3584 2338 3584 
Q 2397 3584 2469 3576 
Q 2541 3569 2628 3553 
L 2631 2963 
z
" transform="scale(0.015625)"/>
      <path id="DejaVuSans-28" d="M 1984 4856 
Q 1566 4138 1362 3434 
Q 1159 2731 1159 2009 
Q 1159 1288 1364 580 
Q 1569 -128 1984 -844 
L 1484 -844 
Q 1016 -109 783 600 
Q 550 1309 550 2009 
Q 550 2706 781 3412 
Q 1013 4119 1484 4856 
L 1984 4856 
z
" transform="scale(0.015625)"/>
      <path id="DejaVuSans-6e" d="M 3513 2113 
L 3513 0 
L 2938 0 
L 2938 2094 
Q 2938 2591 2744 2837 
Q 2550 3084 2163 3084 
Q 1697 3084 1428 2787 
Q 1159 2491 1159 1978 
L 1159 0 
L 581 0 
L 581 3500 
L 1159 3500 
L 1159 2956 
Q 1366 3272 1645 3428 
Q 1925 3584 2291 3584 
Q 2894 3584 3203 3211 
Q 3513 2838 3513 2113 
z
" transform="scale(0.015625)"/>
      <path id="DejaVuSans-76" d="M 191 3500 
L 800 3500 
L 1894 563 
L 2988 3500 
L 3597 3500 
L 2284 0 
L 1503 0 
L 191 3500 
z
" transform="scale(0.015625)"/>
      <path id="DejaVuSans-61" d="M 2194 1759 
Q 1497 1759 1228 1600 
Q 959 1441 959 1056 
Q 959 750 1161 570 
Q 1363 391 1709 391 
Q 2188 391 2477 730 
Q 2766 1069 2766 1631 
L 2766 1759 
L 2194 1759 
z
M 3341 1997 
L 3341 0 
L 2766 0 
L 2766 531 
Q 2569 213 2275 61 
Q 1981 -91 1556 -91 
Q 1019 -91 701 211 
Q 384 513 384 1019 
Q 384 1609 779 1909 
Q 1175 2209 1959 2209 
L 2766 2209 
L 2766 2266 
Q 2766 2663 2505 2880 
Q 2244 3097 1772 3097 
Q 1472 3097 1187 3025 
Q 903 2953 641 2809 
L 641 3341 
Q 956 3463 1253 3523 
Q 1550 3584 1831 3584 
Q 2591 3584 2966 3190 
Q 3341 2797 3341 1997 
z
" transform="scale(0.015625)"/>
      <path id="DejaVuSans-6c" d="M 603 4863 
L 1178 4863 
L 1178 0 
L 603 0 
L 603 4863 
z
" transform="scale(0.015625)"/>
      <path id="DejaVuSans-29" d="M 513 4856 
L 1013 4856 
Q 1481 4119 1714 3412 
Q 1947 2706 1947 2009 
Q 1947 1309 1714 600 
Q 1481 -109 1013 -844 
L 513 -844 
Q 928 -128 1133 580 
Q 1338 1288 1338 2009 
Q 1338 2731 1133 3434 
Q 928 4138 513 4856 
z
" transform="scale(0.015625)"/>
     </defs>
     <use xlink:href="#DejaVuSans-50"/>
     <use xlink:href="#DejaVuSans-49" transform="translate(60.302734 0)"/>
     <use xlink:href="#DejaVuSans-43" transform="translate(89.794922 0)"/>
     <use xlink:href="#DejaVuSans-50" transform="translate(159.619141 0)"/>
     <use xlink:href="#DejaVuSans-20" transform="translate(219.921875 0)"/>
     <use xlink:href="#DejaVuSans-62" transform="translate(251.708984 0)"/>
     <use xlink:href="#DejaVuSans-79" transform="translate(315.185547 0)"/>
     <use xlink:href="#DejaVuSans-20" transform="translate(374.365234 0)"/>
     <use xlink:href="#DejaVuSans-74" transform="translate(406.152344 0)"/>
     <use xlink:href="#DejaVuSans-69" transform="translate(445.361328 0)"/>
     <use xlink:href="#DejaVuSans-63" transform="translate(473.144531 0)"/>
     <use xlink:href="#DejaVuSans-6b" transform="translate(528.125 0)"/>
     <use xlink:href="#DejaVuSans-65" transform="translate(582.410156 0)"/>
     <use xlink:href="#DejaVuSans-72" transform="translate(643.933594 0)"/>
     <use xlink:href="#DejaVuSans-20" transform="translate(685.046875 0)"/>
     <use xlink:href="#DejaVuSans-28" transform="translate(716.833984 0)"/>
     <use xlink:href="#DejaVuSans-36" transform="translate(755.847656 0)"/>
     <use xlink:href="#DejaVuSans-37" transform="translate(819.470703 0)"/>
     <use xlink:href="#DejaVuSans-25" transform="translate(883.09375 0)"/>
     <use xlink:href="#DejaVuSans-20" transform="translate(978.113281 0)"/>
     <use xlink:href="#DejaVuSans-69" transform="translate(1009.900391 0)"/>
     <use xlink:href="#DejaVuSans-6e" transform="translate(1037.683594 0)"/>
     <use xlink:href="#DejaVuSans-74" transform="translate(1101.0625 0)"/>
     <use xlink:href="#DejaVuSans-65" transform="translate(1140.271484 0)"/>
     <use xlink:href="#DejaVuSans-72" transform="translate(1201.794922 0)"/>
     <use xlink:href="#DejaVuSans-76" transform="translate(1242.908203 0)"/>
     <use xlink:href="#DejaVuSans-61" transform="translate(1302.087891 0)"/>
     <use xlink:href="#DejaVuSans-6c" transform="translate(1363.367188 0)"/>
     <use xlink:href="#DejaVuSans-29" transform="translate(1391.150391 0)"/>
    </g>
   </g>
   <g id="legend_1">
    <g id="patch_65">
     <path d="M 532.4625 177.314375 
L 641 177.314375 
Q 643 177.314375 643 175.314375 
L 643 132.28 
Q 643 130.28 641 130.28 
L 532.4625 130.28 
Q 530.4625 130.28 530.4625 132.28 
L 530.4625 175.314375 
Q 530.4625 177.314375 532.4625 177.314375 
z
" style="fill: #ffffff; opacity: 0.8; stroke: #cccccc; stroke-linejoin: miter"/>
    </g>
    <g id="line2d_39">
     <path d="M 534.4625 138.378437 
L 544.4625 138.378437 
L 554.4625 138.378437 
" style="fill: none; stroke-dasharray: 5.55,2.4; stroke-dashoffset: 0; stroke: #000000; stroke-width: 1.5"/>
    </g>
    <g id="text_85">
     <!-- Target -->
     <g transform="translate(562.4625 141.878437) scale(0.1 -0.1)">
      <defs>
       <path id="DejaVuSans-67" d="M 2906 1791 
Q 2906 2416 2648 2759 
Q 2391 3103 1925 3103 
Q 1463 3103 1205 2759 
Q 947 2416 947 1791 
Q 947 1169 1205 825 
Q 1463 481 1925 481 
Q 2391 481 2648 825 
Q 2906 1169 2906 1791 
z
M 3481 434 
Q 3481 -459 3084 -895 
Q 2688 -1331 1869 -1331 
Q 1566 -1331 1297 -1286 
Q 1028 -1241 775 -1147 
L 775 -588 
Q 1028 -725 1275 -790 
Q 1522 -856 1778 -856 
Q 2344 -856 2625 -561 
Q 2906 -266 2906 331 
L 2906 616 
Q 2728 306 2450 153 
Q 2172 0 1784 0 
Q 1141 0 747 490 
Q 353 981 353 1791 
Q 353 2603 747 3093 
Q 1141 3584 1784 3584 
Q 2172 3584 2450 3431 
Q 2728 3278 2906 2969 
L 2906 3500 
L 3481 3500 
L 3481 434 
z
" transform="scale(0.015625)"/>
      </defs>
      <use xlink:href="#DejaVuSans-54"/>
      <use xlink:href="#DejaVuSans-61" transform="translate(44.583984 0)"/>
      <use xlink:href="#DejaVuSans-72" transform="translate(105.863281 0)"/>
      <use xlink:href="#DejaVuSans-67" transform="translate(145.226562 0)"/>
      <use xlink:href="#DejaVuSans-65" transform="translate(208.703125 0)"/>
      <use xlink:href="#DejaVuSans-74" transform="translate(270.226562 0)"/>
     </g>
    </g>
    <g id="patch_66">
     <path d="M 534.4625 156.556562 
L 554.4625 156.556562 
L 554.4625 149.556562 
L 534.4625 149.556562 
z
" style="fill: #1f77b4"/>
    </g>
    <g id="text_86">
     <!-- GARCH -->
     <g transform="translate(562.4625 156.556562) scale(0.1 -0.1)">
      <use xlink:href="#DejaVuSans-47"/>
      <use xlink:href="#DejaVuSans-41" transform="translate(77.490234 0)"/>
      <use xlink:href="#DejaVuSans-52" transform="translate(145.898438 0)"/>
      <use xlink:href="#DejaVuSans-43" transform="translate(210.380859 0)"/>
      <use xlink:href="#DejaVuSans-48" transform="translate(280.205078 0)"/>
     </g>
    </g>
    <g id="patch_67">
     <path d="M 534.4625 171.234687 
L 554.4625 171.234687 
L 554.4625 164.234687 
L 534.4625 164.234687 
z
" style="fill: #ff7f0e"/>
    </g>
    <g id="text_87">
     <!-- LSTM MDN ffnn -->
     <g transform="translate(562.4625 171.234687) scale(0.1 -0.1)">
      <defs>
       <path id="DejaVuSans-66" d="M 2375 4863 
L 2375 4384 
L 1825 4384 
Q 1516 4384 1395 4259 
Q 1275 4134 1275 3809 
L 1275 3500 
L 2222 3500 
L 2222 3053 
L 1275 3053 
L 1275 0 
L 697 0 
L 697 3053 
L 147 3053 
L 147 3500 
L 697 3500 
L 697 3744 
Q 697 4328 969 4595 
Q 1241 4863 1831 4863 
L 2375 4863 
z
" transform="scale(0.015625)"/>
      </defs>
      <use xlink:href="#DejaVuSans-4c"/>
      <use xlink:href="#DejaVuSans-53" transform="translate(55.712891 0)"/>
      <use xlink:href="#DejaVuSans-54" transform="translate(119.189453 0)"/>
      <use xlink:href="#DejaVuSans-4d" transform="translate(180.273438 0)"/>
      <use xlink:href="#DejaVuSans-20" transform="translate(266.552734 0)"/>
      <use xlink:href="#DejaVuSans-4d" transform="translate(298.339844 0)"/>
      <use xlink:href="#DejaVuSans-44" transform="translate(384.619141 0)"/>
      <use xlink:href="#DejaVuSans-4e" transform="translate(461.621094 0)"/>
      <use xlink:href="#DejaVuSans-20" transform="translate(536.425781 0)"/>
      <use xlink:href="#DejaVuSans-66" transform="translate(568.212891 0)"/>
      <use xlink:href="#DejaVuSans-66" transform="translate(603.417969 0)"/>
      <use xlink:href="#DejaVuSans-6e" transform="translate(638.623047 0)"/>
      <use xlink:href="#DejaVuSans-6e" transform="translate(702.001953 0)"/>
     </g>
    </g>
   </g>
  </g>
 </g>
 <defs>
  <clipPath id="pcfcc3921f2">
   <rect x="90" y="125.28" width="558" height="803.88"/>
  </clipPath>
 </defs>
</svg>
