<?xml version="1.0" encoding="utf-8" standalone="no"?>
<!DOCTYPE svg PUBLIC "-//W3C//DTD SVG 1.1//EN"
  "http://www.w3.org/Graphics/SVG/1.1/DTD/svg11.dtd">
<svg xmlns:xlink="http://www.w3.org/1999/xlink" width="720pt" height="1080pt" viewBox="0 0 720 1080" xmlns="http://www.w3.org/2000/svg" version="1.1">
 <metadata>
  <rdf:RDF xmlns:dc="http://purl.org/dc/elements/1.1/" xmlns:cc="http://creativecommons.org/ns#" xmlns:rdf="http://www.w3.org/1999/02/22-rdf-syntax-ns#">
   <cc:Work>
    <dc:type rdf:resource="http://purl.org/dc/dcmitype/StillImage"/>
    <dc:date>2025-03-10T13:06:13.896175</dc:date>
    <dc:format>image/svg+xml</dc:format>
    <dc:creator>
     <cc:Agent>
      <dc:title>Matplotlib v3.10.0, https://matplotlib.org/</dc:title>
     </cc:Agent>
    </dc:creator>
   </cc:Work>
  </rdf:RDF>
 </metadata>
 <defs>
  <style type="text/css">*{stroke-linejoin: round; stroke-linecap: butt}</style>
 </defs>
 <g id="figure_1">
  <g id="patch_1">
   <path d="M 0 1080 
L 720 1080 
L 720 0 
L 0 0 
z
" style="fill: #ffffff"/>
  </g>
  <g id="axes_1">
   <g id="patch_2">
    <path d="M 90 961.2 
L 648 961.2 
L 648 129.6 
L 90 129.6 
z
" style="fill: #ffffff"/>
   </g>
   <g id="patch_3">
    <path d="M -2281.5 923.4 
L 402.90239 923.4 
L 402.90239 918.326174 
L -2281.5 918.326174 
z
" clip-path="url(#p2ed014fe6a)" style="fill: #1f77b4"/>
   </g>
   <g id="patch_4">
    <path d="M -2281.5 898.030872 
L 397.344622 898.030872 
L 397.344622 892.957047 
L -2281.5 892.957047 
z
" clip-path="url(#p2ed014fe6a)" style="fill: #1f77b4"/>
   </g>
   <g id="patch_5">
    <path d="M -2281.5 872.661745 
L 391.786853 872.661745 
L 391.786853 867.587919 
L -2281.5 867.587919 
z
" clip-path="url(#p2ed014fe6a)" style="fill: #1f77b4"/>
   </g>
   <g id="patch_6">
    <path d="M -2281.5 847.292617 
L 408.460159 847.292617 
L 408.460159 842.218792 
L -2281.5 842.218792 
z
" clip-path="url(#p2ed014fe6a)" style="fill: #1f77b4"/>
   </g>
   <g id="patch_7">
    <path d="M -2281.5 821.92349 
L 330.651394 821.92349 
L 330.651394 816.849664 
L -2281.5 816.849664 
z
" clip-path="url(#p2ed014fe6a)" style="fill: #1f77b4"/>
   </g>
   <g id="patch_8">
    <path d="M -2281.5 796.554362 
L 352.88247 796.554362 
L 352.88247 791.480537 
L -2281.5 791.480537 
z
" clip-path="url(#p2ed014fe6a)" style="fill: #1f77b4"/>
   </g>
   <g id="patch_9">
    <path d="M -2281.5 771.185235 
L 386.229084 771.185235 
L 386.229084 766.111409 
L -2281.5 766.111409 
z
" clip-path="url(#p2ed014fe6a)" style="fill: #1f77b4"/>
   </g>
   <g id="patch_10">
    <path d="M -2281.5 745.816107 
L 430.691235 745.816107 
L 430.691235 740.742282 
L -2281.5 740.742282 
z
" clip-path="url(#p2ed014fe6a)" style="fill: #1f77b4"/>
   </g>
   <g id="patch_11">
    <path d="M -2281.5 720.44698 
L 336.209163 720.44698 
L 336.209163 715.373154 
L -2281.5 715.373154 
z
" clip-path="url(#p2ed014fe6a)" style="fill: #1f77b4"/>
   </g>
   <g id="patch_12">
    <path d="M -2281.5 695.077852 
L 380.671315 695.077852 
L 380.671315 690.004027 
L -2281.5 690.004027 
z
" clip-path="url(#p2ed014fe6a)" style="fill: #1f77b4"/>
   </g>
   <g id="patch_13">
    <path d="M -2281.5 669.708725 
L 397.344622 669.708725 
L 397.344622 664.634899 
L -2281.5 664.634899 
z
" clip-path="url(#p2ed014fe6a)" style="fill: #1f77b4"/>
   </g>
   <g id="patch_14">
    <path d="M -2281.5 644.339597 
L 352.88247 644.339597 
L 352.88247 639.265772 
L -2281.5 639.265772 
z
" clip-path="url(#p2ed014fe6a)" style="fill: #1f77b4"/>
   </g>
   <g id="patch_15">
    <path d="M -2281.5 618.97047 
L 358.440239 618.97047 
L 358.440239 613.896644 
L -2281.5 613.896644 
z
" clip-path="url(#p2ed014fe6a)" style="fill: #1f77b4"/>
   </g>
   <g id="patch_16">
    <path d="M -2281.5 593.601342 
L 380.671315 593.601342 
L 380.671315 588.527517 
L -2281.5 588.527517 
z
" clip-path="url(#p2ed014fe6a)" style="fill: #1f77b4"/>
   </g>
   <g id="patch_17">
    <path d="M -2281.5 568.232215 
L 397.344622 568.232215 
L 397.344622 563.158389 
L -2281.5 563.158389 
z
" clip-path="url(#p2ed014fe6a)" style="fill: #1f77b4"/>
   </g>
   <g id="patch_18">
    <path d="M -2281.5 542.863087 
L 358.440239 542.863087 
L 358.440239 537.789262 
L -2281.5 537.789262 
z
" clip-path="url(#p2ed014fe6a)" style="fill: #1f77b4"/>
   </g>
   <g id="patch_19">
    <path d="M -2281.5 517.49396 
L 358.440239 517.49396 
L 358.440239 512.420134 
L -2281.5 512.420134 
z
" clip-path="url(#p2ed014fe6a)" style="fill: #1f77b4"/>
   </g>
   <g id="patch_20">
    <path d="M -2281.5 492.124832 
L 380.671315 492.124832 
L 380.671315 487.051007 
L -2281.5 487.051007 
z
" clip-path="url(#p2ed014fe6a)" style="fill: #1f77b4"/>
   </g>
   <g id="patch_21">
    <path d="M -2281.5 466.755705 
L 391.786853 466.755705 
L 391.786853 461.681879 
L -2281.5 461.681879 
z
" clip-path="url(#p2ed014fe6a)" style="fill: #1f77b4"/>
   </g>
   <g id="patch_22">
    <path d="M -2281.5 441.386577 
L 386.229084 441.386577 
L 386.229084 436.312752 
L -2281.5 436.312752 
z
" clip-path="url(#p2ed014fe6a)" style="fill: #1f77b4"/>
   </g>
   <g id="patch_23">
    <path d="M -2281.5 416.01745 
L 313.978088 416.01745 
L 313.978088 410.943624 
L -2281.5 410.943624 
z
" clip-path="url(#p2ed014fe6a)" style="fill: #1f77b4"/>
   </g>
   <g id="patch_24">
    <path d="M -2281.5 390.648322 
L 425.133466 390.648322 
L 425.133466 385.574497 
L -2281.5 385.574497 
z
" clip-path="url(#p2ed014fe6a)" style="fill: #1f77b4"/>
   </g>
   <g id="patch_25">
    <path d="M -2281.5 365.279195 
L 352.88247 365.279195 
L 352.88247 360.205369 
L -2281.5 360.205369 
z
" clip-path="url(#p2ed014fe6a)" style="fill: #1f77b4"/>
   </g>
   <g id="patch_26">
    <path d="M -2281.5 339.910067 
L 330.651394 339.910067 
L 330.651394 334.836242 
L -2281.5 334.836242 
z
" clip-path="url(#p2ed014fe6a)" style="fill: #1f77b4"/>
   </g>
   <g id="patch_27">
    <path d="M -2281.5 314.54094 
L 358.440239 314.54094 
L 358.440239 309.467114 
L -2281.5 309.467114 
z
" clip-path="url(#p2ed014fe6a)" style="fill: #1f77b4"/>
   </g>
   <g id="patch_28">
    <path d="M -2281.5 289.171812 
L 369.555777 289.171812 
L 369.555777 284.097987 
L -2281.5 284.097987 
z
" clip-path="url(#p2ed014fe6a)" style="fill: #1f77b4"/>
   </g>
   <g id="patch_29">
    <path d="M -2281.5 263.802685 
L 386.229084 263.802685 
L 386.229084 258.728859 
L -2281.5 258.728859 
z
" clip-path="url(#p2ed014fe6a)" style="fill: #1f77b4"/>
   </g>
   <g id="patch_30">
    <path d="M -2281.5 238.433557 
L 347.324701 238.433557 
L 347.324701 233.359732 
L -2281.5 233.359732 
z
" clip-path="url(#p2ed014fe6a)" style="fill: #1f77b4"/>
   </g>
   <g id="patch_31">
    <path d="M -2281.5 213.06443 
L 352.88247 213.06443 
L 352.88247 207.990604 
L -2281.5 207.990604 
z
" clip-path="url(#p2ed014fe6a)" style="fill: #1f77b4"/>
   </g>
   <g id="patch_32">
    <path d="M -2281.5 187.695302 
L 430.691235 187.695302 
L 430.691235 182.621477 
L -2281.5 182.621477 
z
" clip-path="url(#p2ed014fe6a)" style="fill: #1f77b4"/>
   </g>
   <g id="patch_33">
    <path d="M -2281.5 918.326174 
L 386.229084 918.326174 
L 386.229084 913.252349 
L -2281.5 913.252349 
z
" clip-path="url(#p2ed014fe6a)" style="fill: #ff7f0e"/>
   </g>
   <g id="patch_34">
    <path d="M -2281.5 892.957047 
L 386.229084 892.957047 
L 386.229084 887.883221 
L -2281.5 887.883221 
z
" clip-path="url(#p2ed014fe6a)" style="fill: #ff7f0e"/>
   </g>
   <g id="patch_35">
    <path d="M -2281.5 867.587919 
L 325.093625 867.587919 
L 325.093625 862.514094 
L -2281.5 862.514094 
z
" clip-path="url(#p2ed014fe6a)" style="fill: #ff7f0e"/>
   </g>
   <g id="patch_36">
    <path d="M -2281.5 842.218792 
L 352.88247 842.218792 
L 352.88247 837.144966 
L -2281.5 837.144966 
z
" clip-path="url(#p2ed014fe6a)" style="fill: #ff7f0e"/>
   </g>
   <g id="patch_37">
    <path d="M -2281.5 816.849664 
L 347.324701 816.849664 
L 347.324701 811.775839 
L -2281.5 811.775839 
z
" clip-path="url(#p2ed014fe6a)" style="fill: #ff7f0e"/>
   </g>
   <g id="patch_38">
    <path d="M -2281.5 791.480537 
L 341.766932 791.480537 
L 341.766932 786.406711 
L -2281.5 786.406711 
z
" clip-path="url(#p2ed014fe6a)" style="fill: #ff7f0e"/>
   </g>
   <g id="patch_39">
    <path d="M -2281.5 766.111409 
L 325.093625 766.111409 
L 325.093625 761.037584 
L -2281.5 761.037584 
z
" clip-path="url(#p2ed014fe6a)" style="fill: #ff7f0e"/>
   </g>
   <g id="patch_40">
    <path d="M -2281.5 740.742282 
L 386.229084 740.742282 
L 386.229084 735.668456 
L -2281.5 735.668456 
z
" clip-path="url(#p2ed014fe6a)" style="fill: #ff7f0e"/>
   </g>
   <g id="patch_41">
    <path d="M -2281.5 715.373154 
L 375.113546 715.373154 
L 375.113546 710.299329 
L -2281.5 710.299329 
z
" clip-path="url(#p2ed014fe6a)" style="fill: #ff7f0e"/>
   </g>
   <g id="patch_42">
    <path d="M -2281.5 690.004027 
L 302.86255 690.004027 
L 302.86255 684.930201 
L -2281.5 684.930201 
z
" clip-path="url(#p2ed014fe6a)" style="fill: #ff7f0e"/>
   </g>
   <g id="patch_43">
    <path d="M -2281.5 664.634899 
L -2281.5 664.634899 
L -2281.5 659.561074 
L -2281.5 659.561074 
z
" clip-path="url(#p2ed014fe6a)" style="fill: #ff7f0e"/>
   </g>
   <g id="patch_44">
    <path d="M -2281.5 639.265772 
L 369.555777 639.265772 
L 369.555777 634.191946 
L -2281.5 634.191946 
z
" clip-path="url(#p2ed014fe6a)" style="fill: #ff7f0e"/>
   </g>
   <g id="patch_45">
    <path d="M -2281.5 613.896644 
L 352.88247 613.896644 
L 352.88247 608.822819 
L -2281.5 608.822819 
z
" clip-path="url(#p2ed014fe6a)" style="fill: #ff7f0e"/>
   </g>
   <g id="patch_46">
    <path d="M -2281.5 588.527517 
L 425.133466 588.527517 
L 425.133466 583.453691 
L -2281.5 583.453691 
z
" clip-path="url(#p2ed014fe6a)" style="fill: #ff7f0e"/>
   </g>
   <g id="patch_47">
    <path d="M -2281.5 563.158389 
L 397.344622 563.158389 
L 397.344622 558.084564 
L -2281.5 558.084564 
z
" clip-path="url(#p2ed014fe6a)" style="fill: #ff7f0e"/>
   </g>
   <g id="patch_48">
    <path d="M -2281.5 537.789262 
L 280.631474 537.789262 
L 280.631474 532.715436 
L -2281.5 532.715436 
z
" clip-path="url(#p2ed014fe6a)" style="fill: #ff7f0e"/>
   </g>
   <g id="patch_49">
    <path d="M -2281.5 512.420134 
L 391.786853 512.420134 
L 391.786853 507.346309 
L -2281.5 507.346309 
z
" clip-path="url(#p2ed014fe6a)" style="fill: #ff7f0e"/>
   </g>
   <g id="patch_50">
    <path d="M -2281.5 487.051007 
L 380.671315 487.051007 
L 380.671315 481.977181 
L -2281.5 481.977181 
z
" clip-path="url(#p2ed014fe6a)" style="fill: #ff7f0e"/>
   </g>
   <g id="patch_51">
    <path d="M -2281.5 461.681879 
L 430.691235 461.681879 
L 430.691235 456.608054 
L -2281.5 456.608054 
z
" clip-path="url(#p2ed014fe6a)" style="fill: #ff7f0e"/>
   </g>
   <g id="patch_52">
    <path d="M -2281.5 436.312752 
L 397.344622 436.312752 
L 397.344622 431.238926 
L -2281.5 431.238926 
z
" clip-path="url(#p2ed014fe6a)" style="fill: #ff7f0e"/>
   </g>
   <g id="patch_53">
    <path d="M -2281.5 410.943624 
L 330.651394 410.943624 
L 330.651394 405.869799 
L -2281.5 405.869799 
z
" clip-path="url(#p2ed014fe6a)" style="fill: #ff7f0e"/>
   </g>
   <g id="patch_54">
    <path d="M -2281.5 385.574497 
L 369.555777 385.574497 
L 369.555777 380.500671 
L -2281.5 380.500671 
z
" clip-path="url(#p2ed014fe6a)" style="fill: #ff7f0e"/>
   </g>
   <g id="patch_55">
    <path d="M -2281.5 360.205369 
L 319.535857 360.205369 
L 319.535857 355.131544 
L -2281.5 355.131544 
z
" clip-path="url(#p2ed014fe6a)" style="fill: #ff7f0e"/>
   </g>
   <g id="patch_56">
    <path d="M -2281.5 334.836242 
L 297.304781 334.836242 
L 297.304781 329.762416 
L -2281.5 329.762416 
z
" clip-path="url(#p2ed014fe6a)" style="fill: #ff7f0e"/>
   </g>
   <g id="patch_57">
    <path d="M -2281.5 309.467114 
L 363.998008 309.467114 
L 363.998008 304.393289 
L -2281.5 304.393289 
z
" clip-path="url(#p2ed014fe6a)" style="fill: #ff7f0e"/>
   </g>
   <g id="patch_58">
    <path d="M -2281.5 284.097987 
L 414.017928 284.097987 
L 414.017928 279.024161 
L -2281.5 279.024161 
z
" clip-path="url(#p2ed014fe6a)" style="fill: #ff7f0e"/>
   </g>
   <g id="patch_59">
    <path d="M -2281.5 258.728859 
L 391.786853 258.728859 
L 391.786853 253.655034 
L -2281.5 253.655034 
z
" clip-path="url(#p2ed014fe6a)" style="fill: #ff7f0e"/>
   </g>
   <g id="patch_60">
    <path d="M -2281.5 233.359732 
L 386.229084 233.359732 
L 386.229084 228.285906 
L -2281.5 228.285906 
z
" clip-path="url(#p2ed014fe6a)" style="fill: #ff7f0e"/>
   </g>
   <g id="patch_61">
    <path d="M -2281.5 207.990604 
L 325.093625 207.990604 
L 325.093625 202.916779 
L -2281.5 202.916779 
z
" clip-path="url(#p2ed014fe6a)" style="fill: #ff7f0e"/>
   </g>
   <g id="patch_62">
    <path d="M -2281.5 182.621477 
L 408.460159 182.621477 
L 408.460159 177.547651 
L -2281.5 177.547651 
z
" clip-path="url(#p2ed014fe6a)" style="fill: #ff7f0e"/>
   </g>
   <g id="patch_63">
    <path d="M -2281.5 913.252349 
L 419.575697 913.252349 
L 419.575697 908.178523 
L -2281.5 908.178523 
z
" clip-path="url(#p2ed014fe6a)" style="fill: #2ca02c"/>
   </g>
   <g id="patch_64">
    <path d="M -2281.5 887.883221 
L 375.113546 887.883221 
L 375.113546 882.809396 
L -2281.5 882.809396 
z
" clip-path="url(#p2ed014fe6a)" style="fill: #2ca02c"/>
   </g>
   <g id="patch_65">
    <path d="M -2281.5 862.514094 
L 347.324701 862.514094 
L 347.324701 857.440268 
L -2281.5 857.440268 
z
" clip-path="url(#p2ed014fe6a)" style="fill: #2ca02c"/>
   </g>
   <g id="patch_66">
    <path d="M -2281.5 837.144966 
L 391.786853 837.144966 
L 391.786853 832.071141 
L -2281.5 832.071141 
z
" clip-path="url(#p2ed014fe6a)" style="fill: #2ca02c"/>
   </g>
   <g id="patch_67">
    <path d="M -2281.5 811.775839 
L 397.344622 811.775839 
L 397.344622 806.702013 
L -2281.5 806.702013 
z
" clip-path="url(#p2ed014fe6a)" style="fill: #2ca02c"/>
   </g>
   <g id="patch_68">
    <path d="M -2281.5 786.406711 
L 363.998008 786.406711 
L 363.998008 781.332886 
L -2281.5 781.332886 
z
" clip-path="url(#p2ed014fe6a)" style="fill: #2ca02c"/>
   </g>
   <g id="patch_69">
    <path d="M -2281.5 761.037584 
L 369.555777 761.037584 
L 369.555777 755.963758 
L -2281.5 755.963758 
z
" clip-path="url(#p2ed014fe6a)" style="fill: #2ca02c"/>
   </g>
   <g id="patch_70">
    <path d="M -2281.5 735.668456 
L 369.555777 735.668456 
L 369.555777 730.594631 
L -2281.5 730.594631 
z
" clip-path="url(#p2ed014fe6a)" style="fill: #2ca02c"/>
   </g>
   <g id="patch_71">
    <path d="M -2281.5 710.299329 
L 380.671315 710.299329 
L 380.671315 705.225503 
L -2281.5 705.225503 
z
" clip-path="url(#p2ed014fe6a)" style="fill: #2ca02c"/>
   </g>
   <g id="patch_72">
    <path d="M -2281.5 684.930201 
L 325.093625 684.930201 
L 325.093625 679.856376 
L -2281.5 679.856376 
z
" clip-path="url(#p2ed014fe6a)" style="fill: #2ca02c"/>
   </g>
   <g id="patch_73">
    <path d="M -2281.5 659.561074 
L -2281.5 659.561074 
L -2281.5 654.487248 
L -2281.5 654.487248 
z
" clip-path="url(#p2ed014fe6a)" style="fill: #2ca02c"/>
   </g>
   <g id="patch_74">
    <path d="M -2281.5 634.191946 
L 375.113546 634.191946 
L 375.113546 629.118121 
L -2281.5 629.118121 
z
" clip-path="url(#p2ed014fe6a)" style="fill: #2ca02c"/>
   </g>
   <g id="patch_75">
    <path d="M -2281.5 608.822819 
L 358.440239 608.822819 
L 358.440239 603.748993 
L -2281.5 603.748993 
z
" clip-path="url(#p2ed014fe6a)" style="fill: #2ca02c"/>
   </g>
   <g id="patch_76">
    <path d="M -2281.5 583.453691 
L 402.90239 583.453691 
L 402.90239 578.379866 
L -2281.5 578.379866 
z
" clip-path="url(#p2ed014fe6a)" style="fill: #2ca02c"/>
   </g>
   <g id="patch_77">
    <path d="M -2281.5 558.084564 
L 386.229084 558.084564 
L 386.229084 553.010738 
L -2281.5 553.010738 
z
" clip-path="url(#p2ed014fe6a)" style="fill: #2ca02c"/>
   </g>
   <g id="patch_78">
    <path d="M -2281.5 532.715436 
L 319.535857 532.715436 
L 319.535857 527.641611 
L -2281.5 527.641611 
z
" clip-path="url(#p2ed014fe6a)" style="fill: #2ca02c"/>
   </g>
   <g id="patch_79">
    <path d="M -2281.5 507.346309 
L 363.998008 507.346309 
L 363.998008 502.272483 
L -2281.5 502.272483 
z
" clip-path="url(#p2ed014fe6a)" style="fill: #2ca02c"/>
   </g>
   <g id="patch_80">
    <path d="M -2281.5 481.977181 
L 402.90239 481.977181 
L 402.90239 476.903356 
L -2281.5 476.903356 
z
" clip-path="url(#p2ed014fe6a)" style="fill: #2ca02c"/>
   </g>
   <g id="patch_81">
    <path d="M -2281.5 456.608054 
L 408.460159 456.608054 
L 408.460159 451.534228 
L -2281.5 451.534228 
z
" clip-path="url(#p2ed014fe6a)" style="fill: #2ca02c"/>
   </g>
   <g id="patch_82">
    <path d="M -2281.5 431.238926 
L 386.229084 431.238926 
L 386.229084 426.165101 
L -2281.5 426.165101 
z
" clip-path="url(#p2ed014fe6a)" style="fill: #2ca02c"/>
   </g>
   <g id="patch_83">
    <path d="M -2281.5 405.869799 
L 319.535857 405.869799 
L 319.535857 400.795973 
L -2281.5 400.795973 
z
" clip-path="url(#p2ed014fe6a)" style="fill: #2ca02c"/>
   </g>
   <g id="patch_84">
    <path d="M -2281.5 380.500671 
L 363.998008 380.500671 
L 363.998008 375.426846 
L -2281.5 375.426846 
z
" clip-path="url(#p2ed014fe6a)" style="fill: #2ca02c"/>
   </g>
   <g id="patch_85">
    <path d="M -2281.5 355.131544 
L 341.766932 355.131544 
L 341.766932 350.057718 
L -2281.5 350.057718 
z
" clip-path="url(#p2ed014fe6a)" style="fill: #2ca02c"/>
   </g>
   <g id="patch_86">
    <path d="M -2281.5 329.762416 
L 280.631474 329.762416 
L 280.631474 324.688591 
L -2281.5 324.688591 
z
" clip-path="url(#p2ed014fe6a)" style="fill: #2ca02c"/>
   </g>
   <g id="patch_87">
    <path d="M -2281.5 304.393289 
L 358.440239 304.393289 
L 358.440239 299.319463 
L -2281.5 299.319463 
z
" clip-path="url(#p2ed014fe6a)" style="fill: #2ca02c"/>
   </g>
   <g id="patch_88">
    <path d="M -2281.5 279.024161 
L 414.017928 279.024161 
L 414.017928 273.950336 
L -2281.5 273.950336 
z
" clip-path="url(#p2ed014fe6a)" style="fill: #2ca02c"/>
   </g>
   <g id="patch_89">
    <path d="M -2281.5 253.655034 
L 386.229084 253.655034 
L 386.229084 248.581208 
L -2281.5 248.581208 
z
" clip-path="url(#p2ed014fe6a)" style="fill: #2ca02c"/>
   </g>
   <g id="patch_90">
    <path d="M -2281.5 228.285906 
L 397.344622 228.285906 
L 397.344622 223.212081 
L -2281.5 223.212081 
z
" clip-path="url(#p2ed014fe6a)" style="fill: #2ca02c"/>
   </g>
   <g id="patch_91">
    <path d="M -2281.5 202.916779 
L 330.651394 202.916779 
L 330.651394 197.842953 
L -2281.5 197.842953 
z
" clip-path="url(#p2ed014fe6a)" style="fill: #2ca02c"/>
   </g>
   <g id="patch_92">
    <path d="M -2281.5 177.547651 
L 408.460159 177.547651 
L 408.460159 172.473826 
L -2281.5 172.473826 
z
" clip-path="url(#p2ed014fe6a)" style="fill: #2ca02c"/>
   </g>
   <g id="patch_93">
    <path d="M -2281.5 908.178523 
L 430.691235 908.178523 
L 430.691235 903.104698 
L -2281.5 903.104698 
z
" clip-path="url(#p2ed014fe6a)" style="fill: #d62728"/>
   </g>
   <g id="patch_94">
    <path d="M -2281.5 882.809396 
L 375.113546 882.809396 
L 375.113546 877.73557 
L -2281.5 877.73557 
z
" clip-path="url(#p2ed014fe6a)" style="fill: #d62728"/>
   </g>
   <g id="patch_95">
    <path d="M -2281.5 857.440268 
L 336.209163 857.440268 
L 336.209163 852.366443 
L -2281.5 852.366443 
z
" clip-path="url(#p2ed014fe6a)" style="fill: #d62728"/>
   </g>
   <g id="patch_96">
    <path d="M -2281.5 832.071141 
L 391.786853 832.071141 
L 391.786853 826.997315 
L -2281.5 826.997315 
z
" clip-path="url(#p2ed014fe6a)" style="fill: #d62728"/>
   </g>
   <g id="patch_97">
    <path d="M -2281.5 806.702013 
L 402.90239 806.702013 
L 402.90239 801.628188 
L -2281.5 801.628188 
z
" clip-path="url(#p2ed014fe6a)" style="fill: #d62728"/>
   </g>
   <g id="patch_98">
    <path d="M -2281.5 781.332886 
L 358.440239 781.332886 
L 358.440239 776.25906 
L -2281.5 776.25906 
z
" clip-path="url(#p2ed014fe6a)" style="fill: #d62728"/>
   </g>
   <g id="patch_99">
    <path d="M -2281.5 755.963758 
L 358.440239 755.963758 
L 358.440239 750.889933 
L -2281.5 750.889933 
z
" clip-path="url(#p2ed014fe6a)" style="fill: #d62728"/>
   </g>
   <g id="patch_100">
    <path d="M -2281.5 730.594631 
L 375.113546 730.594631 
L 375.113546 725.520805 
L -2281.5 725.520805 
z
" clip-path="url(#p2ed014fe6a)" style="fill: #d62728"/>
   </g>
   <g id="patch_101">
    <path d="M -2281.5 705.225503 
L 386.229084 705.225503 
L 386.229084 700.151678 
L -2281.5 700.151678 
z
" clip-path="url(#p2ed014fe6a)" style="fill: #d62728"/>
   </g>
   <g id="patch_102">
    <path d="M -2281.5 679.856376 
L 319.535857 679.856376 
L 319.535857 674.78255 
L -2281.5 674.78255 
z
" clip-path="url(#p2ed014fe6a)" style="fill: #d62728"/>
   </g>
   <g id="patch_103">
    <path d="M -2281.5 654.487248 
L -2281.5 654.487248 
L -2281.5 649.413423 
L -2281.5 649.413423 
z
" clip-path="url(#p2ed014fe6a)" style="fill: #d62728"/>
   </g>
   <g id="patch_104">
    <path d="M -2281.5 629.118121 
L 375.113546 629.118121 
L 375.113546 624.044295 
L -2281.5 624.044295 
z
" clip-path="url(#p2ed014fe6a)" style="fill: #d62728"/>
   </g>
   <g id="patch_105">
    <path d="M -2281.5 603.748993 
L 358.440239 603.748993 
L 358.440239 598.675168 
L -2281.5 598.675168 
z
" clip-path="url(#p2ed014fe6a)" style="fill: #d62728"/>
   </g>
   <g id="patch_106">
    <path d="M -2281.5 578.379866 
L 414.017928 578.379866 
L 414.017928 573.30604 
L -2281.5 573.30604 
z
" clip-path="url(#p2ed014fe6a)" style="fill: #d62728"/>
   </g>
   <g id="patch_107">
    <path d="M -2281.5 553.010738 
L 397.344622 553.010738 
L 397.344622 547.936913 
L -2281.5 547.936913 
z
" clip-path="url(#p2ed014fe6a)" style="fill: #d62728"/>
   </g>
   <g id="patch_108">
    <path d="M -2281.5 527.641611 
L 325.093625 527.641611 
L 325.093625 522.567785 
L -2281.5 522.567785 
z
" clip-path="url(#p2ed014fe6a)" style="fill: #d62728"/>
   </g>
   <g id="patch_109">
    <path d="M -2281.5 502.272483 
L 380.671315 502.272483 
L 380.671315 497.198658 
L -2281.5 497.198658 
z
" clip-path="url(#p2ed014fe6a)" style="fill: #d62728"/>
   </g>
   <g id="patch_110">
    <path d="M -2281.5 476.903356 
L 402.90239 476.903356 
L 402.90239 471.82953 
L -2281.5 471.82953 
z
" clip-path="url(#p2ed014fe6a)" style="fill: #d62728"/>
   </g>
   <g id="patch_111">
    <path d="M -2281.5 451.534228 
L 408.460159 451.534228 
L 408.460159 446.460403 
L -2281.5 446.460403 
z
" clip-path="url(#p2ed014fe6a)" style="fill: #d62728"/>
   </g>
   <g id="patch_112">
    <path d="M -2281.5 426.165101 
L 380.671315 426.165101 
L 380.671315 421.091275 
L -2281.5 421.091275 
z
" clip-path="url(#p2ed014fe6a)" style="fill: #d62728"/>
   </g>
   <g id="patch_113">
    <path d="M -2281.5 400.795973 
L 341.766932 400.795973 
L 341.766932 395.722148 
L -2281.5 395.722148 
z
" clip-path="url(#p2ed014fe6a)" style="fill: #d62728"/>
   </g>
   <g id="patch_114">
    <path d="M -2281.5 375.426846 
L 380.671315 375.426846 
L 380.671315 370.35302 
L -2281.5 370.35302 
z
" clip-path="url(#p2ed014fe6a)" style="fill: #d62728"/>
   </g>
   <g id="patch_115">
    <path d="M -2281.5 350.057718 
L 347.324701 350.057718 
L 347.324701 344.983893 
L -2281.5 344.983893 
z
" clip-path="url(#p2ed014fe6a)" style="fill: #d62728"/>
   </g>
   <g id="patch_116">
    <path d="M -2281.5 324.688591 
L 302.86255 324.688591 
L 302.86255 319.614765 
L -2281.5 319.614765 
z
" clip-path="url(#p2ed014fe6a)" style="fill: #d62728"/>
   </g>
   <g id="patch_117">
    <path d="M -2281.5 299.319463 
L 369.555777 299.319463 
L 369.555777 294.245638 
L -2281.5 294.245638 
z
" clip-path="url(#p2ed014fe6a)" style="fill: #d62728"/>
   </g>
   <g id="patch_118">
    <path d="M -2281.5 273.950336 
L 402.90239 273.950336 
L 402.90239 268.87651 
L -2281.5 268.87651 
z
" clip-path="url(#p2ed014fe6a)" style="fill: #d62728"/>
   </g>
   <g id="patch_119">
    <path d="M -2281.5 248.581208 
L 386.229084 248.581208 
L 386.229084 243.507383 
L -2281.5 243.507383 
z
" clip-path="url(#p2ed014fe6a)" style="fill: #d62728"/>
   </g>
   <g id="patch_120">
    <path d="M -2281.5 223.212081 
L 397.344622 223.212081 
L 397.344622 218.138255 
L -2281.5 218.138255 
z
" clip-path="url(#p2ed014fe6a)" style="fill: #d62728"/>
   </g>
   <g id="patch_121">
    <path d="M -2281.5 197.842953 
L 330.651394 197.842953 
L 330.651394 192.769128 
L -2281.5 192.769128 
z
" clip-path="url(#p2ed014fe6a)" style="fill: #d62728"/>
   </g>
   <g id="patch_122">
    <path d="M -2281.5 172.473826 
L 414.017928 172.473826 
L 414.017928 167.4 
L -2281.5 167.4 
z
" clip-path="url(#p2ed014fe6a)" style="fill: #d62728"/>
   </g>
   <g id="matplotlib.axis_1">
    <g id="xtick_1">
     <g id="line2d_1">
      <defs>
       <path id="mb45464932c" d="M 0 0 
L 0 3.5 
" style="stroke: #000000; stroke-width: 0.8"/>
      </defs>
      <g>
       <use xlink:href="#mb45464932c" x="90" y="961.2" style="stroke: #000000; stroke-width: 0.8"/>
      </g>
     </g>
     <g id="text_1">
      <!-- 85.0% -->
      <g transform="translate(74.116406 975.798437) scale(0.1 -0.1)">
       <defs>
        <path id="DejaVuSans-38" d="M 2034 2216 
Q 1584 2216 1326 1975 
Q 1069 1734 1069 1313 
Q 1069 891 1326 650 
Q 1584 409 2034 409 
Q 2484 409 2743 651 
Q 3003 894 3003 1313 
Q 3003 1734 2745 1975 
Q 2488 2216 2034 2216 
z
M 1403 2484 
Q 997 2584 770 2862 
Q 544 3141 544 3541 
Q 544 4100 942 4425 
Q 1341 4750 2034 4750 
Q 2731 4750 3128 4425 
Q 3525 4100 3525 3541 
Q 3525 3141 3298 2862 
Q 3072 2584 2669 2484 
Q 3125 2378 3379 2068 
Q 3634 1759 3634 1313 
Q 3634 634 3220 271 
Q 2806 -91 2034 -91 
Q 1263 -91 848 271 
Q 434 634 434 1313 
Q 434 1759 690 2068 
Q 947 2378 1403 2484 
z
M 1172 3481 
Q 1172 3119 1398 2916 
Q 1625 2713 2034 2713 
Q 2441 2713 2670 2916 
Q 2900 3119 2900 3481 
Q 2900 3844 2670 4047 
Q 2441 4250 2034 4250 
Q 1625 4250 1398 4047 
Q 1172 3844 1172 3481 
z
" transform="scale(0.015625)"/>
        <path id="DejaVuSans-35" d="M 691 4666 
L 3169 4666 
L 3169 4134 
L 1269 4134 
L 1269 2991 
Q 1406 3038 1543 3061 
Q 1681 3084 1819 3084 
Q 2600 3084 3056 2656 
Q 3513 2228 3513 1497 
Q 3513 744 3044 326 
Q 2575 -91 1722 -91 
Q 1428 -91 1123 -41 
Q 819 9 494 109 
L 494 744 
Q 775 591 1075 516 
Q 1375 441 1709 441 
Q 2250 441 2565 725 
Q 2881 1009 2881 1497 
Q 2881 1984 2565 2268 
Q 2250 2553 1709 2553 
Q 1456 2553 1204 2497 
Q 953 2441 691 2322 
L 691 4666 
z
" transform="scale(0.015625)"/>
        <path id="DejaVuSans-2e" d="M 684 794 
L 1344 794 
L 1344 0 
L 684 0 
L 684 794 
z
" transform="scale(0.015625)"/>
        <path id="DejaVuSans-30" d="M 2034 4250 
Q 1547 4250 1301 3770 
Q 1056 3291 1056 2328 
Q 1056 1369 1301 889 
Q 1547 409 2034 409 
Q 2525 409 2770 889 
Q 3016 1369 3016 2328 
Q 3016 3291 2770 3770 
Q 2525 4250 2034 4250 
z
M 2034 4750 
Q 2819 4750 3233 4129 
Q 3647 3509 3647 2328 
Q 3647 1150 3233 529 
Q 2819 -91 2034 -91 
Q 1250 -91 836 529 
Q 422 1150 422 2328 
Q 422 3509 836 4129 
Q 1250 4750 2034 4750 
z
" transform="scale(0.015625)"/>
        <path id="DejaVuSans-25" d="M 4653 2053 
Q 4381 2053 4226 1822 
Q 4072 1591 4072 1178 
Q 4072 772 4226 539 
Q 4381 306 4653 306 
Q 4919 306 5073 539 
Q 5228 772 5228 1178 
Q 5228 1588 5073 1820 
Q 4919 2053 4653 2053 
z
M 4653 2450 
Q 5147 2450 5437 2106 
Q 5728 1763 5728 1178 
Q 5728 594 5436 251 
Q 5144 -91 4653 -91 
Q 4153 -91 3862 251 
Q 3572 594 3572 1178 
Q 3572 1766 3864 2108 
Q 4156 2450 4653 2450 
z
M 1428 4353 
Q 1159 4353 1004 4120 
Q 850 3888 850 3481 
Q 850 3069 1003 2837 
Q 1156 2606 1428 2606 
Q 1700 2606 1854 2837 
Q 2009 3069 2009 3481 
Q 2009 3884 1853 4118 
Q 1697 4353 1428 4353 
z
M 4250 4750 
L 4750 4750 
L 1831 -91 
L 1331 -91 
L 4250 4750 
z
M 1428 4750 
Q 1922 4750 2215 4408 
Q 2509 4066 2509 3481 
Q 2509 2891 2217 2550 
Q 1925 2209 1428 2209 
Q 931 2209 642 2551 
Q 353 2894 353 3481 
Q 353 4063 643 4406 
Q 934 4750 1428 4750 
z
" transform="scale(0.015625)"/>
       </defs>
       <use xlink:href="#DejaVuSans-38"/>
       <use xlink:href="#DejaVuSans-35" transform="translate(63.623047 0)"/>
       <use xlink:href="#DejaVuSans-2e" transform="translate(127.246094 0)"/>
       <use xlink:href="#DejaVuSans-30" transform="translate(159.033203 0)"/>
       <use xlink:href="#DejaVuSans-25" transform="translate(222.65625 0)"/>
      </g>
     </g>
    </g>
    <g id="xtick_2">
     <g id="line2d_2">
      <g>
       <use xlink:href="#mb45464932c" x="159.75" y="961.2" style="stroke: #000000; stroke-width: 0.8"/>
      </g>
     </g>
     <g id="text_2">
      <!-- 87.5% -->
      <g transform="translate(143.866406 975.798437) scale(0.1 -0.1)">
       <defs>
        <path id="DejaVuSans-37" d="M 525 4666 
L 3525 4666 
L 3525 4397 
L 1831 0 
L 1172 0 
L 2766 4134 
L 525 4134 
L 525 4666 
z
" transform="scale(0.015625)"/>
       </defs>
       <use xlink:href="#DejaVuSans-38"/>
       <use xlink:href="#DejaVuSans-37" transform="translate(63.623047 0)"/>
       <use xlink:href="#DejaVuSans-2e" transform="translate(127.246094 0)"/>
       <use xlink:href="#DejaVuSans-35" transform="translate(159.033203 0)"/>
       <use xlink:href="#DejaVuSans-25" transform="translate(222.65625 0)"/>
      </g>
     </g>
    </g>
    <g id="xtick_3">
     <g id="line2d_3">
      <g>
       <use xlink:href="#mb45464932c" x="229.5" y="961.2" style="stroke: #000000; stroke-width: 0.8"/>
      </g>
     </g>
     <g id="text_3">
      <!-- 90.0% -->
      <g transform="translate(213.616406 975.798437) scale(0.1 -0.1)">
       <defs>
        <path id="DejaVuSans-39" d="M 703 97 
L 703 672 
Q 941 559 1184 500 
Q 1428 441 1663 441 
Q 2288 441 2617 861 
Q 2947 1281 2994 2138 
Q 2813 1869 2534 1725 
Q 2256 1581 1919 1581 
Q 1219 1581 811 2004 
Q 403 2428 403 3163 
Q 403 3881 828 4315 
Q 1253 4750 1959 4750 
Q 2769 4750 3195 4129 
Q 3622 3509 3622 2328 
Q 3622 1225 3098 567 
Q 2575 -91 1691 -91 
Q 1453 -91 1209 -44 
Q 966 3 703 97 
z
M 1959 2075 
Q 2384 2075 2632 2365 
Q 2881 2656 2881 3163 
Q 2881 3666 2632 3958 
Q 2384 4250 1959 4250 
Q 1534 4250 1286 3958 
Q 1038 3666 1038 3163 
Q 1038 2656 1286 2365 
Q 1534 2075 1959 2075 
z
" transform="scale(0.015625)"/>
       </defs>
       <use xlink:href="#DejaVuSans-39"/>
       <use xlink:href="#DejaVuSans-30" transform="translate(63.623047 0)"/>
       <use xlink:href="#DejaVuSans-2e" transform="translate(127.246094 0)"/>
       <use xlink:href="#DejaVuSans-30" transform="translate(159.033203 0)"/>
       <use xlink:href="#DejaVuSans-25" transform="translate(222.65625 0)"/>
      </g>
     </g>
    </g>
    <g id="xtick_4">
     <g id="line2d_4">
      <g>
       <use xlink:href="#mb45464932c" x="299.25" y="961.2" style="stroke: #000000; stroke-width: 0.8"/>
      </g>
     </g>
     <g id="text_4">
      <!-- 92.5% -->
      <g transform="translate(283.366406 975.798437) scale(0.1 -0.1)">
       <defs>
        <path id="DejaVuSans-32" d="M 1228 531 
L 3431 531 
L 3431 0 
L 469 0 
L 469 531 
Q 828 903 1448 1529 
Q 2069 2156 2228 2338 
Q 2531 2678 2651 2914 
Q 2772 3150 2772 3378 
Q 2772 3750 2511 3984 
Q 2250 4219 1831 4219 
Q 1534 4219 1204 4116 
Q 875 4013 500 3803 
L 500 4441 
Q 881 4594 1212 4672 
Q 1544 4750 1819 4750 
Q 2544 4750 2975 4387 
Q 3406 4025 3406 3419 
Q 3406 3131 3298 2873 
Q 3191 2616 2906 2266 
Q 2828 2175 2409 1742 
Q 1991 1309 1228 531 
z
" transform="scale(0.015625)"/>
       </defs>
       <use xlink:href="#DejaVuSans-39"/>
       <use xlink:href="#DejaVuSans-32" transform="translate(63.623047 0)"/>
       <use xlink:href="#DejaVuSans-2e" transform="translate(127.246094 0)"/>
       <use xlink:href="#DejaVuSans-35" transform="translate(159.033203 0)"/>
       <use xlink:href="#DejaVuSans-25" transform="translate(222.65625 0)"/>
      </g>
     </g>
    </g>
    <g id="xtick_5">
     <g id="line2d_5">
      <g>
       <use xlink:href="#mb45464932c" x="369" y="961.2" style="stroke: #000000; stroke-width: 0.8"/>
      </g>
     </g>
     <g id="text_5">
      <!-- 95.0% -->
      <g transform="translate(353.116406 975.798437) scale(0.1 -0.1)">
       <use xlink:href="#DejaVuSans-39"/>
       <use xlink:href="#DejaVuSans-35" transform="translate(63.623047 0)"/>
       <use xlink:href="#DejaVuSans-2e" transform="translate(127.246094 0)"/>
       <use xlink:href="#DejaVuSans-30" transform="translate(159.033203 0)"/>
       <use xlink:href="#DejaVuSans-25" transform="translate(222.65625 0)"/>
      </g>
     </g>
    </g>
    <g id="xtick_6">
     <g id="line2d_6">
      <g>
       <use xlink:href="#mb45464932c" x="438.75" y="961.2" style="stroke: #000000; stroke-width: 0.8"/>
      </g>
     </g>
     <g id="text_6">
      <!-- 97.5% -->
      <g transform="translate(422.866406 975.798437) scale(0.1 -0.1)">
       <use xlink:href="#DejaVuSans-39"/>
       <use xlink:href="#DejaVuSans-37" transform="translate(63.623047 0)"/>
       <use xlink:href="#DejaVuSans-2e" transform="translate(127.246094 0)"/>
       <use xlink:href="#DejaVuSans-35" transform="translate(159.033203 0)"/>
       <use xlink:href="#DejaVuSans-25" transform="translate(222.65625 0)"/>
      </g>
     </g>
    </g>
    <g id="xtick_7">
     <g id="line2d_7">
      <g>
       <use xlink:href="#mb45464932c" x="508.5" y="961.2" style="stroke: #000000; stroke-width: 0.8"/>
      </g>
     </g>
     <g id="text_7">
      <!-- 100.0% -->
      <g transform="translate(489.435156 975.798437) scale(0.1 -0.1)">
       <defs>
        <path id="DejaVuSans-31" d="M 794 531 
L 1825 531 
L 1825 4091 
L 703 3866 
L 703 4441 
L 1819 4666 
L 2450 4666 
L 2450 531 
L 3481 531 
L 3481 0 
L 794 0 
L 794 531 
z
" transform="scale(0.015625)"/>
       </defs>
       <use xlink:href="#DejaVuSans-31"/>
       <use xlink:href="#DejaVuSans-30" transform="translate(63.623047 0)"/>
       <use xlink:href="#DejaVuSans-30" transform="translate(127.246094 0)"/>
       <use xlink:href="#DejaVuSans-2e" transform="translate(190.869141 0)"/>
       <use xlink:href="#DejaVuSans-30" transform="translate(222.65625 0)"/>
       <use xlink:href="#DejaVuSans-25" transform="translate(286.279297 0)"/>
      </g>
     </g>
    </g>
    <g id="xtick_8">
     <g id="line2d_8">
      <g>
       <use xlink:href="#mb45464932c" x="578.25" y="961.2" style="stroke: #000000; stroke-width: 0.8"/>
      </g>
     </g>
     <g id="text_8">
      <!-- 102.5% -->
      <g transform="translate(559.185156 975.798437) scale(0.1 -0.1)">
       <use xlink:href="#DejaVuSans-31"/>
       <use xlink:href="#DejaVuSans-30" transform="translate(63.623047 0)"/>
       <use xlink:href="#DejaVuSans-32" transform="translate(127.246094 0)"/>
       <use xlink:href="#DejaVuSans-2e" transform="translate(190.869141 0)"/>
       <use xlink:href="#DejaVuSans-35" transform="translate(222.65625 0)"/>
       <use xlink:href="#DejaVuSans-25" transform="translate(286.279297 0)"/>
      </g>
     </g>
    </g>
    <g id="xtick_9">
     <g id="line2d_9">
      <g>
       <use xlink:href="#mb45464932c" x="648" y="961.2" style="stroke: #000000; stroke-width: 0.8"/>
      </g>
     </g>
     <g id="text_9">
      <!-- 105.0% -->
      <g transform="translate(628.935156 975.798437) scale(0.1 -0.1)">
       <use xlink:href="#DejaVuSans-31"/>
       <use xlink:href="#DejaVuSans-30" transform="translate(63.623047 0)"/>
       <use xlink:href="#DejaVuSans-35" transform="translate(127.246094 0)"/>
       <use xlink:href="#DejaVuSans-2e" transform="translate(190.869141 0)"/>
       <use xlink:href="#DejaVuSans-30" transform="translate(222.65625 0)"/>
       <use xlink:href="#DejaVuSans-25" transform="translate(286.279297 0)"/>
      </g>
     </g>
    </g>
   </g>
   <g id="matplotlib.axis_2">
    <g id="ytick_1">
     <g id="line2d_10">
      <defs>
       <path id="m7058994c96" d="M 0 0 
L -3.5 0 
" style="stroke: #000000; stroke-width: 0.8"/>
      </defs>
      <g>
       <use xlink:href="#m7058994c96" x="90" y="913.252349" style="stroke: #000000; stroke-width: 0.8"/>
      </g>
     </g>
     <g id="text_10">
      <!-- AAPL -->
      <g transform="translate(57.442188 917.051568) scale(0.1 -0.1)">
       <defs>
        <path id="DejaVuSans-41" d="M 2188 4044 
L 1331 1722 
L 3047 1722 
L 2188 4044 
z
M 1831 4666 
L 2547 4666 
L 4325 0 
L 3669 0 
L 3244 1197 
L 1141 1197 
L 716 0 
L 50 0 
L 1831 4666 
z
" transform="scale(0.015625)"/>
        <path id="DejaVuSans-50" d="M 1259 4147 
L 1259 2394 
L 2053 2394 
Q 2494 2394 2734 2622 
Q 2975 2850 2975 3272 
Q 2975 3691 2734 3919 
Q 2494 4147 2053 4147 
L 1259 4147 
z
M 628 4666 
L 2053 4666 
Q 2838 4666 3239 4311 
Q 3641 3956 3641 3272 
Q 3641 2581 3239 2228 
Q 2838 1875 2053 1875 
L 1259 1875 
L 1259 0 
L 628 0 
L 628 4666 
z
" transform="scale(0.015625)"/>
        <path id="DejaVuSans-4c" d="M 628 4666 
L 1259 4666 
L 1259 531 
L 3531 531 
L 3531 0 
L 628 0 
L 628 4666 
z
" transform="scale(0.015625)"/>
       </defs>
       <use xlink:href="#DejaVuSans-41"/>
       <use xlink:href="#DejaVuSans-41" transform="translate(71.158203 0)"/>
       <use xlink:href="#DejaVuSans-50" transform="translate(139.566406 0)"/>
       <use xlink:href="#DejaVuSans-4c" transform="translate(199.869141 0)"/>
      </g>
     </g>
    </g>
    <g id="ytick_2">
     <g id="line2d_11">
      <g>
       <use xlink:href="#m7058994c96" x="90" y="887.883221" style="stroke: #000000; stroke-width: 0.8"/>
      </g>
     </g>
     <g id="text_11">
      <!-- AMGN -->
      <g transform="translate(52.301563 891.68244) scale(0.1 -0.1)">
       <defs>
        <path id="DejaVuSans-4d" d="M 628 4666 
L 1569 4666 
L 2759 1491 
L 3956 4666 
L 4897 4666 
L 4897 0 
L 4281 0 
L 4281 4097 
L 3078 897 
L 2444 897 
L 1241 4097 
L 1241 0 
L 628 0 
L 628 4666 
z
" transform="scale(0.015625)"/>
        <path id="DejaVuSans-47" d="M 3809 666 
L 3809 1919 
L 2778 1919 
L 2778 2438 
L 4434 2438 
L 4434 434 
Q 4069 175 3628 42 
Q 3188 -91 2688 -91 
Q 1594 -91 976 548 
Q 359 1188 359 2328 
Q 359 3472 976 4111 
Q 1594 4750 2688 4750 
Q 3144 4750 3555 4637 
Q 3966 4525 4313 4306 
L 4313 3634 
Q 3963 3931 3569 4081 
Q 3175 4231 2741 4231 
Q 1884 4231 1454 3753 
Q 1025 3275 1025 2328 
Q 1025 1384 1454 906 
Q 1884 428 2741 428 
Q 3075 428 3337 486 
Q 3600 544 3809 666 
z
" transform="scale(0.015625)"/>
        <path id="DejaVuSans-4e" d="M 628 4666 
L 1478 4666 
L 3547 763 
L 3547 4666 
L 4159 4666 
L 4159 0 
L 3309 0 
L 1241 3903 
L 1241 0 
L 628 0 
L 628 4666 
z
" transform="scale(0.015625)"/>
       </defs>
       <use xlink:href="#DejaVuSans-41"/>
       <use xlink:href="#DejaVuSans-4d" transform="translate(68.408203 0)"/>
       <use xlink:href="#DejaVuSans-47" transform="translate(154.6875 0)"/>
       <use xlink:href="#DejaVuSans-4e" transform="translate(232.177734 0)"/>
      </g>
     </g>
    </g>
    <g id="ytick_3">
     <g id="line2d_12">
      <g>
       <use xlink:href="#m7058994c96" x="90" y="862.514094" style="stroke: #000000; stroke-width: 0.8"/>
      </g>
     </g>
     <g id="text_12">
      <!-- AMZN -->
      <g transform="translate(53.2 866.313313) scale(0.1 -0.1)">
       <defs>
        <path id="DejaVuSans-5a" d="M 359 4666 
L 4025 4666 
L 4025 4184 
L 1075 531 
L 4097 531 
L 4097 0 
L 288 0 
L 288 481 
L 3238 4134 
L 359 4134 
L 359 4666 
z
" transform="scale(0.015625)"/>
       </defs>
       <use xlink:href="#DejaVuSans-41"/>
       <use xlink:href="#DejaVuSans-4d" transform="translate(68.408203 0)"/>
       <use xlink:href="#DejaVuSans-5a" transform="translate(154.6875 0)"/>
       <use xlink:href="#DejaVuSans-4e" transform="translate(223.193359 0)"/>
      </g>
     </g>
    </g>
    <g id="ytick_4">
     <g id="line2d_13">
      <g>
       <use xlink:href="#m7058994c96" x="90" y="837.144966" style="stroke: #000000; stroke-width: 0.8"/>
      </g>
     </g>
     <g id="text_13">
      <!-- AXP -->
      <g transform="translate(63.279687 840.944185) scale(0.1 -0.1)">
       <defs>
        <path id="DejaVuSans-58" d="M 403 4666 
L 1081 4666 
L 2241 2931 
L 3406 4666 
L 4084 4666 
L 2584 2425 
L 4184 0 
L 3506 0 
L 2194 1984 
L 872 0 
L 191 0 
L 1856 2491 
L 403 4666 
z
" transform="scale(0.015625)"/>
       </defs>
       <use xlink:href="#DejaVuSans-41"/>
       <use xlink:href="#DejaVuSans-58" transform="translate(68.408203 0)"/>
       <use xlink:href="#DejaVuSans-50" transform="translate(136.914062 0)"/>
      </g>
     </g>
    </g>
    <g id="ytick_5">
     <g id="line2d_14">
      <g>
       <use xlink:href="#m7058994c96" x="90" y="811.775839" style="stroke: #000000; stroke-width: 0.8"/>
      </g>
     </g>
     <g id="text_14">
      <!-- BA -->
      <g transform="translate(69.298438 815.575058) scale(0.1 -0.1)">
       <defs>
        <path id="DejaVuSans-42" d="M 1259 2228 
L 1259 519 
L 2272 519 
Q 2781 519 3026 730 
Q 3272 941 3272 1375 
Q 3272 1813 3026 2020 
Q 2781 2228 2272 2228 
L 1259 2228 
z
M 1259 4147 
L 1259 2741 
L 2194 2741 
Q 2656 2741 2882 2914 
Q 3109 3088 3109 3444 
Q 3109 3797 2882 3972 
Q 2656 4147 2194 4147 
L 1259 4147 
z
M 628 4666 
L 2241 4666 
Q 2963 4666 3353 4366 
Q 3744 4066 3744 3513 
Q 3744 3084 3544 2831 
Q 3344 2578 2956 2516 
Q 3422 2416 3680 2098 
Q 3938 1781 3938 1306 
Q 3938 681 3513 340 
Q 3088 0 2303 0 
L 628 0 
L 628 4666 
z
" transform="scale(0.015625)"/>
       </defs>
       <use xlink:href="#DejaVuSans-42"/>
       <use xlink:href="#DejaVuSans-41" transform="translate(68.603516 0)"/>
      </g>
     </g>
    </g>
    <g id="ytick_6">
     <g id="line2d_15">
      <g>
       <use xlink:href="#m7058994c96" x="90" y="786.406711" style="stroke: #000000; stroke-width: 0.8"/>
      </g>
     </g>
     <g id="text_15">
      <!-- CAT -->
      <g transform="translate(63.84375 790.20593) scale(0.1 -0.1)">
       <defs>
        <path id="DejaVuSans-43" d="M 4122 4306 
L 4122 3641 
Q 3803 3938 3442 4084 
Q 3081 4231 2675 4231 
Q 1875 4231 1450 3742 
Q 1025 3253 1025 2328 
Q 1025 1406 1450 917 
Q 1875 428 2675 428 
Q 3081 428 3442 575 
Q 3803 722 4122 1019 
L 4122 359 
Q 3791 134 3420 21 
Q 3050 -91 2638 -91 
Q 1578 -91 968 557 
Q 359 1206 359 2328 
Q 359 3453 968 4101 
Q 1578 4750 2638 4750 
Q 3056 4750 3426 4639 
Q 3797 4528 4122 4306 
z
" transform="scale(0.015625)"/>
        <path id="DejaVuSans-54" d="M -19 4666 
L 3928 4666 
L 3928 4134 
L 2272 4134 
L 2272 0 
L 1638 0 
L 1638 4134 
L -19 4134 
L -19 4666 
z
" transform="scale(0.015625)"/>
       </defs>
       <use xlink:href="#DejaVuSans-43"/>
       <use xlink:href="#DejaVuSans-41" transform="translate(69.824219 0)"/>
       <use xlink:href="#DejaVuSans-54" transform="translate(130.482422 0)"/>
      </g>
     </g>
    </g>
    <g id="ytick_7">
     <g id="line2d_16">
      <g>
       <use xlink:href="#m7058994c96" x="90" y="761.037584" style="stroke: #000000; stroke-width: 0.8"/>
      </g>
     </g>
     <g id="text_16">
      <!-- CRM -->
      <g transform="translate(60.440625 764.836803) scale(0.1 -0.1)">
       <defs>
        <path id="DejaVuSans-52" d="M 2841 2188 
Q 3044 2119 3236 1894 
Q 3428 1669 3622 1275 
L 4263 0 
L 3584 0 
L 2988 1197 
Q 2756 1666 2539 1819 
Q 2322 1972 1947 1972 
L 1259 1972 
L 1259 0 
L 628 0 
L 628 4666 
L 2053 4666 
Q 2853 4666 3247 4331 
Q 3641 3997 3641 3322 
Q 3641 2881 3436 2590 
Q 3231 2300 2841 2188 
z
M 1259 4147 
L 1259 2491 
L 2053 2491 
Q 2509 2491 2742 2702 
Q 2975 2913 2975 3322 
Q 2975 3731 2742 3939 
Q 2509 4147 2053 4147 
L 1259 4147 
z
" transform="scale(0.015625)"/>
       </defs>
       <use xlink:href="#DejaVuSans-43"/>
       <use xlink:href="#DejaVuSans-52" transform="translate(69.824219 0)"/>
       <use xlink:href="#DejaVuSans-4d" transform="translate(139.306641 0)"/>
      </g>
     </g>
    </g>
    <g id="ytick_8">
     <g id="line2d_17">
      <g>
       <use xlink:href="#m7058994c96" x="90" y="735.668456" style="stroke: #000000; stroke-width: 0.8"/>
      </g>
     </g>
     <g id="text_17">
      <!-- CSCO -->
      <g transform="translate(54.814062 739.467675) scale(0.1 -0.1)">
       <defs>
        <path id="DejaVuSans-53" d="M 3425 4513 
L 3425 3897 
Q 3066 4069 2747 4153 
Q 2428 4238 2131 4238 
Q 1616 4238 1336 4038 
Q 1056 3838 1056 3469 
Q 1056 3159 1242 3001 
Q 1428 2844 1947 2747 
L 2328 2669 
Q 3034 2534 3370 2195 
Q 3706 1856 3706 1288 
Q 3706 609 3251 259 
Q 2797 -91 1919 -91 
Q 1588 -91 1214 -16 
Q 841 59 441 206 
L 441 856 
Q 825 641 1194 531 
Q 1563 422 1919 422 
Q 2459 422 2753 634 
Q 3047 847 3047 1241 
Q 3047 1584 2836 1778 
Q 2625 1972 2144 2069 
L 1759 2144 
Q 1053 2284 737 2584 
Q 422 2884 422 3419 
Q 422 4038 858 4394 
Q 1294 4750 2059 4750 
Q 2388 4750 2728 4690 
Q 3069 4631 3425 4513 
z
" transform="scale(0.015625)"/>
        <path id="DejaVuSans-4f" d="M 2522 4238 
Q 1834 4238 1429 3725 
Q 1025 3213 1025 2328 
Q 1025 1447 1429 934 
Q 1834 422 2522 422 
Q 3209 422 3611 934 
Q 4013 1447 4013 2328 
Q 4013 3213 3611 3725 
Q 3209 4238 2522 4238 
z
M 2522 4750 
Q 3503 4750 4090 4092 
Q 4678 3434 4678 2328 
Q 4678 1225 4090 567 
Q 3503 -91 2522 -91 
Q 1538 -91 948 565 
Q 359 1222 359 2328 
Q 359 3434 948 4092 
Q 1538 4750 2522 4750 
z
" transform="scale(0.015625)"/>
       </defs>
       <use xlink:href="#DejaVuSans-43"/>
       <use xlink:href="#DejaVuSans-53" transform="translate(69.824219 0)"/>
       <use xlink:href="#DejaVuSans-43" transform="translate(133.300781 0)"/>
       <use xlink:href="#DejaVuSans-4f" transform="translate(203.125 0)"/>
      </g>
     </g>
    </g>
    <g id="ytick_9">
     <g id="line2d_18">
      <g>
       <use xlink:href="#m7058994c96" x="90" y="710.299329" style="stroke: #000000; stroke-width: 0.8"/>
      </g>
     </g>
     <g id="text_18">
      <!-- CVX -->
      <g transform="translate(62.326562 714.098548) scale(0.1 -0.1)">
       <defs>
        <path id="DejaVuSans-56" d="M 1831 0 
L 50 4666 
L 709 4666 
L 2188 738 
L 3669 4666 
L 4325 4666 
L 2547 0 
L 1831 0 
z
" transform="scale(0.015625)"/>
       </defs>
       <use xlink:href="#DejaVuSans-43"/>
       <use xlink:href="#DejaVuSans-56" transform="translate(69.824219 0)"/>
       <use xlink:href="#DejaVuSans-58" transform="translate(138.232422 0)"/>
      </g>
     </g>
    </g>
    <g id="ytick_10">
     <g id="line2d_19">
      <g>
       <use xlink:href="#m7058994c96" x="90" y="684.930201" style="stroke: #000000; stroke-width: 0.8"/>
      </g>
     </g>
     <g id="text_19">
      <!-- DIS -->
      <g transform="translate(66.001563 688.72942) scale(0.1 -0.1)">
       <defs>
        <path id="DejaVuSans-44" d="M 1259 4147 
L 1259 519 
L 2022 519 
Q 2988 519 3436 956 
Q 3884 1394 3884 2338 
Q 3884 3275 3436 3711 
Q 2988 4147 2022 4147 
L 1259 4147 
z
M 628 4666 
L 1925 4666 
Q 3281 4666 3915 4102 
Q 4550 3538 4550 2338 
Q 4550 1131 3912 565 
Q 3275 0 1925 0 
L 628 0 
L 628 4666 
z
" transform="scale(0.015625)"/>
        <path id="DejaVuSans-49" d="M 628 4666 
L 1259 4666 
L 1259 0 
L 628 0 
L 628 4666 
z
" transform="scale(0.015625)"/>
       </defs>
       <use xlink:href="#DejaVuSans-44"/>
       <use xlink:href="#DejaVuSans-49" transform="translate(77.001953 0)"/>
       <use xlink:href="#DejaVuSans-53" transform="translate(106.494141 0)"/>
      </g>
     </g>
    </g>
    <g id="ytick_11">
     <g id="line2d_20">
      <g>
       <use xlink:href="#m7058994c96" x="90" y="659.561074" style="stroke: #000000; stroke-width: 0.8"/>
      </g>
     </g>
     <g id="text_20">
      <!-- DOW -->
      <g transform="translate(57.540625 663.360293) scale(0.1 -0.1)">
       <defs>
        <path id="DejaVuSans-57" d="M 213 4666 
L 850 4666 
L 1831 722 
L 2809 4666 
L 3519 4666 
L 4500 722 
L 5478 4666 
L 6119 4666 
L 4947 0 
L 4153 0 
L 3169 4050 
L 2175 0 
L 1381 0 
L 213 4666 
z
" transform="scale(0.015625)"/>
       </defs>
       <use xlink:href="#DejaVuSans-44"/>
       <use xlink:href="#DejaVuSans-4f" transform="translate(77.001953 0)"/>
       <use xlink:href="#DejaVuSans-57" transform="translate(155.712891 0)"/>
      </g>
     </g>
    </g>
    <g id="ytick_12">
     <g id="line2d_21">
      <g>
       <use xlink:href="#m7058994c96" x="90" y="634.191946" style="stroke: #000000; stroke-width: 0.8"/>
      </g>
     </g>
     <g id="text_21">
      <!-- GS -->
      <g transform="translate(68.903125 637.991165) scale(0.1 -0.1)">
       <use xlink:href="#DejaVuSans-47"/>
       <use xlink:href="#DejaVuSans-53" transform="translate(77.490234 0)"/>
      </g>
     </g>
    </g>
    <g id="ytick_13">
     <g id="line2d_22">
      <g>
       <use xlink:href="#m7058994c96" x="90" y="608.822819" style="stroke: #000000; stroke-width: 0.8"/>
      </g>
     </g>
     <g id="text_22">
      <!-- HD -->
      <g transform="translate(67.779687 612.622038) scale(0.1 -0.1)">
       <defs>
        <path id="DejaVuSans-48" d="M 628 4666 
L 1259 4666 
L 1259 2753 
L 3553 2753 
L 3553 4666 
L 4184 4666 
L 4184 0 
L 3553 0 
L 3553 2222 
L 1259 2222 
L 1259 0 
L 628 0 
L 628 4666 
z
" transform="scale(0.015625)"/>
       </defs>
       <use xlink:href="#DejaVuSans-48"/>
       <use xlink:href="#DejaVuSans-44" transform="translate(75.195312 0)"/>
      </g>
     </g>
    </g>
    <g id="ytick_14">
     <g id="line2d_23">
      <g>
       <use xlink:href="#m7058994c96" x="90" y="583.453691" style="stroke: #000000; stroke-width: 0.8"/>
      </g>
     </g>
     <g id="text_23">
      <!-- HON -->
      <g transform="translate(60.126562 587.25291) scale(0.1 -0.1)">
       <use xlink:href="#DejaVuSans-48"/>
       <use xlink:href="#DejaVuSans-4f" transform="translate(75.195312 0)"/>
       <use xlink:href="#DejaVuSans-4e" transform="translate(153.90625 0)"/>
      </g>
     </g>
    </g>
    <g id="ytick_15">
     <g id="line2d_24">
      <g>
       <use xlink:href="#m7058994c96" x="90" y="558.084564" style="stroke: #000000; stroke-width: 0.8"/>
      </g>
     </g>
     <g id="text_24">
      <!-- IBM -->
      <g transform="translate(64.560937 561.883783) scale(0.1 -0.1)">
       <use xlink:href="#DejaVuSans-49"/>
       <use xlink:href="#DejaVuSans-42" transform="translate(29.492188 0)"/>
       <use xlink:href="#DejaVuSans-4d" transform="translate(98.095703 0)"/>
      </g>
     </g>
    </g>
    <g id="ytick_16">
     <g id="line2d_25">
      <g>
       <use xlink:href="#m7058994c96" x="90" y="532.715436" style="stroke: #000000; stroke-width: 0.8"/>
      </g>
     </g>
     <g id="text_25">
      <!-- INTC -->
      <g transform="translate(60.065625 536.514655) scale(0.1 -0.1)">
       <use xlink:href="#DejaVuSans-49"/>
       <use xlink:href="#DejaVuSans-4e" transform="translate(29.492188 0)"/>
       <use xlink:href="#DejaVuSans-54" transform="translate(104.296875 0)"/>
       <use xlink:href="#DejaVuSans-43" transform="translate(159.505859 0)"/>
      </g>
     </g>
    </g>
    <g id="ytick_17">
     <g id="line2d_26">
      <g>
       <use xlink:href="#m7058994c96" x="90" y="507.346309" style="stroke: #000000; stroke-width: 0.8"/>
      </g>
     </g>
     <g id="text_26">
      <!-- JNJ -->
      <g transform="translate(69.61875 511.145527) scale(0.1 -0.1)">
       <defs>
        <path id="DejaVuSans-4a" d="M 628 4666 
L 1259 4666 
L 1259 325 
Q 1259 -519 939 -900 
Q 619 -1281 -91 -1281 
L -331 -1281 
L -331 -750 
L -134 -750 
Q 284 -750 456 -515 
Q 628 -281 628 325 
L 628 4666 
z
" transform="scale(0.015625)"/>
       </defs>
       <use xlink:href="#DejaVuSans-4a"/>
       <use xlink:href="#DejaVuSans-4e" transform="translate(29.492188 0)"/>
       <use xlink:href="#DejaVuSans-4a" transform="translate(104.296875 0)"/>
      </g>
     </g>
    </g>
    <g id="ytick_18">
     <g id="line2d_27">
      <g>
       <use xlink:href="#m7058994c96" x="90" y="481.977181" style="stroke: #000000; stroke-width: 0.8"/>
      </g>
     </g>
     <g id="text_27">
      <!-- JPM -->
      <g transform="translate(65.392188 485.7764) scale(0.1 -0.1)">
       <use xlink:href="#DejaVuSans-4a"/>
       <use xlink:href="#DejaVuSans-50" transform="translate(29.492188 0)"/>
       <use xlink:href="#DejaVuSans-4d" transform="translate(89.794922 0)"/>
      </g>
     </g>
    </g>
    <g id="ytick_19">
     <g id="line2d_28">
      <g>
       <use xlink:href="#m7058994c96" x="90" y="456.608054" style="stroke: #000000; stroke-width: 0.8"/>
      </g>
     </g>
     <g id="text_28">
      <!-- KO -->
      <g transform="translate(69.120312 460.407272) scale(0.1 -0.1)">
       <defs>
        <path id="DejaVuSans-4b" d="M 628 4666 
L 1259 4666 
L 1259 2694 
L 3353 4666 
L 4166 4666 
L 1850 2491 
L 4331 0 
L 3500 0 
L 1259 2247 
L 1259 0 
L 628 0 
L 628 4666 
z
" transform="scale(0.015625)"/>
       </defs>
       <use xlink:href="#DejaVuSans-4b"/>
       <use xlink:href="#DejaVuSans-4f" transform="translate(60.076172 0)"/>
      </g>
     </g>
    </g>
    <g id="ytick_20">
     <g id="line2d_29">
      <g>
       <use xlink:href="#m7058994c96" x="90" y="431.238926" style="stroke: #000000; stroke-width: 0.8"/>
      </g>
     </g>
     <g id="text_29">
      <!-- MCD -->
      <g transform="translate(59.689062 435.038145) scale(0.1 -0.1)">
       <use xlink:href="#DejaVuSans-4d"/>
       <use xlink:href="#DejaVuSans-43" transform="translate(86.279297 0)"/>
       <use xlink:href="#DejaVuSans-44" transform="translate(156.103516 0)"/>
      </g>
     </g>
    </g>
    <g id="ytick_21">
     <g id="line2d_30">
      <g>
       <use xlink:href="#m7058994c96" x="90" y="405.869799" style="stroke: #000000; stroke-width: 0.8"/>
      </g>
     </g>
     <g id="text_30">
      <!-- MMM -->
      <g transform="translate(57.115625 409.669017) scale(0.1 -0.1)">
       <use xlink:href="#DejaVuSans-4d"/>
       <use xlink:href="#DejaVuSans-4d" transform="translate(86.279297 0)"/>
       <use xlink:href="#DejaVuSans-4d" transform="translate(172.558594 0)"/>
      </g>
     </g>
    </g>
    <g id="ytick_22">
     <g id="line2d_31">
      <g>
       <use xlink:href="#m7058994c96" x="90" y="380.500671" style="stroke: #000000; stroke-width: 0.8"/>
      </g>
     </g>
     <g id="text_31">
      <!-- MRK -->
      <g transform="translate(60.865625 384.29989) scale(0.1 -0.1)">
       <use xlink:href="#DejaVuSans-4d"/>
       <use xlink:href="#DejaVuSans-52" transform="translate(86.279297 0)"/>
       <use xlink:href="#DejaVuSans-4b" transform="translate(155.761719 0)"/>
      </g>
     </g>
    </g>
    <g id="ytick_23">
     <g id="line2d_32">
      <g>
       <use xlink:href="#m7058994c96" x="90" y="355.131544" style="stroke: #000000; stroke-width: 0.8"/>
      </g>
     </g>
     <g id="text_32">
      <!-- MSFT -->
      <g transform="translate(56.339062 358.930762) scale(0.1 -0.1)">
       <defs>
        <path id="DejaVuSans-46" d="M 628 4666 
L 3309 4666 
L 3309 4134 
L 1259 4134 
L 1259 2759 
L 3109 2759 
L 3109 2228 
L 1259 2228 
L 1259 0 
L 628 0 
L 628 4666 
z
" transform="scale(0.015625)"/>
       </defs>
       <use xlink:href="#DejaVuSans-4d"/>
       <use xlink:href="#DejaVuSans-53" transform="translate(86.279297 0)"/>
       <use xlink:href="#DejaVuSans-46" transform="translate(149.755859 0)"/>
       <use xlink:href="#DejaVuSans-54" transform="translate(205.525391 0)"/>
      </g>
     </g>
    </g>
    <g id="ytick_24">
     <g id="line2d_33">
      <g>
       <use xlink:href="#m7058994c96" x="90" y="329.762416" style="stroke: #000000; stroke-width: 0.8"/>
      </g>
     </g>
     <g id="text_33">
      <!-- NKE -->
      <g transform="translate(62.642187 333.561635) scale(0.1 -0.1)">
       <defs>
        <path id="DejaVuSans-45" d="M 628 4666 
L 3578 4666 
L 3578 4134 
L 1259 4134 
L 1259 2753 
L 3481 2753 
L 3481 2222 
L 1259 2222 
L 1259 531 
L 3634 531 
L 3634 0 
L 628 0 
L 628 4666 
z
" transform="scale(0.015625)"/>
       </defs>
       <use xlink:href="#DejaVuSans-4e"/>
       <use xlink:href="#DejaVuSans-4b" transform="translate(74.804688 0)"/>
       <use xlink:href="#DejaVuSans-45" transform="translate(140.380859 0)"/>
      </g>
     </g>
    </g>
    <g id="ytick_25">
     <g id="line2d_34">
      <g>
       <use xlink:href="#m7058994c96" x="90" y="304.393289" style="stroke: #000000; stroke-width: 0.8"/>
      </g>
     </g>
     <g id="text_34">
      <!-- PG -->
      <g transform="translate(69.221875 308.192507) scale(0.1 -0.1)">
       <use xlink:href="#DejaVuSans-50"/>
       <use xlink:href="#DejaVuSans-47" transform="translate(60.302734 0)"/>
      </g>
     </g>
    </g>
    <g id="ytick_26">
     <g id="line2d_35">
      <g>
       <use xlink:href="#m7058994c96" x="90" y="279.024161" style="stroke: #000000; stroke-width: 0.8"/>
      </g>
     </g>
     <g id="text_35">
      <!-- TRV -->
      <g transform="translate(63.653125 282.82338) scale(0.1 -0.1)">
       <use xlink:href="#DejaVuSans-54"/>
       <use xlink:href="#DejaVuSans-52" transform="translate(61.083984 0)"/>
       <use xlink:href="#DejaVuSans-56" transform="translate(125.066406 0)"/>
      </g>
     </g>
    </g>
    <g id="ytick_27">
     <g id="line2d_36">
      <g>
       <use xlink:href="#m7058994c96" x="90" y="253.655034" style="stroke: #000000; stroke-width: 0.8"/>
      </g>
     </g>
     <g id="text_36">
      <!-- UNH -->
      <g transform="translate(60.679688 257.454252) scale(0.1 -0.1)">
       <defs>
        <path id="DejaVuSans-55" d="M 556 4666 
L 1191 4666 
L 1191 1831 
Q 1191 1081 1462 751 
Q 1734 422 2344 422 
Q 2950 422 3222 751 
Q 3494 1081 3494 1831 
L 3494 4666 
L 4128 4666 
L 4128 1753 
Q 4128 841 3676 375 
Q 3225 -91 2344 -91 
Q 1459 -91 1007 375 
Q 556 841 556 1753 
L 556 4666 
z
" transform="scale(0.015625)"/>
       </defs>
       <use xlink:href="#DejaVuSans-55"/>
       <use xlink:href="#DejaVuSans-4e" transform="translate(73.193359 0)"/>
       <use xlink:href="#DejaVuSans-48" transform="translate(147.998047 0)"/>
      </g>
     </g>
    </g>
    <g id="ytick_28">
     <g id="line2d_37">
      <g>
       <use xlink:href="#m7058994c96" x="90" y="228.285906" style="stroke: #000000; stroke-width: 0.8"/>
      </g>
     </g>
     <g id="text_37">
      <!-- V -->
      <g transform="translate(76.159375 232.085125) scale(0.1 -0.1)">
       <use xlink:href="#DejaVuSans-56"/>
      </g>
     </g>
    </g>
    <g id="ytick_29">
     <g id="line2d_38">
      <g>
       <use xlink:href="#m7058994c96" x="90" y="202.916779" style="stroke: #000000; stroke-width: 0.8"/>
      </g>
     </g>
     <g id="text_38">
      <!-- VZ -->
      <g transform="translate(69.309375 206.715997) scale(0.1 -0.1)">
       <use xlink:href="#DejaVuSans-56"/>
       <use xlink:href="#DejaVuSans-5a" transform="translate(68.408203 0)"/>
      </g>
     </g>
    </g>
    <g id="ytick_30">
     <g id="line2d_39">
      <g>
       <use xlink:href="#m7058994c96" x="90" y="177.547651" style="stroke: #000000; stroke-width: 0.8"/>
      </g>
     </g>
     <g id="text_39">
      <!-- WMT -->
      <g transform="translate(58.376562 181.34687) scale(0.1 -0.1)">
       <use xlink:href="#DejaVuSans-57"/>
       <use xlink:href="#DejaVuSans-4d" transform="translate(98.876953 0)"/>
       <use xlink:href="#DejaVuSans-54" transform="translate(185.15625 0)"/>
      </g>
     </g>
    </g>
   </g>
   <g id="line2d_40">
    <path d="M 369 961.2 
L 369 129.6 
" clip-path="url(#p2ed014fe6a)" style="fill: none; stroke-dasharray: 5.55,2.4; stroke-dashoffset: 0; stroke: #000000; stroke-width: 1.5"/>
   </g>
   <g id="patch_123">
    <path d="M 90 961.2 
L 90 129.6 
" style="fill: none; stroke: #000000; stroke-width: 0.8; stroke-linejoin: miter; stroke-linecap: square"/>
   </g>
   <g id="patch_124">
    <path d="M 648 961.2 
L 648 129.6 
" style="fill: none; stroke: #000000; stroke-width: 0.8; stroke-linejoin: miter; stroke-linecap: square"/>
   </g>
   <g id="patch_125">
    <path d="M 90 961.2 
L 648 961.2 
" style="fill: none; stroke: #000000; stroke-width: 0.8; stroke-linejoin: miter; stroke-linecap: square"/>
   </g>
   <g id="patch_126">
    <path d="M 90 129.6 
L 648 129.6 
" style="fill: none; stroke: #000000; stroke-width: 0.8; stroke-linejoin: miter; stroke-linecap: square"/>
   </g>
   <g id="text_40">
    <!--  -->
    <g style="fill: #ffffff" transform="translate(397.32239 923.622462) scale(0.1 -0.1)">
     <defs>
      <path id="DejaVuSans-2713" d="M 1416 2044 
Q 1538 2044 1600 1844 
Q 1725 1469 1778 1469 
Q 1819 1469 1863 1531 
Q 2741 2938 3488 3806 
Q 3681 4031 4103 4031 
Q 4203 4031 4237 4012 
Q 4272 3994 4272 3966 
Q 4272 3922 4169 3794 
Q 2963 2344 1931 731 
Q 1859 619 1638 619 
Q 1413 619 1372 638 
Q 1266 684 1122 1116 
Q 959 1594 959 1716 
Q 959 1847 1178 1969 
Q 1313 2044 1416 2044 
z
" transform="scale(0.015625)"/>
     </defs>
     <use xlink:href="#DejaVuSans-2713"/>
    </g>
   </g>
   <g id="text_41">
    <!--  -->
    <g style="fill: #ffffff" transform="translate(391.764622 898.253335) scale(0.1 -0.1)">
     <use xlink:href="#DejaVuSans-2713"/>
    </g>
   </g>
   <g id="text_42">
    <!--  -->
    <g style="fill: #ffffff" transform="translate(386.206853 872.884207) scale(0.1 -0.1)">
     <use xlink:href="#DejaVuSans-2713"/>
    </g>
   </g>
   <g id="text_43">
    <!--  -->
    <g style="fill: #ffffff" transform="translate(402.880159 847.51508) scale(0.1 -0.1)">
     <use xlink:href="#DejaVuSans-2713"/>
    </g>
   </g>
   <g id="text_44">
    <!--  -->
    <g style="fill: #ffffff" transform="translate(325.071394 822.145952) scale(0.1 -0.1)">
     <use xlink:href="#DejaVuSans-2713"/>
    </g>
   </g>
   <g id="text_45">
    <!--  -->
    <g style="fill: #ffffff" transform="translate(347.30247 796.776825) scale(0.1 -0.1)">
     <use xlink:href="#DejaVuSans-2713"/>
    </g>
   </g>
   <g id="text_46">
    <!--  -->
    <g style="fill: #ffffff" transform="translate(380.649084 771.407697) scale(0.1 -0.1)">
     <use xlink:href="#DejaVuSans-2713"/>
    </g>
   </g>
   <g id="text_47">
    <!--  -->
    <g style="fill: #ffffff" transform="translate(425.111235 746.03857) scale(0.1 -0.1)">
     <defs>
      <path id="DejaVuSans-2717" d="M 3975 4688 
Q 4006 4688 4056 4638 
Q 4109 4588 4166 4506 
Q 4256 4666 4309 4666 
Q 4356 4666 4438 4581 
Q 4488 4528 4488 4463 
Q 4488 4378 4419 4306 
Q 3769 3600 3156 2753 
Q 3409 2134 3856 1388 
Q 3894 1325 3894 1288 
Q 3894 1216 3800 1138 
L 3700 1069 
Q 3713 1031 3713 969 
Q 3713 875 3644 825 
Q 3563 769 3525 769 
Q 3444 769 3381 850 
Q 3006 1331 2606 1981 
Q 2069 1281 1375 113 
Q 1275 -56 1038 -56 
Q 925 -56 913 75 
Q 753 163 753 353 
Q 753 603 788 700 
Q 803 744 888 875 
Q 1525 1869 2238 2700 
Q 1856 3606 1731 4097 
Q 1703 4206 1703 4238 
Q 1703 4281 1759 4363 
Q 1819 4444 1869 4444 
Q 1916 4444 1988 4353 
Q 2016 4406 2056 4444 
Q 2113 4494 2200 4494 
Q 2300 4494 2331 4400 
Q 2500 3875 2775 3400 
Q 3219 3975 3856 4613 
Q 3931 4688 3975 4688 
z
" transform="scale(0.015625)"/>
     </defs>
     <use xlink:href="#DejaVuSans-2717"/>
    </g>
   </g>
   <g id="text_48">
    <!--  -->
    <g style="fill: #ffffff" transform="translate(330.629163 720.669442) scale(0.1 -0.1)">
     <use xlink:href="#DejaVuSans-2713"/>
    </g>
   </g>
   <g id="text_49">
    <!--  -->
    <g style="fill: #ffffff" transform="translate(375.091315 695.300315) scale(0.1 -0.1)">
     <use xlink:href="#DejaVuSans-2713"/>
    </g>
   </g>
   <g id="text_50">
    <!--  -->
    <g style="fill: #ffffff" transform="translate(391.764622 669.931187) scale(0.1 -0.1)">
     <use xlink:href="#DejaVuSans-2713"/>
    </g>
   </g>
   <g id="text_51">
    <!--  -->
    <g style="fill: #ffffff" transform="translate(347.30247 644.56206) scale(0.1 -0.1)">
     <use xlink:href="#DejaVuSans-2713"/>
    </g>
   </g>
   <g id="text_52">
    <!--  -->
    <g style="fill: #ffffff" transform="translate(352.860239 619.192932) scale(0.1 -0.1)">
     <use xlink:href="#DejaVuSans-2713"/>
    </g>
   </g>
   <g id="text_53">
    <!--  -->
    <g style="fill: #ffffff" transform="translate(375.091315 593.823805) scale(0.1 -0.1)">
     <use xlink:href="#DejaVuSans-2713"/>
    </g>
   </g>
   <g id="text_54">
    <!--  -->
    <g style="fill: #ffffff" transform="translate(391.764622 568.454677) scale(0.1 -0.1)">
     <use xlink:href="#DejaVuSans-2713"/>
    </g>
   </g>
   <g id="text_55">
    <!--  -->
    <g style="fill: #ffffff" transform="translate(352.860239 543.085549) scale(0.1 -0.1)">
     <use xlink:href="#DejaVuSans-2713"/>
    </g>
   </g>
   <g id="text_56">
    <!--  -->
    <g style="fill: #ffffff" transform="translate(352.860239 517.716422) scale(0.1 -0.1)">
     <use xlink:href="#DejaVuSans-2713"/>
    </g>
   </g>
   <g id="text_57">
    <!--  -->
    <g style="fill: #ffffff" transform="translate(375.091315 492.347294) scale(0.1 -0.1)">
     <use xlink:href="#DejaVuSans-2713"/>
    </g>
   </g>
   <g id="text_58">
    <!--  -->
    <g style="fill: #ffffff" transform="translate(386.206853 466.978167) scale(0.1 -0.1)">
     <use xlink:href="#DejaVuSans-2713"/>
    </g>
   </g>
   <g id="text_59">
    <!--  -->
    <g style="fill: #ffffff" transform="translate(380.649084 441.609039) scale(0.1 -0.1)">
     <use xlink:href="#DejaVuSans-2713"/>
    </g>
   </g>
   <g id="text_60">
    <!--  -->
    <g style="fill: #ffffff" transform="translate(308.398088 416.239912) scale(0.1 -0.1)">
     <use xlink:href="#DejaVuSans-2713"/>
    </g>
   </g>
   <g id="text_61">
    <!--  -->
    <g style="fill: #ffffff" transform="translate(419.553466 390.870784) scale(0.1 -0.1)">
     <use xlink:href="#DejaVuSans-2717"/>
    </g>
   </g>
   <g id="text_62">
    <!--  -->
    <g style="fill: #ffffff" transform="translate(347.30247 365.501657) scale(0.1 -0.1)">
     <use xlink:href="#DejaVuSans-2713"/>
    </g>
   </g>
   <g id="text_63">
    <!--  -->
    <g style="fill: #ffffff" transform="translate(325.071394 340.132529) scale(0.1 -0.1)">
     <use xlink:href="#DejaVuSans-2713"/>
    </g>
   </g>
   <g id="text_64">
    <!--  -->
    <g style="fill: #ffffff" transform="translate(352.860239 314.763402) scale(0.1 -0.1)">
     <use xlink:href="#DejaVuSans-2713"/>
    </g>
   </g>
   <g id="text_65">
    <!--  -->
    <g style="fill: #ffffff" transform="translate(363.975777 289.394274) scale(0.1 -0.1)">
     <use xlink:href="#DejaVuSans-2713"/>
    </g>
   </g>
   <g id="text_66">
    <!--  -->
    <g style="fill: #ffffff" transform="translate(380.649084 264.025147) scale(0.1 -0.1)">
     <use xlink:href="#DejaVuSans-2713"/>
    </g>
   </g>
   <g id="text_67">
    <!--  -->
    <g style="fill: #ffffff" transform="translate(341.744701 238.656019) scale(0.1 -0.1)">
     <use xlink:href="#DejaVuSans-2713"/>
    </g>
   </g>
   <g id="text_68">
    <!--  -->
    <g style="fill: #ffffff" transform="translate(347.30247 213.286892) scale(0.1 -0.1)">
     <use xlink:href="#DejaVuSans-2713"/>
    </g>
   </g>
   <g id="text_69">
    <!--  -->
    <g style="fill: #ffffff" transform="translate(425.111235 187.917764) scale(0.1 -0.1)">
     <use xlink:href="#DejaVuSans-2717"/>
    </g>
   </g>
   <g id="text_70">
    <!--  -->
    <g style="fill: #ffffff" transform="translate(380.649084 918.548637) scale(0.1 -0.1)">
     <use xlink:href="#DejaVuSans-2713"/>
    </g>
   </g>
   <g id="text_71">
    <!--  -->
    <g style="fill: #ffffff" transform="translate(380.649084 893.179509) scale(0.1 -0.1)">
     <use xlink:href="#DejaVuSans-2713"/>
    </g>
   </g>
   <g id="text_72">
    <!--  -->
    <g style="fill: #ffffff" transform="translate(319.513625 867.810382) scale(0.1 -0.1)">
     <use xlink:href="#DejaVuSans-2713"/>
    </g>
   </g>
   <g id="text_73">
    <!--  -->
    <g style="fill: #ffffff" transform="translate(347.30247 842.441254) scale(0.1 -0.1)">
     <use xlink:href="#DejaVuSans-2713"/>
    </g>
   </g>
   <g id="text_74">
    <!--  -->
    <g style="fill: #ffffff" transform="translate(341.744701 817.072127) scale(0.1 -0.1)">
     <use xlink:href="#DejaVuSans-2713"/>
    </g>
   </g>
   <g id="text_75">
    <!--  -->
    <g style="fill: #ffffff" transform="translate(336.186932 791.702999) scale(0.1 -0.1)">
     <use xlink:href="#DejaVuSans-2713"/>
    </g>
   </g>
   <g id="text_76">
    <!--  -->
    <g style="fill: #ffffff" transform="translate(319.513625 766.333872) scale(0.1 -0.1)">
     <use xlink:href="#DejaVuSans-2713"/>
    </g>
   </g>
   <g id="text_77">
    <!--  -->
    <g style="fill: #ffffff" transform="translate(380.649084 740.964744) scale(0.1 -0.1)">
     <use xlink:href="#DejaVuSans-2713"/>
    </g>
   </g>
   <g id="text_78">
    <!--  -->
    <g style="fill: #ffffff" transform="translate(369.533546 715.595617) scale(0.1 -0.1)">
     <use xlink:href="#DejaVuSans-2713"/>
    </g>
   </g>
   <g id="text_79">
    <!--  -->
    <g style="fill: #ffffff" transform="translate(297.28255 690.226489) scale(0.1 -0.1)">
     <use xlink:href="#DejaVuSans-2717"/>
    </g>
   </g>
   <g id="text_80">
    <!--  -->
    <g style="fill: #ffffff" transform="translate(363.975777 639.488234) scale(0.1 -0.1)">
     <use xlink:href="#DejaVuSans-2713"/>
    </g>
   </g>
   <g id="text_81">
    <!--  -->
    <g style="fill: #ffffff" transform="translate(347.30247 614.119107) scale(0.1 -0.1)">
     <use xlink:href="#DejaVuSans-2713"/>
    </g>
   </g>
   <g id="text_82">
    <!--  -->
    <g style="fill: #ffffff" transform="translate(419.553466 588.749979) scale(0.1 -0.1)">
     <use xlink:href="#DejaVuSans-2717"/>
    </g>
   </g>
   <g id="text_83">
    <!--  -->
    <g style="fill: #ffffff" transform="translate(391.764622 563.380852) scale(0.1 -0.1)">
     <use xlink:href="#DejaVuSans-2713"/>
    </g>
   </g>
   <g id="text_84">
    <!--  -->
    <g style="fill: #ffffff" transform="translate(275.051474 538.011724) scale(0.1 -0.1)">
     <use xlink:href="#DejaVuSans-2717"/>
    </g>
   </g>
   <g id="text_85">
    <!--  -->
    <g style="fill: #ffffff" transform="translate(386.206853 512.642596) scale(0.1 -0.1)">
     <use xlink:href="#DejaVuSans-2713"/>
    </g>
   </g>
   <g id="text_86">
    <!--  -->
    <g style="fill: #ffffff" transform="translate(375.091315 487.273469) scale(0.1 -0.1)">
     <use xlink:href="#DejaVuSans-2713"/>
    </g>
   </g>
   <g id="text_87">
    <!--  -->
    <g style="fill: #ffffff" transform="translate(425.111235 461.904341) scale(0.1 -0.1)">
     <use xlink:href="#DejaVuSans-2717"/>
    </g>
   </g>
   <g id="text_88">
    <!--  -->
    <g style="fill: #ffffff" transform="translate(391.764622 436.535214) scale(0.1 -0.1)">
     <use xlink:href="#DejaVuSans-2713"/>
    </g>
   </g>
   <g id="text_89">
    <!--  -->
    <g style="fill: #ffffff" transform="translate(325.071394 411.166086) scale(0.1 -0.1)">
     <use xlink:href="#DejaVuSans-2713"/>
    </g>
   </g>
   <g id="text_90">
    <!--  -->
    <g style="fill: #ffffff" transform="translate(363.975777 385.796959) scale(0.1 -0.1)">
     <use xlink:href="#DejaVuSans-2713"/>
    </g>
   </g>
   <g id="text_91">
    <!--  -->
    <g style="fill: #ffffff" transform="translate(313.955857 360.427831) scale(0.1 -0.1)">
     <use xlink:href="#DejaVuSans-2713"/>
    </g>
   </g>
   <g id="text_92">
    <!--  -->
    <g style="fill: #ffffff" transform="translate(291.724781 335.058704) scale(0.1 -0.1)">
     <use xlink:href="#DejaVuSans-2717"/>
    </g>
   </g>
   <g id="text_93">
    <!--  -->
    <g style="fill: #ffffff" transform="translate(358.418008 309.689576) scale(0.1 -0.1)">
     <use xlink:href="#DejaVuSans-2713"/>
    </g>
   </g>
   <g id="text_94">
    <!--  -->
    <g style="fill: #ffffff" transform="translate(408.437928 284.320449) scale(0.1 -0.1)">
     <use xlink:href="#DejaVuSans-2713"/>
    </g>
   </g>
   <g id="text_95">
    <!--  -->
    <g style="fill: #ffffff" transform="translate(386.206853 258.951321) scale(0.1 -0.1)">
     <use xlink:href="#DejaVuSans-2713"/>
    </g>
   </g>
   <g id="text_96">
    <!--  -->
    <g style="fill: #ffffff" transform="translate(380.649084 233.582194) scale(0.1 -0.1)">
     <use xlink:href="#DejaVuSans-2713"/>
    </g>
   </g>
   <g id="text_97">
    <!--  -->
    <g style="fill: #ffffff" transform="translate(319.513625 208.213066) scale(0.1 -0.1)">
     <use xlink:href="#DejaVuSans-2713"/>
    </g>
   </g>
   <g id="text_98">
    <!--  -->
    <g style="fill: #ffffff" transform="translate(402.880159 182.843939) scale(0.1 -0.1)">
     <use xlink:href="#DejaVuSans-2713"/>
    </g>
   </g>
   <g id="text_99">
    <!--  -->
    <g style="fill: #ffffff" transform="translate(413.995697 913.474811) scale(0.1 -0.1)">
     <use xlink:href="#DejaVuSans-2717"/>
    </g>
   </g>
   <g id="text_100">
    <!--  -->
    <g style="fill: #ffffff" transform="translate(369.533546 888.105684) scale(0.1 -0.1)">
     <use xlink:href="#DejaVuSans-2713"/>
    </g>
   </g>
   <g id="text_101">
    <!--  -->
    <g style="fill: #ffffff" transform="translate(341.744701 862.736556) scale(0.1 -0.1)">
     <use xlink:href="#DejaVuSans-2713"/>
    </g>
   </g>
   <g id="text_102">
    <!--  -->
    <g style="fill: #ffffff" transform="translate(386.206853 837.367429) scale(0.1 -0.1)">
     <use xlink:href="#DejaVuSans-2713"/>
    </g>
   </g>
   <g id="text_103">
    <!--  -->
    <g style="fill: #ffffff" transform="translate(391.764622 811.998301) scale(0.1 -0.1)">
     <use xlink:href="#DejaVuSans-2713"/>
    </g>
   </g>
   <g id="text_104">
    <!--  -->
    <g style="fill: #ffffff" transform="translate(358.418008 786.629174) scale(0.1 -0.1)">
     <use xlink:href="#DejaVuSans-2713"/>
    </g>
   </g>
   <g id="text_105">
    <!--  -->
    <g style="fill: #ffffff" transform="translate(363.975777 761.260046) scale(0.1 -0.1)">
     <use xlink:href="#DejaVuSans-2713"/>
    </g>
   </g>
   <g id="text_106">
    <!--  -->
    <g style="fill: #ffffff" transform="translate(363.975777 735.890919) scale(0.1 -0.1)">
     <use xlink:href="#DejaVuSans-2713"/>
    </g>
   </g>
   <g id="text_107">
    <!--  -->
    <g style="fill: #ffffff" transform="translate(375.091315 710.521791) scale(0.1 -0.1)">
     <use xlink:href="#DejaVuSans-2713"/>
    </g>
   </g>
   <g id="text_108">
    <!--  -->
    <g style="fill: #ffffff" transform="translate(319.513625 685.152664) scale(0.1 -0.1)">
     <use xlink:href="#DejaVuSans-2713"/>
    </g>
   </g>
   <g id="text_109">
    <!--  -->
    <g style="fill: #ffffff" transform="translate(369.533546 634.414409) scale(0.1 -0.1)">
     <use xlink:href="#DejaVuSans-2713"/>
    </g>
   </g>
   <g id="text_110">
    <!--  -->
    <g style="fill: #ffffff" transform="translate(352.860239 609.045281) scale(0.1 -0.1)">
     <use xlink:href="#DejaVuSans-2713"/>
    </g>
   </g>
   <g id="text_111">
    <!--  -->
    <g style="fill: #ffffff" transform="translate(397.32239 583.676154) scale(0.1 -0.1)">
     <use xlink:href="#DejaVuSans-2713"/>
    </g>
   </g>
   <g id="text_112">
    <!--  -->
    <g style="fill: #ffffff" transform="translate(380.649084 558.307026) scale(0.1 -0.1)">
     <use xlink:href="#DejaVuSans-2713"/>
    </g>
   </g>
   <g id="text_113">
    <!--  -->
    <g style="fill: #ffffff" transform="translate(313.955857 532.937898) scale(0.1 -0.1)">
     <use xlink:href="#DejaVuSans-2713"/>
    </g>
   </g>
   <g id="text_114">
    <!--  -->
    <g style="fill: #ffffff" transform="translate(358.418008 507.568771) scale(0.1 -0.1)">
     <use xlink:href="#DejaVuSans-2713"/>
    </g>
   </g>
   <g id="text_115">
    <!--  -->
    <g style="fill: #ffffff" transform="translate(397.32239 482.199643) scale(0.1 -0.1)">
     <use xlink:href="#DejaVuSans-2713"/>
    </g>
   </g>
   <g id="text_116">
    <!--  -->
    <g style="fill: #ffffff" transform="translate(402.880159 456.830516) scale(0.1 -0.1)">
     <use xlink:href="#DejaVuSans-2713"/>
    </g>
   </g>
   <g id="text_117">
    <!--  -->
    <g style="fill: #ffffff" transform="translate(380.649084 431.461388) scale(0.1 -0.1)">
     <use xlink:href="#DejaVuSans-2713"/>
    </g>
   </g>
   <g id="text_118">
    <!--  -->
    <g style="fill: #ffffff" transform="translate(313.955857 406.092261) scale(0.1 -0.1)">
     <use xlink:href="#DejaVuSans-2713"/>
    </g>
   </g>
   <g id="text_119">
    <!--  -->
    <g style="fill: #ffffff" transform="translate(358.418008 380.723133) scale(0.1 -0.1)">
     <use xlink:href="#DejaVuSans-2713"/>
    </g>
   </g>
   <g id="text_120">
    <!--  -->
    <g style="fill: #ffffff" transform="translate(336.186932 355.354006) scale(0.1 -0.1)">
     <use xlink:href="#DejaVuSans-2713"/>
    </g>
   </g>
   <g id="text_121">
    <!--  -->
    <g style="fill: #ffffff" transform="translate(275.051474 329.984878) scale(0.1 -0.1)">
     <use xlink:href="#DejaVuSans-2717"/>
    </g>
   </g>
   <g id="text_122">
    <!--  -->
    <g style="fill: #ffffff" transform="translate(352.860239 304.615751) scale(0.1 -0.1)">
     <use xlink:href="#DejaVuSans-2713"/>
    </g>
   </g>
   <g id="text_123">
    <!--  -->
    <g style="fill: #ffffff" transform="translate(408.437928 279.246623) scale(0.1 -0.1)">
     <use xlink:href="#DejaVuSans-2713"/>
    </g>
   </g>
   <g id="text_124">
    <!--  -->
    <g style="fill: #ffffff" transform="translate(380.649084 253.877496) scale(0.1 -0.1)">
     <use xlink:href="#DejaVuSans-2713"/>
    </g>
   </g>
   <g id="text_125">
    <!--  -->
    <g style="fill: #ffffff" transform="translate(391.764622 228.508368) scale(0.1 -0.1)">
     <use xlink:href="#DejaVuSans-2713"/>
    </g>
   </g>
   <g id="text_126">
    <!--  -->
    <g style="fill: #ffffff" transform="translate(325.071394 203.139241) scale(0.1 -0.1)">
     <use xlink:href="#DejaVuSans-2713"/>
    </g>
   </g>
   <g id="text_127">
    <!--  -->
    <g style="fill: #ffffff" transform="translate(402.880159 177.770113) scale(0.1 -0.1)">
     <use xlink:href="#DejaVuSans-2713"/>
    </g>
   </g>
   <g id="text_128">
    <!--  -->
    <g style="fill: #ffffff" transform="translate(425.111235 908.400986) scale(0.1 -0.1)">
     <use xlink:href="#DejaVuSans-2717"/>
    </g>
   </g>
   <g id="text_129">
    <!--  -->
    <g style="fill: #ffffff" transform="translate(369.533546 883.031858) scale(0.1 -0.1)">
     <use xlink:href="#DejaVuSans-2713"/>
    </g>
   </g>
   <g id="text_130">
    <!--  -->
    <g style="fill: #ffffff" transform="translate(330.629163 857.662731) scale(0.1 -0.1)">
     <use xlink:href="#DejaVuSans-2713"/>
    </g>
   </g>
   <g id="text_131">
    <!--  -->
    <g style="fill: #ffffff" transform="translate(386.206853 832.293603) scale(0.1 -0.1)">
     <use xlink:href="#DejaVuSans-2713"/>
    </g>
   </g>
   <g id="text_132">
    <!--  -->
    <g style="fill: #ffffff" transform="translate(397.32239 806.924476) scale(0.1 -0.1)">
     <use xlink:href="#DejaVuSans-2713"/>
    </g>
   </g>
   <g id="text_133">
    <!--  -->
    <g style="fill: #ffffff" transform="translate(352.860239 781.555348) scale(0.1 -0.1)">
     <use xlink:href="#DejaVuSans-2713"/>
    </g>
   </g>
   <g id="text_134">
    <!--  -->
    <g style="fill: #ffffff" transform="translate(352.860239 756.186221) scale(0.1 -0.1)">
     <use xlink:href="#DejaVuSans-2713"/>
    </g>
   </g>
   <g id="text_135">
    <!--  -->
    <g style="fill: #ffffff" transform="translate(369.533546 730.817093) scale(0.1 -0.1)">
     <use xlink:href="#DejaVuSans-2713"/>
    </g>
   </g>
   <g id="text_136">
    <!--  -->
    <g style="fill: #ffffff" transform="translate(380.649084 705.447966) scale(0.1 -0.1)">
     <use xlink:href="#DejaVuSans-2713"/>
    </g>
   </g>
   <g id="text_137">
    <!--  -->
    <g style="fill: #ffffff" transform="translate(313.955857 680.078838) scale(0.1 -0.1)">
     <use xlink:href="#DejaVuSans-2713"/>
    </g>
   </g>
   <g id="text_138">
    <!--  -->
    <g style="fill: #ffffff" transform="translate(369.533546 629.340583) scale(0.1 -0.1)">
     <use xlink:href="#DejaVuSans-2713"/>
    </g>
   </g>
   <g id="text_139">
    <!--  -->
    <g style="fill: #ffffff" transform="translate(352.860239 603.971456) scale(0.1 -0.1)">
     <use xlink:href="#DejaVuSans-2713"/>
    </g>
   </g>
   <g id="text_140">
    <!--  -->
    <g style="fill: #ffffff" transform="translate(408.437928 578.602328) scale(0.1 -0.1)">
     <use xlink:href="#DejaVuSans-2713"/>
    </g>
   </g>
   <g id="text_141">
    <!--  -->
    <g style="fill: #ffffff" transform="translate(391.764622 553.233201) scale(0.1 -0.1)">
     <use xlink:href="#DejaVuSans-2713"/>
    </g>
   </g>
   <g id="text_142">
    <!--  -->
    <g style="fill: #ffffff" transform="translate(319.513625 527.864073) scale(0.1 -0.1)">
     <use xlink:href="#DejaVuSans-2713"/>
    </g>
   </g>
   <g id="text_143">
    <!--  -->
    <g style="fill: #ffffff" transform="translate(375.091315 502.494945) scale(0.1 -0.1)">
     <use xlink:href="#DejaVuSans-2713"/>
    </g>
   </g>
   <g id="text_144">
    <!--  -->
    <g style="fill: #ffffff" transform="translate(397.32239 477.125818) scale(0.1 -0.1)">
     <use xlink:href="#DejaVuSans-2713"/>
    </g>
   </g>
   <g id="text_145">
    <!--  -->
    <g style="fill: #ffffff" transform="translate(402.880159 451.75669) scale(0.1 -0.1)">
     <use xlink:href="#DejaVuSans-2713"/>
    </g>
   </g>
   <g id="text_146">
    <!--  -->
    <g style="fill: #ffffff" transform="translate(375.091315 426.387563) scale(0.1 -0.1)">
     <use xlink:href="#DejaVuSans-2713"/>
    </g>
   </g>
   <g id="text_147">
    <!--  -->
    <g style="fill: #ffffff" transform="translate(336.186932 401.018435) scale(0.1 -0.1)">
     <use xlink:href="#DejaVuSans-2713"/>
    </g>
   </g>
   <g id="text_148">
    <!--  -->
    <g style="fill: #ffffff" transform="translate(375.091315 375.649308) scale(0.1 -0.1)">
     <use xlink:href="#DejaVuSans-2713"/>
    </g>
   </g>
   <g id="text_149">
    <!--  -->
    <g style="fill: #ffffff" transform="translate(341.744701 350.28018) scale(0.1 -0.1)">
     <use xlink:href="#DejaVuSans-2713"/>
    </g>
   </g>
   <g id="text_150">
    <!--  -->
    <g style="fill: #ffffff" transform="translate(297.28255 324.911053) scale(0.1 -0.1)">
     <use xlink:href="#DejaVuSans-2717"/>
    </g>
   </g>
   <g id="text_151">
    <!--  -->
    <g style="fill: #ffffff" transform="translate(363.975777 299.541925) scale(0.1 -0.1)">
     <use xlink:href="#DejaVuSans-2713"/>
    </g>
   </g>
   <g id="text_152">
    <!--  -->
    <g style="fill: #ffffff" transform="translate(397.32239 274.172798) scale(0.1 -0.1)">
     <use xlink:href="#DejaVuSans-2713"/>
    </g>
   </g>
   <g id="text_153">
    <!--  -->
    <g style="fill: #ffffff" transform="translate(380.649084 248.80367) scale(0.1 -0.1)">
     <use xlink:href="#DejaVuSans-2713"/>
    </g>
   </g>
   <g id="text_154">
    <!--  -->
    <g style="fill: #ffffff" transform="translate(391.764622 223.434543) scale(0.1 -0.1)">
     <use xlink:href="#DejaVuSans-2713"/>
    </g>
   </g>
   <g id="text_155">
    <!--  -->
    <g style="fill: #ffffff" transform="translate(325.071394 198.065415) scale(0.1 -0.1)">
     <use xlink:href="#DejaVuSans-2713"/>
    </g>
   </g>
   <g id="text_156">
    <!--  -->
    <g style="fill: #ffffff" transform="translate(408.437928 172.696288) scale(0.1 -0.1)">
     <use xlink:href="#DejaVuSans-2713"/>
    </g>
   </g>
   <g id="text_157">
    <!-- PICP by ticker (95% interval) -->
    <g transform="translate(283.190625 123.6) scale(0.12 -0.12)">
     <defs>
      <path id="DejaVuSans-20" transform="scale(0.015625)"/>
      <path id="DejaVuSans-62" d="M 3116 1747 
Q 3116 2381 2855 2742 
Q 2594 3103 2138 3103 
Q 1681 3103 1420 2742 
Q 1159 2381 1159 1747 
Q 1159 1113 1420 752 
Q 1681 391 2138 391 
Q 2594 391 2855 752 
Q 3116 1113 3116 1747 
z
M 1159 2969 
Q 1341 3281 1617 3432 
Q 1894 3584 2278 3584 
Q 2916 3584 3314 3078 
Q 3713 2572 3713 1747 
Q 3713 922 3314 415 
Q 2916 -91 2278 -91 
Q 1894 -91 1617 61 
Q 1341 213 1159 525 
L 1159 0 
L 581 0 
L 581 4863 
L 1159 4863 
L 1159 2969 
z
" transform="scale(0.015625)"/>
      <path id="DejaVuSans-79" d="M 2059 -325 
Q 1816 -950 1584 -1140 
Q 1353 -1331 966 -1331 
L 506 -1331 
L 506 -850 
L 844 -850 
Q 1081 -850 1212 -737 
Q 1344 -625 1503 -206 
L 1606 56 
L 191 3500 
L 800 3500 
L 1894 763 
L 2988 3500 
L 3597 3500 
L 2059 -325 
z
" transform="scale(0.015625)"/>
      <path id="DejaVuSans-74" d="M 1172 4494 
L 1172 3500 
L 2356 3500 
L 2356 3053 
L 1172 3053 
L 1172 1153 
Q 1172 725 1289 603 
Q 1406 481 1766 481 
L 2356 481 
L 2356 0 
L 1766 0 
Q 1100 0 847 248 
Q 594 497 594 1153 
L 594 3053 
L 172 3053 
L 172 3500 
L 594 3500 
L 594 4494 
L 1172 4494 
z
" transform="scale(0.015625)"/>
      <path id="DejaVuSans-69" d="M 603 3500 
L 1178 3500 
L 1178 0 
L 603 0 
L 603 3500 
z
M 603 4863 
L 1178 4863 
L 1178 4134 
L 603 4134 
L 603 4863 
z
" transform="scale(0.015625)"/>
      <path id="DejaVuSans-63" d="M 3122 3366 
L 3122 2828 
Q 2878 2963 2633 3030 
Q 2388 3097 2138 3097 
Q 1578 3097 1268 2742 
Q 959 2388 959 1747 
Q 959 1106 1268 751 
Q 1578 397 2138 397 
Q 2388 397 2633 464 
Q 2878 531 3122 666 
L 3122 134 
Q 2881 22 2623 -34 
Q 2366 -91 2075 -91 
Q 1284 -91 818 406 
Q 353 903 353 1747 
Q 353 2603 823 3093 
Q 1294 3584 2113 3584 
Q 2378 3584 2631 3529 
Q 2884 3475 3122 3366 
z
" transform="scale(0.015625)"/>
      <path id="DejaVuSans-6b" d="M 581 4863 
L 1159 4863 
L 1159 1991 
L 2875 3500 
L 3609 3500 
L 1753 1863 
L 3688 0 
L 2938 0 
L 1159 1709 
L 1159 0 
L 581 0 
L 581 4863 
z
" transform="scale(0.015625)"/>
      <path id="DejaVuSans-65" d="M 3597 1894 
L 3597 1613 
L 953 1613 
Q 991 1019 1311 708 
Q 1631 397 2203 397 
Q 2534 397 2845 478 
Q 3156 559 3463 722 
L 3463 178 
Q 3153 47 2828 -22 
Q 2503 -91 2169 -91 
Q 1331 -91 842 396 
Q 353 884 353 1716 
Q 353 2575 817 3079 
Q 1281 3584 2069 3584 
Q 2775 3584 3186 3129 
Q 3597 2675 3597 1894 
z
M 3022 2063 
Q 3016 2534 2758 2815 
Q 2500 3097 2075 3097 
Q 1594 3097 1305 2825 
Q 1016 2553 972 2059 
L 3022 2063 
z
" transform="scale(0.015625)"/>
      <path id="DejaVuSans-72" d="M 2631 2963 
Q 2534 3019 2420 3045 
Q 2306 3072 2169 3072 
Q 1681 3072 1420 2755 
Q 1159 2438 1159 1844 
L 1159 0 
L 581 0 
L 581 3500 
L 1159 3500 
L 1159 2956 
Q 1341 3275 1631 3429 
Q 1922 3584 2338 3584 
Q 2397 3584 2469 3576 
Q 2541 3569 2628 3553 
L 2631 2963 
z
" transform="scale(0.015625)"/>
      <path id="DejaVuSans-28" d="M 1984 4856 
Q 1566 4138 1362 3434 
Q 1159 2731 1159 2009 
Q 1159 1288 1364 580 
Q 1569 -128 1984 -844 
L 1484 -844 
Q 1016 -109 783 600 
Q 550 1309 550 2009 
Q 550 2706 781 3412 
Q 1013 4119 1484 4856 
L 1984 4856 
z
" transform="scale(0.015625)"/>
      <path id="DejaVuSans-6e" d="M 3513 2113 
L 3513 0 
L 2938 0 
L 2938 2094 
Q 2938 2591 2744 2837 
Q 2550 3084 2163 3084 
Q 1697 3084 1428 2787 
Q 1159 2491 1159 1978 
L 1159 0 
L 581 0 
L 581 3500 
L 1159 3500 
L 1159 2956 
Q 1366 3272 1645 3428 
Q 1925 3584 2291 3584 
Q 2894 3584 3203 3211 
Q 3513 2838 3513 2113 
z
" transform="scale(0.015625)"/>
      <path id="DejaVuSans-76" d="M 191 3500 
L 800 3500 
L 1894 563 
L 2988 3500 
L 3597 3500 
L 2284 0 
L 1503 0 
L 191 3500 
z
" transform="scale(0.015625)"/>
      <path id="DejaVuSans-61" d="M 2194 1759 
Q 1497 1759 1228 1600 
Q 959 1441 959 1056 
Q 959 750 1161 570 
Q 1363 391 1709 391 
Q 2188 391 2477 730 
Q 2766 1069 2766 1631 
L 2766 1759 
L 2194 1759 
z
M 3341 1997 
L 3341 0 
L 2766 0 
L 2766 531 
Q 2569 213 2275 61 
Q 1981 -91 1556 -91 
Q 1019 -91 701 211 
Q 384 513 384 1019 
Q 384 1609 779 1909 
Q 1175 2209 1959 2209 
L 2766 2209 
L 2766 2266 
Q 2766 2663 2505 2880 
Q 2244 3097 1772 3097 
Q 1472 3097 1187 3025 
Q 903 2953 641 2809 
L 641 3341 
Q 956 3463 1253 3523 
Q 1550 3584 1831 3584 
Q 2591 3584 2966 3190 
Q 3341 2797 3341 1997 
z
" transform="scale(0.015625)"/>
      <path id="DejaVuSans-6c" d="M 603 4863 
L 1178 4863 
L 1178 0 
L 603 0 
L 603 4863 
z
" transform="scale(0.015625)"/>
      <path id="DejaVuSans-29" d="M 513 4856 
L 1013 4856 
Q 1481 4119 1714 3412 
Q 1947 2706 1947 2009 
Q 1947 1309 1714 600 
Q 1481 -109 1013 -844 
L 513 -844 
Q 928 -128 1133 580 
Q 1338 1288 1338 2009 
Q 1338 2731 1133 3434 
Q 928 4138 513 4856 
z
" transform="scale(0.015625)"/>
     </defs>
     <use xlink:href="#DejaVuSans-50"/>
     <use xlink:href="#DejaVuSans-49" transform="translate(60.302734 0)"/>
     <use xlink:href="#DejaVuSans-43" transform="translate(89.794922 0)"/>
     <use xlink:href="#DejaVuSans-50" transform="translate(159.619141 0)"/>
     <use xlink:href="#DejaVuSans-20" transform="translate(219.921875 0)"/>
     <use xlink:href="#DejaVuSans-62" transform="translate(251.708984 0)"/>
     <use xlink:href="#DejaVuSans-79" transform="translate(315.185547 0)"/>
     <use xlink:href="#DejaVuSans-20" transform="translate(374.365234 0)"/>
     <use xlink:href="#DejaVuSans-74" transform="translate(406.152344 0)"/>
     <use xlink:href="#DejaVuSans-69" transform="translate(445.361328 0)"/>
     <use xlink:href="#DejaVuSans-63" transform="translate(473.144531 0)"/>
     <use xlink:href="#DejaVuSans-6b" transform="translate(528.125 0)"/>
     <use xlink:href="#DejaVuSans-65" transform="translate(582.410156 0)"/>
     <use xlink:href="#DejaVuSans-72" transform="translate(643.933594 0)"/>
     <use xlink:href="#DejaVuSans-20" transform="translate(685.046875 0)"/>
     <use xlink:href="#DejaVuSans-28" transform="translate(716.833984 0)"/>
     <use xlink:href="#DejaVuSans-39" transform="translate(755.847656 0)"/>
     <use xlink:href="#DejaVuSans-35" transform="translate(819.470703 0)"/>
     <use xlink:href="#DejaVuSans-25" transform="translate(883.09375 0)"/>
     <use xlink:href="#DejaVuSans-20" transform="translate(978.113281 0)"/>
     <use xlink:href="#DejaVuSans-69" transform="translate(1009.900391 0)"/>
     <use xlink:href="#DejaVuSans-6e" transform="translate(1037.683594 0)"/>
     <use xlink:href="#DejaVuSans-74" transform="translate(1101.0625 0)"/>
     <use xlink:href="#DejaVuSans-65" transform="translate(1140.271484 0)"/>
     <use xlink:href="#DejaVuSans-72" transform="translate(1201.794922 0)"/>
     <use xlink:href="#DejaVuSans-76" transform="translate(1242.908203 0)"/>
     <use xlink:href="#DejaVuSans-61" transform="translate(1302.087891 0)"/>
     <use xlink:href="#DejaVuSans-6c" transform="translate(1363.367188 0)"/>
     <use xlink:href="#DejaVuSans-29" transform="translate(1391.150391 0)"/>
    </g>
   </g>
   <g id="legend_1">
    <g id="patch_127">
     <path d="M 489.739062 210.990625 
L 641 210.990625 
Q 643 210.990625 643 208.990625 
L 643 136.6 
Q 643 134.6 641 134.6 
L 489.739062 134.6 
Q 487.739062 134.6 487.739062 136.6 
L 487.739062 208.990625 
Q 487.739062 210.990625 489.739062 210.990625 
z
" style="fill: #ffffff; opacity: 0.8; stroke: #cccccc; stroke-linejoin: miter"/>
    </g>
    <g id="line2d_41">
     <path d="M 491.739062 142.698438 
L 501.739062 142.698438 
L 511.739062 142.698438 
" style="fill: none; stroke-dasharray: 5.55,2.4; stroke-dashoffset: 0; stroke: #000000; stroke-width: 1.5"/>
    </g>
    <g id="text_158">
     <!-- Target -->
     <g transform="translate(519.739063 146.198438) scale(0.1 -0.1)">
      <defs>
       <path id="DejaVuSans-67" d="M 2906 1791 
Q 2906 2416 2648 2759 
Q 2391 3103 1925 3103 
Q 1463 3103 1205 2759 
Q 947 2416 947 1791 
Q 947 1169 1205 825 
Q 1463 481 1925 481 
Q 2391 481 2648 825 
Q 2906 1169 2906 1791 
z
M 3481 434 
Q 3481 -459 3084 -895 
Q 2688 -1331 1869 -1331 
Q 1566 -1331 1297 -1286 
Q 1028 -1241 775 -1147 
L 775 -588 
Q 1028 -725 1275 -790 
Q 1522 -856 1778 -856 
Q 2344 -856 2625 -561 
Q 2906 -266 2906 331 
L 2906 616 
Q 2728 306 2450 153 
Q 2172 0 1784 0 
Q 1141 0 747 490 
Q 353 981 353 1791 
Q 353 2603 747 3093 
Q 1141 3584 1784 3584 
Q 2172 3584 2450 3431 
Q 2728 3278 2906 2969 
L 2906 3500 
L 3481 3500 
L 3481 434 
z
" transform="scale(0.015625)"/>
      </defs>
      <use xlink:href="#DejaVuSans-54"/>
      <use xlink:href="#DejaVuSans-61" transform="translate(44.583984 0)"/>
      <use xlink:href="#DejaVuSans-72" transform="translate(105.863281 0)"/>
      <use xlink:href="#DejaVuSans-67" transform="translate(145.226562 0)"/>
      <use xlink:href="#DejaVuSans-65" transform="translate(208.703125 0)"/>
      <use xlink:href="#DejaVuSans-74" transform="translate(270.226562 0)"/>
     </g>
    </g>
    <g id="patch_128">
     <path d="M 491.739062 160.876563 
L 511.739062 160.876563 
L 511.739062 153.876563 
L 491.739062 153.876563 
z
" style="fill: #1f77b4"/>
    </g>
    <g id="text_159">
     <!-- GARCH -->
     <g transform="translate(519.739063 160.876563) scale(0.1 -0.1)">
      <use xlink:href="#DejaVuSans-47"/>
      <use xlink:href="#DejaVuSans-41" transform="translate(77.490234 0)"/>
      <use xlink:href="#DejaVuSans-52" transform="translate(145.898438 0)"/>
      <use xlink:href="#DejaVuSans-43" transform="translate(210.380859 0)"/>
      <use xlink:href="#DejaVuSans-48" transform="translate(280.205078 0)"/>
     </g>
    </g>
    <g id="patch_129">
     <path d="M 491.739062 175.554688 
L 511.739062 175.554688 
L 511.739062 168.554688 
L 491.739062 168.554688 
z
" style="fill: #ff7f0e"/>
    </g>
    <g id="text_160">
     <!-- LSTM MDN ffnn -->
     <g transform="translate(519.739063 175.554688) scale(0.1 -0.1)">
      <defs>
       <path id="DejaVuSans-66" d="M 2375 4863 
L 2375 4384 
L 1825 4384 
Q 1516 4384 1395 4259 
Q 1275 4134 1275 3809 
L 1275 3500 
L 2222 3500 
L 2222 3053 
L 1275 3053 
L 1275 0 
L 697 0 
L 697 3053 
L 147 3053 
L 147 3500 
L 697 3500 
L 697 3744 
Q 697 4328 969 4595 
Q 1241 4863 1831 4863 
L 2375 4863 
z
" transform="scale(0.015625)"/>
      </defs>
      <use xlink:href="#DejaVuSans-4c"/>
      <use xlink:href="#DejaVuSans-53" transform="translate(55.712891 0)"/>
      <use xlink:href="#DejaVuSans-54" transform="translate(119.189453 0)"/>
      <use xlink:href="#DejaVuSans-4d" transform="translate(180.273438 0)"/>
      <use xlink:href="#DejaVuSans-20" transform="translate(266.552734 0)"/>
      <use xlink:href="#DejaVuSans-4d" transform="translate(298.339844 0)"/>
      <use xlink:href="#DejaVuSans-44" transform="translate(384.619141 0)"/>
      <use xlink:href="#DejaVuSans-4e" transform="translate(461.621094 0)"/>
      <use xlink:href="#DejaVuSans-20" transform="translate(536.425781 0)"/>
      <use xlink:href="#DejaVuSans-66" transform="translate(568.212891 0)"/>
      <use xlink:href="#DejaVuSans-66" transform="translate(603.417969 0)"/>
      <use xlink:href="#DejaVuSans-6e" transform="translate(638.623047 0)"/>
      <use xlink:href="#DejaVuSans-6e" transform="translate(702.001953 0)"/>
     </g>
    </g>
    <g id="patch_130">
     <path d="M 491.739062 190.232813 
L 511.739062 190.232813 
L 511.739062 183.232813 
L 491.739062 183.232813 
z
" style="fill: #2ca02c"/>
    </g>
    <g id="text_161">
     <!-- LSTM MDN tuned -->
     <g transform="translate(519.739063 190.232813) scale(0.1 -0.1)">
      <defs>
       <path id="DejaVuSans-75" d="M 544 1381 
L 544 3500 
L 1119 3500 
L 1119 1403 
Q 1119 906 1312 657 
Q 1506 409 1894 409 
Q 2359 409 2629 706 
Q 2900 1003 2900 1516 
L 2900 3500 
L 3475 3500 
L 3475 0 
L 2900 0 
L 2900 538 
Q 2691 219 2414 64 
Q 2138 -91 1772 -91 
Q 1169 -91 856 284 
Q 544 659 544 1381 
z
M 1991 3584 
L 1991 3584 
z
" transform="scale(0.015625)"/>
       <path id="DejaVuSans-64" d="M 2906 2969 
L 2906 4863 
L 3481 4863 
L 3481 0 
L 2906 0 
L 2906 525 
Q 2725 213 2448 61 
Q 2172 -91 1784 -91 
Q 1150 -91 751 415 
Q 353 922 353 1747 
Q 353 2572 751 3078 
Q 1150 3584 1784 3584 
Q 2172 3584 2448 3432 
Q 2725 3281 2906 2969 
z
M 947 1747 
Q 947 1113 1208 752 
Q 1469 391 1925 391 
Q 2381 391 2643 752 
Q 2906 1113 2906 1747 
Q 2906 2381 2643 2742 
Q 2381 3103 1925 3103 
Q 1469 3103 1208 2742 
Q 947 2381 947 1747 
z
" transform="scale(0.015625)"/>
      </defs>
      <use xlink:href="#DejaVuSans-4c"/>
      <use xlink:href="#DejaVuSans-53" transform="translate(55.712891 0)"/>
      <use xlink:href="#DejaVuSans-54" transform="translate(119.189453 0)"/>
      <use xlink:href="#DejaVuSans-4d" transform="translate(180.273438 0)"/>
      <use xlink:href="#DejaVuSans-20" transform="translate(266.552734 0)"/>
      <use xlink:href="#DejaVuSans-4d" transform="translate(298.339844 0)"/>
      <use xlink:href="#DejaVuSans-44" transform="translate(384.619141 0)"/>
      <use xlink:href="#DejaVuSans-4e" transform="translate(461.621094 0)"/>
      <use xlink:href="#DejaVuSans-20" transform="translate(536.425781 0)"/>
      <use xlink:href="#DejaVuSans-74" transform="translate(568.212891 0)"/>
      <use xlink:href="#DejaVuSans-75" transform="translate(607.421875 0)"/>
      <use xlink:href="#DejaVuSans-6e" transform="translate(670.800781 0)"/>
      <use xlink:href="#DejaVuSans-65" transform="translate(734.179688 0)"/>
      <use xlink:href="#DejaVuSans-64" transform="translate(795.703125 0)"/>
     </g>
    </g>
    <g id="patch_131">
     <path d="M 491.739062 204.910938 
L 511.739062 204.910938 
L 511.739062 197.910938 
L 491.739062 197.910938 
z
" style="fill: #d62728"/>
    </g>
    <g id="text_162">
     <!-- Transformer MDN tuned -->
     <g transform="translate(519.739063 204.910938) scale(0.1 -0.1)">
      <defs>
       <path id="DejaVuSans-73" d="M 2834 3397 
L 2834 2853 
Q 2591 2978 2328 3040 
Q 2066 3103 1784 3103 
Q 1356 3103 1142 2972 
Q 928 2841 928 2578 
Q 928 2378 1081 2264 
Q 1234 2150 1697 2047 
L 1894 2003 
Q 2506 1872 2764 1633 
Q 3022 1394 3022 966 
Q 3022 478 2636 193 
Q 2250 -91 1575 -91 
Q 1294 -91 989 -36 
Q 684 19 347 128 
L 347 722 
Q 666 556 975 473 
Q 1284 391 1588 391 
Q 1994 391 2212 530 
Q 2431 669 2431 922 
Q 2431 1156 2273 1281 
Q 2116 1406 1581 1522 
L 1381 1569 
Q 847 1681 609 1914 
Q 372 2147 372 2553 
Q 372 3047 722 3315 
Q 1072 3584 1716 3584 
Q 2034 3584 2315 3537 
Q 2597 3491 2834 3397 
z
" transform="scale(0.015625)"/>
       <path id="DejaVuSans-6f" d="M 1959 3097 
Q 1497 3097 1228 2736 
Q 959 2375 959 1747 
Q 959 1119 1226 758 
Q 1494 397 1959 397 
Q 2419 397 2687 759 
Q 2956 1122 2956 1747 
Q 2956 2369 2687 2733 
Q 2419 3097 1959 3097 
z
M 1959 3584 
Q 2709 3584 3137 3096 
Q 3566 2609 3566 1747 
Q 3566 888 3137 398 
Q 2709 -91 1959 -91 
Q 1206 -91 779 398 
Q 353 888 353 1747 
Q 353 2609 779 3096 
Q 1206 3584 1959 3584 
z
" transform="scale(0.015625)"/>
       <path id="DejaVuSans-6d" d="M 3328 2828 
Q 3544 3216 3844 3400 
Q 4144 3584 4550 3584 
Q 5097 3584 5394 3201 
Q 5691 2819 5691 2113 
L 5691 0 
L 5113 0 
L 5113 2094 
Q 5113 2597 4934 2840 
Q 4756 3084 4391 3084 
Q 3944 3084 3684 2787 
Q 3425 2491 3425 1978 
L 3425 0 
L 2847 0 
L 2847 2094 
Q 2847 2600 2669 2842 
Q 2491 3084 2119 3084 
Q 1678 3084 1418 2786 
Q 1159 2488 1159 1978 
L 1159 0 
L 581 0 
L 581 3500 
L 1159 3500 
L 1159 2956 
Q 1356 3278 1631 3431 
Q 1906 3584 2284 3584 
Q 2666 3584 2933 3390 
Q 3200 3197 3328 2828 
z
" transform="scale(0.015625)"/>
      </defs>
      <use xlink:href="#DejaVuSans-54"/>
      <use xlink:href="#DejaVuSans-72" transform="translate(46.333984 0)"/>
      <use xlink:href="#DejaVuSans-61" transform="translate(87.447266 0)"/>
      <use xlink:href="#DejaVuSans-6e" transform="translate(148.726562 0)"/>
      <use xlink:href="#DejaVuSans-73" transform="translate(212.105469 0)"/>
      <use xlink:href="#DejaVuSans-66" transform="translate(264.205078 0)"/>
      <use xlink:href="#DejaVuSans-6f" transform="translate(299.410156 0)"/>
      <use xlink:href="#DejaVuSans-72" transform="translate(360.591797 0)"/>
      <use xlink:href="#DejaVuSans-6d" transform="translate(399.955078 0)"/>
      <use xlink:href="#DejaVuSans-65" transform="translate(497.367188 0)"/>
      <use xlink:href="#DejaVuSans-72" transform="translate(558.890625 0)"/>
      <use xlink:href="#DejaVuSans-20" transform="translate(600.003906 0)"/>
      <use xlink:href="#DejaVuSans-4d" transform="translate(631.791016 0)"/>
      <use xlink:href="#DejaVuSans-44" transform="translate(718.070312 0)"/>
      <use xlink:href="#DejaVuSans-4e" transform="translate(795.072266 0)"/>
      <use xlink:href="#DejaVuSans-20" transform="translate(869.876953 0)"/>
      <use xlink:href="#DejaVuSans-74" transform="translate(901.664062 0)"/>
      <use xlink:href="#DejaVuSans-75" transform="translate(940.873047 0)"/>
      <use xlink:href="#DejaVuSans-6e" transform="translate(1004.251953 0)"/>
      <use xlink:href="#DejaVuSans-65" transform="translate(1067.630859 0)"/>
      <use xlink:href="#DejaVuSans-64" transform="translate(1129.154297 0)"/>
     </g>
    </g>
   </g>
  </g>
 </g>
 <defs>
  <clipPath id="p2ed014fe6a">
   <rect x="90" y="129.6" width="558" height="831.6"/>
  </clipPath>
 </defs>
</svg>
