<?xml version="1.0" encoding="utf-8" standalone="no"?>
<!DOCTYPE svg PUBLIC "-//W3C//DTD SVG 1.1//EN"
  "http://www.w3.org/Graphics/SVG/1.1/DTD/svg11.dtd">
<svg xmlns:xlink="http://www.w3.org/1999/xlink" width="720pt" height="1080pt" viewBox="0 0 720 1080" xmlns="http://www.w3.org/2000/svg" version="1.1">
 <metadata>
  <rdf:RDF xmlns:dc="http://purl.org/dc/elements/1.1/" xmlns:cc="http://creativecommons.org/ns#" xmlns:rdf="http://www.w3.org/1999/02/22-rdf-syntax-ns#">
   <cc:Work>
    <dc:type rdf:resource="http://purl.org/dc/dcmitype/StillImage"/>
    <dc:date>2025-02-25T15:53:54.606337</dc:date>
    <dc:format>image/svg+xml</dc:format>
    <dc:creator>
     <cc:Agent>
      <dc:title>Matplotlib v3.10.0, https://matplotlib.org/</dc:title>
     </cc:Agent>
    </dc:creator>
   </cc:Work>
  </rdf:RDF>
 </metadata>
 <defs>
  <style type="text/css">*{stroke-linejoin: round; stroke-linecap: butt}</style>
 </defs>
 <g id="figure_1">
  <g id="patch_1">
   <path d="M 0 1080 
L 720 1080 
L 720 0 
L 0 0 
z
" style="fill: #ffffff"/>
  </g>
  <g id="axes_1">
   <g id="patch_2">
    <path d="M 90 961.2 
L 648 961.2 
L 648 129.6 
L 90 129.6 
z
" style="fill: #ffffff"/>
   </g>
   <g id="patch_3">
    <path d="M -3369.6 923.4 
L 787.611155 923.4 
L 787.611155 918.326174 
L -3369.6 918.326174 
z
" clip-path="url(#pda4b35c7fa)" style="fill: #1f77b4"/>
   </g>
   <g id="patch_4">
    <path d="M -3369.6 898.030872 
L 1065.499602 898.030872 
L 1065.499602 892.957047 
L -3369.6 892.957047 
z
" clip-path="url(#pda4b35c7fa)" style="fill: #1f77b4"/>
   </g>
   <g id="patch_5">
    <path d="M -3369.6 872.661745 
L 754.264542 872.661745 
L 754.264542 867.587919 
L -3369.6 867.587919 
z
" clip-path="url(#pda4b35c7fa)" style="fill: #1f77b4"/>
   </g>
   <g id="patch_6">
    <path d="M -3369.6 847.292617 
L 487.491633 847.292617 
L 487.491633 842.218792 
L -3369.6 842.218792 
z
" clip-path="url(#pda4b35c7fa)" style="fill: #1f77b4"/>
   </g>
   <g id="patch_7">
    <path d="M -3369.6 821.92349 
L 631.993625 821.92349 
L 631.993625 816.849664 
L -3369.6 816.849664 
z
" clip-path="url(#pda4b35c7fa)" style="fill: #1f77b4"/>
   </g>
   <g id="patch_8">
    <path d="M -3369.6 796.554362 
L 854.304382 796.554362 
L 854.304382 791.480537 
L -3369.6 791.480537 
z
" clip-path="url(#pda4b35c7fa)" style="fill: #1f77b4"/>
   </g>
   <g id="patch_9">
    <path d="M -3369.6 771.185235 
L 687.571315 771.185235 
L 687.571315 766.111409 
L -3369.6 766.111409 
z
" clip-path="url(#pda4b35c7fa)" style="fill: #1f77b4"/>
   </g>
   <g id="patch_10">
    <path d="M -3369.6 745.816107 
L 998.806375 745.816107 
L 998.806375 740.742282 
L -3369.6 740.742282 
z
" clip-path="url(#pda4b35c7fa)" style="fill: #1f77b4"/>
   </g>
   <g id="patch_11">
    <path d="M -3369.6 720.44698 
L 565.300398 720.44698 
L 565.300398 715.373154 
L -3369.6 715.373154 
z
" clip-path="url(#pda4b35c7fa)" style="fill: #1f77b4"/>
   </g>
   <g id="patch_12">
    <path d="M -3369.6 695.077852 
L 543.069323 695.077852 
L 543.069323 690.004027 
L -3369.6 690.004027 
z
" clip-path="url(#pda4b35c7fa)" style="fill: #1f77b4"/>
   </g>
   <g id="patch_13">
    <path d="M -3369.6 669.708725 
L 898.766534 669.708725 
L 898.766534 664.634899 
L -3369.6 664.634899 
z
" clip-path="url(#pda4b35c7fa)" style="fill: #1f77b4"/>
   </g>
   <g id="patch_14">
    <path d="M -3369.6 644.339597 
L 643.109163 644.339597 
L 643.109163 639.265772 
L -3369.6 639.265772 
z
" clip-path="url(#pda4b35c7fa)" style="fill: #1f77b4"/>
   </g>
   <g id="patch_15">
    <path d="M -3369.6 618.97047 
L 832.073307 618.97047 
L 832.073307 613.896644 
L -3369.6 613.896644 
z
" clip-path="url(#pda4b35c7fa)" style="fill: #1f77b4"/>
   </g>
   <g id="patch_16">
    <path d="M -3369.6 593.601342 
L 765.38008 593.601342 
L 765.38008 588.527517 
L -3369.6 588.527517 
z
" clip-path="url(#pda4b35c7fa)" style="fill: #1f77b4"/>
   </g>
   <g id="patch_17">
    <path d="M -3369.6 568.232215 
L 987.690837 568.232215 
L 987.690837 563.158389 
L -3369.6 563.158389 
z
" clip-path="url(#pda4b35c7fa)" style="fill: #1f77b4"/>
   </g>
   <g id="patch_18">
    <path d="M -3369.6 542.863087 
L 587.531474 542.863087 
L 587.531474 537.789262 
L -3369.6 537.789262 
z
" clip-path="url(#pda4b35c7fa)" style="fill: #1f77b4"/>
   </g>
   <g id="patch_19">
    <path d="M -3369.6 517.49396 
L 732.033466 517.49396 
L 732.033466 512.420134 
L -3369.6 512.420134 
z
" clip-path="url(#pda4b35c7fa)" style="fill: #1f77b4"/>
   </g>
   <g id="patch_20">
    <path d="M -3369.6 492.124832 
L 798.726693 492.124832 
L 798.726693 487.051007 
L -3369.6 487.051007 
z
" clip-path="url(#pda4b35c7fa)" style="fill: #1f77b4"/>
   </g>
   <g id="patch_21">
    <path d="M -3369.6 466.755705 
L 676.455777 466.755705 
L 676.455777 461.681879 
L -3369.6 461.681879 
z
" clip-path="url(#pda4b35c7fa)" style="fill: #1f77b4"/>
   </g>
   <g id="patch_22">
    <path d="M -3369.6 441.386577 
L 720.917928 441.386577 
L 720.917928 436.312752 
L -3369.6 436.312752 
z
" clip-path="url(#pda4b35c7fa)" style="fill: #1f77b4"/>
   </g>
   <g id="patch_23">
    <path d="M -3369.6 416.01745 
L 620.878088 416.01745 
L 620.878088 410.943624 
L -3369.6 410.943624 
z
" clip-path="url(#pda4b35c7fa)" style="fill: #1f77b4"/>
   </g>
   <g id="patch_24">
    <path d="M -3369.6 390.648322 
L 1043.268526 390.648322 
L 1043.268526 385.574497 
L -3369.6 385.574497 
z
" clip-path="url(#pda4b35c7fa)" style="fill: #1f77b4"/>
   </g>
   <g id="patch_25">
    <path d="M -3369.6 365.279195 
L 498.607171 365.279195 
L 498.607171 360.205369 
L -3369.6 360.205369 
z
" clip-path="url(#pda4b35c7fa)" style="fill: #1f77b4"/>
   </g>
   <g id="patch_26">
    <path d="M -3369.6 339.910067 
L 687.571315 339.910067 
L 687.571315 334.836242 
L -3369.6 334.836242 
z
" clip-path="url(#pda4b35c7fa)" style="fill: #1f77b4"/>
   </g>
   <g id="patch_27">
    <path d="M -3369.6 314.54094 
L 709.80239 314.54094 
L 709.80239 309.467114 
L -3369.6 309.467114 
z
" clip-path="url(#pda4b35c7fa)" style="fill: #1f77b4"/>
   </g>
   <g id="patch_28">
    <path d="M -3369.6 289.171812 
L 576.415936 289.171812 
L 576.415936 284.097987 
L -3369.6 284.097987 
z
" clip-path="url(#pda4b35c7fa)" style="fill: #1f77b4"/>
   </g>
   <g id="patch_29">
    <path d="M -3369.6 263.802685 
L 1009.921912 263.802685 
L 1009.921912 258.728859 
L -3369.6 258.728859 
z
" clip-path="url(#pda4b35c7fa)" style="fill: #1f77b4"/>
   </g>
   <g id="patch_30">
    <path d="M -3369.6 238.433557 
L 832.073307 238.433557 
L 832.073307 233.359732 
L -3369.6 233.359732 
z
" clip-path="url(#pda4b35c7fa)" style="fill: #1f77b4"/>
   </g>
   <g id="patch_31">
    <path d="M -3369.6 213.06443 
L 798.726693 213.06443 
L 798.726693 207.990604 
L -3369.6 207.990604 
z
" clip-path="url(#pda4b35c7fa)" style="fill: #1f77b4"/>
   </g>
   <g id="patch_32">
    <path d="M -3369.6 187.695302 
L 976.575299 187.695302 
L 976.575299 182.621477 
L -3369.6 182.621477 
z
" clip-path="url(#pda4b35c7fa)" style="fill: #1f77b4"/>
   </g>
   <g id="patch_33">
    <path d="M -3369.6 918.326174 
L 454.14502 918.326174 
L 454.14502 913.252349 
L -3369.6 913.252349 
z
" clip-path="url(#pda4b35c7fa)" style="fill: #ff7f0e"/>
   </g>
   <g id="patch_34">
    <path d="M -3369.6 892.957047 
L 754.264542 892.957047 
L 754.264542 887.883221 
L -3369.6 887.883221 
z
" clip-path="url(#pda4b35c7fa)" style="fill: #ff7f0e"/>
   </g>
   <g id="patch_35">
    <path d="M -3369.6 867.587919 
L -90.516335 867.587919 
L -90.516335 862.514094 
L -3369.6 862.514094 
z
" clip-path="url(#pda4b35c7fa)" style="fill: #ff7f0e"/>
   </g>
   <g id="patch_36">
    <path d="M -3369.6 842.218792 
L 109.563347 842.218792 
L 109.563347 837.144966 
L -3369.6 837.144966 
z
" clip-path="url(#pda4b35c7fa)" style="fill: #ff7f0e"/>
   </g>
   <g id="patch_37">
    <path d="M -3369.6 816.849664 
L 320.758566 816.849664 
L 320.758566 811.775839 
L -3369.6 811.775839 
z
" clip-path="url(#pda4b35c7fa)" style="fill: #ff7f0e"/>
   </g>
   <g id="patch_38">
    <path d="M -3369.6 791.480537 
L 476.376096 791.480537 
L 476.376096 786.406711 
L -3369.6 786.406711 
z
" clip-path="url(#pda4b35c7fa)" style="fill: #ff7f0e"/>
   </g>
   <g id="patch_39">
    <path d="M -3369.6 766.111409 
L -23.823108 766.111409 
L -23.823108 761.037584 
L -3369.6 761.037584 
z
" clip-path="url(#pda4b35c7fa)" style="fill: #ff7f0e"/>
   </g>
   <g id="patch_40">
    <path d="M -3369.6 740.742282 
L 420.798406 740.742282 
L 420.798406 735.668456 
L -3369.6 735.668456 
z
" clip-path="url(#pda4b35c7fa)" style="fill: #ff7f0e"/>
   </g>
   <g id="patch_41">
    <path d="M -3369.6 715.373154 
L 342.989641 715.373154 
L 342.989641 710.299329 
L -3369.6 710.299329 
z
" clip-path="url(#pda4b35c7fa)" style="fill: #ff7f0e"/>
   </g>
   <g id="patch_42">
    <path d="M -3369.6 690.004027 
L -34.938645 690.004027 
L -34.938645 684.930201 
L -3369.6 684.930201 
z
" clip-path="url(#pda4b35c7fa)" style="fill: #ff7f0e"/>
   </g>
   <g id="patch_43">
    <path d="M -3369.6 664.634899 
L -3369.6 664.634899 
L -3369.6 659.561074 
L -3369.6 659.561074 
z
" clip-path="url(#pda4b35c7fa)" style="fill: #ff7f0e"/>
   </g>
   <g id="patch_44">
    <path d="M -3369.6 639.265772 
L 520.838247 639.265772 
L 520.838247 634.191946 
L -3369.6 634.191946 
z
" clip-path="url(#pda4b35c7fa)" style="fill: #ff7f0e"/>
   </g>
   <g id="patch_45">
    <path d="M -3369.6 613.896644 
L 287.411952 613.896644 
L 287.411952 608.822819 
L -3369.6 608.822819 
z
" clip-path="url(#pda4b35c7fa)" style="fill: #ff7f0e"/>
   </g>
   <g id="patch_46">
    <path d="M -3369.6 588.527517 
L 242.949801 588.527517 
L 242.949801 583.453691 
L -3369.6 583.453691 
z
" clip-path="url(#pda4b35c7fa)" style="fill: #ff7f0e"/>
   </g>
   <g id="patch_47">
    <path d="M -3369.6 563.158389 
L 487.491633 563.158389 
L 487.491633 558.084564 
L -3369.6 558.084564 
z
" clip-path="url(#pda4b35c7fa)" style="fill: #ff7f0e"/>
   </g>
   <g id="patch_48">
    <path d="M -3369.6 537.789262 
L 20.639044 537.789262 
L 20.639044 532.715436 
L -3369.6 532.715436 
z
" clip-path="url(#pda4b35c7fa)" style="fill: #ff7f0e"/>
   </g>
   <g id="patch_49">
    <path d="M -3369.6 512.420134 
L 354.105179 512.420134 
L 354.105179 507.346309 
L -3369.6 507.346309 
z
" clip-path="url(#pda4b35c7fa)" style="fill: #ff7f0e"/>
   </g>
   <g id="patch_50">
    <path d="M -3369.6 487.051007 
L 520.838247 487.051007 
L 520.838247 481.977181 
L -3369.6 481.977181 
z
" clip-path="url(#pda4b35c7fa)" style="fill: #ff7f0e"/>
   </g>
   <g id="patch_51">
    <path d="M -3369.6 461.681879 
L 354.105179 461.681879 
L 354.105179 456.608054 
L -3369.6 456.608054 
z
" clip-path="url(#pda4b35c7fa)" style="fill: #ff7f0e"/>
   </g>
   <g id="patch_52">
    <path d="M -3369.6 436.312752 
L 431.913944 436.312752 
L 431.913944 431.238926 
L -3369.6 431.238926 
z
" clip-path="url(#pda4b35c7fa)" style="fill: #ff7f0e"/>
   </g>
   <g id="patch_53">
    <path d="M -3369.6 410.943624 
L 131.794422 410.943624 
L 131.794422 405.869799 
L -3369.6 405.869799 
z
" clip-path="url(#pda4b35c7fa)" style="fill: #ff7f0e"/>
   </g>
   <g id="patch_54">
    <path d="M -3369.6 385.574497 
L 443.029482 385.574497 
L 443.029482 380.500671 
L -3369.6 380.500671 
z
" clip-path="url(#pda4b35c7fa)" style="fill: #ff7f0e"/>
   </g>
   <g id="patch_55">
    <path d="M -3369.6 360.205369 
L -146.094024 360.205369 
L -146.094024 355.131544 
L -3369.6 355.131544 
z
" clip-path="url(#pda4b35c7fa)" style="fill: #ff7f0e"/>
   </g>
   <g id="patch_56">
    <path d="M -3369.6 334.836242 
L -179.440637 334.836242 
L -179.440637 329.762416 
L -3369.6 329.762416 
z
" clip-path="url(#pda4b35c7fa)" style="fill: #ff7f0e"/>
   </g>
   <g id="patch_57">
    <path d="M -3369.6 309.467114 
L 65.101195 309.467114 
L 65.101195 304.393289 
L -3369.6 304.393289 
z
" clip-path="url(#pda4b35c7fa)" style="fill: #ff7f0e"/>
   </g>
   <g id="patch_58">
    <path d="M -3369.6 284.097987 
L 398.567331 284.097987 
L 398.567331 279.024161 
L -3369.6 279.024161 
z
" clip-path="url(#pda4b35c7fa)" style="fill: #ff7f0e"/>
   </g>
   <g id="patch_59">
    <path d="M -3369.6 258.728859 
L 631.993625 258.728859 
L 631.993625 253.655034 
L -3369.6 253.655034 
z
" clip-path="url(#pda4b35c7fa)" style="fill: #ff7f0e"/>
   </g>
   <g id="patch_60">
    <path d="M -3369.6 233.359732 
L 565.300398 233.359732 
L 565.300398 228.285906 
L -3369.6 228.285906 
z
" clip-path="url(#pda4b35c7fa)" style="fill: #ff7f0e"/>
   </g>
   <g id="patch_61">
    <path d="M -3369.6 207.990604 
L 276.296414 207.990604 
L 276.296414 202.916779 
L -3369.6 202.916779 
z
" clip-path="url(#pda4b35c7fa)" style="fill: #ff7f0e"/>
   </g>
   <g id="patch_62">
    <path d="M -3369.6 182.621477 
L 342.989641 182.621477 
L 342.989641 177.547651 
L -3369.6 177.547651 
z
" clip-path="url(#pda4b35c7fa)" style="fill: #ff7f0e"/>
   </g>
   <g id="patch_63">
    <path d="M -3369.6 913.252349 
L 565.300398 913.252349 
L 565.300398 908.178523 
L -3369.6 908.178523 
z
" clip-path="url(#pda4b35c7fa)" style="fill: #2ca02c"/>
   </g>
   <g id="patch_64">
    <path d="M -3369.6 887.883221 
L 898.766534 887.883221 
L 898.766534 882.809396 
L -3369.6 882.809396 
z
" clip-path="url(#pda4b35c7fa)" style="fill: #2ca02c"/>
   </g>
   <g id="patch_65">
    <path d="M -3369.6 862.514094 
L 398.567331 862.514094 
L 398.567331 857.440268 
L -3369.6 857.440268 
z
" clip-path="url(#pda4b35c7fa)" style="fill: #2ca02c"/>
   </g>
   <g id="patch_66">
    <path d="M -3369.6 837.144966 
L 465.260558 837.144966 
L 465.260558 832.071141 
L -3369.6 832.071141 
z
" clip-path="url(#pda4b35c7fa)" style="fill: #2ca02c"/>
   </g>
   <g id="patch_67">
    <path d="M -3369.6 811.775839 
L 298.52749 811.775839 
L 298.52749 806.702013 
L -3369.6 806.702013 
z
" clip-path="url(#pda4b35c7fa)" style="fill: #2ca02c"/>
   </g>
   <g id="patch_68">
    <path d="M -3369.6 786.406711 
L 531.953785 786.406711 
L 531.953785 781.332886 
L -3369.6 781.332886 
z
" clip-path="url(#pda4b35c7fa)" style="fill: #2ca02c"/>
   </g>
   <g id="patch_69">
    <path d="M -3369.6 761.037584 
L 476.376096 761.037584 
L 476.376096 755.963758 
L -3369.6 755.963758 
z
" clip-path="url(#pda4b35c7fa)" style="fill: #2ca02c"/>
   </g>
   <g id="patch_70">
    <path d="M -3369.6 735.668456 
L 909.882072 735.668456 
L 909.882072 730.594631 
L -3369.6 730.594631 
z
" clip-path="url(#pda4b35c7fa)" style="fill: #2ca02c"/>
   </g>
   <g id="patch_71">
    <path d="M -3369.6 710.299329 
L 698.686853 710.299329 
L 698.686853 705.225503 
L -3369.6 705.225503 
z
" clip-path="url(#pda4b35c7fa)" style="fill: #2ca02c"/>
   </g>
   <g id="patch_72">
    <path d="M -3369.6 684.930201 
L 531.953785 684.930201 
L 531.953785 679.856376 
L -3369.6 679.856376 
z
" clip-path="url(#pda4b35c7fa)" style="fill: #2ca02c"/>
   </g>
   <g id="patch_73">
    <path d="M -3369.6 659.561074 
L 687.571315 659.561074 
L 687.571315 654.487248 
L -3369.6 654.487248 
z
" clip-path="url(#pda4b35c7fa)" style="fill: #2ca02c"/>
   </g>
   <g id="patch_74">
    <path d="M -3369.6 634.191946 
L 565.300398 634.191946 
L 565.300398 629.118121 
L -3369.6 629.118121 
z
" clip-path="url(#pda4b35c7fa)" style="fill: #2ca02c"/>
   </g>
   <g id="patch_75">
    <path d="M -3369.6 608.822819 
L 654.224701 608.822819 
L 654.224701 603.748993 
L -3369.6 603.748993 
z
" clip-path="url(#pda4b35c7fa)" style="fill: #2ca02c"/>
   </g>
   <g id="patch_76">
    <path d="M -3369.6 583.453691 
L 631.993625 583.453691 
L 631.993625 578.379866 
L -3369.6 578.379866 
z
" clip-path="url(#pda4b35c7fa)" style="fill: #2ca02c"/>
   </g>
   <g id="patch_77">
    <path d="M -3369.6 558.084564 
L 854.304382 558.084564 
L 854.304382 553.010738 
L -3369.6 553.010738 
z
" clip-path="url(#pda4b35c7fa)" style="fill: #2ca02c"/>
   </g>
   <g id="patch_78">
    <path d="M -3369.6 532.715436 
L 376.336255 532.715436 
L 376.336255 527.641611 
L -3369.6 527.641611 
z
" clip-path="url(#pda4b35c7fa)" style="fill: #2ca02c"/>
   </g>
   <g id="patch_79">
    <path d="M -3369.6 507.346309 
L 965.459761 507.346309 
L 965.459761 502.272483 
L -3369.6 502.272483 
z
" clip-path="url(#pda4b35c7fa)" style="fill: #2ca02c"/>
   </g>
   <g id="patch_80">
    <path d="M -3369.6 481.977181 
L 409.682869 481.977181 
L 409.682869 476.903356 
L -3369.6 476.903356 
z
" clip-path="url(#pda4b35c7fa)" style="fill: #2ca02c"/>
   </g>
   <g id="patch_81">
    <path d="M -3369.6 456.608054 
L 1032.152988 456.608054 
L 1032.152988 451.534228 
L -3369.6 451.534228 
z
" clip-path="url(#pda4b35c7fa)" style="fill: #2ca02c"/>
   </g>
   <g id="patch_82">
    <path d="M -3369.6 431.238926 
L 843.188845 431.238926 
L 843.188845 426.165101 
L -3369.6 426.165101 
z
" clip-path="url(#pda4b35c7fa)" style="fill: #2ca02c"/>
   </g>
   <g id="patch_83">
    <path d="M -3369.6 405.869799 
L 665.340239 405.869799 
L 665.340239 400.795973 
L -3369.6 400.795973 
z
" clip-path="url(#pda4b35c7fa)" style="fill: #2ca02c"/>
   </g>
   <g id="patch_84">
    <path d="M -3369.6 380.500671 
L 787.611155 380.500671 
L 787.611155 375.426846 
L -3369.6 375.426846 
z
" clip-path="url(#pda4b35c7fa)" style="fill: #2ca02c"/>
   </g>
   <g id="patch_85">
    <path d="M -3369.6 355.131544 
L 454.14502 355.131544 
L 454.14502 350.057718 
L -3369.6 350.057718 
z
" clip-path="url(#pda4b35c7fa)" style="fill: #2ca02c"/>
   </g>
   <g id="patch_86">
    <path d="M -3369.6 329.762416 
L 565.300398 329.762416 
L 565.300398 324.688591 
L -3369.6 324.688591 
z
" clip-path="url(#pda4b35c7fa)" style="fill: #2ca02c"/>
   </g>
   <g id="patch_87">
    <path d="M -3369.6 304.393289 
L 843.188845 304.393289 
L 843.188845 299.319463 
L -3369.6 299.319463 
z
" clip-path="url(#pda4b35c7fa)" style="fill: #2ca02c"/>
   </g>
   <g id="patch_88">
    <path d="M -3369.6 279.024161 
L 765.38008 279.024161 
L 765.38008 273.950336 
L -3369.6 273.950336 
z
" clip-path="url(#pda4b35c7fa)" style="fill: #2ca02c"/>
   </g>
   <g id="patch_89">
    <path d="M -3369.6 253.655034 
L 865.41992 253.655034 
L 865.41992 248.581208 
L -3369.6 248.581208 
z
" clip-path="url(#pda4b35c7fa)" style="fill: #2ca02c"/>
   </g>
   <g id="patch_90">
    <path d="M -3369.6 228.285906 
L 720.917928 228.285906 
L 720.917928 223.212081 
L -3369.6 223.212081 
z
" clip-path="url(#pda4b35c7fa)" style="fill: #2ca02c"/>
   </g>
   <g id="patch_91">
    <path d="M -3369.6 202.916779 
L 776.495618 202.916779 
L 776.495618 197.842953 
L -3369.6 197.842953 
z
" clip-path="url(#pda4b35c7fa)" style="fill: #2ca02c"/>
   </g>
   <g id="patch_92">
    <path d="M -3369.6 177.547651 
L 943.228685 177.547651 
L 943.228685 172.473826 
L -3369.6 172.473826 
z
" clip-path="url(#pda4b35c7fa)" style="fill: #2ca02c"/>
   </g>
   <g id="patch_93">
    <path d="M -3369.6 908.178523 
L 709.80239 908.178523 
L 709.80239 903.104698 
L -3369.6 903.104698 
z
" clip-path="url(#pda4b35c7fa)" style="fill: #d62728"/>
   </g>
   <g id="patch_94">
    <path d="M -3369.6 882.809396 
L 976.575299 882.809396 
L 976.575299 877.73557 
L -3369.6 877.73557 
z
" clip-path="url(#pda4b35c7fa)" style="fill: #d62728"/>
   </g>
   <g id="patch_95">
    <path d="M -3369.6 857.440268 
L 342.989641 857.440268 
L 342.989641 852.366443 
L -3369.6 852.366443 
z
" clip-path="url(#pda4b35c7fa)" style="fill: #d62728"/>
   </g>
   <g id="patch_96">
    <path d="M -3369.6 832.071141 
L 454.14502 832.071141 
L 454.14502 826.997315 
L -3369.6 826.997315 
z
" clip-path="url(#pda4b35c7fa)" style="fill: #d62728"/>
   </g>
   <g id="patch_97">
    <path d="M -3369.6 806.702013 
L 476.376096 806.702013 
L 476.376096 801.628188 
L -3369.6 801.628188 
z
" clip-path="url(#pda4b35c7fa)" style="fill: #d62728"/>
   </g>
   <g id="patch_98">
    <path d="M -3369.6 781.332886 
L 665.340239 781.332886 
L 665.340239 776.25906 
L -3369.6 776.25906 
z
" clip-path="url(#pda4b35c7fa)" style="fill: #d62728"/>
   </g>
   <g id="patch_99">
    <path d="M -3369.6 755.963758 
L 387.451793 755.963758 
L 387.451793 750.889933 
L -3369.6 750.889933 
z
" clip-path="url(#pda4b35c7fa)" style="fill: #d62728"/>
   </g>
   <g id="patch_100">
    <path d="M -3369.6 730.594631 
L 943.228685 730.594631 
L 943.228685 725.520805 
L -3369.6 725.520805 
z
" clip-path="url(#pda4b35c7fa)" style="fill: #d62728"/>
   </g>
   <g id="patch_101">
    <path d="M -3369.6 705.225503 
L 576.415936 705.225503 
L 576.415936 700.151678 
L -3369.6 700.151678 
z
" clip-path="url(#pda4b35c7fa)" style="fill: #d62728"/>
   </g>
   <g id="patch_102">
    <path d="M -3369.6 679.856376 
L 365.220717 679.856376 
L 365.220717 674.78255 
L -3369.6 674.78255 
z
" clip-path="url(#pda4b35c7fa)" style="fill: #d62728"/>
   </g>
   <g id="patch_103">
    <path d="M -3369.6 654.487248 
L -3369.6 654.487248 
L -3369.6 649.413423 
L -3369.6 649.413423 
z
" clip-path="url(#pda4b35c7fa)" style="fill: #d62728"/>
   </g>
   <g id="patch_104">
    <path d="M -3369.6 629.118121 
L 609.76255 629.118121 
L 609.76255 624.044295 
L -3369.6 624.044295 
z
" clip-path="url(#pda4b35c7fa)" style="fill: #d62728"/>
   </g>
   <g id="patch_105">
    <path d="M -3369.6 603.748993 
L 709.80239 603.748993 
L 709.80239 598.675168 
L -3369.6 598.675168 
z
" clip-path="url(#pda4b35c7fa)" style="fill: #d62728"/>
   </g>
   <g id="patch_106">
    <path d="M -3369.6 578.379866 
L 709.80239 578.379866 
L 709.80239 573.30604 
L -3369.6 573.30604 
z
" clip-path="url(#pda4b35c7fa)" style="fill: #d62728"/>
   </g>
   <g id="patch_107">
    <path d="M -3369.6 553.010738 
L 876.535458 553.010738 
L 876.535458 547.936913 
L -3369.6 547.936913 
z
" clip-path="url(#pda4b35c7fa)" style="fill: #d62728"/>
   </g>
   <g id="patch_108">
    <path d="M -3369.6 527.641611 
L 265.180876 527.641611 
L 265.180876 522.567785 
L -3369.6 522.567785 
z
" clip-path="url(#pda4b35c7fa)" style="fill: #d62728"/>
   </g>
   <g id="patch_109">
    <path d="M -3369.6 502.272483 
L 854.304382 502.272483 
L 854.304382 497.198658 
L -3369.6 497.198658 
z
" clip-path="url(#pda4b35c7fa)" style="fill: #d62728"/>
   </g>
   <g id="patch_110">
    <path d="M -3369.6 476.903356 
L 743.149004 476.903356 
L 743.149004 471.82953 
L -3369.6 471.82953 
z
" clip-path="url(#pda4b35c7fa)" style="fill: #d62728"/>
   </g>
   <g id="patch_111">
    <path d="M -3369.6 451.534228 
L 865.41992 451.534228 
L 865.41992 446.460403 
L -3369.6 446.460403 
z
" clip-path="url(#pda4b35c7fa)" style="fill: #d62728"/>
   </g>
   <g id="patch_112">
    <path d="M -3369.6 426.165101 
L 820.957769 426.165101 
L 820.957769 421.091275 
L -3369.6 421.091275 
z
" clip-path="url(#pda4b35c7fa)" style="fill: #d62728"/>
   </g>
   <g id="patch_113">
    <path d="M -3369.6 400.795973 
L 609.76255 400.795973 
L 609.76255 395.722148 
L -3369.6 395.722148 
z
" clip-path="url(#pda4b35c7fa)" style="fill: #d62728"/>
   </g>
   <g id="patch_114">
    <path d="M -3369.6 375.426846 
L 809.842231 375.426846 
L 809.842231 370.35302 
L -3369.6 370.35302 
z
" clip-path="url(#pda4b35c7fa)" style="fill: #d62728"/>
   </g>
   <g id="patch_115">
    <path d="M -3369.6 350.057718 
L 420.798406 350.057718 
L 420.798406 344.983893 
L -3369.6 344.983893 
z
" clip-path="url(#pda4b35c7fa)" style="fill: #d62728"/>
   </g>
   <g id="patch_116">
    <path d="M -3369.6 324.688591 
L 309.643028 324.688591 
L 309.643028 319.614765 
L -3369.6 319.614765 
z
" clip-path="url(#pda4b35c7fa)" style="fill: #d62728"/>
   </g>
   <g id="patch_117">
    <path d="M -3369.6 299.319463 
L 587.531474 299.319463 
L 587.531474 294.245638 
L -3369.6 294.245638 
z
" clip-path="url(#pda4b35c7fa)" style="fill: #d62728"/>
   </g>
   <g id="patch_118">
    <path d="M -3369.6 273.950336 
L 587.531474 273.950336 
L 587.531474 268.87651 
L -3369.6 268.87651 
z
" clip-path="url(#pda4b35c7fa)" style="fill: #d62728"/>
   </g>
   <g id="patch_119">
    <path d="M -3369.6 248.581208 
L 909.882072 248.581208 
L 909.882072 243.507383 
L -3369.6 243.507383 
z
" clip-path="url(#pda4b35c7fa)" style="fill: #d62728"/>
   </g>
   <g id="patch_120">
    <path d="M -3369.6 223.212081 
L 832.073307 223.212081 
L 832.073307 218.138255 
L -3369.6 218.138255 
z
" clip-path="url(#pda4b35c7fa)" style="fill: #d62728"/>
   </g>
   <g id="patch_121">
    <path d="M -3369.6 197.842953 
L 687.571315 197.842953 
L 687.571315 192.769128 
L -3369.6 192.769128 
z
" clip-path="url(#pda4b35c7fa)" style="fill: #d62728"/>
   </g>
   <g id="patch_122">
    <path d="M -3369.6 172.473826 
L 709.80239 172.473826 
L 709.80239 167.4 
L -3369.6 167.4 
z
" clip-path="url(#pda4b35c7fa)" style="fill: #d62728"/>
   </g>
   <g id="matplotlib.axis_1">
    <g id="xtick_1">
     <g id="line2d_1">
      <defs>
       <path id="m8d731dc4ca" d="M 0 0 
L 0 3.5 
" style="stroke: #000000; stroke-width: 0.8"/>
      </defs>
      <g>
       <use xlink:href="#m8d731dc4ca" x="90" y="961.2" style="stroke: #000000; stroke-width: 0.8"/>
      </g>
     </g>
     <g id="text_1">
      <!-- 62.0% -->
      <g transform="translate(74.116406 975.798437) scale(0.1 -0.1)">
       <defs>
        <path id="DejaVuSans-36" d="M 2113 2584 
Q 1688 2584 1439 2293 
Q 1191 2003 1191 1497 
Q 1191 994 1439 701 
Q 1688 409 2113 409 
Q 2538 409 2786 701 
Q 3034 994 3034 1497 
Q 3034 2003 2786 2293 
Q 2538 2584 2113 2584 
z
M 3366 4563 
L 3366 3988 
Q 3128 4100 2886 4159 
Q 2644 4219 2406 4219 
Q 1781 4219 1451 3797 
Q 1122 3375 1075 2522 
Q 1259 2794 1537 2939 
Q 1816 3084 2150 3084 
Q 2853 3084 3261 2657 
Q 3669 2231 3669 1497 
Q 3669 778 3244 343 
Q 2819 -91 2113 -91 
Q 1303 -91 875 529 
Q 447 1150 447 2328 
Q 447 3434 972 4092 
Q 1497 4750 2381 4750 
Q 2619 4750 2861 4703 
Q 3103 4656 3366 4563 
z
" transform="scale(0.015625)"/>
        <path id="DejaVuSans-32" d="M 1228 531 
L 3431 531 
L 3431 0 
L 469 0 
L 469 531 
Q 828 903 1448 1529 
Q 2069 2156 2228 2338 
Q 2531 2678 2651 2914 
Q 2772 3150 2772 3378 
Q 2772 3750 2511 3984 
Q 2250 4219 1831 4219 
Q 1534 4219 1204 4116 
Q 875 4013 500 3803 
L 500 4441 
Q 881 4594 1212 4672 
Q 1544 4750 1819 4750 
Q 2544 4750 2975 4387 
Q 3406 4025 3406 3419 
Q 3406 3131 3298 2873 
Q 3191 2616 2906 2266 
Q 2828 2175 2409 1742 
Q 1991 1309 1228 531 
z
" transform="scale(0.015625)"/>
        <path id="DejaVuSans-2e" d="M 684 794 
L 1344 794 
L 1344 0 
L 684 0 
L 684 794 
z
" transform="scale(0.015625)"/>
        <path id="DejaVuSans-30" d="M 2034 4250 
Q 1547 4250 1301 3770 
Q 1056 3291 1056 2328 
Q 1056 1369 1301 889 
Q 1547 409 2034 409 
Q 2525 409 2770 889 
Q 3016 1369 3016 2328 
Q 3016 3291 2770 3770 
Q 2525 4250 2034 4250 
z
M 2034 4750 
Q 2819 4750 3233 4129 
Q 3647 3509 3647 2328 
Q 3647 1150 3233 529 
Q 2819 -91 2034 -91 
Q 1250 -91 836 529 
Q 422 1150 422 2328 
Q 422 3509 836 4129 
Q 1250 4750 2034 4750 
z
" transform="scale(0.015625)"/>
        <path id="DejaVuSans-25" d="M 4653 2053 
Q 4381 2053 4226 1822 
Q 4072 1591 4072 1178 
Q 4072 772 4226 539 
Q 4381 306 4653 306 
Q 4919 306 5073 539 
Q 5228 772 5228 1178 
Q 5228 1588 5073 1820 
Q 4919 2053 4653 2053 
z
M 4653 2450 
Q 5147 2450 5437 2106 
Q 5728 1763 5728 1178 
Q 5728 594 5436 251 
Q 5144 -91 4653 -91 
Q 4153 -91 3862 251 
Q 3572 594 3572 1178 
Q 3572 1766 3864 2108 
Q 4156 2450 4653 2450 
z
M 1428 4353 
Q 1159 4353 1004 4120 
Q 850 3888 850 3481 
Q 850 3069 1003 2837 
Q 1156 2606 1428 2606 
Q 1700 2606 1854 2837 
Q 2009 3069 2009 3481 
Q 2009 3884 1853 4118 
Q 1697 4353 1428 4353 
z
M 4250 4750 
L 4750 4750 
L 1831 -91 
L 1331 -91 
L 4250 4750 
z
M 1428 4750 
Q 1922 4750 2215 4408 
Q 2509 4066 2509 3481 
Q 2509 2891 2217 2550 
Q 1925 2209 1428 2209 
Q 931 2209 642 2551 
Q 353 2894 353 3481 
Q 353 4063 643 4406 
Q 934 4750 1428 4750 
z
" transform="scale(0.015625)"/>
       </defs>
       <use xlink:href="#DejaVuSans-36"/>
       <use xlink:href="#DejaVuSans-32" transform="translate(63.623047 0)"/>
       <use xlink:href="#DejaVuSans-2e" transform="translate(127.246094 0)"/>
       <use xlink:href="#DejaVuSans-30" transform="translate(159.033203 0)"/>
       <use xlink:href="#DejaVuSans-25" transform="translate(222.65625 0)"/>
      </g>
     </g>
    </g>
    <g id="xtick_2">
     <g id="line2d_2">
      <g>
       <use xlink:href="#m8d731dc4ca" x="201.6" y="961.2" style="stroke: #000000; stroke-width: 0.8"/>
      </g>
     </g>
     <g id="text_2">
      <!-- 64.0% -->
      <g transform="translate(185.716406 975.798437) scale(0.1 -0.1)">
       <defs>
        <path id="DejaVuSans-34" d="M 2419 4116 
L 825 1625 
L 2419 1625 
L 2419 4116 
z
M 2253 4666 
L 3047 4666 
L 3047 1625 
L 3713 1625 
L 3713 1100 
L 3047 1100 
L 3047 0 
L 2419 0 
L 2419 1100 
L 313 1100 
L 313 1709 
L 2253 4666 
z
" transform="scale(0.015625)"/>
       </defs>
       <use xlink:href="#DejaVuSans-36"/>
       <use xlink:href="#DejaVuSans-34" transform="translate(63.623047 0)"/>
       <use xlink:href="#DejaVuSans-2e" transform="translate(127.246094 0)"/>
       <use xlink:href="#DejaVuSans-30" transform="translate(159.033203 0)"/>
       <use xlink:href="#DejaVuSans-25" transform="translate(222.65625 0)"/>
      </g>
     </g>
    </g>
    <g id="xtick_3">
     <g id="line2d_3">
      <g>
       <use xlink:href="#m8d731dc4ca" x="313.2" y="961.2" style="stroke: #000000; stroke-width: 0.8"/>
      </g>
     </g>
     <g id="text_3">
      <!-- 66.0% -->
      <g transform="translate(297.316406 975.798437) scale(0.1 -0.1)">
       <use xlink:href="#DejaVuSans-36"/>
       <use xlink:href="#DejaVuSans-36" transform="translate(63.623047 0)"/>
       <use xlink:href="#DejaVuSans-2e" transform="translate(127.246094 0)"/>
       <use xlink:href="#DejaVuSans-30" transform="translate(159.033203 0)"/>
       <use xlink:href="#DejaVuSans-25" transform="translate(222.65625 0)"/>
      </g>
     </g>
    </g>
    <g id="xtick_4">
     <g id="line2d_4">
      <g>
       <use xlink:href="#m8d731dc4ca" x="424.8" y="961.2" style="stroke: #000000; stroke-width: 0.8"/>
      </g>
     </g>
     <g id="text_4">
      <!-- 68.0% -->
      <g transform="translate(408.916406 975.798437) scale(0.1 -0.1)">
       <defs>
        <path id="DejaVuSans-38" d="M 2034 2216 
Q 1584 2216 1326 1975 
Q 1069 1734 1069 1313 
Q 1069 891 1326 650 
Q 1584 409 2034 409 
Q 2484 409 2743 651 
Q 3003 894 3003 1313 
Q 3003 1734 2745 1975 
Q 2488 2216 2034 2216 
z
M 1403 2484 
Q 997 2584 770 2862 
Q 544 3141 544 3541 
Q 544 4100 942 4425 
Q 1341 4750 2034 4750 
Q 2731 4750 3128 4425 
Q 3525 4100 3525 3541 
Q 3525 3141 3298 2862 
Q 3072 2584 2669 2484 
Q 3125 2378 3379 2068 
Q 3634 1759 3634 1313 
Q 3634 634 3220 271 
Q 2806 -91 2034 -91 
Q 1263 -91 848 271 
Q 434 634 434 1313 
Q 434 1759 690 2068 
Q 947 2378 1403 2484 
z
M 1172 3481 
Q 1172 3119 1398 2916 
Q 1625 2713 2034 2713 
Q 2441 2713 2670 2916 
Q 2900 3119 2900 3481 
Q 2900 3844 2670 4047 
Q 2441 4250 2034 4250 
Q 1625 4250 1398 4047 
Q 1172 3844 1172 3481 
z
" transform="scale(0.015625)"/>
       </defs>
       <use xlink:href="#DejaVuSans-36"/>
       <use xlink:href="#DejaVuSans-38" transform="translate(63.623047 0)"/>
       <use xlink:href="#DejaVuSans-2e" transform="translate(127.246094 0)"/>
       <use xlink:href="#DejaVuSans-30" transform="translate(159.033203 0)"/>
       <use xlink:href="#DejaVuSans-25" transform="translate(222.65625 0)"/>
      </g>
     </g>
    </g>
    <g id="xtick_5">
     <g id="line2d_5">
      <g>
       <use xlink:href="#m8d731dc4ca" x="536.4" y="961.2" style="stroke: #000000; stroke-width: 0.8"/>
      </g>
     </g>
     <g id="text_5">
      <!-- 70.0% -->
      <g transform="translate(520.516406 975.798437) scale(0.1 -0.1)">
       <defs>
        <path id="DejaVuSans-37" d="M 525 4666 
L 3525 4666 
L 3525 4397 
L 1831 0 
L 1172 0 
L 2766 4134 
L 525 4134 
L 525 4666 
z
" transform="scale(0.015625)"/>
       </defs>
       <use xlink:href="#DejaVuSans-37"/>
       <use xlink:href="#DejaVuSans-30" transform="translate(63.623047 0)"/>
       <use xlink:href="#DejaVuSans-2e" transform="translate(127.246094 0)"/>
       <use xlink:href="#DejaVuSans-30" transform="translate(159.033203 0)"/>
       <use xlink:href="#DejaVuSans-25" transform="translate(222.65625 0)"/>
      </g>
     </g>
    </g>
    <g id="xtick_6">
     <g id="line2d_6">
      <g>
       <use xlink:href="#m8d731dc4ca" x="648" y="961.2" style="stroke: #000000; stroke-width: 0.8"/>
      </g>
     </g>
     <g id="text_6">
      <!-- 72.0% -->
      <g transform="translate(632.116406 975.798437) scale(0.1 -0.1)">
       <use xlink:href="#DejaVuSans-37"/>
       <use xlink:href="#DejaVuSans-32" transform="translate(63.623047 0)"/>
       <use xlink:href="#DejaVuSans-2e" transform="translate(127.246094 0)"/>
       <use xlink:href="#DejaVuSans-30" transform="translate(159.033203 0)"/>
       <use xlink:href="#DejaVuSans-25" transform="translate(222.65625 0)"/>
      </g>
     </g>
    </g>
   </g>
   <g id="matplotlib.axis_2">
    <g id="ytick_1">
     <g id="line2d_7">
      <defs>
       <path id="m7007ae4f59" d="M 0 0 
L -3.5 0 
" style="stroke: #000000; stroke-width: 0.8"/>
      </defs>
      <g>
       <use xlink:href="#m7007ae4f59" x="90" y="913.252349" style="stroke: #000000; stroke-width: 0.8"/>
      </g>
     </g>
     <g id="text_7">
      <!-- AAPL -->
      <g transform="translate(57.442188 917.051568) scale(0.1 -0.1)">
       <defs>
        <path id="DejaVuSans-41" d="M 2188 4044 
L 1331 1722 
L 3047 1722 
L 2188 4044 
z
M 1831 4666 
L 2547 4666 
L 4325 0 
L 3669 0 
L 3244 1197 
L 1141 1197 
L 716 0 
L 50 0 
L 1831 4666 
z
" transform="scale(0.015625)"/>
        <path id="DejaVuSans-50" d="M 1259 4147 
L 1259 2394 
L 2053 2394 
Q 2494 2394 2734 2622 
Q 2975 2850 2975 3272 
Q 2975 3691 2734 3919 
Q 2494 4147 2053 4147 
L 1259 4147 
z
M 628 4666 
L 2053 4666 
Q 2838 4666 3239 4311 
Q 3641 3956 3641 3272 
Q 3641 2581 3239 2228 
Q 2838 1875 2053 1875 
L 1259 1875 
L 1259 0 
L 628 0 
L 628 4666 
z
" transform="scale(0.015625)"/>
        <path id="DejaVuSans-4c" d="M 628 4666 
L 1259 4666 
L 1259 531 
L 3531 531 
L 3531 0 
L 628 0 
L 628 4666 
z
" transform="scale(0.015625)"/>
       </defs>
       <use xlink:href="#DejaVuSans-41"/>
       <use xlink:href="#DejaVuSans-41" transform="translate(71.158203 0)"/>
       <use xlink:href="#DejaVuSans-50" transform="translate(139.566406 0)"/>
       <use xlink:href="#DejaVuSans-4c" transform="translate(199.869141 0)"/>
      </g>
     </g>
    </g>
    <g id="ytick_2">
     <g id="line2d_8">
      <g>
       <use xlink:href="#m7007ae4f59" x="90" y="887.883221" style="stroke: #000000; stroke-width: 0.8"/>
      </g>
     </g>
     <g id="text_8">
      <!-- AMGN -->
      <g transform="translate(52.301563 891.68244) scale(0.1 -0.1)">
       <defs>
        <path id="DejaVuSans-4d" d="M 628 4666 
L 1569 4666 
L 2759 1491 
L 3956 4666 
L 4897 4666 
L 4897 0 
L 4281 0 
L 4281 4097 
L 3078 897 
L 2444 897 
L 1241 4097 
L 1241 0 
L 628 0 
L 628 4666 
z
" transform="scale(0.015625)"/>
        <path id="DejaVuSans-47" d="M 3809 666 
L 3809 1919 
L 2778 1919 
L 2778 2438 
L 4434 2438 
L 4434 434 
Q 4069 175 3628 42 
Q 3188 -91 2688 -91 
Q 1594 -91 976 548 
Q 359 1188 359 2328 
Q 359 3472 976 4111 
Q 1594 4750 2688 4750 
Q 3144 4750 3555 4637 
Q 3966 4525 4313 4306 
L 4313 3634 
Q 3963 3931 3569 4081 
Q 3175 4231 2741 4231 
Q 1884 4231 1454 3753 
Q 1025 3275 1025 2328 
Q 1025 1384 1454 906 
Q 1884 428 2741 428 
Q 3075 428 3337 486 
Q 3600 544 3809 666 
z
" transform="scale(0.015625)"/>
        <path id="DejaVuSans-4e" d="M 628 4666 
L 1478 4666 
L 3547 763 
L 3547 4666 
L 4159 4666 
L 4159 0 
L 3309 0 
L 1241 3903 
L 1241 0 
L 628 0 
L 628 4666 
z
" transform="scale(0.015625)"/>
       </defs>
       <use xlink:href="#DejaVuSans-41"/>
       <use xlink:href="#DejaVuSans-4d" transform="translate(68.408203 0)"/>
       <use xlink:href="#DejaVuSans-47" transform="translate(154.6875 0)"/>
       <use xlink:href="#DejaVuSans-4e" transform="translate(232.177734 0)"/>
      </g>
     </g>
    </g>
    <g id="ytick_3">
     <g id="line2d_9">
      <g>
       <use xlink:href="#m7007ae4f59" x="90" y="862.514094" style="stroke: #000000; stroke-width: 0.8"/>
      </g>
     </g>
     <g id="text_9">
      <!-- AMZN -->
      <g transform="translate(53.2 866.313313) scale(0.1 -0.1)">
       <defs>
        <path id="DejaVuSans-5a" d="M 359 4666 
L 4025 4666 
L 4025 4184 
L 1075 531 
L 4097 531 
L 4097 0 
L 288 0 
L 288 481 
L 3238 4134 
L 359 4134 
L 359 4666 
z
" transform="scale(0.015625)"/>
       </defs>
       <use xlink:href="#DejaVuSans-41"/>
       <use xlink:href="#DejaVuSans-4d" transform="translate(68.408203 0)"/>
       <use xlink:href="#DejaVuSans-5a" transform="translate(154.6875 0)"/>
       <use xlink:href="#DejaVuSans-4e" transform="translate(223.193359 0)"/>
      </g>
     </g>
    </g>
    <g id="ytick_4">
     <g id="line2d_10">
      <g>
       <use xlink:href="#m7007ae4f59" x="90" y="837.144966" style="stroke: #000000; stroke-width: 0.8"/>
      </g>
     </g>
     <g id="text_10">
      <!-- AXP -->
      <g transform="translate(63.279687 840.944185) scale(0.1 -0.1)">
       <defs>
        <path id="DejaVuSans-58" d="M 403 4666 
L 1081 4666 
L 2241 2931 
L 3406 4666 
L 4084 4666 
L 2584 2425 
L 4184 0 
L 3506 0 
L 2194 1984 
L 872 0 
L 191 0 
L 1856 2491 
L 403 4666 
z
" transform="scale(0.015625)"/>
       </defs>
       <use xlink:href="#DejaVuSans-41"/>
       <use xlink:href="#DejaVuSans-58" transform="translate(68.408203 0)"/>
       <use xlink:href="#DejaVuSans-50" transform="translate(136.914062 0)"/>
      </g>
     </g>
    </g>
    <g id="ytick_5">
     <g id="line2d_11">
      <g>
       <use xlink:href="#m7007ae4f59" x="90" y="811.775839" style="stroke: #000000; stroke-width: 0.8"/>
      </g>
     </g>
     <g id="text_11">
      <!-- BA -->
      <g transform="translate(69.298438 815.575058) scale(0.1 -0.1)">
       <defs>
        <path id="DejaVuSans-42" d="M 1259 2228 
L 1259 519 
L 2272 519 
Q 2781 519 3026 730 
Q 3272 941 3272 1375 
Q 3272 1813 3026 2020 
Q 2781 2228 2272 2228 
L 1259 2228 
z
M 1259 4147 
L 1259 2741 
L 2194 2741 
Q 2656 2741 2882 2914 
Q 3109 3088 3109 3444 
Q 3109 3797 2882 3972 
Q 2656 4147 2194 4147 
L 1259 4147 
z
M 628 4666 
L 2241 4666 
Q 2963 4666 3353 4366 
Q 3744 4066 3744 3513 
Q 3744 3084 3544 2831 
Q 3344 2578 2956 2516 
Q 3422 2416 3680 2098 
Q 3938 1781 3938 1306 
Q 3938 681 3513 340 
Q 3088 0 2303 0 
L 628 0 
L 628 4666 
z
" transform="scale(0.015625)"/>
       </defs>
       <use xlink:href="#DejaVuSans-42"/>
       <use xlink:href="#DejaVuSans-41" transform="translate(68.603516 0)"/>
      </g>
     </g>
    </g>
    <g id="ytick_6">
     <g id="line2d_12">
      <g>
       <use xlink:href="#m7007ae4f59" x="90" y="786.406711" style="stroke: #000000; stroke-width: 0.8"/>
      </g>
     </g>
     <g id="text_12">
      <!-- CAT -->
      <g transform="translate(63.84375 790.20593) scale(0.1 -0.1)">
       <defs>
        <path id="DejaVuSans-43" d="M 4122 4306 
L 4122 3641 
Q 3803 3938 3442 4084 
Q 3081 4231 2675 4231 
Q 1875 4231 1450 3742 
Q 1025 3253 1025 2328 
Q 1025 1406 1450 917 
Q 1875 428 2675 428 
Q 3081 428 3442 575 
Q 3803 722 4122 1019 
L 4122 359 
Q 3791 134 3420 21 
Q 3050 -91 2638 -91 
Q 1578 -91 968 557 
Q 359 1206 359 2328 
Q 359 3453 968 4101 
Q 1578 4750 2638 4750 
Q 3056 4750 3426 4639 
Q 3797 4528 4122 4306 
z
" transform="scale(0.015625)"/>
        <path id="DejaVuSans-54" d="M -19 4666 
L 3928 4666 
L 3928 4134 
L 2272 4134 
L 2272 0 
L 1638 0 
L 1638 4134 
L -19 4134 
L -19 4666 
z
" transform="scale(0.015625)"/>
       </defs>
       <use xlink:href="#DejaVuSans-43"/>
       <use xlink:href="#DejaVuSans-41" transform="translate(69.824219 0)"/>
       <use xlink:href="#DejaVuSans-54" transform="translate(130.482422 0)"/>
      </g>
     </g>
    </g>
    <g id="ytick_7">
     <g id="line2d_13">
      <g>
       <use xlink:href="#m7007ae4f59" x="90" y="761.037584" style="stroke: #000000; stroke-width: 0.8"/>
      </g>
     </g>
     <g id="text_13">
      <!-- CRM -->
      <g transform="translate(60.440625 764.836803) scale(0.1 -0.1)">
       <defs>
        <path id="DejaVuSans-52" d="M 2841 2188 
Q 3044 2119 3236 1894 
Q 3428 1669 3622 1275 
L 4263 0 
L 3584 0 
L 2988 1197 
Q 2756 1666 2539 1819 
Q 2322 1972 1947 1972 
L 1259 1972 
L 1259 0 
L 628 0 
L 628 4666 
L 2053 4666 
Q 2853 4666 3247 4331 
Q 3641 3997 3641 3322 
Q 3641 2881 3436 2590 
Q 3231 2300 2841 2188 
z
M 1259 4147 
L 1259 2491 
L 2053 2491 
Q 2509 2491 2742 2702 
Q 2975 2913 2975 3322 
Q 2975 3731 2742 3939 
Q 2509 4147 2053 4147 
L 1259 4147 
z
" transform="scale(0.015625)"/>
       </defs>
       <use xlink:href="#DejaVuSans-43"/>
       <use xlink:href="#DejaVuSans-52" transform="translate(69.824219 0)"/>
       <use xlink:href="#DejaVuSans-4d" transform="translate(139.306641 0)"/>
      </g>
     </g>
    </g>
    <g id="ytick_8">
     <g id="line2d_14">
      <g>
       <use xlink:href="#m7007ae4f59" x="90" y="735.668456" style="stroke: #000000; stroke-width: 0.8"/>
      </g>
     </g>
     <g id="text_14">
      <!-- CSCO -->
      <g transform="translate(54.814062 739.467675) scale(0.1 -0.1)">
       <defs>
        <path id="DejaVuSans-53" d="M 3425 4513 
L 3425 3897 
Q 3066 4069 2747 4153 
Q 2428 4238 2131 4238 
Q 1616 4238 1336 4038 
Q 1056 3838 1056 3469 
Q 1056 3159 1242 3001 
Q 1428 2844 1947 2747 
L 2328 2669 
Q 3034 2534 3370 2195 
Q 3706 1856 3706 1288 
Q 3706 609 3251 259 
Q 2797 -91 1919 -91 
Q 1588 -91 1214 -16 
Q 841 59 441 206 
L 441 856 
Q 825 641 1194 531 
Q 1563 422 1919 422 
Q 2459 422 2753 634 
Q 3047 847 3047 1241 
Q 3047 1584 2836 1778 
Q 2625 1972 2144 2069 
L 1759 2144 
Q 1053 2284 737 2584 
Q 422 2884 422 3419 
Q 422 4038 858 4394 
Q 1294 4750 2059 4750 
Q 2388 4750 2728 4690 
Q 3069 4631 3425 4513 
z
" transform="scale(0.015625)"/>
        <path id="DejaVuSans-4f" d="M 2522 4238 
Q 1834 4238 1429 3725 
Q 1025 3213 1025 2328 
Q 1025 1447 1429 934 
Q 1834 422 2522 422 
Q 3209 422 3611 934 
Q 4013 1447 4013 2328 
Q 4013 3213 3611 3725 
Q 3209 4238 2522 4238 
z
M 2522 4750 
Q 3503 4750 4090 4092 
Q 4678 3434 4678 2328 
Q 4678 1225 4090 567 
Q 3503 -91 2522 -91 
Q 1538 -91 948 565 
Q 359 1222 359 2328 
Q 359 3434 948 4092 
Q 1538 4750 2522 4750 
z
" transform="scale(0.015625)"/>
       </defs>
       <use xlink:href="#DejaVuSans-43"/>
       <use xlink:href="#DejaVuSans-53" transform="translate(69.824219 0)"/>
       <use xlink:href="#DejaVuSans-43" transform="translate(133.300781 0)"/>
       <use xlink:href="#DejaVuSans-4f" transform="translate(203.125 0)"/>
      </g>
     </g>
    </g>
    <g id="ytick_9">
     <g id="line2d_15">
      <g>
       <use xlink:href="#m7007ae4f59" x="90" y="710.299329" style="stroke: #000000; stroke-width: 0.8"/>
      </g>
     </g>
     <g id="text_15">
      <!-- CVX -->
      <g transform="translate(62.326562 714.098548) scale(0.1 -0.1)">
       <defs>
        <path id="DejaVuSans-56" d="M 1831 0 
L 50 4666 
L 709 4666 
L 2188 738 
L 3669 4666 
L 4325 4666 
L 2547 0 
L 1831 0 
z
" transform="scale(0.015625)"/>
       </defs>
       <use xlink:href="#DejaVuSans-43"/>
       <use xlink:href="#DejaVuSans-56" transform="translate(69.824219 0)"/>
       <use xlink:href="#DejaVuSans-58" transform="translate(138.232422 0)"/>
      </g>
     </g>
    </g>
    <g id="ytick_10">
     <g id="line2d_16">
      <g>
       <use xlink:href="#m7007ae4f59" x="90" y="684.930201" style="stroke: #000000; stroke-width: 0.8"/>
      </g>
     </g>
     <g id="text_16">
      <!-- DIS -->
      <g transform="translate(66.001563 688.72942) scale(0.1 -0.1)">
       <defs>
        <path id="DejaVuSans-44" d="M 1259 4147 
L 1259 519 
L 2022 519 
Q 2988 519 3436 956 
Q 3884 1394 3884 2338 
Q 3884 3275 3436 3711 
Q 2988 4147 2022 4147 
L 1259 4147 
z
M 628 4666 
L 1925 4666 
Q 3281 4666 3915 4102 
Q 4550 3538 4550 2338 
Q 4550 1131 3912 565 
Q 3275 0 1925 0 
L 628 0 
L 628 4666 
z
" transform="scale(0.015625)"/>
        <path id="DejaVuSans-49" d="M 628 4666 
L 1259 4666 
L 1259 0 
L 628 0 
L 628 4666 
z
" transform="scale(0.015625)"/>
       </defs>
       <use xlink:href="#DejaVuSans-44"/>
       <use xlink:href="#DejaVuSans-49" transform="translate(77.001953 0)"/>
       <use xlink:href="#DejaVuSans-53" transform="translate(106.494141 0)"/>
      </g>
     </g>
    </g>
    <g id="ytick_11">
     <g id="line2d_17">
      <g>
       <use xlink:href="#m7007ae4f59" x="90" y="659.561074" style="stroke: #000000; stroke-width: 0.8"/>
      </g>
     </g>
     <g id="text_17">
      <!-- DOW -->
      <g transform="translate(57.540625 663.360293) scale(0.1 -0.1)">
       <defs>
        <path id="DejaVuSans-57" d="M 213 4666 
L 850 4666 
L 1831 722 
L 2809 4666 
L 3519 4666 
L 4500 722 
L 5478 4666 
L 6119 4666 
L 4947 0 
L 4153 0 
L 3169 4050 
L 2175 0 
L 1381 0 
L 213 4666 
z
" transform="scale(0.015625)"/>
       </defs>
       <use xlink:href="#DejaVuSans-44"/>
       <use xlink:href="#DejaVuSans-4f" transform="translate(77.001953 0)"/>
       <use xlink:href="#DejaVuSans-57" transform="translate(155.712891 0)"/>
      </g>
     </g>
    </g>
    <g id="ytick_12">
     <g id="line2d_18">
      <g>
       <use xlink:href="#m7007ae4f59" x="90" y="634.191946" style="stroke: #000000; stroke-width: 0.8"/>
      </g>
     </g>
     <g id="text_18">
      <!-- GS -->
      <g transform="translate(68.903125 637.991165) scale(0.1 -0.1)">
       <use xlink:href="#DejaVuSans-47"/>
       <use xlink:href="#DejaVuSans-53" transform="translate(77.490234 0)"/>
      </g>
     </g>
    </g>
    <g id="ytick_13">
     <g id="line2d_19">
      <g>
       <use xlink:href="#m7007ae4f59" x="90" y="608.822819" style="stroke: #000000; stroke-width: 0.8"/>
      </g>
     </g>
     <g id="text_19">
      <!-- HD -->
      <g transform="translate(67.779687 612.622038) scale(0.1 -0.1)">
       <defs>
        <path id="DejaVuSans-48" d="M 628 4666 
L 1259 4666 
L 1259 2753 
L 3553 2753 
L 3553 4666 
L 4184 4666 
L 4184 0 
L 3553 0 
L 3553 2222 
L 1259 2222 
L 1259 0 
L 628 0 
L 628 4666 
z
" transform="scale(0.015625)"/>
       </defs>
       <use xlink:href="#DejaVuSans-48"/>
       <use xlink:href="#DejaVuSans-44" transform="translate(75.195312 0)"/>
      </g>
     </g>
    </g>
    <g id="ytick_14">
     <g id="line2d_20">
      <g>
       <use xlink:href="#m7007ae4f59" x="90" y="583.453691" style="stroke: #000000; stroke-width: 0.8"/>
      </g>
     </g>
     <g id="text_20">
      <!-- HON -->
      <g transform="translate(60.126562 587.25291) scale(0.1 -0.1)">
       <use xlink:href="#DejaVuSans-48"/>
       <use xlink:href="#DejaVuSans-4f" transform="translate(75.195312 0)"/>
       <use xlink:href="#DejaVuSans-4e" transform="translate(153.90625 0)"/>
      </g>
     </g>
    </g>
    <g id="ytick_15">
     <g id="line2d_21">
      <g>
       <use xlink:href="#m7007ae4f59" x="90" y="558.084564" style="stroke: #000000; stroke-width: 0.8"/>
      </g>
     </g>
     <g id="text_21">
      <!-- IBM -->
      <g transform="translate(64.560937 561.883783) scale(0.1 -0.1)">
       <use xlink:href="#DejaVuSans-49"/>
       <use xlink:href="#DejaVuSans-42" transform="translate(29.492188 0)"/>
       <use xlink:href="#DejaVuSans-4d" transform="translate(98.095703 0)"/>
      </g>
     </g>
    </g>
    <g id="ytick_16">
     <g id="line2d_22">
      <g>
       <use xlink:href="#m7007ae4f59" x="90" y="532.715436" style="stroke: #000000; stroke-width: 0.8"/>
      </g>
     </g>
     <g id="text_22">
      <!-- INTC -->
      <g transform="translate(60.065625 536.514655) scale(0.1 -0.1)">
       <use xlink:href="#DejaVuSans-49"/>
       <use xlink:href="#DejaVuSans-4e" transform="translate(29.492188 0)"/>
       <use xlink:href="#DejaVuSans-54" transform="translate(104.296875 0)"/>
       <use xlink:href="#DejaVuSans-43" transform="translate(159.505859 0)"/>
      </g>
     </g>
    </g>
    <g id="ytick_17">
     <g id="line2d_23">
      <g>
       <use xlink:href="#m7007ae4f59" x="90" y="507.346309" style="stroke: #000000; stroke-width: 0.8"/>
      </g>
     </g>
     <g id="text_23">
      <!-- JNJ -->
      <g transform="translate(69.61875 511.145527) scale(0.1 -0.1)">
       <defs>
        <path id="DejaVuSans-4a" d="M 628 4666 
L 1259 4666 
L 1259 325 
Q 1259 -519 939 -900 
Q 619 -1281 -91 -1281 
L -331 -1281 
L -331 -750 
L -134 -750 
Q 284 -750 456 -515 
Q 628 -281 628 325 
L 628 4666 
z
" transform="scale(0.015625)"/>
       </defs>
       <use xlink:href="#DejaVuSans-4a"/>
       <use xlink:href="#DejaVuSans-4e" transform="translate(29.492188 0)"/>
       <use xlink:href="#DejaVuSans-4a" transform="translate(104.296875 0)"/>
      </g>
     </g>
    </g>
    <g id="ytick_18">
     <g id="line2d_24">
      <g>
       <use xlink:href="#m7007ae4f59" x="90" y="481.977181" style="stroke: #000000; stroke-width: 0.8"/>
      </g>
     </g>
     <g id="text_24">
      <!-- JPM -->
      <g transform="translate(65.392188 485.7764) scale(0.1 -0.1)">
       <use xlink:href="#DejaVuSans-4a"/>
       <use xlink:href="#DejaVuSans-50" transform="translate(29.492188 0)"/>
       <use xlink:href="#DejaVuSans-4d" transform="translate(89.794922 0)"/>
      </g>
     </g>
    </g>
    <g id="ytick_19">
     <g id="line2d_25">
      <g>
       <use xlink:href="#m7007ae4f59" x="90" y="456.608054" style="stroke: #000000; stroke-width: 0.8"/>
      </g>
     </g>
     <g id="text_25">
      <!-- KO -->
      <g transform="translate(69.120312 460.407272) scale(0.1 -0.1)">
       <defs>
        <path id="DejaVuSans-4b" d="M 628 4666 
L 1259 4666 
L 1259 2694 
L 3353 4666 
L 4166 4666 
L 1850 2491 
L 4331 0 
L 3500 0 
L 1259 2247 
L 1259 0 
L 628 0 
L 628 4666 
z
" transform="scale(0.015625)"/>
       </defs>
       <use xlink:href="#DejaVuSans-4b"/>
       <use xlink:href="#DejaVuSans-4f" transform="translate(60.076172 0)"/>
      </g>
     </g>
    </g>
    <g id="ytick_20">
     <g id="line2d_26">
      <g>
       <use xlink:href="#m7007ae4f59" x="90" y="431.238926" style="stroke: #000000; stroke-width: 0.8"/>
      </g>
     </g>
     <g id="text_26">
      <!-- MCD -->
      <g transform="translate(59.689062 435.038145) scale(0.1 -0.1)">
       <use xlink:href="#DejaVuSans-4d"/>
       <use xlink:href="#DejaVuSans-43" transform="translate(86.279297 0)"/>
       <use xlink:href="#DejaVuSans-44" transform="translate(156.103516 0)"/>
      </g>
     </g>
    </g>
    <g id="ytick_21">
     <g id="line2d_27">
      <g>
       <use xlink:href="#m7007ae4f59" x="90" y="405.869799" style="stroke: #000000; stroke-width: 0.8"/>
      </g>
     </g>
     <g id="text_27">
      <!-- MMM -->
      <g transform="translate(57.115625 409.669017) scale(0.1 -0.1)">
       <use xlink:href="#DejaVuSans-4d"/>
       <use xlink:href="#DejaVuSans-4d" transform="translate(86.279297 0)"/>
       <use xlink:href="#DejaVuSans-4d" transform="translate(172.558594 0)"/>
      </g>
     </g>
    </g>
    <g id="ytick_22">
     <g id="line2d_28">
      <g>
       <use xlink:href="#m7007ae4f59" x="90" y="380.500671" style="stroke: #000000; stroke-width: 0.8"/>
      </g>
     </g>
     <g id="text_28">
      <!-- MRK -->
      <g transform="translate(60.865625 384.29989) scale(0.1 -0.1)">
       <use xlink:href="#DejaVuSans-4d"/>
       <use xlink:href="#DejaVuSans-52" transform="translate(86.279297 0)"/>
       <use xlink:href="#DejaVuSans-4b" transform="translate(155.761719 0)"/>
      </g>
     </g>
    </g>
    <g id="ytick_23">
     <g id="line2d_29">
      <g>
       <use xlink:href="#m7007ae4f59" x="90" y="355.131544" style="stroke: #000000; stroke-width: 0.8"/>
      </g>
     </g>
     <g id="text_29">
      <!-- MSFT -->
      <g transform="translate(56.339062 358.930762) scale(0.1 -0.1)">
       <defs>
        <path id="DejaVuSans-46" d="M 628 4666 
L 3309 4666 
L 3309 4134 
L 1259 4134 
L 1259 2759 
L 3109 2759 
L 3109 2228 
L 1259 2228 
L 1259 0 
L 628 0 
L 628 4666 
z
" transform="scale(0.015625)"/>
       </defs>
       <use xlink:href="#DejaVuSans-4d"/>
       <use xlink:href="#DejaVuSans-53" transform="translate(86.279297 0)"/>
       <use xlink:href="#DejaVuSans-46" transform="translate(149.755859 0)"/>
       <use xlink:href="#DejaVuSans-54" transform="translate(205.525391 0)"/>
      </g>
     </g>
    </g>
    <g id="ytick_24">
     <g id="line2d_30">
      <g>
       <use xlink:href="#m7007ae4f59" x="90" y="329.762416" style="stroke: #000000; stroke-width: 0.8"/>
      </g>
     </g>
     <g id="text_30">
      <!-- NKE -->
      <g transform="translate(62.642187 333.561635) scale(0.1 -0.1)">
       <defs>
        <path id="DejaVuSans-45" d="M 628 4666 
L 3578 4666 
L 3578 4134 
L 1259 4134 
L 1259 2753 
L 3481 2753 
L 3481 2222 
L 1259 2222 
L 1259 531 
L 3634 531 
L 3634 0 
L 628 0 
L 628 4666 
z
" transform="scale(0.015625)"/>
       </defs>
       <use xlink:href="#DejaVuSans-4e"/>
       <use xlink:href="#DejaVuSans-4b" transform="translate(74.804688 0)"/>
       <use xlink:href="#DejaVuSans-45" transform="translate(140.380859 0)"/>
      </g>
     </g>
    </g>
    <g id="ytick_25">
     <g id="line2d_31">
      <g>
       <use xlink:href="#m7007ae4f59" x="90" y="304.393289" style="stroke: #000000; stroke-width: 0.8"/>
      </g>
     </g>
     <g id="text_31">
      <!-- PG -->
      <g transform="translate(69.221875 308.192507) scale(0.1 -0.1)">
       <use xlink:href="#DejaVuSans-50"/>
       <use xlink:href="#DejaVuSans-47" transform="translate(60.302734 0)"/>
      </g>
     </g>
    </g>
    <g id="ytick_26">
     <g id="line2d_32">
      <g>
       <use xlink:href="#m7007ae4f59" x="90" y="279.024161" style="stroke: #000000; stroke-width: 0.8"/>
      </g>
     </g>
     <g id="text_32">
      <!-- TRV -->
      <g transform="translate(63.653125 282.82338) scale(0.1 -0.1)">
       <use xlink:href="#DejaVuSans-54"/>
       <use xlink:href="#DejaVuSans-52" transform="translate(61.083984 0)"/>
       <use xlink:href="#DejaVuSans-56" transform="translate(125.066406 0)"/>
      </g>
     </g>
    </g>
    <g id="ytick_27">
     <g id="line2d_33">
      <g>
       <use xlink:href="#m7007ae4f59" x="90" y="253.655034" style="stroke: #000000; stroke-width: 0.8"/>
      </g>
     </g>
     <g id="text_33">
      <!-- UNH -->
      <g transform="translate(60.679688 257.454252) scale(0.1 -0.1)">
       <defs>
        <path id="DejaVuSans-55" d="M 556 4666 
L 1191 4666 
L 1191 1831 
Q 1191 1081 1462 751 
Q 1734 422 2344 422 
Q 2950 422 3222 751 
Q 3494 1081 3494 1831 
L 3494 4666 
L 4128 4666 
L 4128 1753 
Q 4128 841 3676 375 
Q 3225 -91 2344 -91 
Q 1459 -91 1007 375 
Q 556 841 556 1753 
L 556 4666 
z
" transform="scale(0.015625)"/>
       </defs>
       <use xlink:href="#DejaVuSans-55"/>
       <use xlink:href="#DejaVuSans-4e" transform="translate(73.193359 0)"/>
       <use xlink:href="#DejaVuSans-48" transform="translate(147.998047 0)"/>
      </g>
     </g>
    </g>
    <g id="ytick_28">
     <g id="line2d_34">
      <g>
       <use xlink:href="#m7007ae4f59" x="90" y="228.285906" style="stroke: #000000; stroke-width: 0.8"/>
      </g>
     </g>
     <g id="text_34">
      <!-- V -->
      <g transform="translate(76.159375 232.085125) scale(0.1 -0.1)">
       <use xlink:href="#DejaVuSans-56"/>
      </g>
     </g>
    </g>
    <g id="ytick_29">
     <g id="line2d_35">
      <g>
       <use xlink:href="#m7007ae4f59" x="90" y="202.916779" style="stroke: #000000; stroke-width: 0.8"/>
      </g>
     </g>
     <g id="text_35">
      <!-- VZ -->
      <g transform="translate(69.309375 206.715997) scale(0.1 -0.1)">
       <use xlink:href="#DejaVuSans-56"/>
       <use xlink:href="#DejaVuSans-5a" transform="translate(68.408203 0)"/>
      </g>
     </g>
    </g>
    <g id="ytick_30">
     <g id="line2d_36">
      <g>
       <use xlink:href="#m7007ae4f59" x="90" y="177.547651" style="stroke: #000000; stroke-width: 0.8"/>
      </g>
     </g>
     <g id="text_36">
      <!-- WMT -->
      <g transform="translate(58.376562 181.34687) scale(0.1 -0.1)">
       <use xlink:href="#DejaVuSans-57"/>
       <use xlink:href="#DejaVuSans-4d" transform="translate(98.876953 0)"/>
       <use xlink:href="#DejaVuSans-54" transform="translate(185.15625 0)"/>
      </g>
     </g>
    </g>
   </g>
   <g id="line2d_37">
    <path d="M 369 961.2 
L 369 129.6 
" clip-path="url(#pda4b35c7fa)" style="fill: none; stroke-dasharray: 5.55,2.4; stroke-dashoffset: 0; stroke: #000000; stroke-width: 1.5"/>
   </g>
   <g id="patch_123">
    <path d="M 90 961.2 
L 90 129.6 
" style="fill: none; stroke: #000000; stroke-width: 0.8; stroke-linejoin: miter; stroke-linecap: square"/>
   </g>
   <g id="patch_124">
    <path d="M 648 961.2 
L 648 129.6 
" style="fill: none; stroke: #000000; stroke-width: 0.8; stroke-linejoin: miter; stroke-linecap: square"/>
   </g>
   <g id="patch_125">
    <path d="M 90 961.2 
L 648 961.2 
" style="fill: none; stroke: #000000; stroke-width: 0.8; stroke-linejoin: miter; stroke-linecap: square"/>
   </g>
   <g id="patch_126">
    <path d="M 90 129.6 
L 648 129.6 
" style="fill: none; stroke: #000000; stroke-width: 0.8; stroke-linejoin: miter; stroke-linecap: square"/>
   </g>
   <g id="text_37">
    <!--  -->
    <g style="fill: #ffffff" transform="translate(476.331633 847.51508) scale(0.1 -0.1)">
     <defs>
      <path id="DejaVuSans-2713" d="M 1416 2044 
Q 1538 2044 1600 1844 
Q 1725 1469 1778 1469 
Q 1819 1469 1863 1531 
Q 2741 2938 3488 3806 
Q 3681 4031 4103 4031 
Q 4203 4031 4237 4012 
Q 4272 3994 4272 3966 
Q 4272 3922 4169 3794 
Q 2963 2344 1931 731 
Q 1859 619 1638 619 
Q 1413 619 1372 638 
Q 1266 684 1122 1116 
Q 959 1594 959 1716 
Q 959 1847 1178 1969 
Q 1313 2044 1416 2044 
z
" transform="scale(0.015625)"/>
     </defs>
     <use xlink:href="#DejaVuSans-2713"/>
    </g>
   </g>
   <g id="text_38">
    <!--  -->
    <g style="fill: #ffffff" transform="translate(620.833625 822.145952) scale(0.1 -0.1)">
     <defs>
      <path id="DejaVuSans-2717" d="M 3975 4688 
Q 4006 4688 4056 4638 
Q 4109 4588 4166 4506 
Q 4256 4666 4309 4666 
Q 4356 4666 4438 4581 
Q 4488 4528 4488 4463 
Q 4488 4378 4419 4306 
Q 3769 3600 3156 2753 
Q 3409 2134 3856 1388 
Q 3894 1325 3894 1288 
Q 3894 1216 3800 1138 
L 3700 1069 
Q 3713 1031 3713 969 
Q 3713 875 3644 825 
Q 3563 769 3525 769 
Q 3444 769 3381 850 
Q 3006 1331 2606 1981 
Q 2069 1281 1375 113 
Q 1275 -56 1038 -56 
Q 925 -56 913 75 
Q 753 163 753 353 
Q 753 603 788 700 
Q 803 744 888 875 
Q 1525 1869 2238 2700 
Q 1856 3606 1731 4097 
Q 1703 4206 1703 4238 
Q 1703 4281 1759 4363 
Q 1819 4444 1869 4444 
Q 1916 4444 1988 4353 
Q 2016 4406 2056 4444 
Q 2113 4494 2200 4494 
Q 2300 4494 2331 4400 
Q 2500 3875 2775 3400 
Q 3219 3975 3856 4613 
Q 3931 4688 3975 4688 
z
" transform="scale(0.015625)"/>
     </defs>
     <use xlink:href="#DejaVuSans-2717"/>
    </g>
   </g>
   <g id="text_39">
    <!--  -->
    <g style="fill: #ffffff" transform="translate(554.140398 720.669442) scale(0.1 -0.1)">
     <use xlink:href="#DejaVuSans-2713"/>
    </g>
   </g>
   <g id="text_40">
    <!--  -->
    <g style="fill: #ffffff" transform="translate(531.909323 695.300315) scale(0.1 -0.1)">
     <use xlink:href="#DejaVuSans-2713"/>
    </g>
   </g>
   <g id="text_41">
    <!--  -->
    <g style="fill: #ffffff" transform="translate(631.949163 644.56206) scale(0.1 -0.1)">
     <use xlink:href="#DejaVuSans-2717"/>
    </g>
   </g>
   <g id="text_42">
    <!--  -->
    <g style="fill: #ffffff" transform="translate(576.371474 543.085549) scale(0.1 -0.1)">
     <use xlink:href="#DejaVuSans-2713"/>
    </g>
   </g>
   <g id="text_43">
    <!--  -->
    <g style="fill: #ffffff" transform="translate(609.718088 416.239912) scale(0.1 -0.1)">
     <use xlink:href="#DejaVuSans-2717"/>
    </g>
   </g>
   <g id="text_44">
    <!--  -->
    <g style="fill: #ffffff" transform="translate(487.447171 365.501657) scale(0.1 -0.1)">
     <use xlink:href="#DejaVuSans-2713"/>
    </g>
   </g>
   <g id="text_45">
    <!--  -->
    <g style="fill: #ffffff" transform="translate(565.255936 289.394274) scale(0.1 -0.1)">
     <use xlink:href="#DejaVuSans-2713"/>
    </g>
   </g>
   <g id="text_46">
    <!--  -->
    <g style="fill: #ffffff" transform="translate(442.98502 918.548637) scale(0.1 -0.1)">
     <use xlink:href="#DejaVuSans-2713"/>
    </g>
   </g>
   <g id="text_47">
    <!--  -->
    <g style="fill: #ffffff" transform="translate(98.403347 842.441254) scale(0.1 -0.1)">
     <use xlink:href="#DejaVuSans-2717"/>
    </g>
   </g>
   <g id="text_48">
    <!--  -->
    <g style="fill: #ffffff" transform="translate(309.598566 817.072127) scale(0.1 -0.1)">
     <use xlink:href="#DejaVuSans-2713"/>
    </g>
   </g>
   <g id="text_49">
    <!--  -->
    <g style="fill: #ffffff" transform="translate(465.216096 791.702999) scale(0.1 -0.1)">
     <use xlink:href="#DejaVuSans-2713"/>
    </g>
   </g>
   <g id="text_50">
    <!--  -->
    <g style="fill: #ffffff" transform="translate(409.638406 740.964744) scale(0.1 -0.1)">
     <use xlink:href="#DejaVuSans-2713"/>
    </g>
   </g>
   <g id="text_51">
    <!--  -->
    <g style="fill: #ffffff" transform="translate(331.829641 715.595617) scale(0.1 -0.1)">
     <use xlink:href="#DejaVuSans-2713"/>
    </g>
   </g>
   <g id="text_52">
    <!--  -->
    <g style="fill: #ffffff" transform="translate(509.678247 639.488234) scale(0.1 -0.1)">
     <use xlink:href="#DejaVuSans-2713"/>
    </g>
   </g>
   <g id="text_53">
    <!--  -->
    <g style="fill: #ffffff" transform="translate(276.251952 614.119107) scale(0.1 -0.1)">
     <use xlink:href="#DejaVuSans-2713"/>
    </g>
   </g>
   <g id="text_54">
    <!--  -->
    <g style="fill: #ffffff" transform="translate(231.789801 588.749979) scale(0.1 -0.1)">
     <use xlink:href="#DejaVuSans-2713"/>
    </g>
   </g>
   <g id="text_55">
    <!--  -->
    <g style="fill: #ffffff" transform="translate(476.331633 563.380852) scale(0.1 -0.1)">
     <use xlink:href="#DejaVuSans-2713"/>
    </g>
   </g>
   <g id="text_56">
    <!--  -->
    <g style="fill: #ffffff" transform="translate(342.945179 512.642596) scale(0.1 -0.1)">
     <use xlink:href="#DejaVuSans-2713"/>
    </g>
   </g>
   <g id="text_57">
    <!--  -->
    <g style="fill: #ffffff" transform="translate(509.678247 487.273469) scale(0.1 -0.1)">
     <use xlink:href="#DejaVuSans-2713"/>
    </g>
   </g>
   <g id="text_58">
    <!--  -->
    <g style="fill: #ffffff" transform="translate(342.945179 461.904341) scale(0.1 -0.1)">
     <use xlink:href="#DejaVuSans-2713"/>
    </g>
   </g>
   <g id="text_59">
    <!--  -->
    <g style="fill: #ffffff" transform="translate(420.753944 436.535214) scale(0.1 -0.1)">
     <use xlink:href="#DejaVuSans-2713"/>
    </g>
   </g>
   <g id="text_60">
    <!--  -->
    <g style="fill: #ffffff" transform="translate(120.634422 411.166086) scale(0.1 -0.1)">
     <use xlink:href="#DejaVuSans-2717"/>
    </g>
   </g>
   <g id="text_61">
    <!--  -->
    <g style="fill: #ffffff" transform="translate(431.869482 385.796959) scale(0.1 -0.1)">
     <use xlink:href="#DejaVuSans-2713"/>
    </g>
   </g>
   <g id="text_62">
    <!--  -->
    <g style="fill: #ffffff" transform="translate(387.407331 284.320449) scale(0.1 -0.1)">
     <use xlink:href="#DejaVuSans-2713"/>
    </g>
   </g>
   <g id="text_63">
    <!--  -->
    <g style="fill: #ffffff" transform="translate(620.833625 258.951321) scale(0.1 -0.1)">
     <use xlink:href="#DejaVuSans-2717"/>
    </g>
   </g>
   <g id="text_64">
    <!--  -->
    <g style="fill: #ffffff" transform="translate(554.140398 233.582194) scale(0.1 -0.1)">
     <use xlink:href="#DejaVuSans-2713"/>
    </g>
   </g>
   <g id="text_65">
    <!--  -->
    <g style="fill: #ffffff" transform="translate(265.136414 208.213066) scale(0.1 -0.1)">
     <use xlink:href="#DejaVuSans-2713"/>
    </g>
   </g>
   <g id="text_66">
    <!--  -->
    <g style="fill: #ffffff" transform="translate(331.829641 182.843939) scale(0.1 -0.1)">
     <use xlink:href="#DejaVuSans-2713"/>
    </g>
   </g>
   <g id="text_67">
    <!--  -->
    <g style="fill: #ffffff" transform="translate(554.140398 913.474811) scale(0.1 -0.1)">
     <use xlink:href="#DejaVuSans-2713"/>
    </g>
   </g>
   <g id="text_68">
    <!--  -->
    <g style="fill: #ffffff" transform="translate(387.407331 862.736556) scale(0.1 -0.1)">
     <use xlink:href="#DejaVuSans-2713"/>
    </g>
   </g>
   <g id="text_69">
    <!--  -->
    <g style="fill: #ffffff" transform="translate(454.100558 837.367429) scale(0.1 -0.1)">
     <use xlink:href="#DejaVuSans-2713"/>
    </g>
   </g>
   <g id="text_70">
    <!--  -->
    <g style="fill: #ffffff" transform="translate(287.36749 811.998301) scale(0.1 -0.1)">
     <use xlink:href="#DejaVuSans-2713"/>
    </g>
   </g>
   <g id="text_71">
    <!--  -->
    <g style="fill: #ffffff" transform="translate(520.793785 786.629174) scale(0.1 -0.1)">
     <use xlink:href="#DejaVuSans-2713"/>
    </g>
   </g>
   <g id="text_72">
    <!--  -->
    <g style="fill: #ffffff" transform="translate(465.216096 761.260046) scale(0.1 -0.1)">
     <use xlink:href="#DejaVuSans-2713"/>
    </g>
   </g>
   <g id="text_73">
    <!--  -->
    <g style="fill: #ffffff" transform="translate(520.793785 685.152664) scale(0.1 -0.1)">
     <use xlink:href="#DejaVuSans-2713"/>
    </g>
   </g>
   <g id="text_74">
    <!--  -->
    <g style="fill: #ffffff" transform="translate(554.140398 634.414409) scale(0.1 -0.1)">
     <use xlink:href="#DejaVuSans-2713"/>
    </g>
   </g>
   <g id="text_75">
    <!--  -->
    <g style="fill: #ffffff" transform="translate(620.833625 583.676154) scale(0.1 -0.1)">
     <use xlink:href="#DejaVuSans-2717"/>
    </g>
   </g>
   <g id="text_76">
    <!--  -->
    <g style="fill: #ffffff" transform="translate(365.176255 532.937898) scale(0.1 -0.1)">
     <use xlink:href="#DejaVuSans-2713"/>
    </g>
   </g>
   <g id="text_77">
    <!--  -->
    <g style="fill: #ffffff" transform="translate(398.522869 482.199643) scale(0.1 -0.1)">
     <use xlink:href="#DejaVuSans-2713"/>
    </g>
   </g>
   <g id="text_78">
    <!--  -->
    <g style="fill: #ffffff" transform="translate(442.98502 355.354006) scale(0.1 -0.1)">
     <use xlink:href="#DejaVuSans-2713"/>
    </g>
   </g>
   <g id="text_79">
    <!--  -->
    <g style="fill: #ffffff" transform="translate(554.140398 329.984878) scale(0.1 -0.1)">
     <use xlink:href="#DejaVuSans-2713"/>
    </g>
   </g>
   <g id="text_80">
    <!--  -->
    <g style="fill: #ffffff" transform="translate(331.829641 857.662731) scale(0.1 -0.1)">
     <use xlink:href="#DejaVuSans-2713"/>
    </g>
   </g>
   <g id="text_81">
    <!--  -->
    <g style="fill: #ffffff" transform="translate(442.98502 832.293603) scale(0.1 -0.1)">
     <use xlink:href="#DejaVuSans-2713"/>
    </g>
   </g>
   <g id="text_82">
    <!--  -->
    <g style="fill: #ffffff" transform="translate(465.216096 806.924476) scale(0.1 -0.1)">
     <use xlink:href="#DejaVuSans-2713"/>
    </g>
   </g>
   <g id="text_83">
    <!--  -->
    <g style="fill: #ffffff" transform="translate(376.291793 756.186221) scale(0.1 -0.1)">
     <use xlink:href="#DejaVuSans-2713"/>
    </g>
   </g>
   <g id="text_84">
    <!--  -->
    <g style="fill: #ffffff" transform="translate(565.255936 705.447966) scale(0.1 -0.1)">
     <use xlink:href="#DejaVuSans-2713"/>
    </g>
   </g>
   <g id="text_85">
    <!--  -->
    <g style="fill: #ffffff" transform="translate(354.060717 680.078838) scale(0.1 -0.1)">
     <use xlink:href="#DejaVuSans-2713"/>
    </g>
   </g>
   <g id="text_86">
    <!--  -->
    <g style="fill: #ffffff" transform="translate(598.60255 629.340583) scale(0.1 -0.1)">
     <use xlink:href="#DejaVuSans-2717"/>
    </g>
   </g>
   <g id="text_87">
    <!--  -->
    <g style="fill: #ffffff" transform="translate(254.020876 527.864073) scale(0.1 -0.1)">
     <use xlink:href="#DejaVuSans-2713"/>
    </g>
   </g>
   <g id="text_88">
    <!--  -->
    <g style="fill: #ffffff" transform="translate(598.60255 401.018435) scale(0.1 -0.1)">
     <use xlink:href="#DejaVuSans-2717"/>
    </g>
   </g>
   <g id="text_89">
    <!--  -->
    <g style="fill: #ffffff" transform="translate(409.638406 350.28018) scale(0.1 -0.1)">
     <use xlink:href="#DejaVuSans-2713"/>
    </g>
   </g>
   <g id="text_90">
    <!--  -->
    <g style="fill: #ffffff" transform="translate(298.483028 324.911053) scale(0.1 -0.1)">
     <use xlink:href="#DejaVuSans-2713"/>
    </g>
   </g>
   <g id="text_91">
    <!--  -->
    <g style="fill: #ffffff" transform="translate(576.371474 299.541925) scale(0.1 -0.1)">
     <use xlink:href="#DejaVuSans-2713"/>
    </g>
   </g>
   <g id="text_92">
    <!--  -->
    <g style="fill: #ffffff" transform="translate(576.371474 274.172798) scale(0.1 -0.1)">
     <use xlink:href="#DejaVuSans-2713"/>
    </g>
   </g>
   <g id="text_93">
    <!-- PICP by ticker (67% interval) -->
    <g transform="translate(283.190625 123.6) scale(0.12 -0.12)">
     <defs>
      <path id="DejaVuSans-20" transform="scale(0.015625)"/>
      <path id="DejaVuSans-62" d="M 3116 1747 
Q 3116 2381 2855 2742 
Q 2594 3103 2138 3103 
Q 1681 3103 1420 2742 
Q 1159 2381 1159 1747 
Q 1159 1113 1420 752 
Q 1681 391 2138 391 
Q 2594 391 2855 752 
Q 3116 1113 3116 1747 
z
M 1159 2969 
Q 1341 3281 1617 3432 
Q 1894 3584 2278 3584 
Q 2916 3584 3314 3078 
Q 3713 2572 3713 1747 
Q 3713 922 3314 415 
Q 2916 -91 2278 -91 
Q 1894 -91 1617 61 
Q 1341 213 1159 525 
L 1159 0 
L 581 0 
L 581 4863 
L 1159 4863 
L 1159 2969 
z
" transform="scale(0.015625)"/>
      <path id="DejaVuSans-79" d="M 2059 -325 
Q 1816 -950 1584 -1140 
Q 1353 -1331 966 -1331 
L 506 -1331 
L 506 -850 
L 844 -850 
Q 1081 -850 1212 -737 
Q 1344 -625 1503 -206 
L 1606 56 
L 191 3500 
L 800 3500 
L 1894 763 
L 2988 3500 
L 3597 3500 
L 2059 -325 
z
" transform="scale(0.015625)"/>
      <path id="DejaVuSans-74" d="M 1172 4494 
L 1172 3500 
L 2356 3500 
L 2356 3053 
L 1172 3053 
L 1172 1153 
Q 1172 725 1289 603 
Q 1406 481 1766 481 
L 2356 481 
L 2356 0 
L 1766 0 
Q 1100 0 847 248 
Q 594 497 594 1153 
L 594 3053 
L 172 3053 
L 172 3500 
L 594 3500 
L 594 4494 
L 1172 4494 
z
" transform="scale(0.015625)"/>
      <path id="DejaVuSans-69" d="M 603 3500 
L 1178 3500 
L 1178 0 
L 603 0 
L 603 3500 
z
M 603 4863 
L 1178 4863 
L 1178 4134 
L 603 4134 
L 603 4863 
z
" transform="scale(0.015625)"/>
      <path id="DejaVuSans-63" d="M 3122 3366 
L 3122 2828 
Q 2878 2963 2633 3030 
Q 2388 3097 2138 3097 
Q 1578 3097 1268 2742 
Q 959 2388 959 1747 
Q 959 1106 1268 751 
Q 1578 397 2138 397 
Q 2388 397 2633 464 
Q 2878 531 3122 666 
L 3122 134 
Q 2881 22 2623 -34 
Q 2366 -91 2075 -91 
Q 1284 -91 818 406 
Q 353 903 353 1747 
Q 353 2603 823 3093 
Q 1294 3584 2113 3584 
Q 2378 3584 2631 3529 
Q 2884 3475 3122 3366 
z
" transform="scale(0.015625)"/>
      <path id="DejaVuSans-6b" d="M 581 4863 
L 1159 4863 
L 1159 1991 
L 2875 3500 
L 3609 3500 
L 1753 1863 
L 3688 0 
L 2938 0 
L 1159 1709 
L 1159 0 
L 581 0 
L 581 4863 
z
" transform="scale(0.015625)"/>
      <path id="DejaVuSans-65" d="M 3597 1894 
L 3597 1613 
L 953 1613 
Q 991 1019 1311 708 
Q 1631 397 2203 397 
Q 2534 397 2845 478 
Q 3156 559 3463 722 
L 3463 178 
Q 3153 47 2828 -22 
Q 2503 -91 2169 -91 
Q 1331 -91 842 396 
Q 353 884 353 1716 
Q 353 2575 817 3079 
Q 1281 3584 2069 3584 
Q 2775 3584 3186 3129 
Q 3597 2675 3597 1894 
z
M 3022 2063 
Q 3016 2534 2758 2815 
Q 2500 3097 2075 3097 
Q 1594 3097 1305 2825 
Q 1016 2553 972 2059 
L 3022 2063 
z
" transform="scale(0.015625)"/>
      <path id="DejaVuSans-72" d="M 2631 2963 
Q 2534 3019 2420 3045 
Q 2306 3072 2169 3072 
Q 1681 3072 1420 2755 
Q 1159 2438 1159 1844 
L 1159 0 
L 581 0 
L 581 3500 
L 1159 3500 
L 1159 2956 
Q 1341 3275 1631 3429 
Q 1922 3584 2338 3584 
Q 2397 3584 2469 3576 
Q 2541 3569 2628 3553 
L 2631 2963 
z
" transform="scale(0.015625)"/>
      <path id="DejaVuSans-28" d="M 1984 4856 
Q 1566 4138 1362 3434 
Q 1159 2731 1159 2009 
Q 1159 1288 1364 580 
Q 1569 -128 1984 -844 
L 1484 -844 
Q 1016 -109 783 600 
Q 550 1309 550 2009 
Q 550 2706 781 3412 
Q 1013 4119 1484 4856 
L 1984 4856 
z
" transform="scale(0.015625)"/>
      <path id="DejaVuSans-6e" d="M 3513 2113 
L 3513 0 
L 2938 0 
L 2938 2094 
Q 2938 2591 2744 2837 
Q 2550 3084 2163 3084 
Q 1697 3084 1428 2787 
Q 1159 2491 1159 1978 
L 1159 0 
L 581 0 
L 581 3500 
L 1159 3500 
L 1159 2956 
Q 1366 3272 1645 3428 
Q 1925 3584 2291 3584 
Q 2894 3584 3203 3211 
Q 3513 2838 3513 2113 
z
" transform="scale(0.015625)"/>
      <path id="DejaVuSans-76" d="M 191 3500 
L 800 3500 
L 1894 563 
L 2988 3500 
L 3597 3500 
L 2284 0 
L 1503 0 
L 191 3500 
z
" transform="scale(0.015625)"/>
      <path id="DejaVuSans-61" d="M 2194 1759 
Q 1497 1759 1228 1600 
Q 959 1441 959 1056 
Q 959 750 1161 570 
Q 1363 391 1709 391 
Q 2188 391 2477 730 
Q 2766 1069 2766 1631 
L 2766 1759 
L 2194 1759 
z
M 3341 1997 
L 3341 0 
L 2766 0 
L 2766 531 
Q 2569 213 2275 61 
Q 1981 -91 1556 -91 
Q 1019 -91 701 211 
Q 384 513 384 1019 
Q 384 1609 779 1909 
Q 1175 2209 1959 2209 
L 2766 2209 
L 2766 2266 
Q 2766 2663 2505 2880 
Q 2244 3097 1772 3097 
Q 1472 3097 1187 3025 
Q 903 2953 641 2809 
L 641 3341 
Q 956 3463 1253 3523 
Q 1550 3584 1831 3584 
Q 2591 3584 2966 3190 
Q 3341 2797 3341 1997 
z
" transform="scale(0.015625)"/>
      <path id="DejaVuSans-6c" d="M 603 4863 
L 1178 4863 
L 1178 0 
L 603 0 
L 603 4863 
z
" transform="scale(0.015625)"/>
      <path id="DejaVuSans-29" d="M 513 4856 
L 1013 4856 
Q 1481 4119 1714 3412 
Q 1947 2706 1947 2009 
Q 1947 1309 1714 600 
Q 1481 -109 1013 -844 
L 513 -844 
Q 928 -128 1133 580 
Q 1338 1288 1338 2009 
Q 1338 2731 1133 3434 
Q 928 4138 513 4856 
z
" transform="scale(0.015625)"/>
     </defs>
     <use xlink:href="#DejaVuSans-50"/>
     <use xlink:href="#DejaVuSans-49" transform="translate(60.302734 0)"/>
     <use xlink:href="#DejaVuSans-43" transform="translate(89.794922 0)"/>
     <use xlink:href="#DejaVuSans-50" transform="translate(159.619141 0)"/>
     <use xlink:href="#DejaVuSans-20" transform="translate(219.921875 0)"/>
     <use xlink:href="#DejaVuSans-62" transform="translate(251.708984 0)"/>
     <use xlink:href="#DejaVuSans-79" transform="translate(315.185547 0)"/>
     <use xlink:href="#DejaVuSans-20" transform="translate(374.365234 0)"/>
     <use xlink:href="#DejaVuSans-74" transform="translate(406.152344 0)"/>
     <use xlink:href="#DejaVuSans-69" transform="translate(445.361328 0)"/>
     <use xlink:href="#DejaVuSans-63" transform="translate(473.144531 0)"/>
     <use xlink:href="#DejaVuSans-6b" transform="translate(528.125 0)"/>
     <use xlink:href="#DejaVuSans-65" transform="translate(582.410156 0)"/>
     <use xlink:href="#DejaVuSans-72" transform="translate(643.933594 0)"/>
     <use xlink:href="#DejaVuSans-20" transform="translate(685.046875 0)"/>
     <use xlink:href="#DejaVuSans-28" transform="translate(716.833984 0)"/>
     <use xlink:href="#DejaVuSans-36" transform="translate(755.847656 0)"/>
     <use xlink:href="#DejaVuSans-37" transform="translate(819.470703 0)"/>
     <use xlink:href="#DejaVuSans-25" transform="translate(883.09375 0)"/>
     <use xlink:href="#DejaVuSans-20" transform="translate(978.113281 0)"/>
     <use xlink:href="#DejaVuSans-69" transform="translate(1009.900391 0)"/>
     <use xlink:href="#DejaVuSans-6e" transform="translate(1037.683594 0)"/>
     <use xlink:href="#DejaVuSans-74" transform="translate(1101.0625 0)"/>
     <use xlink:href="#DejaVuSans-65" transform="translate(1140.271484 0)"/>
     <use xlink:href="#DejaVuSans-72" transform="translate(1201.794922 0)"/>
     <use xlink:href="#DejaVuSans-76" transform="translate(1242.908203 0)"/>
     <use xlink:href="#DejaVuSans-61" transform="translate(1302.087891 0)"/>
     <use xlink:href="#DejaVuSans-6c" transform="translate(1363.367188 0)"/>
     <use xlink:href="#DejaVuSans-29" transform="translate(1391.150391 0)"/>
    </g>
   </g>
   <g id="legend_1">
    <g id="patch_127">
     <path d="M 478.740625 210.990625 
L 641 210.990625 
Q 643 210.990625 643 208.990625 
L 643 136.6 
Q 643 134.6 641 134.6 
L 478.740625 134.6 
Q 476.740625 134.6 476.740625 136.6 
L 476.740625 208.990625 
Q 476.740625 210.990625 478.740625 210.990625 
z
" style="fill: #ffffff; opacity: 0.8; stroke: #cccccc; stroke-linejoin: miter"/>
    </g>
    <g id="line2d_38">
     <path d="M 480.740625 142.698438 
L 490.740625 142.698438 
L 500.740625 142.698438 
" style="fill: none; stroke-dasharray: 5.55,2.4; stroke-dashoffset: 0; stroke: #000000; stroke-width: 1.5"/>
    </g>
    <g id="text_94">
     <!-- Target -->
     <g transform="translate(508.740625 146.198438) scale(0.1 -0.1)">
      <defs>
       <path id="DejaVuSans-67" d="M 2906 1791 
Q 2906 2416 2648 2759 
Q 2391 3103 1925 3103 
Q 1463 3103 1205 2759 
Q 947 2416 947 1791 
Q 947 1169 1205 825 
Q 1463 481 1925 481 
Q 2391 481 2648 825 
Q 2906 1169 2906 1791 
z
M 3481 434 
Q 3481 -459 3084 -895 
Q 2688 -1331 1869 -1331 
Q 1566 -1331 1297 -1286 
Q 1028 -1241 775 -1147 
L 775 -588 
Q 1028 -725 1275 -790 
Q 1522 -856 1778 -856 
Q 2344 -856 2625 -561 
Q 2906 -266 2906 331 
L 2906 616 
Q 2728 306 2450 153 
Q 2172 0 1784 0 
Q 1141 0 747 490 
Q 353 981 353 1791 
Q 353 2603 747 3093 
Q 1141 3584 1784 3584 
Q 2172 3584 2450 3431 
Q 2728 3278 2906 2969 
L 2906 3500 
L 3481 3500 
L 3481 434 
z
" transform="scale(0.015625)"/>
      </defs>
      <use xlink:href="#DejaVuSans-54"/>
      <use xlink:href="#DejaVuSans-61" transform="translate(44.583984 0)"/>
      <use xlink:href="#DejaVuSans-72" transform="translate(105.863281 0)"/>
      <use xlink:href="#DejaVuSans-67" transform="translate(145.226562 0)"/>
      <use xlink:href="#DejaVuSans-65" transform="translate(208.703125 0)"/>
      <use xlink:href="#DejaVuSans-74" transform="translate(270.226562 0)"/>
     </g>
    </g>
    <g id="patch_128">
     <path d="M 480.740625 160.876563 
L 500.740625 160.876563 
L 500.740625 153.876563 
L 480.740625 153.876563 
z
" style="fill: #1f77b4"/>
    </g>
    <g id="text_95">
     <!-- GARCH -->
     <g transform="translate(508.740625 160.876563) scale(0.1 -0.1)">
      <use xlink:href="#DejaVuSans-47"/>
      <use xlink:href="#DejaVuSans-41" transform="translate(77.490234 0)"/>
      <use xlink:href="#DejaVuSans-52" transform="translate(145.898438 0)"/>
      <use xlink:href="#DejaVuSans-43" transform="translate(210.380859 0)"/>
      <use xlink:href="#DejaVuSans-48" transform="translate(280.205078 0)"/>
     </g>
    </g>
    <g id="patch_129">
     <path d="M 480.740625 175.554688 
L 500.740625 175.554688 
L 500.740625 168.554688 
L 480.740625 168.554688 
z
" style="fill: #ff7f0e"/>
    </g>
    <g id="text_96">
     <!-- LSTM MDN rv-data-3 -->
     <g transform="translate(508.740625 175.554688) scale(0.1 -0.1)">
      <defs>
       <path id="DejaVuSans-2d" d="M 313 2009 
L 1997 2009 
L 1997 1497 
L 313 1497 
L 313 2009 
z
" transform="scale(0.015625)"/>
       <path id="DejaVuSans-64" d="M 2906 2969 
L 2906 4863 
L 3481 4863 
L 3481 0 
L 2906 0 
L 2906 525 
Q 2725 213 2448 61 
Q 2172 -91 1784 -91 
Q 1150 -91 751 415 
Q 353 922 353 1747 
Q 353 2572 751 3078 
Q 1150 3584 1784 3584 
Q 2172 3584 2448 3432 
Q 2725 3281 2906 2969 
z
M 947 1747 
Q 947 1113 1208 752 
Q 1469 391 1925 391 
Q 2381 391 2643 752 
Q 2906 1113 2906 1747 
Q 2906 2381 2643 2742 
Q 2381 3103 1925 3103 
Q 1469 3103 1208 2742 
Q 947 2381 947 1747 
z
" transform="scale(0.015625)"/>
       <path id="DejaVuSans-33" d="M 2597 2516 
Q 3050 2419 3304 2112 
Q 3559 1806 3559 1356 
Q 3559 666 3084 287 
Q 2609 -91 1734 -91 
Q 1441 -91 1130 -33 
Q 819 25 488 141 
L 488 750 
Q 750 597 1062 519 
Q 1375 441 1716 441 
Q 2309 441 2620 675 
Q 2931 909 2931 1356 
Q 2931 1769 2642 2001 
Q 2353 2234 1838 2234 
L 1294 2234 
L 1294 2753 
L 1863 2753 
Q 2328 2753 2575 2939 
Q 2822 3125 2822 3475 
Q 2822 3834 2567 4026 
Q 2313 4219 1838 4219 
Q 1578 4219 1281 4162 
Q 984 4106 628 3988 
L 628 4550 
Q 988 4650 1302 4700 
Q 1616 4750 1894 4750 
Q 2613 4750 3031 4423 
Q 3450 4097 3450 3541 
Q 3450 3153 3228 2886 
Q 3006 2619 2597 2516 
z
" transform="scale(0.015625)"/>
      </defs>
      <use xlink:href="#DejaVuSans-4c"/>
      <use xlink:href="#DejaVuSans-53" transform="translate(55.712891 0)"/>
      <use xlink:href="#DejaVuSans-54" transform="translate(119.189453 0)"/>
      <use xlink:href="#DejaVuSans-4d" transform="translate(180.273438 0)"/>
      <use xlink:href="#DejaVuSans-20" transform="translate(266.552734 0)"/>
      <use xlink:href="#DejaVuSans-4d" transform="translate(298.339844 0)"/>
      <use xlink:href="#DejaVuSans-44" transform="translate(384.619141 0)"/>
      <use xlink:href="#DejaVuSans-4e" transform="translate(461.621094 0)"/>
      <use xlink:href="#DejaVuSans-20" transform="translate(536.425781 0)"/>
      <use xlink:href="#DejaVuSans-72" transform="translate(568.212891 0)"/>
      <use xlink:href="#DejaVuSans-76" transform="translate(609.326172 0)"/>
      <use xlink:href="#DejaVuSans-2d" transform="translate(665.880859 0)"/>
      <use xlink:href="#DejaVuSans-64" transform="translate(701.964844 0)"/>
      <use xlink:href="#DejaVuSans-61" transform="translate(765.441406 0)"/>
      <use xlink:href="#DejaVuSans-74" transform="translate(826.720703 0)"/>
      <use xlink:href="#DejaVuSans-61" transform="translate(865.929688 0)"/>
      <use xlink:href="#DejaVuSans-2d" transform="translate(927.208984 0)"/>
      <use xlink:href="#DejaVuSans-33" transform="translate(963.292969 0)"/>
     </g>
    </g>
    <g id="patch_130">
     <path d="M 480.740625 190.232813 
L 500.740625 190.232813 
L 500.740625 183.232813 
L 480.740625 183.232813 
z
" style="fill: #2ca02c"/>
    </g>
    <g id="text_97">
     <!-- LSTM MAF v3 -->
     <g transform="translate(508.740625 190.232813) scale(0.1 -0.1)">
      <use xlink:href="#DejaVuSans-4c"/>
      <use xlink:href="#DejaVuSans-53" transform="translate(55.712891 0)"/>
      <use xlink:href="#DejaVuSans-54" transform="translate(119.189453 0)"/>
      <use xlink:href="#DejaVuSans-4d" transform="translate(180.273438 0)"/>
      <use xlink:href="#DejaVuSans-20" transform="translate(266.552734 0)"/>
      <use xlink:href="#DejaVuSans-4d" transform="translate(298.339844 0)"/>
      <use xlink:href="#DejaVuSans-41" transform="translate(384.619141 0)"/>
      <use xlink:href="#DejaVuSans-46" transform="translate(453.027344 0)"/>
      <use xlink:href="#DejaVuSans-20" transform="translate(510.546875 0)"/>
      <use xlink:href="#DejaVuSans-76" transform="translate(542.333984 0)"/>
      <use xlink:href="#DejaVuSans-33" transform="translate(601.513672 0)"/>
     </g>
    </g>
    <g id="patch_131">
     <path d="M 480.740625 204.910938 
L 500.740625 204.910938 
L 500.740625 197.910938 
L 480.740625 197.910938 
z
" style="fill: #d62728"/>
    </g>
    <g id="text_98">
     <!-- LSTM MDN MAF Ensemble -->
     <g transform="translate(508.740625 204.910938) scale(0.1 -0.1)">
      <defs>
       <path id="DejaVuSans-73" d="M 2834 3397 
L 2834 2853 
Q 2591 2978 2328 3040 
Q 2066 3103 1784 3103 
Q 1356 3103 1142 2972 
Q 928 2841 928 2578 
Q 928 2378 1081 2264 
Q 1234 2150 1697 2047 
L 1894 2003 
Q 2506 1872 2764 1633 
Q 3022 1394 3022 966 
Q 3022 478 2636 193 
Q 2250 -91 1575 -91 
Q 1294 -91 989 -36 
Q 684 19 347 128 
L 347 722 
Q 666 556 975 473 
Q 1284 391 1588 391 
Q 1994 391 2212 530 
Q 2431 669 2431 922 
Q 2431 1156 2273 1281 
Q 2116 1406 1581 1522 
L 1381 1569 
Q 847 1681 609 1914 
Q 372 2147 372 2553 
Q 372 3047 722 3315 
Q 1072 3584 1716 3584 
Q 2034 3584 2315 3537 
Q 2597 3491 2834 3397 
z
" transform="scale(0.015625)"/>
       <path id="DejaVuSans-6d" d="M 3328 2828 
Q 3544 3216 3844 3400 
Q 4144 3584 4550 3584 
Q 5097 3584 5394 3201 
Q 5691 2819 5691 2113 
L 5691 0 
L 5113 0 
L 5113 2094 
Q 5113 2597 4934 2840 
Q 4756 3084 4391 3084 
Q 3944 3084 3684 2787 
Q 3425 2491 3425 1978 
L 3425 0 
L 2847 0 
L 2847 2094 
Q 2847 2600 2669 2842 
Q 2491 3084 2119 3084 
Q 1678 3084 1418 2786 
Q 1159 2488 1159 1978 
L 1159 0 
L 581 0 
L 581 3500 
L 1159 3500 
L 1159 2956 
Q 1356 3278 1631 3431 
Q 1906 3584 2284 3584 
Q 2666 3584 2933 3390 
Q 3200 3197 3328 2828 
z
" transform="scale(0.015625)"/>
      </defs>
      <use xlink:href="#DejaVuSans-4c"/>
      <use xlink:href="#DejaVuSans-53" transform="translate(55.712891 0)"/>
      <use xlink:href="#DejaVuSans-54" transform="translate(119.189453 0)"/>
      <use xlink:href="#DejaVuSans-4d" transform="translate(180.273438 0)"/>
      <use xlink:href="#DejaVuSans-20" transform="translate(266.552734 0)"/>
      <use xlink:href="#DejaVuSans-4d" transform="translate(298.339844 0)"/>
      <use xlink:href="#DejaVuSans-44" transform="translate(384.619141 0)"/>
      <use xlink:href="#DejaVuSans-4e" transform="translate(461.621094 0)"/>
      <use xlink:href="#DejaVuSans-20" transform="translate(536.425781 0)"/>
      <use xlink:href="#DejaVuSans-4d" transform="translate(568.212891 0)"/>
      <use xlink:href="#DejaVuSans-41" transform="translate(654.492188 0)"/>
      <use xlink:href="#DejaVuSans-46" transform="translate(722.900391 0)"/>
      <use xlink:href="#DejaVuSans-20" transform="translate(780.419922 0)"/>
      <use xlink:href="#DejaVuSans-45" transform="translate(812.207031 0)"/>
      <use xlink:href="#DejaVuSans-6e" transform="translate(875.390625 0)"/>
      <use xlink:href="#DejaVuSans-73" transform="translate(938.769531 0)"/>
      <use xlink:href="#DejaVuSans-65" transform="translate(990.869141 0)"/>
      <use xlink:href="#DejaVuSans-6d" transform="translate(1052.392578 0)"/>
      <use xlink:href="#DejaVuSans-62" transform="translate(1149.804688 0)"/>
      <use xlink:href="#DejaVuSans-6c" transform="translate(1213.28125 0)"/>
      <use xlink:href="#DejaVuSans-65" transform="translate(1241.064453 0)"/>
     </g>
    </g>
   </g>
  </g>
 </g>
 <defs>
  <clipPath id="pda4b35c7fa">
   <rect x="90" y="129.6" width="558" height="831.6"/>
  </clipPath>
 </defs>
</svg>
